<?xml version="1.0" encoding="UTF-8" standalone="no"?>
<!DOCTYPE svg PUBLIC "-//W3C//DTD SVG 1.1//EN"
 "http://www.w3.org/Graphics/SVG/1.1/DTD/svg11.dtd">
<!-- Generated by graphviz version 2.43.0 (0)
 -->
<!-- Title: act_neural_cover Pages: 1 -->
<svg width="477pt" height="138pt"
 viewBox="0.00 0.00 477.00 138.00" xmlns="http://www.w3.org/2000/svg" xmlns:xlink="http://www.w3.org/1999/xlink">
<g id="graph0" class="graph" transform="scale(1 1) rotate(0) translate(4 134)">
<title>act_neural_cover</title>
<!-- Node1 -->
<g id="Node000001" class="node">
<title>Node1</title>
<g id="a_Node000001"><a xlink:title="Generates a neural network that covers the specified input:action.">
<polygon fill="#999999" stroke="#666666" points="91,-55 0,-55 0,-36 91,-36 91,-55"/>
<text text-anchor="middle" x="45.5" y="-43" font-family="Helvetica,sans-Serif" font-size="10.00">act_neural_cover</text>
</a>
</g>
</g>
<!-- Node2 -->
<g id="Node000002" class="node">
<title>Node2</title>
<g id="a_Node000002"><a xlink:href="act__neural_8c.html#aa4616932ee69561f2324af10da2865de" target="_top" xlink:title="Computes the current neural network action using the input.">
<polygon fill="white" stroke="#666666" points="231,-83 127,-83 127,-64 231,-64 231,-83"/>
<text text-anchor="middle" x="179" y="-71" font-family="Helvetica,sans-Serif" font-size="10.00">act_neural_compute</text>
</a>
</g>
</g>
<!-- Node1&#45;&gt;Node2 -->
<g id="edge1_Node000001_Node000002" class="edge">
<title>Node1&#45;&gt;Node2</title>
<g id="a_edge1_Node000001_Node000002"><a xlink:title=" ">
<path fill="none" stroke="#63b8ff" d="M91.02,-54.98C101.3,-57.17 112.35,-59.52 123.01,-61.79"/>
<polygon fill="#63b8ff" stroke="#63b8ff" points="122.57,-65.28 133.08,-63.93 124.03,-58.43 122.57,-65.28"/>
</a>
</g>
</g>
<!-- Node8 -->
<g id="Node000008" class="node">
<title>Node8</title>
<g id="a_Node000008"><a xlink:href="neural_8c.html#ab83a82e116953e1b969198cd1cdff5e4" target="_top" xlink:title="Randomises the layers within a neural network.">
<polygon fill="white" stroke="#666666" points="212.5,-37 145.5,-37 145.5,-18 212.5,-18 212.5,-37"/>
<text text-anchor="middle" x="179" y="-25" font-family="Helvetica,sans-Serif" font-size="10.00">neural_rand</text>
</a>
</g>
</g>
<!-- Node1&#45;&gt;Node8 -->
<g id="edge8_Node000001_Node000008" class="edge">
<title>Node1&#45;&gt;Node8</title>
<g id="a_edge8_Node000001_Node000008"><a xlink:title=" ">
<path fill="none" stroke="#63b8ff" d="M91.02,-39.41C105.29,-37.45 121.05,-35.29 135.2,-33.36"/>
<polygon fill="#63b8ff" stroke="#63b8ff" points="135.73,-36.82 145.17,-31.99 134.78,-29.88 135.73,-36.82"/>
</a>
</g>
</g>
<!-- Node3 -->
<g id="Node000003" class="node">
<title>Node3</title>
<g id="a_Node000003"><a xlink:href="utils_8h.html#ae85373ce85c9be81cf1456fb58478274" target="_top" xlink:title="Returns the index of the largest element in vector X.">
<polygon fill="white" stroke="#666666" points="337,-130 288,-130 288,-111 337,-111 337,-130"/>
<text text-anchor="middle" x="312.5" y="-118" font-family="Helvetica,sans-Serif" font-size="10.00">argmax</text>
</a>
</g>
</g>
<!-- Node2&#45;&gt;Node3 -->
<g id="edge2_Node000002_Node000003" class="edge">
<title>Node2&#45;&gt;Node3</title>
<g id="a_edge2_Node000002_Node000003"><a xlink:title=" ">
<path fill="none" stroke="#63b8ff" d="M206.61,-83.01C227.18,-90.36 255.77,-100.58 277.92,-108.5"/>
<polygon fill="#63b8ff" stroke="#63b8ff" points="276.99,-111.88 287.58,-111.95 279.34,-105.29 276.99,-111.88"/>
</a>
</g>
</g>
<!-- Node4 -->
<g id="Node000004" class="node">
<title>Node4</title>
<g id="a_Node000004"><a xlink:href="neural_8c.html#a081aae61d4322cc2bed4f760aaeaa8a6" target="_top" xlink:title="Returns the outputs from the output layer of a neural network.">
<polygon fill="white" stroke="#666666" points="352.5,-93 272.5,-93 272.5,-74 352.5,-74 352.5,-93"/>
<text text-anchor="middle" x="312.5" y="-81" font-family="Helvetica,sans-Serif" font-size="10.00">neural_outputs</text>
</a>
</g>
</g>
<!-- Node2&#45;&gt;Node4 -->
<g id="edge3_Node000002_Node000004" class="edge">
<title>Node2&#45;&gt;Node4</title>
<g id="a_edge3_Node000002_Node000004"><a xlink:title=" ">
<path fill="none" stroke="#63b8ff" d="M231.22,-77.39C241.39,-78.17 252.04,-78.98 262.15,-79.75"/>
<polygon fill="#63b8ff" stroke="#63b8ff" points="262.2,-83.26 272.44,-80.53 262.73,-76.28 262.2,-83.26"/>
</a>
</g>
</g>
<!-- Node6 -->
<g id="Node000006" class="node">
<title>Node6</title>
<g id="a_Node000006"><a xlink:href="neural_8c.html#ae52d35ca06ded1387949731e1ad3d751" target="_top" xlink:title="Forward propagates a neural network.">
<polygon fill="white" stroke="#666666" points="358,-56 267,-56 267,-37 358,-37 358,-56"/>
<text text-anchor="middle" x="312.5" y="-44" font-family="Helvetica,sans-Serif" font-size="10.00">neural_propagate</text>
</a>
</g>
</g>
<!-- Node2&#45;&gt;Node6 -->
<g id="edge5_Node000002_Node000006" class="edge">
<title>Node2&#45;&gt;Node6</title>
<g id="a_edge5_Node000002_Node000006"><a xlink:title=" ">
<path fill="none" stroke="#63b8ff" d="M226.36,-63.98C236.23,-61.95 246.75,-59.8 256.89,-57.71"/>
<polygon fill="#63b8ff" stroke="#63b8ff" points="257.79,-61.1 266.88,-55.66 256.38,-54.24 257.79,-61.1"/>
</a>
</g>
</g>
<!-- Node5 -->
<g id="Node000005" class="node">
<title>Node5</title>
<g id="a_Node000005"><a xlink:href="neural__layer_8h.html#a5f745c9f7568146a1b5e0bb37a2666b8" target="_top" xlink:title="Returns the outputs of a layer.">
<polygon fill="white" stroke="#666666" points="466.5,-93 396.5,-93 396.5,-74 466.5,-74 466.5,-93"/>
<text text-anchor="middle" x="431.5" y="-81" font-family="Helvetica,sans-Serif" font-size="10.00">layer_output</text>
</a>
</g>
</g>
<!-- Node4&#45;&gt;Node5 -->
<g id="edge4_Node000004_Node000005" class="edge">
<title>Node4&#45;&gt;Node5</title>
<g id="a_edge4_Node000004_Node000005"><a xlink:title=" ">
<path fill="none" stroke="#63b8ff" d="M352.78,-83.5C363.45,-83.5 375.07,-83.5 386,-83.5"/>
<polygon fill="#63b8ff" stroke="#63b8ff" points="386.22,-87 396.22,-83.5 386.22,-80 386.22,-87"/>
</a>
</g>
</g>
<!-- Node6&#45;&gt;Node5 -->
<g id="edge7_Node000006_Node000005" class="edge">
<title>Node6&#45;&gt;Node5</title>
<g id="a_edge7_Node000006_Node000005"><a xlink:title=" ">
<path fill="none" stroke="#63b8ff" d="M343.63,-56.03C357.85,-60.52 375.02,-65.95 390.32,-70.8"/>
<polygon fill="#63b8ff" stroke="#63b8ff" points="389.48,-74.2 400.07,-73.88 391.59,-67.52 389.48,-74.2"/>
</a>
</g>
</g>
<!-- Node7 -->
<g id="Node000007" class="node">
<title>Node7</title>
<g id="a_Node000007"><a xlink:href="neural__layer_8h.html#aabfac5227c61181614f84ebf5e00e462" target="_top" xlink:title="Forward propagates an input through the layer.">
<polygon fill="white" stroke="#666666" points="469,-56 394,-56 394,-37 469,-37 469,-56"/>
<text text-anchor="middle" x="431.5" y="-44" font-family="Helvetica,sans-Serif" font-size="10.00">layer_forward</text>
</a>
</g>
</g>
<!-- Node6&#45;&gt;Node7 -->
<g id="edge6_Node000006_Node000007" class="edge">
<title>Node6&#45;&gt;Node7</title>
<g id="a_edge6_Node000006_Node000007"><a xlink:title=" ">
<path fill="none" stroke="#63b8ff" d="M358.07,-46.5C366.42,-46.5 375.18,-46.5 383.6,-46.5"/>
<polygon fill="#63b8ff" stroke="#63b8ff" points="383.66,-50 393.66,-46.5 383.66,-43 383.66,-50"/>
</a>
</g>
</g>
<!-- Node9 -->
<g id="Node000009" class="node">
<title>Node9</title>
<g id="a_Node000009"><a xlink:href="neural__layer_8h.html#a1230cf25ba52027afad6f728089644ab" target="_top" xlink:title="Randomises a layer.">
<polygon fill="white" stroke="#666666" points="343.5,-19 281.5,-19 281.5,0 343.5,0 343.5,-19"/>
<text text-anchor="middle" x="312.5" y="-7" font-family="Helvetica,sans-Serif" font-size="10.00">layer_rand</text>
</a>
</g>
</g>
<!-- Node8&#45;&gt;Node9 -->
<g id="edge9_Node000008_Node000009" class="edge">
<title>Node8&#45;&gt;Node9</title>
<g id="a_edge9_Node000008_Node000009"><a xlink:title=" ">
<path fill="none" stroke="#63b8ff" d="M212.51,-23.05C230.22,-20.63 252.3,-17.6 271.11,-15.03"/>
<polygon fill="#63b8ff" stroke="#63b8ff" points="271.74,-18.48 281.17,-13.65 270.79,-11.54 271.74,-18.48"/>
</a>
</g>
</g>
</g>
</svg>
