<?xml version="1.0" encoding="UTF-8" standalone="no"?>
<!DOCTYPE svg PUBLIC "-//W3C//DTD SVG 1.1//EN"
 "http://www.w3.org/Graphics/SVG/1.1/DTD/svg11.dtd">
<!-- Generated by graphviz version 2.43.0 (0)
 -->
<!-- Title: act_neural.h Pages: 1 -->
<svg width="667pt" height="196pt"
 viewBox="0.00 0.00 666.50 196.00" xmlns="http://www.w3.org/2000/svg" xmlns:xlink="http://www.w3.org/1999/xlink">
<g id="graph0" class="graph" transform="scale(1 1) rotate(0) translate(4 192)">
<title>act_neural.h</title>
<!-- Node1 -->
<g id="node1" class="node">
<title>Node1</title>
<g id="a_node1"><a xlink:title="Neural network action functions.">
<polygon fill="#bfbfbf" stroke="black" points="305.5,-168.5 305.5,-187.5 375.5,-187.5 375.5,-168.5 305.5,-168.5"/>
<text text-anchor="middle" x="340.5" y="-175.5" font-family="Helvetica,sans-Serif" font-size="10.00">act_neural.h</text>
</a>
</g>
</g>
<!-- Node2 -->
<g id="node2" class="node">
<title>Node2</title>
<g id="a_node2"><a xlink:href="action_8h.html" target="_top" xlink:title="Interface for classifier actions.">
<polygon fill="none" stroke="black" points="261,-112.5 261,-131.5 312,-131.5 312,-112.5 261,-112.5"/>
<text text-anchor="middle" x="286.5" y="-119.5" font-family="Helvetica,sans-Serif" font-size="10.00">action.h</text>
</a>
</g>
</g>
<!-- Node1&#45;&gt;Node2 -->
<g id="edge1" class="edge">
<title>Node1&#45;&gt;Node2</title>
<path fill="none" stroke="midnightblue" d="M331.58,-168.08C323.72,-160.22 312.07,-148.57 302.58,-139.08"/>
<polygon fill="midnightblue" stroke="midnightblue" points="304.8,-136.35 295.25,-131.75 299.85,-141.3 304.8,-136.35"/>
</g>
<!-- Node3 -->
<g id="node3" class="node">
<title>Node3</title>
<g id="a_node3"><a xlink:href="xcsf_8h.html" target="_top" xlink:title="XCSF data structures.">
<polygon fill="none" stroke="black" points="291.5,-56.5 291.5,-75.5 335.5,-75.5 335.5,-56.5 291.5,-56.5"/>
<text text-anchor="middle" x="313.5" y="-63.5" font-family="Helvetica,sans-Serif" font-size="10.00">xcsf.h</text>
</a>
</g>
</g>
<!-- Node1&#45;&gt;Node3 -->
<g id="edge23" class="edge">
<title>Node1&#45;&gt;Node3</title>
<path fill="none" stroke="midnightblue" d="M338.38,-168.37C334.02,-150.62 323.97,-109.67 318.06,-85.6"/>
<polygon fill="midnightblue" stroke="midnightblue" points="321.39,-84.47 315.61,-75.59 314.59,-86.14 321.39,-84.47"/>
</g>
<!-- Node14 -->
<g id="node14" class="node">
<title>Node14</title>
<g id="a_node14"><a xlink:href="neural_8h.html" target="_top" xlink:title="An implementation of a multi&#45;layer perceptron neural network.">
<polygon fill="none" stroke="black" points="449,-56.5 449,-75.5 500,-75.5 500,-56.5 449,-56.5"/>
<text text-anchor="middle" x="474.5" y="-63.5" font-family="Helvetica,sans-Serif" font-size="10.00">neural.h</text>
</a>
</g>
</g>
<!-- Node1&#45;&gt;Node14 -->
<g id="edge13" class="edge">
<title>Node1&#45;&gt;Node14</title>
<path fill="none" stroke="midnightblue" d="M375.57,-171.72C401.11,-166.09 434.73,-154.7 455.5,-132 467.02,-119.41 471.59,-100.19 473.38,-85.91"/>
<polygon fill="midnightblue" stroke="midnightblue" points="476.88,-86.02 474.3,-75.75 469.91,-85.39 476.88,-86.02"/>
</g>
<!-- Node15 -->
<g id="node15" class="node">
<title>Node15</title>
<g id="a_node15"><a xlink:href="neural__activations_8h.html" target="_top" xlink:title="Neural network activation functions.">
<polygon fill="none" stroke="black" points="12.5,-56.5 12.5,-75.5 116.5,-75.5 116.5,-56.5 12.5,-56.5"/>
<text text-anchor="middle" x="64.5" y="-63.5" font-family="Helvetica,sans-Serif" font-size="10.00">neural_activations.h</text>
</a>
</g>
</g>
<!-- Node1&#45;&gt;Node15 -->
<g id="edge19" class="edge">
<title>Node1&#45;&gt;Node15</title>
<path fill="none" stroke="midnightblue" d="M318.84,-168.37C270.17,-148.97 151.99,-101.87 95.53,-79.37"/>
<polygon fill="midnightblue" stroke="midnightblue" points="96.64,-76.04 86.06,-75.59 94.05,-82.55 96.64,-76.04"/>
</g>
<!-- Node16 -->
<g id="node16" class="node">
<title>Node16</title>
<g id="a_node16"><a xlink:href="neural__layer_8h.html" target="_top" xlink:title="Interface for neural network layers.">
<polygon fill="none" stroke="black" points="369,-112.5 369,-131.5 446,-131.5 446,-112.5 369,-112.5"/>
<text text-anchor="middle" x="407.5" y="-119.5" font-family="Helvetica,sans-Serif" font-size="10.00">neural_layer.h</text>
</a>
</g>
</g>
<!-- Node1&#45;&gt;Node16 -->
<g id="edge21" class="edge">
<title>Node1&#45;&gt;Node16</title>
<path fill="none" stroke="midnightblue" d="M351.26,-168.32C361.27,-160.26 376.39,-148.08 388.43,-138.37"/>
<polygon fill="midnightblue" stroke="midnightblue" points="390.95,-140.83 396.54,-131.83 386.56,-135.38 390.95,-140.83"/>
</g>
<!-- Node2&#45;&gt;Node3 -->
<g id="edge2" class="edge">
<title>Node2&#45;&gt;Node3</title>
<path fill="none" stroke="midnightblue" d="M290.96,-112.08C294.65,-104.69 300.02,-93.95 304.59,-84.81"/>
<polygon fill="midnightblue" stroke="midnightblue" points="307.78,-86.26 309.12,-75.75 301.52,-83.13 307.78,-86.26"/>
</g>
<!-- Node4 -->
<g id="node4" class="node">
<title>Node4</title>
<g id="a_node4"><a xlink:title=" ">
<polygon fill="none" stroke="#bfbfbf" points="209,-0.5 209,-19.5 256,-19.5 256,-0.5 209,-0.5"/>
<text text-anchor="middle" x="232.5" y="-7.5" font-family="Helvetica,sans-Serif" font-size="10.00">errno.h</text>
</a>
</g>
</g>
<!-- Node3&#45;&gt;Node4 -->
<g id="edge3" class="edge">
<title>Node3&#45;&gt;Node4</title>
<path fill="none" stroke="midnightblue" d="M300.49,-56.32C287.97,-47.98 268.82,-35.21 254.03,-25.35"/>
<polygon fill="midnightblue" stroke="midnightblue" points="255.74,-22.29 245.48,-19.65 251.86,-28.11 255.74,-22.29"/>
</g>
<!-- Node5 -->
<g id="node5" class="node">
<title>Node5</title>
<g id="a_node5"><a xlink:title=" ">
<polygon fill="none" stroke="#bfbfbf" points="274.5,-0.5 274.5,-19.5 318.5,-19.5 318.5,-0.5 274.5,-0.5"/>
<text text-anchor="middle" x="296.5" y="-7.5" font-family="Helvetica,sans-Serif" font-size="10.00">float.h</text>
</a>
</g>
</g>
<!-- Node3&#45;&gt;Node5 -->
<g id="edge4" class="edge">
<title>Node3&#45;&gt;Node5</title>
<path fill="none" stroke="midnightblue" d="M310.69,-56.08C308.42,-48.85 305.13,-38.41 302.29,-29.4"/>
<polygon fill="midnightblue" stroke="midnightblue" points="305.6,-28.24 299.25,-19.75 298.92,-30.34 305.6,-28.24"/>
</g>
<!-- Node6 -->
<g id="node6" class="node">
<title>Node6</title>
<g id="a_node6"><a xlink:title=" ">
<polygon fill="none" stroke="#bfbfbf" points="65,-0.5 65,-19.5 124,-19.5 124,-0.5 65,-0.5"/>
<text text-anchor="middle" x="94.5" y="-7.5" font-family="Helvetica,sans-Serif" font-size="10.00">inttypes.h</text>
</a>
</g>
</g>
<!-- Node3&#45;&gt;Node6 -->
<g id="edge5" class="edge">
<title>Node3&#45;&gt;Node6</title>
<path fill="none" stroke="midnightblue" d="M291.3,-59.53C254.4,-50.43 179.96,-32.07 133.96,-20.73"/>
<polygon fill="midnightblue" stroke="midnightblue" points="134.58,-17.28 124.04,-18.28 132.91,-24.08 134.58,-17.28"/>
</g>
<!-- Node7 -->
<g id="node7" class="node">
<title>Node7</title>
<g id="a_node7"><a xlink:title=" ">
<polygon fill="none" stroke="#bfbfbf" points="142.5,-0.5 142.5,-19.5 190.5,-19.5 190.5,-0.5 142.5,-0.5"/>
<text text-anchor="middle" x="166.5" y="-7.5" font-family="Helvetica,sans-Serif" font-size="10.00">limits.h</text>
</a>
</g>
</g>
<!-- Node3&#45;&gt;Node7 -->
<g id="edge6" class="edge">
<title>Node3&#45;&gt;Node7</title>
<path fill="none" stroke="midnightblue" d="M291.49,-56.92C267.13,-47.97 227.61,-33.45 199.53,-23.13"/>
<polygon fill="midnightblue" stroke="midnightblue" points="200.71,-19.84 190.12,-19.68 198.3,-26.41 200.71,-19.84"/>
</g>
<!-- Node8 -->
<g id="node8" class="node">
<title>Node8</title>
<g id="a_node8"><a xlink:title=" ">
<polygon fill="none" stroke="#bfbfbf" points="0,-0.5 0,-19.5 47,-19.5 47,-0.5 0,-0.5"/>
<text text-anchor="middle" x="23.5" y="-7.5" font-family="Helvetica,sans-Serif" font-size="10.00">math.h</text>
</a>
</g>
</g>
<!-- Node3&#45;&gt;Node8 -->
<g id="edge7" class="edge">
<title>Node3&#45;&gt;Node8</title>
<path fill="none" stroke="midnightblue" d="M291.26,-61.9C247.98,-55.7 149.23,-40.75 57.22,-20.22"/>
<polygon fill="midnightblue" stroke="midnightblue" points="57.72,-16.74 47.2,-17.95 56.18,-23.57 57.72,-16.74"/>
</g>
<!-- Node9 -->
<g id="node9" class="node">
<title>Node9</title>
<g id="a_node9"><a xlink:title=" ">
<polygon fill="none" stroke="#bfbfbf" points="602.5,-0.5 602.5,-19.5 658.5,-19.5 658.5,-0.5 602.5,-0.5"/>
<text text-anchor="middle" x="630.5" y="-7.5" font-family="Helvetica,sans-Serif" font-size="10.00">stdbool.h</text>
</a>
</g>
</g>
<!-- Node3&#45;&gt;Node9 -->
<g id="edge8" class="edge">
<title>Node3&#45;&gt;Node9</title>
<path fill="none" stroke="midnightblue" d="M335.75,-62.04C381.75,-55.78 490.84,-40.26 592.18,-20.14"/>
<polygon fill="midnightblue" stroke="midnightblue" points="593.15,-23.51 602.27,-18.11 591.78,-16.65 593.15,-23.51"/>
</g>
<!-- Node10 -->
<g id="node10" class="node">
<title>Node10</title>
<g id="a_node10"><a xlink:title=" ">
<polygon fill="none" stroke="#bfbfbf" points="337,-0.5 337,-19.5 386,-19.5 386,-0.5 337,-0.5"/>
<text text-anchor="middle" x="361.5" y="-7.5" font-family="Helvetica,sans-Serif" font-size="10.00">stdint.h</text>
</a>
</g>
</g>
<!-- Node3&#45;&gt;Node10 -->
<g id="edge9" class="edge">
<title>Node3&#45;&gt;Node10</title>
<path fill="none" stroke="midnightblue" d="M321.43,-56.08C328.35,-48.3 338.57,-36.8 346.95,-27.37"/>
<polygon fill="midnightblue" stroke="midnightblue" points="349.69,-29.55 353.72,-19.75 344.46,-24.9 349.69,-29.55"/>
</g>
<!-- Node11 -->
<g id="node11" class="node">
<title>Node11</title>
<g id="a_node11"><a xlink:title=" ">
<polygon fill="none" stroke="#bfbfbf" points="404.5,-0.5 404.5,-19.5 450.5,-19.5 450.5,-0.5 404.5,-0.5"/>
<text text-anchor="middle" x="427.5" y="-7.5" font-family="Helvetica,sans-Serif" font-size="10.00">stdio.h</text>
</a>
</g>
</g>
<!-- Node3&#45;&gt;Node11 -->
<g id="edge10" class="edge">
<title>Node3&#45;&gt;Node11</title>
<path fill="none" stroke="midnightblue" d="M331.56,-56.44C350.07,-47.68 379.08,-33.94 400.36,-23.86"/>
<polygon fill="midnightblue" stroke="midnightblue" points="401.98,-26.96 409.52,-19.52 398.99,-20.63 401.98,-26.96"/>
</g>
<!-- Node12 -->
<g id="node12" class="node">
<title>Node12</title>
<g id="a_node12"><a xlink:title=" ">
<polygon fill="none" stroke="#bfbfbf" points="468.5,-0.5 468.5,-19.5 516.5,-19.5 516.5,-0.5 468.5,-0.5"/>
<text text-anchor="middle" x="492.5" y="-7.5" font-family="Helvetica,sans-Serif" font-size="10.00">stdlib.h</text>
</a>
</g>
</g>
<!-- Node3&#45;&gt;Node12 -->
<g id="edge11" class="edge">
<title>Node3&#45;&gt;Node12</title>
<path fill="none" stroke="midnightblue" d="M335.81,-58.27C366.73,-48.94 422.88,-32 458.89,-21.14"/>
<polygon fill="midnightblue" stroke="midnightblue" points="459.92,-24.49 468.48,-18.25 457.9,-17.78 459.92,-24.49"/>
</g>
<!-- Node13 -->
<g id="node13" class="node">
<title>Node13</title>
<g id="a_node13"><a xlink:title=" ">
<polygon fill="none" stroke="#bfbfbf" points="535,-0.5 535,-19.5 584,-19.5 584,-0.5 535,-0.5"/>
<text text-anchor="middle" x="559.5" y="-7.5" font-family="Helvetica,sans-Serif" font-size="10.00">string.h</text>
</a>
</g>
</g>
<!-- Node3&#45;&gt;Node13 -->
<g id="edge12" class="edge">
<title>Node3&#45;&gt;Node13</title>
<path fill="none" stroke="midnightblue" d="M335.55,-60.69C372.52,-53.4 449.51,-37.86 524.56,-20.13"/>
<polygon fill="midnightblue" stroke="midnightblue" points="525.73,-23.45 534.65,-17.73 524.12,-16.64 525.73,-23.45"/>
</g>
<!-- Node14&#45;&gt;Node9 -->
<g id="edge14" class="edge">
<title>Node14&#45;&gt;Node9</title>
<path fill="none" stroke="midnightblue" d="M499.22,-56.44C525.35,-47.4 566.76,-33.06 596.08,-22.92"/>
<polygon fill="midnightblue" stroke="midnightblue" points="597.59,-26.1 605.9,-19.52 595.3,-19.48 597.59,-26.1"/>
</g>
<!-- Node14&#45;&gt;Node10 -->
<g id="edge15" class="edge">
<title>Node14&#45;&gt;Node10</title>
<path fill="none" stroke="midnightblue" d="M456.59,-56.44C438.25,-47.68 409.49,-33.94 388.41,-23.86"/>
<polygon fill="midnightblue" stroke="midnightblue" points="389.85,-20.67 379.32,-19.52 386.83,-26.99 389.85,-20.67"/>
</g>
<!-- Node14&#45;&gt;Node11 -->
<g id="edge16" class="edge">
<title>Node14&#45;&gt;Node11</title>
<path fill="none" stroke="midnightblue" d="M466.74,-56.08C459.96,-48.3 449.96,-36.8 441.74,-27.37"/>
<polygon fill="midnightblue" stroke="midnightblue" points="444.32,-25 435.12,-19.75 439.04,-29.59 444.32,-25"/>
</g>
<!-- Node14&#45;&gt;Node12 -->
<g id="edge17" class="edge">
<title>Node14&#45;&gt;Node12</title>
<path fill="none" stroke="midnightblue" d="M477.47,-56.08C479.88,-48.85 483.36,-38.41 486.37,-29.4"/>
<polygon fill="midnightblue" stroke="midnightblue" points="489.74,-30.34 489.58,-19.75 483.1,-28.13 489.74,-30.34"/>
</g>
<!-- Node14&#45;&gt;Node13 -->
<g id="edge18" class="edge">
<title>Node14&#45;&gt;Node13</title>
<path fill="none" stroke="midnightblue" d="M488.16,-56.32C501.42,-47.9 521.77,-34.97 537.35,-25.07"/>
<polygon fill="midnightblue" stroke="midnightblue" points="539.31,-27.97 545.88,-19.65 535.56,-22.06 539.31,-27.97"/>
</g>
<!-- Node15&#45;&gt;Node8 -->
<g id="edge20" class="edge">
<title>Node15&#45;&gt;Node8</title>
<path fill="none" stroke="midnightblue" d="M57.73,-56.08C51.94,-48.46 43.44,-37.26 36.36,-27.94"/>
<polygon fill="midnightblue" stroke="midnightblue" points="38.98,-25.6 30.14,-19.75 33.4,-29.83 38.98,-25.6"/>
</g>
<!-- Node16&#45;&gt;Node14 -->
<g id="edge22" class="edge">
<title>Node16&#45;&gt;Node14</title>
<path fill="none" stroke="midnightblue" d="M418.26,-112.32C428.27,-104.26 443.39,-92.08 455.43,-82.37"/>
<polygon fill="midnightblue" stroke="midnightblue" points="457.95,-84.83 463.54,-75.83 453.56,-79.38 457.95,-84.83"/>
</g>
</g>
</svg>
