<?xml version="1.0" encoding="UTF-8" standalone="no"?>
<!DOCTYPE svg PUBLIC "-//W3C//DTD SVG 1.1//EN"
 "http://www.w3.org/Graphics/SVG/1.1/DTD/svg11.dtd">
<!-- Generated by graphviz version 2.43.0 (0)
 -->
<!-- Title: act_neural.h Pages: 1 -->
<svg width="764pt" height="247pt"
 viewBox="0.00 0.00 763.50 247.00" xmlns="http://www.w3.org/2000/svg" xmlns:xlink="http://www.w3.org/1999/xlink">
<g id="graph0" class="graph" transform="scale(1 1) rotate(0) translate(4 243)">
<title>act_neural.h</title>
<!-- Node1 -->
<g id="Node000001" class="node">
<title>Node1</title>
<g id="a_Node000001"><a xlink:title="Neural network action functions.">
<polygon fill="#999999" stroke="#666666" points="420.5,-239 350.5,-239 350.5,-220 420.5,-220 420.5,-239"/>
<text text-anchor="middle" x="385.5" y="-227" font-family="Helvetica,sans-Serif" font-size="10.00">act_neural.h</text>
</a>
</g>
</g>
<!-- Node2 -->
<g id="Node000002" class="node">
<title>Node2</title>
<g id="a_Node000002"><a xlink:href="action_8h.html" target="_top" xlink:title="Interface for classifier actions.">
<polygon fill="white" stroke="#666666" points="411,-184 360,-184 360,-165 411,-165 411,-184"/>
<text text-anchor="middle" x="385.5" y="-172" font-family="Helvetica,sans-Serif" font-size="10.00">action.h</text>
</a>
</g>
</g>
<!-- Node1&#45;&gt;Node2 -->
<g id="edge1_Node000001_Node000002" class="edge">
<title>Node1&#45;&gt;Node2</title>
<g id="a_edge1_Node000001_Node000002"><a xlink:title=" ">
<path fill="none" stroke="#63b8ff" d="M385.5,-219.75C385.5,-212.8 385.5,-202.85 385.5,-194.13"/>
<polygon fill="#63b8ff" stroke="#63b8ff" points="389,-194.09 385.5,-184.09 382,-194.09 389,-194.09"/>
</a>
</g>
</g>
<!-- Node3 -->
<g id="Node000003" class="node">
<title>Node3</title>
<g id="a_Node000003"><a xlink:href="xcsf_8h.html" target="_top" xlink:title="XCSF data structures.">
<polygon fill="white" stroke="#666666" points="353.5,-129 309.5,-129 309.5,-110 353.5,-110 353.5,-129"/>
<text text-anchor="middle" x="331.5" y="-117" font-family="Helvetica,sans-Serif" font-size="10.00">xcsf.h</text>
</a>
</g>
</g>
<!-- Node1&#45;&gt;Node3 -->
<g id="edge33_Node000001_Node000003" class="edge">
<title>Node1&#45;&gt;Node3</title>
<g id="a_edge33_Node000001_Node000003"><a xlink:title=" ">
<path fill="none" stroke="#63b8ff" d="M377.18,-219.99C369.31,-211.51 357.65,-197.78 350.5,-184 343.12,-169.78 338.15,-152.25 335.15,-139.21"/>
<polygon fill="#63b8ff" stroke="#63b8ff" points="338.5,-138.16 333.01,-129.11 331.66,-139.61 338.5,-138.16"/>
</a>
</g>
</g>
<!-- Node17 -->
<g id="Node000017" class="node">
<title>Node17</title>
<g id="a_Node000017"><a xlink:href="neural_8h.html" target="_top" xlink:title="An implementation of a multi&#45;layer perceptron neural network.">
<polygon fill="white" stroke="#666666" points="564,-129 513,-129 513,-110 564,-110 564,-129"/>
<text text-anchor="middle" x="538.5" y="-117" font-family="Helvetica,sans-Serif" font-size="10.00">neural.h</text>
</a>
</g>
</g>
<!-- Node1&#45;&gt;Node17 -->
<g id="edge20_Node000001_Node000017" class="edge">
<title>Node1&#45;&gt;Node17</title>
<g id="a_edge20_Node000001_Node000017"><a xlink:title=" ">
<path fill="none" stroke="#63b8ff" d="M397.76,-219.84C423.95,-201.36 485.57,-157.86 517.89,-135.05"/>
<polygon fill="#63b8ff" stroke="#63b8ff" points="520.03,-137.82 526.18,-129.2 515.99,-132.1 520.03,-137.82"/>
</a>
</g>
</g>
<!-- Node18 -->
<g id="Node000018" class="node">
<title>Node18</title>
<g id="a_Node000018"><a xlink:href="neural__activations_8h.html" target="_top" xlink:title="Neural network activation functions.">
<polygon fill="white" stroke="#666666" points="175.5,-184 71.5,-184 71.5,-165 175.5,-165 175.5,-184"/>
<text text-anchor="middle" x="123.5" y="-172" font-family="Helvetica,sans-Serif" font-size="10.00">neural_activations.h</text>
</a>
</g>
</g>
<!-- Node1&#45;&gt;Node18 -->
<g id="edge27_Node000001_Node000018" class="edge">
<title>Node1&#45;&gt;Node18</title>
<g id="a_edge27_Node000001_Node000018"><a xlink:title=" ">
<path fill="none" stroke="#63b8ff" d="M350.44,-221.41C305.6,-212.34 227.57,-196.55 175.72,-186.06"/>
<polygon fill="#63b8ff" stroke="#63b8ff" points="176.22,-182.59 165.72,-184.04 174.83,-189.45 176.22,-182.59"/>
</a>
</g>
</g>
<!-- Node19 -->
<g id="Node000019" class="node">
<title>Node19</title>
<g id="a_Node000019"><a xlink:href="neural__layer_8h.html" target="_top" xlink:title="Interface for neural network layers.">
<polygon fill="white" stroke="#666666" points="577,-184 500,-184 500,-165 577,-165 577,-184"/>
<text text-anchor="middle" x="538.5" y="-172" font-family="Helvetica,sans-Serif" font-size="10.00">neural_layer.h</text>
</a>
</g>
</g>
<!-- Node1&#45;&gt;Node19 -->
<g id="edge29_Node000001_Node000019" class="edge">
<title>Node1&#45;&gt;Node19</title>
<g id="a_edge29_Node000001_Node000019"><a xlink:title=" ">
<path fill="none" stroke="#63b8ff" d="M410.08,-219.98C435.55,-211.16 475.54,-197.31 504.13,-187.41"/>
<polygon fill="#63b8ff" stroke="#63b8ff" points="505.42,-190.66 513.73,-184.08 503.13,-184.05 505.42,-190.66"/>
</a>
</g>
</g>
<!-- Node2&#45;&gt;Node3 -->
<g id="edge2_Node000002_Node000003" class="edge">
<title>Node2&#45;&gt;Node3</title>
<g id="a_edge2_Node000002_Node000003"><a xlink:title=" ">
<path fill="none" stroke="#63b8ff" d="M376.58,-164.75C368.72,-157.03 357.07,-145.6 347.58,-136.28"/>
<polygon fill="#63b8ff" stroke="#63b8ff" points="349.84,-133.6 340.25,-129.09 344.94,-138.59 349.84,-133.6"/>
</a>
</g>
</g>
<!-- Node4 -->
<g id="Node000004" class="node">
<title>Node4</title>
<g id="a_Node000004"><a xlink:href="utils_8h.html" target="_top" xlink:title="Utility functions for random number handling, etc.">
<polygon fill="white" stroke="#666666" points="654,-74 611,-74 611,-55 654,-55 654,-74"/>
<text text-anchor="middle" x="632.5" y="-62" font-family="Helvetica,sans-Serif" font-size="10.00">utils.h</text>
</a>
</g>
</g>
<!-- Node3&#45;&gt;Node4 -->
<g id="edge3_Node000003_Node000004" class="edge">
<title>Node3&#45;&gt;Node4</title>
<g id="a_edge3_Node000003_Node000004"><a xlink:title=" ">
<path fill="none" stroke="#63b8ff" d="M353.63,-114.6C406.38,-105.31 539.66,-81.85 600.87,-71.07"/>
<polygon fill="#63b8ff" stroke="#63b8ff" points="601.5,-74.51 610.74,-69.33 600.28,-67.62 601.5,-74.51"/>
</a>
</g>
</g>
<!-- Node7 -->
<g id="Node000007" class="node">
<title>Node7</title>
<g id="a_Node000007"><a xlink:title=" ">
<polygon fill="#e0e0e0" stroke="#999999" points="47,-19 0,-19 0,0 47,0 47,-19"/>
<text text-anchor="middle" x="23.5" y="-7" font-family="Helvetica,sans-Serif" font-size="10.00">math.h</text>
</a>
</g>
</g>
<!-- Node3&#45;&gt;Node7 -->
<g id="edge14_Node000003_Node000007" class="edge">
<title>Node3&#45;&gt;Node7</title>
<g id="a_edge14_Node000003_Node000007"><a xlink:title=" ">
<path fill="none" stroke="#63b8ff" d="M309.47,-118.06C249.01,-116.42 82.41,-108.75 42.5,-74 29.9,-63.03 25.48,-44.08 24.02,-29.73"/>
<polygon fill="#63b8ff" stroke="#63b8ff" points="27.49,-29.21 23.37,-19.44 20.5,-29.64 27.49,-29.21"/>
</a>
</g>
</g>
<!-- Node8 -->
<g id="Node000008" class="node">
<title>Node8</title>
<g id="a_Node000008"><a xlink:title=" ">
<polygon fill="#e0e0e0" stroke="#999999" points="361.5,-19 305.5,-19 305.5,0 361.5,0 361.5,-19"/>
<text text-anchor="middle" x="333.5" y="-7" font-family="Helvetica,sans-Serif" font-size="10.00">stdbool.h</text>
</a>
</g>
</g>
<!-- Node3&#45;&gt;Node8 -->
<g id="edge15_Node000003_Node000008" class="edge">
<title>Node3&#45;&gt;Node8</title>
<g id="a_edge15_Node000003_Node000008"><a xlink:title=" ">
<path fill="none" stroke="#63b8ff" d="M319.2,-109.85C304.21,-98.15 281.89,-76.29 290.5,-55 295.19,-43.41 304.5,-33.16 313.26,-25.43"/>
<polygon fill="#63b8ff" stroke="#63b8ff" points="315.5,-28.12 321.01,-19.07 311.06,-22.71 315.5,-28.12"/>
</a>
</g>
</g>
<!-- Node9 -->
<g id="Node000009" class="node">
<title>Node9</title>
<g id="a_Node000009"><a xlink:title=" ">
<polygon fill="#e0e0e0" stroke="#999999" points="425.5,-19 379.5,-19 379.5,0 425.5,0 425.5,-19"/>
<text text-anchor="middle" x="402.5" y="-7" font-family="Helvetica,sans-Serif" font-size="10.00">stdio.h</text>
</a>
</g>
</g>
<!-- Node3&#45;&gt;Node9 -->
<g id="edge17_Node000003_Node000009" class="edge">
<title>Node3&#45;&gt;Node9</title>
<g id="a_edge17_Node000003_Node000009"><a xlink:title=" ">
<path fill="none" stroke="#63b8ff" d="M337.31,-109.66C349.07,-91.77 375.87,-51 391.2,-27.69"/>
<polygon fill="#63b8ff" stroke="#63b8ff" points="394.24,-29.44 396.81,-19.16 388.39,-25.59 394.24,-29.44"/>
</a>
</g>
</g>
<!-- Node10 -->
<g id="Node000010" class="node">
<title>Node10</title>
<g id="a_Node000010"><a xlink:title=" ">
<polygon fill="#e0e0e0" stroke="#999999" points="755.5,-19 707.5,-19 707.5,0 755.5,0 755.5,-19"/>
<text text-anchor="middle" x="731.5" y="-7" font-family="Helvetica,sans-Serif" font-size="10.00">stdlib.h</text>
</a>
</g>
</g>
<!-- Node3&#45;&gt;Node10 -->
<g id="edge18_Node000003_Node000010" class="edge">
<title>Node3&#45;&gt;Node10</title>
<g id="a_edge18_Node000003_Node000010"><a xlink:title=" ">
<path fill="none" stroke="#63b8ff" d="M353.53,-117.29C418.47,-113.46 608.05,-100.26 663.5,-74 686.2,-63.25 706.41,-42.14 718.78,-27.21"/>
<polygon fill="#63b8ff" stroke="#63b8ff" points="721.62,-29.26 725.12,-19.26 716.15,-24.9 721.62,-29.26"/>
</a>
</g>
</g>
<!-- Node11 -->
<g id="Node000011" class="node">
<title>Node11</title>
<g id="a_Node000011"><a xlink:title=" ">
<polygon fill="#e0e0e0" stroke="#999999" points="243,-74 196,-74 196,-55 243,-55 243,-74"/>
<text text-anchor="middle" x="219.5" y="-62" font-family="Helvetica,sans-Serif" font-size="10.00">errno.h</text>
</a>
</g>
</g>
<!-- Node3&#45;&gt;Node11 -->
<g id="edge10_Node000003_Node000011" class="edge">
<title>Node3&#45;&gt;Node11</title>
<g id="a_edge10_Node000003_Node000011"><a xlink:title=" ">
<path fill="none" stroke="#63b8ff" d="M313.51,-109.98C295.57,-101.5 267.78,-88.35 247.07,-78.54"/>
<polygon fill="#63b8ff" stroke="#63b8ff" points="248.36,-75.28 237.82,-74.17 245.36,-81.61 248.36,-75.28"/>
</a>
</g>
</g>
<!-- Node12 -->
<g id="Node000012" class="node">
<title>Node12</title>
<g id="a_Node000012"><a xlink:title=" ">
<polygon fill="#e0e0e0" stroke="#999999" points="343.5,-74 299.5,-74 299.5,-55 343.5,-55 343.5,-74"/>
<text text-anchor="middle" x="321.5" y="-62" font-family="Helvetica,sans-Serif" font-size="10.00">float.h</text>
</a>
</g>
</g>
<!-- Node3&#45;&gt;Node12 -->
<g id="edge11_Node000003_Node000012" class="edge">
<title>Node3&#45;&gt;Node12</title>
<g id="a_edge11_Node000003_Node000012"><a xlink:title=" ">
<path fill="none" stroke="#63b8ff" d="M329.85,-109.75C328.54,-102.8 326.66,-92.85 325.02,-84.13"/>
<polygon fill="#63b8ff" stroke="#63b8ff" points="328.41,-83.27 323.12,-74.09 321.54,-84.56 328.41,-83.27"/>
</a>
</g>
</g>
<!-- Node13 -->
<g id="Node000013" class="node">
<title>Node13</title>
<g id="a_Node000013"><a xlink:title=" ">
<polygon fill="#e0e0e0" stroke="#999999" points="111,-74 52,-74 52,-55 111,-55 111,-74"/>
<text text-anchor="middle" x="81.5" y="-62" font-family="Helvetica,sans-Serif" font-size="10.00">inttypes.h</text>
</a>
</g>
</g>
<!-- Node3&#45;&gt;Node13 -->
<g id="edge12_Node000003_Node000013" class="edge">
<title>Node3&#45;&gt;Node13</title>
<g id="a_edge12_Node000003_Node000013"><a xlink:title=" ">
<path fill="none" stroke="#63b8ff" d="M309.31,-113.87C272.51,-106.18 196.25,-90.21 121.38,-74.18"/>
<polygon fill="#63b8ff" stroke="#63b8ff" points="121.82,-70.69 111.31,-72.02 120.35,-77.54 121.82,-70.69"/>
</a>
</g>
</g>
<!-- Node14 -->
<g id="Node000014" class="node">
<title>Node14</title>
<g id="a_Node000014"><a xlink:title=" ">
<polygon fill="#e0e0e0" stroke="#999999" points="177.5,-74 129.5,-74 129.5,-55 177.5,-55 177.5,-74"/>
<text text-anchor="middle" x="153.5" y="-62" font-family="Helvetica,sans-Serif" font-size="10.00">limits.h</text>
</a>
</g>
</g>
<!-- Node3&#45;&gt;Node14 -->
<g id="edge13_Node000003_Node000014" class="edge">
<title>Node3&#45;&gt;Node14</title>
<g id="a_edge13_Node000003_Node000014"><a xlink:title=" ">
<path fill="none" stroke="#63b8ff" d="M309.32,-111.89C278.78,-102.8 223.51,-86.35 187.68,-75.68"/>
<polygon fill="#63b8ff" stroke="#63b8ff" points="188.26,-72.2 177.67,-72.7 186.26,-78.91 188.26,-72.2"/>
</a>
</g>
</g>
<!-- Node15 -->
<g id="Node000015" class="node">
<title>Node15</title>
<g id="a_Node000015"><a xlink:title=" ">
<polygon fill="#e0e0e0" stroke="#999999" points="449,-74 400,-74 400,-55 449,-55 449,-74"/>
<text text-anchor="middle" x="424.5" y="-62" font-family="Helvetica,sans-Serif" font-size="10.00">stdint.h</text>
</a>
</g>
</g>
<!-- Node3&#45;&gt;Node15 -->
<g id="edge16_Node000003_Node000015" class="edge">
<title>Node3&#45;&gt;Node15</title>
<g id="a_edge16_Node000003_Node000015"><a xlink:title=" ">
<path fill="none" stroke="#63b8ff" d="M346.44,-109.98C361,-101.69 383.37,-88.94 400.43,-79.22"/>
<polygon fill="#63b8ff" stroke="#63b8ff" points="402.33,-82.16 409.29,-74.17 398.86,-76.08 402.33,-82.16"/>
</a>
</g>
</g>
<!-- Node16 -->
<g id="Node000016" class="node">
<title>Node16</title>
<g id="a_Node000016"><a xlink:title=" ">
<polygon fill="#e0e0e0" stroke="#999999" points="516,-74 467,-74 467,-55 516,-55 516,-74"/>
<text text-anchor="middle" x="491.5" y="-62" font-family="Helvetica,sans-Serif" font-size="10.00">string.h</text>
</a>
</g>
</g>
<!-- Node3&#45;&gt;Node16 -->
<g id="edge19_Node000003_Node000016" class="edge">
<title>Node3&#45;&gt;Node16</title>
<g id="a_edge19_Node000003_Node000016"><a xlink:title=" ">
<path fill="none" stroke="#63b8ff" d="M353.75,-111.13C380.56,-102.25 425.89,-87.23 457.19,-76.87"/>
<polygon fill="#63b8ff" stroke="#63b8ff" points="458.43,-80.14 466.82,-73.68 456.22,-73.5 458.43,-80.14"/>
</a>
</g>
</g>
<!-- Node5 -->
<g id="Node000005" class="node">
<title>Node5</title>
<g id="a_Node000005"><a xlink:title=" ">
<polygon fill="#e0e0e0" stroke="#999999" points="689.5,-19 575.5,-19 575.5,0 689.5,0 689.5,-19"/>
<text text-anchor="middle" x="632.5" y="-7" font-family="Helvetica,sans-Serif" font-size="10.00">../lib/cJSON/cJSON.h</text>
</a>
</g>
</g>
<!-- Node4&#45;&gt;Node5 -->
<g id="edge4_Node000004_Node000005" class="edge">
<title>Node4&#45;&gt;Node5</title>
<g id="a_edge4_Node000004_Node000005"><a xlink:title=" ">
<path fill="none" stroke="#63b8ff" d="M632.5,-54.75C632.5,-47.8 632.5,-37.85 632.5,-29.13"/>
<polygon fill="#63b8ff" stroke="#63b8ff" points="636,-29.09 632.5,-19.09 629,-29.09 636,-29.09"/>
</a>
</g>
</g>
<!-- Node6 -->
<g id="Node000006" class="node">
<title>Node6</title>
<g id="a_Node000006"><a xlink:title=" ">
<polygon fill="#e0e0e0" stroke="#999999" points="557,-19 444,-19 444,0 557,0 557,-19"/>
<text text-anchor="middle" x="500.5" y="-7" font-family="Helvetica,sans-Serif" font-size="10.00">../lib/dSFMT/dSFMT.h</text>
</a>
</g>
</g>
<!-- Node4&#45;&gt;Node6 -->
<g id="edge5_Node000004_Node000006" class="edge">
<title>Node4&#45;&gt;Node6</title>
<g id="a_edge5_Node000004_Node000006"><a xlink:title=" ">
<path fill="none" stroke="#63b8ff" d="M611.29,-54.98C589.77,-46.34 556.22,-32.87 531.67,-23.02"/>
<polygon fill="#63b8ff" stroke="#63b8ff" points="532.68,-19.65 522.09,-19.17 530.07,-26.14 532.68,-19.65"/>
</a>
</g>
</g>
<!-- Node4&#45;&gt;Node7 -->
<g id="edge6_Node000004_Node000007" class="edge">
<title>Node4&#45;&gt;Node7</title>
<g id="a_edge6_Node000004_Node000007"><a xlink:title=" ">
<path fill="none" stroke="#63b8ff" d="M610.83,-61.61C519.88,-53.7 168.68,-23.13 57.47,-13.46"/>
<polygon fill="#63b8ff" stroke="#63b8ff" points="57.45,-9.94 47.18,-12.56 56.84,-16.91 57.45,-9.94"/>
</a>
</g>
</g>
<!-- Node4&#45;&gt;Node8 -->
<g id="edge7_Node000004_Node000008" class="edge">
<title>Node4&#45;&gt;Node8</title>
<g id="a_edge7_Node000004_Node000008"><a xlink:title=" ">
<path fill="none" stroke="#63b8ff" d="M610.68,-60.23C567.19,-53.62 466.39,-37.83 371.77,-19.16"/>
<polygon fill="#63b8ff" stroke="#63b8ff" points="372.24,-15.68 361.75,-17.17 370.87,-22.55 372.24,-15.68"/>
</a>
</g>
</g>
<!-- Node4&#45;&gt;Node9 -->
<g id="edge8_Node000004_Node000009" class="edge">
<title>Node4&#45;&gt;Node9</title>
<g id="a_edge8_Node000004_Node000009"><a xlink:title=" ">
<path fill="none" stroke="#63b8ff" d="M610.81,-58.33C606.09,-57.22 601.13,-56.06 596.5,-55 527.7,-39.23 507.84,-36.67 435.6,-19.19"/>
<polygon fill="#63b8ff" stroke="#63b8ff" points="436.09,-15.71 425.54,-16.74 434.43,-22.51 436.09,-15.71"/>
</a>
</g>
</g>
<!-- Node4&#45;&gt;Node10 -->
<g id="edge9_Node000004_Node000010" class="edge">
<title>Node4&#45;&gt;Node10</title>
<g id="a_edge9_Node000004_Node000010"><a xlink:title=" ">
<path fill="none" stroke="#63b8ff" d="M648.41,-54.98C664.05,-46.61 688.16,-33.7 706.38,-23.95"/>
<polygon fill="#63b8ff" stroke="#63b8ff" points="708.14,-26.98 715.3,-19.17 704.84,-20.8 708.14,-26.98"/>
</a>
</g>
</g>
<!-- Node17&#45;&gt;Node4 -->
<g id="edge21_Node000017_Node000004" class="edge">
<title>Node17&#45;&gt;Node4</title>
<g id="a_edge21_Node000017_Node000004"><a xlink:title=" ">
<path fill="none" stroke="#63b8ff" d="M553.6,-109.98C568.32,-101.69 590.92,-88.94 608.17,-79.22"/>
<polygon fill="#63b8ff" stroke="#63b8ff" points="610.13,-82.13 617.12,-74.17 606.69,-76.03 610.13,-82.13"/>
</a>
</g>
</g>
<!-- Node17&#45;&gt;Node8 -->
<g id="edge22_Node000017_Node000008" class="edge">
<title>Node17&#45;&gt;Node8</title>
<g id="a_edge22_Node000017_Node000008"><a xlink:title=" ">
<path fill="none" stroke="#63b8ff" d="M539.42,-109.78C540.34,-96.15 539.95,-69.83 525.5,-55 525.16,-54.65 427.59,-32.15 371.69,-19.28"/>
<polygon fill="#63b8ff" stroke="#63b8ff" points="372.3,-15.83 361.77,-17 370.73,-22.65 372.3,-15.83"/>
</a>
</g>
</g>
<!-- Node17&#45;&gt;Node9 -->
<g id="edge24_Node000017_Node000009" class="edge">
<title>Node17&#45;&gt;Node9</title>
<g id="a_edge24_Node000017_Node000009"><a xlink:title=" ">
<path fill="none" stroke="#63b8ff" d="M545.72,-109.86C555.72,-96.8 571.17,-71.79 558.5,-55 556.6,-52.48 480.73,-31.63 435.51,-19.39"/>
<polygon fill="#63b8ff" stroke="#63b8ff" points="436.39,-16 425.82,-16.77 434.56,-22.75 436.39,-16"/>
</a>
</g>
</g>
<!-- Node17&#45;&gt;Node10 -->
<g id="edge25_Node000017_Node000010" class="edge">
<title>Node17&#45;&gt;Node10</title>
<g id="a_edge25_Node000017_Node000010"><a xlink:title=" ">
<path fill="none" stroke="#63b8ff" d="M564.02,-112.02C608.07,-100.76 694.17,-78.37 699.5,-74 713.5,-62.52 721.96,-43.36 726.63,-29.08"/>
<polygon fill="#63b8ff" stroke="#63b8ff" points="730.04,-29.91 729.5,-19.33 723.32,-27.93 730.04,-29.91"/>
</a>
</g>
</g>
<!-- Node17&#45;&gt;Node15 -->
<g id="edge23_Node000017_Node000015" class="edge">
<title>Node17&#45;&gt;Node15</title>
<g id="a_edge23_Node000017_Node000015"><a xlink:title=" ">
<path fill="none" stroke="#63b8ff" d="M520.18,-109.98C501.84,-101.46 473.39,-88.23 452.27,-78.41"/>
<polygon fill="#63b8ff" stroke="#63b8ff" points="453.69,-75.21 443.15,-74.17 450.74,-81.56 453.69,-75.21"/>
</a>
</g>
</g>
<!-- Node17&#45;&gt;Node16 -->
<g id="edge26_Node000017_Node000016" class="edge">
<title>Node17&#45;&gt;Node16</title>
<g id="a_edge26_Node000017_Node000016"><a xlink:title=" ">
<path fill="none" stroke="#63b8ff" d="M530.74,-109.75C524.03,-102.18 514.16,-91.05 505.99,-81.84"/>
<polygon fill="#63b8ff" stroke="#63b8ff" points="508.37,-79.25 499.12,-74.09 503.13,-83.89 508.37,-79.25"/>
</a>
</g>
</g>
<!-- Node18&#45;&gt;Node7 -->
<g id="edge28_Node000018_Node000007" class="edge">
<title>Node18&#45;&gt;Node7</title>
<g id="a_edge28_Node000018_Node000007"><a xlink:title=" ">
<path fill="none" stroke="#63b8ff" d="M110.43,-164.97C88.42,-149.76 44.58,-115.6 26.5,-74 20.38,-59.91 20.03,-42.36 20.98,-29.29"/>
<polygon fill="#63b8ff" stroke="#63b8ff" points="24.48,-29.46 22.04,-19.15 17.52,-28.73 24.48,-29.46"/>
</a>
</g>
</g>
<!-- Node19&#45;&gt;Node17 -->
<g id="edge30_Node000019_Node000017" class="edge">
<title>Node19&#45;&gt;Node17</title>
<g id="a_edge30_Node000019_Node000017"><a xlink:title=" ">
<path fill="none" stroke="#63b8ff" d="M538.5,-164.75C538.5,-157.8 538.5,-147.85 538.5,-139.13"/>
<polygon fill="#63b8ff" stroke="#63b8ff" points="542,-139.09 538.5,-129.09 535,-139.09 542,-139.09"/>
</a>
</g>
</g>
<!-- Node20 -->
<g id="Node000020" class="node">
<title>Node20</title>
<g id="a_Node000020"><a xlink:href="neural__layer__args_8h.html" target="_top" xlink:title="Functions operating on neural network arguments/constants.">
<polygon fill="white" stroke="#666666" points="683,-129 582,-129 582,-110 683,-110 683,-129"/>
<text text-anchor="middle" x="632.5" y="-117" font-family="Helvetica,sans-Serif" font-size="10.00">neural_layer_args.h</text>
</a>
</g>
</g>
<!-- Node19&#45;&gt;Node20 -->
<g id="edge31_Node000019_Node000020" class="edge">
<title>Node19&#45;&gt;Node20</title>
<g id="a_edge31_Node000019_Node000020"><a xlink:title=" ">
<path fill="none" stroke="#63b8ff" d="M553.6,-164.98C568.32,-156.69 590.92,-143.94 608.17,-134.22"/>
<polygon fill="#63b8ff" stroke="#63b8ff" points="610.13,-137.13 617.12,-129.17 606.69,-131.03 610.13,-137.13"/>
</a>
</g>
</g>
<!-- Node20&#45;&gt;Node4 -->
<g id="edge32_Node000020_Node000004" class="edge">
<title>Node20&#45;&gt;Node4</title>
<g id="a_edge32_Node000020_Node000004"><a xlink:title=" ">
<path fill="none" stroke="#63b8ff" d="M632.5,-109.75C632.5,-102.8 632.5,-92.85 632.5,-84.13"/>
<polygon fill="#63b8ff" stroke="#63b8ff" points="636,-84.09 632.5,-74.09 629,-84.09 636,-84.09"/>
</a>
</g>
</g>
</g>
</svg>
