<?xml version="1.0" encoding="UTF-8" standalone="no"?>
<!DOCTYPE svg PUBLIC "-//W3C//DTD SVG 1.1//EN"
 "http://www.w3.org/Graphics/SVG/1.1/DTD/svg11.dtd">
<!-- Generated by graphviz version 2.43.0 (0)
 -->
<!-- Title: act_neural.h Pages: 1 -->
<svg width="269pt" height="84pt"
 viewBox="0.00 0.00 268.50 84.00" xmlns="http://www.w3.org/2000/svg" xmlns:xlink="http://www.w3.org/1999/xlink">
<g id="graph0" class="graph" transform="scale(1 1) rotate(0) translate(4 80)">
<title>act_neural.h</title>
<!-- Node1 -->
<g id="node1" class="node">
<title>Node1</title>
<g id="a_node1"><a xlink:title="Neural network action functions.">
<polygon fill="#bfbfbf" stroke="black" points="79,-56.5 79,-75.5 149,-75.5 149,-56.5 79,-56.5"/>
<text text-anchor="middle" x="114" y="-63.5" font-family="Helvetica,sans-Serif" font-size="10.00">act_neural.h</text>
</a>
</g>
</g>
<!-- Node2 -->
<g id="node2" class="node">
<title>Node2</title>
<g id="a_node2"><a xlink:href="act__neural_8c.html" target="_top" xlink:title="Neural network action functions.">
<polygon fill="none" stroke="black" points="0,-0.5 0,-19.5 70,-19.5 70,-0.5 0,-0.5"/>
<text text-anchor="middle" x="35" y="-7.5" font-family="Helvetica,sans-Serif" font-size="10.00">act_neural.c</text>
</a>
</g>
</g>
<!-- Node1&#45;&gt;Node2 -->
<g id="edge1" class="edge">
<title>Node1&#45;&gt;Node2</title>
<path fill="none" stroke="midnightblue" d="M92.97,-50.62C78.53,-40.76 59.86,-27.99 47.66,-19.65"/>
<polygon fill="midnightblue" stroke="midnightblue" points="91.08,-53.57 101.31,-56.32 95.03,-47.79 91.08,-53.57"/>
</g>
<!-- Node3 -->
<g id="node3" class="node">
<title>Node3</title>
<g id="a_node3"><a xlink:href="action_8c.html" target="_top" xlink:title="Interface for classifier actions.">
<polygon fill="none" stroke="black" points="88.5,-0.5 88.5,-19.5 139.5,-19.5 139.5,-0.5 88.5,-0.5"/>
<text text-anchor="middle" x="114" y="-7.5" font-family="Helvetica,sans-Serif" font-size="10.00">action.c</text>
</a>
</g>
</g>
<!-- Node1&#45;&gt;Node3 -->
<g id="edge2" class="edge">
<title>Node1&#45;&gt;Node3</title>
<path fill="none" stroke="midnightblue" d="M114,-45.8C114,-36.91 114,-26.78 114,-19.75"/>
<polygon fill="midnightblue" stroke="midnightblue" points="110.5,-46.08 114,-56.08 117.5,-46.08 110.5,-46.08"/>
</g>
<!-- Node4 -->
<g id="node4" class="node">
<title>Node4</title>
<g id="a_node4"><a xlink:href="pybind__wrapper_8cpp.html" target="_top" xlink:title="Python library wrapper functions.">
<polygon fill="none" stroke="black" points="157.5,-0.5 157.5,-19.5 260.5,-19.5 260.5,-0.5 157.5,-0.5"/>
<text text-anchor="middle" x="209" y="-7.5" font-family="Helvetica,sans-Serif" font-size="10.00">pybind_wrapper.cpp</text>
</a>
</g>
</g>
<!-- Node1&#45;&gt;Node4 -->
<g id="edge3" class="edge">
<title>Node1&#45;&gt;Node4</title>
<path fill="none" stroke="midnightblue" d="M138.32,-51.18C155.8,-41.24 178.83,-28.15 193.77,-19.65"/>
<polygon fill="midnightblue" stroke="midnightblue" points="136.23,-48.34 129.26,-56.32 139.69,-54.43 136.23,-48.34"/>
</g>
</g>
</svg>
