<?xml version="1.0" encoding="UTF-8" standalone="no"?>
<!DOCTYPE svg PUBLIC "-//W3C//DTD SVG 1.1//EN"
 "http://www.w3.org/Graphics/SVG/1.1/DTD/svg11.dtd">
<!-- Generated by graphviz version 2.43.0 (0)
 -->
<!-- Title: act_neural_save Pages: 1 -->
<svg width="301pt" height="27pt"
 viewBox="0.00 0.00 301.00 27.00" xmlns="http://www.w3.org/2000/svg" xmlns:xlink="http://www.w3.org/1999/xlink">
<g id="graph0" class="graph" transform="scale(1 1) rotate(0) translate(4 23)">
<title>act_neural_save</title>
<!-- Node1 -->
<g id="Node000001" class="node">
<title>Node1</title>
<g id="a_Node000001"><a xlink:title="Writes a neural network action to a file.">
<polygon fill="#999999" stroke="#666666" points="88,-19 0,-19 0,0 88,0 88,-19"/>
<text text-anchor="middle" x="44" y="-7" font-family="Helvetica,sans-Serif" font-size="10.00">act_neural_save</text>
</a>
</g>
</g>
<!-- Node2 -->
<g id="Node000002" class="node">
<title>Node2</title>
<g id="a_Node000002"><a xlink:href="neural_8c.html#af4a09366d25068c50d42977482c4fc9e" target="_top" xlink:title="Writes a neural network to a file.">
<polygon fill="white" stroke="#666666" points="193,-19 124,-19 124,0 193,0 193,-19"/>
<text text-anchor="middle" x="158.5" y="-7" font-family="Helvetica,sans-Serif" font-size="10.00">neural_save</text>
</a>
</g>
</g>
<!-- Node1&#45;&gt;Node2 -->
<g id="edge1_Node000001_Node000002" class="edge">
<title>Node1&#45;&gt;Node2</title>
<g id="a_edge1_Node000001_Node000002"><a xlink:title=" ">
<path fill="none" stroke="#63b8ff" d="M88.17,-9.5C96.45,-9.5 105.13,-9.5 113.44,-9.5"/>
<polygon fill="#63b8ff" stroke="#63b8ff" points="113.7,-13 123.7,-9.5 113.7,-6 113.7,-13"/>
</a>
</g>
</g>
<!-- Node3 -->
<g id="Node000003" class="node">
<title>Node3</title>
<g id="a_Node000003"><a xlink:href="neural__layer_8h.html#a337ac50311aae51ccada35fedb0444a7" target="_top" xlink:title="Writes the layer to a file.">
<polygon fill="white" stroke="#666666" points="293,-19 229,-19 229,0 293,0 293,-19"/>
<text text-anchor="middle" x="261" y="-7" font-family="Helvetica,sans-Serif" font-size="10.00">layer_save</text>
</a>
</g>
</g>
<!-- Node2&#45;&gt;Node3 -->
<g id="edge2_Node000002_Node000003" class="edge">
<title>Node2&#45;&gt;Node3</title>
<g id="a_edge2_Node000002_Node000003"><a xlink:title=" ">
<path fill="none" stroke="#63b8ff" d="M193.24,-9.5C201.43,-9.5 210.28,-9.5 218.77,-9.5"/>
<polygon fill="#63b8ff" stroke="#63b8ff" points="218.89,-13 228.89,-9.5 218.89,-6 218.89,-13"/>
</a>
</g>
</g>
</g>
</svg>
