<?xml version="1.0" encoding="UTF-8" standalone="no"?>
<!DOCTYPE svg PUBLIC "-//W3C//DTD SVG 1.1//EN"
 "http://www.w3.org/Graphics/SVG/1.1/DTD/svg11.dtd">
<!-- Generated by graphviz version 2.43.0 (0)
 -->
<!-- Title: act_neural_cover Pages: 1 -->
<svg width="477pt" height="142pt"
 viewBox="0.00 0.00 477.00 142.00" xmlns="http://www.w3.org/2000/svg" xmlns:xlink="http://www.w3.org/1999/xlink">
<g id="graph0" class="graph" transform="scale(1 1) rotate(0) translate(4 138)">
<title>act_neural_cover</title>
<!-- Node1 -->
<g id="node1" class="node">
<title>Node1</title>
<g id="a_node1"><a xlink:title="Generates a neural network that covers the specified input:action.">
<polygon fill="#bfbfbf" stroke="black" points="0,-38.5 0,-57.5 91,-57.5 91,-38.5 0,-38.5"/>
<text text-anchor="middle" x="45.5" y="-45.5" font-family="Helvetica,sans-Serif" font-size="10.00">act_neural_cover</text>
</a>
</g>
</g>
<!-- Node2 -->
<g id="node2" class="node">
<title>Node2</title>
<g id="a_node2"><a xlink:href="act__neural_8c.html#aa4616932ee69561f2324af10da2865de" target="_top" xlink:title="Computes the current neural network action using the input.">
<polygon fill="none" stroke="black" points="127,-66.5 127,-85.5 231,-85.5 231,-66.5 127,-66.5"/>
<text text-anchor="middle" x="179" y="-73.5" font-family="Helvetica,sans-Serif" font-size="10.00">act_neural_compute</text>
</a>
</g>
</g>
<!-- Node1&#45;&gt;Node2 -->
<g id="edge1" class="edge">
<title>Node1&#45;&gt;Node2</title>
<path fill="none" stroke="midnightblue" d="M91.02,-57.48C101.3,-59.67 112.35,-62.02 123.01,-64.29"/>
<polygon fill="midnightblue" stroke="midnightblue" points="122.57,-67.78 133.08,-66.43 124.03,-60.93 122.57,-67.78"/>
</g>
<!-- Node8 -->
<g id="node8" class="node">
<title>Node8</title>
<g id="a_node8"><a xlink:href="neural_8c.html#ab83a82e116953e1b969198cd1cdff5e4" target="_top" xlink:title="Randomises the layers within a neural network.">
<polygon fill="none" stroke="black" points="145.5,-19.5 145.5,-38.5 212.5,-38.5 212.5,-19.5 145.5,-19.5"/>
<text text-anchor="middle" x="179" y="-26.5" font-family="Helvetica,sans-Serif" font-size="10.00">neural_rand</text>
</a>
</g>
</g>
<!-- Node1&#45;&gt;Node8 -->
<g id="edge8" class="edge">
<title>Node1&#45;&gt;Node8</title>
<path fill="none" stroke="midnightblue" d="M91.02,-41.57C105.29,-39.51 121.05,-37.23 135.2,-35.18"/>
<polygon fill="midnightblue" stroke="midnightblue" points="135.77,-38.64 145.17,-33.74 134.77,-31.71 135.77,-38.64"/>
</g>
<!-- Node3 -->
<g id="node3" class="node">
<title>Node3</title>
<g id="a_node3"><a xlink:href="utils_8h.html#ae85373ce85c9be81cf1456fb58478274" target="_top" xlink:title="Returns the index of the largest element in vector X.">
<polygon fill="none" stroke="black" points="288,-114.5 288,-133.5 337,-133.5 337,-114.5 288,-114.5"/>
<text text-anchor="middle" x="312.5" y="-121.5" font-family="Helvetica,sans-Serif" font-size="10.00">argmax</text>
</a>
</g>
</g>
<!-- Node2&#45;&gt;Node3 -->
<g id="edge2" class="edge">
<title>Node2&#45;&gt;Node3</title>
<path fill="none" stroke="midnightblue" d="M206.29,-85.6C227.06,-93.18 256.15,-103.8 278.48,-111.95"/>
<polygon fill="midnightblue" stroke="midnightblue" points="277.31,-115.24 287.9,-115.39 279.71,-108.67 277.31,-115.24"/>
</g>
<!-- Node4 -->
<g id="node4" class="node">
<title>Node4</title>
<g id="a_node4"><a xlink:href="neural_8c.html#a1054bccbeafce6e26cc5a8bffed9f575" target="_top" xlink:title="Returns the outputs from the output layer of a neural network.">
<polygon fill="none" stroke="black" points="272.5,-76.5 272.5,-95.5 352.5,-95.5 352.5,-76.5 272.5,-76.5"/>
<text text-anchor="middle" x="312.5" y="-83.5" font-family="Helvetica,sans-Serif" font-size="10.00">neural_outputs</text>
</a>
</g>
</g>
<!-- Node2&#45;&gt;Node4 -->
<g id="edge3" class="edge">
<title>Node2&#45;&gt;Node4</title>
<path fill="none" stroke="midnightblue" d="M231.22,-79.89C241.39,-80.67 252.04,-81.48 262.15,-82.25"/>
<polygon fill="midnightblue" stroke="midnightblue" points="262.2,-85.76 272.44,-83.03 262.73,-78.78 262.2,-85.76"/>
</g>
<!-- Node6 -->
<g id="node6" class="node">
<title>Node6</title>
<g id="a_node6"><a xlink:href="neural_8c.html#ae52d35ca06ded1387949731e1ad3d751" target="_top" xlink:title="Forward propagates a neural network.">
<polygon fill="none" stroke="black" points="267,-38.5 267,-57.5 358,-57.5 358,-38.5 267,-38.5"/>
<text text-anchor="middle" x="312.5" y="-45.5" font-family="Helvetica,sans-Serif" font-size="10.00">neural_propagate</text>
</a>
</g>
</g>
<!-- Node2&#45;&gt;Node6 -->
<g id="edge5" class="edge">
<title>Node2&#45;&gt;Node6</title>
<path fill="none" stroke="midnightblue" d="M224.89,-66.44C235.15,-64.26 246.17,-61.91 256.79,-59.65"/>
<polygon fill="midnightblue" stroke="midnightblue" points="257.76,-63.02 266.82,-57.51 256.31,-56.17 257.76,-63.02"/>
</g>
<!-- Node5 -->
<g id="node5" class="node">
<title>Node5</title>
<g id="a_node5"><a xlink:href="neural__layer_8h.html#a2ba51f939c19b5a2d9be3d219bbe3115" target="_top" xlink:title="Returns the outputs of a layer.">
<polygon fill="none" stroke="black" points="396.5,-76.5 396.5,-95.5 466.5,-95.5 466.5,-76.5 396.5,-76.5"/>
<text text-anchor="middle" x="431.5" y="-83.5" font-family="Helvetica,sans-Serif" font-size="10.00">layer_output</text>
</a>
</g>
</g>
<!-- Node4&#45;&gt;Node5 -->
<g id="edge4" class="edge">
<title>Node4&#45;&gt;Node5</title>
<path fill="none" stroke="midnightblue" d="M352.78,-86C363.45,-86 375.07,-86 386,-86"/>
<polygon fill="midnightblue" stroke="midnightblue" points="386.22,-89.5 396.22,-86 386.22,-82.5 386.22,-89.5"/>
</g>
<!-- Node6&#45;&gt;Node5 -->
<g id="edge7" class="edge">
<title>Node6&#45;&gt;Node5</title>
<path fill="none" stroke="midnightblue" d="M343.02,-57.59C357.71,-62.36 375.66,-68.19 391.47,-73.32"/>
<polygon fill="midnightblue" stroke="midnightblue" points="390.39,-76.65 400.99,-76.41 392.56,-70 390.39,-76.65"/>
</g>
<!-- Node7 -->
<g id="node7" class="node">
<title>Node7</title>
<g id="a_node7"><a xlink:href="neural__layer_8h.html#aabfac5227c61181614f84ebf5e00e462" target="_top" xlink:title="Forward propagates an input through the layer.">
<polygon fill="none" stroke="black" points="394,-38.5 394,-57.5 469,-57.5 469,-38.5 394,-38.5"/>
<text text-anchor="middle" x="431.5" y="-45.5" font-family="Helvetica,sans-Serif" font-size="10.00">layer_forward</text>
</a>
</g>
</g>
<!-- Node6&#45;&gt;Node7 -->
<g id="edge6" class="edge">
<title>Node6&#45;&gt;Node7</title>
<path fill="none" stroke="midnightblue" d="M358.07,-48C366.42,-48 375.18,-48 383.6,-48"/>
<polygon fill="midnightblue" stroke="midnightblue" points="383.66,-51.5 393.66,-48 383.66,-44.5 383.66,-51.5"/>
</g>
<!-- Node9 -->
<g id="node9" class="node">
<title>Node9</title>
<g id="a_node9"><a xlink:href="neural__layer_8h.html#a1230cf25ba52027afad6f728089644ab" target="_top" xlink:title="Randomises a layer.">
<polygon fill="none" stroke="black" points="281.5,-0.5 281.5,-19.5 343.5,-19.5 343.5,-0.5 281.5,-0.5"/>
<text text-anchor="middle" x="312.5" y="-7.5" font-family="Helvetica,sans-Serif" font-size="10.00">layer_rand</text>
</a>
</g>
</g>
<!-- Node8&#45;&gt;Node9 -->
<g id="edge9" class="edge">
<title>Node8&#45;&gt;Node9</title>
<path fill="none" stroke="midnightblue" d="M212.51,-24.3C230.22,-21.74 252.3,-18.55 271.11,-15.84"/>
<polygon fill="midnightblue" stroke="midnightblue" points="271.77,-19.28 281.17,-14.38 270.77,-12.35 271.77,-19.28"/>
</g>
</g>
</svg>
