<?xml version="1.0" encoding="UTF-8" standalone="no"?>
<!DOCTYPE svg PUBLIC "-//W3C//DTD SVG 1.1//EN"
 "http://www.w3.org/Graphics/SVG/1.1/DTD/svg11.dtd">
<!-- Generated by graphviz version 2.43.0 (0)
 -->
<!-- Title: act_integer_init Pages: 1 -->
<svg width="414pt" height="66pt"
 viewBox="0.00 0.00 414.00 66.00" xmlns="http://www.w3.org/2000/svg" xmlns:xlink="http://www.w3.org/1999/xlink">
<g id="graph0" class="graph" transform="scale(1 1) rotate(0) translate(4 62)">
<title>act_integer_init</title>
<!-- Node1 -->
<g id="node1" class="node">
<title>Node1</title>
<g id="a_node1"><a xlink:title="Initialises an integer action.">
<polygon fill="#bfbfbf" stroke="black" points="0,-19.5 0,-38.5 83,-38.5 83,-19.5 0,-19.5"/>
<text text-anchor="middle" x="41.5" y="-26.5" font-family="Helvetica,sans-Serif" font-size="10.00">act_integer_init</text>
</a>
</g>
</g>
<!-- Node2 -->
<g id="node2" class="node">
<title>Node2</title>
<g id="a_node2"><a xlink:href="utils_8c.html#a5e6304fd9b177f36684d4bb00af49f91" target="_top" xlink:title="Returns a uniform random integer [min,max] not inclusive of max.">
<polygon fill="none" stroke="black" points="208,-38.5 208,-57.5 297,-57.5 297,-38.5 208,-38.5"/>
<text text-anchor="middle" x="252.5" y="-45.5" font-family="Helvetica,sans-Serif" font-size="10.00">rand_uniform_int</text>
</a>
</g>
</g>
<!-- Node1&#45;&gt;Node2 -->
<g id="edge1" class="edge">
<title>Node1&#45;&gt;Node2</title>
<path fill="none" stroke="midnightblue" d="M83.29,-32.71C115.95,-35.68 162.02,-39.87 197.69,-43.11"/>
<polygon fill="midnightblue" stroke="midnightblue" points="197.65,-46.62 207.93,-44.04 198.29,-39.65 197.65,-46.62"/>
</g>
<!-- Node4 -->
<g id="node4" class="node">
<title>Node4</title>
<g id="a_node4"><a xlink:href="sam_8c.html#a7f7f30716900f06683a74486aca5f5a0" target="_top" xlink:title="Initialises self&#45;adaptive mutation rates.">
<polygon fill="none" stroke="black" points="119,-0.5 119,-19.5 172,-19.5 172,-0.5 119,-0.5"/>
<text text-anchor="middle" x="145.5" y="-7.5" font-family="Helvetica,sans-Serif" font-size="10.00">sam_init</text>
</a>
</g>
</g>
<!-- Node1&#45;&gt;Node4 -->
<g id="edge3" class="edge">
<title>Node1&#45;&gt;Node4</title>
<path fill="none" stroke="midnightblue" d="M83.11,-21.44C91.72,-19.83 100.74,-18.15 109.14,-16.59"/>
<polygon fill="midnightblue" stroke="midnightblue" points="109.81,-20.02 119,-14.75 108.53,-13.14 109.81,-20.02"/>
</g>
<!-- Node3 -->
<g id="node3" class="node">
<title>Node3</title>
<g id="a_node3"><a xlink:href="utils_8c.html#a972761ba8f47a6c3e7396a7c685158fc" target="_top" xlink:title="Returns a uniform random float [min,max].">
<polygon fill="none" stroke="black" points="333,-19.5 333,-38.5 406,-38.5 406,-19.5 333,-19.5"/>
<text text-anchor="middle" x="369.5" y="-26.5" font-family="Helvetica,sans-Serif" font-size="10.00">rand_uniform</text>
</a>
</g>
</g>
<!-- Node2&#45;&gt;Node3 -->
<g id="edge2" class="edge">
<title>Node2&#45;&gt;Node3</title>
<path fill="none" stroke="midnightblue" d="M297.3,-40.76C305.61,-39.39 314.32,-37.95 322.68,-36.57"/>
<polygon fill="midnightblue" stroke="midnightblue" points="323.36,-40 332.66,-34.92 322.22,-33.1 323.36,-40"/>
</g>
<!-- Node4&#45;&gt;Node2 -->
<g id="edge5" class="edge">
<title>Node4&#45;&gt;Node2</title>
<path fill="none" stroke="midnightblue" d="M172.19,-19.3C185.21,-24.01 201.24,-29.81 215.47,-34.96"/>
<polygon fill="midnightblue" stroke="midnightblue" points="214.39,-38.29 224.98,-38.4 216.77,-31.71 214.39,-38.29"/>
</g>
<!-- Node4&#45;&gt;Node3 -->
<g id="edge4" class="edge">
<title>Node4&#45;&gt;Node3</title>
<path fill="none" stroke="midnightblue" d="M172.4,-12.22C209.22,-15.37 277.26,-21.19 322.71,-25.08"/>
<polygon fill="midnightblue" stroke="midnightblue" points="322.63,-28.59 332.89,-25.95 323.23,-21.61 322.63,-28.59"/>
</g>
</g>
</svg>
