<?xml version="1.0" encoding="UTF-8" standalone="no"?>
<!DOCTYPE svg PUBLIC "-//W3C//DTD SVG 1.1//EN"
 "http://www.w3.org/Graphics/SVG/1.1/DTD/svg11.dtd">
<!-- Generated by graphviz version 2.43.0 (0)
 -->
<!-- Title: act_json_export Pages: 1 -->
<svg width="840pt" height="144pt"
 viewBox="0.00 0.00 840.00 144.00" xmlns="http://www.w3.org/2000/svg" xmlns:xlink="http://www.w3.org/1999/xlink">
<g id="graph0" class="graph" transform="scale(1 1) rotate(0) translate(4 140)">
<title>act_json_export</title>
<!-- Node1 -->
<g id="Node000001" class="node">
<title>Node1</title>
<g id="a_Node000001"><a xlink:title="Returns a json formatted string representation of an action .">
<polygon fill="#999999" stroke="#666666" points="832,-117 746,-117 746,-98 832,-98 832,-117"/>
<text text-anchor="middle" x="789" y="-105" font-family="Helvetica,sans-Serif" font-size="10.00">act_json_export</text>
</a>
</g>
</g>
<!-- Node2 -->
<g id="Node000002" class="node">
<title>Node2</title>
<g id="a_Node000002"><a xlink:href="cl_8c.html#a3dd986331d1e3144f7c3b9530d65a41c" target="_top" xlink:title="Returns a json formatted string representation of a classifier.">
<polygon fill="white" stroke="#666666" points="710,-117 630,-117 630,-98 710,-98 710,-117"/>
<text text-anchor="middle" x="670" y="-105" font-family="Helvetica,sans-Serif" font-size="10.00">cl_json_export</text>
</a>
</g>
</g>
<!-- Node1&#45;&gt;Node2 -->
<g id="edge1_Node000001_Node000002" class="edge">
<title>Node1&#45;&gt;Node2</title>
<g id="a_edge1_Node000001_Node000002"><a xlink:title=" ">
<path fill="none" stroke="#63b8ff" d="M735.75,-107.5C727.12,-107.5 718.3,-107.5 710.06,-107.5"/>
<polygon fill="#63b8ff" stroke="#63b8ff" points="735.76,-111 745.76,-107.5 735.76,-104 735.76,-111"/>
</a>
</g>
</g>
<!-- Node3 -->
<g id="Node000003" class="node">
<title>Node3</title>
<g id="a_Node000003"><a xlink:href="cl_8c.html#afe7823d194c2fe357ce94285b77f8bfe" target="_top" xlink:title="Prints a classifier.">
<polygon fill="white" stroke="#666666" points="571.5,-136 523.5,-136 523.5,-117 571.5,-117 571.5,-136"/>
<text text-anchor="middle" x="547.5" y="-124" font-family="Helvetica,sans-Serif" font-size="10.00">cl_print</text>
</a>
</g>
</g>
<!-- Node2&#45;&gt;Node3 -->
<g id="edge2_Node000002_Node000003" class="edge">
<title>Node2&#45;&gt;Node3</title>
<g id="a_edge2_Node000002_Node000003"><a xlink:title=" ">
<path fill="none" stroke="#63b8ff" d="M619.71,-115.27C603.07,-117.9 585.27,-120.7 571.63,-122.85"/>
<polygon fill="#63b8ff" stroke="#63b8ff" points="620.54,-118.68 629.88,-113.67 619.45,-111.77 620.54,-118.68"/>
</a>
</g>
</g>
<!-- Node4 -->
<g id="Node000004" class="node">
<title>Node4</title>
<g id="a_Node000004"><a xlink:href="clset_8c.html#a499695ab2ce0f39d1791da495a4c2897" target="_top" xlink:title="Returns a json formatted string representation of a classifier set.">
<polygon fill="white" stroke="#666666" points="594,-99 501,-99 501,-80 594,-80 594,-99"/>
<text text-anchor="middle" x="547.5" y="-87" font-family="Helvetica,sans-Serif" font-size="10.00">clset_json_export</text>
</a>
</g>
</g>
<!-- Node2&#45;&gt;Node4 -->
<g id="edge3_Node000002_Node000004" class="edge">
<title>Node2&#45;&gt;Node4</title>
<g id="a_edge3_Node000002_Node000004"><a xlink:title=" ">
<path fill="none" stroke="#63b8ff" d="M619.74,-100.14C611.27,-98.88 602.5,-97.57 594.13,-96.32"/>
<polygon fill="#63b8ff" stroke="#63b8ff" points="619.47,-103.64 629.88,-101.66 620.5,-96.72 619.47,-103.64"/>
</a>
</g>
</g>
<!-- Node5 -->
<g id="Node000005" class="node">
<title>Node5</title>
<g id="a_Node000005"><a xlink:href="clset_8c.html#a724354141b3185c19ac6f3fb7920308b" target="_top" xlink:title="Prints the classifiers in the set.">
<polygon fill="white" stroke="#666666" points="465,-127 403,-127 403,-108 465,-108 465,-127"/>
<text text-anchor="middle" x="434" y="-115" font-family="Helvetica,sans-Serif" font-size="10.00">clset_print</text>
</a>
</g>
</g>
<!-- Node4&#45;&gt;Node5 -->
<g id="edge4_Node000004_Node000005" class="edge">
<title>Node4&#45;&gt;Node5</title>
<g id="a_edge4_Node000004_Node000005"><a xlink:title=" ">
<path fill="none" stroke="#63b8ff" d="M498.62,-101.52C487.27,-104.37 475.46,-107.34 465.16,-109.93"/>
<polygon fill="#63b8ff" stroke="#63b8ff" points="499.59,-104.89 508.44,-99.06 497.89,-98.1 499.59,-104.89"/>
</a>
</g>
</g>
<!-- Node9 -->
<g id="Node000009" class="node">
<title>Node9</title>
<g id="a_Node000009"><a xlink:href="classXCS.html#a867c0ca8113bf9d0d6a05cca403b166f" target="_top" xlink:title="Returns a JSON formatted string representing the population set.">
<polygon fill="white" stroke="#666666" points="367,-61 273,-61 273,-42 367,-42 367,-61"/>
<text text-anchor="middle" x="320" y="-49" font-family="Helvetica,sans-Serif" font-size="10.00">XCS::json_export</text>
</a>
</g>
</g>
<!-- Node4&#45;&gt;Node9 -->
<g id="edge8_Node000004_Node000009" class="edge">
<title>Node4&#45;&gt;Node9</title>
<g id="a_edge8_Node000004_Node000009"><a xlink:title=" ">
<path fill="none" stroke="#63b8ff" d="M490.98,-80.14C452.99,-73.74 403.2,-65.35 367.34,-59.31"/>
<polygon fill="#63b8ff" stroke="#63b8ff" points="490.42,-83.6 500.87,-81.81 491.59,-76.7 490.42,-83.6"/>
</a>
</g>
</g>
<!-- Node6 -->
<g id="Node000006" class="node">
<title>Node6</title>
<g id="a_Node000006"><a xlink:href="xcsf_8c.html#ae18311260dd4c51978ef361f6f14e8c0" target="_top" xlink:title="Prints the current XCSF population.">
<polygon fill="white" stroke="#666666" points="361.5,-129 278.5,-129 278.5,-110 361.5,-110 361.5,-129"/>
<text text-anchor="middle" x="320" y="-117" font-family="Helvetica,sans-Serif" font-size="10.00">xcsf_print_pset</text>
</a>
</g>
</g>
<!-- Node5&#45;&gt;Node6 -->
<g id="edge5_Node000005_Node000006" class="edge">
<title>Node5&#45;&gt;Node6</title>
<g id="a_edge5_Node000005_Node000006"><a xlink:title=" ">
<path fill="none" stroke="#63b8ff" d="M392.77,-118.22C382.64,-118.4 371.77,-118.59 361.63,-118.77"/>
<polygon fill="#63b8ff" stroke="#63b8ff" points="393.05,-121.71 402.99,-118.04 392.93,-114.72 393.05,-121.71"/>
</a>
</g>
</g>
<!-- Node7 -->
<g id="Node000007" class="node">
<title>Node7</title>
<g id="a_Node000007"><a xlink:href="classXCS.html#a9feecf1cfbc0910bd334031105732952" target="_top" xlink:title="Prints the current population.">
<polygon fill="white" stroke="#666666" points="236,-132 150,-132 150,-113 236,-113 236,-132"/>
<text text-anchor="middle" x="193" y="-120" font-family="Helvetica,sans-Serif" font-size="10.00">XCS::print_pset</text>
</a>
</g>
</g>
<!-- Node6&#45;&gt;Node7 -->
<g id="edge6_Node000006_Node000007" class="edge">
<title>Node6&#45;&gt;Node7</title>
<g id="a_edge6_Node000006_Node000007"><a xlink:title=" ">
<path fill="none" stroke="#63b8ff" d="M268.34,-120.72C257.63,-120.97 246.45,-121.24 236.1,-121.49"/>
<polygon fill="#63b8ff" stroke="#63b8ff" points="268.5,-124.21 278.42,-120.47 268.33,-117.22 268.5,-124.21"/>
</a>
</g>
</g>
<!-- Node8 -->
<g id="Node000008" class="node">
<title>Node8</title>
<g id="a_Node000008"><a xlink:href="pybind__wrapper_8cpp.html#a172daba0778fe2bd38d723d5f52a23d5" target="_top" xlink:title=" ">
<polygon fill="white" stroke="#666666" points="113,-75 0,-75 0,-56 113,-56 113,-75"/>
<text text-anchor="middle" x="56.5" y="-63" font-family="Helvetica,sans-Serif" font-size="10.00">PYBIND11_MODULE</text>
</a>
</g>
</g>
<!-- Node7&#45;&gt;Node8 -->
<g id="edge7_Node000007_Node000008" class="edge">
<title>Node7&#45;&gt;Node8</title>
<g id="a_edge7_Node000007_Node000008"><a xlink:title=" ">
<path fill="none" stroke="#63b8ff" d="M160.19,-109.02C135.56,-98.58 102.03,-84.37 80.09,-75.07"/>
<polygon fill="#63b8ff" stroke="#63b8ff" points="158.91,-112.28 169.49,-112.96 161.65,-105.83 158.91,-112.28"/>
</a>
</g>
</g>
<!-- Node9&#45;&gt;Node8 -->
<g id="edge13_Node000009_Node000008" class="edge">
<title>Node9&#45;&gt;Node8</title>
<g id="a_edge13_Node000009_Node000008"><a xlink:title=" ">
<path fill="none" stroke="#63b8ff" d="M262.77,-61.57C254.16,-62.77 245.36,-63.82 237,-64.5 195.69,-67.87 148.85,-68.01 113.38,-67.36"/>
<polygon fill="#63b8ff" stroke="#63b8ff" points="263.37,-65.02 272.75,-60.09 262.34,-58.09 263.37,-65.02"/>
</a>
</g>
</g>
<!-- Node10 -->
<g id="Node000010" class="node">
<title>Node10</title>
<g id="a_Node000010"><a xlink:href="classXCS.html#aa2ac9da892d1d5061c45bf6b79e2b097" target="_top" xlink:title="Returns a Python dictionary containing the population set.">
<polygon fill="white" stroke="#666666" points="232,-56 154,-56 154,-37 232,-37 232,-56"/>
<text text-anchor="middle" x="193" y="-44" font-family="Helvetica,sans-Serif" font-size="10.00">XCS::get_pop</text>
</a>
</g>
</g>
<!-- Node9&#45;&gt;Node10 -->
<g id="edge9_Node000009_Node000010" class="edge">
<title>Node9&#45;&gt;Node10</title>
<g id="a_edge9_Node000009_Node000010"><a xlink:title=" ">
<path fill="none" stroke="#63b8ff" d="M262.64,-49.25C252.35,-48.83 241.83,-48.41 232.23,-48.03"/>
<polygon fill="#63b8ff" stroke="#63b8ff" points="262.68,-52.75 272.81,-49.65 262.96,-45.76 262.68,-52.75"/>
</a>
</g>
</g>
<!-- Node11 -->
<g id="Node000011" class="node">
<title>Node11</title>
<g id="a_Node000011"><a xlink:href="classXCS.html#a589dc6f43e28dcf5ad4edd505e30a531" target="_top" xlink:title="Writes the current population set to a file in JSON.">
<polygon fill="white" stroke="#666666" points="237,-19 149,-19 149,0 237,0 237,-19"/>
<text text-anchor="middle" x="193" y="-7" font-family="Helvetica,sans-Serif" font-size="10.00">XCS::json_write</text>
</a>
</g>
</g>
<!-- Node9&#45;&gt;Node11 -->
<g id="edge11_Node000009_Node000011" class="edge">
<title>Node9&#45;&gt;Node11</title>
<g id="a_edge11_Node000009_Node000011"><a xlink:title=" ">
<path fill="none" stroke="#63b8ff" d="M280.92,-38.7C262.18,-32.41 239.96,-24.94 222.68,-19.14"/>
<polygon fill="#63b8ff" stroke="#63b8ff" points="280.04,-42.1 290.64,-41.97 282.27,-35.47 280.04,-42.1"/>
</a>
</g>
</g>
<!-- Node10&#45;&gt;Node8 -->
<g id="edge10_Node000010_Node000008" class="edge">
<title>Node10&#45;&gt;Node8</title>
<g id="a_edge10_Node000010_Node000008"><a xlink:title=" ">
<path fill="none" stroke="#63b8ff" d="M143.73,-53.32C133.8,-54.72 123.27,-56.21 113.1,-57.65"/>
<polygon fill="#63b8ff" stroke="#63b8ff" points="144.41,-56.76 153.82,-51.89 143.43,-49.83 144.41,-56.76"/>
</a>
</g>
</g>
<!-- Node11&#45;&gt;Node8 -->
<g id="edge12_Node000011_Node000008" class="edge">
<title>Node11&#45;&gt;Node8</title>
<g id="a_edge12_Node000011_Node000008"><a xlink:title=" ">
<path fill="none" stroke="#63b8ff" d="M159.62,-22.98C135.13,-33.18 102.1,-46.93 80.32,-56"/>
<polygon fill="#63b8ff" stroke="#63b8ff" points="160.99,-26.2 168.88,-19.13 158.3,-19.74 160.99,-26.2"/>
</a>
</g>
</g>
</g>
</svg>
