<?xml version="1.0" encoding="UTF-8" standalone="no"?>
<!DOCTYPE svg PUBLIC "-//W3C//DTD SVG 1.1//EN"
 "http://www.w3.org/Graphics/SVG/1.1/DTD/svg11.dtd">
<!-- Generated by graphviz version 2.43.0 (0)
 -->
<!-- Title: action.c Pages: 1 -->
<svg width="901pt" height="308pt"
 viewBox="0.00 0.00 900.50 308.00" xmlns="http://www.w3.org/2000/svg" xmlns:xlink="http://www.w3.org/1999/xlink">
<g id="graph0" class="graph" transform="scale(1 1) rotate(0) translate(4 304)">
<title>action.c</title>
<!-- Node1 -->
<g id="node1" class="node">
<title>Node1</title>
<g id="a_node1"><a xlink:title="Interface for classifier actions.">
<polygon fill="#bfbfbf" stroke="black" points="441,-280.5 441,-299.5 492,-299.5 492,-280.5 441,-280.5"/>
<text text-anchor="middle" x="466.5" y="-287.5" font-family="Helvetica,sans-Serif" font-size="10.00">action.c</text>
</a>
</g>
</g>
<!-- Node2 -->
<g id="node2" class="node">
<title>Node2</title>
<g id="a_node2"><a xlink:href="action_8h.html" target="_top" xlink:title="Interface for classifier actions.">
<polygon fill="none" stroke="black" points="463,-168.5 463,-187.5 514,-187.5 514,-168.5 463,-168.5"/>
<text text-anchor="middle" x="488.5" y="-175.5" font-family="Helvetica,sans-Serif" font-size="10.00">action.h</text>
</a>
</g>
</g>
<!-- Node1&#45;&gt;Node2 -->
<g id="edge1" class="edge">
<title>Node1&#45;&gt;Node2</title>
<path fill="none" stroke="midnightblue" d="M469.36,-280.47C472.28,-271.48 476.76,-256.89 479.5,-244 482.76,-228.66 485.12,-211.02 486.6,-197.99"/>
<polygon fill="midnightblue" stroke="midnightblue" points="490.09,-198.22 487.68,-187.9 483.13,-197.47 490.09,-198.22"/>
</g>
<!-- Node4 -->
<g id="node4" class="node">
<title>Node4</title>
<g id="a_node4"><a xlink:href="utils_8h.html" target="_top" xlink:title="Utility functions for random number handling, etc.">
<polygon fill="none" stroke="black" points="172,-56.5 172,-75.5 215,-75.5 215,-56.5 172,-56.5"/>
<text text-anchor="middle" x="193.5" y="-63.5" font-family="Helvetica,sans-Serif" font-size="10.00">utils.h</text>
</a>
</g>
</g>
<!-- Node1&#45;&gt;Node4 -->
<g id="edge37" class="edge">
<title>Node1&#45;&gt;Node4</title>
<path fill="none" stroke="midnightblue" d="M449.66,-280.46C433.63,-272.03 409.12,-258.35 389.5,-244 317.18,-191.09 241.05,-115.8 209.08,-83.15"/>
<polygon fill="midnightblue" stroke="midnightblue" points="211.41,-80.53 201.93,-75.8 206.39,-85.41 211.41,-80.53"/>
</g>
<!-- Node17 -->
<g id="node17" class="node">
<title>Node17</title>
<g id="a_node17"><a xlink:href="act__integer_8h.html" target="_top" xlink:title="integer action functions.">
<polygon fill="none" stroke="black" points="398.5,-224.5 398.5,-243.5 470.5,-243.5 470.5,-224.5 398.5,-224.5"/>
<text text-anchor="middle" x="434.5" y="-231.5" font-family="Helvetica,sans-Serif" font-size="10.00">act_integer.h</text>
</a>
</g>
</g>
<!-- Node1&#45;&gt;Node17 -->
<g id="edge19" class="edge">
<title>Node1&#45;&gt;Node17</title>
<path fill="none" stroke="midnightblue" d="M461.22,-280.08C456.79,-272.61 450.34,-261.72 444.88,-252.52"/>
<polygon fill="midnightblue" stroke="midnightblue" points="447.79,-250.57 439.69,-243.75 441.77,-254.14 447.79,-250.57"/>
</g>
<!-- Node18 -->
<g id="node18" class="node">
<title>Node18</title>
<g id="a_node18"><a xlink:href="act__neural_8h.html" target="_top" xlink:title="Neural network action functions.">
<polygon fill="none" stroke="black" points="550.5,-224.5 550.5,-243.5 620.5,-243.5 620.5,-224.5 550.5,-224.5"/>
<text text-anchor="middle" x="585.5" y="-231.5" font-family="Helvetica,sans-Serif" font-size="10.00">act_neural.h</text>
</a>
</g>
</g>
<!-- Node1&#45;&gt;Node18 -->
<g id="edge22" class="edge">
<title>Node1&#45;&gt;Node18</title>
<path fill="none" stroke="midnightblue" d="M485.36,-280.44C504.77,-271.64 535.23,-257.81 557.46,-247.72"/>
<polygon fill="midnightblue" stroke="midnightblue" points="559.07,-250.84 566.73,-243.52 556.18,-244.46 559.07,-250.84"/>
</g>
<!-- Node3 -->
<g id="node3" class="node">
<title>Node3</title>
<g id="a_node3"><a xlink:href="xcsf_8h.html" target="_top" xlink:title="XCSF data structures.">
<polygon fill="none" stroke="black" points="449.5,-112.5 449.5,-131.5 493.5,-131.5 493.5,-112.5 449.5,-112.5"/>
<text text-anchor="middle" x="471.5" y="-119.5" font-family="Helvetica,sans-Serif" font-size="10.00">xcsf.h</text>
</a>
</g>
</g>
<!-- Node2&#45;&gt;Node3 -->
<g id="edge2" class="edge">
<title>Node2&#45;&gt;Node3</title>
<path fill="none" stroke="midnightblue" d="M485.69,-168.08C483.42,-160.85 480.13,-150.41 477.29,-141.4"/>
<polygon fill="midnightblue" stroke="midnightblue" points="480.6,-140.24 474.25,-131.75 473.92,-142.34 480.6,-140.24"/>
</g>
<!-- Node3&#45;&gt;Node4 -->
<g id="edge3" class="edge">
<title>Node3&#45;&gt;Node4</title>
<path fill="none" stroke="midnightblue" d="M449.39,-117.35C406.71,-110.21 310.09,-93.55 229.5,-76 228.04,-75.68 226.56,-75.35 225.06,-75.01"/>
<polygon fill="midnightblue" stroke="midnightblue" points="225.69,-71.56 215.15,-72.64 224.07,-78.37 225.69,-71.56"/>
</g>
<!-- Node7 -->
<g id="node7" class="node">
<title>Node7</title>
<g id="a_node7"><a xlink:title=" ">
<polygon fill="none" stroke="#bfbfbf" points="568,-0.5 568,-19.5 615,-19.5 615,-0.5 568,-0.5"/>
<text text-anchor="middle" x="591.5" y="-7.5" font-family="Helvetica,sans-Serif" font-size="10.00">math.h</text>
</a>
</g>
</g>
<!-- Node3&#45;&gt;Node7 -->
<g id="edge13" class="edge">
<title>Node3&#45;&gt;Node7</title>
<path fill="none" stroke="midnightblue" d="M493.65,-116.83C516.6,-111.36 551.91,-99.56 572.5,-76 583.73,-63.14 588.33,-43.96 590.21,-29.77"/>
<polygon fill="midnightblue" stroke="midnightblue" points="593.71,-29.96 591.21,-19.67 586.75,-29.27 593.71,-29.96"/>
</g>
<!-- Node8 -->
<g id="node8" class="node">
<title>Node8</title>
<g id="a_node8"><a xlink:title=" ">
<polygon fill="none" stroke="#bfbfbf" points="329.5,-0.5 329.5,-19.5 375.5,-19.5 375.5,-0.5 329.5,-0.5"/>
<text text-anchor="middle" x="352.5" y="-7.5" font-family="Helvetica,sans-Serif" font-size="10.00">stdio.h</text>
</a>
</g>
</g>
<!-- Node3&#45;&gt;Node8 -->
<g id="edge16" class="edge">
<title>Node3&#45;&gt;Node8</title>
<path fill="none" stroke="midnightblue" d="M449.45,-117.65C425.37,-112.79 387.43,-101.41 366.5,-76 355.84,-63.06 352.77,-43.89 352.11,-29.72"/>
<polygon fill="midnightblue" stroke="midnightblue" points="355.61,-29.6 351.99,-19.64 348.61,-29.68 355.61,-29.6"/>
</g>
<!-- Node9 -->
<g id="node9" class="node">
<title>Node9</title>
<g id="a_node9"><a xlink:title=" ">
<polygon fill="none" stroke="#bfbfbf" points="263.5,-0.5 263.5,-19.5 311.5,-19.5 311.5,-0.5 263.5,-0.5"/>
<text text-anchor="middle" x="287.5" y="-7.5" font-family="Helvetica,sans-Serif" font-size="10.00">stdlib.h</text>
</a>
</g>
</g>
<!-- Node3&#45;&gt;Node9 -->
<g id="edge17" class="edge">
<title>Node3&#45;&gt;Node9</title>
<path fill="none" stroke="midnightblue" d="M449.48,-117.03C397,-107.45 268.43,-83.35 262.5,-76 251.05,-61.82 261.75,-41.81 272.48,-27.74"/>
<polygon fill="midnightblue" stroke="midnightblue" points="275.32,-29.81 278.98,-19.86 269.92,-25.36 275.32,-29.81"/>
</g>
<!-- Node10 -->
<g id="node10" class="node">
<title>Node10</title>
<g id="a_node10"><a xlink:title=" ">
<polygon fill="none" stroke="#bfbfbf" points="376,-56.5 376,-75.5 423,-75.5 423,-56.5 376,-56.5"/>
<text text-anchor="middle" x="399.5" y="-63.5" font-family="Helvetica,sans-Serif" font-size="10.00">errno.h</text>
</a>
</g>
</g>
<!-- Node3&#45;&gt;Node10 -->
<g id="edge9" class="edge">
<title>Node3&#45;&gt;Node10</title>
<path fill="none" stroke="midnightblue" d="M459.93,-112.32C449.08,-104.18 432.62,-91.84 419.62,-82.09"/>
<polygon fill="midnightblue" stroke="midnightblue" points="421.38,-79.03 411.28,-75.83 417.18,-84.63 421.38,-79.03"/>
</g>
<!-- Node11 -->
<g id="node11" class="node">
<title>Node11</title>
<g id="a_node11"><a xlink:title=" ">
<polygon fill="none" stroke="#bfbfbf" points="441.5,-56.5 441.5,-75.5 485.5,-75.5 485.5,-56.5 441.5,-56.5"/>
<text text-anchor="middle" x="463.5" y="-63.5" font-family="Helvetica,sans-Serif" font-size="10.00">float.h</text>
</a>
</g>
</g>
<!-- Node3&#45;&gt;Node11 -->
<g id="edge10" class="edge">
<title>Node3&#45;&gt;Node11</title>
<path fill="none" stroke="midnightblue" d="M470.18,-112.08C469.12,-104.93 467.59,-94.64 466.27,-85.69"/>
<polygon fill="midnightblue" stroke="midnightblue" points="469.72,-85.13 464.8,-75.75 462.8,-86.16 469.72,-85.13"/>
</g>
<!-- Node12 -->
<g id="node12" class="node">
<title>Node12</title>
<g id="a_node12"><a xlink:title=" ">
<polygon fill="none" stroke="#bfbfbf" points="504,-56.5 504,-75.5 563,-75.5 563,-56.5 504,-56.5"/>
<text text-anchor="middle" x="533.5" y="-63.5" font-family="Helvetica,sans-Serif" font-size="10.00">inttypes.h</text>
</a>
</g>
</g>
<!-- Node3&#45;&gt;Node12 -->
<g id="edge11" class="edge">
<title>Node3&#45;&gt;Node12</title>
<path fill="none" stroke="midnightblue" d="M481.46,-112.32C490.63,-104.34 504.44,-92.31 515.53,-82.65"/>
<polygon fill="midnightblue" stroke="midnightblue" points="518.12,-85.04 523.36,-75.83 513.52,-79.76 518.12,-85.04"/>
</g>
<!-- Node13 -->
<g id="node13" class="node">
<title>Node13</title>
<g id="a_node13"><a xlink:title=" ">
<polygon fill="none" stroke="#bfbfbf" points="271.5,-56.5 271.5,-75.5 319.5,-75.5 319.5,-56.5 271.5,-56.5"/>
<text text-anchor="middle" x="295.5" y="-63.5" font-family="Helvetica,sans-Serif" font-size="10.00">limits.h</text>
</a>
</g>
</g>
<!-- Node3&#45;&gt;Node13 -->
<g id="edge12" class="edge">
<title>Node3&#45;&gt;Node13</title>
<path fill="none" stroke="midnightblue" d="M449.21,-114.16C418.99,-104.89 364.74,-88.24 329.44,-77.41"/>
<polygon fill="midnightblue" stroke="midnightblue" points="330.17,-73.97 319.58,-74.39 328.11,-80.67 330.17,-73.97"/>
</g>
<!-- Node14 -->
<g id="node14" class="node">
<title>Node14</title>
<g id="a_node14"><a xlink:title=" ">
<polygon fill="none" stroke="#bfbfbf" points="619.5,-56.5 619.5,-75.5 675.5,-75.5 675.5,-56.5 619.5,-56.5"/>
<text text-anchor="middle" x="647.5" y="-63.5" font-family="Helvetica,sans-Serif" font-size="10.00">stdbool.h</text>
</a>
</g>
</g>
<!-- Node3&#45;&gt;Node14 -->
<g id="edge14" class="edge">
<title>Node3&#45;&gt;Node14</title>
<path fill="none" stroke="midnightblue" d="M493.79,-114.16C522.92,-105.22 574.37,-89.44 609.66,-78.61"/>
<polygon fill="midnightblue" stroke="midnightblue" points="611.06,-81.84 619.6,-75.56 609.01,-75.15 611.06,-81.84"/>
</g>
<!-- Node15 -->
<g id="node15" class="node">
<title>Node15</title>
<g id="a_node15"><a xlink:title=" ">
<polygon fill="none" stroke="#bfbfbf" points="694,-56.5 694,-75.5 743,-75.5 743,-56.5 694,-56.5"/>
<text text-anchor="middle" x="718.5" y="-63.5" font-family="Helvetica,sans-Serif" font-size="10.00">stdint.h</text>
</a>
</g>
</g>
<!-- Node3&#45;&gt;Node15 -->
<g id="edge15" class="edge">
<title>Node3&#45;&gt;Node15</title>
<path fill="none" stroke="midnightblue" d="M493.66,-116.7C530.8,-109.42 608.16,-93.89 683.52,-76.14"/>
<polygon fill="midnightblue" stroke="midnightblue" points="684.73,-79.45 693.65,-73.73 683.12,-72.64 684.73,-79.45"/>
</g>
<!-- Node16 -->
<g id="node16" class="node">
<title>Node16</title>
<g id="a_node16"><a xlink:title=" ">
<polygon fill="none" stroke="#bfbfbf" points="761,-56.5 761,-75.5 810,-75.5 810,-56.5 761,-56.5"/>
<text text-anchor="middle" x="785.5" y="-63.5" font-family="Helvetica,sans-Serif" font-size="10.00">string.h</text>
</a>
</g>
</g>
<!-- Node3&#45;&gt;Node16 -->
<g id="edge18" class="edge">
<title>Node3&#45;&gt;Node16</title>
<path fill="none" stroke="midnightblue" d="M493.51,-118.29C539.54,-112.46 649.48,-97.63 750.63,-76.23"/>
<polygon fill="midnightblue" stroke="midnightblue" points="751.66,-79.59 760.7,-74.07 750.19,-72.74 751.66,-79.59"/>
</g>
<!-- Node5 -->
<g id="node5" class="node">
<title>Node5</title>
<g id="a_node5"><a xlink:title=" ">
<polygon fill="none" stroke="#bfbfbf" points="131.5,-0.5 131.5,-19.5 245.5,-19.5 245.5,-0.5 131.5,-0.5"/>
<text text-anchor="middle" x="188.5" y="-7.5" font-family="Helvetica,sans-Serif" font-size="10.00">../lib/cJSON/cJSON.h</text>
</a>
</g>
</g>
<!-- Node4&#45;&gt;Node5 -->
<g id="edge4" class="edge">
<title>Node4&#45;&gt;Node5</title>
<path fill="none" stroke="midnightblue" d="M192.67,-56.08C192.02,-49.01 191.08,-38.86 190.26,-29.99"/>
<polygon fill="midnightblue" stroke="midnightblue" points="193.72,-29.39 189.31,-19.75 186.75,-30.03 193.72,-29.39"/>
</g>
<!-- Node6 -->
<g id="node6" class="node">
<title>Node6</title>
<g id="a_node6"><a xlink:title=" ">
<polygon fill="none" stroke="#bfbfbf" points="0,-0.5 0,-19.5 113,-19.5 113,-0.5 0,-0.5"/>
<text text-anchor="middle" x="56.5" y="-7.5" font-family="Helvetica,sans-Serif" font-size="10.00">../lib/dSFMT/dSFMT.h</text>
</a>
</g>
</g>
<!-- Node4&#45;&gt;Node6 -->
<g id="edge5" class="edge">
<title>Node4&#45;&gt;Node6</title>
<path fill="none" stroke="midnightblue" d="M171.79,-56.44C149.15,-47.52 113.43,-33.44 87.75,-23.32"/>
<polygon fill="midnightblue" stroke="midnightblue" points="88.69,-19.93 78.11,-19.52 86.13,-26.44 88.69,-19.93"/>
</g>
<!-- Node4&#45;&gt;Node7 -->
<g id="edge6" class="edge">
<title>Node4&#45;&gt;Node7</title>
<path fill="none" stroke="midnightblue" d="M215.18,-62.06C280.93,-53.14 478.4,-26.35 557.85,-15.57"/>
<polygon fill="midnightblue" stroke="midnightblue" points="558.38,-19.03 567.81,-14.21 557.43,-12.09 558.38,-19.03"/>
</g>
<!-- Node4&#45;&gt;Node8 -->
<g id="edge7" class="edge">
<title>Node4&#45;&gt;Node8</title>
<path fill="none" stroke="midnightblue" d="M215.27,-57.6C242.29,-48.43 288.6,-32.7 319.86,-22.08"/>
<polygon fill="midnightblue" stroke="midnightblue" points="321.1,-25.36 329.44,-18.83 318.85,-18.73 321.1,-25.36"/>
</g>
<!-- Node4&#45;&gt;Node9 -->
<g id="edge8" class="edge">
<title>Node4&#45;&gt;Node9</title>
<path fill="none" stroke="midnightblue" d="M208.6,-56.32C223.4,-47.82 246.19,-34.73 263.48,-24.8"/>
<polygon fill="midnightblue" stroke="midnightblue" points="265.51,-27.67 272.43,-19.65 262.02,-21.6 265.51,-27.67"/>
</g>
<!-- Node17&#45;&gt;Node2 -->
<g id="edge20" class="edge">
<title>Node17&#45;&gt;Node2</title>
<path fill="none" stroke="midnightblue" d="M443.42,-224.08C451.28,-216.22 462.93,-204.57 472.42,-195.08"/>
<polygon fill="midnightblue" stroke="midnightblue" points="475.15,-197.3 479.75,-187.75 470.2,-192.35 475.15,-197.3"/>
</g>
<!-- Node17&#45;&gt;Node3 -->
<g id="edge21" class="edge">
<title>Node17&#45;&gt;Node3</title>
<path fill="none" stroke="midnightblue" d="M437.04,-224.11C440.68,-211.54 447.69,-187.88 454.5,-168 457.55,-159.1 461.2,-149.32 464.34,-141.16"/>
<polygon fill="midnightblue" stroke="midnightblue" points="467.71,-142.16 468.08,-131.57 461.19,-139.62 467.71,-142.16"/>
</g>
<!-- Node18&#45;&gt;Node2 -->
<g id="edge23" class="edge">
<title>Node18&#45;&gt;Node2</title>
<path fill="none" stroke="midnightblue" d="M569.92,-224.32C554.5,-215.74 530.69,-202.49 512.79,-192.52"/>
<polygon fill="midnightblue" stroke="midnightblue" points="514.49,-189.46 504.05,-187.65 511.08,-195.58 514.49,-189.46"/>
</g>
<!-- Node18&#45;&gt;Node3 -->
<g id="edge36" class="edge">
<title>Node18&#45;&gt;Node3</title>
<path fill="none" stroke="midnightblue" d="M577.73,-224.33C566.22,-211.63 543.82,-187.36 523.5,-168 512.7,-157.71 500.04,-146.74 489.93,-138.2"/>
<polygon fill="midnightblue" stroke="midnightblue" points="492.04,-135.41 482.12,-131.68 487.55,-140.78 492.04,-135.41"/>
</g>
<!-- Node19 -->
<g id="node19" class="node">
<title>Node19</title>
<g id="a_node19"><a xlink:href="neural_8h.html" target="_top" xlink:title="An implementation of a multi&#45;layer perceptron neural network.">
<polygon fill="none" stroke="black" points="693,-112.5 693,-131.5 744,-131.5 744,-112.5 693,-112.5"/>
<text text-anchor="middle" x="718.5" y="-119.5" font-family="Helvetica,sans-Serif" font-size="10.00">neural.h</text>
</a>
</g>
</g>
<!-- Node18&#45;&gt;Node19 -->
<g id="edge24" class="edge">
<title>Node18&#45;&gt;Node19</title>
<path fill="none" stroke="midnightblue" d="M601.74,-224.45C616.88,-216.12 639.73,-202.6 657.5,-188 675.52,-173.19 693.47,-153.29 705.18,-139.42"/>
<polygon fill="midnightblue" stroke="midnightblue" points="707.92,-141.6 711.61,-131.67 702.53,-137.13 707.92,-141.6"/>
</g>
<!-- Node20 -->
<g id="node20" class="node">
<title>Node20</title>
<g id="a_node20"><a xlink:href="neural__activations_8h.html" target="_top" xlink:title="Neural network activation functions.">
<polygon fill="none" stroke="black" points="788.5,-168.5 788.5,-187.5 892.5,-187.5 892.5,-168.5 788.5,-168.5"/>
<text text-anchor="middle" x="840.5" y="-175.5" font-family="Helvetica,sans-Serif" font-size="10.00">neural_activations.h</text>
</a>
</g>
</g>
<!-- Node18&#45;&gt;Node20 -->
<g id="edge30" class="edge">
<title>Node18&#45;&gt;Node20</title>
<path fill="none" stroke="midnightblue" d="M620.69,-225.55C664.66,-216.24 740.2,-200.24 790.25,-189.64"/>
<polygon fill="midnightblue" stroke="midnightblue" points="791.16,-193.03 800.21,-187.53 789.71,-186.18 791.16,-193.03"/>
</g>
<!-- Node21 -->
<g id="node21" class="node">
<title>Node21</title>
<g id="a_node21"><a xlink:href="neural__layer_8h.html" target="_top" xlink:title="Interface for neural network layers.">
<polygon fill="none" stroke="black" points="571,-168.5 571,-187.5 648,-187.5 648,-168.5 571,-168.5"/>
<text text-anchor="middle" x="609.5" y="-175.5" font-family="Helvetica,sans-Serif" font-size="10.00">neural_layer.h</text>
</a>
</g>
</g>
<!-- Node18&#45;&gt;Node21 -->
<g id="edge32" class="edge">
<title>Node18&#45;&gt;Node21</title>
<path fill="none" stroke="midnightblue" d="M589.46,-224.08C592.71,-216.77 597.42,-206.18 601.45,-197.1"/>
<polygon fill="midnightblue" stroke="midnightblue" points="604.75,-198.31 605.61,-187.75 598.35,-195.47 604.75,-198.31"/>
</g>
<!-- Node19&#45;&gt;Node8 -->
<g id="edge27" class="edge">
<title>Node19&#45;&gt;Node8</title>
<path fill="none" stroke="midnightblue" d="M744.23,-117.92C791.94,-111.26 886.34,-93.03 852.5,-56 836.71,-38.72 495.26,-18.75 385.89,-12.78"/>
<polygon fill="midnightblue" stroke="midnightblue" points="385.93,-9.27 375.75,-12.23 385.55,-16.26 385.93,-9.27"/>
</g>
<!-- Node19&#45;&gt;Node9 -->
<g id="edge28" class="edge">
<title>Node19&#45;&gt;Node9</title>
<path fill="none" stroke="midnightblue" d="M744.18,-115.13C782.02,-105.38 845.64,-84.09 819.5,-56 783.26,-17.05 409.53,-28.25 321.59,-19.45"/>
<polygon fill="midnightblue" stroke="midnightblue" points="321.9,-15.96 311.53,-18.13 320.99,-22.9 321.9,-15.96"/>
</g>
<!-- Node19&#45;&gt;Node14 -->
<g id="edge25" class="edge">
<title>Node19&#45;&gt;Node14</title>
<path fill="none" stroke="midnightblue" d="M707.09,-112.32C696.39,-104.18 680.16,-91.84 667.34,-82.09"/>
<polygon fill="midnightblue" stroke="midnightblue" points="669.19,-79.1 659.11,-75.83 664.96,-84.67 669.19,-79.1"/>
</g>
<!-- Node19&#45;&gt;Node15 -->
<g id="edge26" class="edge">
<title>Node19&#45;&gt;Node15</title>
<path fill="none" stroke="midnightblue" d="M718.5,-112.08C718.5,-105.01 718.5,-94.86 718.5,-85.99"/>
<polygon fill="midnightblue" stroke="midnightblue" points="722,-85.75 718.5,-75.75 715,-85.75 722,-85.75"/>
</g>
<!-- Node19&#45;&gt;Node16 -->
<g id="edge29" class="edge">
<title>Node19&#45;&gt;Node16</title>
<path fill="none" stroke="midnightblue" d="M729.26,-112.32C739.27,-104.26 754.39,-92.08 766.43,-82.37"/>
<polygon fill="midnightblue" stroke="midnightblue" points="768.95,-84.83 774.54,-75.83 764.56,-79.38 768.95,-84.83"/>
</g>
<!-- Node20&#45;&gt;Node7 -->
<g id="edge31" class="edge">
<title>Node20&#45;&gt;Node7</title>
<path fill="none" stroke="midnightblue" d="M847.14,-168.2C862.69,-146.47 898.06,-89.56 869.5,-56 838.52,-19.6 692.67,-12.55 625.51,-11.25"/>
<polygon fill="midnightblue" stroke="midnightblue" points="625.49,-7.75 615.44,-11.09 625.38,-14.75 625.49,-7.75"/>
</g>
<!-- Node21&#45;&gt;Node19 -->
<g id="edge33" class="edge">
<title>Node21&#45;&gt;Node19</title>
<path fill="none" stroke="midnightblue" d="M627.01,-168.32C644.57,-159.62 671.83,-146.12 692.03,-136.11"/>
<polygon fill="midnightblue" stroke="midnightblue" points="693.62,-139.23 701.03,-131.65 690.52,-132.96 693.62,-139.23"/>
</g>
<!-- Node22 -->
<g id="node22" class="node">
<title>Node22</title>
<g id="a_node22"><a xlink:href="neural__layer__args_8h.html" target="_top" xlink:title="Functions operating on neural network arguments/constants.">
<polygon fill="none" stroke="black" points="305,-112.5 305,-131.5 406,-131.5 406,-112.5 305,-112.5"/>
<text text-anchor="middle" x="355.5" y="-119.5" font-family="Helvetica,sans-Serif" font-size="10.00">neural_layer_args.h</text>
</a>
</g>
</g>
<!-- Node21&#45;&gt;Node22 -->
<g id="edge34" class="edge">
<title>Node21&#45;&gt;Node22</title>
<path fill="none" stroke="midnightblue" d="M570.92,-168.8C526.74,-159.41 454.22,-143.99 405.68,-133.67"/>
<polygon fill="midnightblue" stroke="midnightblue" points="406.21,-130.2 395.7,-131.55 404.75,-137.05 406.21,-130.2"/>
</g>
<!-- Node22&#45;&gt;Node4 -->
<g id="edge35" class="edge">
<title>Node22&#45;&gt;Node4</title>
<path fill="none" stroke="midnightblue" d="M329.83,-112.44C301.37,-102.96 255.47,-87.66 224.89,-77.46"/>
<polygon fill="midnightblue" stroke="midnightblue" points="225.75,-74.06 215.16,-74.22 223.54,-80.7 225.75,-74.06"/>
</g>
</g>
</svg>
