<?xml version="1.0" encoding="UTF-8" standalone="no"?>
<!DOCTYPE svg PUBLIC "-//W3C//DTD SVG 1.1//EN"
 "http://www.w3.org/Graphics/SVG/1.1/DTD/svg11.dtd">
<!-- Generated by graphviz version 2.43.0 (0)
 -->
<!-- Title: act_mutate Pages: 1 -->
<svg width="840pt" height="294pt"
 viewBox="0.00 0.00 840.00 294.00" xmlns="http://www.w3.org/2000/svg" xmlns:xlink="http://www.w3.org/1999/xlink">
<g id="graph0" class="graph" transform="scale(1 1) rotate(0) translate(4 290)">
<title>act_mutate</title>
<!-- Node1 -->
<g id="node1" class="node">
<title>Node1</title>
<g id="a_node1"><a xlink:title="Performs classifier action mutation.">
<polygon fill="#bfbfbf" stroke="black" points="767,-124.5 767,-143.5 832,-143.5 832,-124.5 767,-124.5"/>
<text text-anchor="middle" x="799.5" y="-131.5" font-family="Helvetica,sans-Serif" font-size="10.00">act_mutate</text>
</a>
</g>
</g>
<!-- Node2 -->
<g id="node2" class="node">
<title>Node2</title>
<g id="a_node2"><a xlink:href="cl_8h.html#a919994ba12876465611bd4bb9df0171c" target="_top" xlink:title="Performs classifier mutation.">
<polygon fill="none" stroke="black" points="672,-124.5 672,-143.5 731,-143.5 731,-124.5 672,-124.5"/>
<text text-anchor="middle" x="701.5" y="-131.5" font-family="Helvetica,sans-Serif" font-size="10.00">cl_mutate</text>
</a>
</g>
</g>
<!-- Node1&#45;&gt;Node2 -->
<g id="edge1" class="edge">
<title>Node1&#45;&gt;Node2</title>
<path fill="none" stroke="midnightblue" d="M756.58,-134C748.03,-134 739.22,-134 731.25,-134"/>
<polygon fill="midnightblue" stroke="midnightblue" points="756.8,-137.5 766.8,-134 756.8,-130.5 756.8,-137.5"/>
</g>
<!-- Node3 -->
<g id="node3" class="node">
<title>Node3</title>
<g id="a_node3"><a xlink:href="ea_8h.html#a295cd56f77428d1fa2555df1ce363cdd" target="_top" xlink:title="Executes the evolutionary algorithm (EA).">
<polygon fill="none" stroke="black" points="607,-124.5 607,-143.5 636,-143.5 636,-124.5 607,-124.5"/>
<text text-anchor="middle" x="621.5" y="-131.5" font-family="Helvetica,sans-Serif" font-size="10.00">ea</text>
</a>
</g>
</g>
<!-- Node2&#45;&gt;Node3 -->
<g id="edge2" class="edge">
<title>Node2&#45;&gt;Node3</title>
<path fill="none" stroke="midnightblue" d="M661.69,-134C652.55,-134 643.4,-134 636.24,-134"/>
<polygon fill="midnightblue" stroke="midnightblue" points="661.9,-137.5 671.9,-134 661.9,-130.5 661.9,-137.5"/>
</g>
<!-- Node4 -->
<g id="node4" class="node">
<title>Node4</title>
<g id="a_node4"><a xlink:href="xcs__rl_8h.html#ac0d410321cd5627345e1b53856f7244c" target="_top" xlink:title="Provides reinforcement to the sets.">
<polygon fill="none" stroke="black" points="479.5,-209.5 479.5,-228.5 556.5,-228.5 556.5,-209.5 479.5,-209.5"/>
<text text-anchor="middle" x="518" y="-216.5" font-family="Helvetica,sans-Serif" font-size="10.00">xcs_rl_update</text>
</a>
</g>
</g>
<!-- Node3&#45;&gt;Node4 -->
<g id="edge3" class="edge">
<title>Node3&#45;&gt;Node4</title>
<path fill="none" stroke="midnightblue" d="M600.95,-150.37C580.05,-167.87 547.64,-195.02 530.51,-209.36"/>
<polygon fill="midnightblue" stroke="midnightblue" points="603.44,-152.85 608.86,-143.75 598.94,-147.49 603.44,-152.85"/>
</g>
<!-- Node12 -->
<g id="node12" class="node">
<title>Node12</title>
<g id="a_node12"><a xlink:href="xcs__supervised_8c.html#a836aae9ec3055625d1c464d41746a7b9" target="_top" xlink:title="Executes a single XCSF trial.">
<polygon fill="none" stroke="black" points="465,-86.5 465,-105.5 571,-105.5 571,-86.5 465,-86.5"/>
<text text-anchor="middle" x="518" y="-93.5" font-family="Helvetica,sans-Serif" font-size="10.00">xcs_supervised_trial</text>
</a>
</g>
</g>
<!-- Node3&#45;&gt;Node12 -->
<g id="edge12" class="edge">
<title>Node3&#45;&gt;Node12</title>
<path fill="none" stroke="midnightblue" d="M597.3,-125.32C581.57,-119.42 560.76,-111.63 544.55,-105.57"/>
<polygon fill="midnightblue" stroke="midnightblue" points="596.22,-128.65 606.81,-128.88 598.67,-122.09 596.22,-128.65"/>
</g>
<!-- Node5 -->
<g id="node5" class="node">
<title>Node5</title>
<g id="a_node5"><a xlink:href="classXCS.html#af8970ba52403714439fda0d4383a390b" target="_top" xlink:title="Creates the action set using the previously selected action, updates the classifiers,...">
<polygon fill="none" stroke="black" points="175,-266.5 175,-285.5 248,-285.5 248,-266.5 175,-266.5"/>
<text text-anchor="middle" x="211.5" y="-273.5" font-family="Helvetica,sans-Serif" font-size="10.00">XCS::update</text>
</a>
</g>
</g>
<!-- Node4&#45;&gt;Node5 -->
<g id="edge4" class="edge">
<title>Node4&#45;&gt;Node5</title>
<path fill="none" stroke="midnightblue" d="M490.08,-233.31C473.05,-241.67 450.31,-251.61 429,-257 366.81,-272.72 291.75,-275.94 248.33,-276.33"/>
<polygon fill="midnightblue" stroke="midnightblue" points="492.04,-236.24 499.39,-228.61 488.89,-229.99 492.04,-236.24"/>
</g>
<!-- Node7 -->
<g id="node7" class="node">
<title>Node7</title>
<g id="a_node7"><a xlink:href="xcs__rl_8h.html#a391abf9bd2540ff284f822b30899c438" target="_top" xlink:title="Creates and updates an action set for a given (state, action, reward).">
<polygon fill="none" stroke="black" points="341.5,-228.5 341.5,-247.5 397.5,-247.5 397.5,-228.5 341.5,-228.5"/>
<text text-anchor="middle" x="369.5" y="-235.5" font-family="Helvetica,sans-Serif" font-size="10.00">xcs_rl_fit</text>
</a>
</g>
</g>
<!-- Node4&#45;&gt;Node7 -->
<g id="edge6" class="edge">
<title>Node4&#45;&gt;Node7</title>
<path fill="none" stroke="midnightblue" d="M469.1,-225.21C445.5,-228.27 417.91,-231.85 397.92,-234.44"/>
<polygon fill="midnightblue" stroke="midnightblue" points="469.81,-228.65 479.27,-223.89 468.91,-221.71 469.81,-228.65"/>
</g>
<!-- Node9 -->
<g id="node9" class="node">
<title>Node9</title>
<g id="a_node9"><a xlink:href="xcs__rl_8c.html#a8171cd945b56ed0a4563f9dcd89438e3" target="_top" xlink:title="Executes a reinforcement learning trial using a built&#45;in environment.">
<polygon fill="none" stroke="black" points="337.5,-190.5 337.5,-209.5 401.5,-209.5 401.5,-190.5 337.5,-190.5"/>
<text text-anchor="middle" x="369.5" y="-197.5" font-family="Helvetica,sans-Serif" font-size="10.00">xcs_rl_trial</text>
</a>
</g>
</g>
<!-- Node4&#45;&gt;Node9 -->
<g id="edge9" class="edge">
<title>Node4&#45;&gt;Node9</title>
<path fill="none" stroke="midnightblue" d="M469.06,-212.78C446.92,-209.91 421.26,-206.58 401.68,-204.04"/>
<polygon fill="midnightblue" stroke="midnightblue" points="468.91,-216.29 479.27,-214.11 469.81,-209.35 468.91,-216.29"/>
</g>
<!-- Node6 -->
<g id="node6" class="node">
<title>Node6</title>
<g id="a_node6"><a xlink:href="pybind__wrapper_8cpp.html#a269acb618355873dacf057083f07eb58" target="_top" xlink:title=" ">
<polygon fill="none" stroke="black" points="0,-228.5 0,-247.5 113,-247.5 113,-228.5 0,-228.5"/>
<text text-anchor="middle" x="56.5" y="-235.5" font-family="Helvetica,sans-Serif" font-size="10.00">pybind11_init_wrapper</text>
</a>
</g>
</g>
<!-- Node5&#45;&gt;Node6 -->
<g id="edge5" class="edge">
<title>Node5&#45;&gt;Node6</title>
<path fill="none" stroke="midnightblue" d="M164.84,-264.66C142.85,-259.2 116.77,-252.72 95.82,-247.52"/>
<polygon fill="midnightblue" stroke="midnightblue" points="164.08,-268.08 174.63,-267.09 165.77,-261.28 164.08,-268.08"/>
</g>
<!-- Node8 -->
<g id="node8" class="node">
<title>Node8</title>
<g id="a_node8"><a xlink:href="classXCS.html#ac12768292958a714a726b1c029e9616a" target="_top" xlink:title="Creates/updates an action set for a given (state, action, reward).">
<polygon fill="none" stroke="black" points="185.5,-228.5 185.5,-247.5 237.5,-247.5 237.5,-228.5 185.5,-228.5"/>
<text text-anchor="middle" x="211.5" y="-235.5" font-family="Helvetica,sans-Serif" font-size="10.00">XCS::fit</text>
</a>
</g>
</g>
<!-- Node7&#45;&gt;Node8 -->
<g id="edge7" class="edge">
<title>Node7&#45;&gt;Node8</title>
<path fill="none" stroke="midnightblue" d="M331.17,-238C302.2,-238 262.85,-238 237.56,-238"/>
<polygon fill="midnightblue" stroke="midnightblue" points="331.33,-241.5 341.33,-238 331.33,-234.5 331.33,-241.5"/>
</g>
<!-- Node8&#45;&gt;Node6 -->
<g id="edge8" class="edge">
<title>Node8&#45;&gt;Node6</title>
<path fill="none" stroke="midnightblue" d="M175.01,-238C156.69,-238 133.91,-238 113.3,-238"/>
<polygon fill="midnightblue" stroke="midnightblue" points="175.24,-241.5 185.24,-238 175.24,-234.5 175.24,-241.5"/>
</g>
<!-- Node10 -->
<g id="node10" class="node">
<title>Node10</title>
<g id="a_node10"><a xlink:href="xcs__rl_8h.html#adb4c284d19eeaed2b4a629f9b939ed20" target="_top" xlink:title="Executes a reinforcement learning experiment.">
<polygon fill="none" stroke="black" points="179.5,-190.5 179.5,-209.5 243.5,-209.5 243.5,-190.5 179.5,-190.5"/>
<text text-anchor="middle" x="211.5" y="-197.5" font-family="Helvetica,sans-Serif" font-size="10.00">xcs_rl_exp</text>
</a>
</g>
</g>
<!-- Node9&#45;&gt;Node10 -->
<g id="edge10" class="edge">
<title>Node9&#45;&gt;Node10</title>
<path fill="none" stroke="midnightblue" d="M327.28,-200C301.06,-200 267.65,-200 243.64,-200"/>
<polygon fill="midnightblue" stroke="midnightblue" points="327.31,-203.5 337.31,-200 327.31,-196.5 327.31,-203.5"/>
</g>
<!-- Node11 -->
<g id="node11" class="node">
<title>Node11</title>
<g id="a_node11"><a xlink:href="main_8c.html#a3c04138a5bfe5d72780bb7e82a18e627" target="_top" xlink:title=" ">
<polygon fill="none" stroke="black" points="37.5,-133.5 37.5,-152.5 75.5,-152.5 75.5,-133.5 37.5,-133.5"/>
<text text-anchor="middle" x="56.5" y="-140.5" font-family="Helvetica,sans-Serif" font-size="10.00">main</text>
</a>
</g>
</g>
<!-- Node10&#45;&gt;Node11 -->
<g id="edge11" class="edge">
<title>Node10&#45;&gt;Node11</title>
<path fill="none" stroke="midnightblue" d="M169.46,-187.91C162.59,-185.72 155.57,-183.37 149,-181 123.12,-171.65 93.84,-159.14 75.53,-151.08"/>
<polygon fill="midnightblue" stroke="midnightblue" points="168.75,-191.35 179.34,-190.99 170.84,-184.67 168.75,-191.35"/>
</g>
<!-- Node13 -->
<g id="node13" class="node">
<title>Node13</title>
<g id="a_node13"><a xlink:href="xcs__supervised_8h.html#aac1347b7b83576d581a1b725b4c84e56" target="_top" xlink:title="Executes MAX_TRIALS number of XCSF learning iterations using the training data and test iterations us...">
<polygon fill="none" stroke="black" points="320.5,-86.5 320.5,-105.5 418.5,-105.5 418.5,-86.5 320.5,-86.5"/>
<text text-anchor="middle" x="369.5" y="-93.5" font-family="Helvetica,sans-Serif" font-size="10.00">xcs_supervised_fit</text>
</a>
</g>
</g>
<!-- Node12&#45;&gt;Node13 -->
<g id="edge13" class="edge">
<title>Node12&#45;&gt;Node13</title>
<path fill="none" stroke="midnightblue" d="M454.6,-96C442.68,-96 430.37,-96 418.97,-96"/>
<polygon fill="midnightblue" stroke="midnightblue" points="454.94,-99.5 464.94,-96 454.94,-92.5 454.94,-99.5"/>
</g>
<!-- Node15 -->
<g id="node15" class="node">
<title>Node15</title>
<g id="a_node15"><a xlink:href="xcs__supervised_8h.html#a2dc51452fdb0be0e27fd3ebfe6041474" target="_top" xlink:title="Calculates the XCSF predictions for the provided input.">
<polygon fill="none" stroke="black" points="310,-143.5 310,-162.5 429,-162.5 429,-143.5 310,-143.5"/>
<text text-anchor="middle" x="369.5" y="-150.5" font-family="Helvetica,sans-Serif" font-size="10.00">xcs_supervised_predict</text>
</a>
</g>
</g>
<!-- Node12&#45;&gt;Node15 -->
<g id="edge16" class="edge">
<title>Node12&#45;&gt;Node15</title>
<path fill="none" stroke="midnightblue" d="M483.07,-109.2C456.17,-119.67 419.21,-134.05 395.1,-143.43"/>
<polygon fill="midnightblue" stroke="midnightblue" points="484.43,-112.43 492.48,-105.54 481.89,-105.9 484.43,-112.43"/>
</g>
<!-- Node17 -->
<g id="node17" class="node">
<title>Node17</title>
<g id="a_node17"><a xlink:href="xcs__supervised_8h.html#ae05de18a53511ba46b2a6a733c780580" target="_top" xlink:title="Calculates the XCSF error for the input data.">
<polygon fill="none" stroke="black" points="312.5,-38.5 312.5,-57.5 426.5,-57.5 426.5,-38.5 312.5,-38.5"/>
<text text-anchor="middle" x="369.5" y="-45.5" font-family="Helvetica,sans-Serif" font-size="10.00">xcs_supervised_score</text>
</a>
</g>
</g>
<!-- Node12&#45;&gt;Node17 -->
<g id="edge19" class="edge">
<title>Node12&#45;&gt;Node17</title>
<path fill="none" stroke="midnightblue" d="M477.97,-83.21C453.39,-75.16 422.19,-64.94 399.74,-57.58"/>
<polygon fill="midnightblue" stroke="midnightblue" points="477.11,-86.61 487.71,-86.4 479.29,-79.96 477.11,-86.61"/>
</g>
<!-- Node19 -->
<g id="node19" class="node">
<title>Node19</title>
<g id="a_node19"><a xlink:href="xcs__supervised_8h.html#a56ec80025279785376a569ec0130c29f" target="_top" xlink:title="Calculates the XCSF error for a subsample of the input data.">
<polygon fill="none" stroke="black" points="149,-0.5 149,-19.5 274,-19.5 274,-0.5 149,-0.5"/>
<text text-anchor="middle" x="211.5" y="-7.5" font-family="Helvetica,sans-Serif" font-size="10.00">xcs_supervised_score_n</text>
</a>
</g>
</g>
<!-- Node12&#45;&gt;Node19 -->
<g id="edge23" class="edge">
<title>Node12&#45;&gt;Node19</title>
<path fill="none" stroke="midnightblue" d="M500.66,-78.91C484.23,-62.94 457.32,-39.96 429,-29 379.38,-9.8 318.74,-5.99 274.28,-6.44"/>
<polygon fill="midnightblue" stroke="midnightblue" points="498.31,-81.51 507.85,-86.11 503.26,-76.56 498.31,-81.51"/>
</g>
<!-- Node13&#45;&gt;Node11 -->
<g id="edge15" class="edge">
<title>Node13&#45;&gt;Node11</title>
<path fill="none" stroke="midnightblue" d="M310.26,-92.87C265.61,-91.79 202.73,-93.14 149,-105 122.13,-110.93 93.1,-124.29 75.11,-133.48"/>
<polygon fill="midnightblue" stroke="midnightblue" points="310.25,-96.37 320.35,-93.16 310.46,-89.37 310.25,-96.37"/>
</g>
<!-- Node14 -->
<g id="node14" class="node">
<title>Node14</title>
<g id="a_node14"><a xlink:href="classXCS.html#a3f8168ffade2d933d0971625200f1d92" target="_top" xlink:title="Executes MAX_TRIALS number of XCSF learning iterations using the provided training data.">
<polygon fill="none" stroke="black" points="185.5,-114.5 185.5,-133.5 237.5,-133.5 237.5,-114.5 185.5,-114.5"/>
<text text-anchor="middle" x="211.5" y="-121.5" font-family="Helvetica,sans-Serif" font-size="10.00">XCS::fit</text>
</a>
</g>
</g>
<!-- Node13&#45;&gt;Node14 -->
<g id="edge14" class="edge">
<title>Node13&#45;&gt;Node14</title>
<path fill="none" stroke="midnightblue" d="M310.58,-106.4C285.4,-110.92 257.22,-115.97 237.55,-119.5"/>
<polygon fill="midnightblue" stroke="midnightblue" points="311.2,-109.84 320.42,-104.63 309.96,-102.95 311.2,-109.84"/>
</g>
<!-- Node16 -->
<g id="node16" class="node">
<title>Node16</title>
<g id="a_node16"><a xlink:href="classXCS.html#a4d7d398d90d5f695fcbfe0fa99354436" target="_top" xlink:title="Returns the XCSF prediction array for the provided input.">
<polygon fill="none" stroke="black" points="175,-152.5 175,-171.5 248,-171.5 248,-152.5 175,-152.5"/>
<text text-anchor="middle" x="211.5" y="-159.5" font-family="Helvetica,sans-Serif" font-size="10.00">XCS::predict</text>
</a>
</g>
</g>
<!-- Node15&#45;&gt;Node16 -->
<g id="edge17" class="edge">
<title>Node15&#45;&gt;Node16</title>
<path fill="none" stroke="midnightblue" d="M299.62,-156.97C281.88,-158 263.51,-159.06 248.23,-159.94"/>
<polygon fill="midnightblue" stroke="midnightblue" points="300.19,-160.45 309.97,-156.38 299.78,-153.46 300.19,-160.45"/>
</g>
<!-- Node16&#45;&gt;Node6 -->
<g id="edge18" class="edge">
<title>Node16&#45;&gt;Node6</title>
<path fill="none" stroke="midnightblue" d="M165,-174.6C159.53,-176.54 154.08,-178.68 149,-181 119.38,-194.53 87.75,-216 70.53,-228.37"/>
<polygon fill="midnightblue" stroke="midnightblue" points="166.42,-177.81 174.8,-171.33 164.2,-171.18 166.42,-177.81"/>
</g>
<!-- Node18 -->
<g id="node18" class="node">
<title>Node18</title>
<g id="a_node18"><a xlink:href="classXCS.html#a4bb9f3f8613abf7ba95837a03bbb931d" target="_top" xlink:title="Returns the error using N random samples from the provided data.">
<polygon fill="none" stroke="black" points="22.5,-19.5 22.5,-38.5 90.5,-38.5 90.5,-19.5 22.5,-19.5"/>
<text text-anchor="middle" x="56.5" y="-26.5" font-family="Helvetica,sans-Serif" font-size="10.00">XCS::score</text>
</a>
</g>
</g>
<!-- Node17&#45;&gt;Node18 -->
<g id="edge20" class="edge">
<title>Node17&#45;&gt;Node18</title>
<path fill="none" stroke="midnightblue" d="M302.05,-43.94C237.18,-39.98 141.13,-34.11 90.89,-31.04"/>
<polygon fill="midnightblue" stroke="midnightblue" points="301.99,-47.44 312.18,-44.56 302.41,-40.46 301.99,-47.44"/>
</g>
<!-- Node17&#45;&gt;Node19 -->
<g id="edge21" class="edge">
<title>Node17&#45;&gt;Node19</title>
<path fill="none" stroke="midnightblue" d="M319.37,-36.03C297.51,-30.71 272.12,-24.52 251.58,-19.52"/>
<polygon fill="midnightblue" stroke="midnightblue" points="318.59,-39.44 329.13,-38.41 320.25,-32.64 318.59,-39.44"/>
</g>
<!-- Node19&#45;&gt;Node18 -->
<g id="edge22" class="edge">
<title>Node19&#45;&gt;Node18</title>
<path fill="none" stroke="midnightblue" d="M138.35,-18.96C121.62,-21.04 104.6,-23.15 90.52,-24.9"/>
<polygon fill="midnightblue" stroke="midnightblue" points="139.22,-22.38 148.71,-17.67 138.35,-15.43 139.22,-22.38"/>
</g>
</g>
</svg>
