<?xml version="1.0" encoding="UTF-8" standalone="no"?>
<!DOCTYPE svg PUBLIC "-//W3C//DTD SVG 1.1//EN"
 "http://www.w3.org/Graphics/SVG/1.1/DTD/svg11.dtd">
<!-- Generated by graphviz version 2.43.0 (0)
 -->
<!-- Title: action_param_print Pages: 1 -->
<svg width="693pt" height="332pt"
 viewBox="0.00 0.00 693.00 332.00" xmlns="http://www.w3.org/2000/svg" xmlns:xlink="http://www.w3.org/1999/xlink">
<g id="graph0" class="graph" transform="scale(1 1) rotate(0) translate(4 328)">
<title>action_param_print</title>
<!-- Node1 -->
<g id="node1" class="node">
<title>Node1</title>
<g id="a_node1"><a xlink:title="Prints action parameters.">
<polygon fill="#bfbfbf" stroke="black" points="0,-171.5 0,-190.5 99,-190.5 99,-171.5 0,-171.5"/>
<text text-anchor="middle" x="49.5" y="-178.5" font-family="Helvetica,sans-Serif" font-size="10.00">action_param_print</text>
</a>
</g>
</g>
<!-- Node2 -->
<g id="node2" class="node">
<title>Node2</title>
<g id="a_node2"><a xlink:href="action_8c.html#a92f612de02989e82ef6c52bc7384f24f" target="_top" xlink:title="Returns a string representation of an action type from an integer.">
<polygon fill="none" stroke="black" points="135,-190.5 135,-209.5 247,-209.5 247,-190.5 135,-190.5"/>
<text text-anchor="middle" x="191" y="-197.5" font-family="Helvetica,sans-Serif" font-size="10.00">action_type_as_string</text>
</a>
</g>
</g>
<!-- Node1&#45;&gt;Node2 -->
<g id="edge1" class="edge">
<title>Node1&#45;&gt;Node2</title>
<path fill="none" stroke="midnightblue" d="M99.29,-187.65C107.54,-188.77 116.21,-189.95 124.79,-191.12"/>
<polygon fill="midnightblue" stroke="midnightblue" points="124.42,-194.6 134.8,-192.48 125.36,-187.66 124.42,-194.6"/>
</g>
<!-- Node3 -->
<g id="node3" class="node">
<title>Node3</title>
<g id="a_node3"><a xlink:href="neural__layer__args_8c.html#a8d6f5c91f58e29ae70807de0d0b25d0e" target="_top" xlink:title="Prints layer parameters.">
<polygon fill="none" stroke="black" points="148,-152.5 148,-171.5 234,-171.5 234,-152.5 148,-152.5"/>
<text text-anchor="middle" x="191" y="-159.5" font-family="Helvetica,sans-Serif" font-size="10.00">layer_args_print</text>
</a>
</g>
</g>
<!-- Node1&#45;&gt;Node3 -->
<g id="edge2" class="edge">
<title>Node1&#45;&gt;Node3</title>
<path fill="none" stroke="midnightblue" d="M99.29,-174.35C111.81,-172.65 125.33,-170.81 138.01,-169.08"/>
<polygon fill="midnightblue" stroke="midnightblue" points="138.53,-172.54 147.96,-167.73 137.58,-165.61 138.53,-172.54"/>
</g>
<!-- Node4 -->
<g id="node4" class="node">
<title>Node4</title>
<g id="a_node4"><a xlink:href="neural__layer__args_8c.html#a56dcbd4bdf90e80ef81c676df60ff8b3" target="_top" xlink:title="Prints layer activation function parameters.">
<polygon fill="none" stroke="black" points="283,-304.5 283,-323.5 416,-323.5 416,-304.5 283,-304.5"/>
<text text-anchor="middle" x="349.5" y="-311.5" font-family="Helvetica,sans-Serif" font-size="10.00">layer_args_print_activation</text>
</a>
</g>
</g>
<!-- Node3&#45;&gt;Node4 -->
<g id="edge3" class="edge">
<title>Node3&#45;&gt;Node4</title>
<path fill="none" stroke="midnightblue" d="M233.58,-171.52C238.55,-173.99 243.19,-177.09 247,-181 284.06,-219.07 244.99,-257.87 283,-295 284.49,-296.46 286.09,-297.81 287.77,-299.05"/>
<polygon fill="midnightblue" stroke="midnightblue" points="286.4,-302.31 296.77,-304.46 290.01,-296.31 286.4,-302.31"/>
</g>
<!-- Node6 -->
<g id="node6" class="node">
<title>Node6</title>
<g id="a_node6"><a xlink:href="neural__layer__args_8c.html#ac617200b2ee8792381b8297d45fee174" target="_top" xlink:title="Prints layer evolutionary operator parameters.">
<polygon fill="none" stroke="black" points="296,-266.5 296,-285.5 403,-285.5 403,-266.5 296,-266.5"/>
<text text-anchor="middle" x="349.5" y="-273.5" font-family="Helvetica,sans-Serif" font-size="10.00">layer_args_print_evo</text>
</a>
</g>
</g>
<!-- Node3&#45;&gt;Node6 -->
<g id="edge5" class="edge">
<title>Node3&#45;&gt;Node6</title>
<path fill="none" stroke="midnightblue" d="M232.26,-171.63C237.61,-174.08 242.71,-177.16 247,-181 274.84,-205.94 254.54,-232.77 283,-257 285.01,-258.71 287.17,-260.27 289.43,-261.69"/>
<polygon fill="midnightblue" stroke="midnightblue" points="288.12,-264.95 298.61,-266.49 291.37,-258.75 288.12,-264.95"/>
</g>
<!-- Node7 -->
<g id="node7" class="node">
<title>Node7</title>
<g id="a_node7"><a xlink:href="neural__layer__args_8c.html#acead84ca91e1c410f24bc8b60517415b" target="_top" xlink:title="Prints layer input parameters.">
<polygon fill="none" stroke="black" points="291,-228.5 291,-247.5 408,-247.5 408,-228.5 291,-228.5"/>
<text text-anchor="middle" x="349.5" y="-235.5" font-family="Helvetica,sans-Serif" font-size="10.00">layer_args_print_inputs</text>
</a>
</g>
</g>
<!-- Node3&#45;&gt;Node7 -->
<g id="edge6" class="edge">
<title>Node3&#45;&gt;Node7</title>
<path fill="none" stroke="midnightblue" d="M227.79,-171.56C234.44,-174.1 241.14,-177.22 247,-181 266.55,-193.6 263.13,-206.89 283,-219 286.43,-221.09 290.1,-222.96 293.88,-224.63"/>
<polygon fill="midnightblue" stroke="midnightblue" points="292.88,-227.99 303.46,-228.39 295.43,-221.48 292.88,-227.99"/>
</g>
<!-- Node9 -->
<g id="node9" class="node">
<title>Node9</title>
<g id="a_node9"><a xlink:href="neural__layer__args_8c.html#a78d120a156a1991d06ee0297f0beb0c7" target="_top" xlink:title="Prints layer.">
<polygon fill="none" stroke="black" points="292.5,-190.5 292.5,-209.5 406.5,-209.5 406.5,-190.5 292.5,-190.5"/>
<text text-anchor="middle" x="349.5" y="-197.5" font-family="Helvetica,sans-Serif" font-size="10.00">layer_args_print_scale</text>
</a>
</g>
</g>
<!-- Node3&#45;&gt;Node9 -->
<g id="edge8" class="edge">
<title>Node3&#45;&gt;Node9</title>
<path fill="none" stroke="midnightblue" d="M231.49,-171.59C252.14,-176.6 277.61,-182.79 299.51,-188.11"/>
<polygon fill="midnightblue" stroke="midnightblue" points="298.75,-191.52 309.29,-190.48 300.4,-184.72 298.75,-191.52"/>
</g>
<!-- Node10 -->
<g id="node10" class="node">
<title>Node10</title>
<g id="a_node10"><a xlink:href="neural__layer__args_8c.html#add3ff102fe13b879aa177e001e65a86c" target="_top" xlink:title="Prints layer gradient descent parameters.">
<polygon fill="none" stroke="black" points="296,-152.5 296,-171.5 403,-171.5 403,-152.5 296,-152.5"/>
<text text-anchor="middle" x="349.5" y="-159.5" font-family="Helvetica,sans-Serif" font-size="10.00">layer_args_print_sgd</text>
</a>
</g>
</g>
<!-- Node3&#45;&gt;Node10 -->
<g id="edge9" class="edge">
<title>Node3&#45;&gt;Node10</title>
<path fill="none" stroke="midnightblue" d="M234.35,-162C250.17,-162 268.48,-162 285.75,-162"/>
<polygon fill="midnightblue" stroke="midnightblue" points="285.76,-165.5 295.76,-162 285.76,-158.5 285.76,-165.5"/>
</g>
<!-- Node11 -->
<g id="node11" class="node">
<title>Node11</title>
<g id="a_node11"><a xlink:href="neural__layer_8c.html#a0e2222a263f09abb981bc7273cd88d7e" target="_top" xlink:title="Returns a string representation of a layer type from an integer.">
<polygon fill="none" stroke="black" points="296,-114.5 296,-133.5 403,-133.5 403,-114.5 296,-114.5"/>
<text text-anchor="middle" x="349.5" y="-121.5" font-family="Helvetica,sans-Serif" font-size="10.00">layer_type_as_string</text>
</a>
</g>
</g>
<!-- Node3&#45;&gt;Node11 -->
<g id="edge10" class="edge">
<title>Node3&#45;&gt;Node11</title>
<path fill="none" stroke="midnightblue" d="M231.49,-152.41C252.14,-147.4 277.61,-141.21 299.51,-135.89"/>
<polygon fill="midnightblue" stroke="midnightblue" points="300.4,-139.28 309.29,-133.52 298.75,-132.48 300.4,-139.28"/>
</g>
<!-- Node12 -->
<g id="node12" class="node">
<title>Node12</title>
<g id="a_node12"><a xlink:href="neural_8c.html#a6466387dd7c533e0f15da4c2127bfd79" target="_top" xlink:title="Initialises and creates a new neural network from a parameter list.">
<polygon fill="none" stroke="black" points="312,-76.5 312,-95.5 387,-95.5 387,-76.5 312,-76.5"/>
<text text-anchor="middle" x="349.5" y="-83.5" font-family="Helvetica,sans-Serif" font-size="10.00">neural_create</text>
</a>
</g>
</g>
<!-- Node3&#45;&gt;Node12 -->
<g id="edge11" class="edge">
<title>Node3&#45;&gt;Node12</title>
<path fill="none" stroke="midnightblue" d="M204.62,-152.5C221.63,-140.07 253.22,-118.33 283,-105 289.1,-102.27 295.69,-99.82 302.27,-97.66"/>
<polygon fill="midnightblue" stroke="midnightblue" points="303.3,-101 311.82,-94.7 301.23,-94.31 303.3,-101"/>
</g>
<!-- Node16 -->
<g id="node16" class="node">
<title>Node16</title>
<g id="a_node16"><a xlink:href="neural_8c.html#ad70aee7c40f698d4be45e3d419051c2f" target="_top" xlink:title="Initialises an empty neural network.">
<polygon fill="none" stroke="black" points="481,-38.5 481,-57.5 542,-57.5 542,-38.5 481,-38.5"/>
<text text-anchor="middle" x="511.5" y="-45.5" font-family="Helvetica,sans-Serif" font-size="10.00">neural_init</text>
</a>
</g>
</g>
<!-- Node3&#45;&gt;Node16 -->
<g id="edge20" class="edge">
<title>Node3&#45;&gt;Node16</title>
<path fill="none" stroke="midnightblue" d="M197.8,-152.27C210.39,-132.19 242.39,-86.37 283,-67 343.53,-38.13 423.43,-39.12 470.65,-43.11"/>
<polygon fill="midnightblue" stroke="midnightblue" points="470.5,-46.61 480.78,-44.06 471.15,-39.65 470.5,-46.61"/>
</g>
<!-- Node19 -->
<g id="node19" class="node">
<title>Node19</title>
<g id="a_node19"><a xlink:href="neural_8c.html#a9c3e1da0425d0fc17daa12c21e4799ca" target="_top" xlink:title="Frees a neural network.">
<polygon fill="none" stroke="black" points="317,-0.5 317,-19.5 382,-19.5 382,-0.5 317,-0.5"/>
<text text-anchor="middle" x="349.5" y="-7.5" font-family="Helvetica,sans-Serif" font-size="10.00">neural_free</text>
</a>
</g>
</g>
<!-- Node3&#45;&gt;Node19 -->
<g id="edge18" class="edge">
<title>Node3&#45;&gt;Node19</title>
<path fill="none" stroke="midnightblue" d="M196.27,-152.48C207.25,-128.99 238.79,-67.75 283,-34 290.2,-28.5 298.79,-24.17 307.34,-20.78"/>
<polygon fill="midnightblue" stroke="midnightblue" points="308.67,-24.03 316.9,-17.36 306.31,-17.44 308.67,-24.03"/>
</g>
<!-- Node5 -->
<g id="node5" class="node">
<title>Node5</title>
<g id="a_node5"><a xlink:href="neural__activations_8c.html#a429f5b4427682cb174e3d4d56f181a22" target="_top" xlink:title="Returns the name of a specified activation function.">
<polygon fill="none" stroke="black" points="452,-304.5 452,-323.5 571,-323.5 571,-304.5 452,-304.5"/>
<text text-anchor="middle" x="511.5" y="-311.5" font-family="Helvetica,sans-Serif" font-size="10.00">neural_activation_string</text>
</a>
</g>
</g>
<!-- Node4&#45;&gt;Node5 -->
<g id="edge4" class="edge">
<title>Node4&#45;&gt;Node5</title>
<path fill="none" stroke="midnightblue" d="M416.04,-314C424.51,-314 433.2,-314 441.71,-314"/>
<polygon fill="midnightblue" stroke="midnightblue" points="441.99,-317.5 451.99,-314 441.99,-310.5 441.99,-317.5"/>
</g>
<!-- Node8 -->
<g id="node8" class="node">
<title>Node8</title>
<g id="a_node8"><a xlink:href="neural__layer_8c.html#ad1b7188119d0d96791ee0d87c105896a" target="_top" xlink:title="Returns a whether a layer type expects images as input.">
<polygon fill="none" stroke="black" points="453.5,-228.5 453.5,-247.5 569.5,-247.5 569.5,-228.5 453.5,-228.5"/>
<text text-anchor="middle" x="511.5" y="-235.5" font-family="Helvetica,sans-Serif" font-size="10.00">layer_receives_images</text>
</a>
</g>
</g>
<!-- Node7&#45;&gt;Node8 -->
<g id="edge7" class="edge">
<title>Node7&#45;&gt;Node8</title>
<path fill="none" stroke="midnightblue" d="M408.26,-238C419.62,-238 431.62,-238 443.25,-238"/>
<polygon fill="midnightblue" stroke="midnightblue" points="443.36,-241.5 453.36,-238 443.36,-234.5 443.36,-241.5"/>
</g>
<!-- Node13 -->
<g id="node13" class="node">
<title>Node13</title>
<g id="a_node13"><a xlink:href="neural__layer_8h.html#a33f40237cec8d79bf6325b78d1f955fe" target="_top" xlink:title="Creates and initialises a new layer.">
<polygon fill="none" stroke="black" points="483.5,-114.5 483.5,-133.5 539.5,-133.5 539.5,-114.5 483.5,-114.5"/>
<text text-anchor="middle" x="511.5" y="-121.5" font-family="Helvetica,sans-Serif" font-size="10.00">layer_init</text>
</a>
</g>
</g>
<!-- Node12&#45;&gt;Node13 -->
<g id="edge12" class="edge">
<title>Node12&#45;&gt;Node13</title>
<path fill="none" stroke="midnightblue" d="M387.21,-94.72C413.11,-100.87 447.67,-109.08 473.61,-115.24"/>
<polygon fill="midnightblue" stroke="midnightblue" points="472.91,-118.67 483.45,-117.57 474.53,-111.86 472.91,-118.67"/>
</g>
<!-- Node12&#45;&gt;Node16 -->
<g id="edge15" class="edge">
<title>Node12&#45;&gt;Node16</title>
<path fill="none" stroke="midnightblue" d="M387.21,-77.28C412.29,-71.32 445.51,-63.44 471.14,-57.35"/>
<polygon fill="midnightblue" stroke="midnightblue" points="471.99,-60.74 480.91,-55.03 470.37,-53.93 471.99,-60.74"/>
</g>
<!-- Node17 -->
<g id="node17" class="node">
<title>Node17</title>
<g id="a_node17"><a xlink:href="neural_8c.html#a1c1c06446fc719b8293aade2ded8433c" target="_top" xlink:title="Inserts a layer at the head of a neural network.">
<polygon fill="none" stroke="black" points="477,-76.5 477,-95.5 546,-95.5 546,-76.5 477,-76.5"/>
<text text-anchor="middle" x="511.5" y="-83.5" font-family="Helvetica,sans-Serif" font-size="10.00">neural_push</text>
</a>
</g>
</g>
<!-- Node12&#45;&gt;Node17 -->
<g id="edge16" class="edge">
<title>Node12&#45;&gt;Node17</title>
<path fill="none" stroke="midnightblue" d="M387.21,-86C410.86,-86 441.74,-86 466.68,-86"/>
<polygon fill="midnightblue" stroke="midnightblue" points="466.96,-89.5 476.96,-86 466.96,-82.5 466.96,-89.5"/>
</g>
<!-- Node14 -->
<g id="node14" class="node">
<title>Node14</title>
<g id="a_node14"><a xlink:href="neural__layer_8h.html#a21a8acbaa483c46984c4f5f20d4edf95" target="_top" xlink:title="Initialises a layer to default values.">
<polygon fill="none" stroke="black" points="607.5,-152.5 607.5,-171.5 684.5,-171.5 684.5,-152.5 607.5,-152.5"/>
<text text-anchor="middle" x="646" y="-159.5" font-family="Helvetica,sans-Serif" font-size="10.00">layer_defaults</text>
</a>
</g>
</g>
<!-- Node13&#45;&gt;Node14 -->
<g id="edge13" class="edge">
<title>Node13&#45;&gt;Node14</title>
<path fill="none" stroke="midnightblue" d="M539.63,-131.78C557.59,-136.93 581.52,-143.8 602.04,-149.68"/>
<polygon fill="midnightblue" stroke="midnightblue" points="601.22,-153.09 611.8,-152.48 603.15,-146.36 601.22,-153.09"/>
</g>
<!-- Node15 -->
<g id="node15" class="node">
<title>Node15</title>
<g id="a_node15"><a xlink:href="neural__layer_8h.html#a786726dce503a14b3bdd88b1ab5c356f" target="_top" xlink:title="Sets a neural network layer&#39;s functions to the implementations.">
<polygon fill="none" stroke="black" points="607,-114.5 607,-133.5 685,-133.5 685,-114.5 607,-114.5"/>
<text text-anchor="middle" x="646" y="-121.5" font-family="Helvetica,sans-Serif" font-size="10.00">layer_set_vptr</text>
</a>
</g>
</g>
<!-- Node13&#45;&gt;Node15 -->
<g id="edge14" class="edge">
<title>Node13&#45;&gt;Node15</title>
<path fill="none" stroke="midnightblue" d="M539.63,-124C556.06,-124 577.49,-124 596.73,-124"/>
<polygon fill="midnightblue" stroke="midnightblue" points="596.85,-127.5 606.85,-124 596.85,-120.5 596.85,-127.5"/>
</g>
<!-- Node18 -->
<g id="node18" class="node">
<title>Node18</title>
<g id="a_node18"><a xlink:href="neural_8c.html#afab574137fbf9da9a286d020917c8295" target="_top" xlink:title="Inserts a layer into a neural network.">
<polygon fill="none" stroke="black" points="610,-76.5 610,-95.5 682,-95.5 682,-76.5 610,-76.5"/>
<text text-anchor="middle" x="646" y="-83.5" font-family="Helvetica,sans-Serif" font-size="10.00">neural_insert</text>
</a>
</g>
</g>
<!-- Node17&#45;&gt;Node18 -->
<g id="edge17" class="edge">
<title>Node17&#45;&gt;Node18</title>
<path fill="none" stroke="midnightblue" d="M546.28,-86C562.56,-86 582.31,-86 599.86,-86"/>
<polygon fill="midnightblue" stroke="midnightblue" points="599.9,-89.5 609.9,-86 599.9,-82.5 599.9,-89.5"/>
</g>
<!-- Node20 -->
<g id="node20" class="node">
<title>Node20</title>
<g id="a_node20"><a xlink:href="neural__layer_8h.html#a5ea2541eb1936ed851001c4a8b99b08f" target="_top" xlink:title="Frees the memory used by the layer.">
<polygon fill="none" stroke="black" points="482,-0.5 482,-19.5 541,-19.5 541,-0.5 482,-0.5"/>
<text text-anchor="middle" x="511.5" y="-7.5" font-family="Helvetica,sans-Serif" font-size="10.00">layer_free</text>
</a>
</g>
</g>
<!-- Node19&#45;&gt;Node20 -->
<g id="edge19" class="edge">
<title>Node19&#45;&gt;Node20</title>
<path fill="none" stroke="midnightblue" d="M382.11,-10C407.87,-10 444.36,-10 471.85,-10"/>
<polygon fill="midnightblue" stroke="midnightblue" points="471.91,-13.5 481.91,-10 471.91,-6.5 471.91,-13.5"/>
</g>
</g>
</svg>
