<?xml version="1.0" encoding="UTF-8" standalone="no"?>
<!DOCTYPE svg PUBLIC "-//W3C//DTD SVG 1.1//EN"
 "http://www.w3.org/Graphics/SVG/1.1/DTD/svg11.dtd">
<!-- Generated by graphviz version 2.43.0 (0)
 -->
<!-- Title: act_free Pages: 1 -->
<svg width="1032pt" height="503pt"
 viewBox="0.00 0.00 1032.00 503.00" xmlns="http://www.w3.org/2000/svg" xmlns:xlink="http://www.w3.org/1999/xlink">
<g id="graph0" class="graph" transform="scale(1 1) rotate(0) translate(4 499)">
<title>act_free</title>
<!-- Node1 -->
<g id="node1" class="node">
<title>Node1</title>
<g id="a_node1"><a xlink:title="Frees the memory used by the classifier action.">
<polygon fill="#bfbfbf" stroke="black" points="972,-290.5 972,-309.5 1024,-309.5 1024,-290.5 972,-290.5"/>
<text text-anchor="middle" x="998" y="-297.5" font-family="Helvetica,sans-Serif" font-size="10.00">act_free</text>
</a>
</g>
</g>
<!-- Node2 -->
<g id="node2" class="node">
<title>Node2</title>
<g id="a_node2"><a xlink:href="cl_8h.html#ac45092c0e43651e8eeaa739766e3f069" target="_top" xlink:title="Frees the memory used by a classifier.">
<polygon fill="none" stroke="black" points="890,-290.5 890,-309.5 936,-309.5 936,-290.5 890,-290.5"/>
<text text-anchor="middle" x="913" y="-297.5" font-family="Helvetica,sans-Serif" font-size="10.00">cl_free</text>
</a>
</g>
</g>
<!-- Node1&#45;&gt;Node2 -->
<g id="edge1" class="edge">
<title>Node1&#45;&gt;Node2</title>
<path fill="none" stroke="midnightblue" d="M961.43,-300C952.83,-300 943.88,-300 936.11,-300"/>
<polygon fill="midnightblue" stroke="midnightblue" points="961.65,-303.5 971.65,-300 961.65,-296.5 961.65,-303.5"/>
</g>
<!-- Node3 -->
<g id="node3" class="node">
<title>Node3</title>
<g id="a_node3"><a xlink:href="clset_8h.html#a236baf24659360891f944761f88a30f4" target="_top" xlink:title="Frees the set and the classifiers.">
<polygon fill="none" stroke="black" points="607,-328.5 607,-347.5 662,-347.5 662,-328.5 607,-328.5"/>
<text text-anchor="middle" x="634.5" y="-335.5" font-family="Helvetica,sans-Serif" font-size="10.00">clset_kill</text>
</a>
</g>
</g>
<!-- Node2&#45;&gt;Node3 -->
<g id="edge2" class="edge">
<title>Node2&#45;&gt;Node3</title>
<path fill="none" stroke="midnightblue" d="M880.26,-311.85C871.82,-314.6 862.66,-317.23 854,-319 785.73,-332.96 703.41,-336.67 662.01,-337.65"/>
<polygon fill="midnightblue" stroke="midnightblue" points="881.4,-315.16 889.74,-308.62 879.14,-308.53 881.4,-315.16"/>
</g>
<!-- Node27 -->
<g id="node27" class="node">
<title>Node27</title>
<g id="a_node27"><a xlink:href="ea_8c.html#a2a3b0de53f9d67b5025957b59b8fc9a3" target="_top" xlink:title="Adds offspring to the population.">
<polygon fill="none" stroke="black" points="698,-261.5 698,-280.5 746,-280.5 746,-261.5 698,-261.5"/>
<text text-anchor="middle" x="722" y="-268.5" font-family="Helvetica,sans-Serif" font-size="10.00">ea_add</text>
</a>
</g>
</g>
<!-- Node2&#45;&gt;Node27 -->
<g id="edge36" class="edge">
<title>Node2&#45;&gt;Node27</title>
<path fill="none" stroke="midnightblue" d="M880.27,-288.08C871.84,-285.34 862.66,-282.72 854,-281 816.86,-273.61 772.81,-271.6 746.42,-271.1"/>
<polygon fill="midnightblue" stroke="midnightblue" points="879.16,-291.4 889.75,-291.32 881.42,-284.78 879.16,-291.4"/>
</g>
<!-- Node31 -->
<g id="node31" class="node">
<title>Node31</title>
<g id="a_node31"><a xlink:href="ea_8c.html#ac3134366cd64189d6386a3cf014987b7" target="_top" xlink:title="Performs evolutionary algorithm subsumption.">
<polygon fill="none" stroke="black" points="782,-290.5 782,-309.5 854,-309.5 854,-290.5 782,-290.5"/>
<text text-anchor="middle" x="818" y="-297.5" font-family="Helvetica,sans-Serif" font-size="10.00">ea_subsume</text>
</a>
</g>
</g>
<!-- Node2&#45;&gt;Node31 -->
<g id="edge44" class="edge">
<title>Node2&#45;&gt;Node31</title>
<path fill="none" stroke="midnightblue" d="M879.95,-300C871.69,-300 862.75,-300 854.33,-300"/>
<polygon fill="midnightblue" stroke="midnightblue" points="879.96,-303.5 889.96,-300 879.96,-296.5 879.96,-303.5"/>
</g>
<!-- Node4 -->
<g id="node4" class="node">
<title>Node4</title>
<g id="a_node4"><a xlink:href="xcs__rl_8h.html#aacfd74f90f7b56679f88ff944c31835a" target="_top" xlink:title="Frees memory used by a reinforcement learning trial.">
<polygon fill="none" stroke="black" points="475.5,-323.5 475.5,-342.5 560.5,-342.5 560.5,-323.5 475.5,-323.5"/>
<text text-anchor="middle" x="518" y="-330.5" font-family="Helvetica,sans-Serif" font-size="10.00">xcs_rl_end_trial</text>
</a>
</g>
</g>
<!-- Node3&#45;&gt;Node4 -->
<g id="edge3" class="edge">
<title>Node3&#45;&gt;Node4</title>
<path fill="none" stroke="midnightblue" d="M596.79,-336.4C585.28,-335.89 572.49,-335.34 560.66,-334.82"/>
<polygon fill="midnightblue" stroke="midnightblue" points="596.8,-339.9 606.94,-336.84 597.11,-332.91 596.8,-339.9"/>
</g>
<!-- Node12 -->
<g id="node12" class="node">
<title>Node12</title>
<g id="a_node12"><a xlink:href="xcs__supervised_8c.html#a836aae9ec3055625d1c464d41746a7b9" target="_top" xlink:title="Executes a single XCSF trial.">
<polygon fill="none" stroke="black" points="465,-188.5 465,-207.5 571,-207.5 571,-188.5 465,-188.5"/>
<text text-anchor="middle" x="518" y="-195.5" font-family="Helvetica,sans-Serif" font-size="10.00">xcs_supervised_trial</text>
</a>
</g>
</g>
<!-- Node3&#45;&gt;Node12 -->
<g id="edge12" class="edge">
<title>Node3&#45;&gt;Node12</title>
<path fill="none" stroke="midnightblue" d="M622.98,-319.42C618.04,-310.57 612.11,-299.79 607,-290 590.25,-257.93 597.92,-241.16 571,-217 566.71,-213.15 561.57,-210.06 556.22,-207.58"/>
<polygon fill="midnightblue" stroke="midnightblue" points="619.93,-321.14 627.88,-328.14 626.04,-317.71 619.93,-321.14"/>
</g>
<!-- Node20 -->
<g id="node20" class="node">
<title>Node20</title>
<g id="a_node20"><a xlink:href="xcsf_8h.html#aeeb273a5ee6d1e2419ab8a95d76d860b" target="_top" xlink:title="Frees XCSF population sets.">
<polygon fill="none" stroke="black" points="489.5,-226.5 489.5,-245.5 546.5,-245.5 546.5,-226.5 489.5,-226.5"/>
<text text-anchor="middle" x="518" y="-233.5" font-family="Helvetica,sans-Serif" font-size="10.00">xcsf_free</text>
</a>
</g>
</g>
<!-- Node3&#45;&gt;Node20 -->
<g id="edge24" class="edge">
<title>Node3&#45;&gt;Node20</title>
<path fill="none" stroke="midnightblue" d="M623.72,-319.36C613.05,-300.68 594.34,-272.3 571,-255 563.82,-249.68 554.99,-245.71 546.66,-242.83"/>
<polygon fill="midnightblue" stroke="midnightblue" points="620.78,-321.29 628.67,-328.36 626.92,-317.91 620.78,-321.29"/>
</g>
<!-- Node21 -->
<g id="node21" class="node">
<title>Node21</title>
<g id="a_node21"><a xlink:href="xcsf_8h.html#ada5fb9a2a1e9225aad40a36614fc0de7" target="_top" xlink:title="Reads the state of XCSF from a file.">
<polygon fill="none" stroke="black" points="340,-361.5 340,-380.5 399,-380.5 399,-361.5 340,-361.5"/>
<text text-anchor="middle" x="369.5" y="-368.5" font-family="Helvetica,sans-Serif" font-size="10.00">xcsf_load</text>
</a>
</g>
</g>
<!-- Node3&#45;&gt;Node21 -->
<g id="edge26" class="edge">
<title>Node3&#45;&gt;Node21</title>
<path fill="none" stroke="midnightblue" d="M596.89,-347.01C588.43,-348.87 579.43,-350.66 571,-352 510.22,-361.65 438.25,-367.01 399.2,-369.42"/>
<polygon fill="midnightblue" stroke="midnightblue" points="597.9,-350.37 606.88,-344.74 596.35,-343.54 597.9,-350.37"/>
</g>
<!-- Node23 -->
<g id="node23" class="node">
<title>Node23</title>
<g id="a_node23"><a xlink:href="xcsf_8h.html#a58a321a976cf6a9bb01979d94703fa27" target="_top" xlink:title="Retrieves the previously stored population.">
<polygon fill="none" stroke="black" points="469.5,-465.5 469.5,-484.5 566.5,-484.5 566.5,-465.5 469.5,-465.5"/>
<text text-anchor="middle" x="518" y="-472.5" font-family="Helvetica,sans-Serif" font-size="10.00">xcsf_retrieve_pset</text>
</a>
</g>
</g>
<!-- Node3&#45;&gt;Node23 -->
<g id="edge30" class="edge">
<title>Node3&#45;&gt;Node23</title>
<path fill="none" stroke="midnightblue" d="M626.36,-357.17C616.79,-380.76 597.84,-420.87 571,-447 563.07,-454.73 552.57,-460.92 543.09,-465.49"/>
<polygon fill="midnightblue" stroke="midnightblue" points="629.72,-358.2 630.09,-347.61 623.2,-355.65 629.72,-358.2"/>
</g>
<!-- Node25 -->
<g id="node25" class="node">
<title>Node25</title>
<g id="a_node25"><a xlink:href="xcsf_8h.html#a10d0342ac640d2cd32e9cb95d0cd3bbe" target="_top" xlink:title="Stores the current population.">
<polygon fill="none" stroke="black" points="475,-418.5 475,-437.5 561,-437.5 561,-418.5 475,-418.5"/>
<text text-anchor="middle" x="518" y="-425.5" font-family="Helvetica,sans-Serif" font-size="10.00">xcsf_store_pset</text>
</a>
</g>
</g>
<!-- Node3&#45;&gt;Node25 -->
<g id="edge33" class="edge">
<title>Node3&#45;&gt;Node25</title>
<path fill="none" stroke="midnightblue" d="M613.22,-353.94C589.42,-372.65 550.74,-403.05 531.17,-418.44"/>
<polygon fill="midnightblue" stroke="midnightblue" points="615.55,-356.56 621.25,-347.63 611.22,-351.06 615.55,-356.56"/>
</g>
<!-- Node5 -->
<g id="node5" class="node">
<title>Node5</title>
<g id="a_node5"><a xlink:href="classXCS.html#a173bb0ba504bc7e97cda5841a6534944" target="_top" xlink:title="Frees memory used by a reinforcement learning trial.">
<polygon fill="none" stroke="black" points="171.5,-399.5 171.5,-418.5 251.5,-418.5 251.5,-399.5 171.5,-399.5"/>
<text text-anchor="middle" x="211.5" y="-406.5" font-family="Helvetica,sans-Serif" font-size="10.00">XCS::end_trial</text>
</a>
</g>
</g>
<!-- Node4&#45;&gt;Node5 -->
<g id="edge4" class="edge">
<title>Node4&#45;&gt;Node5</title>
<path fill="none" stroke="midnightblue" d="M498.04,-349.24C481.14,-362.7 455.09,-381.03 429,-390 369.59,-410.43 295.88,-412.32 251.6,-411.15"/>
<polygon fill="midnightblue" stroke="midnightblue" points="500.49,-351.76 506,-342.72 496.05,-346.35 500.49,-351.76"/>
</g>
<!-- Node7 -->
<g id="node7" class="node">
<title>Node7</title>
<g id="a_node7"><a xlink:href="xcs__rl_8h.html#a391abf9bd2540ff284f822b30899c438" target="_top" xlink:title="Creates and updates an action set for a given (state, action, reward).">
<polygon fill="none" stroke="black" points="341.5,-323.5 341.5,-342.5 397.5,-342.5 397.5,-323.5 341.5,-323.5"/>
<text text-anchor="middle" x="369.5" y="-330.5" font-family="Helvetica,sans-Serif" font-size="10.00">xcs_rl_fit</text>
</a>
</g>
</g>
<!-- Node4&#45;&gt;Node7 -->
<g id="edge6" class="edge">
<title>Node4&#45;&gt;Node7</title>
<path fill="none" stroke="midnightblue" d="M465.22,-333C442.49,-333 416.74,-333 397.84,-333"/>
<polygon fill="midnightblue" stroke="midnightblue" points="465.41,-336.5 475.41,-333 465.41,-329.5 465.41,-336.5"/>
</g>
<!-- Node9 -->
<g id="node9" class="node">
<title>Node9</title>
<g id="a_node9"><a xlink:href="xcs__rl_8c.html#a8171cd945b56ed0a4563f9dcd89438e3" target="_top" xlink:title="Executes a reinforcement learning trial using a built&#45;in environment.">
<polygon fill="none" stroke="black" points="337.5,-285.5 337.5,-304.5 401.5,-304.5 401.5,-285.5 337.5,-285.5"/>
<text text-anchor="middle" x="369.5" y="-292.5" font-family="Helvetica,sans-Serif" font-size="10.00">xcs_rl_trial</text>
</a>
</g>
</g>
<!-- Node4&#45;&gt;Node9 -->
<g id="edge9" class="edge">
<title>Node4&#45;&gt;Node9</title>
<path fill="none" stroke="midnightblue" d="M470.34,-320.9C447.85,-315.06 421.5,-308.23 401.51,-303.04"/>
<polygon fill="midnightblue" stroke="midnightblue" points="469.47,-324.29 480.03,-323.41 471.23,-317.51 469.47,-324.29"/>
</g>
<!-- Node6 -->
<g id="node6" class="node">
<title>Node6</title>
<g id="a_node6"><a xlink:href="pybind__wrapper_8cpp.html#a172daba0778fe2bd38d723d5f52a23d5" target="_top" xlink:title=" ">
<polygon fill="none" stroke="black" points="0,-361.5 0,-380.5 113,-380.5 113,-361.5 0,-361.5"/>
<text text-anchor="middle" x="56.5" y="-368.5" font-family="Helvetica,sans-Serif" font-size="10.00">PYBIND11_MODULE</text>
</a>
</g>
</g>
<!-- Node5&#45;&gt;Node6 -->
<g id="edge5" class="edge">
<title>Node5&#45;&gt;Node6</title>
<path fill="none" stroke="midnightblue" d="M162.02,-396.96C140.65,-391.65 115.89,-385.5 95.83,-380.52"/>
<polygon fill="midnightblue" stroke="midnightblue" points="161.34,-400.4 171.89,-399.41 163.03,-393.6 161.34,-400.4"/>
</g>
<!-- Node8 -->
<g id="node8" class="node">
<title>Node8</title>
<g id="a_node8"><a xlink:href="classXCS.html#ac12768292958a714a726b1c029e9616a" target="_top" xlink:title="Creates/updates an action set for a given (state, action, reward).">
<polygon fill="none" stroke="black" points="185.5,-323.5 185.5,-342.5 237.5,-342.5 237.5,-323.5 185.5,-323.5"/>
<text text-anchor="middle" x="211.5" y="-330.5" font-family="Helvetica,sans-Serif" font-size="10.00">XCS::fit</text>
</a>
</g>
</g>
<!-- Node7&#45;&gt;Node8 -->
<g id="edge7" class="edge">
<title>Node7&#45;&gt;Node8</title>
<path fill="none" stroke="midnightblue" d="M331.17,-333C302.2,-333 262.85,-333 237.56,-333"/>
<polygon fill="midnightblue" stroke="midnightblue" points="331.33,-336.5 341.33,-333 331.33,-329.5 331.33,-336.5"/>
</g>
<!-- Node8&#45;&gt;Node6 -->
<g id="edge8" class="edge">
<title>Node8&#45;&gt;Node6</title>
<path fill="none" stroke="midnightblue" d="M175.26,-341.75C151.57,-347.64 120.35,-355.39 96,-361.44"/>
<polygon fill="midnightblue" stroke="midnightblue" points="176.37,-345.08 185.24,-339.27 174.69,-338.29 176.37,-345.08"/>
</g>
<!-- Node10 -->
<g id="node10" class="node">
<title>Node10</title>
<g id="a_node10"><a xlink:href="xcs__rl_8h.html#adb4c284d19eeaed2b4a629f9b939ed20" target="_top" xlink:title="Executes a reinforcement learning experiment.">
<polygon fill="none" stroke="black" points="179.5,-171.5 179.5,-190.5 243.5,-190.5 243.5,-171.5 179.5,-171.5"/>
<text text-anchor="middle" x="211.5" y="-178.5" font-family="Helvetica,sans-Serif" font-size="10.00">xcs_rl_exp</text>
</a>
</g>
</g>
<!-- Node9&#45;&gt;Node10 -->
<g id="edge10" class="edge">
<title>Node9&#45;&gt;Node10</title>
<path fill="none" stroke="midnightblue" d="M355.31,-277.2C338.63,-255.9 307.97,-220.54 274,-200 264.82,-194.45 253.88,-190.39 243.78,-187.48"/>
<polygon fill="midnightblue" stroke="midnightblue" points="352.72,-279.57 361.57,-285.39 358.28,-275.32 352.72,-279.57"/>
</g>
<!-- Node11 -->
<g id="node11" class="node">
<title>Node11</title>
<g id="a_node11"><a xlink:href="main_8c.html#a3c04138a5bfe5d72780bb7e82a18e627" target="_top" xlink:title=" ">
<polygon fill="none" stroke="black" points="37.5,-152.5 37.5,-171.5 75.5,-171.5 75.5,-152.5 37.5,-152.5"/>
<text text-anchor="middle" x="56.5" y="-159.5" font-family="Helvetica,sans-Serif" font-size="10.00">main</text>
</a>
</g>
</g>
<!-- Node10&#45;&gt;Node11 -->
<g id="edge11" class="edge">
<title>Node10&#45;&gt;Node11</title>
<path fill="none" stroke="midnightblue" d="M169.24,-175.88C138.78,-172.09 98.79,-167.13 75.83,-164.28"/>
<polygon fill="midnightblue" stroke="midnightblue" points="168.81,-179.35 179.17,-177.11 169.68,-172.4 168.81,-179.35"/>
</g>
<!-- Node13 -->
<g id="node13" class="node">
<title>Node13</title>
<g id="a_node13"><a xlink:href="xcs__supervised_8h.html#aac1347b7b83576d581a1b725b4c84e56" target="_top" xlink:title="Executes MAX_TRIALS number of XCSF learning iterations using the training data and test iterations us...">
<polygon fill="none" stroke="black" points="320.5,-95.5 320.5,-114.5 418.5,-114.5 418.5,-95.5 320.5,-95.5"/>
<text text-anchor="middle" x="369.5" y="-102.5" font-family="Helvetica,sans-Serif" font-size="10.00">xcs_supervised_fit</text>
</a>
</g>
</g>
<!-- Node12&#45;&gt;Node13 -->
<g id="edge13" class="edge">
<title>Node12&#45;&gt;Node13</title>
<path fill="none" stroke="midnightblue" d="M499.32,-181.73C482.27,-166.64 455.24,-144.28 429,-129 419.42,-123.42 408.29,-118.51 398.33,-114.61"/>
<polygon fill="midnightblue" stroke="midnightblue" points="497.07,-184.41 506.85,-188.49 501.75,-179.21 497.07,-184.41"/>
</g>
<!-- Node15 -->
<g id="node15" class="node">
<title>Node15</title>
<g id="a_node15"><a xlink:href="xcs__supervised_8h.html#a2dc51452fdb0be0e27fd3ebfe6041474" target="_top" xlink:title="Calculates the XCSF predictions for the provided input.">
<polygon fill="none" stroke="black" points="310,-190.5 310,-209.5 429,-209.5 429,-190.5 310,-190.5"/>
<text text-anchor="middle" x="369.5" y="-197.5" font-family="Helvetica,sans-Serif" font-size="10.00">xcs_supervised_predict</text>
</a>
</g>
</g>
<!-- Node12&#45;&gt;Node15 -->
<g id="edge16" class="edge">
<title>Node12&#45;&gt;Node15</title>
<path fill="none" stroke="midnightblue" d="M454.72,-198.85C446.23,-198.97 437.55,-199.08 429.13,-199.2"/>
<polygon fill="midnightblue" stroke="midnightblue" points="454.99,-202.35 464.94,-198.71 454.89,-195.35 454.99,-202.35"/>
</g>
<!-- Node17 -->
<g id="node17" class="node">
<title>Node17</title>
<g id="a_node17"><a xlink:href="xcs__supervised_8h.html#ae05de18a53511ba46b2a6a733c780580" target="_top" xlink:title="Calculates the XCSF error for the input data.">
<polygon fill="none" stroke="black" points="312.5,-19.5 312.5,-38.5 426.5,-38.5 426.5,-19.5 312.5,-19.5"/>
<text text-anchor="middle" x="369.5" y="-26.5" font-family="Helvetica,sans-Serif" font-size="10.00">xcs_supervised_score</text>
</a>
</g>
</g>
<!-- Node12&#45;&gt;Node17 -->
<g id="edge19" class="edge">
<title>Node12&#45;&gt;Node17</title>
<path fill="none" stroke="midnightblue" d="M510.04,-178.98C497.97,-148.47 470.45,-88.43 429,-53 421.82,-46.87 412.87,-42.14 404.14,-38.58"/>
<polygon fill="midnightblue" stroke="midnightblue" points="506.82,-180.36 513.65,-188.45 513.36,-177.86 506.82,-180.36"/>
</g>
<!-- Node19 -->
<g id="node19" class="node">
<title>Node19</title>
<g id="a_node19"><a xlink:href="xcs__supervised_8h.html#a56ec80025279785376a569ec0130c29f" target="_top" xlink:title="Calculates the XCSF error for a subsample of the input data.">
<polygon fill="none" stroke="black" points="149,-19.5 149,-38.5 274,-38.5 274,-19.5 149,-19.5"/>
<text text-anchor="middle" x="211.5" y="-26.5" font-family="Helvetica,sans-Serif" font-size="10.00">xcs_supervised_score_n</text>
</a>
</g>
</g>
<!-- Node12&#45;&gt;Node19 -->
<g id="edge23" class="edge">
<title>Node12&#45;&gt;Node19</title>
<path fill="none" stroke="midnightblue" d="M507.59,-179.64C493.79,-154.59 465.68,-110.09 429,-86 401.95,-68.24 318.51,-49.47 263.47,-38.52"/>
<polygon fill="midnightblue" stroke="midnightblue" points="504.52,-181.32 512.31,-188.49 510.69,-178.02 504.52,-181.32"/>
</g>
<!-- Node13&#45;&gt;Node11 -->
<g id="edge15" class="edge">
<title>Node13&#45;&gt;Node11</title>
<path fill="none" stroke="midnightblue" d="M331.36,-92.48C286.68,-79.5 210.08,-63.94 149,-86 111.9,-99.4 79.23,-135.11 65.03,-152.38"/>
<polygon fill="midnightblue" stroke="midnightblue" points="330.61,-95.91 341.19,-95.45 332.63,-89.21 330.61,-95.91"/>
</g>
<!-- Node14 -->
<g id="node14" class="node">
<title>Node14</title>
<g id="a_node14"><a xlink:href="classXCS.html#a3f8168ffade2d933d0971625200f1d92" target="_top" xlink:title="Executes MAX_TRIALS number of XCSF learning iterations using the provided training data.">
<polygon fill="none" stroke="black" points="185.5,-95.5 185.5,-114.5 237.5,-114.5 237.5,-95.5 185.5,-95.5"/>
<text text-anchor="middle" x="211.5" y="-102.5" font-family="Helvetica,sans-Serif" font-size="10.00">XCS::fit</text>
</a>
</g>
</g>
<!-- Node13&#45;&gt;Node14 -->
<g id="edge14" class="edge">
<title>Node13&#45;&gt;Node14</title>
<path fill="none" stroke="midnightblue" d="M310.24,-105C285.15,-105 257.13,-105 237.55,-105"/>
<polygon fill="midnightblue" stroke="midnightblue" points="310.42,-108.5 320.42,-105 310.42,-101.5 310.42,-108.5"/>
</g>
<!-- Node16 -->
<g id="node16" class="node">
<title>Node16</title>
<g id="a_node16"><a xlink:href="classXCS.html#a4d7d398d90d5f695fcbfe0fa99354436" target="_top" xlink:title="Returns the XCSF prediction array for the provided input.">
<polygon fill="none" stroke="black" points="175,-209.5 175,-228.5 248,-228.5 248,-209.5 175,-209.5"/>
<text text-anchor="middle" x="211.5" y="-216.5" font-family="Helvetica,sans-Serif" font-size="10.00">XCS::predict</text>
</a>
</g>
</g>
<!-- Node15&#45;&gt;Node16 -->
<g id="edge17" class="edge">
<title>Node15&#45;&gt;Node16</title>
<path fill="none" stroke="midnightblue" d="M299.62,-208.39C281.88,-210.55 263.51,-212.79 248.23,-214.65"/>
<polygon fill="midnightblue" stroke="midnightblue" points="300.46,-211.81 309.97,-207.13 299.62,-204.86 300.46,-211.81"/>
</g>
<!-- Node16&#45;&gt;Node6 -->
<g id="edge18" class="edge">
<title>Node16&#45;&gt;Node6</title>
<path fill="none" stroke="midnightblue" d="M192.44,-235.25C180.05,-246.51 163.32,-261.95 149,-276 117.94,-306.47 82.58,-344.04 66.42,-361.39"/>
<polygon fill="midnightblue" stroke="midnightblue" points="194.82,-237.81 199.88,-228.5 190.12,-232.62 194.82,-237.81"/>
</g>
<!-- Node18 -->
<g id="node18" class="node">
<title>Node18</title>
<g id="a_node18"><a xlink:href="classXCS.html#a4bb9f3f8613abf7ba95837a03bbb931d" target="_top" xlink:title="Returns the error using N random samples from the provided data.">
<polygon fill="none" stroke="black" points="22.5,-0.5 22.5,-19.5 90.5,-19.5 90.5,-0.5 22.5,-0.5"/>
<text text-anchor="middle" x="56.5" y="-7.5" font-family="Helvetica,sans-Serif" font-size="10.00">XCS::score</text>
</a>
</g>
</g>
<!-- Node17&#45;&gt;Node18 -->
<g id="edge20" class="edge">
<title>Node17&#45;&gt;Node18</title>
<path fill="none" stroke="midnightblue" d="M320.22,-17.38C305.47,-14.35 289.15,-11.51 274,-10 209.29,-3.56 133.17,-5.82 90.61,-7.97"/>
<polygon fill="midnightblue" stroke="midnightblue" points="319.63,-20.83 330.14,-19.49 321.09,-13.98 319.63,-20.83"/>
</g>
<!-- Node17&#45;&gt;Node19 -->
<g id="edge21" class="edge">
<title>Node17&#45;&gt;Node19</title>
<path fill="none" stroke="midnightblue" d="M302.16,-29C292.82,-29 283.26,-29 274.02,-29"/>
<polygon fill="midnightblue" stroke="midnightblue" points="302.18,-32.5 312.18,-29 302.18,-25.5 302.18,-32.5"/>
</g>
<!-- Node19&#45;&gt;Node18 -->
<g id="edge22" class="edge">
<title>Node19&#45;&gt;Node18</title>
<path fill="none" stroke="midnightblue" d="M138.35,-20.04C121.62,-17.96 104.6,-15.85 90.52,-14.1"/>
<polygon fill="midnightblue" stroke="midnightblue" points="138.35,-23.57 148.71,-21.33 139.22,-16.62 138.35,-23.57"/>
</g>
<!-- Node20&#45;&gt;Node11 -->
<g id="edge25" class="edge">
<title>Node20&#45;&gt;Node11</title>
<path fill="none" stroke="midnightblue" d="M480.1,-224.81C474.85,-222.57 469.66,-219.97 465,-217 445.92,-204.83 449.34,-190.92 429,-181 305.94,-120.99 131.93,-147.34 75.74,-158.17"/>
<polygon fill="midnightblue" stroke="midnightblue" points="478.91,-228.1 489.5,-228.45 481.44,-221.57 478.91,-228.1"/>
</g>
<!-- Node21&#45;&gt;Node11 -->
<g id="edge29" class="edge">
<title>Node21&#45;&gt;Node11</title>
<path fill="none" stroke="midnightblue" d="M330.08,-363.47C322.83,-360.75 315.73,-357.04 310,-352 281.93,-327.32 302.3,-300.41 274,-276 230.03,-238.07 200.12,-265.54 149,-238 115,-219.69 81.85,-187.58 66.45,-171.6"/>
<polygon fill="midnightblue" stroke="midnightblue" points="329.35,-366.92 339.94,-366.62 331.47,-360.25 329.35,-366.92"/>
</g>
<!-- Node22 -->
<g id="node22" class="node">
<title>Node22</title>
<g id="a_node22"><a xlink:href="classXCS.html#a1a7ff32cb3485c0de9dd988f6f3e3470" target="_top" xlink:title="Reads the entire current state of XCSF from a file.">
<polygon fill="none" stroke="black" points="180.5,-361.5 180.5,-380.5 242.5,-380.5 242.5,-361.5 180.5,-361.5"/>
<text text-anchor="middle" x="211.5" y="-368.5" font-family="Helvetica,sans-Serif" font-size="10.00">XCS::load</text>
</a>
</g>
</g>
<!-- Node21&#45;&gt;Node22 -->
<g id="edge27" class="edge">
<title>Node21&#45;&gt;Node22</title>
<path fill="none" stroke="midnightblue" d="M329.64,-371C302.69,-371 267.32,-371 242.53,-371"/>
<polygon fill="midnightblue" stroke="midnightblue" points="329.89,-374.5 339.89,-371 329.89,-367.5 329.89,-374.5"/>
</g>
<!-- Node22&#45;&gt;Node6 -->
<g id="edge28" class="edge">
<title>Node22&#45;&gt;Node6</title>
<path fill="none" stroke="midnightblue" d="M169.89,-371C152.47,-371 131.85,-371 113.05,-371"/>
<polygon fill="midnightblue" stroke="midnightblue" points="170.27,-374.5 180.27,-371 170.27,-367.5 170.27,-374.5"/>
</g>
<!-- Node24 -->
<g id="node24" class="node">
<title>Node24</title>
<g id="a_node24"><a xlink:href="classXCS.html#af4e2f1db4a14a56a8aecf78c8bcc2a66" target="_top" xlink:title="Retrieves the stored population, setting it as current.">
<polygon fill="none" stroke="black" points="331.5,-475.5 331.5,-494.5 407.5,-494.5 407.5,-475.5 331.5,-475.5"/>
<text text-anchor="middle" x="369.5" y="-482.5" font-family="Helvetica,sans-Serif" font-size="10.00">XCS::retrieve</text>
</a>
</g>
</g>
<!-- Node23&#45;&gt;Node24 -->
<g id="edge31" class="edge">
<title>Node23&#45;&gt;Node24</title>
<path fill="none" stroke="midnightblue" d="M459.36,-478.93C441.95,-480.12 423.31,-481.4 407.62,-482.47"/>
<polygon fill="midnightblue" stroke="midnightblue" points="459.7,-482.42 469.44,-478.25 459.22,-475.44 459.7,-482.42"/>
</g>
<!-- Node24&#45;&gt;Node6 -->
<g id="edge32" class="edge">
<title>Node24&#45;&gt;Node6</title>
<path fill="none" stroke="midnightblue" d="M321.04,-485.53C275.01,-484.31 204.23,-477.79 149,-452 112.28,-434.85 79.42,-398.2 65.1,-380.7"/>
<polygon fill="midnightblue" stroke="midnightblue" points="321.26,-489.03 331.32,-485.72 321.39,-482.03 321.26,-489.03"/>
</g>
<!-- Node26 -->
<g id="node26" class="node">
<title>Node26</title>
<g id="a_node26"><a xlink:href="classXCS.html#a0d5d38e87da92827cee73290b030ff9f" target="_top" xlink:title="Stores the current population in memory for later retrieval.">
<polygon fill="none" stroke="black" points="337,-437.5 337,-456.5 402,-456.5 402,-437.5 337,-437.5"/>
<text text-anchor="middle" x="369.5" y="-444.5" font-family="Helvetica,sans-Serif" font-size="10.00">XCS::store</text>
</a>
</g>
</g>
<!-- Node25&#45;&gt;Node26 -->
<g id="edge34" class="edge">
<title>Node25&#45;&gt;Node26</title>
<path fill="none" stroke="midnightblue" d="M464.59,-434.8C443.68,-437.51 420.3,-440.54 402.07,-442.91"/>
<polygon fill="midnightblue" stroke="midnightblue" points="465.16,-438.25 474.63,-433.5 464.26,-431.31 465.16,-438.25"/>
</g>
<!-- Node26&#45;&gt;Node6 -->
<g id="edge35" class="edge">
<title>Node26&#45;&gt;Node6</title>
<path fill="none" stroke="midnightblue" d="M326.39,-449.1C281.32,-450.04 208.29,-447.76 149,-428 117.4,-417.47 85.5,-394.02 69,-380.72"/>
<polygon fill="midnightblue" stroke="midnightblue" points="326.77,-452.59 336.67,-448.82 326.58,-445.59 326.77,-452.59"/>
</g>
<!-- Node28 -->
<g id="node28" class="node">
<title>Node28</title>
<g id="a_node28"><a xlink:href="ea_8h.html#a295cd56f77428d1fa2555df1ce363cdd" target="_top" xlink:title="Executes the evolutionary algorithm (EA).">
<polygon fill="none" stroke="black" points="620,-261.5 620,-280.5 649,-280.5 649,-261.5 620,-261.5"/>
<text text-anchor="middle" x="634.5" y="-268.5" font-family="Helvetica,sans-Serif" font-size="10.00">ea</text>
</a>
</g>
</g>
<!-- Node27&#45;&gt;Node28 -->
<g id="edge37" class="edge">
<title>Node27&#45;&gt;Node28</title>
<path fill="none" stroke="midnightblue" d="M687.41,-271C674.2,-271 659.76,-271 649.48,-271"/>
<polygon fill="midnightblue" stroke="midnightblue" points="687.64,-274.5 697.64,-271 687.64,-267.5 687.64,-274.5"/>
</g>
<!-- Node28&#45;&gt;Node12 -->
<g id="edge43" class="edge">
<title>Node28&#45;&gt;Node12</title>
<path fill="none" stroke="midnightblue" d="M617.23,-253.99C605.32,-242.32 588.28,-227.16 571,-217 564.79,-213.35 557.75,-210.2 550.91,-207.58"/>
<polygon fill="midnightblue" stroke="midnightblue" points="615.07,-256.78 624.6,-261.41 620.03,-251.85 615.07,-256.78"/>
</g>
<!-- Node29 -->
<g id="node29" class="node">
<title>Node29</title>
<g id="a_node29"><a xlink:href="xcs__rl_8h.html#ac0d410321cd5627345e1b53856f7244c" target="_top" xlink:title="Provides reinforcement to the sets.">
<polygon fill="none" stroke="black" points="479.5,-264.5 479.5,-283.5 556.5,-283.5 556.5,-264.5 479.5,-264.5"/>
<text text-anchor="middle" x="518" y="-271.5" font-family="Helvetica,sans-Serif" font-size="10.00">xcs_rl_update</text>
</a>
</g>
</g>
<!-- Node28&#45;&gt;Node29 -->
<g id="edge38" class="edge">
<title>Node28&#45;&gt;Node29</title>
<path fill="none" stroke="midnightblue" d="M609.73,-271.62C594.38,-272.02 574.09,-272.56 556.58,-273.02"/>
<polygon fill="midnightblue" stroke="midnightblue" points="610.01,-275.12 619.92,-271.36 609.83,-268.12 610.01,-275.12"/>
</g>
<!-- Node29&#45;&gt;Node7 -->
<g id="edge41" class="edge">
<title>Node29&#45;&gt;Node7</title>
<path fill="none" stroke="midnightblue" d="M488.31,-288.03C471.28,-296.11 449.14,-306.18 429,-314 418.85,-317.94 407.5,-321.76 397.52,-324.92"/>
<polygon fill="midnightblue" stroke="midnightblue" points="490.19,-291.01 497.7,-283.54 487.17,-284.7 490.19,-291.01"/>
</g>
<!-- Node29&#45;&gt;Node9 -->
<g id="edge42" class="edge">
<title>Node29&#45;&gt;Node9</title>
<path fill="none" stroke="midnightblue" d="M469.36,-280.83C447.15,-284.01 421.35,-287.71 401.68,-290.53"/>
<polygon fill="midnightblue" stroke="midnightblue" points="469.87,-284.29 479.27,-279.41 468.88,-277.36 469.87,-284.29"/>
</g>
<!-- Node30 -->
<g id="node30" class="node">
<title>Node30</title>
<g id="a_node30"><a xlink:href="classXCS.html#af8970ba52403714439fda0d4383a390b" target="_top" xlink:title="Creates the action set using the previously selected action, updates the classifiers,...">
<polygon fill="none" stroke="black" points="175,-285.5 175,-304.5 248,-304.5 248,-285.5 175,-285.5"/>
<text text-anchor="middle" x="211.5" y="-292.5" font-family="Helvetica,sans-Serif" font-size="10.00">XCS::update</text>
</a>
</g>
</g>
<!-- Node29&#45;&gt;Node30 -->
<g id="edge39" class="edge">
<title>Node29&#45;&gt;Node30</title>
<path fill="none" stroke="midnightblue" d="M469.27,-272C427.22,-270.82 364.39,-270.48 310,-276 289.41,-278.09 266.7,-282.39 248.38,-286.38"/>
<polygon fill="midnightblue" stroke="midnightblue" points="469.39,-275.5 479.49,-272.31 469.6,-268.5 469.39,-275.5"/>
</g>
<!-- Node30&#45;&gt;Node6 -->
<g id="edge40" class="edge">
<title>Node30&#45;&gt;Node6</title>
<path fill="none" stroke="midnightblue" d="M165,-307.6C159.53,-309.54 154.08,-311.68 149,-314 119.38,-327.53 87.75,-349 70.53,-361.37"/>
<polygon fill="midnightblue" stroke="midnightblue" points="166.42,-310.81 174.8,-304.33 164.2,-304.18 166.42,-310.81"/>
</g>
<!-- Node31&#45;&gt;Node27 -->
<g id="edge45" class="edge">
<title>Node31&#45;&gt;Node27</title>
<path fill="none" stroke="midnightblue" d="M776.3,-287.44C766.03,-284.27 755.34,-280.98 746.26,-278.18"/>
<polygon fill="midnightblue" stroke="midnightblue" points="775.37,-290.82 785.96,-290.42 777.44,-284.13 775.37,-290.82"/>
</g>
</g>
</svg>
