<?xml version="1.0" encoding="UTF-8" standalone="no"?>
<!DOCTYPE svg PUBLIC "-//W3C//DTD SVG 1.1//EN"
 "http://www.w3.org/Graphics/SVG/1.1/DTD/svg11.dtd">
<!-- Generated by graphviz version 2.43.0 (0)
 -->
<!-- Title: action_param_defaults Pages: 1 -->
<svg width="401pt" height="91pt"
 viewBox="0.00 0.00 401.00 91.00" xmlns="http://www.w3.org/2000/svg" xmlns:xlink="http://www.w3.org/1999/xlink">
<g id="graph0" class="graph" transform="scale(1 1) rotate(0) translate(4 87)">
<title>action_param_defaults</title>
<!-- Node1 -->
<g id="node1" class="node">
<title>Node1</title>
<g id="a_node1"><a xlink:title="Initialises default action parameters.">
<polygon fill="#bfbfbf" stroke="black" points="0,-22.5 0,-41.5 115,-41.5 115,-22.5 0,-22.5"/>
<text text-anchor="middle" x="57.5" y="-29.5" font-family="Helvetica,sans-Serif" font-size="10.00">action_param_defaults</text>
</a>
</g>
</g>
<!-- Node2 -->
<g id="node2" class="node">
<title>Node2</title>
<g id="a_node2"><a xlink:href="action_8c.html#a4ef2c098a36e5937c1171ccb5b9304a5" target="_top" xlink:title="Initialises default neural action parameters.">
<polygon fill="none" stroke="black" points="152.5,-39 152.5,-69 267.5,-69 267.5,-39 152.5,-39"/>
<text text-anchor="start" x="160.5" y="-57" font-family="Helvetica,sans-Serif" font-size="10.00">action_param_defaults</text>
<text text-anchor="middle" x="210" y="-46" font-family="Helvetica,sans-Serif" font-size="10.00">_neural</text>
</a>
</g>
</g>
<!-- Node1&#45;&gt;Node2 -->
<g id="edge1" class="edge">
<title>Node1&#45;&gt;Node2</title>
<path fill="none" stroke="midnightblue" d="M115.4,-40.32C124.11,-41.59 133.16,-42.91 142.07,-44.22"/>
<polygon fill="midnightblue" stroke="midnightblue" points="141.62,-47.69 152.02,-45.67 142.63,-40.76 141.62,-47.69"/>
</g>
<!-- Node5 -->
<g id="node5" class="node">
<title>Node5</title>
<g id="a_node5"><a xlink:href="action_8c.html#a1a07a69a801b65052f3679d317507363" target="_top" xlink:title=" ">
<polygon fill="none" stroke="black" points="151,-0.5 151,-19.5 269,-19.5 269,-0.5 151,-0.5"/>
<text text-anchor="middle" x="210" y="-7.5" font-family="Helvetica,sans-Serif" font-size="10.00">action_param_set_type</text>
</a>
</g>
</g>
<!-- Node1&#45;&gt;Node5 -->
<g id="edge4" class="edge">
<title>Node1&#45;&gt;Node5</title>
<path fill="none" stroke="midnightblue" d="M115.4,-23.68C123.71,-22.47 132.35,-21.2 140.86,-19.96"/>
<polygon fill="midnightblue" stroke="midnightblue" points="141.38,-23.42 150.77,-18.51 140.37,-16.5 141.38,-23.42"/>
</g>
<!-- Node3 -->
<g id="node3" class="node">
<title>Node3</title>
<g id="a_node3"><a xlink:href="neural__layer_8c.html#ae2a39b39d39a77a51f0a9e85dd48c002" target="_top" xlink:title="Creates and returns a copy of specified layer parameters.">
<polygon fill="none" stroke="black" points="305,-63.5 305,-82.5 393,-82.5 393,-63.5 305,-63.5"/>
<text text-anchor="middle" x="349" y="-70.5" font-family="Helvetica,sans-Serif" font-size="10.00">layer_args_copy</text>
</a>
</g>
</g>
<!-- Node2&#45;&gt;Node3 -->
<g id="edge2" class="edge">
<title>Node2&#45;&gt;Node3</title>
<path fill="none" stroke="midnightblue" d="M267.51,-61.84C276.41,-63.07 285.59,-64.35 294.42,-65.57"/>
<polygon fill="midnightblue" stroke="midnightblue" points="294.21,-69.07 304.59,-66.98 295.17,-62.14 294.21,-69.07"/>
</g>
<!-- Node4 -->
<g id="node4" class="node">
<title>Node4</title>
<g id="a_node4"><a xlink:href="neural__layer_8c.html#a3b06e82bed7fc9a8915d6187ce08d33e" target="_top" xlink:title="Sets layer parameters to default values.">
<polygon fill="none" stroke="black" points="309,-25.5 309,-44.5 389,-44.5 389,-25.5 309,-25.5"/>
<text text-anchor="middle" x="349" y="-32.5" font-family="Helvetica,sans-Serif" font-size="10.00">layer_args_init</text>
</a>
</g>
</g>
<!-- Node2&#45;&gt;Node4 -->
<g id="edge3" class="edge">
<title>Node2&#45;&gt;Node4</title>
<path fill="none" stroke="midnightblue" d="M267.51,-46.16C277.91,-44.72 288.68,-43.23 298.83,-41.82"/>
<polygon fill="midnightblue" stroke="midnightblue" points="299.32,-45.28 308.75,-40.44 298.36,-38.35 299.32,-45.28"/>
</g>
</g>
</svg>
