<?xml version="1.0" encoding="UTF-8" standalone="no"?>
<!DOCTYPE svg PUBLIC "-//W3C//DTD SVG 1.1//EN"
 "http://www.w3.org/Graphics/SVG/1.1/DTD/svg11.dtd">
<!-- Generated by graphviz version 2.43.0 (0)
 -->
<!-- Title: act_copy Pages: 1 -->
<svg width="897pt" height="298pt"
 viewBox="0.00 0.00 897.00 298.46" xmlns="http://www.w3.org/2000/svg" xmlns:xlink="http://www.w3.org/1999/xlink">
<g id="graph0" class="graph" transform="scale(1 1) rotate(0) translate(4 294.46)">
<title>act_copy</title>
<!-- Node1 -->
<g id="node1" class="node">
<title>Node1</title>
<g id="a_node1"><a xlink:title="Copies the action from one classifier to another.">
<polygon fill="#bfbfbf" stroke="black" points="833,-228.5 833,-247.5 889,-247.5 889,-228.5 833,-228.5"/>
<text text-anchor="middle" x="861" y="-235.5" font-family="Helvetica,sans-Serif" font-size="10.00">act_copy</text>
</a>
</g>
</g>
<!-- Node2 -->
<g id="node2" class="node">
<title>Node2</title>
<g id="a_node2"><a xlink:href="cl_8h.html#a9ee3a0eeed6f36bba89250b27df8ae02" target="_top" xlink:title="Copies condition, action, and prediction structures.">
<polygon fill="none" stroke="black" points="738,-209.5 738,-228.5 788,-228.5 788,-209.5 738,-209.5"/>
<text text-anchor="middle" x="763" y="-216.5" font-family="Helvetica,sans-Serif" font-size="10.00">cl_copy</text>
</a>
</g>
</g>
<!-- Node1&#45;&gt;Node2 -->
<g id="edge1" class="edge">
<title>Node1&#45;&gt;Node2</title>
<path fill="none" stroke="midnightblue" d="M822.8,-230.64C811.13,-228.33 798.56,-225.84 788.05,-223.76"/>
<polygon fill="midnightblue" stroke="midnightblue" points="822.26,-234.1 832.75,-232.61 823.62,-227.23 822.26,-234.1"/>
</g>
<!-- Node20 -->
<g id="node20" class="node">
<title>Node20</title>
<g id="a_node20"><a xlink:href="cl_8h.html#a70aceb2c4039333d36ee71f954fb9d79" target="_top" xlink:title="Initialises and creates a copy of one classifier from another.">
<polygon fill="none" stroke="black" points="729,-247.5 729,-266.5 797,-266.5 797,-247.5 729,-247.5"/>
<text text-anchor="middle" x="763" y="-254.5" font-family="Helvetica,sans-Serif" font-size="10.00">cl_init_copy</text>
</a>
</g>
</g>
<!-- Node1&#45;&gt;Node20 -->
<g id="edge24" class="edge">
<title>Node1&#45;&gt;Node20</title>
<path fill="none" stroke="midnightblue" d="M822.75,-245.37C814.3,-247.04 805.39,-248.81 797.12,-250.44"/>
<polygon fill="midnightblue" stroke="midnightblue" points="823.62,-248.77 832.75,-243.39 822.26,-241.9 823.62,-248.77"/>
</g>
<!-- Node3 -->
<g id="node3" class="node">
<title>Node3</title>
<g id="a_node3"><a xlink:href="ea_8h.html#a295cd56f77428d1fa2555df1ce363cdd" target="_top" xlink:title="Executes the evolutionary algorithm (EA).">
<polygon fill="none" stroke="black" points="635.5,-209.5 635.5,-228.5 664.5,-228.5 664.5,-209.5 635.5,-209.5"/>
<text text-anchor="middle" x="650" y="-216.5" font-family="Helvetica,sans-Serif" font-size="10.00">ea</text>
</a>
</g>
</g>
<!-- Node2&#45;&gt;Node3 -->
<g id="edge2" class="edge">
<title>Node2&#45;&gt;Node3</title>
<path fill="none" stroke="midnightblue" d="M727.91,-219C706.57,-219 680.24,-219 664.58,-219"/>
<polygon fill="midnightblue" stroke="midnightblue" points="727.91,-222.5 737.91,-219 727.91,-215.5 727.91,-222.5"/>
</g>
<!-- Node4 -->
<g id="node4" class="node">
<title>Node4</title>
<g id="a_node4"><a xlink:href="xcs__rl_8h.html#ac0d410321cd5627345e1b53856f7244c" target="_top" xlink:title="Provides reinforcement to the sets.">
<polygon fill="none" stroke="black" points="479.5,-209.5 479.5,-228.5 556.5,-228.5 556.5,-209.5 479.5,-209.5"/>
<text text-anchor="middle" x="518" y="-216.5" font-family="Helvetica,sans-Serif" font-size="10.00">xcs_rl_update</text>
</a>
</g>
</g>
<!-- Node3&#45;&gt;Node4 -->
<g id="edge3" class="edge">
<title>Node3&#45;&gt;Node4</title>
<path fill="none" stroke="midnightblue" d="M624.85,-219C605.75,-219 578.73,-219 556.77,-219"/>
<polygon fill="midnightblue" stroke="midnightblue" points="625.09,-222.5 635.09,-219 625.09,-215.5 625.09,-222.5"/>
</g>
<!-- Node12 -->
<g id="node12" class="node">
<title>Node12</title>
<g id="a_node12"><a xlink:href="xcs__supervised_8c.html#a836aae9ec3055625d1c464d41746a7b9" target="_top" xlink:title="Executes a single XCSF trial.">
<polygon fill="none" stroke="black" points="465,-95.5 465,-114.5 571,-114.5 571,-95.5 465,-95.5"/>
<text text-anchor="middle" x="518" y="-102.5" font-family="Helvetica,sans-Serif" font-size="10.00">xcs_supervised_trial</text>
</a>
</g>
</g>
<!-- Node3&#45;&gt;Node12 -->
<g id="edge12" class="edge">
<title>Node3&#45;&gt;Node12</title>
<path fill="none" stroke="midnightblue" d="M630.16,-202.48C602.64,-178.34 552.29,-134.19 530.06,-114.69"/>
<polygon fill="midnightblue" stroke="midnightblue" points="628.09,-205.32 637.92,-209.28 632.71,-200.06 628.09,-205.32"/>
</g>
<!-- Node5 -->
<g id="node5" class="node">
<title>Node5</title>
<g id="a_node5"><a xlink:href="classXCS.html#af8970ba52403714439fda0d4383a390b" target="_top" xlink:title="Creates the action set using the previously selected action, updates the classifiers,...">
<polygon fill="none" stroke="black" points="175,-247.5 175,-266.5 248,-266.5 248,-247.5 175,-247.5"/>
<text text-anchor="middle" x="211.5" y="-254.5" font-family="Helvetica,sans-Serif" font-size="10.00">XCS::update</text>
</a>
</g>
</g>
<!-- Node4&#45;&gt;Node5 -->
<g id="edge4" class="edge">
<title>Node4&#45;&gt;Node5</title>
<path fill="none" stroke="midnightblue" d="M468.98,-230.5C456.06,-233.29 442.05,-236.03 429,-238 365.76,-247.56 291.36,-252.79 248.29,-255.23"/>
<polygon fill="midnightblue" stroke="midnightblue" points="470.06,-233.85 479.07,-228.28 468.55,-227.01 470.06,-233.85"/>
</g>
<!-- Node7 -->
<g id="node7" class="node">
<title>Node7</title>
<g id="a_node7"><a xlink:href="xcs__rl_8h.html#a391abf9bd2540ff284f822b30899c438" target="_top" xlink:title="Creates and updates an action set for a given (state, action, reward).">
<polygon fill="none" stroke="black" points="341.5,-209.5 341.5,-228.5 397.5,-228.5 397.5,-209.5 341.5,-209.5"/>
<text text-anchor="middle" x="369.5" y="-216.5" font-family="Helvetica,sans-Serif" font-size="10.00">xcs_rl_fit</text>
</a>
</g>
</g>
<!-- Node4&#45;&gt;Node7 -->
<g id="edge6" class="edge">
<title>Node4&#45;&gt;Node7</title>
<path fill="none" stroke="midnightblue" d="M469.1,-219C445.5,-219 417.91,-219 397.92,-219"/>
<polygon fill="midnightblue" stroke="midnightblue" points="469.27,-222.5 479.27,-219 469.27,-215.5 469.27,-222.5"/>
</g>
<!-- Node9 -->
<g id="node9" class="node">
<title>Node9</title>
<g id="a_node9"><a xlink:href="xcs__rl_8c.html#a8171cd945b56ed0a4563f9dcd89438e3" target="_top" xlink:title="Executes a reinforcement learning trial using a built&#45;in environment.">
<polygon fill="none" stroke="black" points="337.5,-171.5 337.5,-190.5 401.5,-190.5 401.5,-171.5 337.5,-171.5"/>
<text text-anchor="middle" x="369.5" y="-178.5" font-family="Helvetica,sans-Serif" font-size="10.00">xcs_rl_trial</text>
</a>
</g>
</g>
<!-- Node4&#45;&gt;Node9 -->
<g id="edge9" class="edge">
<title>Node4&#45;&gt;Node9</title>
<path fill="none" stroke="midnightblue" d="M470.34,-206.9C447.85,-201.06 421.5,-194.23 401.51,-189.04"/>
<polygon fill="midnightblue" stroke="midnightblue" points="469.47,-210.29 480.03,-209.41 471.23,-203.51 469.47,-210.29"/>
</g>
<!-- Node6 -->
<g id="node6" class="node">
<title>Node6</title>
<g id="a_node6"><a xlink:href="pybind__wrapper_8cpp.html#a269acb618355873dacf057083f07eb58" target="_top" xlink:title=" ">
<polygon fill="none" stroke="black" points="0,-228.5 0,-247.5 113,-247.5 113,-228.5 0,-228.5"/>
<text text-anchor="middle" x="56.5" y="-235.5" font-family="Helvetica,sans-Serif" font-size="10.00">pybind11_init_wrapper</text>
</a>
</g>
</g>
<!-- Node5&#45;&gt;Node6 -->
<g id="edge5" class="edge">
<title>Node5&#45;&gt;Node6</title>
<path fill="none" stroke="midnightblue" d="M164.39,-251.27C148.28,-249.27 130.02,-247.01 113.21,-244.92"/>
<polygon fill="midnightblue" stroke="midnightblue" points="164.27,-254.79 174.63,-252.55 165.14,-247.84 164.27,-254.79"/>
</g>
<!-- Node8 -->
<g id="node8" class="node">
<title>Node8</title>
<g id="a_node8"><a xlink:href="classXCS.html#ac12768292958a714a726b1c029e9616a" target="_top" xlink:title="Creates/updates an action set for a given (state, action, reward).">
<polygon fill="none" stroke="black" points="185.5,-209.5 185.5,-228.5 237.5,-228.5 237.5,-209.5 185.5,-209.5"/>
<text text-anchor="middle" x="211.5" y="-216.5" font-family="Helvetica,sans-Serif" font-size="10.00">XCS::fit</text>
</a>
</g>
</g>
<!-- Node7&#45;&gt;Node8 -->
<g id="edge7" class="edge">
<title>Node7&#45;&gt;Node8</title>
<path fill="none" stroke="midnightblue" d="M331.17,-219C302.2,-219 262.85,-219 237.56,-219"/>
<polygon fill="midnightblue" stroke="midnightblue" points="331.33,-222.5 341.33,-219 331.33,-215.5 331.33,-222.5"/>
</g>
<!-- Node8&#45;&gt;Node6 -->
<g id="edge8" class="edge">
<title>Node8&#45;&gt;Node6</title>
<path fill="none" stroke="midnightblue" d="M175.27,-223.38C156.9,-225.66 134.01,-228.5 113.3,-231.07"/>
<polygon fill="midnightblue" stroke="midnightblue" points="175.74,-226.84 185.24,-222.14 174.88,-219.9 175.74,-226.84"/>
</g>
<!-- Node10 -->
<g id="node10" class="node">
<title>Node10</title>
<g id="a_node10"><a xlink:href="xcs__rl_8h.html#adb4c284d19eeaed2b4a629f9b939ed20" target="_top" xlink:title="Executes a reinforcement learning experiment.">
<polygon fill="none" stroke="black" points="179.5,-171.5 179.5,-190.5 243.5,-190.5 243.5,-171.5 179.5,-171.5"/>
<text text-anchor="middle" x="211.5" y="-178.5" font-family="Helvetica,sans-Serif" font-size="10.00">xcs_rl_exp</text>
</a>
</g>
</g>
<!-- Node9&#45;&gt;Node10 -->
<g id="edge10" class="edge">
<title>Node9&#45;&gt;Node10</title>
<path fill="none" stroke="midnightblue" d="M327.28,-181C301.06,-181 267.65,-181 243.64,-181"/>
<polygon fill="midnightblue" stroke="midnightblue" points="327.31,-184.5 337.31,-181 327.31,-177.5 327.31,-184.5"/>
</g>
<!-- Node11 -->
<g id="node11" class="node">
<title>Node11</title>
<g id="a_node11"><a xlink:href="main_8c.html#a3c04138a5bfe5d72780bb7e82a18e627" target="_top" xlink:title=" ">
<polygon fill="none" stroke="black" points="37.5,-114.5 37.5,-133.5 75.5,-133.5 75.5,-114.5 37.5,-114.5"/>
<text text-anchor="middle" x="56.5" y="-121.5" font-family="Helvetica,sans-Serif" font-size="10.00">main</text>
</a>
</g>
</g>
<!-- Node10&#45;&gt;Node11 -->
<g id="edge11" class="edge">
<title>Node10&#45;&gt;Node11</title>
<path fill="none" stroke="midnightblue" d="M169.46,-168.91C162.59,-166.72 155.57,-164.37 149,-162 123.12,-152.65 93.84,-140.14 75.53,-132.08"/>
<polygon fill="midnightblue" stroke="midnightblue" points="168.75,-172.35 179.34,-171.99 170.84,-165.67 168.75,-172.35"/>
</g>
<!-- Node13 -->
<g id="node13" class="node">
<title>Node13</title>
<g id="a_node13"><a xlink:href="xcs__supervised_8h.html#aac1347b7b83576d581a1b725b4c84e56" target="_top" xlink:title="Executes MAX_TRIALS number of XCSF learning iterations using the training data and test iterations us...">
<polygon fill="none" stroke="black" points="320.5,-95.5 320.5,-114.5 418.5,-114.5 418.5,-95.5 320.5,-95.5"/>
<text text-anchor="middle" x="369.5" y="-102.5" font-family="Helvetica,sans-Serif" font-size="10.00">xcs_supervised_fit</text>
</a>
</g>
</g>
<!-- Node12&#45;&gt;Node13 -->
<g id="edge13" class="edge">
<title>Node12&#45;&gt;Node13</title>
<path fill="none" stroke="midnightblue" d="M454.6,-105C442.68,-105 430.37,-105 418.97,-105"/>
<polygon fill="midnightblue" stroke="midnightblue" points="454.94,-108.5 464.94,-105 454.94,-101.5 454.94,-108.5"/>
</g>
<!-- Node15 -->
<g id="node15" class="node">
<title>Node15</title>
<g id="a_node15"><a xlink:href="xcs__supervised_8h.html#a2dc51452fdb0be0e27fd3ebfe6041474" target="_top" xlink:title="Calculates the XCSF predictions for the provided input.">
<polygon fill="none" stroke="black" points="310,-133.5 310,-152.5 429,-152.5 429,-133.5 310,-133.5"/>
<text text-anchor="middle" x="369.5" y="-140.5" font-family="Helvetica,sans-Serif" font-size="10.00">xcs_supervised_predict</text>
</a>
</g>
</g>
<!-- Node12&#45;&gt;Node15 -->
<g id="edge16" class="edge">
<title>Node12&#45;&gt;Node15</title>
<path fill="none" stroke="midnightblue" d="M470.3,-117.11C449.9,-122.4 426.32,-128.52 407.2,-133.48"/>
<polygon fill="midnightblue" stroke="midnightblue" points="471.23,-120.49 480.03,-114.59 469.47,-113.71 471.23,-120.49"/>
</g>
<!-- Node17 -->
<g id="node17" class="node">
<title>Node17</title>
<g id="a_node17"><a xlink:href="xcs__supervised_8h.html#ae05de18a53511ba46b2a6a733c780580" target="_top" xlink:title="Calculates the XCSF error for the input data.">
<polygon fill="none" stroke="black" points="312.5,-19.5 312.5,-38.5 426.5,-38.5 426.5,-19.5 312.5,-19.5"/>
<text text-anchor="middle" x="369.5" y="-26.5" font-family="Helvetica,sans-Serif" font-size="10.00">xcs_supervised_score</text>
</a>
</g>
</g>
<!-- Node12&#45;&gt;Node17 -->
<g id="edge19" class="edge">
<title>Node12&#45;&gt;Node17</title>
<path fill="none" stroke="midnightblue" d="M493.52,-89.87C476.08,-78.94 451.52,-64.2 429,-53 418.48,-47.77 406.54,-42.72 396.2,-38.61"/>
<polygon fill="midnightblue" stroke="midnightblue" points="492.09,-93.11 502.42,-95.5 495.84,-87.19 492.09,-93.11"/>
</g>
<!-- Node19 -->
<g id="node19" class="node">
<title>Node19</title>
<g id="a_node19"><a xlink:href="xcs__supervised_8h.html#a56ec80025279785376a569ec0130c29f" target="_top" xlink:title="Calculates the XCSF error for a subsample of the input data.">
<polygon fill="none" stroke="black" points="149,-19.5 149,-38.5 274,-38.5 274,-19.5 149,-19.5"/>
<text text-anchor="middle" x="211.5" y="-26.5" font-family="Helvetica,sans-Serif" font-size="10.00">xcs_supervised_score_n</text>
</a>
</g>
</g>
<!-- Node12&#45;&gt;Node19 -->
<g id="edge23" class="edge">
<title>Node12&#45;&gt;Node19</title>
<path fill="none" stroke="midnightblue" d="M468.7,-92.94C408.31,-77.87 306.15,-52.37 250.84,-38.57"/>
<polygon fill="midnightblue" stroke="midnightblue" points="468.19,-96.43 478.74,-95.45 469.89,-89.63 468.19,-96.43"/>
</g>
<!-- Node13&#45;&gt;Node11 -->
<g id="edge15" class="edge">
<title>Node13&#45;&gt;Node11</title>
<path fill="none" stroke="midnightblue" d="M321.25,-93.28C276.51,-83.98 207.64,-74.31 149,-86 121.84,-91.42 92.65,-105.05 74.73,-114.42"/>
<polygon fill="midnightblue" stroke="midnightblue" points="320.74,-96.75 331.25,-95.44 322.22,-89.91 320.74,-96.75"/>
</g>
<!-- Node14 -->
<g id="node14" class="node">
<title>Node14</title>
<g id="a_node14"><a xlink:href="classXCS.html#a3f8168ffade2d933d0971625200f1d92" target="_top" xlink:title="Executes MAX_TRIALS number of XCSF learning iterations using the provided training data.">
<polygon fill="none" stroke="black" points="185.5,-95.5 185.5,-114.5 237.5,-114.5 237.5,-95.5 185.5,-95.5"/>
<text text-anchor="middle" x="211.5" y="-102.5" font-family="Helvetica,sans-Serif" font-size="10.00">XCS::fit</text>
</a>
</g>
</g>
<!-- Node13&#45;&gt;Node14 -->
<g id="edge14" class="edge">
<title>Node13&#45;&gt;Node14</title>
<path fill="none" stroke="midnightblue" d="M310.24,-105C285.15,-105 257.13,-105 237.55,-105"/>
<polygon fill="midnightblue" stroke="midnightblue" points="310.42,-108.5 320.42,-105 310.42,-101.5 310.42,-108.5"/>
</g>
<!-- Node16 -->
<g id="node16" class="node">
<title>Node16</title>
<g id="a_node16"><a xlink:href="classXCS.html#a7d0bfc2cf3447809fee4218f39921a81" target="_top" xlink:title="Returns the XCSF prediction array for the provided input.">
<polygon fill="none" stroke="black" points="175,-133.5 175,-152.5 248,-152.5 248,-133.5 175,-133.5"/>
<text text-anchor="middle" x="211.5" y="-140.5" font-family="Helvetica,sans-Serif" font-size="10.00">XCS::predict</text>
</a>
</g>
</g>
<!-- Node15&#45;&gt;Node16 -->
<g id="edge17" class="edge">
<title>Node15&#45;&gt;Node16</title>
<path fill="none" stroke="midnightblue" d="M299.62,-143C281.88,-143 263.51,-143 248.23,-143"/>
<polygon fill="midnightblue" stroke="midnightblue" points="299.97,-146.5 309.97,-143 299.97,-139.5 299.97,-146.5"/>
</g>
<!-- Node16&#45;&gt;Node6 -->
<g id="edge18" class="edge">
<title>Node16&#45;&gt;Node6</title>
<path fill="none" stroke="midnightblue" d="M164.87,-154.86C159.39,-156.93 153.97,-159.31 149,-162 115.04,-180.39 81.87,-212.47 66.46,-228.42"/>
<polygon fill="midnightblue" stroke="midnightblue" points="166.42,-158.03 174.73,-151.45 164.14,-151.41 166.42,-158.03"/>
</g>
<!-- Node18 -->
<g id="node18" class="node">
<title>Node18</title>
<g id="a_node18"><a xlink:href="classXCS.html#a8be398df5d3f4333c9b0d19f48535609" target="_top" xlink:title="Returns the error using N random samples from the provided data.">
<polygon fill="none" stroke="black" points="22.5,-0.5 22.5,-19.5 90.5,-19.5 90.5,-0.5 22.5,-0.5"/>
<text text-anchor="middle" x="56.5" y="-7.5" font-family="Helvetica,sans-Serif" font-size="10.00">XCS::score</text>
</a>
</g>
</g>
<!-- Node17&#45;&gt;Node18 -->
<g id="edge20" class="edge">
<title>Node17&#45;&gt;Node18</title>
<path fill="none" stroke="midnightblue" d="M320.22,-17.38C305.47,-14.35 289.15,-11.51 274,-10 209.29,-3.56 133.17,-5.82 90.61,-7.97"/>
<polygon fill="midnightblue" stroke="midnightblue" points="319.63,-20.83 330.14,-19.49 321.09,-13.98 319.63,-20.83"/>
</g>
<!-- Node17&#45;&gt;Node19 -->
<g id="edge21" class="edge">
<title>Node17&#45;&gt;Node19</title>
<path fill="none" stroke="midnightblue" d="M302.16,-29C292.82,-29 283.26,-29 274.02,-29"/>
<polygon fill="midnightblue" stroke="midnightblue" points="302.18,-32.5 312.18,-29 302.18,-25.5 302.18,-32.5"/>
</g>
<!-- Node19&#45;&gt;Node18 -->
<g id="edge22" class="edge">
<title>Node19&#45;&gt;Node18</title>
<path fill="none" stroke="midnightblue" d="M138.35,-20.04C121.62,-17.96 104.6,-15.85 90.52,-14.1"/>
<polygon fill="midnightblue" stroke="midnightblue" points="138.35,-23.57 148.71,-21.33 139.22,-16.62 138.35,-23.57"/>
</g>
<!-- Node21 -->
<g id="node21" class="node">
<title>Node21</title>
<g id="a_node21"><a xlink:href="xcsf_8h.html#a10d0342ac640d2cd32e9cb95d0cd3bbe" target="_top" xlink:title="Stores the current population.">
<polygon fill="none" stroke="black" points="607,-256.5 607,-275.5 693,-275.5 693,-256.5 607,-256.5"/>
<text text-anchor="middle" x="650" y="-263.5" font-family="Helvetica,sans-Serif" font-size="10.00">xcsf_store_pset</text>
</a>
</g>
</g>
<!-- Node20&#45;&gt;Node21 -->
<g id="edge25" class="edge">
<title>Node20&#45;&gt;Node21</title>
<path fill="none" stroke="midnightblue" d="M718.93,-260.49C710.46,-261.18 701.59,-261.9 693.15,-262.58"/>
<polygon fill="midnightblue" stroke="midnightblue" points="719.31,-263.97 729,-259.68 718.75,-257 719.31,-263.97"/>
</g>
<!-- Node22 -->
<g id="node22" class="node">
<title>Node22</title>
<g id="a_node22"><a xlink:href="classXCS.html#a0d5d38e87da92827cee73290b030ff9f" target="_top" xlink:title="Stores the current population in memory for later retrieval.">
<polygon fill="none" stroke="black" points="485.5,-266.5 485.5,-285.5 550.5,-285.5 550.5,-266.5 485.5,-266.5"/>
<text text-anchor="middle" x="518" y="-273.5" font-family="Helvetica,sans-Serif" font-size="10.00">XCS::store</text>
</a>
</g>
</g>
<!-- Node21&#45;&gt;Node22 -->
<g id="edge26" class="edge">
<title>Node21&#45;&gt;Node22</title>
<path fill="none" stroke="midnightblue" d="M596.74,-270.02C581.15,-271.22 564.54,-272.5 550.7,-273.56"/>
<polygon fill="midnightblue" stroke="midnightblue" points="597.09,-273.5 606.79,-269.25 596.55,-266.52 597.09,-273.5"/>
</g>
<!-- Node22&#45;&gt;Node6 -->
<g id="edge27" class="edge">
<title>Node22&#45;&gt;Node6</title>
<path fill="none" stroke="midnightblue" d="M475.06,-281.28C406.2,-288.77 265.21,-299.17 149,-276 121.84,-270.58 92.65,-256.95 74.73,-247.58"/>
<polygon fill="midnightblue" stroke="midnightblue" points="475.54,-284.74 485.09,-280.15 474.76,-277.79 475.54,-284.74"/>
</g>
</g>
</svg>
