<?xml version="1.0" encoding="UTF-8" standalone="no"?>
<!DOCTYPE svg PUBLIC "-//W3C//DTD SVG 1.1//EN"
 "http://www.w3.org/Graphics/SVG/1.1/DTD/svg11.dtd">
<!-- Generated by graphviz version 2.43.0 (0)
 -->
<!-- Title: action_param_json_export Pages: 1 -->
<svg width="735pt" height="360pt"
 viewBox="0.00 0.00 735.00 359.50" xmlns="http://www.w3.org/2000/svg" xmlns:xlink="http://www.w3.org/1999/xlink">
<g id="graph0" class="graph" transform="scale(1 1) rotate(0) translate(4 355.5)">
<title>action_param_json_export</title>
<!-- Node1 -->
<g id="Node000001" class="node">
<title>Node1</title>
<g id="a_Node000001"><a xlink:title="Returns a json formatted string of the action parameters.">
<polygon fill="#999999" stroke="#666666" points="131,-187 0,-187 0,-168 131,-168 131,-187"/>
<text text-anchor="middle" x="65.5" y="-175" font-family="Helvetica,sans-Serif" font-size="10.00">action_param_json_export</text>
</a>
</g>
</g>
<!-- Node2 -->
<g id="Node000002" class="node">
<title>Node2</title>
<g id="a_Node000002"><a xlink:href="action_8c.html#ad546aad49d253d6d0e72a6eddb237d01" target="_top" xlink:title="Returns a string representation of an action type from an integer.">
<polygon fill="white" stroke="#666666" points="281.5,-206 169.5,-206 169.5,-187 281.5,-187 281.5,-206"/>
<text text-anchor="middle" x="225.5" y="-194" font-family="Helvetica,sans-Serif" font-size="10.00">action_type_as_string</text>
</a>
</g>
</g>
<!-- Node1&#45;&gt;Node2 -->
<g id="edge1_Node000001_Node000002" class="edge">
<title>Node1&#45;&gt;Node2</title>
<g id="a_edge1_Node000001_Node000002"><a xlink:title=" ">
<path fill="none" stroke="#63b8ff" d="M131.22,-185.28C140.48,-186.4 150.02,-187.54 159.29,-188.66"/>
<polygon fill="#63b8ff" stroke="#63b8ff" points="158.88,-192.13 169.22,-189.85 159.71,-185.18 158.88,-192.13"/>
</a>
</g>
</g>
<!-- Node3 -->
<g id="Node000003" class="node">
<title>Node3</title>
<g id="a_Node000003"><a xlink:href="neural__layer__args_8c.html#a91be60f1596b4940ddfe3aa08a72ea9d" target="_top" xlink:title="Returns a json formatted string of the neural layer parameters.">
<polygon fill="white" stroke="#666666" points="284,-169 167,-169 167,-150 284,-150 284,-169"/>
<text text-anchor="middle" x="225.5" y="-157" font-family="Helvetica,sans-Serif" font-size="10.00">layer_args_json_export</text>
</a>
</g>
</g>
<!-- Node1&#45;&gt;Node3 -->
<g id="edge2_Node000001_Node000003" class="edge">
<title>Node1&#45;&gt;Node3</title>
<g id="a_edge2_Node000001_Node000003"><a xlink:title=" ">
<path fill="none" stroke="#63b8ff" d="M131.22,-170.13C139.73,-169.16 148.48,-168.16 157.04,-167.19"/>
<polygon fill="#63b8ff" stroke="#63b8ff" points="157.43,-170.66 166.97,-166.05 156.64,-163.71 157.43,-170.66"/>
</a>
</g>
</g>
<!-- Node4 -->
<g id="Node000004" class="node">
<title>Node4</title>
<g id="a_Node000004"><a xlink:href="neural__layer__args_8c.html#a0d29d99487e5afd1746e7ac70fadf68f" target="_top" xlink:title="Adds layer activation function to a json object.">
<polygon fill="white" stroke="#666666" points="447.5,-351.5 330.5,-351.5 330.5,-321.5 447.5,-321.5 447.5,-351.5"/>
<text text-anchor="start" x="338.5" y="-339.5" font-family="Helvetica,sans-Serif" font-size="10.00">layer_args_json_export</text>
<text text-anchor="middle" x="389" y="-328.5" font-family="Helvetica,sans-Serif" font-size="10.00">_activation</text>
</a>
</g>
</g>
<!-- Node3&#45;&gt;Node4 -->
<g id="edge3_Node000003_Node000004" class="edge">
<title>Node3&#45;&gt;Node4</title>
<g id="a_edge3_Node000003_Node000004"><a xlink:title=" ">
<path fill="none" stroke="#63b8ff" d="M270.98,-169.04C275.82,-171.5 280.32,-174.6 284,-178.5 326.35,-223.32 278.1,-267.25 320,-312.5 320.89,-313.46 321.81,-314.37 322.77,-315.26"/>
<polygon fill="#63b8ff" stroke="#63b8ff" points="320.68,-318.06 330.76,-321.32 324.91,-312.49 320.68,-318.06"/>
</a>
</g>
</g>
<!-- Node6 -->
<g id="Node000006" class="node">
<title>Node6</title>
<g id="a_Node000006"><a xlink:href="neural__layer__args_8c.html#aba8bd68ce834099ac6558a3b2560963a" target="_top" xlink:title="Adds layer evolutionary parameters to a json object.">
<polygon fill="white" stroke="#666666" points="458,-303 320,-303 320,-284 458,-284 458,-303"/>
<text text-anchor="middle" x="389" y="-291" font-family="Helvetica,sans-Serif" font-size="10.00">layer_args_json_export_evo</text>
</a>
</g>
</g>
<!-- Node3&#45;&gt;Node6 -->
<g id="edge5_Node000003_Node000006" class="edge">
<title>Node3&#45;&gt;Node6</title>
<g id="a_edge5_Node000003_Node000006"><a xlink:title=" ">
<path fill="none" stroke="#63b8ff" d="M270.05,-169.11C275.16,-171.56 279.98,-174.64 284,-178.5 316.85,-210.08 286.42,-243.7 320,-274.5 321.72,-276.08 323.57,-277.53 325.51,-278.87"/>
<polygon fill="#63b8ff" stroke="#63b8ff" points="324.1,-282.09 334.52,-283.97 327.55,-276 324.1,-282.09"/>
</a>
</g>
</g>
<!-- Node7 -->
<g id="Node000007" class="node">
<title>Node7</title>
<g id="a_Node000007"><a xlink:href="neural__layer__args_8c.html#a7b6e5027adbd710fc3653c7056c22fa2" target="_top" xlink:title="Adds layer input parameters to a json object.">
<polygon fill="white" stroke="#666666" points="447.5,-265.5 330.5,-265.5 330.5,-235.5 447.5,-235.5 447.5,-265.5"/>
<text text-anchor="start" x="338.5" y="-253.5" font-family="Helvetica,sans-Serif" font-size="10.00">layer_args_json_export</text>
<text text-anchor="middle" x="389" y="-242.5" font-family="Helvetica,sans-Serif" font-size="10.00">_inputs</text>
</a>
</g>
</g>
<!-- Node3&#45;&gt;Node7 -->
<g id="edge6_Node000003_Node000007" class="edge">
<title>Node3&#45;&gt;Node7</title>
<g id="a_edge6_Node000003_Node000007"><a xlink:title=" ">
<path fill="none" stroke="#63b8ff" d="M266.1,-169.02C272.41,-171.52 278.62,-174.63 284,-178.5 305.65,-194.06 298.5,-210.72 320,-226.5 321.89,-227.88 323.86,-229.19 325.9,-230.43"/>
<polygon fill="#63b8ff" stroke="#63b8ff" points="324.7,-233.77 335.17,-235.43 328.02,-227.6 324.7,-233.77"/>
</a>
</g>
</g>
<!-- Node9 -->
<g id="Node000009" class="node">
<title>Node9</title>
<g id="a_Node000009"><a xlink:href="neural__layer__args_8c.html#a1130173f486e5e1b647a65ff0822aebc" target="_top" xlink:title="Adds layer scaling parameters to a json object.">
<polygon fill="white" stroke="#666666" points="447.5,-217.5 330.5,-217.5 330.5,-187.5 447.5,-187.5 447.5,-217.5"/>
<text text-anchor="start" x="338.5" y="-205.5" font-family="Helvetica,sans-Serif" font-size="10.00">layer_args_json_export</text>
<text text-anchor="middle" x="389" y="-194.5" font-family="Helvetica,sans-Serif" font-size="10.00">_scale</text>
</a>
</g>
</g>
<!-- Node3&#45;&gt;Node9 -->
<g id="edge8_Node000003_Node000009" class="edge">
<title>Node3&#45;&gt;Node9</title>
<g id="a_edge8_Node000003_Node000009"><a xlink:title=" ">
<path fill="none" stroke="#63b8ff" d="M262.34,-169.04C279.83,-173.7 301.44,-179.45 321.78,-184.87"/>
<polygon fill="#63b8ff" stroke="#63b8ff" points="321.08,-188.3 331.64,-187.49 322.88,-181.54 321.08,-188.3"/>
</a>
</g>
</g>
<!-- Node10 -->
<g id="Node000010" class="node">
<title>Node10</title>
<g id="a_Node000010"><a xlink:href="neural__layer__args_8c.html#a686e3f11eb7bb524effd5ddb75bdbd34" target="_top" xlink:title="Adds layer gradient descent parameters to a json object.">
<polygon fill="white" stroke="#666666" points="458,-169 320,-169 320,-150 458,-150 458,-169"/>
<text text-anchor="middle" x="389" y="-157" font-family="Helvetica,sans-Serif" font-size="10.00">layer_args_json_export_sgd</text>
</a>
</g>
</g>
<!-- Node3&#45;&gt;Node10 -->
<g id="edge9_Node000003_Node000010" class="edge">
<title>Node3&#45;&gt;Node10</title>
<g id="a_edge9_Node000003_Node000010"><a xlink:title=" ">
<path fill="none" stroke="#63b8ff" d="M284.35,-159.5C292.61,-159.5 301.22,-159.5 309.79,-159.5"/>
<polygon fill="#63b8ff" stroke="#63b8ff" points="309.82,-163 319.82,-159.5 309.82,-156 309.82,-163"/>
</a>
</g>
</g>
<!-- Node11 -->
<g id="Node000011" class="node">
<title>Node11</title>
<g id="a_Node000011"><a xlink:href="neural__layer_8c.html#ac79a38e3a8b17f929de92ba8ee9adf68" target="_top" xlink:title="Returns a string representation of a layer type from an integer.">
<polygon fill="white" stroke="#666666" points="442.5,-132 335.5,-132 335.5,-113 442.5,-113 442.5,-132"/>
<text text-anchor="middle" x="389" y="-120" font-family="Helvetica,sans-Serif" font-size="10.00">layer_type_as_string</text>
</a>
</g>
</g>
<!-- Node3&#45;&gt;Node11 -->
<g id="edge10_Node000003_Node000011" class="edge">
<title>Node3&#45;&gt;Node11</title>
<g id="a_edge10_Node000003_Node000011"><a xlink:title=" ">
<path fill="none" stroke="#63b8ff" d="M268.09,-149.97C288.92,-145.2 314.34,-139.38 336.4,-134.32"/>
<polygon fill="#63b8ff" stroke="#63b8ff" points="337.3,-137.71 346.27,-132.06 335.74,-130.88 337.3,-137.71"/>
</a>
</g>
</g>
<!-- Node12 -->
<g id="Node000012" class="node">
<title>Node12</title>
<g id="a_Node000012"><a xlink:href="neural_8c.html#a6466387dd7c533e0f15da4c2127bfd79" target="_top" xlink:title="Initialises and creates a new neural network from a parameter list.">
<polygon fill="white" stroke="#666666" points="426.5,-95 351.5,-95 351.5,-76 426.5,-76 426.5,-95"/>
<text text-anchor="middle" x="389" y="-83" font-family="Helvetica,sans-Serif" font-size="10.00">neural_create</text>
</a>
</g>
</g>
<!-- Node3&#45;&gt;Node12 -->
<g id="edge11_Node000003_Node000012" class="edge">
<title>Node3&#45;&gt;Node12</title>
<g id="a_edge11_Node000003_Node000012"><a xlink:title=" ">
<path fill="none" stroke="#63b8ff" d="M240.16,-149.93C257.86,-137.89 290.02,-117.25 320,-104.5 326.82,-101.6 334.22,-99.01 341.54,-96.74"/>
<polygon fill="#63b8ff" stroke="#63b8ff" points="342.79,-100.02 351.41,-93.85 340.83,-93.3 342.79,-100.02"/>
</a>
</g>
</g>
<!-- Node16 -->
<g id="Node000016" class="node">
<title>Node16</title>
<g id="a_Node000016"><a xlink:href="neural_8c.html#ad70aee7c40f698d4be45e3d419051c2f" target="_top" xlink:title="Initialises an empty neural network.">
<polygon fill="white" stroke="#666666" points="584,-57 523,-57 523,-38 584,-38 584,-57"/>
<text text-anchor="middle" x="553.5" y="-45" font-family="Helvetica,sans-Serif" font-size="10.00">neural_init</text>
</a>
</g>
</g>
<!-- Node3&#45;&gt;Node16 -->
<g id="edge20_Node000003_Node000016" class="edge">
<title>Node3&#45;&gt;Node16</title>
<g id="a_edge20_Node000003_Node000016"><a xlink:title=" ">
<path fill="none" stroke="#63b8ff" d="M232.82,-149.78C246.19,-130.18 279.46,-86.17 320,-67.5 382.74,-38.61 465.03,-39.33 513.01,-43.03"/>
<polygon fill="#63b8ff" stroke="#63b8ff" points="512.73,-46.52 522.99,-43.89 513.33,-39.55 512.73,-46.52"/>
</a>
</g>
</g>
<!-- Node19 -->
<g id="Node000019" class="node">
<title>Node19</title>
<g id="a_Node000019"><a xlink:href="neural_8c.html#a9c3e1da0425d0fc17daa12c21e4799ca" target="_top" xlink:title="Frees a neural network.">
<polygon fill="white" stroke="#666666" points="421.5,-19 356.5,-19 356.5,0 421.5,0 421.5,-19"/>
<text text-anchor="middle" x="389" y="-7" font-family="Helvetica,sans-Serif" font-size="10.00">neural_free</text>
</a>
</g>
</g>
<!-- Node3&#45;&gt;Node19 -->
<g id="edge18_Node000003_Node000019" class="edge">
<title>Node3&#45;&gt;Node19</title>
<g id="a_edge18_Node000003_Node000019"><a xlink:title=" ">
<path fill="none" stroke="#63b8ff" d="M231.14,-149.76C242.79,-126.33 275.51,-66.34 320,-33.5 327.92,-27.65 337.4,-23.13 346.73,-19.67"/>
<polygon fill="#63b8ff" stroke="#63b8ff" points="347.96,-22.95 356.32,-16.45 345.72,-16.32 347.96,-22.95"/>
</a>
</g>
</g>
<!-- Node5 -->
<g id="Node000005" class="node">
<title>Node5</title>
<g id="a_Node000005"><a xlink:href="neural__activations_8c.html#a434ca6390662d569b5e002a9e2d82c1d" target="_top" xlink:title="Returns the name of a specified activation function.">
<polygon fill="white" stroke="#666666" points="613,-346 494,-346 494,-327 613,-327 613,-346"/>
<text text-anchor="middle" x="553.5" y="-334" font-family="Helvetica,sans-Serif" font-size="10.00">neural_activation_string</text>
</a>
</g>
</g>
<!-- Node4&#45;&gt;Node5 -->
<g id="edge4_Node000004_Node000005" class="edge">
<title>Node4&#45;&gt;Node5</title>
<g id="a_edge4_Node000004_Node000005"><a xlink:title=" ">
<path fill="none" stroke="#63b8ff" d="M447.75,-336.5C459.32,-336.5 471.59,-336.5 483.5,-336.5"/>
<polygon fill="#63b8ff" stroke="#63b8ff" points="483.84,-340 493.84,-336.5 483.84,-333 483.84,-340"/>
</a>
</g>
</g>
<!-- Node8 -->
<g id="Node000008" class="node">
<title>Node8</title>
<g id="a_Node000008"><a xlink:href="neural__layer_8c.html#ad1b7188119d0d96791ee0d87c105896a" target="_top" xlink:title="Returns a whether a layer type expects images as input.">
<polygon fill="white" stroke="#666666" points="611.5,-260 495.5,-260 495.5,-241 611.5,-241 611.5,-260"/>
<text text-anchor="middle" x="553.5" y="-248" font-family="Helvetica,sans-Serif" font-size="10.00">layer_receives_images</text>
</a>
</g>
</g>
<!-- Node7&#45;&gt;Node8 -->
<g id="edge7_Node000007_Node000008" class="edge">
<title>Node7&#45;&gt;Node8</title>
<g id="a_edge7_Node000007_Node000008"><a xlink:title=" ">
<path fill="none" stroke="#63b8ff" d="M447.75,-250.5C459.86,-250.5 472.74,-250.5 485.17,-250.5"/>
<polygon fill="#63b8ff" stroke="#63b8ff" points="485.48,-254 495.48,-250.5 485.48,-247 485.48,-254"/>
</a>
</g>
</g>
<!-- Node13 -->
<g id="Node000013" class="node">
<title>Node13</title>
<g id="a_Node000013"><a xlink:href="neural__layer_8h.html#aa969a46ce36513e683114c704f78a0b5" target="_top" xlink:title="Creates and initialises a new layer.">
<polygon fill="white" stroke="#666666" points="581.5,-132 525.5,-132 525.5,-113 581.5,-113 581.5,-132"/>
<text text-anchor="middle" x="553.5" y="-120" font-family="Helvetica,sans-Serif" font-size="10.00">layer_init</text>
</a>
</g>
</g>
<!-- Node12&#45;&gt;Node13 -->
<g id="edge12_Node000012_Node000013" class="edge">
<title>Node12&#45;&gt;Node13</title>
<g id="a_edge12_Node000012_Node000013"><a xlink:title=" ">
<path fill="none" stroke="#63b8ff" d="M426.87,-93.9C453.33,-99.92 488.83,-108 515.35,-114.04"/>
<polygon fill="#63b8ff" stroke="#63b8ff" points="514.87,-117.52 525.39,-116.33 516.42,-110.7 514.87,-117.52"/>
</a>
</g>
</g>
<!-- Node12&#45;&gt;Node16 -->
<g id="edge15_Node000012_Node000016" class="edge">
<title>Node12&#45;&gt;Node16</title>
<g id="a_edge15_Node000012_Node000016"><a xlink:title=" ">
<path fill="none" stroke="#63b8ff" d="M426.87,-76.88C452.5,-70.88 486.62,-62.9 512.84,-56.77"/>
<polygon fill="#63b8ff" stroke="#63b8ff" points="513.88,-60.13 522.82,-54.44 512.29,-53.31 513.88,-60.13"/>
</a>
</g>
</g>
<!-- Node17 -->
<g id="Node000017" class="node">
<title>Node17</title>
<g id="a_Node000017"><a xlink:href="neural_8c.html#a1c1c06446fc719b8293aade2ded8433c" target="_top" xlink:title="Inserts a layer at the head of a neural network.">
<polygon fill="white" stroke="#666666" points="588,-95 519,-95 519,-76 588,-76 588,-95"/>
<text text-anchor="middle" x="553.5" y="-83" font-family="Helvetica,sans-Serif" font-size="10.00">neural_push</text>
</a>
</g>
</g>
<!-- Node12&#45;&gt;Node17 -->
<g id="edge16_Node000012_Node000017" class="edge">
<title>Node12&#45;&gt;Node17</title>
<g id="a_edge16_Node000012_Node000017"><a xlink:title=" ">
<path fill="none" stroke="#63b8ff" d="M426.87,-85.5C451.15,-85.5 483.06,-85.5 508.64,-85.5"/>
<polygon fill="#63b8ff" stroke="#63b8ff" points="508.82,-89 518.82,-85.5 508.82,-82 508.82,-89"/>
</a>
</g>
</g>
<!-- Node14 -->
<g id="Node000014" class="node">
<title>Node14</title>
<g id="a_Node000014"><a xlink:href="neural__layer_8c.html#a21a8acbaa483c46984c4f5f20d4edf95" target="_top" xlink:title="Initialises a layer to default values.">
<polygon fill="white" stroke="#666666" points="726.5,-169 649.5,-169 649.5,-150 726.5,-150 726.5,-169"/>
<text text-anchor="middle" x="688" y="-157" font-family="Helvetica,sans-Serif" font-size="10.00">layer_defaults</text>
</a>
</g>
</g>
<!-- Node13&#45;&gt;Node14 -->
<g id="edge13_Node000013_Node000014" class="edge">
<title>Node13&#45;&gt;Node14</title>
<g id="a_edge13_Node000013_Node000014"><a xlink:title=" ">
<path fill="none" stroke="#63b8ff" d="M581.63,-130.08C599.33,-135.02 622.83,-141.58 643.15,-147.25"/>
<polygon fill="#63b8ff" stroke="#63b8ff" points="642.25,-150.64 652.82,-149.96 644.13,-143.9 642.25,-150.64"/>
</a>
</g>
</g>
<!-- Node15 -->
<g id="Node000015" class="node">
<title>Node15</title>
<g id="a_Node000015"><a xlink:href="neural__layer_8c.html#a786726dce503a14b3bdd88b1ab5c356f" target="_top" xlink:title="Sets a neural network layer&#39;s functions to the implementations.">
<polygon fill="white" stroke="#666666" points="727,-132 649,-132 649,-113 727,-113 727,-132"/>
<text text-anchor="middle" x="688" y="-120" font-family="Helvetica,sans-Serif" font-size="10.00">layer_set_vptr</text>
</a>
</g>
</g>
<!-- Node13&#45;&gt;Node15 -->
<g id="edge14_Node000013_Node000015" class="edge">
<title>Node13&#45;&gt;Node15</title>
<g id="a_edge14_Node000013_Node000015"><a xlink:title=" ">
<path fill="none" stroke="#63b8ff" d="M581.63,-122.5C598.06,-122.5 619.49,-122.5 638.73,-122.5"/>
<polygon fill="#63b8ff" stroke="#63b8ff" points="638.85,-126 648.85,-122.5 638.85,-119 638.85,-126"/>
</a>
</g>
</g>
<!-- Node18 -->
<g id="Node000018" class="node">
<title>Node18</title>
<g id="a_Node000018"><a xlink:href="neural_8c.html#afab574137fbf9da9a286d020917c8295" target="_top" xlink:title="Inserts a layer into a neural network.">
<polygon fill="white" stroke="#666666" points="724,-95 652,-95 652,-76 724,-76 724,-95"/>
<text text-anchor="middle" x="688" y="-83" font-family="Helvetica,sans-Serif" font-size="10.00">neural_insert</text>
</a>
</g>
</g>
<!-- Node17&#45;&gt;Node18 -->
<g id="edge17_Node000017_Node000018" class="edge">
<title>Node17&#45;&gt;Node18</title>
<g id="a_edge17_Node000017_Node000018"><a xlink:title=" ">
<path fill="none" stroke="#63b8ff" d="M588.28,-85.5C604.56,-85.5 624.31,-85.5 641.86,-85.5"/>
<polygon fill="#63b8ff" stroke="#63b8ff" points="641.9,-89 651.9,-85.5 641.9,-82 641.9,-89"/>
</a>
</g>
</g>
<!-- Node20 -->
<g id="Node000020" class="node">
<title>Node20</title>
<g id="a_Node000020"><a xlink:href="neural__layer_8h.html#a5ea2541eb1936ed851001c4a8b99b08f" target="_top" xlink:title="Frees the memory used by the layer.">
<polygon fill="white" stroke="#666666" points="583,-19 524,-19 524,0 583,0 583,-19"/>
<text text-anchor="middle" x="553.5" y="-7" font-family="Helvetica,sans-Serif" font-size="10.00">layer_free</text>
</a>
</g>
</g>
<!-- Node19&#45;&gt;Node20 -->
<g id="edge19_Node000019_Node000020" class="edge">
<title>Node19&#45;&gt;Node20</title>
<g id="a_edge19_Node000019_Node000020"><a xlink:title=" ">
<path fill="none" stroke="#63b8ff" d="M421.72,-9.5C448.01,-9.5 485.49,-9.5 513.59,-9.5"/>
<polygon fill="#63b8ff" stroke="#63b8ff" points="513.86,-13 523.86,-9.5 513.86,-6 513.86,-13"/>
</a>
</g>
</g>
</g>
</svg>
