<?xml version="1.0" encoding="UTF-8" standalone="no"?>
<!DOCTYPE svg PUBLIC "-//W3C//DTD SVG 1.1//EN"
 "http://www.w3.org/Graphics/SVG/1.1/DTD/svg11.dtd">
<!-- Generated by graphviz version 2.43.0 (0)
 -->
<!-- Title: act_json_export Pages: 1 -->
<svg width="715pt" height="85pt"
 viewBox="0.00 0.00 715.00 85.00" xmlns="http://www.w3.org/2000/svg" xmlns:xlink="http://www.w3.org/1999/xlink">
<g id="graph0" class="graph" transform="scale(1 1) rotate(0) translate(4 81)">
<title>act_json_export</title>
<!-- Node1 -->
<g id="node1" class="node">
<title>Node1</title>
<g id="a_node1"><a xlink:title="Returns a json formatted string representation of an action .">
<polygon fill="#bfbfbf" stroke="black" points="621,-38.5 621,-57.5 707,-57.5 707,-38.5 621,-38.5"/>
<text text-anchor="middle" x="664" y="-45.5" font-family="Helvetica,sans-Serif" font-size="10.00">act_json_export</text>
</a>
</g>
</g>
<!-- Node2 -->
<g id="node2" class="node">
<title>Node2</title>
<g id="a_node2"><a xlink:href="cl_8c.html#a6fccc77f8093c33617be7fc29175614c" target="_top" xlink:title="Returns a json formatted string representation of a classifier.">
<polygon fill="none" stroke="black" points="505,-38.5 505,-57.5 585,-57.5 585,-38.5 505,-38.5"/>
<text text-anchor="middle" x="545" y="-45.5" font-family="Helvetica,sans-Serif" font-size="10.00">cl_json_export</text>
</a>
</g>
</g>
<!-- Node1&#45;&gt;Node2 -->
<g id="edge1" class="edge">
<title>Node1&#45;&gt;Node2</title>
<path fill="none" stroke="midnightblue" d="M610.75,-48C602.12,-48 593.3,-48 585.06,-48"/>
<polygon fill="midnightblue" stroke="midnightblue" points="610.76,-51.5 620.76,-48 610.76,-44.5 610.76,-51.5"/>
</g>
<!-- Node3 -->
<g id="node3" class="node">
<title>Node3</title>
<g id="a_node3"><a xlink:href="cl_8c.html#afe7823d194c2fe357ce94285b77f8bfe" target="_top" xlink:title="Prints a classifier.">
<polygon fill="none" stroke="black" points="398.5,-57.5 398.5,-76.5 446.5,-76.5 446.5,-57.5 398.5,-57.5"/>
<text text-anchor="middle" x="422.5" y="-64.5" font-family="Helvetica,sans-Serif" font-size="10.00">cl_print</text>
</a>
</g>
</g>
<!-- Node2&#45;&gt;Node3 -->
<g id="edge2" class="edge">
<title>Node2&#45;&gt;Node3</title>
<path fill="none" stroke="midnightblue" d="M494.71,-55.77C478.07,-58.4 460.27,-61.2 446.63,-63.35"/>
<polygon fill="midnightblue" stroke="midnightblue" points="495.54,-59.18 504.88,-54.17 494.45,-52.27 495.54,-59.18"/>
</g>
<!-- Node4 -->
<g id="node4" class="node">
<title>Node4</title>
<g id="a_node4"><a xlink:href="clset_8c.html#af7d4ec3f5c5bcebc48045a6724beed12" target="_top" xlink:title="Returns a json formatted string representation of a classifier set.">
<polygon fill="none" stroke="black" points="376,-19.5 376,-38.5 469,-38.5 469,-19.5 376,-19.5"/>
<text text-anchor="middle" x="422.5" y="-26.5" font-family="Helvetica,sans-Serif" font-size="10.00">clset_json_export</text>
</a>
</g>
</g>
<!-- Node2&#45;&gt;Node4 -->
<g id="edge3" class="edge">
<title>Node2&#45;&gt;Node4</title>
<path fill="none" stroke="midnightblue" d="M494.74,-40.23C486.27,-38.9 477.5,-37.51 469.13,-36.2"/>
<polygon fill="midnightblue" stroke="midnightblue" points="494.45,-43.73 504.88,-41.83 495.54,-36.82 494.45,-43.73"/>
</g>
<!-- Node5 -->
<g id="node5" class="node">
<title>Node5</title>
<g id="a_node5"><a xlink:href="clset_8c.html#a724354141b3185c19ac6f3fb7920308b" target="_top" xlink:title="Prints the classifiers in the set.">
<polygon fill="none" stroke="black" points="262,-38.5 262,-57.5 324,-57.5 324,-38.5 262,-38.5"/>
<text text-anchor="middle" x="293" y="-45.5" font-family="Helvetica,sans-Serif" font-size="10.00">clset_print</text>
</a>
</g>
</g>
<!-- Node4&#45;&gt;Node5 -->
<g id="edge4" class="edge">
<title>Node4&#45;&gt;Node5</title>
<path fill="none" stroke="midnightblue" d="M365.6,-37.33C351.38,-39.45 336.62,-41.65 324.23,-43.5"/>
<polygon fill="midnightblue" stroke="midnightblue" points="366.45,-40.74 375.83,-35.81 365.42,-33.82 366.45,-40.74"/>
</g>
<!-- Node8 -->
<g id="node8" class="node">
<title>Node8</title>
<g id="a_node8"><a xlink:href="classXCS.html#adf6549829b0b5dd678f32b939676c40e" target="_top" xlink:title="Returns a JSON formatted string representing the population set.">
<polygon fill="none" stroke="black" points="246,-0.5 246,-19.5 340,-19.5 340,-0.5 246,-0.5"/>
<text text-anchor="middle" x="293" y="-7.5" font-family="Helvetica,sans-Serif" font-size="10.00">XCS::json_export</text>
</a>
</g>
</g>
<!-- Node4&#45;&gt;Node8 -->
<g id="edge7" class="edge">
<title>Node4&#45;&gt;Node8</title>
<path fill="none" stroke="midnightblue" d="M365.89,-20.71C357.32,-19.44 348.55,-18.13 340.21,-16.89"/>
<polygon fill="midnightblue" stroke="midnightblue" points="365.42,-24.18 375.83,-22.19 366.45,-17.26 365.42,-24.18"/>
</g>
<!-- Node6 -->
<g id="node6" class="node">
<title>Node6</title>
<g id="a_node6"><a xlink:href="xcsf_8c.html#ae18311260dd4c51978ef361f6f14e8c0" target="_top" xlink:title="Prints the current XCSF population.">
<polygon fill="none" stroke="black" points="124.5,-38.5 124.5,-57.5 207.5,-57.5 207.5,-38.5 124.5,-38.5"/>
<text text-anchor="middle" x="166" y="-45.5" font-family="Helvetica,sans-Serif" font-size="10.00">xcsf_print_pset</text>
</a>
</g>
</g>
<!-- Node5&#45;&gt;Node6 -->
<g id="edge5" class="edge">
<title>Node5&#45;&gt;Node6</title>
<path fill="none" stroke="midnightblue" d="M251.44,-48C237.47,-48 221.83,-48 207.84,-48"/>
<polygon fill="midnightblue" stroke="midnightblue" points="251.74,-51.5 261.74,-48 251.74,-44.5 251.74,-51.5"/>
</g>
<!-- Node7 -->
<g id="node7" class="node">
<title>Node7</title>
<g id="a_node7"><a xlink:href="classXCS.html#a9feecf1cfbc0910bd334031105732952" target="_top" xlink:title="Prints the current population.">
<polygon fill="none" stroke="black" points="0,-38.5 0,-57.5 86,-57.5 86,-38.5 0,-38.5"/>
<text text-anchor="middle" x="43" y="-45.5" font-family="Helvetica,sans-Serif" font-size="10.00">XCS::print_pset</text>
</a>
</g>
</g>
<!-- Node6&#45;&gt;Node7 -->
<g id="edge6" class="edge">
<title>Node6&#45;&gt;Node7</title>
<path fill="none" stroke="midnightblue" d="M114.12,-48C104.89,-48 95.34,-48 86.38,-48"/>
<polygon fill="midnightblue" stroke="midnightblue" points="114.37,-51.5 124.37,-48 114.37,-44.5 114.37,-51.5"/>
</g>
<!-- Node9 -->
<g id="node9" class="node">
<title>Node9</title>
<g id="a_node9"><a xlink:href="classXCS.html#a589dc6f43e28dcf5ad4edd505e30a531" target="_top" xlink:title="Writes the current population set to a file in JSON.">
<polygon fill="none" stroke="black" points="122,-0.5 122,-19.5 210,-19.5 210,-0.5 122,-0.5"/>
<text text-anchor="middle" x="166" y="-7.5" font-family="Helvetica,sans-Serif" font-size="10.00">XCS::json_write</text>
</a>
</g>
</g>
<!-- Node8&#45;&gt;Node9 -->
<g id="edge8" class="edge">
<title>Node8&#45;&gt;Node9</title>
<path fill="none" stroke="midnightblue" d="M235.8,-10C227.17,-10 218.38,-10 210.1,-10"/>
<polygon fill="midnightblue" stroke="midnightblue" points="235.81,-13.5 245.81,-10 235.81,-6.5 235.81,-13.5"/>
</g>
</g>
</svg>
