<?xml version="1.0" encoding="UTF-8" standalone="no"?>
<!DOCTYPE svg PUBLIC "-//W3C//DTD SVG 1.1//EN"
 "http://www.w3.org/Graphics/SVG/1.1/DTD/svg11.dtd">
<!-- Generated by graphviz version 2.43.0 (0)
 -->
<!-- Title: action_type_as_int Pages: 1 -->
<svg width="824pt" height="146pt"
 viewBox="0.00 0.00 824.00 146.00" xmlns="http://www.w3.org/2000/svg" xmlns:xlink="http://www.w3.org/1999/xlink">
<g id="graph0" class="graph" transform="scale(1 1) rotate(0) translate(4 142)">
<title>action_type_as_int</title>
<!-- Node1 -->
<g id="node1" class="node">
<title>Node1</title>
<g id="a_node1"><a xlink:title="Returns the integer representation of an action type given a name.">
<polygon fill="#bfbfbf" stroke="black" points="718,-59.5 718,-78.5 816,-78.5 816,-59.5 718,-59.5"/>
<text text-anchor="middle" x="767" y="-66.5" font-family="Helvetica,sans-Serif" font-size="10.00">action_type_as_int</text>
</a>
</g>
</g>
<!-- Node2 -->
<g id="node2" class="node">
<title>Node2</title>
<g id="a_node2"><a xlink:href="action_8h.html#a8ddc4aefec0235d2af07465f6d48e2ce" target="_top" xlink:title="Creates an action from a cJSON object.">
<polygon fill="none" stroke="black" points="580,-81.5 580,-100.5 666,-100.5 666,-81.5 580,-81.5"/>
<text text-anchor="middle" x="623" y="-88.5" font-family="Helvetica,sans-Serif" font-size="10.00">act_json_import</text>
</a>
</g>
</g>
<!-- Node1&#45;&gt;Node2 -->
<g id="edge1" class="edge">
<title>Node1&#45;&gt;Node2</title>
<path fill="none" stroke="midnightblue" d="M707.93,-78C694,-80.15 679.38,-82.42 666.32,-84.44"/>
<polygon fill="midnightblue" stroke="midnightblue" points="708.58,-81.44 717.93,-76.45 707.51,-74.52 708.58,-81.44"/>
</g>
<!-- Node8 -->
<g id="node8" class="node">
<title>Node8</title>
<g id="a_node8"><a xlink:href="action_8c.html#a55974a228c3a692a22c9d6ce0c4cc869" target="_top" xlink:title=" ">
<polygon fill="none" stroke="black" points="564,-32 564,-62 682,-62 682,-32 564,-32"/>
<text text-anchor="start" x="572" y="-50" font-family="Helvetica,sans-Serif" font-size="10.00">action_param_set_type</text>
<text text-anchor="middle" x="623" y="-39" font-family="Helvetica,sans-Serif" font-size="10.00">_string</text>
</a>
</g>
</g>
<!-- Node1&#45;&gt;Node8 -->
<g id="edge7" class="edge">
<title>Node1&#45;&gt;Node8</title>
<path fill="none" stroke="midnightblue" d="M708.03,-60.02C699.48,-58.69 690.67,-57.33 682.11,-56"/>
<polygon fill="midnightblue" stroke="midnightblue" points="707.51,-63.48 717.93,-61.55 708.58,-56.56 707.51,-63.48"/>
</g>
<!-- Node3 -->
<g id="node3" class="node">
<title>Node3</title>
<g id="a_node3"><a xlink:href="cl_8c.html#ada9e7ce4c9c81af8ea0d1fd0dda59e3c" target="_top" xlink:title="Creates a classifier from a cJSON object.">
<polygon fill="none" stroke="black" points="422.5,-81.5 422.5,-100.5 502.5,-100.5 502.5,-81.5 422.5,-81.5"/>
<text text-anchor="middle" x="462.5" y="-88.5" font-family="Helvetica,sans-Serif" font-size="10.00">cl_json_import</text>
</a>
</g>
</g>
<!-- Node2&#45;&gt;Node3 -->
<g id="edge2" class="edge">
<title>Node2&#45;&gt;Node3</title>
<path fill="none" stroke="midnightblue" d="M569.83,-91C547.98,-91 523.01,-91 502.76,-91"/>
<polygon fill="midnightblue" stroke="midnightblue" points="569.94,-94.5 579.94,-91 569.94,-87.5 569.94,-94.5"/>
</g>
<!-- Node4 -->
<g id="node4" class="node">
<title>Node4</title>
<g id="a_node4"><a xlink:href="clset_8c.html#a9f71f62cb4c5216fb3a3e76a6b3df82f" target="_top" xlink:title="Creates a classifier from cJSON and inserts in the population set.">
<polygon fill="none" stroke="black" points="266.5,-81.5 266.5,-100.5 356.5,-100.5 356.5,-81.5 266.5,-81.5"/>
<text text-anchor="middle" x="311.5" y="-88.5" font-family="Helvetica,sans-Serif" font-size="10.00">clset_json_insert</text>
</a>
</g>
</g>
<!-- Node3&#45;&gt;Node4 -->
<g id="edge3" class="edge">
<title>Node3&#45;&gt;Node4</title>
<path fill="none" stroke="midnightblue" d="M412.35,-91C394.37,-91 374.16,-91 356.64,-91"/>
<polygon fill="midnightblue" stroke="midnightblue" points="412.35,-94.5 422.35,-91 412.35,-87.5 412.35,-94.5"/>
</g>
<!-- Node5 -->
<g id="node5" class="node">
<title>Node5</title>
<g id="a_node5"><a xlink:href="classXCS.html#af888b891afb66fbe06ba4919ef16adf9" target="_top" xlink:title="Creates classifiers from JSON and inserts into the population.">
<polygon fill="none" stroke="black" points="128.5,-118.5 128.5,-137.5 219.5,-137.5 219.5,-118.5 128.5,-118.5"/>
<text text-anchor="middle" x="174" y="-125.5" font-family="Helvetica,sans-Serif" font-size="10.00">XCS::json_insert</text>
</a>
</g>
</g>
<!-- Node4&#45;&gt;Node5 -->
<g id="edge4" class="edge">
<title>Node4&#45;&gt;Node5</title>
<path fill="none" stroke="midnightblue" d="M265.86,-103.19C247.79,-108.12 227.23,-113.74 210.25,-118.38"/>
<polygon fill="midnightblue" stroke="midnightblue" points="266.88,-106.54 275.61,-100.53 265.04,-99.79 266.88,-106.54"/>
</g>
<!-- Node7 -->
<g id="node7" class="node">
<title>Node7</title>
<g id="a_node7"><a xlink:href="classXCS.html#a61361120dbba1dba3ca49b53ded91edb" target="_top" xlink:title="Creates a classifier from JSON and inserts into the population.">
<polygon fill="none" stroke="black" points="122,-80.5 122,-99.5 226,-99.5 226,-80.5 122,-80.5"/>
<text text-anchor="middle" x="174" y="-87.5" font-family="Helvetica,sans-Serif" font-size="10.00">XCS::json_insert_cl</text>
</a>
</g>
</g>
<!-- Node4&#45;&gt;Node7 -->
<g id="edge6" class="edge">
<title>Node4&#45;&gt;Node7</title>
<path fill="none" stroke="midnightblue" d="M256.01,-90.6C246.12,-90.52 235.84,-90.45 226.05,-90.38"/>
<polygon fill="midnightblue" stroke="midnightblue" points="256.11,-94.1 266.13,-90.67 256.16,-87.1 256.11,-94.1"/>
</g>
<!-- Node6 -->
<g id="node6" class="node">
<title>Node6</title>
<g id="a_node6"><a xlink:href="classXCS.html#a1a882e28a64c4e2b92ae234d79f327de" target="_top" xlink:title="Reads classifiers from a JSON file and adds to the population.">
<polygon fill="none" stroke="black" points="0,-118.5 0,-137.5 86,-137.5 86,-118.5 0,-118.5"/>
<text text-anchor="middle" x="43" y="-125.5" font-family="Helvetica,sans-Serif" font-size="10.00">XCS::json_read</text>
</a>
</g>
</g>
<!-- Node5&#45;&gt;Node6 -->
<g id="edge5" class="edge">
<title>Node5&#45;&gt;Node6</title>
<path fill="none" stroke="midnightblue" d="M118.11,-128C107.39,-128 96.3,-128 86.07,-128"/>
<polygon fill="midnightblue" stroke="midnightblue" points="118.24,-131.5 128.24,-128 118.24,-124.5 118.24,-131.5"/>
</g>
<!-- Node9 -->
<g id="node9" class="node">
<title>Node9</title>
<g id="a_node9"><a xlink:href="action_8c.html#aaa5c433092521a4fe5159eee76b1c141" target="_top" xlink:title="Sets the action parameters from a cJSON object.">
<polygon fill="none" stroke="black" points="397,-38.5 397,-57.5 528,-57.5 528,-38.5 397,-38.5"/>
<text text-anchor="middle" x="462.5" y="-45.5" font-family="Helvetica,sans-Serif" font-size="10.00">action_param_json_import</text>
</a>
</g>
</g>
<!-- Node8&#45;&gt;Node9 -->
<g id="edge8" class="edge">
<title>Node8&#45;&gt;Node9</title>
<path fill="none" stroke="midnightblue" d="M553.63,-47.43C545.13,-47.48 536.47,-47.54 528.03,-47.59"/>
<polygon fill="midnightblue" stroke="midnightblue" points="553.9,-50.93 563.88,-47.37 553.86,-43.93 553.9,-50.93"/>
</g>
<!-- Node14 -->
<g id="node14" class="node">
<title>Node14</title>
<g id="a_node14"><a xlink:href="classXCS.html#af3b9793a64608f827dabb989bf9b72ef" target="_top" xlink:title="Sets the action type.">
<polygon fill="none" stroke="black" points="418,-0.5 418,-19.5 507,-19.5 507,-0.5 418,-0.5"/>
<text text-anchor="middle" x="462.5" y="-7.5" font-family="Helvetica,sans-Serif" font-size="10.00">XCS::set_action</text>
</a>
</g>
</g>
<!-- Node8&#45;&gt;Node14 -->
<g id="edge13" class="edge">
<title>Node8&#45;&gt;Node14</title>
<path fill="none" stroke="midnightblue" d="M554.01,-31.13C537.07,-27.17 519.43,-23.06 504.27,-19.52"/>
<polygon fill="midnightblue" stroke="midnightblue" points="553.35,-34.57 563.88,-33.43 554.94,-27.75 553.35,-34.57"/>
</g>
<!-- Node10 -->
<g id="node10" class="node">
<title>Node10</title>
<g id="a_node10"><a xlink:href="param_8c.html#a130260988988535419aee8abe51986c1" target="_top" xlink:title="Sets the parameters from a json formatted string.">
<polygon fill="none" stroke="black" points="262,-39.5 262,-58.5 361,-58.5 361,-39.5 262,-39.5"/>
<text text-anchor="middle" x="311.5" y="-46.5" font-family="Helvetica,sans-Serif" font-size="10.00">param_json_import</text>
</a>
</g>
</g>
<!-- Node9&#45;&gt;Node10 -->
<g id="edge9" class="edge">
<title>Node9&#45;&gt;Node10</title>
<path fill="none" stroke="midnightblue" d="M386.47,-48.5C377.84,-48.56 369.22,-48.62 361.07,-48.67"/>
<polygon fill="midnightblue" stroke="midnightblue" points="386.6,-52 396.58,-48.44 386.56,-45 386.6,-52"/>
</g>
<!-- Node13 -->
<g id="node13" class="node">
<title>Node13</title>
<g id="a_node13"><a xlink:href="classXCS.html#a1298087e3a06734561965359b4d74468" target="_top" xlink:title="Sets the action type and initialisation arguments.">
<polygon fill="none" stroke="black" points="267,-1.5 267,-20.5 356,-20.5 356,-1.5 267,-1.5"/>
<text text-anchor="middle" x="311.5" y="-8.5" font-family="Helvetica,sans-Serif" font-size="10.00">XCS::set_action</text>
</a>
</g>
</g>
<!-- Node9&#45;&gt;Node13 -->
<g id="edge12" class="edge">
<title>Node9&#45;&gt;Node13</title>
<path fill="none" stroke="midnightblue" d="M413.2,-36.01C393.05,-31 369.98,-25.27 351,-20.56"/>
<polygon fill="midnightblue" stroke="midnightblue" points="412.58,-39.46 423.13,-38.47 414.27,-32.66 412.58,-39.46"/>
</g>
<!-- Node11 -->
<g id="node11" class="node">
<title>Node11</title>
<g id="a_node11"><a xlink:href="config_8c.html#a045a64a30d99a4bef2ebfd9b54aa9698" target="_top" xlink:title="Reads the specified configuration file.">
<polygon fill="none" stroke="black" points="140.5,-39.5 140.5,-58.5 207.5,-58.5 207.5,-39.5 140.5,-39.5"/>
<text text-anchor="middle" x="174" y="-46.5" font-family="Helvetica,sans-Serif" font-size="10.00">config_read</text>
</a>
</g>
</g>
<!-- Node10&#45;&gt;Node11 -->
<g id="edge10" class="edge">
<title>Node10&#45;&gt;Node11</title>
<path fill="none" stroke="midnightblue" d="M251.63,-49C236.5,-49 220.77,-49 207.53,-49"/>
<polygon fill="midnightblue" stroke="midnightblue" points="251.96,-52.5 261.96,-49 251.96,-45.5 251.96,-52.5"/>
</g>
<!-- Node12 -->
<g id="node12" class="node">
<title>Node12</title>
<g id="a_node12"><a xlink:href="main_8c.html#a3c04138a5bfe5d72780bb7e82a18e627" target="_top" xlink:title=" ">
<polygon fill="none" stroke="black" points="24,-39.5 24,-58.5 62,-58.5 62,-39.5 24,-39.5"/>
<text text-anchor="middle" x="43" y="-46.5" font-family="Helvetica,sans-Serif" font-size="10.00">main</text>
</a>
</g>
</g>
<!-- Node11&#45;&gt;Node12 -->
<g id="edge11" class="edge">
<title>Node11&#45;&gt;Node12</title>
<path fill="none" stroke="midnightblue" d="M130.18,-49C107.08,-49 79.78,-49 62.19,-49"/>
<polygon fill="midnightblue" stroke="midnightblue" points="130.45,-52.5 140.45,-49 130.45,-45.5 130.45,-52.5"/>
</g>
</g>
</svg>
