<?xml version="1.0" encoding="UTF-8" standalone="no"?>
<!DOCTYPE svg PUBLIC "-//W3C//DTD SVG 1.1//EN"
 "http://www.w3.org/Graphics/SVG/1.1/DTD/svg11.dtd">
<!-- Generated by graphviz version 2.43.0 (0)
 -->
<!-- Title: action_param_set_type_string Pages: 1 -->
<svg width="605pt" height="85pt"
 viewBox="0.00 0.00 605.00 85.00" xmlns="http://www.w3.org/2000/svg" xmlns:xlink="http://www.w3.org/1999/xlink">
<g id="graph0" class="graph" transform="scale(1 1) rotate(0) translate(4 81)">
<title>action_param_set_type_string</title>
<!-- Node1 -->
<g id="node1" class="node">
<title>Node1</title>
<g id="a_node1"><a xlink:title=" ">
<polygon fill="#bfbfbf" stroke="black" points="479,-14 479,-44 597,-44 597,-14 479,-14"/>
<text text-anchor="start" x="487" y="-32" font-family="Helvetica,sans-Serif" font-size="10.00">action_param_set_type</text>
<text text-anchor="middle" x="538" y="-21" font-family="Helvetica,sans-Serif" font-size="10.00">_string</text>
</a>
</g>
</g>
<!-- Node2 -->
<g id="node2" class="node">
<title>Node2</title>
<g id="a_node2"><a xlink:href="action_8c.html#aaa5c433092521a4fe5159eee76b1c141" target="_top" xlink:title="Sets the action parameters from a cJSON object.">
<polygon fill="none" stroke="black" points="312,-38.5 312,-57.5 443,-57.5 443,-38.5 312,-38.5"/>
<text text-anchor="middle" x="377.5" y="-45.5" font-family="Helvetica,sans-Serif" font-size="10.00">action_param_json_import</text>
</a>
</g>
</g>
<!-- Node1&#45;&gt;Node2 -->
<g id="edge1" class="edge">
<title>Node1&#45;&gt;Node2</title>
<path fill="none" stroke="midnightblue" d="M468.91,-37.16C460.32,-38.19 451.56,-39.24 443.03,-40.26"/>
<polygon fill="midnightblue" stroke="midnightblue" points="469.37,-40.63 478.88,-35.97 468.53,-33.68 469.37,-40.63"/>
</g>
<!-- Node7 -->
<g id="node7" class="node">
<title>Node7</title>
<g id="a_node7"><a xlink:href="classXCS.html#af3b9793a64608f827dabb989bf9b72ef" target="_top" xlink:title="Sets the action type.">
<polygon fill="none" stroke="black" points="333,-0.5 333,-19.5 422,-19.5 422,-0.5 333,-0.5"/>
<text text-anchor="middle" x="377.5" y="-7.5" font-family="Helvetica,sans-Serif" font-size="10.00">XCS::set_action</text>
</a>
</g>
</g>
<!-- Node1&#45;&gt;Node7 -->
<g id="edge6" class="edge">
<title>Node1&#45;&gt;Node7</title>
<path fill="none" stroke="midnightblue" d="M468.65,-20.81C452.9,-18.92 436.57,-16.96 422.21,-15.24"/>
<polygon fill="midnightblue" stroke="midnightblue" points="468.53,-24.32 478.88,-22.03 469.37,-17.37 468.53,-24.32"/>
</g>
<!-- Node3 -->
<g id="node3" class="node">
<title>Node3</title>
<g id="a_node3"><a xlink:href="param_8c.html#a130260988988535419aee8abe51986c1" target="_top" xlink:title="Sets the parameters from a json formatted string.">
<polygon fill="none" stroke="black" points="177,-57.5 177,-76.5 276,-76.5 276,-57.5 177,-57.5"/>
<text text-anchor="middle" x="226.5" y="-64.5" font-family="Helvetica,sans-Serif" font-size="10.00">param_json_import</text>
</a>
</g>
</g>
<!-- Node2&#45;&gt;Node3 -->
<g id="edge2" class="edge">
<title>Node2&#45;&gt;Node3</title>
<path fill="none" stroke="midnightblue" d="M301.47,-57.57C292.84,-58.67 284.22,-59.77 276.07,-60.81"/>
<polygon fill="midnightblue" stroke="midnightblue" points="302.1,-61.02 311.58,-56.28 301.22,-54.07 302.1,-61.02"/>
</g>
<!-- Node6 -->
<g id="node6" class="node">
<title>Node6</title>
<g id="a_node6"><a xlink:href="classXCS.html#a1298087e3a06734561965359b4d74468" target="_top" xlink:title="Sets the action type and initialisation arguments.">
<polygon fill="none" stroke="black" points="182,-19.5 182,-38.5 271,-38.5 271,-19.5 182,-19.5"/>
<text text-anchor="middle" x="226.5" y="-26.5" font-family="Helvetica,sans-Serif" font-size="10.00">XCS::set_action</text>
</a>
</g>
</g>
<!-- Node2&#45;&gt;Node6 -->
<g id="edge5" class="edge">
<title>Node2&#45;&gt;Node6</title>
<path fill="none" stroke="midnightblue" d="M301.62,-38.45C291.2,-37.12 280.79,-35.8 271.21,-34.57"/>
<polygon fill="midnightblue" stroke="midnightblue" points="301.22,-41.93 311.58,-39.72 302.1,-34.98 301.22,-41.93"/>
</g>
<!-- Node4 -->
<g id="node4" class="node">
<title>Node4</title>
<g id="a_node4"><a xlink:href="config_8c.html#a045a64a30d99a4bef2ebfd9b54aa9698" target="_top" xlink:title="Reads the specified configuration file.">
<polygon fill="none" stroke="black" points="74,-57.5 74,-76.5 141,-76.5 141,-57.5 74,-57.5"/>
<text text-anchor="middle" x="107.5" y="-64.5" font-family="Helvetica,sans-Serif" font-size="10.00">config_read</text>
</a>
</g>
</g>
<!-- Node3&#45;&gt;Node4 -->
<g id="edge3" class="edge">
<title>Node3&#45;&gt;Node4</title>
<path fill="none" stroke="midnightblue" d="M166.64,-67C157.86,-67 149.09,-67 141.13,-67"/>
<polygon fill="midnightblue" stroke="midnightblue" points="166.9,-70.5 176.9,-67 166.9,-63.5 166.9,-70.5"/>
</g>
<!-- Node5 -->
<g id="node5" class="node">
<title>Node5</title>
<g id="a_node5"><a xlink:href="main_8c.html#a3c04138a5bfe5d72780bb7e82a18e627" target="_top" xlink:title=" ">
<polygon fill="none" stroke="black" points="0,-57.5 0,-76.5 38,-76.5 38,-57.5 0,-57.5"/>
<text text-anchor="middle" x="19" y="-64.5" font-family="Helvetica,sans-Serif" font-size="10.00">main</text>
</a>
</g>
</g>
<!-- Node4&#45;&gt;Node5 -->
<g id="edge4" class="edge">
<title>Node4&#45;&gt;Node5</title>
<path fill="none" stroke="midnightblue" d="M63.73,-67C54.73,-67 45.7,-67 38.2,-67"/>
<polygon fill="midnightblue" stroke="midnightblue" points="63.8,-70.5 73.8,-67 63.8,-63.5 63.8,-70.5"/>
</g>
</g>
</svg>
