<?xml version="1.0" encoding="UTF-8" standalone="no"?>
<!DOCTYPE svg PUBLIC "-//W3C//DTD SVG 1.1//EN"
 "http://www.w3.org/Graphics/SVG/1.1/DTD/svg11.dtd">
<!-- Generated by graphviz version 2.43.0 (0)
 -->
<!-- Title: action_param_defaults Pages: 1 -->
<svg width="417pt" height="82pt"
 viewBox="0.00 0.00 417.00 82.00" xmlns="http://www.w3.org/2000/svg" xmlns:xlink="http://www.w3.org/1999/xlink">
<g id="graph0" class="graph" transform="scale(1 1) rotate(0) translate(4 78)">
<title>action_param_defaults</title>
<!-- Node1 -->
<g id="Node000001" class="node">
<title>Node1</title>
<g id="a_Node000001"><a xlink:title="Initialises default action parameters.">
<polygon fill="#999999" stroke="#666666" points="115,-37 0,-37 0,-18 115,-18 115,-37"/>
<text text-anchor="middle" x="57.5" y="-25" font-family="Helvetica,sans-Serif" font-size="10.00">action_param_defaults</text>
</a>
</g>
</g>
<!-- Node2 -->
<g id="Node000002" class="node">
<title>Node2</title>
<g id="a_Node000002"><a xlink:href="act__neural_8c.html#ae9c1117ca77c9dbe5b509c508483d56b" target="_top" xlink:title="Initialises default neural action parameters.">
<polygon fill="white" stroke="#666666" points="285,-56 151,-56 151,-37 285,-37 285,-56"/>
<text text-anchor="middle" x="218" y="-44" font-family="Helvetica,sans-Serif" font-size="10.00">act_neural_param_defaults</text>
</a>
</g>
</g>
<!-- Node1&#45;&gt;Node2 -->
<g id="edge1_Node000001_Node000002" class="edge">
<title>Node1&#45;&gt;Node2</title>
<g id="a_edge1_Node000001_Node000002"><a xlink:title=" ">
<path fill="none" stroke="#63b8ff" d="M115.27,-34.31C123.57,-35.3 132.23,-36.34 140.84,-37.37"/>
<polygon fill="#63b8ff" stroke="#63b8ff" points="140.56,-40.86 150.9,-38.58 141.39,-33.91 140.56,-40.86"/>
</a>
</g>
</g>
<!-- Node5 -->
<g id="Node000005" class="node">
<title>Node5</title>
<g id="a_Node000005"><a xlink:href="action_8c.html#a1a07a69a801b65052f3679d317507363" target="_top" xlink:title=" ">
<polygon fill="white" stroke="#666666" points="277,-19 159,-19 159,0 277,0 277,-19"/>
<text text-anchor="middle" x="218" y="-7" font-family="Helvetica,sans-Serif" font-size="10.00">action_param_set_type</text>
</a>
</g>
</g>
<!-- Node1&#45;&gt;Node5 -->
<g id="edge4_Node000001_Node000005" class="edge">
<title>Node1&#45;&gt;Node5</title>
<g id="a_edge4_Node000001_Node000005"><a xlink:title=" ">
<path fill="none" stroke="#63b8ff" d="M115.27,-21.05C126.09,-19.82 137.51,-18.53 148.64,-17.26"/>
<polygon fill="#63b8ff" stroke="#63b8ff" points="149.21,-20.72 158.75,-16.11 148.42,-13.77 149.21,-20.72"/>
</a>
</g>
</g>
<!-- Node3 -->
<g id="Node000003" class="node">
<title>Node3</title>
<g id="a_Node000003"><a xlink:href="neural__layer__args_8c.html#afbc76691bfb760e903155e0e41ae97bd" target="_top" xlink:title="Creates and returns a copy of specified layer parameters.">
<polygon fill="white" stroke="#666666" points="409,-74 321,-74 321,-55 409,-55 409,-74"/>
<text text-anchor="middle" x="365" y="-62" font-family="Helvetica,sans-Serif" font-size="10.00">layer_args_copy</text>
</a>
</g>
</g>
<!-- Node2&#45;&gt;Node3 -->
<g id="edge2_Node000002_Node000003" class="edge">
<title>Node2&#45;&gt;Node3</title>
<g id="a_edge2_Node000002_Node000003"><a xlink:title=" ">
<path fill="none" stroke="#63b8ff" d="M285.14,-54.71C293.74,-55.78 302.46,-56.86 310.81,-57.9"/>
<polygon fill="#63b8ff" stroke="#63b8ff" points="310.43,-61.38 320.79,-59.14 311.3,-54.43 310.43,-61.38"/>
</a>
</g>
</g>
<!-- Node4 -->
<g id="Node000004" class="node">
<title>Node4</title>
<g id="a_Node000004"><a xlink:href="neural__layer__args_8c.html#a3b06e82bed7fc9a8915d6187ce08d33e" target="_top" xlink:title="Sets layer parameters to default values.">
<polygon fill="white" stroke="#666666" points="405,-37 325,-37 325,-18 405,-18 405,-37"/>
<text text-anchor="middle" x="365" y="-25" font-family="Helvetica,sans-Serif" font-size="10.00">layer_args_init</text>
</a>
</g>
</g>
<!-- Node2&#45;&gt;Node4 -->
<g id="edge3_Node000002_Node000004" class="edge">
<title>Node2&#45;&gt;Node4</title>
<g id="a_edge3_Node000002_Node000004"><a xlink:title=" ">
<path fill="none" stroke="#63b8ff" d="M285.14,-37.83C295.12,-36.53 305.26,-35.2 314.81,-33.95"/>
<polygon fill="#63b8ff" stroke="#63b8ff" points="315.43,-37.39 324.89,-32.63 314.52,-30.45 315.43,-37.39"/>
</a>
</g>
</g>
</g>
</svg>
