<?xml version="1.0" encoding="UTF-8" standalone="no"?>
<!DOCTYPE svg PUBLIC "-//W3C//DTD SVG 1.1//EN"
 "http://www.w3.org/Graphics/SVG/1.1/DTD/svg11.dtd">
<!-- Generated by graphviz version 2.43.0 (0)
 -->
<!-- Title: action_type_as_int Pages: 1 -->
<svg width="824pt" height="143pt"
 viewBox="0.00 0.00 824.00 143.00" xmlns="http://www.w3.org/2000/svg" xmlns:xlink="http://www.w3.org/1999/xlink">
<g id="graph0" class="graph" transform="scale(1 1) rotate(0) translate(4 139)">
<title>action_type_as_int</title>
<!-- Node1 -->
<g id="node1" class="node">
<title>Node1</title>
<g id="a_node1"><a xlink:title="Returns the integer representation of an action type given a name.">
<polygon fill="#bfbfbf" stroke="black" points="718,-57.5 718,-76.5 816,-76.5 816,-57.5 718,-57.5"/>
<text text-anchor="middle" x="767" y="-64.5" font-family="Helvetica,sans-Serif" font-size="10.00">action_type_as_int</text>
</a>
</g>
</g>
<!-- Node2 -->
<g id="node2" class="node">
<title>Node2</title>
<g id="a_node2"><a xlink:href="action_8h.html#a8ddc4aefec0235d2af07465f6d48e2ce" target="_top" xlink:title="Creates an action from a cJSON object.">
<polygon fill="none" stroke="black" points="580,-79.5 580,-98.5 666,-98.5 666,-79.5 580,-79.5"/>
<text text-anchor="middle" x="623" y="-86.5" font-family="Helvetica,sans-Serif" font-size="10.00">act_json_import</text>
</a>
</g>
</g>
<!-- Node1&#45;&gt;Node2 -->
<g id="edge1" class="edge">
<title>Node1&#45;&gt;Node2</title>
<path fill="none" stroke="midnightblue" d="M707.93,-76C694,-78.15 679.38,-80.42 666.32,-82.44"/>
<polygon fill="midnightblue" stroke="midnightblue" points="708.58,-79.44 717.93,-74.45 707.51,-72.52 708.58,-79.44"/>
</g>
<!-- Node8 -->
<g id="node8" class="node">
<title>Node8</title>
<g id="a_node8"><a xlink:href="action_8c.html#aa39e0957258c0608cff224da76500d62" target="_top" xlink:title=" ">
<polygon fill="none" stroke="black" points="564,-30 564,-60 682,-60 682,-30 564,-30"/>
<text text-anchor="start" x="572" y="-48" font-family="Helvetica,sans-Serif" font-size="10.00">action_param_set_type</text>
<text text-anchor="middle" x="623" y="-37" font-family="Helvetica,sans-Serif" font-size="10.00">_string</text>
</a>
</g>
</g>
<!-- Node1&#45;&gt;Node8 -->
<g id="edge7" class="edge">
<title>Node1&#45;&gt;Node8</title>
<path fill="none" stroke="midnightblue" d="M708.03,-58.02C699.48,-56.69 690.67,-55.33 682.11,-54"/>
<polygon fill="midnightblue" stroke="midnightblue" points="707.51,-61.48 717.93,-59.55 708.58,-54.56 707.51,-61.48"/>
</g>
<!-- Node3 -->
<g id="node3" class="node">
<title>Node3</title>
<g id="a_node3"><a xlink:href="cl_8c.html#ada9e7ce4c9c81af8ea0d1fd0dda59e3c" target="_top" xlink:title="Creates a classifier from a cJSON object.">
<polygon fill="none" stroke="black" points="422.5,-79.5 422.5,-98.5 502.5,-98.5 502.5,-79.5 422.5,-79.5"/>
<text text-anchor="middle" x="462.5" y="-86.5" font-family="Helvetica,sans-Serif" font-size="10.00">cl_json_import</text>
</a>
</g>
</g>
<!-- Node2&#45;&gt;Node3 -->
<g id="edge2" class="edge">
<title>Node2&#45;&gt;Node3</title>
<path fill="none" stroke="midnightblue" d="M569.83,-89C547.98,-89 523.01,-89 502.76,-89"/>
<polygon fill="midnightblue" stroke="midnightblue" points="569.94,-92.5 579.94,-89 569.94,-85.5 569.94,-92.5"/>
</g>
<!-- Node4 -->
<g id="node4" class="node">
<title>Node4</title>
<g id="a_node4"><a xlink:href="clset_8c.html#a9f71f62cb4c5216fb3a3e76a6b3df82f" target="_top" xlink:title="Creates a classifier from cJSON and inserts in the population set.">
<polygon fill="none" stroke="black" points="266.5,-79.5 266.5,-98.5 356.5,-98.5 356.5,-79.5 266.5,-79.5"/>
<text text-anchor="middle" x="311.5" y="-86.5" font-family="Helvetica,sans-Serif" font-size="10.00">clset_json_insert</text>
</a>
</g>
</g>
<!-- Node3&#45;&gt;Node4 -->
<g id="edge3" class="edge">
<title>Node3&#45;&gt;Node4</title>
<path fill="none" stroke="midnightblue" d="M412.35,-89C394.37,-89 374.16,-89 356.64,-89"/>
<polygon fill="midnightblue" stroke="midnightblue" points="412.35,-92.5 422.35,-89 412.35,-85.5 412.35,-92.5"/>
</g>
<!-- Node5 -->
<g id="node5" class="node">
<title>Node5</title>
<g id="a_node5"><a xlink:href="classXCS.html#af888b891afb66fbe06ba4919ef16adf9" target="_top" xlink:title="Creates classifiers from JSON and inserts into the population.">
<polygon fill="none" stroke="black" points="128.5,-115.5 128.5,-134.5 219.5,-134.5 219.5,-115.5 128.5,-115.5"/>
<text text-anchor="middle" x="174" y="-122.5" font-family="Helvetica,sans-Serif" font-size="10.00">XCS::json_insert</text>
</a>
</g>
</g>
<!-- Node4&#45;&gt;Node5 -->
<g id="edge4" class="edge">
<title>Node4&#45;&gt;Node5</title>
<path fill="none" stroke="midnightblue" d="M264.57,-101.2C247.13,-105.84 227.53,-111.04 211.12,-115.4"/>
<polygon fill="midnightblue" stroke="midnightblue" points="265.78,-104.5 274.54,-98.55 263.98,-97.74 265.78,-104.5"/>
</g>
<!-- Node7 -->
<g id="node7" class="node">
<title>Node7</title>
<g id="a_node7"><a xlink:href="classXCS.html#a61361120dbba1dba3ca49b53ded91edb" target="_top" xlink:title="Creates a classifier from JSON and inserts into the population.">
<polygon fill="none" stroke="black" points="122,-77.5 122,-96.5 226,-96.5 226,-77.5 122,-77.5"/>
<text text-anchor="middle" x="174" y="-84.5" font-family="Helvetica,sans-Serif" font-size="10.00">XCS::json_insert_cl</text>
</a>
</g>
</g>
<!-- Node4&#45;&gt;Node7 -->
<g id="edge6" class="edge">
<title>Node4&#45;&gt;Node7</title>
<path fill="none" stroke="midnightblue" d="M256.01,-88.2C246.12,-88.05 235.84,-87.9 226.05,-87.75"/>
<polygon fill="midnightblue" stroke="midnightblue" points="256.08,-91.7 266.13,-88.35 256.19,-84.7 256.08,-91.7"/>
</g>
<!-- Node6 -->
<g id="node6" class="node">
<title>Node6</title>
<g id="a_node6"><a xlink:href="classXCS.html#a1a882e28a64c4e2b92ae234d79f327de" target="_top" xlink:title="Reads classifiers from a JSON file and adds to the population.">
<polygon fill="none" stroke="black" points="0,-115.5 0,-134.5 86,-134.5 86,-115.5 0,-115.5"/>
<text text-anchor="middle" x="43" y="-122.5" font-family="Helvetica,sans-Serif" font-size="10.00">XCS::json_read</text>
</a>
</g>
</g>
<!-- Node5&#45;&gt;Node6 -->
<g id="edge5" class="edge">
<title>Node5&#45;&gt;Node6</title>
<path fill="none" stroke="midnightblue" d="M118.11,-125C107.39,-125 96.3,-125 86.07,-125"/>
<polygon fill="midnightblue" stroke="midnightblue" points="118.24,-128.5 128.24,-125 118.24,-121.5 118.24,-128.5"/>
</g>
<!-- Node9 -->
<g id="node9" class="node">
<title>Node9</title>
<g id="a_node9"><a xlink:href="param_8c.html#a86522321fabfe9b21b98617befc4ffa6" target="_top" xlink:title="Sets the action parameters from a json formatted string.">
<polygon fill="none" stroke="black" points="397,-38.5 397,-57.5 528,-57.5 528,-38.5 397,-38.5"/>
<text text-anchor="middle" x="462.5" y="-45.5" font-family="Helvetica,sans-Serif" font-size="10.00">param_json_import_action</text>
</a>
</g>
</g>
<!-- Node8&#45;&gt;Node9 -->
<g id="edge8" class="edge">
<title>Node8&#45;&gt;Node9</title>
<path fill="none" stroke="midnightblue" d="M553.63,-46.29C545.13,-46.45 536.47,-46.62 528.03,-46.78"/>
<polygon fill="midnightblue" stroke="midnightblue" points="553.95,-49.79 563.88,-46.1 553.82,-42.79 553.95,-49.79"/>
</g>
<!-- Node13 -->
<g id="node13" class="node">
<title>Node13</title>
<g id="a_node13"><a xlink:href="classXCS.html#af3b9793a64608f827dabb989bf9b72ef" target="_top" xlink:title="Sets the action type.">
<polygon fill="none" stroke="black" points="418,-0.5 418,-19.5 507,-19.5 507,-0.5 418,-0.5"/>
<text text-anchor="middle" x="462.5" y="-7.5" font-family="Helvetica,sans-Serif" font-size="10.00">XCS::set_action</text>
</a>
</g>
</g>
<!-- Node8&#45;&gt;Node13 -->
<g id="edge12" class="edge">
<title>Node8&#45;&gt;Node13</title>
<path fill="none" stroke="midnightblue" d="M554,-29.98C537.97,-26.44 521.31,-22.76 506.72,-19.54"/>
<polygon fill="midnightblue" stroke="midnightblue" points="553.36,-33.43 563.88,-32.17 554.87,-26.59 553.36,-33.43"/>
</g>
<!-- Node10 -->
<g id="node10" class="node">
<title>Node10</title>
<g id="a_node10"><a xlink:href="param_8c.html#a130260988988535419aee8abe51986c1" target="_top" xlink:title="Sets the parameters from a json formatted string.">
<polygon fill="none" stroke="black" points="262,-38.5 262,-57.5 361,-57.5 361,-38.5 262,-38.5"/>
<text text-anchor="middle" x="311.5" y="-45.5" font-family="Helvetica,sans-Serif" font-size="10.00">param_json_import</text>
</a>
</g>
</g>
<!-- Node9&#45;&gt;Node10 -->
<g id="edge9" class="edge">
<title>Node9&#45;&gt;Node10</title>
<path fill="none" stroke="midnightblue" d="M386.47,-48C377.84,-48 369.22,-48 361.07,-48"/>
<polygon fill="midnightblue" stroke="midnightblue" points="386.58,-51.5 396.58,-48 386.58,-44.5 386.58,-51.5"/>
</g>
<!-- Node11 -->
<g id="node11" class="node">
<title>Node11</title>
<g id="a_node11"><a xlink:href="config_8c.html#a045a64a30d99a4bef2ebfd9b54aa9698" target="_top" xlink:title="Reads the specified configuration file.">
<polygon fill="none" stroke="black" points="140.5,-38.5 140.5,-57.5 207.5,-57.5 207.5,-38.5 140.5,-38.5"/>
<text text-anchor="middle" x="174" y="-45.5" font-family="Helvetica,sans-Serif" font-size="10.00">config_read</text>
</a>
</g>
</g>
<!-- Node10&#45;&gt;Node11 -->
<g id="edge10" class="edge">
<title>Node10&#45;&gt;Node11</title>
<path fill="none" stroke="midnightblue" d="M251.63,-48C236.5,-48 220.77,-48 207.53,-48"/>
<polygon fill="midnightblue" stroke="midnightblue" points="251.96,-51.5 261.96,-48 251.96,-44.5 251.96,-51.5"/>
</g>
<!-- Node12 -->
<g id="node12" class="node">
<title>Node12</title>
<g id="a_node12"><a xlink:href="main_8c.html#a3c04138a5bfe5d72780bb7e82a18e627" target="_top" xlink:title=" ">
<polygon fill="none" stroke="black" points="24,-38.5 24,-57.5 62,-57.5 62,-38.5 24,-38.5"/>
<text text-anchor="middle" x="43" y="-45.5" font-family="Helvetica,sans-Serif" font-size="10.00">main</text>
</a>
</g>
</g>
<!-- Node11&#45;&gt;Node12 -->
<g id="edge11" class="edge">
<title>Node11&#45;&gt;Node12</title>
<path fill="none" stroke="midnightblue" d="M130.18,-48C107.08,-48 79.78,-48 62.19,-48"/>
<polygon fill="midnightblue" stroke="midnightblue" points="130.45,-51.5 140.45,-48 130.45,-44.5 130.45,-51.5"/>
</g>
<!-- Node14 -->
<g id="node14" class="node">
<title>Node14</title>
<g id="a_node14"><a xlink:href="classXCS.html#a1298087e3a06734561965359b4d74468" target="_top" xlink:title="Sets the action type and initialisation arguments.">
<polygon fill="none" stroke="black" points="267,-0.5 267,-19.5 356,-19.5 356,-0.5 267,-0.5"/>
<text text-anchor="middle" x="311.5" y="-7.5" font-family="Helvetica,sans-Serif" font-size="10.00">XCS::set_action</text>
</a>
</g>
</g>
<!-- Node13&#45;&gt;Node14 -->
<g id="edge13" class="edge">
<title>Node13&#45;&gt;Node14</title>
<path fill="none" stroke="midnightblue" d="M407.33,-10C390.48,-10 372.12,-10 356.09,-10"/>
<polygon fill="midnightblue" stroke="midnightblue" points="407.6,-13.5 417.6,-10 407.6,-6.5 407.6,-13.5"/>
</g>
</g>
</svg>
