<?xml version="1.0" encoding="UTF-8" standalone="no"?>
<!DOCTYPE svg PUBLIC "-//W3C//DTD SVG 1.1//EN"
 "http://www.w3.org/Graphics/SVG/1.1/DTD/svg11.dtd">
<!-- Generated by graphviz version 2.43.0 (0)
 -->
<!-- Title: blas_mul Pages: 1 -->
<svg width="240pt" height="66pt"
 viewBox="0.00 0.00 240.00 66.00" xmlns="http://www.w3.org/2000/svg" xmlns:xlink="http://www.w3.org/1999/xlink">
<g id="graph0" class="graph" transform="scale(1 1) rotate(0) translate(4 62)">
<title>blas_mul</title>
<!-- Node1 -->
<g id="node1" class="node">
<title>Node1</title>
<g id="a_node1"><a xlink:title="Multiplies vector X by the vector Y and stores the result in vector Y.">
<polygon fill="#bfbfbf" stroke="black" points="176,-19.5 176,-38.5 232,-38.5 232,-19.5 176,-19.5"/>
<text text-anchor="middle" x="204" y="-26.5" font-family="Helvetica,sans-Serif" font-size="10.00">blas_mul</text>
</a>
</g>
</g>
<!-- Node2 -->
<g id="node2" class="node">
<title>Node2</title>
<g id="a_node2"><a xlink:href="neural__layer__lstm_8c.html#a00f097f7f5277fa3396e1feefc231e91" target="_top" xlink:title="Backward propagates an LSTM layer.">
<polygon fill="none" stroke="black" points="0,-38.5 0,-57.5 140,-57.5 140,-38.5 0,-38.5"/>
<text text-anchor="middle" x="70" y="-45.5" font-family="Helvetica,sans-Serif" font-size="10.00">neural_layer_lstm_backward</text>
</a>
</g>
</g>
<!-- Node1&#45;&gt;Node2 -->
<g id="edge1" class="edge">
<title>Node1&#45;&gt;Node2</title>
<path fill="none" stroke="midnightblue" d="M165.91,-34.34C156.95,-35.63 147.11,-37.05 137.25,-38.46"/>
<polygon fill="midnightblue" stroke="midnightblue" points="166.57,-37.78 175.97,-32.89 165.57,-30.85 166.57,-37.78"/>
</g>
<!-- Node3 -->
<g id="node3" class="node">
<title>Node3</title>
<g id="a_node3"><a xlink:href="neural__layer__lstm_8c.html#af2c3a4a9e6dd75cd00083c38733bddb0" target="_top" xlink:title="Forward propagates an LSTM layer.">
<polygon fill="none" stroke="black" points="4.5,-0.5 4.5,-19.5 135.5,-19.5 135.5,-0.5 4.5,-0.5"/>
<text text-anchor="middle" x="70" y="-7.5" font-family="Helvetica,sans-Serif" font-size="10.00">neural_layer_lstm_forward</text>
</a>
</g>
</g>
<!-- Node1&#45;&gt;Node3 -->
<g id="edge2" class="edge">
<title>Node1&#45;&gt;Node3</title>
<path fill="none" stroke="midnightblue" d="M165.79,-23.64C156.37,-22.29 145.96,-20.79 135.61,-19.3"/>
<polygon fill="midnightblue" stroke="midnightblue" points="165.57,-27.15 175.97,-25.11 166.57,-20.22 165.57,-27.15"/>
</g>
</g>
</svg>
