<?xml version="1.0" encoding="UTF-8" standalone="no"?>
<!DOCTYPE svg PUBLIC "-//W3C//DTD SVG 1.1//EN"
 "http://www.w3.org/Graphics/SVG/1.1/DTD/svg11.dtd">
<!-- Generated by graphviz version 2.43.0 (0)
 -->
<!-- Title: blas.h Pages: 1 -->
<svg width="780pt" height="84pt"
 viewBox="0.00 0.00 780.00 84.00" xmlns="http://www.w3.org/2000/svg" xmlns:xlink="http://www.w3.org/1999/xlink">
<g id="graph0" class="graph" transform="scale(1 1) rotate(0) translate(4 80)">
<title>blas.h</title>
<!-- Node1 -->
<g id="node1" class="node">
<title>Node1</title>
<g id="a_node1"><a xlink:title="Basic linear algebra functions.">
<polygon fill="#bfbfbf" stroke="black" points="395,-56.5 395,-75.5 438,-75.5 438,-56.5 395,-56.5"/>
<text text-anchor="middle" x="416.5" y="-63.5" font-family="Helvetica,sans-Serif" font-size="10.00">blas.h</text>
</a>
</g>
</g>
<!-- Node2 -->
<g id="node2" class="node">
<title>Node2</title>
<g id="a_node2"><a xlink:href="blas_8c.html" target="_top" xlink:title="Basic linear algebra functions.">
<polygon fill="none" stroke="black" points="0,-0.5 0,-19.5 43,-19.5 43,-0.5 0,-0.5"/>
<text text-anchor="middle" x="21.5" y="-7.5" font-family="Helvetica,sans-Serif" font-size="10.00">blas.c</text>
</a>
</g>
</g>
<!-- Node1&#45;&gt;Node2 -->
<g id="edge1" class="edge">
<title>Node1&#45;&gt;Node2</title>
<path fill="none" stroke="midnightblue" d="M384.8,-62.79C321.26,-57.99 173.96,-44.97 52.5,-20 49.43,-19.37 46.21,-18.58 43.07,-17.74"/>
<polygon fill="midnightblue" stroke="midnightblue" points="384.74,-66.3 394.97,-63.54 385.26,-59.32 384.74,-66.3"/>
</g>
<!-- Node3 -->
<g id="node3" class="node">
<title>Node3</title>
<g id="a_node3"><a xlink:href="neural__layer__connected_8c.html" target="_top" xlink:title="An implementation of a fully&#45;connected layer of perceptrons.">
<polygon fill="none" stroke="black" points="61.5,-0.5 61.5,-19.5 189.5,-19.5 189.5,-0.5 61.5,-0.5"/>
<text text-anchor="middle" x="125.5" y="-7.5" font-family="Helvetica,sans-Serif" font-size="10.00">neural_layer_connected.c</text>
</a>
</g>
</g>
<!-- Node1&#45;&gt;Node3 -->
<g id="edge2" class="edge">
<title>Node1&#45;&gt;Node3</title>
<path fill="none" stroke="midnightblue" d="M384.71,-59.1C333.08,-49.52 230.8,-30.54 171.32,-19.5"/>
<polygon fill="midnightblue" stroke="midnightblue" points="384.16,-62.56 394.63,-60.94 385.43,-55.68 384.16,-62.56"/>
</g>
<!-- Node4 -->
<g id="node4" class="node">
<title>Node4</title>
<g id="a_node4"><a xlink:href="neural__layer__convolutional_8c.html" target="_top" xlink:title="An implementation of a 2D convolutional layer.">
<polygon fill="none" stroke="black" points="207.5,-0.5 207.5,-19.5 347.5,-19.5 347.5,-0.5 207.5,-0.5"/>
<text text-anchor="middle" x="277.5" y="-7.5" font-family="Helvetica,sans-Serif" font-size="10.00">neural_layer_convolutional.c</text>
</a>
</g>
</g>
<!-- Node1&#45;&gt;Node4 -->
<g id="edge3" class="edge">
<title>Node1&#45;&gt;Node4</title>
<path fill="none" stroke="midnightblue" d="M385.34,-52.9C359.25,-42.76 322.66,-28.55 299.52,-19.56"/>
<polygon fill="midnightblue" stroke="midnightblue" points="384.19,-56.2 394.78,-56.56 386.73,-49.68 384.19,-56.2"/>
</g>
<!-- Node5 -->
<g id="node5" class="node">
<title>Node5</title>
<g id="a_node5"><a xlink:href="neural__layer__lstm_8c.html" target="_top" xlink:title="An implementation of a long short&#45;term memory layer.">
<polygon fill="none" stroke="black" points="366,-0.5 366,-19.5 467,-19.5 467,-0.5 366,-0.5"/>
<text text-anchor="middle" x="416.5" y="-7.5" font-family="Helvetica,sans-Serif" font-size="10.00">neural_layer_lstm.c</text>
</a>
</g>
</g>
<!-- Node1&#45;&gt;Node5 -->
<g id="edge4" class="edge">
<title>Node1&#45;&gt;Node5</title>
<path fill="none" stroke="midnightblue" d="M416.5,-45.8C416.5,-36.91 416.5,-26.78 416.5,-19.75"/>
<polygon fill="midnightblue" stroke="midnightblue" points="413,-46.08 416.5,-56.08 420,-46.08 413,-46.08"/>
</g>
<!-- Node6 -->
<g id="node6" class="node">
<title>Node6</title>
<g id="a_node6"><a xlink:href="neural__layer__recurrent_8c.html" target="_top" xlink:title="An implementation of a recurrent layer of perceptrons.">
<polygon fill="none" stroke="black" points="485,-0.5 485,-19.5 606,-19.5 606,-0.5 485,-0.5"/>
<text text-anchor="middle" x="545.5" y="-7.5" font-family="Helvetica,sans-Serif" font-size="10.00">neural_layer_recurrent.c</text>
</a>
</g>
</g>
<!-- Node1&#45;&gt;Node6 -->
<g id="edge5" class="edge">
<title>Node1&#45;&gt;Node6</title>
<path fill="none" stroke="midnightblue" d="M446.35,-52.5C470.54,-42.38 503.96,-28.39 525.16,-19.52"/>
<polygon fill="midnightblue" stroke="midnightblue" points="444.81,-49.35 436.94,-56.44 447.52,-55.81 444.81,-49.35"/>
</g>
<!-- Node7 -->
<g id="node7" class="node">
<title>Node7</title>
<g id="a_node7"><a xlink:href="pred__nlms_8c.html" target="_top" xlink:title="Normalised least mean squares prediction functions.">
<polygon fill="none" stroke="black" points="624.5,-0.5 624.5,-19.5 694.5,-19.5 694.5,-0.5 624.5,-0.5"/>
<text text-anchor="middle" x="659.5" y="-7.5" font-family="Helvetica,sans-Serif" font-size="10.00">pred_nlms.c</text>
</a>
</g>
</g>
<!-- Node1&#45;&gt;Node7 -->
<g id="edge6" class="edge">
<title>Node1&#45;&gt;Node7</title>
<path fill="none" stroke="midnightblue" d="M447.95,-58.01C493.37,-47.92 577.09,-29.31 624.45,-18.79"/>
<polygon fill="midnightblue" stroke="midnightblue" points="447.07,-54.62 438.06,-60.21 448.59,-61.46 447.07,-54.62"/>
</g>
<!-- Node8 -->
<g id="node8" class="node">
<title>Node8</title>
<g id="a_node8"><a xlink:href="pred__rls_8c.html" target="_top" xlink:title="Recursive least mean squares prediction functions.">
<polygon fill="none" stroke="black" points="713,-0.5 713,-19.5 772,-19.5 772,-0.5 713,-0.5"/>
<text text-anchor="middle" x="742.5" y="-7.5" font-family="Helvetica,sans-Serif" font-size="10.00">pred_rls.c</text>
</a>
</g>
</g>
<!-- Node1&#45;&gt;Node8 -->
<g id="edge7" class="edge">
<title>Node1&#45;&gt;Node8</title>
<path fill="none" stroke="midnightblue" d="M448.33,-60.76C501.42,-53.53 611.31,-37.84 703.5,-20 706.5,-19.42 709.62,-18.77 712.74,-18.1"/>
<polygon fill="midnightblue" stroke="midnightblue" points="447.63,-57.33 438.19,-62.14 448.57,-64.26 447.63,-57.33"/>
</g>
</g>
</svg>
