<?xml version="1.0" encoding="UTF-8" standalone="no"?>
<!DOCTYPE svg PUBLIC "-//W3C//DTD SVG 1.1//EN"
 "http://www.w3.org/Graphics/SVG/1.1/DTD/svg11.dtd">
<!-- Generated by graphviz version 2.43.0 (0)
 -->
<!-- Title: blas_scal Pages: 1 -->
<svg width="233pt" height="127pt"
 viewBox="0.00 0.00 233.00 126.50" xmlns="http://www.w3.org/2000/svg" xmlns:xlink="http://www.w3.org/1999/xlink">
<g id="graph0" class="graph" transform="scale(1 1) rotate(0) translate(4 122.5)">
<title>blas_scal</title>
<!-- Node1 -->
<g id="node1" class="node">
<title>Node1</title>
<g id="a_node1"><a xlink:title="Scales vector X by the scalar ALPHA and overwrites it with the result.">
<polygon fill="#bfbfbf" stroke="black" points="167,-44.5 167,-63.5 225,-63.5 225,-44.5 167,-44.5"/>
<text text-anchor="middle" x="196" y="-51.5" font-family="Helvetica,sans-Serif" font-size="10.00">blas_scal</text>
</a>
</g>
</g>
<!-- Node2 -->
<g id="node2" class="node">
<title>Node2</title>
<g id="a_node2"><a xlink:href="neural__layer__connected_8c.html#afb4c050b212b3a0dd87d66d86b57adb7" target="_top" xlink:title="Updates the weights and biases of a connected layer.">
<polygon fill="none" stroke="black" points="6,-88 6,-118 125,-118 125,-88 6,-88"/>
<text text-anchor="start" x="14" y="-106" font-family="Helvetica,sans-Serif" font-size="10.00">neural_layer_connected</text>
<text text-anchor="middle" x="65.5" y="-95" font-family="Helvetica,sans-Serif" font-size="10.00">_update</text>
</a>
</g>
</g>
<!-- Node1&#45;&gt;Node2 -->
<g id="edge1" class="edge">
<title>Node1&#45;&gt;Node2</title>
<path fill="none" stroke="midnightblue" d="M161.33,-67.27C151.56,-71.09 140.86,-75.24 131,-79 123.3,-81.94 115.06,-85.03 107.14,-87.99"/>
<polygon fill="midnightblue" stroke="midnightblue" points="162.69,-70.5 170.72,-63.59 160.14,-63.98 162.69,-70.5"/>
</g>
<!-- Node3 -->
<g id="node3" class="node">
<title>Node3</title>
<g id="a_node3"><a xlink:href="neural__layer__convolutional_8c.html#a3e2922534009f8942017c7621f3b42e8" target="_top" xlink:title="Updates the weights and biases of a convolutional layer.">
<polygon fill="none" stroke="black" points="0,-39 0,-69 131,-69 131,-39 0,-39"/>
<text text-anchor="start" x="8" y="-57" font-family="Helvetica,sans-Serif" font-size="10.00">neural_layer_convolutional</text>
<text text-anchor="middle" x="65.5" y="-46" font-family="Helvetica,sans-Serif" font-size="10.00">_update</text>
</a>
</g>
</g>
<!-- Node1&#45;&gt;Node3 -->
<g id="edge2" class="edge">
<title>Node1&#45;&gt;Node3</title>
<path fill="none" stroke="midnightblue" d="M156.66,-54C148.62,-54 139.94,-54 131.24,-54"/>
<polygon fill="midnightblue" stroke="midnightblue" points="156.8,-57.5 166.8,-54 156.8,-50.5 156.8,-57.5"/>
</g>
<!-- Node4 -->
<g id="node4" class="node">
<title>Node4</title>
<g id="a_node4"><a xlink:href="pred__rls_8c.html#a34245842989abd5abef6b922983216d9" target="_top" xlink:title="Updates an RLS prediction for a given input and truth sample.">
<polygon fill="none" stroke="black" points="22.5,-0.5 22.5,-19.5 108.5,-19.5 108.5,-0.5 22.5,-0.5"/>
<text text-anchor="middle" x="65.5" y="-7.5" font-family="Helvetica,sans-Serif" font-size="10.00">pred_rls_update</text>
</a>
</g>
</g>
<!-- Node1&#45;&gt;Node4 -->
<g id="edge3" class="edge">
<title>Node1&#45;&gt;Node4</title>
<path fill="none" stroke="midnightblue" d="M160.87,-40.78C151.25,-37.17 140.75,-33.34 131,-30 120.46,-26.39 108.86,-22.71 98.44,-19.5"/>
<polygon fill="midnightblue" stroke="midnightblue" points="159.91,-44.16 170.5,-44.43 162.39,-37.62 159.91,-44.16"/>
</g>
</g>
</svg>
