<?xml version="1.0" encoding="UTF-8" standalone="no"?>
<!DOCTYPE svg PUBLIC "-//W3C//DTD SVG 1.1//EN"
 "http://www.w3.org/Graphics/SVG/1.1/DTD/svg11.dtd">
<!-- Generated by graphviz version 2.43.0 (0)
 -->
<!-- Title: blas.h Pages: 1 -->
<svg width="780pt" height="82pt"
 viewBox="0.00 0.00 780.00 82.00" xmlns="http://www.w3.org/2000/svg" xmlns:xlink="http://www.w3.org/1999/xlink">
<g id="graph0" class="graph" transform="scale(1 1) rotate(0) translate(4 78)">
<title>blas.h</title>
<!-- Node1 -->
<g id="Node000001" class="node">
<title>Node1</title>
<g id="a_Node000001"><a xlink:title="Basic linear algebra functions.">
<polygon fill="#999999" stroke="#666666" points="438,-74 395,-74 395,-55 438,-55 438,-74"/>
<text text-anchor="middle" x="416.5" y="-62" font-family="Helvetica,sans-Serif" font-size="10.00">blas.h</text>
</a>
</g>
</g>
<!-- Node2 -->
<g id="Node000002" class="node">
<title>Node2</title>
<g id="a_Node000002"><a xlink:href="blas_8c.html" target="_top" xlink:title="Basic linear algebra functions.">
<polygon fill="white" stroke="#666666" points="43,-19 0,-19 0,0 43,0 43,-19"/>
<text text-anchor="middle" x="21.5" y="-7" font-family="Helvetica,sans-Serif" font-size="10.00">blas.c</text>
</a>
</g>
</g>
<!-- Node1&#45;&gt;Node2 -->
<g id="edge1_Node000001_Node000002" class="edge">
<title>Node1&#45;&gt;Node2</title>
<g id="a_edge1_Node000001_Node000002"><a xlink:title=" ">
<path fill="none" stroke="#63b8ff" d="M384.84,-61.19C321.34,-56.23 174.14,-42.98 52.5,-19 49.43,-18.4 46.23,-17.65 43.08,-16.85"/>
<polygon fill="#63b8ff" stroke="#63b8ff" points="384.75,-64.7 394.99,-61.97 385.29,-57.72 384.75,-64.7"/>
</a>
</g>
</g>
<!-- Node3 -->
<g id="Node000003" class="node">
<title>Node3</title>
<g id="a_Node000003"><a xlink:href="neural__layer__connected_8c.html" target="_top" xlink:title="An implementation of a fully&#45;connected layer of perceptrons.">
<polygon fill="white" stroke="#666666" points="189.5,-19 61.5,-19 61.5,0 189.5,0 189.5,-19"/>
<text text-anchor="middle" x="125.5" y="-7" font-family="Helvetica,sans-Serif" font-size="10.00">neural_layer_connected.c</text>
</a>
</g>
</g>
<!-- Node1&#45;&gt;Node3 -->
<g id="edge2_Node000001_Node000003" class="edge">
<title>Node1&#45;&gt;Node3</title>
<g id="a_edge2_Node000001_Node000003"><a xlink:title=" ">
<path fill="none" stroke="#63b8ff" d="M384.77,-57.72C333.47,-48.38 232.04,-29.91 172.39,-19.04"/>
<polygon fill="#63b8ff" stroke="#63b8ff" points="384.16,-61.17 394.63,-59.52 385.42,-54.28 384.16,-61.17"/>
</a>
</g>
</g>
<!-- Node4 -->
<g id="Node000004" class="node">
<title>Node4</title>
<g id="a_Node000004"><a xlink:href="neural__layer__convolutional_8c.html" target="_top" xlink:title="An implementation of a 2D convolutional layer.">
<polygon fill="white" stroke="#666666" points="347.5,-19 207.5,-19 207.5,0 347.5,0 347.5,-19"/>
<text text-anchor="middle" x="277.5" y="-7" font-family="Helvetica,sans-Serif" font-size="10.00">neural_layer_convolutional.c</text>
</a>
</g>
</g>
<!-- Node1&#45;&gt;Node4 -->
<g id="edge3_Node000001_Node000004" class="edge">
<title>Node1&#45;&gt;Node4</title>
<g id="a_edge3_Node000001_Node000004"><a xlink:title=" ">
<path fill="none" stroke="#63b8ff" d="M385.4,-51.64C359.48,-41.76 323.17,-27.91 299.99,-19.07"/>
<polygon fill="#63b8ff" stroke="#63b8ff" points="384.19,-54.93 394.78,-55.22 386.68,-48.39 384.19,-54.93"/>
</a>
</g>
</g>
<!-- Node5 -->
<g id="Node000005" class="node">
<title>Node5</title>
<g id="a_Node000005"><a xlink:href="neural__layer__lstm_8c.html" target="_top" xlink:title="An implementation of a long short&#45;term memory layer.">
<polygon fill="white" stroke="#666666" points="467,-19 366,-19 366,0 467,0 467,-19"/>
<text text-anchor="middle" x="416.5" y="-7" font-family="Helvetica,sans-Serif" font-size="10.00">neural_layer_lstm.c</text>
</a>
</g>
</g>
<!-- Node1&#45;&gt;Node5 -->
<g id="edge4_Node000001_Node000005" class="edge">
<title>Node1&#45;&gt;Node5</title>
<g id="a_edge4_Node000001_Node000005"><a xlink:title=" ">
<path fill="none" stroke="#63b8ff" d="M416.5,-44.66C416.5,-35.93 416.5,-25.99 416.5,-19.09"/>
<polygon fill="#63b8ff" stroke="#63b8ff" points="413,-44.75 416.5,-54.75 420,-44.75 413,-44.75"/>
</a>
</g>
</g>
<!-- Node6 -->
<g id="Node000006" class="node">
<title>Node6</title>
<g id="a_Node000006"><a xlink:href="neural__layer__recurrent_8c.html" target="_top" xlink:title="An implementation of a recurrent layer of perceptrons.">
<polygon fill="white" stroke="#666666" points="606,-19 485,-19 485,0 606,0 606,-19"/>
<text text-anchor="middle" x="545.5" y="-7" font-family="Helvetica,sans-Serif" font-size="10.00">neural_layer_recurrent.c</text>
</a>
</g>
</g>
<!-- Node1&#45;&gt;Node6 -->
<g id="edge5_Node000001_Node000006" class="edge">
<title>Node1&#45;&gt;Node6</title>
<g id="a_edge5_Node000001_Node000006"><a xlink:title=" ">
<path fill="none" stroke="#63b8ff" d="M446.54,-51.16C470.42,-41.35 503.22,-27.87 524.4,-19.17"/>
<polygon fill="#63b8ff" stroke="#63b8ff" points="445.15,-47.95 437.23,-54.98 447.81,-54.42 445.15,-47.95"/>
</a>
</g>
</g>
<!-- Node7 -->
<g id="Node000007" class="node">
<title>Node7</title>
<g id="a_Node000007"><a xlink:href="pred__nlms_8c.html" target="_top" xlink:title="Normalised least mean squares prediction functions.">
<polygon fill="white" stroke="#666666" points="694.5,-19 624.5,-19 624.5,0 694.5,0 694.5,-19"/>
<text text-anchor="middle" x="659.5" y="-7" font-family="Helvetica,sans-Serif" font-size="10.00">pred_nlms.c</text>
</a>
</g>
</g>
<!-- Node1&#45;&gt;Node7 -->
<g id="edge6_Node000001_Node000007" class="edge">
<title>Node1&#45;&gt;Node7</title>
<g id="a_edge6_Node000001_Node000007"><a xlink:title=" ">
<path fill="none" stroke="#63b8ff" d="M447.95,-56.64C493.37,-46.73 577.09,-28.48 624.45,-18.15"/>
<polygon fill="#63b8ff" stroke="#63b8ff" points="447.09,-53.25 438.06,-58.8 448.58,-60.09 447.09,-53.25"/>
</a>
</g>
</g>
<!-- Node8 -->
<g id="Node000008" class="node">
<title>Node8</title>
<g id="a_Node000008"><a xlink:href="pred__rls_8c.html" target="_top" xlink:title="Recursive least mean squares prediction functions.">
<polygon fill="white" stroke="#666666" points="772,-19 713,-19 713,0 772,0 772,-19"/>
<text text-anchor="middle" x="742.5" y="-7" font-family="Helvetica,sans-Serif" font-size="10.00">pred_rls.c</text>
</a>
</g>
</g>
<!-- Node1&#45;&gt;Node8 -->
<g id="edge7_Node000001_Node000008" class="edge">
<title>Node1&#45;&gt;Node8</title>
<g id="a_edge7_Node000001_Node000008"><a xlink:title=" ">
<path fill="none" stroke="#63b8ff" d="M448.31,-59.21C501.37,-51.92 611.22,-36.19 703.5,-19 706.5,-18.44 709.62,-17.82 712.73,-17.18"/>
<polygon fill="#63b8ff" stroke="#63b8ff" points="447.61,-55.77 438.18,-60.6 448.56,-62.71 447.61,-55.77"/>
</a>
</g>
</g>
</g>
</svg>
