<?xml version="1.0" encoding="UTF-8" standalone="no"?>
<!DOCTYPE svg PUBLIC "-//W3C//DTD SVG 1.1//EN"
 "http://www.w3.org/Graphics/SVG/1.1/DTD/svg11.dtd">
<!-- Generated by graphviz version 2.43.0 (0)
 -->
<!-- Title: cl_json_export Pages: 1 -->
<svg width="217pt" height="142pt"
 viewBox="0.00 0.00 217.00 142.00" xmlns="http://www.w3.org/2000/svg" xmlns:xlink="http://www.w3.org/1999/xlink">
<g id="graph0" class="graph" transform="scale(1 1) rotate(0) translate(4 138)">
<title>cl_json_export</title>
<!-- Node1 -->
<g id="node1" class="node">
<title>Node1</title>
<g id="a_node1"><a xlink:title="Returns a json formatted string representation of a classifier.">
<polygon fill="#bfbfbf" stroke="black" points="0,-57.5 0,-76.5 80,-76.5 80,-57.5 0,-57.5"/>
<text text-anchor="middle" x="40" y="-64.5" font-family="Helvetica,sans-Serif" font-size="10.00">cl_json_export</text>
</a>
</g>
</g>
<!-- Node2 -->
<g id="node2" class="node">
<title>Node2</title>
<g id="a_node2"><a xlink:href="action_8h.html#adf334ef0d27241fb85b333102dac7789" target="_top" xlink:title="Returns a json formatted string representation of an action .">
<polygon fill="none" stroke="black" points="119.5,-114.5 119.5,-133.5 205.5,-133.5 205.5,-114.5 119.5,-114.5"/>
<text text-anchor="middle" x="162.5" y="-121.5" font-family="Helvetica,sans-Serif" font-size="10.00">act_json_export</text>
</a>
</g>
</g>
<!-- Node1&#45;&gt;Node2 -->
<g id="edge1" class="edge">
<title>Node1&#45;&gt;Node2</title>
<path fill="none" stroke="midnightblue" d="M59,-76.59C74.08,-84.51 96.25,-95.89 116,-105 119.94,-106.82 124.09,-108.66 128.23,-110.44"/>
<polygon fill="midnightblue" stroke="midnightblue" points="127.17,-113.79 137.74,-114.47 129.9,-107.34 127.17,-113.79"/>
</g>
<!-- Node3 -->
<g id="node3" class="node">
<title>Node3</title>
<g id="a_node3"><a xlink:href="cl_8c.html#ad686da805e2ab762a3d32c321657775f" target="_top" xlink:title="Returns the accuracy of a classifier.">
<polygon fill="none" stroke="black" points="140,-76.5 140,-95.5 185,-95.5 185,-76.5 140,-76.5"/>
<text text-anchor="middle" x="162.5" y="-83.5" font-family="Helvetica,sans-Serif" font-size="10.00">cl_acc</text>
</a>
</g>
</g>
<!-- Node1&#45;&gt;Node3 -->
<g id="edge2" class="edge">
<title>Node1&#45;&gt;Node3</title>
<path fill="none" stroke="midnightblue" d="M80.12,-73.17C96.2,-75.7 114.58,-78.6 129.8,-81"/>
<polygon fill="midnightblue" stroke="midnightblue" points="129.34,-84.47 139.77,-82.57 130.43,-77.56 129.34,-84.47"/>
</g>
<!-- Node4 -->
<g id="node4" class="node">
<title>Node4</title>
<g id="a_node4"><a xlink:href="condition_8h.html#a03df5f9ceaeadba3d0c4f355163a6ffc" target="_top" xlink:title="Returns a json formatted string representation of a condition.">
<polygon fill="none" stroke="black" points="116,-38.5 116,-57.5 209,-57.5 209,-38.5 116,-38.5"/>
<text text-anchor="middle" x="162.5" y="-45.5" font-family="Helvetica,sans-Serif" font-size="10.00">cond_json_export</text>
</a>
</g>
</g>
<!-- Node1&#45;&gt;Node4 -->
<g id="edge3" class="edge">
<title>Node1&#45;&gt;Node4</title>
<path fill="none" stroke="midnightblue" d="M80.12,-60.83C88.32,-59.54 97.12,-58.15 105.79,-56.78"/>
<polygon fill="midnightblue" stroke="midnightblue" points="106.53,-60.21 115.87,-55.2 105.44,-53.3 106.53,-60.21"/>
</g>
<!-- Node5 -->
<g id="node5" class="node">
<title>Node5</title>
<g id="a_node5"><a xlink:href="prediction_8h.html#aa2742a310e1734a05fcc731717ba61b9" target="_top" xlink:title="Returns a json formatted string representation of a prediction.">
<polygon fill="none" stroke="black" points="117,-0.5 117,-19.5 208,-19.5 208,-0.5 117,-0.5"/>
<text text-anchor="middle" x="162.5" y="-7.5" font-family="Helvetica,sans-Serif" font-size="10.00">pred_json_export</text>
</a>
</g>
</g>
<!-- Node1&#45;&gt;Node5 -->
<g id="edge4" class="edge">
<title>Node1&#45;&gt;Node5</title>
<path fill="none" stroke="midnightblue" d="M59,-57.41C74.08,-49.49 96.25,-38.11 116,-29 119.94,-27.18 124.09,-25.34 128.23,-23.56"/>
<polygon fill="midnightblue" stroke="midnightblue" points="129.9,-26.66 137.74,-19.53 127.17,-20.21 129.9,-26.66"/>
</g>
</g>
</svg>
