<?xml version="1.0" encoding="UTF-8" standalone="no"?>
<!DOCTYPE svg PUBLIC "-//W3C//DTD SVG 1.1//EN"
 "http://www.w3.org/Graphics/SVG/1.1/DTD/svg11.dtd">
<!-- Generated by graphviz version 2.43.0 (0)
 -->
<!-- Title: cl_json_import_properties Pages: 1 -->
<svg width="640pt" height="66pt"
 viewBox="0.00 0.00 640.00 66.00" xmlns="http://www.w3.org/2000/svg" xmlns:xlink="http://www.w3.org/1999/xlink">
<g id="graph0" class="graph" transform="scale(1 1) rotate(0) translate(4 62)">
<title>cl_json_import_properties</title>
<!-- Node1 -->
<g id="node1" class="node">
<title>Node1</title>
<g id="a_node1"><a xlink:title="Sets a classifier&#39;s properties from a cJSON object.">
<polygon fill="#bfbfbf" stroke="black" points="504,-19.5 504,-38.5 632,-38.5 632,-19.5 504,-19.5"/>
<text text-anchor="middle" x="568" y="-26.5" font-family="Helvetica,sans-Serif" font-size="10.00">cl_json_import_properties</text>
</a>
</g>
</g>
<!-- Node2 -->
<g id="node2" class="node">
<title>Node2</title>
<g id="a_node2"><a xlink:href="cl_8c.html#ada9e7ce4c9c81af8ea0d1fd0dda59e3c" target="_top" xlink:title="Creates a classifier from a cJSON object.">
<polygon fill="none" stroke="black" points="388,-19.5 388,-38.5 468,-38.5 468,-19.5 388,-19.5"/>
<text text-anchor="middle" x="428" y="-26.5" font-family="Helvetica,sans-Serif" font-size="10.00">cl_json_import</text>
</a>
</g>
</g>
<!-- Node1&#45;&gt;Node2 -->
<g id="edge1" class="edge">
<title>Node1&#45;&gt;Node2</title>
<path fill="none" stroke="midnightblue" d="M493.47,-29C484.8,-29 476.23,-29 468.31,-29"/>
<polygon fill="midnightblue" stroke="midnightblue" points="493.65,-32.5 503.65,-29 493.65,-25.5 493.65,-32.5"/>
</g>
<!-- Node3 -->
<g id="node3" class="node">
<title>Node3</title>
<g id="a_node3"><a xlink:href="clset_8c.html#a9f71f62cb4c5216fb3a3e76a6b3df82f" target="_top" xlink:title="Creates a classifier from cJSON and inserts in the population set.">
<polygon fill="none" stroke="black" points="262,-19.5 262,-38.5 352,-38.5 352,-19.5 262,-19.5"/>
<text text-anchor="middle" x="307" y="-26.5" font-family="Helvetica,sans-Serif" font-size="10.00">clset_json_insert</text>
</a>
</g>
</g>
<!-- Node2&#45;&gt;Node3 -->
<g id="edge2" class="edge">
<title>Node2&#45;&gt;Node3</title>
<path fill="none" stroke="midnightblue" d="M377.61,-29C369.18,-29 360.47,-29 352.19,-29"/>
<polygon fill="midnightblue" stroke="midnightblue" points="377.71,-32.5 387.71,-29 377.71,-25.5 377.71,-32.5"/>
</g>
<!-- Node4 -->
<g id="node4" class="node">
<title>Node4</title>
<g id="a_node4"><a xlink:href="classXCS.html#af888b891afb66fbe06ba4919ef16adf9" target="_top" xlink:title="Creates classifiers from JSON and inserts into the population.">
<polygon fill="none" stroke="black" points="128.5,-38.5 128.5,-57.5 219.5,-57.5 219.5,-38.5 128.5,-38.5"/>
<text text-anchor="middle" x="174" y="-45.5" font-family="Helvetica,sans-Serif" font-size="10.00">XCS::json_insert</text>
</a>
</g>
</g>
<!-- Node3&#45;&gt;Node4 -->
<g id="edge3" class="edge">
<title>Node3&#45;&gt;Node4</title>
<path fill="none" stroke="midnightblue" d="M251.64,-36.88C241.02,-38.42 230.01,-40.02 219.75,-41.51"/>
<polygon fill="midnightblue" stroke="midnightblue" points="252.26,-40.33 261.65,-35.43 251.25,-33.4 252.26,-40.33"/>
</g>
<!-- Node6 -->
<g id="node6" class="node">
<title>Node6</title>
<g id="a_node6"><a xlink:href="classXCS.html#a61361120dbba1dba3ca49b53ded91edb" target="_top" xlink:title="Creates a classifier from JSON and inserts into the population.">
<polygon fill="none" stroke="black" points="122,-0.5 122,-19.5 226,-19.5 226,-0.5 122,-0.5"/>
<text text-anchor="middle" x="174" y="-7.5" font-family="Helvetica,sans-Serif" font-size="10.00">XCS::json_insert_cl</text>
</a>
</g>
</g>
<!-- Node3&#45;&gt;Node6 -->
<g id="edge5" class="edge">
<title>Node3&#45;&gt;Node6</title>
<path fill="none" stroke="midnightblue" d="M251.53,-21.1C243.11,-19.88 234.43,-18.62 226.08,-17.41"/>
<polygon fill="midnightblue" stroke="midnightblue" points="251.25,-24.6 261.65,-22.57 252.26,-17.67 251.25,-24.6"/>
</g>
<!-- Node5 -->
<g id="node5" class="node">
<title>Node5</title>
<g id="a_node5"><a xlink:href="classXCS.html#a1a882e28a64c4e2b92ae234d79f327de" target="_top" xlink:title="Reads classifiers from a JSON file and adds to the population.">
<polygon fill="none" stroke="black" points="0,-38.5 0,-57.5 86,-57.5 86,-38.5 0,-38.5"/>
<text text-anchor="middle" x="43" y="-45.5" font-family="Helvetica,sans-Serif" font-size="10.00">XCS::json_read</text>
</a>
</g>
</g>
<!-- Node4&#45;&gt;Node5 -->
<g id="edge4" class="edge">
<title>Node4&#45;&gt;Node5</title>
<path fill="none" stroke="midnightblue" d="M118.11,-48C107.39,-48 96.3,-48 86.07,-48"/>
<polygon fill="midnightblue" stroke="midnightblue" points="118.24,-51.5 128.24,-48 118.24,-44.5 118.24,-51.5"/>
</g>
</g>
</svg>
