<?xml version="1.0" encoding="UTF-8" standalone="no"?>
<!DOCTYPE svg PUBLIC "-//W3C//DTD SVG 1.1//EN"
 "http://www.w3.org/Graphics/SVG/1.1/DTD/svg11.dtd">
<!-- Generated by graphviz version 2.43.0 (0)
 -->
<!-- Title: cl_acc Pages: 1 -->
<svg width="866pt" height="370pt"
 viewBox="0.00 0.00 866.00 370.00" xmlns="http://www.w3.org/2000/svg" xmlns:xlink="http://www.w3.org/1999/xlink">
<g id="graph0" class="graph" transform="scale(1 1) rotate(0) translate(4 366)">
<title>cl_acc</title>
<!-- Node1 -->
<g id="node1" class="node">
<title>Node1</title>
<g id="a_node1"><a xlink:title="Returns the accuracy of a classifier.">
<polygon fill="#bfbfbf" stroke="black" points="813,-266.5 813,-285.5 858,-285.5 858,-266.5 813,-266.5"/>
<text text-anchor="middle" x="835.5" y="-273.5" font-family="Helvetica,sans-Serif" font-size="10.00">cl_acc</text>
</a>
</g>
</g>
<!-- Node2 -->
<g id="node2" class="node">
<title>Node2</title>
<g id="a_node2"><a xlink:href="cl_8c.html#a6fccc77f8093c33617be7fc29175614c" target="_top" xlink:title="Returns a json formatted string representation of a classifier.">
<polygon fill="none" stroke="black" points="694,-304.5 694,-323.5 774,-323.5 774,-304.5 694,-304.5"/>
<text text-anchor="middle" x="734" y="-311.5" font-family="Helvetica,sans-Serif" font-size="10.00">cl_json_export</text>
</a>
</g>
</g>
<!-- Node1&#45;&gt;Node2 -->
<g id="edge1" class="edge">
<title>Node1&#45;&gt;Node2</title>
<path fill="none" stroke="midnightblue" d="M803.25,-287.93C789.33,-293.25 773.17,-299.42 760.06,-304.43"/>
<polygon fill="midnightblue" stroke="midnightblue" points="804.82,-291.08 812.91,-284.25 802.32,-284.54 804.82,-291.08"/>
</g>
<!-- Node10 -->
<g id="node10" class="node">
<title>Node10</title>
<g id="a_node10"><a xlink:href="clset_8c.html#aa969b49afc6d934a12ea41e41514b360" target="_top" xlink:title="Updates the fitness of classifiers in the set.">
<polygon fill="none" stroke="black" points="691,-247.5 691,-266.5 777,-266.5 777,-247.5 691,-247.5"/>
<text text-anchor="middle" x="734" y="-254.5" font-family="Helvetica,sans-Serif" font-size="10.00">clset_update_fit</text>
</a>
</g>
</g>
<!-- Node1&#45;&gt;Node10 -->
<g id="edge9" class="edge">
<title>Node1&#45;&gt;Node10</title>
<path fill="none" stroke="midnightblue" d="M802.96,-269.98C794.72,-268.4 785.7,-266.68 777.01,-265.02"/>
<polygon fill="midnightblue" stroke="midnightblue" points="802.43,-273.44 812.91,-271.88 803.74,-266.56 802.43,-273.44"/>
</g>
<!-- Node3 -->
<g id="node3" class="node">
<title>Node3</title>
<g id="a_node3"><a xlink:href="cl_8c.html#afe7823d194c2fe357ce94285b77f8bfe" target="_top" xlink:title="Prints a classifier.">
<polygon fill="none" stroke="black" points="584.5,-342.5 584.5,-361.5 632.5,-361.5 632.5,-342.5 584.5,-342.5"/>
<text text-anchor="middle" x="608.5" y="-349.5" font-family="Helvetica,sans-Serif" font-size="10.00">cl_print</text>
</a>
</g>
</g>
<!-- Node2&#45;&gt;Node3 -->
<g id="edge2" class="edge">
<title>Node2&#45;&gt;Node3</title>
<path fill="none" stroke="midnightblue" d="M692.17,-326.56C672.48,-332.62 649.56,-339.67 632.86,-344.81"/>
<polygon fill="midnightblue" stroke="midnightblue" points="693.31,-329.88 701.84,-323.59 691.25,-323.18 693.31,-329.88"/>
</g>
<!-- Node4 -->
<g id="node4" class="node">
<title>Node4</title>
<g id="a_node4"><a xlink:href="clset_8c.html#af7d4ec3f5c5bcebc48045a6724beed12" target="_top" xlink:title="Returns a json formatted string representation of a classifier set.">
<polygon fill="none" stroke="black" points="562,-304.5 562,-323.5 655,-323.5 655,-304.5 562,-304.5"/>
<text text-anchor="middle" x="608.5" y="-311.5" font-family="Helvetica,sans-Serif" font-size="10.00">clset_json_export</text>
</a>
</g>
</g>
<!-- Node2&#45;&gt;Node4 -->
<g id="edge3" class="edge">
<title>Node2&#45;&gt;Node4</title>
<path fill="none" stroke="midnightblue" d="M683.87,-314C674.42,-314 664.56,-314 655.22,-314"/>
<polygon fill="midnightblue" stroke="midnightblue" points="683.92,-317.5 693.92,-314 683.92,-310.5 683.92,-317.5"/>
</g>
<!-- Node5 -->
<g id="node5" class="node">
<title>Node5</title>
<g id="a_node5"><a xlink:href="clset_8c.html#a724354141b3185c19ac6f3fb7920308b" target="_top" xlink:title="Prints the classifiers in the set.">
<polygon fill="none" stroke="black" points="442,-342.5 442,-361.5 504,-361.5 504,-342.5 442,-342.5"/>
<text text-anchor="middle" x="473" y="-349.5" font-family="Helvetica,sans-Serif" font-size="10.00">clset_print</text>
</a>
</g>
</g>
<!-- Node4&#45;&gt;Node5 -->
<g id="edge4" class="edge">
<title>Node4&#45;&gt;Node5</title>
<path fill="none" stroke="midnightblue" d="M564.16,-326.34C544.51,-331.93 521.76,-338.4 504.03,-343.45"/>
<polygon fill="midnightblue" stroke="midnightblue" points="565.15,-329.69 573.81,-323.59 563.24,-322.96 565.15,-329.69"/>
</g>
<!-- Node8 -->
<g id="node8" class="node">
<title>Node8</title>
<g id="a_node8"><a xlink:href="classXCS.html#a39764d3cf7b1ffc5807541b59452d092" target="_top" xlink:title="Returns a JSON formatted string representing the population set.">
<polygon fill="none" stroke="black" points="426,-304.5 426,-323.5 520,-323.5 520,-304.5 426,-304.5"/>
<text text-anchor="middle" x="473" y="-311.5" font-family="Helvetica,sans-Serif" font-size="10.00">XCS::json_export</text>
</a>
</g>
</g>
<!-- Node4&#45;&gt;Node8 -->
<g id="edge7" class="edge">
<title>Node4&#45;&gt;Node8</title>
<path fill="none" stroke="midnightblue" d="M551.65,-314C541.2,-314 530.39,-314 520.27,-314"/>
<polygon fill="midnightblue" stroke="midnightblue" points="551.93,-317.5 561.93,-314 551.93,-310.5 551.93,-317.5"/>
</g>
<!-- Node6 -->
<g id="node6" class="node">
<title>Node6</title>
<g id="a_node6"><a xlink:href="xcsf_8c.html#ae18311260dd4c51978ef361f6f14e8c0" target="_top" xlink:title="Prints the current XCSF population.">
<polygon fill="none" stroke="black" points="283,-342.5 283,-361.5 366,-361.5 366,-342.5 283,-342.5"/>
<text text-anchor="middle" x="324.5" y="-349.5" font-family="Helvetica,sans-Serif" font-size="10.00">xcsf_print_pset</text>
</a>
</g>
</g>
<!-- Node5&#45;&gt;Node6 -->
<g id="edge5" class="edge">
<title>Node5&#45;&gt;Node6</title>
<path fill="none" stroke="midnightblue" d="M431.43,-352C411.07,-352 386.47,-352 366.1,-352"/>
<polygon fill="midnightblue" stroke="midnightblue" points="431.65,-355.5 441.65,-352 431.65,-348.5 431.65,-355.5"/>
</g>
<!-- Node7 -->
<g id="node7" class="node">
<title>Node7</title>
<g id="a_node7"><a xlink:href="classXCS.html#a7af3631a2e50a3c2a22774d60600014d" target="_top" xlink:title="Prints the current population.">
<polygon fill="none" stroke="black" points="123.5,-342.5 123.5,-361.5 209.5,-361.5 209.5,-342.5 123.5,-342.5"/>
<text text-anchor="middle" x="166.5" y="-349.5" font-family="Helvetica,sans-Serif" font-size="10.00">XCS::print_pset</text>
</a>
</g>
</g>
<!-- Node6&#45;&gt;Node7 -->
<g id="edge6" class="edge">
<title>Node6&#45;&gt;Node7</title>
<path fill="none" stroke="midnightblue" d="M272.82,-352C252.35,-352 229.01,-352 209.51,-352"/>
<polygon fill="midnightblue" stroke="midnightblue" points="272.92,-355.5 282.92,-352 272.92,-348.5 272.92,-355.5"/>
</g>
<!-- Node9 -->
<g id="node9" class="node">
<title>Node9</title>
<g id="a_node9"><a xlink:href="classXCS.html#a589dc6f43e28dcf5ad4edd505e30a531" target="_top" xlink:title="Writes the current population set to a file in JSON.">
<polygon fill="none" stroke="black" points="280.5,-304.5 280.5,-323.5 368.5,-323.5 368.5,-304.5 280.5,-304.5"/>
<text text-anchor="middle" x="324.5" y="-311.5" font-family="Helvetica,sans-Serif" font-size="10.00">XCS::json_write</text>
</a>
</g>
</g>
<!-- Node8&#45;&gt;Node9 -->
<g id="edge8" class="edge">
<title>Node8&#45;&gt;Node9</title>
<path fill="none" stroke="midnightblue" d="M415.58,-314C399.97,-314 383.28,-314 368.56,-314"/>
<polygon fill="midnightblue" stroke="midnightblue" points="415.65,-317.5 425.65,-314 415.65,-310.5 415.65,-317.5"/>
</g>
<!-- Node11 -->
<g id="node11" class="node">
<title>Node11</title>
<g id="a_node11"><a xlink:href="clset_8c.html#a27aedca23d7c37f4ca0f44845e9805c7" target="_top" xlink:title="Provides reinforcement to the set and performs set subsumption.">
<polygon fill="none" stroke="black" points="572.5,-228.5 572.5,-247.5 644.5,-247.5 644.5,-228.5 572.5,-228.5"/>
<text text-anchor="middle" x="608.5" y="-235.5" font-family="Helvetica,sans-Serif" font-size="10.00">clset_update</text>
</a>
</g>
</g>
<!-- Node10&#45;&gt;Node11 -->
<g id="edge10" class="edge">
<title>Node10&#45;&gt;Node11</title>
<path fill="none" stroke="midnightblue" d="M680.83,-248.97C668.71,-247.11 656.09,-245.17 644.89,-243.45"/>
<polygon fill="midnightblue" stroke="midnightblue" points="680.43,-252.45 690.84,-250.51 681.49,-245.53 680.43,-252.45"/>
</g>
<!-- Node12 -->
<g id="node12" class="node">
<title>Node12</title>
<g id="a_node12"><a xlink:href="xcs__rl_8c.html#a5e5ba8c28646690f0b1c51aae7f6aa78" target="_top" xlink:title="Provides reinforcement to the sets.">
<polygon fill="none" stroke="black" points="434.5,-228.5 434.5,-247.5 511.5,-247.5 511.5,-228.5 434.5,-228.5"/>
<text text-anchor="middle" x="473" y="-235.5" font-family="Helvetica,sans-Serif" font-size="10.00">xcs_rl_update</text>
</a>
</g>
</g>
<!-- Node11&#45;&gt;Node12 -->
<g id="edge11" class="edge">
<title>Node11&#45;&gt;Node12</title>
<path fill="none" stroke="midnightblue" d="M561.98,-238C545.59,-238 527.29,-238 511.65,-238"/>
<polygon fill="midnightblue" stroke="midnightblue" points="562.42,-241.5 572.42,-238 562.42,-234.5 562.42,-241.5"/>
</g>
<!-- Node19 -->
<g id="node19" class="node">
<title>Node19</title>
<g id="a_node19"><a xlink:href="xcs__supervised_8c.html#a836aae9ec3055625d1c464d41746a7b9" target="_top" xlink:title="Executes a single XCSF trial.">
<polygon fill="none" stroke="black" points="420,-76.5 420,-95.5 526,-95.5 526,-76.5 420,-76.5"/>
<text text-anchor="middle" x="473" y="-83.5" font-family="Helvetica,sans-Serif" font-size="10.00">xcs_supervised_trial</text>
</a>
</g>
</g>
<!-- Node11&#45;&gt;Node19 -->
<g id="edge18" class="edge">
<title>Node11&#45;&gt;Node19</title>
<path fill="none" stroke="midnightblue" d="M592.39,-220.8C564.18,-188.68 504.35,-120.56 482.35,-95.5"/>
<polygon fill="midnightblue" stroke="midnightblue" points="589.92,-223.29 599.15,-228.49 595.18,-218.67 589.92,-223.29"/>
</g>
<!-- Node13 -->
<g id="node13" class="node">
<title>Node13</title>
<g id="a_node13"><a xlink:href="classXCS.html#af8970ba52403714439fda0d4383a390b" target="_top" xlink:title="Creates the action set using the previously selected action, updates the classifiers,...">
<polygon fill="none" stroke="black" points="288,-266.5 288,-285.5 361,-285.5 361,-266.5 288,-266.5"/>
<text text-anchor="middle" x="324.5" y="-273.5" font-family="Helvetica,sans-Serif" font-size="10.00">XCS::update</text>
</a>
</g>
</g>
<!-- Node12&#45;&gt;Node13 -->
<g id="edge12" class="edge">
<title>Node12&#45;&gt;Node13</title>
<path fill="none" stroke="midnightblue" d="M425.15,-250.15C404.42,-255.53 380.44,-261.75 361.19,-266.74"/>
<polygon fill="midnightblue" stroke="midnightblue" points="426.23,-253.49 435.03,-247.59 424.47,-246.71 426.23,-253.49"/>
</g>
<!-- Node14 -->
<g id="node14" class="node">
<title>Node14</title>
<g id="a_node14"><a xlink:href="xcs__rl_8c.html#a391abf9bd2540ff284f822b30899c438" target="_top" xlink:title="Creates and updates an action set for a given (state, action, reward).">
<polygon fill="none" stroke="black" points="296.5,-228.5 296.5,-247.5 352.5,-247.5 352.5,-228.5 296.5,-228.5"/>
<text text-anchor="middle" x="324.5" y="-235.5" font-family="Helvetica,sans-Serif" font-size="10.00">xcs_rl_fit</text>
</a>
</g>
</g>
<!-- Node12&#45;&gt;Node14 -->
<g id="edge13" class="edge">
<title>Node12&#45;&gt;Node14</title>
<path fill="none" stroke="midnightblue" d="M424.1,-238C400.5,-238 372.91,-238 352.92,-238"/>
<polygon fill="midnightblue" stroke="midnightblue" points="424.27,-241.5 434.27,-238 424.27,-234.5 424.27,-241.5"/>
</g>
<!-- Node16 -->
<g id="node16" class="node">
<title>Node16</title>
<g id="a_node16"><a xlink:href="xcs__rl_8c.html#a8171cd945b56ed0a4563f9dcd89438e3" target="_top" xlink:title="Executes a reinforcement learning trial using a built&#45;in environment.">
<polygon fill="none" stroke="black" points="292.5,-190.5 292.5,-209.5 356.5,-209.5 356.5,-190.5 292.5,-190.5"/>
<text text-anchor="middle" x="324.5" y="-197.5" font-family="Helvetica,sans-Serif" font-size="10.00">xcs_rl_trial</text>
</a>
</g>
</g>
<!-- Node12&#45;&gt;Node16 -->
<g id="edge15" class="edge">
<title>Node12&#45;&gt;Node16</title>
<path fill="none" stroke="midnightblue" d="M425.34,-225.9C402.85,-220.06 376.5,-213.23 356.51,-208.04"/>
<polygon fill="midnightblue" stroke="midnightblue" points="424.47,-229.29 435.03,-228.41 426.23,-222.51 424.47,-229.29"/>
</g>
<!-- Node15 -->
<g id="node15" class="node">
<title>Node15</title>
<g id="a_node15"><a xlink:href="classXCS.html#ac12768292958a714a726b1c029e9616a" target="_top" xlink:title="Creates/updates an action set for a given (state, action, reward).">
<polygon fill="none" stroke="black" points="140.5,-228.5 140.5,-247.5 192.5,-247.5 192.5,-228.5 140.5,-228.5"/>
<text text-anchor="middle" x="166.5" y="-235.5" font-family="Helvetica,sans-Serif" font-size="10.00">XCS::fit</text>
</a>
</g>
</g>
<!-- Node14&#45;&gt;Node15 -->
<g id="edge14" class="edge">
<title>Node14&#45;&gt;Node15</title>
<path fill="none" stroke="midnightblue" d="M286.17,-238C257.2,-238 217.85,-238 192.56,-238"/>
<polygon fill="midnightblue" stroke="midnightblue" points="286.33,-241.5 296.33,-238 286.33,-234.5 286.33,-241.5"/>
</g>
<!-- Node17 -->
<g id="node17" class="node">
<title>Node17</title>
<g id="a_node17"><a xlink:href="xcs__rl_8c.html#adb4c284d19eeaed2b4a629f9b939ed20" target="_top" xlink:title="Executes a reinforcement learning experiment.">
<polygon fill="none" stroke="black" points="134.5,-190.5 134.5,-209.5 198.5,-209.5 198.5,-190.5 134.5,-190.5"/>
<text text-anchor="middle" x="166.5" y="-197.5" font-family="Helvetica,sans-Serif" font-size="10.00">xcs_rl_exp</text>
</a>
</g>
</g>
<!-- Node16&#45;&gt;Node17 -->
<g id="edge16" class="edge">
<title>Node16&#45;&gt;Node17</title>
<path fill="none" stroke="midnightblue" d="M282.28,-200C256.06,-200 222.65,-200 198.64,-200"/>
<polygon fill="midnightblue" stroke="midnightblue" points="282.31,-203.5 292.31,-200 282.31,-196.5 282.31,-203.5"/>
</g>
<!-- Node18 -->
<g id="node18" class="node">
<title>Node18</title>
<g id="a_node18"><a xlink:href="main_8c.html#a3c04138a5bfe5d72780bb7e82a18e627" target="_top" xlink:title=" ">
<polygon fill="none" stroke="black" points="15,-171.5 15,-190.5 53,-190.5 53,-171.5 15,-171.5"/>
<text text-anchor="middle" x="34" y="-178.5" font-family="Helvetica,sans-Serif" font-size="10.00">main</text>
</a>
</g>
</g>
<!-- Node17&#45;&gt;Node18 -->
<g id="edge17" class="edge">
<title>Node17&#45;&gt;Node18</title>
<path fill="none" stroke="midnightblue" d="M124.34,-194.01C100.42,-190.52 71.47,-186.31 53.14,-183.64"/>
<polygon fill="midnightblue" stroke="midnightblue" points="123.84,-197.47 134.24,-195.45 124.85,-190.54 123.84,-197.47"/>
</g>
<!-- Node20 -->
<g id="node20" class="node">
<title>Node20</title>
<g id="a_node20"><a xlink:href="xcs__supervised_8c.html#aac1347b7b83576d581a1b725b4c84e56" target="_top" xlink:title="Executes MAX_TRIALS number of XCSF learning iterations using the training data and test iterations us...">
<polygon fill="none" stroke="black" points="275.5,-114.5 275.5,-133.5 373.5,-133.5 373.5,-114.5 275.5,-114.5"/>
<text text-anchor="middle" x="324.5" y="-121.5" font-family="Helvetica,sans-Serif" font-size="10.00">xcs_supervised_fit</text>
</a>
</g>
</g>
<!-- Node19&#45;&gt;Node20 -->
<g id="edge19" class="edge">
<title>Node19&#45;&gt;Node20</title>
<path fill="none" stroke="midnightblue" d="M425.3,-98.11C404.9,-103.4 381.32,-109.52 362.2,-114.48"/>
<polygon fill="midnightblue" stroke="midnightblue" points="426.23,-101.49 435.03,-95.59 424.47,-94.71 426.23,-101.49"/>
</g>
<!-- Node22 -->
<g id="node22" class="node">
<title>Node22</title>
<g id="a_node22"><a xlink:href="xcs__supervised_8c.html#a2dc51452fdb0be0e27fd3ebfe6041474" target="_top" xlink:title="Calculates the XCSF predictions for the provided input.">
<polygon fill="none" stroke="black" points="265,-76.5 265,-95.5 384,-95.5 384,-76.5 265,-76.5"/>
<text text-anchor="middle" x="324.5" y="-83.5" font-family="Helvetica,sans-Serif" font-size="10.00">xcs_supervised_predict</text>
</a>
</g>
</g>
<!-- Node19&#45;&gt;Node22 -->
<g id="edge22" class="edge">
<title>Node19&#45;&gt;Node22</title>
<path fill="none" stroke="midnightblue" d="M409.72,-86C401.23,-86 392.55,-86 384.13,-86"/>
<polygon fill="midnightblue" stroke="midnightblue" points="409.94,-89.5 419.94,-86 409.94,-82.5 409.94,-89.5"/>
</g>
<!-- Node24 -->
<g id="node24" class="node">
<title>Node24</title>
<g id="a_node24"><a xlink:href="xcs__supervised_8c.html#ae05de18a53511ba46b2a6a733c780580" target="_top" xlink:title="Calculates the XCSF error for the input data.">
<polygon fill="none" stroke="black" points="267.5,-38.5 267.5,-57.5 381.5,-57.5 381.5,-38.5 267.5,-38.5"/>
<text text-anchor="middle" x="324.5" y="-45.5" font-family="Helvetica,sans-Serif" font-size="10.00">xcs_supervised_score</text>
</a>
</g>
</g>
<!-- Node19&#45;&gt;Node24 -->
<g id="edge24" class="edge">
<title>Node19&#45;&gt;Node24</title>
<path fill="none" stroke="midnightblue" d="M425.3,-73.89C404.9,-68.6 381.32,-62.48 362.2,-57.52"/>
<polygon fill="midnightblue" stroke="midnightblue" points="424.47,-77.29 435.03,-76.41 426.23,-70.51 424.47,-77.29"/>
</g>
<!-- Node26 -->
<g id="node26" class="node">
<title>Node26</title>
<g id="a_node26"><a xlink:href="xcs__supervised_8c.html#a56ec80025279785376a569ec0130c29f" target="_top" xlink:title="Calculates the XCSF error for a subsample of the input data.">
<polygon fill="none" stroke="black" points="104,-0.5 104,-19.5 229,-19.5 229,-0.5 104,-0.5"/>
<text text-anchor="middle" x="166.5" y="-7.5" font-family="Helvetica,sans-Serif" font-size="10.00">xcs_supervised_score_n</text>
</a>
</g>
</g>
<!-- Node19&#45;&gt;Node26 -->
<g id="edge28" class="edge">
<title>Node19&#45;&gt;Node26</title>
<path fill="none" stroke="midnightblue" d="M453.04,-69.76C436.14,-56.3 410.09,-37.97 384,-29 333.87,-11.76 273.55,-7.72 229.33,-7.59"/>
<polygon fill="midnightblue" stroke="midnightblue" points="451.05,-72.65 461,-76.28 455.49,-67.24 451.05,-72.65"/>
</g>
<!-- Node20&#45;&gt;Node18 -->
<g id="edge21" class="edge">
<title>Node20&#45;&gt;Node18</title>
<path fill="none" stroke="midnightblue" d="M266.26,-135.56C253.97,-138.02 241.05,-140.61 229,-143 164.37,-155.83 87.56,-170.79 53.19,-177.47"/>
<polygon fill="midnightblue" stroke="midnightblue" points="267.29,-138.92 276.4,-133.52 265.91,-132.06 267.29,-138.92"/>
</g>
<!-- Node21 -->
<g id="node21" class="node">
<title>Node21</title>
<g id="a_node21"><a xlink:href="classXCS.html#a3f8168ffade2d933d0971625200f1d92" target="_top" xlink:title="Executes MAX_TRIALS number of XCSF learning iterations using the provided training data.">
<polygon fill="none" stroke="black" points="140.5,-114.5 140.5,-133.5 192.5,-133.5 192.5,-114.5 140.5,-114.5"/>
<text text-anchor="middle" x="166.5" y="-121.5" font-family="Helvetica,sans-Serif" font-size="10.00">XCS::fit</text>
</a>
</g>
</g>
<!-- Node20&#45;&gt;Node21 -->
<g id="edge20" class="edge">
<title>Node20&#45;&gt;Node21</title>
<path fill="none" stroke="midnightblue" d="M265.24,-124C240.15,-124 212.13,-124 192.55,-124"/>
<polygon fill="midnightblue" stroke="midnightblue" points="265.42,-127.5 275.42,-124 265.42,-120.5 265.42,-127.5"/>
</g>
<!-- Node23 -->
<g id="node23" class="node">
<title>Node23</title>
<g id="a_node23"><a xlink:href="classXCS.html#a4d7d398d90d5f695fcbfe0fa99354436" target="_top" xlink:title="Returns the XCSF prediction array for the provided input.">
<polygon fill="none" stroke="black" points="130,-76.5 130,-95.5 203,-95.5 203,-76.5 130,-76.5"/>
<text text-anchor="middle" x="166.5" y="-83.5" font-family="Helvetica,sans-Serif" font-size="10.00">XCS::predict</text>
</a>
</g>
</g>
<!-- Node22&#45;&gt;Node23 -->
<g id="edge23" class="edge">
<title>Node22&#45;&gt;Node23</title>
<path fill="none" stroke="midnightblue" d="M254.62,-86C236.88,-86 218.51,-86 203.23,-86"/>
<polygon fill="midnightblue" stroke="midnightblue" points="254.97,-89.5 264.97,-86 254.97,-82.5 254.97,-89.5"/>
</g>
<!-- Node25 -->
<g id="node25" class="node">
<title>Node25</title>
<g id="a_node25"><a xlink:href="classXCS.html#a4bb9f3f8613abf7ba95837a03bbb931d" target="_top" xlink:title="Returns the error using N random samples from the provided data.">
<polygon fill="none" stroke="black" points="0,-19.5 0,-38.5 68,-38.5 68,-19.5 0,-19.5"/>
<text text-anchor="middle" x="34" y="-26.5" font-family="Helvetica,sans-Serif" font-size="10.00">XCS::score</text>
</a>
</g>
</g>
<!-- Node24&#45;&gt;Node25 -->
<g id="edge25" class="edge">
<title>Node24&#45;&gt;Node25</title>
<path fill="none" stroke="midnightblue" d="M257.2,-43.63C198.15,-39.74 114.18,-34.21 68.23,-31.19"/>
<polygon fill="midnightblue" stroke="midnightblue" points="256.98,-47.13 267.19,-44.29 257.44,-40.14 256.98,-47.13"/>
</g>
<!-- Node24&#45;&gt;Node26 -->
<g id="edge26" class="edge">
<title>Node24&#45;&gt;Node26</title>
<path fill="none" stroke="midnightblue" d="M274.37,-36.03C252.51,-30.71 227.12,-24.52 206.58,-19.52"/>
<polygon fill="midnightblue" stroke="midnightblue" points="273.59,-39.44 284.13,-38.41 275.25,-32.64 273.59,-39.44"/>
</g>
<!-- Node26&#45;&gt;Node25 -->
<g id="edge27" class="edge">
<title>Node26&#45;&gt;Node25</title>
<path fill="none" stroke="midnightblue" d="M93.64,-20.46C84.76,-21.75 76.06,-23.02 68.18,-24.17"/>
<polygon fill="midnightblue" stroke="midnightblue" points="94.3,-23.9 103.69,-19 93.29,-16.98 94.3,-23.9"/>
</g>
</g>
</svg>
