<?xml version="1.0" encoding="UTF-8" standalone="no"?>
<!DOCTYPE svg PUBLIC "-//W3C//DTD SVG 1.1//EN"
 "http://www.w3.org/Graphics/SVG/1.1/DTD/svg11.dtd">
<!-- Generated by graphviz version 2.43.0 (0)
 -->
<!-- Title: cl_acc Pages: 1 -->
<svg width="1022pt" height="362pt"
 viewBox="0.00 0.00 1022.00 362.00" xmlns="http://www.w3.org/2000/svg" xmlns:xlink="http://www.w3.org/1999/xlink">
<g id="graph0" class="graph" transform="scale(1 1) rotate(0) translate(4 358)">
<title>cl_acc</title>
<!-- Node1 -->
<g id="Node000001" class="node">
<title>Node1</title>
<g id="a_Node000001"><a xlink:title="Returns the accuracy of a classifier.">
<polygon fill="#999999" stroke="#666666" points="1014,-241 969,-241 969,-222 1014,-222 1014,-241"/>
<text text-anchor="middle" x="991.5" y="-229" font-family="Helvetica,sans-Serif" font-size="10.00">cl_acc</text>
</a>
</g>
</g>
<!-- Node2 -->
<g id="Node000002" class="node">
<title>Node2</title>
<g id="a_Node000002"><a xlink:href="cl_8c.html#a3dd986331d1e3144f7c3b9530d65a41c" target="_top" xlink:title="Returns a json formatted string representation of a classifier.">
<polygon fill="white" stroke="#666666" points="811,-316 731,-316 731,-297 811,-297 811,-316"/>
<text text-anchor="middle" x="771" y="-304" font-family="Helvetica,sans-Serif" font-size="10.00">cl_json_export</text>
</a>
</g>
</g>
<!-- Node1&#45;&gt;Node2 -->
<g id="edge1_Node000001_Node000002" class="edge">
<title>Node1&#45;&gt;Node2</title>
<g id="a_edge1_Node000001_Node000002"><a xlink:title=" ">
<path fill="none" stroke="#63b8ff" d="M959.15,-242.26C916.42,-256.93 840.58,-282.96 799.79,-296.96"/>
<polygon fill="#63b8ff" stroke="#63b8ff" points="960.43,-245.52 968.75,-238.97 958.16,-238.9 960.43,-245.52"/>
</a>
</g>
</g>
<!-- Node11 -->
<g id="Node000011" class="node">
<title>Node11</title>
<g id="a_Node000011"><a xlink:href="clset_8c.html#aa969b49afc6d934a12ea41e41514b360" target="_top" xlink:title="Updates the fitness of classifiers in the set.">
<polygon fill="white" stroke="#666666" points="933,-222 847,-222 847,-203 933,-203 933,-222"/>
<text text-anchor="middle" x="890" y="-210" font-family="Helvetica,sans-Serif" font-size="10.00">clset_update_fit</text>
</a>
</g>
</g>
<!-- Node1&#45;&gt;Node11 -->
<g id="edge12_Node000001_Node000011" class="edge">
<title>Node1&#45;&gt;Node11</title>
<g id="a_edge12_Node000001_Node000011"><a xlink:title=" ">
<path fill="none" stroke="#63b8ff" d="M958.96,-225.48C950.72,-223.9 941.7,-222.18 933.01,-220.52"/>
<polygon fill="#63b8ff" stroke="#63b8ff" points="958.43,-228.94 968.91,-227.38 959.74,-222.06 958.43,-228.94"/>
</a>
</g>
</g>
<!-- Node3 -->
<g id="Node000003" class="node">
<title>Node3</title>
<g id="a_Node000003"><a xlink:href="cl_8c.html#afe7823d194c2fe357ce94285b77f8bfe" target="_top" xlink:title="Prints a classifier.">
<polygon fill="white" stroke="#666666" points="666,-353 618,-353 618,-334 666,-334 666,-353"/>
<text text-anchor="middle" x="642" y="-341" font-family="Helvetica,sans-Serif" font-size="10.00">cl_print</text>
</a>
</g>
</g>
<!-- Node2&#45;&gt;Node3 -->
<g id="edge2_Node000002_Node000003" class="edge">
<title>Node2&#45;&gt;Node3</title>
<g id="a_edge2_Node000002_Node000003"><a xlink:title=" ">
<path fill="none" stroke="#63b8ff" d="M727.58,-318.86C707.17,-324.8 683.48,-331.71 666.37,-336.69"/>
<polygon fill="#63b8ff" stroke="#63b8ff" points="728.67,-322.19 737.29,-316.03 726.71,-315.47 728.67,-322.19"/>
</a>
</g>
</g>
<!-- Node4 -->
<g id="Node000004" class="node">
<title>Node4</title>
<g id="a_Node000004"><a xlink:href="clset_8c.html#a499695ab2ce0f39d1791da495a4c2897" target="_top" xlink:title="Returns a json formatted string representation of a classifier set.">
<polygon fill="white" stroke="#666666" points="688.5,-316 595.5,-316 595.5,-297 688.5,-297 688.5,-316"/>
<text text-anchor="middle" x="642" y="-304" font-family="Helvetica,sans-Serif" font-size="10.00">clset_json_export</text>
</a>
</g>
</g>
<!-- Node2&#45;&gt;Node4 -->
<g id="edge3_Node000002_Node000004" class="edge">
<title>Node2&#45;&gt;Node4</title>
<g id="a_edge3_Node000002_Node000004"><a xlink:title=" ">
<path fill="none" stroke="#63b8ff" d="M720.64,-306.5C710.2,-306.5 699.22,-306.5 688.92,-306.5"/>
<polygon fill="#63b8ff" stroke="#63b8ff" points="720.86,-310 730.86,-306.5 720.86,-303 720.86,-310"/>
</a>
</g>
</g>
<!-- Node5 -->
<g id="Node000005" class="node">
<title>Node5</title>
<g id="a_Node000005"><a xlink:href="clset_8c.html#a724354141b3185c19ac6f3fb7920308b" target="_top" xlink:title="Prints the classifiers in the set.">
<polygon fill="white" stroke="#666666" points="524.5,-316 462.5,-316 462.5,-297 524.5,-297 524.5,-316"/>
<text text-anchor="middle" x="493.5" y="-304" font-family="Helvetica,sans-Serif" font-size="10.00">clset_print</text>
</a>
</g>
</g>
<!-- Node4&#45;&gt;Node5 -->
<g id="edge4_Node000004_Node000005" class="edge">
<title>Node4&#45;&gt;Node5</title>
<g id="a_edge4_Node000004_Node000005"><a xlink:title=" ">
<path fill="none" stroke="#63b8ff" d="M585.24,-306.5C564.69,-306.5 542.19,-306.5 524.74,-306.5"/>
<polygon fill="#63b8ff" stroke="#63b8ff" points="585.45,-310 595.45,-306.5 585.45,-303 585.45,-310"/>
</a>
</g>
</g>
<!-- Node9 -->
<g id="Node000009" class="node">
<title>Node9</title>
<g id="a_Node000009"><a xlink:href="classXCS.html#abbe6889ae982372a11de5a53d80dea93" target="_top" xlink:title="Returns a JSON formatted string representing the population set.">
<polygon fill="white" stroke="#666666" points="382.5,-354 288.5,-354 288.5,-335 382.5,-335 382.5,-354"/>
<text text-anchor="middle" x="335.5" y="-342" font-family="Helvetica,sans-Serif" font-size="10.00">XCS::json_export</text>
</a>
</g>
</g>
<!-- Node4&#45;&gt;Node9 -->
<g id="edge8_Node000004_Node000009" class="edge">
<title>Node4&#45;&gt;Node9</title>
<g id="a_edge8_Node000004_Node000009"><a xlink:title=" ">
<path fill="none" stroke="#63b8ff" d="M591.89,-318.24C579.28,-320.94 565.68,-323.58 553,-325.5 494.61,-334.33 426.7,-339.46 382.73,-342.12"/>
<polygon fill="#63b8ff" stroke="#63b8ff" points="592.75,-321.63 601.77,-316.07 591.25,-314.8 592.75,-321.63"/>
</a>
</g>
</g>
<!-- Node6 -->
<g id="Node000006" class="node">
<title>Node6</title>
<g id="a_Node000006"><a xlink:href="xcsf_8c.html#ae18311260dd4c51978ef361f6f14e8c0" target="_top" xlink:title="Prints the current XCSF population.">
<polygon fill="white" stroke="#666666" points="377,-316 294,-316 294,-297 377,-297 377,-316"/>
<text text-anchor="middle" x="335.5" y="-304" font-family="Helvetica,sans-Serif" font-size="10.00">xcsf_print_pset</text>
</a>
</g>
</g>
<!-- Node5&#45;&gt;Node6 -->
<g id="edge5_Node000005_Node000006" class="edge">
<title>Node5&#45;&gt;Node6</title>
<g id="a_edge5_Node000005_Node000006"><a xlink:title=" ">
<path fill="none" stroke="#63b8ff" d="M452.26,-306.5C429.17,-306.5 400.26,-306.5 377.11,-306.5"/>
<polygon fill="#63b8ff" stroke="#63b8ff" points="452.42,-310 462.42,-306.5 452.42,-303 452.42,-310"/>
</a>
</g>
</g>
<!-- Node7 -->
<g id="Node000007" class="node">
<title>Node7</title>
<g id="a_Node000007"><a xlink:href="classXCS.html#a9feecf1cfbc0910bd334031105732952" target="_top" xlink:title="Prints the current population.">
<polygon fill="white" stroke="#666666" points="236,-278 150,-278 150,-259 236,-259 236,-278"/>
<text text-anchor="middle" x="193" y="-266" font-family="Helvetica,sans-Serif" font-size="10.00">XCS::print_pset</text>
</a>
</g>
</g>
<!-- Node6&#45;&gt;Node7 -->
<g id="edge6_Node000006_Node000007" class="edge">
<title>Node6&#45;&gt;Node7</title>
<g id="a_edge6_Node000006_Node000007"><a xlink:title=" ">
<path fill="none" stroke="#63b8ff" d="M289.22,-294.25C269.86,-289.02 247.58,-282.99 229.44,-278.09"/>
<polygon fill="#63b8ff" stroke="#63b8ff" points="288.48,-297.68 299.05,-296.91 290.31,-290.92 288.48,-297.68"/>
</a>
</g>
</g>
<!-- Node8 -->
<g id="Node000008" class="node">
<title>Node8</title>
<g id="a_Node000008"><a xlink:href="pybind__wrapper_8cpp.html#a172daba0778fe2bd38d723d5f52a23d5" target="_top" xlink:title=" ">
<polygon fill="white" stroke="#666666" points="113,-241 0,-241 0,-222 113,-222 113,-241"/>
<text text-anchor="middle" x="56.5" y="-229" font-family="Helvetica,sans-Serif" font-size="10.00">PYBIND11_MODULE</text>
</a>
</g>
</g>
<!-- Node7&#45;&gt;Node8 -->
<g id="edge7_Node000007_Node000008" class="edge">
<title>Node7&#45;&gt;Node8</title>
<g id="a_edge7_Node000007_Node000008"><a xlink:title=" ">
<path fill="none" stroke="#63b8ff" d="M147.69,-256.31C129.76,-251.38 109.35,-245.76 92.49,-241.12"/>
<polygon fill="#63b8ff" stroke="#63b8ff" points="146.79,-259.69 157.36,-258.97 148.65,-252.94 146.79,-259.69"/>
</a>
</g>
</g>
<!-- Node9&#45;&gt;Node8 -->
<g id="edge11_Node000009_Node000008" class="edge">
<title>Node9&#45;&gt;Node8</title>
<g id="a_edge11_Node000009_Node000008"><a xlink:title=" ">
<path fill="none" stroke="#63b8ff" d="M293.63,-331.91C286.74,-329.77 279.67,-327.58 273,-325.5 217.85,-308.31 201.68,-310.21 149,-286.5 119.93,-273.41 88.62,-253.08 71.2,-241.15"/>
<polygon fill="#63b8ff" stroke="#63b8ff" points="292.93,-335.35 303.52,-334.96 295,-328.67 292.93,-335.35"/>
</a>
</g>
</g>
<!-- Node10 -->
<g id="Node000010" class="node">
<title>Node10</title>
<g id="a_Node000010"><a xlink:href="classXCS.html#a589dc6f43e28dcf5ad4edd505e30a531" target="_top" xlink:title="Writes the current population set to a file in JSON.">
<polygon fill="white" stroke="#666666" points="237,-354 149,-354 149,-335 237,-335 237,-354"/>
<text text-anchor="middle" x="193" y="-342" font-family="Helvetica,sans-Serif" font-size="10.00">XCS::json_write</text>
</a>
</g>
</g>
<!-- Node9&#45;&gt;Node10 -->
<g id="edge9_Node000009_Node000010" class="edge">
<title>Node9&#45;&gt;Node10</title>
<g id="a_edge9_Node000009_Node000010"><a xlink:title=" ">
<path fill="none" stroke="#63b8ff" d="M278.23,-344.5C264.58,-344.5 250.19,-344.5 237.25,-344.5"/>
<polygon fill="#63b8ff" stroke="#63b8ff" points="278.5,-348 288.5,-344.5 278.5,-341 278.5,-348"/>
</a>
</g>
</g>
<!-- Node10&#45;&gt;Node8 -->
<g id="edge10_Node000010_Node000008" class="edge">
<title>Node10&#45;&gt;Node8</title>
<g id="a_edge10_Node000010_Node000008"><a xlink:title=" ">
<path fill="none" stroke="#63b8ff" d="M162.98,-329.68C158.17,-326.84 153.34,-323.74 149,-320.5 115.24,-295.34 81.19,-258.5 65.88,-241.18"/>
<polygon fill="#63b8ff" stroke="#63b8ff" points="161.63,-332.94 172.06,-334.78 165.06,-326.84 161.63,-332.94"/>
</a>
</g>
</g>
<!-- Node12 -->
<g id="Node000012" class="node">
<title>Node12</title>
<g id="a_Node000012"><a xlink:href="clset_8c.html#a27aedca23d7c37f4ca0f44845e9805c7" target="_top" xlink:title="Provides reinforcement to the set and performs set subsumption.">
<polygon fill="white" stroke="#666666" points="807,-212 735,-212 735,-193 807,-193 807,-212"/>
<text text-anchor="middle" x="771" y="-200" font-family="Helvetica,sans-Serif" font-size="10.00">clset_update</text>
</a>
</g>
</g>
<!-- Node11&#45;&gt;Node12 -->
<g id="edge13_Node000011_Node000012" class="edge">
<title>Node11&#45;&gt;Node12</title>
<g id="a_edge13_Node000011_Node000012"><a xlink:title=" ">
<path fill="none" stroke="#63b8ff" d="M836.55,-208.02C826.63,-207.17 816.48,-206.3 807.24,-205.51"/>
<polygon fill="#63b8ff" stroke="#63b8ff" points="836.5,-211.53 846.76,-208.89 837.09,-204.55 836.5,-211.53"/>
</a>
</g>
</g>
<!-- Node13 -->
<g id="Node000013" class="node">
<title>Node13</title>
<g id="a_Node000013"><a xlink:href="xcs__rl_8c.html#a5e5ba8c28646690f0b1c51aae7f6aa78" target="_top" xlink:title="Provides reinforcement to the sets.">
<polygon fill="white" stroke="#666666" points="680.5,-72 603.5,-72 603.5,-53 680.5,-53 680.5,-72"/>
<text text-anchor="middle" x="642" y="-60" font-family="Helvetica,sans-Serif" font-size="10.00">xcs_rl_update</text>
</a>
</g>
</g>
<!-- Node12&#45;&gt;Node13 -->
<g id="edge14_Node000012_Node000013" class="edge">
<title>Node12&#45;&gt;Node13</title>
<g id="a_edge14_Node000012_Node000013"><a xlink:title=" ">
<path fill="none" stroke="#63b8ff" d="M754.46,-185.37C727.53,-155.69 673.06,-95.64 651.79,-72.19"/>
<polygon fill="#63b8ff" stroke="#63b8ff" points="751.96,-187.82 761.27,-192.88 757.14,-183.12 751.96,-187.82"/>
</a>
</g>
</g>
<!-- Node20 -->
<g id="Node000020" class="node">
<title>Node20</title>
<g id="a_Node000020"><a xlink:href="xcs__supervised_8c.html#a8e376723db7b6786507d5ea6add9f650" target="_top" xlink:title="Executes a single XCSF trial.">
<polygon fill="white" stroke="#666666" points="695,-212 589,-212 589,-193 695,-193 695,-212"/>
<text text-anchor="middle" x="642" y="-200" font-family="Helvetica,sans-Serif" font-size="10.00">xcs_supervised_trial</text>
</a>
</g>
</g>
<!-- Node12&#45;&gt;Node20 -->
<g id="edge23_Node000012_Node000020" class="edge">
<title>Node12&#45;&gt;Node20</title>
<g id="a_edge23_Node000012_Node000020"><a xlink:title=" ">
<path fill="none" stroke="#63b8ff" d="M724.8,-202.5C715.16,-202.5 704.92,-202.5 695.05,-202.5"/>
<polygon fill="#63b8ff" stroke="#63b8ff" points="724.96,-206 734.96,-202.5 724.96,-199 724.96,-206"/>
</a>
</g>
</g>
<!-- Node14 -->
<g id="Node000014" class="node">
<title>Node14</title>
<g id="a_Node000014"><a xlink:href="classXCS.html#af8970ba52403714439fda0d4383a390b" target="_top" xlink:title="Creates the action set using the previously selected action, updates the classifiers,...">
<polygon fill="white" stroke="#666666" points="229.5,-19 156.5,-19 156.5,0 229.5,0 229.5,-19"/>
<text text-anchor="middle" x="193" y="-7" font-family="Helvetica,sans-Serif" font-size="10.00">XCS::update</text>
</a>
</g>
</g>
<!-- Node13&#45;&gt;Node14 -->
<g id="edge15_Node000013_Node000014" class="edge">
<title>Node13&#45;&gt;Node14</title>
<g id="a_edge15_Node000013_Node000014"><a xlink:title=" ">
<path fill="none" stroke="#63b8ff" d="M614.81,-48.17C597.74,-39.61 574.7,-29.46 553,-24.5 437.15,1.98 294.92,-2.64 229.73,-6.74"/>
<polygon fill="#63b8ff" stroke="#63b8ff" points="613.62,-51.5 624.11,-52.98 616.83,-45.28 613.62,-51.5"/>
</a>
</g>
</g>
<!-- Node15 -->
<g id="Node000015" class="node">
<title>Node15</title>
<g id="a_Node000015"><a xlink:href="xcs__rl_8c.html#a391abf9bd2540ff284f822b30899c438" target="_top" xlink:title="Creates and updates an action set for a given (state, action, reward).">
<polygon fill="white" stroke="#666666" points="521.5,-53 465.5,-53 465.5,-34 521.5,-34 521.5,-53"/>
<text text-anchor="middle" x="493.5" y="-41" font-family="Helvetica,sans-Serif" font-size="10.00">xcs_rl_fit</text>
</a>
</g>
</g>
<!-- Node13&#45;&gt;Node15 -->
<g id="edge17_Node000013_Node000015" class="edge">
<title>Node13&#45;&gt;Node15</title>
<g id="a_edge17_Node000013_Node000015"><a xlink:title=" ">
<path fill="none" stroke="#63b8ff" d="M593.1,-56.29C569.5,-53.23 541.91,-49.65 521.92,-47.06"/>
<polygon fill="#63b8ff" stroke="#63b8ff" points="592.91,-59.79 603.27,-57.61 593.81,-52.85 592.91,-59.79"/>
</a>
</g>
</g>
<!-- Node17 -->
<g id="Node000017" class="node">
<title>Node17</title>
<g id="a_Node000017"><a xlink:href="xcs__rl_8c.html#a8171cd945b56ed0a4563f9dcd89438e3" target="_top" xlink:title="Executes a reinforcement learning trial using a built&#45;in environment.">
<polygon fill="white" stroke="#666666" points="525.5,-90 461.5,-90 461.5,-71 525.5,-71 525.5,-90"/>
<text text-anchor="middle" x="493.5" y="-78" font-family="Helvetica,sans-Serif" font-size="10.00">xcs_rl_trial</text>
</a>
</g>
</g>
<!-- Node13&#45;&gt;Node17 -->
<g id="edge20_Node000013_Node000017" class="edge">
<title>Node13&#45;&gt;Node17</title>
<g id="a_edge20_Node000013_Node000017"><a xlink:title=" ">
<path fill="none" stroke="#63b8ff" d="M593.06,-68.39C570.92,-71.11 545.26,-74.26 525.68,-76.67"/>
<polygon fill="#63b8ff" stroke="#63b8ff" points="593.77,-71.83 603.27,-67.14 592.92,-64.88 593.77,-71.83"/>
</a>
</g>
</g>
<!-- Node14&#45;&gt;Node8 -->
<g id="edge16_Node000014_Node000008" class="edge">
<title>Node14&#45;&gt;Node8</title>
<g id="a_edge16_Node000014_Node000008"><a xlink:title=" ">
<path fill="none" stroke="#63b8ff" d="M170.93,-25.3C163.4,-31.64 155.23,-39.37 149,-47.5 103.19,-107.23 70.74,-193.5 60.74,-221.98"/>
<polygon fill="#63b8ff" stroke="#63b8ff" points="173.15,-28.02 178.74,-19.02 168.76,-22.56 173.15,-28.02"/>
</a>
</g>
</g>
<!-- Node16 -->
<g id="Node000016" class="node">
<title>Node16</title>
<g id="a_Node000016"><a xlink:href="classXCS.html#ac12768292958a714a726b1c029e9616a" target="_top" xlink:title="Creates/updates an action set for a given (state, action, reward).">
<polygon fill="white" stroke="#666666" points="219,-76 167,-76 167,-57 219,-57 219,-76"/>
<text text-anchor="middle" x="193" y="-64" font-family="Helvetica,sans-Serif" font-size="10.00">XCS::fit</text>
</a>
</g>
</g>
<!-- Node15&#45;&gt;Node16 -->
<g id="edge18_Node000015_Node000016" class="edge">
<title>Node15&#45;&gt;Node16</title>
<g id="a_edge18_Node000015_Node000016"><a xlink:title=" ">
<path fill="none" stroke="#63b8ff" d="M455.41,-46.36C393.72,-51.11 271.63,-60.52 219.05,-64.57"/>
<polygon fill="#63b8ff" stroke="#63b8ff" points="455.78,-49.84 465.48,-45.58 455.24,-42.86 455.78,-49.84"/>
</a>
</g>
</g>
<!-- Node16&#45;&gt;Node8 -->
<g id="edge19_Node000016_Node000008" class="edge">
<title>Node16&#45;&gt;Node8</title>
<g id="a_edge19_Node000016_Node000008"><a xlink:title=" ">
<path fill="none" stroke="#63b8ff" d="M164.99,-81.68C159.38,-85.48 153.74,-89.81 149,-94.5 107.5,-135.52 74.04,-198.16 62.16,-221.92"/>
<polygon fill="#63b8ff" stroke="#63b8ff" points="167.08,-84.51 173.65,-76.2 163.33,-78.59 167.08,-84.51"/>
</a>
</g>
</g>
<!-- Node18 -->
<g id="Node000018" class="node">
<title>Node18</title>
<g id="a_Node000018"><a xlink:href="xcs__rl_8c.html#adb4c284d19eeaed2b4a629f9b939ed20" target="_top" xlink:title="Executes a reinforcement learning experiment.">
<polygon fill="white" stroke="#666666" points="367.5,-90 303.5,-90 303.5,-71 367.5,-71 367.5,-90"/>
<text text-anchor="middle" x="335.5" y="-78" font-family="Helvetica,sans-Serif" font-size="10.00">xcs_rl_exp</text>
</a>
</g>
</g>
<!-- Node17&#45;&gt;Node18 -->
<g id="edge21_Node000017_Node000018" class="edge">
<title>Node17&#45;&gt;Node18</title>
<g id="a_edge21_Node000017_Node000018"><a xlink:title=" ">
<path fill="none" stroke="#63b8ff" d="M451.28,-80.5C425.06,-80.5 391.65,-80.5 367.64,-80.5"/>
<polygon fill="#63b8ff" stroke="#63b8ff" points="451.31,-84 461.31,-80.5 451.31,-77 451.31,-84"/>
</a>
</g>
</g>
<!-- Node19 -->
<g id="Node000019" class="node">
<title>Node19</title>
<g id="a_Node000019"><a xlink:href="main_8c.html#a3c04138a5bfe5d72780bb7e82a18e627" target="_top" xlink:title=" ">
<polygon fill="white" stroke="#666666" points="212,-123 174,-123 174,-104 212,-104 212,-123"/>
<text text-anchor="middle" x="193" y="-111" font-family="Helvetica,sans-Serif" font-size="10.00">main</text>
</a>
</g>
</g>
<!-- Node18&#45;&gt;Node19 -->
<g id="edge22_Node000018_Node000019" class="edge">
<title>Node18&#45;&gt;Node19</title>
<g id="a_edge22_Node000018_Node000019"><a xlink:title=" ">
<path fill="none" stroke="#63b8ff" d="M293.39,-90.16C266.48,-96.48 232.64,-104.42 212.2,-109.22"/>
<polygon fill="#63b8ff" stroke="#63b8ff" points="294.38,-93.52 303.32,-87.82 292.78,-86.7 294.38,-93.52"/>
</a>
</g>
</g>
<!-- Node21 -->
<g id="Node000021" class="node">
<title>Node21</title>
<g id="a_Node000021"><a xlink:href="xcs__supervised_8c.html#a4b67d2351436bfb520f5707260420f8c" target="_top" xlink:title="Executes MAX_TRIALS number of XCSF learning iterations using the training data and test iterations us...">
<polygon fill="white" stroke="#666666" points="542.5,-166 444.5,-166 444.5,-147 542.5,-147 542.5,-166"/>
<text text-anchor="middle" x="493.5" y="-154" font-family="Helvetica,sans-Serif" font-size="10.00">xcs_supervised_fit</text>
</a>
</g>
</g>
<!-- Node20&#45;&gt;Node21 -->
<g id="edge24_Node000020_Node000021" class="edge">
<title>Node20&#45;&gt;Node21</title>
<g id="a_edge24_Node000020_Node000021"><a xlink:title=" ">
<path fill="none" stroke="#63b8ff" d="M601.68,-189.9C586.48,-185.05 568.94,-179.49 553,-174.5 544.18,-171.74 534.59,-168.78 525.79,-166.07"/>
<polygon fill="#63b8ff" stroke="#63b8ff" points="600.7,-193.26 611.29,-192.97 602.83,-186.59 600.7,-193.26"/>
</a>
</g>
</g>
<!-- Node23 -->
<g id="Node000023" class="node">
<title>Node23</title>
<g id="a_Node000023"><a xlink:href="xcs__supervised_8c.html#ae4791c1daf0baaa6615f70332657aadb" target="_top" xlink:title="Calculates the XCSF predictions for the provided input.">
<polygon fill="white" stroke="#666666" points="553,-203 434,-203 434,-184 553,-184 553,-203"/>
<text text-anchor="middle" x="493.5" y="-191" font-family="Helvetica,sans-Serif" font-size="10.00">xcs_supervised_predict</text>
</a>
</g>
</g>
<!-- Node20&#45;&gt;Node23 -->
<g id="edge27_Node000020_Node000023" class="edge">
<title>Node20&#45;&gt;Node23</title>
<g id="a_edge27_Node000020_Node000023"><a xlink:title=" ">
<path fill="none" stroke="#63b8ff" d="M578.72,-198.67C570.23,-198.15 561.55,-197.62 553.13,-197.1"/>
<polygon fill="#63b8ff" stroke="#63b8ff" points="578.74,-202.18 588.94,-199.3 579.17,-195.19 578.74,-202.18"/>
</a>
</g>
</g>
<!-- Node25 -->
<g id="Node000025" class="node">
<title>Node25</title>
<g id="a_Node000025"><a xlink:href="xcs__supervised_8c.html#a535e3dbbf0f80e64a4e9b1c700e51f40" target="_top" xlink:title="Calculates the XCSF error for the input data.">
<polygon fill="white" stroke="#666666" points="550.5,-240 436.5,-240 436.5,-221 550.5,-221 550.5,-240"/>
<text text-anchor="middle" x="493.5" y="-228" font-family="Helvetica,sans-Serif" font-size="10.00">xcs_supervised_score</text>
</a>
</g>
</g>
<!-- Node20&#45;&gt;Node25 -->
<g id="edge30_Node000020_Node000025" class="edge">
<title>Node20&#45;&gt;Node25</title>
<g id="a_edge30_Node000020_Node000025"><a xlink:title=" ">
<path fill="none" stroke="#63b8ff" d="M580.91,-213.98C568.74,-216.31 556.06,-218.73 544.28,-220.99"/>
<polygon fill="#63b8ff" stroke="#63b8ff" points="581.83,-217.37 590.99,-212.06 580.51,-210.5 581.83,-217.37"/>
</a>
</g>
</g>
<!-- Node27 -->
<g id="Node000027" class="node">
<title>Node27</title>
<g id="a_Node000027"><a xlink:href="xcs__supervised_8c.html#a9ab2bb39625aea84c716901a95a4326e" target="_top" xlink:title="Calculates the XCSF error for a subsample of the input data.">
<polygon fill="white" stroke="#666666" points="398,-279 273,-279 273,-260 398,-260 398,-279"/>
<text text-anchor="middle" x="335.5" y="-267" font-family="Helvetica,sans-Serif" font-size="10.00">xcs_supervised_score_n</text>
</a>
</g>
</g>
<!-- Node20&#45;&gt;Node27 -->
<g id="edge36_Node000020_Node000027" class="edge">
<title>Node20&#45;&gt;Node27</title>
<g id="a_edge36_Node000020_Node000027"><a xlink:title=" ">
<path fill="none" stroke="#63b8ff" d="M618.06,-217.64C600.89,-228.18 576.42,-241.53 553,-248.5 502.33,-263.58 442.33,-268.44 398.36,-269.76"/>
<polygon fill="#63b8ff" stroke="#63b8ff" points="620.2,-220.43 626.79,-212.14 616.47,-214.51 620.2,-220.43"/>
</a>
</g>
</g>
<!-- Node21&#45;&gt;Node19 -->
<g id="edge26_Node000021_Node000019" class="edge">
<title>Node21&#45;&gt;Node19</title>
<g id="a_edge26_Node000021_Node000019"><a xlink:title=" ">
<path fill="none" stroke="#63b8ff" d="M438.91,-144.94C425.58,-142.28 411.3,-139.62 398,-137.5 329.68,-126.63 247.75,-118.45 212.08,-115.13"/>
<polygon fill="#63b8ff" stroke="#63b8ff" points="438.38,-148.4 448.88,-146.96 439.77,-141.54 438.38,-148.4"/>
</a>
</g>
</g>
<!-- Node22 -->
<g id="Node000022" class="node">
<title>Node22</title>
<g id="a_Node000022"><a xlink:href="classXCS.html#ae71d09f1e1346353163fc9d8ffb430af" target="_top" xlink:title="Executes MAX_TRIALS number of XCSF learning iterations using the provided training data.">
<polygon fill="white" stroke="#666666" points="361.5,-166 309.5,-166 309.5,-147 361.5,-147 361.5,-166"/>
<text text-anchor="middle" x="335.5" y="-154" font-family="Helvetica,sans-Serif" font-size="10.00">XCS::fit</text>
</a>
</g>
</g>
<!-- Node21&#45;&gt;Node22 -->
<g id="edge25_Node000021_Node000022" class="edge">
<title>Node21&#45;&gt;Node22</title>
<g id="a_edge25_Node000021_Node000022"><a xlink:title=" ">
<path fill="none" stroke="#63b8ff" d="M434.24,-156.5C409.15,-156.5 381.13,-156.5 361.55,-156.5"/>
<polygon fill="#63b8ff" stroke="#63b8ff" points="434.42,-160 444.42,-156.5 434.42,-153 434.42,-160"/>
</a>
</g>
</g>
<!-- Node24 -->
<g id="Node000024" class="node">
<title>Node24</title>
<g id="a_Node000024"><a xlink:href="classXCS.html#a562cb81d9627e7dbcfdb0dc05ec2e3f0" target="_top" xlink:title="Returns the XCSF prediction array for the provided input.">
<polygon fill="white" stroke="#666666" points="372,-203 299,-203 299,-184 372,-184 372,-203"/>
<text text-anchor="middle" x="335.5" y="-191" font-family="Helvetica,sans-Serif" font-size="10.00">XCS::predict</text>
</a>
</g>
</g>
<!-- Node23&#45;&gt;Node24 -->
<g id="edge28_Node000023_Node000024" class="edge">
<title>Node23&#45;&gt;Node24</title>
<g id="a_edge28_Node000023_Node000024"><a xlink:title=" ">
<path fill="none" stroke="#63b8ff" d="M423.62,-193.5C405.88,-193.5 387.51,-193.5 372.23,-193.5"/>
<polygon fill="#63b8ff" stroke="#63b8ff" points="423.97,-197 433.97,-193.5 423.97,-190 423.97,-197"/>
</a>
</g>
</g>
<!-- Node24&#45;&gt;Node8 -->
<g id="edge29_Node000024_Node000008" class="edge">
<title>Node24&#45;&gt;Node8</title>
<g id="a_edge29_Node000024_Node000008"><a xlink:title=" ">
<path fill="none" stroke="#63b8ff" d="M288.65,-196.88C251.01,-199.97 196.37,-205.17 149,-212.5 132.49,-215.05 114.45,-218.63 98.79,-221.99"/>
<polygon fill="#63b8ff" stroke="#63b8ff" points="289.11,-200.35 298.8,-196.06 288.55,-193.37 289.11,-200.35"/>
</a>
</g>
</g>
<!-- Node25&#45;&gt;Node22 -->
<g id="edge31_Node000025_Node000022" class="edge">
<title>Node25&#45;&gt;Node22</title>
<g id="a_edge31_Node000025_Node000022"><a xlink:title=" ">
<path fill="none" stroke="#63b8ff" d="M444.57,-217.11C440.89,-215.43 437.32,-213.57 434,-211.5 414.52,-199.38 417.66,-186.33 398,-174.5 386.94,-167.84 373.28,-163.52 361.64,-160.79"/>
<polygon fill="#63b8ff" stroke="#63b8ff" points="443.28,-220.36 453.86,-220.9 445.92,-213.88 443.28,-220.36"/>
</a>
</g>
</g>
<!-- Node26 -->
<g id="Node000026" class="node">
<title>Node26</title>
<g id="a_Node000026"><a xlink:href="classXCS.html#a2aeb9df5550b79ea97a725e83ef64005" target="_top" xlink:title="Returns the error using N random samples from the provided data.">
<polygon fill="white" stroke="#666666" points="227,-241 159,-241 159,-222 227,-222 227,-241"/>
<text text-anchor="middle" x="193" y="-229" font-family="Helvetica,sans-Serif" font-size="10.00">XCS::score</text>
</a>
</g>
</g>
<!-- Node25&#45;&gt;Node26 -->
<g id="edge32_Node000025_Node000026" class="edge">
<title>Node25&#45;&gt;Node26</title>
<g id="a_edge32_Node000025_Node000026"><a xlink:title=" ">
<path fill="none" stroke="#63b8ff" d="M426.32,-230.72C364.62,-230.93 275.12,-231.23 227.22,-231.39"/>
<polygon fill="#63b8ff" stroke="#63b8ff" points="426.37,-234.22 436.35,-230.69 426.34,-227.22 426.37,-234.22"/>
</a>
</g>
</g>
<!-- Node25&#45;&gt;Node27 -->
<g id="edge34_Node000025_Node000027" class="edge">
<title>Node25&#45;&gt;Node27</title>
<g id="a_edge34_Node000025_Node000027"><a xlink:title=" ">
<path fill="none" stroke="#63b8ff" d="M444.63,-242.47C422.12,-248.09 395.65,-254.71 374.54,-259.99"/>
<polygon fill="#63b8ff" stroke="#63b8ff" points="445.49,-245.86 454.34,-240.04 443.79,-239.07 445.49,-245.86"/>
</a>
</g>
</g>
<!-- Node26&#45;&gt;Node8 -->
<g id="edge33_Node000026_Node000008" class="edge">
<title>Node26&#45;&gt;Node8</title>
<g id="a_edge33_Node000026_Node000008"><a xlink:title=" ">
<path fill="none" stroke="#63b8ff" d="M148.69,-231.5C137.37,-231.5 125,-231.5 113.13,-231.5"/>
<polygon fill="#63b8ff" stroke="#63b8ff" points="148.75,-235 158.75,-231.5 148.75,-228 148.75,-235"/>
</a>
</g>
</g>
<!-- Node27&#45;&gt;Node26 -->
<g id="edge35_Node000027_Node000026" class="edge">
<title>Node27&#45;&gt;Node26</title>
<g id="a_edge35_Node000027_Node000026"><a xlink:title=" ">
<path fill="none" stroke="#63b8ff" d="M289.39,-257.3C269.12,-251.82 245.63,-245.46 227.03,-240.43"/>
<polygon fill="#63b8ff" stroke="#63b8ff" points="288.48,-260.68 299.05,-259.91 290.31,-253.92 288.48,-260.68"/>
</a>
</g>
</g>
</g>
</svg>
