<?xml version="1.0" encoding="UTF-8" standalone="no"?>
<!DOCTYPE svg PUBLIC "-//W3C//DTD SVG 1.1//EN"
 "http://www.w3.org/Graphics/SVG/1.1/DTD/svg11.dtd">
<!-- Generated by graphviz version 2.43.0 (0)
 -->
<!-- Title: cl_general Pages: 1 -->
<svg width="179pt" height="66pt"
 viewBox="0.00 0.00 179.00 66.00" xmlns="http://www.w3.org/2000/svg" xmlns:xlink="http://www.w3.org/1999/xlink">
<g id="graph0" class="graph" transform="scale(1 1) rotate(0) translate(4 62)">
<title>cl_general</title>
<!-- Node1 -->
<g id="node1" class="node">
<title>Node1</title>
<g id="a_node1"><a xlink:title="Returns whether classifier c1 is more general than c2.">
<polygon fill="#bfbfbf" stroke="black" points="0,-19.5 0,-38.5 61,-38.5 61,-19.5 0,-19.5"/>
<text text-anchor="middle" x="30.5" y="-26.5" font-family="Helvetica,sans-Serif" font-size="10.00">cl_general</text>
</a>
</g>
</g>
<!-- Node2 -->
<g id="node2" class="node">
<title>Node2</title>
<g id="a_node2"><a xlink:href="action_8h.html#a094125db2ba3a862ef8259cb58091257" target="_top" xlink:title="Returns whether the action of classifier c1 is more general than c2.">
<polygon fill="none" stroke="black" points="100.5,-38.5 100.5,-57.5 167.5,-57.5 167.5,-38.5 100.5,-38.5"/>
<text text-anchor="middle" x="134" y="-45.5" font-family="Helvetica,sans-Serif" font-size="10.00">act_general</text>
</a>
</g>
</g>
<!-- Node1&#45;&gt;Node2 -->
<g id="edge1" class="edge">
<title>Node1&#45;&gt;Node2</title>
<path fill="none" stroke="midnightblue" d="M61.13,-34.55C70.25,-36.25 80.48,-38.17 90.29,-40.01"/>
<polygon fill="midnightblue" stroke="midnightblue" points="89.84,-43.48 100.31,-41.88 91.12,-36.6 89.84,-43.48"/>
</g>
<!-- Node3 -->
<g id="node3" class="node">
<title>Node3</title>
<g id="a_node3"><a xlink:href="condition_8h.html#a295735b1e4f46d77a9655c85040ccdfc" target="_top" xlink:title="Returns whether the condition of classifier c1 is more general than c2.">
<polygon fill="none" stroke="black" points="97,-0.5 97,-19.5 171,-19.5 171,-0.5 97,-0.5"/>
<text text-anchor="middle" x="134" y="-7.5" font-family="Helvetica,sans-Serif" font-size="10.00">cond_general</text>
</a>
</g>
</g>
<!-- Node1&#45;&gt;Node3 -->
<g id="edge2" class="edge">
<title>Node1&#45;&gt;Node3</title>
<path fill="none" stroke="midnightblue" d="M61.13,-23.45C69.12,-21.96 77.96,-20.3 86.63,-18.68"/>
<polygon fill="midnightblue" stroke="midnightblue" points="87.48,-22.08 96.67,-16.8 86.2,-15.2 87.48,-22.08"/>
</g>
</g>
</svg>
