<?xml version="1.0" encoding="UTF-8" standalone="no"?>
<!DOCTYPE svg PUBLIC "-//W3C//DTD SVG 1.1//EN"
 "http://www.w3.org/Graphics/SVG/1.1/DTD/svg11.dtd">
<!-- Generated by graphviz version 2.43.0 (0)
 -->
<!-- Title: cl_init Pages: 1 -->
<svg width="866pt" height="390pt"
 viewBox="0.00 0.00 866.00 390.12" xmlns="http://www.w3.org/2000/svg" xmlns:xlink="http://www.w3.org/1999/xlink">
<g id="graph0" class="graph" transform="scale(1 1) rotate(0) translate(4 386.12)">
<title>cl_init</title>
<!-- Node1 -->
<g id="node1" class="node">
<title>Node1</title>
<g id="a_node1"><a xlink:title="Initialises a new classifier.">
<polygon fill="#bfbfbf" stroke="black" points="816,-166.5 816,-185.5 858,-185.5 858,-166.5 816,-166.5"/>
<text text-anchor="middle" x="837" y="-173.5" font-family="Helvetica,sans-Serif" font-size="10.00">cl_init</text>
</a>
</g>
</g>
<!-- Node2 -->
<g id="node2" class="node">
<title>Node2</title>
<g id="a_node2"><a xlink:href="clset_8c.html#aa1b7f7f1ccebf6e4e030333304fe3f51" target="_top" xlink:title="Ensures all possible actions are covered by the match set.">
<polygon fill="none" stroke="black" points="713,-109.5 713,-128.5 780,-128.5 780,-109.5 713,-109.5"/>
<text text-anchor="middle" x="746.5" y="-116.5" font-family="Helvetica,sans-Serif" font-size="10.00">clset_cover</text>
</a>
</g>
</g>
<!-- Node1&#45;&gt;Node2 -->
<g id="edge1" class="edge">
<title>Node1&#45;&gt;Node2</title>
<path fill="none" stroke="midnightblue" d="M812.23,-160.69C796.33,-150.45 775.9,-137.29 762.29,-128.53"/>
<polygon fill="midnightblue" stroke="midnightblue" points="810.68,-163.86 820.99,-166.33 814.48,-157.97 810.68,-163.86"/>
</g>
<!-- Node20 -->
<g id="node20" class="node">
<title>Node20</title>
<g id="a_node20"><a xlink:href="clset_8h.html#a3cdbb88c05174dc5c137836c9e99c8ec" target="_top" xlink:title="Initialises a new population of random classifiers.">
<polygon fill="none" stroke="black" points="331,-323.5 331,-342.5 408,-342.5 408,-323.5 331,-323.5"/>
<text text-anchor="middle" x="369.5" y="-330.5" font-family="Helvetica,sans-Serif" font-size="10.00">clset_pop_init</text>
</a>
</g>
</g>
<!-- Node1&#45;&gt;Node20 -->
<g id="edge24" class="edge">
<title>Node1&#45;&gt;Node20</title>
<path fill="none" stroke="midnightblue" d="M806.28,-186.02C721.9,-214.48 481.66,-295.51 398.92,-323.42"/>
<polygon fill="midnightblue" stroke="midnightblue" points="807.64,-189.26 816,-182.75 805.4,-182.63 807.64,-189.26"/>
</g>
<!-- Node22 -->
<g id="node22" class="node">
<title>Node22</title>
<g id="a_node22"><a xlink:href="ea_8h.html#aa9a62dcbc8ad53245d294d8d37bfffe1" target="_top" xlink:title="Executes the evolutionary algorithm (EA).">
<polygon fill="none" stroke="black" points="627.5,-166.5 627.5,-185.5 656.5,-185.5 656.5,-166.5 627.5,-166.5"/>
<text text-anchor="middle" x="642" y="-173.5" font-family="Helvetica,sans-Serif" font-size="10.00">ea</text>
</a>
</g>
</g>
<!-- Node1&#45;&gt;Node22 -->
<g id="edge29" class="edge">
<title>Node1&#45;&gt;Node22</title>
<path fill="none" stroke="midnightblue" d="M805.65,-176C763.07,-176 687.39,-176 656.6,-176"/>
<polygon fill="midnightblue" stroke="midnightblue" points="805.71,-179.5 815.71,-176 805.71,-172.5 805.71,-179.5"/>
</g>
<!-- Node3 -->
<g id="node3" class="node">
<title>Node3</title>
<g id="a_node3"><a xlink:href="clset_8h.html#a101813e8460677fdb33f08e0226dce9b" target="_top" xlink:title="Constructs the match set.">
<polygon fill="none" stroke="black" points="607,-81.5 607,-100.5 677,-100.5 677,-81.5 607,-81.5"/>
<text text-anchor="middle" x="642" y="-88.5" font-family="Helvetica,sans-Serif" font-size="10.00">clset_match</text>
</a>
</g>
</g>
<!-- Node2&#45;&gt;Node3 -->
<g id="edge2" class="edge">
<title>Node2&#45;&gt;Node3</title>
<path fill="none" stroke="midnightblue" d="M702.92,-107.37C694.34,-105.02 685.42,-102.59 677.17,-100.33"/>
<polygon fill="midnightblue" stroke="midnightblue" points="702.22,-110.8 712.79,-110.06 704.06,-104.05 702.22,-110.8"/>
</g>
<!-- Node4 -->
<g id="node4" class="node">
<title>Node4</title>
<g id="a_node4"><a xlink:href="xcs__rl_8h.html#a6501735ba3cba5c77c1b8ad0aad0b26a" target="_top" xlink:title="Selects an action to perform in a reinforcement learning problem.">
<polygon fill="none" stroke="black" points="476,-76.5 476,-95.5 560,-95.5 560,-76.5 476,-76.5"/>
<text text-anchor="middle" x="518" y="-83.5" font-family="Helvetica,sans-Serif" font-size="10.00">xcs_rl_decision</text>
</a>
</g>
</g>
<!-- Node3&#45;&gt;Node4 -->
<g id="edge3" class="edge">
<title>Node3&#45;&gt;Node4</title>
<path fill="none" stroke="midnightblue" d="M596.59,-89.18C584.77,-88.7 572.06,-88.17 560.41,-87.7"/>
<polygon fill="midnightblue" stroke="midnightblue" points="596.56,-92.68 606.69,-89.59 596.84,-85.69 596.56,-92.68"/>
</g>
<!-- Node10 -->
<g id="node10" class="node">
<title>Node10</title>
<g id="a_node10"><a xlink:href="xcs__rl_8h.html#a391abf9bd2540ff284f822b30899c438" target="_top" xlink:title="Creates and updates an action set for a given (state, action, reward).">
<polygon fill="none" stroke="black" points="341.5,-38.5 341.5,-57.5 397.5,-57.5 397.5,-38.5 341.5,-38.5"/>
<text text-anchor="middle" x="369.5" y="-45.5" font-family="Helvetica,sans-Serif" font-size="10.00">xcs_rl_fit</text>
</a>
</g>
</g>
<!-- Node3&#45;&gt;Node10 -->
<g id="edge9" class="edge">
<title>Node3&#45;&gt;Node10</title>
<path fill="none" stroke="midnightblue" d="M608.06,-77.92C596.51,-73.81 583.34,-69.66 571,-67 509.99,-53.84 436.58,-49.8 397.73,-48.55"/>
<polygon fill="midnightblue" stroke="midnightblue" points="607.15,-81.31 617.74,-81.48 609.56,-74.74 607.15,-81.31"/>
</g>
<!-- Node12 -->
<g id="node12" class="node">
<title>Node12</title>
<g id="a_node12"><a xlink:href="xcs__supervised_8c.html#a836aae9ec3055625d1c464d41746a7b9" target="_top" xlink:title="Executes a single XCSF trial.">
<polygon fill="none" stroke="black" points="465,-171.5 465,-190.5 571,-190.5 571,-171.5 465,-171.5"/>
<text text-anchor="middle" x="518" y="-178.5" font-family="Helvetica,sans-Serif" font-size="10.00">xcs_supervised_trial</text>
</a>
</g>
</g>
<!-- Node3&#45;&gt;Node12 -->
<g id="edge12" class="edge">
<title>Node3&#45;&gt;Node12</title>
<path fill="none" stroke="midnightblue" d="M619.75,-106.85C605.89,-117.17 587.4,-130.92 571,-143 557.86,-152.68 542.79,-163.68 532.27,-171.35"/>
<polygon fill="midnightblue" stroke="midnightblue" points="622.19,-109.4 628.12,-100.61 618.01,-103.78 622.19,-109.4"/>
</g>
<!-- Node5 -->
<g id="node5" class="node">
<title>Node5</title>
<g id="a_node5"><a xlink:href="classXCS.html#a88554ef523b4d9c2fd1c3b15a408ac37" target="_top" xlink:title="Selects an action to perform in a reinforcement learning problem.">
<polygon fill="none" stroke="black" points="171.5,-0.5 171.5,-19.5 251.5,-19.5 251.5,-0.5 171.5,-0.5"/>
<text text-anchor="middle" x="211.5" y="-7.5" font-family="Helvetica,sans-Serif" font-size="10.00">XCS::decision</text>
</a>
</g>
</g>
<!-- Node4&#45;&gt;Node5 -->
<g id="edge4" class="edge">
<title>Node4&#45;&gt;Node5</title>
<path fill="none" stroke="midnightblue" d="M498.04,-69.76C481.14,-56.3 455.09,-37.97 429,-29 369.59,-8.57 295.88,-6.68 251.6,-7.85"/>
<polygon fill="midnightblue" stroke="midnightblue" points="496.05,-72.65 506,-76.28 500.49,-67.24 496.05,-72.65"/>
</g>
<!-- Node7 -->
<g id="node7" class="node">
<title>Node7</title>
<g id="a_node7"><a xlink:href="xcs__rl_8c.html#a2f0a96843e8ce69fe321d557d34e9f38" target="_top" xlink:title="Executes a reinforcement learning trial using a built&#45;in environment.">
<polygon fill="none" stroke="black" points="337.5,-76.5 337.5,-95.5 401.5,-95.5 401.5,-76.5 337.5,-76.5"/>
<text text-anchor="middle" x="369.5" y="-83.5" font-family="Helvetica,sans-Serif" font-size="10.00">xcs_rl_trial</text>
</a>
</g>
</g>
<!-- Node4&#45;&gt;Node7 -->
<g id="edge6" class="edge">
<title>Node4&#45;&gt;Node7</title>
<path fill="none" stroke="midnightblue" d="M465.59,-86C444.26,-86 420.21,-86 401.64,-86"/>
<polygon fill="midnightblue" stroke="midnightblue" points="465.8,-89.5 475.8,-86 465.8,-82.5 465.8,-89.5"/>
</g>
<!-- Node6 -->
<g id="node6" class="node">
<title>Node6</title>
<g id="a_node6"><a xlink:href="pybind__wrapper_8cpp.html#a269acb618355873dacf057083f07eb58" target="_top" xlink:title=" ">
<polygon fill="none" stroke="black" points="0,-76.5 0,-95.5 113,-95.5 113,-76.5 0,-76.5"/>
<text text-anchor="middle" x="56.5" y="-83.5" font-family="Helvetica,sans-Serif" font-size="10.00">pybind11_init_wrapper</text>
</a>
</g>
</g>
<!-- Node5&#45;&gt;Node6 -->
<g id="edge5" class="edge">
<title>Node5&#45;&gt;Node6</title>
<path fill="none" stroke="midnightblue" d="M164.58,-22.75C159.25,-24.65 153.96,-26.74 149,-29 119.38,-42.53 87.75,-64 70.53,-76.37"/>
<polygon fill="midnightblue" stroke="midnightblue" points="165.78,-26.04 174.15,-19.53 163.55,-19.4 165.78,-26.04"/>
</g>
<!-- Node8 -->
<g id="node8" class="node">
<title>Node8</title>
<g id="a_node8"><a xlink:href="xcs__rl_8h.html#adb4c284d19eeaed2b4a629f9b939ed20" target="_top" xlink:title="Executes a reinforcement learning experiment.">
<polygon fill="none" stroke="black" points="179.5,-114.5 179.5,-133.5 243.5,-133.5 243.5,-114.5 179.5,-114.5"/>
<text text-anchor="middle" x="211.5" y="-121.5" font-family="Helvetica,sans-Serif" font-size="10.00">xcs_rl_exp</text>
</a>
</g>
</g>
<!-- Node7&#45;&gt;Node8 -->
<g id="edge7" class="edge">
<title>Node7&#45;&gt;Node8</title>
<path fill="none" stroke="midnightblue" d="M327.28,-96.04C301.06,-102.43 267.65,-110.57 243.64,-116.41"/>
<polygon fill="midnightblue" stroke="midnightblue" points="328.42,-99.37 337.31,-93.6 326.76,-92.56 328.42,-99.37"/>
</g>
<!-- Node9 -->
<g id="node9" class="node">
<title>Node9</title>
<g id="a_node9"><a xlink:href="main_8c.html#a3c04138a5bfe5d72780bb7e82a18e627" target="_top" xlink:title=" ">
<polygon fill="none" stroke="black" points="37.5,-266.5 37.5,-285.5 75.5,-285.5 75.5,-266.5 37.5,-266.5"/>
<text text-anchor="middle" x="56.5" y="-273.5" font-family="Helvetica,sans-Serif" font-size="10.00">main</text>
</a>
</g>
</g>
<!-- Node8&#45;&gt;Node9 -->
<g id="edge8" class="edge">
<title>Node8&#45;&gt;Node9</title>
<path fill="none" stroke="midnightblue" d="M169.63,-130.91C162.09,-133.69 154.78,-137.57 149,-143 116.09,-173.91 140.91,-202.51 113,-238 103.04,-250.67 87.69,-260.72 75.66,-267.3"/>
<polygon fill="midnightblue" stroke="midnightblue" points="170.69,-134.25 179.21,-127.96 168.63,-127.56 170.69,-134.25"/>
</g>
<!-- Node11 -->
<g id="node11" class="node">
<title>Node11</title>
<g id="a_node11"><a xlink:href="classXCS.html#ac12768292958a714a726b1c029e9616a" target="_top" xlink:title="Creates/updates an action set for a given (state, action, reward).">
<polygon fill="none" stroke="black" points="185.5,-38.5 185.5,-57.5 237.5,-57.5 237.5,-38.5 185.5,-38.5"/>
<text text-anchor="middle" x="211.5" y="-45.5" font-family="Helvetica,sans-Serif" font-size="10.00">XCS::fit</text>
</a>
</g>
</g>
<!-- Node10&#45;&gt;Node11 -->
<g id="edge10" class="edge">
<title>Node10&#45;&gt;Node11</title>
<path fill="none" stroke="midnightblue" d="M331.17,-48C302.2,-48 262.85,-48 237.56,-48"/>
<polygon fill="midnightblue" stroke="midnightblue" points="331.33,-51.5 341.33,-48 331.33,-44.5 331.33,-51.5"/>
</g>
<!-- Node11&#45;&gt;Node6 -->
<g id="edge11" class="edge">
<title>Node11&#45;&gt;Node6</title>
<path fill="none" stroke="midnightblue" d="M175.26,-56.75C151.57,-62.64 120.35,-70.39 96,-76.44"/>
<polygon fill="midnightblue" stroke="midnightblue" points="176.37,-60.08 185.24,-54.27 174.69,-53.29 176.37,-60.08"/>
</g>
<!-- Node13 -->
<g id="node13" class="node">
<title>Node13</title>
<g id="a_node13"><a xlink:href="xcs__supervised_8h.html#aaa6d90d0e8a3b770fb49e99b4df88cf5" target="_top" xlink:title="Executes MAX_TRIALS number of XCSF learning iterations using the training data and test iterations us...">
<polygon fill="none" stroke="black" points="320.5,-266.5 320.5,-285.5 418.5,-285.5 418.5,-266.5 320.5,-266.5"/>
<text text-anchor="middle" x="369.5" y="-273.5" font-family="Helvetica,sans-Serif" font-size="10.00">xcs_supervised_fit</text>
</a>
</g>
</g>
<!-- Node12&#45;&gt;Node13 -->
<g id="edge13" class="edge">
<title>Node12&#45;&gt;Node13</title>
<path fill="none" stroke="midnightblue" d="M485.93,-195.24C478.72,-199.2 471.31,-203.85 465,-209 445.68,-224.75 449.12,-237.28 429,-252 420.85,-257.96 411,-262.74 401.73,-266.41"/>
<polygon fill="midnightblue" stroke="midnightblue" points="487.6,-198.32 494.86,-190.6 484.37,-192.1 487.6,-198.32"/>
</g>
<!-- Node15 -->
<g id="node15" class="node">
<title>Node15</title>
<g id="a_node15"><a xlink:href="xcs__supervised_8h.html#a2dc51452fdb0be0e27fd3ebfe6041474" target="_top" xlink:title="Calculates the XCSF predictions for the provided input.">
<polygon fill="none" stroke="black" points="310,-152.5 310,-171.5 429,-171.5 429,-152.5 310,-152.5"/>
<text text-anchor="middle" x="369.5" y="-159.5" font-family="Helvetica,sans-Serif" font-size="10.00">xcs_supervised_predict</text>
</a>
</g>
</g>
<!-- Node12&#45;&gt;Node15 -->
<g id="edge16" class="edge">
<title>Node12&#45;&gt;Node15</title>
<path fill="none" stroke="midnightblue" d="M455,-172.96C446.42,-171.85 437.64,-170.71 429.13,-169.6"/>
<polygon fill="midnightblue" stroke="midnightblue" points="454.57,-176.43 464.94,-174.25 455.47,-169.49 454.57,-176.43"/>
</g>
<!-- Node17 -->
<g id="node17" class="node">
<title>Node17</title>
<g id="a_node17"><a xlink:href="xcs__supervised_8h.html#a082f393392d7e1991ca0b0a2d71fc68e" target="_top" xlink:title="Calculates the XCSF error for the input data.">
<polygon fill="none" stroke="black" points="312.5,-190.5 312.5,-209.5 426.5,-209.5 426.5,-190.5 312.5,-190.5"/>
<text text-anchor="middle" x="369.5" y="-197.5" font-family="Helvetica,sans-Serif" font-size="10.00">xcs_supervised_score</text>
</a>
</g>
</g>
<!-- Node12&#45;&gt;Node17 -->
<g id="edge19" class="edge">
<title>Node12&#45;&gt;Node17</title>
<path fill="none" stroke="midnightblue" d="M454.88,-189.06C445.5,-190.27 435.87,-191.52 426.62,-192.72"/>
<polygon fill="midnightblue" stroke="midnightblue" points="455.47,-192.51 464.94,-187.75 454.57,-185.57 455.47,-192.51"/>
</g>
<!-- Node19 -->
<g id="node19" class="node">
<title>Node19</title>
<g id="a_node19"><a xlink:href="xcs__supervised_8h.html#aab0b746c6a8baf499f68b95b30096df8" target="_top" xlink:title="Calculates the XCSF error for a subsample of the input data.">
<polygon fill="none" stroke="black" points="149,-228.5 149,-247.5 274,-247.5 274,-228.5 149,-228.5"/>
<text text-anchor="middle" x="211.5" y="-235.5" font-family="Helvetica,sans-Serif" font-size="10.00">xcs_supervised_score_n</text>
</a>
</g>
</g>
<!-- Node12&#45;&gt;Node19 -->
<g id="edge23" class="edge">
<title>Node12&#45;&gt;Node19</title>
<path fill="none" stroke="midnightblue" d="M490.08,-195.31C473.05,-203.67 450.31,-213.61 429,-219 377.79,-231.95 317.84,-236.41 274.03,-237.81"/>
<polygon fill="midnightblue" stroke="midnightblue" points="492.04,-198.24 499.39,-190.61 488.89,-191.99 492.04,-198.24"/>
</g>
<!-- Node13&#45;&gt;Node9 -->
<g id="edge15" class="edge">
<title>Node13&#45;&gt;Node9</title>
<path fill="none" stroke="midnightblue" d="M310,-276C238.2,-276 120.45,-276 75.61,-276"/>
<polygon fill="midnightblue" stroke="midnightblue" points="310.25,-279.5 320.25,-276 310.25,-272.5 310.25,-279.5"/>
</g>
<!-- Node14 -->
<g id="node14" class="node">
<title>Node14</title>
<g id="a_node14"><a xlink:href="classXCS.html#ab2117326ca56272ebfba6e9993ace801" target="_top" xlink:title="Executes MAX_TRIALS number of XCSF learning iterations using the provided training data.">
<polygon fill="none" stroke="black" points="185.5,-304.5 185.5,-323.5 237.5,-323.5 237.5,-304.5 185.5,-304.5"/>
<text text-anchor="middle" x="211.5" y="-311.5" font-family="Helvetica,sans-Serif" font-size="10.00">XCS::fit</text>
</a>
</g>
</g>
<!-- Node13&#45;&gt;Node14 -->
<g id="edge14" class="edge">
<title>Node13&#45;&gt;Node14</title>
<path fill="none" stroke="midnightblue" d="M319.41,-287.96C292.27,-294.57 259.69,-302.51 237.68,-307.87"/>
<polygon fill="midnightblue" stroke="midnightblue" points="320.25,-291.36 329.13,-285.59 318.59,-284.56 320.25,-291.36"/>
</g>
<!-- Node16 -->
<g id="node16" class="node">
<title>Node16</title>
<g id="a_node16"><a xlink:href="classXCS.html#a7d0bfc2cf3447809fee4218f39921a81" target="_top" xlink:title="Returns the XCSF prediction array for the provided input.">
<polygon fill="none" stroke="black" points="175,-152.5 175,-171.5 248,-171.5 248,-152.5 175,-152.5"/>
<text text-anchor="middle" x="211.5" y="-159.5" font-family="Helvetica,sans-Serif" font-size="10.00">XCS::predict</text>
</a>
</g>
</g>
<!-- Node15&#45;&gt;Node16 -->
<g id="edge17" class="edge">
<title>Node15&#45;&gt;Node16</title>
<path fill="none" stroke="midnightblue" d="M299.62,-162C281.88,-162 263.51,-162 248.23,-162"/>
<polygon fill="midnightblue" stroke="midnightblue" points="299.97,-165.5 309.97,-162 299.97,-158.5 299.97,-165.5"/>
</g>
<!-- Node16&#45;&gt;Node6 -->
<g id="edge18" class="edge">
<title>Node16&#45;&gt;Node6</title>
<path fill="none" stroke="midnightblue" d="M165,-149.4C159.53,-147.46 154.08,-145.32 149,-143 119.38,-129.47 87.75,-108 70.53,-95.63"/>
<polygon fill="midnightblue" stroke="midnightblue" points="164.2,-152.82 174.8,-152.67 166.42,-146.19 164.2,-152.82"/>
</g>
<!-- Node18 -->
<g id="node18" class="node">
<title>Node18</title>
<g id="a_node18"><a xlink:href="classXCS.html#a8be398df5d3f4333c9b0d19f48535609" target="_top" xlink:title="Returns the error using N random samples from the provided data.">
<polygon fill="none" stroke="black" points="22.5,-209.5 22.5,-228.5 90.5,-228.5 90.5,-209.5 22.5,-209.5"/>
<text text-anchor="middle" x="56.5" y="-216.5" font-family="Helvetica,sans-Serif" font-size="10.00">XCS::score</text>
</a>
</g>
</g>
<!-- Node17&#45;&gt;Node18 -->
<g id="edge20" class="edge">
<title>Node17&#45;&gt;Node18</title>
<path fill="none" stroke="midnightblue" d="M302.05,-204.06C237.18,-208.02 141.13,-213.89 90.89,-216.96"/>
<polygon fill="midnightblue" stroke="midnightblue" points="302.41,-207.54 312.18,-203.44 301.99,-200.56 302.41,-207.54"/>
</g>
<!-- Node17&#45;&gt;Node19 -->
<g id="edge21" class="edge">
<title>Node17&#45;&gt;Node19</title>
<path fill="none" stroke="midnightblue" d="M319.37,-211.97C297.51,-217.29 272.12,-223.48 251.58,-228.48"/>
<polygon fill="midnightblue" stroke="midnightblue" points="320.25,-215.36 329.13,-209.59 318.59,-208.56 320.25,-215.36"/>
</g>
<!-- Node19&#45;&gt;Node18 -->
<g id="edge22" class="edge">
<title>Node19&#45;&gt;Node18</title>
<path fill="none" stroke="midnightblue" d="M138.35,-229.04C121.62,-226.96 104.6,-224.85 90.52,-223.1"/>
<polygon fill="midnightblue" stroke="midnightblue" points="138.35,-232.57 148.71,-230.33 139.22,-225.62 138.35,-232.57"/>
</g>
<!-- Node20&#45;&gt;Node9 -->
<g id="edge28" class="edge">
<title>Node20&#45;&gt;Node9</title>
<path fill="none" stroke="midnightblue" d="M341.5,-347.04C298.95,-367.14 214.38,-398.8 149,-371 107.28,-353.26 75.36,-306.13 63.04,-285.69"/>
<polygon fill="midnightblue" stroke="midnightblue" points="343.2,-350.11 350.66,-342.58 340.13,-343.81 343.2,-350.11"/>
</g>
<!-- Node20&#45;&gt;Node14 -->
<g id="edge25" class="edge">
<title>Node20&#45;&gt;Node14</title>
<path fill="none" stroke="midnightblue" d="M320.58,-327.16C293.23,-323.83 260.06,-319.79 237.74,-317.07"/>
<polygon fill="midnightblue" stroke="midnightblue" points="320.39,-330.67 330.74,-328.4 321.23,-323.72 320.39,-330.67"/>
</g>
<!-- Node21 -->
<g id="node21" class="node">
<title>Node21</title>
<g id="a_node21"><a xlink:href="classXCS.html#adbfb8e127ef8a800a661d284dda3f2ef" target="_top" xlink:title="Initialises a reinforcement learning trial.">
<polygon fill="none" stroke="black" points="173,-342.5 173,-361.5 250,-361.5 250,-342.5 173,-342.5"/>
<text text-anchor="middle" x="211.5" y="-349.5" font-family="Helvetica,sans-Serif" font-size="10.00">XCS::init_trial</text>
</a>
</g>
</g>
<!-- Node20&#45;&gt;Node21 -->
<g id="edge26" class="edge">
<title>Node20&#45;&gt;Node21</title>
<path fill="none" stroke="midnightblue" d="M320.65,-338.83C298.01,-341.59 271.36,-344.83 250.19,-347.41"/>
<polygon fill="midnightblue" stroke="midnightblue" points="321.23,-342.28 330.74,-337.6 320.39,-335.33 321.23,-342.28"/>
</g>
<!-- Node21&#45;&gt;Node6 -->
<g id="edge27" class="edge">
<title>Node21&#45;&gt;Node6</title>
<path fill="none" stroke="midnightblue" d="M163.04,-342.89C157.83,-340.35 152.98,-337.12 149,-333 106.47,-288.94 134.5,-257.34 113,-200 98.01,-160.01 73.87,-115.16 63.05,-95.78"/>
<polygon fill="midnightblue" stroke="midnightblue" points="162.12,-346.29 172.71,-346.74 164.71,-339.79 162.12,-346.29"/>
</g>
<!-- Node22&#45;&gt;Node12 -->
<g id="edge35" class="edge">
<title>Node22&#45;&gt;Node12</title>
<path fill="none" stroke="midnightblue" d="M617.38,-176.97C604.17,-177.51 587.16,-178.21 571.01,-178.87"/>
<polygon fill="midnightblue" stroke="midnightblue" points="617.63,-180.46 627.48,-176.55 617.34,-173.47 617.63,-180.46"/>
</g>
<!-- Node23 -->
<g id="node23" class="node">
<title>Node23</title>
<g id="a_node23"><a xlink:href="xcs__rl_8h.html#a16e879f03340e4471b3cee87804eafcd" target="_top" xlink:title="Provides reinforcement to the sets.">
<polygon fill="none" stroke="black" points="479.5,-114.5 479.5,-133.5 556.5,-133.5 556.5,-114.5 479.5,-114.5"/>
<text text-anchor="middle" x="518" y="-121.5" font-family="Helvetica,sans-Serif" font-size="10.00">xcs_rl_update</text>
</a>
</g>
</g>
<!-- Node22&#45;&gt;Node23 -->
<g id="edge30" class="edge">
<title>Node22&#45;&gt;Node23</title>
<path fill="none" stroke="midnightblue" d="M617.99,-166.19C596.13,-156.88 563.46,-142.95 541.7,-133.68"/>
<polygon fill="midnightblue" stroke="midnightblue" points="616.91,-169.54 627.48,-170.24 619.65,-163.1 616.91,-169.54"/>
</g>
<!-- Node23&#45;&gt;Node7 -->
<g id="edge34" class="edge">
<title>Node23&#45;&gt;Node7</title>
<path fill="none" stroke="midnightblue" d="M470.34,-111.9C447.85,-106.06 421.5,-99.23 401.51,-94.04"/>
<polygon fill="midnightblue" stroke="midnightblue" points="469.47,-115.29 480.03,-114.41 471.23,-108.51 469.47,-115.29"/>
</g>
<!-- Node23&#45;&gt;Node10 -->
<g id="edge33" class="edge">
<title>Node23&#45;&gt;Node10</title>
<path fill="none" stroke="midnightblue" d="M474.37,-110.31C471.1,-108.7 467.94,-106.93 465,-105 445.56,-92.22 448.67,-79.42 429,-67 419.52,-61.01 407.97,-56.74 397.65,-53.78"/>
<polygon fill="midnightblue" stroke="midnightblue" points="473.15,-113.6 483.72,-114.45 475.98,-107.2 473.15,-113.6"/>
</g>
<!-- Node24 -->
<g id="node24" class="node">
<title>Node24</title>
<g id="a_node24"><a xlink:href="classXCS.html#a10314306bc372984e231179b73e10bbc" target="_top" xlink:title="Creates the action set using the previously selected action, updates the classifiers,...">
<polygon fill="none" stroke="black" points="333,-114.5 333,-133.5 406,-133.5 406,-114.5 333,-114.5"/>
<text text-anchor="middle" x="369.5" y="-121.5" font-family="Helvetica,sans-Serif" font-size="10.00">XCS::update</text>
</a>
</g>
</g>
<!-- Node23&#45;&gt;Node24 -->
<g id="edge31" class="edge">
<title>Node23&#45;&gt;Node24</title>
<path fill="none" stroke="midnightblue" d="M469.16,-124C448.62,-124 425.04,-124 406.08,-124"/>
<polygon fill="midnightblue" stroke="midnightblue" points="469.27,-127.5 479.27,-124 469.27,-120.5 469.27,-127.5"/>
</g>
<!-- Node24&#45;&gt;Node6 -->
<g id="edge32" class="edge">
<title>Node24&#45;&gt;Node6</title>
<path fill="none" stroke="midnightblue" d="M322.92,-113.77C307.45,-110.59 290.03,-107.31 274,-105 219.66,-97.18 157.15,-92.11 113.32,-89.19"/>
<polygon fill="midnightblue" stroke="midnightblue" points="322.26,-117.21 332.76,-115.84 323.7,-110.36 322.26,-117.21"/>
</g>
</g>
</svg>
