<?xml version="1.0" encoding="UTF-8" standalone="no"?>
<!DOCTYPE svg PUBLIC "-//W3C//DTD SVG 1.1//EN"
 "http://www.w3.org/Graphics/SVG/1.1/DTD/svg11.dtd">
<!-- Generated by graphviz version 2.43.0 (0)
 -->
<!-- Title: cl_pred_size Pages: 1 -->
<svg width="1338pt" height="262pt"
 viewBox="0.00 0.00 1338.00 261.53" xmlns="http://www.w3.org/2000/svg" xmlns:xlink="http://www.w3.org/1999/xlink">
<g id="graph0" class="graph" transform="scale(1 1) rotate(0) translate(4 257.53)">
<title>cl_pred_size</title>
<!-- Node1 -->
<g id="node1" class="node">
<title>Node1</title>
<g id="a_node1"><a xlink:title="Returns the size of a classifier&#39;s prediction.">
<polygon fill="#bfbfbf" stroke="black" points="1259,-145.5 1259,-164.5 1330,-164.5 1330,-145.5 1259,-145.5"/>
<text text-anchor="middle" x="1294.5" y="-152.5" font-family="Helvetica,sans-Serif" font-size="10.00">cl_pred_size</text>
</a>
</g>
</g>
<!-- Node2 -->
<g id="node2" class="node">
<title>Node2</title>
<g id="a_node2"><a xlink:href="clset_8c.html#a0afeb87ed1c766c0cde8adfaf73cdf50" target="_top" xlink:title="Calculates the mean prediction size of classifiers in the set.">
<polygon fill="none" stroke="black" points="1109,-165.5 1109,-184.5 1223,-184.5 1223,-165.5 1109,-165.5"/>
<text text-anchor="middle" x="1166" y="-172.5" font-family="Helvetica,sans-Serif" font-size="10.00">clset_mean_pred_size</text>
</a>
</g>
</g>
<!-- Node1&#45;&gt;Node2 -->
<g id="edge1" class="edge">
<title>Node1&#45;&gt;Node2</title>
<path fill="none" stroke="midnightblue" d="M1248.82,-162.06C1240.61,-163.36 1231.93,-164.73 1223.43,-166.08"/>
<polygon fill="midnightblue" stroke="midnightblue" points="1249.6,-165.48 1258.93,-160.47 1248.51,-158.57 1249.6,-165.48"/>
</g>
<!-- Node4 -->
<g id="node4" class="node">
<title>Node4</title>
<g id="a_node4"><a xlink:href="clset_8c.html#a7ddb1248094ce9b41cf314b833798b29" target="_top" xlink:title="Selects a classifier from the population for deletion via roulette.">
<polygon fill="none" stroke="black" points="1116.5,-126.5 1116.5,-145.5 1215.5,-145.5 1215.5,-126.5 1116.5,-126.5"/>
<text text-anchor="middle" x="1166" y="-133.5" font-family="Helvetica,sans-Serif" font-size="10.00">clset_pset_roulette</text>
</a>
</g>
</g>
<!-- Node1&#45;&gt;Node4 -->
<g id="edge3" class="edge">
<title>Node1&#45;&gt;Node4</title>
<path fill="none" stroke="midnightblue" d="M1248.93,-148.31C1238.19,-146.69 1226.67,-144.96 1215.75,-143.32"/>
<polygon fill="midnightblue" stroke="midnightblue" points="1248.52,-151.78 1258.93,-149.81 1249.56,-144.86 1248.52,-151.78"/>
</g>
<!-- Node3 -->
<g id="node3" class="node">
<title>Node3</title>
<g id="a_node3"><a xlink:href="classXCS.html#a87cab592d7a90552cd8ae3defc08f835" target="_top" xlink:title=" ">
<polygon fill="none" stroke="black" points="963,-162 963,-192 1073,-192 1073,-162 963,-162"/>
<text text-anchor="start" x="971" y="-180" font-family="Helvetica,sans-Serif" font-size="10.00">XCS::get_pset_mean</text>
<text text-anchor="middle" x="1018" y="-169" font-family="Helvetica,sans-Serif" font-size="10.00">_pred_size</text>
</a>
</g>
</g>
<!-- Node2&#45;&gt;Node3 -->
<g id="edge2" class="edge">
<title>Node2&#45;&gt;Node3</title>
<path fill="none" stroke="midnightblue" d="M1098.95,-175.9C1090.33,-176.02 1081.59,-176.14 1073.2,-176.26"/>
<polygon fill="midnightblue" stroke="midnightblue" points="1099.02,-179.4 1108.97,-175.77 1098.92,-172.4 1099.02,-179.4"/>
</g>
<!-- Node5 -->
<g id="node5" class="node">
<title>Node5</title>
<g id="a_node5"><a xlink:href="clset_8c.html#a106a72afb7785af1d1b639736a6340be" target="_top" xlink:title="Deletes a single classifier from the population set.">
<polygon fill="none" stroke="black" points="978,-123.5 978,-142.5 1058,-142.5 1058,-123.5 978,-123.5"/>
<text text-anchor="middle" x="1018" y="-130.5" font-family="Helvetica,sans-Serif" font-size="10.00">clset_pset_del</text>
</a>
</g>
</g>
<!-- Node4&#45;&gt;Node5 -->
<g id="edge4" class="edge">
<title>Node4&#45;&gt;Node5</title>
<path fill="none" stroke="midnightblue" d="M1105.98,-134.79C1089.9,-134.46 1072.87,-134.11 1058.19,-133.81"/>
<polygon fill="midnightblue" stroke="midnightblue" points="1106.31,-138.29 1116.38,-135 1106.46,-131.3 1106.31,-138.29"/>
</g>
<!-- Node6 -->
<g id="node6" class="node">
<title>Node6</title>
<g id="a_node6"><a xlink:href="clset_8c.html#a5e05b1d84c921f8f83e90d636b2f59fd" target="_top" xlink:title="Enforces the maximum population size limit.">
<polygon fill="none" stroke="black" points="828,-118 828,-148 927,-148 927,-118 828,-118"/>
<text text-anchor="start" x="836" y="-136" font-family="Helvetica,sans-Serif" font-size="10.00">clset_pset_enforce</text>
<text text-anchor="middle" x="877.5" y="-125" font-family="Helvetica,sans-Serif" font-size="10.00">_limit</text>
</a>
</g>
</g>
<!-- Node5&#45;&gt;Node6 -->
<g id="edge5" class="edge">
<title>Node5&#45;&gt;Node6</title>
<path fill="none" stroke="midnightblue" d="M967.41,-133C954.28,-133 940.12,-133 927.04,-133"/>
<polygon fill="midnightblue" stroke="midnightblue" points="967.68,-136.5 977.68,-133 967.68,-129.5 967.68,-136.5"/>
</g>
<!-- Node7 -->
<g id="node7" class="node">
<title>Node7</title>
<g id="a_node7"><a xlink:href="clset_8c.html#aa1b7f7f1ccebf6e4e030333304fe3f51" target="_top" xlink:title="Ensures all possible actions are covered by the match set.">
<polygon fill="none" stroke="black" points="713.5,-123.5 713.5,-142.5 780.5,-142.5 780.5,-123.5 713.5,-123.5"/>
<text text-anchor="middle" x="747" y="-130.5" font-family="Helvetica,sans-Serif" font-size="10.00">clset_cover</text>
</a>
</g>
</g>
<!-- Node6&#45;&gt;Node7 -->
<g id="edge6" class="edge">
<title>Node6&#45;&gt;Node7</title>
<path fill="none" stroke="midnightblue" d="M817.79,-133C805.04,-133 792,-133 780.69,-133"/>
<polygon fill="midnightblue" stroke="midnightblue" points="817.92,-136.5 827.92,-133 817.92,-129.5 817.92,-136.5"/>
</g>
<!-- Node24 -->
<g id="node24" class="node">
<title>Node24</title>
<g id="a_node24"><a xlink:href="clset_8c.html#a9f71f62cb4c5216fb3a3e76a6b3df82f" target="_top" xlink:title="Creates a classifier from cJSON and inserts in the population set.">
<polygon fill="none" stroke="black" points="702,-66.5 702,-85.5 792,-85.5 792,-66.5 702,-66.5"/>
<text text-anchor="middle" x="747" y="-73.5" font-family="Helvetica,sans-Serif" font-size="10.00">clset_json_insert</text>
</a>
</g>
</g>
<!-- Node6&#45;&gt;Node24 -->
<g id="edge26" class="edge">
<title>Node6&#45;&gt;Node24</title>
<path fill="none" stroke="midnightblue" d="M833.19,-113.79C811.85,-104.32 787.04,-93.32 769.72,-85.64"/>
<polygon fill="midnightblue" stroke="midnightblue" points="831.84,-117.02 842.4,-117.87 834.68,-110.62 831.84,-117.02"/>
</g>
<!-- Node28 -->
<g id="node28" class="node">
<title>Node28</title>
<g id="a_node28"><a xlink:href="ea_8c.html#a295cd56f77428d1fa2555df1ce363cdd" target="_top" xlink:title="Executes the evolutionary algorithm (EA).">
<polygon fill="none" stroke="black" points="732.5,-161.5 732.5,-180.5 761.5,-180.5 761.5,-161.5 732.5,-161.5"/>
<text text-anchor="middle" x="747" y="-168.5" font-family="Helvetica,sans-Serif" font-size="10.00">ea</text>
</a>
</g>
</g>
<!-- Node6&#45;&gt;Node28 -->
<g id="edge30" class="edge">
<title>Node6&#45;&gt;Node28</title>
<path fill="none" stroke="midnightblue" d="M818.05,-150.29C797.07,-156.49 775.25,-162.94 761.65,-166.96"/>
<polygon fill="midnightblue" stroke="midnightblue" points="819.32,-153.56 827.92,-147.37 817.34,-146.85 819.32,-153.56"/>
</g>
<!-- Node8 -->
<g id="node8" class="node">
<title>Node8</title>
<g id="a_node8"><a xlink:href="clset_8c.html#a101813e8460677fdb33f08e0226dce9b" target="_top" xlink:title="Constructs the match set &#45; forward propagates conditions and actions.">
<polygon fill="none" stroke="black" points="579,-142.5 579,-161.5 649,-161.5 649,-142.5 579,-142.5"/>
<text text-anchor="middle" x="614" y="-149.5" font-family="Helvetica,sans-Serif" font-size="10.00">clset_match</text>
</a>
</g>
</g>
<!-- Node7&#45;&gt;Node8 -->
<g id="edge7" class="edge">
<title>Node7&#45;&gt;Node8</title>
<path fill="none" stroke="midnightblue" d="M703.28,-139.2C685.73,-141.74 665.68,-144.65 649.13,-147.05"/>
<polygon fill="midnightblue" stroke="midnightblue" points="703.89,-142.64 713.28,-137.75 702.88,-135.72 703.89,-142.64"/>
</g>
<!-- Node9 -->
<g id="node9" class="node">
<title>Node9</title>
<g id="a_node9"><a xlink:href="xcs__rl_8c.html#a6501735ba3cba5c77c1b8ad0aad0b26a" target="_top" xlink:title="Selects an action to perform in a reinforcement learning problem.">
<polygon fill="none" stroke="black" points="431,-180.5 431,-199.5 515,-199.5 515,-180.5 431,-180.5"/>
<text text-anchor="middle" x="473" y="-187.5" font-family="Helvetica,sans-Serif" font-size="10.00">xcs_rl_decision</text>
</a>
</g>
</g>
<!-- Node8&#45;&gt;Node9 -->
<g id="edge8" class="edge">
<title>Node8&#45;&gt;Node9</title>
<path fill="none" stroke="midnightblue" d="M569.19,-163.98C549.82,-169.27 527.35,-175.42 509.1,-180.4"/>
<polygon fill="midnightblue" stroke="midnightblue" points="570.27,-167.31 579,-161.3 568.43,-160.56 570.27,-167.31"/>
</g>
<!-- Node14 -->
<g id="node14" class="node">
<title>Node14</title>
<g id="a_node14"><a xlink:href="xcs__rl_8c.html#a391abf9bd2540ff284f822b30899c438" target="_top" xlink:title="Creates and updates an action set for a given (state, action, reward).">
<polygon fill="none" stroke="black" points="445,-142.5 445,-161.5 501,-161.5 501,-142.5 445,-142.5"/>
<text text-anchor="middle" x="473" y="-149.5" font-family="Helvetica,sans-Serif" font-size="10.00">xcs_rl_fit</text>
</a>
</g>
</g>
<!-- Node8&#45;&gt;Node14 -->
<g id="edge13" class="edge">
<title>Node8&#45;&gt;Node14</title>
<path fill="none" stroke="midnightblue" d="M568.79,-152C546.57,-152 520.36,-152 501.14,-152"/>
<polygon fill="midnightblue" stroke="midnightblue" points="569,-155.5 579,-152 569,-148.5 569,-155.5"/>
</g>
<!-- Node16 -->
<g id="node16" class="node">
<title>Node16</title>
<g id="a_node16"><a xlink:href="xcs__supervised_8c.html#a836aae9ec3055625d1c464d41746a7b9" target="_top" xlink:title="Executes a single XCSF trial.">
<polygon fill="none" stroke="black" points="420,-85.5 420,-104.5 526,-104.5 526,-85.5 420,-85.5"/>
<text text-anchor="middle" x="473" y="-92.5" font-family="Helvetica,sans-Serif" font-size="10.00">xcs_supervised_trial</text>
</a>
</g>
</g>
<!-- Node8&#45;&gt;Node16 -->
<g id="edge15" class="edge">
<title>Node8&#45;&gt;Node16</title>
<path fill="none" stroke="midnightblue" d="M580.47,-138.66C554.97,-128.2 520.12,-113.91 497.34,-104.57"/>
<polygon fill="midnightblue" stroke="midnightblue" points="579.15,-141.9 589.73,-142.46 581.81,-135.43 579.15,-141.9"/>
</g>
<!-- Node10 -->
<g id="node10" class="node">
<title>Node10</title>
<g id="a_node10"><a xlink:href="classXCS.html#ac6003941812bd2c70ea443dd63bd59d0" target="_top" xlink:title="Selects an action to perform in a reinforcement learning problem.">
<polygon fill="none" stroke="black" points="284.5,-190.5 284.5,-209.5 364.5,-209.5 364.5,-190.5 284.5,-190.5"/>
<text text-anchor="middle" x="324.5" y="-197.5" font-family="Helvetica,sans-Serif" font-size="10.00">XCS::decision</text>
</a>
</g>
</g>
<!-- Node9&#45;&gt;Node10 -->
<g id="edge9" class="edge">
<title>Node9&#45;&gt;Node10</title>
<path fill="none" stroke="midnightblue" d="M420.8,-193.49C402.37,-194.75 381.87,-196.15 364.63,-197.33"/>
<polygon fill="midnightblue" stroke="midnightblue" points="421.06,-196.99 430.8,-192.81 420.59,-190 421.06,-196.99"/>
</g>
<!-- Node11 -->
<g id="node11" class="node">
<title>Node11</title>
<g id="a_node11"><a xlink:href="xcs__rl_8c.html#a8171cd945b56ed0a4563f9dcd89438e3" target="_top" xlink:title="Executes a reinforcement learning trial using a built&#45;in environment.">
<polygon fill="none" stroke="black" points="292.5,-228.5 292.5,-247.5 356.5,-247.5 356.5,-228.5 292.5,-228.5"/>
<text text-anchor="middle" x="324.5" y="-235.5" font-family="Helvetica,sans-Serif" font-size="10.00">xcs_rl_trial</text>
</a>
</g>
</g>
<!-- Node9&#45;&gt;Node11 -->
<g id="edge10" class="edge">
<title>Node9&#45;&gt;Node11</title>
<path fill="none" stroke="midnightblue" d="M433.38,-202.77C418.02,-207.83 400.18,-213.71 384,-219 374.56,-222.09 364.26,-225.44 354.97,-228.46"/>
<polygon fill="midnightblue" stroke="midnightblue" points="434.68,-206.02 443.08,-199.57 432.48,-199.38 434.68,-206.02"/>
</g>
<!-- Node12 -->
<g id="node12" class="node">
<title>Node12</title>
<g id="a_node12"><a xlink:href="xcs__rl_8c.html#adb4c284d19eeaed2b4a629f9b939ed20" target="_top" xlink:title="Executes a reinforcement learning experiment.">
<polygon fill="none" stroke="black" points="134.5,-218.5 134.5,-237.5 198.5,-237.5 198.5,-218.5 134.5,-218.5"/>
<text text-anchor="middle" x="166.5" y="-225.5" font-family="Helvetica,sans-Serif" font-size="10.00">xcs_rl_exp</text>
</a>
</g>
</g>
<!-- Node11&#45;&gt;Node12 -->
<g id="edge11" class="edge">
<title>Node11&#45;&gt;Node12</title>
<path fill="none" stroke="midnightblue" d="M282.28,-235.36C256.06,-233.68 222.65,-231.53 198.64,-230"/>
<polygon fill="midnightblue" stroke="midnightblue" points="282.1,-238.85 292.31,-236 282.55,-231.87 282.1,-238.85"/>
</g>
<!-- Node13 -->
<g id="node13" class="node">
<title>Node13</title>
<g id="a_node13"><a xlink:href="main_8c.html#a3c04138a5bfe5d72780bb7e82a18e627" target="_top" xlink:title=" ">
<polygon fill="none" stroke="black" points="15,-194.5 15,-213.5 53,-213.5 53,-194.5 15,-194.5"/>
<text text-anchor="middle" x="34" y="-201.5" font-family="Helvetica,sans-Serif" font-size="10.00">main</text>
</a>
</g>
</g>
<!-- Node12&#45;&gt;Node13 -->
<g id="edge12" class="edge">
<title>Node12&#45;&gt;Node13</title>
<path fill="none" stroke="midnightblue" d="M124.34,-220.43C100.42,-216.03 71.47,-210.71 53.14,-207.34"/>
<polygon fill="midnightblue" stroke="midnightblue" points="123.77,-223.88 134.24,-222.25 125.04,-217 123.77,-223.88"/>
</g>
<!-- Node15 -->
<g id="node15" class="node">
<title>Node15</title>
<g id="a_node15"><a xlink:href="classXCS.html#ac12768292958a714a726b1c029e9616a" target="_top" xlink:title="Creates/updates an action set for a given (state, action, reward).">
<polygon fill="none" stroke="black" points="298.5,-152.5 298.5,-171.5 350.5,-171.5 350.5,-152.5 298.5,-152.5"/>
<text text-anchor="middle" x="324.5" y="-159.5" font-family="Helvetica,sans-Serif" font-size="10.00">XCS::fit</text>
</a>
</g>
</g>
<!-- Node14&#45;&gt;Node15 -->
<g id="edge14" class="edge">
<title>Node14&#45;&gt;Node15</title>
<path fill="none" stroke="midnightblue" d="M434.77,-154.54C408.41,-156.34 373.76,-158.71 350.61,-160.29"/>
<polygon fill="midnightblue" stroke="midnightblue" points="435.05,-158.03 444.79,-153.86 434.57,-151.05 435.05,-158.03"/>
</g>
<!-- Node17 -->
<g id="node17" class="node">
<title>Node17</title>
<g id="a_node17"><a xlink:href="xcs__supervised_8c.html#aac1347b7b83576d581a1b725b4c84e56" target="_top" xlink:title="Executes MAX_TRIALS number of XCSF learning iterations using the training data and test iterations us...">
<polygon fill="none" stroke="black" points="275.5,-114.5 275.5,-133.5 373.5,-133.5 373.5,-114.5 275.5,-114.5"/>
<text text-anchor="middle" x="324.5" y="-121.5" font-family="Helvetica,sans-Serif" font-size="10.00">xcs_supervised_fit</text>
</a>
</g>
</g>
<!-- Node16&#45;&gt;Node17 -->
<g id="edge16" class="edge">
<title>Node16&#45;&gt;Node17</title>
<path fill="none" stroke="midnightblue" d="M413.68,-106.54C400.47,-109.16 386.57,-111.91 373.82,-114.43"/>
<polygon fill="midnightblue" stroke="midnightblue" points="414.49,-109.95 423.62,-104.58 413.14,-103.08 414.49,-109.95"/>
</g>
<!-- Node19 -->
<g id="node19" class="node">
<title>Node19</title>
<g id="a_node19"><a xlink:href="xcs__supervised_8c.html#a2dc51452fdb0be0e27fd3ebfe6041474" target="_top" xlink:title="Calculates the XCSF predictions for the provided input.">
<polygon fill="none" stroke="black" points="265,-0.5 265,-19.5 384,-19.5 384,-0.5 265,-0.5"/>
<text text-anchor="middle" x="324.5" y="-7.5" font-family="Helvetica,sans-Serif" font-size="10.00">xcs_supervised_predict</text>
</a>
</g>
</g>
<!-- Node16&#45;&gt;Node19 -->
<g id="edge19" class="edge">
<title>Node16&#45;&gt;Node19</title>
<path fill="none" stroke="midnightblue" d="M450.3,-79.36C440.93,-72.56 429.88,-64.45 420,-57 403.82,-44.8 401.91,-38.5 384,-29 377.02,-25.3 369.19,-22.15 361.58,-19.54"/>
<polygon fill="midnightblue" stroke="midnightblue" points="448.52,-82.39 458.67,-85.43 452.62,-76.72 448.52,-82.39"/>
</g>
<!-- Node21 -->
<g id="node21" class="node">
<title>Node21</title>
<g id="a_node21"><a xlink:href="xcs__supervised_8c.html#ae05de18a53511ba46b2a6a733c780580" target="_top" xlink:title="Calculates the XCSF error for the input data.">
<polygon fill="none" stroke="black" points="267.5,-38.5 267.5,-57.5 381.5,-57.5 381.5,-38.5 267.5,-38.5"/>
<text text-anchor="middle" x="324.5" y="-45.5" font-family="Helvetica,sans-Serif" font-size="10.00">xcs_supervised_score</text>
</a>
</g>
</g>
<!-- Node16&#45;&gt;Node21 -->
<g id="edge21" class="edge">
<title>Node16&#45;&gt;Node21</title>
<path fill="none" stroke="midnightblue" d="M432.71,-82.39C408.39,-74.59 377.67,-64.74 355.35,-57.58"/>
<polygon fill="midnightblue" stroke="midnightblue" points="431.76,-85.77 442.35,-85.49 433.9,-79.1 431.76,-85.77"/>
</g>
<!-- Node23 -->
<g id="node23" class="node">
<title>Node23</title>
<g id="a_node23"><a xlink:href="xcs__supervised_8c.html#a56ec80025279785376a569ec0130c29f" target="_top" xlink:title="Calculates the XCSF error for a subsample of the input data.">
<polygon fill="none" stroke="black" points="104,-76.5 104,-95.5 229,-95.5 229,-76.5 104,-76.5"/>
<text text-anchor="middle" x="166.5" y="-83.5" font-family="Helvetica,sans-Serif" font-size="10.00">xcs_supervised_score_n</text>
</a>
</g>
</g>
<!-- Node16&#45;&gt;Node23 -->
<g id="edge25" class="edge">
<title>Node16&#45;&gt;Node23</title>
<path fill="none" stroke="midnightblue" d="M409.41,-93.15C356.66,-91.59 281.6,-89.37 229.12,-87.82"/>
<polygon fill="midnightblue" stroke="midnightblue" points="409.56,-96.66 419.65,-93.45 409.76,-89.66 409.56,-96.66"/>
</g>
<!-- Node17&#45;&gt;Node13 -->
<g id="edge18" class="edge">
<title>Node17&#45;&gt;Node13</title>
<path fill="none" stroke="midnightblue" d="M279.11,-136.31C214.68,-154.17 98.06,-186.51 53.23,-198.94"/>
<polygon fill="midnightblue" stroke="midnightblue" points="280.29,-139.62 288.99,-133.57 278.42,-132.87 280.29,-139.62"/>
</g>
<!-- Node18 -->
<g id="node18" class="node">
<title>Node18</title>
<g id="a_node18"><a xlink:href="classXCS.html#a3f8168ffade2d933d0971625200f1d92" target="_top" xlink:title="Executes MAX_TRIALS number of XCSF learning iterations using the provided training data.">
<polygon fill="none" stroke="black" points="140.5,-114.5 140.5,-133.5 192.5,-133.5 192.5,-114.5 140.5,-114.5"/>
<text text-anchor="middle" x="166.5" y="-121.5" font-family="Helvetica,sans-Serif" font-size="10.00">XCS::fit</text>
</a>
</g>
</g>
<!-- Node17&#45;&gt;Node18 -->
<g id="edge17" class="edge">
<title>Node17&#45;&gt;Node18</title>
<path fill="none" stroke="midnightblue" d="M265.24,-124C240.15,-124 212.13,-124 192.55,-124"/>
<polygon fill="midnightblue" stroke="midnightblue" points="265.42,-127.5 275.42,-124 265.42,-120.5 265.42,-127.5"/>
</g>
<!-- Node20 -->
<g id="node20" class="node">
<title>Node20</title>
<g id="a_node20"><a xlink:href="classXCS.html#a4d7d398d90d5f695fcbfe0fa99354436" target="_top" xlink:title="Returns the XCSF prediction array for the provided input.">
<polygon fill="none" stroke="black" points="130,-0.5 130,-19.5 203,-19.5 203,-0.5 130,-0.5"/>
<text text-anchor="middle" x="166.5" y="-7.5" font-family="Helvetica,sans-Serif" font-size="10.00">XCS::predict</text>
</a>
</g>
</g>
<!-- Node19&#45;&gt;Node20 -->
<g id="edge20" class="edge">
<title>Node19&#45;&gt;Node20</title>
<path fill="none" stroke="midnightblue" d="M254.62,-10C236.88,-10 218.51,-10 203.23,-10"/>
<polygon fill="midnightblue" stroke="midnightblue" points="254.97,-13.5 264.97,-10 254.97,-6.5 254.97,-13.5"/>
</g>
<!-- Node22 -->
<g id="node22" class="node">
<title>Node22</title>
<g id="a_node22"><a xlink:href="classXCS.html#a4bb9f3f8613abf7ba95837a03bbb931d" target="_top" xlink:title="Returns the error using N random samples from the provided data.">
<polygon fill="none" stroke="black" points="0,-57.5 0,-76.5 68,-76.5 68,-57.5 0,-57.5"/>
<text text-anchor="middle" x="34" y="-64.5" font-family="Helvetica,sans-Serif" font-size="10.00">XCS::score</text>
</a>
</g>
</g>
<!-- Node21&#45;&gt;Node22 -->
<g id="edge22" class="edge">
<title>Node21&#45;&gt;Node22</title>
<path fill="none" stroke="midnightblue" d="M257.2,-52.37C198.15,-56.26 114.18,-61.79 68.23,-64.81"/>
<polygon fill="midnightblue" stroke="midnightblue" points="257.44,-55.86 267.19,-51.71 256.98,-48.87 257.44,-55.86"/>
</g>
<!-- Node21&#45;&gt;Node23 -->
<g id="edge23" class="edge">
<title>Node21&#45;&gt;Node23</title>
<path fill="none" stroke="midnightblue" d="M274.37,-59.97C252.51,-65.29 227.12,-71.48 206.58,-76.48"/>
<polygon fill="midnightblue" stroke="midnightblue" points="275.25,-63.36 284.13,-57.59 273.59,-56.56 275.25,-63.36"/>
</g>
<!-- Node23&#45;&gt;Node22 -->
<g id="edge24" class="edge">
<title>Node23&#45;&gt;Node22</title>
<path fill="none" stroke="midnightblue" d="M93.64,-75.54C84.76,-74.25 76.06,-72.98 68.18,-71.83"/>
<polygon fill="midnightblue" stroke="midnightblue" points="93.29,-79.02 103.69,-77 94.3,-72.1 93.29,-79.02"/>
</g>
<!-- Node25 -->
<g id="node25" class="node">
<title>Node25</title>
<g id="a_node25"><a xlink:href="classXCS.html#af888b891afb66fbe06ba4919ef16adf9" target="_top" xlink:title="Creates classifiers from JSON and inserts into the population.">
<polygon fill="none" stroke="black" points="568.5,-28.5 568.5,-47.5 659.5,-47.5 659.5,-28.5 568.5,-28.5"/>
<text text-anchor="middle" x="614" y="-35.5" font-family="Helvetica,sans-Serif" font-size="10.00">XCS::json_insert</text>
</a>
</g>
</g>
<!-- Node24&#45;&gt;Node25 -->
<g id="edge27" class="edge">
<title>Node24&#45;&gt;Node25</title>
<path fill="none" stroke="midnightblue" d="M703.29,-63.61C685.35,-58.41 664.8,-52.45 648.05,-47.59"/>
<polygon fill="midnightblue" stroke="midnightblue" points="702.36,-66.99 712.94,-66.41 704.31,-60.26 702.36,-66.99"/>
</g>
<!-- Node27 -->
<g id="node27" class="node">
<title>Node27</title>
<g id="a_node27"><a xlink:href="classXCS.html#a61361120dbba1dba3ca49b53ded91edb" target="_top" xlink:title="Creates a classifier from JSON and inserts into the population.">
<polygon fill="none" stroke="black" points="562,-66.5 562,-85.5 666,-85.5 666,-66.5 562,-66.5"/>
<text text-anchor="middle" x="614" y="-73.5" font-family="Helvetica,sans-Serif" font-size="10.00">XCS::json_insert_cl</text>
</a>
</g>
</g>
<!-- Node24&#45;&gt;Node27 -->
<g id="edge29" class="edge">
<title>Node24&#45;&gt;Node27</title>
<path fill="none" stroke="midnightblue" d="M691.53,-76C683.11,-76 674.43,-76 666.08,-76"/>
<polygon fill="midnightblue" stroke="midnightblue" points="691.65,-79.5 701.65,-76 691.65,-72.5 691.65,-79.5"/>
</g>
<!-- Node26 -->
<g id="node26" class="node">
<title>Node26</title>
<g id="a_node26"><a xlink:href="classXCS.html#a1a882e28a64c4e2b92ae234d79f327de" target="_top" xlink:title="Reads classifiers from a JSON file and adds to the population.">
<polygon fill="none" stroke="black" points="430,-28.5 430,-47.5 516,-47.5 516,-28.5 430,-28.5"/>
<text text-anchor="middle" x="473" y="-35.5" font-family="Helvetica,sans-Serif" font-size="10.00">XCS::json_read</text>
</a>
</g>
</g>
<!-- Node25&#45;&gt;Node26 -->
<g id="edge28" class="edge">
<title>Node25&#45;&gt;Node26</title>
<path fill="none" stroke="midnightblue" d="M557.87,-38C544.03,-38 529.4,-38 516.3,-38"/>
<polygon fill="midnightblue" stroke="midnightblue" points="558.25,-41.5 568.25,-38 558.25,-34.5 558.25,-41.5"/>
</g>
<!-- Node28&#45;&gt;Node16 -->
<g id="edge35" class="edge">
<title>Node28&#45;&gt;Node16</title>
<path fill="none" stroke="midnightblue" d="M723.02,-161.48C716.2,-158.55 708.76,-155.24 702,-152 685.68,-144.19 683.05,-139.04 666,-133 620.04,-116.72 565.28,-106.75 526.02,-101.13"/>
<polygon fill="midnightblue" stroke="midnightblue" points="721.82,-164.77 732.4,-165.45 724.55,-158.33 721.82,-164.77"/>
</g>
<!-- Node29 -->
<g id="node29" class="node">
<title>Node29</title>
<g id="a_node29"><a xlink:href="xcs__rl_8c.html#a5e5ba8c28646690f0b1c51aae7f6aa78" target="_top" xlink:title="Provides reinforcement to the sets.">
<polygon fill="none" stroke="black" points="575.5,-199.5 575.5,-218.5 652.5,-218.5 652.5,-199.5 575.5,-199.5"/>
<text text-anchor="middle" x="614" y="-206.5" font-family="Helvetica,sans-Serif" font-size="10.00">xcs_rl_update</text>
</a>
</g>
</g>
<!-- Node28&#45;&gt;Node29 -->
<g id="edge31" class="edge">
<title>Node28&#45;&gt;Node29</title>
<path fill="none" stroke="midnightblue" d="M722.86,-177.71C702.04,-183.75 671.21,-192.69 647.84,-199.47"/>
<polygon fill="midnightblue" stroke="midnightblue" points="723.85,-181.07 732.47,-174.92 721.89,-174.35 723.85,-181.07"/>
</g>
<!-- Node29&#45;&gt;Node11 -->
<g id="edge34" class="edge">
<title>Node29&#45;&gt;Node11</title>
<path fill="none" stroke="midnightblue" d="M587.51,-223.47C570.64,-232.2 547.71,-242.46 526,-247 467.16,-259.29 396.58,-250.93 356.8,-244.17"/>
<polygon fill="midnightblue" stroke="midnightblue" points="589.51,-226.37 596.68,-218.57 586.21,-220.2 589.51,-226.37"/>
</g>
<!-- Node29&#45;&gt;Node14 -->
<g id="edge33" class="edge">
<title>Node29&#45;&gt;Node14</title>
<path fill="none" stroke="midnightblue" d="M582.82,-195.27C566.16,-187.84 545.06,-178.63 526,-171 517.97,-167.78 509.16,-164.48 501.11,-161.55"/>
<polygon fill="midnightblue" stroke="midnightblue" points="581.5,-198.52 592.06,-199.42 584.37,-192.13 581.5,-198.52"/>
</g>
<!-- Node30 -->
<g id="node30" class="node">
<title>Node30</title>
<g id="a_node30"><a xlink:href="classXCS.html#af8970ba52403714439fda0d4383a390b" target="_top" xlink:title="Creates the action set using the previously selected action, updates the classifiers,...">
<polygon fill="none" stroke="black" points="436.5,-218.5 436.5,-237.5 509.5,-237.5 509.5,-218.5 436.5,-218.5"/>
<text text-anchor="middle" x="473" y="-225.5" font-family="Helvetica,sans-Serif" font-size="10.00">XCS::update</text>
</a>
</g>
</g>
<!-- Node29&#45;&gt;Node30 -->
<g id="edge32" class="edge">
<title>Node29&#45;&gt;Node30</title>
<path fill="none" stroke="midnightblue" d="M565.25,-215.53C547.05,-218.02 526.63,-220.81 509.73,-223.12"/>
<polygon fill="midnightblue" stroke="midnightblue" points="565.95,-218.96 575.38,-214.14 565,-212.03 565.95,-218.96"/>
</g>
</g>
</svg>
