<?xml version="1.0" encoding="UTF-8" standalone="no"?>
<!DOCTYPE svg PUBLIC "-//W3C//DTD SVG 1.1//EN"
 "http://www.w3.org/Graphics/SVG/1.1/DTD/svg11.dtd">
<!-- Generated by graphviz version 2.43.0 (0)
 -->
<!-- Title: cl_update_fit Pages: 1 -->
<svg width="872pt" height="275pt"
 viewBox="0.00 0.00 872.00 275.00" xmlns="http://www.w3.org/2000/svg" xmlns:xlink="http://www.w3.org/1999/xlink">
<g id="graph0" class="graph" transform="scale(1 1) rotate(0) translate(4 271)">
<title>cl_update_fit</title>
<!-- Node1 -->
<g id="node1" class="node">
<title>Node1</title>
<g id="a_node1"><a xlink:title="Updates the fitness of a classifier.">
<polygon fill="#bfbfbf" stroke="black" points="792,-133.5 792,-152.5 864,-152.5 864,-133.5 792,-133.5"/>
<text text-anchor="middle" x="828" y="-140.5" font-family="Helvetica,sans-Serif" font-size="10.00">cl_update_fit</text>
</a>
</g>
</g>
<!-- Node2 -->
<g id="node2" class="node">
<title>Node2</title>
<g id="a_node2"><a xlink:href="clset_8c.html#aa969b49afc6d934a12ea41e41514b360" target="_top" xlink:title="Updates the fitness of classifiers in the set.">
<polygon fill="none" stroke="black" points="670,-133.5 670,-152.5 756,-152.5 756,-133.5 670,-133.5"/>
<text text-anchor="middle" x="713" y="-140.5" font-family="Helvetica,sans-Serif" font-size="10.00">clset_update_fit</text>
</a>
</g>
</g>
<!-- Node1&#45;&gt;Node2 -->
<g id="edge1" class="edge">
<title>Node1&#45;&gt;Node2</title>
<path fill="none" stroke="midnightblue" d="M781.81,-143C773.38,-143 764.6,-143 756.26,-143"/>
<polygon fill="midnightblue" stroke="midnightblue" points="781.87,-146.5 791.87,-143 781.87,-139.5 781.87,-146.5"/>
</g>
<!-- Node3 -->
<g id="node3" class="node">
<title>Node3</title>
<g id="a_node3"><a xlink:href="clset_8c.html#a27aedca23d7c37f4ca0f44845e9805c7" target="_top" xlink:title="Provides reinforcement to the set and performs set subsumption.">
<polygon fill="none" stroke="black" points="562,-133.5 562,-152.5 634,-152.5 634,-133.5 562,-133.5"/>
<text text-anchor="middle" x="598" y="-140.5" font-family="Helvetica,sans-Serif" font-size="10.00">clset_update</text>
</a>
</g>
</g>
<!-- Node2&#45;&gt;Node3 -->
<g id="edge2" class="edge">
<title>Node2&#45;&gt;Node3</title>
<path fill="none" stroke="midnightblue" d="M659.81,-143C651.09,-143 642.24,-143 634.09,-143"/>
<polygon fill="midnightblue" stroke="midnightblue" points="659.92,-146.5 669.92,-143 659.92,-139.5 659.92,-146.5"/>
</g>
<!-- Node4 -->
<g id="node4" class="node">
<title>Node4</title>
<g id="a_node4"><a xlink:href="xcs__rl_8c.html#a5e5ba8c28646690f0b1c51aae7f6aa78" target="_top" xlink:title="Provides reinforcement to the sets.">
<polygon fill="none" stroke="black" points="434.5,-190.5 434.5,-209.5 511.5,-209.5 511.5,-190.5 434.5,-190.5"/>
<text text-anchor="middle" x="473" y="-197.5" font-family="Helvetica,sans-Serif" font-size="10.00">xcs_rl_update</text>
</a>
</g>
</g>
<!-- Node3&#45;&gt;Node4 -->
<g id="edge3" class="edge">
<title>Node3&#45;&gt;Node4</title>
<path fill="none" stroke="midnightblue" d="M567.31,-156.76C544.84,-167.17 514.55,-181.21 494.65,-190.43"/>
<polygon fill="midnightblue" stroke="midnightblue" points="568.81,-159.92 576.41,-152.54 565.87,-153.57 568.81,-159.92"/>
</g>
<!-- Node11 -->
<g id="node11" class="node">
<title>Node11</title>
<g id="a_node11"><a xlink:href="xcs__supervised_8c.html#a8e376723db7b6786507d5ea6add9f650" target="_top" xlink:title="Executes a single XCSF trial.">
<polygon fill="none" stroke="black" points="420,-95.5 420,-114.5 526,-114.5 526,-95.5 420,-95.5"/>
<text text-anchor="middle" x="473" y="-102.5" font-family="Helvetica,sans-Serif" font-size="10.00">xcs_supervised_trial</text>
</a>
</g>
</g>
<!-- Node3&#45;&gt;Node11 -->
<g id="edge10" class="edge">
<title>Node3&#45;&gt;Node11</title>
<path fill="none" stroke="midnightblue" d="M555.96,-130.32C539.34,-125.19 520.47,-119.36 505.03,-114.59"/>
<polygon fill="midnightblue" stroke="midnightblue" points="555.37,-133.8 565.96,-133.41 557.44,-127.12 555.37,-133.8"/>
</g>
<!-- Node5 -->
<g id="node5" class="node">
<title>Node5</title>
<g id="a_node5"><a xlink:href="classXCS.html#af8970ba52403714439fda0d4383a390b" target="_top" xlink:title="Creates the action set using the previously selected action, updates the classifiers,...">
<polygon fill="none" stroke="black" points="288,-209.5 288,-228.5 361,-228.5 361,-209.5 288,-209.5"/>
<text text-anchor="middle" x="324.5" y="-216.5" font-family="Helvetica,sans-Serif" font-size="10.00">XCS::update</text>
</a>
</g>
</g>
<!-- Node4&#45;&gt;Node5 -->
<g id="edge4" class="edge">
<title>Node4&#45;&gt;Node5</title>
<path fill="none" stroke="midnightblue" d="M424.16,-206.2C403.62,-208.87 380.04,-211.93 361.08,-214.39"/>
<polygon fill="midnightblue" stroke="midnightblue" points="424.81,-209.65 434.27,-204.89 423.91,-202.71 424.81,-209.65"/>
</g>
<!-- Node6 -->
<g id="node6" class="node">
<title>Node6</title>
<g id="a_node6"><a xlink:href="xcs__rl_8c.html#a391abf9bd2540ff284f822b30899c438" target="_top" xlink:title="Creates and updates an action set for a given (state, action, reward).">
<polygon fill="none" stroke="black" points="296.5,-247.5 296.5,-266.5 352.5,-266.5 352.5,-247.5 296.5,-247.5"/>
<text text-anchor="middle" x="324.5" y="-254.5" font-family="Helvetica,sans-Serif" font-size="10.00">xcs_rl_fit</text>
</a>
</g>
</g>
<!-- Node4&#45;&gt;Node6 -->
<g id="edge5" class="edge">
<title>Node4&#45;&gt;Node6</title>
<path fill="none" stroke="midnightblue" d="M441.9,-213.83C425.03,-221.37 403.52,-230.63 384,-238 373.91,-241.81 362.67,-245.57 352.77,-248.73"/>
<polygon fill="midnightblue" stroke="midnightblue" points="443.57,-216.92 451.24,-209.62 440.69,-210.53 443.57,-216.92"/>
</g>
<!-- Node8 -->
<g id="node8" class="node">
<title>Node8</title>
<g id="a_node8"><a xlink:href="xcs__rl_8c.html#a8171cd945b56ed0a4563f9dcd89438e3" target="_top" xlink:title="Executes a reinforcement learning trial using a built&#45;in environment.">
<polygon fill="none" stroke="black" points="292.5,-171.5 292.5,-190.5 356.5,-190.5 356.5,-171.5 292.5,-171.5"/>
<text text-anchor="middle" x="324.5" y="-178.5" font-family="Helvetica,sans-Serif" font-size="10.00">xcs_rl_trial</text>
</a>
</g>
</g>
<!-- Node4&#45;&gt;Node8 -->
<g id="edge7" class="edge">
<title>Node4&#45;&gt;Node8</title>
<path fill="none" stroke="midnightblue" d="M424.06,-193.78C401.92,-190.91 376.26,-187.58 356.68,-185.04"/>
<polygon fill="midnightblue" stroke="midnightblue" points="423.91,-197.29 434.27,-195.11 424.81,-190.35 423.91,-197.29"/>
</g>
<!-- Node7 -->
<g id="node7" class="node">
<title>Node7</title>
<g id="a_node7"><a xlink:href="classXCS.html#ac12768292958a714a726b1c029e9616a" target="_top" xlink:title="Creates/updates an action set for a given (state, action, reward).">
<polygon fill="none" stroke="black" points="140.5,-247.5 140.5,-266.5 192.5,-266.5 192.5,-247.5 140.5,-247.5"/>
<text text-anchor="middle" x="166.5" y="-254.5" font-family="Helvetica,sans-Serif" font-size="10.00">XCS::fit</text>
</a>
</g>
</g>
<!-- Node6&#45;&gt;Node7 -->
<g id="edge6" class="edge">
<title>Node6&#45;&gt;Node7</title>
<path fill="none" stroke="midnightblue" d="M286.17,-257C257.2,-257 217.85,-257 192.56,-257"/>
<polygon fill="midnightblue" stroke="midnightblue" points="286.33,-260.5 296.33,-257 286.33,-253.5 286.33,-260.5"/>
</g>
<!-- Node9 -->
<g id="node9" class="node">
<title>Node9</title>
<g id="a_node9"><a xlink:href="xcs__rl_8c.html#adb4c284d19eeaed2b4a629f9b939ed20" target="_top" xlink:title="Executes a reinforcement learning experiment.">
<polygon fill="none" stroke="black" points="134.5,-190.5 134.5,-209.5 198.5,-209.5 198.5,-190.5 134.5,-190.5"/>
<text text-anchor="middle" x="166.5" y="-197.5" font-family="Helvetica,sans-Serif" font-size="10.00">xcs_rl_exp</text>
</a>
</g>
</g>
<!-- Node8&#45;&gt;Node9 -->
<g id="edge8" class="edge">
<title>Node8&#45;&gt;Node9</title>
<path fill="none" stroke="midnightblue" d="M282.28,-186.02C256.06,-189.21 222.65,-193.28 198.64,-196.21"/>
<polygon fill="midnightblue" stroke="midnightblue" points="282.8,-189.48 292.31,-184.8 281.96,-182.53 282.8,-189.48"/>
</g>
<!-- Node10 -->
<g id="node10" class="node">
<title>Node10</title>
<g id="a_node10"><a xlink:href="main_8c.html#a3c04138a5bfe5d72780bb7e82a18e627" target="_top" xlink:title=" ">
<polygon fill="none" stroke="black" points="15,-152.5 15,-171.5 53,-171.5 53,-152.5 15,-152.5"/>
<text text-anchor="middle" x="34" y="-159.5" font-family="Helvetica,sans-Serif" font-size="10.00">main</text>
</a>
</g>
</g>
<!-- Node9&#45;&gt;Node10 -->
<g id="edge9" class="edge">
<title>Node9&#45;&gt;Node10</title>
<path fill="none" stroke="midnightblue" d="M124.34,-188.02C100.42,-181.05 71.47,-172.62 53.14,-167.28"/>
<polygon fill="midnightblue" stroke="midnightblue" points="123.66,-191.46 134.24,-190.9 125.62,-184.74 123.66,-191.46"/>
</g>
<!-- Node12 -->
<g id="node12" class="node">
<title>Node12</title>
<g id="a_node12"><a xlink:href="xcs__supervised_8c.html#a52dece2a59f692999f931672cebac18a" target="_top" xlink:title="Executes MAX_TRIALS number of XCSF learning iterations using the training data and test iterations us...">
<polygon fill="none" stroke="black" points="275.5,-95.5 275.5,-114.5 373.5,-114.5 373.5,-95.5 275.5,-95.5"/>
<text text-anchor="middle" x="324.5" y="-102.5" font-family="Helvetica,sans-Serif" font-size="10.00">xcs_supervised_fit</text>
</a>
</g>
</g>
<!-- Node11&#45;&gt;Node12 -->
<g id="edge11" class="edge">
<title>Node11&#45;&gt;Node12</title>
<path fill="none" stroke="midnightblue" d="M409.6,-105C397.68,-105 385.37,-105 373.97,-105"/>
<polygon fill="midnightblue" stroke="midnightblue" points="409.94,-108.5 419.94,-105 409.94,-101.5 409.94,-108.5"/>
</g>
<!-- Node14 -->
<g id="node14" class="node">
<title>Node14</title>
<g id="a_node14"><a xlink:href="xcs__supervised_8c.html#ae4791c1daf0baaa6615f70332657aadb" target="_top" xlink:title="Calculates the XCSF predictions for the provided input.">
<polygon fill="none" stroke="black" points="265,-133.5 265,-152.5 384,-152.5 384,-133.5 265,-133.5"/>
<text text-anchor="middle" x="324.5" y="-140.5" font-family="Helvetica,sans-Serif" font-size="10.00">xcs_supervised_predict</text>
</a>
</g>
</g>
<!-- Node11&#45;&gt;Node14 -->
<g id="edge14" class="edge">
<title>Node11&#45;&gt;Node14</title>
<path fill="none" stroke="midnightblue" d="M425.3,-117.11C404.9,-122.4 381.32,-128.52 362.2,-133.48"/>
<polygon fill="midnightblue" stroke="midnightblue" points="426.23,-120.49 435.03,-114.59 424.47,-113.71 426.23,-120.49"/>
</g>
<!-- Node16 -->
<g id="node16" class="node">
<title>Node16</title>
<g id="a_node16"><a xlink:href="xcs__supervised_8c.html#a535e3dbbf0f80e64a4e9b1c700e51f40" target="_top" xlink:title="Calculates the XCSF error for the input data.">
<polygon fill="none" stroke="black" points="267.5,-38.5 267.5,-57.5 381.5,-57.5 381.5,-38.5 267.5,-38.5"/>
<text text-anchor="middle" x="324.5" y="-45.5" font-family="Helvetica,sans-Serif" font-size="10.00">xcs_supervised_score</text>
</a>
</g>
</g>
<!-- Node11&#45;&gt;Node16 -->
<g id="edge16" class="edge">
<title>Node11&#45;&gt;Node16</title>
<path fill="none" stroke="midnightblue" d="M438.07,-91.8C411.17,-81.33 374.21,-66.95 350.1,-57.57"/>
<polygon fill="midnightblue" stroke="midnightblue" points="436.89,-95.1 447.48,-95.46 439.43,-88.57 436.89,-95.1"/>
</g>
<!-- Node18 -->
<g id="node18" class="node">
<title>Node18</title>
<g id="a_node18"><a xlink:href="xcs__supervised_8c.html#a9ab2bb39625aea84c716901a95a4326e" target="_top" xlink:title="Calculates the XCSF error for a subsample of the input data.">
<polygon fill="none" stroke="black" points="104,-0.5 104,-19.5 229,-19.5 229,-0.5 104,-0.5"/>
<text text-anchor="middle" x="166.5" y="-7.5" font-family="Helvetica,sans-Serif" font-size="10.00">xcs_supervised_score_n</text>
</a>
</g>
</g>
<!-- Node11&#45;&gt;Node18 -->
<g id="edge21" class="edge">
<title>Node11&#45;&gt;Node18</title>
<path fill="none" stroke="midnightblue" d="M457.68,-87.36C441.79,-69.21 414.36,-41.83 384,-29 334.82,-8.21 273.87,-4.6 229.18,-5.53"/>
<polygon fill="midnightblue" stroke="midnightblue" points="455.38,-90.06 464.51,-95.43 460.72,-85.54 455.38,-90.06"/>
</g>
<!-- Node12&#45;&gt;Node10 -->
<g id="edge13" class="edge">
<title>Node12&#45;&gt;Node10</title>
<path fill="none" stroke="midnightblue" d="M265.24,-113.5C220.83,-120.37 158.27,-130.86 104,-143 86.54,-146.91 66.89,-152.43 53.04,-156.51"/>
<polygon fill="midnightblue" stroke="midnightblue" points="265.92,-116.94 275.28,-111.97 264.86,-110.02 265.92,-116.94"/>
</g>
<!-- Node13 -->
<g id="node13" class="node">
<title>Node13</title>
<g id="a_node13"><a xlink:href="classXCS.html#a04a010f5046c529132d7a67202123295" target="_top" xlink:title="Executes MAX_TRIALS number of XCSF learning iterations using the provided training data.">
<polygon fill="none" stroke="black" points="140.5,-76.5 140.5,-95.5 192.5,-95.5 192.5,-76.5 140.5,-76.5"/>
<text text-anchor="middle" x="166.5" y="-83.5" font-family="Helvetica,sans-Serif" font-size="10.00">XCS::fit</text>
</a>
</g>
</g>
<!-- Node12&#45;&gt;Node13 -->
<g id="edge12" class="edge">
<title>Node12&#45;&gt;Node13</title>
<path fill="none" stroke="midnightblue" d="M265.24,-97.9C240.15,-94.85 212.13,-91.44 192.55,-89.05"/>
<polygon fill="midnightblue" stroke="midnightblue" points="265.07,-101.41 275.42,-99.14 265.92,-94.46 265.07,-101.41"/>
</g>
<!-- Node15 -->
<g id="node15" class="node">
<title>Node15</title>
<g id="a_node15"><a xlink:href="classXCS.html#a9c4d2f074abbde709c8a108bc2d1c932" target="_top" xlink:title="Returns the XCSF prediction array for the provided input.">
<polygon fill="none" stroke="black" points="130,-152.5 130,-171.5 203,-171.5 203,-152.5 130,-152.5"/>
<text text-anchor="middle" x="166.5" y="-159.5" font-family="Helvetica,sans-Serif" font-size="10.00">XCS::predict</text>
</a>
</g>
</g>
<!-- Node14&#45;&gt;Node15 -->
<g id="edge15" class="edge">
<title>Node14&#45;&gt;Node15</title>
<path fill="none" stroke="midnightblue" d="M254.62,-151.39C236.88,-153.55 218.51,-155.79 203.23,-157.65"/>
<polygon fill="midnightblue" stroke="midnightblue" points="255.46,-154.81 264.97,-150.13 254.62,-147.86 255.46,-154.81"/>
</g>
<!-- Node16&#45;&gt;Node13 -->
<g id="edge17" class="edge">
<title>Node16&#45;&gt;Node13</title>
<path fill="none" stroke="midnightblue" d="M274.41,-59.96C247.27,-66.57 214.69,-74.51 192.68,-79.87"/>
<polygon fill="midnightblue" stroke="midnightblue" points="275.25,-63.36 284.13,-57.59 273.59,-56.56 275.25,-63.36"/>
</g>
<!-- Node17 -->
<g id="node17" class="node">
<title>Node17</title>
<g id="a_node17"><a xlink:href="classXCS.html#a2aeb9df5550b79ea97a725e83ef64005" target="_top" xlink:title="Returns the error using N random samples from the provided data.">
<polygon fill="none" stroke="black" points="0,-19.5 0,-38.5 68,-38.5 68,-19.5 0,-19.5"/>
<text text-anchor="middle" x="34" y="-26.5" font-family="Helvetica,sans-Serif" font-size="10.00">XCS::score</text>
</a>
</g>
</g>
<!-- Node16&#45;&gt;Node17 -->
<g id="edge18" class="edge">
<title>Node16&#45;&gt;Node17</title>
<path fill="none" stroke="midnightblue" d="M257.2,-43.63C198.15,-39.74 114.18,-34.21 68.23,-31.19"/>
<polygon fill="midnightblue" stroke="midnightblue" points="256.98,-47.13 267.19,-44.29 257.44,-40.14 256.98,-47.13"/>
</g>
<!-- Node16&#45;&gt;Node18 -->
<g id="edge19" class="edge">
<title>Node16&#45;&gt;Node18</title>
<path fill="none" stroke="midnightblue" d="M274.37,-36.03C252.51,-30.71 227.12,-24.52 206.58,-19.52"/>
<polygon fill="midnightblue" stroke="midnightblue" points="273.59,-39.44 284.13,-38.41 275.25,-32.64 273.59,-39.44"/>
</g>
<!-- Node18&#45;&gt;Node17 -->
<g id="edge20" class="edge">
<title>Node18&#45;&gt;Node17</title>
<path fill="none" stroke="midnightblue" d="M93.64,-20.46C84.76,-21.75 76.06,-23.02 68.18,-24.17"/>
<polygon fill="midnightblue" stroke="midnightblue" points="94.3,-23.9 103.69,-19 93.29,-16.98 94.3,-23.9"/>
</g>
</g>
</svg>
