<?xml version="1.0" encoding="UTF-8" standalone="no"?>
<!DOCTYPE svg PUBLIC "-//W3C//DTD SVG 1.1//EN"
 "http://www.w3.org/Graphics/SVG/1.1/DTD/svg11.dtd">
<!-- Generated by graphviz version 2.43.0 (0)
 -->
<!-- Title: cl_init Pages: 1 -->
<svg width="889pt" height="470pt"
 viewBox="0.00 0.00 889.00 470.48" xmlns="http://www.w3.org/2000/svg" xmlns:xlink="http://www.w3.org/1999/xlink">
<g id="graph0" class="graph" transform="scale(1 1) rotate(0) translate(4 466.48)">
<title>cl_init</title>
<!-- Node1 -->
<g id="node1" class="node">
<title>Node1</title>
<g id="a_node1"><a xlink:title="Initialises a new classifier &#45; but not condition, action, prediction.">
<polygon fill="#bfbfbf" stroke="black" points="839,-247.5 839,-266.5 881,-266.5 881,-247.5 839,-247.5"/>
<text text-anchor="middle" x="860" y="-254.5" font-family="Helvetica,sans-Serif" font-size="10.00">cl_init</text>
</a>
</g>
</g>
<!-- Node2 -->
<g id="node2" class="node">
<title>Node2</title>
<g id="a_node2"><a xlink:href="cl_8h.html#ada9e7ce4c9c81af8ea0d1fd0dda59e3c" target="_top" xlink:title="Creates a classifier from a cJSON object.">
<polygon fill="none" stroke="black" points="723,-323.5 723,-342.5 803,-342.5 803,-323.5 723,-323.5"/>
<text text-anchor="middle" x="763" y="-330.5" font-family="Helvetica,sans-Serif" font-size="10.00">cl_json_import</text>
</a>
</g>
</g>
<!-- Node1&#45;&gt;Node2 -->
<g id="edge1" class="edge">
<title>Node1&#45;&gt;Node2</title>
<path fill="none" stroke="midnightblue" d="M838.9,-273.08C819.81,-288.35 791.73,-310.82 775.93,-323.45"/>
<polygon fill="midnightblue" stroke="midnightblue" points="841.35,-275.61 846.97,-266.63 836.97,-270.14 841.35,-275.61"/>
</g>
<!-- Node8 -->
<g id="node8" class="node">
<title>Node8</title>
<g id="a_node8"><a xlink:href="clset_8c.html#aa1b7f7f1ccebf6e4e030333304fe3f51" target="_top" xlink:title="Ensures all possible actions are covered by the match set.">
<polygon fill="none" stroke="black" points="729.5,-266.5 729.5,-285.5 796.5,-285.5 796.5,-266.5 729.5,-266.5"/>
<text text-anchor="middle" x="763" y="-273.5" font-family="Helvetica,sans-Serif" font-size="10.00">clset_cover</text>
</a>
</g>
</g>
<!-- Node1&#45;&gt;Node8 -->
<g id="edge9" class="edge">
<title>Node1&#45;&gt;Node8</title>
<path fill="none" stroke="midnightblue" d="M828.78,-263.04C818.6,-265.08 807.2,-267.36 796.83,-269.43"/>
<polygon fill="midnightblue" stroke="midnightblue" points="829.73,-266.42 838.85,-261.03 828.36,-259.56 829.73,-266.42"/>
</g>
<!-- Node25 -->
<g id="node25" class="node">
<title>Node25</title>
<g id="a_node25"><a xlink:href="clset_8h.html#a0dc2a4754c73df72a73b31c09cd50003" target="_top" xlink:title="Initialises a new population of random classifiers.">
<polygon fill="none" stroke="black" points="607,-228.5 607,-247.5 687,-247.5 687,-228.5 607,-228.5"/>
<text text-anchor="middle" x="647" y="-235.5" font-family="Helvetica,sans-Serif" font-size="10.00">clset_pset_init</text>
</a>
</g>
</g>
<!-- Node1&#45;&gt;Node25 -->
<g id="edge32" class="edge">
<title>Node1&#45;&gt;Node25</title>
<path fill="none" stroke="midnightblue" d="M828.52,-254.26C791.19,-250.89 727.9,-245.19 687.04,-241.52"/>
<polygon fill="midnightblue" stroke="midnightblue" points="828.49,-257.77 838.77,-255.18 829.12,-250.8 828.49,-257.77"/>
</g>
<!-- Node28 -->
<g id="node28" class="node">
<title>Node28</title>
<g id="a_node28"><a xlink:href="ea_8h.html#a295cd56f77428d1fa2555df1ce363cdd" target="_top" xlink:title="Executes the evolutionary algorithm (EA).">
<polygon fill="none" stroke="black" points="632.5,-190.5 632.5,-209.5 661.5,-209.5 661.5,-190.5 632.5,-190.5"/>
<text text-anchor="middle" x="647" y="-197.5" font-family="Helvetica,sans-Serif" font-size="10.00">ea</text>
</a>
</g>
</g>
<!-- Node1&#45;&gt;Node28 -->
<g id="edge39" class="edge">
<title>Node1&#45;&gt;Node28</title>
<path fill="none" stroke="midnightblue" d="M829.02,-248.32C820.61,-245.91 811.46,-243.33 803,-241 750.93,-226.68 688.77,-210.52 661.71,-203.53"/>
<polygon fill="midnightblue" stroke="midnightblue" points="828.23,-251.73 838.81,-251.13 830.16,-245 828.23,-251.73"/>
</g>
<!-- Node3 -->
<g id="node3" class="node">
<title>Node3</title>
<g id="a_node3"><a xlink:href="clset_8h.html#a9f71f62cb4c5216fb3a3e76a6b3df82f" target="_top" xlink:title="Creates a classifier from cJSON and inserts in the population set.">
<polygon fill="none" stroke="black" points="473,-380.5 473,-399.5 563,-399.5 563,-380.5 473,-380.5"/>
<text text-anchor="middle" x="518" y="-387.5" font-family="Helvetica,sans-Serif" font-size="10.00">clset_json_insert</text>
</a>
</g>
</g>
<!-- Node2&#45;&gt;Node3 -->
<g id="edge2" class="edge">
<title>Node2&#45;&gt;Node3</title>
<path fill="none" stroke="midnightblue" d="M713.11,-344.47C668,-355.05 601.81,-370.58 559.57,-380.48"/>
<polygon fill="midnightblue" stroke="midnightblue" points="714.02,-347.85 722.96,-342.16 712.42,-341.03 714.02,-347.85"/>
</g>
<!-- Node4 -->
<g id="node4" class="node">
<title>Node4</title>
<g id="a_node4"><a xlink:href="classXCS.html#af888b891afb66fbe06ba4919ef16adf9" target="_top" xlink:title="Creates classifiers from JSON and inserts into the population.">
<polygon fill="none" stroke="black" points="324,-418.5 324,-437.5 415,-437.5 415,-418.5 324,-418.5"/>
<text text-anchor="middle" x="369.5" y="-425.5" font-family="Helvetica,sans-Serif" font-size="10.00">XCS::json_insert</text>
</a>
</g>
</g>
<!-- Node3&#45;&gt;Node4 -->
<g id="edge3" class="edge">
<title>Node3&#45;&gt;Node4</title>
<path fill="none" stroke="midnightblue" d="M470.3,-402.11C449.9,-407.4 426.32,-413.52 407.2,-418.48"/>
<polygon fill="midnightblue" stroke="midnightblue" points="471.23,-405.49 480.03,-399.59 469.47,-398.71 471.23,-405.49"/>
</g>
<!-- Node7 -->
<g id="node7" class="node">
<title>Node7</title>
<g id="a_node7"><a xlink:href="classXCS.html#a61361120dbba1dba3ca49b53ded91edb" target="_top" xlink:title="Creates a classifier from JSON and inserts into the population.">
<polygon fill="none" stroke="black" points="159.5,-380.5 159.5,-399.5 263.5,-399.5 263.5,-380.5 159.5,-380.5"/>
<text text-anchor="middle" x="211.5" y="-387.5" font-family="Helvetica,sans-Serif" font-size="10.00">XCS::json_insert_cl</text>
</a>
</g>
</g>
<!-- Node3&#45;&gt;Node7 -->
<g id="edge7" class="edge">
<title>Node3&#45;&gt;Node7</title>
<path fill="none" stroke="midnightblue" d="M462.58,-390C406.22,-390 318.84,-390 263.7,-390"/>
<polygon fill="midnightblue" stroke="midnightblue" points="462.72,-393.5 472.72,-390 462.72,-386.5 462.72,-393.5"/>
</g>
<!-- Node5 -->
<g id="node5" class="node">
<title>Node5</title>
<g id="a_node5"><a xlink:href="classXCS.html#a1a882e28a64c4e2b92ae234d79f327de" target="_top" xlink:title="Reads classifiers from a JSON file and adds to the population.">
<polygon fill="none" stroke="black" points="168.5,-418.5 168.5,-437.5 254.5,-437.5 254.5,-418.5 168.5,-418.5"/>
<text text-anchor="middle" x="211.5" y="-425.5" font-family="Helvetica,sans-Serif" font-size="10.00">XCS::json_read</text>
</a>
</g>
</g>
<!-- Node4&#45;&gt;Node5 -->
<g id="edge4" class="edge">
<title>Node4&#45;&gt;Node5</title>
<path fill="none" stroke="midnightblue" d="M313.57,-428C294.18,-428 272.69,-428 254.53,-428"/>
<polygon fill="midnightblue" stroke="midnightblue" points="313.8,-431.5 323.8,-428 313.8,-424.5 313.8,-431.5"/>
</g>
<!-- Node6 -->
<g id="node6" class="node">
<title>Node6</title>
<g id="a_node6"><a xlink:href="pybind__wrapper_8cpp.html#a172daba0778fe2bd38d723d5f52a23d5" target="_top" xlink:title=" ">
<polygon fill="none" stroke="black" points="0,-323.5 0,-342.5 113,-342.5 113,-323.5 0,-323.5"/>
<text text-anchor="middle" x="56.5" y="-330.5" font-family="Helvetica,sans-Serif" font-size="10.00">PYBIND11_MODULE</text>
</a>
</g>
</g>
<!-- Node4&#45;&gt;Node6 -->
<g id="edge6" class="edge">
<title>Node4&#45;&gt;Node6</title>
<path fill="none" stroke="midnightblue" d="M335.51,-440.89C290.85,-456.18 209.76,-476.14 149,-447 102.55,-424.72 72.23,-366.09 61.67,-342.77"/>
<polygon fill="midnightblue" stroke="midnightblue" points="336.74,-444.17 344.99,-437.53 334.4,-437.57 336.74,-444.17"/>
</g>
<!-- Node5&#45;&gt;Node6 -->
<g id="edge5" class="edge">
<title>Node5&#45;&gt;Node6</title>
<path fill="none" stroke="midnightblue" d="M161.77,-414.93C157.35,-413.16 153.03,-411.18 149,-409 115.04,-390.61 81.87,-358.53 66.46,-342.58"/>
<polygon fill="midnightblue" stroke="midnightblue" points="160.9,-418.34 171.5,-418.49 163.31,-411.77 160.9,-418.34"/>
</g>
<!-- Node7&#45;&gt;Node6 -->
<g id="edge8" class="edge">
<title>Node7&#45;&gt;Node6</title>
<path fill="none" stroke="midnightblue" d="M167.68,-377.34C161.38,-375.31 155,-373.17 149,-371 124.73,-362.23 97.49,-350.69 79.09,-342.64"/>
<polygon fill="midnightblue" stroke="midnightblue" points="166.85,-380.75 177.44,-380.41 168.95,-374.07 166.85,-380.75"/>
</g>
<!-- Node9 -->
<g id="node9" class="node">
<title>Node9</title>
<g id="a_node9"><a xlink:href="clset_8h.html#a101813e8460677fdb33f08e0226dce9b" target="_top" xlink:title="Constructs the match set &#45; forward propagates conditions and actions.">
<polygon fill="none" stroke="black" points="612,-266.5 612,-285.5 682,-285.5 682,-266.5 612,-266.5"/>
<text text-anchor="middle" x="647" y="-273.5" font-family="Helvetica,sans-Serif" font-size="10.00">clset_match</text>
</a>
</g>
</g>
<!-- Node8&#45;&gt;Node9 -->
<g id="edge10" class="edge">
<title>Node8&#45;&gt;Node9</title>
<path fill="none" stroke="midnightblue" d="M719.33,-276C707.1,-276 693.92,-276 682.26,-276"/>
<polygon fill="midnightblue" stroke="midnightblue" points="719.33,-279.5 729.33,-276 719.33,-272.5 719.33,-279.5"/>
</g>
<!-- Node10 -->
<g id="node10" class="node">
<title>Node10</title>
<g id="a_node10"><a xlink:href="xcs__rl_8h.html#a6501735ba3cba5c77c1b8ad0aad0b26a" target="_top" xlink:title="Selects an action to perform in a reinforcement learning problem.">
<polygon fill="none" stroke="black" points="476,-304.5 476,-323.5 560,-323.5 560,-304.5 476,-304.5"/>
<text text-anchor="middle" x="518" y="-311.5" font-family="Helvetica,sans-Serif" font-size="10.00">xcs_rl_decision</text>
</a>
</g>
</g>
<!-- Node9&#45;&gt;Node10 -->
<g id="edge11" class="edge">
<title>Node9&#45;&gt;Node10</title>
<path fill="none" stroke="midnightblue" d="M604.11,-288.54C586.83,-293.7 567.13,-299.6 551.04,-304.41"/>
<polygon fill="midnightblue" stroke="midnightblue" points="605.38,-291.81 613.95,-285.59 603.37,-285.1 605.38,-291.81"/>
</g>
<!-- Node15 -->
<g id="node15" class="node">
<title>Node15</title>
<g id="a_node15"><a xlink:href="xcs__rl_8h.html#a391abf9bd2540ff284f822b30899c438" target="_top" xlink:title="Creates and updates an action set for a given (state, action, reward).">
<polygon fill="none" stroke="black" points="341.5,-304.5 341.5,-323.5 397.5,-323.5 397.5,-304.5 341.5,-304.5"/>
<text text-anchor="middle" x="369.5" y="-311.5" font-family="Helvetica,sans-Serif" font-size="10.00">xcs_rl_fit</text>
</a>
</g>
</g>
<!-- Node9&#45;&gt;Node15 -->
<g id="edge17" class="edge">
<title>Node9&#45;&gt;Node15</title>
<path fill="none" stroke="midnightblue" d="M601.48,-279.5C564.76,-282.67 511.34,-287.93 465,-295 442.17,-298.49 416.49,-303.73 397.67,-307.83"/>
<polygon fill="midnightblue" stroke="midnightblue" points="602.18,-282.95 611.85,-278.62 601.59,-275.98 602.18,-282.95"/>
</g>
<!-- Node17 -->
<g id="node17" class="node">
<title>Node17</title>
<g id="a_node17"><a xlink:href="xcs__supervised_8c.html#a836aae9ec3055625d1c464d41746a7b9" target="_top" xlink:title="Executes a single XCSF trial.">
<polygon fill="none" stroke="black" points="465,-114.5 465,-133.5 571,-133.5 571,-114.5 465,-114.5"/>
<text text-anchor="middle" x="518" y="-121.5" font-family="Helvetica,sans-Serif" font-size="10.00">xcs_supervised_trial</text>
</a>
</g>
</g>
<!-- Node9&#45;&gt;Node17 -->
<g id="edge20" class="edge">
<title>Node9&#45;&gt;Node17</title>
<path fill="none" stroke="midnightblue" d="M611.51,-260.95C609.91,-259.72 608.39,-258.41 607,-257 580.72,-230.43 591.82,-212.04 571,-181 558.76,-162.76 540.86,-144.5 529.58,-133.73"/>
<polygon fill="midnightblue" stroke="midnightblue" points="609.72,-263.97 620.02,-266.42 613.5,-258.07 609.72,-263.97"/>
</g>
<!-- Node11 -->
<g id="node11" class="node">
<title>Node11</title>
<g id="a_node11"><a xlink:href="classXCS.html#ac6003941812bd2c70ea443dd63bd59d0" target="_top" xlink:title="Selects an action to perform in a reinforcement learning problem.">
<polygon fill="none" stroke="black" points="171.5,-342.5 171.5,-361.5 251.5,-361.5 251.5,-342.5 171.5,-342.5"/>
<text text-anchor="middle" x="211.5" y="-349.5" font-family="Helvetica,sans-Serif" font-size="10.00">XCS::decision</text>
</a>
</g>
</g>
<!-- Node10&#45;&gt;Node11 -->
<g id="edge12" class="edge">
<title>Node10&#45;&gt;Node11</title>
<path fill="none" stroke="midnightblue" d="M467.89,-325.74C455.28,-328.44 441.68,-331.08 429,-333 367.44,-342.31 295.3,-347.51 251.79,-350.03"/>
<polygon fill="midnightblue" stroke="midnightblue" points="468.75,-329.13 477.77,-323.57 467.25,-322.3 468.75,-329.13"/>
</g>
<!-- Node12 -->
<g id="node12" class="node">
<title>Node12</title>
<g id="a_node12"><a xlink:href="xcs__rl_8c.html#a8171cd945b56ed0a4563f9dcd89438e3" target="_top" xlink:title="Executes a reinforcement learning trial using a built&#45;in environment.">
<polygon fill="none" stroke="black" points="337.5,-190.5 337.5,-209.5 401.5,-209.5 401.5,-190.5 337.5,-190.5"/>
<text text-anchor="middle" x="369.5" y="-197.5" font-family="Helvetica,sans-Serif" font-size="10.00">xcs_rl_trial</text>
</a>
</g>
</g>
<!-- Node10&#45;&gt;Node12 -->
<g id="edge14" class="edge">
<title>Node10&#45;&gt;Node12</title>
<path fill="none" stroke="midnightblue" d="M501.27,-296.8C476.55,-269.8 431.2,-220.41 429,-219 420.72,-213.71 410.84,-209.77 401.57,-206.89"/>
<polygon fill="midnightblue" stroke="midnightblue" points="498.87,-299.36 508.2,-304.38 504.03,-294.64 498.87,-299.36"/>
</g>
<!-- Node11&#45;&gt;Node6 -->
<g id="edge13" class="edge">
<title>Node11&#45;&gt;Node6</title>
<path fill="none" stroke="midnightblue" d="M161.2,-345.88C145.88,-343.98 128.89,-341.87 113.18,-339.91"/>
<polygon fill="midnightblue" stroke="midnightblue" points="161.14,-349.4 171.5,-347.16 162,-342.45 161.14,-349.4"/>
</g>
<!-- Node13 -->
<g id="node13" class="node">
<title>Node13</title>
<g id="a_node13"><a xlink:href="xcs__rl_8h.html#adb4c284d19eeaed2b4a629f9b939ed20" target="_top" xlink:title="Executes a reinforcement learning experiment.">
<polygon fill="none" stroke="black" points="179.5,-152.5 179.5,-171.5 243.5,-171.5 243.5,-152.5 179.5,-152.5"/>
<text text-anchor="middle" x="211.5" y="-159.5" font-family="Helvetica,sans-Serif" font-size="10.00">xcs_rl_exp</text>
</a>
</g>
</g>
<!-- Node12&#45;&gt;Node13 -->
<g id="edge15" class="edge">
<title>Node12&#45;&gt;Node13</title>
<path fill="none" stroke="midnightblue" d="M327.28,-189.96C301.06,-183.57 267.65,-175.43 243.64,-169.59"/>
<polygon fill="midnightblue" stroke="midnightblue" points="326.76,-193.44 337.31,-192.4 328.42,-186.63 326.76,-193.44"/>
</g>
<!-- Node14 -->
<g id="node14" class="node">
<title>Node14</title>
<g id="a_node14"><a xlink:href="main_8c.html#a3c04138a5bfe5d72780bb7e82a18e627" target="_top" xlink:title=" ">
<polygon fill="none" stroke="black" points="37.5,-133.5 37.5,-152.5 75.5,-152.5 75.5,-133.5 37.5,-133.5"/>
<text text-anchor="middle" x="56.5" y="-140.5" font-family="Helvetica,sans-Serif" font-size="10.00">main</text>
</a>
</g>
</g>
<!-- Node13&#45;&gt;Node14 -->
<g id="edge16" class="edge">
<title>Node13&#45;&gt;Node14</title>
<path fill="none" stroke="midnightblue" d="M169.24,-156.88C138.78,-153.09 98.79,-148.13 75.83,-145.28"/>
<polygon fill="midnightblue" stroke="midnightblue" points="168.81,-160.35 179.17,-158.11 169.68,-153.4 168.81,-160.35"/>
</g>
<!-- Node16 -->
<g id="node16" class="node">
<title>Node16</title>
<g id="a_node16"><a xlink:href="classXCS.html#ac12768292958a714a726b1c029e9616a" target="_top" xlink:title="Creates/updates an action set for a given (state, action, reward).">
<polygon fill="none" stroke="black" points="185.5,-304.5 185.5,-323.5 237.5,-323.5 237.5,-304.5 185.5,-304.5"/>
<text text-anchor="middle" x="211.5" y="-311.5" font-family="Helvetica,sans-Serif" font-size="10.00">XCS::fit</text>
</a>
</g>
</g>
<!-- Node15&#45;&gt;Node16 -->
<g id="edge18" class="edge">
<title>Node15&#45;&gt;Node16</title>
<path fill="none" stroke="midnightblue" d="M331.17,-314C302.2,-314 262.85,-314 237.56,-314"/>
<polygon fill="midnightblue" stroke="midnightblue" points="331.33,-317.5 341.33,-314 331.33,-310.5 331.33,-317.5"/>
</g>
<!-- Node16&#45;&gt;Node6 -->
<g id="edge19" class="edge">
<title>Node16&#45;&gt;Node6</title>
<path fill="none" stroke="midnightblue" d="M175.27,-318.38C156.9,-320.66 134.01,-323.5 113.3,-326.07"/>
<polygon fill="midnightblue" stroke="midnightblue" points="175.74,-321.84 185.24,-317.14 174.88,-314.9 175.74,-321.84"/>
</g>
<!-- Node18 -->
<g id="node18" class="node">
<title>Node18</title>
<g id="a_node18"><a xlink:href="xcs__supervised_8h.html#aac1347b7b83576d581a1b725b4c84e56" target="_top" xlink:title="Executes MAX_TRIALS number of XCSF learning iterations using the training data and test iterations us...">
<polygon fill="none" stroke="black" points="320.5,-114.5 320.5,-133.5 418.5,-133.5 418.5,-114.5 320.5,-114.5"/>
<text text-anchor="middle" x="369.5" y="-121.5" font-family="Helvetica,sans-Serif" font-size="10.00">xcs_supervised_fit</text>
</a>
</g>
</g>
<!-- Node17&#45;&gt;Node18 -->
<g id="edge21" class="edge">
<title>Node17&#45;&gt;Node18</title>
<path fill="none" stroke="midnightblue" d="M454.6,-124C442.68,-124 430.37,-124 418.97,-124"/>
<polygon fill="midnightblue" stroke="midnightblue" points="454.94,-127.5 464.94,-124 454.94,-120.5 454.94,-127.5"/>
</g>
<!-- Node20 -->
<g id="node20" class="node">
<title>Node20</title>
<g id="a_node20"><a xlink:href="xcs__supervised_8h.html#a2dc51452fdb0be0e27fd3ebfe6041474" target="_top" xlink:title="Calculates the XCSF predictions for the provided input.">
<polygon fill="none" stroke="black" points="310,-266.5 310,-285.5 429,-285.5 429,-266.5 310,-266.5"/>
<text text-anchor="middle" x="369.5" y="-273.5" font-family="Helvetica,sans-Serif" font-size="10.00">xcs_supervised_predict</text>
</a>
</g>
</g>
<!-- Node17&#45;&gt;Node20 -->
<g id="edge24" class="edge">
<title>Node17&#45;&gt;Node20</title>
<path fill="none" stroke="midnightblue" d="M499.14,-140.84C488.36,-151.63 474.85,-166.32 465,-181 444.18,-212.04 457.07,-232.32 429,-257 424.59,-260.88 419.37,-263.97 413.9,-266.43"/>
<polygon fill="midnightblue" stroke="midnightblue" points="501.72,-143.22 506.42,-133.73 496.82,-138.21 501.72,-143.22"/>
</g>
<!-- Node22 -->
<g id="node22" class="node">
<title>Node22</title>
<g id="a_node22"><a xlink:href="xcs__supervised_8h.html#ae05de18a53511ba46b2a6a733c780580" target="_top" xlink:title="Calculates the XCSF error for the input data.">
<polygon fill="none" stroke="black" points="312.5,-38.5 312.5,-57.5 426.5,-57.5 426.5,-38.5 312.5,-38.5"/>
<text text-anchor="middle" x="369.5" y="-45.5" font-family="Helvetica,sans-Serif" font-size="10.00">xcs_supervised_score</text>
</a>
</g>
</g>
<!-- Node17&#45;&gt;Node22 -->
<g id="edge27" class="edge">
<title>Node17&#45;&gt;Node22</title>
<path fill="none" stroke="midnightblue" d="M489.52,-109.74C460.1,-94.48 414.25,-70.7 388.9,-57.55"/>
<polygon fill="midnightblue" stroke="midnightblue" points="487.96,-112.88 498.45,-114.37 491.18,-106.66 487.96,-112.88"/>
</g>
<!-- Node24 -->
<g id="node24" class="node">
<title>Node24</title>
<g id="a_node24"><a xlink:href="xcs__supervised_8h.html#a56ec80025279785376a569ec0130c29f" target="_top" xlink:title="Calculates the XCSF error for a subsample of the input data.">
<polygon fill="none" stroke="black" points="149,-0.5 149,-19.5 274,-19.5 274,-0.5 149,-0.5"/>
<text text-anchor="middle" x="211.5" y="-7.5" font-family="Helvetica,sans-Serif" font-size="10.00">xcs_supervised_score_n</text>
</a>
</g>
</g>
<!-- Node17&#45;&gt;Node24 -->
<g id="edge31" class="edge">
<title>Node17&#45;&gt;Node24</title>
<path fill="none" stroke="midnightblue" d="M506.1,-105.67C491.63,-83.21 463.8,-46.05 429,-29 380.89,-5.43 319.54,-2.16 274.44,-3.92"/>
<polygon fill="midnightblue" stroke="midnightblue" points="503.22,-107.65 511.47,-114.29 509.16,-103.95 503.22,-107.65"/>
</g>
<!-- Node18&#45;&gt;Node14 -->
<g id="edge23" class="edge">
<title>Node18&#45;&gt;Node14</title>
<path fill="none" stroke="midnightblue" d="M310,-127.57C238.2,-131.96 120.45,-139.15 75.61,-141.89"/>
<polygon fill="midnightblue" stroke="midnightblue" points="310.48,-131.05 320.25,-126.95 310.05,-124.06 310.48,-131.05"/>
</g>
<!-- Node19 -->
<g id="node19" class="node">
<title>Node19</title>
<g id="a_node19"><a xlink:href="classXCS.html#a3f8168ffade2d933d0971625200f1d92" target="_top" xlink:title="Executes MAX_TRIALS number of XCSF learning iterations using the provided training data.">
<polygon fill="none" stroke="black" points="185.5,-76.5 185.5,-95.5 237.5,-95.5 237.5,-76.5 185.5,-76.5"/>
<text text-anchor="middle" x="211.5" y="-83.5" font-family="Helvetica,sans-Serif" font-size="10.00">XCS::fit</text>
</a>
</g>
</g>
<!-- Node18&#45;&gt;Node19 -->
<g id="edge22" class="edge">
<title>Node18&#45;&gt;Node19</title>
<path fill="none" stroke="midnightblue" d="M319.41,-112.04C292.27,-105.43 259.69,-97.49 237.68,-92.13"/>
<polygon fill="midnightblue" stroke="midnightblue" points="318.59,-115.44 329.13,-114.41 320.25,-108.64 318.59,-115.44"/>
</g>
<!-- Node21 -->
<g id="node21" class="node">
<title>Node21</title>
<g id="a_node21"><a xlink:href="classXCS.html#a4d7d398d90d5f695fcbfe0fa99354436" target="_top" xlink:title="Returns the XCSF prediction array for the provided input.">
<polygon fill="none" stroke="black" points="175,-266.5 175,-285.5 248,-285.5 248,-266.5 175,-266.5"/>
<text text-anchor="middle" x="211.5" y="-273.5" font-family="Helvetica,sans-Serif" font-size="10.00">XCS::predict</text>
</a>
</g>
</g>
<!-- Node20&#45;&gt;Node21 -->
<g id="edge25" class="edge">
<title>Node20&#45;&gt;Node21</title>
<path fill="none" stroke="midnightblue" d="M299.62,-276C281.88,-276 263.51,-276 248.23,-276"/>
<polygon fill="midnightblue" stroke="midnightblue" points="299.97,-279.5 309.97,-276 299.97,-272.5 299.97,-279.5"/>
</g>
<!-- Node21&#45;&gt;Node6 -->
<g id="edge26" class="edge">
<title>Node21&#45;&gt;Node6</title>
<path fill="none" stroke="midnightblue" d="M167.68,-288.66C161.38,-290.69 155,-292.83 149,-295 124.73,-303.77 97.49,-315.31 79.09,-323.36"/>
<polygon fill="midnightblue" stroke="midnightblue" points="168.95,-291.93 177.44,-285.59 166.85,-285.25 168.95,-291.93"/>
</g>
<!-- Node23 -->
<g id="node23" class="node">
<title>Node23</title>
<g id="a_node23"><a xlink:href="classXCS.html#a4bb9f3f8613abf7ba95837a03bbb931d" target="_top" xlink:title="Returns the error using N random samples from the provided data.">
<polygon fill="none" stroke="black" points="22.5,-19.5 22.5,-38.5 90.5,-38.5 90.5,-19.5 22.5,-19.5"/>
<text text-anchor="middle" x="56.5" y="-26.5" font-family="Helvetica,sans-Serif" font-size="10.00">XCS::score</text>
</a>
</g>
</g>
<!-- Node22&#45;&gt;Node23 -->
<g id="edge28" class="edge">
<title>Node22&#45;&gt;Node23</title>
<path fill="none" stroke="midnightblue" d="M302.05,-43.94C237.18,-39.98 141.13,-34.11 90.89,-31.04"/>
<polygon fill="midnightblue" stroke="midnightblue" points="301.99,-47.44 312.18,-44.56 302.41,-40.46 301.99,-47.44"/>
</g>
<!-- Node22&#45;&gt;Node24 -->
<g id="edge29" class="edge">
<title>Node22&#45;&gt;Node24</title>
<path fill="none" stroke="midnightblue" d="M319.37,-36.03C297.51,-30.71 272.12,-24.52 251.58,-19.52"/>
<polygon fill="midnightblue" stroke="midnightblue" points="318.59,-39.44 329.13,-38.41 320.25,-32.64 318.59,-39.44"/>
</g>
<!-- Node24&#45;&gt;Node23 -->
<g id="edge30" class="edge">
<title>Node24&#45;&gt;Node23</title>
<path fill="none" stroke="midnightblue" d="M138.35,-18.96C121.62,-21.04 104.6,-23.15 90.52,-24.9"/>
<polygon fill="midnightblue" stroke="midnightblue" points="139.22,-22.38 148.71,-17.67 138.35,-15.43 139.22,-22.38"/>
</g>
<!-- Node25&#45;&gt;Node18 -->
<g id="edge38" class="edge">
<title>Node25&#45;&gt;Node18</title>
<path fill="none" stroke="midnightblue" d="M613.99,-223.6C611.56,-222.15 609.2,-220.61 607,-219 588.24,-205.24 590.9,-193.05 571,-181 544.69,-165.06 464.91,-145.16 414.27,-133.58"/>
<polygon fill="midnightblue" stroke="midnightblue" points="612.48,-226.76 622.93,-228.46 615.82,-220.61 612.48,-226.76"/>
</g>
<!-- Node26 -->
<g id="node26" class="node">
<title>Node26</title>
<g id="a_node26"><a xlink:href="xcs__rl_8h.html#adca6cf3218b5080457ff2d1a7fbb8017" target="_top" xlink:title="Initialises a reinforcement learning trial.">
<polygon fill="none" stroke="black" points="477,-228.5 477,-247.5 559,-247.5 559,-228.5 477,-228.5"/>
<text text-anchor="middle" x="518" y="-235.5" font-family="Helvetica,sans-Serif" font-size="10.00">xcs_rl_init_trial</text>
</a>
</g>
</g>
<!-- Node25&#45;&gt;Node26 -->
<g id="edge33" class="edge">
<title>Node25&#45;&gt;Node26</title>
<path fill="none" stroke="midnightblue" d="M596.64,-238C584.21,-238 571.02,-238 559.11,-238"/>
<polygon fill="midnightblue" stroke="midnightblue" points="596.86,-241.5 606.86,-238 596.86,-234.5 596.86,-241.5"/>
</g>
<!-- Node26&#45;&gt;Node12 -->
<g id="edge37" class="edge">
<title>Node26&#45;&gt;Node12</title>
<path fill="none" stroke="midnightblue" d="M470.34,-225.9C447.85,-220.06 421.5,-213.23 401.51,-208.04"/>
<polygon fill="midnightblue" stroke="midnightblue" points="469.47,-229.29 480.03,-228.41 471.23,-222.51 469.47,-229.29"/>
</g>
<!-- Node26&#45;&gt;Node15 -->
<g id="edge36" class="edge">
<title>Node26&#45;&gt;Node15</title>
<path fill="none" stroke="midnightblue" d="M482.87,-251.9C476.74,-254.91 470.54,-258.31 465,-262 446.93,-274.02 447.75,-284.06 429,-295 419.41,-300.6 407.95,-304.78 397.73,-307.78"/>
<polygon fill="midnightblue" stroke="midnightblue" points="484.75,-254.89 492.35,-247.51 481.81,-248.54 484.75,-254.89"/>
</g>
<!-- Node27 -->
<g id="node27" class="node">
<title>Node27</title>
<g id="a_node27"><a xlink:href="classXCS.html#adbfb8e127ef8a800a661d284dda3f2ef" target="_top" xlink:title="Initialises a reinforcement learning trial.">
<polygon fill="none" stroke="black" points="331,-228.5 331,-247.5 408,-247.5 408,-228.5 331,-228.5"/>
<text text-anchor="middle" x="369.5" y="-235.5" font-family="Helvetica,sans-Serif" font-size="10.00">XCS::init_trial</text>
</a>
</g>
</g>
<!-- Node26&#45;&gt;Node27 -->
<g id="edge34" class="edge">
<title>Node26&#45;&gt;Node27</title>
<path fill="none" stroke="midnightblue" d="M466.91,-238C447.78,-238 426.29,-238 408.47,-238"/>
<polygon fill="midnightblue" stroke="midnightblue" points="466.97,-241.5 476.97,-238 466.97,-234.5 466.97,-241.5"/>
</g>
<!-- Node27&#45;&gt;Node6 -->
<g id="edge35" class="edge">
<title>Node27&#45;&gt;Node6</title>
<path fill="none" stroke="midnightblue" d="M320.55,-234.1C274.74,-232.2 204.64,-234.15 149,-257 112.71,-271.91 79.88,-306.55 65.37,-323.42"/>
<polygon fill="midnightblue" stroke="midnightblue" points="320.63,-237.61 330.8,-234.6 320.98,-230.62 320.63,-237.61"/>
</g>
<!-- Node28&#45;&gt;Node17 -->
<g id="edge45" class="edge">
<title>Node28&#45;&gt;Node17</title>
<path fill="none" stroke="midnightblue" d="M625.34,-184.22C610.62,-173.35 590.14,-158.94 571,-148 561.76,-142.72 551.16,-137.66 541.95,-133.56"/>
<polygon fill="midnightblue" stroke="midnightblue" points="623.59,-187.28 633.7,-190.47 627.79,-181.68 623.59,-187.28"/>
</g>
<!-- Node29 -->
<g id="node29" class="node">
<title>Node29</title>
<g id="a_node29"><a xlink:href="xcs__rl_8h.html#ac0d410321cd5627345e1b53856f7244c" target="_top" xlink:title="Provides reinforcement to the sets.">
<polygon fill="none" stroke="black" points="479.5,-190.5 479.5,-209.5 556.5,-209.5 556.5,-190.5 479.5,-190.5"/>
<text text-anchor="middle" x="518" y="-197.5" font-family="Helvetica,sans-Serif" font-size="10.00">xcs_rl_update</text>
</a>
</g>
</g>
<!-- Node28&#45;&gt;Node29 -->
<g id="edge40" class="edge">
<title>Node28&#45;&gt;Node29</title>
<path fill="none" stroke="midnightblue" d="M622.27,-200C603.85,-200 577.96,-200 556.72,-200"/>
<polygon fill="midnightblue" stroke="midnightblue" points="622.41,-203.5 632.41,-200 622.41,-196.5 622.41,-203.5"/>
</g>
<!-- Node29&#45;&gt;Node12 -->
<g id="edge44" class="edge">
<title>Node29&#45;&gt;Node12</title>
<path fill="none" stroke="midnightblue" d="M469.06,-200C446.92,-200 421.26,-200 401.68,-200"/>
<polygon fill="midnightblue" stroke="midnightblue" points="469.27,-203.5 479.27,-200 469.27,-196.5 469.27,-203.5"/>
</g>
<!-- Node29&#45;&gt;Node15 -->
<g id="edge43" class="edge">
<title>Node29&#45;&gt;Node15</title>
<path fill="none" stroke="midnightblue" d="M470.58,-214.64C468.6,-215.97 466.73,-217.42 465,-219 437.38,-244.18 457.07,-270.32 429,-295 420.26,-302.69 408.36,-307.27 397.57,-310"/>
<polygon fill="midnightblue" stroke="midnightblue" points="472.7,-217.46 479.72,-209.52 469.29,-211.35 472.7,-217.46"/>
</g>
<!-- Node30 -->
<g id="node30" class="node">
<title>Node30</title>
<g id="a_node30"><a xlink:href="classXCS.html#af8970ba52403714439fda0d4383a390b" target="_top" xlink:title="Creates the action set using the previously selected action, updates the classifiers,...">
<polygon fill="none" stroke="black" points="333,-152.5 333,-171.5 406,-171.5 406,-152.5 333,-152.5"/>
<text text-anchor="middle" x="369.5" y="-159.5" font-family="Helvetica,sans-Serif" font-size="10.00">XCS::update</text>
</a>
</g>
</g>
<!-- Node29&#45;&gt;Node30 -->
<g id="edge41" class="edge">
<title>Node29&#45;&gt;Node30</title>
<path fill="none" stroke="midnightblue" d="M470.15,-187.85C449.42,-182.47 425.44,-176.25 406.19,-171.26"/>
<polygon fill="midnightblue" stroke="midnightblue" points="469.47,-191.29 480.03,-190.41 471.23,-184.51 469.47,-191.29"/>
</g>
<!-- Node30&#45;&gt;Node6 -->
<g id="edge42" class="edge">
<title>Node30&#45;&gt;Node6</title>
<path fill="none" stroke="midnightblue" d="M322.68,-172.84C267.27,-186.49 177.84,-210.4 149,-229 108.98,-254.81 76.13,-302.91 63.3,-323.38"/>
<polygon fill="midnightblue" stroke="midnightblue" points="323.72,-176.19 332.61,-170.42 322.06,-169.39 323.72,-176.19"/>
</g>
</g>
</svg>
