<?xml version="1.0" encoding="UTF-8" standalone="no"?>
<!DOCTYPE svg PUBLIC "-//W3C//DTD SVG 1.1//EN"
 "http://www.w3.org/Graphics/SVG/1.1/DTD/svg11.dtd">
<!-- Generated by graphviz version 2.43.0 (0)
 -->
<!-- Title: XCS::set_prediction Pages: 1 -->
<svg width="936pt" height="487pt"
 viewBox="0.00 0.00 936.00 486.50" xmlns="http://www.w3.org/2000/svg" xmlns:xlink="http://www.w3.org/1999/xlink">
<g id="graph0" class="graph" transform="scale(1 1) rotate(0) translate(4 482.5)">
<title>XCS::set_prediction</title>
<!-- Node1 -->
<g id="node1" class="node">
<title>Node1</title>
<g id="a_node1"><a xlink:title="Sets the prediction type and initialisation arguments.">
<polygon fill="#bfbfbf" stroke="black" points="0,-189.5 0,-208.5 104,-208.5 104,-189.5 0,-189.5"/>
<text text-anchor="middle" x="52" y="-196.5" font-family="Helvetica,sans-Serif" font-size="10.00">XCS::set_prediction</text>
</a>
</g>
</g>
<!-- Node2 -->
<g id="node2" class="node">
<title>Node2</title>
<g id="a_node2"><a xlink:href="classXCS.html#a83803dda1df95ab1bd02f3b7ba69fc11" target="_top" xlink:title="Converts a Python dictionary to a C++ string (JSON).">
<polygon fill="none" stroke="black" points="153.5,-341.5 153.5,-360.5 249.5,-360.5 249.5,-341.5 153.5,-341.5"/>
<text text-anchor="middle" x="201.5" y="-348.5" font-family="Helvetica,sans-Serif" font-size="10.00">XCS::dict_to_json</text>
</a>
</g>
</g>
<!-- Node1&#45;&gt;Node2 -->
<g id="edge1" class="edge">
<title>Node1&#45;&gt;Node2</title>
<path fill="none" stroke="midnightblue" d="M62.23,-208.51C86.65,-233.67 153.21,-302.26 184.21,-334.21"/>
<polygon fill="midnightblue" stroke="midnightblue" points="181.8,-336.76 191.28,-341.5 186.82,-331.88 181.8,-336.76"/>
</g>
<!-- Node5 -->
<g id="node5" class="node">
<title>Node5</title>
<g id="a_node5"><a xlink:href="prediction_8c.html#a7f976ef5c24c68e48493bdec31567021" target="_top" xlink:title="Sets the prediction parameters from a cJSON object.">
<polygon fill="none" stroke="black" points="140,-189.5 140,-208.5 263,-208.5 263,-189.5 140,-189.5"/>
<text text-anchor="middle" x="201.5" y="-196.5" font-family="Helvetica,sans-Serif" font-size="10.00">pred_param_json_import</text>
</a>
</g>
</g>
<!-- Node1&#45;&gt;Node5 -->
<g id="edge4" class="edge">
<title>Node1&#45;&gt;Node5</title>
<path fill="none" stroke="midnightblue" d="M104.17,-199C112.43,-199 121.1,-199 129.71,-199"/>
<polygon fill="midnightblue" stroke="midnightblue" points="129.78,-202.5 139.78,-199 129.78,-195.5 129.78,-202.5"/>
</g>
<!-- Node28 -->
<g id="node28" class="node">
<title>Node28</title>
<g id="a_node28"><a xlink:href="classXCS.html#a6659e0b11f57ef97da5d5b91226338a5" target="_top" xlink:title="Sets the prediction type.">
<polygon fill="none" stroke="black" points="149.5,-108.5 149.5,-127.5 253.5,-127.5 253.5,-108.5 149.5,-108.5"/>
<text text-anchor="middle" x="201.5" y="-115.5" font-family="Helvetica,sans-Serif" font-size="10.00">XCS::set_prediction</text>
</a>
</g>
</g>
<!-- Node1&#45;&gt;Node28 -->
<g id="edge28" class="edge">
<title>Node1&#45;&gt;Node28</title>
<path fill="none" stroke="midnightblue" d="M70.5,-189.39C96.11,-175.32 144.02,-149.02 173.98,-132.56"/>
<polygon fill="midnightblue" stroke="midnightblue" points="175.94,-135.48 183.02,-127.6 172.57,-129.34 175.94,-135.48"/>
</g>
<!-- Node3 -->
<g id="node3" class="node">
<title>Node3</title>
<g id="a_node3"><a xlink:href="classXCS.html#aa324fa8d2f623753926ed7b32607860b" target="_top" xlink:title="Finds and replaces all occurrences of a substring.">
<polygon fill="none" stroke="black" points="304.5,-379.5 304.5,-398.5 415.5,-398.5 415.5,-379.5 304.5,-379.5"/>
<text text-anchor="middle" x="360" y="-386.5" font-family="Helvetica,sans-Serif" font-size="10.00">XCS::find_replace_all</text>
</a>
</g>
</g>
<!-- Node2&#45;&gt;Node3 -->
<g id="edge2" class="edge">
<title>Node2&#45;&gt;Node3</title>
<path fill="none" stroke="midnightblue" d="M241.99,-360.59C262.64,-365.6 288.11,-371.79 310.01,-377.11"/>
<polygon fill="midnightblue" stroke="midnightblue" points="309.25,-380.52 319.79,-379.48 310.9,-373.72 309.25,-380.52"/>
</g>
<!-- Node4 -->
<g id="node4" class="node">
<title>Node4</title>
<g id="a_node4"><a xlink:href="utils_8c.html#ab88f9e76233791f1e21ef22ba3a958b0" target="_top" xlink:title="Checks whether JSON parsed correctly.">
<polygon fill="none" stroke="black" points="300.5,-341.5 300.5,-360.5 419.5,-360.5 419.5,-341.5 300.5,-341.5"/>
<text text-anchor="middle" x="360" y="-348.5" font-family="Helvetica,sans-Serif" font-size="10.00">utils_json_parse_check</text>
</a>
</g>
</g>
<!-- Node2&#45;&gt;Node4 -->
<g id="edge3" class="edge">
<title>Node2&#45;&gt;Node4</title>
<path fill="none" stroke="midnightblue" d="M249.88,-351C262.57,-351 276.55,-351 290.14,-351"/>
<polygon fill="midnightblue" stroke="midnightblue" points="290.44,-354.5 300.44,-351 290.44,-347.5 290.44,-354.5"/>
</g>
<!-- Node6 -->
<g id="node6" class="node">
<title>Node6</title>
<g id="a_node6"><a xlink:href="pred__neural_8c.html#a913efbfb988539a1c6f7de2cf43cea5c" target="_top" xlink:title="Sets the neural network parameters from a cJSON object.">
<polygon fill="none" stroke="black" points="299,-292 299,-322 421,-322 421,-292 299,-292"/>
<text text-anchor="start" x="307" y="-310" font-family="Helvetica,sans-Serif" font-size="10.00">pred_neural_param_json</text>
<text text-anchor="middle" x="360" y="-299" font-family="Helvetica,sans-Serif" font-size="10.00">_import</text>
</a>
</g>
</g>
<!-- Node5&#45;&gt;Node6 -->
<g id="edge5" class="edge">
<title>Node5&#45;&gt;Node6</title>
<path fill="none" stroke="midnightblue" d="M216.39,-208.58C241.45,-225.88 294.79,-262.69 328.66,-286.06"/>
<polygon fill="midnightblue" stroke="midnightblue" points="327.02,-289.18 337.24,-291.98 330.99,-283.42 327.02,-289.18"/>
</g>
<!-- Node20 -->
<g id="node20" class="node">
<title>Node20</title>
<g id="a_node20"><a xlink:href="pred__nlms_8c.html#ad710d595ff04564a4925d0d83129853d" target="_top" xlink:title="Sets the NLMS parameters from a cJSON object.">
<polygon fill="none" stroke="black" points="301.5,-184 301.5,-214 418.5,-214 418.5,-184 301.5,-184"/>
<text text-anchor="start" x="309.5" y="-202" font-family="Helvetica,sans-Serif" font-size="10.00">pred_nlms_param_json</text>
<text text-anchor="middle" x="360" y="-191" font-family="Helvetica,sans-Serif" font-size="10.00">_import</text>
</a>
</g>
</g>
<!-- Node5&#45;&gt;Node20 -->
<g id="edge19" class="edge">
<title>Node5&#45;&gt;Node20</title>
<path fill="none" stroke="midnightblue" d="M263.01,-199C272.29,-199 281.93,-199 291.36,-199"/>
<polygon fill="midnightblue" stroke="midnightblue" points="291.48,-202.5 301.48,-199 291.48,-195.5 291.48,-202.5"/>
</g>
<!-- Node25 -->
<g id="node25" class="node">
<title>Node25</title>
<g id="a_node25"><a xlink:href="pred__rls_8c.html#addc89af1656f21fec298ad5f04d2573d" target="_top" xlink:title="Sets the RLS parameters from a cJSON object.">
<polygon fill="none" stroke="black" points="306.5,-102 306.5,-132 413.5,-132 413.5,-102 306.5,-102"/>
<text text-anchor="start" x="314.5" y="-120" font-family="Helvetica,sans-Serif" font-size="10.00">pred_rls_param_json</text>
<text text-anchor="middle" x="360" y="-109" font-family="Helvetica,sans-Serif" font-size="10.00">_import</text>
</a>
</g>
</g>
<!-- Node5&#45;&gt;Node25 -->
<g id="edge24" class="edge">
<title>Node5&#45;&gt;Node25</title>
<path fill="none" stroke="midnightblue" d="M220.76,-189.43C245.27,-176.59 289.41,-153.46 321.23,-136.79"/>
<polygon fill="midnightblue" stroke="midnightblue" points="323.02,-139.8 330.26,-132.06 319.77,-133.6 323.02,-139.8"/>
</g>
<!-- Node7 -->
<g id="node7" class="node">
<title>Node7</title>
<g id="a_node7"><a xlink:href="neural__layer__args_8c.html#a477d2c5cf9da9413c6dba66b5d7f7aff" target="_top" xlink:title="Frees memory used by a list of layer parameters and points to NULL.">
<polygon fill="none" stroke="black" points="485,-392.5 485,-411.5 568,-411.5 568,-392.5 485,-392.5"/>
<text text-anchor="middle" x="526.5" y="-399.5" font-family="Helvetica,sans-Serif" font-size="10.00">layer_args_free</text>
</a>
</g>
</g>
<!-- Node6&#45;&gt;Node7 -->
<g id="edge6" class="edge">
<title>Node6&#45;&gt;Node7</title>
<path fill="none" stroke="midnightblue" d="M405.23,-322.02C410.83,-324.87 416.24,-328.19 421,-332 442.65,-349.35 434.31,-367.03 457,-383 462.49,-386.87 468.74,-389.95 475.19,-392.4"/>
<polygon fill="midnightblue" stroke="midnightblue" points="474.1,-395.73 484.69,-395.57 476.31,-389.09 474.1,-395.73"/>
</g>
<!-- Node8 -->
<g id="node8" class="node">
<title>Node8</title>
<g id="a_node8"><a xlink:href="neural__layer__args_8c.html#a3b06e82bed7fc9a8915d6187ce08d33e" target="_top" xlink:title="Sets layer parameters to default values.">
<polygon fill="none" stroke="black" points="486.5,-354.5 486.5,-373.5 566.5,-373.5 566.5,-354.5 486.5,-354.5"/>
<text text-anchor="middle" x="526.5" y="-361.5" font-family="Helvetica,sans-Serif" font-size="10.00">layer_args_init</text>
</a>
</g>
</g>
<!-- Node6&#45;&gt;Node8 -->
<g id="edge7" class="edge">
<title>Node6&#45;&gt;Node8</title>
<path fill="none" stroke="midnightblue" d="M396.68,-322.17C414.61,-329.53 436.78,-338.21 457,-345 463.92,-347.32 471.29,-349.58 478.55,-351.69"/>
<polygon fill="midnightblue" stroke="midnightblue" points="477.73,-355.1 488.31,-354.46 479.64,-348.36 477.73,-355.1"/>
</g>
<!-- Node9 -->
<g id="node9" class="node">
<title>Node9</title>
<g id="a_node9"><a xlink:href="neural__layer__args_8c.html#a3b9aa19f760cc83a0a56abd6264e314e" target="_top" xlink:title="Sets the layer parameters from a cJSON object.">
<polygon fill="none" stroke="black" points="468,-316.5 468,-335.5 585,-335.5 585,-316.5 468,-316.5"/>
<text text-anchor="middle" x="526.5" y="-323.5" font-family="Helvetica,sans-Serif" font-size="10.00">layer_args_json_import</text>
</a>
</g>
</g>
<!-- Node6&#45;&gt;Node9 -->
<g id="edge8" class="edge">
<title>Node6&#45;&gt;Node9</title>
<path fill="none" stroke="midnightblue" d="M421.32,-313.97C433.21,-315.34 445.76,-316.79 457.88,-318.19"/>
<polygon fill="midnightblue" stroke="midnightblue" points="457.59,-321.68 467.93,-319.35 458.39,-314.73 457.59,-321.68"/>
</g>
<!-- Node17 -->
<g id="node17" class="node">
<title>Node17</title>
<g id="a_node17"><a xlink:href="neural__layer__args_8c.html#a492de2de029ff6124f8fe466ad6b0d80" target="_top" xlink:title="Checks network layer arguments are valid.">
<polygon fill="none" stroke="black" points="476,-278.5 476,-297.5 577,-297.5 577,-278.5 476,-278.5"/>
<text text-anchor="middle" x="526.5" y="-285.5" font-family="Helvetica,sans-Serif" font-size="10.00">layer_args_validate</text>
</a>
</g>
</g>
<!-- Node6&#45;&gt;Node17 -->
<g id="edge16" class="edge">
<title>Node6&#45;&gt;Node17</title>
<path fill="none" stroke="midnightblue" d="M421.32,-300.03C435.78,-298.36 451.22,-296.58 465.66,-294.91"/>
<polygon fill="midnightblue" stroke="midnightblue" points="466.44,-298.35 475.97,-293.72 465.63,-291.39 466.44,-298.35"/>
</g>
<!-- Node10 -->
<g id="node10" class="node">
<title>Node10</title>
<g id="a_node10"><a xlink:href="neural__layer__args_8c.html#af7388e196c27ab190bb7bb6848a7a456" target="_top" xlink:title="Sets the layer activation from a cJSON object.">
<polygon fill="none" stroke="black" points="642.5,-448 642.5,-478 759.5,-478 759.5,-448 642.5,-448"/>
<text text-anchor="start" x="650.5" y="-466" font-family="Helvetica,sans-Serif" font-size="10.00">layer_args_json_import</text>
<text text-anchor="middle" x="701" y="-455" font-family="Helvetica,sans-Serif" font-size="10.00">_activation</text>
</a>
</g>
</g>
<!-- Node9&#45;&gt;Node10 -->
<g id="edge9" class="edge">
<title>Node9&#45;&gt;Node10</title>
<path fill="none" stroke="midnightblue" d="M581.33,-335.53C586.67,-338 591.7,-341.11 596,-345 628.85,-374.76 600.39,-406.93 632,-438 633.48,-439.45 635.05,-440.83 636.7,-442.12"/>
<polygon fill="midnightblue" stroke="midnightblue" points="635.19,-445.32 645.46,-447.94 639.07,-439.49 635.19,-445.32"/>
</g>
<!-- Node12 -->
<g id="node12" class="node">
<title>Node12</title>
<g id="a_node12"><a xlink:href="neural__layer__args_8c.html#a511a92070d5a53700d9650c1705b96ab" target="_top" xlink:title="Sets the layer evolutionary parameters from a cJSON object.">
<polygon fill="none" stroke="black" points="632,-409.5 632,-428.5 770,-428.5 770,-409.5 632,-409.5"/>
<text text-anchor="middle" x="701" y="-416.5" font-family="Helvetica,sans-Serif" font-size="10.00">layer_args_json_import_evo</text>
</a>
</g>
</g>
<!-- Node9&#45;&gt;Node12 -->
<g id="edge11" class="edge">
<title>Node9&#45;&gt;Node12</title>
<path fill="none" stroke="midnightblue" d="M578.44,-335.62C584.69,-338.07 590.72,-341.14 596,-345 619.59,-362.23 608.43,-382.74 632,-400 634.67,-401.95 637.53,-403.71 640.52,-405.28"/>
<polygon fill="midnightblue" stroke="midnightblue" points="639.22,-408.54 649.78,-409.48 642.12,-402.16 639.22,-408.54"/>
</g>
<!-- Node13 -->
<g id="node13" class="node">
<title>Node13</title>
<g id="a_node13"><a xlink:href="neural__layer__args_8c.html#a22a018ccf2e332aafeaa450968b96ed1" target="_top" xlink:title="Sets the layer input parameters from a cJSON object.">
<polygon fill="none" stroke="black" points="642.5,-360 642.5,-390 759.5,-390 759.5,-360 642.5,-360"/>
<text text-anchor="start" x="650.5" y="-378" font-family="Helvetica,sans-Serif" font-size="10.00">layer_args_json_import</text>
<text text-anchor="middle" x="701" y="-367" font-family="Helvetica,sans-Serif" font-size="10.00">_inputs</text>
</a>
</g>
</g>
<!-- Node9&#45;&gt;Node13 -->
<g id="edge12" class="edge">
<title>Node9&#45;&gt;Node13</title>
<path fill="none" stroke="midnightblue" d="M562.37,-335.6C573.16,-338.59 585.07,-341.91 596,-345 609.68,-348.87 624.35,-353.07 638.24,-357.07"/>
<polygon fill="midnightblue" stroke="midnightblue" points="637.61,-360.53 648.19,-359.94 639.55,-353.81 637.61,-360.53"/>
</g>
<!-- Node14 -->
<g id="node14" class="node">
<title>Node14</title>
<g id="a_node14"><a xlink:href="neural__layer__args_8c.html#ab5d03fe4bb8549b5321c9bda9c514161" target="_top" xlink:title="Sets the layer scaling parameters from a cJSON object.">
<polygon fill="none" stroke="black" points="642.5,-311 642.5,-341 759.5,-341 759.5,-311 642.5,-311"/>
<text text-anchor="start" x="650.5" y="-329" font-family="Helvetica,sans-Serif" font-size="10.00">layer_args_json_import</text>
<text text-anchor="middle" x="701" y="-318" font-family="Helvetica,sans-Serif" font-size="10.00">_scale</text>
</a>
</g>
</g>
<!-- Node9&#45;&gt;Node14 -->
<g id="edge13" class="edge">
<title>Node9&#45;&gt;Node14</title>
<path fill="none" stroke="midnightblue" d="M585.42,-326C600.43,-326 616.74,-326 632.21,-326"/>
<polygon fill="midnightblue" stroke="midnightblue" points="632.23,-329.5 642.23,-326 632.23,-322.5 632.23,-329.5"/>
</g>
<!-- Node15 -->
<g id="node15" class="node">
<title>Node15</title>
<g id="a_node15"><a xlink:href="neural__layer__args_8c.html#a9a07261fd04326ccbae66c152f8f6de2" target="_top" xlink:title="Sets the layer SGD parameters from a cJSON object.">
<polygon fill="none" stroke="black" points="632,-272.5 632,-291.5 770,-291.5 770,-272.5 632,-272.5"/>
<text text-anchor="middle" x="701" y="-279.5" font-family="Helvetica,sans-Serif" font-size="10.00">layer_args_json_import_sgd</text>
</a>
</g>
</g>
<!-- Node9&#45;&gt;Node15 -->
<g id="edge14" class="edge">
<title>Node9&#45;&gt;Node15</title>
<path fill="none" stroke="midnightblue" d="M564.93,-316.45C590.7,-309.88 625.14,-301.1 652.79,-294.04"/>
<polygon fill="midnightblue" stroke="midnightblue" points="653.82,-297.39 662.64,-291.53 652.09,-290.61 653.82,-297.39"/>
</g>
<!-- Node16 -->
<g id="node16" class="node">
<title>Node16</title>
<g id="a_node16"><a xlink:href="neural__layer_8c.html#a5a8bc3e92587742c0bd1ee27780b1128" target="_top" xlink:title="Returns the integer representation of a layer type given a name.">
<polygon fill="none" stroke="black" points="654.5,-234.5 654.5,-253.5 747.5,-253.5 747.5,-234.5 654.5,-234.5"/>
<text text-anchor="middle" x="701" y="-241.5" font-family="Helvetica,sans-Serif" font-size="10.00">layer_type_as_int</text>
</a>
</g>
</g>
<!-- Node9&#45;&gt;Node16 -->
<g id="edge15" class="edge">
<title>Node9&#45;&gt;Node16</title>
<path fill="none" stroke="midnightblue" d="M576.64,-316.37C583.44,-313.92 590.11,-310.84 596,-307 617.17,-293.2 610.85,-276.82 632,-263 636.02,-260.37 640.4,-258.1 644.95,-256.15"/>
<polygon fill="midnightblue" stroke="midnightblue" points="646.31,-259.37 654.42,-252.55 643.83,-252.83 646.31,-259.37"/>
</g>
<!-- Node11 -->
<g id="node11" class="node">
<title>Node11</title>
<g id="a_node11"><a xlink:href="neural__activations_8c.html#aaba6ef52952c92bb15f6231b6b42fa73" target="_top" xlink:title="Returns the integer representation of an activation function.">
<polygon fill="none" stroke="black" points="806,-453.5 806,-472.5 928,-472.5 928,-453.5 806,-453.5"/>
<text text-anchor="middle" x="867" y="-460.5" font-family="Helvetica,sans-Serif" font-size="10.00">neural_activation_as_int</text>
</a>
</g>
</g>
<!-- Node10&#45;&gt;Node11 -->
<g id="edge10" class="edge">
<title>Node10&#45;&gt;Node11</title>
<path fill="none" stroke="midnightblue" d="M759.82,-463C771.49,-463 783.88,-463 795.92,-463"/>
<polygon fill="midnightblue" stroke="midnightblue" points="795.93,-466.5 805.93,-463 795.93,-459.5 795.93,-466.5"/>
</g>
<!-- Node18 -->
<g id="node18" class="node">
<title>Node18</title>
<g id="a_node18"><a xlink:href="neural__layer__args_8c.html#a8e1a02c60d1cbe0baba8f2c6ff0b5266" target="_top" xlink:title="Checks input layer arguments are valid.">
<polygon fill="none" stroke="black" points="650.5,-185 650.5,-215 751.5,-215 751.5,-185 650.5,-185"/>
<text text-anchor="start" x="658.5" y="-203" font-family="Helvetica,sans-Serif" font-size="10.00">layer_args_validate</text>
<text text-anchor="middle" x="701" y="-192" font-family="Helvetica,sans-Serif" font-size="10.00">_inputs</text>
</a>
</g>
</g>
<!-- Node17&#45;&gt;Node18 -->
<g id="edge17" class="edge">
<title>Node17&#45;&gt;Node18</title>
<path fill="none" stroke="midnightblue" d="M576.64,-278.37C583.44,-275.92 590.11,-272.84 596,-269 617.17,-255.2 611.42,-239.65 632,-225 634.99,-222.87 638.19,-220.9 641.5,-219.08"/>
<polygon fill="midnightblue" stroke="midnightblue" points="643.09,-222.2 650.49,-214.61 639.98,-215.93 643.09,-222.2"/>
</g>
<!-- Node19 -->
<g id="node19" class="node">
<title>Node19</title>
<g id="a_node19"><a xlink:href="neural__layer_8c.html#ad1b7188119d0d96791ee0d87c105896a" target="_top" xlink:title="Returns a whether a layer type expects images as input.">
<polygon fill="none" stroke="black" points="809,-190.5 809,-209.5 925,-209.5 925,-190.5 809,-190.5"/>
<text text-anchor="middle" x="867" y="-197.5" font-family="Helvetica,sans-Serif" font-size="10.00">layer_receives_images</text>
</a>
</g>
</g>
<!-- Node18&#45;&gt;Node19 -->
<g id="edge18" class="edge">
<title>Node18&#45;&gt;Node19</title>
<path fill="none" stroke="midnightblue" d="M751.65,-200C766.42,-200 782.86,-200 798.56,-200"/>
<polygon fill="midnightblue" stroke="midnightblue" points="798.75,-203.5 808.75,-200 798.75,-196.5 798.75,-203.5"/>
</g>
<!-- Node21 -->
<g id="node21" class="node">
<title>Node21</title>
<g id="a_node21"><a xlink:href="prediction_8c.html#abf258a7e5dec62efd980dcd56bdc9e5d" target="_top" xlink:title=" ">
<polygon fill="none" stroke="black" points="474,-240.5 474,-259.5 579,-259.5 579,-240.5 474,-240.5"/>
<text text-anchor="middle" x="526.5" y="-247.5" font-family="Helvetica,sans-Serif" font-size="10.00">pred_param_set_eta</text>
</a>
</g>
</g>
<!-- Node20&#45;&gt;Node21 -->
<g id="edge20" class="edge">
<title>Node20&#45;&gt;Node21</title>
<path fill="none" stroke="midnightblue" d="M404.82,-214.13C421.14,-219.63 439.86,-225.77 457,-231 464.47,-233.28 472.43,-235.59 480.19,-237.78"/>
<polygon fill="midnightblue" stroke="midnightblue" points="479.27,-241.16 489.85,-240.48 481.16,-234.42 479.27,-241.16"/>
</g>
<!-- Node22 -->
<g id="node22" class="node">
<title>Node22</title>
<g id="a_node22"><a xlink:href="prediction_8c.html#ab59b2b572c1ff05157b89759ab7162f5" target="_top" xlink:title=" ">
<polygon fill="none" stroke="black" points="463.5,-202.5 463.5,-221.5 589.5,-221.5 589.5,-202.5 463.5,-202.5"/>
<text text-anchor="middle" x="526.5" y="-209.5" font-family="Helvetica,sans-Serif" font-size="10.00">pred_param_set_eta_min</text>
</a>
</g>
</g>
<!-- Node20&#45;&gt;Node22 -->
<g id="edge21" class="edge">
<title>Node20&#45;&gt;Node22</title>
<path fill="none" stroke="midnightblue" d="M418.53,-203.55C429.71,-204.43 441.56,-205.37 453.15,-206.28"/>
<polygon fill="midnightblue" stroke="midnightblue" points="452.99,-209.78 463.24,-207.08 453.54,-202.8 452.99,-209.78"/>
</g>
<!-- Node23 -->
<g id="node23" class="node">
<title>Node23</title>
<g id="a_node23"><a xlink:href="prediction_8c.html#ab9fb871ffa65568f7b2039d5c8e62512" target="_top" xlink:title=" ">
<polygon fill="none" stroke="black" points="457,-164.5 457,-183.5 596,-183.5 596,-164.5 457,-164.5"/>
<text text-anchor="middle" x="526.5" y="-171.5" font-family="Helvetica,sans-Serif" font-size="10.00">pred_param_set_evolve_eta</text>
</a>
</g>
</g>
<!-- Node20&#45;&gt;Node23 -->
<g id="edge22" class="edge">
<title>Node20&#45;&gt;Node23</title>
<path fill="none" stroke="midnightblue" d="M418.53,-190.26C429.64,-188.57 441.41,-186.78 452.93,-185.03"/>
<polygon fill="midnightblue" stroke="midnightblue" points="453.59,-188.47 462.95,-183.51 452.54,-181.55 453.59,-188.47"/>
</g>
<!-- Node24 -->
<g id="node24" class="node">
<title>Node24</title>
<g id="a_node24"><a xlink:href="prediction_8c.html#a618accb7ec3239f16fc794f9efa8f89c" target="_top" xlink:title=" ">
<polygon fill="none" stroke="black" points="475.5,-126.5 475.5,-145.5 577.5,-145.5 577.5,-126.5 475.5,-126.5"/>
<text text-anchor="middle" x="526.5" y="-133.5" font-family="Helvetica,sans-Serif" font-size="10.00">pred_param_set_x0</text>
</a>
</g>
</g>
<!-- Node20&#45;&gt;Node24 -->
<g id="edge23" class="edge">
<title>Node20&#45;&gt;Node24</title>
<path fill="none" stroke="midnightblue" d="M390.75,-183.87C409.45,-174.74 434.27,-163.3 457,-155 463.39,-152.67 470.2,-150.46 476.95,-148.43"/>
<polygon fill="midnightblue" stroke="midnightblue" points="478.13,-151.73 486.76,-145.59 476.18,-145.01 478.13,-151.73"/>
</g>
<!-- Node25&#45;&gt;Node24 -->
<g id="edge27" class="edge">
<title>Node25&#45;&gt;Node24</title>
<path fill="none" stroke="midnightblue" d="M413.5,-123.06C429.93,-124.96 448.19,-127.07 465.12,-129.03"/>
<polygon fill="midnightblue" stroke="midnightblue" points="465.12,-132.55 475.46,-130.22 465.93,-125.6 465.12,-132.55"/>
</g>
<!-- Node26 -->
<g id="node26" class="node">
<title>Node26</title>
<g id="a_node26"><a xlink:href="prediction_8c.html#a7b4efcc30beb6a0721140f10f67861da" target="_top" xlink:title=" ">
<polygon fill="none" stroke="black" points="465,-88.5 465,-107.5 588,-107.5 588,-88.5 465,-88.5"/>
<text text-anchor="middle" x="526.5" y="-95.5" font-family="Helvetica,sans-Serif" font-size="10.00">pred_param_set_lambda</text>
</a>
</g>
</g>
<!-- Node25&#45;&gt;Node26 -->
<g id="edge25" class="edge">
<title>Node25&#45;&gt;Node26</title>
<path fill="none" stroke="midnightblue" d="M413.5,-110.94C426.67,-109.42 441.01,-107.76 454.9,-106.15"/>
<polygon fill="midnightblue" stroke="midnightblue" points="455.37,-109.62 464.91,-105 454.57,-102.67 455.37,-109.62"/>
</g>
<!-- Node27 -->
<g id="node27" class="node">
<title>Node27</title>
<g id="a_node27"><a xlink:href="prediction_8c.html#acb71e8f11fe64ba35150417afa4c9441" target="_top" xlink:title=" ">
<polygon fill="none" stroke="black" points="469,-39 469,-69 584,-69 584,-39 469,-39"/>
<text text-anchor="start" x="477" y="-57" font-family="Helvetica,sans-Serif" font-size="10.00">pred_param_set_scale</text>
<text text-anchor="middle" x="526.5" y="-46" font-family="Helvetica,sans-Serif" font-size="10.00">_factor</text>
</a>
</g>
</g>
<!-- Node25&#45;&gt;Node27 -->
<g id="edge26" class="edge">
<title>Node25&#45;&gt;Node27</title>
<path fill="none" stroke="midnightblue" d="M398.29,-101.97C416.03,-94.89 437.57,-86.39 457,-79 462.53,-76.9 468.33,-74.73 474.11,-72.58"/>
<polygon fill="midnightblue" stroke="midnightblue" points="475.6,-75.77 483.78,-69.02 473.18,-69.2 475.6,-75.77"/>
</g>
<!-- Node29 -->
<g id="node29" class="node">
<title>Node29</title>
<g id="a_node29"><a xlink:href="prediction_8c.html#a7b02fcc0ce8541afd47d014eba280570" target="_top" xlink:title=" ">
<polygon fill="none" stroke="black" points="305,-15 305,-45 415,-45 415,-15 305,-15"/>
<text text-anchor="start" x="313" y="-33" font-family="Helvetica,sans-Serif" font-size="10.00">pred_param_set_type</text>
<text text-anchor="middle" x="360" y="-22" font-family="Helvetica,sans-Serif" font-size="10.00">_string</text>
</a>
</g>
</g>
<!-- Node28&#45;&gt;Node29 -->
<g id="edge29" class="edge">
<title>Node28&#45;&gt;Node29</title>
<path fill="none" stroke="midnightblue" d="M219.55,-108.41C244.31,-94.49 290.82,-68.34 323.29,-50.08"/>
<polygon fill="midnightblue" stroke="midnightblue" points="325.05,-53.11 332.05,-45.16 321.62,-47.01 325.05,-53.11"/>
</g>
<!-- Node30 -->
<g id="node30" class="node">
<title>Node30</title>
<g id="a_node30"><a xlink:href="prediction_8c.html#a5f5a019c886d5bdf8bf9a3876a5a95bd" target="_top" xlink:title="Returns the integer representation of a prediction type given a name.">
<polygon fill="none" stroke="black" points="469.5,-0.5 469.5,-19.5 583.5,-19.5 583.5,-0.5 469.5,-0.5"/>
<text text-anchor="middle" x="526.5" y="-7.5" font-family="Helvetica,sans-Serif" font-size="10.00">prediction_type_as_int</text>
</a>
</g>
</g>
<!-- Node29&#45;&gt;Node30 -->
<g id="edge30" class="edge">
<title>Node29&#45;&gt;Node30</title>
<path fill="none" stroke="midnightblue" d="M415.32,-23.4C429.39,-21.69 444.69,-19.82 459.29,-18.05"/>
<polygon fill="midnightblue" stroke="midnightblue" points="459.76,-21.52 469.27,-16.84 458.92,-14.57 459.76,-21.52"/>
</g>
</g>
</svg>
