<?xml version="1.0" encoding="UTF-8" standalone="no"?>
<!DOCTYPE svg PUBLIC "-//W3C//DTD SVG 1.1//EN"
 "http://www.w3.org/Graphics/SVG/1.1/DTD/svg11.dtd">
<!-- Generated by graphviz version 2.43.0 (0)
 -->
<!-- Title: XCS::load_input Pages: 1 -->
<svg width="352pt" height="85pt"
 viewBox="0.00 0.00 352.00 85.00" xmlns="http://www.w3.org/2000/svg" xmlns:xlink="http://www.w3.org/1999/xlink">
<g id="graph0" class="graph" transform="scale(1 1) rotate(0) translate(4 81)">
<title>XCS::load_input</title>
<!-- Node1 -->
<g id="node1" class="node">
<title>Node1</title>
<g id="a_node1"><a xlink:title="Loads an input data structure for fitting.">
<polygon fill="#bfbfbf" stroke="black" points="256,-38.5 256,-57.5 344,-57.5 344,-38.5 256,-38.5"/>
<text text-anchor="middle" x="300" y="-45.5" font-family="Helvetica,sans-Serif" font-size="10.00">XCS::load_input</text>
</a>
</g>
</g>
<!-- Node2 -->
<g id="node2" class="node">
<title>Node2</title>
<g id="a_node2"><a xlink:href="classXCS.html#a04a010f5046c529132d7a67202123295" target="_top" xlink:title="Executes MAX_TRIALS number of XCSF learning iterations using the provided training data.">
<polygon fill="none" stroke="black" points="0,-57.5 0,-76.5 52,-76.5 52,-57.5 0,-57.5"/>
<text text-anchor="middle" x="26" y="-64.5" font-family="Helvetica,sans-Serif" font-size="10.00">XCS::fit</text>
</a>
</g>
</g>
<!-- Node1&#45;&gt;Node2 -->
<g id="edge1" class="edge">
<title>Node1&#45;&gt;Node2</title>
<path fill="none" stroke="midnightblue" d="M257.31,-59.97C245.36,-62.87 232.26,-65.55 220,-67 160.11,-74.1 89.02,-71.22 52.09,-68.88"/>
<polygon fill="midnightblue" stroke="midnightblue" points="258.19,-63.36 267.02,-57.51 256.47,-56.57 258.19,-63.36"/>
</g>
<!-- Node3 -->
<g id="node3" class="node">
<title>Node3</title>
<g id="a_node3"><a xlink:href="classXCS.html#abccf7ccb52a4626d0f8bedccd62c0003" target="_top" xlink:title="Loads validation data if present in kwargs.">
<polygon fill="none" stroke="black" points="88,-38.5 88,-57.5 220,-57.5 220,-38.5 88,-38.5"/>
<text text-anchor="middle" x="154" y="-45.5" font-family="Helvetica,sans-Serif" font-size="10.00">XCS::load_validation_data</text>
</a>
</g>
</g>
<!-- Node1&#45;&gt;Node3 -->
<g id="edge2" class="edge">
<title>Node1&#45;&gt;Node3</title>
<path fill="none" stroke="midnightblue" d="M245.78,-48C237.39,-48 228.63,-48 220.01,-48"/>
<polygon fill="midnightblue" stroke="midnightblue" points="245.8,-51.5 255.8,-48 245.8,-44.5 245.8,-51.5"/>
</g>
<!-- Node4 -->
<g id="node4" class="node">
<title>Node4</title>
<g id="a_node4"><a xlink:href="classXCS.html#a2aeb9df5550b79ea97a725e83ef64005" target="_top" xlink:title="Returns the error using N random samples from the provided data.">
<polygon fill="none" stroke="black" points="120,-0.5 120,-19.5 188,-19.5 188,-0.5 120,-0.5"/>
<text text-anchor="middle" x="154" y="-7.5" font-family="Helvetica,sans-Serif" font-size="10.00">XCS::score</text>
</a>
</g>
</g>
<!-- Node1&#45;&gt;Node4 -->
<g id="edge4" class="edge">
<title>Node1&#45;&gt;Node4</title>
<path fill="none" stroke="midnightblue" d="M252.97,-35.85C231.97,-30.31 207.56,-23.87 188.36,-18.8"/>
<polygon fill="midnightblue" stroke="midnightblue" points="252.1,-39.24 262.66,-38.41 253.89,-32.48 252.1,-39.24"/>
</g>
<!-- Node3&#45;&gt;Node2 -->
<g id="edge3" class="edge">
<title>Node3&#45;&gt;Node2</title>
<path fill="none" stroke="midnightblue" d="M79.65,-59.06C69.75,-60.55 60.21,-61.99 52.02,-63.23"/>
<polygon fill="midnightblue" stroke="midnightblue" points="80.26,-62.51 89.63,-57.56 79.22,-55.59 80.26,-62.51"/>
</g>
</g>
</svg>
