<?xml version="1.0" encoding="UTF-8" standalone="no"?>
<!DOCTYPE svg PUBLIC "-//W3C//DTD SVG 1.1//EN"
 "http://www.w3.org/Graphics/SVG/1.1/DTD/svg11.dtd">
<!-- Generated by graphviz version 2.43.0 (0)
 -->
<!-- Title: XCS::get_pop_mean_cond_neurons Pages: 1 -->
<svg width="456pt" height="39pt"
 viewBox="0.00 0.00 456.00 39.00" xmlns="http://www.w3.org/2000/svg" xmlns:xlink="http://www.w3.org/1999/xlink">
<g id="graph0" class="graph" transform="scale(1 1) rotate(0) translate(4 35)">
<title>XCS::get_pop_mean_cond_neurons</title>
<!-- Node1 -->
<g id="node1" class="node">
<title>Node1</title>
<g id="a_node1"><a xlink:title=" ">
<polygon fill="#bfbfbf" stroke="black" points="0,-0.5 0,-30.5 134,-30.5 134,-0.5 0,-0.5"/>
<text text-anchor="start" x="8" y="-18.5" font-family="Helvetica,sans-Serif" font-size="10.00">XCS::get_pop_mean_cond</text>
<text text-anchor="middle" x="67" y="-7.5" font-family="Helvetica,sans-Serif" font-size="10.00">_neurons</text>
</a>
</g>
</g>
<!-- Node2 -->
<g id="node2" class="node">
<title>Node2</title>
<g id="a_node2"><a xlink:href="clset__neural_8c.html#a0870eeca9a51d6612bb4dc1d28537df1" target="_top" xlink:title="Calculates the mean number of condition neurons for a given layer.">
<polygon fill="none" stroke="black" points="170,-6 170,-25 303,-25 303,-6 170,-6"/>
<text text-anchor="middle" x="236.5" y="-13" font-family="Helvetica,sans-Serif" font-size="10.00">clset_mean_cond_neurons</text>
</a>
</g>
</g>
<!-- Node1&#45;&gt;Node2 -->
<g id="edge1" class="edge">
<title>Node1&#45;&gt;Node2</title>
<path fill="none" stroke="midnightblue" d="M134.2,-15.5C142.52,-15.5 151.09,-15.5 159.54,-15.5"/>
<polygon fill="midnightblue" stroke="midnightblue" points="159.78,-19 169.78,-15.5 159.78,-12 159.78,-19"/>
</g>
<!-- Node3 -->
<g id="node3" class="node">
<title>Node3</title>
<g id="a_node3"><a xlink:href="cond__neural_8c.html#a139c52a0af8f5535597d0cb6a6be1abe" target="_top" xlink:title=" ">
<polygon fill="none" stroke="black" points="339,-6 339,-25 448,-25 448,-6 339,-6"/>
<text text-anchor="middle" x="393.5" y="-13" font-family="Helvetica,sans-Serif" font-size="10.00">cond_neural_neurons</text>
</a>
</g>
</g>
<!-- Node2&#45;&gt;Node3 -->
<g id="edge2" class="edge">
<title>Node2&#45;&gt;Node3</title>
<path fill="none" stroke="midnightblue" d="M303.23,-15.5C311.68,-15.5 320.32,-15.5 328.73,-15.5"/>
<polygon fill="midnightblue" stroke="midnightblue" points="328.86,-19 338.86,-15.5 328.86,-12 328.86,-19"/>
</g>
</g>
</svg>
