<?xml version="1.0" encoding="UTF-8" standalone="no"?>
<!DOCTYPE svg PUBLIC "-//W3C//DTD SVG 1.1//EN"
 "http://www.w3.org/Graphics/SVG/1.1/DTD/svg11.dtd">
<!-- Generated by graphviz version 2.43.0 (0)
 -->
<!-- Title: XCS::print_params Pages: 1 -->
<svg width="979pt" height="693pt"
 viewBox="0.00 0.00 979.00 693.00" xmlns="http://www.w3.org/2000/svg" xmlns:xlink="http://www.w3.org/1999/xlink">
<g id="graph0" class="graph" transform="scale(1 1) rotate(0) translate(4 689)">
<title>XCS::print_params</title>
<!-- Node1 -->
<g id="node1" class="node">
<title>Node1</title>
<g id="a_node1"><a xlink:title="Prints the XCSF parameters and their current values.">
<polygon fill="#bfbfbf" stroke="black" points="0,-133.5 0,-152.5 100,-152.5 100,-133.5 0,-133.5"/>
<text text-anchor="middle" x="50" y="-140.5" font-family="Helvetica,sans-Serif" font-size="10.00">XCS::print_params</text>
</a>
</g>
</g>
<!-- Node2 -->
<g id="node2" class="node">
<title>Node2</title>
<g id="a_node2"><a xlink:href="param_8c.html#a1e92bde5285ed6ded96ba4af5fd27bd2" target="_top" xlink:title="Prints all XCSF parameters.">
<polygon fill="none" stroke="black" points="136,-133.5 136,-152.5 204,-152.5 204,-133.5 136,-133.5"/>
<text text-anchor="middle" x="170" y="-140.5" font-family="Helvetica,sans-Serif" font-size="10.00">param_print</text>
</a>
</g>
</g>
<!-- Node1&#45;&gt;Node2 -->
<g id="edge1" class="edge">
<title>Node1&#45;&gt;Node2</title>
<path fill="none" stroke="midnightblue" d="M100.02,-143C108.48,-143 117.22,-143 125.52,-143"/>
<polygon fill="midnightblue" stroke="midnightblue" points="125.74,-146.5 135.74,-143 125.74,-139.5 125.74,-146.5"/>
</g>
<!-- Node3 -->
<g id="node3" class="node">
<title>Node3</title>
<g id="a_node3"><a xlink:href="action_8c.html#a1e6bb9a3116b23d3bb6b676607501923" target="_top" xlink:title="Prints action parameters.">
<polygon fill="none" stroke="black" points="254.5,-437.5 254.5,-456.5 353.5,-456.5 353.5,-437.5 254.5,-437.5"/>
<text text-anchor="middle" x="304" y="-444.5" font-family="Helvetica,sans-Serif" font-size="10.00">action_param_print</text>
</a>
</g>
</g>
<!-- Node2&#45;&gt;Node3 -->
<g id="edge2" class="edge">
<title>Node2&#45;&gt;Node3</title>
<path fill="none" stroke="midnightblue" d="M173.18,-152.51C180.29,-182.72 204.44,-278.79 240,-352 253.9,-380.61 275.17,-410.73 289.09,-429.2"/>
<polygon fill="midnightblue" stroke="midnightblue" points="286.41,-431.46 295.26,-437.27 291.96,-427.2 286.41,-431.46"/>
</g>
<!-- Node23 -->
<g id="node23" class="node">
<title>Node23</title>
<g id="a_node23"><a xlink:href="condition_8c.html#adc81d1c6371eb0ef613ba3df5f2b1fb4" target="_top" xlink:title="Prints condition parameters.">
<polygon fill="none" stroke="black" points="257,-323.5 257,-342.5 351,-342.5 351,-323.5 257,-323.5"/>
<text text-anchor="middle" x="304" y="-330.5" font-family="Helvetica,sans-Serif" font-size="10.00">cond_param_print</text>
</a>
</g>
</g>
<!-- Node2&#45;&gt;Node23 -->
<g id="edge23" class="edge">
<title>Node2&#45;&gt;Node23</title>
<path fill="none" stroke="midnightblue" d="M177.73,-152.68C198.64,-182.79 262.76,-275.08 290.26,-314.66"/>
<polygon fill="midnightblue" stroke="midnightblue" points="287.55,-316.89 296.13,-323.11 293.3,-312.9 287.55,-316.89"/>
</g>
<!-- Node31 -->
<g id="node31" class="node">
<title>Node31</title>
<g id="a_node31"><a xlink:href="ea_8c.html#aea6039b7f2371ccd97dfc0e43d97609b" target="_top" xlink:title="Prints evolutionary algorithm parameters.">
<polygon fill="none" stroke="black" points="262.5,-152.5 262.5,-171.5 345.5,-171.5 345.5,-152.5 262.5,-152.5"/>
<text text-anchor="middle" x="304" y="-159.5" font-family="Helvetica,sans-Serif" font-size="10.00">ea_param_print</text>
</a>
</g>
</g>
<!-- Node2&#45;&gt;Node31 -->
<g id="edge32" class="edge">
<title>Node2&#45;&gt;Node31</title>
<path fill="none" stroke="midnightblue" d="M204.31,-147.79C218.72,-149.87 235.91,-152.34 251.88,-154.64"/>
<polygon fill="midnightblue" stroke="midnightblue" points="251.75,-158.16 262.15,-156.12 252.75,-151.23 251.75,-158.16"/>
</g>
<!-- Node33 -->
<g id="node33" class="node">
<title>Node33</title>
<g id="a_node33"><a xlink:href="param_8c.html#aef06f6d66df8f476741cc59dcf9d6df4" target="_top" xlink:title="Prints XCSF general classifier parameters.">
<polygon fill="none" stroke="black" points="245.5,-114.5 245.5,-133.5 362.5,-133.5 362.5,-114.5 245.5,-114.5"/>
<text text-anchor="middle" x="304" y="-121.5" font-family="Helvetica,sans-Serif" font-size="10.00">param_print_cl_general</text>
</a>
</g>
</g>
<!-- Node2&#45;&gt;Node33 -->
<g id="edge34" class="edge">
<title>Node2&#45;&gt;Node33</title>
<path fill="none" stroke="midnightblue" d="M204.31,-138.21C213.84,-136.83 224.59,-135.29 235.39,-133.73"/>
<polygon fill="midnightblue" stroke="midnightblue" points="235.9,-137.19 245.3,-132.31 234.9,-130.27 235.9,-137.19"/>
</g>
<!-- Node34 -->
<g id="node34" class="node">
<title>Node34</title>
<g id="a_node34"><a xlink:href="param_8c.html#ab96d6372dcf880becf434214f899cd8c" target="_top" xlink:title="Prints XCSF general parameters.">
<polygon fill="none" stroke="black" points="252,-76.5 252,-95.5 356,-95.5 356,-76.5 252,-76.5"/>
<text text-anchor="middle" x="304" y="-83.5" font-family="Helvetica,sans-Serif" font-size="10.00">param_print_general</text>
</a>
</g>
</g>
<!-- Node2&#45;&gt;Node34 -->
<g id="edge35" class="edge">
<title>Node2&#45;&gt;Node34</title>
<path fill="none" stroke="midnightblue" d="M186.15,-133.44C199.83,-125.1 220.71,-113.11 240,-105 245.4,-102.73 251.16,-100.61 256.92,-98.66"/>
<polygon fill="midnightblue" stroke="midnightblue" points="258.11,-101.96 266.56,-95.57 255.97,-95.29 258.11,-101.96"/>
</g>
<!-- Node36 -->
<g id="node36" class="node">
<title>Node36</title>
<g id="a_node36"><a xlink:href="param_8c.html#a7343044b05554a193686262c8921dc0c" target="_top" xlink:title="Prints XCSF multistep parameters.">
<polygon fill="none" stroke="black" points="247.5,-38.5 247.5,-57.5 360.5,-57.5 360.5,-38.5 247.5,-38.5"/>
<text text-anchor="middle" x="304" y="-45.5" font-family="Helvetica,sans-Serif" font-size="10.00">param_print_multistep</text>
</a>
</g>
</g>
<!-- Node2&#45;&gt;Node36 -->
<g id="edge37" class="edge">
<title>Node2&#45;&gt;Node36</title>
<path fill="none" stroke="midnightblue" d="M177.19,-133.29C187.99,-117.14 211.82,-84.79 240,-67 243.33,-64.9 246.9,-63.02 250.59,-61.34"/>
<polygon fill="midnightblue" stroke="midnightblue" points="251.98,-64.55 259.94,-57.56 249.36,-58.06 251.98,-64.55"/>
</g>
<!-- Node37 -->
<g id="node37" class="node">
<title>Node37</title>
<g id="a_node37"><a xlink:href="param_8c.html#a7c848a8875211a0a5dd7bcd3a1c39724" target="_top" xlink:title="Prints XCSF subsumption parameters.">
<polygon fill="none" stroke="black" points="240,-0.5 240,-19.5 368,-19.5 368,-0.5 240,-0.5"/>
<text text-anchor="middle" x="304" y="-7.5" font-family="Helvetica,sans-Serif" font-size="10.00">param_print_subsumption</text>
</a>
</g>
</g>
<!-- Node2&#45;&gt;Node37 -->
<g id="edge38" class="edge">
<title>Node2&#45;&gt;Node37</title>
<path fill="none" stroke="midnightblue" d="M174.1,-133.42C181.68,-111.52 203.26,-57.5 240,-29 242.33,-27.19 244.82,-25.56 247.43,-24.08"/>
<polygon fill="midnightblue" stroke="midnightblue" points="249.18,-27.13 256.66,-19.62 246.13,-20.82 249.18,-27.13"/>
</g>
<!-- Node38 -->
<g id="node38" class="node">
<title>Node38</title>
<g id="a_node38"><a xlink:href="prediction_8c.html#a8358abee65ddd688514040ef8851d9f2" target="_top" xlink:title="Prints prediction parameters.">
<polygon fill="none" stroke="black" points="258,-190.5 258,-209.5 350,-209.5 350,-190.5 258,-190.5"/>
<text text-anchor="middle" x="304" y="-197.5" font-family="Helvetica,sans-Serif" font-size="10.00">pred_param_print</text>
</a>
</g>
</g>
<!-- Node2&#45;&gt;Node38 -->
<g id="edge39" class="edge">
<title>Node2&#45;&gt;Node38</title>
<path fill="none" stroke="midnightblue" d="M186.15,-152.56C199.83,-160.9 220.71,-172.89 240,-181 245.4,-183.27 251.16,-185.39 256.92,-187.34"/>
<polygon fill="midnightblue" stroke="midnightblue" points="255.97,-190.71 266.56,-190.43 258.11,-184.04 255.97,-190.71"/>
</g>
<!-- Node4 -->
<g id="node4" class="node">
<title>Node4</title>
<g id="a_node4"><a xlink:href="action_8c.html#a92f612de02989e82ef6c52bc7384f24f" target="_top" xlink:title="Returns a string representation of an action type from an integer.">
<polygon fill="none" stroke="black" points="412.5,-475.5 412.5,-494.5 524.5,-494.5 524.5,-475.5 412.5,-475.5"/>
<text text-anchor="middle" x="468.5" y="-482.5" font-family="Helvetica,sans-Serif" font-size="10.00">action_type_as_string</text>
</a>
</g>
</g>
<!-- Node3&#45;&gt;Node4 -->
<g id="edge3" class="edge">
<title>Node3&#45;&gt;Node4</title>
<path fill="none" stroke="midnightblue" d="M346.01,-456.59C367.55,-461.63 394.13,-467.84 416.94,-473.18"/>
<polygon fill="midnightblue" stroke="midnightblue" points="416.25,-476.61 426.79,-475.48 417.85,-469.79 416.25,-476.61"/>
</g>
<!-- Node5 -->
<g id="node5" class="node">
<title>Node5</title>
<g id="a_node5"><a xlink:href="neural__layer__args_8c.html#a8d6f5c91f58e29ae70807de0d0b25d0e" target="_top" xlink:title="Prints layer parameters.">
<polygon fill="none" stroke="black" points="425.5,-437.5 425.5,-456.5 511.5,-456.5 511.5,-437.5 425.5,-437.5"/>
<text text-anchor="middle" x="468.5" y="-444.5" font-family="Helvetica,sans-Serif" font-size="10.00">layer_args_print</text>
</a>
</g>
</g>
<!-- Node3&#45;&gt;Node5 -->
<g id="edge4" class="edge">
<title>Node3&#45;&gt;Node5</title>
<path fill="none" stroke="midnightblue" d="M353.76,-447C373.18,-447 395.57,-447 415.32,-447"/>
<polygon fill="midnightblue" stroke="midnightblue" points="415.38,-450.5 425.38,-447 415.38,-443.5 415.38,-450.5"/>
</g>
<!-- Node6 -->
<g id="node6" class="node">
<title>Node6</title>
<g id="a_node6"><a xlink:href="neural__layer__args_8c.html#a56dcbd4bdf90e80ef81c676df60ff8b3" target="_top" xlink:title="Prints layer activation function parameters.">
<polygon fill="none" stroke="black" points="569,-475.5 569,-494.5 702,-494.5 702,-475.5 569,-475.5"/>
<text text-anchor="middle" x="635.5" y="-482.5" font-family="Helvetica,sans-Serif" font-size="10.00">layer_args_print_activation</text>
</a>
</g>
</g>
<!-- Node5&#45;&gt;Node6 -->
<g id="edge5" class="edge">
<title>Node5&#45;&gt;Node6</title>
<path fill="none" stroke="midnightblue" d="M511.14,-456.59C533.01,-461.63 560.01,-467.84 583.16,-473.18"/>
<polygon fill="midnightblue" stroke="midnightblue" points="582.63,-476.65 593.16,-475.48 584.2,-469.82 582.63,-476.65"/>
</g>
<!-- Node8 -->
<g id="node8" class="node">
<title>Node8</title>
<g id="a_node8"><a xlink:href="neural__layer__args_8c.html#ac617200b2ee8792381b8297d45fee174" target="_top" xlink:title="Prints layer evolutionary operator parameters.">
<polygon fill="none" stroke="black" points="582,-437.5 582,-456.5 689,-456.5 689,-437.5 582,-437.5"/>
<text text-anchor="middle" x="635.5" y="-444.5" font-family="Helvetica,sans-Serif" font-size="10.00">layer_args_print_evo</text>
</a>
</g>
</g>
<!-- Node5&#45;&gt;Node8 -->
<g id="edge7" class="edge">
<title>Node5&#45;&gt;Node8</title>
<path fill="none" stroke="midnightblue" d="M511.56,-447C529.86,-447 551.68,-447 571.83,-447"/>
<polygon fill="midnightblue" stroke="midnightblue" points="571.87,-450.5 581.87,-447 571.87,-443.5 571.87,-450.5"/>
</g>
<!-- Node9 -->
<g id="node9" class="node">
<title>Node9</title>
<g id="a_node9"><a xlink:href="neural__layer__args_8c.html#acead84ca91e1c410f24bc8b60517415b" target="_top" xlink:title="Prints layer input parameters.">
<polygon fill="none" stroke="black" points="577,-399.5 577,-418.5 694,-418.5 694,-399.5 577,-399.5"/>
<text text-anchor="middle" x="635.5" y="-406.5" font-family="Helvetica,sans-Serif" font-size="10.00">layer_args_print_inputs</text>
</a>
</g>
</g>
<!-- Node5&#45;&gt;Node9 -->
<g id="edge8" class="edge">
<title>Node5&#45;&gt;Node9</title>
<path fill="none" stroke="midnightblue" d="M511.14,-437.41C533.01,-432.37 560.01,-426.16 583.16,-420.82"/>
<polygon fill="midnightblue" stroke="midnightblue" points="584.2,-424.18 593.16,-418.52 582.63,-417.35 584.2,-424.18"/>
</g>
<!-- Node11 -->
<g id="node11" class="node">
<title>Node11</title>
<g id="a_node11"><a xlink:href="neural__layer__args_8c.html#a78d120a156a1991d06ee0297f0beb0c7" target="_top" xlink:title="Prints layer.">
<polygon fill="none" stroke="black" points="578.5,-361.5 578.5,-380.5 692.5,-380.5 692.5,-361.5 578.5,-361.5"/>
<text text-anchor="middle" x="635.5" y="-368.5" font-family="Helvetica,sans-Serif" font-size="10.00">layer_args_print_scale</text>
</a>
</g>
</g>
<!-- Node5&#45;&gt;Node11 -->
<g id="edge10" class="edge">
<title>Node5&#45;&gt;Node11</title>
<path fill="none" stroke="midnightblue" d="M511.82,-437.71C519.18,-435.17 526.53,-431.98 533,-428 552.81,-415.81 549.13,-402.11 569,-390 572.43,-387.91 576.1,-386.04 579.88,-384.37"/>
<polygon fill="midnightblue" stroke="midnightblue" points="581.43,-387.52 589.46,-380.61 578.88,-381.01 581.43,-387.52"/>
</g>
<!-- Node12 -->
<g id="node12" class="node">
<title>Node12</title>
<g id="a_node12"><a xlink:href="neural__layer__args_8c.html#add3ff102fe13b879aa177e001e65a86c" target="_top" xlink:title="Prints layer gradient descent parameters.">
<polygon fill="none" stroke="black" points="582,-323.5 582,-342.5 689,-342.5 689,-323.5 582,-323.5"/>
<text text-anchor="middle" x="635.5" y="-330.5" font-family="Helvetica,sans-Serif" font-size="10.00">layer_args_print_sgd</text>
</a>
</g>
</g>
<!-- Node5&#45;&gt;Node12 -->
<g id="edge11" class="edge">
<title>Node5&#45;&gt;Node12</title>
<path fill="none" stroke="midnightblue" d="M511.68,-439.8C519.37,-437.05 526.89,-433.25 533,-428 561.35,-403.65 540.54,-376.23 569,-352 571.01,-350.29 573.17,-348.73 575.43,-347.31"/>
<polygon fill="midnightblue" stroke="midnightblue" points="577.37,-350.25 584.61,-342.51 574.12,-344.05 577.37,-350.25"/>
</g>
<!-- Node13 -->
<g id="node13" class="node">
<title>Node13</title>
<g id="a_node13"><a xlink:href="neural__layer_8c.html#a0e2222a263f09abb981bc7273cd88d7e" target="_top" xlink:title="Returns a string representation of a layer type from an integer.">
<polygon fill="none" stroke="black" points="582,-627.5 582,-646.5 689,-646.5 689,-627.5 582,-627.5"/>
<text text-anchor="middle" x="635.5" y="-634.5" font-family="Helvetica,sans-Serif" font-size="10.00">layer_type_as_string</text>
</a>
</g>
</g>
<!-- Node5&#45;&gt;Node13 -->
<g id="edge12" class="edge">
<title>Node5&#45;&gt;Node13</title>
<path fill="none" stroke="midnightblue" d="M511.62,-452.88C519.59,-455.72 527.24,-459.89 533,-466 580.64,-516.5 521.15,-567.7 569,-618 570.38,-619.45 571.86,-620.79 573.42,-622.03"/>
<polygon fill="midnightblue" stroke="midnightblue" points="571.54,-624.98 581.85,-627.42 575.31,-619.08 571.54,-624.98"/>
</g>
<!-- Node14 -->
<g id="node14" class="node">
<title>Node14</title>
<g id="a_node14"><a xlink:href="neural_8c.html#a6466387dd7c533e0f15da4c2127bfd79" target="_top" xlink:title="Initialises and creates a new neural network from a parameter list.">
<polygon fill="none" stroke="black" points="598,-589.5 598,-608.5 673,-608.5 673,-589.5 598,-589.5"/>
<text text-anchor="middle" x="635.5" y="-596.5" font-family="Helvetica,sans-Serif" font-size="10.00">neural_create</text>
</a>
</g>
</g>
<!-- Node5&#45;&gt;Node14 -->
<g id="edge13" class="edge">
<title>Node5&#45;&gt;Node14</title>
<path fill="none" stroke="midnightblue" d="M511.55,-453.39C519.44,-456.2 527.06,-460.22 533,-466 569.58,-501.56 533.51,-538.35 569,-575 574.33,-580.5 581.02,-584.75 588.08,-588.03"/>
<polygon fill="midnightblue" stroke="midnightblue" points="587.26,-591.47 597.84,-591.93 589.85,-584.97 587.26,-591.47"/>
</g>
<!-- Node18 -->
<g id="node18" class="node">
<title>Node18</title>
<g id="a_node18"><a xlink:href="neural_8c.html#ad70aee7c40f698d4be45e3d419051c2f" target="_top" xlink:title="Initialises an empty neural network.">
<polygon fill="none" stroke="black" points="767,-551.5 767,-570.5 828,-570.5 828,-551.5 767,-551.5"/>
<text text-anchor="middle" x="797.5" y="-558.5" font-family="Helvetica,sans-Serif" font-size="10.00">neural_init</text>
</a>
</g>
</g>
<!-- Node5&#45;&gt;Node18 -->
<g id="edge22" class="edge">
<title>Node5&#45;&gt;Node18</title>
<path fill="none" stroke="midnightblue" d="M511.68,-454.2C519.37,-456.95 526.89,-460.75 533,-466 561.35,-490.35 538.28,-520.72 569,-542 624.85,-580.69 707.91,-576.09 756.7,-568.82"/>
<polygon fill="midnightblue" stroke="midnightblue" points="757.54,-572.23 766.86,-567.19 756.43,-565.32 757.54,-572.23"/>
</g>
<!-- Node21 -->
<g id="node21" class="node">
<title>Node21</title>
<g id="a_node21"><a xlink:href="neural_8c.html#a9c3e1da0425d0fc17daa12c21e4799ca" target="_top" xlink:title="Frees a neural network.">
<polygon fill="none" stroke="black" points="603,-513.5 603,-532.5 668,-532.5 668,-513.5 603,-513.5"/>
<text text-anchor="middle" x="635.5" y="-520.5" font-family="Helvetica,sans-Serif" font-size="10.00">neural_free</text>
</a>
</g>
</g>
<!-- Node5&#45;&gt;Node21 -->
<g id="edge20" class="edge">
<title>Node5&#45;&gt;Node21</title>
<path fill="none" stroke="midnightblue" d="M511.82,-456.29C519.18,-458.83 526.53,-462.02 533,-466 552.81,-478.19 549.13,-491.89 569,-504 576.34,-508.47 584.78,-511.94 593.12,-514.61"/>
<polygon fill="midnightblue" stroke="midnightblue" points="592.19,-517.98 602.77,-517.38 594.13,-511.25 592.19,-517.98"/>
</g>
<!-- Node7 -->
<g id="node7" class="node">
<title>Node7</title>
<g id="a_node7"><a xlink:href="neural__activations_8c.html#a429f5b4427682cb174e3d4d56f181a22" target="_top" xlink:title="Returns the name of a specified activation function.">
<polygon fill="none" stroke="black" points="738,-475.5 738,-494.5 857,-494.5 857,-475.5 738,-475.5"/>
<text text-anchor="middle" x="797.5" y="-482.5" font-family="Helvetica,sans-Serif" font-size="10.00">neural_activation_string</text>
</a>
</g>
</g>
<!-- Node6&#45;&gt;Node7 -->
<g id="edge6" class="edge">
<title>Node6&#45;&gt;Node7</title>
<path fill="none" stroke="midnightblue" d="M702.04,-485C710.51,-485 719.2,-485 727.71,-485"/>
<polygon fill="midnightblue" stroke="midnightblue" points="727.99,-488.5 737.99,-485 727.99,-481.5 727.99,-488.5"/>
</g>
<!-- Node10 -->
<g id="node10" class="node">
<title>Node10</title>
<g id="a_node10"><a xlink:href="neural__layer_8c.html#ad1b7188119d0d96791ee0d87c105896a" target="_top" xlink:title="Returns a whether a layer type expects images as input.">
<polygon fill="none" stroke="black" points="739.5,-399.5 739.5,-418.5 855.5,-418.5 855.5,-399.5 739.5,-399.5"/>
<text text-anchor="middle" x="797.5" y="-406.5" font-family="Helvetica,sans-Serif" font-size="10.00">layer_receives_images</text>
</a>
</g>
</g>
<!-- Node9&#45;&gt;Node10 -->
<g id="edge9" class="edge">
<title>Node9&#45;&gt;Node10</title>
<path fill="none" stroke="midnightblue" d="M694.26,-409C705.62,-409 717.62,-409 729.25,-409"/>
<polygon fill="midnightblue" stroke="midnightblue" points="729.36,-412.5 739.36,-409 729.36,-405.5 729.36,-412.5"/>
</g>
<!-- Node15 -->
<g id="node15" class="node">
<title>Node15</title>
<g id="a_node15"><a xlink:href="neural__layer_8h.html#a33f40237cec8d79bf6325b78d1f955fe" target="_top" xlink:title="Creates and initialises a new layer.">
<polygon fill="none" stroke="black" points="769.5,-627.5 769.5,-646.5 825.5,-646.5 825.5,-627.5 769.5,-627.5"/>
<text text-anchor="middle" x="797.5" y="-634.5" font-family="Helvetica,sans-Serif" font-size="10.00">layer_init</text>
</a>
</g>
</g>
<!-- Node14&#45;&gt;Node15 -->
<g id="edge14" class="edge">
<title>Node14&#45;&gt;Node15</title>
<path fill="none" stroke="midnightblue" d="M673.21,-607.72C699.11,-613.87 733.67,-622.08 759.61,-628.24"/>
<polygon fill="midnightblue" stroke="midnightblue" points="758.91,-631.67 769.45,-630.57 760.53,-624.86 758.91,-631.67"/>
</g>
<!-- Node14&#45;&gt;Node18 -->
<g id="edge17" class="edge">
<title>Node14&#45;&gt;Node18</title>
<path fill="none" stroke="midnightblue" d="M673.21,-590.28C698.29,-584.32 731.51,-576.44 757.14,-570.35"/>
<polygon fill="midnightblue" stroke="midnightblue" points="757.99,-573.74 766.91,-568.03 756.37,-566.93 757.99,-573.74"/>
</g>
<!-- Node19 -->
<g id="node19" class="node">
<title>Node19</title>
<g id="a_node19"><a xlink:href="neural_8c.html#a1c1c06446fc719b8293aade2ded8433c" target="_top" xlink:title="Inserts a layer at the head of a neural network.">
<polygon fill="none" stroke="black" points="763,-589.5 763,-608.5 832,-608.5 832,-589.5 763,-589.5"/>
<text text-anchor="middle" x="797.5" y="-596.5" font-family="Helvetica,sans-Serif" font-size="10.00">neural_push</text>
</a>
</g>
</g>
<!-- Node14&#45;&gt;Node19 -->
<g id="edge18" class="edge">
<title>Node14&#45;&gt;Node19</title>
<path fill="none" stroke="midnightblue" d="M673.21,-599C696.86,-599 727.74,-599 752.68,-599"/>
<polygon fill="midnightblue" stroke="midnightblue" points="752.96,-602.5 762.96,-599 752.96,-595.5 752.96,-602.5"/>
</g>
<!-- Node16 -->
<g id="node16" class="node">
<title>Node16</title>
<g id="a_node16"><a xlink:href="neural__layer_8h.html#a21a8acbaa483c46984c4f5f20d4edf95" target="_top" xlink:title="Initialises a layer to default values.">
<polygon fill="none" stroke="black" points="893.5,-665.5 893.5,-684.5 970.5,-684.5 970.5,-665.5 893.5,-665.5"/>
<text text-anchor="middle" x="932" y="-672.5" font-family="Helvetica,sans-Serif" font-size="10.00">layer_defaults</text>
</a>
</g>
</g>
<!-- Node15&#45;&gt;Node16 -->
<g id="edge15" class="edge">
<title>Node15&#45;&gt;Node16</title>
<path fill="none" stroke="midnightblue" d="M825.63,-644.78C843.59,-649.93 867.52,-656.8 888.04,-662.68"/>
<polygon fill="midnightblue" stroke="midnightblue" points="887.22,-666.09 897.8,-665.48 889.15,-659.36 887.22,-666.09"/>
</g>
<!-- Node17 -->
<g id="node17" class="node">
<title>Node17</title>
<g id="a_node17"><a xlink:href="neural__layer_8h.html#a786726dce503a14b3bdd88b1ab5c356f" target="_top" xlink:title="Sets a neural network layer&#39;s functions to the implementations.">
<polygon fill="none" stroke="black" points="893,-627.5 893,-646.5 971,-646.5 971,-627.5 893,-627.5"/>
<text text-anchor="middle" x="932" y="-634.5" font-family="Helvetica,sans-Serif" font-size="10.00">layer_set_vptr</text>
</a>
</g>
</g>
<!-- Node15&#45;&gt;Node17 -->
<g id="edge16" class="edge">
<title>Node15&#45;&gt;Node17</title>
<path fill="none" stroke="midnightblue" d="M825.63,-637C842.06,-637 863.49,-637 882.73,-637"/>
<polygon fill="midnightblue" stroke="midnightblue" points="882.85,-640.5 892.85,-637 882.85,-633.5 882.85,-640.5"/>
</g>
<!-- Node20 -->
<g id="node20" class="node">
<title>Node20</title>
<g id="a_node20"><a xlink:href="neural_8c.html#afab574137fbf9da9a286d020917c8295" target="_top" xlink:title="Inserts a layer into a neural network.">
<polygon fill="none" stroke="black" points="896,-589.5 896,-608.5 968,-608.5 968,-589.5 896,-589.5"/>
<text text-anchor="middle" x="932" y="-596.5" font-family="Helvetica,sans-Serif" font-size="10.00">neural_insert</text>
</a>
</g>
</g>
<!-- Node19&#45;&gt;Node20 -->
<g id="edge19" class="edge">
<title>Node19&#45;&gt;Node20</title>
<path fill="none" stroke="midnightblue" d="M832.28,-599C848.56,-599 868.31,-599 885.86,-599"/>
<polygon fill="midnightblue" stroke="midnightblue" points="885.9,-602.5 895.9,-599 885.9,-595.5 885.9,-602.5"/>
</g>
<!-- Node22 -->
<g id="node22" class="node">
<title>Node22</title>
<g id="a_node22"><a xlink:href="neural__layer_8h.html#a5ea2541eb1936ed851001c4a8b99b08f" target="_top" xlink:title="Frees the memory used by the layer.">
<polygon fill="none" stroke="black" points="768,-513.5 768,-532.5 827,-532.5 827,-513.5 768,-513.5"/>
<text text-anchor="middle" x="797.5" y="-520.5" font-family="Helvetica,sans-Serif" font-size="10.00">layer_free</text>
</a>
</g>
</g>
<!-- Node21&#45;&gt;Node22 -->
<g id="edge21" class="edge">
<title>Node21&#45;&gt;Node22</title>
<path fill="none" stroke="midnightblue" d="M668.11,-523C693.87,-523 730.36,-523 757.85,-523"/>
<polygon fill="midnightblue" stroke="midnightblue" points="757.91,-526.5 767.91,-523 757.91,-519.5 757.91,-526.5"/>
</g>
<!-- Node23&#45;&gt;Node5 -->
<g id="edge31" class="edge">
<title>Node23&#45;&gt;Node5</title>
<path fill="none" stroke="midnightblue" d="M312.35,-342.63C327.43,-361.73 363.87,-404.61 404,-428 407.69,-430.15 411.65,-432.08 415.71,-433.8"/>
<polygon fill="midnightblue" stroke="midnightblue" points="414.74,-437.17 425.33,-437.46 417.23,-430.63 414.74,-437.17"/>
</g>
<!-- Node24 -->
<g id="node24" class="node">
<title>Node24</title>
<g id="a_node24"><a xlink:href="condition_8c.html#aea377b513c7f68361082e1fcedd2a07f" target="_top" xlink:title="Prints center&#45;spread representation condition parameters.">
<polygon fill="none" stroke="black" points="412,-399.5 412,-418.5 525,-418.5 525,-399.5 412,-399.5"/>
<text text-anchor="middle" x="468.5" y="-406.5" font-family="Helvetica,sans-Serif" font-size="10.00">cond_param_print_csr</text>
</a>
</g>
</g>
<!-- Node23&#45;&gt;Node24 -->
<g id="edge24" class="edge">
<title>Node23&#45;&gt;Node24</title>
<path fill="none" stroke="midnightblue" d="M319.21,-342.6C337.96,-354.92 372.3,-376.35 404,-390 409.35,-392.3 415.06,-394.44 420.79,-396.38"/>
<polygon fill="midnightblue" stroke="midnightblue" points="419.79,-399.74 430.38,-399.47 421.94,-393.07 419.79,-399.74"/>
</g>
<!-- Node25 -->
<g id="node25" class="node">
<title>Node25</title>
<g id="a_node25"><a xlink:href="condition_8c.html#a6e026ed762c0d77fa9ba14999f37200c" target="_top" xlink:title="Prints DGP graph condition parameters.">
<polygon fill="none" stroke="black" points="411,-361.5 411,-380.5 526,-380.5 526,-361.5 411,-361.5"/>
<text text-anchor="middle" x="468.5" y="-368.5" font-family="Helvetica,sans-Serif" font-size="10.00">cond_param_print_dgp</text>
</a>
</g>
</g>
<!-- Node23&#45;&gt;Node25 -->
<g id="edge25" class="edge">
<title>Node23&#45;&gt;Node25</title>
<path fill="none" stroke="midnightblue" d="M346.01,-342.59C367.55,-347.63 394.13,-353.84 416.94,-359.18"/>
<polygon fill="midnightblue" stroke="midnightblue" points="416.25,-362.61 426.79,-361.48 417.85,-355.79 416.25,-362.61"/>
</g>
<!-- Node27 -->
<g id="node27" class="node">
<title>Node27</title>
<g id="a_node27"><a xlink:href="condition_8c.html#af803f36b261ce6a5bac8ccbf35d95d0b" target="_top" xlink:title="Prints Tree GP condition parameters.">
<polygon fill="none" stroke="black" points="413.5,-323.5 413.5,-342.5 523.5,-342.5 523.5,-323.5 413.5,-323.5"/>
<text text-anchor="middle" x="468.5" y="-330.5" font-family="Helvetica,sans-Serif" font-size="10.00">cond_param_print_gp</text>
</a>
</g>
</g>
<!-- Node23&#45;&gt;Node27 -->
<g id="edge27" class="edge">
<title>Node23&#45;&gt;Node27</title>
<path fill="none" stroke="midnightblue" d="M351.13,-333C367.37,-333 385.92,-333 403.37,-333"/>
<polygon fill="midnightblue" stroke="midnightblue" points="403.49,-336.5 413.49,-333 403.49,-329.5 403.49,-336.5"/>
</g>
<!-- Node29 -->
<g id="node29" class="node">
<title>Node29</title>
<g id="a_node29"><a xlink:href="condition_8c.html#a4014fbd185aa14dace6d42b3c6986285" target="_top" xlink:title="Prints ternary condition parameters.">
<polygon fill="none" stroke="black" points="404,-285.5 404,-304.5 533,-304.5 533,-285.5 404,-285.5"/>
<text text-anchor="middle" x="468.5" y="-292.5" font-family="Helvetica,sans-Serif" font-size="10.00">cond_param_print_ternary</text>
</a>
</g>
</g>
<!-- Node23&#45;&gt;Node29 -->
<g id="edge29" class="edge">
<title>Node23&#45;&gt;Node29</title>
<path fill="none" stroke="midnightblue" d="M346.01,-323.41C367.55,-318.37 394.13,-312.16 416.94,-306.82"/>
<polygon fill="midnightblue" stroke="midnightblue" points="417.85,-310.21 426.79,-304.52 416.25,-303.39 417.85,-310.21"/>
</g>
<!-- Node30 -->
<g id="node30" class="node">
<title>Node30</title>
<g id="a_node30"><a xlink:href="condition_8c.html#af5a052e347755190271b32d8b09ec026" target="_top" xlink:title="Returns a string representation of a condition type from an integer.">
<polygon fill="none" stroke="black" points="406,-247.5 406,-266.5 531,-266.5 531,-247.5 406,-247.5"/>
<text text-anchor="middle" x="468.5" y="-254.5" font-family="Helvetica,sans-Serif" font-size="10.00">condition_type_as_string</text>
</a>
</g>
</g>
<!-- Node23&#45;&gt;Node30 -->
<g id="edge30" class="edge">
<title>Node23&#45;&gt;Node30</title>
<path fill="none" stroke="midnightblue" d="M319.21,-323.4C337.96,-311.08 372.3,-289.65 404,-276 409.35,-273.7 415.06,-271.56 420.79,-269.62"/>
<polygon fill="midnightblue" stroke="midnightblue" points="421.94,-272.93 430.38,-266.53 419.79,-266.26 421.94,-272.93"/>
</g>
<!-- Node26 -->
<g id="node26" class="node">
<title>Node26</title>
<g id="a_node26"><a xlink:href="dgp_8c.html#a82bf94151f10f27b38b15beb14d86888" target="_top" xlink:title="Prints DGP parameters.">
<polygon fill="none" stroke="black" points="591,-285.5 591,-304.5 680,-304.5 680,-285.5 591,-285.5"/>
<text text-anchor="middle" x="635.5" y="-292.5" font-family="Helvetica,sans-Serif" font-size="10.00">graph_args_print</text>
</a>
</g>
</g>
<!-- Node25&#45;&gt;Node26 -->
<g id="edge26" class="edge">
<title>Node25&#45;&gt;Node26</title>
<path fill="none" stroke="midnightblue" d="M512.49,-361.48C519.62,-358.98 526.73,-355.86 533,-352 552.81,-339.81 549.13,-326.11 569,-314 572.86,-311.65 577.02,-309.58 581.31,-307.75"/>
<polygon fill="midnightblue" stroke="midnightblue" points="582.73,-310.96 590.84,-304.14 580.25,-304.41 582.73,-310.96"/>
</g>
<!-- Node28 -->
<g id="node28" class="node">
<title>Node28</title>
<g id="a_node28"><a xlink:href="gp_8c.html#a3a8ed73923e43a072adc4d92e17b594b" target="_top" xlink:title="Prints Tree GP parameters.">
<polygon fill="none" stroke="black" points="595,-247.5 595,-266.5 676,-266.5 676,-247.5 595,-247.5"/>
<text text-anchor="middle" x="635.5" y="-254.5" font-family="Helvetica,sans-Serif" font-size="10.00">tree_args_print</text>
</a>
</g>
</g>
<!-- Node27&#45;&gt;Node28 -->
<g id="edge28" class="edge">
<title>Node27&#45;&gt;Node28</title>
<path fill="none" stroke="midnightblue" d="M512.49,-323.48C519.62,-320.98 526.73,-317.86 533,-314 552.81,-301.81 549.13,-288.11 569,-276 574.05,-272.92 579.63,-270.32 585.33,-268.13"/>
<polygon fill="midnightblue" stroke="midnightblue" points="586.66,-271.37 594.97,-264.81 584.38,-264.75 586.66,-271.37"/>
</g>
<!-- Node32 -->
<g id="node32" class="node">
<title>Node32</title>
<g id="a_node32"><a xlink:href="ea_8c.html#a53acdbcd7a77faf6d38068559ae03b8b" target="_top" xlink:title="Returns a string representation of an EA select type from an integer.">
<polygon fill="none" stroke="black" points="420.5,-83.5 420.5,-102.5 516.5,-102.5 516.5,-83.5 420.5,-83.5"/>
<text text-anchor="middle" x="468.5" y="-90.5" font-family="Helvetica,sans-Serif" font-size="10.00">ea_type_as_string</text>
</a>
</g>
</g>
<!-- Node31&#45;&gt;Node32 -->
<g id="edge33" class="edge">
<title>Node31&#45;&gt;Node32</title>
<path fill="none" stroke="midnightblue" d="M345.29,-152.49C353.06,-149.93 360.96,-146.79 368,-143 386.34,-133.13 385.72,-122.98 404,-113 408.82,-110.37 414.03,-108.02 419.34,-105.95"/>
<polygon fill="midnightblue" stroke="midnightblue" points="420.67,-109.19 428.9,-102.51 418.31,-102.6 420.67,-109.19"/>
</g>
<!-- Node35 -->
<g id="node35" class="node">
<title>Node35</title>
<g id="a_node35"><a xlink:href="loss_8c.html#ae2f30fcd2fb24ac4698c87b4d6b08cfe" target="_top" xlink:title="Returns a string representation of a loss type from the integer.">
<polygon fill="none" stroke="black" points="416.5,-45.5 416.5,-64.5 520.5,-64.5 520.5,-45.5 416.5,-45.5"/>
<text text-anchor="middle" x="468.5" y="-52.5" font-family="Helvetica,sans-Serif" font-size="10.00">loss_type_as_string</text>
</a>
</g>
</g>
<!-- Node34&#45;&gt;Node35 -->
<g id="edge36" class="edge">
<title>Node34&#45;&gt;Node35</title>
<path fill="none" stroke="midnightblue" d="M355.08,-76.45C371.69,-73.28 390.34,-69.72 407.6,-66.43"/>
<polygon fill="midnightblue" stroke="midnightblue" points="408.42,-69.83 417.58,-64.52 407.11,-62.96 408.42,-69.83"/>
</g>
<!-- Node38&#45;&gt;Node5 -->
<g id="edge40" class="edge">
<title>Node38&#45;&gt;Node5</title>
<path fill="none" stroke="midnightblue" d="M311.25,-209.73C323.44,-229.01 350.7,-273.69 368,-314 388.95,-362.83 366.15,-390.71 404,-428 407.5,-431.45 411.61,-434.28 416.02,-436.6"/>
<polygon fill="midnightblue" stroke="midnightblue" points="414.83,-439.9 425.39,-440.67 417.62,-433.48 414.83,-439.9"/>
</g>
<!-- Node39 -->
<g id="node39" class="node">
<title>Node39</title>
<g id="a_node39"><a xlink:href="prediction_8c.html#ab4e885c4aea369642e1f9ab827157366" target="_top" xlink:title="Prints least mean squres prediction parameters.">
<polygon fill="none" stroke="black" points="409.5,-209.5 409.5,-228.5 527.5,-228.5 527.5,-209.5 409.5,-209.5"/>
<text text-anchor="middle" x="468.5" y="-216.5" font-family="Helvetica,sans-Serif" font-size="10.00">pred_param_print_nlms</text>
</a>
</g>
</g>
<!-- Node38&#45;&gt;Node39 -->
<g id="edge41" class="edge">
<title>Node38&#45;&gt;Node39</title>
<path fill="none" stroke="midnightblue" d="M350.27,-205.29C365.43,-207.07 382.69,-209.08 399.22,-211.02"/>
<polygon fill="midnightblue" stroke="midnightblue" points="399.05,-214.52 409.39,-212.21 399.86,-207.57 399.05,-214.52"/>
</g>
<!-- Node40 -->
<g id="node40" class="node">
<title>Node40</title>
<g id="a_node40"><a xlink:href="prediction_8c.html#a727103c799ce0fd0e50e018c10802839" target="_top" xlink:title="Prints recursive least mean squres prediction parameters.">
<polygon fill="none" stroke="black" points="415,-171.5 415,-190.5 522,-190.5 522,-171.5 415,-171.5"/>
<text text-anchor="middle" x="468.5" y="-178.5" font-family="Helvetica,sans-Serif" font-size="10.00">pred_param_print_rls</text>
</a>
</g>
</g>
<!-- Node38&#45;&gt;Node40 -->
<g id="edge42" class="edge">
<title>Node38&#45;&gt;Node40</title>
<path fill="none" stroke="midnightblue" d="M350.27,-194.71C367.14,-192.73 386.62,-190.46 404.78,-188.33"/>
<polygon fill="midnightblue" stroke="midnightblue" points="405.19,-191.81 414.72,-187.17 404.38,-184.86 405.19,-191.81"/>
</g>
<!-- Node41 -->
<g id="node41" class="node">
<title>Node41</title>
<g id="a_node41"><a xlink:href="prediction_8c.html#a085a8402296bdeab95f54299040e6e0e" target="_top" xlink:title="Returns a string representation of a prediction type from the integer.">
<polygon fill="none" stroke="black" points="419.5,-122 419.5,-152 517.5,-152 517.5,-122 419.5,-122"/>
<text text-anchor="start" x="427.5" y="-140" font-family="Helvetica,sans-Serif" font-size="10.00">prediction_type_as</text>
<text text-anchor="middle" x="468.5" y="-129" font-family="Helvetica,sans-Serif" font-size="10.00">_string</text>
</a>
</g>
</g>
<!-- Node38&#45;&gt;Node41 -->
<g id="edge43" class="edge">
<title>Node38&#45;&gt;Node41</title>
<path fill="none" stroke="midnightblue" d="M341.07,-190.43C349.99,-187.7 359.44,-184.51 368,-181 384.74,-174.13 387.56,-169.55 404,-162 408.41,-159.98 413.04,-157.96 417.7,-156"/>
<polygon fill="midnightblue" stroke="midnightblue" points="419.33,-159.11 427.25,-152.07 416.67,-152.64 419.33,-159.11"/>
</g>
</g>
</svg>
