<?xml version="1.0" encoding="UTF-8" standalone="no"?>
<!DOCTYPE svg PUBLIC "-//W3C//DTD SVG 1.1//EN"
 "http://www.w3.org/Graphics/SVG/1.1/DTD/svg11.dtd">
<!-- Generated by graphviz version 2.43.0 (0)
 -->
<!-- Title: XCS::load Pages: 1 -->
<svg width="794pt" height="636pt"
 viewBox="0.00 0.00 794.00 636.00" xmlns="http://www.w3.org/2000/svg" xmlns:xlink="http://www.w3.org/1999/xlink">
<g id="graph0" class="graph" transform="scale(1 1) rotate(0) translate(4 632)">
<title>XCS::load</title>
<!-- Node1 -->
<g id="node1" class="node">
<title>Node1</title>
<g id="a_node1"><a xlink:title="Reads the entire current state of XCSF from a file.">
<polygon fill="#bfbfbf" stroke="black" points="0,-418.5 0,-437.5 62,-437.5 62,-418.5 0,-418.5"/>
<text text-anchor="middle" x="31" y="-425.5" font-family="Helvetica,sans-Serif" font-size="10.00">XCS::load</text>
</a>
</g>
</g>
<!-- Node2 -->
<g id="node2" class="node">
<title>Node2</title>
<g id="a_node2"><a xlink:href="xcsf_8c.html#ada5fb9a2a1e9225aad40a36614fc0de7" target="_top" xlink:title="Reads the state of XCSF from a file.">
<polygon fill="none" stroke="black" points="98,-418.5 98,-437.5 157,-437.5 157,-418.5 98,-418.5"/>
<text text-anchor="middle" x="127.5" y="-425.5" font-family="Helvetica,sans-Serif" font-size="10.00">xcsf_load</text>
</a>
</g>
</g>
<!-- Node1&#45;&gt;Node2 -->
<g id="edge1" class="edge">
<title>Node1&#45;&gt;Node2</title>
<path fill="none" stroke="midnightblue" d="M62.16,-428C70.3,-428 79.22,-428 87.76,-428"/>
<polygon fill="midnightblue" stroke="midnightblue" points="87.91,-431.5 97.91,-428 87.91,-424.5 87.91,-431.5"/>
</g>
<!-- Node3 -->
<g id="node3" class="node">
<title>Node3</title>
<g id="a_node3"><a xlink:href="clset_8c.html#a9af546abf9de1bc840d605e949d3ef47" target="_top" xlink:title="Initialises a new set.">
<polygon fill="none" stroke="black" points="350,-437.5 350,-456.5 406,-456.5 406,-437.5 350,-437.5"/>
<text text-anchor="middle" x="378" y="-444.5" font-family="Helvetica,sans-Serif" font-size="10.00">clset_init</text>
</a>
</g>
</g>
<!-- Node2&#45;&gt;Node3 -->
<g id="edge2" class="edge">
<title>Node2&#45;&gt;Node3</title>
<path fill="none" stroke="midnightblue" d="M157.01,-430.18C202.11,-433.63 289.94,-440.34 339.9,-444.16"/>
<polygon fill="midnightblue" stroke="midnightblue" points="339.72,-447.66 349.96,-444.93 340.26,-440.68 339.72,-447.66"/>
</g>
<!-- Node4 -->
<g id="node4" class="node">
<title>Node4</title>
<g id="a_node4"><a xlink:href="clset_8c.html#a236baf24659360891f944761f88a30f4" target="_top" xlink:title="Frees the set and the classifiers.">
<polygon fill="none" stroke="black" points="208,-494.5 208,-513.5 263,-513.5 263,-494.5 208,-494.5"/>
<text text-anchor="middle" x="235.5" y="-501.5" font-family="Helvetica,sans-Serif" font-size="10.00">clset_kill</text>
</a>
</g>
</g>
<!-- Node2&#45;&gt;Node4 -->
<g id="edge3" class="edge">
<title>Node2&#45;&gt;Node4</title>
<path fill="none" stroke="midnightblue" d="M141.92,-437.63C159.77,-450.42 191.51,-473.17 212.78,-488.43"/>
<polygon fill="midnightblue" stroke="midnightblue" points="211.02,-491.47 221.18,-494.45 215.1,-485.78 211.02,-491.47"/>
</g>
<!-- Node9 -->
<g id="node9" class="node">
<title>Node9</title>
<g id="a_node9"><a xlink:href="clset_8c.html#af87479ea90c3c508352c4a89dae9fd08" target="_top" xlink:title="Reads the population set from a file.">
<polygon fill="none" stroke="black" points="193,-399.5 193,-418.5 278,-418.5 278,-399.5 193,-399.5"/>
<text text-anchor="middle" x="235.5" y="-406.5" font-family="Helvetica,sans-Serif" font-size="10.00">clset_pset_load</text>
</a>
</g>
</g>
<!-- Node2&#45;&gt;Node9 -->
<g id="edge8" class="edge">
<title>Node2&#45;&gt;Node9</title>
<path fill="none" stroke="midnightblue" d="M157.19,-422.86C165.11,-421.44 173.97,-419.85 182.78,-418.27"/>
<polygon fill="midnightblue" stroke="midnightblue" points="183.43,-421.71 192.65,-416.5 182.19,-414.82 183.43,-421.71"/>
</g>
<!-- Node18 -->
<g id="node18" class="node">
<title>Node18</title>
<g id="a_node18"><a xlink:href="param_8c.html#ae7f8932981ba2f49027da90acfd121b1" target="_top" xlink:title="Reads the XCSF data structure from a file.">
<polygon fill="none" stroke="black" points="202,-152.5 202,-171.5 269,-171.5 269,-152.5 202,-152.5"/>
<text text-anchor="middle" x="235.5" y="-159.5" font-family="Helvetica,sans-Serif" font-size="10.00">param_load</text>
</a>
</g>
</g>
<!-- Node2&#45;&gt;Node18 -->
<g id="edge18" class="edge">
<title>Node2&#45;&gt;Node18</title>
<path fill="none" stroke="midnightblue" d="M132.4,-418.22C147.98,-379.11 205.98,-233.58 226.91,-181.06"/>
<polygon fill="midnightblue" stroke="midnightblue" points="230.23,-182.18 230.68,-171.59 223.72,-179.58 230.23,-182.18"/>
</g>
<!-- Node5 -->
<g id="node5" class="node">
<title>Node5</title>
<g id="a_node5"><a xlink:href="cl_8c.html#ac45092c0e43651e8eeaa739766e3f069" target="_top" xlink:title="Frees the memory used by a classifier.">
<polygon fill="none" stroke="black" points="355,-551.5 355,-570.5 401,-570.5 401,-551.5 355,-551.5"/>
<text text-anchor="middle" x="378" y="-558.5" font-family="Helvetica,sans-Serif" font-size="10.00">cl_free</text>
</a>
</g>
</g>
<!-- Node4&#45;&gt;Node5 -->
<g id="edge4" class="edge">
<title>Node4&#45;&gt;Node5</title>
<path fill="none" stroke="midnightblue" d="M260.02,-513.54C283.43,-523.04 319.52,-537.68 345.42,-548.19"/>
<polygon fill="midnightblue" stroke="midnightblue" points="344.22,-551.48 354.8,-551.99 346.85,-544.99 344.22,-551.48"/>
</g>
<!-- Node6 -->
<g id="node6" class="node">
<title>Node6</title>
<g id="a_node6"><a xlink:href="action_8h.html#a81912970283c86f80c5b7a38f1865ebd" target="_top" xlink:title="Frees the memory used by the classifier action.">
<polygon fill="none" stroke="black" points="496,-570.5 496,-589.5 548,-589.5 548,-570.5 496,-570.5"/>
<text text-anchor="middle" x="522" y="-577.5" font-family="Helvetica,sans-Serif" font-size="10.00">act_free</text>
</a>
</g>
</g>
<!-- Node5&#45;&gt;Node6 -->
<g id="edge5" class="edge">
<title>Node5&#45;&gt;Node6</title>
<path fill="none" stroke="midnightblue" d="M401.19,-563.97C423.77,-566.99 459.13,-571.72 485.6,-575.26"/>
<polygon fill="midnightblue" stroke="midnightblue" points="485.24,-578.75 495.61,-576.6 486.17,-571.81 485.24,-578.75"/>
</g>
<!-- Node7 -->
<g id="node7" class="node">
<title>Node7</title>
<g id="a_node7"><a xlink:href="condition_8h.html#a2f342b5e29e020e139112cf99887b4c5" target="_top" xlink:title="Frees the memory used by the classifier condition.">
<polygon fill="none" stroke="black" points="492.5,-532.5 492.5,-551.5 551.5,-551.5 551.5,-532.5 492.5,-532.5"/>
<text text-anchor="middle" x="522" y="-539.5" font-family="Helvetica,sans-Serif" font-size="10.00">cond_free</text>
</a>
</g>
</g>
<!-- Node5&#45;&gt;Node7 -->
<g id="edge6" class="edge">
<title>Node5&#45;&gt;Node7</title>
<path fill="none" stroke="midnightblue" d="M401.19,-558.03C422.88,-555.13 456.35,-550.65 482.41,-547.16"/>
<polygon fill="midnightblue" stroke="midnightblue" points="482.9,-550.63 492.35,-545.83 481.97,-543.69 482.9,-550.63"/>
</g>
<!-- Node8 -->
<g id="node8" class="node">
<title>Node8</title>
<g id="a_node8"><a xlink:href="prediction_8h.html#af19eafd52548ede9b90594c8b8949098" target="_top" xlink:title="Frees the memory used by the classifier prediction.">
<polygon fill="none" stroke="black" points="493.5,-608.5 493.5,-627.5 550.5,-627.5 550.5,-608.5 493.5,-608.5"/>
<text text-anchor="middle" x="522" y="-615.5" font-family="Helvetica,sans-Serif" font-size="10.00">pred_free</text>
</a>
</g>
</g>
<!-- Node5&#45;&gt;Node8 -->
<g id="edge7" class="edge">
<title>Node5&#45;&gt;Node8</title>
<path fill="none" stroke="midnightblue" d="M401.19,-569.91C424.39,-579.22 461.08,-593.95 487.74,-604.65"/>
<polygon fill="midnightblue" stroke="midnightblue" points="486.49,-607.92 497.07,-608.4 489.1,-601.42 486.49,-607.92"/>
</g>
<!-- Node9&#45;&gt;Node3 -->
<g id="edge17" class="edge">
<title>Node9&#45;&gt;Node3</title>
<path fill="none" stroke="midnightblue" d="M271.95,-418.59C292.77,-424.22 319.05,-431.33 340.11,-437.02"/>
<polygon fill="midnightblue" stroke="midnightblue" points="339.42,-440.46 349.98,-439.69 341.24,-433.7 339.42,-440.46"/>
</g>
<!-- Node10 -->
<g id="node10" class="node">
<title>Node10</title>
<g id="a_node10"><a xlink:href="cl_8c.html#aa1ac32b2cecb1ff414f4f8c405e9cc9d" target="_top" xlink:title="Reads a classifier from a file.">
<polygon fill="none" stroke="black" points="354.5,-399.5 354.5,-418.5 401.5,-418.5 401.5,-399.5 354.5,-399.5"/>
<text text-anchor="middle" x="378" y="-406.5" font-family="Helvetica,sans-Serif" font-size="10.00">cl_load</text>
</a>
</g>
</g>
<!-- Node9&#45;&gt;Node10 -->
<g id="edge9" class="edge">
<title>Node9&#45;&gt;Node10</title>
<path fill="none" stroke="midnightblue" d="M278.27,-409C299.39,-409 324.64,-409 344.32,-409"/>
<polygon fill="midnightblue" stroke="midnightblue" points="344.34,-412.5 354.34,-409 344.34,-405.5 344.34,-412.5"/>
</g>
<!-- Node17 -->
<g id="node17" class="node">
<title>Node17</title>
<g id="a_node17"><a xlink:href="clset_8c.html#a64d33e6235c57f30a4a3ec82f18e57d6" target="_top" xlink:title="Adds a classifier to the set.">
<polygon fill="none" stroke="black" points="348.5,-361.5 348.5,-380.5 407.5,-380.5 407.5,-361.5 348.5,-361.5"/>
<text text-anchor="middle" x="378" y="-368.5" font-family="Helvetica,sans-Serif" font-size="10.00">clset_add</text>
</a>
</g>
</g>
<!-- Node9&#45;&gt;Node17 -->
<g id="edge16" class="edge">
<title>Node9&#45;&gt;Node17</title>
<path fill="none" stroke="midnightblue" d="M271.95,-399.41C292.21,-393.93 317.64,-387.05 338.4,-381.44"/>
<polygon fill="midnightblue" stroke="midnightblue" points="339.44,-384.79 348.18,-378.8 337.61,-378.03 339.44,-384.79"/>
</g>
<!-- Node11 -->
<g id="node11" class="node">
<title>Node11</title>
<g id="a_node11"><a xlink:href="action_8h.html#a52378844456bccd5792fd83a66c3e024" target="_top" xlink:title="Reads the action from a file.">
<polygon fill="none" stroke="black" points="495.5,-456.5 495.5,-475.5 548.5,-475.5 548.5,-456.5 495.5,-456.5"/>
<text text-anchor="middle" x="522" y="-463.5" font-family="Helvetica,sans-Serif" font-size="10.00">act_load</text>
</a>
</g>
</g>
<!-- Node10&#45;&gt;Node11 -->
<g id="edge10" class="edge">
<title>Node10&#45;&gt;Node11</title>
<path fill="none" stroke="midnightblue" d="M401.52,-414.66C413.7,-418 428.89,-422.62 442,-428 458.74,-434.87 461.72,-439.12 478,-447 481.62,-448.75 485.43,-450.53 489.23,-452.26"/>
<polygon fill="midnightblue" stroke="midnightblue" points="487.99,-455.54 498.55,-456.43 490.85,-449.15 487.99,-455.54"/>
</g>
<!-- Node12 -->
<g id="node12" class="node">
<title>Node12</title>
<g id="a_node12"><a xlink:href="action_8c.html#a57d1606f2517912f1f56018f095761e9" target="_top" xlink:title="Sets a classifier&#39;s action functions to the implementations.">
<polygon fill="none" stroke="black" points="491,-418.5 491,-437.5 553,-437.5 553,-418.5 491,-418.5"/>
<text text-anchor="middle" x="522" y="-425.5" font-family="Helvetica,sans-Serif" font-size="10.00">action_set</text>
</a>
</g>
</g>
<!-- Node10&#45;&gt;Node12 -->
<g id="edge11" class="edge">
<title>Node10&#45;&gt;Node12</title>
<path fill="none" stroke="midnightblue" d="M401.5,-412.01C422.74,-414.85 455.07,-419.18 480.75,-422.61"/>
<polygon fill="midnightblue" stroke="midnightblue" points="480.56,-426.12 490.94,-423.98 481.49,-419.18 480.56,-426.12"/>
</g>
<!-- Node13 -->
<g id="node13" class="node">
<title>Node13</title>
<g id="a_node13"><a xlink:href="condition_8h.html#aecb888a4d67bac7930149265d00f2c60" target="_top" xlink:title="Reads the condition from a file.">
<polygon fill="none" stroke="black" points="491.5,-380.5 491.5,-399.5 552.5,-399.5 552.5,-380.5 491.5,-380.5"/>
<text text-anchor="middle" x="522" y="-387.5" font-family="Helvetica,sans-Serif" font-size="10.00">cond_load</text>
</a>
</g>
</g>
<!-- Node10&#45;&gt;Node13 -->
<g id="edge12" class="edge">
<title>Node10&#45;&gt;Node13</title>
<path fill="none" stroke="midnightblue" d="M401.5,-405.99C422.88,-403.13 455.49,-398.77 481.25,-395.32"/>
<polygon fill="midnightblue" stroke="midnightblue" points="482.01,-398.75 491.45,-393.95 481.08,-391.81 482.01,-398.75"/>
</g>
<!-- Node14 -->
<g id="node14" class="node">
<title>Node14</title>
<g id="a_node14"><a xlink:href="condition_8c.html#a16981837f523cea3a917404e441981b3" target="_top" xlink:title="Sets a classifier&#39;s condition functions to the implementations.">
<polygon fill="none" stroke="black" points="485,-342.5 485,-361.5 559,-361.5 559,-342.5 485,-342.5"/>
<text text-anchor="middle" x="522" y="-349.5" font-family="Helvetica,sans-Serif" font-size="10.00">condition_set</text>
</a>
</g>
</g>
<!-- Node10&#45;&gt;Node14 -->
<g id="edge13" class="edge">
<title>Node10&#45;&gt;Node14</title>
<path fill="none" stroke="midnightblue" d="M401.52,-403.34C413.7,-400 428.89,-395.38 442,-390 458.74,-383.13 461.72,-378.88 478,-371 481.62,-369.25 485.43,-367.47 489.23,-365.74"/>
<polygon fill="midnightblue" stroke="midnightblue" points="490.85,-368.85 498.55,-361.57 487.99,-362.46 490.85,-368.85"/>
</g>
<!-- Node15 -->
<g id="node15" class="node">
<title>Node15</title>
<g id="a_node15"><a xlink:href="prediction_8h.html#acb4453c3ff11e3b628432cdc2fa5e73b" target="_top" xlink:title="Reads the prediction from a file.">
<polygon fill="none" stroke="black" points="492.5,-304.5 492.5,-323.5 551.5,-323.5 551.5,-304.5 492.5,-304.5"/>
<text text-anchor="middle" x="522" y="-311.5" font-family="Helvetica,sans-Serif" font-size="10.00">pred_load</text>
</a>
</g>
</g>
<!-- Node10&#45;&gt;Node15 -->
<g id="edge14" class="edge">
<title>Node10&#45;&gt;Node15</title>
<path fill="none" stroke="midnightblue" d="M401.77,-406.14C414.61,-403.6 430.36,-398.85 442,-390 465.85,-371.86 455.31,-352.57 478,-333 479.76,-331.48 481.66,-330.07 483.64,-328.76"/>
<polygon fill="midnightblue" stroke="midnightblue" points="485.76,-331.58 492.74,-323.61 482.31,-325.49 485.76,-331.58"/>
</g>
<!-- Node16 -->
<g id="node16" class="node">
<title>Node16</title>
<g id="a_node16"><a xlink:href="prediction_8c.html#a81ad118db1c9b692c45880e6f3a33ec4" target="_top" xlink:title="Sets a classifier&#39;s prediction functions to the implementations.">
<polygon fill="none" stroke="black" points="483.5,-494.5 483.5,-513.5 560.5,-513.5 560.5,-494.5 483.5,-494.5"/>
<text text-anchor="middle" x="522" y="-501.5" font-family="Helvetica,sans-Serif" font-size="10.00">prediction_set</text>
</a>
</g>
</g>
<!-- Node10&#45;&gt;Node16 -->
<g id="edge15" class="edge">
<title>Node10&#45;&gt;Node16</title>
<path fill="none" stroke="midnightblue" d="M401.77,-411.86C414.61,-414.4 430.36,-419.15 442,-428 465.85,-446.14 455.31,-465.43 478,-485 479.76,-486.52 481.66,-487.93 483.64,-489.24"/>
<polygon fill="midnightblue" stroke="midnightblue" points="482.31,-492.51 492.74,-494.39 485.76,-486.42 482.31,-492.51"/>
</g>
<!-- Node19 -->
<g id="node19" class="node">
<title>Node19</title>
<g id="a_node19"><a xlink:href="action_8c.html#a08b64f3c3cc1e112d0859880ea767c53" target="_top" xlink:title="Loads action parameters.">
<polygon fill="none" stroke="black" points="329,-114.5 329,-133.5 427,-133.5 427,-114.5 329,-114.5"/>
<text text-anchor="middle" x="378" y="-121.5" font-family="Helvetica,sans-Serif" font-size="10.00">action_param_load</text>
</a>
</g>
</g>
<!-- Node18&#45;&gt;Node19 -->
<g id="edge19" class="edge">
<title>Node18&#45;&gt;Node19</title>
<path fill="none" stroke="midnightblue" d="M269.09,-153.19C287.76,-148.14 311.47,-141.72 331.9,-136.2"/>
<polygon fill="midnightblue" stroke="midnightblue" points="332.9,-139.55 341.64,-133.56 331.07,-132.8 332.9,-139.55"/>
</g>
<!-- Node23 -->
<g id="node23" class="node">
<title>Node23</title>
<g id="a_node23"><a xlink:href="condition_8c.html#a529394a6a6f7f5a7aa596e14b2eb1ec2" target="_top" xlink:title="Loads condition parameters.">
<polygon fill="none" stroke="black" points="331.5,-76.5 331.5,-95.5 424.5,-95.5 424.5,-76.5 331.5,-76.5"/>
<text text-anchor="middle" x="378" y="-83.5" font-family="Helvetica,sans-Serif" font-size="10.00">cond_param_load</text>
</a>
</g>
</g>
<!-- Node18&#45;&gt;Node23 -->
<g id="edge23" class="edge">
<title>Node18&#45;&gt;Node23</title>
<path fill="none" stroke="midnightblue" d="M247.26,-152.2C261.54,-139.66 288,-117.99 314,-105 318.55,-102.73 323.41,-100.67 328.36,-98.82"/>
<polygon fill="midnightblue" stroke="midnightblue" points="329.58,-102.11 337.88,-95.53 327.29,-95.49 329.58,-102.11"/>
</g>
<!-- Node26 -->
<g id="node26" class="node">
<title>Node26</title>
<g id="a_node26"><a xlink:href="ea_8c.html#a98847959ab2371b435176a89306207c5" target="_top" xlink:title="Loads evolutionary algorithm parameters.">
<polygon fill="none" stroke="black" points="336.5,-38.5 336.5,-57.5 419.5,-57.5 419.5,-38.5 336.5,-38.5"/>
<text text-anchor="middle" x="378" y="-45.5" font-family="Helvetica,sans-Serif" font-size="10.00">ea_param_load</text>
</a>
</g>
</g>
<!-- Node18&#45;&gt;Node26 -->
<g id="edge27" class="edge">
<title>Node18&#45;&gt;Node26</title>
<path fill="none" stroke="midnightblue" d="M241.73,-152.32C252.59,-133.12 279.5,-90.08 314,-67 318,-64.32 322.4,-62.01 326.94,-60.02"/>
<polygon fill="midnightblue" stroke="midnightblue" points="328.34,-63.23 336.41,-56.36 325.82,-56.7 328.34,-63.23"/>
</g>
<!-- Node27 -->
<g id="node27" class="node">
<title>Node27</title>
<g id="a_node27"><a xlink:href="param_8c.html#a2a2271a513e5d53bc17162032835ef30" target="_top" xlink:title="Loads XCSF general classifier parameters.">
<polygon fill="none" stroke="black" points="320,-0.5 320,-19.5 436,-19.5 436,-0.5 320,-0.5"/>
<text text-anchor="middle" x="378" y="-7.5" font-family="Helvetica,sans-Serif" font-size="10.00">param_load_cl_general</text>
</a>
</g>
</g>
<!-- Node18&#45;&gt;Node27 -->
<g id="edge28" class="edge">
<title>Node18&#45;&gt;Node27</title>
<path fill="none" stroke="midnightblue" d="M239.38,-152.31C247.17,-127.81 270.99,-62.94 314,-29 316.31,-27.18 318.8,-25.53 321.4,-24.03"/>
<polygon fill="midnightblue" stroke="midnightblue" points="323.14,-27.08 330.6,-19.55 320.07,-20.79 323.14,-27.08"/>
</g>
<!-- Node28 -->
<g id="node28" class="node">
<title>Node28</title>
<g id="a_node28"><a xlink:href="param_8c.html#ab61b9fbc450124b34f61b80093cffb1a" target="_top" xlink:title="Loads XCSF general parameters.">
<polygon fill="none" stroke="black" points="326,-266.5 326,-285.5 430,-285.5 430,-266.5 326,-266.5"/>
<text text-anchor="middle" x="378" y="-273.5" font-family="Helvetica,sans-Serif" font-size="10.00">param_load_general</text>
</a>
</g>
</g>
<!-- Node18&#45;&gt;Node28 -->
<g id="edge29" class="edge">
<title>Node18&#45;&gt;Node28</title>
<path fill="none" stroke="midnightblue" d="M241.73,-171.68C252.59,-190.88 279.5,-233.92 314,-257 317.08,-259.06 320.38,-260.9 323.81,-262.55"/>
<polygon fill="midnightblue" stroke="midnightblue" points="322.53,-265.81 333.11,-266.47 325.25,-259.36 322.53,-265.81"/>
</g>
<!-- Node38 -->
<g id="node38" class="node">
<title>Node38</title>
<g id="a_node38"><a xlink:href="param_8c.html#a96825d72a88e4af58b039b61467ed136" target="_top" xlink:title="Saves multistep parameters.">
<polygon fill="none" stroke="black" points="322,-228.5 322,-247.5 434,-247.5 434,-228.5 322,-228.5"/>
<text text-anchor="middle" x="378" y="-235.5" font-family="Helvetica,sans-Serif" font-size="10.00">param_load_multistep</text>
</a>
</g>
</g>
<!-- Node18&#45;&gt;Node38 -->
<g id="edge40" class="edge">
<title>Node18&#45;&gt;Node38</title>
<path fill="none" stroke="midnightblue" d="M247.26,-171.8C261.54,-184.34 288,-206.01 314,-219 318.55,-221.27 323.41,-223.33 328.36,-225.18"/>
<polygon fill="midnightblue" stroke="midnightblue" points="327.29,-228.51 337.88,-228.47 329.58,-221.89 327.29,-228.51"/>
</g>
<!-- Node39 -->
<g id="node39" class="node">
<title>Node39</title>
<g id="a_node39"><a xlink:href="param_8c.html#ad59e9ab3a114a751a6ff96b2a0bbbb72" target="_top" xlink:title="Loads subsumption parameters.">
<polygon fill="none" stroke="black" points="314,-190.5 314,-209.5 442,-209.5 442,-190.5 314,-190.5"/>
<text text-anchor="middle" x="378" y="-197.5" font-family="Helvetica,sans-Serif" font-size="10.00">param_load_subsumption</text>
</a>
</g>
</g>
<!-- Node18&#45;&gt;Node39 -->
<g id="edge41" class="edge">
<title>Node18&#45;&gt;Node39</title>
<path fill="none" stroke="midnightblue" d="M269.09,-170.81C287.76,-175.86 311.47,-182.28 331.9,-187.8"/>
<polygon fill="midnightblue" stroke="midnightblue" points="331.07,-191.2 341.64,-190.44 332.9,-184.45 331.07,-191.2"/>
</g>
<!-- Node40 -->
<g id="node40" class="node">
<title>Node40</title>
<g id="a_node40"><a xlink:href="prediction_8c.html#a022e1e3dabeddd6cc051aa63a9af5924" target="_top" xlink:title="Loads prediction parameters.">
<polygon fill="none" stroke="black" points="332.5,-152.5 332.5,-171.5 423.5,-171.5 423.5,-152.5 332.5,-152.5"/>
<text text-anchor="middle" x="378" y="-159.5" font-family="Helvetica,sans-Serif" font-size="10.00">pred_param_load</text>
</a>
</g>
</g>
<!-- Node18&#45;&gt;Node40 -->
<g id="edge42" class="edge">
<title>Node18&#45;&gt;Node40</title>
<path fill="none" stroke="midnightblue" d="M269.09,-162C284.88,-162 304.28,-162 322.26,-162"/>
<polygon fill="midnightblue" stroke="midnightblue" points="322.35,-165.5 332.35,-162 322.35,-158.5 322.35,-165.5"/>
</g>
<!-- Node20 -->
<g id="node20" class="node">
<title>Node20</title>
<g id="a_node20"><a xlink:href="neural__layer__args_8c.html#a398a06830ed5cc20b78e7e04121897fd" target="_top" xlink:title="Loads neural network layer parameters.">
<polygon fill="none" stroke="black" points="479.5,-114.5 479.5,-133.5 564.5,-133.5 564.5,-114.5 479.5,-114.5"/>
<text text-anchor="middle" x="522" y="-121.5" font-family="Helvetica,sans-Serif" font-size="10.00">layer_args_load</text>
</a>
</g>
</g>
<!-- Node19&#45;&gt;Node20 -->
<g id="edge20" class="edge">
<title>Node19&#45;&gt;Node20</title>
<path fill="none" stroke="midnightblue" d="M427.07,-124C440.54,-124 455.24,-124 468.92,-124"/>
<polygon fill="midnightblue" stroke="midnightblue" points="469.15,-127.5 479.15,-124 469.15,-120.5 469.15,-127.5"/>
</g>
<!-- Node21 -->
<g id="node21" class="node">
<title>Node21</title>
<g id="a_node21"><a xlink:href="neural__layer__args_8c.html#a477d2c5cf9da9413c6dba66b5d7f7aff" target="_top" xlink:title="Frees memory used by a list of layer parameters and points to NULL.">
<polygon fill="none" stroke="black" points="602.5,-114.5 602.5,-133.5 685.5,-133.5 685.5,-114.5 602.5,-114.5"/>
<text text-anchor="middle" x="644" y="-121.5" font-family="Helvetica,sans-Serif" font-size="10.00">layer_args_free</text>
</a>
</g>
</g>
<!-- Node20&#45;&gt;Node21 -->
<g id="edge21" class="edge">
<title>Node20&#45;&gt;Node21</title>
<path fill="none" stroke="midnightblue" d="M564.63,-124C573.49,-124 582.93,-124 592.08,-124"/>
<polygon fill="midnightblue" stroke="midnightblue" points="592.25,-127.5 602.25,-124 592.25,-120.5 592.25,-127.5"/>
</g>
<!-- Node22 -->
<g id="node22" class="node">
<title>Node22</title>
<g id="a_node22"><a xlink:href="neural__layer__args_8c.html#a3b06e82bed7fc9a8915d6187ce08d33e" target="_top" xlink:title="Sets layer parameters to default values.">
<polygon fill="none" stroke="black" points="604,-76.5 604,-95.5 684,-95.5 684,-76.5 604,-76.5"/>
<text text-anchor="middle" x="644" y="-83.5" font-family="Helvetica,sans-Serif" font-size="10.00">layer_args_init</text>
</a>
</g>
</g>
<!-- Node20&#45;&gt;Node22 -->
<g id="edge22" class="edge">
<title>Node20&#45;&gt;Node22</title>
<path fill="none" stroke="midnightblue" d="M553.28,-114.41C568.35,-109.64 586.75,-103.81 602.97,-98.68"/>
<polygon fill="midnightblue" stroke="midnightblue" points="604.25,-101.94 612.73,-95.59 602.14,-95.27 604.25,-101.94"/>
</g>
<!-- Node23&#45;&gt;Node20 -->
<g id="edge25" class="edge">
<title>Node23&#45;&gt;Node20</title>
<path fill="none" stroke="midnightblue" d="M414.83,-95.59C433.16,-100.49 455.68,-106.52 475.25,-111.76"/>
<polygon fill="midnightblue" stroke="midnightblue" points="474.61,-115.21 485.18,-114.41 476.42,-108.45 474.61,-115.21"/>
</g>
<!-- Node24 -->
<g id="node24" class="node">
<title>Node24</title>
<g id="a_node24"><a xlink:href="dgp_8c.html#a4e160f3ae49e0876bd5d9d03cff31a79" target="_top" xlink:title="Loads DGP parameters.">
<polygon fill="none" stroke="black" points="478,-76.5 478,-95.5 566,-95.5 566,-76.5 478,-76.5"/>
<text text-anchor="middle" x="522" y="-83.5" font-family="Helvetica,sans-Serif" font-size="10.00">graph_args_load</text>
</a>
</g>
</g>
<!-- Node23&#45;&gt;Node24 -->
<g id="edge24" class="edge">
<title>Node23&#45;&gt;Node24</title>
<path fill="none" stroke="midnightblue" d="M424.71,-86C438.41,-86 453.56,-86 467.7,-86"/>
<polygon fill="midnightblue" stroke="midnightblue" points="467.79,-89.5 477.79,-86 467.79,-82.5 467.79,-89.5"/>
</g>
<!-- Node25 -->
<g id="node25" class="node">
<title>Node25</title>
<g id="a_node25"><a xlink:href="gp_8c.html#ace6f12ff809357296578e8aa1d1b0b47" target="_top" xlink:title="Loads Tree GP parameters.">
<polygon fill="none" stroke="black" points="482,-38.5 482,-57.5 562,-57.5 562,-38.5 482,-38.5"/>
<text text-anchor="middle" x="522" y="-45.5" font-family="Helvetica,sans-Serif" font-size="10.00">tree_args_load</text>
</a>
</g>
</g>
<!-- Node23&#45;&gt;Node25 -->
<g id="edge26" class="edge">
<title>Node23&#45;&gt;Node25</title>
<path fill="none" stroke="midnightblue" d="M414.83,-76.41C433.16,-71.51 455.68,-65.48 475.25,-60.24"/>
<polygon fill="midnightblue" stroke="midnightblue" points="476.42,-63.55 485.18,-57.59 474.61,-56.79 476.42,-63.55"/>
</g>
<!-- Node29 -->
<g id="node29" class="node">
<title>Node29</title>
<g id="a_node29"><a xlink:href="loss_8c.html#a440b847b0f4edd503b919d3bebecd66c" target="_top" xlink:title="Sets the XCSF error function to the implemented function.">
<polygon fill="none" stroke="black" points="483.5,-266.5 483.5,-285.5 560.5,-285.5 560.5,-266.5 483.5,-266.5"/>
<text text-anchor="middle" x="522" y="-273.5" font-family="Helvetica,sans-Serif" font-size="10.00">loss_set_func</text>
</a>
</g>
</g>
<!-- Node28&#45;&gt;Node29 -->
<g id="edge30" class="edge">
<title>Node28&#45;&gt;Node29</title>
<path fill="none" stroke="midnightblue" d="M430.27,-276C444.19,-276 459.22,-276 472.96,-276"/>
<polygon fill="midnightblue" stroke="midnightblue" points="473.18,-279.5 483.18,-276 473.18,-272.5 473.18,-279.5"/>
</g>
<!-- Node30 -->
<g id="node30" class="node">
<title>Node30</title>
<g id="a_node30"><a xlink:href="loss_8c.html#a2687b111bc407194c64e07e2b933bb3c" target="_top" xlink:title="Binary logistic log loss for binary&#45;class classification.">
<polygon fill="none" stroke="black" points="602,-304.5 602,-323.5 686,-323.5 686,-304.5 602,-304.5"/>
<text text-anchor="middle" x="644" y="-311.5" font-family="Helvetica,sans-Serif" font-size="10.00">loss_binary_log</text>
</a>
</g>
</g>
<!-- Node29&#45;&gt;Node30 -->
<g id="edge31" class="edge">
<title>Node29&#45;&gt;Node30</title>
<path fill="none" stroke="midnightblue" d="M553.28,-285.59C568.35,-290.36 586.75,-296.19 602.97,-301.32"/>
<polygon fill="midnightblue" stroke="midnightblue" points="602.14,-304.73 612.73,-304.41 604.25,-298.06 602.14,-304.73"/>
</g>
<!-- Node31 -->
<g id="node31" class="node">
<title>Node31</title>
<g id="a_node31"><a xlink:href="loss_8c.html#adf5bc1e947369774d48b0355dbdbcc30" target="_top" xlink:title="Huber loss function.">
<polygon fill="none" stroke="black" points="612,-266.5 612,-285.5 676,-285.5 676,-266.5 612,-266.5"/>
<text text-anchor="middle" x="644" y="-273.5" font-family="Helvetica,sans-Serif" font-size="10.00">loss_huber</text>
</a>
</g>
</g>
<!-- Node29&#45;&gt;Node31 -->
<g id="edge32" class="edge">
<title>Node29&#45;&gt;Node31</title>
<path fill="none" stroke="midnightblue" d="M560.64,-276C573.66,-276 588.31,-276 601.61,-276"/>
<polygon fill="midnightblue" stroke="midnightblue" points="601.93,-279.5 611.93,-276 601.93,-272.5 601.93,-279.5"/>
</g>
<!-- Node32 -->
<g id="node32" class="node">
<title>Node32</title>
<g id="a_node32"><a xlink:href="loss_8c.html#a5b0fc07896aaa302b61213c450874d49" target="_top" xlink:title="Logistic log loss for multi&#45;class classification.">
<polygon fill="none" stroke="black" points="617.5,-228.5 617.5,-247.5 670.5,-247.5 670.5,-228.5 617.5,-228.5"/>
<text text-anchor="middle" x="644" y="-235.5" font-family="Helvetica,sans-Serif" font-size="10.00">loss_log</text>
</a>
</g>
</g>
<!-- Node29&#45;&gt;Node32 -->
<g id="edge33" class="edge">
<title>Node29&#45;&gt;Node32</title>
<path fill="none" stroke="midnightblue" d="M553.28,-266.41C569.76,-261.19 590.25,-254.7 607.49,-249.25"/>
<polygon fill="midnightblue" stroke="midnightblue" points="608.72,-252.53 617.2,-246.17 606.61,-245.85 608.72,-252.53"/>
</g>
<!-- Node33 -->
<g id="node33" class="node">
<title>Node33</title>
<g id="a_node33"><a xlink:href="loss_8c.html#a7f1e236d219a5f551408639674b4a24a" target="_top" xlink:title="Mean absolute error loss function.">
<polygon fill="none" stroke="black" points="614.5,-190.5 614.5,-209.5 673.5,-209.5 673.5,-190.5 614.5,-190.5"/>
<text text-anchor="middle" x="644" y="-197.5" font-family="Helvetica,sans-Serif" font-size="10.00">loss_mae</text>
</a>
</g>
</g>
<!-- Node29&#45;&gt;Node33 -->
<g id="edge34" class="edge">
<title>Node29&#45;&gt;Node33</title>
<path fill="none" stroke="midnightblue" d="M534.83,-266.36C549.86,-254.37 576.89,-233.69 602,-219 604.84,-217.34 607.86,-215.71 610.91,-214.14"/>
<polygon fill="midnightblue" stroke="midnightblue" points="612.59,-217.22 620.05,-209.7 609.53,-210.93 612.59,-217.22"/>
</g>
<!-- Node34 -->
<g id="node34" class="node">
<title>Node34</title>
<g id="a_node34"><a xlink:href="loss_8c.html#aaeed4518371c4e75de20532e3a6aa601" target="_top" xlink:title="Mean squared error loss function.">
<polygon fill="none" stroke="black" points="724.5,-247.5 724.5,-266.5 783.5,-266.5 783.5,-247.5 724.5,-247.5"/>
<text text-anchor="middle" x="754" y="-254.5" font-family="Helvetica,sans-Serif" font-size="10.00">loss_mse</text>
</a>
</g>
</g>
<!-- Node29&#45;&gt;Node34 -->
<g id="edge35" class="edge">
<title>Node29&#45;&gt;Node34</title>
<path fill="none" stroke="midnightblue" d="M549.36,-285.67C555.08,-288.3 560.93,-291.43 566,-295 585.01,-308.41 580.63,-323.81 602,-333 636.3,-347.75 651.97,-348.36 686,-333 712.07,-321.23 732.06,-293.74 743.17,-275.25"/>
<polygon fill="midnightblue" stroke="midnightblue" points="746.23,-276.95 748.16,-266.54 740.15,-273.48 746.23,-276.95"/>
</g>
<!-- Node35 -->
<g id="node35" class="node">
<title>Node35</title>
<g id="a_node35"><a xlink:href="loss_8c.html#a38e786a5c46be2519aae23287c92cc23" target="_top" xlink:title="One&#45;hot classification error.">
<polygon fill="none" stroke="black" points="609.5,-380.5 609.5,-399.5 678.5,-399.5 678.5,-380.5 609.5,-380.5"/>
<text text-anchor="middle" x="644" y="-387.5" font-family="Helvetica,sans-Serif" font-size="10.00">loss_onehot</text>
</a>
</g>
</g>
<!-- Node29&#45;&gt;Node35 -->
<g id="edge36" class="edge">
<title>Node29&#45;&gt;Node35</title>
<path fill="none" stroke="midnightblue" d="M551.99,-285.51C557.05,-288.05 561.97,-291.18 566,-295 591.67,-319.34 577.75,-340.24 602,-366 605.14,-369.33 608.84,-372.35 612.72,-375.03"/>
<polygon fill="midnightblue" stroke="midnightblue" points="610.99,-378.07 621.33,-380.35 614.67,-372.12 610.99,-378.07"/>
</g>
<!-- Node37 -->
<g id="node37" class="node">
<title>Node37</title>
<g id="a_node37"><a xlink:href="loss_8c.html#a3278a1ba45bd0ccbf39e25bde1562f8f" target="_top" xlink:title="Root mean squared error loss function.">
<polygon fill="none" stroke="black" points="613,-152.5 613,-171.5 675,-171.5 675,-152.5 613,-152.5"/>
<text text-anchor="middle" x="644" y="-159.5" font-family="Helvetica,sans-Serif" font-size="10.00">loss_rmse</text>
</a>
</g>
</g>
<!-- Node29&#45;&gt;Node37 -->
<g id="edge38" class="edge">
<title>Node29&#45;&gt;Node37</title>
<path fill="none" stroke="midnightblue" d="M528.85,-266.45C540.65,-247.84 569.01,-206.37 602,-181 604.07,-179.41 606.29,-177.91 608.59,-176.51"/>
<polygon fill="midnightblue" stroke="midnightblue" points="610.58,-179.42 617.71,-171.58 607.24,-173.26 610.58,-179.42"/>
</g>
<!-- Node36 -->
<g id="node36" class="node">
<title>Node36</title>
<g id="a_node36"><a xlink:href="utils_8h.html#adc87687be632aa642e838b81a7404db1" target="_top" xlink:title="Returns the index of the largest element in vector X.">
<polygon fill="none" stroke="black" points="722,-380.5 722,-399.5 786,-399.5 786,-380.5 722,-380.5"/>
<text text-anchor="middle" x="754" y="-387.5" font-family="Helvetica,sans-Serif" font-size="10.00">max_index</text>
</a>
</g>
</g>
<!-- Node35&#45;&gt;Node36 -->
<g id="edge37" class="edge">
<title>Node35&#45;&gt;Node36</title>
<path fill="none" stroke="midnightblue" d="M678.58,-390C689,-390 700.6,-390 711.49,-390"/>
<polygon fill="midnightblue" stroke="midnightblue" points="711.65,-393.5 721.65,-390 711.65,-386.5 711.65,-393.5"/>
</g>
<!-- Node37&#45;&gt;Node34 -->
<g id="edge39" class="edge">
<title>Node37&#45;&gt;Node34</title>
<path fill="none" stroke="midnightblue" d="M670.22,-171.68C675.67,-174.31 681.22,-177.43 686,-181 708.12,-197.51 728.3,-222.34 740.61,-239.08"/>
<polygon fill="midnightblue" stroke="midnightblue" points="737.93,-241.35 746.59,-247.45 743.62,-237.28 737.93,-241.35"/>
</g>
<!-- Node40&#45;&gt;Node20 -->
<g id="edge43" class="edge">
<title>Node40&#45;&gt;Node20</title>
<path fill="none" stroke="midnightblue" d="M414.83,-152.41C433.16,-147.51 455.68,-141.48 475.25,-136.24"/>
<polygon fill="midnightblue" stroke="midnightblue" points="476.42,-139.55 485.18,-133.59 474.61,-132.79 476.42,-139.55"/>
</g>
</g>
</svg>
