<?xml version="1.0" encoding="UTF-8" standalone="no"?>
<!DOCTYPE svg PUBLIC "-//W3C//DTD SVG 1.1//EN"
 "http://www.w3.org/Graphics/SVG/1.1/DTD/svg11.dtd">
<!-- Generated by graphviz version 2.43.0 (0)
 -->
<!-- Title: XCS::json_read Pages: 1 -->
<svg width="1170pt" height="648pt"
 viewBox="0.00 0.00 1170.00 648.00" xmlns="http://www.w3.org/2000/svg" xmlns:xlink="http://www.w3.org/1999/xlink">
<g id="graph0" class="graph" transform="scale(1 1) rotate(0) translate(4 644)">
<title>XCS::json_read</title>
<!-- Node1 -->
<g id="node1" class="node">
<title>Node1</title>
<g id="a_node1"><a xlink:title="Reads classifiers from a JSON file and adds to the population.">
<polygon fill="#bfbfbf" stroke="black" points="0,-139.5 0,-158.5 86,-158.5 86,-139.5 0,-139.5"/>
<text text-anchor="middle" x="43" y="-146.5" font-family="Helvetica,sans-Serif" font-size="10.00">XCS::json_read</text>
</a>
</g>
</g>
<!-- Node2 -->
<g id="node2" class="node">
<title>Node2</title>
<g id="a_node2"><a xlink:href="classXCS.html#af888b891afb66fbe06ba4919ef16adf9" target="_top" xlink:title="Creates classifiers from JSON and inserts into the population.">
<polygon fill="none" stroke="black" points="122,-139.5 122,-158.5 213,-158.5 213,-139.5 122,-139.5"/>
<text text-anchor="middle" x="167.5" y="-146.5" font-family="Helvetica,sans-Serif" font-size="10.00">XCS::json_insert</text>
</a>
</g>
</g>
<!-- Node1&#45;&gt;Node2 -->
<g id="edge1" class="edge">
<title>Node1&#45;&gt;Node2</title>
<path fill="none" stroke="midnightblue" d="M86.16,-149C94.33,-149 103,-149 111.5,-149"/>
<polygon fill="midnightblue" stroke="midnightblue" points="111.76,-152.5 121.76,-149 111.76,-145.5 111.76,-152.5"/>
</g>
<!-- Node3 -->
<g id="node3" class="node">
<title>Node3</title>
<g id="a_node3"><a xlink:href="clset_8c.html#a9092b6e9d9b731be1bd9a4303992fd43" target="_top" xlink:title="Creates classifiers from JSON and inserts into the population.">
<polygon fill="none" stroke="black" points="249,-139.5 249,-158.5 339,-158.5 339,-139.5 249,-139.5"/>
<text text-anchor="middle" x="294" y="-146.5" font-family="Helvetica,sans-Serif" font-size="10.00">clset_json_insert</text>
</a>
</g>
</g>
<!-- Node2&#45;&gt;Node3 -->
<g id="edge2" class="edge">
<title>Node2&#45;&gt;Node3</title>
<path fill="none" stroke="midnightblue" d="M213.1,-149C221.33,-149 230.01,-149 238.5,-149"/>
<polygon fill="midnightblue" stroke="midnightblue" points="238.72,-152.5 248.72,-149 238.72,-145.5 238.72,-152.5"/>
</g>
<!-- Node4 -->
<g id="node4" class="node">
<title>Node4</title>
<g id="a_node4"><a xlink:href="clset_8c.html#af6dd68a382ba6513d94925542da41f38" target="_top" xlink:title="Creates a classifier from cJSON and inserts in the population set.">
<polygon fill="none" stroke="black" points="383,-158.5 383,-177.5 486,-177.5 486,-158.5 383,-158.5"/>
<text text-anchor="middle" x="434.5" y="-165.5" font-family="Helvetica,sans-Serif" font-size="10.00">clset_json_insert_cl</text>
</a>
</g>
</g>
<!-- Node3&#45;&gt;Node4 -->
<g id="edge3" class="edge">
<title>Node3&#45;&gt;Node4</title>
<path fill="none" stroke="midnightblue" d="M339.2,-155.06C349.87,-156.53 361.45,-158.12 372.73,-159.66"/>
<polygon fill="midnightblue" stroke="midnightblue" points="372.59,-163.18 382.97,-161.07 373.54,-156.24 372.59,-163.18"/>
</g>
<!-- Node37 -->
<g id="node37" class="node">
<title>Node37</title>
<g id="a_node37"><a xlink:href="utils_8c.html#ab88f9e76233791f1e21ef22ba3a958b0" target="_top" xlink:title="Checks whether JSON parsed correctly.">
<polygon fill="none" stroke="black" points="375,-120.5 375,-139.5 494,-139.5 494,-120.5 375,-120.5"/>
<text text-anchor="middle" x="434.5" y="-127.5" font-family="Helvetica,sans-Serif" font-size="10.00">utils_json_parse_check</text>
</a>
</g>
</g>
<!-- Node3&#45;&gt;Node37 -->
<g id="edge37" class="edge">
<title>Node3&#45;&gt;Node37</title>
<path fill="none" stroke="midnightblue" d="M339.2,-142.94C347.34,-141.82 356.01,-140.63 364.67,-139.44"/>
<polygon fill="midnightblue" stroke="midnightblue" points="365.37,-142.88 374.8,-138.05 364.42,-135.94 365.37,-142.88"/>
</g>
<!-- Node5 -->
<g id="node5" class="node">
<title>Node5</title>
<g id="a_node5"><a xlink:href="cl_8c.html#ada9e7ce4c9c81af8ea0d1fd0dda59e3c" target="_top" xlink:title="Creates a classifier from a cJSON object.">
<polygon fill="none" stroke="black" points="539.5,-430.5 539.5,-449.5 619.5,-449.5 619.5,-430.5 539.5,-430.5"/>
<text text-anchor="middle" x="579.5" y="-437.5" font-family="Helvetica,sans-Serif" font-size="10.00">cl_json_import</text>
</a>
</g>
</g>
<!-- Node4&#45;&gt;Node5 -->
<g id="edge4" class="edge">
<title>Node4&#45;&gt;Node5</title>
<path fill="none" stroke="midnightblue" d="M440.59,-177.68C461.48,-217.42 540.88,-368.44 568.75,-421.46"/>
<polygon fill="midnightblue" stroke="midnightblue" points="565.72,-423.21 573.47,-430.44 571.92,-419.96 565.72,-423.21"/>
</g>
<!-- Node25 -->
<g id="node25" class="node">
<title>Node25</title>
<g id="a_node25"><a xlink:href="clset_8c.html#a64d33e6235c57f30a4a3ec82f18e57d6" target="_top" xlink:title="Adds a classifier to the set.">
<polygon fill="none" stroke="black" points="862,-152.5 862,-171.5 921,-171.5 921,-152.5 862,-152.5"/>
<text text-anchor="middle" x="891.5" y="-159.5" font-family="Helvetica,sans-Serif" font-size="10.00">clset_add</text>
</a>
</g>
</g>
<!-- Node4&#45;&gt;Node25 -->
<g id="edge24" class="edge">
<title>Node4&#45;&gt;Node25</title>
<path fill="none" stroke="midnightblue" d="M486.37,-167.33C578.12,-166.12 769.4,-163.6 851.59,-162.51"/>
<polygon fill="midnightblue" stroke="midnightblue" points="851.8,-166.01 861.76,-162.38 851.71,-159.01 851.8,-166.01"/>
</g>
<!-- Node26 -->
<g id="node26" class="node">
<title>Node26</title>
<g id="a_node26"><a xlink:href="clset_8c.html#a5e05b1d84c921f8f83e90d636b2f59fd" target="_top" xlink:title="Enforces the maximum population size limit.">
<polygon fill="none" stroke="black" points="530,-109 530,-139 629,-139 629,-109 530,-109"/>
<text text-anchor="start" x="538" y="-127" font-family="Helvetica,sans-Serif" font-size="10.00">clset_pset_enforce</text>
<text text-anchor="middle" x="579.5" y="-116" font-family="Helvetica,sans-Serif" font-size="10.00">_limit</text>
</a>
</g>
</g>
<!-- Node4&#45;&gt;Node26 -->
<g id="edge25" class="edge">
<title>Node4&#45;&gt;Node26</title>
<path fill="none" stroke="midnightblue" d="M466.53,-158.45C482.2,-153.63 501.73,-147.62 520.07,-141.98"/>
<polygon fill="midnightblue" stroke="midnightblue" points="521.29,-145.27 529.82,-138.98 519.23,-138.58 521.29,-145.27"/>
</g>
<!-- Node6 -->
<g id="node6" class="node">
<title>Node6</title>
<g id="a_node6"><a xlink:href="action_8h.html#a8ddc4aefec0235d2af07465f6d48e2ce" target="_top" xlink:title="Creates an action from a cJSON object.">
<polygon fill="none" stroke="black" points="686,-582.5 686,-601.5 772,-601.5 772,-582.5 686,-582.5"/>
<text text-anchor="middle" x="729" y="-589.5" font-family="Helvetica,sans-Serif" font-size="10.00">act_json_import</text>
</a>
</g>
</g>
<!-- Node5&#45;&gt;Node6 -->
<g id="edge5" class="edge">
<title>Node5&#45;&gt;Node6</title>
<path fill="none" stroke="midnightblue" d="M585.81,-449.53C597.79,-470.43 628.73,-521.02 665,-554 675.04,-563.13 687.6,-571.23 698.86,-577.58"/>
<polygon fill="midnightblue" stroke="midnightblue" points="697.46,-580.8 707.92,-582.48 700.79,-574.64 697.46,-580.8"/>
</g>
<!-- Node9 -->
<g id="node9" class="node">
<title>Node9</title>
<g id="a_node9"><a xlink:href="cl_8c.html#a188fac458e06c9a27e0e4069f7ddb68a" target="_top" xlink:title="Initialises a new classifier &#45; but not condition, action, prediction.">
<polygon fill="none" stroke="black" points="708,-525.5 708,-544.5 750,-544.5 750,-525.5 708,-525.5"/>
<text text-anchor="middle" x="729" y="-532.5" font-family="Helvetica,sans-Serif" font-size="10.00">cl_init</text>
</a>
</g>
</g>
<!-- Node5&#45;&gt;Node9 -->
<g id="edge8" class="edge">
<title>Node5&#45;&gt;Node9</title>
<path fill="none" stroke="midnightblue" d="M588.6,-449.64C602.58,-465.69 632.85,-497.9 665,-516 675.11,-521.69 687.11,-525.86 697.91,-528.81"/>
<polygon fill="midnightblue" stroke="midnightblue" points="697.25,-532.25 707.8,-531.28 698.95,-525.46 697.25,-532.25"/>
</g>
<!-- Node10 -->
<g id="node10" class="node">
<title>Node10</title>
<g id="a_node10"><a xlink:href="cl_8c.html#abc78504adf8a6060fcc3ec25efecaee5" target="_top" xlink:title="Sets a classifier&#39;s current properties from a cJSON object.">
<polygon fill="none" stroke="black" points="671.5,-487.5 671.5,-506.5 786.5,-506.5 786.5,-487.5 671.5,-487.5"/>
<text text-anchor="middle" x="729" y="-494.5" font-family="Helvetica,sans-Serif" font-size="10.00">cl_json_import_current</text>
</a>
</g>
</g>
<!-- Node5&#45;&gt;Node10 -->
<g id="edge9" class="edge">
<title>Node5&#45;&gt;Node10</title>
<path fill="none" stroke="midnightblue" d="M600,-449.64C616.94,-457.8 642.25,-469.49 665,-478 670.97,-480.23 677.33,-482.39 683.62,-484.41"/>
<polygon fill="midnightblue" stroke="midnightblue" points="682.81,-487.82 693.4,-487.44 684.89,-481.14 682.81,-487.82"/>
</g>
<!-- Node11 -->
<g id="node11" class="node">
<title>Node11</title>
<g id="a_node11"><a xlink:href="cl_8c.html#ae1015eda0df557040383c6678e3f0840" target="_top" xlink:title="Sets a classifier&#39;s properties from a cJSON object.">
<polygon fill="none" stroke="black" points="665,-449.5 665,-468.5 793,-468.5 793,-449.5 665,-449.5"/>
<text text-anchor="middle" x="729" y="-456.5" font-family="Helvetica,sans-Serif" font-size="10.00">cl_json_import_properties</text>
</a>
</g>
</g>
<!-- Node5&#45;&gt;Node11 -->
<g id="edge10" class="edge">
<title>Node5&#45;&gt;Node11</title>
<path fill="none" stroke="midnightblue" d="M619.64,-445.04C630.51,-446.44 642.67,-448.01 654.82,-449.57"/>
<polygon fill="midnightblue" stroke="midnightblue" points="654.62,-453.08 664.99,-450.88 655.52,-446.13 654.62,-453.08"/>
</g>
<!-- Node12 -->
<g id="node12" class="node">
<title>Node12</title>
<g id="a_node12"><a xlink:href="cl_8c.html#a47e450b7a0f97f3662080f311b6bad0d" target="_top" xlink:title="Initialises random actions, conditions and predictions.">
<polygon fill="none" stroke="black" points="705,-411.5 705,-430.5 753,-430.5 753,-411.5 705,-411.5"/>
<text text-anchor="middle" x="729" y="-418.5" font-family="Helvetica,sans-Serif" font-size="10.00">cl_rand</text>
</a>
</g>
</g>
<!-- Node5&#45;&gt;Node12 -->
<g id="edge11" class="edge">
<title>Node5&#45;&gt;Node12</title>
<path fill="none" stroke="midnightblue" d="M619.64,-434.96C643.07,-431.94 672.53,-428.15 694.81,-425.28"/>
<polygon fill="midnightblue" stroke="midnightblue" points="695.34,-428.74 704.81,-423.99 694.44,-421.79 695.34,-428.74"/>
</g>
<!-- Node19 -->
<g id="node19" class="node">
<title>Node19</title>
<g id="a_node19"><a xlink:href="condition_8h.html#a8ccc134194a65daacdb42e62a8df050e" target="_top" xlink:title="Creates a condition from a cJSON object.">
<polygon fill="none" stroke="black" points="682.5,-316.5 682.5,-335.5 775.5,-335.5 775.5,-316.5 682.5,-316.5"/>
<text text-anchor="middle" x="729" y="-323.5" font-family="Helvetica,sans-Serif" font-size="10.00">cond_json_import</text>
</a>
</g>
</g>
<!-- Node5&#45;&gt;Node19 -->
<g id="edge18" class="edge">
<title>Node5&#45;&gt;Node19</title>
<path fill="none" stroke="midnightblue" d="M592.82,-430.48C618.14,-410.91 676.23,-366.01 707.38,-341.94"/>
<polygon fill="midnightblue" stroke="midnightblue" points="709.63,-344.62 715.4,-335.74 705.35,-339.08 709.63,-344.62"/>
</g>
<!-- Node22 -->
<g id="node22" class="node">
<title>Node22</title>
<g id="a_node22"><a xlink:href="prediction_8h.html#a2e189fd3243b2e77d73b7fac5b52a9eb" target="_top" xlink:title="Creates a prediction from a cJSON object.">
<polygon fill="none" stroke="black" points="683.5,-240.5 683.5,-259.5 774.5,-259.5 774.5,-240.5 683.5,-240.5"/>
<text text-anchor="middle" x="729" y="-247.5" font-family="Helvetica,sans-Serif" font-size="10.00">pred_json_import</text>
</a>
</g>
</g>
<!-- Node5&#45;&gt;Node22 -->
<g id="edge21" class="edge">
<title>Node5&#45;&gt;Node22</title>
<path fill="none" stroke="midnightblue" d="M585.44,-430.38C597.36,-407.63 629.37,-349.24 665,-307 677.79,-291.83 694.54,-276.86 707.55,-266.08"/>
<polygon fill="midnightblue" stroke="midnightblue" points="709.93,-268.65 715.48,-259.63 705.51,-263.22 709.93,-268.65"/>
</g>
<!-- Node7 -->
<g id="node7" class="node">
<title>Node7</title>
<g id="a_node7"><a xlink:href="action_8h.html#a38d3209ab8ce0417631ce2359f6590a7" target="_top" xlink:title="Returns the integer representation of an action type given a name.">
<polygon fill="none" stroke="black" points="842.5,-620.5 842.5,-639.5 940.5,-639.5 940.5,-620.5 842.5,-620.5"/>
<text text-anchor="middle" x="891.5" y="-627.5" font-family="Helvetica,sans-Serif" font-size="10.00">action_type_as_int</text>
</a>
</g>
</g>
<!-- Node6&#45;&gt;Node7 -->
<g id="edge6" class="edge">
<title>Node6&#45;&gt;Node7</title>
<path fill="none" stroke="midnightblue" d="M770.5,-601.59C791.68,-606.6 817.8,-612.79 840.26,-618.11"/>
<polygon fill="midnightblue" stroke="midnightblue" points="839.75,-621.58 850.29,-620.48 841.37,-614.77 839.75,-621.58"/>
</g>
<!-- Node8 -->
<g id="node8" class="node">
<title>Node8</title>
<g id="a_node8"><a xlink:href="action_8h.html#a92f612de02989e82ef6c52bc7384f24f" target="_top" xlink:title="Returns a string representation of an action type from an integer.">
<polygon fill="none" stroke="black" points="835.5,-582.5 835.5,-601.5 947.5,-601.5 947.5,-582.5 835.5,-582.5"/>
<text text-anchor="middle" x="891.5" y="-589.5" font-family="Helvetica,sans-Serif" font-size="10.00">action_type_as_string</text>
</a>
</g>
</g>
<!-- Node6&#45;&gt;Node8 -->
<g id="edge7" class="edge">
<title>Node6&#45;&gt;Node8</title>
<path fill="none" stroke="midnightblue" d="M772.17,-592C788.39,-592 807.32,-592 825.22,-592"/>
<polygon fill="midnightblue" stroke="midnightblue" points="825.32,-595.5 835.32,-592 825.32,-588.5 825.32,-595.5"/>
</g>
<!-- Node13 -->
<g id="node13" class="node">
<title>Node13</title>
<g id="a_node13"><a xlink:href="action_8h.html#a124e361f0b13d0c29206bd9c05bd9fd4" target="_top" xlink:title="Initialises a classifier&#39;s action.">
<polygon fill="none" stroke="black" points="867.5,-544.5 867.5,-563.5 915.5,-563.5 915.5,-544.5 867.5,-544.5"/>
<text text-anchor="middle" x="891.5" y="-551.5" font-family="Helvetica,sans-Serif" font-size="10.00">act_init</text>
</a>
</g>
</g>
<!-- Node12&#45;&gt;Node13 -->
<g id="edge12" class="edge">
<title>Node12&#45;&gt;Node13</title>
<path fill="none" stroke="midnightblue" d="M753.18,-422.97C766.31,-425.2 782.22,-429.95 793,-440 826.01,-470.8 796.09,-504.09 829,-535 836.76,-542.29 847.26,-546.78 857.38,-549.55"/>
<polygon fill="midnightblue" stroke="midnightblue" points="856.74,-553 867.27,-551.79 858.29,-546.17 856.74,-553"/>
</g>
<!-- Node14 -->
<g id="node14" class="node">
<title>Node14</title>
<g id="a_node14"><a xlink:href="action_8c.html#a57d1606f2517912f1f56018f095761e9" target="_top" xlink:title="Sets a classifier&#39;s action functions to the implementations.">
<polygon fill="none" stroke="black" points="860.5,-506.5 860.5,-525.5 922.5,-525.5 922.5,-506.5 860.5,-506.5"/>
<text text-anchor="middle" x="891.5" y="-513.5" font-family="Helvetica,sans-Serif" font-size="10.00">action_set</text>
</a>
</g>
</g>
<!-- Node12&#45;&gt;Node14 -->
<g id="edge13" class="edge">
<title>Node12&#45;&gt;Node14</title>
<path fill="none" stroke="midnightblue" d="M753.07,-423.92C765.86,-426.47 781.45,-431.22 793,-440 816.85,-458.14 805.21,-478.78 829,-497 835.36,-501.87 842.99,-505.51 850.67,-508.21"/>
<polygon fill="midnightblue" stroke="midnightblue" points="849.75,-511.59 860.33,-511.17 851.79,-504.9 849.75,-511.59"/>
</g>
<!-- Node15 -->
<g id="node15" class="node">
<title>Node15</title>
<g id="a_node15"><a xlink:href="condition_8h.html#ad8a71ebe28cc52430a49610bfe5f7836" target="_top" xlink:title="Initialises a classifier&#39;s condition.">
<polygon fill="none" stroke="black" points="863.5,-468.5 863.5,-487.5 919.5,-487.5 919.5,-468.5 863.5,-468.5"/>
<text text-anchor="middle" x="891.5" y="-475.5" font-family="Helvetica,sans-Serif" font-size="10.00">cond_init</text>
</a>
</g>
</g>
<!-- Node12&#45;&gt;Node15 -->
<g id="edge14" class="edge">
<title>Node12&#45;&gt;Node15</title>
<path fill="none" stroke="midnightblue" d="M753.11,-426.82C765.19,-430.15 780.11,-434.71 793,-440 809.74,-446.87 812.29,-452.08 829,-459 836.85,-462.25 845.47,-465.25 853.7,-467.86"/>
<polygon fill="midnightblue" stroke="midnightblue" points="852.89,-471.27 863.48,-470.83 854.93,-464.57 852.89,-471.27"/>
</g>
<!-- Node16 -->
<g id="node16" class="node">
<title>Node16</title>
<g id="a_node16"><a xlink:href="condition_8c.html#a16981837f523cea3a917404e441981b3" target="_top" xlink:title="Sets a classifier&#39;s condition functions to the implementations.">
<polygon fill="none" stroke="black" points="854.5,-430.5 854.5,-449.5 928.5,-449.5 928.5,-430.5 854.5,-430.5"/>
<text text-anchor="middle" x="891.5" y="-437.5" font-family="Helvetica,sans-Serif" font-size="10.00">condition_set</text>
</a>
</g>
</g>
<!-- Node12&#45;&gt;Node16 -->
<g id="edge15" class="edge">
<title>Node12&#45;&gt;Node16</title>
<path fill="none" stroke="midnightblue" d="M753.34,-423.76C777.06,-426.57 814.45,-431 844.2,-434.52"/>
<polygon fill="midnightblue" stroke="midnightblue" points="844.03,-438.02 854.37,-435.72 844.85,-431.07 844.03,-438.02"/>
</g>
<!-- Node17 -->
<g id="node17" class="node">
<title>Node17</title>
<g id="a_node17"><a xlink:href="prediction_8h.html#ac18761d16e606f80e814a15d1770d367" target="_top" xlink:title="Initialises a classifier&#39;s prediction.">
<polygon fill="none" stroke="black" points="865,-392.5 865,-411.5 918,-411.5 918,-392.5 865,-392.5"/>
<text text-anchor="middle" x="891.5" y="-399.5" font-family="Helvetica,sans-Serif" font-size="10.00">pred_init</text>
</a>
</g>
</g>
<!-- Node12&#45;&gt;Node17 -->
<g id="edge16" class="edge">
<title>Node12&#45;&gt;Node17</title>
<path fill="none" stroke="midnightblue" d="M753.34,-418.24C779.97,-415.08 823.84,-409.89 854.79,-406.23"/>
<polygon fill="midnightblue" stroke="midnightblue" points="855.22,-409.7 864.74,-405.05 854.4,-402.75 855.22,-409.7"/>
</g>
<!-- Node18 -->
<g id="node18" class="node">
<title>Node18</title>
<g id="a_node18"><a xlink:href="prediction_8c.html#a81ad118db1c9b692c45880e6f3a33ec4" target="_top" xlink:title="Sets a classifier&#39;s prediction functions to the implementations.">
<polygon fill="none" stroke="black" points="853,-354.5 853,-373.5 930,-373.5 930,-354.5 853,-354.5"/>
<text text-anchor="middle" x="891.5" y="-361.5" font-family="Helvetica,sans-Serif" font-size="10.00">prediction_set</text>
</a>
</g>
</g>
<!-- Node12&#45;&gt;Node18 -->
<g id="edge17" class="edge">
<title>Node12&#45;&gt;Node18</title>
<path fill="none" stroke="midnightblue" d="M753.04,-411.65C773.01,-403.68 802.73,-392.09 829,-383 835.17,-380.87 841.72,-378.72 848.17,-376.67"/>
<polygon fill="midnightblue" stroke="midnightblue" points="849.63,-379.88 858.13,-373.56 847.54,-373.2 849.63,-379.88"/>
</g>
<!-- Node20 -->
<g id="node20" class="node">
<title>Node20</title>
<g id="a_node20"><a xlink:href="condition_8h.html#a654e570bc807e2c15a6d963b31d3caf2" target="_top" xlink:title="Returns the integer representation of a condition type given a name.">
<polygon fill="none" stroke="black" points="836,-316.5 836,-335.5 947,-335.5 947,-316.5 836,-316.5"/>
<text text-anchor="middle" x="891.5" y="-323.5" font-family="Helvetica,sans-Serif" font-size="10.00">condition_type_as_int</text>
</a>
</g>
</g>
<!-- Node19&#45;&gt;Node20 -->
<g id="edge19" class="edge">
<title>Node19&#45;&gt;Node20</title>
<path fill="none" stroke="midnightblue" d="M775.56,-326C791.14,-326 808.88,-326 825.69,-326"/>
<polygon fill="midnightblue" stroke="midnightblue" points="826,-329.5 836,-326 826,-322.5 826,-329.5"/>
</g>
<!-- Node21 -->
<g id="node21" class="node">
<title>Node21</title>
<g id="a_node21"><a xlink:href="condition_8h.html#af5a052e347755190271b32d8b09ec026" target="_top" xlink:title="Returns a string representation of a condition type from an integer.">
<polygon fill="none" stroke="black" points="829,-278.5 829,-297.5 954,-297.5 954,-278.5 829,-278.5"/>
<text text-anchor="middle" x="891.5" y="-285.5" font-family="Helvetica,sans-Serif" font-size="10.00">condition_type_as_string</text>
</a>
</g>
</g>
<!-- Node19&#45;&gt;Node21 -->
<g id="edge20" class="edge">
<title>Node19&#45;&gt;Node21</title>
<path fill="none" stroke="midnightblue" d="M770.5,-316.41C791.68,-311.4 817.8,-305.21 840.26,-299.89"/>
<polygon fill="midnightblue" stroke="midnightblue" points="841.37,-303.23 850.29,-297.52 839.75,-296.42 841.37,-303.23"/>
</g>
<!-- Node23 -->
<g id="node23" class="node">
<title>Node23</title>
<g id="a_node23"><a xlink:href="prediction_8h.html#a5f5a019c886d5bdf8bf9a3876a5a95bd" target="_top" xlink:title="Returns the integer representation of a prediction type given a name.">
<polygon fill="none" stroke="black" points="834.5,-240.5 834.5,-259.5 948.5,-259.5 948.5,-240.5 834.5,-240.5"/>
<text text-anchor="middle" x="891.5" y="-247.5" font-family="Helvetica,sans-Serif" font-size="10.00">prediction_type_as_int</text>
</a>
</g>
</g>
<!-- Node22&#45;&gt;Node23 -->
<g id="edge22" class="edge">
<title>Node22&#45;&gt;Node23</title>
<path fill="none" stroke="midnightblue" d="M774.71,-250C789.99,-250 807.44,-250 824.06,-250"/>
<polygon fill="midnightblue" stroke="midnightblue" points="824.28,-253.5 834.28,-250 824.28,-246.5 824.28,-253.5"/>
</g>
<!-- Node24 -->
<g id="node24" class="node">
<title>Node24</title>
<g id="a_node24"><a xlink:href="prediction_8h.html#a085a8402296bdeab95f54299040e6e0e" target="_top" xlink:title="Returns a string representation of a prediction type from the integer.">
<polygon fill="none" stroke="black" points="842.5,-191 842.5,-221 940.5,-221 940.5,-191 842.5,-191"/>
<text text-anchor="start" x="850.5" y="-209" font-family="Helvetica,sans-Serif" font-size="10.00">prediction_type_as</text>
<text text-anchor="middle" x="891.5" y="-198" font-family="Helvetica,sans-Serif" font-size="10.00">_string</text>
</a>
</g>
</g>
<!-- Node22&#45;&gt;Node24 -->
<g id="edge23" class="edge">
<title>Node22&#45;&gt;Node24</title>
<path fill="none" stroke="midnightblue" d="M764.83,-240.45C784.58,-235.04 809.82,-228.12 832.48,-221.91"/>
<polygon fill="midnightblue" stroke="midnightblue" points="833.63,-225.22 842.35,-219.2 831.78,-218.47 833.63,-225.22"/>
</g>
<!-- Node27 -->
<g id="node27" class="node">
<title>Node27</title>
<g id="a_node27"><a xlink:href="clset_8c.html#a106a72afb7785af1d1b639736a6340be" target="_top" xlink:title="Deletes a single classifier from the population set.">
<polygon fill="none" stroke="black" points="689,-114.5 689,-133.5 769,-133.5 769,-114.5 689,-114.5"/>
<text text-anchor="middle" x="729" y="-121.5" font-family="Helvetica,sans-Serif" font-size="10.00">clset_pset_del</text>
</a>
</g>
</g>
<!-- Node26&#45;&gt;Node27 -->
<g id="edge26" class="edge">
<title>Node26&#45;&gt;Node27</title>
<path fill="none" stroke="midnightblue" d="M629.21,-124C645.04,-124 662.62,-124 678.51,-124"/>
<polygon fill="midnightblue" stroke="midnightblue" points="678.67,-127.5 688.67,-124 678.67,-120.5 678.67,-127.5"/>
</g>
<!-- Node27&#45;&gt;Node25 -->
<g id="edge27" class="edge">
<title>Node27&#45;&gt;Node25</title>
<path fill="none" stroke="midnightblue" d="M769.26,-133.3C794.47,-139.26 827.04,-146.98 852.08,-152.9"/>
<polygon fill="midnightblue" stroke="midnightblue" points="851.42,-156.35 861.96,-155.24 853.04,-149.53 851.42,-156.35"/>
</g>
<!-- Node28 -->
<g id="node28" class="node">
<title>Node28</title>
<g id="a_node28"><a xlink:href="clset_8c.html#a7e9703db2e290a5b852b1112f52f4803" target="_top" xlink:title="Finds a rule in the population that never matches an input.">
<polygon fill="none" stroke="black" points="830,-114.5 830,-133.5 953,-133.5 953,-114.5 830,-114.5"/>
<text text-anchor="middle" x="891.5" y="-121.5" font-family="Helvetica,sans-Serif" font-size="10.00">clset_pset_never_match</text>
</a>
</g>
</g>
<!-- Node27&#45;&gt;Node28 -->
<g id="edge28" class="edge">
<title>Node27&#45;&gt;Node28</title>
<path fill="none" stroke="midnightblue" d="M769.26,-124C784.47,-124 802.36,-124 819.66,-124"/>
<polygon fill="midnightblue" stroke="midnightblue" points="819.75,-127.5 829.75,-124 819.75,-120.5 819.75,-127.5"/>
</g>
<!-- Node29 -->
<g id="node29" class="node">
<title>Node29</title>
<g id="a_node29"><a xlink:href="clset_8c.html#a7ddb1248094ce9b41cf314b833798b29" target="_top" xlink:title="Selects a classifier from the population for deletion via roulette.">
<polygon fill="none" stroke="black" points="842,-76.5 842,-95.5 941,-95.5 941,-76.5 842,-76.5"/>
<text text-anchor="middle" x="891.5" y="-83.5" font-family="Helvetica,sans-Serif" font-size="10.00">clset_pset_roulette</text>
</a>
</g>
</g>
<!-- Node27&#45;&gt;Node29 -->
<g id="edge29" class="edge">
<title>Node27&#45;&gt;Node29</title>
<path fill="none" stroke="midnightblue" d="M769.26,-114.7C790.69,-109.63 817.44,-103.3 840.35,-97.87"/>
<polygon fill="midnightblue" stroke="midnightblue" points="841.32,-101.24 850.25,-95.53 839.71,-94.43 841.32,-101.24"/>
</g>
<!-- Node30 -->
<g id="node30" class="node">
<title>Node30</title>
<g id="a_node30"><a xlink:href="cl_8c.html#a281f748c300892281088a51455c6657b" target="_top" xlink:title="Returns the size of a classifier&#39;s condition.">
<polygon fill="none" stroke="black" points="990.5,-152.5 990.5,-171.5 1064.5,-171.5 1064.5,-152.5 990.5,-152.5"/>
<text text-anchor="middle" x="1027.5" y="-159.5" font-family="Helvetica,sans-Serif" font-size="10.00">cl_cond_size</text>
</a>
</g>
</g>
<!-- Node29&#45;&gt;Node30 -->
<g id="edge30" class="edge">
<title>Node29&#45;&gt;Node30</title>
<path fill="none" stroke="midnightblue" d="M933.82,-95.54C940.83,-98.05 947.83,-101.17 954,-105 973.76,-117.28 971.43,-128.99 990,-143 992.05,-144.54 994.24,-146.03 996.49,-147.44"/>
<polygon fill="midnightblue" stroke="midnightblue" points="994.9,-150.56 1005.32,-152.49 998.37,-144.48 994.9,-150.56"/>
</g>
<!-- Node32 -->
<g id="node32" class="node">
<title>Node32</title>
<g id="a_node32"><a xlink:href="cl_8c.html#ae083f9dc65912cf983795d134006e236" target="_top" xlink:title="Returns the deletion vote of a classifier.">
<polygon fill="none" stroke="black" points="994.5,-114.5 994.5,-133.5 1060.5,-133.5 1060.5,-114.5 994.5,-114.5"/>
<text text-anchor="middle" x="1027.5" y="-121.5" font-family="Helvetica,sans-Serif" font-size="10.00">cl_del_vote</text>
</a>
</g>
</g>
<!-- Node29&#45;&gt;Node32 -->
<g id="edge32" class="edge">
<title>Node29&#45;&gt;Node32</title>
<path fill="none" stroke="midnightblue" d="M926.31,-95.59C943.93,-100.58 965.63,-106.74 984.33,-112.04"/>
<polygon fill="midnightblue" stroke="midnightblue" points="983.51,-115.45 994.08,-114.81 985.42,-108.71 983.51,-115.45"/>
</g>
<!-- Node33 -->
<g id="node33" class="node">
<title>Node33</title>
<g id="a_node33"><a xlink:href="cl_8c.html#a038173dbbcd18ef6820dfb07e7ea0d39" target="_top" xlink:title="Returns the size of a classifier&#39;s prediction.">
<polygon fill="none" stroke="black" points="992,-76.5 992,-95.5 1063,-95.5 1063,-76.5 992,-76.5"/>
<text text-anchor="middle" x="1027.5" y="-83.5" font-family="Helvetica,sans-Serif" font-size="10.00">cl_pred_size</text>
</a>
</g>
</g>
<!-- Node29&#45;&gt;Node33 -->
<g id="edge33" class="edge">
<title>Node29&#45;&gt;Node33</title>
<path fill="none" stroke="midnightblue" d="M941.26,-86C954.48,-86 968.74,-86 981.73,-86"/>
<polygon fill="midnightblue" stroke="midnightblue" points="981.84,-89.5 991.84,-86 981.84,-82.5 981.84,-89.5"/>
</g>
<!-- Node35 -->
<g id="node35" class="node">
<title>Node35</title>
<g id="a_node35"><a xlink:href="clset_8c.html#a27da8860873485883cc85edfac13da87" target="_top" xlink:title="Calculates the total fitness of classifiers in the set.">
<polygon fill="none" stroke="black" points="990,-38.5 990,-57.5 1065,-57.5 1065,-38.5 990,-38.5"/>
<text text-anchor="middle" x="1027.5" y="-45.5" font-family="Helvetica,sans-Serif" font-size="10.00">clset_total_fit</text>
</a>
</g>
</g>
<!-- Node29&#45;&gt;Node35 -->
<g id="edge35" class="edge">
<title>Node29&#45;&gt;Node35</title>
<path fill="none" stroke="midnightblue" d="M926.31,-76.41C943.53,-71.53 964.66,-65.54 983.07,-60.32"/>
<polygon fill="midnightblue" stroke="midnightblue" points="984.03,-63.68 992.7,-57.59 982.12,-56.95 984.03,-63.68"/>
</g>
<!-- Node36 -->
<g id="node36" class="node">
<title>Node36</title>
<g id="a_node36"><a xlink:href="utils_8c.html#a972761ba8f47a6c3e7396a7c685158fc" target="_top" xlink:title="Returns a uniform random float [min,max].">
<polygon fill="none" stroke="black" points="991,-0.5 991,-19.5 1064,-19.5 1064,-0.5 991,-0.5"/>
<text text-anchor="middle" x="1027.5" y="-7.5" font-family="Helvetica,sans-Serif" font-size="10.00">rand_uniform</text>
</a>
</g>
</g>
<!-- Node29&#45;&gt;Node36 -->
<g id="edge36" class="edge">
<title>Node29&#45;&gt;Node36</title>
<path fill="none" stroke="midnightblue" d="M908.24,-76.48C927.4,-64.96 960.82,-45.11 990,-29 992.73,-27.49 995.58,-25.95 998.45,-24.43"/>
<polygon fill="midnightblue" stroke="midnightblue" points="1000.24,-27.44 1007.46,-19.69 996.98,-21.24 1000.24,-27.44"/>
</g>
<!-- Node31 -->
<g id="node31" class="node">
<title>Node31</title>
<g id="a_node31"><a xlink:href="condition_8h.html#ab5392bcc5c6bee45ac2612c7c560be5c" target="_top" xlink:title="Returns the size of the classifier condition.">
<polygon fill="none" stroke="black" points="1101,-152.5 1101,-171.5 1162,-171.5 1162,-152.5 1101,-152.5"/>
<text text-anchor="middle" x="1131.5" y="-159.5" font-family="Helvetica,sans-Serif" font-size="10.00">cond_size</text>
</a>
</g>
</g>
<!-- Node30&#45;&gt;Node31 -->
<g id="edge31" class="edge">
<title>Node30&#45;&gt;Node31</title>
<path fill="none" stroke="midnightblue" d="M1064.75,-162C1073.13,-162 1082.1,-162 1090.63,-162"/>
<polygon fill="midnightblue" stroke="midnightblue" points="1090.76,-165.5 1100.76,-162 1090.76,-158.5 1090.76,-165.5"/>
</g>
<!-- Node34 -->
<g id="node34" class="node">
<title>Node34</title>
<g id="a_node34"><a xlink:href="prediction_8h.html#a0ac1eb269367fc7adb967e3cb4b2db50" target="_top" xlink:title="Returns the size of the classifier prediction.">
<polygon fill="none" stroke="black" points="1102,-76.5 1102,-95.5 1161,-95.5 1161,-76.5 1102,-76.5"/>
<text text-anchor="middle" x="1131.5" y="-83.5" font-family="Helvetica,sans-Serif" font-size="10.00">pred_size</text>
</a>
</g>
</g>
<!-- Node33&#45;&gt;Node34 -->
<g id="edge34" class="edge">
<title>Node33&#45;&gt;Node34</title>
<path fill="none" stroke="midnightblue" d="M1063.03,-86C1072.19,-86 1082.13,-86 1091.51,-86"/>
<polygon fill="midnightblue" stroke="midnightblue" points="1091.77,-89.5 1101.77,-86 1091.77,-82.5 1091.77,-89.5"/>
</g>
</g>
</svg>
