<?xml version="1.0" encoding="UTF-8" standalone="no"?>
<!DOCTYPE svg PUBLIC "-//W3C//DTD SVG 1.1//EN"
 "http://www.w3.org/Graphics/SVG/1.1/DTD/svg11.dtd">
<!-- Generated by graphviz version 2.43.0 (0)
 -->
<!-- Title: XCS::get_pset_mean_pred_size Pages: 1 -->
<svg width="470pt" height="38pt"
 viewBox="0.00 0.00 470.00 38.00" xmlns="http://www.w3.org/2000/svg" xmlns:xlink="http://www.w3.org/1999/xlink">
<g id="graph0" class="graph" transform="scale(1 1) rotate(0) translate(4 34)">
<title>XCS::get_pset_mean_pred_size</title>
<!-- Node1 -->
<g id="Node000001" class="node">
<title>Node1</title>
<g id="a_Node000001"><a xlink:title=" ">
<polygon fill="#999999" stroke="#666666" points="110,-30 0,-30 0,0 110,0 110,-30"/>
<text text-anchor="start" x="8" y="-18" font-family="Helvetica,sans-Serif" font-size="10.00">XCS::get_pset_mean</text>
<text text-anchor="middle" x="55" y="-7" font-family="Helvetica,sans-Serif" font-size="10.00">_pred_size</text>
</a>
</g>
</g>
<!-- Node2 -->
<g id="Node000002" class="node">
<title>Node2</title>
<g id="a_Node000002"><a xlink:href="clset_8c.html#a0afeb87ed1c766c0cde8adfaf73cdf50" target="_top" xlink:title="Calculates the mean prediction size of classifiers in the set.">
<polygon fill="white" stroke="#666666" points="260,-24.5 146,-24.5 146,-5.5 260,-5.5 260,-24.5"/>
<text text-anchor="middle" x="203" y="-12.5" font-family="Helvetica,sans-Serif" font-size="10.00">clset_mean_pred_size</text>
</a>
</g>
</g>
<!-- Node1&#45;&gt;Node2 -->
<g id="edge1_Node000001_Node000002" class="edge">
<title>Node1&#45;&gt;Node2</title>
<g id="a_edge1_Node000001_Node000002"><a xlink:title=" ">
<path fill="none" stroke="#63b8ff" d="M110.37,-15C118.55,-15 127.07,-15 135.47,-15"/>
<polygon fill="#63b8ff" stroke="#63b8ff" points="135.64,-18.5 145.64,-15 135.64,-11.5 135.64,-18.5"/>
</a>
</g>
</g>
<!-- Node3 -->
<g id="Node000003" class="node">
<title>Node3</title>
<g id="a_Node000003"><a xlink:href="cl_8c.html#a038173dbbcd18ef6820dfb07e7ea0d39" target="_top" xlink:title="Returns the size of a classifier&#39;s prediction.">
<polygon fill="white" stroke="#666666" points="367,-24.5 296,-24.5 296,-5.5 367,-5.5 367,-24.5"/>
<text text-anchor="middle" x="331.5" y="-12.5" font-family="Helvetica,sans-Serif" font-size="10.00">cl_pred_size</text>
</a>
</g>
</g>
<!-- Node2&#45;&gt;Node3 -->
<g id="edge2_Node000002_Node000003" class="edge">
<title>Node2&#45;&gt;Node3</title>
<g id="a_edge2_Node000002_Node000003"><a xlink:title=" ">
<path fill="none" stroke="#63b8ff" d="M260.22,-15C268.76,-15 277.47,-15 285.72,-15"/>
<polygon fill="#63b8ff" stroke="#63b8ff" points="285.88,-18.5 295.88,-15 285.88,-11.5 285.88,-18.5"/>
</a>
</g>
</g>
<!-- Node4 -->
<g id="Node000004" class="node">
<title>Node4</title>
<g id="a_Node000004"><a xlink:href="prediction_8h.html#a0ac1eb269367fc7adb967e3cb4b2db50" target="_top" xlink:title="Returns the size of the classifier prediction.">
<polygon fill="white" stroke="#666666" points="462,-24.5 403,-24.5 403,-5.5 462,-5.5 462,-24.5"/>
<text text-anchor="middle" x="432.5" y="-12.5" font-family="Helvetica,sans-Serif" font-size="10.00">pred_size</text>
</a>
</g>
</g>
<!-- Node3&#45;&gt;Node4 -->
<g id="edge3_Node000003_Node000004" class="edge">
<title>Node3&#45;&gt;Node4</title>
<g id="a_edge3_Node000003_Node000004"><a xlink:title=" ">
<path fill="none" stroke="#63b8ff" d="M367.13,-15C375.45,-15 384.39,-15 392.89,-15"/>
<polygon fill="#63b8ff" stroke="#63b8ff" points="392.95,-18.5 402.95,-15 392.95,-11.5 392.95,-18.5"/>
</a>
</g>
</g>
</g>
</svg>
