<?xml version="1.0" encoding="UTF-8" standalone="no"?>
<!DOCTYPE svg PUBLIC "-//W3C//DTD SVG 1.1//EN"
 "http://www.w3.org/Graphics/SVG/1.1/DTD/svg11.dtd">
<!-- Generated by graphviz version 2.43.0 (0)
 -->
<!-- Title: XCS::json_insert Pages: 1 -->
<svg width="1048pt" height="648pt"
 viewBox="0.00 0.00 1048.00 648.00" xmlns="http://www.w3.org/2000/svg" xmlns:xlink="http://www.w3.org/1999/xlink">
<g id="graph0" class="graph" transform="scale(1 1) rotate(0) translate(4 644)">
<title>XCS::json_insert</title>
<!-- Node1 -->
<g id="node1" class="node">
<title>Node1</title>
<g id="a_node1"><a xlink:title="Creates classifiers from JSON and inserts into the population.">
<polygon fill="#bfbfbf" stroke="black" points="0,-139.5 0,-158.5 91,-158.5 91,-139.5 0,-139.5"/>
<text text-anchor="middle" x="45.5" y="-146.5" font-family="Helvetica,sans-Serif" font-size="10.00">XCS::json_insert</text>
</a>
</g>
</g>
<!-- Node2 -->
<g id="node2" class="node">
<title>Node2</title>
<g id="a_node2"><a xlink:href="clset_8c.html#a9092b6e9d9b731be1bd9a4303992fd43" target="_top" xlink:title="Creates classifiers from JSON and inserts into the population.">
<polygon fill="none" stroke="black" points="127,-139.5 127,-158.5 217,-158.5 217,-139.5 127,-139.5"/>
<text text-anchor="middle" x="172" y="-146.5" font-family="Helvetica,sans-Serif" font-size="10.00">clset_json_insert</text>
</a>
</g>
</g>
<!-- Node1&#45;&gt;Node2 -->
<g id="edge1" class="edge">
<title>Node1&#45;&gt;Node2</title>
<path fill="none" stroke="midnightblue" d="M91.1,-149C99.33,-149 108.01,-149 116.5,-149"/>
<polygon fill="midnightblue" stroke="midnightblue" points="116.72,-152.5 126.72,-149 116.72,-145.5 116.72,-152.5"/>
</g>
<!-- Node3 -->
<g id="node3" class="node">
<title>Node3</title>
<g id="a_node3"><a xlink:href="clset_8c.html#af6dd68a382ba6513d94925542da41f38" target="_top" xlink:title="Creates a classifier from cJSON and inserts in the population set.">
<polygon fill="none" stroke="black" points="261,-158.5 261,-177.5 364,-177.5 364,-158.5 261,-158.5"/>
<text text-anchor="middle" x="312.5" y="-165.5" font-family="Helvetica,sans-Serif" font-size="10.00">clset_json_insert_cl</text>
</a>
</g>
</g>
<!-- Node2&#45;&gt;Node3 -->
<g id="edge2" class="edge">
<title>Node2&#45;&gt;Node3</title>
<path fill="none" stroke="midnightblue" d="M217.2,-155.06C227.87,-156.53 239.45,-158.12 250.73,-159.66"/>
<polygon fill="midnightblue" stroke="midnightblue" points="250.59,-163.18 260.97,-161.07 251.54,-156.24 250.59,-163.18"/>
</g>
<!-- Node36 -->
<g id="node36" class="node">
<title>Node36</title>
<g id="a_node36"><a xlink:href="utils_8c.html#ab88f9e76233791f1e21ef22ba3a958b0" target="_top" xlink:title="Checks whether JSON parsed correctly.">
<polygon fill="none" stroke="black" points="253,-120.5 253,-139.5 372,-139.5 372,-120.5 253,-120.5"/>
<text text-anchor="middle" x="312.5" y="-127.5" font-family="Helvetica,sans-Serif" font-size="10.00">utils_json_parse_check</text>
</a>
</g>
</g>
<!-- Node2&#45;&gt;Node36 -->
<g id="edge36" class="edge">
<title>Node2&#45;&gt;Node36</title>
<path fill="none" stroke="midnightblue" d="M217.2,-142.94C225.34,-141.82 234.01,-140.63 242.67,-139.44"/>
<polygon fill="midnightblue" stroke="midnightblue" points="243.37,-142.88 252.8,-138.05 242.42,-135.94 243.37,-142.88"/>
</g>
<!-- Node4 -->
<g id="node4" class="node">
<title>Node4</title>
<g id="a_node4"><a xlink:href="cl_8c.html#ada9e7ce4c9c81af8ea0d1fd0dda59e3c" target="_top" xlink:title="Creates a classifier from a cJSON object.">
<polygon fill="none" stroke="black" points="417.5,-430.5 417.5,-449.5 497.5,-449.5 497.5,-430.5 417.5,-430.5"/>
<text text-anchor="middle" x="457.5" y="-437.5" font-family="Helvetica,sans-Serif" font-size="10.00">cl_json_import</text>
</a>
</g>
</g>
<!-- Node3&#45;&gt;Node4 -->
<g id="edge3" class="edge">
<title>Node3&#45;&gt;Node4</title>
<path fill="none" stroke="midnightblue" d="M318.59,-177.68C339.48,-217.42 418.88,-368.44 446.75,-421.46"/>
<polygon fill="midnightblue" stroke="midnightblue" points="443.72,-423.21 451.47,-430.44 449.92,-419.96 443.72,-423.21"/>
</g>
<!-- Node24 -->
<g id="node24" class="node">
<title>Node24</title>
<g id="a_node24"><a xlink:href="clset_8c.html#a64d33e6235c57f30a4a3ec82f18e57d6" target="_top" xlink:title="Adds a classifier to the set.">
<polygon fill="none" stroke="black" points="740,-152.5 740,-171.5 799,-171.5 799,-152.5 740,-152.5"/>
<text text-anchor="middle" x="769.5" y="-159.5" font-family="Helvetica,sans-Serif" font-size="10.00">clset_add</text>
</a>
</g>
</g>
<!-- Node3&#45;&gt;Node24 -->
<g id="edge23" class="edge">
<title>Node3&#45;&gt;Node24</title>
<path fill="none" stroke="midnightblue" d="M364.37,-167.33C456.12,-166.12 647.4,-163.6 729.59,-162.51"/>
<polygon fill="midnightblue" stroke="midnightblue" points="729.8,-166.01 739.76,-162.38 729.71,-159.01 729.8,-166.01"/>
</g>
<!-- Node25 -->
<g id="node25" class="node">
<title>Node25</title>
<g id="a_node25"><a xlink:href="clset_8c.html#a5e05b1d84c921f8f83e90d636b2f59fd" target="_top" xlink:title="Enforces the maximum population size limit.">
<polygon fill="none" stroke="black" points="408,-109 408,-139 507,-139 507,-109 408,-109"/>
<text text-anchor="start" x="416" y="-127" font-family="Helvetica,sans-Serif" font-size="10.00">clset_pset_enforce</text>
<text text-anchor="middle" x="457.5" y="-116" font-family="Helvetica,sans-Serif" font-size="10.00">_limit</text>
</a>
</g>
</g>
<!-- Node3&#45;&gt;Node25 -->
<g id="edge24" class="edge">
<title>Node3&#45;&gt;Node25</title>
<path fill="none" stroke="midnightblue" d="M344.53,-158.45C360.2,-153.63 379.73,-147.62 398.07,-141.98"/>
<polygon fill="midnightblue" stroke="midnightblue" points="399.29,-145.27 407.82,-138.98 397.23,-138.58 399.29,-145.27"/>
</g>
<!-- Node5 -->
<g id="node5" class="node">
<title>Node5</title>
<g id="a_node5"><a xlink:href="action_8h.html#a8ddc4aefec0235d2af07465f6d48e2ce" target="_top" xlink:title="Creates an action from a cJSON object.">
<polygon fill="none" stroke="black" points="564,-582.5 564,-601.5 650,-601.5 650,-582.5 564,-582.5"/>
<text text-anchor="middle" x="607" y="-589.5" font-family="Helvetica,sans-Serif" font-size="10.00">act_json_import</text>
</a>
</g>
</g>
<!-- Node4&#45;&gt;Node5 -->
<g id="edge4" class="edge">
<title>Node4&#45;&gt;Node5</title>
<path fill="none" stroke="midnightblue" d="M463.81,-449.53C475.79,-470.43 506.73,-521.02 543,-554 553.04,-563.13 565.6,-571.23 576.86,-577.58"/>
<polygon fill="midnightblue" stroke="midnightblue" points="575.46,-580.8 585.92,-582.48 578.79,-574.64 575.46,-580.8"/>
</g>
<!-- Node8 -->
<g id="node8" class="node">
<title>Node8</title>
<g id="a_node8"><a xlink:href="cl_8c.html#a188fac458e06c9a27e0e4069f7ddb68a" target="_top" xlink:title="Initialises a new classifier &#45; but not condition, action, prediction.">
<polygon fill="none" stroke="black" points="586,-525.5 586,-544.5 628,-544.5 628,-525.5 586,-525.5"/>
<text text-anchor="middle" x="607" y="-532.5" font-family="Helvetica,sans-Serif" font-size="10.00">cl_init</text>
</a>
</g>
</g>
<!-- Node4&#45;&gt;Node8 -->
<g id="edge7" class="edge">
<title>Node4&#45;&gt;Node8</title>
<path fill="none" stroke="midnightblue" d="M466.6,-449.64C480.58,-465.69 510.85,-497.9 543,-516 553.11,-521.69 565.11,-525.86 575.91,-528.81"/>
<polygon fill="midnightblue" stroke="midnightblue" points="575.25,-532.25 585.8,-531.28 576.95,-525.46 575.25,-532.25"/>
</g>
<!-- Node9 -->
<g id="node9" class="node">
<title>Node9</title>
<g id="a_node9"><a xlink:href="cl_8c.html#abc78504adf8a6060fcc3ec25efecaee5" target="_top" xlink:title="Sets a classifier&#39;s current properties from a cJSON object.">
<polygon fill="none" stroke="black" points="549.5,-487.5 549.5,-506.5 664.5,-506.5 664.5,-487.5 549.5,-487.5"/>
<text text-anchor="middle" x="607" y="-494.5" font-family="Helvetica,sans-Serif" font-size="10.00">cl_json_import_current</text>
</a>
</g>
</g>
<!-- Node4&#45;&gt;Node9 -->
<g id="edge8" class="edge">
<title>Node4&#45;&gt;Node9</title>
<path fill="none" stroke="midnightblue" d="M478,-449.64C494.94,-457.8 520.25,-469.49 543,-478 548.97,-480.23 555.33,-482.39 561.62,-484.41"/>
<polygon fill="midnightblue" stroke="midnightblue" points="560.81,-487.82 571.4,-487.44 562.89,-481.14 560.81,-487.82"/>
</g>
<!-- Node10 -->
<g id="node10" class="node">
<title>Node10</title>
<g id="a_node10"><a xlink:href="cl_8c.html#ae1015eda0df557040383c6678e3f0840" target="_top" xlink:title="Sets a classifier&#39;s properties from a cJSON object.">
<polygon fill="none" stroke="black" points="543,-449.5 543,-468.5 671,-468.5 671,-449.5 543,-449.5"/>
<text text-anchor="middle" x="607" y="-456.5" font-family="Helvetica,sans-Serif" font-size="10.00">cl_json_import_properties</text>
</a>
</g>
</g>
<!-- Node4&#45;&gt;Node10 -->
<g id="edge9" class="edge">
<title>Node4&#45;&gt;Node10</title>
<path fill="none" stroke="midnightblue" d="M497.64,-445.04C508.51,-446.44 520.67,-448.01 532.82,-449.57"/>
<polygon fill="midnightblue" stroke="midnightblue" points="532.62,-453.08 542.99,-450.88 533.52,-446.13 532.62,-453.08"/>
</g>
<!-- Node11 -->
<g id="node11" class="node">
<title>Node11</title>
<g id="a_node11"><a xlink:href="cl_8c.html#a47e450b7a0f97f3662080f311b6bad0d" target="_top" xlink:title="Initialises random actions, conditions and predictions.">
<polygon fill="none" stroke="black" points="583,-411.5 583,-430.5 631,-430.5 631,-411.5 583,-411.5"/>
<text text-anchor="middle" x="607" y="-418.5" font-family="Helvetica,sans-Serif" font-size="10.00">cl_rand</text>
</a>
</g>
</g>
<!-- Node4&#45;&gt;Node11 -->
<g id="edge10" class="edge">
<title>Node4&#45;&gt;Node11</title>
<path fill="none" stroke="midnightblue" d="M497.64,-434.96C521.07,-431.94 550.53,-428.15 572.81,-425.28"/>
<polygon fill="midnightblue" stroke="midnightblue" points="573.34,-428.74 582.81,-423.99 572.44,-421.79 573.34,-428.74"/>
</g>
<!-- Node18 -->
<g id="node18" class="node">
<title>Node18</title>
<g id="a_node18"><a xlink:href="condition_8h.html#a8ccc134194a65daacdb42e62a8df050e" target="_top" xlink:title="Creates a condition from a cJSON object.">
<polygon fill="none" stroke="black" points="560.5,-316.5 560.5,-335.5 653.5,-335.5 653.5,-316.5 560.5,-316.5"/>
<text text-anchor="middle" x="607" y="-323.5" font-family="Helvetica,sans-Serif" font-size="10.00">cond_json_import</text>
</a>
</g>
</g>
<!-- Node4&#45;&gt;Node18 -->
<g id="edge17" class="edge">
<title>Node4&#45;&gt;Node18</title>
<path fill="none" stroke="midnightblue" d="M470.82,-430.48C496.14,-410.91 554.23,-366.01 585.38,-341.94"/>
<polygon fill="midnightblue" stroke="midnightblue" points="587.63,-344.62 593.4,-335.74 583.35,-339.08 587.63,-344.62"/>
</g>
<!-- Node21 -->
<g id="node21" class="node">
<title>Node21</title>
<g id="a_node21"><a xlink:href="prediction_8h.html#a2e189fd3243b2e77d73b7fac5b52a9eb" target="_top" xlink:title="Creates a prediction from a cJSON object.">
<polygon fill="none" stroke="black" points="561.5,-240.5 561.5,-259.5 652.5,-259.5 652.5,-240.5 561.5,-240.5"/>
<text text-anchor="middle" x="607" y="-247.5" font-family="Helvetica,sans-Serif" font-size="10.00">pred_json_import</text>
</a>
</g>
</g>
<!-- Node4&#45;&gt;Node21 -->
<g id="edge20" class="edge">
<title>Node4&#45;&gt;Node21</title>
<path fill="none" stroke="midnightblue" d="M463.44,-430.38C475.36,-407.63 507.37,-349.24 543,-307 555.79,-291.83 572.54,-276.86 585.55,-266.08"/>
<polygon fill="midnightblue" stroke="midnightblue" points="587.93,-268.65 593.48,-259.63 583.51,-263.22 587.93,-268.65"/>
</g>
<!-- Node6 -->
<g id="node6" class="node">
<title>Node6</title>
<g id="a_node6"><a xlink:href="action_8h.html#a38d3209ab8ce0417631ce2359f6590a7" target="_top" xlink:title="Returns the integer representation of an action type given a name.">
<polygon fill="none" stroke="black" points="720.5,-620.5 720.5,-639.5 818.5,-639.5 818.5,-620.5 720.5,-620.5"/>
<text text-anchor="middle" x="769.5" y="-627.5" font-family="Helvetica,sans-Serif" font-size="10.00">action_type_as_int</text>
</a>
</g>
</g>
<!-- Node5&#45;&gt;Node6 -->
<g id="edge5" class="edge">
<title>Node5&#45;&gt;Node6</title>
<path fill="none" stroke="midnightblue" d="M648.5,-601.59C669.68,-606.6 695.8,-612.79 718.26,-618.11"/>
<polygon fill="midnightblue" stroke="midnightblue" points="717.75,-621.58 728.29,-620.48 719.37,-614.77 717.75,-621.58"/>
</g>
<!-- Node7 -->
<g id="node7" class="node">
<title>Node7</title>
<g id="a_node7"><a xlink:href="action_8h.html#a92f612de02989e82ef6c52bc7384f24f" target="_top" xlink:title="Returns a string representation of an action type from an integer.">
<polygon fill="none" stroke="black" points="713.5,-582.5 713.5,-601.5 825.5,-601.5 825.5,-582.5 713.5,-582.5"/>
<text text-anchor="middle" x="769.5" y="-589.5" font-family="Helvetica,sans-Serif" font-size="10.00">action_type_as_string</text>
</a>
</g>
</g>
<!-- Node5&#45;&gt;Node7 -->
<g id="edge6" class="edge">
<title>Node5&#45;&gt;Node7</title>
<path fill="none" stroke="midnightblue" d="M650.17,-592C666.39,-592 685.32,-592 703.22,-592"/>
<polygon fill="midnightblue" stroke="midnightblue" points="703.32,-595.5 713.32,-592 703.32,-588.5 703.32,-595.5"/>
</g>
<!-- Node12 -->
<g id="node12" class="node">
<title>Node12</title>
<g id="a_node12"><a xlink:href="action_8h.html#a124e361f0b13d0c29206bd9c05bd9fd4" target="_top" xlink:title="Initialises a classifier&#39;s action.">
<polygon fill="none" stroke="black" points="745.5,-544.5 745.5,-563.5 793.5,-563.5 793.5,-544.5 745.5,-544.5"/>
<text text-anchor="middle" x="769.5" y="-551.5" font-family="Helvetica,sans-Serif" font-size="10.00">act_init</text>
</a>
</g>
</g>
<!-- Node11&#45;&gt;Node12 -->
<g id="edge11" class="edge">
<title>Node11&#45;&gt;Node12</title>
<path fill="none" stroke="midnightblue" d="M631.18,-422.97C644.31,-425.2 660.22,-429.95 671,-440 704.01,-470.8 674.09,-504.09 707,-535 714.76,-542.29 725.26,-546.78 735.38,-549.55"/>
<polygon fill="midnightblue" stroke="midnightblue" points="734.74,-553 745.27,-551.79 736.29,-546.17 734.74,-553"/>
</g>
<!-- Node13 -->
<g id="node13" class="node">
<title>Node13</title>
<g id="a_node13"><a xlink:href="action_8c.html#a57d1606f2517912f1f56018f095761e9" target="_top" xlink:title="Sets a classifier&#39;s action functions to the implementations.">
<polygon fill="none" stroke="black" points="738.5,-506.5 738.5,-525.5 800.5,-525.5 800.5,-506.5 738.5,-506.5"/>
<text text-anchor="middle" x="769.5" y="-513.5" font-family="Helvetica,sans-Serif" font-size="10.00">action_set</text>
</a>
</g>
</g>
<!-- Node11&#45;&gt;Node13 -->
<g id="edge12" class="edge">
<title>Node11&#45;&gt;Node13</title>
<path fill="none" stroke="midnightblue" d="M631.07,-423.92C643.86,-426.47 659.45,-431.22 671,-440 694.85,-458.14 683.21,-478.78 707,-497 713.36,-501.87 720.99,-505.51 728.67,-508.21"/>
<polygon fill="midnightblue" stroke="midnightblue" points="727.75,-511.59 738.33,-511.17 729.79,-504.9 727.75,-511.59"/>
</g>
<!-- Node14 -->
<g id="node14" class="node">
<title>Node14</title>
<g id="a_node14"><a xlink:href="condition_8h.html#ad8a71ebe28cc52430a49610bfe5f7836" target="_top" xlink:title="Initialises a classifier&#39;s condition.">
<polygon fill="none" stroke="black" points="741.5,-468.5 741.5,-487.5 797.5,-487.5 797.5,-468.5 741.5,-468.5"/>
<text text-anchor="middle" x="769.5" y="-475.5" font-family="Helvetica,sans-Serif" font-size="10.00">cond_init</text>
</a>
</g>
</g>
<!-- Node11&#45;&gt;Node14 -->
<g id="edge13" class="edge">
<title>Node11&#45;&gt;Node14</title>
<path fill="none" stroke="midnightblue" d="M631.11,-426.82C643.19,-430.15 658.11,-434.71 671,-440 687.74,-446.87 690.29,-452.08 707,-459 714.85,-462.25 723.47,-465.25 731.7,-467.86"/>
<polygon fill="midnightblue" stroke="midnightblue" points="730.89,-471.27 741.48,-470.83 732.93,-464.57 730.89,-471.27"/>
</g>
<!-- Node15 -->
<g id="node15" class="node">
<title>Node15</title>
<g id="a_node15"><a xlink:href="condition_8c.html#a16981837f523cea3a917404e441981b3" target="_top" xlink:title="Sets a classifier&#39;s condition functions to the implementations.">
<polygon fill="none" stroke="black" points="732.5,-430.5 732.5,-449.5 806.5,-449.5 806.5,-430.5 732.5,-430.5"/>
<text text-anchor="middle" x="769.5" y="-437.5" font-family="Helvetica,sans-Serif" font-size="10.00">condition_set</text>
</a>
</g>
</g>
<!-- Node11&#45;&gt;Node15 -->
<g id="edge14" class="edge">
<title>Node11&#45;&gt;Node15</title>
<path fill="none" stroke="midnightblue" d="M631.34,-423.76C655.06,-426.57 692.45,-431 722.2,-434.52"/>
<polygon fill="midnightblue" stroke="midnightblue" points="722.03,-438.02 732.37,-435.72 722.85,-431.07 722.03,-438.02"/>
</g>
<!-- Node16 -->
<g id="node16" class="node">
<title>Node16</title>
<g id="a_node16"><a xlink:href="prediction_8h.html#ac18761d16e606f80e814a15d1770d367" target="_top" xlink:title="Initialises a classifier&#39;s prediction.">
<polygon fill="none" stroke="black" points="743,-392.5 743,-411.5 796,-411.5 796,-392.5 743,-392.5"/>
<text text-anchor="middle" x="769.5" y="-399.5" font-family="Helvetica,sans-Serif" font-size="10.00">pred_init</text>
</a>
</g>
</g>
<!-- Node11&#45;&gt;Node16 -->
<g id="edge15" class="edge">
<title>Node11&#45;&gt;Node16</title>
<path fill="none" stroke="midnightblue" d="M631.34,-418.24C657.97,-415.08 701.84,-409.89 732.79,-406.23"/>
<polygon fill="midnightblue" stroke="midnightblue" points="733.22,-409.7 742.74,-405.05 732.4,-402.75 733.22,-409.7"/>
</g>
<!-- Node17 -->
<g id="node17" class="node">
<title>Node17</title>
<g id="a_node17"><a xlink:href="prediction_8c.html#a81ad118db1c9b692c45880e6f3a33ec4" target="_top" xlink:title="Sets a classifier&#39;s prediction functions to the implementations.">
<polygon fill="none" stroke="black" points="731,-354.5 731,-373.5 808,-373.5 808,-354.5 731,-354.5"/>
<text text-anchor="middle" x="769.5" y="-361.5" font-family="Helvetica,sans-Serif" font-size="10.00">prediction_set</text>
</a>
</g>
</g>
<!-- Node11&#45;&gt;Node17 -->
<g id="edge16" class="edge">
<title>Node11&#45;&gt;Node17</title>
<path fill="none" stroke="midnightblue" d="M631.04,-411.65C651.01,-403.68 680.73,-392.09 707,-383 713.17,-380.87 719.72,-378.72 726.17,-376.67"/>
<polygon fill="midnightblue" stroke="midnightblue" points="727.63,-379.88 736.13,-373.56 725.54,-373.2 727.63,-379.88"/>
</g>
<!-- Node19 -->
<g id="node19" class="node">
<title>Node19</title>
<g id="a_node19"><a xlink:href="condition_8h.html#a654e570bc807e2c15a6d963b31d3caf2" target="_top" xlink:title="Returns the integer representation of a condition type given a name.">
<polygon fill="none" stroke="black" points="714,-316.5 714,-335.5 825,-335.5 825,-316.5 714,-316.5"/>
<text text-anchor="middle" x="769.5" y="-323.5" font-family="Helvetica,sans-Serif" font-size="10.00">condition_type_as_int</text>
</a>
</g>
</g>
<!-- Node18&#45;&gt;Node19 -->
<g id="edge18" class="edge">
<title>Node18&#45;&gt;Node19</title>
<path fill="none" stroke="midnightblue" d="M653.56,-326C669.14,-326 686.88,-326 703.69,-326"/>
<polygon fill="midnightblue" stroke="midnightblue" points="704,-329.5 714,-326 704,-322.5 704,-329.5"/>
</g>
<!-- Node20 -->
<g id="node20" class="node">
<title>Node20</title>
<g id="a_node20"><a xlink:href="condition_8h.html#af5a052e347755190271b32d8b09ec026" target="_top" xlink:title="Returns a string representation of a condition type from an integer.">
<polygon fill="none" stroke="black" points="707,-278.5 707,-297.5 832,-297.5 832,-278.5 707,-278.5"/>
<text text-anchor="middle" x="769.5" y="-285.5" font-family="Helvetica,sans-Serif" font-size="10.00">condition_type_as_string</text>
</a>
</g>
</g>
<!-- Node18&#45;&gt;Node20 -->
<g id="edge19" class="edge">
<title>Node18&#45;&gt;Node20</title>
<path fill="none" stroke="midnightblue" d="M648.5,-316.41C669.68,-311.4 695.8,-305.21 718.26,-299.89"/>
<polygon fill="midnightblue" stroke="midnightblue" points="719.37,-303.23 728.29,-297.52 717.75,-296.42 719.37,-303.23"/>
</g>
<!-- Node22 -->
<g id="node22" class="node">
<title>Node22</title>
<g id="a_node22"><a xlink:href="prediction_8h.html#a5f5a019c886d5bdf8bf9a3876a5a95bd" target="_top" xlink:title="Returns the integer representation of a prediction type given a name.">
<polygon fill="none" stroke="black" points="712.5,-240.5 712.5,-259.5 826.5,-259.5 826.5,-240.5 712.5,-240.5"/>
<text text-anchor="middle" x="769.5" y="-247.5" font-family="Helvetica,sans-Serif" font-size="10.00">prediction_type_as_int</text>
</a>
</g>
</g>
<!-- Node21&#45;&gt;Node22 -->
<g id="edge21" class="edge">
<title>Node21&#45;&gt;Node22</title>
<path fill="none" stroke="midnightblue" d="M652.71,-250C667.99,-250 685.44,-250 702.06,-250"/>
<polygon fill="midnightblue" stroke="midnightblue" points="702.28,-253.5 712.28,-250 702.28,-246.5 702.28,-253.5"/>
</g>
<!-- Node23 -->
<g id="node23" class="node">
<title>Node23</title>
<g id="a_node23"><a xlink:href="prediction_8h.html#a085a8402296bdeab95f54299040e6e0e" target="_top" xlink:title="Returns a string representation of a prediction type from the integer.">
<polygon fill="none" stroke="black" points="720.5,-191 720.5,-221 818.5,-221 818.5,-191 720.5,-191"/>
<text text-anchor="start" x="728.5" y="-209" font-family="Helvetica,sans-Serif" font-size="10.00">prediction_type_as</text>
<text text-anchor="middle" x="769.5" y="-198" font-family="Helvetica,sans-Serif" font-size="10.00">_string</text>
</a>
</g>
</g>
<!-- Node21&#45;&gt;Node23 -->
<g id="edge22" class="edge">
<title>Node21&#45;&gt;Node23</title>
<path fill="none" stroke="midnightblue" d="M642.83,-240.45C662.58,-235.04 687.82,-228.12 710.48,-221.91"/>
<polygon fill="midnightblue" stroke="midnightblue" points="711.63,-225.22 720.35,-219.2 709.78,-218.47 711.63,-225.22"/>
</g>
<!-- Node26 -->
<g id="node26" class="node">
<title>Node26</title>
<g id="a_node26"><a xlink:href="clset_8c.html#a106a72afb7785af1d1b639736a6340be" target="_top" xlink:title="Deletes a single classifier from the population set.">
<polygon fill="none" stroke="black" points="567,-114.5 567,-133.5 647,-133.5 647,-114.5 567,-114.5"/>
<text text-anchor="middle" x="607" y="-121.5" font-family="Helvetica,sans-Serif" font-size="10.00">clset_pset_del</text>
</a>
</g>
</g>
<!-- Node25&#45;&gt;Node26 -->
<g id="edge25" class="edge">
<title>Node25&#45;&gt;Node26</title>
<path fill="none" stroke="midnightblue" d="M507.21,-124C523.04,-124 540.62,-124 556.51,-124"/>
<polygon fill="midnightblue" stroke="midnightblue" points="556.67,-127.5 566.67,-124 556.67,-120.5 556.67,-127.5"/>
</g>
<!-- Node26&#45;&gt;Node24 -->
<g id="edge26" class="edge">
<title>Node26&#45;&gt;Node24</title>
<path fill="none" stroke="midnightblue" d="M647.26,-133.3C672.47,-139.26 705.04,-146.98 730.08,-152.9"/>
<polygon fill="midnightblue" stroke="midnightblue" points="729.42,-156.35 739.96,-155.24 731.04,-149.53 729.42,-156.35"/>
</g>
<!-- Node27 -->
<g id="node27" class="node">
<title>Node27</title>
<g id="a_node27"><a xlink:href="clset_8c.html#a7e9703db2e290a5b852b1112f52f4803" target="_top" xlink:title="Finds a rule in the population that never matches an input.">
<polygon fill="none" stroke="black" points="708,-114.5 708,-133.5 831,-133.5 831,-114.5 708,-114.5"/>
<text text-anchor="middle" x="769.5" y="-121.5" font-family="Helvetica,sans-Serif" font-size="10.00">clset_pset_never_match</text>
</a>
</g>
</g>
<!-- Node26&#45;&gt;Node27 -->
<g id="edge27" class="edge">
<title>Node26&#45;&gt;Node27</title>
<path fill="none" stroke="midnightblue" d="M647.26,-124C662.47,-124 680.36,-124 697.66,-124"/>
<polygon fill="midnightblue" stroke="midnightblue" points="697.75,-127.5 707.75,-124 697.75,-120.5 697.75,-127.5"/>
</g>
<!-- Node28 -->
<g id="node28" class="node">
<title>Node28</title>
<g id="a_node28"><a xlink:href="clset_8c.html#a7ddb1248094ce9b41cf314b833798b29" target="_top" xlink:title="Selects a classifier from the population for deletion via roulette.">
<polygon fill="none" stroke="black" points="720,-76.5 720,-95.5 819,-95.5 819,-76.5 720,-76.5"/>
<text text-anchor="middle" x="769.5" y="-83.5" font-family="Helvetica,sans-Serif" font-size="10.00">clset_pset_roulette</text>
</a>
</g>
</g>
<!-- Node26&#45;&gt;Node28 -->
<g id="edge28" class="edge">
<title>Node26&#45;&gt;Node28</title>
<path fill="none" stroke="midnightblue" d="M647.26,-114.7C668.69,-109.63 695.44,-103.3 718.35,-97.87"/>
<polygon fill="midnightblue" stroke="midnightblue" points="719.32,-101.24 728.25,-95.53 717.71,-94.43 719.32,-101.24"/>
</g>
<!-- Node29 -->
<g id="node29" class="node">
<title>Node29</title>
<g id="a_node29"><a xlink:href="cl_8c.html#a281f748c300892281088a51455c6657b" target="_top" xlink:title="Returns the size of a classifier&#39;s condition.">
<polygon fill="none" stroke="black" points="868.5,-152.5 868.5,-171.5 942.5,-171.5 942.5,-152.5 868.5,-152.5"/>
<text text-anchor="middle" x="905.5" y="-159.5" font-family="Helvetica,sans-Serif" font-size="10.00">cl_cond_size</text>
</a>
</g>
</g>
<!-- Node28&#45;&gt;Node29 -->
<g id="edge29" class="edge">
<title>Node28&#45;&gt;Node29</title>
<path fill="none" stroke="midnightblue" d="M811.82,-95.54C818.83,-98.05 825.83,-101.17 832,-105 851.76,-117.28 849.43,-128.99 868,-143 870.05,-144.54 872.24,-146.03 874.49,-147.44"/>
<polygon fill="midnightblue" stroke="midnightblue" points="872.9,-150.56 883.32,-152.49 876.37,-144.48 872.9,-150.56"/>
</g>
<!-- Node31 -->
<g id="node31" class="node">
<title>Node31</title>
<g id="a_node31"><a xlink:href="cl_8c.html#ae083f9dc65912cf983795d134006e236" target="_top" xlink:title="Returns the deletion vote of a classifier.">
<polygon fill="none" stroke="black" points="872.5,-114.5 872.5,-133.5 938.5,-133.5 938.5,-114.5 872.5,-114.5"/>
<text text-anchor="middle" x="905.5" y="-121.5" font-family="Helvetica,sans-Serif" font-size="10.00">cl_del_vote</text>
</a>
</g>
</g>
<!-- Node28&#45;&gt;Node31 -->
<g id="edge31" class="edge">
<title>Node28&#45;&gt;Node31</title>
<path fill="none" stroke="midnightblue" d="M804.31,-95.59C821.93,-100.58 843.63,-106.74 862.33,-112.04"/>
<polygon fill="midnightblue" stroke="midnightblue" points="861.51,-115.45 872.08,-114.81 863.42,-108.71 861.51,-115.45"/>
</g>
<!-- Node32 -->
<g id="node32" class="node">
<title>Node32</title>
<g id="a_node32"><a xlink:href="cl_8c.html#a038173dbbcd18ef6820dfb07e7ea0d39" target="_top" xlink:title="Returns the size of a classifier&#39;s prediction.">
<polygon fill="none" stroke="black" points="870,-76.5 870,-95.5 941,-95.5 941,-76.5 870,-76.5"/>
<text text-anchor="middle" x="905.5" y="-83.5" font-family="Helvetica,sans-Serif" font-size="10.00">cl_pred_size</text>
</a>
</g>
</g>
<!-- Node28&#45;&gt;Node32 -->
<g id="edge32" class="edge">
<title>Node28&#45;&gt;Node32</title>
<path fill="none" stroke="midnightblue" d="M819.26,-86C832.48,-86 846.74,-86 859.73,-86"/>
<polygon fill="midnightblue" stroke="midnightblue" points="859.84,-89.5 869.84,-86 859.84,-82.5 859.84,-89.5"/>
</g>
<!-- Node34 -->
<g id="node34" class="node">
<title>Node34</title>
<g id="a_node34"><a xlink:href="clset_8c.html#a27da8860873485883cc85edfac13da87" target="_top" xlink:title="Calculates the total fitness of classifiers in the set.">
<polygon fill="none" stroke="black" points="868,-38.5 868,-57.5 943,-57.5 943,-38.5 868,-38.5"/>
<text text-anchor="middle" x="905.5" y="-45.5" font-family="Helvetica,sans-Serif" font-size="10.00">clset_total_fit</text>
</a>
</g>
</g>
<!-- Node28&#45;&gt;Node34 -->
<g id="edge34" class="edge">
<title>Node28&#45;&gt;Node34</title>
<path fill="none" stroke="midnightblue" d="M804.31,-76.41C821.53,-71.53 842.66,-65.54 861.07,-60.32"/>
<polygon fill="midnightblue" stroke="midnightblue" points="862.03,-63.68 870.7,-57.59 860.12,-56.95 862.03,-63.68"/>
</g>
<!-- Node35 -->
<g id="node35" class="node">
<title>Node35</title>
<g id="a_node35"><a xlink:href="utils_8c.html#a972761ba8f47a6c3e7396a7c685158fc" target="_top" xlink:title="Returns a uniform random float [min,max].">
<polygon fill="none" stroke="black" points="869,-0.5 869,-19.5 942,-19.5 942,-0.5 869,-0.5"/>
<text text-anchor="middle" x="905.5" y="-7.5" font-family="Helvetica,sans-Serif" font-size="10.00">rand_uniform</text>
</a>
</g>
</g>
<!-- Node28&#45;&gt;Node35 -->
<g id="edge35" class="edge">
<title>Node28&#45;&gt;Node35</title>
<path fill="none" stroke="midnightblue" d="M786.24,-76.48C805.4,-64.96 838.82,-45.11 868,-29 870.73,-27.49 873.58,-25.95 876.45,-24.43"/>
<polygon fill="midnightblue" stroke="midnightblue" points="878.24,-27.44 885.46,-19.69 874.98,-21.24 878.24,-27.44"/>
</g>
<!-- Node30 -->
<g id="node30" class="node">
<title>Node30</title>
<g id="a_node30"><a xlink:href="condition_8h.html#ab5392bcc5c6bee45ac2612c7c560be5c" target="_top" xlink:title="Returns the size of the classifier condition.">
<polygon fill="none" stroke="black" points="979,-152.5 979,-171.5 1040,-171.5 1040,-152.5 979,-152.5"/>
<text text-anchor="middle" x="1009.5" y="-159.5" font-family="Helvetica,sans-Serif" font-size="10.00">cond_size</text>
</a>
</g>
</g>
<!-- Node29&#45;&gt;Node30 -->
<g id="edge30" class="edge">
<title>Node29&#45;&gt;Node30</title>
<path fill="none" stroke="midnightblue" d="M942.75,-162C951.13,-162 960.1,-162 968.63,-162"/>
<polygon fill="midnightblue" stroke="midnightblue" points="968.76,-165.5 978.76,-162 968.76,-158.5 968.76,-165.5"/>
</g>
<!-- Node33 -->
<g id="node33" class="node">
<title>Node33</title>
<g id="a_node33"><a xlink:href="prediction_8h.html#a0ac1eb269367fc7adb967e3cb4b2db50" target="_top" xlink:title="Returns the size of the classifier prediction.">
<polygon fill="none" stroke="black" points="980,-76.5 980,-95.5 1039,-95.5 1039,-76.5 980,-76.5"/>
<text text-anchor="middle" x="1009.5" y="-83.5" font-family="Helvetica,sans-Serif" font-size="10.00">pred_size</text>
</a>
</g>
</g>
<!-- Node32&#45;&gt;Node33 -->
<g id="edge33" class="edge">
<title>Node32&#45;&gt;Node33</title>
<path fill="none" stroke="midnightblue" d="M941.03,-86C950.19,-86 960.13,-86 969.51,-86"/>
<polygon fill="midnightblue" stroke="midnightblue" points="969.77,-89.5 979.77,-86 969.77,-82.5 969.77,-89.5"/>
</g>
</g>
</svg>
