<?xml version="1.0" encoding="UTF-8" standalone="no"?>
<!DOCTYPE svg PUBLIC "-//W3C//DTD SVG 1.1//EN"
 "http://www.w3.org/Graphics/SVG/1.1/DTD/svg11.dtd">
<!-- Generated by graphviz version 2.43.0 (0)
 -->
<!-- Title: XCS::unpack_act_neural Pages: 1 -->
<svg width="618pt" height="183pt"
 viewBox="0.00 0.00 618.00 183.00" xmlns="http://www.w3.org/2000/svg" xmlns:xlink="http://www.w3.org/1999/xlink">
<g id="graph0" class="graph" transform="scale(1 1) rotate(0) translate(4 179)">
<title>XCS::unpack_act_neural</title>
<!-- Node1 -->
<g id="node1" class="node">
<title>Node1</title>
<g id="a_node1"><a xlink:title="Sets parameters used by neural network actions.">
<polygon fill="#bfbfbf" stroke="black" points="0,-98.5 0,-117.5 125,-117.5 125,-98.5 0,-98.5"/>
<text text-anchor="middle" x="62.5" y="-105.5" font-family="Helvetica,sans-Serif" font-size="10.00">XCS::unpack_act_neural</text>
</a>
</g>
</g>
<!-- Node2 -->
<g id="node2" class="node">
<title>Node2</title>
<g id="a_node2"><a xlink:href="neural__layer__args_8c.html#a477d2c5cf9da9413c6dba66b5d7f7aff" target="_top" xlink:title="Frees memory used by a list of layer parameters and points to NULL.">
<polygon fill="none" stroke="black" points="189,-155.5 189,-174.5 272,-174.5 272,-155.5 189,-155.5"/>
<text text-anchor="middle" x="230.5" y="-162.5" font-family="Helvetica,sans-Serif" font-size="10.00">layer_args_free</text>
</a>
</g>
</g>
<!-- Node1&#45;&gt;Node2 -->
<g id="edge1" class="edge">
<title>Node1&#45;&gt;Node2</title>
<path fill="none" stroke="midnightblue" d="M86.11,-117.56C105.73,-125.68 134.97,-137.34 161,-146 167.92,-148.3 175.3,-150.56 182.56,-152.66"/>
<polygon fill="midnightblue" stroke="midnightblue" points="181.75,-156.07 192.32,-155.42 183.65,-149.33 181.75,-156.07"/>
</g>
<!-- Node3 -->
<g id="node3" class="node">
<title>Node3</title>
<g id="a_node3"><a xlink:href="neural__layer__args_8c.html#a3b06e82bed7fc9a8915d6187ce08d33e" target="_top" xlink:title="Sets layer parameters to default values.">
<polygon fill="none" stroke="black" points="190.5,-117.5 190.5,-136.5 270.5,-136.5 270.5,-117.5 190.5,-117.5"/>
<text text-anchor="middle" x="230.5" y="-124.5" font-family="Helvetica,sans-Serif" font-size="10.00">layer_args_init</text>
</a>
</g>
</g>
<!-- Node1&#45;&gt;Node3 -->
<g id="edge2" class="edge">
<title>Node1&#45;&gt;Node3</title>
<path fill="none" stroke="midnightblue" d="M125.31,-115.07C143.33,-117.14 162.77,-119.36 179.93,-121.33"/>
<polygon fill="midnightblue" stroke="midnightblue" points="179.95,-124.85 190.28,-122.51 180.74,-117.9 179.95,-124.85"/>
</g>
<!-- Node4 -->
<g id="node4" class="node">
<title>Node4</title>
<g id="a_node4"><a xlink:href="neural__layer__args_8c.html#a492de2de029ff6124f8fe466ad6b0d80" target="_top" xlink:title="Checks network layer arguments are valid.">
<polygon fill="none" stroke="black" points="180,-79.5 180,-98.5 281,-98.5 281,-79.5 180,-79.5"/>
<text text-anchor="middle" x="230.5" y="-86.5" font-family="Helvetica,sans-Serif" font-size="10.00">layer_args_validate</text>
</a>
</g>
</g>
<!-- Node1&#45;&gt;Node4 -->
<g id="edge3" class="edge">
<title>Node1&#45;&gt;Node4</title>
<path fill="none" stroke="midnightblue" d="M125.31,-100.93C139.78,-99.27 155.16,-97.51 169.54,-95.86"/>
<polygon fill="midnightblue" stroke="midnightblue" points="170.27,-99.3 179.81,-94.69 169.48,-92.35 170.27,-99.3"/>
</g>
<!-- Node7 -->
<g id="node7" class="node">
<title>Node7</title>
<g id="a_node7"><a xlink:href="classXCS.html#af09f858d1d3594b2eb806a24efc2c8f9" target="_top" xlink:title="Sets parameters used by a neural network layer.">
<polygon fill="none" stroke="black" points="161,-38.5 161,-57.5 300,-57.5 300,-38.5 161,-38.5"/>
<text text-anchor="middle" x="230.5" y="-45.5" font-family="Helvetica,sans-Serif" font-size="10.00">XCS::unpack_layer_params</text>
</a>
</g>
</g>
<!-- Node1&#45;&gt;Node7 -->
<g id="edge6" class="edge">
<title>Node1&#45;&gt;Node7</title>
<path fill="none" stroke="midnightblue" d="M86.99,-98.38C106.65,-90.44 135.49,-79.06 161,-70 169.9,-66.84 179.53,-63.62 188.66,-60.67"/>
<polygon fill="midnightblue" stroke="midnightblue" points="189.88,-63.95 198.33,-57.57 187.74,-57.29 189.88,-63.95"/>
</g>
<!-- Node5 -->
<g id="node5" class="node">
<title>Node5</title>
<g id="a_node5"><a xlink:href="neural__layer__args_8c.html#a8e1a02c60d1cbe0baba8f2c6ff0b5266" target="_top" xlink:title="Checks input layer arguments are valid.">
<polygon fill="none" stroke="black" points="346.5,-77 346.5,-107 447.5,-107 447.5,-77 346.5,-77"/>
<text text-anchor="start" x="354.5" y="-95" font-family="Helvetica,sans-Serif" font-size="10.00">layer_args_validate</text>
<text text-anchor="middle" x="397" y="-84" font-family="Helvetica,sans-Serif" font-size="10.00">_inputs</text>
</a>
</g>
</g>
<!-- Node4&#45;&gt;Node5 -->
<g id="edge4" class="edge">
<title>Node4&#45;&gt;Node5</title>
<path fill="none" stroke="midnightblue" d="M281.3,-89.91C298.62,-90.22 318.21,-90.58 336.25,-90.91"/>
<polygon fill="midnightblue" stroke="midnightblue" points="336.31,-94.41 346.37,-91.09 336.43,-87.41 336.31,-94.41"/>
</g>
<!-- Node6 -->
<g id="node6" class="node">
<title>Node6</title>
<g id="a_node6"><a xlink:href="neural__layer_8c.html#ad1b7188119d0d96791ee0d87c105896a" target="_top" xlink:title="Returns a whether a layer type expects images as input.">
<polygon fill="none" stroke="black" points="494,-82.5 494,-101.5 610,-101.5 610,-82.5 494,-82.5"/>
<text text-anchor="middle" x="552" y="-89.5" font-family="Helvetica,sans-Serif" font-size="10.00">layer_receives_images</text>
</a>
</g>
</g>
<!-- Node5&#45;&gt;Node6 -->
<g id="edge5" class="edge">
<title>Node5&#45;&gt;Node6</title>
<path fill="none" stroke="midnightblue" d="M447.67,-92C459.2,-92 471.65,-92 483.78,-92"/>
<polygon fill="midnightblue" stroke="midnightblue" points="483.87,-95.5 493.87,-92 483.87,-88.5 483.87,-95.5"/>
</g>
<!-- Node8 -->
<g id="node8" class="node">
<title>Node8</title>
<g id="a_node8"><a xlink:href="neural__layer_8c.html#a5a8bc3e92587742c0bd1ee27780b1128" target="_top" xlink:title="Returns the integer representation of a layer type given a name.">
<polygon fill="none" stroke="black" points="350.5,-38.5 350.5,-57.5 443.5,-57.5 443.5,-38.5 350.5,-38.5"/>
<text text-anchor="middle" x="397" y="-45.5" font-family="Helvetica,sans-Serif" font-size="10.00">layer_type_as_int</text>
</a>
</g>
</g>
<!-- Node7&#45;&gt;Node8 -->
<g id="edge7" class="edge">
<title>Node7&#45;&gt;Node8</title>
<path fill="none" stroke="midnightblue" d="M300.31,-48C313.65,-48 327.47,-48 340.32,-48"/>
<polygon fill="midnightblue" stroke="midnightblue" points="340.4,-51.5 350.4,-48 340.4,-44.5 340.4,-51.5"/>
</g>
<!-- Node9 -->
<g id="node9" class="node">
<title>Node9</title>
<g id="a_node9"><a xlink:href="neural__activations_8c.html#aaba6ef52952c92bb15f6231b6b42fa73" target="_top" xlink:title="Returns the integer representation of an activation function.">
<polygon fill="none" stroke="black" points="336,-0.5 336,-19.5 458,-19.5 458,-0.5 336,-0.5"/>
<text text-anchor="middle" x="397" y="-7.5" font-family="Helvetica,sans-Serif" font-size="10.00">neural_activation_as_int</text>
</a>
</g>
</g>
<!-- Node7&#45;&gt;Node9 -->
<g id="edge8" class="edge">
<title>Node7&#45;&gt;Node9</title>
<path fill="none" stroke="midnightblue" d="M273.01,-38.41C294.82,-33.37 321.73,-27.16 344.82,-21.82"/>
<polygon fill="midnightblue" stroke="midnightblue" points="345.83,-25.18 354.79,-19.52 344.26,-18.36 345.83,-25.18"/>
</g>
</g>
</svg>
