<?xml version="1.0" encoding="UTF-8" standalone="no"?>
<!DOCTYPE svg PUBLIC "-//W3C//DTD SVG 1.1//EN"
 "http://www.w3.org/Graphics/SVG/1.1/DTD/svg11.dtd">
<!-- Generated by graphviz version 2.43.0 (0)
 -->
<!-- Title: XCS::unpack_layer_params Pages: 1 -->
<svg width="456pt" height="104pt"
 viewBox="0.00 0.00 456.00 104.00" xmlns="http://www.w3.org/2000/svg" xmlns:xlink="http://www.w3.org/1999/xlink">
<g id="graph0" class="graph" transform="scale(1 1) rotate(0) translate(4 100)">
<title>XCS::unpack_layer_params</title>
<!-- Node1 -->
<g id="node1" class="node">
<title>Node1</title>
<g id="a_node1"><a xlink:title="Sets parameters used by a neural network layer.">
<polygon fill="#bfbfbf" stroke="black" points="309,-19.5 309,-38.5 448,-38.5 448,-19.5 309,-19.5"/>
<text text-anchor="middle" x="378.5" y="-26.5" font-family="Helvetica,sans-Serif" font-size="10.00">XCS::unpack_layer_params</text>
</a>
</g>
</g>
<!-- Node2 -->
<g id="node2" class="node">
<title>Node2</title>
<g id="a_node2"><a xlink:href="classXCS.html#a234d12eb3fb50d01dccff24a1515d74e" target="_top" xlink:title=" ">
<polygon fill="none" stroke="black" points="140,-38.5 140,-57.5 273,-57.5 273,-38.5 140,-38.5"/>
<text text-anchor="middle" x="206.5" y="-45.5" font-family="Helvetica,sans-Serif" font-size="10.00">XCS::unpack_cond_neural</text>
</a>
</g>
</g>
<!-- Node1&#45;&gt;Node2 -->
<g id="edge1" class="edge">
<title>Node1&#45;&gt;Node2</title>
<path fill="none" stroke="midnightblue" d="M298.81,-37.79C290.21,-38.76 281.52,-39.73 273.1,-40.67"/>
<polygon fill="midnightblue" stroke="midnightblue" points="299.3,-41.26 308.84,-36.67 298.52,-34.31 299.3,-41.26"/>
</g>
<!-- Node5 -->
<g id="node5" class="node">
<title>Node5</title>
<g id="a_node5"><a xlink:href="classXCS.html#a8755a66390db00ab31e3574a18a0aae1" target="_top" xlink:title="Sets parameters used by neural network predictions.">
<polygon fill="none" stroke="black" points="141,-0.5 141,-19.5 272,-19.5 272,-0.5 141,-0.5"/>
<text text-anchor="middle" x="206.5" y="-7.5" font-family="Helvetica,sans-Serif" font-size="10.00">XCS::unpack_pred_neural</text>
</a>
</g>
</g>
<!-- Node1&#45;&gt;Node5 -->
<g id="edge4" class="edge">
<title>Node1&#45;&gt;Node5</title>
<path fill="none" stroke="midnightblue" d="M298.78,-20.2C289.82,-19.2 280.76,-18.19 272.01,-17.21"/>
<polygon fill="midnightblue" stroke="midnightblue" points="298.52,-23.69 308.84,-21.33 299.3,-16.74 298.52,-23.69"/>
</g>
<!-- Node3 -->
<g id="node3" class="node">
<title>Node3</title>
<g id="a_node3"><a xlink:href="classXCS.html#a87397ee045a1648cd9b1449518e217b2" target="_top" xlink:title="Sets the action type and initialisation arguments.">
<polygon fill="none" stroke="black" points="7.5,-76.5 7.5,-95.5 96.5,-95.5 96.5,-76.5 7.5,-76.5"/>
<text text-anchor="middle" x="52" y="-83.5" font-family="Helvetica,sans-Serif" font-size="10.00">XCS::set_action</text>
</a>
</g>
</g>
<!-- Node2&#45;&gt;Node3 -->
<g id="edge2" class="edge">
<title>Node2&#45;&gt;Node3</title>
<path fill="none" stroke="midnightblue" d="M157.18,-60.04C135.88,-65.35 111.2,-71.5 91.21,-76.48"/>
<polygon fill="midnightblue" stroke="midnightblue" points="158.16,-63.4 167.02,-57.59 156.47,-56.61 158.16,-63.4"/>
</g>
<!-- Node4 -->
<g id="node4" class="node">
<title>Node4</title>
<g id="a_node4"><a xlink:href="classXCS.html#a4eb6acf0a155d5e94fa843d7523df9b1" target="_top" xlink:title="Sets the condition type and initialisation arguments.">
<polygon fill="none" stroke="black" points="1.5,-38.5 1.5,-57.5 102.5,-57.5 102.5,-38.5 1.5,-38.5"/>
<text text-anchor="middle" x="52" y="-45.5" font-family="Helvetica,sans-Serif" font-size="10.00">XCS::set_condition</text>
</a>
</g>
</g>
<!-- Node2&#45;&gt;Node4 -->
<g id="edge3" class="edge">
<title>Node2&#45;&gt;Node4</title>
<path fill="none" stroke="midnightblue" d="M129.68,-48C120.57,-48 111.45,-48 102.84,-48"/>
<polygon fill="midnightblue" stroke="midnightblue" points="129.94,-51.5 139.94,-48 129.94,-44.5 129.94,-51.5"/>
</g>
<!-- Node6 -->
<g id="node6" class="node">
<title>Node6</title>
<g id="a_node6"><a xlink:href="classXCS.html#a28e9fae0bf2d470377b25e032b7080af" target="_top" xlink:title="Sets the prediction type and initialisation arguments.">
<polygon fill="none" stroke="black" points="0,-0.5 0,-19.5 104,-19.5 104,-0.5 0,-0.5"/>
<text text-anchor="middle" x="52" y="-7.5" font-family="Helvetica,sans-Serif" font-size="10.00">XCS::set_prediction</text>
</a>
</g>
</g>
<!-- Node5&#45;&gt;Node6 -->
<g id="edge5" class="edge">
<title>Node5&#45;&gt;Node6</title>
<path fill="none" stroke="midnightblue" d="M130.77,-10C121.84,-10 112.87,-10 104.37,-10"/>
<polygon fill="midnightblue" stroke="midnightblue" points="130.83,-13.5 140.83,-10 130.83,-6.5 130.83,-13.5"/>
</g>
</g>
</svg>
