<?xml version="1.0" encoding="UTF-8" standalone="no"?>
<!DOCTYPE svg PUBLIC "-//W3C//DTD SVG 1.1//EN"
 "http://www.w3.org/Graphics/SVG/1.1/DTD/svg11.dtd">
<!-- Generated by graphviz version 2.43.0 (0)
 -->
<!-- Title: XCS::error Pages: 1 -->
<svg width="512pt" height="235pt"
 viewBox="0.00 0.00 512.00 235.49" xmlns="http://www.w3.org/2000/svg" xmlns:xlink="http://www.w3.org/1999/xlink">
<g id="graph0" class="graph" transform="scale(1 1) rotate(0) translate(4 231.49)">
<title>XCS::error</title>
<!-- Node1 -->
<g id="Node000001" class="node">
<title>Node1</title>
<g id="a_Node000001"><a xlink:title="Returns the current system error.">
<polygon fill="#999999" stroke="#666666" points="504,-151.49 441,-151.49 441,-132.49 504,-132.49 504,-151.49"/>
<text text-anchor="middle" x="472.5" y="-139.49" font-family="Helvetica,sans-Serif" font-size="10.00">XCS::error</text>
</a>
</g>
</g>
<!-- Node2 -->
<g id="Node000002" class="node">
<title>Node2</title>
<g id="a_Node000002"><a xlink:href="classXCS.html#ac6003941812bd2c70ea443dd63bd59d0" target="_top" xlink:title="Selects an action to perform in a reinforcement learning problem.">
<polygon fill="white" stroke="#666666" points="255,-189.49 175,-189.49 175,-170.49 255,-170.49 255,-189.49"/>
<text text-anchor="middle" x="215" y="-177.49" font-family="Helvetica,sans-Serif" font-size="10.00">XCS::decision</text>
</a>
</g>
</g>
<!-- Node1&#45;&gt;Node2 -->
<g id="edge1_Node000001_Node000002" class="edge">
<title>Node1&#45;&gt;Node2</title>
<g id="a_edge1_Node000001_Node000002"><a xlink:title=" ">
<path fill="none" stroke="#63b8ff" d="M431.01,-151.06C422.45,-152.82 413.45,-154.56 405,-155.99 353.47,-164.67 293.55,-171.78 255.23,-175.94"/>
<polygon fill="#63b8ff" stroke="#63b8ff" points="431.75,-154.48 440.81,-148.99 430.3,-147.63 431.75,-154.48"/>
</a>
</g>
</g>
<!-- Node3 -->
<g id="Node000003" class="node">
<title>Node3</title>
<g id="a_Node000003"><a xlink:href="pybind__wrapper_8cpp.html#a172daba0778fe2bd38d723d5f52a23d5" target="_top" xlink:title=" ">
<polygon fill="white" stroke="#666666" points="113,-151.49 0,-151.49 0,-132.49 113,-132.49 113,-151.49"/>
<text text-anchor="middle" x="56.5" y="-139.49" font-family="Helvetica,sans-Serif" font-size="10.00">PYBIND11_MODULE</text>
</a>
</g>
</g>
<!-- Node1&#45;&gt;Node3 -->
<g id="edge13_Node000001_Node000003" class="edge">
<title>Node1&#45;&gt;Node3</title>
<g id="a_edge13_Node000001_Node000003"><a xlink:title=" ">
<path fill="none" stroke="#63b8ff" d="M430.32,-141.99C355.57,-141.99 197.53,-141.99 113.22,-141.99"/>
<polygon fill="#63b8ff" stroke="#63b8ff" points="430.72,-145.49 440.72,-141.99 430.72,-138.49 430.72,-145.49"/>
</a>
</g>
</g>
<!-- Node4 -->
<g id="Node000004" class="node">
<title>Node4</title>
<g id="a_Node000004"><a xlink:href="classXCS.html#ac12768292958a714a726b1c029e9616a" target="_top" xlink:title="Creates/updates an action set for a given (state, action, reward).">
<polygon fill="white" stroke="#666666" points="387,-113.49 335,-113.49 335,-94.49 387,-94.49 387,-113.49"/>
<text text-anchor="middle" x="361" y="-101.49" font-family="Helvetica,sans-Serif" font-size="10.00">XCS::fit</text>
</a>
</g>
</g>
<!-- Node1&#45;&gt;Node4 -->
<g id="edge3_Node000001_Node000004" class="edge">
<title>Node1&#45;&gt;Node4</title>
<g id="a_edge3_Node000001_Node000004"><a xlink:title=" ">
<path fill="none" stroke="#63b8ff" d="M434.02,-128.98C418.5,-123.59 400.91,-117.49 387,-112.66"/>
<polygon fill="#63b8ff" stroke="#63b8ff" points="433.27,-132.42 443.87,-132.4 435.57,-125.81 433.27,-132.42"/>
</a>
</g>
</g>
<!-- Node5 -->
<g id="Node000005" class="node">
<title>Node5</title>
<g id="a_Node000005"><a xlink:href="classXCS.html#a70d5ac7b2500084093d2f2b0d24f0c2f" target="_top" xlink:title="Loads an input data structure for fitting.">
<polygon fill="white" stroke="#666666" points="405,-57.49 317,-57.49 317,-38.49 405,-38.49 405,-57.49"/>
<text text-anchor="middle" x="361" y="-45.49" font-family="Helvetica,sans-Serif" font-size="10.00">XCS::load_input</text>
</a>
</g>
</g>
<!-- Node1&#45;&gt;Node5 -->
<g id="edge5_Node000001_Node000005" class="edge">
<title>Node1&#45;&gt;Node5</title>
<g id="a_edge5_Node000001_Node000005"><a xlink:title=" ">
<path fill="none" stroke="#63b8ff" d="M452.47,-125.65C429.53,-105.95 391.71,-73.49 373.08,-57.5"/>
<polygon fill="#63b8ff" stroke="#63b8ff" points="450.33,-128.42 460.19,-132.28 454.89,-123.11 450.33,-128.42"/>
</a>
</g>
</g>
<!-- Node9 -->
<g id="Node000009" class="node">
<title>Node9</title>
<g id="a_Node000009"><a xlink:href="classXCS.html#a562cb81d9627e7dbcfdb0dc05ec2e3f0" target="_top" xlink:title="Returns the XCSF prediction array for the provided input.">
<polygon fill="white" stroke="#666666" points="397.5,-227.49 324.5,-227.49 324.5,-208.49 397.5,-208.49 397.5,-227.49"/>
<text text-anchor="middle" x="361" y="-215.49" font-family="Helvetica,sans-Serif" font-size="10.00">XCS::predict</text>
</a>
</g>
</g>
<!-- Node1&#45;&gt;Node9 -->
<g id="edge11_Node000001_Node000009" class="edge">
<title>Node1&#45;&gt;Node9</title>
<g id="a_edge11_Node000001_Node000009"><a xlink:title=" ">
<path fill="none" stroke="#63b8ff" d="M452.36,-158.24C439.38,-168.94 421.62,-182.94 405,-193.99 397.31,-199.09 388.45,-204.16 380.79,-208.32"/>
<polygon fill="#63b8ff" stroke="#63b8ff" points="454.7,-160.85 460.14,-151.76 450.21,-155.47 454.7,-160.85"/>
</a>
</g>
</g>
<!-- Node2&#45;&gt;Node3 -->
<g id="edge2_Node000002_Node000003" class="edge">
<title>Node2&#45;&gt;Node3</title>
<g id="a_edge2_Node000002_Node000003"><a xlink:title=" ">
<path fill="none" stroke="#63b8ff" d="M165.07,-168.11C143.03,-162.75 117.37,-156.52 96.63,-151.49"/>
<polygon fill="#63b8ff" stroke="#63b8ff" points="164.37,-171.54 174.91,-170.49 166.02,-164.73 164.37,-171.54"/>
</a>
</g>
</g>
<!-- Node4&#45;&gt;Node3 -->
<g id="edge4_Node000004_Node000003" class="edge">
<title>Node4&#45;&gt;Node3</title>
<g id="a_edge4_Node000004_Node000003"><a xlink:title=" ">
<path fill="none" stroke="#63b8ff" d="M324.98,-107.55C283.07,-111.91 210.82,-119.74 149,-127.99 137.37,-129.54 124.93,-131.34 113.1,-133.13"/>
<polygon fill="#63b8ff" stroke="#63b8ff" points="325.37,-111.03 334.95,-106.52 324.64,-104.07 325.37,-111.03"/>
</a>
</g>
</g>
<!-- Node6 -->
<g id="Node000006" class="node">
<title>Node6</title>
<g id="a_Node000006"><a xlink:href="classXCS.html#ae71d09f1e1346353163fc9d8ffb430af" target="_top" xlink:title="Executes MAX_TRIALS number of XCSF learning iterations using the provided training data.">
<polygon fill="white" stroke="#666666" points="82.5,-19.49 30.5,-19.49 30.5,-0.49 82.5,-0.49 82.5,-19.49"/>
<text text-anchor="middle" x="56.5" y="-7.49" font-family="Helvetica,sans-Serif" font-size="10.00">XCS::fit</text>
</a>
</g>
</g>
<!-- Node5&#45;&gt;Node6 -->
<g id="edge6_Node000005_Node000006" class="edge">
<title>Node5&#45;&gt;Node6</title>
<g id="a_edge6_Node000005_Node000006"><a xlink:title=" ">
<path fill="none" stroke="#63b8ff" d="M336.59,-33.28C321.39,-24.62 300.78,-14.5 281,-9.99 210.63,6.06 124.53,-1.21 82.71,-6.39"/>
<polygon fill="#63b8ff" stroke="#63b8ff" points="334.92,-36.35 345.31,-38.42 338.47,-30.32 334.92,-36.35"/>
</a>
</g>
</g>
<!-- Node7 -->
<g id="Node000007" class="node">
<title>Node7</title>
<g id="a_Node000007"><a xlink:href="classXCS.html#abccf7ccb52a4626d0f8bedccd62c0003" target="_top" xlink:title="Loads validation data if present in kwargs.">
<polygon fill="white" stroke="#666666" points="281,-38.49 149,-38.49 149,-19.49 281,-19.49 281,-38.49"/>
<text text-anchor="middle" x="215" y="-26.49" font-family="Helvetica,sans-Serif" font-size="10.00">XCS::load_validation_data</text>
</a>
</g>
</g>
<!-- Node5&#45;&gt;Node7 -->
<g id="edge7_Node000005_Node000007" class="edge">
<title>Node5&#45;&gt;Node7</title>
<g id="a_edge7_Node000005_Node000007"><a xlink:title=" ">
<path fill="none" stroke="#63b8ff" d="M306.78,-40.96C298.39,-39.86 289.63,-38.7 281.01,-37.56"/>
<polygon fill="#63b8ff" stroke="#63b8ff" points="306.42,-44.45 316.8,-42.29 307.34,-37.51 306.42,-44.45"/>
</a>
</g>
</g>
<!-- Node8 -->
<g id="Node000008" class="node">
<title>Node8</title>
<g id="a_Node000008"><a xlink:href="classXCS.html#a2aeb9df5550b79ea97a725e83ef64005" target="_top" xlink:title="Returns the error using N random samples from the provided data.">
<polygon fill="white" stroke="#666666" points="249,-75.49 181,-75.49 181,-56.49 249,-56.49 249,-75.49"/>
<text text-anchor="middle" x="215" y="-63.49" font-family="Helvetica,sans-Serif" font-size="10.00">XCS::score</text>
</a>
</g>
</g>
<!-- Node5&#45;&gt;Node8 -->
<g id="edge9_Node000005_Node000008" class="edge">
<title>Node5&#45;&gt;Node8</title>
<g id="a_edge9_Node000005_Node000008"><a xlink:title=" ">
<path fill="none" stroke="#63b8ff" d="M306.62,-54.66C287.34,-57.07 266.14,-59.72 249.1,-61.85"/>
<polygon fill="#63b8ff" stroke="#63b8ff" points="307.31,-58.1 316.8,-53.39 306.44,-51.15 307.31,-58.1"/>
</a>
</g>
</g>
<!-- Node7&#45;&gt;Node6 -->
<g id="edge8_Node000007_Node000006" class="edge">
<title>Node7&#45;&gt;Node6</title>
<g id="a_edge8_Node000007_Node000006"><a xlink:title=" ">
<path fill="none" stroke="#63b8ff" d="M138.79,-19.86C118.57,-17.4 98.08,-14.91 82.73,-13.05"/>
<polygon fill="#63b8ff" stroke="#63b8ff" points="138.64,-23.36 148.99,-21.09 139.48,-16.41 138.64,-23.36"/>
</a>
</g>
</g>
<!-- Node8&#45;&gt;Node3 -->
<g id="edge10_Node000008_Node000003" class="edge">
<title>Node8&#45;&gt;Node3</title>
<g id="a_edge10_Node000008_Node000003"><a xlink:title=" ">
<path fill="none" stroke="#63b8ff" d="M175.71,-78.94C166.83,-82.27 157.49,-86.04 149,-89.99 121.17,-102.93 90.46,-121.28 72.64,-132.36"/>
<polygon fill="#63b8ff" stroke="#63b8ff" points="176.92,-82.23 185.11,-75.51 174.52,-75.65 176.92,-82.23"/>
</a>
</g>
</g>
<!-- Node9&#45;&gt;Node3 -->
<g id="edge12_Node000009_Node000003" class="edge">
<title>Node9&#45;&gt;Node3</title>
<g id="a_edge12_Node000009_Node000003"><a xlink:title=" ">
<path fill="none" stroke="#63b8ff" d="M314.24,-219.89C270.64,-220.32 203.72,-217.33 149,-198.99 117.41,-188.4 85.52,-164.98 69.01,-151.69"/>
<polygon fill="#63b8ff" stroke="#63b8ff" points="314.31,-223.39 324.26,-219.73 314.2,-216.39 314.31,-223.39"/>
</a>
</g>
</g>
</g>
</svg>
