<?xml version="1.0" encoding="UTF-8" standalone="no"?>
<!DOCTYPE svg PUBLIC "-//W3C//DTD SVG 1.1//EN"
 "http://www.w3.org/Graphics/SVG/1.1/DTD/svg11.dtd">
<!-- Generated by graphviz version 2.43.0 (0)
 -->
<!-- Title: XCS::set_prediction Pages: 1 -->
<svg width="936pt" height="487pt"
 viewBox="0.00 0.00 936.00 486.50" xmlns="http://www.w3.org/2000/svg" xmlns:xlink="http://www.w3.org/1999/xlink">
<g id="graph0" class="graph" transform="scale(1 1) rotate(0) translate(4 482.5)">
<title>XCS::set_prediction</title>
<!-- Node1 -->
<g id="node1" class="node">
<title>Node1</title>
<g id="a_node1"><a xlink:title="Sets the prediction type and initialisation arguments.">
<polygon fill="#bfbfbf" stroke="black" points="0,-158.5 0,-177.5 104,-177.5 104,-158.5 0,-158.5"/>
<text text-anchor="middle" x="52" y="-165.5" font-family="Helvetica,sans-Serif" font-size="10.00">XCS::set_prediction</text>
</a>
</g>
</g>
<!-- Node2 -->
<g id="node2" class="node">
<title>Node2</title>
<g id="a_node2"><a xlink:href="classXCS.html#a83803dda1df95ab1bd02f3b7ba69fc11" target="_top" xlink:title="Converts a Python dictionary to a C++ string (JSON).">
<polygon fill="none" stroke="black" points="153.5,-177.5 153.5,-196.5 249.5,-196.5 249.5,-177.5 153.5,-177.5"/>
<text text-anchor="middle" x="201.5" y="-184.5" font-family="Helvetica,sans-Serif" font-size="10.00">XCS::dict_to_json</text>
</a>
</g>
</g>
<!-- Node1&#45;&gt;Node2 -->
<g id="edge1" class="edge">
<title>Node1&#45;&gt;Node2</title>
<path fill="none" stroke="midnightblue" d="M104.17,-174.59C116.78,-176.22 130.36,-177.96 143.23,-179.62"/>
<polygon fill="midnightblue" stroke="midnightblue" points="143.01,-183.12 153.37,-180.93 143.9,-176.18 143.01,-183.12"/>
</g>
<!-- Node3 -->
<g id="node3" class="node">
<title>Node3</title>
<g id="a_node3"><a xlink:href="prediction_8c.html#a3da29e38981e8b98ec136766a79d074a" target="_top" xlink:title="Sets the prediction parameters from a cJSON object.">
<polygon fill="none" stroke="black" points="140,-139.5 140,-158.5 263,-158.5 263,-139.5 140,-139.5"/>
<text text-anchor="middle" x="201.5" y="-146.5" font-family="Helvetica,sans-Serif" font-size="10.00">pred_param_json_import</text>
</a>
</g>
</g>
<!-- Node1&#45;&gt;Node3 -->
<g id="edge2" class="edge">
<title>Node1&#45;&gt;Node3</title>
<path fill="none" stroke="midnightblue" d="M104.17,-161.41C112.43,-160.34 121.1,-159.23 129.71,-158.12"/>
<polygon fill="midnightblue" stroke="midnightblue" points="130.31,-161.57 139.78,-156.82 129.41,-154.63 130.31,-161.57"/>
</g>
<!-- Node4 -->
<g id="node4" class="node">
<title>Node4</title>
<g id="a_node4"><a xlink:href="pred__neural_8c.html#aaf2d30b8d2123b423b251f88f7c772ff" target="_top" xlink:title="Sets the neural network parameters from a cJSON object.">
<polygon fill="none" stroke="black" points="299,-311 299,-341 421,-341 421,-311 299,-311"/>
<text text-anchor="start" x="307" y="-329" font-family="Helvetica,sans-Serif" font-size="10.00">pred_neural_param_json</text>
<text text-anchor="middle" x="360" y="-318" font-family="Helvetica,sans-Serif" font-size="10.00">_import</text>
</a>
</g>
</g>
<!-- Node3&#45;&gt;Node4 -->
<g id="edge3" class="edge">
<title>Node3&#45;&gt;Node4</title>
<path fill="none" stroke="midnightblue" d="M246.38,-158.58C252.32,-161.04 258.06,-164.13 263,-168 308.3,-203.49 337.24,-266.77 350.51,-301.51"/>
<polygon fill="midnightblue" stroke="midnightblue" points="347.23,-302.74 353.98,-310.91 353.8,-300.31 347.23,-302.74"/>
</g>
<!-- Node18 -->
<g id="node18" class="node">
<title>Node18</title>
<g id="a_node18"><a xlink:href="pred__nlms_8c.html#a8964c1670f4fb4a398a842d154aab033" target="_top" xlink:title="Sets the NLMS parameters from a cJSON object.">
<polygon fill="none" stroke="black" points="301.5,-159 301.5,-189 418.5,-189 418.5,-159 301.5,-159"/>
<text text-anchor="start" x="309.5" y="-177" font-family="Helvetica,sans-Serif" font-size="10.00">pred_nlms_param_json</text>
<text text-anchor="middle" x="360" y="-166" font-family="Helvetica,sans-Serif" font-size="10.00">_import</text>
</a>
</g>
</g>
<!-- Node3&#45;&gt;Node18 -->
<g id="edge17" class="edge">
<title>Node3&#45;&gt;Node18</title>
<path fill="none" stroke="midnightblue" d="M262.11,-158.52C271.66,-160.05 281.61,-161.64 291.33,-163.19"/>
<polygon fill="midnightblue" stroke="midnightblue" points="290.93,-166.67 301.36,-164.79 292.04,-159.76 290.93,-166.67"/>
</g>
<!-- Node23 -->
<g id="node23" class="node">
<title>Node23</title>
<g id="a_node23"><a xlink:href="prediction_8c.html#afec8e5a7f4efd4c6d1b484a0522e8da6" target="_top" xlink:title=" ">
<polygon fill="none" stroke="black" points="305,-28 305,-58 415,-58 415,-28 305,-28"/>
<text text-anchor="start" x="313" y="-46" font-family="Helvetica,sans-Serif" font-size="10.00">pred_param_set_type</text>
<text text-anchor="middle" x="360" y="-35" font-family="Helvetica,sans-Serif" font-size="10.00">_string</text>
</a>
</g>
</g>
<!-- Node3&#45;&gt;Node23 -->
<g id="edge22" class="edge">
<title>Node3&#45;&gt;Node23</title>
<path fill="none" stroke="midnightblue" d="M216.66,-139.41C241.74,-122.42 294.46,-86.71 328.23,-63.84"/>
<polygon fill="midnightblue" stroke="midnightblue" points="330.48,-66.55 336.79,-58.04 326.55,-60.75 330.48,-66.55"/>
</g>
<!-- Node25 -->
<g id="node25" class="node">
<title>Node25</title>
<g id="a_node25"><a xlink:href="pred__rls_8c.html#a4756fe786b86ecce9a4a9040daff97da" target="_top" xlink:title="Sets the RLS parameters from a cJSON object.">
<polygon fill="none" stroke="black" points="306.5,-96 306.5,-126 413.5,-126 413.5,-96 306.5,-96"/>
<text text-anchor="start" x="314.5" y="-114" font-family="Helvetica,sans-Serif" font-size="10.00">pred_rls_param_json</text>
<text text-anchor="middle" x="360" y="-103" font-family="Helvetica,sans-Serif" font-size="10.00">_import</text>
</a>
</g>
</g>
<!-- Node3&#45;&gt;Node25 -->
<g id="edge24" class="edge">
<title>Node3&#45;&gt;Node25</title>
<path fill="none" stroke="midnightblue" d="M241.99,-139.41C258.49,-135.4 278.07,-130.65 296.45,-126.19"/>
<polygon fill="midnightblue" stroke="midnightblue" points="297.32,-129.58 306.21,-123.82 295.67,-122.78 297.32,-129.58"/>
</g>
<!-- Node5 -->
<g id="node5" class="node">
<title>Node5</title>
<g id="a_node5"><a xlink:href="neural__layer__args_8c.html#a477d2c5cf9da9413c6dba66b5d7f7aff" target="_top" xlink:title="Frees memory used by a list of layer parameters and points to NULL.">
<polygon fill="none" stroke="black" points="485,-392.5 485,-411.5 568,-411.5 568,-392.5 485,-392.5"/>
<text text-anchor="middle" x="526.5" y="-399.5" font-family="Helvetica,sans-Serif" font-size="10.00">layer_args_free</text>
</a>
</g>
</g>
<!-- Node4&#45;&gt;Node5 -->
<g id="edge4" class="edge">
<title>Node4&#45;&gt;Node5</title>
<path fill="none" stroke="midnightblue" d="M382.61,-341.11C401.52,-353.75 430.08,-371.52 457,-383 462.74,-385.45 468.88,-387.67 475.04,-389.66"/>
<polygon fill="midnightblue" stroke="midnightblue" points="474.1,-393.03 484.68,-392.59 476.14,-386.33 474.1,-393.03"/>
</g>
<!-- Node6 -->
<g id="node6" class="node">
<title>Node6</title>
<g id="a_node6"><a xlink:href="neural__layer__args_8c.html#a3b06e82bed7fc9a8915d6187ce08d33e" target="_top" xlink:title="Sets layer parameters to default values.">
<polygon fill="none" stroke="black" points="486.5,-354.5 486.5,-373.5 566.5,-373.5 566.5,-354.5 486.5,-354.5"/>
<text text-anchor="middle" x="526.5" y="-361.5" font-family="Helvetica,sans-Serif" font-size="10.00">layer_args_init</text>
</a>
</g>
</g>
<!-- Node4&#45;&gt;Node6 -->
<g id="edge5" class="edge">
<title>Node4&#45;&gt;Node6</title>
<path fill="none" stroke="midnightblue" d="M421.32,-339.93C439.41,-344.11 459.03,-348.64 476.31,-352.64"/>
<polygon fill="midnightblue" stroke="midnightblue" points="475.65,-356.08 486.18,-354.92 477.23,-349.26 475.65,-356.08"/>
</g>
<!-- Node7 -->
<g id="node7" class="node">
<title>Node7</title>
<g id="a_node7"><a xlink:href="neural__layer__args_8c.html#abc0a9e83a53e871f873bf08af74e7a29" target="_top" xlink:title="Sets the layer parameters from a cJSON object.">
<polygon fill="none" stroke="black" points="468,-316.5 468,-335.5 585,-335.5 585,-316.5 468,-316.5"/>
<text text-anchor="middle" x="526.5" y="-323.5" font-family="Helvetica,sans-Serif" font-size="10.00">layer_args_json_import</text>
</a>
</g>
</g>
<!-- Node4&#45;&gt;Node7 -->
<g id="edge6" class="edge">
<title>Node4&#45;&gt;Node7</title>
<path fill="none" stroke="midnightblue" d="M421.32,-326C433.21,-326 445.76,-326 457.88,-326"/>
<polygon fill="midnightblue" stroke="midnightblue" points="457.93,-329.5 467.93,-326 457.93,-322.5 457.93,-329.5"/>
</g>
<!-- Node15 -->
<g id="node15" class="node">
<title>Node15</title>
<g id="a_node15"><a xlink:href="neural__layer__args_8c.html#a492de2de029ff6124f8fe466ad6b0d80" target="_top" xlink:title="Checks network layer arguments are valid.">
<polygon fill="none" stroke="black" points="476,-278.5 476,-297.5 577,-297.5 577,-278.5 476,-278.5"/>
<text text-anchor="middle" x="526.5" y="-285.5" font-family="Helvetica,sans-Serif" font-size="10.00">layer_args_validate</text>
</a>
</g>
</g>
<!-- Node4&#45;&gt;Node15 -->
<g id="edge14" class="edge">
<title>Node4&#45;&gt;Node15</title>
<path fill="none" stroke="midnightblue" d="M421.32,-312.07C438.63,-308.07 457.34,-303.74 474.07,-299.88"/>
<polygon fill="midnightblue" stroke="midnightblue" points="475.24,-303.2 484.2,-297.54 473.66,-296.38 475.24,-303.2"/>
</g>
<!-- Node8 -->
<g id="node8" class="node">
<title>Node8</title>
<g id="a_node8"><a xlink:href="neural__layer__args_8c.html#af7388e196c27ab190bb7bb6848a7a456" target="_top" xlink:title="Sets the layer activation from a cJSON object.">
<polygon fill="none" stroke="black" points="642.5,-448 642.5,-478 759.5,-478 759.5,-448 642.5,-448"/>
<text text-anchor="start" x="650.5" y="-466" font-family="Helvetica,sans-Serif" font-size="10.00">layer_args_json_import</text>
<text text-anchor="middle" x="701" y="-455" font-family="Helvetica,sans-Serif" font-size="10.00">_activation</text>
</a>
</g>
</g>
<!-- Node7&#45;&gt;Node8 -->
<g id="edge7" class="edge">
<title>Node7&#45;&gt;Node8</title>
<path fill="none" stroke="midnightblue" d="M581.33,-335.53C586.67,-338 591.7,-341.11 596,-345 628.85,-374.76 600.39,-406.93 632,-438 633.48,-439.45 635.05,-440.83 636.7,-442.12"/>
<polygon fill="midnightblue" stroke="midnightblue" points="635.19,-445.32 645.46,-447.94 639.07,-439.49 635.19,-445.32"/>
</g>
<!-- Node10 -->
<g id="node10" class="node">
<title>Node10</title>
<g id="a_node10"><a xlink:href="neural__layer__args_8c.html#a511a92070d5a53700d9650c1705b96ab" target="_top" xlink:title="Sets the layer evolutionary parameters from a cJSON object.">
<polygon fill="none" stroke="black" points="632,-409.5 632,-428.5 770,-428.5 770,-409.5 632,-409.5"/>
<text text-anchor="middle" x="701" y="-416.5" font-family="Helvetica,sans-Serif" font-size="10.00">layer_args_json_import_evo</text>
</a>
</g>
</g>
<!-- Node7&#45;&gt;Node10 -->
<g id="edge9" class="edge">
<title>Node7&#45;&gt;Node10</title>
<path fill="none" stroke="midnightblue" d="M578.44,-335.62C584.69,-338.07 590.72,-341.14 596,-345 619.59,-362.23 608.43,-382.74 632,-400 634.67,-401.95 637.53,-403.71 640.52,-405.28"/>
<polygon fill="midnightblue" stroke="midnightblue" points="639.22,-408.54 649.78,-409.48 642.12,-402.16 639.22,-408.54"/>
</g>
<!-- Node11 -->
<g id="node11" class="node">
<title>Node11</title>
<g id="a_node11"><a xlink:href="neural__layer__args_8c.html#a22a018ccf2e332aafeaa450968b96ed1" target="_top" xlink:title="Sets the layer input parameters from a cJSON object.">
<polygon fill="none" stroke="black" points="642.5,-360 642.5,-390 759.5,-390 759.5,-360 642.5,-360"/>
<text text-anchor="start" x="650.5" y="-378" font-family="Helvetica,sans-Serif" font-size="10.00">layer_args_json_import</text>
<text text-anchor="middle" x="701" y="-367" font-family="Helvetica,sans-Serif" font-size="10.00">_inputs</text>
</a>
</g>
</g>
<!-- Node7&#45;&gt;Node11 -->
<g id="edge10" class="edge">
<title>Node7&#45;&gt;Node11</title>
<path fill="none" stroke="midnightblue" d="M562.37,-335.6C573.16,-338.59 585.07,-341.91 596,-345 609.68,-348.87 624.35,-353.07 638.24,-357.07"/>
<polygon fill="midnightblue" stroke="midnightblue" points="637.61,-360.53 648.19,-359.94 639.55,-353.81 637.61,-360.53"/>
</g>
<!-- Node12 -->
<g id="node12" class="node">
<title>Node12</title>
<g id="a_node12"><a xlink:href="neural__layer__args_8c.html#ab5d03fe4bb8549b5321c9bda9c514161" target="_top" xlink:title="Sets the layer scaling parameters from a cJSON object.">
<polygon fill="none" stroke="black" points="642.5,-311 642.5,-341 759.5,-341 759.5,-311 642.5,-311"/>
<text text-anchor="start" x="650.5" y="-329" font-family="Helvetica,sans-Serif" font-size="10.00">layer_args_json_import</text>
<text text-anchor="middle" x="701" y="-318" font-family="Helvetica,sans-Serif" font-size="10.00">_scale</text>
</a>
</g>
</g>
<!-- Node7&#45;&gt;Node12 -->
<g id="edge11" class="edge">
<title>Node7&#45;&gt;Node12</title>
<path fill="none" stroke="midnightblue" d="M585.42,-326C600.43,-326 616.74,-326 632.21,-326"/>
<polygon fill="midnightblue" stroke="midnightblue" points="632.23,-329.5 642.23,-326 632.23,-322.5 632.23,-329.5"/>
</g>
<!-- Node13 -->
<g id="node13" class="node">
<title>Node13</title>
<g id="a_node13"><a xlink:href="neural__layer__args_8c.html#a9a07261fd04326ccbae66c152f8f6de2" target="_top" xlink:title="Sets the layer SGD parameters from a cJSON object.">
<polygon fill="none" stroke="black" points="632,-272.5 632,-291.5 770,-291.5 770,-272.5 632,-272.5"/>
<text text-anchor="middle" x="701" y="-279.5" font-family="Helvetica,sans-Serif" font-size="10.00">layer_args_json_import_sgd</text>
</a>
</g>
</g>
<!-- Node7&#45;&gt;Node13 -->
<g id="edge12" class="edge">
<title>Node7&#45;&gt;Node13</title>
<path fill="none" stroke="midnightblue" d="M564.93,-316.45C590.7,-309.88 625.14,-301.1 652.79,-294.04"/>
<polygon fill="midnightblue" stroke="midnightblue" points="653.82,-297.39 662.64,-291.53 652.09,-290.61 653.82,-297.39"/>
</g>
<!-- Node14 -->
<g id="node14" class="node">
<title>Node14</title>
<g id="a_node14"><a xlink:href="neural__layer_8c.html#a5a8bc3e92587742c0bd1ee27780b1128" target="_top" xlink:title="Returns the integer representation of a layer type given a name.">
<polygon fill="none" stroke="black" points="654.5,-234.5 654.5,-253.5 747.5,-253.5 747.5,-234.5 654.5,-234.5"/>
<text text-anchor="middle" x="701" y="-241.5" font-family="Helvetica,sans-Serif" font-size="10.00">layer_type_as_int</text>
</a>
</g>
</g>
<!-- Node7&#45;&gt;Node14 -->
<g id="edge13" class="edge">
<title>Node7&#45;&gt;Node14</title>
<path fill="none" stroke="midnightblue" d="M576.64,-316.37C583.44,-313.92 590.11,-310.84 596,-307 617.17,-293.2 610.85,-276.82 632,-263 636.02,-260.37 640.4,-258.1 644.95,-256.15"/>
<polygon fill="midnightblue" stroke="midnightblue" points="646.31,-259.37 654.42,-252.55 643.83,-252.83 646.31,-259.37"/>
</g>
<!-- Node9 -->
<g id="node9" class="node">
<title>Node9</title>
<g id="a_node9"><a xlink:href="neural__activations_8c.html#aaba6ef52952c92bb15f6231b6b42fa73" target="_top" xlink:title="Returns the integer representation of an activation function.">
<polygon fill="none" stroke="black" points="806,-453.5 806,-472.5 928,-472.5 928,-453.5 806,-453.5"/>
<text text-anchor="middle" x="867" y="-460.5" font-family="Helvetica,sans-Serif" font-size="10.00">neural_activation_as_int</text>
</a>
</g>
</g>
<!-- Node8&#45;&gt;Node9 -->
<g id="edge8" class="edge">
<title>Node8&#45;&gt;Node9</title>
<path fill="none" stroke="midnightblue" d="M759.82,-463C771.49,-463 783.88,-463 795.92,-463"/>
<polygon fill="midnightblue" stroke="midnightblue" points="795.93,-466.5 805.93,-463 795.93,-459.5 795.93,-466.5"/>
</g>
<!-- Node16 -->
<g id="node16" class="node">
<title>Node16</title>
<g id="a_node16"><a xlink:href="neural__layer__args_8c.html#a8e1a02c60d1cbe0baba8f2c6ff0b5266" target="_top" xlink:title="Checks input layer arguments are valid.">
<polygon fill="none" stroke="black" points="650.5,-185 650.5,-215 751.5,-215 751.5,-185 650.5,-185"/>
<text text-anchor="start" x="658.5" y="-203" font-family="Helvetica,sans-Serif" font-size="10.00">layer_args_validate</text>
<text text-anchor="middle" x="701" y="-192" font-family="Helvetica,sans-Serif" font-size="10.00">_inputs</text>
</a>
</g>
</g>
<!-- Node15&#45;&gt;Node16 -->
<g id="edge15" class="edge">
<title>Node15&#45;&gt;Node16</title>
<path fill="none" stroke="midnightblue" d="M576.64,-278.37C583.44,-275.92 590.11,-272.84 596,-269 617.17,-255.2 611.42,-239.65 632,-225 634.99,-222.87 638.19,-220.9 641.5,-219.08"/>
<polygon fill="midnightblue" stroke="midnightblue" points="643.09,-222.2 650.49,-214.61 639.98,-215.93 643.09,-222.2"/>
</g>
<!-- Node17 -->
<g id="node17" class="node">
<title>Node17</title>
<g id="a_node17"><a xlink:href="neural__layer_8c.html#ad1b7188119d0d96791ee0d87c105896a" target="_top" xlink:title="Returns a whether a layer type expects images as input.">
<polygon fill="none" stroke="black" points="809,-190.5 809,-209.5 925,-209.5 925,-190.5 809,-190.5"/>
<text text-anchor="middle" x="867" y="-197.5" font-family="Helvetica,sans-Serif" font-size="10.00">layer_receives_images</text>
</a>
</g>
</g>
<!-- Node16&#45;&gt;Node17 -->
<g id="edge16" class="edge">
<title>Node16&#45;&gt;Node17</title>
<path fill="none" stroke="midnightblue" d="M751.65,-200C766.42,-200 782.86,-200 798.56,-200"/>
<polygon fill="midnightblue" stroke="midnightblue" points="798.75,-203.5 808.75,-200 798.75,-196.5 798.75,-203.5"/>
</g>
<!-- Node19 -->
<g id="node19" class="node">
<title>Node19</title>
<g id="a_node19"><a xlink:href="prediction_8c.html#abf258a7e5dec62efd980dcd56bdc9e5d" target="_top" xlink:title=" ">
<polygon fill="none" stroke="black" points="474,-240.5 474,-259.5 579,-259.5 579,-240.5 474,-240.5"/>
<text text-anchor="middle" x="526.5" y="-247.5" font-family="Helvetica,sans-Serif" font-size="10.00">pred_param_set_eta</text>
</a>
</g>
</g>
<!-- Node18&#45;&gt;Node19 -->
<g id="edge18" class="edge">
<title>Node18&#45;&gt;Node19</title>
<path fill="none" stroke="midnightblue" d="M382.61,-189.11C401.52,-201.75 430.08,-219.52 457,-231 462.53,-233.36 468.43,-235.51 474.36,-237.44"/>
<polygon fill="midnightblue" stroke="midnightblue" points="473.74,-240.91 484.32,-240.49 475.79,-234.21 473.74,-240.91"/>
</g>
<!-- Node20 -->
<g id="node20" class="node">
<title>Node20</title>
<g id="a_node20"><a xlink:href="prediction_8c.html#ab59b2b572c1ff05157b89759ab7162f5" target="_top" xlink:title=" ">
<polygon fill="none" stroke="black" points="463.5,-202.5 463.5,-221.5 589.5,-221.5 589.5,-202.5 463.5,-202.5"/>
<text text-anchor="middle" x="526.5" y="-209.5" font-family="Helvetica,sans-Serif" font-size="10.00">pred_param_set_eta_min</text>
</a>
</g>
</g>
<!-- Node18&#45;&gt;Node20 -->
<g id="edge19" class="edge">
<title>Node18&#45;&gt;Node20</title>
<path fill="none" stroke="midnightblue" d="M418.53,-187.29C436.66,-191.48 456.55,-196.07 474.2,-200.15"/>
<polygon fill="midnightblue" stroke="midnightblue" points="473.78,-203.65 484.31,-202.49 475.36,-196.83 473.78,-203.65"/>
</g>
<!-- Node21 -->
<g id="node21" class="node">
<title>Node21</title>
<g id="a_node21"><a xlink:href="prediction_8c.html#ab9fb871ffa65568f7b2039d5c8e62512" target="_top" xlink:title=" ">
<polygon fill="none" stroke="black" points="457,-164.5 457,-183.5 596,-183.5 596,-164.5 457,-164.5"/>
<text text-anchor="middle" x="526.5" y="-171.5" font-family="Helvetica,sans-Serif" font-size="10.00">pred_param_set_evolve_eta</text>
</a>
</g>
</g>
<!-- Node18&#45;&gt;Node21 -->
<g id="edge20" class="edge">
<title>Node18&#45;&gt;Node21</title>
<path fill="none" stroke="midnightblue" d="M418.53,-174C427.65,-174 437.22,-174 446.72,-174"/>
<polygon fill="midnightblue" stroke="midnightblue" points="446.98,-177.5 456.98,-174 446.98,-170.5 446.98,-177.5"/>
</g>
<!-- Node22 -->
<g id="node22" class="node">
<title>Node22</title>
<g id="a_node22"><a xlink:href="prediction_8c.html#a618accb7ec3239f16fc794f9efa8f89c" target="_top" xlink:title=" ">
<polygon fill="none" stroke="black" points="475.5,-126.5 475.5,-145.5 577.5,-145.5 577.5,-126.5 475.5,-126.5"/>
<text text-anchor="middle" x="526.5" y="-133.5" font-family="Helvetica,sans-Serif" font-size="10.00">pred_param_set_x0</text>
</a>
</g>
</g>
<!-- Node18&#45;&gt;Node22 -->
<g id="edge21" class="edge">
<title>Node18&#45;&gt;Node22</title>
<path fill="none" stroke="midnightblue" d="M418.53,-160.71C436.66,-156.52 456.55,-151.93 474.2,-147.85"/>
<polygon fill="midnightblue" stroke="midnightblue" points="475.36,-151.17 484.31,-145.51 473.78,-144.35 475.36,-151.17"/>
</g>
<!-- Node24 -->
<g id="node24" class="node">
<title>Node24</title>
<g id="a_node24"><a xlink:href="prediction_8c.html#a5f5a019c886d5bdf8bf9a3876a5a95bd" target="_top" xlink:title="Returns the integer representation of a prediction type given a name.">
<polygon fill="none" stroke="black" points="469.5,-0.5 469.5,-19.5 583.5,-19.5 583.5,-0.5 469.5,-0.5"/>
<text text-anchor="middle" x="526.5" y="-7.5" font-family="Helvetica,sans-Serif" font-size="10.00">prediction_type_as_int</text>
</a>
</g>
</g>
<!-- Node23&#45;&gt;Node24 -->
<g id="edge23" class="edge">
<title>Node23&#45;&gt;Node24</title>
<path fill="none" stroke="midnightblue" d="M415.32,-32.1C432.3,-28.7 451.07,-24.93 468.24,-21.49"/>
<polygon fill="midnightblue" stroke="midnightblue" points="469.03,-24.9 478.14,-19.5 467.65,-18.04 469.03,-24.9"/>
</g>
<!-- Node25&#45;&gt;Node22 -->
<g id="edge27" class="edge">
<title>Node25&#45;&gt;Node22</title>
<path fill="none" stroke="midnightblue" d="M413.5,-118.98C429.93,-121.48 448.19,-124.25 465.12,-126.82"/>
<polygon fill="midnightblue" stroke="midnightblue" points="465.05,-130.35 475.46,-128.39 466.1,-123.43 465.05,-130.35"/>
</g>
<!-- Node26 -->
<g id="node26" class="node">
<title>Node26</title>
<g id="a_node26"><a xlink:href="prediction_8c.html#a7b4efcc30beb6a0721140f10f67861da" target="_top" xlink:title=" ">
<polygon fill="none" stroke="black" points="465,-88.5 465,-107.5 588,-107.5 588,-88.5 465,-88.5"/>
<text text-anchor="middle" x="526.5" y="-95.5" font-family="Helvetica,sans-Serif" font-size="10.00">pred_param_set_lambda</text>
</a>
</g>
</g>
<!-- Node25&#45;&gt;Node26 -->
<g id="edge25" class="edge">
<title>Node25&#45;&gt;Node26</title>
<path fill="none" stroke="midnightblue" d="M413.5,-106.85C426.67,-105.81 441.01,-104.68 454.9,-103.58"/>
<polygon fill="midnightblue" stroke="midnightblue" points="455.21,-107.07 464.91,-102.79 454.66,-100.09 455.21,-107.07"/>
</g>
<!-- Node27 -->
<g id="node27" class="node">
<title>Node27</title>
<g id="a_node27"><a xlink:href="prediction_8c.html#acb71e8f11fe64ba35150417afa4c9441" target="_top" xlink:title=" ">
<polygon fill="none" stroke="black" points="469,-39 469,-69 584,-69 584,-39 469,-39"/>
<text text-anchor="start" x="477" y="-57" font-family="Helvetica,sans-Serif" font-size="10.00">pred_param_set_scale</text>
<text text-anchor="middle" x="526.5" y="-46" font-family="Helvetica,sans-Serif" font-size="10.00">_factor</text>
</a>
</g>
</g>
<!-- Node25&#45;&gt;Node27 -->
<g id="edge26" class="edge">
<title>Node25&#45;&gt;Node27</title>
<path fill="none" stroke="midnightblue" d="M404.65,-95.87C425.46,-88.66 450.54,-79.97 472.44,-72.39"/>
<polygon fill="midnightblue" stroke="midnightblue" points="473.63,-75.68 481.93,-69.1 471.34,-69.06 473.63,-75.68"/>
</g>
</g>
</svg>
