<?xml version="1.0" encoding="UTF-8" standalone="no"?>
<!DOCTYPE svg PUBLIC "-//W3C//DTD SVG 1.1//EN"
 "http://www.w3.org/Graphics/SVG/1.1/DTD/svg11.dtd">
<!-- Generated by graphviz version 2.43.0 (0)
 -->
<!-- Title: XCS::print_params Pages: 1 -->
<svg width="1142pt" height="467pt"
 viewBox="0.00 0.00 1142.00 466.50" xmlns="http://www.w3.org/2000/svg" xmlns:xlink="http://www.w3.org/1999/xlink">
<g id="graph0" class="graph" transform="scale(1 1) rotate(0) translate(4 462.5)">
<title>XCS::print_params</title>
<!-- Node1 -->
<g id="node1" class="node">
<title>Node1</title>
<g id="a_node1"><a xlink:title="Prints the XCSF parameters and their current values.">
<polygon fill="#bfbfbf" stroke="black" points="0,-126.5 0,-145.5 100,-145.5 100,-126.5 0,-126.5"/>
<text text-anchor="middle" x="50" y="-133.5" font-family="Helvetica,sans-Serif" font-size="10.00">XCS::print_params</text>
</a>
</g>
</g>
<!-- Node2 -->
<g id="node2" class="node">
<title>Node2</title>
<g id="a_node2"><a xlink:href="param_8c.html#a1e92bde5285ed6ded96ba4af5fd27bd2" target="_top" xlink:title="Prints all XCSF parameters.">
<polygon fill="none" stroke="black" points="136,-126.5 136,-145.5 204,-145.5 204,-126.5 136,-126.5"/>
<text text-anchor="middle" x="170" y="-133.5" font-family="Helvetica,sans-Serif" font-size="10.00">param_print</text>
</a>
</g>
</g>
<!-- Node1&#45;&gt;Node2 -->
<g id="edge1" class="edge">
<title>Node1&#45;&gt;Node2</title>
<path fill="none" stroke="midnightblue" d="M100.02,-136C108.48,-136 117.22,-136 125.52,-136"/>
<polygon fill="midnightblue" stroke="midnightblue" points="125.74,-139.5 135.74,-136 125.74,-132.5 125.74,-139.5"/>
</g>
<!-- Node3 -->
<g id="node3" class="node">
<title>Node3</title>
<g id="a_node3"><a xlink:href="param_8c.html#a631e4068e661e64840366188b60075dc" target="_top" xlink:title="Returns a json formatted string representation of the parameters.">
<polygon fill="none" stroke="black" points="240,-126.5 240,-145.5 339,-145.5 339,-126.5 240,-126.5"/>
<text text-anchor="middle" x="289.5" y="-133.5" font-family="Helvetica,sans-Serif" font-size="10.00">param_json_export</text>
</a>
</g>
</g>
<!-- Node2&#45;&gt;Node3 -->
<g id="edge2" class="edge">
<title>Node2&#45;&gt;Node3</title>
<path fill="none" stroke="midnightblue" d="M204.04,-136C212.04,-136 220.84,-136 229.63,-136"/>
<polygon fill="midnightblue" stroke="midnightblue" points="229.92,-139.5 239.92,-136 229.92,-132.5 229.92,-139.5"/>
</g>
<!-- Node4 -->
<g id="node4" class="node">
<title>Node4</title>
<g id="a_node4"><a xlink:href="action_8c.html#abd5f8e0c76c65e3986e0c03a26a7ecdf" target="_top" xlink:title="Returns a json formatted string of the action parameters.">
<polygon fill="none" stroke="black" points="375,-271.5 375,-290.5 506,-290.5 506,-271.5 375,-271.5"/>
<text text-anchor="middle" x="440.5" y="-278.5" font-family="Helvetica,sans-Serif" font-size="10.00">action_param_json_export</text>
</a>
</g>
</g>
<!-- Node3&#45;&gt;Node4 -->
<g id="edge3" class="edge">
<title>Node3&#45;&gt;Node4</title>
<path fill="none" stroke="midnightblue" d="M294.18,-145.55C303.75,-169.07 331.69,-230.2 375,-262 377.63,-263.93 380.46,-265.67 383.42,-267.24"/>
<polygon fill="midnightblue" stroke="midnightblue" points="382.01,-270.44 392.56,-271.41 384.92,-264.07 382.01,-270.44"/>
</g>
<!-- Node24 -->
<g id="node24" class="node">
<title>Node24</title>
<g id="a_node24"><a xlink:href="condition_8c.html#a0e0e347822daa85547f6369c239b4c87" target="_top" xlink:title="Returns a json formatted string of the condition parameters.">
<polygon fill="none" stroke="black" points="378,-233.5 378,-252.5 503,-252.5 503,-233.5 378,-233.5"/>
<text text-anchor="middle" x="440.5" y="-240.5" font-family="Helvetica,sans-Serif" font-size="10.00">cond_param_json_export</text>
</a>
</g>
</g>
<!-- Node3&#45;&gt;Node24 -->
<g id="edge24" class="edge">
<title>Node3&#45;&gt;Node24</title>
<path fill="none" stroke="midnightblue" d="M303.99,-145.68C329.8,-164.23 386.43,-204.89 417.69,-227.34"/>
<polygon fill="midnightblue" stroke="midnightblue" points="415.99,-230.42 426.15,-233.41 420.07,-224.74 415.99,-230.42"/>
</g>
<!-- Node30 -->
<g id="node30" class="node">
<title>Node30</title>
<g id="a_node30"><a xlink:href="ea_8c.html#ac5952d7531f708d79463da56e3d81389" target="_top" xlink:title="Returns a json formatted string representation of the EA parameters.">
<polygon fill="none" stroke="black" points="383,-88.5 383,-107.5 498,-107.5 498,-88.5 383,-88.5"/>
<text text-anchor="middle" x="440.5" y="-95.5" font-family="Helvetica,sans-Serif" font-size="10.00">ea_param_json_export</text>
</a>
</g>
</g>
<!-- Node3&#45;&gt;Node30 -->
<g id="edge31" class="edge">
<title>Node3&#45;&gt;Node30</title>
<path fill="none" stroke="midnightblue" d="M328.1,-126.41C347.58,-121.44 371.57,-115.32 392.3,-110.04"/>
<polygon fill="midnightblue" stroke="midnightblue" points="393.35,-113.38 402.17,-107.52 391.62,-106.6 393.35,-113.38"/>
</g>
<!-- Node32 -->
<g id="node32" class="node">
<title>Node32</title>
<g id="a_node32"><a xlink:href="loss_8c.html#ae2f30fcd2fb24ac4698c87b4d6b08cfe" target="_top" xlink:title="Returns a string representation of a loss type from the integer.">
<polygon fill="none" stroke="black" points="388.5,-50.5 388.5,-69.5 492.5,-69.5 492.5,-50.5 388.5,-50.5"/>
<text text-anchor="middle" x="440.5" y="-57.5" font-family="Helvetica,sans-Serif" font-size="10.00">loss_type_as_string</text>
</a>
</g>
</g>
<!-- Node3&#45;&gt;Node32 -->
<g id="edge33" class="edge">
<title>Node3&#45;&gt;Node32</title>
<path fill="none" stroke="midnightblue" d="M302.11,-126.45C317.78,-113.98 346.98,-92.19 375,-79 379.88,-76.7 385.11,-74.61 390.39,-72.73"/>
<polygon fill="midnightblue" stroke="midnightblue" points="391.52,-76.05 399.9,-69.58 389.31,-69.4 391.52,-76.05"/>
</g>
<!-- Node33 -->
<g id="node33" class="node">
<title>Node33</title>
<g id="a_node33"><a xlink:href="prediction_8c.html#a4efc41175016bfdcf6eaa51ae07aaaf8" target="_top" xlink:title="Returns a json formatted string of the prediction parameters.">
<polygon fill="none" stroke="black" points="379,-126.5 379,-145.5 502,-145.5 502,-126.5 379,-126.5"/>
<text text-anchor="middle" x="440.5" y="-133.5" font-family="Helvetica,sans-Serif" font-size="10.00">pred_param_json_export</text>
</a>
</g>
</g>
<!-- Node3&#45;&gt;Node33 -->
<g id="edge34" class="edge">
<title>Node3&#45;&gt;Node33</title>
<path fill="none" stroke="midnightblue" d="M339.29,-136C348.67,-136 358.68,-136 368.6,-136"/>
<polygon fill="midnightblue" stroke="midnightblue" points="368.88,-139.5 378.88,-136 368.88,-132.5 368.88,-139.5"/>
</g>
<!-- Node5 -->
<g id="node5" class="node">
<title>Node5</title>
<g id="a_node5"><a xlink:href="action_8c.html#a92f612de02989e82ef6c52bc7384f24f" target="_top" xlink:title="Returns a string representation of an action type from an integer.">
<polygon fill="none" stroke="black" points="560.5,-404.5 560.5,-423.5 672.5,-423.5 672.5,-404.5 560.5,-404.5"/>
<text text-anchor="middle" x="616.5" y="-411.5" font-family="Helvetica,sans-Serif" font-size="10.00">action_type_as_string</text>
</a>
</g>
</g>
<!-- Node4&#45;&gt;Node5 -->
<g id="edge4" class="edge">
<title>Node4&#45;&gt;Node5</title>
<path fill="none" stroke="midnightblue" d="M447.17,-290.68C460.63,-312.8 496.81,-367.25 542,-395 545.44,-397.11 549.11,-398.99 552.9,-400.66"/>
<polygon fill="midnightblue" stroke="midnightblue" points="551.94,-404.04 562.53,-404.4 554.48,-397.52 551.94,-404.04"/>
</g>
<!-- Node6 -->
<g id="node6" class="node">
<title>Node6</title>
<g id="a_node6"><a xlink:href="neural__layer__args_8c.html#a660f9e96fa6caf7aa200a6eead34501b" target="_top" xlink:title="Returns a json formatted string of the neural layer parameters.">
<polygon fill="none" stroke="black" points="558,-252.5 558,-271.5 675,-271.5 675,-252.5 558,-252.5"/>
<text text-anchor="middle" x="616.5" y="-259.5" font-family="Helvetica,sans-Serif" font-size="10.00">layer_args_json_export</text>
</a>
</g>
</g>
<!-- Node4&#45;&gt;Node6 -->
<g id="edge5" class="edge">
<title>Node4&#45;&gt;Node6</title>
<path fill="none" stroke="midnightblue" d="M506.29,-273.93C519.77,-272.45 534,-270.9 547.58,-269.42"/>
<polygon fill="midnightblue" stroke="midnightblue" points="548.26,-272.86 557.82,-268.3 547.5,-265.9 548.26,-272.86"/>
</g>
<!-- Node7 -->
<g id="node7" class="node">
<title>Node7</title>
<g id="a_node7"><a xlink:href="neural__layer__args_8c.html#a0d29d99487e5afd1746e7ac70fadf68f" target="_top" xlink:title="Adds layer activation function to a json object.">
<polygon fill="none" stroke="black" points="737.5,-428 737.5,-458 854.5,-458 854.5,-428 737.5,-428"/>
<text text-anchor="start" x="745.5" y="-446" font-family="Helvetica,sans-Serif" font-size="10.00">layer_args_json_export</text>
<text text-anchor="middle" x="796" y="-435" font-family="Helvetica,sans-Serif" font-size="10.00">_activation</text>
</a>
</g>
</g>
<!-- Node6&#45;&gt;Node7 -->
<g id="edge6" class="edge">
<title>Node6&#45;&gt;Node7</title>
<path fill="none" stroke="midnightblue" d="M675.34,-270.4C681.13,-273.08 686.52,-276.54 691,-281 735.61,-325.43 684.66,-371.41 727,-418 728.22,-419.34 729.52,-420.62 730.89,-421.82"/>
<polygon fill="midnightblue" stroke="midnightblue" points="729.2,-424.92 739.34,-427.99 733.33,-419.27 729.2,-424.92"/>
</g>
<!-- Node9 -->
<g id="node9" class="node">
<title>Node9</title>
<g id="a_node9"><a xlink:href="neural__layer__args_8c.html#aba8bd68ce834099ac6558a3b2560963a" target="_top" xlink:title="Adds layer evolutionary parameters to a json object.">
<polygon fill="none" stroke="black" points="727,-389.5 727,-408.5 865,-408.5 865,-389.5 727,-389.5"/>
<text text-anchor="middle" x="796" y="-396.5" font-family="Helvetica,sans-Serif" font-size="10.00">layer_args_json_export_evo</text>
</a>
</g>
</g>
<!-- Node6&#45;&gt;Node9 -->
<g id="edge8" class="edge">
<title>Node6&#45;&gt;Node9</title>
<path fill="none" stroke="midnightblue" d="M675.31,-270.98C681.04,-273.56 686.42,-276.83 691,-281 725.65,-312.48 692.66,-348.18 727,-380 728.68,-381.56 730.48,-382.99 732.37,-384.3"/>
<polygon fill="midnightblue" stroke="midnightblue" points="730.73,-387.4 741.15,-389.36 734.23,-381.33 730.73,-387.4"/>
</g>
<!-- Node10 -->
<g id="node10" class="node">
<title>Node10</title>
<g id="a_node10"><a xlink:href="neural__layer__args_8c.html#a7b6e5027adbd710fc3653c7056c22fa2" target="_top" xlink:title="Adds layer input parameters to a json object.">
<polygon fill="none" stroke="black" points="737.5,-340 737.5,-370 854.5,-370 854.5,-340 737.5,-340"/>
<text text-anchor="start" x="745.5" y="-358" font-family="Helvetica,sans-Serif" font-size="10.00">layer_args_json_export</text>
<text text-anchor="middle" x="796" y="-347" font-family="Helvetica,sans-Serif" font-size="10.00">_inputs</text>
</a>
</g>
</g>
<!-- Node6&#45;&gt;Node10 -->
<g id="edge9" class="edge">
<title>Node6&#45;&gt;Node10</title>
<path fill="none" stroke="midnightblue" d="M672.36,-271.6C678.95,-274.05 685.34,-277.13 691,-281 713.6,-296.46 705.09,-314.58 727,-331 728.83,-332.37 730.75,-333.67 732.73,-334.9"/>
<polygon fill="midnightblue" stroke="midnightblue" points="731.3,-338.11 741.75,-339.85 734.67,-331.97 731.3,-338.11"/>
</g>
<!-- Node12 -->
<g id="node12" class="node">
<title>Node12</title>
<g id="a_node12"><a xlink:href="neural__layer__args_8c.html#a1130173f486e5e1b647a65ff0822aebc" target="_top" xlink:title="Adds layer scaling parameters to a json object.">
<polygon fill="none" stroke="black" points="737.5,-291 737.5,-321 854.5,-321 854.5,-291 737.5,-291"/>
<text text-anchor="start" x="745.5" y="-309" font-family="Helvetica,sans-Serif" font-size="10.00">layer_args_json_export</text>
<text text-anchor="middle" x="796" y="-298" font-family="Helvetica,sans-Serif" font-size="10.00">_scale</text>
</a>
</g>
</g>
<!-- Node6&#45;&gt;Node12 -->
<g id="edge11" class="edge">
<title>Node6&#45;&gt;Node12</title>
<path fill="none" stroke="midnightblue" d="M656.01,-271.55C676.9,-276.72 703.31,-283.27 727.48,-289.26"/>
<polygon fill="midnightblue" stroke="midnightblue" points="726.78,-292.7 737.33,-291.7 728.47,-285.9 726.78,-292.7"/>
</g>
<!-- Node13 -->
<g id="node13" class="node">
<title>Node13</title>
<g id="a_node13"><a xlink:href="neural__layer__args_8c.html#a686e3f11eb7bb524effd5ddb75bdbd34" target="_top" xlink:title="Adds layer gradient descent parameters to a json object.">
<polygon fill="none" stroke="black" points="727,-252.5 727,-271.5 865,-271.5 865,-252.5 727,-252.5"/>
<text text-anchor="middle" x="796" y="-259.5" font-family="Helvetica,sans-Serif" font-size="10.00">layer_args_json_export_sgd</text>
</a>
</g>
</g>
<!-- Node6&#45;&gt;Node13 -->
<g id="edge12" class="edge">
<title>Node6&#45;&gt;Node13</title>
<path fill="none" stroke="midnightblue" d="M675.13,-262C688.41,-262 702.75,-262 716.74,-262"/>
<polygon fill="midnightblue" stroke="midnightblue" points="716.84,-265.5 726.84,-262 716.84,-258.5 716.84,-265.5"/>
</g>
<!-- Node14 -->
<g id="node14" class="node">
<title>Node14</title>
<g id="a_node14"><a xlink:href="neural__layer_8c.html#a0e2222a263f09abb981bc7273cd88d7e" target="_top" xlink:title="Returns a string representation of a layer type from an integer.">
<polygon fill="none" stroke="black" points="742.5,-214.5 742.5,-233.5 849.5,-233.5 849.5,-214.5 742.5,-214.5"/>
<text text-anchor="middle" x="796" y="-221.5" font-family="Helvetica,sans-Serif" font-size="10.00">layer_type_as_string</text>
</a>
</g>
</g>
<!-- Node6&#45;&gt;Node14 -->
<g id="edge13" class="edge">
<title>Node6&#45;&gt;Node14</title>
<path fill="none" stroke="midnightblue" d="M662.29,-252.41C686.03,-247.33 715.38,-241.04 740.44,-235.68"/>
<polygon fill="midnightblue" stroke="midnightblue" points="741.49,-239.04 750.53,-233.52 740.02,-232.19 741.49,-239.04"/>
</g>
<!-- Node15 -->
<g id="node15" class="node">
<title>Node15</title>
<g id="a_node15"><a xlink:href="neural_8c.html#a6466387dd7c533e0f15da4c2127bfd79" target="_top" xlink:title="Initialises and creates a new neural network from a parameter list.">
<polygon fill="none" stroke="black" points="758.5,-176.5 758.5,-195.5 833.5,-195.5 833.5,-176.5 758.5,-176.5"/>
<text text-anchor="middle" x="796" y="-183.5" font-family="Helvetica,sans-Serif" font-size="10.00">neural_create</text>
</a>
</g>
</g>
<!-- Node6&#45;&gt;Node15 -->
<g id="edge14" class="edge">
<title>Node6&#45;&gt;Node15</title>
<path fill="none" stroke="midnightblue" d="M669.57,-252.45C677.04,-249.98 684.41,-246.88 691,-243 711.04,-231.19 707.08,-217.01 727,-205 733.57,-201.04 740.99,-197.88 748.45,-195.37"/>
<polygon fill="midnightblue" stroke="midnightblue" points="749.66,-198.66 758.22,-192.42 747.64,-191.96 749.66,-198.66"/>
</g>
<!-- Node19 -->
<g id="node19" class="node">
<title>Node19</title>
<g id="a_node19"><a xlink:href="neural_8c.html#ad70aee7c40f698d4be45e3d419051c2f" target="_top" xlink:title="Initialises an empty neural network.">
<polygon fill="none" stroke="black" points="930,-138.5 930,-157.5 991,-157.5 991,-138.5 930,-138.5"/>
<text text-anchor="middle" x="960.5" y="-145.5" font-family="Helvetica,sans-Serif" font-size="10.00">neural_init</text>
</a>
</g>
</g>
<!-- Node6&#45;&gt;Node19 -->
<g id="edge23" class="edge">
<title>Node6&#45;&gt;Node19</title>
<path fill="none" stroke="midnightblue" d="M675.3,-252.42C680.96,-249.95 686.33,-246.86 691,-243 719.81,-219.19 696.26,-188.26 727,-167 784.53,-127.22 870.26,-132.47 919.96,-140.09"/>
<polygon fill="midnightblue" stroke="midnightblue" points="919.55,-143.57 929.99,-141.74 920.69,-136.67 919.55,-143.57"/>
</g>
<!-- Node22 -->
<g id="node22" class="node">
<title>Node22</title>
<g id="a_node22"><a xlink:href="neural_8c.html#a9c3e1da0425d0fc17daa12c21e4799ca" target="_top" xlink:title="Frees a neural network.">
<polygon fill="none" stroke="black" points="763.5,-100.5 763.5,-119.5 828.5,-119.5 828.5,-100.5 763.5,-100.5"/>
<text text-anchor="middle" x="796" y="-107.5" font-family="Helvetica,sans-Serif" font-size="10.00">neural_free</text>
</a>
</g>
</g>
<!-- Node6&#45;&gt;Node22 -->
<g id="edge21" class="edge">
<title>Node6&#45;&gt;Node22</title>
<path fill="none" stroke="midnightblue" d="M675.07,-253.32C680.91,-250.69 686.38,-247.32 691,-243 728.25,-208.14 691.29,-170.44 727,-134 734.23,-126.62 743.86,-121.51 753.6,-117.96"/>
<polygon fill="midnightblue" stroke="midnightblue" points="754.79,-121.26 763.28,-114.92 752.69,-114.58 754.79,-121.26"/>
</g>
<!-- Node8 -->
<g id="node8" class="node">
<title>Node8</title>
<g id="a_node8"><a xlink:href="neural__activations_8c.html#a429f5b4427682cb174e3d4d56f181a22" target="_top" xlink:title="Returns the name of a specified activation function.">
<polygon fill="none" stroke="black" points="901,-433.5 901,-452.5 1020,-452.5 1020,-433.5 901,-433.5"/>
<text text-anchor="middle" x="960.5" y="-440.5" font-family="Helvetica,sans-Serif" font-size="10.00">neural_activation_string</text>
</a>
</g>
</g>
<!-- Node7&#45;&gt;Node8 -->
<g id="edge7" class="edge">
<title>Node7&#45;&gt;Node8</title>
<path fill="none" stroke="midnightblue" d="M854.75,-443C866.32,-443 878.59,-443 890.5,-443"/>
<polygon fill="midnightblue" stroke="midnightblue" points="890.84,-446.5 900.84,-443 890.84,-439.5 890.84,-446.5"/>
</g>
<!-- Node11 -->
<g id="node11" class="node">
<title>Node11</title>
<g id="a_node11"><a xlink:href="neural__layer_8c.html#ad1b7188119d0d96791ee0d87c105896a" target="_top" xlink:title="Returns a whether a layer type expects images as input.">
<polygon fill="none" stroke="black" points="902.5,-345.5 902.5,-364.5 1018.5,-364.5 1018.5,-345.5 902.5,-345.5"/>
<text text-anchor="middle" x="960.5" y="-352.5" font-family="Helvetica,sans-Serif" font-size="10.00">layer_receives_images</text>
</a>
</g>
</g>
<!-- Node10&#45;&gt;Node11 -->
<g id="edge10" class="edge">
<title>Node10&#45;&gt;Node11</title>
<path fill="none" stroke="midnightblue" d="M854.75,-355C866.86,-355 879.74,-355 892.17,-355"/>
<polygon fill="midnightblue" stroke="midnightblue" points="892.48,-358.5 902.48,-355 892.48,-351.5 892.48,-358.5"/>
</g>
<!-- Node16 -->
<g id="node16" class="node">
<title>Node16</title>
<g id="a_node16"><a xlink:href="neural__layer_8h.html#a33f40237cec8d79bf6325b78d1f955fe" target="_top" xlink:title="Creates and initialises a new layer.">
<polygon fill="none" stroke="black" points="932.5,-214.5 932.5,-233.5 988.5,-233.5 988.5,-214.5 932.5,-214.5"/>
<text text-anchor="middle" x="960.5" y="-221.5" font-family="Helvetica,sans-Serif" font-size="10.00">layer_init</text>
</a>
</g>
</g>
<!-- Node15&#45;&gt;Node16 -->
<g id="edge15" class="edge">
<title>Node15&#45;&gt;Node16</title>
<path fill="none" stroke="midnightblue" d="M833.87,-194.62C860.33,-200.81 895.83,-209.11 922.35,-215.31"/>
<polygon fill="midnightblue" stroke="midnightblue" points="921.86,-218.79 932.39,-217.66 923.45,-211.98 921.86,-218.79"/>
</g>
<!-- Node15&#45;&gt;Node19 -->
<g id="edge18" class="edge">
<title>Node15&#45;&gt;Node19</title>
<path fill="none" stroke="midnightblue" d="M833.87,-177.38C859.5,-171.38 893.62,-163.4 919.84,-157.27"/>
<polygon fill="midnightblue" stroke="midnightblue" points="920.88,-160.63 929.82,-154.94 919.29,-153.81 920.88,-160.63"/>
</g>
<!-- Node20 -->
<g id="node20" class="node">
<title>Node20</title>
<g id="a_node20"><a xlink:href="neural_8c.html#a1c1c06446fc719b8293aade2ded8433c" target="_top" xlink:title="Inserts a layer at the head of a neural network.">
<polygon fill="none" stroke="black" points="926,-176.5 926,-195.5 995,-195.5 995,-176.5 926,-176.5"/>
<text text-anchor="middle" x="960.5" y="-183.5" font-family="Helvetica,sans-Serif" font-size="10.00">neural_push</text>
</a>
</g>
</g>
<!-- Node15&#45;&gt;Node20 -->
<g id="edge19" class="edge">
<title>Node15&#45;&gt;Node20</title>
<path fill="none" stroke="midnightblue" d="M833.87,-186C858.15,-186 890.06,-186 915.64,-186"/>
<polygon fill="midnightblue" stroke="midnightblue" points="915.82,-189.5 925.82,-186 915.82,-182.5 915.82,-189.5"/>
</g>
<!-- Node17 -->
<g id="node17" class="node">
<title>Node17</title>
<g id="a_node17"><a xlink:href="neural__layer_8h.html#a21a8acbaa483c46984c4f5f20d4edf95" target="_top" xlink:title="Initialises a layer to default values.">
<polygon fill="none" stroke="black" points="1056.5,-214.5 1056.5,-233.5 1133.5,-233.5 1133.5,-214.5 1056.5,-214.5"/>
<text text-anchor="middle" x="1095" y="-221.5" font-family="Helvetica,sans-Serif" font-size="10.00">layer_defaults</text>
</a>
</g>
</g>
<!-- Node16&#45;&gt;Node17 -->
<g id="edge16" class="edge">
<title>Node16&#45;&gt;Node17</title>
<path fill="none" stroke="midnightblue" d="M988.63,-224C1005.19,-224 1026.83,-224 1046.18,-224"/>
<polygon fill="midnightblue" stroke="midnightblue" points="1046.36,-227.5 1056.36,-224 1046.36,-220.5 1046.36,-227.5"/>
</g>
<!-- Node18 -->
<g id="node18" class="node">
<title>Node18</title>
<g id="a_node18"><a xlink:href="neural__layer_8h.html#a786726dce503a14b3bdd88b1ab5c356f" target="_top" xlink:title="Sets a neural network layer&#39;s functions to the implementations.">
<polygon fill="none" stroke="black" points="1056,-252.5 1056,-271.5 1134,-271.5 1134,-252.5 1056,-252.5"/>
<text text-anchor="middle" x="1095" y="-259.5" font-family="Helvetica,sans-Serif" font-size="10.00">layer_set_vptr</text>
</a>
</g>
</g>
<!-- Node16&#45;&gt;Node18 -->
<g id="edge17" class="edge">
<title>Node16&#45;&gt;Node18</title>
<path fill="none" stroke="midnightblue" d="M988.63,-231.78C1006.59,-236.93 1030.52,-243.8 1051.04,-249.68"/>
<polygon fill="midnightblue" stroke="midnightblue" points="1050.22,-253.09 1060.8,-252.48 1052.15,-246.36 1050.22,-253.09"/>
</g>
<!-- Node21 -->
<g id="node21" class="node">
<title>Node21</title>
<g id="a_node21"><a xlink:href="neural_8c.html#afab574137fbf9da9a286d020917c8295" target="_top" xlink:title="Inserts a layer into a neural network.">
<polygon fill="none" stroke="black" points="1059,-176.5 1059,-195.5 1131,-195.5 1131,-176.5 1059,-176.5"/>
<text text-anchor="middle" x="1095" y="-183.5" font-family="Helvetica,sans-Serif" font-size="10.00">neural_insert</text>
</a>
</g>
</g>
<!-- Node20&#45;&gt;Node21 -->
<g id="edge20" class="edge">
<title>Node20&#45;&gt;Node21</title>
<path fill="none" stroke="midnightblue" d="M995.28,-186C1011.56,-186 1031.31,-186 1048.86,-186"/>
<polygon fill="midnightblue" stroke="midnightblue" points="1048.9,-189.5 1058.9,-186 1048.9,-182.5 1048.9,-189.5"/>
</g>
<!-- Node23 -->
<g id="node23" class="node">
<title>Node23</title>
<g id="a_node23"><a xlink:href="neural__layer_8h.html#a5ea2541eb1936ed851001c4a8b99b08f" target="_top" xlink:title="Frees the memory used by the layer.">
<polygon fill="none" stroke="black" points="931,-100.5 931,-119.5 990,-119.5 990,-100.5 931,-100.5"/>
<text text-anchor="middle" x="960.5" y="-107.5" font-family="Helvetica,sans-Serif" font-size="10.00">layer_free</text>
</a>
</g>
</g>
<!-- Node22&#45;&gt;Node23 -->
<g id="edge22" class="edge">
<title>Node22&#45;&gt;Node23</title>
<path fill="none" stroke="midnightblue" d="M828.72,-110C855.01,-110 892.49,-110 920.59,-110"/>
<polygon fill="midnightblue" stroke="midnightblue" points="920.86,-113.5 930.86,-110 920.86,-106.5 920.86,-113.5"/>
</g>
<!-- Node24&#45;&gt;Node6 -->
<g id="edge29" class="edge">
<title>Node24&#45;&gt;Node6</title>
<path fill="none" stroke="midnightblue" d="M503.34,-249.75C517.78,-251.33 533.24,-253.02 547.92,-254.62"/>
<polygon fill="midnightblue" stroke="midnightblue" points="547.61,-258.11 557.93,-255.71 548.37,-251.15 547.61,-258.11"/>
</g>
<!-- Node25 -->
<g id="node25" class="node">
<title>Node25</title>
<g id="a_node25"><a xlink:href="condition_8c.html#acd584c89e889fee4610d4a70e89c6402" target="_top" xlink:title="Returns a json formatted string of the center&#45;spread parameters.">
<polygon fill="none" stroke="black" points="544.5,-214.5 544.5,-233.5 688.5,-233.5 688.5,-214.5 544.5,-214.5"/>
<text text-anchor="middle" x="616.5" y="-221.5" font-family="Helvetica,sans-Serif" font-size="10.00">cond_param_json_export_csr</text>
</a>
</g>
</g>
<!-- Node24&#45;&gt;Node25 -->
<g id="edge25" class="edge">
<title>Node24&#45;&gt;Node25</title>
<path fill="none" stroke="midnightblue" d="M503.34,-236.25C513.4,-235.15 523.96,-234 534.41,-232.85"/>
<polygon fill="midnightblue" stroke="midnightblue" points="534.81,-236.33 544.37,-231.77 534.05,-229.37 534.81,-236.33"/>
</g>
<!-- Node26 -->
<g id="node26" class="node">
<title>Node26</title>
<g id="a_node26"><a xlink:href="condition_8c.html#a54a3d044167738974491766ddc699d14" target="_top" xlink:title="Returns a json formatted string of the ternary parameters.">
<polygon fill="none" stroke="black" points="554,-165 554,-195 679,-195 679,-165 554,-165"/>
<text text-anchor="start" x="562" y="-183" font-family="Helvetica,sans-Serif" font-size="10.00">cond_param_json_export</text>
<text text-anchor="middle" x="616.5" y="-172" font-family="Helvetica,sans-Serif" font-size="10.00">_ternary</text>
</a>
</g>
</g>
<!-- Node24&#45;&gt;Node26 -->
<g id="edge26" class="edge">
<title>Node24&#45;&gt;Node26</title>
<path fill="none" stroke="midnightblue" d="M466.2,-233.4C486.49,-225.57 516.02,-214.33 542,-205 547.99,-202.85 554.28,-200.64 560.54,-198.47"/>
<polygon fill="midnightblue" stroke="midnightblue" points="562.01,-201.66 570.33,-195.1 559.73,-195.04 562.01,-201.66"/>
</g>
<!-- Node27 -->
<g id="node27" class="node">
<title>Node27</title>
<g id="a_node27"><a xlink:href="condition_8c.html#af5a052e347755190271b32d8b09ec026" target="_top" xlink:title="Returns a string representation of a condition type from an integer.">
<polygon fill="none" stroke="black" points="554,-366.5 554,-385.5 679,-385.5 679,-366.5 554,-366.5"/>
<text text-anchor="middle" x="616.5" y="-373.5" font-family="Helvetica,sans-Serif" font-size="10.00">condition_type_as_string</text>
</a>
</g>
</g>
<!-- Node24&#45;&gt;Node27 -->
<g id="edge27" class="edge">
<title>Node24&#45;&gt;Node27</title>
<path fill="none" stroke="midnightblue" d="M491.59,-252.55C496.85,-255.02 501.81,-258.11 506,-262 539.11,-292.7 508.38,-326.86 542,-357 543.75,-358.57 545.62,-360.02 547.58,-361.35"/>
<polygon fill="midnightblue" stroke="midnightblue" points="546.22,-364.6 556.65,-366.45 549.65,-358.5 546.22,-364.6"/>
</g>
<!-- Node28 -->
<g id="node28" class="node">
<title>Node28</title>
<g id="a_node28"><a xlink:href="dgp_8c.html#aedf264534de2691640b2389251db7927" target="_top" xlink:title="Returns a json formatted string of the DGP parameters.">
<polygon fill="none" stroke="black" points="556.5,-328.5 556.5,-347.5 676.5,-347.5 676.5,-328.5 556.5,-328.5"/>
<text text-anchor="middle" x="616.5" y="-335.5" font-family="Helvetica,sans-Serif" font-size="10.00">graph_args_json_export</text>
</a>
</g>
</g>
<!-- Node24&#45;&gt;Node28 -->
<g id="edge28" class="edge">
<title>Node24&#45;&gt;Node28</title>
<path fill="none" stroke="midnightblue" d="M488.87,-252.59C494.98,-255.05 500.88,-258.13 506,-262 529.91,-280.06 517.79,-301.34 542,-319 544.66,-320.94 547.51,-322.69 550.47,-324.25"/>
<polygon fill="midnightblue" stroke="midnightblue" points="549.11,-327.48 559.66,-328.44 552.01,-321.11 549.11,-327.48"/>
</g>
<!-- Node29 -->
<g id="node29" class="node">
<title>Node29</title>
<g id="a_node29"><a xlink:href="gp_8c.html#aff82366cbfae9c6c193acf4a52674270" target="_top" xlink:title="Returns a json formatted string of the GP tree parameters.">
<polygon fill="none" stroke="black" points="560,-290.5 560,-309.5 673,-309.5 673,-290.5 560,-290.5"/>
<text text-anchor="middle" x="616.5" y="-297.5" font-family="Helvetica,sans-Serif" font-size="10.00">tree_args_json_export</text>
</a>
</g>
</g>
<!-- Node24&#45;&gt;Node29 -->
<g id="edge30" class="edge">
<title>Node24&#45;&gt;Node29</title>
<path fill="none" stroke="midnightblue" d="M478.43,-252.51C487.57,-255.23 497.24,-258.44 506,-262 522.76,-268.81 525.13,-274.47 542,-281 548.36,-283.46 555.15,-285.7 561.94,-287.72"/>
<polygon fill="midnightblue" stroke="midnightblue" points="561.26,-291.16 571.83,-290.5 563.15,-284.42 561.26,-291.16"/>
</g>
<!-- Node31 -->
<g id="node31" class="node">
<title>Node31</title>
<g id="a_node31"><a xlink:href="ea_8c.html#a53acdbcd7a77faf6d38068559ae03b8b" target="_top" xlink:title="Returns a string representation of an EA select type from an integer.">
<polygon fill="none" stroke="black" points="568.5,-0.5 568.5,-19.5 664.5,-19.5 664.5,-0.5 568.5,-0.5"/>
<text text-anchor="middle" x="616.5" y="-7.5" font-family="Helvetica,sans-Serif" font-size="10.00">ea_type_as_string</text>
</a>
</g>
</g>
<!-- Node30&#45;&gt;Node31 -->
<g id="edge32" class="edge">
<title>Node30&#45;&gt;Node31</title>
<path fill="none" stroke="midnightblue" d="M487.99,-88.38C494.36,-85.92 500.57,-82.85 506,-79 528.34,-63.16 519.4,-44.46 542,-29 547.14,-25.48 552.89,-22.62 558.84,-20.28"/>
<polygon fill="midnightblue" stroke="midnightblue" points="559.99,-23.59 568.31,-17.03 557.72,-16.97 559.99,-23.59"/>
</g>
<!-- Node33&#45;&gt;Node6 -->
<g id="edge35" class="edge">
<title>Node33&#45;&gt;Node6</title>
<path fill="none" stroke="midnightblue" d="M447.74,-145.71C461.84,-166.83 498.37,-217.15 542,-243 545.7,-245.19 549.65,-247.13 553.73,-248.85"/>
<polygon fill="midnightblue" stroke="midnightblue" points="552.82,-252.25 563.41,-252.48 555.27,-245.69 552.82,-252.25"/>
</g>
<!-- Node34 -->
<g id="node34" class="node">
<title>Node34</title>
<g id="a_node34"><a xlink:href="prediction_8c.html#a8c10e8e3bb923a105e3eee1968a3f110" target="_top" xlink:title="Returns a json formatted string of the NLMS parameters.">
<polygon fill="none" stroke="black" points="542,-126.5 542,-145.5 691,-145.5 691,-126.5 542,-126.5"/>
<text text-anchor="middle" x="616.5" y="-133.5" font-family="Helvetica,sans-Serif" font-size="10.00">pred_param_json_export_nlms</text>
</a>
</g>
</g>
<!-- Node33&#45;&gt;Node34 -->
<g id="edge36" class="edge">
<title>Node33&#45;&gt;Node34</title>
<path fill="none" stroke="midnightblue" d="M502.36,-136C511.81,-136 521.72,-136 531.58,-136"/>
<polygon fill="midnightblue" stroke="midnightblue" points="531.81,-139.5 541.81,-136 531.81,-132.5 531.81,-139.5"/>
</g>
<!-- Node35 -->
<g id="node35" class="node">
<title>Node35</title>
<g id="a_node35"><a xlink:href="prediction_8c.html#a3005d643c0bcca62b878f9d6efdfa8dc" target="_top" xlink:title="Returns a json formatted string of the RLS parameters.">
<polygon fill="none" stroke="black" points="547,-88.5 547,-107.5 686,-107.5 686,-88.5 547,-88.5"/>
<text text-anchor="middle" x="616.5" y="-95.5" font-family="Helvetica,sans-Serif" font-size="10.00">pred_param_json_export_rls</text>
</a>
</g>
</g>
<!-- Node33&#45;&gt;Node35 -->
<g id="edge37" class="edge">
<title>Node33&#45;&gt;Node35</title>
<path fill="none" stroke="midnightblue" d="M485.41,-126.41C508.68,-121.33 537.45,-115.04 562.02,-109.68"/>
<polygon fill="midnightblue" stroke="midnightblue" points="562.89,-113.07 571.91,-107.52 561.39,-106.23 562.89,-113.07"/>
</g>
<!-- Node36 -->
<g id="node36" class="node">
<title>Node36</title>
<g id="a_node36"><a xlink:href="prediction_8c.html#a085a8402296bdeab95f54299040e6e0e" target="_top" xlink:title="Returns a string representation of a prediction type from the integer.">
<polygon fill="none" stroke="black" points="567.5,-39 567.5,-69 665.5,-69 665.5,-39 567.5,-39"/>
<text text-anchor="start" x="575.5" y="-57" font-family="Helvetica,sans-Serif" font-size="10.00">prediction_type_as</text>
<text text-anchor="middle" x="616.5" y="-46" font-family="Helvetica,sans-Serif" font-size="10.00">_string</text>
</a>
</g>
</g>
<!-- Node33&#45;&gt;Node36 -->
<g id="edge38" class="edge">
<title>Node33&#45;&gt;Node36</title>
<path fill="none" stroke="midnightblue" d="M485.51,-126.43C492.64,-123.94 499.73,-120.84 506,-117 525.84,-104.85 522.42,-91.56 542,-79 546.94,-75.83 552.33,-73.02 557.87,-70.53"/>
<polygon fill="midnightblue" stroke="midnightblue" points="559.38,-73.69 567.29,-66.64 556.71,-67.22 559.38,-73.69"/>
</g>
</g>
</svg>
