<?xml version="1.0" encoding="UTF-8" standalone="no"?>
<!DOCTYPE svg PUBLIC "-//W3C//DTD SVG 1.1//EN"
 "http://www.w3.org/Graphics/SVG/1.1/DTD/svg11.dtd">
<!-- Generated by graphviz version 2.43.0 (0)
 -->
<!-- Title: XCS::set_loss_func Pages: 1 -->
<svg width="597pt" height="256pt"
 viewBox="0.00 0.00 597.00 256.00" xmlns="http://www.w3.org/2000/svg" xmlns:xlink="http://www.w3.org/1999/xlink">
<g id="graph0" class="graph" transform="scale(1 1) rotate(0) translate(4 252)">
<title>XCS::set_loss_func</title>
<!-- Node1 -->
<g id="node1" class="node">
<title>Node1</title>
<g id="a_node1"><a xlink:title=" ">
<polygon fill="#bfbfbf" stroke="black" points="0,-114.5 0,-133.5 104,-133.5 104,-114.5 0,-114.5"/>
<text text-anchor="middle" x="52" y="-121.5" font-family="Helvetica,sans-Serif" font-size="10.00">XCS::set_loss_func</text>
</a>
</g>
</g>
<!-- Node2 -->
<g id="node2" class="node">
<title>Node2</title>
<g id="a_node2"><a xlink:href="param_8h.html#a49623637277584f05a95ca48ae194fc1" target="_top" xlink:title=" ">
<polygon fill="none" stroke="black" points="140,-114.5 140,-133.5 250,-133.5 250,-114.5 140,-114.5"/>
<text text-anchor="middle" x="195" y="-121.5" font-family="Helvetica,sans-Serif" font-size="10.00">param_set_loss_func</text>
</a>
</g>
</g>
<!-- Node1&#45;&gt;Node2 -->
<g id="edge1" class="edge">
<title>Node1&#45;&gt;Node2</title>
<path fill="none" stroke="midnightblue" d="M104.3,-124C112.48,-124 121.02,-124 129.45,-124"/>
<polygon fill="midnightblue" stroke="midnightblue" points="129.65,-127.5 139.65,-124 129.65,-120.5 129.65,-127.5"/>
</g>
<!-- Node3 -->
<g id="node3" class="node">
<title>Node3</title>
<g id="a_node3"><a xlink:href="loss_8c.html#a440b847b0f4edd503b919d3bebecd66c" target="_top" xlink:title="Sets the XCSF error function to the implemented function.">
<polygon fill="none" stroke="black" points="286,-114.5 286,-133.5 363,-133.5 363,-114.5 286,-114.5"/>
<text text-anchor="middle" x="324.5" y="-121.5" font-family="Helvetica,sans-Serif" font-size="10.00">loss_set_func</text>
</a>
</g>
</g>
<!-- Node2&#45;&gt;Node3 -->
<g id="edge2" class="edge">
<title>Node2&#45;&gt;Node3</title>
<path fill="none" stroke="midnightblue" d="M250.07,-124C258.66,-124 267.49,-124 275.91,-124"/>
<polygon fill="midnightblue" stroke="midnightblue" points="275.95,-127.5 285.95,-124 275.95,-120.5 275.95,-127.5"/>
</g>
<!-- Node4 -->
<g id="node4" class="node">
<title>Node4</title>
<g id="a_node4"><a xlink:href="loss_8c.html#a2687b111bc407194c64e07e2b933bb3c" target="_top" xlink:title="Binary logistic log loss for binary&#45;class classification.">
<polygon fill="none" stroke="black" points="402,-228.5 402,-247.5 486,-247.5 486,-228.5 402,-228.5"/>
<text text-anchor="middle" x="444" y="-235.5" font-family="Helvetica,sans-Serif" font-size="10.00">loss_binary_log</text>
</a>
</g>
</g>
<!-- Node3&#45;&gt;Node4 -->
<g id="edge3" class="edge">
<title>Node3&#45;&gt;Node4</title>
<path fill="none" stroke="midnightblue" d="M330.72,-133.65C341.31,-152.43 367.04,-194.2 399,-219 401.07,-220.61 403.3,-222.11 405.61,-223.5"/>
<polygon fill="midnightblue" stroke="midnightblue" points="404.34,-226.79 414.82,-228.36 407.61,-220.59 404.34,-226.79"/>
</g>
<!-- Node5 -->
<g id="node5" class="node">
<title>Node5</title>
<g id="a_node5"><a xlink:href="loss_8c.html#adf5bc1e947369774d48b0355dbdbcc30" target="_top" xlink:title="Huber loss function.">
<polygon fill="none" stroke="black" points="412,-190.5 412,-209.5 476,-209.5 476,-190.5 412,-190.5"/>
<text text-anchor="middle" x="444" y="-197.5" font-family="Helvetica,sans-Serif" font-size="10.00">loss_huber</text>
</a>
</g>
</g>
<!-- Node3&#45;&gt;Node5 -->
<g id="edge4" class="edge">
<title>Node3&#45;&gt;Node5</title>
<path fill="none" stroke="midnightblue" d="M336.32,-133.82C350.13,-146 375.09,-166.87 399,-181 402.03,-182.79 405.26,-184.51 408.54,-186.13"/>
<polygon fill="midnightblue" stroke="midnightblue" points="407.25,-189.38 417.79,-190.41 410.19,-183.03 407.25,-189.38"/>
</g>
<!-- Node6 -->
<g id="node6" class="node">
<title>Node6</title>
<g id="a_node6"><a xlink:href="loss_8c.html#a5b0fc07896aaa302b61213c450874d49" target="_top" xlink:title="Logistic log loss for multi&#45;class classification.">
<polygon fill="none" stroke="black" points="417.5,-152.5 417.5,-171.5 470.5,-171.5 470.5,-152.5 417.5,-152.5"/>
<text text-anchor="middle" x="444" y="-159.5" font-family="Helvetica,sans-Serif" font-size="10.00">loss_log</text>
</a>
</g>
</g>
<!-- Node3&#45;&gt;Node6 -->
<g id="edge5" class="edge">
<title>Node3&#45;&gt;Node6</title>
<path fill="none" stroke="midnightblue" d="M355.15,-133.59C371.03,-138.72 390.7,-145.08 407.4,-150.49"/>
<polygon fill="midnightblue" stroke="midnightblue" points="406.76,-153.96 417.35,-153.7 408.91,-147.3 406.76,-153.96"/>
</g>
<!-- Node7 -->
<g id="node7" class="node">
<title>Node7</title>
<g id="a_node7"><a xlink:href="loss_8c.html#a7f1e236d219a5f551408639674b4a24a" target="_top" xlink:title="Mean absolute error loss function.">
<polygon fill="none" stroke="black" points="414.5,-114.5 414.5,-133.5 473.5,-133.5 473.5,-114.5 414.5,-114.5"/>
<text text-anchor="middle" x="444" y="-121.5" font-family="Helvetica,sans-Serif" font-size="10.00">loss_mae</text>
</a>
</g>
</g>
<!-- Node3&#45;&gt;Node7 -->
<g id="edge6" class="edge">
<title>Node3&#45;&gt;Node7</title>
<path fill="none" stroke="midnightblue" d="M363,-124C376.14,-124 390.93,-124 404.18,-124"/>
<polygon fill="midnightblue" stroke="midnightblue" points="404.41,-127.5 414.41,-124 404.41,-120.5 404.41,-127.5"/>
</g>
<!-- Node8 -->
<g id="node8" class="node">
<title>Node8</title>
<g id="a_node8"><a xlink:href="loss_8c.html#aaeed4518371c4e75de20532e3a6aa601" target="_top" xlink:title="Mean squared error loss function.">
<polygon fill="none" stroke="black" points="527.5,-57.5 527.5,-76.5 586.5,-76.5 586.5,-57.5 527.5,-57.5"/>
<text text-anchor="middle" x="557" y="-64.5" font-family="Helvetica,sans-Serif" font-size="10.00">loss_mse</text>
</a>
</g>
</g>
<!-- Node3&#45;&gt;Node8 -->
<g id="edge7" class="edge">
<title>Node3&#45;&gt;Node8</title>
<path fill="none" stroke="midnightblue" d="M362.11,-114.42C373.88,-111.37 386.98,-108.01 399,-105 439.38,-94.89 485.72,-83.73 517.53,-76.14"/>
<polygon fill="midnightblue" stroke="midnightblue" points="518.4,-79.53 527.32,-73.8 516.78,-72.72 518.4,-79.53"/>
</g>
<!-- Node9 -->
<g id="node9" class="node">
<title>Node9</title>
<g id="a_node9"><a xlink:href="loss_8c.html#af1756940660669f5909a42841028793b" target="_top" xlink:title="One&#45;hot classification error.">
<polygon fill="none" stroke="black" points="399,-0.5 399,-19.5 489,-19.5 489,-0.5 399,-0.5"/>
<text text-anchor="middle" x="444" y="-7.5" font-family="Helvetica,sans-Serif" font-size="10.00">loss_onehot_acc</text>
</a>
</g>
</g>
<!-- Node3&#45;&gt;Node9 -->
<g id="edge8" class="edge">
<title>Node3&#45;&gt;Node9</title>
<path fill="none" stroke="midnightblue" d="M330.72,-114.35C341.31,-95.57 367.04,-53.8 399,-29 401.07,-27.39 403.3,-25.89 405.61,-24.5"/>
<polygon fill="midnightblue" stroke="midnightblue" points="407.61,-27.41 414.82,-19.64 404.34,-21.21 407.61,-27.41"/>
</g>
<!-- Node11 -->
<g id="node11" class="node">
<title>Node11</title>
<g id="a_node11"><a xlink:href="loss_8c.html#a3278a1ba45bd0ccbf39e25bde1562f8f" target="_top" xlink:title="Root mean squared error loss function.">
<polygon fill="none" stroke="black" points="413,-38.5 413,-57.5 475,-57.5 475,-38.5 413,-38.5"/>
<text text-anchor="middle" x="444" y="-45.5" font-family="Helvetica,sans-Serif" font-size="10.00">loss_rmse</text>
</a>
</g>
</g>
<!-- Node3&#45;&gt;Node11 -->
<g id="edge10" class="edge">
<title>Node3&#45;&gt;Node11</title>
<path fill="none" stroke="midnightblue" d="M338.2,-114.33C352.61,-103.52 376.98,-85.73 399,-72 404.2,-68.76 409.88,-65.48 415.37,-62.43"/>
<polygon fill="midnightblue" stroke="midnightblue" points="417.2,-65.42 424.32,-57.57 413.86,-59.27 417.2,-65.42"/>
</g>
<!-- Node10 -->
<g id="node10" class="node">
<title>Node10</title>
<g id="a_node10"><a xlink:href="utils_8h.html#adc87687be632aa642e838b81a7404db1" target="_top" xlink:title="Returns the index of the largest element in vector X.">
<polygon fill="none" stroke="black" points="525,-0.5 525,-19.5 589,-19.5 589,-0.5 525,-0.5"/>
<text text-anchor="middle" x="557" y="-7.5" font-family="Helvetica,sans-Serif" font-size="10.00">max_index</text>
</a>
</g>
</g>
<!-- Node9&#45;&gt;Node10 -->
<g id="edge9" class="edge">
<title>Node9&#45;&gt;Node10</title>
<path fill="none" stroke="midnightblue" d="M489.19,-10C497.61,-10 506.39,-10 514.71,-10"/>
<polygon fill="midnightblue" stroke="midnightblue" points="514.94,-13.5 524.94,-10 514.94,-6.5 514.94,-13.5"/>
</g>
<!-- Node11&#45;&gt;Node8 -->
<g id="edge11" class="edge">
<title>Node11&#45;&gt;Node8</title>
<path fill="none" stroke="midnightblue" d="M475.04,-53.14C488.03,-55.37 503.41,-58 517.25,-60.37"/>
<polygon fill="midnightblue" stroke="midnightblue" points="517.02,-63.88 527.47,-62.12 518.2,-56.98 517.02,-63.88"/>
</g>
</g>
</svg>
