<?xml version="1.0" encoding="UTF-8" standalone="no"?>
<!DOCTYPE svg PUBLIC "-//W3C//DTD SVG 1.1//EN"
 "http://www.w3.org/Graphics/SVG/1.1/DTD/svg11.dtd">
<!-- Generated by graphviz version 2.43.0 (0)
 -->
<!-- Title: XCS::get_pset_mean_pred_layers Pages: 1 -->
<svg width="410pt" height="38pt"
 viewBox="0.00 0.00 410.00 38.00" xmlns="http://www.w3.org/2000/svg" xmlns:xlink="http://www.w3.org/1999/xlink">
<g id="graph0" class="graph" transform="scale(1 1) rotate(0) translate(4 34)">
<title>XCS::get_pset_mean_pred_layers</title>
<!-- Node1 -->
<g id="Node000001" class="node">
<title>Node1</title>
<g id="a_Node000001"><a xlink:title=" ">
<polygon fill="#999999" stroke="#666666" points="110,-30 0,-30 0,0 110,0 110,-30"/>
<text text-anchor="start" x="8" y="-18" font-family="Helvetica,sans-Serif" font-size="10.00">XCS::get_pset_mean</text>
<text text-anchor="middle" x="55" y="-7" font-family="Helvetica,sans-Serif" font-size="10.00">_pred_layers</text>
</a>
</g>
</g>
<!-- Node2 -->
<g id="Node000002" class="node">
<title>Node2</title>
<g id="a_Node000002"><a xlink:href="clset__neural_8c.html#aab856136c4498c44db62476faf8f4c6d" target="_top" xlink:title="Calculates the mean number of prediction layers in the set.">
<polygon fill="white" stroke="#666666" points="268,-24.5 146,-24.5 146,-5.5 268,-5.5 268,-24.5"/>
<text text-anchor="middle" x="207" y="-12.5" font-family="Helvetica,sans-Serif" font-size="10.00">clset_mean_pred_layers</text>
</a>
</g>
</g>
<!-- Node1&#45;&gt;Node2 -->
<g id="edge1_Node000001_Node000002" class="edge">
<title>Node1&#45;&gt;Node2</title>
<g id="a_edge1_Node000001_Node000002"><a xlink:title=" ">
<path fill="none" stroke="#63b8ff" d="M110.15,-15C118.48,-15 127.17,-15 135.78,-15"/>
<polygon fill="#63b8ff" stroke="#63b8ff" points="135.83,-18.5 145.83,-15 135.83,-11.5 135.83,-18.5"/>
</a>
</g>
</g>
<!-- Node3 -->
<g id="Node000003" class="node">
<title>Node3</title>
<g id="a_Node000003"><a xlink:href="pred__neural_8c.html#a185f1c6194af0b18fd006e40f15466de" target="_top" xlink:title="Returns the number of layers within a neural network prediction.">
<polygon fill="white" stroke="#666666" points="402,-24.5 304,-24.5 304,-5.5 402,-5.5 402,-24.5"/>
<text text-anchor="middle" x="353" y="-12.5" font-family="Helvetica,sans-Serif" font-size="10.00">pred_neural_layers</text>
</a>
</g>
</g>
<!-- Node2&#45;&gt;Node3 -->
<g id="edge2_Node000002_Node000003" class="edge">
<title>Node2&#45;&gt;Node3</title>
<g id="a_edge2_Node000002_Node000003"><a xlink:title=" ">
<path fill="none" stroke="#63b8ff" d="M268.23,-15C276.67,-15 285.33,-15 293.73,-15"/>
<polygon fill="#63b8ff" stroke="#63b8ff" points="293.82,-18.5 303.82,-15 293.82,-11.5 293.82,-18.5"/>
</a>
</g>
</g>
</g>
</svg>
