<?xml version="1.0" encoding="UTF-8" standalone="no"?>
<!DOCTYPE svg PUBLIC "-//W3C//DTD SVG 1.1//EN"
 "http://www.w3.org/Graphics/SVG/1.1/DTD/svg11.dtd">
<!-- Generated by graphviz version 2.43.0 (0)
 -->
<!-- Title: XCS::unpack_layer_params Pages: 1 -->
<svg width="456pt" height="104pt"
 viewBox="0.00 0.00 456.00 104.00" xmlns="http://www.w3.org/2000/svg" xmlns:xlink="http://www.w3.org/1999/xlink">
<g id="graph0" class="graph" transform="scale(1 1) rotate(0) translate(4 100)">
<title>XCS::unpack_layer_params</title>
<!-- Node1 -->
<g id="node1" class="node">
<title>Node1</title>
<g id="a_node1"><a xlink:title="Sets parameters used by a neural network layer.">
<polygon fill="#bfbfbf" stroke="black" points="309,-38.5 309,-57.5 448,-57.5 448,-38.5 309,-38.5"/>
<text text-anchor="middle" x="378.5" y="-45.5" font-family="Helvetica,sans-Serif" font-size="10.00">XCS::unpack_layer_params</text>
</a>
</g>
</g>
<!-- Node2 -->
<g id="node2" class="node">
<title>Node2</title>
<g id="a_node2"><a xlink:href="classXCS.html#ab2cbd5508c5e8c59db839695c9d0d539" target="_top" xlink:title="Sets parameters used by neural network actions.">
<polygon fill="none" stroke="black" points="144,-76.5 144,-95.5 269,-95.5 269,-76.5 144,-76.5"/>
<text text-anchor="middle" x="206.5" y="-83.5" font-family="Helvetica,sans-Serif" font-size="10.00">XCS::unpack_act_neural</text>
</a>
</g>
</g>
<!-- Node1&#45;&gt;Node2 -->
<g id="edge1" class="edge">
<title>Node1&#45;&gt;Node2</title>
<path fill="none" stroke="midnightblue" d="M324.6,-59.82C300.63,-65.18 272.68,-71.43 250.09,-76.48"/>
<polygon fill="midnightblue" stroke="midnightblue" points="325.61,-63.19 334.6,-57.59 324.08,-56.35 325.61,-63.19"/>
</g>
<!-- Node4 -->
<g id="node4" class="node">
<title>Node4</title>
<g id="a_node4"><a xlink:href="classXCS.html#a234d12eb3fb50d01dccff24a1515d74e" target="_top" xlink:title="Sets parameters used by neural network conditions.">
<polygon fill="none" stroke="black" points="140,-38.5 140,-57.5 273,-57.5 273,-38.5 140,-38.5"/>
<text text-anchor="middle" x="206.5" y="-45.5" font-family="Helvetica,sans-Serif" font-size="10.00">XCS::unpack_cond_neural</text>
</a>
</g>
</g>
<!-- Node1&#45;&gt;Node4 -->
<g id="edge3" class="edge">
<title>Node1&#45;&gt;Node4</title>
<path fill="none" stroke="midnightblue" d="M298.81,-48C290.21,-48 281.52,-48 273.1,-48"/>
<polygon fill="midnightblue" stroke="midnightblue" points="298.84,-51.5 308.84,-48 298.84,-44.5 298.84,-51.5"/>
</g>
<!-- Node6 -->
<g id="node6" class="node">
<title>Node6</title>
<g id="a_node6"><a xlink:href="classXCS.html#a8755a66390db00ab31e3574a18a0aae1" target="_top" xlink:title="Sets parameters used by neural network predictions.">
<polygon fill="none" stroke="black" points="141,-0.5 141,-19.5 272,-19.5 272,-0.5 141,-0.5"/>
<text text-anchor="middle" x="206.5" y="-7.5" font-family="Helvetica,sans-Serif" font-size="10.00">XCS::unpack_pred_neural</text>
</a>
</g>
</g>
<!-- Node1&#45;&gt;Node6 -->
<g id="edge5" class="edge">
<title>Node1&#45;&gt;Node6</title>
<path fill="none" stroke="midnightblue" d="M324.6,-36.18C300.63,-30.82 272.68,-24.57 250.09,-19.52"/>
<polygon fill="midnightblue" stroke="midnightblue" points="324.08,-39.65 334.6,-38.41 325.61,-32.81 324.08,-39.65"/>
</g>
<!-- Node3 -->
<g id="node3" class="node">
<title>Node3</title>
<g id="a_node3"><a xlink:href="classXCS.html#a87397ee045a1648cd9b1449518e217b2" target="_top" xlink:title="Sets the action type and initialisation arguments.">
<polygon fill="none" stroke="black" points="7.5,-76.5 7.5,-95.5 96.5,-95.5 96.5,-76.5 7.5,-76.5"/>
<text text-anchor="middle" x="52" y="-83.5" font-family="Helvetica,sans-Serif" font-size="10.00">XCS::set_action</text>
</a>
</g>
</g>
<!-- Node2&#45;&gt;Node3 -->
<g id="edge2" class="edge">
<title>Node2&#45;&gt;Node3</title>
<path fill="none" stroke="midnightblue" d="M133.78,-86C121.06,-86 108.18,-86 96.55,-86"/>
<polygon fill="midnightblue" stroke="midnightblue" points="133.91,-89.5 143.91,-86 133.91,-82.5 133.91,-89.5"/>
</g>
<!-- Node5 -->
<g id="node5" class="node">
<title>Node5</title>
<g id="a_node5"><a xlink:href="classXCS.html#a4eb6acf0a155d5e94fa843d7523df9b1" target="_top" xlink:title="Sets the condition type and initialisation arguments.">
<polygon fill="none" stroke="black" points="1.5,-38.5 1.5,-57.5 102.5,-57.5 102.5,-38.5 1.5,-38.5"/>
<text text-anchor="middle" x="52" y="-45.5" font-family="Helvetica,sans-Serif" font-size="10.00">XCS::set_condition</text>
</a>
</g>
</g>
<!-- Node4&#45;&gt;Node5 -->
<g id="edge4" class="edge">
<title>Node4&#45;&gt;Node5</title>
<path fill="none" stroke="midnightblue" d="M129.68,-48C120.57,-48 111.45,-48 102.84,-48"/>
<polygon fill="midnightblue" stroke="midnightblue" points="129.94,-51.5 139.94,-48 129.94,-44.5 129.94,-51.5"/>
</g>
<!-- Node7 -->
<g id="node7" class="node">
<title>Node7</title>
<g id="a_node7"><a xlink:href="classXCS.html#a28e9fae0bf2d470377b25e032b7080af" target="_top" xlink:title="Sets the prediction type and initialisation arguments.">
<polygon fill="none" stroke="black" points="0,-0.5 0,-19.5 104,-19.5 104,-0.5 0,-0.5"/>
<text text-anchor="middle" x="52" y="-7.5" font-family="Helvetica,sans-Serif" font-size="10.00">XCS::set_prediction</text>
</a>
</g>
</g>
<!-- Node6&#45;&gt;Node7 -->
<g id="edge6" class="edge">
<title>Node6&#45;&gt;Node7</title>
<path fill="none" stroke="midnightblue" d="M130.77,-10C121.84,-10 112.87,-10 104.37,-10"/>
<polygon fill="midnightblue" stroke="midnightblue" points="130.83,-13.5 140.83,-10 130.83,-6.5 130.83,-13.5"/>
</g>
</g>
</svg>
