<?xml version="1.0" encoding="UTF-8" standalone="no"?>
<!DOCTYPE svg PUBLIC "-//W3C//DTD SVG 1.1//EN"
 "http://www.w3.org/Graphics/SVG/1.1/DTD/svg11.dtd">
<!-- Generated by graphviz version 2.43.0 (0)
 -->
<!-- Title: XCS::load_input Pages: 1 -->
<svg width="200pt" height="66pt"
 viewBox="0.00 0.00 200.00 66.00" xmlns="http://www.w3.org/2000/svg" xmlns:xlink="http://www.w3.org/1999/xlink">
<g id="graph0" class="graph" transform="scale(1 1) rotate(0) translate(4 62)">
<title>XCS::load_input</title>
<!-- Node1 -->
<g id="node1" class="node">
<title>Node1</title>
<g id="a_node1"><a xlink:title="Loads an input data structure for fitting.">
<polygon fill="#bfbfbf" stroke="black" points="104,-19.5 104,-38.5 192,-38.5 192,-19.5 104,-19.5"/>
<text text-anchor="middle" x="148" y="-26.5" font-family="Helvetica,sans-Serif" font-size="10.00">XCS::load_input</text>
</a>
</g>
</g>
<!-- Node2 -->
<g id="node2" class="node">
<title>Node2</title>
<g id="a_node2"><a xlink:href="classXCS.html#a3f8168ffade2d933d0971625200f1d92" target="_top" xlink:title="Executes MAX_TRIALS number of XCSF learning iterations using the provided training data.">
<polygon fill="none" stroke="black" points="8,-38.5 8,-57.5 60,-57.5 60,-38.5 8,-38.5"/>
<text text-anchor="middle" x="34" y="-45.5" font-family="Helvetica,sans-Serif" font-size="10.00">XCS::fit</text>
</a>
</g>
</g>
<!-- Node1&#45;&gt;Node2 -->
<g id="edge1" class="edge">
<title>Node1&#45;&gt;Node2</title>
<path fill="none" stroke="midnightblue" d="M93.52,-38.07C81.83,-40.06 70,-42.06 60.06,-43.75"/>
<polygon fill="midnightblue" stroke="midnightblue" points="94.42,-41.47 103.7,-36.35 93.25,-34.57 94.42,-41.47"/>
</g>
<!-- Node3 -->
<g id="node3" class="node">
<title>Node3</title>
<g id="a_node3"><a xlink:href="classXCS.html#a4bb9f3f8613abf7ba95837a03bbb931d" target="_top" xlink:title="Returns the error using N random samples from the provided data.">
<polygon fill="none" stroke="black" points="0,-0.5 0,-19.5 68,-19.5 68,-0.5 0,-0.5"/>
<text text-anchor="middle" x="34" y="-7.5" font-family="Helvetica,sans-Serif" font-size="10.00">XCS::score</text>
</a>
</g>
</g>
<!-- Node1&#45;&gt;Node3 -->
<g id="edge2" class="edge">
<title>Node1&#45;&gt;Node3</title>
<path fill="none" stroke="midnightblue" d="M93.59,-19.94C84.9,-18.46 76.13,-16.98 68.11,-15.62"/>
<polygon fill="midnightblue" stroke="midnightblue" points="93.25,-23.43 103.7,-21.65 94.42,-16.53 93.25,-23.43"/>
</g>
</g>
</svg>
