<?xml version="1.0" encoding="UTF-8" standalone="no"?>
<!DOCTYPE svg PUBLIC "-//W3C//DTD SVG 1.1//EN"
 "http://www.w3.org/Graphics/SVG/1.1/DTD/svg11.dtd">
<!-- Generated by graphviz version 2.43.0 (0)
 -->
<!-- Title: XCS::set_loss_func Pages: 1 -->
<svg width="592pt" height="218pt"
 viewBox="0.00 0.00 592.00 218.00" xmlns="http://www.w3.org/2000/svg" xmlns:xlink="http://www.w3.org/1999/xlink">
<g id="graph0" class="graph" transform="scale(1 1) rotate(0) translate(4 214)">
<title>XCS::set_loss_func</title>
<!-- Node1 -->
<g id="node1" class="node">
<title>Node1</title>
<g id="a_node1"><a xlink:title=" ">
<polygon fill="#bfbfbf" stroke="black" points="0,-95.5 0,-114.5 104,-114.5 104,-95.5 0,-95.5"/>
<text text-anchor="middle" x="52" y="-102.5" font-family="Helvetica,sans-Serif" font-size="10.00">XCS::set_loss_func</text>
</a>
</g>
</g>
<!-- Node2 -->
<g id="node2" class="node">
<title>Node2</title>
<g id="a_node2"><a xlink:href="param_8h.html#a49623637277584f05a95ca48ae194fc1" target="_top" xlink:title=" ">
<polygon fill="none" stroke="black" points="140,-95.5 140,-114.5 250,-114.5 250,-95.5 140,-95.5"/>
<text text-anchor="middle" x="195" y="-102.5" font-family="Helvetica,sans-Serif" font-size="10.00">param_set_loss_func</text>
</a>
</g>
</g>
<!-- Node1&#45;&gt;Node2 -->
<g id="edge1" class="edge">
<title>Node1&#45;&gt;Node2</title>
<path fill="none" stroke="midnightblue" d="M104.3,-105C112.48,-105 121.02,-105 129.45,-105"/>
<polygon fill="midnightblue" stroke="midnightblue" points="129.65,-108.5 139.65,-105 129.65,-101.5 129.65,-108.5"/>
</g>
<!-- Node3 -->
<g id="node3" class="node">
<title>Node3</title>
<g id="a_node3"><a xlink:href="loss_8c.html#a440b847b0f4edd503b919d3bebecd66c" target="_top" xlink:title="Sets the XCSF error function to the implemented function.">
<polygon fill="none" stroke="black" points="286,-95.5 286,-114.5 363,-114.5 363,-95.5 286,-95.5"/>
<text text-anchor="middle" x="324.5" y="-102.5" font-family="Helvetica,sans-Serif" font-size="10.00">loss_set_func</text>
</a>
</g>
</g>
<!-- Node2&#45;&gt;Node3 -->
<g id="edge2" class="edge">
<title>Node2&#45;&gt;Node3</title>
<path fill="none" stroke="midnightblue" d="M250.07,-105C258.66,-105 267.49,-105 275.91,-105"/>
<polygon fill="midnightblue" stroke="midnightblue" points="275.95,-108.5 285.95,-105 275.95,-101.5 275.95,-108.5"/>
</g>
<!-- Node4 -->
<g id="node4" class="node">
<title>Node4</title>
<g id="a_node4"><a xlink:href="loss_8c.html#a2687b111bc407194c64e07e2b933bb3c" target="_top" xlink:title="Binary logistic log loss for binary&#45;class classification.">
<polygon fill="none" stroke="black" points="402,-190.5 402,-209.5 486,-209.5 486,-190.5 402,-190.5"/>
<text text-anchor="middle" x="444" y="-197.5" font-family="Helvetica,sans-Serif" font-size="10.00">loss_binary_log</text>
</a>
</g>
</g>
<!-- Node3&#45;&gt;Node4 -->
<g id="edge3" class="edge">
<title>Node3&#45;&gt;Node4</title>
<path fill="none" stroke="midnightblue" d="M332.68,-114.58C344.84,-130.26 370.92,-161.59 399,-181 401.52,-182.74 404.22,-184.38 407.01,-185.9"/>
<polygon fill="midnightblue" stroke="midnightblue" points="405.53,-189.07 416.05,-190.36 408.63,-182.79 405.53,-189.07"/>
</g>
<!-- Node5 -->
<g id="node5" class="node">
<title>Node5</title>
<g id="a_node5"><a xlink:href="loss_8c.html#a5b0fc07896aaa302b61213c450874d49" target="_top" xlink:title="Logistic log loss for multi&#45;class classification.">
<polygon fill="none" stroke="black" points="417.5,-152.5 417.5,-171.5 470.5,-171.5 470.5,-152.5 417.5,-152.5"/>
<text text-anchor="middle" x="444" y="-159.5" font-family="Helvetica,sans-Serif" font-size="10.00">loss_log</text>
</a>
</g>
</g>
<!-- Node3&#45;&gt;Node5 -->
<g id="edge4" class="edge">
<title>Node3&#45;&gt;Node5</title>
<path fill="none" stroke="midnightblue" d="M343.15,-114.56C357.93,-122.47 379.66,-133.84 399,-143 402.81,-144.8 406.83,-146.64 410.83,-148.42"/>
<polygon fill="midnightblue" stroke="midnightblue" points="409.46,-151.64 420.03,-152.44 412.27,-145.22 409.46,-151.64"/>
</g>
<!-- Node6 -->
<g id="node6" class="node">
<title>Node6</title>
<g id="a_node6"><a xlink:href="loss_8c.html#a7f1e236d219a5f551408639674b4a24a" target="_top" xlink:title="Mean absolute error loss function.">
<polygon fill="none" stroke="black" points="414.5,-114.5 414.5,-133.5 473.5,-133.5 473.5,-114.5 414.5,-114.5"/>
<text text-anchor="middle" x="444" y="-121.5" font-family="Helvetica,sans-Serif" font-size="10.00">loss_mae</text>
</a>
</g>
</g>
<!-- Node3&#45;&gt;Node6 -->
<g id="edge5" class="edge">
<title>Node3&#45;&gt;Node6</title>
<path fill="none" stroke="midnightblue" d="M363,-111.06C376.14,-113.19 390.93,-115.58 404.18,-117.72"/>
<polygon fill="midnightblue" stroke="midnightblue" points="403.98,-121.24 414.41,-119.38 405.1,-114.33 403.98,-121.24"/>
</g>
<!-- Node7 -->
<g id="node7" class="node">
<title>Node7</title>
<g id="a_node7"><a xlink:href="loss_8c.html#aaeed4518371c4e75de20532e3a6aa601" target="_top" xlink:title="Mean squared error loss function.">
<polygon fill="none" stroke="black" points="525,-38.5 525,-57.5 584,-57.5 584,-38.5 525,-38.5"/>
<text text-anchor="middle" x="554.5" y="-45.5" font-family="Helvetica,sans-Serif" font-size="10.00">loss_mse</text>
</a>
</g>
</g>
<!-- Node3&#45;&gt;Node7 -->
<g id="edge6" class="edge">
<title>Node3&#45;&gt;Node7</title>
<path fill="none" stroke="midnightblue" d="M363.32,-96.86C396.56,-89.56 446.16,-78.28 489,-67 497.44,-64.78 506.45,-62.23 514.98,-59.75"/>
<polygon fill="midnightblue" stroke="midnightblue" points="516.1,-63.06 524.7,-56.87 514.12,-56.35 516.1,-63.06"/>
</g>
<!-- Node8 -->
<g id="node8" class="node">
<title>Node8</title>
<g id="a_node8"><a xlink:href="loss_8c.html#af1756940660669f5909a42841028793b" target="_top" xlink:title="One&#45;hot classification error.">
<polygon fill="none" stroke="black" points="399,-38.5 399,-57.5 489,-57.5 489,-38.5 399,-38.5"/>
<text text-anchor="middle" x="444" y="-45.5" font-family="Helvetica,sans-Serif" font-size="10.00">loss_onehot_acc</text>
</a>
</g>
</g>
<!-- Node3&#45;&gt;Node8 -->
<g id="edge7" class="edge">
<title>Node3&#45;&gt;Node8</title>
<path fill="none" stroke="midnightblue" d="M345.17,-95.46C363.98,-86.34 392.57,-72.47 413.99,-62.07"/>
<polygon fill="midnightblue" stroke="midnightblue" points="415.8,-65.09 423.27,-57.57 412.74,-58.79 415.8,-65.09"/>
</g>
<!-- Node9 -->
<g id="node9" class="node">
<title>Node9</title>
<g id="a_node9"><a xlink:href="loss_8c.html#a3278a1ba45bd0ccbf39e25bde1562f8f" target="_top" xlink:title="Root mean squared error loss function.">
<polygon fill="none" stroke="black" points="413,-0.5 413,-19.5 475,-19.5 475,-0.5 413,-0.5"/>
<text text-anchor="middle" x="444" y="-7.5" font-family="Helvetica,sans-Serif" font-size="10.00">loss_rmse</text>
</a>
</g>
</g>
<!-- Node3&#45;&gt;Node9 -->
<g id="edge8" class="edge">
<title>Node3&#45;&gt;Node9</title>
<path fill="none" stroke="midnightblue" d="M332.68,-95.42C344.84,-79.74 370.92,-48.41 399,-29 401.52,-27.26 404.22,-25.62 407.01,-24.1"/>
<polygon fill="midnightblue" stroke="midnightblue" points="408.63,-27.21 416.05,-19.64 405.53,-20.93 408.63,-27.21"/>
</g>
<!-- Node9&#45;&gt;Node7 -->
<g id="edge9" class="edge">
<title>Node9&#45;&gt;Node7</title>
<path fill="none" stroke="midnightblue" d="M472.38,-19.59C485.74,-24.27 502.02,-29.97 516.47,-35.03"/>
<polygon fill="midnightblue" stroke="midnightblue" points="515.53,-38.41 526.13,-38.41 517.85,-31.81 515.53,-38.41"/>
</g>
</g>
</svg>
