<?xml version="1.0" encoding="UTF-8" standalone="no"?>
<!DOCTYPE svg PUBLIC "-//W3C//DTD SVG 1.1//EN"
 "http://www.w3.org/Graphics/SVG/1.1/DTD/svg11.dtd">
<!-- Generated by graphviz version 2.43.0 (0)
 -->
<!-- Title: EarlyStoppingCallback::run Pages: 1 -->
<svg width="727pt" height="180pt"
 viewBox="0.00 0.00 727.00 180.00" xmlns="http://www.w3.org/2000/svg" xmlns:xlink="http://www.w3.org/1999/xlink">
<g id="graph0" class="graph" transform="scale(1 1) rotate(0) translate(4 176)">
<title>EarlyStoppingCallback::run</title>
<!-- Node1 -->
<g id="node1" class="node">
<title>Node1</title>
<g id="a_node1"><a xlink:title="Checks whether early stopping criteria has been met.">
<polygon fill="#bfbfbf" stroke="black" points="0,-88.5 0,-107.5 135,-107.5 135,-88.5 0,-88.5"/>
<text text-anchor="middle" x="67.5" y="-95.5" font-family="Helvetica,sans-Serif" font-size="10.00">EarlyStoppingCallback::run</text>
</a>
</g>
</g>
<!-- Node2 -->
<g id="node2" class="node">
<title>Node2</title>
<g id="a_node2"><a xlink:href="pybind__utils_8h.html#a3f3b864aa1926634aeab0d037cefc11d" target="_top" xlink:title="Returns a formatted string for displaying time.">
<polygon fill="none" stroke="black" points="331,-88.5 331,-107.5 412,-107.5 412,-88.5 331,-88.5"/>
<text text-anchor="middle" x="371.5" y="-95.5" font-family="Helvetica,sans-Serif" font-size="10.00">get_timestamp</text>
</a>
</g>
</g>
<!-- Node1&#45;&gt;Node2 -->
<g id="edge1" class="edge">
<title>Node1&#45;&gt;Node2</title>
<path fill="none" stroke="midnightblue" d="M135.15,-98C191.21,-98 270.12,-98 320.79,-98"/>
<polygon fill="midnightblue" stroke="midnightblue" points="320.84,-101.5 330.84,-98 320.84,-94.5 320.84,-101.5"/>
</g>
<!-- Node3 -->
<g id="node3" class="node">
<title>Node3</title>
<g id="a_node3"><a xlink:href="classEarlyStoppingCallback.html#a39fd68145eeec792410898eee2d92b59" target="_top" xlink:title="Retrieves best XCSF population in memory.">
<polygon fill="none" stroke="black" points="171,-127 171,-157 287,-157 287,-127 171,-127"/>
<text text-anchor="start" x="179" y="-145" font-family="Helvetica,sans-Serif" font-size="10.00">EarlyStoppingCallback</text>
<text text-anchor="middle" x="229" y="-134" font-family="Helvetica,sans-Serif" font-size="10.00">::retrieve</text>
</a>
</g>
</g>
<!-- Node1&#45;&gt;Node3 -->
<g id="edge2" class="edge">
<title>Node1&#45;&gt;Node3</title>
<path fill="none" stroke="midnightblue" d="M103.11,-107.55C120.83,-112.43 142.98,-118.55 163.68,-124.26"/>
<polygon fill="midnightblue" stroke="midnightblue" points="162.82,-127.65 173.39,-126.93 164.68,-120.9 162.82,-127.65"/>
</g>
<!-- Node11 -->
<g id="node11" class="node">
<title>Node11</title>
<g id="a_node11"><a xlink:href="classEarlyStoppingCallback.html#af05216c46317631492921061caaa7b2b" target="_top" xlink:title="Stores best XCSF population in memory.">
<polygon fill="none" stroke="black" points="171,-39 171,-69 287,-69 287,-39 171,-39"/>
<text text-anchor="start" x="179" y="-57" font-family="Helvetica,sans-Serif" font-size="10.00">EarlyStoppingCallback</text>
<text text-anchor="middle" x="229" y="-46" font-family="Helvetica,sans-Serif" font-size="10.00">::store</text>
</a>
</g>
</g>
<!-- Node1&#45;&gt;Node11 -->
<g id="edge11" class="edge">
<title>Node1&#45;&gt;Node11</title>
<path fill="none" stroke="midnightblue" d="M103.11,-88.45C120.83,-83.57 142.98,-77.45 163.68,-71.74"/>
<polygon fill="midnightblue" stroke="midnightblue" points="164.68,-75.1 173.39,-69.07 162.82,-68.35 164.68,-75.1"/>
</g>
<!-- Node3&#45;&gt;Node2 -->
<g id="edge3" class="edge">
<title>Node3&#45;&gt;Node2</title>
<path fill="none" stroke="midnightblue" d="M277.96,-126.98C294.94,-121.66 313.87,-115.74 330.16,-110.63"/>
<polygon fill="midnightblue" stroke="midnightblue" points="331.42,-113.91 339.91,-107.58 329.33,-107.23 331.42,-113.91"/>
</g>
<!-- Node4 -->
<g id="node4" class="node">
<title>Node4</title>
<g id="a_node4"><a xlink:href="xcsf_8c.html#a58a321a976cf6a9bb01979d94703fa27" target="_top" xlink:title="Retrieves the previously stored population.">
<polygon fill="none" stroke="black" points="323,-132.5 323,-151.5 420,-151.5 420,-132.5 323,-132.5"/>
<text text-anchor="middle" x="371.5" y="-139.5" font-family="Helvetica,sans-Serif" font-size="10.00">xcsf_retrieve_pset</text>
</a>
</g>
</g>
<!-- Node3&#45;&gt;Node4 -->
<g id="edge4" class="edge">
<title>Node3&#45;&gt;Node4</title>
<path fill="none" stroke="midnightblue" d="M287.15,-142C295.57,-142 304.26,-142 312.7,-142"/>
<polygon fill="midnightblue" stroke="midnightblue" points="312.84,-145.5 322.84,-142 312.84,-138.5 312.84,-145.5"/>
</g>
<!-- Node5 -->
<g id="node5" class="node">
<title>Node5</title>
<g id="a_node5"><a xlink:href="clset_8c.html#a9af546abf9de1bc840d605e949d3ef47" target="_top" xlink:title="Initialises a new set.">
<polygon fill="none" stroke="black" points="462,-139.5 462,-158.5 518,-158.5 518,-139.5 462,-139.5"/>
<text text-anchor="middle" x="490" y="-146.5" font-family="Helvetica,sans-Serif" font-size="10.00">clset_init</text>
</a>
</g>
</g>
<!-- Node4&#45;&gt;Node5 -->
<g id="edge5" class="edge">
<title>Node4&#45;&gt;Node5</title>
<path fill="none" stroke="midnightblue" d="M420.22,-144.87C430.76,-145.5 441.78,-146.16 451.83,-146.77"/>
<polygon fill="midnightblue" stroke="midnightblue" points="451.69,-150.26 461.89,-147.37 452.11,-143.28 451.69,-150.26"/>
</g>
<!-- Node6 -->
<g id="node6" class="node">
<title>Node6</title>
<g id="a_node6"><a xlink:href="clset_8c.html#a236baf24659360891f944761f88a30f4" target="_top" xlink:title="Frees the set and the classifiers.">
<polygon fill="none" stroke="black" points="462.5,-101.5 462.5,-120.5 517.5,-120.5 517.5,-101.5 462.5,-101.5"/>
<text text-anchor="middle" x="490" y="-108.5" font-family="Helvetica,sans-Serif" font-size="10.00">clset_kill</text>
</a>
</g>
</g>
<!-- Node4&#45;&gt;Node6 -->
<g id="edge6" class="edge">
<title>Node4&#45;&gt;Node6</title>
<path fill="none" stroke="midnightblue" d="M408.4,-132.45C422.39,-128.72 438.41,-124.46 452.45,-120.72"/>
<polygon fill="midnightblue" stroke="midnightblue" points="453.52,-124.06 462.28,-118.11 451.72,-117.3 453.52,-124.06"/>
</g>
<!-- Node7 -->
<g id="node7" class="node">
<title>Node7</title>
<g id="a_node7"><a xlink:href="cl_8c.html#ac45092c0e43651e8eeaa739766e3f069" target="_top" xlink:title="Frees the memory used by a classifier.">
<polygon fill="none" stroke="black" points="569,-114.5 569,-133.5 615,-133.5 615,-114.5 569,-114.5"/>
<text text-anchor="middle" x="592" y="-121.5" font-family="Helvetica,sans-Serif" font-size="10.00">cl_free</text>
</a>
</g>
</g>
<!-- Node6&#45;&gt;Node7 -->
<g id="edge7" class="edge">
<title>Node6&#45;&gt;Node7</title>
<path fill="none" stroke="midnightblue" d="M517.54,-114.45C530.14,-116.09 545.31,-118.06 558.59,-119.79"/>
<polygon fill="midnightblue" stroke="midnightblue" points="558.37,-123.29 568.74,-121.11 559.28,-116.35 558.37,-123.29"/>
</g>
<!-- Node8 -->
<g id="node8" class="node">
<title>Node8</title>
<g id="a_node8"><a xlink:href="action_8h.html#a81912970283c86f80c5b7a38f1865ebd" target="_top" xlink:title="Frees the memory used by the classifier action.">
<polygon fill="none" stroke="black" points="663.5,-152.5 663.5,-171.5 715.5,-171.5 715.5,-152.5 663.5,-152.5"/>
<text text-anchor="middle" x="689.5" y="-159.5" font-family="Helvetica,sans-Serif" font-size="10.00">act_free</text>
</a>
</g>
</g>
<!-- Node7&#45;&gt;Node8 -->
<g id="edge8" class="edge">
<title>Node7&#45;&gt;Node8</title>
<path fill="none" stroke="midnightblue" d="M615.15,-132.81C627.03,-137.54 641.92,-143.46 655.17,-148.74"/>
<polygon fill="midnightblue" stroke="midnightblue" points="653.88,-151.99 664.46,-152.44 656.47,-145.49 653.88,-151.99"/>
</g>
<!-- Node9 -->
<g id="node9" class="node">
<title>Node9</title>
<g id="a_node9"><a xlink:href="condition_8h.html#a2f342b5e29e020e139112cf99887b4c5" target="_top" xlink:title="Frees the memory used by the classifier condition.">
<polygon fill="none" stroke="black" points="660,-114.5 660,-133.5 719,-133.5 719,-114.5 660,-114.5"/>
<text text-anchor="middle" x="689.5" y="-121.5" font-family="Helvetica,sans-Serif" font-size="10.00">cond_free</text>
</a>
</g>
</g>
<!-- Node7&#45;&gt;Node9 -->
<g id="edge9" class="edge">
<title>Node7&#45;&gt;Node9</title>
<path fill="none" stroke="midnightblue" d="M615.15,-124C625.46,-124 638.04,-124 649.84,-124"/>
<polygon fill="midnightblue" stroke="midnightblue" points="649.94,-127.5 659.94,-124 649.94,-120.5 649.94,-127.5"/>
</g>
<!-- Node10 -->
<g id="node10" class="node">
<title>Node10</title>
<g id="a_node10"><a xlink:href="prediction_8h.html#af19eafd52548ede9b90594c8b8949098" target="_top" xlink:title="Frees the memory used by the classifier prediction.">
<polygon fill="none" stroke="black" points="661,-76.5 661,-95.5 718,-95.5 718,-76.5 661,-76.5"/>
<text text-anchor="middle" x="689.5" y="-83.5" font-family="Helvetica,sans-Serif" font-size="10.00">pred_free</text>
</a>
</g>
</g>
<!-- Node7&#45;&gt;Node10 -->
<g id="edge10" class="edge">
<title>Node7&#45;&gt;Node10</title>
<path fill="none" stroke="midnightblue" d="M615.15,-115.19C627.03,-110.46 641.92,-104.54 655.17,-99.26"/>
<polygon fill="midnightblue" stroke="midnightblue" points="656.47,-102.51 664.46,-95.56 653.88,-96.01 656.47,-102.51"/>
</g>
<!-- Node11&#45;&gt;Node2 -->
<g id="edge12" class="edge">
<title>Node11&#45;&gt;Node2</title>
<path fill="none" stroke="midnightblue" d="M277.96,-69.02C294.94,-74.34 313.87,-80.26 330.16,-85.37"/>
<polygon fill="midnightblue" stroke="midnightblue" points="329.33,-88.77 339.91,-88.42 331.42,-82.09 329.33,-88.77"/>
</g>
<!-- Node12 -->
<g id="node12" class="node">
<title>Node12</title>
<g id="a_node12"><a xlink:href="xcsf_8c.html#a10d0342ac640d2cd32e9cb95d0cd3bbe" target="_top" xlink:title="Stores the current population.">
<polygon fill="none" stroke="black" points="328.5,-44.5 328.5,-63.5 414.5,-63.5 414.5,-44.5 328.5,-44.5"/>
<text text-anchor="middle" x="371.5" y="-51.5" font-family="Helvetica,sans-Serif" font-size="10.00">xcsf_store_pset</text>
</a>
</g>
</g>
<!-- Node11&#45;&gt;Node12 -->
<g id="edge13" class="edge">
<title>Node11&#45;&gt;Node12</title>
<path fill="none" stroke="midnightblue" d="M287.15,-54C297.41,-54 308.06,-54 318.18,-54"/>
<polygon fill="midnightblue" stroke="midnightblue" points="318.49,-57.5 328.49,-54 318.49,-50.5 318.49,-57.5"/>
</g>
<!-- Node12&#45;&gt;Node6 -->
<g id="edge19" class="edge">
<title>Node12&#45;&gt;Node6</title>
<path fill="none" stroke="midnightblue" d="M392,-63.54C410.65,-72.66 439,-86.53 460.24,-96.93"/>
<polygon fill="midnightblue" stroke="midnightblue" points="458.92,-100.18 469.44,-101.43 461.99,-93.89 458.92,-100.18"/>
</g>
<!-- Node13 -->
<g id="node13" class="node">
<title>Node13</title>
<g id="a_node13"><a xlink:href="cl_8c.html#a70aceb2c4039333d36ee71f954fb9d79" target="_top" xlink:title="Initialises and creates a copy of one classifier from another.">
<polygon fill="none" stroke="black" points="456,-44.5 456,-63.5 524,-63.5 524,-44.5 456,-44.5"/>
<text text-anchor="middle" x="490" y="-51.5" font-family="Helvetica,sans-Serif" font-size="10.00">cl_init_copy</text>
</a>
</g>
</g>
<!-- Node12&#45;&gt;Node13 -->
<g id="edge14" class="edge">
<title>Node12&#45;&gt;Node13</title>
<path fill="none" stroke="midnightblue" d="M414.56,-54C424.62,-54 435.38,-54 445.51,-54"/>
<polygon fill="midnightblue" stroke="midnightblue" points="445.77,-57.5 455.77,-54 445.77,-50.5 445.77,-57.5"/>
</g>
<!-- Node17 -->
<g id="node17" class="node">
<title>Node17</title>
<g id="a_node17"><a xlink:href="clset_8c.html#a64d33e6235c57f30a4a3ec82f18e57d6" target="_top" xlink:title="Adds a classifier to the set.">
<polygon fill="none" stroke="black" points="460.5,-6.5 460.5,-25.5 519.5,-25.5 519.5,-6.5 460.5,-6.5"/>
<text text-anchor="middle" x="490" y="-13.5" font-family="Helvetica,sans-Serif" font-size="10.00">clset_add</text>
</a>
</g>
</g>
<!-- Node12&#45;&gt;Node17 -->
<g id="edge18" class="edge">
<title>Node12&#45;&gt;Node17</title>
<path fill="none" stroke="midnightblue" d="M401.9,-44.41C416.75,-39.57 434.94,-33.63 450.85,-28.44"/>
<polygon fill="midnightblue" stroke="midnightblue" points="452,-31.75 460.42,-25.32 449.82,-25.1 452,-31.75"/>
</g>
<!-- Node14 -->
<g id="node14" class="node">
<title>Node14</title>
<g id="a_node14"><a xlink:href="action_8h.html#a319e5909d871e8146c4cbc66626ca5f3" target="_top" xlink:title="Copies the action from one classifier to another.">
<polygon fill="none" stroke="black" points="564,-38.5 564,-57.5 620,-57.5 620,-38.5 564,-38.5"/>
<text text-anchor="middle" x="592" y="-45.5" font-family="Helvetica,sans-Serif" font-size="10.00">act_copy</text>
</a>
</g>
</g>
<!-- Node13&#45;&gt;Node14 -->
<g id="edge15" class="edge">
<title>Node13&#45;&gt;Node14</title>
<path fill="none" stroke="midnightblue" d="M524.02,-52.02C533.46,-51.45 543.82,-50.83 553.51,-50.25"/>
<polygon fill="midnightblue" stroke="midnightblue" points="553.91,-53.73 563.69,-49.64 553.49,-46.74 553.91,-53.73"/>
</g>
<!-- Node15 -->
<g id="node15" class="node">
<title>Node15</title>
<g id="a_node15"><a xlink:href="condition_8h.html#aab327f8188ff446498294b76164f2d25" target="_top" xlink:title="Copies the condition from one classifier to another.">
<polygon fill="none" stroke="black" points="560,-0.5 560,-19.5 624,-19.5 624,-0.5 560,-0.5"/>
<text text-anchor="middle" x="592" y="-7.5" font-family="Helvetica,sans-Serif" font-size="10.00">cond_copy</text>
</a>
</g>
</g>
<!-- Node13&#45;&gt;Node15 -->
<g id="edge16" class="edge">
<title>Node13&#45;&gt;Node15</title>
<path fill="none" stroke="midnightblue" d="M512.7,-44.45C526.46,-38.4 544.48,-30.47 559.77,-23.74"/>
<polygon fill="midnightblue" stroke="midnightblue" points="561.6,-26.76 569.34,-19.53 558.78,-20.35 561.6,-26.76"/>
</g>
<!-- Node16 -->
<g id="node16" class="node">
<title>Node16</title>
<g id="a_node16"><a xlink:href="prediction_8h.html#a8657fd08bb09fdf57a6d91db71f1b447" target="_top" xlink:title="Copies the prediction from one classifier to another.">
<polygon fill="none" stroke="black" points="561,-76.5 561,-95.5 623,-95.5 623,-76.5 561,-76.5"/>
<text text-anchor="middle" x="592" y="-83.5" font-family="Helvetica,sans-Serif" font-size="10.00">pred_copy</text>
</a>
</g>
</g>
<!-- Node13&#45;&gt;Node16 -->
<g id="edge17" class="edge">
<title>Node13&#45;&gt;Node16</title>
<path fill="none" stroke="midnightblue" d="M520.73,-63.51C530.42,-66.61 541.33,-70.1 551.61,-73.39"/>
<polygon fill="midnightblue" stroke="midnightblue" points="550.62,-76.75 561.21,-76.47 552.75,-70.09 550.62,-76.75"/>
</g>
</g>
</svg>
