<?xml version="1.0" encoding="UTF-8" standalone="no"?>
<!DOCTYPE svg PUBLIC "-//W3C//DTD SVG 1.1//EN"
 "http://www.w3.org/Graphics/SVG/1.1/DTD/svg11.dtd">
<!-- Generated by graphviz version 2.43.0 (0)
 -->
<!-- Title: XCS::json_write Pages: 1 -->
<svg width="600pt" height="142pt"
 viewBox="0.00 0.00 600.00 142.00" xmlns="http://www.w3.org/2000/svg" xmlns:xlink="http://www.w3.org/1999/xlink">
<g id="graph0" class="graph" transform="scale(1 1) rotate(0) translate(4 138)">
<title>XCS::json_write</title>
<!-- Node1 -->
<g id="node1" class="node">
<title>Node1</title>
<g id="a_node1"><a xlink:title="Writes the current population set to a file in JSON.">
<polygon fill="#bfbfbf" stroke="black" points="0,-57.5 0,-76.5 88,-76.5 88,-57.5 0,-57.5"/>
<text text-anchor="middle" x="44" y="-64.5" font-family="Helvetica,sans-Serif" font-size="10.00">XCS::json_write</text>
</a>
</g>
</g>
<!-- Node2 -->
<g id="node2" class="node">
<title>Node2</title>
<g id="a_node2"><a xlink:href="classXCS.html#adf6549829b0b5dd678f32b939676c40e" target="_top" xlink:title="Returns a JSON formatted string representing the population set.">
<polygon fill="none" stroke="black" points="124,-57.5 124,-76.5 218,-76.5 218,-57.5 124,-57.5"/>
<text text-anchor="middle" x="171" y="-64.5" font-family="Helvetica,sans-Serif" font-size="10.00">XCS::json_export</text>
</a>
</g>
</g>
<!-- Node1&#45;&gt;Node2 -->
<g id="edge1" class="edge">
<title>Node1&#45;&gt;Node2</title>
<path fill="none" stroke="midnightblue" d="M88.02,-67C96.34,-67 105.18,-67 113.85,-67"/>
<polygon fill="midnightblue" stroke="midnightblue" points="113.92,-70.5 123.92,-67 113.92,-63.5 113.92,-70.5"/>
</g>
<!-- Node3 -->
<g id="node3" class="node">
<title>Node3</title>
<g id="a_node3"><a xlink:href="clset_8c.html#af7d4ec3f5c5bcebc48045a6724beed12" target="_top" xlink:title="Returns a json formatted string representation of a classifier set.">
<polygon fill="none" stroke="black" points="254,-57.5 254,-76.5 347,-76.5 347,-57.5 254,-57.5"/>
<text text-anchor="middle" x="300.5" y="-64.5" font-family="Helvetica,sans-Serif" font-size="10.00">clset_json_export</text>
</a>
</g>
</g>
<!-- Node2&#45;&gt;Node3 -->
<g id="edge2" class="edge">
<title>Node2&#45;&gt;Node3</title>
<path fill="none" stroke="midnightblue" d="M218.03,-67C226.44,-67 235.29,-67 243.94,-67"/>
<polygon fill="midnightblue" stroke="midnightblue" points="243.96,-70.5 253.96,-67 243.96,-63.5 243.96,-70.5"/>
</g>
<!-- Node4 -->
<g id="node4" class="node">
<title>Node4</title>
<g id="a_node4"><a xlink:href="cl_8c.html#a6fccc77f8093c33617be7fc29175614c" target="_top" xlink:title="Returns a json formatted string representation of a classifier.">
<polygon fill="none" stroke="black" points="383,-57.5 383,-76.5 463,-76.5 463,-57.5 383,-57.5"/>
<text text-anchor="middle" x="423" y="-64.5" font-family="Helvetica,sans-Serif" font-size="10.00">cl_json_export</text>
</a>
</g>
</g>
<!-- Node3&#45;&gt;Node4 -->
<g id="edge3" class="edge">
<title>Node3&#45;&gt;Node4</title>
<path fill="none" stroke="midnightblue" d="M347.06,-67C355.4,-67 364.13,-67 372.58,-67"/>
<polygon fill="midnightblue" stroke="midnightblue" points="372.69,-70.5 382.69,-67 372.69,-63.5 372.69,-70.5"/>
</g>
<!-- Node5 -->
<g id="node5" class="node">
<title>Node5</title>
<g id="a_node5"><a xlink:href="action_8h.html#a31b90b0384c02bd54a0abd49211401fc" target="_top" xlink:title="Returns a json formatted string representation of an action .">
<polygon fill="none" stroke="black" points="502.5,-114.5 502.5,-133.5 588.5,-133.5 588.5,-114.5 502.5,-114.5"/>
<text text-anchor="middle" x="545.5" y="-121.5" font-family="Helvetica,sans-Serif" font-size="10.00">act_json_export</text>
</a>
</g>
</g>
<!-- Node4&#45;&gt;Node5 -->
<g id="edge4" class="edge">
<title>Node4&#45;&gt;Node5</title>
<path fill="none" stroke="midnightblue" d="M442,-76.59C457.08,-84.51 479.25,-95.89 499,-105 502.94,-106.82 507.09,-108.66 511.23,-110.44"/>
<polygon fill="midnightblue" stroke="midnightblue" points="510.17,-113.79 520.74,-114.47 512.9,-107.34 510.17,-113.79"/>
</g>
<!-- Node6 -->
<g id="node6" class="node">
<title>Node6</title>
<g id="a_node6"><a xlink:href="cl_8c.html#ad686da805e2ab762a3d32c321657775f" target="_top" xlink:title="Returns the accuracy of a classifier.">
<polygon fill="none" stroke="black" points="523,-76.5 523,-95.5 568,-95.5 568,-76.5 523,-76.5"/>
<text text-anchor="middle" x="545.5" y="-83.5" font-family="Helvetica,sans-Serif" font-size="10.00">cl_acc</text>
</a>
</g>
</g>
<!-- Node4&#45;&gt;Node6 -->
<g id="edge5" class="edge">
<title>Node4&#45;&gt;Node6</title>
<path fill="none" stroke="midnightblue" d="M463.12,-73.17C479.2,-75.7 497.58,-78.6 512.8,-81"/>
<polygon fill="midnightblue" stroke="midnightblue" points="512.34,-84.47 522.77,-82.57 513.43,-77.56 512.34,-84.47"/>
</g>
<!-- Node7 -->
<g id="node7" class="node">
<title>Node7</title>
<g id="a_node7"><a xlink:href="condition_8h.html#af0c3edaf8549aba2b07a05ba30efde4b" target="_top" xlink:title="Returns a json formatted string representation of a condition.">
<polygon fill="none" stroke="black" points="499,-38.5 499,-57.5 592,-57.5 592,-38.5 499,-38.5"/>
<text text-anchor="middle" x="545.5" y="-45.5" font-family="Helvetica,sans-Serif" font-size="10.00">cond_json_export</text>
</a>
</g>
</g>
<!-- Node4&#45;&gt;Node7 -->
<g id="edge6" class="edge">
<title>Node4&#45;&gt;Node7</title>
<path fill="none" stroke="midnightblue" d="M463.12,-60.83C471.32,-59.54 480.12,-58.15 488.79,-56.78"/>
<polygon fill="midnightblue" stroke="midnightblue" points="489.53,-60.21 498.87,-55.2 488.44,-53.3 489.53,-60.21"/>
</g>
<!-- Node8 -->
<g id="node8" class="node">
<title>Node8</title>
<g id="a_node8"><a xlink:href="prediction_8h.html#a18199616c368658b3bbebeb7bf358306" target="_top" xlink:title="Returns a json formatted string representation of a prediction.">
<polygon fill="none" stroke="black" points="500,-0.5 500,-19.5 591,-19.5 591,-0.5 500,-0.5"/>
<text text-anchor="middle" x="545.5" y="-7.5" font-family="Helvetica,sans-Serif" font-size="10.00">pred_json_export</text>
</a>
</g>
</g>
<!-- Node4&#45;&gt;Node8 -->
<g id="edge7" class="edge">
<title>Node4&#45;&gt;Node8</title>
<path fill="none" stroke="midnightblue" d="M442,-57.41C457.08,-49.49 479.25,-38.11 499,-29 502.94,-27.18 507.09,-25.34 511.23,-23.56"/>
<polygon fill="midnightblue" stroke="midnightblue" points="512.9,-26.66 520.74,-19.53 510.17,-20.21 512.9,-26.66"/>
</g>
</g>
</svg>
