<?xml version="1.0" encoding="UTF-8" standalone="no"?>
<!DOCTYPE svg PUBLIC "-//W3C//DTD SVG 1.1//EN"
 "http://www.w3.org/Graphics/SVG/1.1/DTD/svg11.dtd">
<!-- Generated by graphviz version 2.43.0 (0)
 -->
<!-- Title: XCS::store Pages: 1 -->
<svg width="494pt" height="180pt"
 viewBox="0.00 0.00 494.00 180.00" xmlns="http://www.w3.org/2000/svg" xmlns:xlink="http://www.w3.org/1999/xlink">
<g id="graph0" class="graph" transform="scale(1 1) rotate(0) translate(4 176)">
<title>XCS::store</title>
<!-- Node1 -->
<g id="node1" class="node">
<title>Node1</title>
<g id="a_node1"><a xlink:title="Stores the current population in memory for later retrieval.">
<polygon fill="#bfbfbf" stroke="black" points="0,-76.5 0,-95.5 65,-95.5 65,-76.5 0,-76.5"/>
<text text-anchor="middle" x="32.5" y="-83.5" font-family="Helvetica,sans-Serif" font-size="10.00">XCS::store</text>
</a>
</g>
</g>
<!-- Node2 -->
<g id="node2" class="node">
<title>Node2</title>
<g id="a_node2"><a xlink:href="xcsf_8c.html#a10d0342ac640d2cd32e9cb95d0cd3bbe" target="_top" xlink:title="Stores the current population.">
<polygon fill="none" stroke="black" points="101,-76.5 101,-95.5 187,-95.5 187,-76.5 101,-76.5"/>
<text text-anchor="middle" x="144" y="-83.5" font-family="Helvetica,sans-Serif" font-size="10.00">xcsf_store_pset</text>
</a>
</g>
</g>
<!-- Node1&#45;&gt;Node2 -->
<g id="edge1" class="edge">
<title>Node1&#45;&gt;Node2</title>
<path fill="none" stroke="midnightblue" d="M65.17,-86C73.16,-86 81.95,-86 90.67,-86"/>
<polygon fill="midnightblue" stroke="midnightblue" points="90.8,-89.5 100.8,-86 90.8,-82.5 90.8,-89.5"/>
</g>
<!-- Node3 -->
<g id="node3" class="node">
<title>Node3</title>
<g id="a_node3"><a xlink:href="cl_8c.html#a70aceb2c4039333d36ee71f954fb9d79" target="_top" xlink:title="Initialises and creates a copy of one classifier from another.">
<polygon fill="none" stroke="black" points="223,-114.5 223,-133.5 291,-133.5 291,-114.5 223,-114.5"/>
<text text-anchor="middle" x="257" y="-121.5" font-family="Helvetica,sans-Serif" font-size="10.00">cl_init_copy</text>
</a>
</g>
</g>
<!-- Node2&#45;&gt;Node3 -->
<g id="edge2" class="edge">
<title>Node2&#45;&gt;Node3</title>
<path fill="none" stroke="midnightblue" d="M173.01,-95.59C186.68,-100.27 203.33,-105.97 218.12,-111.03"/>
<polygon fill="midnightblue" stroke="midnightblue" points="217.4,-114.49 228,-114.41 219.67,-107.86 217.4,-114.49"/>
</g>
<!-- Node7 -->
<g id="node7" class="node">
<title>Node7</title>
<g id="a_node7"><a xlink:href="clset_8c.html#a64d33e6235c57f30a4a3ec82f18e57d6" target="_top" xlink:title="Adds a classifier to the set.">
<polygon fill="none" stroke="black" points="227.5,-76.5 227.5,-95.5 286.5,-95.5 286.5,-76.5 227.5,-76.5"/>
<text text-anchor="middle" x="257" y="-83.5" font-family="Helvetica,sans-Serif" font-size="10.00">clset_add</text>
</a>
</g>
</g>
<!-- Node2&#45;&gt;Node7 -->
<g id="edge6" class="edge">
<title>Node2&#45;&gt;Node7</title>
<path fill="none" stroke="midnightblue" d="M187.28,-86C197.09,-86 207.48,-86 217.14,-86"/>
<polygon fill="midnightblue" stroke="midnightblue" points="217.26,-89.5 227.26,-86 217.26,-82.5 217.26,-89.5"/>
</g>
<!-- Node8 -->
<g id="node8" class="node">
<title>Node8</title>
<g id="a_node8"><a xlink:href="clset_8c.html#a236baf24659360891f944761f88a30f4" target="_top" xlink:title="Frees the set and the classifiers.">
<polygon fill="none" stroke="black" points="229.5,-38.5 229.5,-57.5 284.5,-57.5 284.5,-38.5 229.5,-38.5"/>
<text text-anchor="middle" x="257" y="-45.5" font-family="Helvetica,sans-Serif" font-size="10.00">clset_kill</text>
</a>
</g>
</g>
<!-- Node2&#45;&gt;Node8 -->
<g id="edge7" class="edge">
<title>Node2&#45;&gt;Node8</title>
<path fill="none" stroke="midnightblue" d="M173.01,-76.41C187.13,-71.58 204.42,-65.66 219.56,-60.47"/>
<polygon fill="midnightblue" stroke="midnightblue" points="220.82,-63.74 229.15,-57.19 218.55,-57.12 220.82,-63.74"/>
</g>
<!-- Node4 -->
<g id="node4" class="node">
<title>Node4</title>
<g id="a_node4"><a xlink:href="action_8h.html#a319e5909d871e8146c4cbc66626ca5f3" target="_top" xlink:title="Copies the action from one classifier to another.">
<polygon fill="none" stroke="black" points="331,-152.5 331,-171.5 387,-171.5 387,-152.5 331,-152.5"/>
<text text-anchor="middle" x="359" y="-159.5" font-family="Helvetica,sans-Serif" font-size="10.00">act_copy</text>
</a>
</g>
</g>
<!-- Node3&#45;&gt;Node4 -->
<g id="edge3" class="edge">
<title>Node3&#45;&gt;Node4</title>
<path fill="none" stroke="midnightblue" d="M283.23,-133.59C295.31,-138.18 309.97,-143.75 323.1,-148.74"/>
<polygon fill="midnightblue" stroke="midnightblue" points="322.18,-152.13 332.77,-152.41 324.67,-145.59 322.18,-152.13"/>
</g>
<!-- Node5 -->
<g id="node5" class="node">
<title>Node5</title>
<g id="a_node5"><a xlink:href="condition_8h.html#aab327f8188ff446498294b76164f2d25" target="_top" xlink:title="Copies the condition from one classifier to another.">
<polygon fill="none" stroke="black" points="327,-114.5 327,-133.5 391,-133.5 391,-114.5 327,-114.5"/>
<text text-anchor="middle" x="359" y="-121.5" font-family="Helvetica,sans-Serif" font-size="10.00">cond_copy</text>
</a>
</g>
</g>
<!-- Node3&#45;&gt;Node5 -->
<g id="edge4" class="edge">
<title>Node3&#45;&gt;Node5</title>
<path fill="none" stroke="midnightblue" d="M291.02,-124C299.19,-124 308.05,-124 316.56,-124"/>
<polygon fill="midnightblue" stroke="midnightblue" points="316.71,-127.5 326.71,-124 316.71,-120.5 316.71,-127.5"/>
</g>
<!-- Node6 -->
<g id="node6" class="node">
<title>Node6</title>
<g id="a_node6"><a xlink:href="prediction_8h.html#a8657fd08bb09fdf57a6d91db71f1b447" target="_top" xlink:title="Copies the prediction from one classifier to another.">
<polygon fill="none" stroke="black" points="328,-76.5 328,-95.5 390,-95.5 390,-76.5 328,-76.5"/>
<text text-anchor="middle" x="359" y="-83.5" font-family="Helvetica,sans-Serif" font-size="10.00">pred_copy</text>
</a>
</g>
</g>
<!-- Node3&#45;&gt;Node6 -->
<g id="edge5" class="edge">
<title>Node3&#45;&gt;Node6</title>
<path fill="none" stroke="midnightblue" d="M283.23,-114.41C295.31,-109.82 309.97,-104.25 323.1,-99.26"/>
<polygon fill="midnightblue" stroke="midnightblue" points="324.67,-102.41 332.77,-95.59 322.18,-95.87 324.67,-102.41"/>
</g>
<!-- Node9 -->
<g id="node9" class="node">
<title>Node9</title>
<g id="a_node9"><a xlink:href="cl_8c.html#ac45092c0e43651e8eeaa739766e3f069" target="_top" xlink:title="Frees the memory used by a classifier.">
<polygon fill="none" stroke="black" points="336,-38.5 336,-57.5 382,-57.5 382,-38.5 336,-38.5"/>
<text text-anchor="middle" x="359" y="-45.5" font-family="Helvetica,sans-Serif" font-size="10.00">cl_free</text>
</a>
</g>
</g>
<!-- Node8&#45;&gt;Node9 -->
<g id="edge8" class="edge">
<title>Node8&#45;&gt;Node9</title>
<path fill="none" stroke="midnightblue" d="M284.54,-48C297.14,-48 312.31,-48 325.59,-48"/>
<polygon fill="midnightblue" stroke="midnightblue" points="325.74,-51.5 335.74,-48 325.74,-44.5 325.74,-51.5"/>
</g>
<!-- Node10 -->
<g id="node10" class="node">
<title>Node10</title>
<g id="a_node10"><a xlink:href="action_8h.html#a81912970283c86f80c5b7a38f1865ebd" target="_top" xlink:title="Frees the memory used by the classifier action.">
<polygon fill="none" stroke="black" points="430.5,-76.5 430.5,-95.5 482.5,-95.5 482.5,-76.5 430.5,-76.5"/>
<text text-anchor="middle" x="456.5" y="-83.5" font-family="Helvetica,sans-Serif" font-size="10.00">act_free</text>
</a>
</g>
</g>
<!-- Node9&#45;&gt;Node10 -->
<g id="edge9" class="edge">
<title>Node9&#45;&gt;Node10</title>
<path fill="none" stroke="midnightblue" d="M382.15,-56.81C394.03,-61.54 408.92,-67.46 422.17,-72.74"/>
<polygon fill="midnightblue" stroke="midnightblue" points="420.88,-75.99 431.46,-76.44 423.47,-69.49 420.88,-75.99"/>
</g>
<!-- Node11 -->
<g id="node11" class="node">
<title>Node11</title>
<g id="a_node11"><a xlink:href="condition_8h.html#a2f342b5e29e020e139112cf99887b4c5" target="_top" xlink:title="Frees the memory used by the classifier condition.">
<polygon fill="none" stroke="black" points="427,-38.5 427,-57.5 486,-57.5 486,-38.5 427,-38.5"/>
<text text-anchor="middle" x="456.5" y="-45.5" font-family="Helvetica,sans-Serif" font-size="10.00">cond_free</text>
</a>
</g>
</g>
<!-- Node9&#45;&gt;Node11 -->
<g id="edge10" class="edge">
<title>Node9&#45;&gt;Node11</title>
<path fill="none" stroke="midnightblue" d="M382.15,-48C392.46,-48 405.04,-48 416.84,-48"/>
<polygon fill="midnightblue" stroke="midnightblue" points="416.94,-51.5 426.94,-48 416.94,-44.5 416.94,-51.5"/>
</g>
<!-- Node12 -->
<g id="node12" class="node">
<title>Node12</title>
<g id="a_node12"><a xlink:href="prediction_8h.html#af19eafd52548ede9b90594c8b8949098" target="_top" xlink:title="Frees the memory used by the classifier prediction.">
<polygon fill="none" stroke="black" points="428,-0.5 428,-19.5 485,-19.5 485,-0.5 428,-0.5"/>
<text text-anchor="middle" x="456.5" y="-7.5" font-family="Helvetica,sans-Serif" font-size="10.00">pred_free</text>
</a>
</g>
</g>
<!-- Node9&#45;&gt;Node12 -->
<g id="edge11" class="edge">
<title>Node9&#45;&gt;Node12</title>
<path fill="none" stroke="midnightblue" d="M382.15,-39.19C394.03,-34.46 408.92,-28.54 422.17,-23.26"/>
<polygon fill="midnightblue" stroke="midnightblue" points="423.47,-26.51 431.46,-19.56 420.88,-20.01 423.47,-26.51"/>
</g>
</g>
</svg>
