<?xml version="1.0" encoding="UTF-8" standalone="no"?>
<!DOCTYPE svg PUBLIC "-//W3C//DTD SVG 1.1//EN"
 "http://www.w3.org/Graphics/SVG/1.1/DTD/svg11.dtd">
<!-- Generated by graphviz version 2.43.0 (0)
 -->
<!-- Title: XCS::set_condition Pages: 1 -->
<svg width="967pt" height="830pt"
 viewBox="0.00 0.00 967.00 829.50" xmlns="http://www.w3.org/2000/svg" xmlns:xlink="http://www.w3.org/1999/xlink">
<g id="graph0" class="graph" transform="scale(1 1) rotate(0) translate(4 825.5)">
<title>XCS::set_condition</title>
<!-- Node1 -->
<g id="node1" class="node">
<title>Node1</title>
<g id="a_node1"><a xlink:title="Sets the condition type and initialisation arguments.">
<polygon fill="#bfbfbf" stroke="black" points="0,-103.5 0,-122.5 101,-122.5 101,-103.5 0,-103.5"/>
<text text-anchor="middle" x="50.5" y="-110.5" font-family="Helvetica,sans-Serif" font-size="10.00">XCS::set_condition</text>
</a>
</g>
</g>
<!-- Node2 -->
<g id="node2" class="node">
<title>Node2</title>
<g id="a_node2"><a xlink:href="condition_8c.html#aac2f9eaa3555b7e4b8d6106fe46f7d41" target="_top" xlink:title="Sets the condition parameters from a cJSON object.">
<polygon fill="none" stroke="black" points="137,-171.5 137,-190.5 262,-190.5 262,-171.5 137,-171.5"/>
<text text-anchor="middle" x="199.5" y="-178.5" font-family="Helvetica,sans-Serif" font-size="10.00">cond_param_json_import</text>
</a>
</g>
</g>
<!-- Node1&#45;&gt;Node2 -->
<g id="edge1" class="edge">
<title>Node1&#45;&gt;Node2</title>
<path fill="none" stroke="midnightblue" d="M72.25,-122.6C97.42,-134.24 140.04,-153.96 168.71,-167.22"/>
<polygon fill="midnightblue" stroke="midnightblue" points="167.31,-170.43 177.86,-171.45 170.25,-164.08 167.31,-170.43"/>
</g>
<!-- Node42 -->
<g id="node42" class="node">
<title>Node42</title>
<g id="a_node42"><a xlink:href="classXCS.html#a83803dda1df95ab1bd02f3b7ba69fc11" target="_top" xlink:title="Converts a Python dictionary to a C++ string (JSON).">
<polygon fill="none" stroke="black" points="151.5,-84.5 151.5,-103.5 247.5,-103.5 247.5,-84.5 151.5,-84.5"/>
<text text-anchor="middle" x="199.5" y="-91.5" font-family="Helvetica,sans-Serif" font-size="10.00">XCS::dict_to_json</text>
</a>
</g>
</g>
<!-- Node1&#45;&gt;Node42 -->
<g id="edge41" class="edge">
<title>Node1&#45;&gt;Node42</title>
<path fill="none" stroke="midnightblue" d="M101.27,-106.57C114.14,-104.9 128.11,-103.1 141.33,-101.39"/>
<polygon fill="midnightblue" stroke="midnightblue" points="141.8,-104.86 151.27,-100.1 140.9,-97.92 141.8,-104.86"/>
</g>
<!-- Node3 -->
<g id="node3" class="node">
<title>Node3</title>
<g id="a_node3"><a xlink:href="cond__dgp_8c.html#ade1c67058d4786b83eb509bf0970f488" target="_top" xlink:title="Sets the DGP parameters from a cJSON object.">
<polygon fill="none" stroke="black" points="313,-632 313,-662 427,-662 427,-632 313,-632"/>
<text text-anchor="start" x="321" y="-650" font-family="Helvetica,sans-Serif" font-size="10.00">cond_dgp_param_json</text>
<text text-anchor="middle" x="370" y="-639" font-family="Helvetica,sans-Serif" font-size="10.00">_import</text>
</a>
</g>
</g>
<!-- Node2&#45;&gt;Node3 -->
<g id="edge2" class="edge">
<title>Node2&#45;&gt;Node3</title>
<path fill="none" stroke="midnightblue" d="M201.8,-190.77C207.83,-234.25 235.55,-413.96 298,-547 311.4,-575.54 333.05,-604.53 348.93,-623.89"/>
<polygon fill="midnightblue" stroke="midnightblue" points="346.46,-626.39 355.55,-631.82 351.83,-621.9 346.46,-626.39"/>
</g>
<!-- Node9 -->
<g id="node9" class="node">
<title>Node9</title>
<g id="a_node9"><a xlink:href="cond__gp_8c.html#a7b76673569fb43ab54519f80765f3472" target="_top" xlink:title="Sets the tree GP parameters from a cJSON object.">
<polygon fill="none" stroke="black" points="315.5,-507 315.5,-537 424.5,-537 424.5,-507 315.5,-507"/>
<text text-anchor="start" x="323.5" y="-525" font-family="Helvetica,sans-Serif" font-size="10.00">cond_gp_param_json</text>
<text text-anchor="middle" x="370" y="-514" font-family="Helvetica,sans-Serif" font-size="10.00">_import</text>
</a>
</g>
</g>
<!-- Node2&#45;&gt;Node9 -->
<g id="edge8" class="edge">
<title>Node2&#45;&gt;Node9</title>
<path fill="none" stroke="midnightblue" d="M205.36,-190.84C227.94,-236.53 322.9,-428.71 356.86,-497.44"/>
<polygon fill="midnightblue" stroke="midnightblue" points="353.85,-499.23 361.41,-506.65 360.12,-496.13 353.85,-499.23"/>
</g>
<!-- Node18 -->
<g id="node18" class="node">
<title>Node18</title>
<g id="a_node18"><a xlink:href="cond__neural_8c.html#a36aaa09b20127f91f09523074191d3ac" target="_top" xlink:title="Sets the neural network parameters from a cJSON object.">
<polygon fill="none" stroke="black" points="307.5,-299 307.5,-329 432.5,-329 432.5,-299 307.5,-299"/>
<text text-anchor="start" x="315.5" y="-317" font-family="Helvetica,sans-Serif" font-size="10.00">cond_neural_param_json</text>
<text text-anchor="middle" x="370" y="-306" font-family="Helvetica,sans-Serif" font-size="10.00">_import</text>
</a>
</g>
</g>
<!-- Node2&#45;&gt;Node18 -->
<g id="edge17" class="edge">
<title>Node2&#45;&gt;Node18</title>
<path fill="none" stroke="midnightblue" d="M212.62,-190.57C239.49,-211.77 304.62,-263.18 341.8,-292.53"/>
<polygon fill="midnightblue" stroke="midnightblue" points="339.71,-295.34 349.72,-298.79 344.04,-289.84 339.71,-295.34"/>
</g>
<!-- Node32 -->
<g id="node32" class="node">
<title>Node32</title>
<g id="a_node32"><a xlink:href="condition_8c.html#a92ddb368e6e9bc004ff90e59798b053e" target="_top" xlink:title="Sets the center&#45;spread parameters from a cJSON object.">
<polygon fill="none" stroke="black" points="298,-171.5 298,-190.5 442,-190.5 442,-171.5 298,-171.5"/>
<text text-anchor="middle" x="370" y="-178.5" font-family="Helvetica,sans-Serif" font-size="10.00">cond_param_json_import_csr</text>
</a>
</g>
</g>
<!-- Node2&#45;&gt;Node32 -->
<g id="edge31" class="edge">
<title>Node2&#45;&gt;Node32</title>
<path fill="none" stroke="midnightblue" d="M262.29,-181C270.59,-181 279.21,-181 287.78,-181"/>
<polygon fill="midnightblue" stroke="midnightblue" points="287.81,-184.5 297.81,-181 287.81,-177.5 287.81,-184.5"/>
</g>
<!-- Node37 -->
<g id="node37" class="node">
<title>Node37</title>
<g id="a_node37"><a xlink:href="condition_8c.html#ae31b2fb432f0fa9d38c18eb5d2f0be18" target="_top" xlink:title=" ">
<polygon fill="none" stroke="black" points="313.5,-117 313.5,-147 426.5,-147 426.5,-117 313.5,-117"/>
<text text-anchor="start" x="321.5" y="-135" font-family="Helvetica,sans-Serif" font-size="10.00">cond_param_set_type</text>
<text text-anchor="middle" x="370" y="-124" font-family="Helvetica,sans-Serif" font-size="10.00">_string</text>
</a>
</g>
</g>
<!-- Node2&#45;&gt;Node37 -->
<g id="edge36" class="edge">
<title>Node2&#45;&gt;Node37</title>
<path fill="none" stroke="midnightblue" d="M233.39,-171.44C254.44,-165.31 282.41,-157.18 307.48,-149.89"/>
<polygon fill="midnightblue" stroke="midnightblue" points="308.67,-153.19 317.29,-147.04 306.71,-146.47 308.67,-153.19"/>
</g>
<!-- Node39 -->
<g id="node39" class="node">
<title>Node39</title>
<g id="a_node39"><a xlink:href="cond__ternary_8c.html#acc0d446f6079b76f436e4f9be08f78d6" target="_top" xlink:title="Sets the ternary parameters from a cJSON object.">
<polygon fill="none" stroke="black" points="317.5,-58 317.5,-88 422.5,-88 422.5,-58 317.5,-58"/>
<text text-anchor="start" x="325.5" y="-76" font-family="Helvetica,sans-Serif" font-size="10.00">cond_ternary_param</text>
<text text-anchor="middle" x="370" y="-65" font-family="Helvetica,sans-Serif" font-size="10.00">_json_import</text>
</a>
</g>
</g>
<!-- Node2&#45;&gt;Node39 -->
<g id="edge38" class="edge">
<title>Node2&#45;&gt;Node39</title>
<path fill="none" stroke="midnightblue" d="M212.01,-171.27C229.76,-156.53 265.2,-128.13 298,-108 306.79,-102.61 316.52,-97.37 325.89,-92.66"/>
<polygon fill="midnightblue" stroke="midnightblue" points="327.65,-95.7 335.09,-88.14 324.57,-89.41 327.65,-95.7"/>
</g>
<!-- Node4 -->
<g id="node4" class="node">
<title>Node4</title>
<g id="a_node4"><a xlink:href="dgp_8c.html#a3208cc6d02deae06dd2faea89f32f873" target="_top" xlink:title="Sets the DGP graph parameters from a cJSON object.">
<polygon fill="none" stroke="black" points="490,-714.5 490,-733.5 610,-733.5 610,-714.5 490,-714.5"/>
<text text-anchor="middle" x="550" y="-721.5" font-family="Helvetica,sans-Serif" font-size="10.00">graph_args_json_import</text>
</a>
</g>
</g>
<!-- Node3&#45;&gt;Node4 -->
<g id="edge3" class="edge">
<title>Node3&#45;&gt;Node4</title>
<path fill="none" stroke="midnightblue" d="M405.74,-662.03C438.15,-676.05 486.08,-696.78 517.43,-710.34"/>
<polygon fill="midnightblue" stroke="midnightblue" points="516.41,-713.72 526.98,-714.48 519.19,-707.29 516.41,-713.72"/>
</g>
<!-- Node5 -->
<g id="node5" class="node">
<title>Node5</title>
<g id="a_node5"><a xlink:href="dgp_8c.html#aed1478bc3f88ad1f133a130dca8609d6" target="_top" xlink:title=" ">
<polygon fill="none" stroke="black" points="667,-791 667,-821 792,-821 792,-791 667,-791"/>
<text text-anchor="start" x="675" y="-809" font-family="Helvetica,sans-Serif" font-size="10.00">graph_param_set_evolve</text>
<text text-anchor="middle" x="729.5" y="-798" font-family="Helvetica,sans-Serif" font-size="10.00">_cycles</text>
</a>
</g>
</g>
<!-- Node4&#45;&gt;Node5 -->
<g id="edge4" class="edge">
<title>Node4&#45;&gt;Node5</title>
<path fill="none" stroke="midnightblue" d="M567.3,-733.67C587.96,-745.69 624.87,-766.4 658,-781 662.98,-783.19 668.21,-785.34 673.49,-787.39"/>
<polygon fill="midnightblue" stroke="midnightblue" points="672.39,-790.72 682.98,-790.98 674.86,-784.17 672.39,-790.72"/>
</g>
<!-- Node6 -->
<g id="node6" class="node">
<title>Node6</title>
<g id="a_node6"><a xlink:href="dgp_8c.html#ad00d04d5a1aa9f62c635775765099ca7" target="_top" xlink:title=" ">
<polygon fill="none" stroke="black" points="666.5,-752.5 666.5,-771.5 792.5,-771.5 792.5,-752.5 666.5,-752.5"/>
<text text-anchor="middle" x="729.5" y="-759.5" font-family="Helvetica,sans-Serif" font-size="10.00">graph_param_set_max_k</text>
</a>
</g>
</g>
<!-- Node4&#45;&gt;Node6 -->
<g id="edge5" class="edge">
<title>Node4&#45;&gt;Node6</title>
<path fill="none" stroke="midnightblue" d="M595.79,-733.59C619.53,-738.67 648.88,-744.96 673.94,-750.32"/>
<polygon fill="midnightblue" stroke="midnightblue" points="673.52,-753.81 684.03,-752.48 674.99,-746.96 673.52,-753.81"/>
</g>
<!-- Node7 -->
<g id="node7" class="node">
<title>Node7</title>
<g id="a_node7"><a xlink:href="dgp_8c.html#a2032837921a137ebe4c7704c47fd420f" target="_top" xlink:title=" ">
<polygon fill="none" stroke="black" points="667.5,-714.5 667.5,-733.5 791.5,-733.5 791.5,-714.5 667.5,-714.5"/>
<text text-anchor="middle" x="729.5" y="-721.5" font-family="Helvetica,sans-Serif" font-size="10.00">graph_param_set_max_t</text>
</a>
</g>
</g>
<!-- Node4&#45;&gt;Node7 -->
<g id="edge6" class="edge">
<title>Node4&#45;&gt;Node7</title>
<path fill="none" stroke="midnightblue" d="M610.1,-724C625.16,-724 641.5,-724 657.1,-724"/>
<polygon fill="midnightblue" stroke="midnightblue" points="657.22,-727.5 667.22,-724 657.22,-720.5 657.22,-727.5"/>
</g>
<!-- Node8 -->
<g id="node8" class="node">
<title>Node8</title>
<g id="a_node8"><a xlink:href="dgp_8c.html#a5fae5c843dd7b47d4a7a136122efd24b" target="_top" xlink:title=" ">
<polygon fill="none" stroke="black" points="678.5,-676.5 678.5,-695.5 780.5,-695.5 780.5,-676.5 678.5,-676.5"/>
<text text-anchor="middle" x="729.5" y="-683.5" font-family="Helvetica,sans-Serif" font-size="10.00">graph_param_set_n</text>
</a>
</g>
</g>
<!-- Node4&#45;&gt;Node8 -->
<g id="edge7" class="edge">
<title>Node4&#45;&gt;Node8</title>
<path fill="none" stroke="midnightblue" d="M595.79,-714.41C619.53,-709.33 648.88,-703.04 673.94,-697.68"/>
<polygon fill="midnightblue" stroke="midnightblue" points="674.99,-701.04 684.03,-695.52 673.52,-694.19 674.99,-701.04"/>
</g>
<!-- Node10 -->
<g id="node10" class="node">
<title>Node10</title>
<g id="a_node10"><a xlink:href="gp_8c.html#ab1a2a5d4c1921eeb8d76a3fae68b2d13" target="_top" xlink:title="Builds global constants used by GP trees.">
<polygon fill="none" stroke="black" points="488.5,-594.5 488.5,-613.5 611.5,-613.5 611.5,-594.5 488.5,-594.5"/>
<text text-anchor="middle" x="550" y="-601.5" font-family="Helvetica,sans-Serif" font-size="10.00">tree_args_init_constants</text>
</a>
</g>
</g>
<!-- Node9&#45;&gt;Node10 -->
<g id="edge9" class="edge">
<title>Node9&#45;&gt;Node10</title>
<path fill="none" stroke="midnightblue" d="M403.65,-537.04C436.57,-552.21 486.98,-575.43 518.95,-590.16"/>
<polygon fill="midnightblue" stroke="midnightblue" points="517.69,-593.43 528.24,-594.44 520.62,-587.07 517.69,-593.43"/>
</g>
<!-- Node12 -->
<g id="node12" class="node">
<title>Node12</title>
<g id="a_node12"><a xlink:href="gp_8c.html#ab18704a8506b92693030fd12464c876a" target="_top" xlink:title="Sets the GP tree parameters from a cJSON object.">
<polygon fill="none" stroke="black" points="493.5,-512.5 493.5,-531.5 606.5,-531.5 606.5,-512.5 493.5,-512.5"/>
<text text-anchor="middle" x="550" y="-519.5" font-family="Helvetica,sans-Serif" font-size="10.00">tree_args_json_import</text>
</a>
</g>
</g>
<!-- Node9&#45;&gt;Node12 -->
<g id="edge11" class="edge">
<title>Node9&#45;&gt;Node12</title>
<path fill="none" stroke="midnightblue" d="M424.89,-522C443.28,-522 464.05,-522 483.26,-522"/>
<polygon fill="midnightblue" stroke="midnightblue" points="483.45,-525.5 493.45,-522 483.45,-518.5 483.45,-525.5"/>
</g>
<!-- Node11 -->
<g id="node11" class="node">
<title>Node11</title>
<g id="a_node11"><a xlink:href="utils_8c.html#a972761ba8f47a6c3e7396a7c685158fc" target="_top" xlink:title="Returns a uniform random float [min,max].">
<polygon fill="none" stroke="black" points="693,-638.5 693,-657.5 766,-657.5 766,-638.5 693,-638.5"/>
<text text-anchor="middle" x="729.5" y="-645.5" font-family="Helvetica,sans-Serif" font-size="10.00">rand_uniform</text>
</a>
</g>
</g>
<!-- Node10&#45;&gt;Node11 -->
<g id="edge10" class="edge">
<title>Node10&#45;&gt;Node11</title>
<path fill="none" stroke="midnightblue" d="M589.51,-613.55C616.97,-620.35 653.98,-629.53 682.91,-636.7"/>
<polygon fill="midnightblue" stroke="midnightblue" points="682.23,-640.14 692.78,-639.15 683.91,-633.34 682.23,-640.14"/>
</g>
<!-- Node13 -->
<g id="node13" class="node">
<title>Node13</title>
<g id="a_node13"><a xlink:href="gp_8c.html#ab912e7b472f6fdc6bf9a7565bac8f063" target="_top" xlink:title=" ">
<polygon fill="none" stroke="black" points="678.5,-589 678.5,-619 780.5,-619 780.5,-589 678.5,-589"/>
<text text-anchor="start" x="686.5" y="-607" font-family="Helvetica,sans-Serif" font-size="10.00">tree_param_set_init</text>
<text text-anchor="middle" x="729.5" y="-596" font-family="Helvetica,sans-Serif" font-size="10.00">_depth</text>
</a>
</g>
</g>
<!-- Node12&#45;&gt;Node13 -->
<g id="edge12" class="edge">
<title>Node12&#45;&gt;Node13</title>
<path fill="none" stroke="midnightblue" d="M567.3,-531.67C587.96,-543.69 624.87,-564.4 658,-579 662.98,-581.19 668.21,-583.34 673.49,-585.39"/>
<polygon fill="midnightblue" stroke="midnightblue" points="672.39,-588.72 682.98,-588.98 674.86,-582.17 672.39,-588.72"/>
</g>
<!-- Node14 -->
<g id="node14" class="node">
<title>Node14</title>
<g id="a_node14"><a xlink:href="gp_8c.html#a7ce902011f75d08acceed528c688a3d0" target="_top" xlink:title=" ">
<polygon fill="none" stroke="black" points="675.5,-550.5 675.5,-569.5 783.5,-569.5 783.5,-550.5 675.5,-550.5"/>
<text text-anchor="middle" x="729.5" y="-557.5" font-family="Helvetica,sans-Serif" font-size="10.00">tree_param_set_max</text>
</a>
</g>
</g>
<!-- Node12&#45;&gt;Node14 -->
<g id="edge13" class="edge">
<title>Node12&#45;&gt;Node14</title>
<path fill="none" stroke="midnightblue" d="M595.79,-531.59C619.53,-536.67 648.88,-542.96 673.94,-548.32"/>
<polygon fill="midnightblue" stroke="midnightblue" points="673.52,-551.81 684.03,-550.48 674.99,-544.96 673.52,-551.81"/>
</g>
<!-- Node15 -->
<g id="node15" class="node">
<title>Node15</title>
<g id="a_node15"><a xlink:href="gp_8c.html#a31aa4c7ee72dd3c66fa9fb093d3d8519" target="_top" xlink:title=" ">
<polygon fill="none" stroke="black" points="666.5,-512.5 666.5,-531.5 792.5,-531.5 792.5,-512.5 666.5,-512.5"/>
<text text-anchor="middle" x="729.5" y="-519.5" font-family="Helvetica,sans-Serif" font-size="10.00">tree_param_set_max_len</text>
</a>
</g>
</g>
<!-- Node12&#45;&gt;Node15 -->
<g id="edge14" class="edge">
<title>Node12&#45;&gt;Node15</title>
<path fill="none" stroke="midnightblue" d="M606.68,-522C622.34,-522 639.6,-522 656.08,-522"/>
<polygon fill="midnightblue" stroke="midnightblue" points="656.23,-525.5 666.23,-522 656.23,-518.5 656.23,-525.5"/>
</g>
<!-- Node16 -->
<g id="node16" class="node">
<title>Node16</title>
<g id="a_node16"><a xlink:href="gp_8c.html#ace8b76bf8fcb4b48723dd94efae893c9" target="_top" xlink:title=" ">
<polygon fill="none" stroke="black" points="677,-474.5 677,-493.5 782,-493.5 782,-474.5 677,-474.5"/>
<text text-anchor="middle" x="729.5" y="-481.5" font-family="Helvetica,sans-Serif" font-size="10.00">tree_param_set_min</text>
</a>
</g>
</g>
<!-- Node12&#45;&gt;Node16 -->
<g id="edge15" class="edge">
<title>Node12&#45;&gt;Node16</title>
<path fill="none" stroke="midnightblue" d="M595.79,-512.41C619.53,-507.33 648.88,-501.04 673.94,-495.68"/>
<polygon fill="midnightblue" stroke="midnightblue" points="674.99,-499.04 684.03,-493.52 673.52,-492.19 674.99,-499.04"/>
</g>
<!-- Node17 -->
<g id="node17" class="node">
<title>Node17</title>
<g id="a_node17"><a xlink:href="gp_8c.html#a9a12da4c3d6254d01924a949478bcc01" target="_top" xlink:title=" ">
<polygon fill="none" stroke="black" points="658,-436.5 658,-455.5 801,-455.5 801,-436.5 658,-436.5"/>
<text text-anchor="middle" x="729.5" y="-443.5" font-family="Helvetica,sans-Serif" font-size="10.00">tree_param_set_n_constants</text>
</a>
</g>
</g>
<!-- Node12&#45;&gt;Node17 -->
<g id="edge16" class="edge">
<title>Node12&#45;&gt;Node17</title>
<path fill="none" stroke="midnightblue" d="M566.42,-512.35C586.75,-499.96 623.94,-478.46 658,-465 664.18,-462.56 670.78,-460.32 677.38,-458.3"/>
<polygon fill="midnightblue" stroke="midnightblue" points="678.36,-461.66 686.98,-455.51 676.4,-454.94 678.36,-461.66"/>
</g>
<!-- Node19 -->
<g id="node19" class="node">
<title>Node19</title>
<g id="a_node19"><a xlink:href="neural__layer__args_8c.html#a477d2c5cf9da9413c6dba66b5d7f7aff" target="_top" xlink:title="Frees memory used by a list of layer parameters and points to NULL.">
<polygon fill="none" stroke="black" points="508.5,-380.5 508.5,-399.5 591.5,-399.5 591.5,-380.5 508.5,-380.5"/>
<text text-anchor="middle" x="550" y="-387.5" font-family="Helvetica,sans-Serif" font-size="10.00">layer_args_free</text>
</a>
</g>
</g>
<!-- Node18&#45;&gt;Node19 -->
<g id="edge18" class="edge">
<title>Node18&#45;&gt;Node19</title>
<path fill="none" stroke="midnightblue" d="M395.31,-329.02C416.52,-341.61 448.43,-359.35 478,-371 484.46,-373.55 491.38,-375.87 498.28,-377.95"/>
<polygon fill="midnightblue" stroke="midnightblue" points="497.73,-381.43 508.31,-380.82 499.65,-374.7 497.73,-381.43"/>
</g>
<!-- Node20 -->
<g id="node20" class="node">
<title>Node20</title>
<g id="a_node20"><a xlink:href="neural__layer__args_8c.html#a3b06e82bed7fc9a8915d6187ce08d33e" target="_top" xlink:title="Sets layer parameters to default values.">
<polygon fill="none" stroke="black" points="510,-342.5 510,-361.5 590,-361.5 590,-342.5 510,-342.5"/>
<text text-anchor="middle" x="550" y="-349.5" font-family="Helvetica,sans-Serif" font-size="10.00">layer_args_init</text>
</a>
</g>
</g>
<!-- Node18&#45;&gt;Node20 -->
<g id="edge19" class="edge">
<title>Node18&#45;&gt;Node20</title>
<path fill="none" stroke="midnightblue" d="M432.76,-327.18C454.76,-331.88 479.22,-337.1 500.01,-341.54"/>
<polygon fill="midnightblue" stroke="midnightblue" points="499.38,-344.99 509.89,-343.65 500.84,-338.14 499.38,-344.99"/>
</g>
<!-- Node21 -->
<g id="node21" class="node">
<title>Node21</title>
<g id="a_node21"><a xlink:href="neural__layer__args_8c.html#abc0a9e83a53e871f873bf08af74e7a29" target="_top" xlink:title="Sets the layer parameters from a cJSON object.">
<polygon fill="none" stroke="black" points="491.5,-304.5 491.5,-323.5 608.5,-323.5 608.5,-304.5 491.5,-304.5"/>
<text text-anchor="middle" x="550" y="-311.5" font-family="Helvetica,sans-Serif" font-size="10.00">layer_args_json_import</text>
</a>
</g>
</g>
<!-- Node18&#45;&gt;Node21 -->
<g id="edge20" class="edge">
<title>Node18&#45;&gt;Node21</title>
<path fill="none" stroke="midnightblue" d="M432.76,-314C448.32,-314 465.12,-314 480.98,-314"/>
<polygon fill="midnightblue" stroke="midnightblue" points="481.24,-317.5 491.24,-314 481.24,-310.5 481.24,-317.5"/>
</g>
<!-- Node29 -->
<g id="node29" class="node">
<title>Node29</title>
<g id="a_node29"><a xlink:href="neural__layer__args_8c.html#a492de2de029ff6124f8fe466ad6b0d80" target="_top" xlink:title="Checks network layer arguments are valid.">
<polygon fill="none" stroke="black" points="499.5,-266.5 499.5,-285.5 600.5,-285.5 600.5,-266.5 499.5,-266.5"/>
<text text-anchor="middle" x="550" y="-273.5" font-family="Helvetica,sans-Serif" font-size="10.00">layer_args_validate</text>
</a>
</g>
</g>
<!-- Node18&#45;&gt;Node29 -->
<g id="edge28" class="edge">
<title>Node18&#45;&gt;Node29</title>
<path fill="none" stroke="midnightblue" d="M432.76,-300.82C452.85,-296.53 474.99,-291.8 494.52,-287.63"/>
<polygon fill="midnightblue" stroke="midnightblue" points="495.41,-291.02 504.46,-285.51 493.95,-284.17 495.41,-291.02"/>
</g>
<!-- Node22 -->
<g id="node22" class="node">
<title>Node22</title>
<g id="a_node22"><a xlink:href="neural__layer__args_8c.html#af7388e196c27ab190bb7bb6848a7a456" target="_top" xlink:title="Sets the layer activation from a cJSON object.">
<polygon fill="none" stroke="black" points="671,-387 671,-417 788,-417 788,-387 671,-387"/>
<text text-anchor="start" x="679" y="-405" font-family="Helvetica,sans-Serif" font-size="10.00">layer_args_json_import</text>
<text text-anchor="middle" x="729.5" y="-394" font-family="Helvetica,sans-Serif" font-size="10.00">_activation</text>
</a>
</g>
</g>
<!-- Node21&#45;&gt;Node22 -->
<g id="edge21" class="edge">
<title>Node21&#45;&gt;Node22</title>
<path fill="none" stroke="midnightblue" d="M602.3,-323.57C609.22,-326.04 616,-329.12 622,-333 643.23,-346.7 637.33,-362.46 658,-377 660.71,-378.9 663.58,-380.68 666.55,-382.33"/>
<polygon fill="midnightblue" stroke="midnightblue" points="665.19,-385.56 675.7,-386.91 668.33,-379.3 665.19,-385.56"/>
</g>
<!-- Node24 -->
<g id="node24" class="node">
<title>Node24</title>
<g id="a_node24"><a xlink:href="neural__layer__args_8c.html#a511a92070d5a53700d9650c1705b96ab" target="_top" xlink:title="Sets the layer evolutionary parameters from a cJSON object.">
<polygon fill="none" stroke="black" points="660.5,-348.5 660.5,-367.5 798.5,-367.5 798.5,-348.5 660.5,-348.5"/>
<text text-anchor="middle" x="729.5" y="-355.5" font-family="Helvetica,sans-Serif" font-size="10.00">layer_args_json_import_evo</text>
</a>
</g>
</g>
<!-- Node21&#45;&gt;Node24 -->
<g id="edge23" class="edge">
<title>Node21&#45;&gt;Node24</title>
<path fill="none" stroke="midnightblue" d="M589.51,-323.55C616.15,-330.15 651.78,-338.98 680.3,-346.05"/>
<polygon fill="midnightblue" stroke="midnightblue" points="679.51,-349.46 690.06,-348.47 681.2,-342.67 679.51,-349.46"/>
</g>
<!-- Node25 -->
<g id="node25" class="node">
<title>Node25</title>
<g id="a_node25"><a xlink:href="neural__layer__args_8c.html#a22a018ccf2e332aafeaa450968b96ed1" target="_top" xlink:title="Sets the layer input parameters from a cJSON object.">
<polygon fill="none" stroke="black" points="671,-299 671,-329 788,-329 788,-299 671,-299"/>
<text text-anchor="start" x="679" y="-317" font-family="Helvetica,sans-Serif" font-size="10.00">layer_args_json_import</text>
<text text-anchor="middle" x="729.5" y="-306" font-family="Helvetica,sans-Serif" font-size="10.00">_inputs</text>
</a>
</g>
</g>
<!-- Node21&#45;&gt;Node25 -->
<g id="edge24" class="edge">
<title>Node21&#45;&gt;Node25</title>
<path fill="none" stroke="midnightblue" d="M608.63,-314C625.14,-314 643.3,-314 660.39,-314"/>
<polygon fill="midnightblue" stroke="midnightblue" points="660.86,-317.5 670.86,-314 660.86,-310.5 660.86,-317.5"/>
</g>
<!-- Node26 -->
<g id="node26" class="node">
<title>Node26</title>
<g id="a_node26"><a xlink:href="neural__layer__args_8c.html#ab5d03fe4bb8549b5321c9bda9c514161" target="_top" xlink:title="Sets the layer scaling parameters from a cJSON object.">
<polygon fill="none" stroke="black" points="671,-250 671,-280 788,-280 788,-250 671,-250"/>
<text text-anchor="start" x="679" y="-268" font-family="Helvetica,sans-Serif" font-size="10.00">layer_args_json_import</text>
<text text-anchor="middle" x="729.5" y="-257" font-family="Helvetica,sans-Serif" font-size="10.00">_scale</text>
</a>
</g>
</g>
<!-- Node21&#45;&gt;Node26 -->
<g id="edge25" class="edge">
<title>Node21&#45;&gt;Node26</title>
<path fill="none" stroke="midnightblue" d="M587.14,-304.43C598.33,-301.44 610.68,-298.11 622,-295 636.22,-291.09 651.49,-286.83 665.91,-282.78"/>
<polygon fill="midnightblue" stroke="midnightblue" points="667.05,-286.09 675.72,-280.01 665.15,-279.36 667.05,-286.09"/>
</g>
<!-- Node27 -->
<g id="node27" class="node">
<title>Node27</title>
<g id="a_node27"><a xlink:href="neural__layer__args_8c.html#a9a07261fd04326ccbae66c152f8f6de2" target="_top" xlink:title="Sets the layer SGD parameters from a cJSON object.">
<polygon fill="none" stroke="black" points="660.5,-211.5 660.5,-230.5 798.5,-230.5 798.5,-211.5 660.5,-211.5"/>
<text text-anchor="middle" x="729.5" y="-218.5" font-family="Helvetica,sans-Serif" font-size="10.00">layer_args_json_import_sgd</text>
</a>
</g>
</g>
<!-- Node21&#45;&gt;Node27 -->
<g id="edge26" class="edge">
<title>Node21&#45;&gt;Node27</title>
<path fill="none" stroke="midnightblue" d="M604.13,-304.4C610.48,-301.95 616.61,-298.87 622,-295 645.44,-278.19 634.69,-257.98 658,-241 661.26,-238.62 664.8,-236.53 668.49,-234.68"/>
<polygon fill="midnightblue" stroke="midnightblue" points="670.14,-237.78 677.92,-230.59 667.35,-231.36 670.14,-237.78"/>
</g>
<!-- Node28 -->
<g id="node28" class="node">
<title>Node28</title>
<g id="a_node28"><a xlink:href="neural__layer_8c.html#a5a8bc3e92587742c0bd1ee27780b1128" target="_top" xlink:title="Returns the integer representation of a layer type given a name.">
<polygon fill="none" stroke="black" points="683,-173.5 683,-192.5 776,-192.5 776,-173.5 683,-173.5"/>
<text text-anchor="middle" x="729.5" y="-180.5" font-family="Helvetica,sans-Serif" font-size="10.00">layer_type_as_int</text>
</a>
</g>
</g>
<!-- Node21&#45;&gt;Node28 -->
<g id="edge27" class="edge">
<title>Node21&#45;&gt;Node28</title>
<path fill="none" stroke="midnightblue" d="M607.48,-304.37C612.76,-301.91 617.73,-298.84 622,-295 654.98,-265.39 625.04,-231.63 658,-202 662.47,-197.98 667.7,-194.8 673.26,-192.28"/>
<polygon fill="midnightblue" stroke="midnightblue" points="674.74,-195.47 682.84,-188.64 672.25,-188.92 674.74,-195.47"/>
</g>
<!-- Node23 -->
<g id="node23" class="node">
<title>Node23</title>
<g id="a_node23"><a xlink:href="neural__activations_8c.html#aaba6ef52952c92bb15f6231b6b42fa73" target="_top" xlink:title="Returns the integer representation of an activation function.">
<polygon fill="none" stroke="black" points="837,-392.5 837,-411.5 959,-411.5 959,-392.5 837,-392.5"/>
<text text-anchor="middle" x="898" y="-399.5" font-family="Helvetica,sans-Serif" font-size="10.00">neural_activation_as_int</text>
</a>
</g>
</g>
<!-- Node22&#45;&gt;Node23 -->
<g id="edge22" class="edge">
<title>Node22&#45;&gt;Node23</title>
<path fill="none" stroke="midnightblue" d="M788.27,-402C800.64,-402 813.85,-402 826.64,-402"/>
<polygon fill="midnightblue" stroke="midnightblue" points="826.79,-405.5 836.79,-402 826.79,-398.5 826.79,-405.5"/>
</g>
<!-- Node30 -->
<g id="node30" class="node">
<title>Node30</title>
<g id="a_node30"><a xlink:href="neural__layer__args_8c.html#a8e1a02c60d1cbe0baba8f2c6ff0b5266" target="_top" xlink:title="Checks input layer arguments are valid.">
<polygon fill="none" stroke="black" points="679,-124 679,-154 780,-154 780,-124 679,-124"/>
<text text-anchor="start" x="687" y="-142" font-family="Helvetica,sans-Serif" font-size="10.00">layer_args_validate</text>
<text text-anchor="middle" x="729.5" y="-131" font-family="Helvetica,sans-Serif" font-size="10.00">_inputs</text>
</a>
</g>
</g>
<!-- Node29&#45;&gt;Node30 -->
<g id="edge29" class="edge">
<title>Node29&#45;&gt;Node30</title>
<path fill="none" stroke="midnightblue" d="M600.65,-269.17C608.45,-266.37 615.92,-262.45 622,-257 654.98,-227.39 626.22,-194.89 658,-164 661.48,-160.61 665.45,-157.68 669.7,-155.15"/>
<polygon fill="midnightblue" stroke="midnightblue" points="671.44,-158.19 678.71,-150.48 668.22,-151.97 671.44,-158.19"/>
</g>
<!-- Node31 -->
<g id="node31" class="node">
<title>Node31</title>
<g id="a_node31"><a xlink:href="neural__layer_8c.html#ad1b7188119d0d96791ee0d87c105896a" target="_top" xlink:title="Returns a whether a layer type expects images as input.">
<polygon fill="none" stroke="black" points="840,-129.5 840,-148.5 956,-148.5 956,-129.5 840,-129.5"/>
<text text-anchor="middle" x="898" y="-136.5" font-family="Helvetica,sans-Serif" font-size="10.00">layer_receives_images</text>
</a>
</g>
</g>
<!-- Node30&#45;&gt;Node31 -->
<g id="edge30" class="edge">
<title>Node30&#45;&gt;Node31</title>
<path fill="none" stroke="midnightblue" d="M780,-139C795.56,-139 813.02,-139 829.6,-139"/>
<polygon fill="midnightblue" stroke="midnightblue" points="829.78,-142.5 839.78,-139 829.78,-135.5 829.78,-142.5"/>
</g>
<!-- Node33 -->
<g id="node33" class="node">
<title>Node33</title>
<g id="a_node33"><a xlink:href="condition_8c.html#afba6bf151b5efdac267a5acea6ec6f98" target="_top" xlink:title=" ">
<polygon fill="none" stroke="black" points="496.5,-228.5 496.5,-247.5 603.5,-247.5 603.5,-228.5 496.5,-228.5"/>
<text text-anchor="middle" x="550" y="-235.5" font-family="Helvetica,sans-Serif" font-size="10.00">cond_param_set_eta</text>
</a>
</g>
</g>
<!-- Node32&#45;&gt;Node33 -->
<g id="edge32" class="edge">
<title>Node32&#45;&gt;Node33</title>
<path fill="none" stroke="midnightblue" d="M396.32,-190.64C417.88,-198.69 449.76,-210.22 478,-219 485.54,-221.34 493.58,-223.66 501.44,-225.84"/>
<polygon fill="midnightblue" stroke="midnightblue" points="500.69,-229.26 511.25,-228.5 502.52,-222.5 500.69,-229.26"/>
</g>
<!-- Node34 -->
<g id="node34" class="node">
<title>Node34</title>
<g id="a_node34"><a xlink:href="condition_8c.html#a96145ee4b72dff5896f1d441501f788b" target="_top" xlink:title=" ">
<polygon fill="none" stroke="black" points="493.5,-190.5 493.5,-209.5 606.5,-209.5 606.5,-190.5 493.5,-190.5"/>
<text text-anchor="middle" x="550" y="-197.5" font-family="Helvetica,sans-Serif" font-size="10.00">cond_param_set_max</text>
</a>
</g>
</g>
<!-- Node32&#45;&gt;Node34 -->
<g id="edge33" class="edge">
<title>Node32&#45;&gt;Node34</title>
<path fill="none" stroke="midnightblue" d="M442.12,-188.59C455.7,-190.04 469.86,-191.55 483.26,-192.98"/>
<polygon fill="midnightblue" stroke="midnightblue" points="483.03,-196.48 493.34,-194.06 483.77,-189.52 483.03,-196.48"/>
</g>
<!-- Node35 -->
<g id="node35" class="node">
<title>Node35</title>
<g id="a_node35"><a xlink:href="condition_8c.html#a76bc79f6e7f0ad3c034ef9c66b987dfd" target="_top" xlink:title=" ">
<polygon fill="none" stroke="black" points="495,-152.5 495,-171.5 605,-171.5 605,-152.5 495,-152.5"/>
<text text-anchor="middle" x="550" y="-159.5" font-family="Helvetica,sans-Serif" font-size="10.00">cond_param_set_min</text>
</a>
</g>
</g>
<!-- Node32&#45;&gt;Node35 -->
<g id="edge34" class="edge">
<title>Node32&#45;&gt;Node35</title>
<path fill="none" stroke="midnightblue" d="M442.12,-173.41C456.3,-171.89 471.11,-170.31 485.04,-168.83"/>
<polygon fill="midnightblue" stroke="midnightblue" points="485.42,-172.31 495,-167.76 484.68,-165.35 485.42,-172.31"/>
</g>
<!-- Node36 -->
<g id="node36" class="node">
<title>Node36</title>
<g id="a_node36"><a xlink:href="condition_8c.html#a508893aeed24ea2c0eab380f49b05f8b" target="_top" xlink:title=" ">
<polygon fill="none" stroke="black" points="478,-114.5 478,-133.5 622,-133.5 622,-114.5 478,-114.5"/>
<text text-anchor="middle" x="550" y="-121.5" font-family="Helvetica,sans-Serif" font-size="10.00">cond_param_set_spread_min</text>
</a>
</g>
</g>
<!-- Node32&#45;&gt;Node36 -->
<g id="edge35" class="edge">
<title>Node32&#45;&gt;Node36</title>
<path fill="none" stroke="midnightblue" d="M400.12,-171.48C413,-167.19 428.3,-161.98 442,-157 458.14,-151.14 461.68,-148.34 478,-143 485.17,-140.66 492.81,-138.38 500.33,-136.27"/>
<polygon fill="midnightblue" stroke="midnightblue" points="501.36,-139.61 510.08,-133.59 499.51,-132.86 501.36,-139.61"/>
</g>
<!-- Node38 -->
<g id="node38" class="node">
<title>Node38</title>
<g id="a_node38"><a xlink:href="condition_8c.html#a654e570bc807e2c15a6d963b31d3caf2" target="_top" xlink:title="Returns the integer representation of a condition type given a name.">
<polygon fill="none" stroke="black" points="494.5,-76.5 494.5,-95.5 605.5,-95.5 605.5,-76.5 494.5,-76.5"/>
<text text-anchor="middle" x="550" y="-83.5" font-family="Helvetica,sans-Serif" font-size="10.00">condition_type_as_int</text>
</a>
</g>
</g>
<!-- Node37&#45;&gt;Node38 -->
<g id="edge37" class="edge">
<title>Node37&#45;&gt;Node38</title>
<path fill="none" stroke="midnightblue" d="M426.83,-117.57C451.08,-111.31 479.16,-104.05 502.28,-98.07"/>
<polygon fill="midnightblue" stroke="midnightblue" points="503.38,-101.4 512.19,-95.51 501.63,-94.63 503.38,-101.4"/>
</g>
<!-- Node40 -->
<g id="node40" class="node">
<title>Node40</title>
<g id="a_node40"><a xlink:href="condition_8c.html#a6d08714de7bb2d395de2a8171635afac" target="_top" xlink:title=" ">
<polygon fill="none" stroke="black" points="495,-38.5 495,-57.5 605,-57.5 605,-38.5 495,-38.5"/>
<text text-anchor="middle" x="550" y="-45.5" font-family="Helvetica,sans-Serif" font-size="10.00">cond_param_set_bits</text>
</a>
</g>
</g>
<!-- Node39&#45;&gt;Node40 -->
<g id="edge39" class="edge">
<title>Node39&#45;&gt;Node40</title>
<path fill="none" stroke="midnightblue" d="M422.96,-65.7C442.28,-62.99 464.42,-59.88 484.71,-57.03"/>
<polygon fill="midnightblue" stroke="midnightblue" points="485.39,-60.47 494.8,-55.61 484.42,-53.54 485.39,-60.47"/>
</g>
<!-- Node41 -->
<g id="node41" class="node">
<title>Node41</title>
<g id="a_node41"><a xlink:href="condition_8c.html#a95e3f93f8f4d82e7a6f5ef3b7a6a71ef" target="_top" xlink:title=" ">
<polygon fill="none" stroke="black" points="479,-0.5 479,-19.5 621,-19.5 621,-0.5 479,-0.5"/>
<text text-anchor="middle" x="550" y="-7.5" font-family="Helvetica,sans-Serif" font-size="10.00">cond_param_set_p_dontcare</text>
</a>
</g>
</g>
<!-- Node39&#45;&gt;Node41 -->
<g id="edge40" class="edge">
<title>Node39&#45;&gt;Node41</title>
<path fill="none" stroke="midnightblue" d="M416.84,-57.98C425.29,-54.89 433.98,-51.51 442,-48 458.58,-40.75 461.16,-35.6 478,-29 484.23,-26.56 490.88,-24.32 497.52,-22.31"/>
<polygon fill="midnightblue" stroke="midnightblue" points="498.56,-25.65 507.2,-19.52 496.62,-18.92 498.56,-25.65"/>
</g>
<!-- Node43 -->
<g id="node43" class="node">
<title>Node43</title>
<g id="a_node43"><a xlink:href="classXCS.html#aa324fa8d2f623753926ed7b32607860b" target="_top" xlink:title="Finds and replaces all occurrences of a substring.">
<polygon fill="none" stroke="black" points="314.5,-19.5 314.5,-38.5 425.5,-38.5 425.5,-19.5 314.5,-19.5"/>
<text text-anchor="middle" x="370" y="-26.5" font-family="Helvetica,sans-Serif" font-size="10.00">XCS::find_replace_all</text>
</a>
</g>
</g>
<!-- Node42&#45;&gt;Node43 -->
<g id="edge42" class="edge">
<title>Node42&#45;&gt;Node43</title>
<path fill="none" stroke="midnightblue" d="M218.82,-84.48C238.15,-74.7 269.67,-59.46 298,-49 305.35,-46.29 313.24,-43.73 320.99,-41.41"/>
<polygon fill="midnightblue" stroke="midnightblue" points="322.06,-44.74 330.69,-38.6 320.11,-38.02 322.06,-44.74"/>
</g>
</g>
</svg>
