<?xml version="1.0" encoding="UTF-8" standalone="no"?>
<!DOCTYPE svg PUBLIC "-//W3C//DTD SVG 1.1//EN"
 "http://www.w3.org/Graphics/SVG/1.1/DTD/svg11.dtd">
<!-- Generated by graphviz version 2.43.0 (0)
 -->
<!-- Title: XCS::print_pop Pages: 1 -->
<svg width="487pt" height="142pt"
 viewBox="0.00 0.00 487.00 142.00" xmlns="http://www.w3.org/2000/svg" xmlns:xlink="http://www.w3.org/1999/xlink">
<g id="graph0" class="graph" transform="scale(1 1) rotate(0) translate(4 138)">
<title>XCS::print_pop</title>
<!-- Node1 -->
<g id="node1" class="node">
<title>Node1</title>
<g id="a_node1"><a xlink:title="Prints the current population.">
<polygon fill="#bfbfbf" stroke="black" points="0,-38.5 0,-57.5 83,-57.5 83,-38.5 0,-38.5"/>
<text text-anchor="middle" x="41.5" y="-45.5" font-family="Helvetica,sans-Serif" font-size="10.00">XCS::print_pop</text>
</a>
</g>
</g>
<!-- Node2 -->
<g id="node2" class="node">
<title>Node2</title>
<g id="a_node2"><a xlink:href="xcsf_8c.html#a80992cea39d67a465056b2094ed89202" target="_top" xlink:title="Prints the current XCSF population.">
<polygon fill="none" stroke="black" points="119,-38.5 119,-57.5 199,-57.5 199,-38.5 119,-38.5"/>
<text text-anchor="middle" x="159" y="-45.5" font-family="Helvetica,sans-Serif" font-size="10.00">xcsf_print_pop</text>
</a>
</g>
</g>
<!-- Node1&#45;&gt;Node2 -->
<g id="edge1" class="edge">
<title>Node1&#45;&gt;Node2</title>
<path fill="none" stroke="midnightblue" d="M83.22,-48C91.44,-48 100.16,-48 108.64,-48"/>
<polygon fill="midnightblue" stroke="midnightblue" points="108.81,-51.5 118.81,-48 108.81,-44.5 108.81,-51.5"/>
</g>
<!-- Node3 -->
<g id="node3" class="node">
<title>Node3</title>
<g id="a_node3"><a xlink:href="clset_8c.html#a94d2bd43336b125762a8be073b99dc1c" target="_top" xlink:title="Prints the classifiers in the set.">
<polygon fill="none" stroke="black" points="235,-38.5 235,-57.5 297,-57.5 297,-38.5 235,-38.5"/>
<text text-anchor="middle" x="266" y="-45.5" font-family="Helvetica,sans-Serif" font-size="10.00">clset_print</text>
</a>
</g>
</g>
<!-- Node2&#45;&gt;Node3 -->
<g id="edge2" class="edge">
<title>Node2&#45;&gt;Node3</title>
<path fill="none" stroke="midnightblue" d="M199.1,-48C207.38,-48 216.14,-48 224.47,-48"/>
<polygon fill="midnightblue" stroke="midnightblue" points="224.73,-51.5 234.73,-48 224.73,-44.5 224.73,-51.5"/>
</g>
<!-- Node4 -->
<g id="node4" class="node">
<title>Node4</title>
<g id="a_node4"><a xlink:href="cl_8c.html#a423cf5c737f01a3bed06481384f61c74" target="_top" xlink:title="Prints a classifier.">
<polygon fill="none" stroke="black" points="333,-57.5 333,-76.5 381,-76.5 381,-57.5 333,-57.5"/>
<text text-anchor="middle" x="357" y="-64.5" font-family="Helvetica,sans-Serif" font-size="10.00">cl_print</text>
</a>
</g>
</g>
<!-- Node3&#45;&gt;Node4 -->
<g id="edge3" class="edge">
<title>Node3&#45;&gt;Node4</title>
<path fill="none" stroke="midnightblue" d="M297.13,-54.43C305.45,-56.21 314.52,-58.14 322.99,-59.95"/>
<polygon fill="midnightblue" stroke="midnightblue" points="322.43,-63.41 332.94,-62.08 323.89,-56.57 322.43,-63.41"/>
</g>
<!-- Node9 -->
<g id="node9" class="node">
<title>Node9</title>
<g id="a_node9"><a xlink:href="CMakeLists_8txt.html#a919ef7f71e50ac4aa109fc9744fe9e7c" target="_top" xlink:title=" ">
<polygon fill="none" stroke="black" points="342,-19.5 342,-38.5 372,-38.5 372,-19.5 342,-19.5"/>
<text text-anchor="middle" x="357" y="-26.5" font-family="Helvetica,sans-Serif" font-size="10.00">set</text>
</a>
</g>
</g>
<!-- Node3&#45;&gt;Node9 -->
<g id="edge8" class="edge">
<title>Node3&#45;&gt;Node9</title>
<path fill="none" stroke="midnightblue" d="M297.13,-41.57C308.48,-39.15 321.22,-36.42 331.94,-34.14"/>
<polygon fill="midnightblue" stroke="midnightblue" points="332.81,-37.53 341.86,-32.02 331.35,-30.68 332.81,-37.53"/>
</g>
<!-- Node5 -->
<g id="node5" class="node">
<title>Node5</title>
<g id="a_node5"><a xlink:href="action_8h.html#ade343808d1cd2cb6f71072b712ba7e53" target="_top" xlink:title="Prints the classifier action.">
<polygon fill="none" stroke="black" points="421,-114.5 421,-133.5 475,-133.5 475,-114.5 421,-114.5"/>
<text text-anchor="middle" x="448" y="-121.5" font-family="Helvetica,sans-Serif" font-size="10.00">act_print</text>
</a>
</g>
</g>
<!-- Node4&#45;&gt;Node5 -->
<g id="edge4" class="edge">
<title>Node4&#45;&gt;Node5</title>
<path fill="none" stroke="midnightblue" d="M373.01,-76.72C384.93,-84.41 402.01,-95.43 417,-105 418.94,-106.24 420.96,-107.52 422.98,-108.81"/>
<polygon fill="midnightblue" stroke="midnightblue" points="421.4,-111.96 431.72,-114.36 425.15,-106.04 421.4,-111.96"/>
</g>
<!-- Node6 -->
<g id="node6" class="node">
<title>Node6</title>
<g id="a_node6"><a xlink:href="cl_8c.html#ac6fad398859e384ee0bd37766ee18883" target="_top" xlink:title="Returns the fraction of observed inputs matched by a classifier.">
<polygon fill="none" stroke="black" points="421,-76.5 421,-95.5 475,-95.5 475,-76.5 421,-76.5"/>
<text text-anchor="middle" x="448" y="-83.5" font-family="Helvetica,sans-Serif" font-size="10.00">cl_mfrac</text>
</a>
</g>
</g>
<!-- Node4&#45;&gt;Node6 -->
<g id="edge5" class="edge">
<title>Node4&#45;&gt;Node6</title>
<path fill="none" stroke="midnightblue" d="M381.38,-71.99C390.4,-73.92 400.93,-76.17 410.88,-78.29"/>
<polygon fill="midnightblue" stroke="midnightblue" points="410.44,-81.77 420.95,-80.44 411.9,-74.93 410.44,-81.77"/>
</g>
<!-- Node7 -->
<g id="node7" class="node">
<title>Node7</title>
<g id="a_node7"><a xlink:href="condition_8h.html#a150133c746c54f98c52e9cb1a10a2edc" target="_top" xlink:title="Prints the classifier condition.">
<polygon fill="none" stroke="black" points="417,-38.5 417,-57.5 479,-57.5 479,-38.5 417,-38.5"/>
<text text-anchor="middle" x="448" y="-45.5" font-family="Helvetica,sans-Serif" font-size="10.00">cond_print</text>
</a>
</g>
</g>
<!-- Node4&#45;&gt;Node7 -->
<g id="edge6" class="edge">
<title>Node4&#45;&gt;Node7</title>
<path fill="none" stroke="midnightblue" d="M381.38,-62.01C389.16,-60.35 398.05,-58.45 406.73,-56.6"/>
<polygon fill="midnightblue" stroke="midnightblue" points="407.68,-59.97 416.73,-54.46 406.22,-53.13 407.68,-59.97"/>
</g>
<!-- Node8 -->
<g id="node8" class="node">
<title>Node8</title>
<g id="a_node8"><a xlink:href="prediction_8h.html#a2f99b7c3753d538e24f40c6af93f46af" target="_top" xlink:title="Prints the classifier prediction.">
<polygon fill="none" stroke="black" points="418.5,-0.5 418.5,-19.5 477.5,-19.5 477.5,-0.5 418.5,-0.5"/>
<text text-anchor="middle" x="448" y="-7.5" font-family="Helvetica,sans-Serif" font-size="10.00">pred_print</text>
</a>
</g>
</g>
<!-- Node4&#45;&gt;Node8 -->
<g id="edge7" class="edge">
<title>Node4&#45;&gt;Node8</title>
<path fill="none" stroke="midnightblue" d="M373.01,-57.28C384.93,-49.59 402.01,-38.57 417,-29 418.94,-27.76 420.96,-26.48 422.98,-25.19"/>
<polygon fill="midnightblue" stroke="midnightblue" points="425.15,-27.96 431.72,-19.64 421.4,-22.04 425.15,-27.96"/>
</g>
</g>
</svg>
