<?xml version="1.0" encoding="UTF-8" standalone="no"?>
<!DOCTYPE svg PUBLIC "-//W3C//DTD SVG 1.1//EN"
 "http://www.w3.org/Graphics/SVG/1.1/DTD/svg11.dtd">
<!-- Generated by graphviz version 2.43.0 (0)
 -->
<!-- Title: XCS::pred_expand Pages: 1 -->
<svg width="609pt" height="142pt"
 viewBox="0.00 0.00 609.00 142.00" xmlns="http://www.w3.org/2000/svg" xmlns:xlink="http://www.w3.org/1999/xlink">
<g id="graph0" class="graph" transform="scale(1 1) rotate(0) translate(4 138)">
<title>XCS::pred_expand</title>
<!-- Node1 -->
<g id="node1" class="node">
<title>Node1</title>
<g id="a_node1"><a xlink:title="Inserts a new hidden layer before the output layer within all prediction neural networks in the popul...">
<polygon fill="#bfbfbf" stroke="black" points="0,-57.5 0,-76.5 99,-76.5 99,-57.5 0,-57.5"/>
<text text-anchor="middle" x="49.5" y="-64.5" font-family="Helvetica,sans-Serif" font-size="10.00">XCS::pred_expand</text>
</a>
</g>
</g>
<!-- Node2 -->
<g id="node2" class="node">
<title>Node2</title>
<g id="a_node2"><a xlink:href="xcsf_8c.html#a6bb93a888da68d6397ce63fb58428237" target="_top" xlink:title="Inserts a new hidden layer before the output layer within all prediction neural networks in the popul...">
<polygon fill="none" stroke="black" points="135,-57.5 135,-76.5 231,-76.5 231,-57.5 135,-57.5"/>
<text text-anchor="middle" x="183" y="-64.5" font-family="Helvetica,sans-Serif" font-size="10.00">xcsf_pred_expand</text>
</a>
</g>
</g>
<!-- Node1&#45;&gt;Node2 -->
<g id="edge1" class="edge">
<title>Node1&#45;&gt;Node2</title>
<path fill="none" stroke="midnightblue" d="M99.09,-67C107.41,-67 116.13,-67 124.66,-67"/>
<polygon fill="midnightblue" stroke="midnightblue" points="124.92,-70.5 134.92,-67 124.92,-63.5 124.92,-70.5"/>
</g>
<!-- Node3 -->
<g id="node3" class="node">
<title>Node3</title>
<g id="a_node3"><a xlink:href="pred__neural_8c.html#ab573aaed6ff7623e99afe1d1f6e00919" target="_top" xlink:title="Creates and inserts a hidden layer before the prediction output layer.">
<polygon fill="none" stroke="black" points="267,-57.5 267,-76.5 371,-76.5 371,-57.5 267,-57.5"/>
<text text-anchor="middle" x="319" y="-64.5" font-family="Helvetica,sans-Serif" font-size="10.00">pred_neural_expand</text>
</a>
</g>
</g>
<!-- Node2&#45;&gt;Node3 -->
<g id="edge2" class="edge">
<title>Node2&#45;&gt;Node3</title>
<path fill="none" stroke="midnightblue" d="M231.24,-67C239.39,-67 247.96,-67 256.41,-67"/>
<polygon fill="midnightblue" stroke="midnightblue" points="256.63,-70.5 266.63,-67 256.63,-63.5 256.63,-70.5"/>
</g>
<!-- Node4 -->
<g id="node4" class="node">
<title>Node4</title>
<g id="a_node4"><a xlink:href="neural__layer__args_8c.html#a3b06e82bed7fc9a8915d6187ce08d33e" target="_top" xlink:title="Sets layer parameters to default values.">
<polygon fill="none" stroke="black" points="407,-114.5 407,-133.5 487,-133.5 487,-114.5 407,-114.5"/>
<text text-anchor="middle" x="447" y="-121.5" font-family="Helvetica,sans-Serif" font-size="10.00">layer_args_init</text>
</a>
</g>
</g>
<!-- Node3&#45;&gt;Node4 -->
<g id="edge3" class="edge">
<title>Node3&#45;&gt;Node4</title>
<path fill="none" stroke="midnightblue" d="M341.09,-76.54C361.44,-85.75 392.47,-99.78 415.51,-110.21"/>
<polygon fill="midnightblue" stroke="midnightblue" points="414.29,-113.5 424.84,-114.43 417.17,-107.12 414.29,-113.5"/>
</g>
<!-- Node5 -->
<g id="node5" class="node">
<title>Node5</title>
<g id="a_node5"><a xlink:href="neural__layer_8h.html#a33f40237cec8d79bf6325b78d1f955fe" target="_top" xlink:title="Creates and initialises a new layer.">
<polygon fill="none" stroke="black" points="419,-76.5 419,-95.5 475,-95.5 475,-76.5 419,-76.5"/>
<text text-anchor="middle" x="447" y="-83.5" font-family="Helvetica,sans-Serif" font-size="10.00">layer_init</text>
</a>
</g>
</g>
<!-- Node3&#45;&gt;Node5 -->
<g id="edge4" class="edge">
<title>Node3&#45;&gt;Node5</title>
<path fill="none" stroke="midnightblue" d="M371.25,-74.73C383.9,-76.64 397.2,-78.64 409.02,-80.42"/>
<polygon fill="midnightblue" stroke="midnightblue" points="408.56,-83.89 418.97,-81.92 409.6,-76.97 408.56,-83.89"/>
</g>
<!-- Node8 -->
<g id="node8" class="node">
<title>Node8</title>
<g id="a_node8"><a xlink:href="neural_8c.html#afab574137fbf9da9a286d020917c8295" target="_top" xlink:title="Inserts a layer into a neural network.">
<polygon fill="none" stroke="black" points="411,-38.5 411,-57.5 483,-57.5 483,-38.5 411,-38.5"/>
<text text-anchor="middle" x="447" y="-45.5" font-family="Helvetica,sans-Serif" font-size="10.00">neural_insert</text>
</a>
</g>
</g>
<!-- Node3&#45;&gt;Node8 -->
<g id="edge7" class="edge">
<title>Node3&#45;&gt;Node8</title>
<path fill="none" stroke="midnightblue" d="M371.25,-59.27C381.06,-57.79 391.26,-56.25 400.85,-54.81"/>
<polygon fill="midnightblue" stroke="midnightblue" points="401.62,-58.23 410.99,-53.28 400.58,-51.31 401.62,-58.23"/>
</g>
<!-- Node9 -->
<g id="node9" class="node">
<title>Node9</title>
<g id="a_node9"><a xlink:href="neural_8c.html#a76c99d66af7b4eb556b71a86f099b7a0" target="_top" xlink:title="Resizes neural network layers as necessary.">
<polygon fill="none" stroke="black" points="410,-0.5 410,-19.5 484,-19.5 484,-0.5 410,-0.5"/>
<text text-anchor="middle" x="447" y="-7.5" font-family="Helvetica,sans-Serif" font-size="10.00">neural_resize</text>
</a>
</g>
</g>
<!-- Node3&#45;&gt;Node9 -->
<g id="edge8" class="edge">
<title>Node3&#45;&gt;Node9</title>
<path fill="none" stroke="midnightblue" d="M341.09,-57.46C361.44,-48.25 392.47,-34.22 415.51,-23.79"/>
<polygon fill="midnightblue" stroke="midnightblue" points="417.17,-26.88 424.84,-19.57 414.29,-20.5 417.17,-26.88"/>
</g>
<!-- Node6 -->
<g id="node6" class="node">
<title>Node6</title>
<g id="a_node6"><a xlink:href="neural__layer_8h.html#a21a8acbaa483c46984c4f5f20d4edf95" target="_top" xlink:title="Initialises a layer to default values.">
<polygon fill="none" stroke="black" points="523.5,-95.5 523.5,-114.5 600.5,-114.5 600.5,-95.5 523.5,-95.5"/>
<text text-anchor="middle" x="562" y="-102.5" font-family="Helvetica,sans-Serif" font-size="10.00">layer_defaults</text>
</a>
</g>
</g>
<!-- Node5&#45;&gt;Node6 -->
<g id="edge5" class="edge">
<title>Node5&#45;&gt;Node6</title>
<path fill="none" stroke="midnightblue" d="M475.07,-90.55C486.62,-92.49 500.44,-94.82 513.6,-97.03"/>
<polygon fill="midnightblue" stroke="midnightblue" points="513.03,-100.48 523.47,-98.69 514.19,-93.58 513.03,-100.48"/>
</g>
<!-- Node7 -->
<g id="node7" class="node">
<title>Node7</title>
<g id="a_node7"><a xlink:href="neural__layer_8h.html#a786726dce503a14b3bdd88b1ab5c356f" target="_top" xlink:title="Sets a neural network layer&#39;s functions to the implementations.">
<polygon fill="none" stroke="black" points="523,-57.5 523,-76.5 601,-76.5 601,-57.5 523,-57.5"/>
<text text-anchor="middle" x="562" y="-64.5" font-family="Helvetica,sans-Serif" font-size="10.00">layer_set_vptr</text>
</a>
</g>
</g>
<!-- Node5&#45;&gt;Node7 -->
<g id="edge6" class="edge">
<title>Node5&#45;&gt;Node7</title>
<path fill="none" stroke="midnightblue" d="M475.07,-81.45C486.3,-79.56 499.68,-77.31 512.5,-75.15"/>
<polygon fill="midnightblue" stroke="midnightblue" points="513.34,-78.56 522.62,-73.45 512.17,-71.66 513.34,-78.56"/>
</g>
<!-- Node10 -->
<g id="node10" class="node">
<title>Node10</title>
<g id="a_node10"><a xlink:href="neural__layer_8h.html#a28fed9ac2d12fe1bad08b4540f3f0455" target="_top" xlink:title="Resizes a layer using the previous layer&#39;s inputs.">
<polygon fill="none" stroke="black" points="527.5,-0.5 527.5,-19.5 596.5,-19.5 596.5,-0.5 527.5,-0.5"/>
<text text-anchor="middle" x="562" y="-7.5" font-family="Helvetica,sans-Serif" font-size="10.00">layer_resize</text>
</a>
</g>
</g>
<!-- Node9&#45;&gt;Node10 -->
<g id="edge9" class="edge">
<title>Node9&#45;&gt;Node10</title>
<path fill="none" stroke="midnightblue" d="M484.06,-10C494.54,-10 506.1,-10 517,-10"/>
<polygon fill="midnightblue" stroke="midnightblue" points="517.2,-13.5 527.2,-10 517.2,-6.5 517.2,-13.5"/>
</g>
</g>
</svg>
