<?xml version="1.0" encoding="UTF-8" standalone="no"?>
<!DOCTYPE svg PUBLIC "-//W3C//DTD SVG 1.1//EN"
 "http://www.w3.org/Graphics/SVG/1.1/DTD/svg11.dtd">
<!-- Generated by graphviz version 2.43.0 (0)
 -->
<!-- Title: XCS::get_pop_mean_cond_connections Pages: 1 -->
<svg width="492pt" height="39pt"
 viewBox="0.00 0.00 492.00 39.00" xmlns="http://www.w3.org/2000/svg" xmlns:xlink="http://www.w3.org/1999/xlink">
<g id="graph0" class="graph" transform="scale(1 1) rotate(0) translate(4 35)">
<title>XCS::get_pop_mean_cond_connections</title>
<!-- Node1 -->
<g id="node1" class="node">
<title>Node1</title>
<g id="a_node1"><a xlink:title=" ">
<polygon fill="#bfbfbf" stroke="black" points="0,-0.5 0,-30.5 134,-30.5 134,-0.5 0,-0.5"/>
<text text-anchor="start" x="8" y="-18.5" font-family="Helvetica,sans-Serif" font-size="10.00">XCS::get_pop_mean_cond</text>
<text text-anchor="middle" x="67" y="-7.5" font-family="Helvetica,sans-Serif" font-size="10.00">_connections</text>
</a>
</g>
</g>
<!-- Node2 -->
<g id="node2" class="node">
<title>Node2</title>
<g id="a_node2"><a xlink:href="clset__neural_8c.html#ad58ba06ef88f57f79511ee961acd4c70" target="_top" xlink:title="Calculates the mean number of condition connections in the set.">
<polygon fill="none" stroke="black" points="170,-6 170,-25 321,-25 321,-6 170,-6"/>
<text text-anchor="middle" x="245.5" y="-13" font-family="Helvetica,sans-Serif" font-size="10.00">clset_mean_cond_connections</text>
</a>
</g>
</g>
<!-- Node1&#45;&gt;Node2 -->
<g id="edge1" class="edge">
<title>Node1&#45;&gt;Node2</title>
<path fill="none" stroke="midnightblue" d="M134.22,-15.5C142.59,-15.5 151.24,-15.5 159.84,-15.5"/>
<polygon fill="midnightblue" stroke="midnightblue" points="159.9,-19 169.9,-15.5 159.9,-12 159.9,-19"/>
</g>
<!-- Node3 -->
<g id="node3" class="node">
<title>Node3</title>
<g id="a_node3"><a xlink:href="cond__neural_8c.html#aab00ba488c429f2ce3081d1176aeedfd" target="_top" xlink:title=" ">
<polygon fill="none" stroke="black" points="357,-6 357,-25 484,-25 484,-6 357,-6"/>
<text text-anchor="middle" x="420.5" y="-13" font-family="Helvetica,sans-Serif" font-size="10.00">cond_neural_connections</text>
</a>
</g>
</g>
<!-- Node2&#45;&gt;Node3 -->
<g id="edge2" class="edge">
<title>Node2&#45;&gt;Node3</title>
<path fill="none" stroke="midnightblue" d="M321.12,-15.5C329.57,-15.5 338.18,-15.5 346.61,-15.5"/>
<polygon fill="midnightblue" stroke="midnightblue" points="346.78,-19 356.78,-15.5 346.78,-12 346.78,-19"/>
</g>
</g>
</svg>
