<?xml version="1.0" encoding="UTF-8" standalone="no"?>
<!DOCTYPE svg PUBLIC "-//W3C//DTD SVG 1.1//EN"
 "http://www.w3.org/Graphics/SVG/1.1/DTD/svg11.dtd">
<!-- Generated by graphviz version 2.43.0 (0)
 -->
<!-- Title: XCS::set_pred_type Pages: 1 -->
<svg width="409pt" height="39pt"
 viewBox="0.00 0.00 409.00 39.00" xmlns="http://www.w3.org/2000/svg" xmlns:xlink="http://www.w3.org/1999/xlink">
<g id="graph0" class="graph" transform="scale(1 1) rotate(0) translate(4 35)">
<title>XCS::set_pred_type</title>
<!-- Node1 -->
<g id="node1" class="node">
<title>Node1</title>
<g id="a_node1"><a xlink:title=" ">
<polygon fill="#bfbfbf" stroke="black" points="0,-6 0,-25 105,-25 105,-6 0,-6"/>
<text text-anchor="middle" x="52.5" y="-13" font-family="Helvetica,sans-Serif" font-size="10.00">XCS::set_pred_type</text>
</a>
</g>
</g>
<!-- Node2 -->
<g id="node2" class="node">
<title>Node2</title>
<g id="a_node2"><a xlink:href="$param_8h.html#a1e4861858ad0e09958376af0bef6da1c" xlink:title=" ">
<polygon fill="none" stroke="black" points="141,-0.5 141,-30.5 251,-30.5 251,-0.5 141,-0.5"/>
<text text-anchor="start" x="149" y="-18.5" font-family="Helvetica,sans-Serif" font-size="10.00">param_set_pred_type</text>
<text text-anchor="middle" x="196" y="-7.5" font-family="Helvetica,sans-Serif" font-size="10.00">_string</text>
</a>
</g>
</g>
<!-- Node1&#45;&gt;Node2 -->
<g id="edge1" class="edge">
<title>Node1&#45;&gt;Node2</title>
<path fill="none" stroke="midnightblue" d="M105.39,-15.5C113.57,-15.5 122.12,-15.5 130.55,-15.5"/>
<polygon fill="midnightblue" stroke="midnightblue" points="130.74,-19 140.74,-15.5 130.74,-12 130.74,-19"/>
</g>
<!-- Node3 -->
<g id="node3" class="node">
<title>Node3</title>
<g id="a_node3"><a xlink:href="$prediction_8c.html#a5f5a019c886d5bdf8bf9a3876a5a95bd" xlink:title="Returns the integer representation of a prediction type given a name.">
<polygon fill="none" stroke="black" points="287,-6 287,-25 401,-25 401,-6 287,-6"/>
<text text-anchor="middle" x="344" y="-13" font-family="Helvetica,sans-Serif" font-size="10.00">prediction_type_as_int</text>
</a>
</g>
</g>
<!-- Node2&#45;&gt;Node3 -->
<g id="edge2" class="edge">
<title>Node2&#45;&gt;Node3</title>
<path fill="none" stroke="midnightblue" d="M251.37,-15.5C259.55,-15.5 268.07,-15.5 276.47,-15.5"/>
<polygon fill="midnightblue" stroke="midnightblue" points="276.64,-19 286.64,-15.5 276.64,-12 276.64,-19"/>
</g>
</g>
</svg>
