<?xml version="1.0" encoding="UTF-8" standalone="no"?>
<!DOCTYPE svg PUBLIC "-//W3C//DTD SVG 1.1//EN"
 "http://www.w3.org/Graphics/SVG/1.1/DTD/svg11.dtd">
<!-- Generated by graphviz version 2.43.0 (0)
 -->
<!-- Title: EarlyStoppingCallback::retrieve Pages: 1 -->
<svg width="526pt" height="123pt"
 viewBox="0.00 0.00 526.00 123.00" xmlns="http://www.w3.org/2000/svg" xmlns:xlink="http://www.w3.org/1999/xlink">
<g id="graph0" class="graph" transform="scale(1 1) rotate(0) translate(4 119)">
<title>EarlyStoppingCallback::retrieve</title>
<!-- Node1 -->
<g id="node1" class="node">
<title>Node1</title>
<g id="a_node1"><a xlink:title="Retrieves best XCSF population in memory.">
<polygon fill="#bfbfbf" stroke="black" points="0,-71 0,-101 116,-101 116,-71 0,-71"/>
<text text-anchor="start" x="8" y="-89" font-family="Helvetica,sans-Serif" font-size="10.00">EarlyStoppingCallback</text>
<text text-anchor="middle" x="58" y="-78" font-family="Helvetica,sans-Serif" font-size="10.00">::retrieve</text>
</a>
</g>
</g>
<!-- Node2 -->
<g id="node2" class="node">
<title>Node2</title>
<g id="a_node2"><a xlink:href="pybind__utils_8h.html#a3f3b864aa1926634aeab0d037cefc11d" target="_top" xlink:title="Returns a formatted string for displaying time.">
<polygon fill="none" stroke="black" points="160,-95.5 160,-114.5 241,-114.5 241,-95.5 160,-95.5"/>
<text text-anchor="middle" x="200.5" y="-102.5" font-family="Helvetica,sans-Serif" font-size="10.00">get_timestamp</text>
</a>
</g>
</g>
<!-- Node1&#45;&gt;Node2 -->
<g id="edge1" class="edge">
<title>Node1&#45;&gt;Node2</title>
<path fill="none" stroke="midnightblue" d="M116.15,-93.73C127.2,-95.22 138.7,-96.78 149.51,-98.24"/>
<polygon fill="midnightblue" stroke="midnightblue" points="149.24,-101.73 159.61,-99.61 150.17,-94.8 149.24,-101.73"/>
</g>
<!-- Node3 -->
<g id="node3" class="node">
<title>Node3</title>
<g id="a_node3"><a xlink:href="xcsf_8c.html#a58a321a976cf6a9bb01979d94703fa27" target="_top" xlink:title="Retrieves the previously stored population.">
<polygon fill="none" stroke="black" points="152,-57.5 152,-76.5 249,-76.5 249,-57.5 152,-57.5"/>
<text text-anchor="middle" x="200.5" y="-64.5" font-family="Helvetica,sans-Serif" font-size="10.00">xcsf_retrieve_pset</text>
</a>
</g>
</g>
<!-- Node1&#45;&gt;Node3 -->
<g id="edge2" class="edge">
<title>Node1&#45;&gt;Node3</title>
<path fill="none" stroke="midnightblue" d="M116.15,-78.27C124.57,-77.13 133.26,-75.96 141.7,-74.82"/>
<polygon fill="midnightblue" stroke="midnightblue" points="142.39,-78.25 151.84,-73.45 141.46,-71.32 142.39,-78.25"/>
</g>
<!-- Node4 -->
<g id="node4" class="node">
<title>Node4</title>
<g id="a_node4"><a xlink:href="clset_8c.html#a9af546abf9de1bc840d605e949d3ef47" target="_top" xlink:title="Initialises a new set.">
<polygon fill="none" stroke="black" points="285,-76.5 285,-95.5 341,-95.5 341,-76.5 285,-76.5"/>
<text text-anchor="middle" x="313" y="-83.5" font-family="Helvetica,sans-Serif" font-size="10.00">clset_init</text>
</a>
</g>
</g>
<!-- Node3&#45;&gt;Node4 -->
<g id="edge3" class="edge">
<title>Node3&#45;&gt;Node4</title>
<path fill="none" stroke="midnightblue" d="M249,-75.17C257.64,-76.65 266.54,-78.18 274.82,-79.61"/>
<polygon fill="midnightblue" stroke="midnightblue" points="274.48,-83.1 284.92,-81.34 275.66,-76.2 274.48,-83.1"/>
</g>
<!-- Node5 -->
<g id="node5" class="node">
<title>Node5</title>
<g id="a_node5"><a xlink:href="clset_8c.html#a236baf24659360891f944761f88a30f4" target="_top" xlink:title="Frees the set and the classifiers.">
<polygon fill="none" stroke="black" points="285.5,-38.5 285.5,-57.5 340.5,-57.5 340.5,-38.5 285.5,-38.5"/>
<text text-anchor="middle" x="313" y="-45.5" font-family="Helvetica,sans-Serif" font-size="10.00">clset_kill</text>
</a>
</g>
</g>
<!-- Node3&#45;&gt;Node5 -->
<g id="edge4" class="edge">
<title>Node3&#45;&gt;Node5</title>
<path fill="none" stroke="midnightblue" d="M249,-58.83C257.82,-57.32 266.9,-55.75 275.34,-54.3"/>
<polygon fill="midnightblue" stroke="midnightblue" points="275.97,-57.75 285.23,-52.6 274.78,-50.85 275.97,-57.75"/>
</g>
<!-- Node6 -->
<g id="node6" class="node">
<title>Node6</title>
<g id="a_node6"><a xlink:href="cl_8c.html#ac45092c0e43651e8eeaa739766e3f069" target="_top" xlink:title="Frees the memory used by a classifier.">
<polygon fill="none" stroke="black" points="377,-38.5 377,-57.5 423,-57.5 423,-38.5 377,-38.5"/>
<text text-anchor="middle" x="400" y="-45.5" font-family="Helvetica,sans-Serif" font-size="10.00">cl_free</text>
</a>
</g>
</g>
<!-- Node5&#45;&gt;Node6 -->
<g id="edge5" class="edge">
<title>Node5&#45;&gt;Node6</title>
<path fill="none" stroke="midnightblue" d="M340.89,-48C349.12,-48 358.26,-48 366.81,-48"/>
<polygon fill="midnightblue" stroke="midnightblue" points="366.83,-51.5 376.83,-48 366.83,-44.5 366.83,-51.5"/>
</g>
<!-- Node7 -->
<g id="node7" class="node">
<title>Node7</title>
<g id="a_node7"><a xlink:href="action_8h.html#a81912970283c86f80c5b7a38f1865ebd" target="_top" xlink:title="Frees the memory used by the classifier action.">
<polygon fill="none" stroke="black" points="462.5,-76.5 462.5,-95.5 514.5,-95.5 514.5,-76.5 462.5,-76.5"/>
<text text-anchor="middle" x="488.5" y="-83.5" font-family="Helvetica,sans-Serif" font-size="10.00">act_free</text>
</a>
</g>
</g>
<!-- Node6&#45;&gt;Node7 -->
<g id="edge6" class="edge">
<title>Node6&#45;&gt;Node7</title>
<path fill="none" stroke="midnightblue" d="M422.83,-57.59C432.97,-62.04 445.21,-67.42 456.31,-72.3"/>
<polygon fill="midnightblue" stroke="midnightblue" points="455.12,-75.6 465.68,-76.41 457.93,-69.19 455.12,-75.6"/>
</g>
<!-- Node8 -->
<g id="node8" class="node">
<title>Node8</title>
<g id="a_node8"><a xlink:href="condition_8h.html#a2f342b5e29e020e139112cf99887b4c5" target="_top" xlink:title="Frees the memory used by the classifier condition.">
<polygon fill="none" stroke="black" points="459,-38.5 459,-57.5 518,-57.5 518,-38.5 459,-38.5"/>
<text text-anchor="middle" x="488.5" y="-45.5" font-family="Helvetica,sans-Serif" font-size="10.00">cond_free</text>
</a>
</g>
</g>
<!-- Node6&#45;&gt;Node8 -->
<g id="edge7" class="edge">
<title>Node6&#45;&gt;Node8</title>
<path fill="none" stroke="midnightblue" d="M423.28,-48C431.05,-48 440.01,-48 448.73,-48"/>
<polygon fill="midnightblue" stroke="midnightblue" points="448.76,-51.5 458.76,-48 448.76,-44.5 448.76,-51.5"/>
</g>
<!-- Node9 -->
<g id="node9" class="node">
<title>Node9</title>
<g id="a_node9"><a xlink:href="prediction_8h.html#af19eafd52548ede9b90594c8b8949098" target="_top" xlink:title="Frees the memory used by the classifier prediction.">
<polygon fill="none" stroke="black" points="460,-0.5 460,-19.5 517,-19.5 517,-0.5 460,-0.5"/>
<text text-anchor="middle" x="488.5" y="-7.5" font-family="Helvetica,sans-Serif" font-size="10.00">pred_free</text>
</a>
</g>
</g>
<!-- Node6&#45;&gt;Node9 -->
<g id="edge8" class="edge">
<title>Node6&#45;&gt;Node9</title>
<path fill="none" stroke="midnightblue" d="M422.83,-38.41C432.97,-33.96 445.21,-28.58 456.31,-23.7"/>
<polygon fill="midnightblue" stroke="midnightblue" points="457.93,-26.81 465.68,-19.59 455.12,-20.4 457.93,-26.81"/>
</g>
</g>
</svg>
