<?xml version="1.0" encoding="UTF-8" standalone="no"?>
<!DOCTYPE svg PUBLIC "-//W3C//DTD SVG 1.1//EN"
 "http://www.w3.org/Graphics/SVG/1.1/DTD/svg11.dtd">
<!-- Generated by graphviz version 2.43.0 (0)
 -->
<!-- Title: CheckpointCallback::finish Pages: 1 -->
<svg width="886pt" height="212pt"
 viewBox="0.00 0.00 886.00 212.00" xmlns="http://www.w3.org/2000/svg" xmlns:xlink="http://www.w3.org/1999/xlink">
<g id="graph0" class="graph" transform="scale(1 1) rotate(0) translate(4 208)">
<title>CheckpointCallback::finish</title>
<!-- Node1 -->
<g id="Node000001" class="node">
<title>Node1</title>
<g id="a_Node000001"><a xlink:title="Executes any tasks at the end of fitting.">
<polygon fill="#999999" stroke="#666666" points="104,-134.5 0,-134.5 0,-104.5 104,-104.5 104,-134.5"/>
<text text-anchor="start" x="8" y="-122.5" font-family="Helvetica,sans-Serif" font-size="10.00">CheckpointCallback</text>
<text text-anchor="middle" x="52" y="-111.5" font-family="Helvetica,sans-Serif" font-size="10.00">::finish</text>
</a>
</g>
</g>
<!-- Node2 -->
<g id="Node000002" class="node">
<title>Node2</title>
<g id="a_Node000002"><a xlink:href="classCheckpointCallback.html#ab08fbc7f61e2e51cdecf3cc9bab3bdca" target="_top" xlink:title="Saves the state of XCSF.">
<polygon fill="white" stroke="#666666" points="244,-134.5 140,-134.5 140,-104.5 244,-104.5 244,-134.5"/>
<text text-anchor="start" x="148" y="-122.5" font-family="Helvetica,sans-Serif" font-size="10.00">CheckpointCallback</text>
<text text-anchor="middle" x="192" y="-111.5" font-family="Helvetica,sans-Serif" font-size="10.00">::save</text>
</a>
</g>
</g>
<!-- Node1&#45;&gt;Node2 -->
<g id="edge1_Node000001_Node000002" class="edge">
<title>Node1&#45;&gt;Node2</title>
<g id="a_edge1_Node000001_Node000002"><a xlink:title=" ">
<path fill="none" stroke="#63b8ff" d="M104.39,-119.5C112.56,-119.5 121.08,-119.5 129.46,-119.5"/>
<polygon fill="#63b8ff" stroke="#63b8ff" points="129.57,-123 139.57,-119.5 129.57,-116 129.57,-123"/>
</a>
</g>
</g>
<!-- Node3 -->
<g id="Node000003" class="node">
<title>Node3</title>
<g id="a_Node000003"><a xlink:href="pybind__utils_8h.html#a3f3b864aa1926634aeab0d037cefc11d" target="_top" xlink:title="Returns a formatted string for displaying time.">
<polygon fill="white" stroke="#666666" points="361,-148 280,-148 280,-129 361,-129 361,-148"/>
<text text-anchor="middle" x="320.5" y="-136" font-family="Helvetica,sans-Serif" font-size="10.00">get_timestamp</text>
</a>
</g>
</g>
<!-- Node2&#45;&gt;Node3 -->
<g id="edge2_Node000002_Node000003" class="edge">
<title>Node2&#45;&gt;Node3</title>
<g id="a_edge2_Node000002_Node000003"><a xlink:title=" ">
<path fill="none" stroke="#63b8ff" d="M244.09,-127.17C252.57,-128.45 261.36,-129.77 269.8,-131.04"/>
<polygon fill="#63b8ff" stroke="#63b8ff" points="269.49,-134.53 279.9,-132.55 270.53,-127.61 269.49,-134.53"/>
</a>
</g>
</g>
<!-- Node4 -->
<g id="Node000004" class="node">
<title>Node4</title>
<g id="a_Node000004"><a xlink:href="xcsf_8c.html#a2dd24ee181640aa90ec5d109aa717966" target="_top" xlink:title="Writes the current state of XCSF to a file.">
<polygon fill="white" stroke="#666666" points="351.5,-111 289.5,-111 289.5,-92 351.5,-92 351.5,-111"/>
<text text-anchor="middle" x="320.5" y="-99" font-family="Helvetica,sans-Serif" font-size="10.00">xcsf_save</text>
</a>
</g>
</g>
<!-- Node2&#45;&gt;Node4 -->
<g id="edge3_Node000002_Node000004" class="edge">
<title>Node2&#45;&gt;Node4</title>
<g id="a_edge3_Node000002_Node000004"><a xlink:title=" ">
<path fill="none" stroke="#63b8ff" d="M244.09,-112.23C255.85,-110.56 268.19,-108.8 279.41,-107.21"/>
<polygon fill="#63b8ff" stroke="#63b8ff" points="279.93,-110.67 289.34,-105.79 278.95,-103.74 279.93,-110.67"/>
</a>
</g>
</g>
<!-- Node5 -->
<g id="Node000005" class="node">
<title>Node5</title>
<g id="a_Node000005"><a xlink:href="clset_8c.html#a980a17ddb59b83bfe0ef3068e03fca23" target="_top" xlink:title="Writes the population set to a file.">
<polygon fill="white" stroke="#666666" points="485,-148 397,-148 397,-129 485,-129 485,-148"/>
<text text-anchor="middle" x="441" y="-136" font-family="Helvetica,sans-Serif" font-size="10.00">clset_pset_save</text>
</a>
</g>
</g>
<!-- Node4&#45;&gt;Node5 -->
<g id="edge4_Node000004_Node000005" class="edge">
<title>Node4&#45;&gt;Node5</title>
<g id="a_edge4_Node000004_Node000005"><a xlink:title=" ">
<path fill="none" stroke="#63b8ff" d="M351.71,-110.93C366.22,-115.46 383.82,-120.96 399.48,-125.85"/>
<polygon fill="#63b8ff" stroke="#63b8ff" points="398.85,-129.32 409.43,-128.96 400.93,-122.63 398.85,-129.32"/>
</a>
</g>
</g>
<!-- Node10 -->
<g id="Node000010" class="node">
<title>Node10</title>
<g id="a_Node000010"><a xlink:href="param_8c.html#aeee8da56faaeace4ed44adc45a42d359" target="_top" xlink:title="Writes the XCSF data structure to a file.">
<polygon fill="white" stroke="#666666" points="476,-93 406,-93 406,-74 476,-74 476,-93"/>
<text text-anchor="middle" x="441" y="-81" font-family="Helvetica,sans-Serif" font-size="10.00">param_save</text>
</a>
</g>
</g>
<!-- Node4&#45;&gt;Node10 -->
<g id="edge9_Node000004_Node000010" class="edge">
<title>Node4&#45;&gt;Node10</title>
<g id="a_edge9_Node000004_Node000010"><a xlink:title=" ">
<path fill="none" stroke="#63b8ff" d="M351.71,-96.91C365.08,-94.88 381.07,-92.45 395.75,-90.22"/>
<polygon fill="#63b8ff" stroke="#63b8ff" points="396.29,-93.68 405.66,-88.72 395.24,-86.76 396.29,-93.68"/>
</a>
</g>
</g>
<!-- Node6 -->
<g id="Node000006" class="node">
<title>Node6</title>
<g id="a_Node000006"><a xlink:href="cl_8c.html#a9d9005cabc5bb84749bc6fb29c4b9fd9" target="_top" xlink:title="Writes a classifier to a file.">
<polygon fill="white" stroke="#666666" points="596.5,-167 546.5,-167 546.5,-148 596.5,-148 596.5,-167"/>
<text text-anchor="middle" x="571.5" y="-155" font-family="Helvetica,sans-Serif" font-size="10.00">cl_save</text>
</a>
</g>
</g>
<!-- Node5&#45;&gt;Node6 -->
<g id="edge5_Node000005_Node000006" class="edge">
<title>Node5&#45;&gt;Node6</title>
<g id="a_edge5_Node000005_Node000006"><a xlink:title=" ">
<path fill="none" stroke="#63b8ff" d="M485.15,-144.88C501.73,-147.33 520.43,-150.1 536.09,-152.41"/>
<polygon fill="#63b8ff" stroke="#63b8ff" points="535.98,-155.93 546.38,-153.93 537,-149.01 535.98,-155.93"/>
</a>
</g>
</g>
<!-- Node7 -->
<g id="Node000007" class="node">
<title>Node7</title>
<g id="a_Node000007"><a xlink:href="action_8h.html#a60392c9bd1cbef6582260ce68267ce87" target="_top" xlink:title="Writes the action to a file.">
<polygon fill="white" stroke="#666666" points="731.5,-204 675.5,-204 675.5,-185 731.5,-185 731.5,-204"/>
<text text-anchor="middle" x="703.5" y="-192" font-family="Helvetica,sans-Serif" font-size="10.00">act_save</text>
</a>
</g>
</g>
<!-- Node6&#45;&gt;Node7 -->
<g id="edge6_Node000006_Node000007" class="edge">
<title>Node6&#45;&gt;Node7</title>
<g id="a_edge6_Node000006_Node000007"><a xlink:title=" ">
<path fill="none" stroke="#63b8ff" d="M596.65,-164.37C616,-169.88 643.49,-177.71 665.6,-184"/>
<polygon fill="#63b8ff" stroke="#63b8ff" points="664.76,-187.4 675.34,-186.77 666.68,-180.67 664.76,-187.4"/>
</a>
</g>
</g>
<!-- Node8 -->
<g id="Node000008" class="node">
<title>Node8</title>
<g id="a_Node000008"><a xlink:href="condition_8h.html#a724ee05518d297e814f73a5192e582fc" target="_top" xlink:title="Writes the condition to a file.">
<polygon fill="white" stroke="#666666" points="735.5,-167 671.5,-167 671.5,-148 735.5,-148 735.5,-167"/>
<text text-anchor="middle" x="703.5" y="-155" font-family="Helvetica,sans-Serif" font-size="10.00">cond_save</text>
</a>
</g>
</g>
<!-- Node6&#45;&gt;Node8 -->
<g id="edge7_Node000006_Node000008" class="edge">
<title>Node6&#45;&gt;Node8</title>
<g id="a_edge7_Node000006_Node000008"><a xlink:title=" ">
<path fill="none" stroke="#63b8ff" d="M596.65,-157.5C614.69,-157.5 639.81,-157.5 661.04,-157.5"/>
<polygon fill="#63b8ff" stroke="#63b8ff" points="661.11,-161 671.11,-157.5 661.11,-154 661.11,-161"/>
</a>
</g>
</g>
<!-- Node9 -->
<g id="Node000009" class="node">
<title>Node9</title>
<g id="a_Node000009"><a xlink:href="prediction_8h.html#a6b770c6e0195594d8ebc5dd1b57d0f39" target="_top" xlink:title="Writes the prediction to a file.">
<polygon fill="white" stroke="#666666" points="734.5,-130 672.5,-130 672.5,-111 734.5,-111 734.5,-130"/>
<text text-anchor="middle" x="703.5" y="-118" font-family="Helvetica,sans-Serif" font-size="10.00">pred_save</text>
</a>
</g>
</g>
<!-- Node6&#45;&gt;Node9 -->
<g id="edge8_Node000006_Node000009" class="edge">
<title>Node6&#45;&gt;Node9</title>
<g id="a_edge8_Node000006_Node000009"><a xlink:title=" ">
<path fill="none" stroke="#63b8ff" d="M596.65,-150.63C615.03,-145.4 640.74,-138.08 662.22,-131.96"/>
<polygon fill="#63b8ff" stroke="#63b8ff" points="663.41,-135.27 672.07,-129.16 661.49,-128.53 663.41,-135.27"/>
</a>
</g>
</g>
<!-- Node11 -->
<g id="Node000011" class="node">
<title>Node11</title>
<g id="a_Node000011"><a xlink:href="action_8c.html#a95fbb463d8e044d1dadc5fdb1b6b1e05" target="_top" xlink:title="Saves action parameters.">
<polygon fill="white" stroke="#666666" points="622,-93 521,-93 521,-74 622,-74 622,-93"/>
<text text-anchor="middle" x="571.5" y="-81" font-family="Helvetica,sans-Serif" font-size="10.00">action_param_save</text>
</a>
</g>
</g>
<!-- Node10&#45;&gt;Node11 -->
<g id="edge10_Node000010_Node000011" class="edge">
<title>Node10&#45;&gt;Node11</title>
<g id="a_edge10_Node000010_Node000011"><a xlink:title=" ">
<path fill="none" stroke="#63b8ff" d="M476.1,-83.5C486.68,-83.5 498.67,-83.5 510.47,-83.5"/>
<polygon fill="#63b8ff" stroke="#63b8ff" points="510.76,-87 520.76,-83.5 510.76,-80 510.76,-87"/>
</a>
</g>
</g>
<!-- Node14 -->
<g id="Node000014" class="node">
<title>Node14</title>
<g id="a_Node000014"><a xlink:href="condition_8c.html#a8f670b7aa04f9e43ec146e1a7b3917a5" target="_top" xlink:title="Saves condition parameters.">
<polygon fill="white" stroke="#666666" points="619.5,-56 523.5,-56 523.5,-37 619.5,-37 619.5,-56"/>
<text text-anchor="middle" x="571.5" y="-44" font-family="Helvetica,sans-Serif" font-size="10.00">cond_param_save</text>
</a>
</g>
</g>
<!-- Node10&#45;&gt;Node14 -->
<g id="edge13_Node000010_Node000014" class="edge">
<title>Node10&#45;&gt;Node14</title>
<g id="a_edge13_Node000010_Node000014"><a xlink:title=" ">
<path fill="none" stroke="#63b8ff" d="M475.09,-73.97C491.01,-69.39 510.28,-63.84 527.33,-58.93"/>
<polygon fill="#63b8ff" stroke="#63b8ff" points="528.43,-62.26 537.07,-56.12 526.5,-55.53 528.43,-62.26"/>
</a>
</g>
</g>
<!-- Node17 -->
<g id="Node000017" class="node">
<title>Node17</title>
<g id="a_Node000017"><a xlink:href="ea_8c.html#ac604379821374a521040a1495e8752ad" target="_top" xlink:title="Saves evolutionary algorithm parameters.">
<polygon fill="white" stroke="#666666" points="614.5,-19 528.5,-19 528.5,0 614.5,0 614.5,-19"/>
<text text-anchor="middle" x="571.5" y="-7" font-family="Helvetica,sans-Serif" font-size="10.00">ea_param_save</text>
</a>
</g>
</g>
<!-- Node10&#45;&gt;Node17 -->
<g id="edge17_Node000010_Node000017" class="edge">
<title>Node10&#45;&gt;Node17</title>
<g id="a_edge17_Node000010_Node000017"><a xlink:title=" ">
<path fill="none" stroke="#63b8ff" d="M453.4,-73.91C468.22,-61.83 495.24,-41 521,-27.5 524.09,-25.88 527.36,-24.34 530.68,-22.9"/>
<polygon fill="#63b8ff" stroke="#63b8ff" points="532.14,-26.09 540.11,-19.09 529.52,-19.6 532.14,-26.09"/>
</a>
</g>
</g>
<!-- Node18 -->
<g id="Node000018" class="node">
<title>Node18</title>
<g id="a_Node000018"><a xlink:href="prediction_8c.html#a5c3b578b46347ad8abb67366d741e61c" target="_top" xlink:title="Saves prediction parameters.">
<polygon fill="white" stroke="#666666" points="618.5,-130 524.5,-130 524.5,-111 618.5,-111 618.5,-130"/>
<text text-anchor="middle" x="571.5" y="-118" font-family="Helvetica,sans-Serif" font-size="10.00">pred_param_save</text>
</a>
</g>
</g>
<!-- Node10&#45;&gt;Node18 -->
<g id="edge18_Node000010_Node000018" class="edge">
<title>Node10&#45;&gt;Node18</title>
<g id="a_edge18_Node000010_Node000018"><a xlink:title=" ">
<path fill="none" stroke="#63b8ff" d="M475.09,-93.03C491.01,-97.61 510.28,-103.16 527.33,-108.07"/>
<polygon fill="#63b8ff" stroke="#63b8ff" points="526.5,-111.47 537.07,-110.88 528.43,-104.74 526.5,-111.47"/>
</a>
</g>
</g>
<!-- Node12 -->
<g id="Node000012" class="node">
<title>Node12</title>
<g id="a_Node000012"><a xlink:href="neural__layer__args_8c.html#a48c9d23bdc9f7694e2ef4c0a5dd2f59a" target="_top" xlink:title="Saves neural network layer parameters.">
<polygon fill="white" stroke="#666666" points="747.5,-93 659.5,-93 659.5,-74 747.5,-74 747.5,-93"/>
<text text-anchor="middle" x="703.5" y="-81" font-family="Helvetica,sans-Serif" font-size="10.00">layer_args_save</text>
</a>
</g>
</g>
<!-- Node11&#45;&gt;Node12 -->
<g id="edge11_Node000011_Node000012" class="edge">
<title>Node11&#45;&gt;Node12</title>
<g id="a_edge11_Node000011_Node000012"><a xlink:title=" ">
<path fill="none" stroke="#63b8ff" d="M622.02,-83.5C630.99,-83.5 640.37,-83.5 649.43,-83.5"/>
<polygon fill="#63b8ff" stroke="#63b8ff" points="649.49,-87 659.49,-83.5 649.49,-80 649.49,-87"/>
</a>
</g>
</g>
<!-- Node13 -->
<g id="Node000013" class="node">
<title>Node13</title>
<g id="a_Node000013"><a xlink:href="neural__layer__args_8c.html#af686286fbe62a7bcbf3ab9f4e8dcaa17" target="_top" xlink:title="Returns the length of the neural network layer parameter list.">
<polygon fill="white" stroke="#666666" points="878,-93 785,-93 785,-74 878,-74 878,-93"/>
<text text-anchor="middle" x="831.5" y="-81" font-family="Helvetica,sans-Serif" font-size="10.00">layer_args_length</text>
</a>
</g>
</g>
<!-- Node12&#45;&gt;Node13 -->
<g id="edge12_Node000012_Node000013" class="edge">
<title>Node12&#45;&gt;Node13</title>
<g id="a_edge12_Node000012_Node000013"><a xlink:title=" ">
<path fill="none" stroke="#63b8ff" d="M747.51,-83.5C756.21,-83.5 765.48,-83.5 774.55,-83.5"/>
<polygon fill="#63b8ff" stroke="#63b8ff" points="774.67,-87 784.67,-83.5 774.67,-80 774.67,-87"/>
</a>
</g>
</g>
<!-- Node14&#45;&gt;Node12 -->
<g id="edge15_Node000014_Node000012" class="edge">
<title>Node14&#45;&gt;Node12</title>
<g id="a_edge15_Node000014_Node000012"><a xlink:title=" ">
<path fill="none" stroke="#63b8ff" d="M605.98,-56.03C622.08,-60.61 641.58,-66.16 658.83,-71.07"/>
<polygon fill="#63b8ff" stroke="#63b8ff" points="658.11,-74.5 668.68,-73.88 660.02,-67.77 658.11,-74.5"/>
</a>
</g>
</g>
<!-- Node15 -->
<g id="Node000015" class="node">
<title>Node15</title>
<g id="a_Node000015"><a xlink:href="dgp_8c.html#a0a55dcba4f8e944721e7dad5c03fcaa7" target="_top" xlink:title="Saves DGP parameters.">
<polygon fill="white" stroke="#666666" points="749,-56 658,-56 658,-37 749,-37 749,-56"/>
<text text-anchor="middle" x="703.5" y="-44" font-family="Helvetica,sans-Serif" font-size="10.00">graph_args_save</text>
</a>
</g>
</g>
<!-- Node14&#45;&gt;Node15 -->
<g id="edge14_Node000014_Node000015" class="edge">
<title>Node14&#45;&gt;Node15</title>
<g id="a_edge14_Node000014_Node000015"><a xlink:title=" ">
<path fill="none" stroke="#63b8ff" d="M619.8,-46.5C628.77,-46.5 638.22,-46.5 647.4,-46.5"/>
<polygon fill="#63b8ff" stroke="#63b8ff" points="647.62,-50 657.62,-46.5 647.62,-43 647.62,-50"/>
</a>
</g>
</g>
<!-- Node16 -->
<g id="Node000016" class="node">
<title>Node16</title>
<g id="a_Node000016"><a xlink:href="gp_8c.html#afeae0667e724564d74d36c9fe6ad9682" target="_top" xlink:title="Saves Tree GP parameters.">
<polygon fill="white" stroke="#666666" points="745,-19 662,-19 662,0 745,0 745,-19"/>
<text text-anchor="middle" x="703.5" y="-7" font-family="Helvetica,sans-Serif" font-size="10.00">tree_args_save</text>
</a>
</g>
</g>
<!-- Node14&#45;&gt;Node16 -->
<g id="edge16_Node000014_Node000016" class="edge">
<title>Node14&#45;&gt;Node16</title>
<g id="a_edge16_Node000014_Node000016"><a xlink:title=" ">
<path fill="none" stroke="#63b8ff" d="M605.98,-36.97C622.08,-32.39 641.58,-26.84 658.83,-21.93"/>
<polygon fill="#63b8ff" stroke="#63b8ff" points="660.02,-25.23 668.68,-19.12 658.11,-18.5 660.02,-25.23"/>
</a>
</g>
</g>
<!-- Node18&#45;&gt;Node12 -->
<g id="edge19_Node000018_Node000012" class="edge">
<title>Node18&#45;&gt;Node12</title>
<g id="a_edge19_Node000018_Node000012"><a xlink:title=" ">
<path fill="none" stroke="#63b8ff" d="M605.98,-110.97C622.08,-106.39 641.58,-100.84 658.83,-95.93"/>
<polygon fill="#63b8ff" stroke="#63b8ff" points="660.02,-99.23 668.68,-93.12 658.11,-92.5 660.02,-99.23"/>
</a>
</g>
</g>
</g>
</svg>
