<?xml version="1.0" encoding="UTF-8" standalone="no"?>
<!DOCTYPE svg PUBLIC "-//W3C//DTD SVG 1.1//EN"
 "http://www.w3.org/Graphics/SVG/1.1/DTD/svg11.dtd">
<!-- Generated by graphviz version 2.43.0 (0)
 -->
<!-- Title: clset_pop_load Pages: 1 -->
<svg width="298pt" height="218pt"
 viewBox="0.00 0.00 298.00 218.00" xmlns="http://www.w3.org/2000/svg" xmlns:xlink="http://www.w3.org/1999/xlink">
<g id="graph0" class="graph" transform="scale(1 1) rotate(0) translate(4 214)">
<title>clset_pop_load</title>
<!-- Node1 -->
<g id="node1" class="node">
<title>Node1</title>
<g id="a_node1"><a xlink:title="Reads the population set from a file.">
<polygon fill="#bfbfbf" stroke="black" points="0,-57.5 0,-76.5 82,-76.5 82,-57.5 0,-57.5"/>
<text text-anchor="middle" x="41" y="-64.5" font-family="Helvetica,sans-Serif" font-size="10.00">clset_pop_load</text>
</a>
</g>
</g>
<!-- Node2 -->
<g id="node2" class="node">
<title>Node2</title>
<g id="a_node2"><a xlink:href="cl_8c.html#aa1ac32b2cecb1ff414f4f8c405e9cc9d" target="_top" xlink:title="Reads a classifier from a file.">
<polygon fill="none" stroke="black" points="124,-95.5 124,-114.5 171,-114.5 171,-95.5 124,-95.5"/>
<text text-anchor="middle" x="147.5" y="-102.5" font-family="Helvetica,sans-Serif" font-size="10.00">cl_load</text>
</a>
</g>
</g>
<!-- Node1&#45;&gt;Node2 -->
<g id="edge1" class="edge">
<title>Node1&#45;&gt;Node2</title>
<path fill="none" stroke="midnightblue" d="M68.37,-76.59C82.22,-81.63 99.32,-87.85 113.99,-93.18"/>
<polygon fill="midnightblue" stroke="midnightblue" points="113.09,-96.58 123.69,-96.7 115.49,-90 113.09,-96.58"/>
</g>
<!-- Node9 -->
<g id="node9" class="node">
<title>Node9</title>
<g id="a_node9"><a xlink:href="clset_8c.html#a64d33e6235c57f30a4a3ec82f18e57d6" target="_top" xlink:title="Adds a classifier to the set.">
<polygon fill="none" stroke="black" points="118,-57.5 118,-76.5 177,-76.5 177,-57.5 118,-57.5"/>
<text text-anchor="middle" x="147.5" y="-64.5" font-family="Helvetica,sans-Serif" font-size="10.00">clset_add</text>
</a>
</g>
</g>
<!-- Node1&#45;&gt;Node9 -->
<g id="edge8" class="edge">
<title>Node1&#45;&gt;Node9</title>
<path fill="none" stroke="midnightblue" d="M82.1,-67C90.44,-67 99.21,-67 107.51,-67"/>
<polygon fill="midnightblue" stroke="midnightblue" points="107.69,-70.5 117.69,-67 107.69,-63.5 107.69,-70.5"/>
</g>
<!-- Node10 -->
<g id="node10" class="node">
<title>Node10</title>
<g id="a_node10"><a xlink:href="clset_8c.html#a9af546abf9de1bc840d605e949d3ef47" target="_top" xlink:title="Initialises a new set.">
<polygon fill="none" stroke="black" points="119.5,-19.5 119.5,-38.5 175.5,-38.5 175.5,-19.5 119.5,-19.5"/>
<text text-anchor="middle" x="147.5" y="-26.5" font-family="Helvetica,sans-Serif" font-size="10.00">clset_init</text>
</a>
</g>
</g>
<!-- Node1&#45;&gt;Node10 -->
<g id="edge9" class="edge">
<title>Node1&#45;&gt;Node10</title>
<path fill="none" stroke="midnightblue" d="M68.37,-57.41C81.12,-52.78 96.61,-47.14 110.43,-42.11"/>
<polygon fill="midnightblue" stroke="midnightblue" points="111.94,-45.29 120.14,-38.59 109.54,-38.71 111.94,-45.29"/>
</g>
<!-- Node3 -->
<g id="node3" class="node">
<title>Node3</title>
<g id="a_node3"><a xlink:href="action_8h.html#a52378844456bccd5792fd83a66c3e024" target="_top" xlink:title="Reads the action from a file.">
<polygon fill="none" stroke="black" points="225,-190.5 225,-209.5 278,-209.5 278,-190.5 225,-190.5"/>
<text text-anchor="middle" x="251.5" y="-197.5" font-family="Helvetica,sans-Serif" font-size="10.00">act_load</text>
</a>
</g>
</g>
<!-- Node2&#45;&gt;Node3 -->
<g id="edge2" class="edge">
<title>Node2&#45;&gt;Node3</title>
<path fill="none" stroke="midnightblue" d="M155,-114.97C165.62,-130.64 188,-161.28 213,-181 214.82,-182.43 216.76,-183.8 218.76,-185.1"/>
<polygon fill="midnightblue" stroke="midnightblue" points="217.4,-188.35 227.8,-190.33 220.9,-182.29 217.4,-188.35"/>
</g>
<!-- Node4 -->
<g id="node4" class="node">
<title>Node4</title>
<g id="a_node4"><a xlink:href="action_8c.html#a57d1606f2517912f1f56018f095761e9" target="_top" xlink:title="Sets a classifier&#39;s action functions to the implementations.">
<polygon fill="none" stroke="black" points="220.5,-152.5 220.5,-171.5 282.5,-171.5 282.5,-152.5 220.5,-152.5"/>
<text text-anchor="middle" x="251.5" y="-159.5" font-family="Helvetica,sans-Serif" font-size="10.00">action_set</text>
</a>
</g>
</g>
<!-- Node2&#45;&gt;Node4 -->
<g id="edge3" class="edge">
<title>Node2&#45;&gt;Node4</title>
<path fill="none" stroke="midnightblue" d="M164.24,-114.65C177.2,-122.51 196.13,-133.77 213,-143 215.88,-144.58 218.91,-146.19 221.94,-147.77"/>
<polygon fill="midnightblue" stroke="midnightblue" points="220.42,-150.92 230.91,-152.37 223.61,-144.69 220.42,-150.92"/>
</g>
<!-- Node5 -->
<g id="node5" class="node">
<title>Node5</title>
<g id="a_node5"><a xlink:href="condition_8h.html#aecb888a4d67bac7930149265d00f2c60" target="_top" xlink:title="Reads the condition from a file.">
<polygon fill="none" stroke="black" points="221,-114.5 221,-133.5 282,-133.5 282,-114.5 221,-114.5"/>
<text text-anchor="middle" x="251.5" y="-121.5" font-family="Helvetica,sans-Serif" font-size="10.00">cond_load</text>
</a>
</g>
</g>
<!-- Node2&#45;&gt;Node5 -->
<g id="edge4" class="edge">
<title>Node2&#45;&gt;Node5</title>
<path fill="none" stroke="midnightblue" d="M171.14,-109.22C182.83,-111.39 197.44,-114.12 210.92,-116.63"/>
<polygon fill="midnightblue" stroke="midnightblue" points="210.48,-120.11 220.95,-118.5 211.76,-113.22 210.48,-120.11"/>
</g>
<!-- Node6 -->
<g id="node6" class="node">
<title>Node6</title>
<g id="a_node6"><a xlink:href="condition_8c.html#a16981837f523cea3a917404e441981b3" target="_top" xlink:title="Sets a classifier&#39;s condition functions to the implementations.">
<polygon fill="none" stroke="black" points="214.5,-76.5 214.5,-95.5 288.5,-95.5 288.5,-76.5 214.5,-76.5"/>
<text text-anchor="middle" x="251.5" y="-83.5" font-family="Helvetica,sans-Serif" font-size="10.00">condition_set</text>
</a>
</g>
</g>
<!-- Node2&#45;&gt;Node6 -->
<g id="edge5" class="edge">
<title>Node2&#45;&gt;Node6</title>
<path fill="none" stroke="midnightblue" d="M171.14,-100.78C180.94,-98.96 192.8,-96.75 204.32,-94.6"/>
<polygon fill="midnightblue" stroke="midnightblue" points="205.12,-98.01 214.31,-92.74 203.83,-91.13 205.12,-98.01"/>
</g>
<!-- Node7 -->
<g id="node7" class="node">
<title>Node7</title>
<g id="a_node7"><a xlink:href="prediction_8h.html#acb4453c3ff11e3b628432cdc2fa5e73b" target="_top" xlink:title="Reads the prediction from a file.">
<polygon fill="none" stroke="black" points="222,-38.5 222,-57.5 281,-57.5 281,-38.5 222,-38.5"/>
<text text-anchor="middle" x="251.5" y="-45.5" font-family="Helvetica,sans-Serif" font-size="10.00">pred_load</text>
</a>
</g>
</g>
<!-- Node2&#45;&gt;Node7 -->
<g id="edge6" class="edge">
<title>Node2&#45;&gt;Node7</title>
<path fill="none" stroke="midnightblue" d="M164.24,-95.35C177.2,-87.49 196.13,-76.23 213,-67 215.88,-65.42 218.91,-63.81 221.94,-62.23"/>
<polygon fill="midnightblue" stroke="midnightblue" points="223.61,-65.31 230.91,-57.63 220.42,-59.08 223.61,-65.31"/>
</g>
<!-- Node8 -->
<g id="node8" class="node">
<title>Node8</title>
<g id="a_node8"><a xlink:href="prediction_8c.html#a81ad118db1c9b692c45880e6f3a33ec4" target="_top" xlink:title="Sets a classifier&#39;s prediction functions to the implementations.">
<polygon fill="none" stroke="black" points="213,-0.5 213,-19.5 290,-19.5 290,-0.5 213,-0.5"/>
<text text-anchor="middle" x="251.5" y="-7.5" font-family="Helvetica,sans-Serif" font-size="10.00">prediction_set</text>
</a>
</g>
</g>
<!-- Node2&#45;&gt;Node8 -->
<g id="edge7" class="edge">
<title>Node2&#45;&gt;Node8</title>
<path fill="none" stroke="midnightblue" d="M165.38,-95.44C169.45,-92.69 173.59,-89.49 177,-86 197.92,-64.55 190.84,-49.16 213,-29 214.5,-27.64 216.11,-26.35 217.8,-25.13"/>
<polygon fill="midnightblue" stroke="midnightblue" points="219.99,-27.89 226.65,-19.64 216.3,-21.94 219.99,-27.89"/>
</g>
</g>
</svg>
