<?xml version="1.0" encoding="UTF-8" standalone="no"?>
<!DOCTYPE svg PUBLIC "-//W3C//DTD SVG 1.1//EN"
 "http://www.w3.org/Graphics/SVG/1.1/DTD/svg11.dtd">
<!-- Generated by graphviz version 2.43.0 (0)
 -->
<!-- Title: clset_mean_cond_connections Pages: 1 -->
<svg width="322pt" height="66pt"
 viewBox="0.00 0.00 322.00 66.00" xmlns="http://www.w3.org/2000/svg" xmlns:xlink="http://www.w3.org/1999/xlink">
<g id="graph0" class="graph" transform="scale(1 1) rotate(0) translate(4 62)">
<title>clset_mean_cond_connections</title>
<!-- Node1 -->
<g id="node1" class="node">
<title>Node1</title>
<g id="a_node1"><a xlink:title="Calculates the mean number of condition connections in the set.">
<polygon fill="#bfbfbf" stroke="black" points="0,-19.5 0,-38.5 151,-38.5 151,-19.5 0,-19.5"/>
<text text-anchor="middle" x="75.5" y="-26.5" font-family="Helvetica,sans-Serif" font-size="10.00">clset_mean_cond_connections</text>
</a>
</g>
</g>
<!-- Node2 -->
<g id="node2" class="node">
<title>Node2</title>
<g id="a_node2"><a xlink:href="cond__neural_8c.html#ade050850db1d6eb1266ca02c5a0bd6ae" target="_top" xlink:title=" ">
<polygon fill="none" stroke="black" points="187,-38.5 187,-57.5 314,-57.5 314,-38.5 187,-38.5"/>
<text text-anchor="middle" x="250.5" y="-45.5" font-family="Helvetica,sans-Serif" font-size="10.00">cond_neural_connections</text>
</a>
</g>
</g>
<!-- Node1&#45;&gt;Node2 -->
<g id="edge1" class="edge">
<title>Node1&#45;&gt;Node2</title>
<path fill="none" stroke="midnightblue" d="M151.12,-37.2C159.57,-38.12 168.18,-39.07 176.61,-39.99"/>
<polygon fill="midnightblue" stroke="midnightblue" points="176.46,-43.5 186.78,-41.11 177.22,-36.54 176.46,-43.5"/>
</g>
<!-- Node3 -->
<g id="node3" class="node">
<title>Node3</title>
<g id="a_node3"><a xlink:href="CMakeLists_8txt.html#abb28d976c965ac9bcae2ee68ad8e0f0a" target="_top" xlink:title=" ">
<polygon fill="none" stroke="black" points="235.5,-0.5 235.5,-19.5 265.5,-19.5 265.5,-0.5 235.5,-0.5"/>
<text text-anchor="middle" x="250.5" y="-7.5" font-family="Helvetica,sans-Serif" font-size="10.00">set</text>
</a>
</g>
</g>
<!-- Node1&#45;&gt;Node3 -->
<g id="edge2" class="edge">
<title>Node1&#45;&gt;Node3</title>
<path fill="none" stroke="midnightblue" d="M151.12,-20.8C177.85,-17.87 206.12,-14.76 225.46,-12.64"/>
<polygon fill="midnightblue" stroke="midnightblue" points="225.92,-16.11 235.48,-11.54 225.16,-9.15 225.92,-16.11"/>
</g>
</g>
</svg>
