<?xml version="1.0" encoding="UTF-8" standalone="no"?>
<!DOCTYPE svg PUBLIC "-//W3C//DTD SVG 1.1//EN"
 "http://www.w3.org/Graphics/SVG/1.1/DTD/svg11.dtd">
<!-- Generated by graphviz version 2.43.0 (0)
 -->
<!-- Title: clset_update Pages: 1 -->
<svg width="441pt" height="370pt"
 viewBox="0.00 0.00 441.00 370.00" xmlns="http://www.w3.org/2000/svg" xmlns:xlink="http://www.w3.org/1999/xlink">
<g id="graph0" class="graph" transform="scale(1 1) rotate(0) translate(4 366)">
<title>clset_update</title>
<!-- Node1 -->
<g id="node1" class="node">
<title>Node1</title>
<g id="a_node1"><a xlink:title="Provides reinforcement to the set and performs set subsumption.">
<polygon fill="#bfbfbf" stroke="black" points="0,-133.5 0,-152.5 72,-152.5 72,-133.5 0,-133.5"/>
<text text-anchor="middle" x="36" y="-140.5" font-family="Helvetica,sans-Serif" font-size="10.00">clset_update</text>
</a>
</g>
</g>
<!-- Node2 -->
<g id="node2" class="node">
<title>Node2</title>
<g id="a_node2"><a xlink:href="$cl_8c.html#a486392cc4fbb4f38ecbf8d6d8fc6df77" xlink:title="Updates a classifier&#39;s experience, error, and set size.">
<polygon fill="none" stroke="black" points="127.5,-266.5 127.5,-285.5 186.5,-285.5 186.5,-266.5 127.5,-266.5"/>
<text text-anchor="middle" x="157" y="-273.5" font-family="Helvetica,sans-Serif" font-size="10.00">cl_update</text>
</a>
</g>
</g>
<!-- Node1&#45;&gt;Node2 -->
<g id="edge1" class="edge">
<title>Node1&#45;&gt;Node2</title>
<path fill="none" stroke="midnightblue" d="M45.56,-152.57C65.44,-174.79 115.01,-230.19 140.43,-258.6"/>
<polygon fill="midnightblue" stroke="midnightblue" points="137.92,-261.04 147.2,-266.16 143.14,-256.38 137.92,-261.04"/>
</g>
<!-- Node8 -->
<g id="node8" class="node">
<title>Node8</title>
<g id="a_node8"><a xlink:href="$clset_8c.html#a4777af2f15c4a7b5abeecb35e7e8b6b3" xlink:title="Performs set subsumption.">
<polygon fill="none" stroke="black" points="108,-133.5 108,-152.5 206,-152.5 206,-133.5 108,-133.5"/>
<text text-anchor="middle" x="157" y="-140.5" font-family="Helvetica,sans-Serif" font-size="10.00">clset_subsumption</text>
</a>
</g>
</g>
<!-- Node1&#45;&gt;Node8 -->
<g id="edge7" class="edge">
<title>Node1&#45;&gt;Node8</title>
<path fill="none" stroke="midnightblue" d="M72.06,-143C80.14,-143 88.95,-143 97.72,-143"/>
<polygon fill="midnightblue" stroke="midnightblue" points="97.96,-146.5 107.96,-143 97.96,-139.5 97.96,-146.5"/>
</g>
<!-- Node15 -->
<g id="node15" class="node">
<title>Node15</title>
<g id="a_node15"><a xlink:href="$clset_8c.html#aa969b49afc6d934a12ea41e41514b360" xlink:title="Updates the fitness of classifiers in the set.">
<polygon fill="none" stroke="black" points="114,-38.5 114,-57.5 200,-57.5 200,-38.5 114,-38.5"/>
<text text-anchor="middle" x="157" y="-45.5" font-family="Helvetica,sans-Serif" font-size="10.00">clset_update_fit</text>
</a>
</g>
</g>
<!-- Node1&#45;&gt;Node15 -->
<g id="edge14" class="edge">
<title>Node1&#45;&gt;Node15</title>
<path fill="none" stroke="midnightblue" d="M49.29,-133.19C69.79,-116.82 111.17,-83.79 135.95,-64.01"/>
<polygon fill="midnightblue" stroke="midnightblue" points="138.33,-66.59 143.96,-57.61 133.96,-61.12 138.33,-66.59"/>
</g>
<!-- Node3 -->
<g id="node3" class="node">
<title>Node3</title>
<g id="a_node3"><a xlink:href="$action_8h.html#abff2406a17ffc24bdc2f98dbecab1f80" xlink:title="Updates the classifier&#39;s action.">
<polygon fill="none" stroke="black" points="248,-342.5 248,-361.5 313,-361.5 313,-342.5 248,-342.5"/>
<text text-anchor="middle" x="280.5" y="-349.5" font-family="Helvetica,sans-Serif" font-size="10.00">act_update</text>
</a>
</g>
</g>
<!-- Node2&#45;&gt;Node3 -->
<g id="edge2" class="edge">
<title>Node2&#45;&gt;Node3</title>
<path fill="none" stroke="midnightblue" d="M171.05,-285.62C187.28,-297.41 216.04,-317.7 242,-333 244.68,-334.58 247.51,-336.16 250.36,-337.7"/>
<polygon fill="midnightblue" stroke="midnightblue" points="248.91,-340.89 259.4,-342.41 252.14,-334.68 248.91,-340.89"/>
</g>
<!-- Node4 -->
<g id="node4" class="node">
<title>Node4</title>
<g id="a_node4"><a xlink:href="$cl_8c.html#a6d152849e51ed10765330586e574805f" xlink:title="Computes the current classifier prediction using the input.">
<polygon fill="none" stroke="black" points="251,-304.5 251,-323.5 310,-323.5 310,-304.5 251,-304.5"/>
<text text-anchor="middle" x="280.5" y="-311.5" font-family="Helvetica,sans-Serif" font-size="10.00">cl_predict</text>
</a>
</g>
</g>
<!-- Node2&#45;&gt;Node4 -->
<g id="edge3" class="edge">
<title>Node2&#45;&gt;Node4</title>
<path fill="none" stroke="midnightblue" d="M186.79,-285.01C202.98,-290.07 223.41,-296.46 240.96,-301.95"/>
<polygon fill="midnightblue" stroke="midnightblue" points="240.32,-305.41 250.91,-305.06 242.41,-298.73 240.32,-305.41"/>
</g>
<!-- Node6 -->
<g id="node6" class="node">
<title>Node6</title>
<g id="a_node6"><a xlink:href="$condition_8h.html#af8317dec779d25b369473111f5cbd0e1" xlink:title="Updates the classifier&#39;s condition.">
<polygon fill="none" stroke="black" points="244.5,-266.5 244.5,-285.5 316.5,-285.5 316.5,-266.5 244.5,-266.5"/>
<text text-anchor="middle" x="280.5" y="-273.5" font-family="Helvetica,sans-Serif" font-size="10.00">cond_update</text>
</a>
</g>
</g>
<!-- Node2&#45;&gt;Node6 -->
<g id="edge5" class="edge">
<title>Node2&#45;&gt;Node6</title>
<path fill="none" stroke="midnightblue" d="M186.79,-276C200.95,-276 218.35,-276 234.24,-276"/>
<polygon fill="midnightblue" stroke="midnightblue" points="234.41,-279.5 244.41,-276 234.41,-272.5 234.41,-279.5"/>
</g>
<!-- Node7 -->
<g id="node7" class="node">
<title>Node7</title>
<g id="a_node7"><a xlink:href="$prediction_8h.html#a81932bc605950c43bcc2852a77e47fbd" xlink:title="Updates the classifier&#39;s prediction.">
<polygon fill="none" stroke="black" points="245.5,-228.5 245.5,-247.5 315.5,-247.5 315.5,-228.5 245.5,-228.5"/>
<text text-anchor="middle" x="280.5" y="-235.5" font-family="Helvetica,sans-Serif" font-size="10.00">pred_update</text>
</a>
</g>
</g>
<!-- Node2&#45;&gt;Node7 -->
<g id="edge6" class="edge">
<title>Node2&#45;&gt;Node7</title>
<path fill="none" stroke="midnightblue" d="M186.79,-266.99C202.4,-262.11 221.93,-256 239.04,-250.65"/>
<polygon fill="midnightblue" stroke="midnightblue" points="240.29,-253.93 248.79,-247.61 238.2,-247.25 240.29,-253.93"/>
</g>
<!-- Node5 -->
<g id="node5" class="node">
<title>Node5</title>
<g id="a_node5"><a xlink:href="$prediction_8h.html#a6b6f9e53800aae4a64991a811f670541" xlink:title="Computes the current classifier prediction using the input.">
<polygon fill="none" stroke="black" points="355,-304.5 355,-323.5 433,-323.5 433,-304.5 355,-304.5"/>
<text text-anchor="middle" x="394" y="-311.5" font-family="Helvetica,sans-Serif" font-size="10.00">pred_compute</text>
</a>
</g>
</g>
<!-- Node4&#45;&gt;Node5 -->
<g id="edge4" class="edge">
<title>Node4&#45;&gt;Node5</title>
<path fill="none" stroke="midnightblue" d="M310.21,-314C320.69,-314 332.86,-314 344.58,-314"/>
<polygon fill="midnightblue" stroke="midnightblue" points="344.71,-317.5 354.71,-314 344.71,-310.5 344.71,-317.5"/>
</g>
<!-- Node9 -->
<g id="node9" class="node">
<title>Node9</title>
<g id="a_node9"><a xlink:href="$cl_8c.html#a702d046abd4a69246f5bfd302c523f92" xlink:title="Returns whether classifier c1 is more general than c2.">
<polygon fill="none" stroke="black" points="250,-190.5 250,-209.5 311,-209.5 311,-190.5 250,-190.5"/>
<text text-anchor="middle" x="280.5" y="-197.5" font-family="Helvetica,sans-Serif" font-size="10.00">cl_general</text>
</a>
</g>
</g>
<!-- Node8&#45;&gt;Node9 -->
<g id="edge8" class="edge">
<title>Node8&#45;&gt;Node9</title>
<path fill="none" stroke="midnightblue" d="M178.34,-152.54C197.87,-161.71 227.62,-175.66 249.8,-186.07"/>
<polygon fill="midnightblue" stroke="midnightblue" points="248.56,-189.35 259.1,-190.43 251.53,-183.01 248.56,-189.35"/>
</g>
<!-- Node12 -->
<g id="node12" class="node">
<title>Node12</title>
<g id="a_node12"><a xlink:href="$cl_8c.html#afb88481d6c45d9a8869936cd5b5d9fc1" xlink:title="Returns whether a classifier is a potential subsumer.">
<polygon fill="none" stroke="black" points="244.5,-152.5 244.5,-171.5 316.5,-171.5 316.5,-152.5 244.5,-152.5"/>
<text text-anchor="middle" x="280.5" y="-159.5" font-family="Helvetica,sans-Serif" font-size="10.00">cl_subsumer</text>
</a>
</g>
</g>
<!-- Node8&#45;&gt;Node12 -->
<g id="edge11" class="edge">
<title>Node8&#45;&gt;Node12</title>
<path fill="none" stroke="midnightblue" d="M206.02,-150.51C215.27,-151.96 224.94,-153.47 234.11,-154.9"/>
<polygon fill="midnightblue" stroke="midnightblue" points="233.77,-158.39 244.19,-156.48 234.85,-151.48 233.77,-158.39"/>
</g>
<!-- Node13 -->
<g id="node13" class="node">
<title>Node13</title>
<g id="a_node13"><a xlink:href="$clset_8c.html#a64d33e6235c57f30a4a3ec82f18e57d6" xlink:title="Adds a classifier to the set.">
<polygon fill="none" stroke="black" points="251,-114.5 251,-133.5 310,-133.5 310,-114.5 251,-114.5"/>
<text text-anchor="middle" x="280.5" y="-121.5" font-family="Helvetica,sans-Serif" font-size="10.00">clset_add</text>
</a>
</g>
</g>
<!-- Node8&#45;&gt;Node13 -->
<g id="edge12" class="edge">
<title>Node8&#45;&gt;Node13</title>
<path fill="none" stroke="midnightblue" d="M206.02,-135.49C217.48,-133.7 229.57,-131.81 240.57,-130.09"/>
<polygon fill="midnightblue" stroke="midnightblue" points="241.38,-133.5 250.72,-128.5 240.3,-126.59 241.38,-133.5"/>
</g>
<!-- Node14 -->
<g id="node14" class="node">
<title>Node14</title>
<g id="a_node14"><a xlink:href="$clset_8c.html#a3bb797f21eed0cdf6fc54b36692e213f" xlink:title="Removes classifiers with 0 numerosity from the set.">
<polygon fill="none" stroke="black" points="242,-76.5 242,-95.5 319,-95.5 319,-76.5 242,-76.5"/>
<text text-anchor="middle" x="280.5" y="-83.5" font-family="Helvetica,sans-Serif" font-size="10.00">clset_validate</text>
</a>
</g>
</g>
<!-- Node8&#45;&gt;Node14 -->
<g id="edge13" class="edge">
<title>Node8&#45;&gt;Node14</title>
<path fill="none" stroke="midnightblue" d="M178.34,-133.46C197.87,-124.29 227.62,-110.34 249.8,-99.93"/>
<polygon fill="midnightblue" stroke="midnightblue" points="251.53,-102.99 259.1,-95.57 248.56,-96.65 251.53,-102.99"/>
</g>
<!-- Node10 -->
<g id="node10" class="node">
<title>Node10</title>
<g id="a_node10"><a xlink:href="$action_8h.html#a7ac7036a6ec0ef8bc76f38ba5d30579d" xlink:title="Returns whether the action of classifier c1 is more general than c2.">
<polygon fill="none" stroke="black" points="360.5,-209.5 360.5,-228.5 427.5,-228.5 427.5,-209.5 360.5,-209.5"/>
<text text-anchor="middle" x="394" y="-216.5" font-family="Helvetica,sans-Serif" font-size="10.00">act_general</text>
</a>
</g>
</g>
<!-- Node9&#45;&gt;Node10 -->
<g id="edge9" class="edge">
<title>Node9&#45;&gt;Node10</title>
<path fill="none" stroke="midnightblue" d="M311.09,-205.04C323,-207.07 336.97,-209.45 349.97,-211.67"/>
<polygon fill="midnightblue" stroke="midnightblue" points="349.68,-215.17 360.13,-213.4 350.86,-208.27 349.68,-215.17"/>
</g>
<!-- Node11 -->
<g id="node11" class="node">
<title>Node11</title>
<g id="a_node11"><a xlink:href="$condition_8h.html#a6a257a1407c9394b7def57701188422d" xlink:title="Returns whether classifier c1 has a condition more general than c2.">
<polygon fill="none" stroke="black" points="357,-171.5 357,-190.5 431,-190.5 431,-171.5 357,-171.5"/>
<text text-anchor="middle" x="394" y="-178.5" font-family="Helvetica,sans-Serif" font-size="10.00">cond_general</text>
</a>
</g>
</g>
<!-- Node9&#45;&gt;Node11 -->
<g id="edge10" class="edge">
<title>Node9&#45;&gt;Node11</title>
<path fill="none" stroke="midnightblue" d="M311.09,-194.96C322.08,-193.09 334.82,-190.91 346.93,-188.85"/>
<polygon fill="midnightblue" stroke="midnightblue" points="347.63,-192.28 356.9,-187.15 346.46,-185.38 347.63,-192.28"/>
</g>
<!-- Node16 -->
<g id="node16" class="node">
<title>Node16</title>
<g id="a_node16"><a xlink:href="$cl_8c.html#ad686da805e2ab762a3d32c321657775f" xlink:title="Returns the accuracy of a classifier.">
<polygon fill="none" stroke="black" points="258,-38.5 258,-57.5 303,-57.5 303,-38.5 258,-38.5"/>
<text text-anchor="middle" x="280.5" y="-45.5" font-family="Helvetica,sans-Serif" font-size="10.00">cl_acc</text>
</a>
</g>
</g>
<!-- Node15&#45;&gt;Node16 -->
<g id="edge15" class="edge">
<title>Node15&#45;&gt;Node16</title>
<path fill="none" stroke="midnightblue" d="M200.15,-48C215.82,-48 233.31,-48 247.87,-48"/>
<polygon fill="midnightblue" stroke="midnightblue" points="247.89,-51.5 257.89,-48 247.89,-44.5 247.89,-51.5"/>
</g>
<!-- Node17 -->
<g id="node17" class="node">
<title>Node17</title>
<g id="a_node17"><a xlink:href="$cl_8c.html#a5fe8108de575672338fc8e602e469589" xlink:title="Updates the fitness of a classifier.">
<polygon fill="none" stroke="black" points="244.5,-0.5 244.5,-19.5 316.5,-19.5 316.5,-0.5 244.5,-0.5"/>
<text text-anchor="middle" x="280.5" y="-7.5" font-family="Helvetica,sans-Serif" font-size="10.00">cl_update_fit</text>
</a>
</g>
</g>
<!-- Node15&#45;&gt;Node17 -->
<g id="edge16" class="edge">
<title>Node15&#45;&gt;Node17</title>
<path fill="none" stroke="midnightblue" d="M188.66,-38.41C203.91,-33.64 222.55,-27.81 238.97,-22.68"/>
<polygon fill="midnightblue" stroke="midnightblue" points="240.35,-25.91 248.85,-19.59 238.26,-19.23 240.35,-25.91"/>
</g>
</g>
</svg>
