<?xml version="1.0" encoding="UTF-8" standalone="no"?>
<!DOCTYPE svg PUBLIC "-//W3C//DTD SVG 1.1//EN"
 "http://www.w3.org/Graphics/SVG/1.1/DTD/svg11.dtd">
<!-- Generated by graphviz version 2.43.0 (0)
 -->
<!-- Title: clset_update Pages: 1 -->
<svg width="441pt" height="360pt"
 viewBox="0.00 0.00 441.00 360.00" xmlns="http://www.w3.org/2000/svg" xmlns:xlink="http://www.w3.org/1999/xlink">
<g id="graph0" class="graph" transform="scale(1 1) rotate(0) translate(4 356)">
<title>clset_update</title>
<!-- Node1 -->
<g id="Node000001" class="node">
<title>Node1</title>
<g id="a_Node000001"><a xlink:title="Provides reinforcement to the set and performs set subsumption.">
<polygon fill="#999999" stroke="#666666" points="72,-148 0,-148 0,-129 72,-129 72,-148"/>
<text text-anchor="middle" x="36" y="-136" font-family="Helvetica,sans-Serif" font-size="10.00">clset_update</text>
</a>
</g>
</g>
<!-- Node2 -->
<g id="Node000002" class="node">
<title>Node2</title>
<g id="a_Node000002"><a xlink:href="cl_8c.html#a486392cc4fbb4f38ecbf8d6d8fc6df77" target="_top" xlink:title="Updates a classifier&#39;s experience, error, and set size.">
<polygon fill="white" stroke="#666666" points="186.5,-278 127.5,-278 127.5,-259 186.5,-259 186.5,-278"/>
<text text-anchor="middle" x="157" y="-266" font-family="Helvetica,sans-Serif" font-size="10.00">cl_update</text>
</a>
</g>
</g>
<!-- Node1&#45;&gt;Node2 -->
<g id="edge1_Node000001_Node000002" class="edge">
<title>Node1&#45;&gt;Node2</title>
<g id="a_edge1_Node000001_Node000002"><a xlink:title=" ">
<path fill="none" stroke="#63b8ff" d="M45.94,-148.27C66.03,-170.21 114.92,-223.63 140.23,-251.28"/>
<polygon fill="#63b8ff" stroke="#63b8ff" points="137.94,-253.96 147.28,-258.97 143.1,-249.23 137.94,-253.96"/>
</a>
</g>
</g>
<!-- Node8 -->
<g id="Node000008" class="node">
<title>Node8</title>
<g id="a_Node000008"><a xlink:href="clset_8c.html#a4777af2f15c4a7b5abeecb35e7e8b6b3" target="_top" xlink:title="Performs set subsumption.">
<polygon fill="white" stroke="#666666" points="206,-148 108,-148 108,-129 206,-129 206,-148"/>
<text text-anchor="middle" x="157" y="-136" font-family="Helvetica,sans-Serif" font-size="10.00">clset_subsumption</text>
</a>
</g>
</g>
<!-- Node1&#45;&gt;Node8 -->
<g id="edge7_Node000001_Node000008" class="edge">
<title>Node1&#45;&gt;Node8</title>
<g id="a_edge7_Node000001_Node000008"><a xlink:title=" ">
<path fill="none" stroke="#63b8ff" d="M72.06,-138.5C80.14,-138.5 88.95,-138.5 97.72,-138.5"/>
<polygon fill="#63b8ff" stroke="#63b8ff" points="97.96,-142 107.96,-138.5 97.96,-135 97.96,-142"/>
</a>
</g>
</g>
<!-- Node15 -->
<g id="Node000015" class="node">
<title>Node15</title>
<g id="a_Node000015"><a xlink:href="clset_8c.html#aa969b49afc6d934a12ea41e41514b360" target="_top" xlink:title="Updates the fitness of classifiers in the set.">
<polygon fill="white" stroke="#666666" points="200,-56 114,-56 114,-37 200,-37 200,-56"/>
<text text-anchor="middle" x="157" y="-44" font-family="Helvetica,sans-Serif" font-size="10.00">clset_update_fit</text>
</a>
</g>
</g>
<!-- Node1&#45;&gt;Node15 -->
<g id="edge14_Node000001_Node000015" class="edge">
<title>Node1&#45;&gt;Node15</title>
<g id="a_edge14_Node000001_Node000015"><a xlink:title=" ">
<path fill="none" stroke="#63b8ff" d="M49.74,-128.65C70.22,-112.81 110.7,-81.52 135.35,-62.46"/>
<polygon fill="#63b8ff" stroke="#63b8ff" points="137.59,-65.16 143.36,-56.27 133.3,-59.62 137.59,-65.16"/>
</a>
</g>
</g>
<!-- Node3 -->
<g id="Node000003" class="node">
<title>Node3</title>
<g id="a_Node000003"><a xlink:href="action_8h.html#abff2406a17ffc24bdc2f98dbecab1f80" target="_top" xlink:title="Updates the classifier&#39;s action.">
<polygon fill="white" stroke="#666666" points="313,-352 248,-352 248,-333 313,-333 313,-352"/>
<text text-anchor="middle" x="280.5" y="-340" font-family="Helvetica,sans-Serif" font-size="10.00">act_update</text>
</a>
</g>
</g>
<!-- Node2&#45;&gt;Node3 -->
<g id="edge2_Node000002_Node000003" class="edge">
<title>Node2&#45;&gt;Node3</title>
<g id="a_edge2_Node000002_Node000003"><a xlink:title=" ">
<path fill="none" stroke="#63b8ff" d="M171.02,-278.02C187.23,-289.66 215.96,-309.67 242,-324.5 244.33,-325.83 246.78,-327.15 249.25,-328.44"/>
<polygon fill="#63b8ff" stroke="#63b8ff" points="247.7,-331.58 258.21,-332.92 250.83,-325.32 247.7,-331.58"/>
</a>
</g>
</g>
<!-- Node4 -->
<g id="Node000004" class="node">
<title>Node4</title>
<g id="a_Node000004"><a xlink:href="cl_8c.html#a4a979db96c5292f7ab10a022779ce30d" target="_top" xlink:title="Computes the current classifier prediction using the input.">
<polygon fill="white" stroke="#666666" points="310,-315 251,-315 251,-296 310,-296 310,-315"/>
<text text-anchor="middle" x="280.5" y="-303" font-family="Helvetica,sans-Serif" font-size="10.00">cl_predict</text>
</a>
</g>
</g>
<!-- Node2&#45;&gt;Node4 -->
<g id="edge3_Node000002_Node000004" class="edge">
<title>Node2&#45;&gt;Node4</title>
<g id="a_edge3_Node000002_Node000004"><a xlink:title=" ">
<path fill="none" stroke="#63b8ff" d="M186.79,-277.27C202.98,-282.2 223.41,-288.42 240.96,-293.76"/>
<polygon fill="#63b8ff" stroke="#63b8ff" points="240.33,-297.23 250.91,-296.79 242.37,-290.53 240.33,-297.23"/>
</a>
</g>
</g>
<!-- Node6 -->
<g id="Node000006" class="node">
<title>Node6</title>
<g id="a_Node000006"><a xlink:href="condition_8h.html#af8317dec779d25b369473111f5cbd0e1" target="_top" xlink:title="Updates the classifier&#39;s condition.">
<polygon fill="white" stroke="#666666" points="316.5,-278 244.5,-278 244.5,-259 316.5,-259 316.5,-278"/>
<text text-anchor="middle" x="280.5" y="-266" font-family="Helvetica,sans-Serif" font-size="10.00">cond_update</text>
</a>
</g>
</g>
<!-- Node2&#45;&gt;Node6 -->
<g id="edge5_Node000002_Node000006" class="edge">
<title>Node2&#45;&gt;Node6</title>
<g id="a_edge5_Node000002_Node000006"><a xlink:title=" ">
<path fill="none" stroke="#63b8ff" d="M186.79,-268.5C200.95,-268.5 218.35,-268.5 234.24,-268.5"/>
<polygon fill="#63b8ff" stroke="#63b8ff" points="234.41,-272 244.41,-268.5 234.41,-265 234.41,-272"/>
</a>
</g>
</g>
<!-- Node7 -->
<g id="Node000007" class="node">
<title>Node7</title>
<g id="a_Node000007"><a xlink:href="prediction_8h.html#a81932bc605950c43bcc2852a77e47fbd" target="_top" xlink:title="Updates the classifier&#39;s prediction.">
<polygon fill="white" stroke="#666666" points="315.5,-241 245.5,-241 245.5,-222 315.5,-222 315.5,-241"/>
<text text-anchor="middle" x="280.5" y="-229" font-family="Helvetica,sans-Serif" font-size="10.00">pred_update</text>
</a>
</g>
</g>
<!-- Node2&#45;&gt;Node7 -->
<g id="edge6_Node000002_Node000007" class="edge">
<title>Node2&#45;&gt;Node7</title>
<g id="a_edge6_Node000002_Node000007"><a xlink:title=" ">
<path fill="none" stroke="#63b8ff" d="M186.79,-259.73C202.16,-255.05 221.35,-249.21 238.27,-244.06"/>
<polygon fill="#63b8ff" stroke="#63b8ff" points="239.38,-247.38 247.93,-241.11 237.34,-240.68 239.38,-247.38"/>
</a>
</g>
</g>
<!-- Node5 -->
<g id="Node000005" class="node">
<title>Node5</title>
<g id="a_Node000005"><a xlink:href="prediction_8h.html#a6b6f9e53800aae4a64991a811f670541" target="_top" xlink:title="Computes the current classifier prediction using the input.">
<polygon fill="white" stroke="#666666" points="433,-315 355,-315 355,-296 433,-296 433,-315"/>
<text text-anchor="middle" x="394" y="-303" font-family="Helvetica,sans-Serif" font-size="10.00">pred_compute</text>
</a>
</g>
</g>
<!-- Node4&#45;&gt;Node5 -->
<g id="edge4_Node000004_Node000005" class="edge">
<title>Node4&#45;&gt;Node5</title>
<g id="a_edge4_Node000004_Node000005"><a xlink:title=" ">
<path fill="none" stroke="#63b8ff" d="M310.21,-305.5C320.69,-305.5 332.86,-305.5 344.58,-305.5"/>
<polygon fill="#63b8ff" stroke="#63b8ff" points="344.71,-309 354.71,-305.5 344.71,-302 344.71,-309"/>
</a>
</g>
</g>
<!-- Node9 -->
<g id="Node000009" class="node">
<title>Node9</title>
<g id="a_Node000009"><a xlink:href="cl_8c.html#a702d046abd4a69246f5bfd302c523f92" target="_top" xlink:title="Returns whether classifier c1 is more general than c2.">
<polygon fill="white" stroke="#666666" points="311,-204 250,-204 250,-185 311,-185 311,-204"/>
<text text-anchor="middle" x="280.5" y="-192" font-family="Helvetica,sans-Serif" font-size="10.00">cl_general</text>
</a>
</g>
</g>
<!-- Node8&#45;&gt;Node9 -->
<g id="edge8_Node000008_Node000009" class="edge">
<title>Node8&#45;&gt;Node9</title>
<g id="a_edge8_Node000008_Node000009"><a xlink:title=" ">
<path fill="none" stroke="#63b8ff" d="M178.89,-148.13C198.39,-157.12 227.71,-170.63 249.67,-180.75"/>
<polygon fill="#63b8ff" stroke="#63b8ff" points="248.34,-183.99 258.89,-185 251.27,-177.63 248.34,-183.99"/>
</a>
</g>
</g>
<!-- Node12 -->
<g id="Node000012" class="node">
<title>Node12</title>
<g id="a_Node000012"><a xlink:href="cl_8c.html#afb88481d6c45d9a8869936cd5b5d9fc1" target="_top" xlink:title="Returns whether a classifier is a potential subsumer.">
<polygon fill="white" stroke="#666666" points="316.5,-167 244.5,-167 244.5,-148 316.5,-148 316.5,-167"/>
<text text-anchor="middle" x="280.5" y="-155" font-family="Helvetica,sans-Serif" font-size="10.00">cl_subsumer</text>
</a>
</g>
</g>
<!-- Node8&#45;&gt;Node12 -->
<g id="edge11_Node000008_Node000012" class="edge">
<title>Node8&#45;&gt;Node12</title>
<g id="a_edge11_Node000008_Node000012"><a xlink:title=" ">
<path fill="none" stroke="#63b8ff" d="M206.02,-146.01C215.27,-147.46 224.94,-148.97 234.11,-150.4"/>
<polygon fill="#63b8ff" stroke="#63b8ff" points="233.77,-153.89 244.19,-151.98 234.85,-146.98 233.77,-153.89"/>
</a>
</g>
</g>
<!-- Node13 -->
<g id="Node000013" class="node">
<title>Node13</title>
<g id="a_Node000013"><a xlink:href="clset_8c.html#a64d33e6235c57f30a4a3ec82f18e57d6" target="_top" xlink:title="Adds a classifier to the set.">
<polygon fill="white" stroke="#666666" points="310,-130 251,-130 251,-111 310,-111 310,-130"/>
<text text-anchor="middle" x="280.5" y="-118" font-family="Helvetica,sans-Serif" font-size="10.00">clset_add</text>
</a>
</g>
</g>
<!-- Node8&#45;&gt;Node13 -->
<g id="edge12_Node000008_Node000013" class="edge">
<title>Node8&#45;&gt;Node13</title>
<g id="a_edge12_Node000008_Node000013"><a xlink:title=" ">
<path fill="none" stroke="#63b8ff" d="M206.02,-131.39C217.48,-129.69 229.57,-127.9 240.57,-126.27"/>
<polygon fill="#63b8ff" stroke="#63b8ff" points="241.34,-129.69 250.72,-124.76 240.31,-122.77 241.34,-129.69"/>
</a>
</g>
</g>
<!-- Node14 -->
<g id="Node000014" class="node">
<title>Node14</title>
<g id="a_Node000014"><a xlink:href="clset_8c.html#a3bb797f21eed0cdf6fc54b36692e213f" target="_top" xlink:title="Removes classifiers with 0 numerosity from the set.">
<polygon fill="white" stroke="#666666" points="319,-93 242,-93 242,-74 319,-74 319,-93"/>
<text text-anchor="middle" x="280.5" y="-81" font-family="Helvetica,sans-Serif" font-size="10.00">clset_validate</text>
</a>
</g>
</g>
<!-- Node8&#45;&gt;Node14 -->
<g id="edge13_Node000008_Node000014" class="edge">
<title>Node8&#45;&gt;Node14</title>
<g id="a_edge13_Node000008_Node000014"><a xlink:title=" ">
<path fill="none" stroke="#63b8ff" d="M179.16,-128.92C198.47,-120.18 227.23,-107.16 249.01,-97.3"/>
<polygon fill="#63b8ff" stroke="#63b8ff" points="250.5,-100.47 258.17,-93.16 247.62,-94.09 250.5,-100.47"/>
</a>
</g>
</g>
<!-- Node10 -->
<g id="Node000010" class="node">
<title>Node10</title>
<g id="a_Node000010"><a xlink:href="action_8h.html#a7ac7036a6ec0ef8bc76f38ba5d30579d" target="_top" xlink:title="Returns whether the action of classifier c1 is more general than c2.">
<polygon fill="white" stroke="#666666" points="427.5,-223 360.5,-223 360.5,-204 427.5,-204 427.5,-223"/>
<text text-anchor="middle" x="394" y="-211" font-family="Helvetica,sans-Serif" font-size="10.00">act_general</text>
</a>
</g>
</g>
<!-- Node9&#45;&gt;Node10 -->
<g id="edge9_Node000009_Node000010" class="edge">
<title>Node9&#45;&gt;Node10</title>
<g id="a_edge9_Node000009_Node000010"><a xlink:title=" ">
<path fill="none" stroke="#63b8ff" d="M311.09,-199.54C323,-201.57 336.97,-203.95 349.97,-206.17"/>
<polygon fill="#63b8ff" stroke="#63b8ff" points="349.68,-209.67 360.13,-207.9 350.86,-202.77 349.68,-209.67"/>
</a>
</g>
</g>
<!-- Node11 -->
<g id="Node000011" class="node">
<title>Node11</title>
<g id="a_Node000011"><a xlink:href="condition_8h.html#a6a257a1407c9394b7def57701188422d" target="_top" xlink:title="Returns whether classifier c1 has a condition more general than c2.">
<polygon fill="white" stroke="#666666" points="431,-186 357,-186 357,-167 431,-167 431,-186"/>
<text text-anchor="middle" x="394" y="-174" font-family="Helvetica,sans-Serif" font-size="10.00">cond_general</text>
</a>
</g>
</g>
<!-- Node9&#45;&gt;Node11 -->
<g id="edge10_Node000009_Node000011" class="edge">
<title>Node9&#45;&gt;Node11</title>
<g id="a_edge10_Node000009_Node000011"><a xlink:title=" ">
<path fill="none" stroke="#63b8ff" d="M311.09,-189.72C322.08,-187.95 334.82,-185.89 346.93,-183.94"/>
<polygon fill="#63b8ff" stroke="#63b8ff" points="347.59,-187.38 356.9,-182.33 346.47,-180.47 347.59,-187.38"/>
</a>
</g>
</g>
<!-- Node16 -->
<g id="Node000016" class="node">
<title>Node16</title>
<g id="a_Node000016"><a xlink:href="cl_8c.html#ad686da805e2ab762a3d32c321657775f" target="_top" xlink:title="Returns the accuracy of a classifier.">
<polygon fill="white" stroke="#666666" points="303,-56 258,-56 258,-37 303,-37 303,-56"/>
<text text-anchor="middle" x="280.5" y="-44" font-family="Helvetica,sans-Serif" font-size="10.00">cl_acc</text>
</a>
</g>
</g>
<!-- Node15&#45;&gt;Node16 -->
<g id="edge15_Node000015_Node000016" class="edge">
<title>Node15&#45;&gt;Node16</title>
<g id="a_edge15_Node000015_Node000016"><a xlink:title=" ">
<path fill="none" stroke="#63b8ff" d="M200.15,-46.5C215.82,-46.5 233.31,-46.5 247.87,-46.5"/>
<polygon fill="#63b8ff" stroke="#63b8ff" points="247.89,-50 257.89,-46.5 247.89,-43 247.89,-50"/>
</a>
</g>
</g>
<!-- Node17 -->
<g id="Node000017" class="node">
<title>Node17</title>
<g id="a_Node000017"><a xlink:href="cl_8c.html#a5fe8108de575672338fc8e602e469589" target="_top" xlink:title="Updates the fitness of a classifier.">
<polygon fill="white" stroke="#666666" points="316.5,-19 244.5,-19 244.5,0 316.5,0 316.5,-19"/>
<text text-anchor="middle" x="280.5" y="-7" font-family="Helvetica,sans-Serif" font-size="10.00">cl_update_fit</text>
</a>
</g>
</g>
<!-- Node15&#45;&gt;Node17 -->
<g id="edge16_Node000015_Node000017" class="edge">
<title>Node15&#45;&gt;Node17</title>
<g id="a_edge16_Node000015_Node000017"><a xlink:title=" ">
<path fill="none" stroke="#63b8ff" d="M189.29,-36.97C204.2,-32.43 222.22,-26.94 238.23,-22.07"/>
<polygon fill="#63b8ff" stroke="#63b8ff" points="239.35,-25.39 247.89,-19.12 237.31,-18.69 239.35,-25.39"/>
</a>
</g>
</g>
</g>
</svg>
