<?xml version="1.0" encoding="UTF-8" standalone="no"?>
<!DOCTYPE svg PUBLIC "-//W3C//DTD SVG 1.1//EN"
 "http://www.w3.org/Graphics/SVG/1.1/DTD/svg11.dtd">
<!-- Generated by graphviz version 2.43.0 (0)
 -->
<!-- Title: clset_pop_save Pages: 1 -->
<svg width="279pt" height="104pt"
 viewBox="0.00 0.00 279.00 104.00" xmlns="http://www.w3.org/2000/svg" xmlns:xlink="http://www.w3.org/1999/xlink">
<g id="graph0" class="graph" transform="scale(1 1) rotate(0) translate(4 100)">
<title>clset_pop_save</title>
<!-- Node1 -->
<g id="node1" class="node">
<title>Node1</title>
<g id="a_node1"><a xlink:title="Writes the population set to a file.">
<polygon fill="#bfbfbf" stroke="black" points="0,-38.5 0,-57.5 85,-57.5 85,-38.5 0,-38.5"/>
<text text-anchor="middle" x="42.5" y="-45.5" font-family="Helvetica,sans-Serif" font-size="10.00">clset_pop_save</text>
</a>
</g>
</g>
<!-- Node2 -->
<g id="node2" class="node">
<title>Node2</title>
<g id="a_node2"><a xlink:href="cl_8c.html#a9d9005cabc5bb84749bc6fb29c4b9fd9" target="_top" xlink:title="Writes a classifier to a file.">
<polygon fill="none" stroke="black" points="121,-38.5 121,-57.5 171,-57.5 171,-38.5 121,-38.5"/>
<text text-anchor="middle" x="146" y="-45.5" font-family="Helvetica,sans-Serif" font-size="10.00">cl_save</text>
</a>
</g>
</g>
<!-- Node1&#45;&gt;Node2 -->
<g id="edge1" class="edge">
<title>Node1&#45;&gt;Node2</title>
<path fill="none" stroke="midnightblue" d="M85.08,-48C93.62,-48 102.53,-48 110.78,-48"/>
<polygon fill="midnightblue" stroke="midnightblue" points="110.8,-51.5 120.8,-48 110.8,-44.5 110.8,-51.5"/>
</g>
<!-- Node3 -->
<g id="node3" class="node">
<title>Node3</title>
<g id="a_node3"><a xlink:href="action_8h.html#a60392c9bd1cbef6582260ce68267ce87" target="_top" xlink:title="Writes the action to a file.">
<polygon fill="none" stroke="black" points="211,-76.5 211,-95.5 267,-95.5 267,-76.5 211,-76.5"/>
<text text-anchor="middle" x="239" y="-83.5" font-family="Helvetica,sans-Serif" font-size="10.00">act_save</text>
</a>
</g>
</g>
<!-- Node2&#45;&gt;Node3 -->
<g id="edge2" class="edge">
<title>Node2&#45;&gt;Node3</title>
<path fill="none" stroke="midnightblue" d="M169.96,-57.59C180.74,-62.09 193.77,-67.53 205.54,-72.44"/>
<polygon fill="midnightblue" stroke="midnightblue" points="204.47,-75.79 215.04,-76.41 207.17,-69.33 204.47,-75.79"/>
</g>
<!-- Node4 -->
<g id="node4" class="node">
<title>Node4</title>
<g id="a_node4"><a xlink:href="condition_8h.html#a724ee05518d297e814f73a5192e582fc" target="_top" xlink:title="Writes the condition to a file.">
<polygon fill="none" stroke="black" points="207,-38.5 207,-57.5 271,-57.5 271,-38.5 207,-38.5"/>
<text text-anchor="middle" x="239" y="-45.5" font-family="Helvetica,sans-Serif" font-size="10.00">cond_save</text>
</a>
</g>
</g>
<!-- Node2&#45;&gt;Node4 -->
<g id="edge3" class="edge">
<title>Node2&#45;&gt;Node4</title>
<path fill="none" stroke="midnightblue" d="M171.39,-48C179.1,-48 187.85,-48 196.41,-48"/>
<polygon fill="midnightblue" stroke="midnightblue" points="196.68,-51.5 206.68,-48 196.68,-44.5 196.68,-51.5"/>
</g>
<!-- Node5 -->
<g id="node5" class="node">
<title>Node5</title>
<g id="a_node5"><a xlink:href="prediction_8h.html#a6b770c6e0195594d8ebc5dd1b57d0f39" target="_top" xlink:title="Writes the prediction to a file.">
<polygon fill="none" stroke="black" points="208,-0.5 208,-19.5 270,-19.5 270,-0.5 208,-0.5"/>
<text text-anchor="middle" x="239" y="-7.5" font-family="Helvetica,sans-Serif" font-size="10.00">pred_save</text>
</a>
</g>
</g>
<!-- Node2&#45;&gt;Node5 -->
<g id="edge4" class="edge">
<title>Node2&#45;&gt;Node5</title>
<path fill="none" stroke="midnightblue" d="M169.96,-38.41C180.74,-33.91 193.77,-28.47 205.54,-23.56"/>
<polygon fill="midnightblue" stroke="midnightblue" points="207.17,-26.67 215.04,-19.59 204.47,-20.21 207.17,-26.67"/>
</g>
</g>
</svg>
