<?xml version="1.0" encoding="UTF-8" standalone="no"?>
<!DOCTYPE svg PUBLIC "-//W3C//DTD SVG 1.1//EN"
 "http://www.w3.org/Graphics/SVG/1.1/DTD/svg11.dtd">
<!-- Generated by graphviz version 2.43.0 (0)
 -->
<!-- Title: clset_json Pages: 1 -->
<svg width="249pt" height="142pt"
 viewBox="0.00 0.00 249.00 142.00" xmlns="http://www.w3.org/2000/svg" xmlns:xlink="http://www.w3.org/1999/xlink">
<g id="graph0" class="graph" transform="scale(1 1) rotate(0) translate(4 138)">
<title>clset_json</title>
<!-- Node1 -->
<g id="node1" class="node">
<title>Node1</title>
<g id="a_node1"><a xlink:title="Returns a json formatted string representation of a classifier set.">
<polygon fill="#bfbfbf" stroke="black" points="0,-57.5 0,-76.5 61,-76.5 61,-57.5 0,-57.5"/>
<text text-anchor="middle" x="30.5" y="-64.5" font-family="Helvetica,sans-Serif" font-size="10.00">clset_json</text>
</a>
</g>
</g>
<!-- Node2 -->
<g id="node2" class="node">
<title>Node2</title>
<g id="a_node2"><a xlink:href="cl_8c.html#a3ced97d2a8ea11bd013cd782338803cf" target="_top" xlink:title="Returns a json formatted string representation of a classifier.">
<polygon fill="none" stroke="black" points="97,-57.5 97,-76.5 144,-76.5 144,-57.5 97,-57.5"/>
<text text-anchor="middle" x="120.5" y="-64.5" font-family="Helvetica,sans-Serif" font-size="10.00">cl_json</text>
</a>
</g>
</g>
<!-- Node1&#45;&gt;Node2 -->
<g id="edge1" class="edge">
<title>Node1&#45;&gt;Node2</title>
<path fill="none" stroke="midnightblue" d="M61.29,-67C69.5,-67 78.44,-67 86.8,-67"/>
<polygon fill="midnightblue" stroke="midnightblue" points="86.97,-70.5 96.97,-67 86.97,-63.5 86.97,-70.5"/>
</g>
<!-- Node3 -->
<g id="node3" class="node">
<title>Node3</title>
<g id="a_node3"><a xlink:href="action_8h.html#a4a107f6e656b970ff78149f43a92c9ba" target="_top" xlink:title="Returns a json formatted string representation of an action .">
<polygon fill="none" stroke="black" points="184,-114.5 184,-133.5 237,-133.5 237,-114.5 184,-114.5"/>
<text text-anchor="middle" x="210.5" y="-121.5" font-family="Helvetica,sans-Serif" font-size="10.00">act_json</text>
</a>
</g>
</g>
<!-- Node2&#45;&gt;Node3 -->
<g id="edge2" class="edge">
<title>Node2&#45;&gt;Node3</title>
<path fill="none" stroke="midnightblue" d="M136.4,-76.7C148.21,-84.39 165.15,-95.4 180,-105 181.91,-106.24 183.89,-107.52 185.89,-108.8"/>
<polygon fill="midnightblue" stroke="midnightblue" points="184.18,-111.87 194.49,-114.35 187.98,-105.99 184.18,-111.87"/>
</g>
<!-- Node4 -->
<g id="node4" class="node">
<title>Node4</title>
<g id="a_node4"><a xlink:href="cl_8c.html#ad686da805e2ab762a3d32c321657775f" target="_top" xlink:title="Returns the accuracy of a classifier.">
<polygon fill="none" stroke="black" points="188,-76.5 188,-95.5 233,-95.5 233,-76.5 188,-76.5"/>
<text text-anchor="middle" x="210.5" y="-83.5" font-family="Helvetica,sans-Serif" font-size="10.00">cl_acc</text>
</a>
</g>
</g>
<!-- Node2&#45;&gt;Node4 -->
<g id="edge3" class="edge">
<title>Node2&#45;&gt;Node4</title>
<path fill="none" stroke="midnightblue" d="M144.16,-71.89C154.46,-74.12 166.8,-76.78 177.98,-79.19"/>
<polygon fill="midnightblue" stroke="midnightblue" points="177.31,-82.63 187.82,-81.32 178.79,-75.79 177.31,-82.63"/>
</g>
<!-- Node5 -->
<g id="node5" class="node">
<title>Node5</title>
<g id="a_node5"><a xlink:href="condition_8h.html#a982c2f6d85f16b2fa551eaed86c36fa8" target="_top" xlink:title="Returns a json formatted string representation of a condition.">
<polygon fill="none" stroke="black" points="180,-38.5 180,-57.5 241,-57.5 241,-38.5 180,-38.5"/>
<text text-anchor="middle" x="210.5" y="-45.5" font-family="Helvetica,sans-Serif" font-size="10.00">cond_json</text>
</a>
</g>
</g>
<!-- Node2&#45;&gt;Node5 -->
<g id="edge4" class="edge">
<title>Node2&#45;&gt;Node5</title>
<path fill="none" stroke="midnightblue" d="M144.16,-62.11C152.08,-60.4 161.21,-58.43 170.1,-56.51"/>
<polygon fill="midnightblue" stroke="midnightblue" points="170.9,-59.91 179.94,-54.38 169.43,-53.07 170.9,-59.91"/>
</g>
<!-- Node6 -->
<g id="node6" class="node">
<title>Node6</title>
<g id="a_node6"><a xlink:href="prediction_8h.html#aec68a45ab05535fb179732d0a70f2fa3" target="_top" xlink:title="Returns a json formatted string representation of a prediction.">
<polygon fill="none" stroke="black" points="181,-0.5 181,-19.5 240,-19.5 240,-0.5 181,-0.5"/>
<text text-anchor="middle" x="210.5" y="-7.5" font-family="Helvetica,sans-Serif" font-size="10.00">pred_json</text>
</a>
</g>
</g>
<!-- Node2&#45;&gt;Node6 -->
<g id="edge5" class="edge">
<title>Node2&#45;&gt;Node6</title>
<path fill="none" stroke="midnightblue" d="M136.4,-57.3C148.21,-49.61 165.15,-38.6 180,-29 181.91,-27.76 183.89,-26.48 185.89,-25.2"/>
<polygon fill="midnightblue" stroke="midnightblue" points="187.98,-28.01 194.49,-19.65 184.18,-22.13 187.98,-28.01"/>
</g>
</g>
</svg>
