<?xml version="1.0" encoding="UTF-8" standalone="no"?>
<!DOCTYPE svg PUBLIC "-//W3C//DTD SVG 1.1//EN"
 "http://www.w3.org/Graphics/SVG/1.1/DTD/svg11.dtd">
<!-- Generated by graphviz version 2.43.0 (0)
 -->
<!-- Title: clset_cover Pages: 1 -->
<svg width="708pt" height="410pt"
 viewBox="0.00 0.00 708.00 410.00" xmlns="http://www.w3.org/2000/svg" xmlns:xlink="http://www.w3.org/1999/xlink">
<g id="graph0" class="graph" transform="scale(1 1) rotate(0) translate(4 406)">
<title>clset_cover</title>
<!-- Node1 -->
<g id="node1" class="node">
<title>Node1</title>
<g id="a_node1"><a xlink:title="Ensures all possible actions are covered by the match set.">
<polygon fill="#bfbfbf" stroke="black" points="0,-173.5 0,-192.5 67,-192.5 67,-173.5 0,-173.5"/>
<text text-anchor="middle" x="33.5" y="-180.5" font-family="Helvetica,sans-Serif" font-size="10.00">clset_cover</text>
</a>
</g>
</g>
<!-- Node2 -->
<g id="node2" class="node">
<title>Node2</title>
<g id="a_node2"><a xlink:href="cl_8c.html#ab80c62ad6a09b3243f499a7ad9ef95cd" target="_top" xlink:title="Covers the condition and action for a classifier.">
<polygon fill="none" stroke="black" points="133.5,-268.5 133.5,-287.5 186.5,-287.5 186.5,-268.5 133.5,-268.5"/>
<text text-anchor="middle" x="160" y="-275.5" font-family="Helvetica,sans-Serif" font-size="10.00">cl_cover</text>
</a>
</g>
</g>
<!-- Node1&#45;&gt;Node2 -->
<g id="edge1" class="edge">
<title>Node1&#45;&gt;Node2</title>
<path fill="none" stroke="midnightblue" d="M40.7,-192.61C51.49,-208.6 75.26,-240.74 103,-259 109.31,-263.15 116.62,-266.49 123.83,-269.13"/>
<polygon fill="midnightblue" stroke="midnightblue" points="122.9,-272.51 133.5,-272.32 125.1,-265.87 122.9,-272.51"/>
</g>
<!-- Node12 -->
<g id="node12" class="node">
<title>Node12</title>
<g id="a_node12"><a xlink:href="cl_8c.html#a188fac458e06c9a27e0e4069f7ddb68a" target="_top" xlink:title="Initialises a new classifier &#45; but not condition, action, prediction.">
<polygon fill="none" stroke="black" points="139,-230.5 139,-249.5 181,-249.5 181,-230.5 139,-230.5"/>
<text text-anchor="middle" x="160" y="-237.5" font-family="Helvetica,sans-Serif" font-size="10.00">cl_init</text>
</a>
</g>
</g>
<!-- Node1&#45;&gt;Node12 -->
<g id="edge11" class="edge">
<title>Node1&#45;&gt;Node12</title>
<path fill="none" stroke="midnightblue" d="M49.87,-192.58C63.49,-200.8 84.1,-212.63 103,-221 111.37,-224.7 120.7,-228.13 129.3,-231.03"/>
<polygon fill="midnightblue" stroke="midnightblue" points="128.38,-234.41 138.97,-234.17 130.54,-227.75 128.38,-234.41"/>
</g>
<!-- Node13 -->
<g id="node13" class="node">
<title>Node13</title>
<g id="a_node13"><a xlink:href="clset_8c.html#af1f8c646fef336390c16b4ba0572ff6f" target="_top" xlink:title="Checks whether each action is covered by the match set.">
<polygon fill="none" stroke="black" points="103,-192.5 103,-211.5 217,-211.5 217,-192.5 103,-192.5"/>
<text text-anchor="middle" x="160" y="-199.5" font-family="Helvetica,sans-Serif" font-size="10.00">clset_action_coverage</text>
</a>
</g>
</g>
<!-- Node1&#45;&gt;Node13 -->
<g id="edge12" class="edge">
<title>Node1&#45;&gt;Node13</title>
<path fill="none" stroke="midnightblue" d="M67.21,-187.99C75.17,-189.21 83.96,-190.55 92.86,-191.91"/>
<polygon fill="midnightblue" stroke="midnightblue" points="92.51,-195.39 102.92,-193.44 93.56,-188.47 92.51,-195.39"/>
</g>
<!-- Node14 -->
<g id="node14" class="node">
<title>Node14</title>
<g id="a_node14"><a xlink:href="clset_8c.html#a64d33e6235c57f30a4a3ec82f18e57d6" target="_top" xlink:title="Adds a classifier to the set.">
<polygon fill="none" stroke="black" points="401,-153.5 401,-172.5 460,-172.5 460,-153.5 401,-153.5"/>
<text text-anchor="middle" x="430.5" y="-160.5" font-family="Helvetica,sans-Serif" font-size="10.00">clset_add</text>
</a>
</g>
</g>
<!-- Node1&#45;&gt;Node14 -->
<g id="edge13" class="edge">
<title>Node1&#45;&gt;Node14</title>
<path fill="none" stroke="midnightblue" d="M67.16,-181.35C139.45,-177.69 312.73,-168.91 390.53,-164.97"/>
<polygon fill="midnightblue" stroke="midnightblue" points="391.04,-168.45 400.85,-164.45 390.69,-161.46 391.04,-168.45"/>
</g>
<!-- Node15 -->
<g id="node15" class="node">
<title>Node15</title>
<g id="a_node15"><a xlink:href="clset_8c.html#a5e05b1d84c921f8f83e90d636b2f59fd" target="_top" xlink:title="Enforces the maximum population size limit.">
<polygon fill="none" stroke="black" points="110.5,-105 110.5,-135 209.5,-135 209.5,-105 110.5,-105"/>
<text text-anchor="start" x="118.5" y="-123" font-family="Helvetica,sans-Serif" font-size="10.00">clset_pset_enforce</text>
<text text-anchor="middle" x="160" y="-112" font-family="Helvetica,sans-Serif" font-size="10.00">_limit</text>
</a>
</g>
</g>
<!-- Node1&#45;&gt;Node15 -->
<g id="edge14" class="edge">
<title>Node1&#45;&gt;Node15</title>
<path fill="none" stroke="midnightblue" d="M53.41,-173.43C71.03,-164.52 97.84,-150.95 120.04,-139.72"/>
<polygon fill="midnightblue" stroke="midnightblue" points="121.89,-142.7 129.23,-135.07 118.73,-136.46 121.89,-142.7"/>
</g>
<!-- Node26 -->
<g id="node26" class="node">
<title>Node26</title>
<g id="a_node26"><a xlink:href="clset_8c.html#a3bb797f21eed0cdf6fc54b36692e213f" target="_top" xlink:title="Removes classifiers with 0 numerosity from the set.">
<polygon fill="none" stroke="black" points="121.5,-66.5 121.5,-85.5 198.5,-85.5 198.5,-66.5 121.5,-66.5"/>
<text text-anchor="middle" x="160" y="-73.5" font-family="Helvetica,sans-Serif" font-size="10.00">clset_validate</text>
</a>
</g>
</g>
<!-- Node1&#45;&gt;Node26 -->
<g id="edge26" class="edge">
<title>Node1&#45;&gt;Node26</title>
<path fill="none" stroke="midnightblue" d="M39.52,-173.29C49.32,-155.27 72.71,-116.55 103,-95 105.85,-92.97 108.93,-91.15 112.13,-89.51"/>
<polygon fill="midnightblue" stroke="midnightblue" points="113.68,-92.66 121.37,-85.37 110.82,-86.27 113.68,-92.66"/>
</g>
<!-- Node3 -->
<g id="node3" class="node">
<title>Node3</title>
<g id="a_node3"><a xlink:href="action_8h.html#a4760df86361ac4ed8c85d985c37a6d3d" target="_top" xlink:title="Generates an action that matches the specified value.">
<polygon fill="none" stroke="black" points="263.5,-306.5 263.5,-325.5 322.5,-325.5 322.5,-306.5 263.5,-306.5"/>
<text text-anchor="middle" x="293" y="-313.5" font-family="Helvetica,sans-Serif" font-size="10.00">act_cover</text>
</a>
</g>
</g>
<!-- Node2&#45;&gt;Node3 -->
<g id="edge2" class="edge">
<title>Node2&#45;&gt;Node3</title>
<path fill="none" stroke="midnightblue" d="M186.57,-285.42C205.6,-290.94 231.89,-298.56 253.46,-304.82"/>
<polygon fill="midnightblue" stroke="midnightblue" points="252.73,-308.25 263.31,-307.68 254.68,-301.53 252.73,-308.25"/>
</g>
<!-- Node4 -->
<g id="node4" class="node">
<title>Node4</title>
<g id="a_node4"><a xlink:href="cl_8c.html#a47e450b7a0f97f3662080f311b6bad0d" target="_top" xlink:title="Initialises random actions, conditions and predictions.">
<polygon fill="none" stroke="black" points="269,-268.5 269,-287.5 317,-287.5 317,-268.5 269,-268.5"/>
<text text-anchor="middle" x="293" y="-275.5" font-family="Helvetica,sans-Serif" font-size="10.00">cl_rand</text>
</a>
</g>
</g>
<!-- Node2&#45;&gt;Node4 -->
<g id="edge3" class="edge">
<title>Node2&#45;&gt;Node4</title>
<path fill="none" stroke="midnightblue" d="M186.57,-278C207.14,-278 236.2,-278 258.61,-278"/>
<polygon fill="midnightblue" stroke="midnightblue" points="258.69,-281.5 268.69,-278 258.69,-274.5 258.69,-281.5"/>
</g>
<!-- Node11 -->
<g id="node11" class="node">
<title>Node11</title>
<g id="a_node11"><a xlink:href="condition_8h.html#abfb169263bdeb3b4bac3fa532a6f6ef4" target="_top" xlink:title="Generates a condition that matches the current input.">
<polygon fill="none" stroke="black" points="259.5,-230.5 259.5,-249.5 326.5,-249.5 326.5,-230.5 259.5,-230.5"/>
<text text-anchor="middle" x="293" y="-237.5" font-family="Helvetica,sans-Serif" font-size="10.00">cond_cover</text>
</a>
</g>
</g>
<!-- Node2&#45;&gt;Node11 -->
<g id="edge10" class="edge">
<title>Node2&#45;&gt;Node11</title>
<path fill="none" stroke="midnightblue" d="M186.57,-270.58C204.36,-265.42 228.5,-258.42 249.2,-252.42"/>
<polygon fill="midnightblue" stroke="midnightblue" points="250.41,-255.71 259.03,-249.56 248.46,-248.99 250.41,-255.71"/>
</g>
<!-- Node5 -->
<g id="node5" class="node">
<title>Node5</title>
<g id="a_node5"><a xlink:href="action_8h.html#a124e361f0b13d0c29206bd9c05bd9fd4" target="_top" xlink:title="Initialises a classifier&#39;s action.">
<polygon fill="none" stroke="black" points="406.5,-382.5 406.5,-401.5 454.5,-401.5 454.5,-382.5 406.5,-382.5"/>
<text text-anchor="middle" x="430.5" y="-389.5" font-family="Helvetica,sans-Serif" font-size="10.00">act_init</text>
</a>
</g>
</g>
<!-- Node4&#45;&gt;Node5 -->
<g id="edge4" class="edge">
<title>Node4&#45;&gt;Node5</title>
<path fill="none" stroke="midnightblue" d="M317.13,-286.11C322.82,-288.91 328.55,-292.5 333,-297 359.28,-323.57 340.81,-348.46 369,-373 376.7,-379.71 386.77,-384.05 396.47,-386.86"/>
<polygon fill="midnightblue" stroke="midnightblue" points="395.8,-390.29 406.34,-389.26 397.45,-383.49 395.8,-390.29"/>
</g>
<!-- Node6 -->
<g id="node6" class="node">
<title>Node6</title>
<g id="a_node6"><a xlink:href="action_8c.html#a57d1606f2517912f1f56018f095761e9" target="_top" xlink:title="Sets a classifier&#39;s action functions to the implementations.">
<polygon fill="none" stroke="black" points="399.5,-344.5 399.5,-363.5 461.5,-363.5 461.5,-344.5 399.5,-344.5"/>
<text text-anchor="middle" x="430.5" y="-351.5" font-family="Helvetica,sans-Serif" font-size="10.00">action_set</text>
</a>
</g>
</g>
<!-- Node4&#45;&gt;Node6 -->
<g id="edge5" class="edge">
<title>Node4&#45;&gt;Node6</title>
<path fill="none" stroke="midnightblue" d="M317.07,-287.54C322.51,-290.24 328.14,-293.44 333,-297 351.76,-310.76 349.27,-322.67 369,-335 375.29,-338.93 382.46,-342.11 389.61,-344.66"/>
<polygon fill="midnightblue" stroke="midnightblue" points="388.68,-348.03 399.27,-347.75 390.81,-341.37 388.68,-348.03"/>
</g>
<!-- Node7 -->
<g id="node7" class="node">
<title>Node7</title>
<g id="a_node7"><a xlink:href="condition_8h.html#ad8a71ebe28cc52430a49610bfe5f7836" target="_top" xlink:title="Initialises a classifier&#39;s condition.">
<polygon fill="none" stroke="black" points="402.5,-306.5 402.5,-325.5 458.5,-325.5 458.5,-306.5 402.5,-306.5"/>
<text text-anchor="middle" x="430.5" y="-313.5" font-family="Helvetica,sans-Serif" font-size="10.00">cond_init</text>
</a>
</g>
</g>
<!-- Node4&#45;&gt;Node7 -->
<g id="edge6" class="edge">
<title>Node4&#45;&gt;Node7</title>
<path fill="none" stroke="midnightblue" d="M317.29,-284.53C337.95,-290.33 368.48,-298.89 392.48,-305.62"/>
<polygon fill="midnightblue" stroke="midnightblue" points="391.75,-309.05 402.32,-308.38 393.64,-302.31 391.75,-309.05"/>
</g>
<!-- Node8 -->
<g id="node8" class="node">
<title>Node8</title>
<g id="a_node8"><a xlink:href="condition_8c.html#a16981837f523cea3a917404e441981b3" target="_top" xlink:title="Sets a classifier&#39;s condition functions to the implementations.">
<polygon fill="none" stroke="black" points="393.5,-268.5 393.5,-287.5 467.5,-287.5 467.5,-268.5 393.5,-268.5"/>
<text text-anchor="middle" x="430.5" y="-275.5" font-family="Helvetica,sans-Serif" font-size="10.00">condition_set</text>
</a>
</g>
</g>
<!-- Node4&#45;&gt;Node8 -->
<g id="edge7" class="edge">
<title>Node4&#45;&gt;Node8</title>
<path fill="none" stroke="midnightblue" d="M317.29,-278C335.32,-278 360.87,-278 383.04,-278"/>
<polygon fill="midnightblue" stroke="midnightblue" points="383.27,-281.5 393.27,-278 383.27,-274.5 383.27,-281.5"/>
</g>
<!-- Node9 -->
<g id="node9" class="node">
<title>Node9</title>
<g id="a_node9"><a xlink:href="prediction_8h.html#ac18761d16e606f80e814a15d1770d367" target="_top" xlink:title="Initialises a classifier&#39;s prediction.">
<polygon fill="none" stroke="black" points="404,-230.5 404,-249.5 457,-249.5 457,-230.5 404,-230.5"/>
<text text-anchor="middle" x="430.5" y="-237.5" font-family="Helvetica,sans-Serif" font-size="10.00">pred_init</text>
</a>
</g>
</g>
<!-- Node4&#45;&gt;Node9 -->
<g id="edge8" class="edge">
<title>Node4&#45;&gt;Node9</title>
<path fill="none" stroke="midnightblue" d="M317.29,-271.47C338.35,-265.56 369.66,-256.78 393.86,-250"/>
<polygon fill="midnightblue" stroke="midnightblue" points="395.06,-253.29 403.74,-247.22 393.17,-246.55 395.06,-253.29"/>
</g>
<!-- Node10 -->
<g id="node10" class="node">
<title>Node10</title>
<g id="a_node10"><a xlink:href="prediction_8c.html#a81ad118db1c9b692c45880e6f3a33ec4" target="_top" xlink:title="Sets a classifier&#39;s prediction functions to the implementations.">
<polygon fill="none" stroke="black" points="392,-192.5 392,-211.5 469,-211.5 469,-192.5 392,-192.5"/>
<text text-anchor="middle" x="430.5" y="-199.5" font-family="Helvetica,sans-Serif" font-size="10.00">prediction_set</text>
</a>
</g>
</g>
<!-- Node4&#45;&gt;Node10 -->
<g id="edge9" class="edge">
<title>Node4&#45;&gt;Node10</title>
<path fill="none" stroke="midnightblue" d="M317.07,-268.46C322.51,-265.76 328.14,-262.56 333,-259 351.76,-245.24 349.27,-233.33 369,-221 373.1,-218.44 377.58,-216.19 382.18,-214.24"/>
<polygon fill="midnightblue" stroke="midnightblue" points="383.62,-217.44 391.72,-210.61 381.13,-210.89 383.62,-217.44"/>
</g>
<!-- Node16 -->
<g id="node16" class="node">
<title>Node16</title>
<g id="a_node16"><a xlink:href="clset_8c.html#a106a72afb7785af1d1b639736a6340be" target="_top" xlink:title="Deletes a single classifier from the population set.">
<polygon fill="none" stroke="black" points="253,-113.5 253,-132.5 333,-132.5 333,-113.5 253,-113.5"/>
<text text-anchor="middle" x="293" y="-120.5" font-family="Helvetica,sans-Serif" font-size="10.00">clset_pset_del</text>
</a>
</g>
</g>
<!-- Node15&#45;&gt;Node16 -->
<g id="edge15" class="edge">
<title>Node15&#45;&gt;Node16</title>
<path fill="none" stroke="midnightblue" d="M209.78,-121.12C220.58,-121.36 232.04,-121.63 242.86,-121.87"/>
<polygon fill="midnightblue" stroke="midnightblue" points="242.92,-125.38 252.99,-122.11 243.08,-118.38 242.92,-125.38"/>
</g>
<!-- Node16&#45;&gt;Node14 -->
<g id="edge16" class="edge">
<title>Node16&#45;&gt;Node14</title>
<path fill="none" stroke="midnightblue" d="M326.46,-132.58C345.97,-138.34 370.9,-145.7 391.35,-151.74"/>
<polygon fill="midnightblue" stroke="midnightblue" points="390.41,-155.11 400.99,-154.58 392.39,-148.39 390.41,-155.11"/>
</g>
<!-- Node17 -->
<g id="node17" class="node">
<title>Node17</title>
<g id="a_node17"><a xlink:href="clset_8c.html#a7e9703db2e290a5b852b1112f52f4803" target="_top" xlink:title="Finds a rule in the population that never matches an input.">
<polygon fill="none" stroke="black" points="369,-114.5 369,-133.5 492,-133.5 492,-114.5 369,-114.5"/>
<text text-anchor="middle" x="430.5" y="-121.5" font-family="Helvetica,sans-Serif" font-size="10.00">clset_pset_never_match</text>
</a>
</g>
</g>
<!-- Node16&#45;&gt;Node17 -->
<g id="edge17" class="edge">
<title>Node16&#45;&gt;Node17</title>
<path fill="none" stroke="midnightblue" d="M333.19,-123.29C341.23,-123.35 349.91,-123.41 358.67,-123.48"/>
<polygon fill="midnightblue" stroke="midnightblue" points="358.92,-126.98 368.95,-123.55 358.98,-119.98 358.92,-126.98"/>
</g>
<!-- Node18 -->
<g id="node18" class="node">
<title>Node18</title>
<g id="a_node18"><a xlink:href="clset_8c.html#a7ddb1248094ce9b41cf314b833798b29" target="_top" xlink:title="Selects a classifier from the population for deletion via roulette.">
<polygon fill="none" stroke="black" points="381,-76.5 381,-95.5 480,-95.5 480,-76.5 381,-76.5"/>
<text text-anchor="middle" x="430.5" y="-83.5" font-family="Helvetica,sans-Serif" font-size="10.00">clset_pset_roulette</text>
</a>
</g>
</g>
<!-- Node16&#45;&gt;Node18 -->
<g id="edge18" class="edge">
<title>Node16&#45;&gt;Node18</title>
<path fill="none" stroke="midnightblue" d="M328.89,-113.47C345.83,-108.85 366.38,-103.23 384.49,-98.29"/>
<polygon fill="midnightblue" stroke="midnightblue" points="385.53,-101.64 394.25,-95.62 383.68,-94.88 385.53,-101.64"/>
</g>
<!-- Node19 -->
<g id="node19" class="node">
<title>Node19</title>
<g id="a_node19"><a xlink:href="cl_8c.html#a281f748c300892281088a51455c6657b" target="_top" xlink:title="Returns the size of a classifier&#39;s condition.">
<polygon fill="none" stroke="black" points="528.5,-152.5 528.5,-171.5 602.5,-171.5 602.5,-152.5 528.5,-152.5"/>
<text text-anchor="middle" x="565.5" y="-159.5" font-family="Helvetica,sans-Serif" font-size="10.00">cl_cond_size</text>
</a>
</g>
</g>
<!-- Node18&#45;&gt;Node19 -->
<g id="edge19" class="edge">
<title>Node18&#45;&gt;Node19</title>
<path fill="none" stroke="midnightblue" d="M471.83,-95.5C478.83,-98.02 485.84,-101.15 492,-105 511.73,-117.33 509.43,-128.99 528,-143 530.05,-144.54 532.24,-146.03 534.49,-147.44"/>
<polygon fill="midnightblue" stroke="midnightblue" points="532.9,-150.56 543.32,-152.49 536.37,-144.48 532.9,-150.56"/>
</g>
<!-- Node21 -->
<g id="node21" class="node">
<title>Node21</title>
<g id="a_node21"><a xlink:href="cl_8c.html#ae083f9dc65912cf983795d134006e236" target="_top" xlink:title="Returns the deletion vote of a classifier.">
<polygon fill="none" stroke="black" points="532.5,-114.5 532.5,-133.5 598.5,-133.5 598.5,-114.5 532.5,-114.5"/>
<text text-anchor="middle" x="565.5" y="-121.5" font-family="Helvetica,sans-Serif" font-size="10.00">cl_del_vote</text>
</a>
</g>
</g>
<!-- Node18&#45;&gt;Node21 -->
<g id="edge21" class="edge">
<title>Node18&#45;&gt;Node21</title>
<path fill="none" stroke="midnightblue" d="M465.06,-95.59C482.54,-100.58 504.09,-106.74 522.65,-112.04"/>
<polygon fill="midnightblue" stroke="midnightblue" points="521.75,-115.43 532.33,-114.81 523.67,-108.69 521.75,-115.43"/>
</g>
<!-- Node22 -->
<g id="node22" class="node">
<title>Node22</title>
<g id="a_node22"><a xlink:href="cl_8c.html#a038173dbbcd18ef6820dfb07e7ea0d39" target="_top" xlink:title="Returns the size of a classifier&#39;s prediction.">
<polygon fill="none" stroke="black" points="530,-76.5 530,-95.5 601,-95.5 601,-76.5 530,-76.5"/>
<text text-anchor="middle" x="565.5" y="-83.5" font-family="Helvetica,sans-Serif" font-size="10.00">cl_pred_size</text>
</a>
</g>
</g>
<!-- Node18&#45;&gt;Node22 -->
<g id="edge22" class="edge">
<title>Node18&#45;&gt;Node22</title>
<path fill="none" stroke="midnightblue" d="M480.27,-86C493.13,-86 506.94,-86 519.58,-86"/>
<polygon fill="midnightblue" stroke="midnightblue" points="519.88,-89.5 529.88,-86 519.88,-82.5 519.88,-89.5"/>
</g>
<!-- Node24 -->
<g id="node24" class="node">
<title>Node24</title>
<g id="a_node24"><a xlink:href="clset_8c.html#a27da8860873485883cc85edfac13da87" target="_top" xlink:title="Calculates the total fitness of classifiers in the set.">
<polygon fill="none" stroke="black" points="528,-38.5 528,-57.5 603,-57.5 603,-38.5 528,-38.5"/>
<text text-anchor="middle" x="565.5" y="-45.5" font-family="Helvetica,sans-Serif" font-size="10.00">clset_total_fit</text>
</a>
</g>
</g>
<!-- Node18&#45;&gt;Node24 -->
<g id="edge24" class="edge">
<title>Node18&#45;&gt;Node24</title>
<path fill="none" stroke="midnightblue" d="M465.06,-76.41C482.07,-71.55 502.93,-65.59 521.14,-60.39"/>
<polygon fill="midnightblue" stroke="midnightblue" points="522.3,-63.7 530.95,-57.59 520.37,-56.97 522.3,-63.7"/>
</g>
<!-- Node25 -->
<g id="node25" class="node">
<title>Node25</title>
<g id="a_node25"><a xlink:href="utils_8c.html#a972761ba8f47a6c3e7396a7c685158fc" target="_top" xlink:title="Returns a uniform random float [min,max].">
<polygon fill="none" stroke="black" points="529,-0.5 529,-19.5 602,-19.5 602,-0.5 529,-0.5"/>
<text text-anchor="middle" x="565.5" y="-7.5" font-family="Helvetica,sans-Serif" font-size="10.00">rand_uniform</text>
</a>
</g>
</g>
<!-- Node18&#45;&gt;Node25 -->
<g id="edge25" class="edge">
<title>Node18&#45;&gt;Node25</title>
<path fill="none" stroke="midnightblue" d="M447.06,-76.46C466.01,-64.92 499.08,-45.05 528,-29 530.72,-27.49 533.58,-25.94 536.44,-24.41"/>
<polygon fill="midnightblue" stroke="midnightblue" points="538.23,-27.42 545.45,-19.67 534.97,-21.23 538.23,-27.42"/>
</g>
<!-- Node20 -->
<g id="node20" class="node">
<title>Node20</title>
<g id="a_node20"><a xlink:href="condition_8h.html#ab5392bcc5c6bee45ac2612c7c560be5c" target="_top" xlink:title="Returns the size of the classifier condition.">
<polygon fill="none" stroke="black" points="639,-152.5 639,-171.5 700,-171.5 700,-152.5 639,-152.5"/>
<text text-anchor="middle" x="669.5" y="-159.5" font-family="Helvetica,sans-Serif" font-size="10.00">cond_size</text>
</a>
</g>
</g>
<!-- Node19&#45;&gt;Node20 -->
<g id="edge20" class="edge">
<title>Node19&#45;&gt;Node20</title>
<path fill="none" stroke="midnightblue" d="M602.75,-162C611.13,-162 620.1,-162 628.63,-162"/>
<polygon fill="midnightblue" stroke="midnightblue" points="628.76,-165.5 638.76,-162 628.76,-158.5 628.76,-165.5"/>
</g>
<!-- Node23 -->
<g id="node23" class="node">
<title>Node23</title>
<g id="a_node23"><a xlink:href="prediction_8h.html#a0ac1eb269367fc7adb967e3cb4b2db50" target="_top" xlink:title="Returns the size of the classifier prediction.">
<polygon fill="none" stroke="black" points="640,-76.5 640,-95.5 699,-95.5 699,-76.5 640,-76.5"/>
<text text-anchor="middle" x="669.5" y="-83.5" font-family="Helvetica,sans-Serif" font-size="10.00">pred_size</text>
</a>
</g>
</g>
<!-- Node22&#45;&gt;Node23 -->
<g id="edge23" class="edge">
<title>Node22&#45;&gt;Node23</title>
<path fill="none" stroke="midnightblue" d="M601.03,-86C610.19,-86 620.13,-86 629.51,-86"/>
<polygon fill="midnightblue" stroke="midnightblue" points="629.77,-89.5 639.77,-86 629.77,-82.5 629.77,-89.5"/>
</g>
</g>
</svg>
