<?xml version="1.0" encoding="UTF-8" standalone="no"?>
<!DOCTYPE svg PUBLIC "-//W3C//DTD SVG 1.1//EN"
 "http://www.w3.org/Graphics/SVG/1.1/DTD/svg11.dtd">
<!-- Generated by graphviz version 2.43.0 (0)
 -->
<!-- Title: clset.h Pages: 1 -->
<svg width="536pt" height="82pt"
 viewBox="0.00 0.00 536.00 82.00" xmlns="http://www.w3.org/2000/svg" xmlns:xlink="http://www.w3.org/1999/xlink">
<g id="graph0" class="graph" transform="scale(1 1) rotate(0) translate(4 78)">
<title>clset.h</title>
<!-- Node1 -->
<g id="Node000001" class="node">
<title>Node1</title>
<g id="a_Node000001"><a xlink:title="Functions operating on sets of classifiers.">
<polygon fill="#999999" stroke="#666666" points="257,-74 211,-74 211,-55 257,-55 257,-74"/>
<text text-anchor="middle" x="234" y="-62" font-family="Helvetica,sans-Serif" font-size="10.00">clset.h</text>
</a>
</g>
</g>
<!-- Node2 -->
<g id="Node000002" class="node">
<title>Node2</title>
<g id="a_Node000002"><a xlink:href="clset_8c.html" target="_top" xlink:title="Functions operating on sets of classifiers.">
<polygon fill="white" stroke="#666666" points="46,-19 0,-19 0,0 46,0 46,-19"/>
<text text-anchor="middle" x="23" y="-7" font-family="Helvetica,sans-Serif" font-size="10.00">clset.c</text>
</a>
</g>
</g>
<!-- Node1&#45;&gt;Node2 -->
<g id="edge1_Node000001_Node000002" class="edge">
<title>Node1&#45;&gt;Node2</title>
<g id="a_edge1_Node000001_Node000002"><a xlink:title=" ">
<path fill="none" stroke="#63b8ff" d="M200.86,-55.43C164.9,-46.63 105.81,-32.06 55,-19 52.11,-18.26 49.07,-17.46 46.06,-16.67"/>
<polygon fill="#63b8ff" stroke="#63b8ff" points="200.25,-58.88 210.8,-57.86 201.92,-52.08 200.25,-58.88"/>
</a>
</g>
</g>
<!-- Node3 -->
<g id="Node000003" class="node">
<title>Node3</title>
<g id="a_Node000003"><a xlink:href="ea_8c.html" target="_top" xlink:title="Evolutionary algorithm functions.">
<polygon fill="white" stroke="#666666" points="99.5,-19 64.5,-19 64.5,0 99.5,0 99.5,-19"/>
<text text-anchor="middle" x="82" y="-7" font-family="Helvetica,sans-Serif" font-size="10.00">ea.c</text>
</a>
</g>
</g>
<!-- Node1&#45;&gt;Node3 -->
<g id="edge2_Node000001_Node000003" class="edge">
<title>Node1&#45;&gt;Node3</title>
<g id="a_edge2_Node000001_Node000003"><a xlink:title=" ">
<path fill="none" stroke="#63b8ff" d="M201.36,-52.12C170.2,-41.25 124.44,-25.3 99.6,-16.64"/>
<polygon fill="#63b8ff" stroke="#63b8ff" points="200.32,-55.46 210.91,-55.45 202.62,-48.85 200.32,-55.46"/>
</a>
</g>
</g>
<!-- Node4 -->
<g id="Node000004" class="node">
<title>Node4</title>
<g id="a_Node000004"><a xlink:href="main_8c.html" target="_top" xlink:title="Main function for stand&#45;alone binary execution.">
<polygon fill="white" stroke="#666666" points="164,-19 118,-19 118,0 164,0 164,-19"/>
<text text-anchor="middle" x="141" y="-7" font-family="Helvetica,sans-Serif" font-size="10.00">main.c</text>
</a>
</g>
</g>
<!-- Node1&#45;&gt;Node4 -->
<g id="edge3_Node000001_Node000004" class="edge">
<title>Node1&#45;&gt;Node4</title>
<g id="a_edge3_Node000001_Node000004"><a xlink:title=" ">
<path fill="none" stroke="#63b8ff" d="M210.25,-49.97C193.25,-40.28 170.87,-27.52 156.21,-19.17"/>
<polygon fill="#63b8ff" stroke="#63b8ff" points="208.64,-53.07 219.06,-54.98 212.1,-46.99 208.64,-53.07"/>
</a>
</g>
</g>
<!-- Node5 -->
<g id="Node000005" class="node">
<title>Node5</title>
<g id="a_Node000005"><a xlink:href="pybind__wrapper_8cpp.html" target="_top" xlink:title="Python library wrapper functions.">
<polygon fill="white" stroke="#666666" points="285.5,-19 182.5,-19 182.5,0 285.5,0 285.5,-19"/>
<text text-anchor="middle" x="234" y="-7" font-family="Helvetica,sans-Serif" font-size="10.00">pybind_wrapper.cpp</text>
</a>
</g>
</g>
<!-- Node1&#45;&gt;Node5 -->
<g id="edge4_Node000001_Node000005" class="edge">
<title>Node1&#45;&gt;Node5</title>
<g id="a_edge4_Node000001_Node000005"><a xlink:title=" ">
<path fill="none" stroke="#63b8ff" d="M234,-44.66C234,-35.93 234,-25.99 234,-19.09"/>
<polygon fill="#63b8ff" stroke="#63b8ff" points="230.5,-44.75 234,-54.75 237.5,-44.75 230.5,-44.75"/>
</a>
</g>
</g>
<!-- Node6 -->
<g id="Node000006" class="node">
<title>Node6</title>
<g id="a_Node000006"><a xlink:href="xcs__rl_8c.html" target="_top" xlink:title="Reinforcement learning functions.">
<polygon fill="white" stroke="#666666" points="354.5,-19 303.5,-19 303.5,0 354.5,0 354.5,-19"/>
<text text-anchor="middle" x="329" y="-7" font-family="Helvetica,sans-Serif" font-size="10.00">xcs_rl.c</text>
</a>
</g>
</g>
<!-- Node1&#45;&gt;Node6 -->
<g id="edge5_Node000001_Node000006" class="edge">
<title>Node1&#45;&gt;Node6</title>
<g id="a_edge5_Node000001_Node000006"><a xlink:title=" ">
<path fill="none" stroke="#63b8ff" d="M258.26,-49.97C275.63,-40.28 298.49,-27.52 313.46,-19.17"/>
<polygon fill="#63b8ff" stroke="#63b8ff" points="256.29,-47.06 249.26,-54.98 259.7,-53.17 256.29,-47.06"/>
</a>
</g>
</g>
<!-- Node7 -->
<g id="Node000007" class="node">
<title>Node7</title>
<g id="a_Node000007"><a xlink:href="xcs__supervised_8c.html" target="_top" xlink:title="Supervised regression learning functions.">
<polygon fill="white" stroke="#666666" points="465.5,-19 372.5,-19 372.5,0 465.5,0 465.5,-19"/>
<text text-anchor="middle" x="419" y="-7" font-family="Helvetica,sans-Serif" font-size="10.00">xcs_supervised.c</text>
</a>
</g>
</g>
<!-- Node1&#45;&gt;Node7 -->
<g id="edge6_Node000001_Node000007" class="edge">
<title>Node1&#45;&gt;Node7</title>
<g id="a_edge6_Node000001_Node000007"><a xlink:title=" ">
<path fill="none" stroke="#63b8ff" d="M266.71,-54.13C301.4,-44.19 355.69,-28.64 389.22,-19.03"/>
<polygon fill="#63b8ff" stroke="#63b8ff" points="265.71,-50.78 257.06,-56.89 267.63,-57.51 265.71,-50.78"/>
</a>
</g>
</g>
<!-- Node8 -->
<g id="Node000008" class="node">
<title>Node8</title>
<g id="a_Node000008"><a xlink:href="xcsf_8c.html" target="_top" xlink:title="System&#45;level functions for initialising, saving, loading, etc.">
<polygon fill="white" stroke="#666666" points="528,-19 484,-19 484,0 528,0 528,-19"/>
<text text-anchor="middle" x="506" y="-7" font-family="Helvetica,sans-Serif" font-size="10.00">xcsf.c</text>
</a>
</g>
</g>
<!-- Node1&#45;&gt;Node8 -->
<g id="edge7_Node000001_Node000008" class="edge">
<title>Node1&#45;&gt;Node8</title>
<g id="a_edge7_Node000001_Node000008"><a xlink:title=" ">
<path fill="none" stroke="#63b8ff" d="M267.19,-58.29C313.83,-50.76 401.32,-35.87 475,-19 477.83,-18.35 480.79,-17.62 483.71,-16.86"/>
<polygon fill="#63b8ff" stroke="#63b8ff" points="266.38,-54.87 257.06,-59.91 267.49,-61.79 266.38,-54.87"/>
</a>
</g>
</g>
</g>
</svg>
