<?xml version="1.0" encoding="UTF-8" standalone="no"?>
<!DOCTYPE svg PUBLIC "-//W3C//DTD SVG 1.1//EN"
 "http://www.w3.org/Graphics/SVG/1.1/DTD/svg11.dtd">
<!-- Generated by graphviz version 2.43.0 (0)
 -->
<!-- Title: clset_add Pages: 1 -->
<svg width="1352pt" height="496pt"
 viewBox="0.00 0.00 1352.00 495.50" xmlns="http://www.w3.org/2000/svg" xmlns:xlink="http://www.w3.org/1999/xlink">
<g id="graph0" class="graph" transform="scale(1 1) rotate(0) translate(4 491.5)">
<title>clset_add</title>
<!-- Node1 -->
<g id="node1" class="node">
<title>Node1</title>
<g id="a_node1"><a xlink:title="Adds a classifier to the set.">
<polygon fill="#bfbfbf" stroke="black" points="1285,-252 1285,-271 1344,-271 1344,-252 1285,-252"/>
<text text-anchor="middle" x="1314.5" y="-259" font-family="Helvetica,sans-Serif" font-size="10.00">clset_add</text>
</a>
</g>
</g>
<!-- Node2 -->
<g id="node2" class="node">
<title>Node2</title>
<g id="a_node2"><a xlink:href="clset_8c.html#a6b2fe42823bdd24cdea0e1ec3468e1f8" target="_top" xlink:title="Constructs the action set from the match set.">
<polygon fill="none" stroke="black" points="1165.5,-328 1165.5,-347 1234.5,-347 1234.5,-328 1165.5,-328"/>
<text text-anchor="middle" x="1200" y="-335" font-family="Helvetica,sans-Serif" font-size="10.00">clset_action</text>
</a>
</g>
</g>
<!-- Node1&#45;&gt;Node2 -->
<g id="edge1" class="edge">
<title>Node1&#45;&gt;Node2</title>
<path fill="none" stroke="midnightblue" d="M1295.26,-277.98C1282.76,-288.81 1265.52,-302.89 1249,-313.5 1240.69,-318.84 1231.03,-323.87 1222.57,-327.94"/>
<polygon fill="midnightblue" stroke="midnightblue" points="1297.89,-280.32 1303.08,-271.08 1293.27,-275.06 1297.89,-280.32"/>
</g>
<!-- Node10 -->
<g id="node10" class="node">
<title>Node10</title>
<g id="a_node10"><a xlink:href="clset_8c.html#aa1b7f7f1ccebf6e4e030333304fe3f51" target="_top" xlink:title="Ensures all possible actions are covered by the match set.">
<polygon fill="none" stroke="black" points="862,-252 862,-271 929,-271 929,-252 862,-252"/>
<text text-anchor="middle" x="895.5" y="-259" font-family="Helvetica,sans-Serif" font-size="10.00">clset_cover</text>
</a>
</g>
</g>
<!-- Node1&#45;&gt;Node10 -->
<g id="edge9" class="edge">
<title>Node1&#45;&gt;Node10</title>
<path fill="none" stroke="midnightblue" d="M1274.49,-261.5C1192.75,-261.5 1004.83,-261.5 929.06,-261.5"/>
<polygon fill="midnightblue" stroke="midnightblue" points="1274.84,-265 1284.84,-261.5 1274.84,-258 1274.84,-265"/>
</g>
<!-- Node11 -->
<g id="node11" class="node">
<title>Node11</title>
<g id="a_node11"><a xlink:href="clset_8c.html#ad49ee472743937e1cfdd58cc41fcaead" target="_top" xlink:title="Constructs the match set &#45; forward propagates conditions and actions.">
<polygon fill="none" stroke="black" points="705,-290 705,-309 775,-309 775,-290 705,-290"/>
<text text-anchor="middle" x="740" y="-297" font-family="Helvetica,sans-Serif" font-size="10.00">clset_match</text>
</a>
</g>
</g>
<!-- Node1&#45;&gt;Node11 -->
<g id="edge39" class="edge">
<title>Node1&#45;&gt;Node11</title>
<path fill="none" stroke="midnightblue" d="M1274.78,-271C1266.33,-272.76 1257.4,-274.4 1249,-275.5 1071.73,-298.76 857.05,-300.24 775.06,-299.84"/>
<polygon fill="midnightblue" stroke="midnightblue" points="1275.76,-274.37 1284.78,-268.81 1274.26,-267.53 1275.76,-274.37"/>
</g>
<!-- Node22 -->
<g id="node22" class="node">
<title>Node22</title>
<g id="a_node22"><a xlink:href="clset_8c.html#af6dd68a382ba6513d94925542da41f38" target="_top" xlink:title="Creates a classifier from cJSON and inserts in the population set.">
<polygon fill="none" stroke="black" points="844,-205 844,-224 947,-224 947,-205 844,-205"/>
<text text-anchor="middle" x="895.5" y="-212" font-family="Helvetica,sans-Serif" font-size="10.00">clset_json_insert_cl</text>
</a>
</g>
</g>
<!-- Node1&#45;&gt;Node22 -->
<g id="edge27" class="edge">
<title>Node1&#45;&gt;Node22</title>
<path fill="none" stroke="midnightblue" d="M1300.09,-243.57C1288.35,-229.4 1269.92,-210.55 1249,-201.5 1138.55,-153.74 989.97,-186.96 926.87,-204.98"/>
<polygon fill="midnightblue" stroke="midnightblue" points="1297.55,-246 1306.5,-251.66 1303.03,-241.65 1297.55,-246"/>
</g>
<!-- Node25 -->
<g id="node25" class="node">
<title>Node25</title>
<g id="a_node25"><a xlink:href="clset_8c.html#a0dc2a4754c73df72a73b31c09cd50003" target="_top" xlink:title="Initialises a new population of random classifiers.">
<polygon fill="none" stroke="black" points="410.5,-164 410.5,-183 490.5,-183 490.5,-164 410.5,-164"/>
<text text-anchor="middle" x="450.5" y="-171" font-family="Helvetica,sans-Serif" font-size="10.00">clset_pset_init</text>
</a>
</g>
</g>
<!-- Node1&#45;&gt;Node25 -->
<g id="edge47" class="edge">
<title>Node1&#45;&gt;Node25</title>
<path fill="none" stroke="midnightblue" d="M1304.71,-242.93C1294.29,-223.02 1274.99,-192.05 1249,-175.5 1175.84,-128.93 1144.73,-135.5 1058,-135.5 1058,-135.5 1058,-135.5 739,-135.5 652.81,-135.5 631.25,-141.77 546,-154.5 527.79,-157.22 507.79,-161.11 490.89,-164.66"/>
<polygon fill="midnightblue" stroke="midnightblue" points="1301.62,-244.58 1309.22,-251.95 1307.88,-241.44 1301.62,-244.58"/>
</g>
<!-- Node32 -->
<g id="node32" class="node">
<title>Node32</title>
<g id="a_node32"><a xlink:href="clset_8c.html#a106a72afb7785af1d1b639736a6340be" target="_top" xlink:title="Deletes a single classifier from the population set.">
<polygon fill="none" stroke="black" points="1160,-211 1160,-230 1240,-230 1240,-211 1160,-211"/>
<text text-anchor="middle" x="1200" y="-218" font-family="Helvetica,sans-Serif" font-size="10.00">clset_pset_del</text>
</a>
</g>
</g>
<!-- Node1&#45;&gt;Node32 -->
<g id="edge40" class="edge">
<title>Node1&#45;&gt;Node32</title>
<path fill="none" stroke="midnightblue" d="M1277.64,-248.43C1261.31,-242.48 1242.33,-235.56 1227.34,-230.1"/>
<polygon fill="midnightblue" stroke="midnightblue" points="1276.81,-251.85 1287.41,-251.99 1279.21,-245.28 1276.81,-251.85"/>
</g>
<!-- Node35 -->
<g id="node35" class="node">
<title>Node35</title>
<g id="a_node35"><a xlink:href="clset_8c.html#af87479ea90c3c508352c4a89dae9fd08" target="_top" xlink:title="Reads the population set from a file.">
<polygon fill="none" stroke="black" points="1014.5,-88 1014.5,-107 1099.5,-107 1099.5,-88 1014.5,-88"/>
<text text-anchor="middle" x="1057" y="-95" font-family="Helvetica,sans-Serif" font-size="10.00">clset_pset_load</text>
</a>
</g>
</g>
<!-- Node1&#45;&gt;Node35 -->
<g id="edge48" class="edge">
<title>Node1&#45;&gt;Node35</title>
<path fill="none" stroke="midnightblue" d="M1310.53,-241.59C1304.73,-210.42 1288.81,-150.65 1249,-121.5 1205.72,-89.81 1141.63,-88.42 1099.84,-91.8"/>
<polygon fill="midnightblue" stroke="midnightblue" points="1307.11,-242.4 1312.23,-251.67 1314.01,-241.23 1307.11,-242.4"/>
</g>
<!-- Node38 -->
<g id="node38" class="node">
<title>Node38</title>
<g id="a_node38"><a xlink:href="clset_8c.html#a4777af2f15c4a7b5abeecb35e7e8b6b3" target="_top" xlink:title="Performs set subsumption.">
<polygon fill="none" stroke="black" points="1151,-442 1151,-461 1249,-461 1249,-442 1151,-442"/>
<text text-anchor="middle" x="1200" y="-449" font-family="Helvetica,sans-Serif" font-size="10.00">clset_subsumption</text>
</a>
</g>
</g>
<!-- Node1&#45;&gt;Node38 -->
<g id="edge53" class="edge">
<title>Node1&#45;&gt;Node38</title>
<path fill="none" stroke="midnightblue" d="M1310.61,-280.96C1304.7,-314.65 1288.29,-384.38 1249,-427.5 1243.48,-433.56 1236.08,-438.29 1228.75,-441.89"/>
<polygon fill="midnightblue" stroke="midnightblue" points="1314.08,-281.44 1312.24,-271 1307.17,-280.31 1314.08,-281.44"/>
</g>
<!-- Node40 -->
<g id="node40" class="node">
<title>Node40</title>
<g id="a_node40"><a xlink:href="ea_8c.html#a2a3b0de53f9d67b5025957b59b8fc9a3" target="_top" xlink:title="Adds offspring to the population.">
<polygon fill="none" stroke="black" points="1033,-366 1033,-385 1081,-385 1081,-366 1033,-366"/>
<text text-anchor="middle" x="1057" y="-373" font-family="Helvetica,sans-Serif" font-size="10.00">ea_add</text>
</a>
</g>
</g>
<!-- Node1&#45;&gt;Node40 -->
<g id="edge57" class="edge">
<title>Node1&#45;&gt;Node40</title>
<path fill="none" stroke="midnightblue" d="M1310.59,-281.02C1304.89,-311.47 1289.09,-369.38 1249,-394.5 1195.06,-428.29 1115.29,-401.08 1078.26,-385.09"/>
<polygon fill="midnightblue" stroke="midnightblue" points="1314.04,-281.6 1312.26,-271.15 1307.14,-280.43 1314.04,-281.6"/>
</g>
<!-- Node41 -->
<g id="node41" class="node">
<title>Node41</title>
<g id="a_node41"><a xlink:href="ea_8c.html#ac3134366cd64189d6386a3cf014987b7" target="_top" xlink:title="Performs evolutionary algorithm subsumption.">
<polygon fill="none" stroke="black" points="1164,-366 1164,-385 1236,-385 1236,-366 1164,-366"/>
<text text-anchor="middle" x="1200" y="-373" font-family="Helvetica,sans-Serif" font-size="10.00">ea_subsume</text>
</a>
</g>
</g>
<!-- Node1&#45;&gt;Node41 -->
<g id="edge59" class="edge">
<title>Node1&#45;&gt;Node41</title>
<path fill="none" stroke="midnightblue" d="M1304.9,-280.52C1294.45,-301.71 1274.93,-335.71 1249,-356.5 1244.24,-360.31 1238.63,-363.44 1232.94,-365.98"/>
<polygon fill="midnightblue" stroke="midnightblue" points="1308.17,-281.8 1309.29,-271.26 1301.84,-278.8 1308.17,-281.8"/>
</g>
<!-- Node42 -->
<g id="node42" class="node">
<title>Node42</title>
<g id="a_node42"><a xlink:href="xcsf_8c.html#a10d0342ac640d2cd32e9cb95d0cd3bbe" target="_top" xlink:title="Stores the current population.">
<polygon fill="none" stroke="black" points="1157,-50 1157,-69 1243,-69 1243,-50 1157,-50"/>
<text text-anchor="middle" x="1200" y="-57" font-family="Helvetica,sans-Serif" font-size="10.00">xcsf_store_pset</text>
</a>
</g>
</g>
<!-- Node1&#45;&gt;Node42 -->
<g id="edge61" class="edge">
<title>Node1&#45;&gt;Node42</title>
<path fill="none" stroke="midnightblue" d="M1311.16,-241.63C1306,-205.91 1290.61,-130.24 1249,-83.5 1243.55,-77.38 1236.17,-72.63 1228.84,-69.03"/>
<polygon fill="midnightblue" stroke="midnightblue" points="1307.72,-242.28 1312.5,-251.74 1314.66,-241.36 1307.72,-242.28"/>
</g>
<!-- Node3 -->
<g id="node3" class="node">
<title>Node3</title>
<g id="a_node3"><a xlink:href="xcs__rl_8c.html#a5e5ba8c28646690f0b1c51aae7f6aa78" target="_top" xlink:title="Provides reinforcement to the sets.">
<polygon fill="none" stroke="black" points="701.5,-328 701.5,-347 778.5,-347 778.5,-328 701.5,-328"/>
<text text-anchor="middle" x="740" y="-335" font-family="Helvetica,sans-Serif" font-size="10.00">xcs_rl_update</text>
</a>
</g>
</g>
<!-- Node2&#45;&gt;Node3 -->
<g id="edge2" class="edge">
<title>Node2&#45;&gt;Node3</title>
<path fill="none" stroke="midnightblue" d="M1155.22,-337.5C1065.6,-337.5 862.59,-337.5 778.53,-337.5"/>
<polygon fill="midnightblue" stroke="midnightblue" points="1155.32,-341 1165.32,-337.5 1155.32,-334 1155.32,-341"/>
</g>
<!-- Node4 -->
<g id="node4" class="node">
<title>Node4</title>
<g id="a_node4"><a xlink:href="classXCS.html#af8970ba52403714439fda0d4383a390b" target="_top" xlink:title="Creates the action set using the previously selected action, updates the classifiers,...">
<polygon fill="none" stroke="black" points="562.5,-354 562.5,-373 635.5,-373 635.5,-354 562.5,-354"/>
<text text-anchor="middle" x="599" y="-361" font-family="Helvetica,sans-Serif" font-size="10.00">XCS::update</text>
</a>
</g>
</g>
<!-- Node3&#45;&gt;Node4 -->
<g id="edge3" class="edge">
<title>Node3&#45;&gt;Node4</title>
<path fill="none" stroke="midnightblue" d="M691.51,-346.38C673.24,-349.8 652.71,-353.64 635.73,-356.82"/>
<polygon fill="midnightblue" stroke="midnightblue" points="692.2,-349.82 701.38,-344.54 690.91,-342.93 692.2,-349.82"/>
</g>
<!-- Node5 -->
<g id="node5" class="node">
<title>Node5</title>
<g id="a_node5"><a xlink:href="xcs__rl_8c.html#a391abf9bd2540ff284f822b30899c438" target="_top" xlink:title="Creates and updates an action set for a given (state, action, reward).">
<polygon fill="none" stroke="black" points="571,-316 571,-335 627,-335 627,-316 571,-316"/>
<text text-anchor="middle" x="599" y="-323" font-family="Helvetica,sans-Serif" font-size="10.00">xcs_rl_fit</text>
</a>
</g>
</g>
<!-- Node3&#45;&gt;Node5 -->
<g id="edge4" class="edge">
<title>Node3&#45;&gt;Node5</title>
<path fill="none" stroke="midnightblue" d="M691.15,-333.37C669.73,-331.52 645.26,-329.41 627.07,-327.84"/>
<polygon fill="midnightblue" stroke="midnightblue" points="691.12,-336.88 701.38,-334.25 691.72,-329.91 691.12,-336.88"/>
</g>
<!-- Node7 -->
<g id="node7" class="node">
<title>Node7</title>
<g id="a_node7"><a xlink:href="xcs__rl_8c.html#a8171cd945b56ed0a4563f9dcd89438e3" target="_top" xlink:title="Executes a reinforcement learning trial using a built&#45;in environment.">
<polygon fill="none" stroke="black" points="418.5,-278 418.5,-297 482.5,-297 482.5,-278 418.5,-278"/>
<text text-anchor="middle" x="450.5" y="-285" font-family="Helvetica,sans-Serif" font-size="10.00">xcs_rl_trial</text>
</a>
</g>
</g>
<!-- Node3&#45;&gt;Node7 -->
<g id="edge6" class="edge">
<title>Node3&#45;&gt;Node7</title>
<path fill="none" stroke="midnightblue" d="M703.56,-324.41C681.91,-316.49 657.36,-307.69 652,-306.5 593.12,-293.43 522.55,-289.35 482.78,-288.07"/>
<polygon fill="midnightblue" stroke="midnightblue" points="702.64,-327.79 713.23,-327.95 705.05,-321.22 702.64,-327.79"/>
</g>
<!-- Node6 -->
<g id="node6" class="node">
<title>Node6</title>
<g id="a_node6"><a xlink:href="classXCS.html#ac12768292958a714a726b1c029e9616a" target="_top" xlink:title="Creates/updates an action set for a given (state, action, reward).">
<polygon fill="none" stroke="black" points="424.5,-316 424.5,-335 476.5,-335 476.5,-316 424.5,-316"/>
<text text-anchor="middle" x="450.5" y="-323" font-family="Helvetica,sans-Serif" font-size="10.00">XCS::fit</text>
</a>
</g>
</g>
<!-- Node5&#45;&gt;Node6 -->
<g id="edge5" class="edge">
<title>Node5&#45;&gt;Node6</title>
<path fill="none" stroke="midnightblue" d="M560.77,-325.5C534.41,-325.5 499.76,-325.5 476.61,-325.5"/>
<polygon fill="midnightblue" stroke="midnightblue" points="560.79,-329 570.79,-325.5 560.79,-322 560.79,-329"/>
</g>
<!-- Node8 -->
<g id="node8" class="node">
<title>Node8</title>
<g id="a_node8"><a xlink:href="xcs__rl_8c.html#adb4c284d19eeaed2b4a629f9b939ed20" target="_top" xlink:title="Executes a reinforcement learning experiment.">
<polygon fill="none" stroke="black" points="260.5,-278 260.5,-297 324.5,-297 324.5,-278 260.5,-278"/>
<text text-anchor="middle" x="292.5" y="-285" font-family="Helvetica,sans-Serif" font-size="10.00">xcs_rl_exp</text>
</a>
</g>
</g>
<!-- Node7&#45;&gt;Node8 -->
<g id="edge7" class="edge">
<title>Node7&#45;&gt;Node8</title>
<path fill="none" stroke="midnightblue" d="M408.28,-287.5C382.06,-287.5 348.65,-287.5 324.64,-287.5"/>
<polygon fill="midnightblue" stroke="midnightblue" points="408.31,-291 418.31,-287.5 408.31,-284 408.31,-291"/>
</g>
<!-- Node9 -->
<g id="node9" class="node">
<title>Node9</title>
<g id="a_node9"><a xlink:href="main_8c.html#a3c04138a5bfe5d72780bb7e82a18e627" target="_top" xlink:title=" ">
<polygon fill="none" stroke="black" points="141,-278 141,-297 179,-297 179,-278 141,-278"/>
<text text-anchor="middle" x="160" y="-285" font-family="Helvetica,sans-Serif" font-size="10.00">main</text>
</a>
</g>
</g>
<!-- Node8&#45;&gt;Node9 -->
<g id="edge8" class="edge">
<title>Node8&#45;&gt;Node9</title>
<path fill="none" stroke="midnightblue" d="M250.02,-287.5C226.16,-287.5 197.38,-287.5 179.14,-287.5"/>
<polygon fill="midnightblue" stroke="midnightblue" points="250.24,-291 260.24,-287.5 250.24,-284 250.24,-291"/>
</g>
<!-- Node10&#45;&gt;Node11 -->
<g id="edge10" class="edge">
<title>Node10&#45;&gt;Node11</title>
<path fill="none" stroke="midnightblue" d="M851.95,-272.03C827.72,-278.03 797.77,-285.45 775.1,-291.06"/>
<polygon fill="midnightblue" stroke="midnightblue" points="853.08,-275.36 861.95,-269.56 851.4,-268.56 853.08,-275.36"/>
</g>
<!-- Node11&#45;&gt;Node5 -->
<g id="edge14" class="edge">
<title>Node11&#45;&gt;Node5</title>
<path fill="none" stroke="midnightblue" d="M695.09,-307.71C672.81,-311.88 646.45,-316.81 627.14,-320.42"/>
<polygon fill="midnightblue" stroke="midnightblue" points="695.81,-311.14 705,-305.86 694.52,-304.26 695.81,-311.14"/>
</g>
<!-- Node12 -->
<g id="node12" class="node">
<title>Node12</title>
<g id="a_node12"><a xlink:href="xcs__rl_8c.html#a6501735ba3cba5c77c1b8ad0aad0b26a" target="_top" xlink:title="Selects an action to perform in a reinforcement learning problem.">
<polygon fill="none" stroke="black" points="557,-240 557,-259 641,-259 641,-240 557,-240"/>
<text text-anchor="middle" x="599" y="-247" font-family="Helvetica,sans-Serif" font-size="10.00">xcs_rl_decision</text>
</a>
</g>
</g>
<!-- Node11&#45;&gt;Node12 -->
<g id="edge11" class="edge">
<title>Node11&#45;&gt;Node12</title>
<path fill="none" stroke="midnightblue" d="M702.8,-286.48C679.03,-277.93 648.46,-266.93 626.85,-259.16"/>
<polygon fill="midnightblue" stroke="midnightblue" points="701.93,-289.89 712.53,-289.98 704.3,-283.3 701.93,-289.89"/>
</g>
<!-- Node14 -->
<g id="node14" class="node">
<title>Node14</title>
<g id="a_node14"><a xlink:href="xcs__supervised_8c.html#a8e376723db7b6786507d5ea6add9f650" target="_top" xlink:title="Executes a single XCSF trial.">
<polygon fill="none" stroke="black" points="546,-392 546,-411 652,-411 652,-392 546,-392"/>
<text text-anchor="middle" x="599" y="-399" font-family="Helvetica,sans-Serif" font-size="10.00">xcs_supervised_trial</text>
</a>
</g>
</g>
<!-- Node11&#45;&gt;Node14 -->
<g id="edge15" class="edge">
<title>Node11&#45;&gt;Node14</title>
<path fill="none" stroke="midnightblue" d="M695.7,-313.03C692.97,-314.66 690.37,-316.48 688,-318.5 663.2,-339.71 676.87,-361.37 652,-382.5 647.46,-386.36 642.07,-389.46 636.5,-391.95"/>
<polygon fill="midnightblue" stroke="midnightblue" points="697.44,-316.07 704.78,-308.43 694.28,-309.83 697.44,-316.07"/>
</g>
<!-- Node12&#45;&gt;Node7 -->
<g id="edge13" class="edge">
<title>Node12&#45;&gt;Node7</title>
<path fill="none" stroke="midnightblue" d="M551.34,-261.6C528.85,-267.44 502.5,-274.27 482.51,-279.46"/>
<polygon fill="midnightblue" stroke="midnightblue" points="552.23,-264.99 561.03,-259.09 550.47,-258.21 552.23,-264.99"/>
</g>
<!-- Node13 -->
<g id="node13" class="node">
<title>Node13</title>
<g id="a_node13"><a xlink:href="classXCS.html#ac6003941812bd2c70ea443dd63bd59d0" target="_top" xlink:title="Selects an action to perform in a reinforcement learning problem.">
<polygon fill="none" stroke="black" points="410.5,-240 410.5,-259 490.5,-259 490.5,-240 410.5,-240"/>
<text text-anchor="middle" x="450.5" y="-247" font-family="Helvetica,sans-Serif" font-size="10.00">XCS::decision</text>
</a>
</g>
</g>
<!-- Node12&#45;&gt;Node13 -->
<g id="edge12" class="edge">
<title>Node12&#45;&gt;Node13</title>
<path fill="none" stroke="midnightblue" d="M546.55,-249.5C528.18,-249.5 507.79,-249.5 490.63,-249.5"/>
<polygon fill="midnightblue" stroke="midnightblue" points="546.8,-253 556.8,-249.5 546.8,-246 546.8,-253"/>
</g>
<!-- Node15 -->
<g id="node15" class="node">
<title>Node15</title>
<g id="a_node15"><a xlink:href="xcs__supervised_8c.html#a52dece2a59f692999f931672cebac18a" target="_top" xlink:title="Executes MAX_TRIALS number of XCSF learning iterations using the training data and test iterations us...">
<polygon fill="none" stroke="black" points="243.5,-316 243.5,-335 341.5,-335 341.5,-316 243.5,-316"/>
<text text-anchor="middle" x="292.5" y="-323" font-family="Helvetica,sans-Serif" font-size="10.00">xcs_supervised_fit</text>
</a>
</g>
</g>
<!-- Node14&#45;&gt;Node15 -->
<g id="edge16" class="edge">
<title>Node14&#45;&gt;Node15</title>
<path fill="none" stroke="midnightblue" d="M549.7,-389.44C489.31,-374.37 387.15,-348.87 331.84,-335.07"/>
<polygon fill="midnightblue" stroke="midnightblue" points="549.19,-392.93 559.74,-391.95 550.89,-386.13 549.19,-392.93"/>
</g>
<!-- Node17 -->
<g id="node17" class="node">
<title>Node17</title>
<g id="a_node17"><a xlink:href="xcs__supervised_8c.html#ae4791c1daf0baaa6615f70332657aadb" target="_top" xlink:title="Calculates the XCSF predictions for the provided input.">
<polygon fill="none" stroke="black" points="391,-468 391,-487 510,-487 510,-468 391,-468"/>
<text text-anchor="middle" x="450.5" y="-475" font-family="Helvetica,sans-Serif" font-size="10.00">xcs_supervised_predict</text>
</a>
</g>
</g>
<!-- Node14&#45;&gt;Node17 -->
<g id="edge19" class="edge">
<title>Node14&#45;&gt;Node17</title>
<path fill="none" stroke="midnightblue" d="M574.52,-416.63C557.08,-427.56 532.52,-442.3 510,-453.5 499.48,-458.73 487.54,-463.78 477.2,-467.89"/>
<polygon fill="midnightblue" stroke="midnightblue" points="576.84,-419.31 583.42,-411 573.09,-413.39 576.84,-419.31"/>
</g>
<!-- Node19 -->
<g id="node19" class="node">
<title>Node19</title>
<g id="a_node19"><a xlink:href="xcs__supervised_8c.html#a535e3dbbf0f80e64a4e9b1c700e51f40" target="_top" xlink:title="Calculates the XCSF error for the input data.">
<polygon fill="none" stroke="black" points="393.5,-392 393.5,-411 507.5,-411 507.5,-392 393.5,-392"/>
<text text-anchor="middle" x="450.5" y="-399" font-family="Helvetica,sans-Serif" font-size="10.00">xcs_supervised_score</text>
</a>
</g>
</g>
<!-- Node14&#45;&gt;Node19 -->
<g id="edge21" class="edge">
<title>Node14&#45;&gt;Node19</title>
<path fill="none" stroke="midnightblue" d="M535.88,-401.5C526.5,-401.5 516.87,-401.5 507.62,-401.5"/>
<polygon fill="midnightblue" stroke="midnightblue" points="535.94,-405 545.94,-401.5 535.94,-398 535.94,-405"/>
</g>
<!-- Node21 -->
<g id="node21" class="node">
<title>Node21</title>
<g id="a_node21"><a xlink:href="xcs__supervised_8c.html#a9ab2bb39625aea84c716901a95a4326e" target="_top" xlink:title="Calculates the XCSF error for a subsample of the input data.">
<polygon fill="none" stroke="black" points="230,-430 230,-449 355,-449 355,-430 230,-430"/>
<text text-anchor="middle" x="292.5" y="-437" font-family="Helvetica,sans-Serif" font-size="10.00">xcs_supervised_score_n</text>
</a>
</g>
</g>
<!-- Node14&#45;&gt;Node21 -->
<g id="edge26" class="edge">
<title>Node14&#45;&gt;Node21</title>
<path fill="none" stroke="midnightblue" d="M548.89,-413.24C536.28,-415.94 522.68,-418.58 510,-420.5 458.14,-428.34 398.77,-433.27 355.34,-436.14"/>
<polygon fill="midnightblue" stroke="midnightblue" points="549.75,-416.63 558.77,-411.07 548.25,-409.8 549.75,-416.63"/>
</g>
<!-- Node15&#45;&gt;Node9 -->
<g id="edge18" class="edge">
<title>Node15&#45;&gt;Node9</title>
<path fill="none" stroke="midnightblue" d="M248.75,-313.05C225.1,-306.16 196.95,-297.97 179.03,-292.75"/>
<polygon fill="midnightblue" stroke="midnightblue" points="247.99,-316.48 258.57,-315.91 249.95,-309.75 247.99,-316.48"/>
</g>
<!-- Node16 -->
<g id="node16" class="node">
<title>Node16</title>
<g id="a_node16"><a xlink:href="classXCS.html#a04a010f5046c529132d7a67202123295" target="_top" xlink:title="Executes MAX_TRIALS number of XCSF learning iterations using the provided training data.">
<polygon fill="none" stroke="black" points="134,-316 134,-335 186,-335 186,-316 134,-316"/>
<text text-anchor="middle" x="160" y="-323" font-family="Helvetica,sans-Serif" font-size="10.00">XCS::fit</text>
</a>
</g>
</g>
<!-- Node15&#45;&gt;Node16 -->
<g id="edge17" class="edge">
<title>Node15&#45;&gt;Node16</title>
<path fill="none" stroke="midnightblue" d="M233.17,-325.5C216.75,-325.5 199.73,-325.5 186.35,-325.5"/>
<polygon fill="midnightblue" stroke="midnightblue" points="233.28,-329 243.28,-325.5 233.28,-322 233.28,-329"/>
</g>
<!-- Node18 -->
<g id="node18" class="node">
<title>Node18</title>
<g id="a_node18"><a xlink:href="classXCS.html#a9c4d2f074abbde709c8a108bc2d1c932" target="_top" xlink:title="Returns the XCSF prediction array for the provided input.">
<polygon fill="none" stroke="black" points="256,-468 256,-487 329,-487 329,-468 256,-468"/>
<text text-anchor="middle" x="292.5" y="-475" font-family="Helvetica,sans-Serif" font-size="10.00">XCS::predict</text>
</a>
</g>
</g>
<!-- Node17&#45;&gt;Node18 -->
<g id="edge20" class="edge">
<title>Node17&#45;&gt;Node18</title>
<path fill="none" stroke="midnightblue" d="M380.62,-477.5C362.88,-477.5 344.51,-477.5 329.23,-477.5"/>
<polygon fill="midnightblue" stroke="midnightblue" points="380.97,-481 390.97,-477.5 380.97,-474 380.97,-481"/>
</g>
<!-- Node19&#45;&gt;Node16 -->
<g id="edge22" class="edge">
<title>Node19&#45;&gt;Node16</title>
<path fill="none" stroke="midnightblue" d="M402.23,-389.44C357.74,-378.03 289.28,-360.36 230,-344.5 215.48,-340.61 199.27,-336.16 186.21,-332.54"/>
<polygon fill="midnightblue" stroke="midnightblue" points="401.62,-392.89 412.17,-391.98 403.35,-386.11 401.62,-392.89"/>
</g>
<!-- Node20 -->
<g id="node20" class="node">
<title>Node20</title>
<g id="a_node20"><a xlink:href="classXCS.html#a2aeb9df5550b79ea97a725e83ef64005" target="_top" xlink:title="Returns the error using N random samples from the provided data.">
<polygon fill="none" stroke="black" points="126,-411 126,-430 194,-430 194,-411 126,-411"/>
<text text-anchor="middle" x="160" y="-418" font-family="Helvetica,sans-Serif" font-size="10.00">XCS::score</text>
</a>
</g>
</g>
<!-- Node19&#45;&gt;Node20 -->
<g id="edge23" class="edge">
<title>Node19&#45;&gt;Node20</title>
<path fill="none" stroke="midnightblue" d="M383.2,-405.87C324.15,-409.76 240.18,-415.29 194.23,-418.31"/>
<polygon fill="midnightblue" stroke="midnightblue" points="383.44,-409.36 393.19,-405.21 382.98,-402.37 383.44,-409.36"/>
</g>
<!-- Node19&#45;&gt;Node21 -->
<g id="edge24" class="edge">
<title>Node19&#45;&gt;Node21</title>
<path fill="none" stroke="midnightblue" d="M400.37,-413.47C378.51,-418.79 353.12,-424.98 332.58,-429.98"/>
<polygon fill="midnightblue" stroke="midnightblue" points="401.25,-416.86 410.13,-411.09 399.59,-410.06 401.25,-416.86"/>
</g>
<!-- Node21&#45;&gt;Node20 -->
<g id="edge25" class="edge">
<title>Node21&#45;&gt;Node20</title>
<path fill="none" stroke="midnightblue" d="M219.64,-429.04C210.76,-427.75 202.06,-426.48 194.18,-425.33"/>
<polygon fill="midnightblue" stroke="midnightblue" points="219.29,-432.52 229.69,-430.5 220.3,-425.6 219.29,-432.52"/>
</g>
<!-- Node23 -->
<g id="node23" class="node">
<title>Node23</title>
<g id="a_node23"><a xlink:href="clset_8c.html#a9092b6e9d9b731be1bd9a4303992fd43" target="_top" xlink:title="Creates classifiers from JSON and inserts into the population.">
<polygon fill="none" stroke="black" points="695,-185 695,-204 785,-204 785,-185 695,-185"/>
<text text-anchor="middle" x="740" y="-192" font-family="Helvetica,sans-Serif" font-size="10.00">clset_json_insert</text>
</a>
</g>
</g>
<!-- Node22&#45;&gt;Node23 -->
<g id="edge28" class="edge">
<title>Node22&#45;&gt;Node23</title>
<path fill="none" stroke="midnightblue" d="M833.86,-206.6C817.61,-204.48 800.36,-202.23 785.19,-200.26"/>
<polygon fill="midnightblue" stroke="midnightblue" points="833.44,-210.07 843.81,-207.9 834.35,-203.13 833.44,-210.07"/>
</g>
<!-- Node31 -->
<g id="node31" class="node">
<title>Node31</title>
<g id="a_node31"><a xlink:href="classXCS.html#a61361120dbba1dba3ca49b53ded91edb" target="_top" xlink:title="Creates a classifier from JSON and inserts into the population.">
<polygon fill="none" stroke="black" points="688,-223 688,-242 792,-242 792,-223 688,-223"/>
<text text-anchor="middle" x="740" y="-230" font-family="Helvetica,sans-Serif" font-size="10.00">XCS::json_insert_cl</text>
</a>
</g>
</g>
<!-- Node22&#45;&gt;Node31 -->
<g id="edge38" class="edge">
<title>Node22&#45;&gt;Node31</title>
<path fill="none" stroke="midnightblue" d="M833.5,-221.65C819.81,-223.26 805.41,-224.95 792.16,-226.5"/>
<polygon fill="midnightblue" stroke="midnightblue" points="834.29,-225.08 843.81,-220.44 833.47,-218.13 834.29,-225.08"/>
</g>
<!-- Node24 -->
<g id="node24" class="node">
<title>Node24</title>
<g id="a_node24"><a xlink:href="clset_8c.html#ab1609ae417c14c50f3322c3ed818db6b" target="_top" xlink:title=" ">
<polygon fill="none" stroke="black" points="549,-164 549,-183 649,-183 649,-164 549,-164"/>
<text text-anchor="middle" x="599" y="-171" font-family="Helvetica,sans-Serif" font-size="10.00">clset_load_pop_file</text>
</a>
</g>
</g>
<!-- Node23&#45;&gt;Node24 -->
<g id="edge29" class="edge">
<title>Node23&#45;&gt;Node24</title>
<path fill="none" stroke="midnightblue" d="M684.59,-186.28C672.93,-184.52 660.69,-182.67 649.24,-180.94"/>
<polygon fill="midnightblue" stroke="midnightblue" points="684.23,-189.76 694.64,-187.8 685.27,-182.84 684.23,-189.76"/>
</g>
<!-- Node29 -->
<g id="node29" class="node">
<title>Node29</title>
<g id="a_node29"><a xlink:href="classXCS.html#af888b891afb66fbe06ba4919ef16adf9" target="_top" xlink:title="Creates classifiers from JSON and inserts into the population.">
<polygon fill="none" stroke="black" points="553.5,-202 553.5,-221 644.5,-221 644.5,-202 553.5,-202"/>
<text text-anchor="middle" x="599" y="-209" font-family="Helvetica,sans-Serif" font-size="10.00">XCS::json_insert</text>
</a>
</g>
</g>
<!-- Node23&#45;&gt;Node29 -->
<g id="edge36" class="edge">
<title>Node23&#45;&gt;Node29</title>
<path fill="none" stroke="midnightblue" d="M684.35,-201.18C671.28,-202.78 657.47,-204.47 644.9,-206.01"/>
<polygon fill="midnightblue" stroke="midnightblue" points="685.14,-204.61 694.64,-199.93 684.29,-197.67 685.14,-204.61"/>
</g>
<!-- Node24&#45;&gt;Node25 -->
<g id="edge30" class="edge">
<title>Node24&#45;&gt;Node25</title>
<path fill="none" stroke="midnightblue" d="M538.39,-173.5C522.29,-173.5 505.28,-173.5 490.61,-173.5"/>
<polygon fill="midnightblue" stroke="midnightblue" points="538.81,-177 548.81,-173.5 538.81,-170 538.81,-177"/>
</g>
<!-- Node26 -->
<g id="node26" class="node">
<title>Node26</title>
<g id="a_node26"><a xlink:href="xcsf_8c.html#ae4718dd9f579b8730e25a1a13a385d6a" target="_top" xlink:title="Initialises XCSF with an empty population.">
<polygon fill="none" stroke="black" points="266,-240 266,-259 319,-259 319,-240 266,-240"/>
<text text-anchor="middle" x="292.5" y="-247" font-family="Helvetica,sans-Serif" font-size="10.00">xcsf_init</text>
</a>
</g>
</g>
<!-- Node25&#45;&gt;Node26 -->
<g id="edge31" class="edge">
<title>Node25&#45;&gt;Node26</title>
<path fill="none" stroke="midnightblue" d="M406.09,-186.44C400.94,-188.31 395.81,-190.34 391,-192.5 374.72,-199.8 332.31,-225.53 309.15,-239.8"/>
<polygon fill="midnightblue" stroke="midnightblue" points="407.62,-189.61 415.93,-183.04 405.33,-183 407.62,-189.61"/>
</g>
<!-- Node26&#45;&gt;Node9 -->
<g id="edge33" class="edge">
<title>Node26&#45;&gt;Node9</title>
<path fill="none" stroke="midnightblue" d="M255.92,-259.86C231.08,-267.09 198.95,-276.45 179.17,-282.21"/>
<polygon fill="midnightblue" stroke="midnightblue" points="257.09,-263.16 265.72,-257.01 255.14,-256.44 257.09,-263.16"/>
</g>
<!-- Node26&#45;&gt;Node16 -->
<g id="edge32" class="edge">
<title>Node26&#45;&gt;Node16</title>
<path fill="none" stroke="midnightblue" d="M255.94,-257.11C247.07,-259.9 237.86,-263.61 230,-268.5 210.24,-280.78 212.27,-292.1 194,-306.5 189.64,-309.94 184.59,-313.16 179.77,-315.95"/>
<polygon fill="midnightblue" stroke="midnightblue" points="257.04,-260.44 265.71,-254.35 255.14,-253.7 257.04,-260.44"/>
</g>
<!-- Node27 -->
<g id="node27" class="node">
<title>Node27</title>
<g id="a_node27"><a xlink:href="classXCS.html#a8a53a8df81152fbf73e6abcc6a6e56b4" target="_top" xlink:title="Default Constructor.">
<polygon fill="none" stroke="black" points="127.5,-240 127.5,-259 192.5,-259 192.5,-240 127.5,-240"/>
<text text-anchor="middle" x="160" y="-247" font-family="Helvetica,sans-Serif" font-size="10.00">XCS::XCS</text>
</a>
</g>
</g>
<!-- Node26&#45;&gt;Node27 -->
<g id="edge34" class="edge">
<title>Node26&#45;&gt;Node27</title>
<path fill="none" stroke="midnightblue" d="M255.6,-249.5C235.91,-249.5 211.72,-249.5 192.73,-249.5"/>
<polygon fill="midnightblue" stroke="midnightblue" points="255.72,-253 265.72,-249.5 255.72,-246 255.72,-253"/>
</g>
<!-- Node28 -->
<g id="node28" class="node">
<title>Node28</title>
<g id="a_node28"><a xlink:href="classXCS.html#a71b21201e1a2aef16702a2c308eb6683" target="_top" xlink:title="Implements pickle file reading.">
<polygon fill="none" stroke="black" points="0,-202 0,-221 90,-221 90,-202 0,-202"/>
<text text-anchor="middle" x="45" y="-209" font-family="Helvetica,sans-Serif" font-size="10.00">XCS::deserialize</text>
</a>
</g>
</g>
<!-- Node27&#45;&gt;Node28 -->
<g id="edge35" class="edge">
<title>Node27&#45;&gt;Node28</title>
<path fill="none" stroke="midnightblue" d="M120.86,-236.67C105.7,-231.58 88.56,-225.81 74.51,-221.09"/>
<polygon fill="midnightblue" stroke="midnightblue" points="119.89,-240.04 130.49,-239.91 122.12,-233.41 119.89,-240.04"/>
</g>
<!-- Node30 -->
<g id="node30" class="node">
<title>Node30</title>
<g id="a_node30"><a xlink:href="classXCS.html#a1a882e28a64c4e2b92ae234d79f327de" target="_top" xlink:title="Reads classifiers from a JSON file and adds to the population.">
<polygon fill="none" stroke="black" points="407.5,-202 407.5,-221 493.5,-221 493.5,-202 407.5,-202"/>
<text text-anchor="middle" x="450.5" y="-209" font-family="Helvetica,sans-Serif" font-size="10.00">XCS::json_read</text>
</a>
</g>
</g>
<!-- Node29&#45;&gt;Node30 -->
<g id="edge37" class="edge">
<title>Node29&#45;&gt;Node30</title>
<path fill="none" stroke="midnightblue" d="M542.84,-211.5C526.66,-211.5 509.23,-211.5 493.97,-211.5"/>
<polygon fill="midnightblue" stroke="midnightblue" points="543.25,-215 553.25,-211.5 543.25,-208 543.25,-215"/>
</g>
<!-- Node33 -->
<g id="node33" class="node">
<title>Node33</title>
<g id="a_node33"><a xlink:href="clset_8c.html#a5e05b1d84c921f8f83e90d636b2f59fd" target="_top" xlink:title="Enforces the maximum population size limit.">
<polygon fill="none" stroke="black" points="1007.5,-202.5 1007.5,-232.5 1106.5,-232.5 1106.5,-202.5 1007.5,-202.5"/>
<text text-anchor="start" x="1015.5" y="-220.5" font-family="Helvetica,sans-Serif" font-size="10.00">clset_pset_enforce</text>
<text text-anchor="middle" x="1057" y="-209.5" font-family="Helvetica,sans-Serif" font-size="10.00">_limit</text>
</a>
</g>
</g>
<!-- Node32&#45;&gt;Node33 -->
<g id="edge41" class="edge">
<title>Node32&#45;&gt;Node33</title>
<path fill="none" stroke="midnightblue" d="M1149.38,-219.44C1135.5,-219.15 1120.43,-218.83 1106.61,-218.53"/>
<polygon fill="midnightblue" stroke="midnightblue" points="1149.65,-222.95 1159.72,-219.66 1149.8,-215.95 1149.65,-222.95"/>
</g>
<!-- Node33&#45;&gt;Node10 -->
<g id="edge42" class="edge">
<title>Node33&#45;&gt;Node10</title>
<path fill="none" stroke="midnightblue" d="M997.59,-233.61C974.56,-239.97 948.97,-247.03 929.29,-252.45"/>
<polygon fill="midnightblue" stroke="midnightblue" points="998.57,-236.97 1007.28,-230.94 996.71,-230.23 998.57,-236.97"/>
</g>
<!-- Node33&#45;&gt;Node22 -->
<g id="edge43" class="edge">
<title>Node33&#45;&gt;Node22</title>
<path fill="none" stroke="midnightblue" d="M997.23,-216.39C980.79,-216.09 963.06,-215.75 947.13,-215.45"/>
<polygon fill="midnightblue" stroke="midnightblue" points="997.21,-219.89 1007.28,-216.58 997.35,-212.9 997.21,-219.89"/>
</g>
<!-- Node34 -->
<g id="node34" class="node">
<title>Node34</title>
<g id="a_node34"><a xlink:href="ea_8c.html#a295cd56f77428d1fa2555df1ce363cdd" target="_top" xlink:title="Executes the evolutionary algorithm (EA).">
<polygon fill="none" stroke="black" points="881,-366 881,-385 910,-385 910,-366 881,-366"/>
<text text-anchor="middle" x="895.5" y="-373" font-family="Helvetica,sans-Serif" font-size="10.00">ea</text>
</a>
</g>
</g>
<!-- Node33&#45;&gt;Node34 -->
<g id="edge44" class="edge">
<title>Node33&#45;&gt;Node34</title>
<path fill="none" stroke="midnightblue" d="M1033.27,-240.02C997.97,-274.98 931.45,-340.88 906.39,-365.71"/>
<polygon fill="midnightblue" stroke="midnightblue" points="1036.07,-242.17 1040.71,-232.65 1031.14,-237.2 1036.07,-242.17"/>
</g>
<!-- Node34&#45;&gt;Node3 -->
<g id="edge45" class="edge">
<title>Node34&#45;&gt;Node3</title>
<path fill="none" stroke="midnightblue" d="M870.98,-369.68C846.37,-363.59 807.38,-353.93 778.52,-346.79"/>
<polygon fill="midnightblue" stroke="midnightblue" points="870.33,-373.12 880.88,-372.13 872.01,-366.33 870.33,-373.12"/>
</g>
<!-- Node34&#45;&gt;Node14 -->
<g id="edge46" class="edge">
<title>Node34&#45;&gt;Node14</title>
<path fill="none" stroke="midnightblue" d="M870.48,-377.62C823.08,-381.81 716.51,-391.21 652.19,-396.89"/>
<polygon fill="midnightblue" stroke="midnightblue" points="871.04,-381.09 880.69,-376.72 870.42,-374.11 871.04,-381.09"/>
</g>
<!-- Node36 -->
<g id="node36" class="node">
<title>Node36</title>
<g id="a_node36"><a xlink:href="xcsf_8c.html#ada5fb9a2a1e9225aad40a36614fc0de7" target="_top" xlink:title="Reads the state of XCSF from a file.">
<polygon fill="none" stroke="black" points="263,-183 263,-202 322,-202 322,-183 263,-183"/>
<text text-anchor="middle" x="292.5" y="-190" font-family="Helvetica,sans-Serif" font-size="10.00">xcsf_load</text>
</a>
</g>
</g>
<!-- Node35&#45;&gt;Node36 -->
<g id="edge49" class="edge">
<title>Node35&#45;&gt;Node36</title>
<path fill="none" stroke="midnightblue" d="M1004.1,-97.5C941.67,-97.5 833.67,-97.5 741,-97.5 741,-97.5 741,-97.5 598,-97.5 484.2,-97.5 356.89,-158.72 311.09,-182.87"/>
<polygon fill="midnightblue" stroke="midnightblue" points="1004.47,-101 1014.47,-97.5 1004.47,-94 1004.47,-101"/>
</g>
<!-- Node36&#45;&gt;Node9 -->
<g id="edge52" class="edge">
<title>Node36&#45;&gt;Node9</title>
<path fill="none" stroke="midnightblue" d="M264.57,-207.09C253.42,-213.64 240.65,-221.84 230,-230.5 211.95,-245.18 212.27,-254.1 194,-268.5 189.43,-272.1 184.1,-275.47 179.08,-278.34"/>
<polygon fill="midnightblue" stroke="midnightblue" points="266.52,-210.01 273.46,-202.01 263.04,-203.93 266.52,-210.01"/>
</g>
<!-- Node36&#45;&gt;Node28 -->
<g id="edge50" class="edge">
<title>Node36&#45;&gt;Node28</title>
<path fill="none" stroke="midnightblue" d="M252.66,-189.96C219.02,-188.36 169.13,-187.45 126,-192.5 110.12,-194.36 92.82,-198.23 78.39,-201.99"/>
<polygon fill="midnightblue" stroke="midnightblue" points="252.81,-193.47 262.98,-190.49 253.17,-186.48 252.81,-193.47"/>
</g>
<!-- Node37 -->
<g id="node37" class="node">
<title>Node37</title>
<g id="a_node37"><a xlink:href="classXCS.html#a1a7ff32cb3485c0de9dd988f6f3e3470" target="_top" xlink:title="Reads the entire current state of XCSF from a file.">
<polygon fill="none" stroke="black" points="129,-202 129,-221 191,-221 191,-202 129,-202"/>
<text text-anchor="middle" x="160" y="-209" font-family="Helvetica,sans-Serif" font-size="10.00">XCS::load</text>
</a>
</g>
</g>
<!-- Node36&#45;&gt;Node37 -->
<g id="edge51" class="edge">
<title>Node36&#45;&gt;Node37</title>
<path fill="none" stroke="midnightblue" d="M252.71,-198.15C233.11,-201 209.67,-204.41 191.39,-207.08"/>
<polygon fill="midnightblue" stroke="midnightblue" points="253.47,-201.57 262.86,-196.67 252.46,-194.65 253.47,-201.57"/>
</g>
<!-- Node39 -->
<g id="node39" class="node">
<title>Node39</title>
<g id="a_node39"><a xlink:href="clset_8c.html#a27aedca23d7c37f4ca0f44845e9805c7" target="_top" xlink:title="Provides reinforcement to the set and performs set subsumption.">
<polygon fill="none" stroke="black" points="859.5,-404 859.5,-423 931.5,-423 931.5,-404 859.5,-404"/>
<text text-anchor="middle" x="895.5" y="-411" font-family="Helvetica,sans-Serif" font-size="10.00">clset_update</text>
</a>
</g>
</g>
<!-- Node38&#45;&gt;Node39 -->
<g id="edge54" class="edge">
<title>Node38&#45;&gt;Node39</title>
<path fill="none" stroke="midnightblue" d="M1140.73,-444.18C1078.89,-436.41 983.15,-424.38 931.84,-417.94"/>
<polygon fill="midnightblue" stroke="midnightblue" points="1140.38,-447.66 1150.73,-445.44 1141.25,-440.72 1140.38,-447.66"/>
</g>
<!-- Node39&#45;&gt;Node3 -->
<g id="edge55" class="edge">
<title>Node39&#45;&gt;Node3</title>
<path fill="none" stroke="midnightblue" d="M849.43,-402.63C842.13,-400.3 834.76,-397.59 828,-394.5 799.27,-381.35 769.16,-359.54 752.99,-347.06"/>
<polygon fill="midnightblue" stroke="midnightblue" points="848.69,-406.06 859.27,-405.57 850.69,-399.35 848.69,-406.06"/>
</g>
<!-- Node39&#45;&gt;Node14 -->
<g id="edge56" class="edge">
<title>Node39&#45;&gt;Node14</title>
<path fill="none" stroke="midnightblue" d="M849.12,-411.65C795.95,-409.48 708.05,-405.9 652.13,-403.62"/>
<polygon fill="midnightblue" stroke="midnightblue" points="849.13,-415.15 859.27,-412.06 849.42,-408.16 849.13,-415.15"/>
</g>
<!-- Node40&#45;&gt;Node34 -->
<g id="edge58" class="edge">
<title>Node40&#45;&gt;Node34</title>
<path fill="none" stroke="midnightblue" d="M1022.65,-375.5C987.89,-375.5 935.1,-375.5 910.29,-375.5"/>
<polygon fill="midnightblue" stroke="midnightblue" points="1022.81,-379 1032.81,-375.5 1022.81,-372 1022.81,-379"/>
</g>
<!-- Node41&#45;&gt;Node40 -->
<g id="edge60" class="edge">
<title>Node41&#45;&gt;Node40</title>
<path fill="none" stroke="midnightblue" d="M1153.76,-375.5C1129.63,-375.5 1100.95,-375.5 1081.31,-375.5"/>
<polygon fill="midnightblue" stroke="midnightblue" points="1153.78,-379 1163.78,-375.5 1153.78,-372 1153.78,-379"/>
</g>
<!-- Node43 -->
<g id="node43" class="node">
<title>Node43</title>
<g id="a_node43"><a xlink:href="classEarlyStoppingCallback.html#af05216c46317631492921061caaa7b2b" target="_top" xlink:title="Stores best XCSF population in memory.">
<polygon fill="none" stroke="black" points="999,-0.5 999,-30.5 1115,-30.5 1115,-0.5 999,-0.5"/>
<text text-anchor="start" x="1007" y="-18.5" font-family="Helvetica,sans-Serif" font-size="10.00">EarlyStoppingCallback</text>
<text text-anchor="middle" x="1057" y="-7.5" font-family="Helvetica,sans-Serif" font-size="10.00">::store</text>
</a>
</g>
</g>
<!-- Node42&#45;&gt;Node43 -->
<g id="edge62" class="edge">
<title>Node42&#45;&gt;Node43</title>
<path fill="none" stroke="midnightblue" d="M1158.63,-46.9C1142.3,-41.81 1123.32,-35.88 1106.28,-30.57"/>
<polygon fill="midnightblue" stroke="midnightblue" points="1157.82,-50.31 1168.41,-49.95 1159.9,-43.63 1157.82,-50.31"/>
</g>
<!-- Node45 -->
<g id="node45" class="node">
<title>Node45</title>
<g id="a_node45"><a xlink:href="classXCS.html#a0d5d38e87da92827cee73290b030ff9f" target="_top" xlink:title="Stores the current population in memory for later retrieval.">
<polygon fill="none" stroke="black" points="1024.5,-50 1024.5,-69 1089.5,-69 1089.5,-50 1024.5,-50"/>
<text text-anchor="middle" x="1057" y="-57" font-family="Helvetica,sans-Serif" font-size="10.00">XCS::store</text>
</a>
</g>
</g>
<!-- Node42&#45;&gt;Node45 -->
<g id="edge64" class="edge">
<title>Node42&#45;&gt;Node45</title>
<path fill="none" stroke="midnightblue" d="M1146.58,-59.5C1127.4,-59.5 1106.3,-59.5 1089.51,-59.5"/>
<polygon fill="midnightblue" stroke="midnightblue" points="1146.7,-63 1156.7,-59.5 1146.7,-56 1146.7,-63"/>
</g>
<!-- Node44 -->
<g id="node44" class="node">
<title>Node44</title>
<g id="a_node44"><a xlink:href="classEarlyStoppingCallback.html#abd3058b7119551231838e98d71d4de0c" target="_top" xlink:title="Checks whether early stopping criteria has been met.">
<polygon fill="none" stroke="black" points="828,-6 828,-25 963,-25 963,-6 828,-6"/>
<text text-anchor="middle" x="895.5" y="-13" font-family="Helvetica,sans-Serif" font-size="10.00">EarlyStoppingCallback::run</text>
</a>
</g>
</g>
<!-- Node43&#45;&gt;Node44 -->
<g id="edge63" class="edge">
<title>Node43&#45;&gt;Node44</title>
<path fill="none" stroke="midnightblue" d="M988.64,-15.5C980.16,-15.5 971.48,-15.5 963.01,-15.5"/>
<polygon fill="midnightblue" stroke="midnightblue" points="988.87,-19 998.87,-15.5 988.87,-12 988.87,-19"/>
</g>
</g>
</svg>
