<?xml version="1.0" encoding="UTF-8" standalone="no"?>
<!DOCTYPE svg PUBLIC "-//W3C//DTD SVG 1.1//EN"
 "http://www.w3.org/Graphics/SVG/1.1/DTD/svg11.dtd">
<!-- Generated by graphviz version 2.43.0 (0)
 -->
<!-- Title: clset_pset_save Pages: 1 -->
<svg width="282pt" height="101pt"
 viewBox="0.00 0.00 282.00 101.00" xmlns="http://www.w3.org/2000/svg" xmlns:xlink="http://www.w3.org/1999/xlink">
<g id="graph0" class="graph" transform="scale(1 1) rotate(0) translate(4 97)">
<title>clset_pset_save</title>
<!-- Node1 -->
<g id="Node000001" class="node">
<title>Node1</title>
<g id="a_Node000001"><a xlink:title="Writes the population set to a file.">
<polygon fill="#999999" stroke="#666666" points="88,-56 0,-56 0,-37 88,-37 88,-56"/>
<text text-anchor="middle" x="44" y="-44" font-family="Helvetica,sans-Serif" font-size="10.00">clset_pset_save</text>
</a>
</g>
</g>
<!-- Node2 -->
<g id="Node000002" class="node">
<title>Node2</title>
<g id="a_Node000002"><a xlink:href="cl_8c.html#a9d9005cabc5bb84749bc6fb29c4b9fd9" target="_top" xlink:title="Writes a classifier to a file.">
<polygon fill="white" stroke="#666666" points="174,-56 124,-56 124,-37 174,-37 174,-56"/>
<text text-anchor="middle" x="149" y="-44" font-family="Helvetica,sans-Serif" font-size="10.00">cl_save</text>
</a>
</g>
</g>
<!-- Node1&#45;&gt;Node2 -->
<g id="edge1_Node000001_Node000002" class="edge">
<title>Node1&#45;&gt;Node2</title>
<g id="a_edge1_Node000001_Node000002"><a xlink:title=" ">
<path fill="none" stroke="#63b8ff" d="M88.08,-46.5C96.69,-46.5 105.62,-46.5 113.87,-46.5"/>
<polygon fill="#63b8ff" stroke="#63b8ff" points="113.89,-50 123.89,-46.5 113.89,-43 113.89,-50"/>
</a>
</g>
</g>
<!-- Node3 -->
<g id="Node000003" class="node">
<title>Node3</title>
<g id="a_Node000003"><a xlink:href="action_8h.html#a60392c9bd1cbef6582260ce68267ce87" target="_top" xlink:title="Writes the action to a file.">
<polygon fill="white" stroke="#666666" points="270,-93 214,-93 214,-74 270,-74 270,-93"/>
<text text-anchor="middle" x="242" y="-81" font-family="Helvetica,sans-Serif" font-size="10.00">act_save</text>
</a>
</g>
</g>
<!-- Node2&#45;&gt;Node3 -->
<g id="edge2_Node000002_Node000003" class="edge">
<title>Node2&#45;&gt;Node3</title>
<g id="a_edge2_Node000002_Node000003"><a xlink:title=" ">
<path fill="none" stroke="#63b8ff" d="M173.43,-56.03C183.97,-60.31 196.58,-65.44 208.04,-70.1"/>
<polygon fill="#63b8ff" stroke="#63b8ff" points="206.75,-73.35 217.33,-73.88 209.38,-66.87 206.75,-73.35"/>
</a>
</g>
</g>
<!-- Node4 -->
<g id="Node000004" class="node">
<title>Node4</title>
<g id="a_Node000004"><a xlink:href="condition_8h.html#a724ee05518d297e814f73a5192e582fc" target="_top" xlink:title="Writes the condition to a file.">
<polygon fill="white" stroke="#666666" points="274,-56 210,-56 210,-37 274,-37 274,-56"/>
<text text-anchor="middle" x="242" y="-44" font-family="Helvetica,sans-Serif" font-size="10.00">cond_save</text>
</a>
</g>
</g>
<!-- Node2&#45;&gt;Node4 -->
<g id="edge3_Node000002_Node000004" class="edge">
<title>Node2&#45;&gt;Node4</title>
<g id="a_edge3_Node000002_Node000004"><a xlink:title=" ">
<path fill="none" stroke="#63b8ff" d="M174.39,-46.5C182.1,-46.5 190.85,-46.5 199.41,-46.5"/>
<polygon fill="#63b8ff" stroke="#63b8ff" points="199.68,-50 209.68,-46.5 199.68,-43 199.68,-50"/>
</a>
</g>
</g>
<!-- Node5 -->
<g id="Node000005" class="node">
<title>Node5</title>
<g id="a_Node000005"><a xlink:href="prediction_8h.html#a6b770c6e0195594d8ebc5dd1b57d0f39" target="_top" xlink:title="Writes the prediction to a file.">
<polygon fill="white" stroke="#666666" points="273,-19 211,-19 211,0 273,0 273,-19"/>
<text text-anchor="middle" x="242" y="-7" font-family="Helvetica,sans-Serif" font-size="10.00">pred_save</text>
</a>
</g>
</g>
<!-- Node2&#45;&gt;Node5 -->
<g id="edge4_Node000002_Node000005" class="edge">
<title>Node2&#45;&gt;Node5</title>
<g id="a_edge4_Node000002_Node000005"><a xlink:title=" ">
<path fill="none" stroke="#63b8ff" d="M173.43,-36.97C183.97,-32.69 196.58,-27.56 208.04,-22.9"/>
<polygon fill="#63b8ff" stroke="#63b8ff" points="209.38,-26.13 217.33,-19.12 206.75,-19.65 209.38,-26.13"/>
</a>
</g>
</g>
</g>
</svg>
