<?xml version="1.0" encoding="UTF-8" standalone="no"?>
<!DOCTYPE svg PUBLIC "-//W3C//DTD SVG 1.1//EN"
 "http://www.w3.org/Graphics/SVG/1.1/DTD/svg11.dtd">
<!-- Generated by graphviz version 2.43.0 (0)
 -->
<!-- Title: clset_mean_cond_size Pages: 1 -->
<svg width="331pt" height="66pt"
 viewBox="0.00 0.00 331.00 66.00" xmlns="http://www.w3.org/2000/svg" xmlns:xlink="http://www.w3.org/1999/xlink">
<g id="graph0" class="graph" transform="scale(1 1) rotate(0) translate(4 62)">
<title>clset_mean_cond_size</title>
<!-- Node1 -->
<g id="node1" class="node">
<title>Node1</title>
<g id="a_node1"><a xlink:title="Calculates the mean condition size of classifiers in the set.">
<polygon fill="#bfbfbf" stroke="black" points="0,-19.5 0,-38.5 116,-38.5 116,-19.5 0,-19.5"/>
<text text-anchor="middle" x="58" y="-26.5" font-family="Helvetica,sans-Serif" font-size="10.00">clset_mean_cond_size</text>
</a>
</g>
</g>
<!-- Node2 -->
<g id="node2" class="node">
<title>Node2</title>
<g id="a_node2"><a xlink:href="cl_8c.html#a0b6a86e39b90048b257ead202b9c93d8" target="_top" xlink:title="Returns the size of a classifier&#39;s condition.">
<polygon fill="none" stroke="black" points="152,-38.5 152,-57.5 226,-57.5 226,-38.5 152,-38.5"/>
<text text-anchor="middle" x="189" y="-45.5" font-family="Helvetica,sans-Serif" font-size="10.00">cl_cond_size</text>
</a>
</g>
</g>
<!-- Node1&#45;&gt;Node2 -->
<g id="edge1" class="edge">
<title>Node1&#45;&gt;Node2</title>
<path fill="none" stroke="midnightblue" d="M116.33,-37.44C124.94,-38.71 133.73,-40.01 142.06,-41.23"/>
<polygon fill="midnightblue" stroke="midnightblue" points="141.55,-44.7 151.96,-42.69 142.57,-37.77 141.55,-44.7"/>
</g>
<!-- Node4 -->
<g id="node4" class="node">
<title>Node4</title>
<g id="a_node4"><a xlink:href="CMakeLists_8txt.html#abb28d976c965ac9bcae2ee68ad8e0f0a" target="_top" xlink:title=" ">
<polygon fill="none" stroke="black" points="174,-0.5 174,-19.5 204,-19.5 204,-0.5 174,-0.5"/>
<text text-anchor="middle" x="189" y="-7.5" font-family="Helvetica,sans-Serif" font-size="10.00">set</text>
</a>
</g>
</g>
<!-- Node1&#45;&gt;Node4 -->
<g id="edge3" class="edge">
<title>Node1&#45;&gt;Node4</title>
<path fill="none" stroke="midnightblue" d="M116.33,-20.56C132.94,-18.11 150.2,-15.57 163.61,-13.59"/>
<polygon fill="midnightblue" stroke="midnightblue" points="164.5,-17 173.88,-12.08 163.48,-10.07 164.5,-17"/>
</g>
<!-- Node3 -->
<g id="node3" class="node">
<title>Node3</title>
<g id="a_node3"><a xlink:href="condition_8h.html#ad0856f1c9ae9ae644b735ab932668ee8" target="_top" xlink:title="Returns the size of the classifier condition.">
<polygon fill="none" stroke="black" points="262,-38.5 262,-57.5 323,-57.5 323,-38.5 262,-38.5"/>
<text text-anchor="middle" x="292.5" y="-45.5" font-family="Helvetica,sans-Serif" font-size="10.00">cond_size</text>
</a>
</g>
</g>
<!-- Node2&#45;&gt;Node3 -->
<g id="edge2" class="edge">
<title>Node2&#45;&gt;Node3</title>
<path fill="none" stroke="midnightblue" d="M226.07,-48C234.42,-48 243.34,-48 251.83,-48"/>
<polygon fill="midnightblue" stroke="midnightblue" points="251.9,-51.5 261.9,-48 251.9,-44.5 251.9,-51.5"/>
</g>
</g>
</svg>
