<?xml version="1.0" encoding="UTF-8" standalone="no"?>
<!DOCTYPE svg PUBLIC "-//W3C//DTD SVG 1.1//EN"
 "http://www.w3.org/Graphics/SVG/1.1/DTD/svg11.dtd">
<!-- Generated by graphviz version 2.43.0 (0)
 -->
<!-- Title: clset_load_pop_file Pages: 1 -->
<svg width="540pt" height="104pt"
 viewBox="0.00 0.00 540.00 104.00" xmlns="http://www.w3.org/2000/svg" xmlns:xlink="http://www.w3.org/1999/xlink">
<g id="graph0" class="graph" transform="scale(1 1) rotate(0) translate(4 100)">
<title>clset_load_pop_file</title>
<!-- Node1 -->
<g id="node1" class="node">
<title>Node1</title>
<g id="a_node1"><a xlink:title=" ">
<polygon fill="#bfbfbf" stroke="black" points="432,-38.5 432,-57.5 532,-57.5 532,-38.5 432,-38.5"/>
<text text-anchor="middle" x="482" y="-45.5" font-family="Helvetica,sans-Serif" font-size="10.00">clset_load_pop_file</text>
</a>
</g>
</g>
<!-- Node2 -->
<g id="node2" class="node">
<title>Node2</title>
<g id="a_node2"><a xlink:href="clset_8c.html#a0dc2a4754c73df72a73b31c09cd50003" target="_top" xlink:title="Initialises a new population of random classifiers.">
<polygon fill="none" stroke="black" points="316,-38.5 316,-57.5 396,-57.5 396,-38.5 316,-38.5"/>
<text text-anchor="middle" x="356" y="-45.5" font-family="Helvetica,sans-Serif" font-size="10.00">clset_pset_init</text>
</a>
</g>
</g>
<!-- Node1&#45;&gt;Node2 -->
<g id="edge1" class="edge">
<title>Node1&#45;&gt;Node2</title>
<path fill="none" stroke="midnightblue" d="M421.82,-48C413.09,-48 404.29,-48 396.11,-48"/>
<polygon fill="midnightblue" stroke="midnightblue" points="421.99,-51.5 431.99,-48 421.99,-44.5 421.99,-51.5"/>
</g>
<!-- Node3 -->
<g id="node3" class="node">
<title>Node3</title>
<g id="a_node3"><a xlink:href="xcsf_8c.html#ae4718dd9f579b8730e25a1a13a385d6a" target="_top" xlink:title="Initialises XCSF with an empty population.">
<polygon fill="none" stroke="black" points="227,-38.5 227,-57.5 280,-57.5 280,-38.5 227,-38.5"/>
<text text-anchor="middle" x="253.5" y="-45.5" font-family="Helvetica,sans-Serif" font-size="10.00">xcsf_init</text>
</a>
</g>
</g>
<!-- Node2&#45;&gt;Node3 -->
<g id="edge2" class="edge">
<title>Node2&#45;&gt;Node3</title>
<path fill="none" stroke="midnightblue" d="M305.57,-48C296.74,-48 287.88,-48 280.07,-48"/>
<polygon fill="midnightblue" stroke="midnightblue" points="305.86,-51.5 315.86,-48 305.86,-44.5 305.86,-51.5"/>
</g>
<!-- Node4 -->
<g id="node4" class="node">
<title>Node4</title>
<g id="a_node4"><a xlink:href="classXCS.html#a04a010f5046c529132d7a67202123295" target="_top" xlink:title="Executes MAX_TRIALS number of XCSF learning iterations using the provided training data.">
<polygon fill="none" stroke="black" points="132.5,-76.5 132.5,-95.5 184.5,-95.5 184.5,-76.5 132.5,-76.5"/>
<text text-anchor="middle" x="158.5" y="-83.5" font-family="Helvetica,sans-Serif" font-size="10.00">XCS::fit</text>
</a>
</g>
</g>
<!-- Node3&#45;&gt;Node4 -->
<g id="edge3" class="edge">
<title>Node3&#45;&gt;Node4</title>
<path fill="none" stroke="midnightblue" d="M219.68,-61.41C207.56,-66.36 194.08,-71.87 182.96,-76.41"/>
<polygon fill="midnightblue" stroke="midnightblue" points="221.1,-64.61 229.03,-57.59 218.45,-58.13 221.1,-64.61"/>
</g>
<!-- Node5 -->
<g id="node5" class="node">
<title>Node5</title>
<g id="a_node5"><a xlink:href="main_8c.html#a3c04138a5bfe5d72780bb7e82a18e627" target="_top" xlink:title=" ">
<polygon fill="none" stroke="black" points="139.5,-38.5 139.5,-57.5 177.5,-57.5 177.5,-38.5 139.5,-38.5"/>
<text text-anchor="middle" x="158.5" y="-45.5" font-family="Helvetica,sans-Serif" font-size="10.00">main</text>
</a>
</g>
</g>
<!-- Node3&#45;&gt;Node5 -->
<g id="edge4" class="edge">
<title>Node3&#45;&gt;Node5</title>
<path fill="none" stroke="midnightblue" d="M216.3,-48C203.05,-48 188.61,-48 177.61,-48"/>
<polygon fill="midnightblue" stroke="midnightblue" points="216.59,-51.5 226.59,-48 216.59,-44.5 216.59,-51.5"/>
</g>
<!-- Node6 -->
<g id="node6" class="node">
<title>Node6</title>
<g id="a_node6"><a xlink:href="classXCS.html#a8a53a8df81152fbf73e6abcc6a6e56b4" target="_top" xlink:title="Default Constructor.">
<polygon fill="none" stroke="black" points="126,-0.5 126,-19.5 191,-19.5 191,-0.5 126,-0.5"/>
<text text-anchor="middle" x="158.5" y="-7.5" font-family="Helvetica,sans-Serif" font-size="10.00">XCS::XCS</text>
</a>
</g>
</g>
<!-- Node3&#45;&gt;Node6 -->
<g id="edge5" class="edge">
<title>Node3&#45;&gt;Node6</title>
<path fill="none" stroke="midnightblue" d="M219.68,-34.59C207.56,-29.64 194.08,-24.13 182.96,-19.59"/>
<polygon fill="midnightblue" stroke="midnightblue" points="218.45,-37.87 229.03,-38.41 221.1,-31.39 218.45,-37.87"/>
</g>
<!-- Node7 -->
<g id="node7" class="node">
<title>Node7</title>
<g id="a_node7"><a xlink:href="classXCS.html#a71b21201e1a2aef16702a2c308eb6683" target="_top" xlink:title="Implements pickle file reading.">
<polygon fill="none" stroke="black" points="0,-0.5 0,-19.5 90,-19.5 90,-0.5 0,-0.5"/>
<text text-anchor="middle" x="45" y="-7.5" font-family="Helvetica,sans-Serif" font-size="10.00">XCS::deserialize</text>
</a>
</g>
</g>
<!-- Node6&#45;&gt;Node7 -->
<g id="edge6" class="edge">
<title>Node6&#45;&gt;Node7</title>
<path fill="none" stroke="midnightblue" d="M115.63,-10C107.33,-10 98.59,-10 90.22,-10"/>
<polygon fill="midnightblue" stroke="midnightblue" points="115.85,-13.5 125.85,-10 115.85,-6.5 115.85,-13.5"/>
</g>
</g>
</svg>
