<?xml version="1.0" encoding="UTF-8" standalone="no"?>
<!DOCTYPE svg PUBLIC "-//W3C//DTD SVG 1.1//EN"
 "http://www.w3.org/Graphics/SVG/1.1/DTD/svg11.dtd">
<!-- Generated by graphviz version 2.43.0 (0)
 -->
<!-- Title: clset_total_fit Pages: 1 -->
<svg width="1285pt" height="415pt"
 viewBox="0.00 0.00 1285.00 415.25" xmlns="http://www.w3.org/2000/svg" xmlns:xlink="http://www.w3.org/1999/xlink">
<g id="graph0" class="graph" transform="scale(1 1) rotate(0) translate(4 411.25)">
<title>clset_total_fit</title>
<!-- Node1 -->
<g id="node1" class="node">
<title>Node1</title>
<g id="a_node1"><a xlink:title="Calculates the total fitness of classifiers in the set.">
<polygon fill="#bfbfbf" stroke="black" points="1202,-226.5 1202,-245.5 1277,-245.5 1277,-226.5 1202,-226.5"/>
<text text-anchor="middle" x="1239.5" y="-233.5" font-family="Helvetica,sans-Serif" font-size="10.00">clset_total_fit</text>
</a>
</g>
</g>
<!-- Node2 -->
<g id="node2" class="node">
<title>Node2</title>
<g id="a_node2"><a xlink:href="clset_8c.html#a7ddb1248094ce9b41cf314b833798b29" target="_top" xlink:title="Selects a classifier from the population for deletion via roulette.">
<polygon fill="none" stroke="black" points="1067,-245.5 1067,-264.5 1166,-264.5 1166,-245.5 1067,-245.5"/>
<text text-anchor="middle" x="1116.5" y="-252.5" font-family="Helvetica,sans-Serif" font-size="10.00">clset_pset_roulette</text>
</a>
</g>
</g>
<!-- Node1&#45;&gt;Node2 -->
<g id="edge1" class="edge">
<title>Node1&#45;&gt;Node2</title>
<path fill="none" stroke="midnightblue" d="M1191.81,-243.33C1183.38,-244.66 1174.56,-246.04 1166.08,-247.37"/>
<polygon fill="midnightblue" stroke="midnightblue" points="1192.53,-246.76 1201.87,-241.75 1191.45,-239.85 1192.53,-246.76"/>
</g>
<!-- Node30 -->
<g id="node30" class="node">
<title>Node30</title>
<g id="a_node30"><a xlink:href="ea_8c.html#a78e7969b82ca14889652c6c1716675ff" target="_top" xlink:title="Selects two parents.">
<polygon fill="none" stroke="black" points="961.5,-207.5 961.5,-226.5 1020.5,-226.5 1020.5,-207.5 961.5,-207.5"/>
<text text-anchor="middle" x="991" y="-214.5" font-family="Helvetica,sans-Serif" font-size="10.00">ea_select</text>
</a>
</g>
</g>
<!-- Node1&#45;&gt;Node30 -->
<g id="edge41" class="edge">
<title>Node1&#45;&gt;Node30</title>
<path fill="none" stroke="midnightblue" d="M1191.87,-232.41C1141.49,-228.52 1062.79,-222.46 1020.75,-219.22"/>
<polygon fill="midnightblue" stroke="midnightblue" points="1191.62,-235.9 1201.86,-233.18 1192.16,-228.92 1191.62,-235.9"/>
</g>
<!-- Node3 -->
<g id="node3" class="node">
<title>Node3</title>
<g id="a_node3"><a xlink:href="clset_8c.html#a106a72afb7785af1d1b639736a6340be" target="_top" xlink:title="Deletes a single classifier from the population set.">
<polygon fill="none" stroke="black" points="951,-246.5 951,-265.5 1031,-265.5 1031,-246.5 951,-246.5"/>
<text text-anchor="middle" x="991" y="-253.5" font-family="Helvetica,sans-Serif" font-size="10.00">clset_pset_del</text>
</a>
</g>
</g>
<!-- Node2&#45;&gt;Node3 -->
<g id="edge2" class="edge">
<title>Node2&#45;&gt;Node3</title>
<path fill="none" stroke="midnightblue" d="M1056.68,-255.48C1048.08,-255.55 1039.41,-255.62 1031.34,-255.68"/>
<polygon fill="midnightblue" stroke="midnightblue" points="1056.72,-258.98 1066.69,-255.4 1056.66,-251.98 1056.72,-258.98"/>
</g>
<!-- Node4 -->
<g id="node4" class="node">
<title>Node4</title>
<g id="a_node4"><a xlink:href="clset_8h.html#a5e05b1d84c921f8f83e90d636b2f59fd" target="_top" xlink:title="Enforces the maximum population size limit.">
<polygon fill="none" stroke="black" points="816,-243 816,-273 915,-273 915,-243 816,-243"/>
<text text-anchor="start" x="824" y="-261" font-family="Helvetica,sans-Serif" font-size="10.00">clset_pset_enforce</text>
<text text-anchor="middle" x="865.5" y="-250" font-family="Helvetica,sans-Serif" font-size="10.00">_limit</text>
</a>
</g>
</g>
<!-- Node3&#45;&gt;Node4 -->
<g id="edge3" class="edge">
<title>Node3&#45;&gt;Node4</title>
<path fill="none" stroke="midnightblue" d="M940.87,-256.8C932.45,-256.93 923.72,-257.07 915.31,-257.21"/>
<polygon fill="midnightblue" stroke="midnightblue" points="940.98,-260.29 950.92,-256.63 940.87,-253.3 940.98,-260.29"/>
</g>
<!-- Node5 -->
<g id="node5" class="node">
<title>Node5</title>
<g id="a_node5"><a xlink:href="clset_8c.html#aa1b7f7f1ccebf6e4e030333304fe3f51" target="_top" xlink:title="Ensures all possible actions are covered by the match set.">
<polygon fill="none" stroke="black" points="713,-247.5 713,-266.5 780,-266.5 780,-247.5 713,-247.5"/>
<text text-anchor="middle" x="746.5" y="-254.5" font-family="Helvetica,sans-Serif" font-size="10.00">clset_cover</text>
</a>
</g>
</g>
<!-- Node4&#45;&gt;Node5 -->
<g id="edge4" class="edge">
<title>Node4&#45;&gt;Node5</title>
<path fill="none" stroke="midnightblue" d="M805.64,-257.5C796.86,-257.42 788.09,-257.35 780.13,-257.28"/>
<polygon fill="midnightblue" stroke="midnightblue" points="805.87,-261 815.9,-257.58 805.93,-254 805.87,-261"/>
</g>
<!-- Node23 -->
<g id="node23" class="node">
<title>Node23</title>
<g id="a_node23"><a xlink:href="clset_8h.html#a9f71f62cb4c5216fb3a3e76a6b3df82f" target="_top" xlink:title="Creates a classifier from cJSON and inserts in the population set.">
<polygon fill="none" stroke="black" points="473,-323.5 473,-342.5 563,-342.5 563,-323.5 473,-323.5"/>
<text text-anchor="middle" x="518" y="-330.5" font-family="Helvetica,sans-Serif" font-size="10.00">clset_json_insert</text>
</a>
</g>
</g>
<!-- Node4&#45;&gt;Node23 -->
<g id="edge27" class="edge">
<title>Node4&#45;&gt;Node23</title>
<path fill="none" stroke="midnightblue" d="M805.91,-270.72C737.11,-285.65 624.58,-310.08 562.88,-323.48"/>
<polygon fill="midnightblue" stroke="midnightblue" points="806.7,-274.13 815.73,-268.59 805.22,-267.29 806.7,-274.13"/>
</g>
<!-- Node27 -->
<g id="node27" class="node">
<title>Node27</title>
<g id="a_node27"><a xlink:href="ea_8h.html#a295cd56f77428d1fa2555df1ce363cdd" target="_top" xlink:title="Executes the evolutionary algorithm (EA).">
<polygon fill="none" stroke="black" points="732,-207.5 732,-226.5 761,-226.5 761,-207.5 732,-207.5"/>
<text text-anchor="middle" x="746.5" y="-214.5" font-family="Helvetica,sans-Serif" font-size="10.00">ea</text>
</a>
</g>
</g>
<!-- Node4&#45;&gt;Node27 -->
<g id="edge34" class="edge">
<title>Node4&#45;&gt;Node27</title>
<path fill="none" stroke="midnightblue" d="M811.91,-239.57C793.18,-233.01 773.62,-226.15 761.04,-221.75"/>
<polygon fill="midnightblue" stroke="midnightblue" points="811,-242.96 821.6,-242.97 813.32,-236.36 811,-242.96"/>
</g>
<!-- Node6 -->
<g id="node6" class="node">
<title>Node6</title>
<g id="a_node6"><a xlink:href="clset_8h.html#a101813e8460677fdb33f08e0226dce9b" target="_top" xlink:title="Constructs the match set &#45; forward propagates conditions and actions.">
<polygon fill="none" stroke="black" points="607,-247.5 607,-266.5 677,-266.5 677,-247.5 607,-247.5"/>
<text text-anchor="middle" x="642" y="-254.5" font-family="Helvetica,sans-Serif" font-size="10.00">clset_match</text>
</a>
</g>
</g>
<!-- Node5&#45;&gt;Node6 -->
<g id="edge5" class="edge">
<title>Node5&#45;&gt;Node6</title>
<path fill="none" stroke="midnightblue" d="M702.64,-257C694.14,-257 685.33,-257 677.17,-257"/>
<polygon fill="midnightblue" stroke="midnightblue" points="702.79,-260.5 712.79,-257 702.79,-253.5 702.79,-260.5"/>
</g>
<!-- Node7 -->
<g id="node7" class="node">
<title>Node7</title>
<g id="a_node7"><a xlink:href="xcs__rl_8h.html#a6501735ba3cba5c77c1b8ad0aad0b26a" target="_top" xlink:title="Selects an action to perform in a reinforcement learning problem.">
<polygon fill="none" stroke="black" points="476,-247.5 476,-266.5 560,-266.5 560,-247.5 476,-247.5"/>
<text text-anchor="middle" x="518" y="-254.5" font-family="Helvetica,sans-Serif" font-size="10.00">xcs_rl_decision</text>
</a>
</g>
</g>
<!-- Node6&#45;&gt;Node7 -->
<g id="edge6" class="edge">
<title>Node6&#45;&gt;Node7</title>
<path fill="none" stroke="midnightblue" d="M596.59,-257C584.77,-257 572.06,-257 560.41,-257"/>
<polygon fill="midnightblue" stroke="midnightblue" points="596.69,-260.5 606.69,-257 596.69,-253.5 596.69,-260.5"/>
</g>
<!-- Node13 -->
<g id="node13" class="node">
<title>Node13</title>
<g id="a_node13"><a xlink:href="xcs__rl_8h.html#a391abf9bd2540ff284f822b30899c438" target="_top" xlink:title="Creates and updates an action set for a given (state, action, reward).">
<polygon fill="none" stroke="black" points="341.5,-285.5 341.5,-304.5 397.5,-304.5 397.5,-285.5 341.5,-285.5"/>
<text text-anchor="middle" x="369.5" y="-292.5" font-family="Helvetica,sans-Serif" font-size="10.00">xcs_rl_fit</text>
</a>
</g>
</g>
<!-- Node6&#45;&gt;Node13 -->
<g id="edge12" class="edge">
<title>Node6&#45;&gt;Node13</title>
<path fill="none" stroke="midnightblue" d="M600.53,-269.24C590.92,-271.8 580.66,-274.25 571,-276 509.59,-287.16 436.34,-291.99 397.62,-293.9"/>
<polygon fill="midnightblue" stroke="midnightblue" points="601.53,-272.6 610.25,-266.57 599.68,-265.85 601.53,-272.6"/>
</g>
<!-- Node15 -->
<g id="node15" class="node">
<title>Node15</title>
<g id="a_node15"><a xlink:href="xcs__supervised_8c.html#a836aae9ec3055625d1c464d41746a7b9" target="_top" xlink:title="Executes a single XCSF trial.">
<polygon fill="none" stroke="black" points="465,-114.5 465,-133.5 571,-133.5 571,-114.5 465,-114.5"/>
<text text-anchor="middle" x="518" y="-121.5" font-family="Helvetica,sans-Serif" font-size="10.00">xcs_supervised_trial</text>
</a>
</g>
</g>
<!-- Node6&#45;&gt;Node15 -->
<g id="edge15" class="edge">
<title>Node6&#45;&gt;Node15</title>
<path fill="none" stroke="midnightblue" d="M625.35,-239.94C599.49,-211.75 548.66,-156.33 528.02,-133.84"/>
<polygon fill="midnightblue" stroke="midnightblue" points="622.89,-242.43 632.23,-247.43 628.05,-237.7 622.89,-242.43"/>
</g>
<!-- Node8 -->
<g id="node8" class="node">
<title>Node8</title>
<g id="a_node8"><a xlink:href="classXCS.html#ac6003941812bd2c70ea443dd63bd59d0" target="_top" xlink:title="Selects an action to perform in a reinforcement learning problem.">
<polygon fill="none" stroke="black" points="171.5,-247.5 171.5,-266.5 251.5,-266.5 251.5,-247.5 171.5,-247.5"/>
<text text-anchor="middle" x="211.5" y="-254.5" font-family="Helvetica,sans-Serif" font-size="10.00">XCS::decision</text>
</a>
</g>
</g>
<!-- Node7&#45;&gt;Node8 -->
<g id="edge7" class="edge">
<title>Node7&#45;&gt;Node8</title>
<path fill="none" stroke="midnightblue" d="M465.87,-257C405.57,-257 306.65,-257 251.95,-257"/>
<polygon fill="midnightblue" stroke="midnightblue" points="465.93,-260.5 475.93,-257 465.93,-253.5 465.93,-260.5"/>
</g>
<!-- Node10 -->
<g id="node10" class="node">
<title>Node10</title>
<g id="a_node10"><a xlink:href="xcs__rl_8c.html#a8171cd945b56ed0a4563f9dcd89438e3" target="_top" xlink:title="Executes a reinforcement learning trial using a built&#45;in environment.">
<polygon fill="none" stroke="black" points="337.5,-209.5 337.5,-228.5 401.5,-228.5 401.5,-209.5 337.5,-209.5"/>
<text text-anchor="middle" x="369.5" y="-216.5" font-family="Helvetica,sans-Serif" font-size="10.00">xcs_rl_trial</text>
</a>
</g>
</g>
<!-- Node7&#45;&gt;Node10 -->
<g id="edge9" class="edge">
<title>Node7&#45;&gt;Node10</title>
<path fill="none" stroke="midnightblue" d="M470.34,-244.9C447.85,-239.06 421.5,-232.23 401.51,-227.04"/>
<polygon fill="midnightblue" stroke="midnightblue" points="469.47,-248.29 480.03,-247.41 471.23,-241.51 469.47,-248.29"/>
</g>
<!-- Node9 -->
<g id="node9" class="node">
<title>Node9</title>
<g id="a_node9"><a xlink:href="pybind__wrapper_8cpp.html#a172daba0778fe2bd38d723d5f52a23d5" target="_top" xlink:title=" ">
<polygon fill="none" stroke="black" points="0,-285.5 0,-304.5 113,-304.5 113,-285.5 0,-285.5"/>
<text text-anchor="middle" x="56.5" y="-292.5" font-family="Helvetica,sans-Serif" font-size="10.00">PYBIND11_MODULE</text>
</a>
</g>
</g>
<!-- Node8&#45;&gt;Node9 -->
<g id="edge8" class="edge">
<title>Node8&#45;&gt;Node9</title>
<path fill="none" stroke="midnightblue" d="M162.02,-269.04C140.65,-274.35 115.89,-280.5 95.83,-285.48"/>
<polygon fill="midnightblue" stroke="midnightblue" points="163.03,-272.4 171.89,-266.59 161.34,-265.6 163.03,-272.4"/>
</g>
<!-- Node11 -->
<g id="node11" class="node">
<title>Node11</title>
<g id="a_node11"><a xlink:href="xcs__rl_8h.html#adb4c284d19eeaed2b4a629f9b939ed20" target="_top" xlink:title="Executes a reinforcement learning experiment.">
<polygon fill="none" stroke="black" points="179.5,-171.5 179.5,-190.5 243.5,-190.5 243.5,-171.5 179.5,-171.5"/>
<text text-anchor="middle" x="211.5" y="-178.5" font-family="Helvetica,sans-Serif" font-size="10.00">xcs_rl_exp</text>
</a>
</g>
</g>
<!-- Node10&#45;&gt;Node11 -->
<g id="edge10" class="edge">
<title>Node10&#45;&gt;Node11</title>
<path fill="none" stroke="midnightblue" d="M327.28,-208.96C301.06,-202.57 267.65,-194.43 243.64,-188.59"/>
<polygon fill="midnightblue" stroke="midnightblue" points="326.76,-212.44 337.31,-211.4 328.42,-205.63 326.76,-212.44"/>
</g>
<!-- Node12 -->
<g id="node12" class="node">
<title>Node12</title>
<g id="a_node12"><a xlink:href="main_8c.html#a3c04138a5bfe5d72780bb7e82a18e627" target="_top" xlink:title=" ">
<polygon fill="none" stroke="black" points="37.5,-133.5 37.5,-152.5 75.5,-152.5 75.5,-133.5 37.5,-133.5"/>
<text text-anchor="middle" x="56.5" y="-140.5" font-family="Helvetica,sans-Serif" font-size="10.00">main</text>
</a>
</g>
</g>
<!-- Node11&#45;&gt;Node12 -->
<g id="edge11" class="edge">
<title>Node11&#45;&gt;Node12</title>
<path fill="none" stroke="midnightblue" d="M169.24,-170.75C138.78,-163.19 98.79,-153.25 75.83,-147.55"/>
<polygon fill="midnightblue" stroke="midnightblue" points="168.62,-174.2 179.17,-173.22 170.31,-167.41 168.62,-174.2"/>
</g>
<!-- Node14 -->
<g id="node14" class="node">
<title>Node14</title>
<g id="a_node14"><a xlink:href="classXCS.html#ac12768292958a714a726b1c029e9616a" target="_top" xlink:title="Creates/updates an action set for a given (state, action, reward).">
<polygon fill="none" stroke="black" points="185.5,-285.5 185.5,-304.5 237.5,-304.5 237.5,-285.5 185.5,-285.5"/>
<text text-anchor="middle" x="211.5" y="-292.5" font-family="Helvetica,sans-Serif" font-size="10.00">XCS::fit</text>
</a>
</g>
</g>
<!-- Node13&#45;&gt;Node14 -->
<g id="edge13" class="edge">
<title>Node13&#45;&gt;Node14</title>
<path fill="none" stroke="midnightblue" d="M331.17,-295C302.2,-295 262.85,-295 237.56,-295"/>
<polygon fill="midnightblue" stroke="midnightblue" points="331.33,-298.5 341.33,-295 331.33,-291.5 331.33,-298.5"/>
</g>
<!-- Node14&#45;&gt;Node9 -->
<g id="edge14" class="edge">
<title>Node14&#45;&gt;Node9</title>
<path fill="none" stroke="midnightblue" d="M175.01,-295C156.69,-295 133.91,-295 113.3,-295"/>
<polygon fill="midnightblue" stroke="midnightblue" points="175.24,-298.5 185.24,-295 175.24,-291.5 175.24,-298.5"/>
</g>
<!-- Node16 -->
<g id="node16" class="node">
<title>Node16</title>
<g id="a_node16"><a xlink:href="xcs__supervised_8h.html#aac1347b7b83576d581a1b725b4c84e56" target="_top" xlink:title="Executes MAX_TRIALS number of XCSF learning iterations using the training data and test iterations us...">
<polygon fill="none" stroke="black" points="320.5,-95.5 320.5,-114.5 418.5,-114.5 418.5,-95.5 320.5,-95.5"/>
<text text-anchor="middle" x="369.5" y="-102.5" font-family="Helvetica,sans-Serif" font-size="10.00">xcs_supervised_fit</text>
</a>
</g>
</g>
<!-- Node15&#45;&gt;Node16 -->
<g id="edge16" class="edge">
<title>Node15&#45;&gt;Node16</title>
<path fill="none" stroke="midnightblue" d="M454.96,-115.95C442.93,-114.39 430.48,-112.78 418.97,-111.29"/>
<polygon fill="midnightblue" stroke="midnightblue" points="454.57,-119.43 464.94,-117.25 455.47,-112.49 454.57,-119.43"/>
</g>
<!-- Node18 -->
<g id="node18" class="node">
<title>Node18</title>
<g id="a_node18"><a xlink:href="xcs__supervised_8h.html#a2dc51452fdb0be0e27fd3ebfe6041474" target="_top" xlink:title="Calculates the XCSF predictions for the provided input.">
<polygon fill="none" stroke="black" points="310,-133.5 310,-152.5 429,-152.5 429,-133.5 310,-133.5"/>
<text text-anchor="middle" x="369.5" y="-140.5" font-family="Helvetica,sans-Serif" font-size="10.00">xcs_supervised_predict</text>
</a>
</g>
</g>
<!-- Node15&#45;&gt;Node18 -->
<g id="edge19" class="edge">
<title>Node15&#45;&gt;Node18</title>
<path fill="none" stroke="midnightblue" d="M455,-132.04C446.42,-133.15 437.64,-134.29 429.13,-135.4"/>
<polygon fill="midnightblue" stroke="midnightblue" points="455.47,-135.51 464.94,-130.75 454.57,-128.57 455.47,-135.51"/>
</g>
<!-- Node20 -->
<g id="node20" class="node">
<title>Node20</title>
<g id="a_node20"><a xlink:href="xcs__supervised_8h.html#ae05de18a53511ba46b2a6a733c780580" target="_top" xlink:title="Calculates the XCSF error for the input data.">
<polygon fill="none" stroke="black" points="312.5,-19.5 312.5,-38.5 426.5,-38.5 426.5,-19.5 312.5,-19.5"/>
<text text-anchor="middle" x="369.5" y="-26.5" font-family="Helvetica,sans-Serif" font-size="10.00">xcs_supervised_score</text>
</a>
</g>
</g>
<!-- Node15&#45;&gt;Node20 -->
<g id="edge22" class="edge">
<title>Node15&#45;&gt;Node20</title>
<path fill="none" stroke="midnightblue" d="M499.68,-107.48C482.71,-91.92 455.57,-68.72 429,-53 419.46,-47.36 408.34,-42.43 398.37,-38.53"/>
<polygon fill="midnightblue" stroke="midnightblue" points="497.45,-110.18 507.16,-114.43 502.22,-105.06 497.45,-110.18"/>
</g>
<!-- Node22 -->
<g id="node22" class="node">
<title>Node22</title>
<g id="a_node22"><a xlink:href="xcs__supervised_8h.html#a56ec80025279785376a569ec0130c29f" target="_top" xlink:title="Calculates the XCSF error for a subsample of the input data.">
<polygon fill="none" stroke="black" points="149,-19.5 149,-38.5 274,-38.5 274,-19.5 149,-19.5"/>
<text text-anchor="middle" x="211.5" y="-26.5" font-family="Helvetica,sans-Serif" font-size="10.00">xcs_supervised_score_n</text>
</a>
</g>
</g>
<!-- Node15&#45;&gt;Node22 -->
<g id="edge26" class="edge">
<title>Node15&#45;&gt;Node22</title>
<path fill="none" stroke="midnightblue" d="M487.73,-110.04C470.81,-102.31 448.99,-92.9 429,-86 370.4,-65.76 300.78,-48.62 256.62,-38.57"/>
<polygon fill="midnightblue" stroke="midnightblue" points="486.52,-113.34 497.07,-114.37 489.46,-106.99 486.52,-113.34"/>
</g>
<!-- Node16&#45;&gt;Node12 -->
<g id="edge18" class="edge">
<title>Node16&#45;&gt;Node12</title>
<path fill="none" stroke="midnightblue" d="M310.33,-108.15C265.96,-111.01 203.42,-116.02 149,-124 123.32,-127.76 93.99,-134.25 75.62,-138.58"/>
<polygon fill="midnightblue" stroke="midnightblue" points="310.59,-111.64 320.35,-107.52 310.15,-104.66 310.59,-111.64"/>
</g>
<!-- Node17 -->
<g id="node17" class="node">
<title>Node17</title>
<g id="a_node17"><a xlink:href="classXCS.html#a3f8168ffade2d933d0971625200f1d92" target="_top" xlink:title="Executes MAX_TRIALS number of XCSF learning iterations using the provided training data.">
<polygon fill="none" stroke="black" points="185.5,-57.5 185.5,-76.5 237.5,-76.5 237.5,-57.5 185.5,-57.5"/>
<text text-anchor="middle" x="211.5" y="-64.5" font-family="Helvetica,sans-Serif" font-size="10.00">XCS::fit</text>
</a>
</g>
</g>
<!-- Node16&#45;&gt;Node17 -->
<g id="edge17" class="edge">
<title>Node16&#45;&gt;Node17</title>
<path fill="none" stroke="midnightblue" d="M319.41,-93.04C292.27,-86.43 259.69,-78.49 237.68,-73.13"/>
<polygon fill="midnightblue" stroke="midnightblue" points="318.59,-96.44 329.13,-95.41 320.25,-89.64 318.59,-96.44"/>
</g>
<!-- Node19 -->
<g id="node19" class="node">
<title>Node19</title>
<g id="a_node19"><a xlink:href="classXCS.html#a4d7d398d90d5f695fcbfe0fa99354436" target="_top" xlink:title="Returns the XCSF prediction array for the provided input.">
<polygon fill="none" stroke="black" points="175,-133.5 175,-152.5 248,-152.5 248,-133.5 175,-133.5"/>
<text text-anchor="middle" x="211.5" y="-140.5" font-family="Helvetica,sans-Serif" font-size="10.00">XCS::predict</text>
</a>
</g>
</g>
<!-- Node18&#45;&gt;Node19 -->
<g id="edge20" class="edge">
<title>Node18&#45;&gt;Node19</title>
<path fill="none" stroke="midnightblue" d="M299.62,-143C281.88,-143 263.51,-143 248.23,-143"/>
<polygon fill="midnightblue" stroke="midnightblue" points="299.97,-146.5 309.97,-143 299.97,-139.5 299.97,-146.5"/>
</g>
<!-- Node19&#45;&gt;Node9 -->
<g id="edge21" class="edge">
<title>Node19&#45;&gt;Node9</title>
<path fill="none" stroke="midnightblue" d="M165.08,-153.17C159.37,-155.53 153.85,-158.44 149,-162 102.71,-196.03 71.88,-260.85 61.44,-285.32"/>
<polygon fill="midnightblue" stroke="midnightblue" points="166.54,-156.36 174.76,-149.68 164.17,-149.78 166.54,-156.36"/>
</g>
<!-- Node21 -->
<g id="node21" class="node">
<title>Node21</title>
<g id="a_node21"><a xlink:href="classXCS.html#a4bb9f3f8613abf7ba95837a03bbb931d" target="_top" xlink:title="Returns the error using N random samples from the provided data.">
<polygon fill="none" stroke="black" points="22.5,-0.5 22.5,-19.5 90.5,-19.5 90.5,-0.5 22.5,-0.5"/>
<text text-anchor="middle" x="56.5" y="-7.5" font-family="Helvetica,sans-Serif" font-size="10.00">XCS::score</text>
</a>
</g>
</g>
<!-- Node20&#45;&gt;Node21 -->
<g id="edge23" class="edge">
<title>Node20&#45;&gt;Node21</title>
<path fill="none" stroke="midnightblue" d="M320.22,-17.38C305.47,-14.35 289.15,-11.51 274,-10 209.29,-3.56 133.17,-5.82 90.61,-7.97"/>
<polygon fill="midnightblue" stroke="midnightblue" points="319.63,-20.83 330.14,-19.49 321.09,-13.98 319.63,-20.83"/>
</g>
<!-- Node20&#45;&gt;Node22 -->
<g id="edge24" class="edge">
<title>Node20&#45;&gt;Node22</title>
<path fill="none" stroke="midnightblue" d="M302.16,-29C292.82,-29 283.26,-29 274.02,-29"/>
<polygon fill="midnightblue" stroke="midnightblue" points="302.18,-32.5 312.18,-29 302.18,-25.5 302.18,-32.5"/>
</g>
<!-- Node22&#45;&gt;Node21 -->
<g id="edge25" class="edge">
<title>Node22&#45;&gt;Node21</title>
<path fill="none" stroke="midnightblue" d="M138.35,-20.04C121.62,-17.96 104.6,-15.85 90.52,-14.1"/>
<polygon fill="midnightblue" stroke="midnightblue" points="138.35,-23.57 148.71,-21.33 139.22,-16.62 138.35,-23.57"/>
</g>
<!-- Node24 -->
<g id="node24" class="node">
<title>Node24</title>
<g id="a_node24"><a xlink:href="classXCS.html#af888b891afb66fbe06ba4919ef16adf9" target="_top" xlink:title="Creates classifiers from JSON and inserts into the population.">
<polygon fill="none" stroke="black" points="324,-323.5 324,-342.5 415,-342.5 415,-323.5 324,-323.5"/>
<text text-anchor="middle" x="369.5" y="-330.5" font-family="Helvetica,sans-Serif" font-size="10.00">XCS::json_insert</text>
</a>
</g>
</g>
<!-- Node23&#45;&gt;Node24 -->
<g id="edge28" class="edge">
<title>Node23&#45;&gt;Node24</title>
<path fill="none" stroke="midnightblue" d="M462.6,-333C446.99,-333 430.16,-333 415.21,-333"/>
<polygon fill="midnightblue" stroke="midnightblue" points="462.65,-336.5 472.65,-333 462.65,-329.5 462.65,-336.5"/>
</g>
<!-- Node26 -->
<g id="node26" class="node">
<title>Node26</title>
<g id="a_node26"><a xlink:href="classXCS.html#a61361120dbba1dba3ca49b53ded91edb" target="_top" xlink:title="Creates a classifier from JSON and inserts into the population.">
<polygon fill="none" stroke="black" points="317.5,-380.5 317.5,-399.5 421.5,-399.5 421.5,-380.5 317.5,-380.5"/>
<text text-anchor="middle" x="369.5" y="-387.5" font-family="Helvetica,sans-Serif" font-size="10.00">XCS::json_insert_cl</text>
</a>
</g>
</g>
<!-- Node23&#45;&gt;Node26 -->
<g id="edge32" class="edge">
<title>Node23&#45;&gt;Node26</title>
<path fill="none" stroke="midnightblue" d="M483.07,-346.2C456.17,-356.67 419.21,-371.05 395.1,-380.43"/>
<polygon fill="midnightblue" stroke="midnightblue" points="484.43,-349.43 492.48,-342.54 481.89,-342.9 484.43,-349.43"/>
</g>
<!-- Node24&#45;&gt;Node9 -->
<g id="edge31" class="edge">
<title>Node24&#45;&gt;Node9</title>
<path fill="none" stroke="midnightblue" d="M313.73,-330.06C269.2,-327.24 204.83,-322.18 149,-314 132.31,-311.55 114.07,-307.96 98.31,-304.55"/>
<polygon fill="midnightblue" stroke="midnightblue" points="313.56,-333.56 323.76,-330.68 313.99,-326.57 313.56,-333.56"/>
</g>
<!-- Node25 -->
<g id="node25" class="node">
<title>Node25</title>
<g id="a_node25"><a xlink:href="classXCS.html#a1a882e28a64c4e2b92ae234d79f327de" target="_top" xlink:title="Reads classifiers from a JSON file and adds to the population.">
<polygon fill="none" stroke="black" points="168.5,-361.5 168.5,-380.5 254.5,-380.5 254.5,-361.5 168.5,-361.5"/>
<text text-anchor="middle" x="211.5" y="-368.5" font-family="Helvetica,sans-Serif" font-size="10.00">XCS::json_read</text>
</a>
</g>
</g>
<!-- Node24&#45;&gt;Node25 -->
<g id="edge29" class="edge">
<title>Node24&#45;&gt;Node25</title>
<path fill="none" stroke="midnightblue" d="M319.37,-344.97C297.51,-350.29 272.12,-356.48 251.58,-361.48"/>
<polygon fill="midnightblue" stroke="midnightblue" points="320.25,-348.36 329.13,-342.59 318.59,-341.56 320.25,-348.36"/>
</g>
<!-- Node25&#45;&gt;Node9 -->
<g id="edge30" class="edge">
<title>Node25&#45;&gt;Node9</title>
<path fill="none" stroke="midnightblue" d="M174,-357.76C165.69,-354.47 156.96,-350.79 149,-347 121.29,-333.8 90.54,-315.53 72.68,-304.53"/>
<polygon fill="midnightblue" stroke="midnightblue" points="172.91,-361.09 183.5,-361.43 175.44,-354.56 172.91,-361.09"/>
</g>
<!-- Node26&#45;&gt;Node9 -->
<g id="edge33" class="edge">
<title>Node26&#45;&gt;Node9</title>
<path fill="none" stroke="midnightblue" d="M315.65,-401.22C269.7,-408.42 202.31,-412.67 149,-390 107.28,-372.26 75.36,-325.13 63.04,-304.69"/>
<polygon fill="midnightblue" stroke="midnightblue" points="316.41,-404.65 325.69,-399.55 315.26,-397.74 316.41,-404.65"/>
</g>
<!-- Node27&#45;&gt;Node15 -->
<g id="edge40" class="edge">
<title>Node27&#45;&gt;Node15</title>
<path fill="none" stroke="midnightblue" d="M722.23,-207.45C678.8,-189.61 585.87,-151.46 542.37,-133.59"/>
<polygon fill="midnightblue" stroke="midnightblue" points="721.09,-210.76 731.67,-211.32 723.75,-204.29 721.09,-210.76"/>
</g>
<!-- Node28 -->
<g id="node28" class="node">
<title>Node28</title>
<g id="a_node28"><a xlink:href="xcs__rl_8h.html#ac0d410321cd5627345e1b53856f7244c" target="_top" xlink:title="Provides reinforcement to the sets.">
<polygon fill="none" stroke="black" points="479.5,-209.5 479.5,-228.5 556.5,-228.5 556.5,-209.5 479.5,-209.5"/>
<text text-anchor="middle" x="518" y="-216.5" font-family="Helvetica,sans-Serif" font-size="10.00">xcs_rl_update</text>
</a>
</g>
</g>
<!-- Node27&#45;&gt;Node28 -->
<g id="edge35" class="edge">
<title>Node27&#45;&gt;Node28</title>
<path fill="none" stroke="midnightblue" d="M721.44,-217.21C682.05,-217.56 603.51,-218.25 556.68,-218.67"/>
<polygon fill="midnightblue" stroke="midnightblue" points="721.7,-220.71 731.67,-217.12 721.64,-213.71 721.7,-220.71"/>
</g>
<!-- Node28&#45;&gt;Node10 -->
<g id="edge39" class="edge">
<title>Node28&#45;&gt;Node10</title>
<path fill="none" stroke="midnightblue" d="M469.06,-219C446.92,-219 421.26,-219 401.68,-219"/>
<polygon fill="midnightblue" stroke="midnightblue" points="469.27,-222.5 479.27,-219 469.27,-215.5 469.27,-222.5"/>
</g>
<!-- Node28&#45;&gt;Node13 -->
<g id="edge38" class="edge">
<title>Node28&#45;&gt;Node13</title>
<path fill="none" stroke="midnightblue" d="M478.04,-232.3C473.59,-234.1 469.16,-236.01 465,-238 435.1,-252.31 402.46,-273.31 384.43,-285.42"/>
<polygon fill="midnightblue" stroke="midnightblue" points="479.63,-235.44 487.71,-228.58 477.12,-228.9 479.63,-235.44"/>
</g>
<!-- Node29 -->
<g id="node29" class="node">
<title>Node29</title>
<g id="a_node29"><a xlink:href="classXCS.html#af8970ba52403714439fda0d4383a390b" target="_top" xlink:title="Creates the action set using the previously selected action, updates the classifiers,...">
<polygon fill="none" stroke="black" points="175,-209.5 175,-228.5 248,-228.5 248,-209.5 175,-209.5"/>
<text text-anchor="middle" x="211.5" y="-216.5" font-family="Helvetica,sans-Serif" font-size="10.00">XCS::update</text>
</a>
</g>
</g>
<!-- Node28&#45;&gt;Node29 -->
<g id="edge36" class="edge">
<title>Node28&#45;&gt;Node29</title>
<path fill="none" stroke="midnightblue" d="M471.29,-207.2C457.77,-204.24 442.87,-201.48 429,-200 376.41,-194.39 362.64,-194.92 310,-200 289.4,-201.99 266.69,-206.29 248.37,-210.29"/>
<polygon fill="midnightblue" stroke="midnightblue" points="470.79,-210.68 481.32,-209.49 472.35,-203.85 470.79,-210.68"/>
</g>
<!-- Node29&#45;&gt;Node9 -->
<g id="edge37" class="edge">
<title>Node29&#45;&gt;Node9</title>
<path fill="none" stroke="midnightblue" d="M165,-231.6C159.53,-233.54 154.08,-235.68 149,-238 119.38,-251.53 87.75,-273 70.53,-285.37"/>
<polygon fill="midnightblue" stroke="midnightblue" points="166.42,-234.81 174.8,-228.33 164.2,-228.18 166.42,-234.81"/>
</g>
<!-- Node30&#45;&gt;Node27 -->
<g id="edge42" class="edge">
<title>Node30&#45;&gt;Node27</title>
<path fill="none" stroke="midnightblue" d="M951.11,-217C895.82,-217 797.2,-217 761.16,-217"/>
<polygon fill="midnightblue" stroke="midnightblue" points="951.23,-220.5 961.23,-217 951.23,-213.5 951.23,-220.5"/>
</g>
</g>
</svg>
