<?xml version="1.0" encoding="UTF-8" standalone="no"?>
<!DOCTYPE svg PUBLIC "-//W3C//DTD SVG 1.1//EN"
 "http://www.w3.org/Graphics/SVG/1.1/DTD/svg11.dtd">
<!-- Generated by graphviz version 2.43.0 (0)
 -->
<!-- Title: clset_pset_del Pages: 1 -->
<svg width="455pt" height="175pt"
 viewBox="0.00 0.00 455.00 175.00" xmlns="http://www.w3.org/2000/svg" xmlns:xlink="http://www.w3.org/1999/xlink">
<g id="graph0" class="graph" transform="scale(1 1) rotate(0) translate(4 171)">
<title>clset_pset_del</title>
<!-- Node1 -->
<g id="Node000001" class="node">
<title>Node1</title>
<g id="a_Node000001"><a xlink:title="Deletes a single classifier from the population set.">
<polygon fill="#999999" stroke="#666666" points="80,-130 0,-130 0,-111 80,-111 80,-130"/>
<text text-anchor="middle" x="40" y="-118" font-family="Helvetica,sans-Serif" font-size="10.00">clset_pset_del</text>
</a>
</g>
</g>
<!-- Node2 -->
<g id="Node000002" class="node">
<title>Node2</title>
<g id="a_Node000002"><a xlink:href="clset_8c.html#a64d33e6235c57f30a4a3ec82f18e57d6" target="_top" xlink:title="Adds a classifier to the set.">
<polygon fill="white" stroke="#666666" points="207,-167 148,-167 148,-148 207,-148 207,-167"/>
<text text-anchor="middle" x="177.5" y="-155" font-family="Helvetica,sans-Serif" font-size="10.00">clset_add</text>
</a>
</g>
</g>
<!-- Node1&#45;&gt;Node2 -->
<g id="edge1_Node000001_Node000002" class="edge">
<title>Node1&#45;&gt;Node2</title>
<g id="a_edge1_Node000001_Node000002"><a xlink:title=" ">
<path fill="none" stroke="#63b8ff" d="M75.89,-130.03C94.86,-135.21 118.35,-141.62 137.87,-146.95"/>
<polygon fill="#63b8ff" stroke="#63b8ff" points="137.1,-150.37 147.67,-149.63 138.94,-143.62 137.1,-150.37"/>
</a>
</g>
</g>
<!-- Node3 -->
<g id="Node000003" class="node">
<title>Node3</title>
<g id="a_Node000003"><a xlink:href="clset_8c.html#a7e9703db2e290a5b852b1112f52f4803" target="_top" xlink:title="Finds a rule in the population that never matches an input.">
<polygon fill="white" stroke="#666666" points="239,-130 116,-130 116,-111 239,-111 239,-130"/>
<text text-anchor="middle" x="177.5" y="-118" font-family="Helvetica,sans-Serif" font-size="10.00">clset_pset_never_match</text>
</a>
</g>
</g>
<!-- Node1&#45;&gt;Node3 -->
<g id="edge2_Node000001_Node000003" class="edge">
<title>Node1&#45;&gt;Node3</title>
<g id="a_edge2_Node000001_Node000003"><a xlink:title=" ">
<path fill="none" stroke="#63b8ff" d="M80.19,-120.5C88.23,-120.5 96.91,-120.5 105.67,-120.5"/>
<polygon fill="#63b8ff" stroke="#63b8ff" points="105.95,-124 115.95,-120.5 105.95,-117 105.95,-124"/>
</a>
</g>
</g>
<!-- Node4 -->
<g id="Node000004" class="node">
<title>Node4</title>
<g id="a_Node000004"><a xlink:href="clset_8c.html#a7ddb1248094ce9b41cf314b833798b29" target="_top" xlink:title="Selects a classifier from the population for deletion via roulette.">
<polygon fill="white" stroke="#666666" points="227,-93 128,-93 128,-74 227,-74 227,-93"/>
<text text-anchor="middle" x="177.5" y="-81" font-family="Helvetica,sans-Serif" font-size="10.00">clset_pset_roulette</text>
</a>
</g>
</g>
<!-- Node1&#45;&gt;Node4 -->
<g id="edge3_Node000001_Node000004" class="edge">
<title>Node1&#45;&gt;Node4</title>
<g id="a_edge3_Node000001_Node000004"><a xlink:title=" ">
<path fill="none" stroke="#63b8ff" d="M75.89,-110.97C92.83,-106.35 113.38,-100.73 131.49,-95.79"/>
<polygon fill="#63b8ff" stroke="#63b8ff" points="132.53,-99.14 141.25,-93.12 130.68,-92.38 132.53,-99.14"/>
</a>
</g>
</g>
<!-- Node5 -->
<g id="Node000005" class="node">
<title>Node5</title>
<g id="a_Node000005"><a xlink:href="cl_8c.html#a281f748c300892281088a51455c6657b" target="_top" xlink:title="Returns the size of a classifier&#39;s condition.">
<polygon fill="white" stroke="#666666" points="349.5,-167 275.5,-167 275.5,-148 349.5,-148 349.5,-167"/>
<text text-anchor="middle" x="312.5" y="-155" font-family="Helvetica,sans-Serif" font-size="10.00">cl_cond_size</text>
</a>
</g>
</g>
<!-- Node4&#45;&gt;Node5 -->
<g id="edge4_Node000004_Node000005" class="edge">
<title>Node4&#45;&gt;Node5</title>
<g id="a_edge4_Node000004_Node000005"><a xlink:title=" ">
<path fill="none" stroke="#63b8ff" d="M218.78,-93.07C225.79,-95.58 232.81,-98.69 239,-102.5 258.54,-114.53 256.44,-126.01 275,-139.5 276.59,-140.65 278.26,-141.77 279.98,-142.84"/>
<polygon fill="#63b8ff" stroke="#63b8ff" points="278.37,-145.95 288.8,-147.8 281.8,-139.85 278.37,-145.95"/>
</a>
</g>
</g>
<!-- Node7 -->
<g id="Node000007" class="node">
<title>Node7</title>
<g id="a_Node000007"><a xlink:href="cl_8c.html#ae083f9dc65912cf983795d134006e236" target="_top" xlink:title="Returns the deletion vote of a classifier.">
<polygon fill="white" stroke="#666666" points="345.5,-130 279.5,-130 279.5,-111 345.5,-111 345.5,-130"/>
<text text-anchor="middle" x="312.5" y="-118" font-family="Helvetica,sans-Serif" font-size="10.00">cl_del_vote</text>
</a>
</g>
</g>
<!-- Node4&#45;&gt;Node7 -->
<g id="edge6_Node000004_Node000007" class="edge">
<title>Node4&#45;&gt;Node7</title>
<g id="a_edge6_Node000004_Node000007"><a xlink:title=" ">
<path fill="none" stroke="#63b8ff" d="M212.75,-93.03C230.03,-97.83 251.13,-103.71 269.39,-108.78"/>
<polygon fill="#63b8ff" stroke="#63b8ff" points="268.62,-112.2 279.2,-111.51 270.5,-105.46 268.62,-112.2"/>
</a>
</g>
</g>
<!-- Node8 -->
<g id="Node000008" class="node">
<title>Node8</title>
<g id="a_Node000008"><a xlink:href="cl_8c.html#a038173dbbcd18ef6820dfb07e7ea0d39" target="_top" xlink:title="Returns the size of a classifier&#39;s prediction.">
<polygon fill="white" stroke="#666666" points="348,-93 277,-93 277,-74 348,-74 348,-93"/>
<text text-anchor="middle" x="312.5" y="-81" font-family="Helvetica,sans-Serif" font-size="10.00">cl_pred_size</text>
</a>
</g>
</g>
<!-- Node4&#45;&gt;Node8 -->
<g id="edge7_Node000004_Node000008" class="edge">
<title>Node4&#45;&gt;Node8</title>
<g id="a_edge7_Node000004_Node000008"><a xlink:title=" ">
<path fill="none" stroke="#63b8ff" d="M227.27,-83.5C240.13,-83.5 253.94,-83.5 266.58,-83.5"/>
<polygon fill="#63b8ff" stroke="#63b8ff" points="266.88,-87 276.88,-83.5 266.88,-80 266.88,-87"/>
</a>
</g>
</g>
<!-- Node10 -->
<g id="Node000010" class="node">
<title>Node10</title>
<g id="a_Node000010"><a xlink:href="clset_8c.html#a27da8860873485883cc85edfac13da87" target="_top" xlink:title="Calculates the total fitness of classifiers in the set.">
<polygon fill="white" stroke="#666666" points="350,-56 275,-56 275,-37 350,-37 350,-56"/>
<text text-anchor="middle" x="312.5" y="-44" font-family="Helvetica,sans-Serif" font-size="10.00">clset_total_fit</text>
</a>
</g>
</g>
<!-- Node4&#45;&gt;Node10 -->
<g id="edge9_Node000004_Node000010" class="edge">
<title>Node4&#45;&gt;Node10</title>
<g id="a_edge9_Node000004_Node000010"><a xlink:title=" ">
<path fill="none" stroke="#63b8ff" d="M212.75,-73.97C229.22,-69.39 249.18,-63.84 266.82,-58.93"/>
<polygon fill="#63b8ff" stroke="#63b8ff" points="268.21,-62.18 276.9,-56.12 266.33,-55.43 268.21,-62.18"/>
</a>
</g>
</g>
<!-- Node11 -->
<g id="Node000011" class="node">
<title>Node11</title>
<g id="a_Node000011"><a xlink:href="utils_8c.html#a972761ba8f47a6c3e7396a7c685158fc" target="_top" xlink:title="Returns a uniform random float [min,max].">
<polygon fill="white" stroke="#666666" points="349,-19 276,-19 276,0 349,0 349,-19"/>
<text text-anchor="middle" x="312.5" y="-7" font-family="Helvetica,sans-Serif" font-size="10.00">rand_uniform</text>
</a>
</g>
</g>
<!-- Node4&#45;&gt;Node11 -->
<g id="edge10_Node000004_Node000011" class="edge">
<title>Node4&#45;&gt;Node11</title>
<g id="a_edge10_Node000004_Node000011"><a xlink:title=" ">
<path fill="none" stroke="#63b8ff" d="M194.79,-73.97C213.88,-62.84 246.55,-44 275,-28.5 277.89,-26.93 280.91,-25.31 283.94,-23.71"/>
<polygon fill="#63b8ff" stroke="#63b8ff" points="285.63,-26.77 292.86,-19.03 282.38,-20.57 285.63,-26.77"/>
</a>
</g>
</g>
<!-- Node6 -->
<g id="Node000006" class="node">
<title>Node6</title>
<g id="a_Node000006"><a xlink:href="condition_8h.html#ab5392bcc5c6bee45ac2612c7c560be5c" target="_top" xlink:title="Returns the size of the classifier condition.">
<polygon fill="white" stroke="#666666" points="447,-167 386,-167 386,-148 447,-148 447,-167"/>
<text text-anchor="middle" x="416.5" y="-155" font-family="Helvetica,sans-Serif" font-size="10.00">cond_size</text>
</a>
</g>
</g>
<!-- Node5&#45;&gt;Node6 -->
<g id="edge5_Node000005_Node000006" class="edge">
<title>Node5&#45;&gt;Node6</title>
<g id="a_edge5_Node000005_Node000006"><a xlink:title=" ">
<path fill="none" stroke="#63b8ff" d="M349.75,-157.5C358.13,-157.5 367.1,-157.5 375.63,-157.5"/>
<polygon fill="#63b8ff" stroke="#63b8ff" points="375.76,-161 385.76,-157.5 375.76,-154 375.76,-161"/>
</a>
</g>
</g>
<!-- Node9 -->
<g id="Node000009" class="node">
<title>Node9</title>
<g id="a_Node000009"><a xlink:href="prediction_8h.html#a0ac1eb269367fc7adb967e3cb4b2db50" target="_top" xlink:title="Returns the size of the classifier prediction.">
<polygon fill="white" stroke="#666666" points="446,-93 387,-93 387,-74 446,-74 446,-93"/>
<text text-anchor="middle" x="416.5" y="-81" font-family="Helvetica,sans-Serif" font-size="10.00">pred_size</text>
</a>
</g>
</g>
<!-- Node8&#45;&gt;Node9 -->
<g id="edge8_Node000008_Node000009" class="edge">
<title>Node8&#45;&gt;Node9</title>
<g id="a_edge8_Node000008_Node000009"><a xlink:title=" ">
<path fill="none" stroke="#63b8ff" d="M348.03,-83.5C357.19,-83.5 367.13,-83.5 376.51,-83.5"/>
<polygon fill="#63b8ff" stroke="#63b8ff" points="376.77,-87 386.77,-83.5 376.77,-80 376.77,-87"/>
</a>
</g>
</g>
</g>
</svg>
