<?xml version="1.0" encoding="UTF-8" standalone="no"?>
<!DOCTYPE svg PUBLIC "-//W3C//DTD SVG 1.1//EN"
 "http://www.w3.org/Graphics/SVG/1.1/DTD/svg11.dtd">
<!-- Generated by graphviz version 2.43.0 (0)
 -->
<!-- Title: clset_init Pages: 1 -->
<svg width="748pt" height="446pt"
 viewBox="0.00 0.00 748.00 446.00" xmlns="http://www.w3.org/2000/svg" xmlns:xlink="http://www.w3.org/1999/xlink">
<g id="graph0" class="graph" transform="scale(1 1) rotate(0) translate(4 442)">
<title>clset_init</title>
<!-- Node1 -->
<g id="node1" class="node">
<title>Node1</title>
<g id="a_node1"><a xlink:title="Initialises a new set.">
<polygon fill="#bfbfbf" stroke="black" points="684,-304.5 684,-323.5 740,-323.5 740,-304.5 684,-304.5"/>
<text text-anchor="middle" x="712" y="-311.5" font-family="Helvetica,sans-Serif" font-size="10.00">clset_init</text>
</a>
</g>
</g>
<!-- Node2 -->
<g id="node2" class="node">
<title>Node2</title>
<g id="a_node2"><a xlink:href="clset_8c.html#af87479ea90c3c508352c4a89dae9fd08" target="_top" xlink:title="Reads the population set from a file.">
<polygon fill="none" stroke="black" points="552.5,-418.5 552.5,-437.5 637.5,-437.5 637.5,-418.5 552.5,-418.5"/>
<text text-anchor="middle" x="595" y="-425.5" font-family="Helvetica,sans-Serif" font-size="10.00">clset_pset_load</text>
</a>
</g>
</g>
<!-- Node1&#45;&gt;Node2 -->
<g id="edge1" class="edge">
<title>Node1&#45;&gt;Node2</title>
<path fill="none" stroke="midnightblue" d="M701.79,-332.65C691.16,-352.55 672.04,-383.91 648,-404 640.91,-409.93 632.1,-414.72 623.77,-418.41"/>
<polygon fill="midnightblue" stroke="midnightblue" points="704.95,-334.15 706.42,-323.66 698.73,-330.94 704.95,-334.15"/>
</g>
<!-- Node3 -->
<g id="node3" class="node">
<title>Node3</title>
<g id="a_node3"><a xlink:href="xcsf_8c.html#ada5fb9a2a1e9225aad40a36614fc0de7" target="_top" xlink:title="Reads the state of XCSF from a file.">
<polygon fill="none" stroke="black" points="417,-418.5 417,-437.5 476,-437.5 476,-418.5 417,-418.5"/>
<text text-anchor="middle" x="446.5" y="-425.5" font-family="Helvetica,sans-Serif" font-size="10.00">xcsf_load</text>
</a>
</g>
</g>
<!-- Node1&#45;&gt;Node3 -->
<g id="edge32" class="edge">
<title>Node1&#45;&gt;Node3</title>
<path fill="none" stroke="midnightblue" d="M696.13,-331.17C684.28,-343.87 666.62,-360.67 648,-371 618.25,-387.49 524.06,-410.5 476.13,-421.56"/>
<polygon fill="midnightblue" stroke="midnightblue" points="698.93,-333.3 703.04,-323.53 693.74,-328.6 698.93,-333.3"/>
</g>
<!-- Node6 -->
<g id="node6" class="node">
<title>Node6</title>
<g id="a_node6"><a xlink:href="xcs__rl_8c.html#a6bbd7dc6c04d7173cbc743ba47bd8b91" target="_top" xlink:title="Initialises a step in a reinforcement learning trial.">
<polygon fill="none" stroke="black" points="552.5,-342.5 552.5,-361.5 637.5,-361.5 637.5,-342.5 552.5,-342.5"/>
<text text-anchor="middle" x="595" y="-349.5" font-family="Helvetica,sans-Serif" font-size="10.00">xcs_rl_init_step</text>
</a>
</g>
</g>
<!-- Node1&#45;&gt;Node6 -->
<g id="edge5" class="edge">
<title>Node1&#45;&gt;Node6</title>
<path fill="none" stroke="midnightblue" d="M674.22,-326.15C658.32,-331.41 639.99,-337.46 625.07,-342.39"/>
<polygon fill="midnightblue" stroke="midnightblue" points="675.35,-329.47 683.75,-323.01 673.15,-322.82 675.35,-329.47"/>
</g>
<!-- Node12 -->
<g id="node12" class="node">
<title>Node12</title>
<g id="a_node12"><a xlink:href="xcs__rl_8c.html#adca6cf3218b5080457ff2d1a7fbb8017" target="_top" xlink:title="Initialises a reinforcement learning trial.">
<polygon fill="none" stroke="black" points="554,-304.5 554,-323.5 636,-323.5 636,-304.5 554,-304.5"/>
<text text-anchor="middle" x="595" y="-311.5" font-family="Helvetica,sans-Serif" font-size="10.00">xcs_rl_init_trial</text>
</a>
</g>
</g>
<!-- Node1&#45;&gt;Node12 -->
<g id="edge12" class="edge">
<title>Node1&#45;&gt;Node12</title>
<path fill="none" stroke="midnightblue" d="M673.62,-314C661.63,-314 648.3,-314 636.13,-314"/>
<polygon fill="midnightblue" stroke="midnightblue" points="673.75,-317.5 683.75,-314 673.75,-310.5 673.75,-317.5"/>
</g>
<!-- Node14 -->
<g id="node14" class="node">
<title>Node14</title>
<g id="a_node14"><a xlink:href="xcs__supervised_8c.html#a8e376723db7b6786507d5ea6add9f650" target="_top" xlink:title="Executes a single XCSF trial.">
<polygon fill="none" stroke="black" points="542,-114.5 542,-133.5 648,-133.5 648,-114.5 542,-114.5"/>
<text text-anchor="middle" x="595" y="-121.5" font-family="Helvetica,sans-Serif" font-size="10.00">xcs_supervised_trial</text>
</a>
</g>
</g>
<!-- Node1&#45;&gt;Node14 -->
<g id="edge16" class="edge">
<title>Node1&#45;&gt;Node14</title>
<path fill="none" stroke="midnightblue" d="M699.76,-295.44C675.79,-255.82 620.3,-164.15 601.99,-133.89"/>
<polygon fill="midnightblue" stroke="midnightblue" points="696.97,-297.57 705.14,-304.32 702.96,-293.95 696.97,-297.57"/>
</g>
<!-- Node24 -->
<g id="node24" class="node">
<title>Node24</title>
<g id="a_node24"><a xlink:href="xcsf_8c.html#ae4718dd9f579b8730e25a1a13a385d6a" target="_top" xlink:title="Initialises XCSF with an empty population.">
<polygon fill="none" stroke="black" points="568.5,-228.5 568.5,-247.5 621.5,-247.5 621.5,-228.5 568.5,-228.5"/>
<text text-anchor="middle" x="595" y="-235.5" font-family="Helvetica,sans-Serif" font-size="10.00">xcsf_init</text>
</a>
</g>
</g>
<!-- Node1&#45;&gt;Node24 -->
<g id="edge29" class="edge">
<title>Node1&#45;&gt;Node24</title>
<path fill="none" stroke="midnightblue" d="M687.91,-298.74C664.78,-283.46 629.91,-260.41 610.45,-247.55"/>
<polygon fill="midnightblue" stroke="midnightblue" points="686.16,-301.78 696.44,-304.37 690.02,-295.94 686.16,-301.78"/>
</g>
<!-- Node26 -->
<g id="node26" class="node">
<title>Node26</title>
<g id="a_node26"><a xlink:href="xcsf_8c.html#a58a321a976cf6a9bb01979d94703fa27" target="_top" xlink:title="Retrieves the previously stored population.">
<polygon fill="none" stroke="black" points="546.5,-38.5 546.5,-57.5 643.5,-57.5 643.5,-38.5 546.5,-38.5"/>
<text text-anchor="middle" x="595" y="-45.5" font-family="Helvetica,sans-Serif" font-size="10.00">xcsf_retrieve_pset</text>
</a>
</g>
</g>
<!-- Node1&#45;&gt;Node26 -->
<g id="edge33" class="edge">
<title>Node1&#45;&gt;Node26</title>
<path fill="none" stroke="midnightblue" d="M708.08,-294.33C701.73,-255.87 684.26,-168.9 648,-105 637.29,-86.13 619.31,-68.31 607.55,-57.78"/>
<polygon fill="midnightblue" stroke="midnightblue" points="704.62,-294.9 709.64,-304.23 711.54,-293.81 704.62,-294.9"/>
</g>
<!-- Node2&#45;&gt;Node3 -->
<g id="edge2" class="edge">
<title>Node2&#45;&gt;Node3</title>
<path fill="none" stroke="midnightblue" d="M542.13,-428C519.96,-428 494.93,-428 476.18,-428"/>
<polygon fill="midnightblue" stroke="midnightblue" points="542.41,-431.5 552.41,-428 542.41,-424.5 542.41,-431.5"/>
</g>
<!-- Node4 -->
<g id="node4" class="node">
<title>Node4</title>
<g id="a_node4"><a xlink:href="classXCS.html#a1a7ff32cb3485c0de9dd988f6f3e3470" target="_top" xlink:title="Reads the entire current state of XCSF from a file.">
<polygon fill="none" stroke="black" points="257.5,-418.5 257.5,-437.5 319.5,-437.5 319.5,-418.5 257.5,-418.5"/>
<text text-anchor="middle" x="288.5" y="-425.5" font-family="Helvetica,sans-Serif" font-size="10.00">XCS::load</text>
</a>
</g>
</g>
<!-- Node3&#45;&gt;Node4 -->
<g id="edge3" class="edge">
<title>Node3&#45;&gt;Node4</title>
<path fill="none" stroke="midnightblue" d="M406.64,-428C379.69,-428 344.32,-428 319.53,-428"/>
<polygon fill="midnightblue" stroke="midnightblue" points="406.89,-431.5 416.89,-428 406.89,-424.5 406.89,-431.5"/>
</g>
<!-- Node5 -->
<g id="node5" class="node">
<title>Node5</title>
<g id="a_node5"><a xlink:href="main_8c.html#a3c04138a5bfe5d72780bb7e82a18e627" target="_top" xlink:title=" ">
<polygon fill="none" stroke="black" points="128,-266.5 128,-285.5 166,-285.5 166,-266.5 128,-266.5"/>
<text text-anchor="middle" x="147" y="-273.5" font-family="Helvetica,sans-Serif" font-size="10.00">main</text>
</a>
</g>
</g>
<!-- Node3&#45;&gt;Node5 -->
<g id="edge4" class="edge">
<title>Node3&#45;&gt;Node5</title>
<path fill="none" stroke="midnightblue" d="M406.76,-419.31C347.93,-405.92 241.26,-380.75 226,-371 190.94,-348.59 164.03,-305.2 153.2,-285.79"/>
<polygon fill="midnightblue" stroke="midnightblue" points="406.28,-422.8 416.81,-421.59 407.83,-415.97 406.28,-422.8"/>
</g>
<!-- Node7 -->
<g id="node7" class="node">
<title>Node7</title>
<g id="a_node7"><a xlink:href="classXCS.html#aa904ba0e84125b025512da41a98159ca" target="_top" xlink:title="Initialises a step in a reinforcement learning trial.">
<polygon fill="none" stroke="black" points="406.5,-380.5 406.5,-399.5 486.5,-399.5 486.5,-380.5 406.5,-380.5"/>
<text text-anchor="middle" x="446.5" y="-387.5" font-family="Helvetica,sans-Serif" font-size="10.00">XCS::init_step</text>
</a>
</g>
</g>
<!-- Node6&#45;&gt;Node7 -->
<g id="edge6" class="edge">
<title>Node6&#45;&gt;Node7</title>
<path fill="none" stroke="midnightblue" d="M547.3,-364.11C526.9,-369.4 503.32,-375.52 484.2,-380.48"/>
<polygon fill="midnightblue" stroke="midnightblue" points="548.23,-367.49 557.03,-361.59 546.47,-360.71 548.23,-367.49"/>
</g>
<!-- Node8 -->
<g id="node8" class="node">
<title>Node8</title>
<g id="a_node8"><a xlink:href="xcs__rl_8c.html#a391abf9bd2540ff284f822b30899c438" target="_top" xlink:title="Creates and updates an action set for a given (state, action, reward).">
<polygon fill="none" stroke="black" points="418.5,-342.5 418.5,-361.5 474.5,-361.5 474.5,-342.5 418.5,-342.5"/>
<text text-anchor="middle" x="446.5" y="-349.5" font-family="Helvetica,sans-Serif" font-size="10.00">xcs_rl_fit</text>
</a>
</g>
</g>
<!-- Node6&#45;&gt;Node8 -->
<g id="edge7" class="edge">
<title>Node6&#45;&gt;Node8</title>
<path fill="none" stroke="midnightblue" d="M542.22,-352C519.49,-352 493.74,-352 474.84,-352"/>
<polygon fill="midnightblue" stroke="midnightblue" points="542.41,-355.5 552.41,-352 542.41,-348.5 542.41,-355.5"/>
</g>
<!-- Node10 -->
<g id="node10" class="node">
<title>Node10</title>
<g id="a_node10"><a xlink:href="xcs__rl_8c.html#a8171cd945b56ed0a4563f9dcd89438e3" target="_top" xlink:title="Executes a reinforcement learning trial using a built&#45;in environment.">
<polygon fill="none" stroke="black" points="414.5,-304.5 414.5,-323.5 478.5,-323.5 478.5,-304.5 414.5,-304.5"/>
<text text-anchor="middle" x="446.5" y="-311.5" font-family="Helvetica,sans-Serif" font-size="10.00">xcs_rl_trial</text>
</a>
</g>
</g>
<!-- Node6&#45;&gt;Node10 -->
<g id="edge9" class="edge">
<title>Node6&#45;&gt;Node10</title>
<path fill="none" stroke="midnightblue" d="M547.34,-339.9C524.85,-334.06 498.5,-327.23 478.51,-322.04"/>
<polygon fill="midnightblue" stroke="midnightblue" points="546.47,-343.29 557.03,-342.41 548.23,-336.51 546.47,-343.29"/>
</g>
<!-- Node9 -->
<g id="node9" class="node">
<title>Node9</title>
<g id="a_node9"><a xlink:href="classXCS.html#ac12768292958a714a726b1c029e9616a" target="_top" xlink:title="Creates/updates an action set for a given (state, action, reward).">
<polygon fill="none" stroke="black" points="262.5,-342.5 262.5,-361.5 314.5,-361.5 314.5,-342.5 262.5,-342.5"/>
<text text-anchor="middle" x="288.5" y="-349.5" font-family="Helvetica,sans-Serif" font-size="10.00">XCS::fit</text>
</a>
</g>
</g>
<!-- Node8&#45;&gt;Node9 -->
<g id="edge8" class="edge">
<title>Node8&#45;&gt;Node9</title>
<path fill="none" stroke="midnightblue" d="M408.17,-352C379.2,-352 339.85,-352 314.56,-352"/>
<polygon fill="midnightblue" stroke="midnightblue" points="408.33,-355.5 418.33,-352 408.33,-348.5 408.33,-355.5"/>
</g>
<!-- Node11 -->
<g id="node11" class="node">
<title>Node11</title>
<g id="a_node11"><a xlink:href="xcs__rl_8c.html#adb4c284d19eeaed2b4a629f9b939ed20" target="_top" xlink:title="Executes a reinforcement learning experiment.">
<polygon fill="none" stroke="black" points="256.5,-285.5 256.5,-304.5 320.5,-304.5 320.5,-285.5 256.5,-285.5"/>
<text text-anchor="middle" x="288.5" y="-292.5" font-family="Helvetica,sans-Serif" font-size="10.00">xcs_rl_exp</text>
</a>
</g>
</g>
<!-- Node10&#45;&gt;Node11 -->
<g id="edge10" class="edge">
<title>Node10&#45;&gt;Node11</title>
<path fill="none" stroke="midnightblue" d="M404.28,-308.98C378.06,-305.79 344.65,-301.72 320.64,-298.79"/>
<polygon fill="midnightblue" stroke="midnightblue" points="403.96,-312.47 414.31,-310.2 404.8,-305.52 403.96,-312.47"/>
</g>
<!-- Node11&#45;&gt;Node5 -->
<g id="edge11" class="edge">
<title>Node11&#45;&gt;Node5</title>
<path fill="none" stroke="midnightblue" d="M246.04,-289.35C219.57,-285.75 186.54,-281.25 166.38,-278.5"/>
<polygon fill="midnightblue" stroke="midnightblue" points="245.81,-292.85 256.19,-290.74 246.76,-285.92 245.81,-292.85"/>
</g>
<!-- Node12&#45;&gt;Node8 -->
<g id="edge14" class="edge">
<title>Node12&#45;&gt;Node8</title>
<path fill="none" stroke="midnightblue" d="M547.1,-326.17C523.22,-332.36 495.03,-339.67 474.74,-344.93"/>
<polygon fill="midnightblue" stroke="midnightblue" points="548.23,-329.49 557.03,-323.59 546.47,-322.71 548.23,-329.49"/>
</g>
<!-- Node12&#45;&gt;Node10 -->
<g id="edge15" class="edge">
<title>Node12&#45;&gt;Node10</title>
<path fill="none" stroke="midnightblue" d="M543.94,-314C522.29,-314 497.63,-314 478.66,-314"/>
<polygon fill="midnightblue" stroke="midnightblue" points="543.97,-317.5 553.97,-314 543.97,-310.5 543.97,-317.5"/>
</g>
<!-- Node13 -->
<g id="node13" class="node">
<title>Node13</title>
<g id="a_node13"><a xlink:href="classXCS.html#adbfb8e127ef8a800a661d284dda3f2ef" target="_top" xlink:title="Initialises a reinforcement learning trial.">
<polygon fill="none" stroke="black" points="408,-266.5 408,-285.5 485,-285.5 485,-266.5 408,-266.5"/>
<text text-anchor="middle" x="446.5" y="-273.5" font-family="Helvetica,sans-Serif" font-size="10.00">XCS::init_trial</text>
</a>
</g>
</g>
<!-- Node12&#45;&gt;Node13 -->
<g id="edge13" class="edge">
<title>Node12&#45;&gt;Node13</title>
<path fill="none" stroke="midnightblue" d="M547.3,-301.89C526.9,-296.6 503.32,-290.48 484.2,-285.52"/>
<polygon fill="midnightblue" stroke="midnightblue" points="546.47,-305.29 557.03,-304.41 548.23,-298.51 546.47,-305.29"/>
</g>
<!-- Node15 -->
<g id="node15" class="node">
<title>Node15</title>
<g id="a_node15"><a xlink:href="xcs__supervised_8c.html#aac1347b7b83576d581a1b725b4c84e56" target="_top" xlink:title="Executes MAX_TRIALS number of XCSF learning iterations using the training data and test iterations us...">
<polygon fill="none" stroke="black" points="397.5,-152.5 397.5,-171.5 495.5,-171.5 495.5,-152.5 397.5,-152.5"/>
<text text-anchor="middle" x="446.5" y="-159.5" font-family="Helvetica,sans-Serif" font-size="10.00">xcs_supervised_fit</text>
</a>
</g>
</g>
<!-- Node14&#45;&gt;Node15 -->
<g id="edge17" class="edge">
<title>Node14&#45;&gt;Node15</title>
<path fill="none" stroke="midnightblue" d="M547.3,-136.11C526.9,-141.4 503.32,-147.52 484.2,-152.48"/>
<polygon fill="midnightblue" stroke="midnightblue" points="548.23,-139.49 557.03,-133.59 546.47,-132.71 548.23,-139.49"/>
</g>
<!-- Node17 -->
<g id="node17" class="node">
<title>Node17</title>
<g id="a_node17"><a xlink:href="xcs__supervised_8c.html#ae4791c1daf0baaa6615f70332657aadb" target="_top" xlink:title="Calculates the XCSF predictions for the provided input.">
<polygon fill="none" stroke="black" points="387,-114.5 387,-133.5 506,-133.5 506,-114.5 387,-114.5"/>
<text text-anchor="middle" x="446.5" y="-121.5" font-family="Helvetica,sans-Serif" font-size="10.00">xcs_supervised_predict</text>
</a>
</g>
</g>
<!-- Node14&#45;&gt;Node17 -->
<g id="edge20" class="edge">
<title>Node14&#45;&gt;Node17</title>
<path fill="none" stroke="midnightblue" d="M531.72,-124C523.23,-124 514.55,-124 506.13,-124"/>
<polygon fill="midnightblue" stroke="midnightblue" points="531.94,-127.5 541.94,-124 531.94,-120.5 531.94,-127.5"/>
</g>
<!-- Node20 -->
<g id="node20" class="node">
<title>Node20</title>
<g id="a_node20"><a xlink:href="xcs__supervised_8c.html#a535e3dbbf0f80e64a4e9b1c700e51f40" target="_top" xlink:title="Calculates the XCSF error for the input data.">
<polygon fill="none" stroke="black" points="389.5,-38.5 389.5,-57.5 503.5,-57.5 503.5,-38.5 389.5,-38.5"/>
<text text-anchor="middle" x="446.5" y="-45.5" font-family="Helvetica,sans-Serif" font-size="10.00">xcs_supervised_score</text>
</a>
</g>
</g>
<!-- Node14&#45;&gt;Node20 -->
<g id="edge23" class="edge">
<title>Node14&#45;&gt;Node20</title>
<path fill="none" stroke="midnightblue" d="M570.52,-108.87C553.08,-97.94 528.52,-83.2 506,-72 495.48,-66.77 483.54,-61.72 473.2,-57.61"/>
<polygon fill="midnightblue" stroke="midnightblue" points="569.09,-112.11 579.42,-114.5 572.84,-106.19 569.09,-112.11"/>
</g>
<!-- Node23 -->
<g id="node23" class="node">
<title>Node23</title>
<g id="a_node23"><a xlink:href="xcs__supervised_8c.html#a9ab2bb39625aea84c716901a95a4326e" target="_top" xlink:title="Calculates the XCSF error for a subsample of the input data.">
<polygon fill="none" stroke="black" points="226,-76.5 226,-95.5 351,-95.5 351,-76.5 226,-76.5"/>
<text text-anchor="middle" x="288.5" y="-83.5" font-family="Helvetica,sans-Serif" font-size="10.00">xcs_supervised_score_n</text>
</a>
</g>
</g>
<!-- Node14&#45;&gt;Node23 -->
<g id="edge28" class="edge">
<title>Node14&#45;&gt;Node23</title>
<path fill="none" stroke="midnightblue" d="M544.89,-112.26C532.28,-109.56 518.68,-106.92 506,-105 454.14,-97.16 394.77,-92.23 351.34,-89.36"/>
<polygon fill="midnightblue" stroke="midnightblue" points="544.25,-115.7 554.77,-114.43 545.75,-108.87 544.25,-115.7"/>
</g>
<!-- Node15&#45;&gt;Node5 -->
<g id="edge19" class="edge">
<title>Node15&#45;&gt;Node5</title>
<path fill="none" stroke="midnightblue" d="M387.36,-173.21C342.08,-183.16 278.33,-199.9 226,-224 200.72,-235.64 174.41,-254.93 159.73,-266.46"/>
<polygon fill="midnightblue" stroke="midnightblue" points="388.27,-176.6 397.31,-171.07 386.8,-169.75 388.27,-176.6"/>
</g>
<!-- Node16 -->
<g id="node16" class="node">
<title>Node16</title>
<g id="a_node16"><a xlink:href="classXCS.html#a3f8168ffade2d933d0971625200f1d92" target="_top" xlink:title="Executes MAX_TRIALS number of XCSF learning iterations using the provided training data.">
<polygon fill="none" stroke="black" points="262.5,-152.5 262.5,-171.5 314.5,-171.5 314.5,-152.5 262.5,-152.5"/>
<text text-anchor="middle" x="288.5" y="-159.5" font-family="Helvetica,sans-Serif" font-size="10.00">XCS::fit</text>
</a>
</g>
</g>
<!-- Node15&#45;&gt;Node16 -->
<g id="edge18" class="edge">
<title>Node15&#45;&gt;Node16</title>
<path fill="none" stroke="midnightblue" d="M387.24,-162C362.15,-162 334.13,-162 314.55,-162"/>
<polygon fill="midnightblue" stroke="midnightblue" points="387.42,-165.5 397.42,-162 387.42,-158.5 387.42,-165.5"/>
</g>
<!-- Node18 -->
<g id="node18" class="node">
<title>Node18</title>
<g id="a_node18"><a xlink:href="classXCS.html#a213bbab8324b5a60482e87f18a9ceaee" target="_top" xlink:title="Returns the XCSF prediction array for the provided input.">
<polygon fill="none" stroke="black" points="233.5,-114.5 233.5,-133.5 343.5,-133.5 343.5,-114.5 233.5,-114.5"/>
<text text-anchor="middle" x="288.5" y="-121.5" font-family="Helvetica,sans-Serif" font-size="10.00">XCS::get_predictions</text>
</a>
</g>
</g>
<!-- Node17&#45;&gt;Node18 -->
<g id="edge21" class="edge">
<title>Node17&#45;&gt;Node18</title>
<path fill="none" stroke="midnightblue" d="M376.87,-124C365.77,-124 354.42,-124 343.72,-124"/>
<polygon fill="midnightblue" stroke="midnightblue" points="376.97,-127.5 386.97,-124 376.97,-120.5 376.97,-127.5"/>
</g>
<!-- Node19 -->
<g id="node19" class="node">
<title>Node19</title>
<g id="a_node19"><a xlink:href="classXCS.html#aa29ac60a35ac4874b65bb22deca6df0c" target="_top" xlink:title="Returns the XCSF prediction array for the provided input.">
<polygon fill="none" stroke="black" points="110.5,-114.5 110.5,-133.5 183.5,-133.5 183.5,-114.5 110.5,-114.5"/>
<text text-anchor="middle" x="147" y="-121.5" font-family="Helvetica,sans-Serif" font-size="10.00">XCS::predict</text>
</a>
</g>
</g>
<!-- Node18&#45;&gt;Node19 -->
<g id="edge22" class="edge">
<title>Node18&#45;&gt;Node19</title>
<path fill="none" stroke="midnightblue" d="M222.98,-124C209.55,-124 195.86,-124 183.91,-124"/>
<polygon fill="midnightblue" stroke="midnightblue" points="223.17,-127.5 233.17,-124 223.17,-120.5 223.17,-127.5"/>
</g>
<!-- Node21 -->
<g id="node21" class="node">
<title>Node21</title>
<g id="a_node21"><a xlink:href="classXCS.html#abe2ecac1d31f36659f70eb3ff9665bef" target="_top" xlink:title="Returns the error using N random samples from the provided data.">
<polygon fill="none" stroke="black" points="104,-57.5 104,-76.5 190,-76.5 190,-57.5 104,-57.5"/>
<text text-anchor="middle" x="147" y="-64.5" font-family="Helvetica,sans-Serif" font-size="10.00">XCS::get_score</text>
</a>
</g>
</g>
<!-- Node20&#45;&gt;Node21 -->
<g id="edge24" class="edge">
<title>Node20&#45;&gt;Node21</title>
<path fill="none" stroke="midnightblue" d="M379.06,-52.24C321.29,-55.93 239.33,-61.17 190.15,-64.31"/>
<polygon fill="midnightblue" stroke="midnightblue" points="379.44,-55.73 389.19,-51.6 378.99,-48.74 379.44,-55.73"/>
</g>
<!-- Node20&#45;&gt;Node23 -->
<g id="edge26" class="edge">
<title>Node20&#45;&gt;Node23</title>
<path fill="none" stroke="midnightblue" d="M396.37,-59.97C374.51,-65.29 349.12,-71.48 328.58,-76.48"/>
<polygon fill="midnightblue" stroke="midnightblue" points="397.25,-63.36 406.13,-57.59 395.59,-56.56 397.25,-63.36"/>
</g>
<!-- Node22 -->
<g id="node22" class="node">
<title>Node22</title>
<g id="a_node22"><a xlink:href="classXCS.html#a4bb9f3f8613abf7ba95837a03bbb931d" target="_top" xlink:title="Returns the error using N random samples from the provided data.">
<polygon fill="none" stroke="black" points="0,-57.5 0,-76.5 68,-76.5 68,-57.5 0,-57.5"/>
<text text-anchor="middle" x="34" y="-64.5" font-family="Helvetica,sans-Serif" font-size="10.00">XCS::score</text>
</a>
</g>
</g>
<!-- Node21&#45;&gt;Node22 -->
<g id="edge25" class="edge">
<title>Node21&#45;&gt;Node22</title>
<path fill="none" stroke="midnightblue" d="M93.65,-67C84.98,-67 76.21,-67 68.19,-67"/>
<polygon fill="midnightblue" stroke="midnightblue" points="93.72,-70.5 103.72,-67 93.72,-63.5 93.72,-70.5"/>
</g>
<!-- Node23&#45;&gt;Node21 -->
<g id="edge27" class="edge">
<title>Node23&#45;&gt;Node21</title>
<path fill="none" stroke="midnightblue" d="M215.92,-76.25C207.07,-75.05 198.25,-73.84 190.05,-72.73"/>
<polygon fill="midnightblue" stroke="midnightblue" points="215.53,-79.73 225.91,-77.61 216.47,-72.79 215.53,-79.73"/>
</g>
<!-- Node24&#45;&gt;Node5 -->
<g id="edge30" class="edge">
<title>Node24&#45;&gt;Node5</title>
<path fill="none" stroke="midnightblue" d="M558.42,-241.03C468.31,-248.71 233.5,-268.71 166.25,-274.45"/>
<polygon fill="midnightblue" stroke="midnightblue" points="558.75,-244.52 568.42,-240.18 558.16,-237.54 558.75,-244.52"/>
</g>
<!-- Node25 -->
<g id="node25" class="node">
<title>Node25</title>
<g id="a_node25"><a xlink:href="classXCS.html#af1010afd63843f86ad1dd81fade9bd72" target="_top" xlink:title="Constructor.">
<polygon fill="none" stroke="black" points="414,-190.5 414,-209.5 479,-209.5 479,-190.5 414,-190.5"/>
<text text-anchor="middle" x="446.5" y="-197.5" font-family="Helvetica,sans-Serif" font-size="10.00">XCS::XCS</text>
</a>
</g>
</g>
<!-- Node24&#45;&gt;Node25 -->
<g id="edge31" class="edge">
<title>Node24&#45;&gt;Node25</title>
<path fill="none" stroke="midnightblue" d="M558.61,-228.82C534.36,-222.53 502.49,-214.26 479.1,-208.2"/>
<polygon fill="midnightblue" stroke="midnightblue" points="557.92,-232.26 568.48,-231.38 559.68,-225.48 557.92,-232.26"/>
</g>
<!-- Node27 -->
<g id="node27" class="node">
<title>Node27</title>
<g id="a_node27"><a xlink:href="classXCS.html#af4e2f1db4a14a56a8aecf78c8bcc2a66" target="_top" xlink:title="Retrieves the stored population, setting it as current.">
<polygon fill="none" stroke="black" points="408.5,-0.5 408.5,-19.5 484.5,-19.5 484.5,-0.5 408.5,-0.5"/>
<text text-anchor="middle" x="446.5" y="-7.5" font-family="Helvetica,sans-Serif" font-size="10.00">XCS::retrieve</text>
</a>
</g>
</g>
<!-- Node26&#45;&gt;Node27 -->
<g id="edge34" class="edge">
<title>Node26&#45;&gt;Node27</title>
<path fill="none" stroke="midnightblue" d="M547.3,-35.89C526.9,-30.6 503.32,-24.48 484.2,-19.52"/>
<polygon fill="midnightblue" stroke="midnightblue" points="546.47,-39.29 557.03,-38.41 548.23,-32.51 546.47,-39.29"/>
</g>
</g>
</svg>
