<?xml version="1.0" encoding="UTF-8" standalone="no"?>
<!DOCTYPE svg PUBLIC "-//W3C//DTD SVG 1.1//EN"
 "http://www.w3.org/Graphics/SVG/1.1/DTD/svg11.dtd">
<!-- Generated by graphviz version 2.43.0 (0)
 -->
<!-- Title: clset_load_pop_file Pages: 1 -->
<svg width="1057pt" height="648pt"
 viewBox="0.00 0.00 1057.00 648.00" xmlns="http://www.w3.org/2000/svg" xmlns:xlink="http://www.w3.org/1999/xlink">
<g id="graph0" class="graph" transform="scale(1 1) rotate(0) translate(4 644)">
<title>clset_load_pop_file</title>
<!-- Node1 -->
<g id="node1" class="node">
<title>Node1</title>
<g id="a_node1"><a xlink:title=" ">
<polygon fill="#bfbfbf" stroke="black" points="0,-139.5 0,-158.5 100,-158.5 100,-139.5 0,-139.5"/>
<text text-anchor="middle" x="50" y="-146.5" font-family="Helvetica,sans-Serif" font-size="10.00">clset_load_pop_file</text>
</a>
</g>
</g>
<!-- Node2 -->
<g id="node2" class="node">
<title>Node2</title>
<g id="a_node2"><a xlink:href="clset_8c.html#a9092b6e9d9b731be1bd9a4303992fd43" target="_top" xlink:title="Creates classifiers from JSON and inserts into the population.">
<polygon fill="none" stroke="black" points="136,-139.5 136,-158.5 226,-158.5 226,-139.5 136,-139.5"/>
<text text-anchor="middle" x="181" y="-146.5" font-family="Helvetica,sans-Serif" font-size="10.00">clset_json_insert</text>
</a>
</g>
</g>
<!-- Node1&#45;&gt;Node2 -->
<g id="edge1" class="edge">
<title>Node1&#45;&gt;Node2</title>
<path fill="none" stroke="midnightblue" d="M100.14,-149C108.44,-149 117.1,-149 125.53,-149"/>
<polygon fill="midnightblue" stroke="midnightblue" points="125.65,-152.5 135.65,-149 125.65,-145.5 125.65,-152.5"/>
</g>
<!-- Node3 -->
<g id="node3" class="node">
<title>Node3</title>
<g id="a_node3"><a xlink:href="clset_8c.html#af6dd68a382ba6513d94925542da41f38" target="_top" xlink:title="Creates a classifier from cJSON and inserts in the population set.">
<polygon fill="none" stroke="black" points="270,-158.5 270,-177.5 373,-177.5 373,-158.5 270,-158.5"/>
<text text-anchor="middle" x="321.5" y="-165.5" font-family="Helvetica,sans-Serif" font-size="10.00">clset_json_insert_cl</text>
</a>
</g>
</g>
<!-- Node2&#45;&gt;Node3 -->
<g id="edge2" class="edge">
<title>Node2&#45;&gt;Node3</title>
<path fill="none" stroke="midnightblue" d="M226.2,-155.06C236.87,-156.53 248.45,-158.12 259.73,-159.66"/>
<polygon fill="midnightblue" stroke="midnightblue" points="259.59,-163.18 269.97,-161.07 260.54,-156.24 259.59,-163.18"/>
</g>
<!-- Node36 -->
<g id="node36" class="node">
<title>Node36</title>
<g id="a_node36"><a xlink:href="utils_8c.html#ab88f9e76233791f1e21ef22ba3a958b0" target="_top" xlink:title="Checks whether JSON parsed correctly.">
<polygon fill="none" stroke="black" points="262,-120.5 262,-139.5 381,-139.5 381,-120.5 262,-120.5"/>
<text text-anchor="middle" x="321.5" y="-127.5" font-family="Helvetica,sans-Serif" font-size="10.00">utils_json_parse_check</text>
</a>
</g>
</g>
<!-- Node2&#45;&gt;Node36 -->
<g id="edge36" class="edge">
<title>Node2&#45;&gt;Node36</title>
<path fill="none" stroke="midnightblue" d="M226.2,-142.94C234.34,-141.82 243.01,-140.63 251.67,-139.44"/>
<polygon fill="midnightblue" stroke="midnightblue" points="252.37,-142.88 261.8,-138.05 251.42,-135.94 252.37,-142.88"/>
</g>
<!-- Node4 -->
<g id="node4" class="node">
<title>Node4</title>
<g id="a_node4"><a xlink:href="cl_8c.html#ada9e7ce4c9c81af8ea0d1fd0dda59e3c" target="_top" xlink:title="Creates a classifier from a cJSON object.">
<polygon fill="none" stroke="black" points="426.5,-430.5 426.5,-449.5 506.5,-449.5 506.5,-430.5 426.5,-430.5"/>
<text text-anchor="middle" x="466.5" y="-437.5" font-family="Helvetica,sans-Serif" font-size="10.00">cl_json_import</text>
</a>
</g>
</g>
<!-- Node3&#45;&gt;Node4 -->
<g id="edge3" class="edge">
<title>Node3&#45;&gt;Node4</title>
<path fill="none" stroke="midnightblue" d="M327.59,-177.68C348.48,-217.42 427.88,-368.44 455.75,-421.46"/>
<polygon fill="midnightblue" stroke="midnightblue" points="452.72,-423.21 460.47,-430.44 458.92,-419.96 452.72,-423.21"/>
</g>
<!-- Node24 -->
<g id="node24" class="node">
<title>Node24</title>
<g id="a_node24"><a xlink:href="clset_8c.html#a64d33e6235c57f30a4a3ec82f18e57d6" target="_top" xlink:title="Adds a classifier to the set.">
<polygon fill="none" stroke="black" points="749,-152.5 749,-171.5 808,-171.5 808,-152.5 749,-152.5"/>
<text text-anchor="middle" x="778.5" y="-159.5" font-family="Helvetica,sans-Serif" font-size="10.00">clset_add</text>
</a>
</g>
</g>
<!-- Node3&#45;&gt;Node24 -->
<g id="edge23" class="edge">
<title>Node3&#45;&gt;Node24</title>
<path fill="none" stroke="midnightblue" d="M373.37,-167.33C465.12,-166.12 656.4,-163.6 738.59,-162.51"/>
<polygon fill="midnightblue" stroke="midnightblue" points="738.8,-166.01 748.76,-162.38 738.71,-159.01 738.8,-166.01"/>
</g>
<!-- Node25 -->
<g id="node25" class="node">
<title>Node25</title>
<g id="a_node25"><a xlink:href="clset_8c.html#a5e05b1d84c921f8f83e90d636b2f59fd" target="_top" xlink:title="Enforces the maximum population size limit.">
<polygon fill="none" stroke="black" points="417,-109 417,-139 516,-139 516,-109 417,-109"/>
<text text-anchor="start" x="425" y="-127" font-family="Helvetica,sans-Serif" font-size="10.00">clset_pset_enforce</text>
<text text-anchor="middle" x="466.5" y="-116" font-family="Helvetica,sans-Serif" font-size="10.00">_limit</text>
</a>
</g>
</g>
<!-- Node3&#45;&gt;Node25 -->
<g id="edge24" class="edge">
<title>Node3&#45;&gt;Node25</title>
<path fill="none" stroke="midnightblue" d="M353.53,-158.45C369.2,-153.63 388.73,-147.62 407.07,-141.98"/>
<polygon fill="midnightblue" stroke="midnightblue" points="408.29,-145.27 416.82,-138.98 406.23,-138.58 408.29,-145.27"/>
</g>
<!-- Node5 -->
<g id="node5" class="node">
<title>Node5</title>
<g id="a_node5"><a xlink:href="action_8h.html#a8ddc4aefec0235d2af07465f6d48e2ce" target="_top" xlink:title="Creates an action from a cJSON object.">
<polygon fill="none" stroke="black" points="573,-582.5 573,-601.5 659,-601.5 659,-582.5 573,-582.5"/>
<text text-anchor="middle" x="616" y="-589.5" font-family="Helvetica,sans-Serif" font-size="10.00">act_json_import</text>
</a>
</g>
</g>
<!-- Node4&#45;&gt;Node5 -->
<g id="edge4" class="edge">
<title>Node4&#45;&gt;Node5</title>
<path fill="none" stroke="midnightblue" d="M472.81,-449.53C484.79,-470.43 515.73,-521.02 552,-554 562.04,-563.13 574.6,-571.23 585.86,-577.58"/>
<polygon fill="midnightblue" stroke="midnightblue" points="584.46,-580.8 594.92,-582.48 587.79,-574.64 584.46,-580.8"/>
</g>
<!-- Node8 -->
<g id="node8" class="node">
<title>Node8</title>
<g id="a_node8"><a xlink:href="cl_8c.html#a188fac458e06c9a27e0e4069f7ddb68a" target="_top" xlink:title="Initialises a new classifier &#45; but not condition, action, prediction.">
<polygon fill="none" stroke="black" points="595,-525.5 595,-544.5 637,-544.5 637,-525.5 595,-525.5"/>
<text text-anchor="middle" x="616" y="-532.5" font-family="Helvetica,sans-Serif" font-size="10.00">cl_init</text>
</a>
</g>
</g>
<!-- Node4&#45;&gt;Node8 -->
<g id="edge7" class="edge">
<title>Node4&#45;&gt;Node8</title>
<path fill="none" stroke="midnightblue" d="M475.6,-449.64C489.58,-465.69 519.85,-497.9 552,-516 562.11,-521.69 574.11,-525.86 584.91,-528.81"/>
<polygon fill="midnightblue" stroke="midnightblue" points="584.25,-532.25 594.8,-531.28 585.95,-525.46 584.25,-532.25"/>
</g>
<!-- Node9 -->
<g id="node9" class="node">
<title>Node9</title>
<g id="a_node9"><a xlink:href="cl_8c.html#abc78504adf8a6060fcc3ec25efecaee5" target="_top" xlink:title="Sets a classifier&#39;s current properties from a cJSON object.">
<polygon fill="none" stroke="black" points="558.5,-487.5 558.5,-506.5 673.5,-506.5 673.5,-487.5 558.5,-487.5"/>
<text text-anchor="middle" x="616" y="-494.5" font-family="Helvetica,sans-Serif" font-size="10.00">cl_json_import_current</text>
</a>
</g>
</g>
<!-- Node4&#45;&gt;Node9 -->
<g id="edge8" class="edge">
<title>Node4&#45;&gt;Node9</title>
<path fill="none" stroke="midnightblue" d="M487,-449.64C503.94,-457.8 529.25,-469.49 552,-478 557.97,-480.23 564.33,-482.39 570.62,-484.41"/>
<polygon fill="midnightblue" stroke="midnightblue" points="569.81,-487.82 580.4,-487.44 571.89,-481.14 569.81,-487.82"/>
</g>
<!-- Node10 -->
<g id="node10" class="node">
<title>Node10</title>
<g id="a_node10"><a xlink:href="cl_8c.html#ae1015eda0df557040383c6678e3f0840" target="_top" xlink:title="Sets a classifier&#39;s properties from a cJSON object.">
<polygon fill="none" stroke="black" points="552,-449.5 552,-468.5 680,-468.5 680,-449.5 552,-449.5"/>
<text text-anchor="middle" x="616" y="-456.5" font-family="Helvetica,sans-Serif" font-size="10.00">cl_json_import_properties</text>
</a>
</g>
</g>
<!-- Node4&#45;&gt;Node10 -->
<g id="edge9" class="edge">
<title>Node4&#45;&gt;Node10</title>
<path fill="none" stroke="midnightblue" d="M506.64,-445.04C517.51,-446.44 529.67,-448.01 541.82,-449.57"/>
<polygon fill="midnightblue" stroke="midnightblue" points="541.62,-453.08 551.99,-450.88 542.52,-446.13 541.62,-453.08"/>
</g>
<!-- Node11 -->
<g id="node11" class="node">
<title>Node11</title>
<g id="a_node11"><a xlink:href="cl_8c.html#a47e450b7a0f97f3662080f311b6bad0d" target="_top" xlink:title="Initialises random actions, conditions and predictions.">
<polygon fill="none" stroke="black" points="592,-411.5 592,-430.5 640,-430.5 640,-411.5 592,-411.5"/>
<text text-anchor="middle" x="616" y="-418.5" font-family="Helvetica,sans-Serif" font-size="10.00">cl_rand</text>
</a>
</g>
</g>
<!-- Node4&#45;&gt;Node11 -->
<g id="edge10" class="edge">
<title>Node4&#45;&gt;Node11</title>
<path fill="none" stroke="midnightblue" d="M506.64,-434.96C530.07,-431.94 559.53,-428.15 581.81,-425.28"/>
<polygon fill="midnightblue" stroke="midnightblue" points="582.34,-428.74 591.81,-423.99 581.44,-421.79 582.34,-428.74"/>
</g>
<!-- Node18 -->
<g id="node18" class="node">
<title>Node18</title>
<g id="a_node18"><a xlink:href="condition_8h.html#a8ccc134194a65daacdb42e62a8df050e" target="_top" xlink:title="Creates a condition from a cJSON object.">
<polygon fill="none" stroke="black" points="569.5,-316.5 569.5,-335.5 662.5,-335.5 662.5,-316.5 569.5,-316.5"/>
<text text-anchor="middle" x="616" y="-323.5" font-family="Helvetica,sans-Serif" font-size="10.00">cond_json_import</text>
</a>
</g>
</g>
<!-- Node4&#45;&gt;Node18 -->
<g id="edge17" class="edge">
<title>Node4&#45;&gt;Node18</title>
<path fill="none" stroke="midnightblue" d="M479.82,-430.48C505.14,-410.91 563.23,-366.01 594.38,-341.94"/>
<polygon fill="midnightblue" stroke="midnightblue" points="596.63,-344.62 602.4,-335.74 592.35,-339.08 596.63,-344.62"/>
</g>
<!-- Node21 -->
<g id="node21" class="node">
<title>Node21</title>
<g id="a_node21"><a xlink:href="prediction_8h.html#a2e189fd3243b2e77d73b7fac5b52a9eb" target="_top" xlink:title="Creates a prediction from a cJSON object.">
<polygon fill="none" stroke="black" points="570.5,-240.5 570.5,-259.5 661.5,-259.5 661.5,-240.5 570.5,-240.5"/>
<text text-anchor="middle" x="616" y="-247.5" font-family="Helvetica,sans-Serif" font-size="10.00">pred_json_import</text>
</a>
</g>
</g>
<!-- Node4&#45;&gt;Node21 -->
<g id="edge20" class="edge">
<title>Node4&#45;&gt;Node21</title>
<path fill="none" stroke="midnightblue" d="M472.44,-430.38C484.36,-407.63 516.37,-349.24 552,-307 564.79,-291.83 581.54,-276.86 594.55,-266.08"/>
<polygon fill="midnightblue" stroke="midnightblue" points="596.93,-268.65 602.48,-259.63 592.51,-263.22 596.93,-268.65"/>
</g>
<!-- Node6 -->
<g id="node6" class="node">
<title>Node6</title>
<g id="a_node6"><a xlink:href="action_8h.html#a38d3209ab8ce0417631ce2359f6590a7" target="_top" xlink:title="Returns the integer representation of an action type given a name.">
<polygon fill="none" stroke="black" points="729.5,-620.5 729.5,-639.5 827.5,-639.5 827.5,-620.5 729.5,-620.5"/>
<text text-anchor="middle" x="778.5" y="-627.5" font-family="Helvetica,sans-Serif" font-size="10.00">action_type_as_int</text>
</a>
</g>
</g>
<!-- Node5&#45;&gt;Node6 -->
<g id="edge5" class="edge">
<title>Node5&#45;&gt;Node6</title>
<path fill="none" stroke="midnightblue" d="M657.5,-601.59C678.68,-606.6 704.8,-612.79 727.26,-618.11"/>
<polygon fill="midnightblue" stroke="midnightblue" points="726.75,-621.58 737.29,-620.48 728.37,-614.77 726.75,-621.58"/>
</g>
<!-- Node7 -->
<g id="node7" class="node">
<title>Node7</title>
<g id="a_node7"><a xlink:href="action_8h.html#a92f612de02989e82ef6c52bc7384f24f" target="_top" xlink:title="Returns a string representation of an action type from an integer.">
<polygon fill="none" stroke="black" points="722.5,-582.5 722.5,-601.5 834.5,-601.5 834.5,-582.5 722.5,-582.5"/>
<text text-anchor="middle" x="778.5" y="-589.5" font-family="Helvetica,sans-Serif" font-size="10.00">action_type_as_string</text>
</a>
</g>
</g>
<!-- Node5&#45;&gt;Node7 -->
<g id="edge6" class="edge">
<title>Node5&#45;&gt;Node7</title>
<path fill="none" stroke="midnightblue" d="M659.17,-592C675.39,-592 694.32,-592 712.22,-592"/>
<polygon fill="midnightblue" stroke="midnightblue" points="712.32,-595.5 722.32,-592 712.32,-588.5 712.32,-595.5"/>
</g>
<!-- Node12 -->
<g id="node12" class="node">
<title>Node12</title>
<g id="a_node12"><a xlink:href="action_8h.html#a124e361f0b13d0c29206bd9c05bd9fd4" target="_top" xlink:title="Initialises a classifier&#39;s action.">
<polygon fill="none" stroke="black" points="754.5,-544.5 754.5,-563.5 802.5,-563.5 802.5,-544.5 754.5,-544.5"/>
<text text-anchor="middle" x="778.5" y="-551.5" font-family="Helvetica,sans-Serif" font-size="10.00">act_init</text>
</a>
</g>
</g>
<!-- Node11&#45;&gt;Node12 -->
<g id="edge11" class="edge">
<title>Node11&#45;&gt;Node12</title>
<path fill="none" stroke="midnightblue" d="M640.18,-422.97C653.31,-425.2 669.22,-429.95 680,-440 713.01,-470.8 683.09,-504.09 716,-535 723.76,-542.29 734.26,-546.78 744.38,-549.55"/>
<polygon fill="midnightblue" stroke="midnightblue" points="743.74,-553 754.27,-551.79 745.29,-546.17 743.74,-553"/>
</g>
<!-- Node13 -->
<g id="node13" class="node">
<title>Node13</title>
<g id="a_node13"><a xlink:href="action_8c.html#a57d1606f2517912f1f56018f095761e9" target="_top" xlink:title="Sets a classifier&#39;s action functions to the implementations.">
<polygon fill="none" stroke="black" points="747.5,-506.5 747.5,-525.5 809.5,-525.5 809.5,-506.5 747.5,-506.5"/>
<text text-anchor="middle" x="778.5" y="-513.5" font-family="Helvetica,sans-Serif" font-size="10.00">action_set</text>
</a>
</g>
</g>
<!-- Node11&#45;&gt;Node13 -->
<g id="edge12" class="edge">
<title>Node11&#45;&gt;Node13</title>
<path fill="none" stroke="midnightblue" d="M640.07,-423.92C652.86,-426.47 668.45,-431.22 680,-440 703.85,-458.14 692.21,-478.78 716,-497 722.36,-501.87 729.99,-505.51 737.67,-508.21"/>
<polygon fill="midnightblue" stroke="midnightblue" points="736.75,-511.59 747.33,-511.17 738.79,-504.9 736.75,-511.59"/>
</g>
<!-- Node14 -->
<g id="node14" class="node">
<title>Node14</title>
<g id="a_node14"><a xlink:href="condition_8h.html#ad8a71ebe28cc52430a49610bfe5f7836" target="_top" xlink:title="Initialises a classifier&#39;s condition.">
<polygon fill="none" stroke="black" points="750.5,-468.5 750.5,-487.5 806.5,-487.5 806.5,-468.5 750.5,-468.5"/>
<text text-anchor="middle" x="778.5" y="-475.5" font-family="Helvetica,sans-Serif" font-size="10.00">cond_init</text>
</a>
</g>
</g>
<!-- Node11&#45;&gt;Node14 -->
<g id="edge13" class="edge">
<title>Node11&#45;&gt;Node14</title>
<path fill="none" stroke="midnightblue" d="M640.11,-426.82C652.19,-430.15 667.11,-434.71 680,-440 696.74,-446.87 699.29,-452.08 716,-459 723.85,-462.25 732.47,-465.25 740.7,-467.86"/>
<polygon fill="midnightblue" stroke="midnightblue" points="739.89,-471.27 750.48,-470.83 741.93,-464.57 739.89,-471.27"/>
</g>
<!-- Node15 -->
<g id="node15" class="node">
<title>Node15</title>
<g id="a_node15"><a xlink:href="condition_8c.html#a16981837f523cea3a917404e441981b3" target="_top" xlink:title="Sets a classifier&#39;s condition functions to the implementations.">
<polygon fill="none" stroke="black" points="741.5,-430.5 741.5,-449.5 815.5,-449.5 815.5,-430.5 741.5,-430.5"/>
<text text-anchor="middle" x="778.5" y="-437.5" font-family="Helvetica,sans-Serif" font-size="10.00">condition_set</text>
</a>
</g>
</g>
<!-- Node11&#45;&gt;Node15 -->
<g id="edge14" class="edge">
<title>Node11&#45;&gt;Node15</title>
<path fill="none" stroke="midnightblue" d="M640.34,-423.76C664.06,-426.57 701.45,-431 731.2,-434.52"/>
<polygon fill="midnightblue" stroke="midnightblue" points="731.03,-438.02 741.37,-435.72 731.85,-431.07 731.03,-438.02"/>
</g>
<!-- Node16 -->
<g id="node16" class="node">
<title>Node16</title>
<g id="a_node16"><a xlink:href="prediction_8h.html#ac18761d16e606f80e814a15d1770d367" target="_top" xlink:title="Initialises a classifier&#39;s prediction.">
<polygon fill="none" stroke="black" points="752,-392.5 752,-411.5 805,-411.5 805,-392.5 752,-392.5"/>
<text text-anchor="middle" x="778.5" y="-399.5" font-family="Helvetica,sans-Serif" font-size="10.00">pred_init</text>
</a>
</g>
</g>
<!-- Node11&#45;&gt;Node16 -->
<g id="edge15" class="edge">
<title>Node11&#45;&gt;Node16</title>
<path fill="none" stroke="midnightblue" d="M640.34,-418.24C666.97,-415.08 710.84,-409.89 741.79,-406.23"/>
<polygon fill="midnightblue" stroke="midnightblue" points="742.22,-409.7 751.74,-405.05 741.4,-402.75 742.22,-409.7"/>
</g>
<!-- Node17 -->
<g id="node17" class="node">
<title>Node17</title>
<g id="a_node17"><a xlink:href="prediction_8c.html#a81ad118db1c9b692c45880e6f3a33ec4" target="_top" xlink:title="Sets a classifier&#39;s prediction functions to the implementations.">
<polygon fill="none" stroke="black" points="740,-354.5 740,-373.5 817,-373.5 817,-354.5 740,-354.5"/>
<text text-anchor="middle" x="778.5" y="-361.5" font-family="Helvetica,sans-Serif" font-size="10.00">prediction_set</text>
</a>
</g>
</g>
<!-- Node11&#45;&gt;Node17 -->
<g id="edge16" class="edge">
<title>Node11&#45;&gt;Node17</title>
<path fill="none" stroke="midnightblue" d="M640.04,-411.65C660.01,-403.68 689.73,-392.09 716,-383 722.17,-380.87 728.72,-378.72 735.17,-376.67"/>
<polygon fill="midnightblue" stroke="midnightblue" points="736.63,-379.88 745.13,-373.56 734.54,-373.2 736.63,-379.88"/>
</g>
<!-- Node19 -->
<g id="node19" class="node">
<title>Node19</title>
<g id="a_node19"><a xlink:href="condition_8h.html#a654e570bc807e2c15a6d963b31d3caf2" target="_top" xlink:title="Returns the integer representation of a condition type given a name.">
<polygon fill="none" stroke="black" points="723,-316.5 723,-335.5 834,-335.5 834,-316.5 723,-316.5"/>
<text text-anchor="middle" x="778.5" y="-323.5" font-family="Helvetica,sans-Serif" font-size="10.00">condition_type_as_int</text>
</a>
</g>
</g>
<!-- Node18&#45;&gt;Node19 -->
<g id="edge18" class="edge">
<title>Node18&#45;&gt;Node19</title>
<path fill="none" stroke="midnightblue" d="M662.56,-326C678.14,-326 695.88,-326 712.69,-326"/>
<polygon fill="midnightblue" stroke="midnightblue" points="713,-329.5 723,-326 713,-322.5 713,-329.5"/>
</g>
<!-- Node20 -->
<g id="node20" class="node">
<title>Node20</title>
<g id="a_node20"><a xlink:href="condition_8h.html#af5a052e347755190271b32d8b09ec026" target="_top" xlink:title="Returns a string representation of a condition type from an integer.">
<polygon fill="none" stroke="black" points="716,-278.5 716,-297.5 841,-297.5 841,-278.5 716,-278.5"/>
<text text-anchor="middle" x="778.5" y="-285.5" font-family="Helvetica,sans-Serif" font-size="10.00">condition_type_as_string</text>
</a>
</g>
</g>
<!-- Node18&#45;&gt;Node20 -->
<g id="edge19" class="edge">
<title>Node18&#45;&gt;Node20</title>
<path fill="none" stroke="midnightblue" d="M657.5,-316.41C678.68,-311.4 704.8,-305.21 727.26,-299.89"/>
<polygon fill="midnightblue" stroke="midnightblue" points="728.37,-303.23 737.29,-297.52 726.75,-296.42 728.37,-303.23"/>
</g>
<!-- Node22 -->
<g id="node22" class="node">
<title>Node22</title>
<g id="a_node22"><a xlink:href="prediction_8h.html#a5f5a019c886d5bdf8bf9a3876a5a95bd" target="_top" xlink:title="Returns the integer representation of a prediction type given a name.">
<polygon fill="none" stroke="black" points="721.5,-240.5 721.5,-259.5 835.5,-259.5 835.5,-240.5 721.5,-240.5"/>
<text text-anchor="middle" x="778.5" y="-247.5" font-family="Helvetica,sans-Serif" font-size="10.00">prediction_type_as_int</text>
</a>
</g>
</g>
<!-- Node21&#45;&gt;Node22 -->
<g id="edge21" class="edge">
<title>Node21&#45;&gt;Node22</title>
<path fill="none" stroke="midnightblue" d="M661.71,-250C676.99,-250 694.44,-250 711.06,-250"/>
<polygon fill="midnightblue" stroke="midnightblue" points="711.28,-253.5 721.28,-250 711.28,-246.5 711.28,-253.5"/>
</g>
<!-- Node23 -->
<g id="node23" class="node">
<title>Node23</title>
<g id="a_node23"><a xlink:href="prediction_8h.html#a085a8402296bdeab95f54299040e6e0e" target="_top" xlink:title="Returns a string representation of a prediction type from the integer.">
<polygon fill="none" stroke="black" points="729.5,-191 729.5,-221 827.5,-221 827.5,-191 729.5,-191"/>
<text text-anchor="start" x="737.5" y="-209" font-family="Helvetica,sans-Serif" font-size="10.00">prediction_type_as</text>
<text text-anchor="middle" x="778.5" y="-198" font-family="Helvetica,sans-Serif" font-size="10.00">_string</text>
</a>
</g>
</g>
<!-- Node21&#45;&gt;Node23 -->
<g id="edge22" class="edge">
<title>Node21&#45;&gt;Node23</title>
<path fill="none" stroke="midnightblue" d="M651.83,-240.45C671.58,-235.04 696.82,-228.12 719.48,-221.91"/>
<polygon fill="midnightblue" stroke="midnightblue" points="720.63,-225.22 729.35,-219.2 718.78,-218.47 720.63,-225.22"/>
</g>
<!-- Node26 -->
<g id="node26" class="node">
<title>Node26</title>
<g id="a_node26"><a xlink:href="clset_8c.html#a106a72afb7785af1d1b639736a6340be" target="_top" xlink:title="Deletes a single classifier from the population set.">
<polygon fill="none" stroke="black" points="576,-114.5 576,-133.5 656,-133.5 656,-114.5 576,-114.5"/>
<text text-anchor="middle" x="616" y="-121.5" font-family="Helvetica,sans-Serif" font-size="10.00">clset_pset_del</text>
</a>
</g>
</g>
<!-- Node25&#45;&gt;Node26 -->
<g id="edge25" class="edge">
<title>Node25&#45;&gt;Node26</title>
<path fill="none" stroke="midnightblue" d="M516.21,-124C532.04,-124 549.62,-124 565.51,-124"/>
<polygon fill="midnightblue" stroke="midnightblue" points="565.67,-127.5 575.67,-124 565.67,-120.5 565.67,-127.5"/>
</g>
<!-- Node26&#45;&gt;Node24 -->
<g id="edge26" class="edge">
<title>Node26&#45;&gt;Node24</title>
<path fill="none" stroke="midnightblue" d="M656.26,-133.3C681.47,-139.26 714.04,-146.98 739.08,-152.9"/>
<polygon fill="midnightblue" stroke="midnightblue" points="738.42,-156.35 748.96,-155.24 740.04,-149.53 738.42,-156.35"/>
</g>
<!-- Node27 -->
<g id="node27" class="node">
<title>Node27</title>
<g id="a_node27"><a xlink:href="clset_8c.html#a7e9703db2e290a5b852b1112f52f4803" target="_top" xlink:title="Finds a rule in the population that never matches an input.">
<polygon fill="none" stroke="black" points="717,-114.5 717,-133.5 840,-133.5 840,-114.5 717,-114.5"/>
<text text-anchor="middle" x="778.5" y="-121.5" font-family="Helvetica,sans-Serif" font-size="10.00">clset_pset_never_match</text>
</a>
</g>
</g>
<!-- Node26&#45;&gt;Node27 -->
<g id="edge27" class="edge">
<title>Node26&#45;&gt;Node27</title>
<path fill="none" stroke="midnightblue" d="M656.26,-124C671.47,-124 689.36,-124 706.66,-124"/>
<polygon fill="midnightblue" stroke="midnightblue" points="706.75,-127.5 716.75,-124 706.75,-120.5 706.75,-127.5"/>
</g>
<!-- Node28 -->
<g id="node28" class="node">
<title>Node28</title>
<g id="a_node28"><a xlink:href="clset_8c.html#a7ddb1248094ce9b41cf314b833798b29" target="_top" xlink:title="Selects a classifier from the population for deletion via roulette.">
<polygon fill="none" stroke="black" points="729,-76.5 729,-95.5 828,-95.5 828,-76.5 729,-76.5"/>
<text text-anchor="middle" x="778.5" y="-83.5" font-family="Helvetica,sans-Serif" font-size="10.00">clset_pset_roulette</text>
</a>
</g>
</g>
<!-- Node26&#45;&gt;Node28 -->
<g id="edge28" class="edge">
<title>Node26&#45;&gt;Node28</title>
<path fill="none" stroke="midnightblue" d="M656.26,-114.7C677.69,-109.63 704.44,-103.3 727.35,-97.87"/>
<polygon fill="midnightblue" stroke="midnightblue" points="728.32,-101.24 737.25,-95.53 726.71,-94.43 728.32,-101.24"/>
</g>
<!-- Node29 -->
<g id="node29" class="node">
<title>Node29</title>
<g id="a_node29"><a xlink:href="cl_8c.html#a281f748c300892281088a51455c6657b" target="_top" xlink:title="Returns the size of a classifier&#39;s condition.">
<polygon fill="none" stroke="black" points="877.5,-152.5 877.5,-171.5 951.5,-171.5 951.5,-152.5 877.5,-152.5"/>
<text text-anchor="middle" x="914.5" y="-159.5" font-family="Helvetica,sans-Serif" font-size="10.00">cl_cond_size</text>
</a>
</g>
</g>
<!-- Node28&#45;&gt;Node29 -->
<g id="edge29" class="edge">
<title>Node28&#45;&gt;Node29</title>
<path fill="none" stroke="midnightblue" d="M820.82,-95.54C827.83,-98.05 834.83,-101.17 841,-105 860.76,-117.28 858.43,-128.99 877,-143 879.05,-144.54 881.24,-146.03 883.49,-147.44"/>
<polygon fill="midnightblue" stroke="midnightblue" points="881.9,-150.56 892.32,-152.49 885.37,-144.48 881.9,-150.56"/>
</g>
<!-- Node31 -->
<g id="node31" class="node">
<title>Node31</title>
<g id="a_node31"><a xlink:href="cl_8c.html#ae083f9dc65912cf983795d134006e236" target="_top" xlink:title="Returns the deletion vote of a classifier.">
<polygon fill="none" stroke="black" points="881.5,-114.5 881.5,-133.5 947.5,-133.5 947.5,-114.5 881.5,-114.5"/>
<text text-anchor="middle" x="914.5" y="-121.5" font-family="Helvetica,sans-Serif" font-size="10.00">cl_del_vote</text>
</a>
</g>
</g>
<!-- Node28&#45;&gt;Node31 -->
<g id="edge31" class="edge">
<title>Node28&#45;&gt;Node31</title>
<path fill="none" stroke="midnightblue" d="M813.31,-95.59C830.93,-100.58 852.63,-106.74 871.33,-112.04"/>
<polygon fill="midnightblue" stroke="midnightblue" points="870.51,-115.45 881.08,-114.81 872.42,-108.71 870.51,-115.45"/>
</g>
<!-- Node32 -->
<g id="node32" class="node">
<title>Node32</title>
<g id="a_node32"><a xlink:href="cl_8c.html#a038173dbbcd18ef6820dfb07e7ea0d39" target="_top" xlink:title="Returns the size of a classifier&#39;s prediction.">
<polygon fill="none" stroke="black" points="879,-76.5 879,-95.5 950,-95.5 950,-76.5 879,-76.5"/>
<text text-anchor="middle" x="914.5" y="-83.5" font-family="Helvetica,sans-Serif" font-size="10.00">cl_pred_size</text>
</a>
</g>
</g>
<!-- Node28&#45;&gt;Node32 -->
<g id="edge32" class="edge">
<title>Node28&#45;&gt;Node32</title>
<path fill="none" stroke="midnightblue" d="M828.26,-86C841.48,-86 855.74,-86 868.73,-86"/>
<polygon fill="midnightblue" stroke="midnightblue" points="868.84,-89.5 878.84,-86 868.84,-82.5 868.84,-89.5"/>
</g>
<!-- Node34 -->
<g id="node34" class="node">
<title>Node34</title>
<g id="a_node34"><a xlink:href="clset_8c.html#a27da8860873485883cc85edfac13da87" target="_top" xlink:title="Calculates the total fitness of classifiers in the set.">
<polygon fill="none" stroke="black" points="877,-38.5 877,-57.5 952,-57.5 952,-38.5 877,-38.5"/>
<text text-anchor="middle" x="914.5" y="-45.5" font-family="Helvetica,sans-Serif" font-size="10.00">clset_total_fit</text>
</a>
</g>
</g>
<!-- Node28&#45;&gt;Node34 -->
<g id="edge34" class="edge">
<title>Node28&#45;&gt;Node34</title>
<path fill="none" stroke="midnightblue" d="M813.31,-76.41C830.53,-71.53 851.66,-65.54 870.07,-60.32"/>
<polygon fill="midnightblue" stroke="midnightblue" points="871.03,-63.68 879.7,-57.59 869.12,-56.95 871.03,-63.68"/>
</g>
<!-- Node35 -->
<g id="node35" class="node">
<title>Node35</title>
<g id="a_node35"><a xlink:href="utils_8c.html#a972761ba8f47a6c3e7396a7c685158fc" target="_top" xlink:title="Returns a uniform random float [min,max].">
<polygon fill="none" stroke="black" points="878,-0.5 878,-19.5 951,-19.5 951,-0.5 878,-0.5"/>
<text text-anchor="middle" x="914.5" y="-7.5" font-family="Helvetica,sans-Serif" font-size="10.00">rand_uniform</text>
</a>
</g>
</g>
<!-- Node28&#45;&gt;Node35 -->
<g id="edge35" class="edge">
<title>Node28&#45;&gt;Node35</title>
<path fill="none" stroke="midnightblue" d="M795.24,-76.48C814.4,-64.96 847.82,-45.11 877,-29 879.73,-27.49 882.58,-25.95 885.45,-24.43"/>
<polygon fill="midnightblue" stroke="midnightblue" points="887.24,-27.44 894.46,-19.69 883.98,-21.24 887.24,-27.44"/>
</g>
<!-- Node30 -->
<g id="node30" class="node">
<title>Node30</title>
<g id="a_node30"><a xlink:href="condition_8h.html#ab5392bcc5c6bee45ac2612c7c560be5c" target="_top" xlink:title="Returns the size of the classifier condition.">
<polygon fill="none" stroke="black" points="988,-152.5 988,-171.5 1049,-171.5 1049,-152.5 988,-152.5"/>
<text text-anchor="middle" x="1018.5" y="-159.5" font-family="Helvetica,sans-Serif" font-size="10.00">cond_size</text>
</a>
</g>
</g>
<!-- Node29&#45;&gt;Node30 -->
<g id="edge30" class="edge">
<title>Node29&#45;&gt;Node30</title>
<path fill="none" stroke="midnightblue" d="M951.75,-162C960.13,-162 969.1,-162 977.63,-162"/>
<polygon fill="midnightblue" stroke="midnightblue" points="977.76,-165.5 987.76,-162 977.76,-158.5 977.76,-165.5"/>
</g>
<!-- Node33 -->
<g id="node33" class="node">
<title>Node33</title>
<g id="a_node33"><a xlink:href="prediction_8h.html#a0ac1eb269367fc7adb967e3cb4b2db50" target="_top" xlink:title="Returns the size of the classifier prediction.">
<polygon fill="none" stroke="black" points="989,-76.5 989,-95.5 1048,-95.5 1048,-76.5 989,-76.5"/>
<text text-anchor="middle" x="1018.5" y="-83.5" font-family="Helvetica,sans-Serif" font-size="10.00">pred_size</text>
</a>
</g>
</g>
<!-- Node32&#45;&gt;Node33 -->
<g id="edge33" class="edge">
<title>Node32&#45;&gt;Node33</title>
<path fill="none" stroke="midnightblue" d="M950.03,-86C959.19,-86 969.13,-86 978.51,-86"/>
<polygon fill="midnightblue" stroke="midnightblue" points="978.77,-89.5 988.77,-86 978.77,-82.5 978.77,-89.5"/>
</g>
</g>
</svg>
