<?xml version="1.0" encoding="UTF-8" standalone="no"?>
<!DOCTYPE svg PUBLIC "-//W3C//DTD SVG 1.1//EN"
 "http://www.w3.org/Graphics/SVG/1.1/DTD/svg11.dtd">
<!-- Generated by graphviz version 2.43.0 (0)
 -->
<!-- Title: cond_init Pages: 1 -->
<svg width="1412pt" height="475pt"
 viewBox="0.00 0.00 1412.00 475.17" xmlns="http://www.w3.org/2000/svg" xmlns:xlink="http://www.w3.org/1999/xlink">
<g id="graph0" class="graph" transform="scale(1 1) rotate(0) translate(4 471.17)">
<title>cond_init</title>
<!-- Node1 -->
<g id="Node000001" class="node">
<title>Node1</title>
<g id="a_Node000001"><a xlink:title="Initialises a classifier&#39;s condition.">
<polygon fill="#999999" stroke="#666666" points="1404,-358 1348,-358 1348,-339 1404,-339 1404,-358"/>
<text text-anchor="middle" x="1376" y="-346" font-family="Helvetica,sans-Serif" font-size="10.00">cond_init</text>
</a>
</g>
</g>
<!-- Node2 -->
<g id="Node000002" class="node">
<title>Node2</title>
<g id="a_Node000002"><a xlink:href="cl_8c.html#a47e450b7a0f97f3662080f311b6bad0d" target="_top" xlink:title="Initialises random actions, conditions and predictions.">
<polygon fill="white" stroke="#666666" points="1312,-358 1264,-358 1264,-339 1312,-339 1312,-358"/>
<text text-anchor="middle" x="1288" y="-346" font-family="Helvetica,sans-Serif" font-size="10.00">cl_rand</text>
</a>
</g>
</g>
<!-- Node1&#45;&gt;Node2 -->
<g id="edge1_Node000001_Node000002" class="edge">
<title>Node1&#45;&gt;Node2</title>
<g id="a_edge1_Node000001_Node000002"><a xlink:title=" ">
<path fill="none" stroke="#63b8ff" d="M1337.55,-348.5C1328.96,-348.5 1320.06,-348.5 1312.27,-348.5"/>
<polygon fill="#63b8ff" stroke="#63b8ff" points="1337.79,-352 1347.79,-348.5 1337.79,-345 1337.79,-352"/>
</a>
</g>
</g>
<!-- Node3 -->
<g id="Node000003" class="node">
<title>Node3</title>
<g id="a_Node000003"><a xlink:href="cl_8c.html#ab80c62ad6a09b3243f499a7ad9ef95cd" target="_top" xlink:title="Covers the condition and action for a classifier.">
<polygon fill="white" stroke="#666666" points="1214.5,-320 1161.5,-320 1161.5,-301 1214.5,-301 1214.5,-320"/>
<text text-anchor="middle" x="1188" y="-308" font-family="Helvetica,sans-Serif" font-size="10.00">cl_cover</text>
</a>
</g>
</g>
<!-- Node2&#45;&gt;Node3 -->
<g id="edge2_Node000002_Node000003" class="edge">
<title>Node2&#45;&gt;Node3</title>
<g id="a_edge2_Node000002_Node000003"><a xlink:title=" ">
<path fill="none" stroke="#63b8ff" d="M1254.11,-335.75C1240.93,-330.64 1226.01,-324.85 1213.77,-320.11"/>
<polygon fill="#63b8ff" stroke="#63b8ff" points="1253.19,-339.14 1263.78,-339.49 1255.72,-332.62 1253.19,-339.14"/>
</a>
</g>
</g>
<!-- Node22 -->
<g id="Node000022" class="node">
<title>Node22</title>
<g id="a_Node000022"><a xlink:href="cl_8c.html#ada9e7ce4c9c81af8ea0d1fd0dda59e3c" target="_top" xlink:title="Creates a classifier from a cJSON object.">
<polygon fill="white" stroke="#666666" points="1228,-396 1148,-396 1148,-377 1228,-377 1228,-396"/>
<text text-anchor="middle" x="1188" y="-384" font-family="Helvetica,sans-Serif" font-size="10.00">cl_json_import</text>
</a>
</g>
</g>
<!-- Node2&#45;&gt;Node22 -->
<g id="edge28_Node000002_Node000022" class="edge">
<title>Node2&#45;&gt;Node22</title>
<g id="a_edge28_Node000002_Node000022"><a xlink:title=" ">
<path fill="none" stroke="#63b8ff" d="M1254.11,-361.25C1240.93,-366.36 1226.01,-372.15 1213.77,-376.89"/>
<polygon fill="#63b8ff" stroke="#63b8ff" points="1255.72,-364.38 1263.78,-357.51 1253.19,-357.86 1255.72,-364.38"/>
</a>
</g>
</g>
<!-- Node26 -->
<g id="Node000026" class="node">
<title>Node26</title>
<g id="a_Node000026"><a xlink:href="clset_8c.html#a0dc2a4754c73df72a73b31c09cd50003" target="_top" xlink:title="Initialises a new population of random classifiers.">
<polygon fill="white" stroke="#666666" points="684,-359 604,-359 604,-340 684,-340 684,-359"/>
<text text-anchor="middle" x="644" y="-347" font-family="Helvetica,sans-Serif" font-size="10.00">clset_pset_init</text>
</a>
</g>
</g>
<!-- Node2&#45;&gt;Node26 -->
<g id="edge46_Node000002_Node000026" class="edge">
<title>Node2&#45;&gt;Node26</title>
<g id="a_edge46_Node000002_Node000026"><a xlink:title=" ">
<path fill="none" stroke="#63b8ff" d="M1253.84,-348.5C1209.87,-348.5 1129.86,-348.5 1061.5,-348.5 1061.5,-348.5 1061.5,-348.5 920,-348.5 835.97,-348.5 737.5,-348.97 684.16,-349.27"/>
<polygon fill="#63b8ff" stroke="#63b8ff" points="1253.95,-352 1263.95,-348.5 1253.95,-345 1253.95,-352"/>
</a>
</g>
</g>
<!-- Node4 -->
<g id="Node000004" class="node">
<title>Node4</title>
<g id="a_Node000004"><a xlink:href="clset_8c.html#aa1b7f7f1ccebf6e4e030333304fe3f51" target="_top" xlink:title="Ensures all possible actions are covered by the match set.">
<polygon fill="white" stroke="#666666" points="1094,-320 1027,-320 1027,-301 1094,-301 1094,-320"/>
<text text-anchor="middle" x="1060.5" y="-308" font-family="Helvetica,sans-Serif" font-size="10.00">clset_cover</text>
</a>
</g>
</g>
<!-- Node3&#45;&gt;Node4 -->
<g id="edge3_Node000003_Node000004" class="edge">
<title>Node3&#45;&gt;Node4</title>
<g id="a_edge3_Node000003_Node000004"><a xlink:title=" ">
<path fill="none" stroke="#63b8ff" d="M1151.24,-310.5C1133.33,-310.5 1111.81,-310.5 1094.33,-310.5"/>
<polygon fill="#63b8ff" stroke="#63b8ff" points="1151.3,-314 1161.3,-310.5 1151.3,-307 1151.3,-314"/>
</a>
</g>
</g>
<!-- Node5 -->
<g id="Node000005" class="node">
<title>Node5</title>
<g id="a_Node000005"><a xlink:href="clset_8c.html#ad49ee472743937e1cfdd58cc41fcaead" target="_top" xlink:title="Constructs the match set &#45; forward propagates conditions and actions.">
<polygon fill="white" stroke="#666666" points="818,-265 748,-265 748,-246 818,-246 818,-265"/>
<text text-anchor="middle" x="783" y="-253" font-family="Helvetica,sans-Serif" font-size="10.00">clset_match</text>
</a>
</g>
</g>
<!-- Node4&#45;&gt;Node5 -->
<g id="edge4_Node000004_Node000005" class="edge">
<title>Node4&#45;&gt;Node5</title>
<g id="a_edge4_Node000004_Node000005"><a xlink:title=" ">
<path fill="none" stroke="#63b8ff" d="M1016.76,-301.97C962.13,-291.06 868.63,-272.4 818.37,-262.36"/>
<polygon fill="#63b8ff" stroke="#63b8ff" points="1016.32,-305.45 1026.81,-303.97 1017.69,-298.58 1016.32,-305.45"/>
</a>
</g>
</g>
<!-- Node6 -->
<g id="Node000006" class="node">
<title>Node6</title>
<g id="a_Node000006"><a xlink:href="xcs__rl_8c.html#a6501735ba3cba5c77c1b8ad0aad0b26a" target="_top" xlink:title="Selects an action to perform in a reinforcement learning problem.">
<polygon fill="white" stroke="#666666" points="686,-246 602,-246 602,-227 686,-227 686,-246"/>
<text text-anchor="middle" x="644" y="-234" font-family="Helvetica,sans-Serif" font-size="10.00">xcs_rl_decision</text>
</a>
</g>
</g>
<!-- Node5&#45;&gt;Node6 -->
<g id="edge5_Node000005_Node000006" class="edge">
<title>Node5&#45;&gt;Node6</title>
<g id="a_edge5_Node000005_Node000006"><a xlink:title=" ">
<path fill="none" stroke="#63b8ff" d="M737.77,-249.37C721.18,-247.06 702.4,-244.46 686.1,-242.2"/>
<polygon fill="#63b8ff" stroke="#63b8ff" points="737.4,-252.85 747.78,-250.75 738.36,-245.91 737.4,-252.85"/>
</a>
</g>
</g>
<!-- Node12 -->
<g id="Node000012" class="node">
<title>Node12</title>
<g id="a_Node000012"><a xlink:href="xcs__rl_8c.html#a391abf9bd2540ff284f822b30899c438" target="_top" xlink:title="Creates and updates an action set for a given (state, action, reward).">
<polygon fill="white" stroke="#666666" points="672,-284 616,-284 616,-265 672,-265 672,-284"/>
<text text-anchor="middle" x="644" y="-272" font-family="Helvetica,sans-Serif" font-size="10.00">xcs_rl_fit</text>
</a>
</g>
</g>
<!-- Node5&#45;&gt;Node12 -->
<g id="edge11_Node000005_Node000012" class="edge">
<title>Node5&#45;&gt;Node12</title>
<g id="a_edge11_Node000005_Node000012"><a xlink:title=" ">
<path fill="none" stroke="#63b8ff" d="M737.87,-261.62C716.32,-264.61 691.08,-268.11 672.36,-270.71"/>
<polygon fill="#63b8ff" stroke="#63b8ff" points="738.36,-265.09 747.78,-260.25 737.4,-258.15 738.36,-265.09"/>
</a>
</g>
</g>
<!-- Node14 -->
<g id="Node000014" class="node">
<title>Node14</title>
<g id="a_Node000014"><a xlink:href="xcs__supervised_8c.html#a8e376723db7b6786507d5ea6add9f650" target="_top" xlink:title="Executes a single XCSF trial.">
<polygon fill="white" stroke="#666666" points="697,-95 591,-95 591,-76 697,-76 697,-95"/>
<text text-anchor="middle" x="644" y="-83" font-family="Helvetica,sans-Serif" font-size="10.00">xcs_supervised_trial</text>
</a>
</g>
</g>
<!-- Node5&#45;&gt;Node14 -->
<g id="edge14_Node000005_Node000014" class="edge">
<title>Node5&#45;&gt;Node14</title>
<g id="a_edge14_Node000005_Node000014"><a xlink:title=" ">
<path fill="none" stroke="#63b8ff" d="M767.73,-237.8C738.95,-202.08 674.8,-122.47 652.67,-95.02"/>
<polygon fill="#63b8ff" stroke="#63b8ff" points="765.24,-240.28 774.24,-245.87 770.69,-235.89 765.24,-240.28"/>
</a>
</g>
</g>
<!-- Node7 -->
<g id="Node000007" class="node">
<title>Node7</title>
<g id="a_Node000007"><a xlink:href="classXCS.html#ac6003941812bd2c70ea443dd63bd59d0" target="_top" xlink:title="Selects an action to perform in a reinforcement learning problem.">
<polygon fill="white" stroke="#666666" points="234,-171 154,-171 154,-152 234,-152 234,-171"/>
<text text-anchor="middle" x="194" y="-159" font-family="Helvetica,sans-Serif" font-size="10.00">XCS::decision</text>
</a>
</g>
</g>
<!-- Node6&#45;&gt;Node7 -->
<g id="edge6_Node000006_Node000007" class="edge">
<title>Node6&#45;&gt;Node7</title>
<g id="a_edge6_Node000006_Node000007"><a xlink:title=" ">
<path fill="none" stroke="#63b8ff" d="M632.5,-218.21C618.28,-195.51 590.53,-157.91 555,-142.5 440.45,-92.82 285.81,-132.11 223.13,-151.87"/>
<polygon fill="#63b8ff" stroke="#63b8ff" points="629.59,-220.17 637.75,-226.92 635.58,-216.55 629.59,-220.17"/>
</a>
</g>
</g>
<!-- Node9 -->
<g id="Node000009" class="node">
<title>Node9</title>
<g id="a_Node000009"><a xlink:href="xcs__rl_8c.html#a8171cd945b56ed0a4563f9dcd89438e3" target="_top" xlink:title="Executes a reinforcement learning trial using a built&#45;in environment.">
<polygon fill="white" stroke="#666666" points="527.5,-246 463.5,-246 463.5,-227 527.5,-227 527.5,-246"/>
<text text-anchor="middle" x="495.5" y="-234" font-family="Helvetica,sans-Serif" font-size="10.00">xcs_rl_trial</text>
</a>
</g>
</g>
<!-- Node6&#45;&gt;Node9 -->
<g id="edge8_Node000006_Node000009" class="edge">
<title>Node6&#45;&gt;Node9</title>
<g id="a_edge8_Node000006_Node000009"><a xlink:title=" ">
<path fill="none" stroke="#63b8ff" d="M591.59,-236.5C570.26,-236.5 546.21,-236.5 527.64,-236.5"/>
<polygon fill="#63b8ff" stroke="#63b8ff" points="591.8,-240 601.8,-236.5 591.8,-233 591.8,-240"/>
</a>
</g>
</g>
<!-- Node8 -->
<g id="Node000008" class="node">
<title>Node8</title>
<g id="a_Node000008"><a xlink:href="pybind__wrapper_8cpp.html#a172daba0778fe2bd38d723d5f52a23d5" target="_top" xlink:title=" ">
<polygon fill="white" stroke="#666666" points="113,-323 0,-323 0,-304 113,-304 113,-323"/>
<text text-anchor="middle" x="56.5" y="-311" font-family="Helvetica,sans-Serif" font-size="10.00">PYBIND11_MODULE</text>
</a>
</g>
</g>
<!-- Node7&#45;&gt;Node8 -->
<g id="edge7_Node000007_Node000008" class="edge">
<title>Node7&#45;&gt;Node8</title>
<g id="a_edge7_Node000007_Node000008"><a xlink:title=" ">
<path fill="none" stroke="#63b8ff" d="M177.67,-178.7C149.03,-210.82 88.31,-278.94 65.97,-304"/>
<polygon fill="#63b8ff" stroke="#63b8ff" points="180.48,-180.8 184.52,-171.01 175.26,-176.14 180.48,-180.8"/>
</a>
</g>
</g>
<!-- Node10 -->
<g id="Node000010" class="node">
<title>Node10</title>
<g id="a_Node000010"><a xlink:href="xcs__rl_8c.html#adb4c284d19eeaed2b4a629f9b939ed20" target="_top" xlink:title="Executes a reinforcement learning experiment.">
<polygon fill="white" stroke="#666666" points="369.5,-246 305.5,-246 305.5,-227 369.5,-227 369.5,-246"/>
<text text-anchor="middle" x="337.5" y="-234" font-family="Helvetica,sans-Serif" font-size="10.00">xcs_rl_exp</text>
</a>
</g>
</g>
<!-- Node9&#45;&gt;Node10 -->
<g id="edge9_Node000009_Node000010" class="edge">
<title>Node9&#45;&gt;Node10</title>
<g id="a_edge9_Node000009_Node000010"><a xlink:title=" ">
<path fill="none" stroke="#63b8ff" d="M453.28,-236.5C427.06,-236.5 393.65,-236.5 369.64,-236.5"/>
<polygon fill="#63b8ff" stroke="#63b8ff" points="453.31,-240 463.31,-236.5 453.31,-233 453.31,-240"/>
</a>
</g>
</g>
<!-- Node11 -->
<g id="Node000011" class="node">
<title>Node11</title>
<g id="a_Node000011"><a xlink:href="main_8c.html#a3c04138a5bfe5d72780bb7e82a18e627" target="_top" xlink:title=" ">
<polygon fill="white" stroke="#666666" points="213,-246 175,-246 175,-227 213,-227 213,-246"/>
<text text-anchor="middle" x="194" y="-234" font-family="Helvetica,sans-Serif" font-size="10.00">main</text>
</a>
</g>
</g>
<!-- Node10&#45;&gt;Node11 -->
<g id="edge10_Node000010_Node000011" class="edge">
<title>Node10&#45;&gt;Node11</title>
<g id="a_edge10_Node000010_Node000011"><a xlink:title=" ">
<path fill="none" stroke="#63b8ff" d="M295.39,-236.5C268.11,-236.5 233.65,-236.5 213.02,-236.5"/>
<polygon fill="#63b8ff" stroke="#63b8ff" points="295.45,-240 305.45,-236.5 295.45,-233 295.45,-240"/>
</a>
</g>
</g>
<!-- Node13 -->
<g id="Node000013" class="node">
<title>Node13</title>
<g id="a_Node000013"><a xlink:href="classXCS.html#ac12768292958a714a726b1c029e9616a" target="_top" xlink:title="Creates/updates an action set for a given (state, action, reward).">
<polygon fill="white" stroke="#666666" points="220,-286 168,-286 168,-267 220,-267 220,-286"/>
<text text-anchor="middle" x="194" y="-274" font-family="Helvetica,sans-Serif" font-size="10.00">XCS::fit</text>
</a>
</g>
</g>
<!-- Node12&#45;&gt;Node13 -->
<g id="edge12_Node000012_Node000013" class="edge">
<title>Node12&#45;&gt;Node13</title>
<g id="a_edge12_Node000012_Node000013"><a xlink:title=" ">
<path fill="none" stroke="#63b8ff" d="M605.85,-274.67C517.18,-275.06 294.99,-276.05 220.1,-276.39"/>
<polygon fill="#63b8ff" stroke="#63b8ff" points="606,-278.17 615.98,-274.62 605.97,-271.17 606,-278.17"/>
</a>
</g>
</g>
<!-- Node13&#45;&gt;Node8 -->
<g id="edge13_Node000013_Node000008" class="edge">
<title>Node13&#45;&gt;Node8</title>
<g id="a_edge13_Node000013_Node000008"><a xlink:title=" ">
<path fill="none" stroke="#63b8ff" d="M158.1,-286.03C137.94,-291.53 112.67,-298.44 92.49,-303.94"/>
<polygon fill="#63b8ff" stroke="#63b8ff" points="159.11,-289.38 167.83,-283.37 157.26,-282.63 159.11,-289.38"/>
</a>
</g>
</g>
<!-- Node15 -->
<g id="Node000015" class="node">
<title>Node15</title>
<g id="a_Node000015"><a xlink:href="xcs__supervised_8c.html#a4b67d2351436bfb520f5707260420f8c" target="_top" xlink:title="Executes MAX_TRIALS number of XCSF learning iterations using the training data and test iterations us...">
<polygon fill="white" stroke="#666666" points="544.5,-171 446.5,-171 446.5,-152 544.5,-152 544.5,-171"/>
<text text-anchor="middle" x="495.5" y="-159" font-family="Helvetica,sans-Serif" font-size="10.00">xcs_supervised_fit</text>
</a>
</g>
</g>
<!-- Node14&#45;&gt;Node15 -->
<g id="edge15_Node000014_Node000015" class="edge">
<title>Node14&#45;&gt;Node15</title>
<g id="a_edge15_Node000014_Node000015"><a xlink:title=" ">
<path fill="none" stroke="#63b8ff" d="M615.52,-99.76C586.1,-115.02 540.25,-138.8 514.9,-151.95"/>
<polygon fill="#63b8ff" stroke="#63b8ff" points="617.18,-102.84 624.45,-95.13 613.96,-96.62 617.18,-102.84"/>
</a>
</g>
</g>
<!-- Node17 -->
<g id="Node000017" class="node">
<title>Node17</title>
<g id="a_Node000017"><a xlink:href="xcs__supervised_8c.html#ae4791c1daf0baaa6615f70332657aadb" target="_top" xlink:title="Calculates the XCSF predictions for the provided input.">
<polygon fill="white" stroke="#666666" points="555,-19 436,-19 436,0 555,0 555,-19"/>
<text text-anchor="middle" x="495.5" y="-7" font-family="Helvetica,sans-Serif" font-size="10.00">xcs_supervised_predict</text>
</a>
</g>
</g>
<!-- Node14&#45;&gt;Node17 -->
<g id="edge18_Node000014_Node000017" class="edge">
<title>Node14&#45;&gt;Node17</title>
<g id="a_edge18_Node000014_Node000017"><a xlink:title=" ">
<path fill="none" stroke="#63b8ff" d="M619.52,-70.37C602.08,-59.44 577.52,-44.7 555,-33.5 544.48,-28.27 532.54,-23.22 522.2,-19.11"/>
<polygon fill="#63b8ff" stroke="#63b8ff" points="618.09,-73.61 628.42,-76 621.84,-67.69 618.09,-73.61"/>
</a>
</g>
</g>
<!-- Node19 -->
<g id="Node000019" class="node">
<title>Node19</title>
<g id="a_Node000019"><a xlink:href="xcs__supervised_8c.html#a535e3dbbf0f80e64a4e9b1c700e51f40" target="_top" xlink:title="Calculates the XCSF error for the input data.">
<polygon fill="white" stroke="#666666" points="552.5,-95 438.5,-95 438.5,-76 552.5,-76 552.5,-95"/>
<text text-anchor="middle" x="495.5" y="-83" font-family="Helvetica,sans-Serif" font-size="10.00">xcs_supervised_score</text>
</a>
</g>
</g>
<!-- Node14&#45;&gt;Node19 -->
<g id="edge21_Node000014_Node000019" class="edge">
<title>Node14&#45;&gt;Node19</title>
<g id="a_edge21_Node000014_Node000019"><a xlink:title=" ">
<path fill="none" stroke="#63b8ff" d="M580.88,-85.5C571.5,-85.5 561.87,-85.5 552.62,-85.5"/>
<polygon fill="#63b8ff" stroke="#63b8ff" points="580.94,-89 590.94,-85.5 580.94,-82 580.94,-89"/>
</a>
</g>
</g>
<!-- Node21 -->
<g id="Node000021" class="node">
<title>Node21</title>
<g id="a_Node000021"><a xlink:href="xcs__supervised_8c.html#a9ab2bb39625aea84c716901a95a4326e" target="_top" xlink:title="Calculates the XCSF error for a subsample of the input data.">
<polygon fill="white" stroke="#666666" points="400,-57 275,-57 275,-38 400,-38 400,-57"/>
<text text-anchor="middle" x="337.5" y="-45" font-family="Helvetica,sans-Serif" font-size="10.00">xcs_supervised_score_n</text>
</a>
</g>
</g>
<!-- Node14&#45;&gt;Node21 -->
<g id="edge27_Node000014_Node000021" class="edge">
<title>Node14&#45;&gt;Node21</title>
<g id="a_edge27_Node000014_Node000021"><a xlink:title=" ">
<path fill="none" stroke="#63b8ff" d="M593.89,-73.76C581.28,-71.06 567.68,-68.42 555,-66.5 503.14,-58.66 443.77,-53.73 400.34,-50.86"/>
<polygon fill="#63b8ff" stroke="#63b8ff" points="593.25,-77.2 603.77,-75.93 594.75,-70.37 593.25,-77.2"/>
</a>
</g>
</g>
<!-- Node15&#45;&gt;Node11 -->
<g id="edge17_Node000015_Node000011" class="edge">
<title>Node15&#45;&gt;Node11</title>
<g id="a_edge17_Node000015_Node000011"><a xlink:title=" ">
<path fill="none" stroke="#63b8ff" d="M436.06,-158.44C390.79,-157.97 327.2,-161.53 275,-180.5 246.64,-190.81 219.04,-213.85 204.86,-226.94"/>
<polygon fill="#63b8ff" stroke="#63b8ff" points="436.24,-161.94 446.3,-158.61 436.36,-154.94 436.24,-161.94"/>
</a>
</g>
</g>
<!-- Node16 -->
<g id="Node000016" class="node">
<title>Node16</title>
<g id="a_Node000016"><a xlink:href="classXCS.html#ae71d09f1e1346353163fc9d8ffb430af" target="_top" xlink:title="Executes MAX_TRIALS number of XCSF learning iterations using the provided training data.">
<polygon fill="white" stroke="#666666" points="363.5,-209 311.5,-209 311.5,-190 363.5,-190 363.5,-209"/>
<text text-anchor="middle" x="337.5" y="-197" font-family="Helvetica,sans-Serif" font-size="10.00">XCS::fit</text>
</a>
</g>
</g>
<!-- Node15&#45;&gt;Node16 -->
<g id="edge16_Node000015_Node000016" class="edge">
<title>Node15&#45;&gt;Node16</title>
<g id="a_edge16_Node000015_Node000016"><a xlink:title=" ">
<path fill="none" stroke="#63b8ff" d="M445.41,-173.46C418.27,-180.07 385.69,-188.01 363.68,-193.37"/>
<polygon fill="#63b8ff" stroke="#63b8ff" points="446.25,-176.86 455.13,-171.09 444.59,-170.06 446.25,-176.86"/>
</a>
</g>
</g>
<!-- Node18 -->
<g id="Node000018" class="node">
<title>Node18</title>
<g id="a_Node000018"><a xlink:href="classXCS.html#a562cb81d9627e7dbcfdb0dc05ec2e3f0" target="_top" xlink:title="Returns the XCSF prediction array for the provided input.">
<polygon fill="white" stroke="#666666" points="230.5,-39 157.5,-39 157.5,-20 230.5,-20 230.5,-39"/>
<text text-anchor="middle" x="194" y="-27" font-family="Helvetica,sans-Serif" font-size="10.00">XCS::predict</text>
</a>
</g>
</g>
<!-- Node17&#45;&gt;Node18 -->
<g id="edge19_Node000017_Node000018" class="edge">
<title>Node17&#45;&gt;Node18</title>
<g id="a_edge19_Node000017_Node000018"><a xlink:title=" ">
<path fill="none" stroke="#63b8ff" d="M425.4,-14.11C364.61,-18.17 278.56,-23.92 230.67,-27.12"/>
<polygon fill="#63b8ff" stroke="#63b8ff" points="425.94,-17.59 435.69,-13.43 425.47,-10.6 425.94,-17.59"/>
</a>
</g>
</g>
<!-- Node18&#45;&gt;Node8 -->
<g id="edge20_Node000018_Node000008" class="edge">
<title>Node18&#45;&gt;Node8</title>
<g id="a_edge20_Node000018_Node000008"><a xlink:title=" ">
<path fill="none" stroke="#63b8ff" d="M169.45,-45.55C162.13,-51.46 154.53,-58.64 149,-66.5 91.89,-147.65 65.86,-268.7 59.25,-303.7"/>
<polygon fill="#63b8ff" stroke="#63b8ff" points="171.93,-48.07 177.79,-39.25 167.7,-42.49 171.93,-48.07"/>
</a>
</g>
</g>
<!-- Node19&#45;&gt;Node16 -->
<g id="edge22_Node000019_Node000016" class="edge">
<title>Node19&#45;&gt;Node16</title>
<g id="a_edge22_Node000019_Node000016"><a xlink:title=" ">
<path fill="none" stroke="#63b8ff" d="M473.05,-101.18C440.31,-125.1 378.85,-170.01 351.83,-189.76"/>
<polygon fill="#63b8ff" stroke="#63b8ff" points="475.46,-103.75 481.47,-95.02 471.33,-98.1 475.46,-103.75"/>
</a>
</g>
</g>
<!-- Node20 -->
<g id="Node000020" class="node">
<title>Node20</title>
<g id="a_Node000020"><a xlink:href="classXCS.html#a2aeb9df5550b79ea97a725e83ef64005" target="_top" xlink:title="Returns the error using N random samples from the provided data.">
<polygon fill="white" stroke="#666666" points="228,-95 160,-95 160,-76 228,-76 228,-95"/>
<text text-anchor="middle" x="194" y="-83" font-family="Helvetica,sans-Serif" font-size="10.00">XCS::score</text>
</a>
</g>
</g>
<!-- Node19&#45;&gt;Node20 -->
<g id="edge23_Node000019_Node000020" class="edge">
<title>Node19&#45;&gt;Node20</title>
<g id="a_edge23_Node000019_Node000020"><a xlink:title=" ">
<path fill="none" stroke="#63b8ff" d="M428.1,-85.5C366.19,-85.5 276.4,-85.5 228.33,-85.5"/>
<polygon fill="#63b8ff" stroke="#63b8ff" points="428.17,-89 438.17,-85.5 428.17,-82 428.17,-89"/>
</a>
</g>
</g>
<!-- Node19&#45;&gt;Node21 -->
<g id="edge25_Node000019_Node000021" class="edge">
<title>Node19&#45;&gt;Node21</title>
<g id="a_edge25_Node000019_Node000021"><a xlink:title=" ">
<path fill="none" stroke="#63b8ff" d="M445.37,-73.53C423.51,-68.21 398.12,-62.02 377.58,-57.02"/>
<polygon fill="#63b8ff" stroke="#63b8ff" points="444.59,-76.94 455.13,-75.91 446.25,-70.14 444.59,-76.94"/>
</a>
</g>
</g>
<!-- Node20&#45;&gt;Node8 -->
<g id="edge24_Node000020_Node000008" class="edge">
<title>Node20&#45;&gt;Node8</title>
<g id="a_edge24_Node000020_Node000008"><a xlink:title=" ">
<path fill="none" stroke="#63b8ff" d="M178.13,-103.17C169.21,-114.15 157.9,-128.75 149,-142.5 110.95,-201.3 74.33,-277.44 61.93,-303.92"/>
<polygon fill="#63b8ff" stroke="#63b8ff" points="181.03,-105.16 184.69,-95.22 175.63,-100.71 181.03,-105.16"/>
</a>
</g>
</g>
<!-- Node21&#45;&gt;Node20 -->
<g id="edge26_Node000021_Node000020" class="edge">
<title>Node21&#45;&gt;Node20</title>
<g id="a_edge26_Node000021_Node000020"><a xlink:title=" ">
<path fill="none" stroke="#63b8ff" d="M291.07,-59.7C270.65,-65.18 246.99,-71.54 228.26,-76.57"/>
<polygon fill="#63b8ff" stroke="#63b8ff" points="292.04,-63.06 300.79,-57.09 290.23,-56.3 292.04,-63.06"/>
</a>
</g>
</g>
<!-- Node23 -->
<g id="Node000023" class="node">
<title>Node23</title>
<g id="a_Node000023"><a xlink:href="clset_8c.html#af6dd68a382ba6513d94925542da41f38" target="_top" xlink:title="Creates a classifier from cJSON and inserts in the population set.">
<polygon fill="white" stroke="#666666" points="1112,-406 1009,-406 1009,-387 1112,-387 1112,-406"/>
<text text-anchor="middle" x="1060.5" y="-394" font-family="Helvetica,sans-Serif" font-size="10.00">clset_json_insert_cl</text>
</a>
</g>
</g>
<!-- Node22&#45;&gt;Node23 -->
<g id="edge29_Node000022_Node000023" class="edge">
<title>Node22&#45;&gt;Node23</title>
<g id="a_edge29_Node000022_Node000023"><a xlink:title=" ">
<path fill="none" stroke="#63b8ff" d="M1137.86,-390.42C1129.38,-391.09 1120.56,-391.79 1112.05,-392.47"/>
<polygon fill="#63b8ff" stroke="#63b8ff" points="1138.29,-393.89 1147.98,-389.61 1137.73,-386.91 1138.29,-393.89"/>
</a>
</g>
</g>
<!-- Node24 -->
<g id="Node000024" class="node">
<title>Node24</title>
<g id="a_Node000024"><a xlink:href="clset_8c.html#a9092b6e9d9b731be1bd9a4303992fd43" target="_top" xlink:title="Creates classifiers from JSON and inserts into the population.">
<polygon fill="white" stroke="#666666" points="966,-406 876,-406 876,-387 966,-387 966,-406"/>
<text text-anchor="middle" x="921" y="-394" font-family="Helvetica,sans-Serif" font-size="10.00">clset_json_insert</text>
</a>
</g>
</g>
<!-- Node23&#45;&gt;Node24 -->
<g id="edge30_Node000023_Node000024" class="edge">
<title>Node23&#45;&gt;Node24</title>
<g id="a_edge30_Node000023_Node000024"><a xlink:title=" ">
<path fill="none" stroke="#63b8ff" d="M998.42,-396.5C987.6,-396.5 976.51,-396.5 966.26,-396.5"/>
<polygon fill="#63b8ff" stroke="#63b8ff" points="998.69,-400 1008.69,-396.5 998.69,-393 998.69,-400"/>
</a>
</g>
</g>
<!-- Node33 -->
<g id="Node000033" class="node">
<title>Node33</title>
<g id="a_Node000033"><a xlink:href="classXCS.html#a61361120dbba1dba3ca49b53ded91edb" target="_top" xlink:title="Creates a classifier from JSON and inserts into the population.">
<polygon fill="white" stroke="#666666" points="973,-462 869,-462 869,-443 973,-443 973,-462"/>
<text text-anchor="middle" x="921" y="-450" font-family="Helvetica,sans-Serif" font-size="10.00">XCS::json_insert_cl</text>
</a>
</g>
</g>
<!-- Node23&#45;&gt;Node33 -->
<g id="edge44_Node000023_Node000033" class="edge">
<title>Node23&#45;&gt;Node33</title>
<g id="a_edge44_Node000023_Node000033"><a xlink:title=" ">
<path fill="none" stroke="#63b8ff" d="M1026.4,-409.98C1001.36,-420.18 967.59,-433.93 945.33,-443"/>
<polygon fill="#63b8ff" stroke="#63b8ff" points="1027.92,-413.14 1035.86,-406.13 1025.28,-406.66 1027.92,-413.14"/>
</a>
</g>
</g>
<!-- Node25 -->
<g id="Node000025" class="node">
<title>Node25</title>
<g id="a_Node000025"><a xlink:href="clset_8c.html#ab1609ae417c14c50f3322c3ed818db6b" target="_top" xlink:title=" ">
<polygon fill="white" stroke="#666666" points="833,-396 733,-396 733,-377 833,-377 833,-396"/>
<text text-anchor="middle" x="783" y="-384" font-family="Helvetica,sans-Serif" font-size="10.00">clset_load_pop_file</text>
</a>
</g>
</g>
<!-- Node24&#45;&gt;Node25 -->
<g id="edge31_Node000024_Node000025" class="edge">
<title>Node24&#45;&gt;Node25</title>
<g id="a_edge31_Node000024_Node000025"><a xlink:title=" ">
<path fill="none" stroke="#63b8ff" d="M865.71,-392.51C854.94,-391.72 843.69,-390.89 833.11,-390.11"/>
<polygon fill="#63b8ff" stroke="#63b8ff" points="865.61,-396.01 875.84,-393.25 866.13,-389.03 865.61,-396.01"/>
</a>
</g>
</g>
<!-- Node31 -->
<g id="Node000031" class="node">
<title>Node31</title>
<g id="a_Node000031"><a xlink:href="classXCS.html#af888b891afb66fbe06ba4919ef16adf9" target="_top" xlink:title="Creates classifiers from JSON and inserts into the population.">
<polygon fill="white" stroke="#666666" points="383,-434 292,-434 292,-415 383,-415 383,-434"/>
<text text-anchor="middle" x="337.5" y="-422" font-family="Helvetica,sans-Serif" font-size="10.00">XCS::json_insert</text>
</a>
</g>
</g>
<!-- Node24&#45;&gt;Node31 -->
<g id="edge40_Node000024_Node000031" class="edge">
<title>Node24&#45;&gt;Node31</title>
<g id="a_edge40_Node000024_Node000031"><a xlink:title=" ">
<path fill="none" stroke="#63b8ff" d="M865.62,-402.67C854.82,-403.74 843.56,-404.75 833,-405.5 667.39,-417.24 470.02,-422.08 383.22,-423.75"/>
<polygon fill="#63b8ff" stroke="#63b8ff" points="866.2,-406.13 875.79,-401.63 865.49,-399.17 866.2,-406.13"/>
</a>
</g>
</g>
<!-- Node25&#45;&gt;Node26 -->
<g id="edge32_Node000025_Node000026" class="edge">
<title>Node25&#45;&gt;Node26</title>
<g id="a_edge32_Node000025_Node000026"><a xlink:title=" ">
<path fill="none" stroke="#63b8ff" d="M736.87,-374.31C718.6,-369.38 697.81,-363.76 680.64,-359.12"/>
<polygon fill="#63b8ff" stroke="#63b8ff" points="736.15,-377.74 746.72,-376.97 737.98,-370.99 736.15,-377.74"/>
</a>
</g>
</g>
<!-- Node27 -->
<g id="Node000027" class="node">
<title>Node27</title>
<g id="a_Node000027"><a xlink:href="xcsf_8c.html#ae4718dd9f579b8730e25a1a13a385d6a" target="_top" xlink:title="Initialises XCSF with an empty population.">
<polygon fill="white" stroke="#666666" points="522,-359 469,-359 469,-340 522,-340 522,-359"/>
<text text-anchor="middle" x="495.5" y="-347" font-family="Helvetica,sans-Serif" font-size="10.00">xcsf_init</text>
</a>
</g>
</g>
<!-- Node26&#45;&gt;Node27 -->
<g id="edge33_Node000026_Node000027" class="edge">
<title>Node26&#45;&gt;Node27</title>
<g id="a_edge33_Node000026_Node000027"><a xlink:title=" ">
<path fill="none" stroke="#63b8ff" d="M593.71,-349.5C569.66,-349.5 541.75,-349.5 522.02,-349.5"/>
<polygon fill="#63b8ff" stroke="#63b8ff" points="593.74,-353 603.74,-349.5 593.74,-346 593.74,-353"/>
</a>
</g>
</g>
<!-- Node27&#45;&gt;Node11 -->
<g id="edge35_Node000027_Node000011" class="edge">
<title>Node27&#45;&gt;Node11</title>
<g id="a_edge35_Node000027_Node000011"><a xlink:title=" ">
<path fill="none" stroke="#63b8ff" d="M459.57,-336.32C395.55,-312.17 261.51,-261.59 213.01,-243.29"/>
<polygon fill="#63b8ff" stroke="#63b8ff" points="458.63,-339.71 469.22,-339.96 461.1,-333.16 458.63,-339.71"/>
</a>
</g>
</g>
<!-- Node27&#45;&gt;Node16 -->
<g id="edge34_Node000027_Node000016" class="edge">
<title>Node27&#45;&gt;Node16</title>
<g id="a_edge34_Node000027_Node000016"><a xlink:title=" ">
<path fill="none" stroke="#63b8ff" d="M483.35,-330.95C463.45,-298.41 421.87,-233.02 400,-217.5 389.29,-209.9 375.39,-205.49 363.51,-202.93"/>
<polygon fill="#63b8ff" stroke="#63b8ff" points="480.6,-333.17 488.78,-339.9 486.58,-329.54 480.6,-333.17"/>
</a>
</g>
</g>
<!-- Node28 -->
<g id="Node000028" class="node">
<title>Node28</title>
<g id="a_Node000028"><a xlink:href="classXCS.html#a8a53a8df81152fbf73e6abcc6a6e56b4" target="_top" xlink:title="Default Constructor.">
<polygon fill="white" stroke="#666666" points="370,-360 305,-360 305,-341 370,-341 370,-360"/>
<text text-anchor="middle" x="337.5" y="-348" font-family="Helvetica,sans-Serif" font-size="10.00">XCS::XCS</text>
</a>
</g>
</g>
<!-- Node27&#45;&gt;Node28 -->
<g id="edge36_Node000027_Node000028" class="edge">
<title>Node27&#45;&gt;Node28</title>
<g id="a_edge36_Node000027_Node000028"><a xlink:title=" ">
<path fill="none" stroke="#63b8ff" d="M458.66,-349.73C431.97,-349.9 395.88,-350.13 370.23,-350.3"/>
<polygon fill="#63b8ff" stroke="#63b8ff" points="458.76,-353.23 468.74,-349.67 458.72,-346.23 458.76,-353.23"/>
</a>
</g>
</g>
<!-- Node30 -->
<g id="Node000030" class="node">
<title>Node30</title>
<g id="a_Node000030"><a xlink:href="classXCS.html#a608a50f998819369d28ef9966d6812ca" target="_top" xlink:title="Constructor.">
<polygon fill="white" stroke="#666666" points="370,-397 305,-397 305,-378 370,-378 370,-397"/>
<text text-anchor="middle" x="337.5" y="-385" font-family="Helvetica,sans-Serif" font-size="10.00">XCS::XCS</text>
</a>
</g>
</g>
<!-- Node27&#45;&gt;Node30 -->
<g id="edge39_Node000027_Node000030" class="edge">
<title>Node27&#45;&gt;Node30</title>
<g id="a_edge39_Node000027_Node000030"><a xlink:title=" ">
<path fill="none" stroke="#63b8ff" d="M459.01,-358.14C432.29,-364.65 395.99,-373.5 370.23,-379.77"/>
<polygon fill="#63b8ff" stroke="#63b8ff" points="459.85,-361.54 468.74,-355.77 458.2,-354.74 459.85,-361.54"/>
</a>
</g>
</g>
<!-- Node29 -->
<g id="Node000029" class="node">
<title>Node29</title>
<g id="a_Node000029"><a xlink:href="classXCS.html#a71b21201e1a2aef16702a2c308eb6683" target="_top" xlink:title="Implements pickle file reading.">
<polygon fill="white" stroke="#666666" points="239,-326 149,-326 149,-307 239,-307 239,-326"/>
<text text-anchor="middle" x="194" y="-314" font-family="Helvetica,sans-Serif" font-size="10.00">XCS::deserialize</text>
</a>
</g>
</g>
<!-- Node28&#45;&gt;Node29 -->
<g id="edge37_Node000028_Node000029" class="edge">
<title>Node28&#45;&gt;Node29</title>
<g id="a_edge37_Node000028_Node000029"><a xlink:title=" ">
<path fill="none" stroke="#63b8ff" d="M294.88,-340.5C275.89,-335.94 253.51,-330.56 234.75,-326.05"/>
<polygon fill="#63b8ff" stroke="#63b8ff" points="294.2,-343.94 304.74,-342.87 295.84,-337.13 294.2,-343.94"/>
</a>
</g>
</g>
<!-- Node29&#45;&gt;Node8 -->
<g id="edge38_Node000029_Node000008" class="edge">
<title>Node29&#45;&gt;Node8</title>
<g id="a_edge38_Node000029_Node000008"><a xlink:title=" ">
<path fill="none" stroke="#63b8ff" d="M138.37,-315.29C130.13,-315.11 121.62,-314.92 113.35,-314.74"/>
<polygon fill="#63b8ff" stroke="#63b8ff" points="138.56,-318.8 148.63,-315.52 138.71,-311.8 138.56,-318.8"/>
</a>
</g>
</g>
<!-- Node31&#45;&gt;Node8 -->
<g id="edge43_Node000031_Node000008" class="edge">
<title>Node31&#45;&gt;Node8</title>
<g id="a_edge43_Node000031_Node000008"><a xlink:title=" ">
<path fill="none" stroke="#63b8ff" d="M291.29,-411.94C285.77,-410.21 280.24,-408.38 275,-406.5 200.78,-379.88 115.55,-340.88 77.57,-323.04"/>
<polygon fill="#63b8ff" stroke="#63b8ff" points="290.56,-415.37 301.14,-414.94 292.59,-408.68 290.56,-415.37"/>
</a>
</g>
</g>
<!-- Node32 -->
<g id="Node000032" class="node">
<title>Node32</title>
<g id="a_Node000032"><a xlink:href="classXCS.html#ad7aade3a334222e010b571f5c7a6bc43" target="_top" xlink:title="Reads classifiers from a JSON file and adds to the population.">
<polygon fill="white" stroke="#666666" points="237,-429 151,-429 151,-410 237,-410 237,-429"/>
<text text-anchor="middle" x="194" y="-417" font-family="Helvetica,sans-Serif" font-size="10.00">XCS::json_read</text>
</a>
</g>
</g>
<!-- Node31&#45;&gt;Node32 -->
<g id="edge41_Node000031_Node000032" class="edge">
<title>Node31&#45;&gt;Node32</title>
<g id="a_edge41_Node000031_Node000032"><a xlink:title=" ">
<path fill="none" stroke="#63b8ff" d="M281.67,-422.56C266.85,-422.04 251.06,-421.48 237.07,-420.99"/>
<polygon fill="#63b8ff" stroke="#63b8ff" points="281.61,-426.06 291.73,-422.92 281.86,-419.07 281.61,-426.06"/>
</a>
</g>
</g>
<!-- Node32&#45;&gt;Node8 -->
<g id="edge42_Node000032_Node000008" class="edge">
<title>Node32&#45;&gt;Node8</title>
<g id="a_edge42_Node000032_Node000008"><a xlink:title=" ">
<path fill="none" stroke="#63b8ff" d="M171.81,-403.81C164.54,-398.37 156.38,-392.21 149,-386.5 120.07,-364.12 86.59,-337.12 69.26,-323.06"/>
<polygon fill="#63b8ff" stroke="#63b8ff" points="169.72,-406.62 179.83,-409.78 173.9,-401 169.72,-406.62"/>
</a>
</g>
</g>
<!-- Node33&#45;&gt;Node8 -->
<g id="edge45_Node000033_Node000008" class="edge">
<title>Node33&#45;&gt;Node8</title>
<g id="a_edge45_Node000033_Node000008"><a xlink:title=" ">
<path fill="none" stroke="#63b8ff" d="M858.77,-456C803.06,-458.88 718.53,-462.5 645,-462.5 645,-462.5 645,-462.5 336.5,-462.5 252.49,-462.5 221.35,-481.2 149,-438.5 101.52,-410.48 71.41,-347.18 61.29,-323.07"/>
<polygon fill="#63b8ff" stroke="#63b8ff" points="859.03,-459.49 868.83,-455.47 858.66,-452.5 859.03,-459.49"/>
</a>
</g>
</g>
</g>
</svg>
