<?xml version="1.0" encoding="UTF-8" standalone="no"?>
<!DOCTYPE svg PUBLIC "-//W3C//DTD SVG 1.1//EN"
 "http://www.w3.org/Graphics/SVG/1.1/DTD/svg11.dtd">
<!-- Generated by graphviz version 2.43.0 (0)
 -->
<!-- Title: cond_ellipsoid_init Pages: 1 -->
<svg width="427pt" height="84pt"
 viewBox="0.00 0.00 427.00 84.00" xmlns="http://www.w3.org/2000/svg" xmlns:xlink="http://www.w3.org/1999/xlink">
<g id="graph0" class="graph" transform="scale(1 1) rotate(0) translate(4 80)">
<title>cond_ellipsoid_init</title>
<!-- Node1 -->
<g id="Node000001" class="node">
<title>Node1</title>
<g id="a_Node000001"><a xlink:title="Creates and initialises a hyperellipsoid condition.">
<polygon fill="#999999" stroke="#666666" points="96,-76 0,-76 0,-57 96,-57 96,-76"/>
<text text-anchor="middle" x="48" y="-64" font-family="Helvetica,sans-Serif" font-size="10.00">cond_ellipsoid_init</text>
</a>
</g>
</g>
<!-- Node2 -->
<g id="Node000002" class="node">
<title>Node2</title>
<g id="a_Node000002"><a xlink:href="utils_8c.html#a972761ba8f47a6c3e7396a7c685158fc" target="_top" xlink:title="Returns a uniform random float [min,max].">
<polygon fill="white" stroke="#666666" points="419,-57 346,-57 346,-38 419,-38 419,-57"/>
<text text-anchor="middle" x="382.5" y="-45" font-family="Helvetica,sans-Serif" font-size="10.00">rand_uniform</text>
</a>
</g>
</g>
<!-- Node1&#45;&gt;Node2 -->
<g id="edge1_Node000001_Node000002" class="edge">
<title>Node1&#45;&gt;Node2</title>
<g id="a_edge1_Node000001_Node000002"><a xlink:title=" ">
<path fill="none" stroke="#63b8ff" d="M96.34,-68.35C148.77,-69.77 235.73,-70.2 310,-61.5 318.4,-60.52 327.28,-59.09 335.83,-57.52"/>
<polygon fill="#63b8ff" stroke="#63b8ff" points="336.5,-60.96 345.66,-55.63 335.18,-54.08 336.5,-60.96"/>
</a>
</g>
</g>
<!-- Node3 -->
<g id="Node000003" class="node">
<title>Node3</title>
<g id="a_Node000003"><a xlink:href="sam_8c.html#a7f7f30716900f06683a74486aca5f5a0" target="_top" xlink:title="Initialises self&#45;adaptive mutation rates.">
<polygon fill="white" stroke="#666666" points="185,-57 132,-57 132,-38 185,-38 185,-57"/>
<text text-anchor="middle" x="158.5" y="-45" font-family="Helvetica,sans-Serif" font-size="10.00">sam_init</text>
</a>
</g>
</g>
<!-- Node1&#45;&gt;Node3 -->
<g id="edge2_Node000001_Node000003" class="edge">
<title>Node1&#45;&gt;Node3</title>
<g id="a_edge2_Node000001_Node000003"><a xlink:title=" ">
<path fill="none" stroke="#63b8ff" d="M96.27,-58.22C104.87,-56.72 113.7,-55.17 121.88,-53.74"/>
<polygon fill="#63b8ff" stroke="#63b8ff" points="122.59,-57.17 131.84,-51.99 121.39,-50.27 122.59,-57.17"/>
</a>
</g>
</g>
<!-- Node3&#45;&gt;Node2 -->
<g id="edge3_Node000003_Node000002" class="edge">
<title>Node3&#45;&gt;Node2</title>
<g id="a_edge3_Node000003_Node000002"><a xlink:title=" ">
<path fill="none" stroke="#63b8ff" d="M185.4,-47.5C222.22,-47.5 290.26,-47.5 335.71,-47.5"/>
<polygon fill="#63b8ff" stroke="#63b8ff" points="335.89,-51 345.89,-47.5 335.89,-44 335.89,-51"/>
</a>
</g>
</g>
<!-- Node4 -->
<g id="Node000004" class="node">
<title>Node4</title>
<g id="a_Node000004"><a xlink:href="utils_8c.html#a5e6304fd9b177f36684d4bb00af49f91" target="_top" xlink:title="Returns a uniform random integer [min,max] not inclusive of max.">
<polygon fill="white" stroke="#666666" points="310,-19 221,-19 221,0 310,0 310,-19"/>
<text text-anchor="middle" x="265.5" y="-7" font-family="Helvetica,sans-Serif" font-size="10.00">rand_uniform_int</text>
</a>
</g>
</g>
<!-- Node3&#45;&gt;Node4 -->
<g id="edge4_Node000003_Node000004" class="edge">
<title>Node3&#45;&gt;Node4</title>
<g id="a_edge4_Node000003_Node000004"><a xlink:title=" ">
<path fill="none" stroke="#63b8ff" d="M185.19,-38.2C198.21,-33.49 214.24,-27.69 228.47,-22.54"/>
<polygon fill="#63b8ff" stroke="#63b8ff" points="229.77,-25.79 237.98,-19.1 227.39,-19.21 229.77,-25.79"/>
</a>
</g>
</g>
<!-- Node4&#45;&gt;Node2 -->
<g id="edge5_Node000004_Node000002" class="edge">
<title>Node4&#45;&gt;Node2</title>
<g id="a_edge5_Node000004_Node000002"><a xlink:title=" ">
<path fill="none" stroke="#63b8ff" d="M295.52,-19.09C309.82,-23.81 327.26,-29.58 342.69,-34.68"/>
<polygon fill="#63b8ff" stroke="#63b8ff" points="341.9,-38.1 352.49,-37.91 344.09,-31.45 341.9,-38.1"/>
</a>
</g>
</g>
</g>
</svg>
