<?xml version="1.0" encoding="UTF-8" standalone="no"?>
<!DOCTYPE svg PUBLIC "-//W3C//DTD SVG 1.1//EN"
 "http://www.w3.org/Graphics/SVG/1.1/DTD/svg11.dtd">
<!-- Generated by graphviz version 2.43.0 (0)
 -->
<!-- Title: cond_neural_match Pages: 1 -->
<svg width="347pt" height="64pt"
 viewBox="0.00 0.00 347.00 64.00" xmlns="http://www.w3.org/2000/svg" xmlns:xlink="http://www.w3.org/1999/xlink">
<g id="graph0" class="graph" transform="scale(1 1) rotate(0) translate(4 60)">
<title>cond_neural_match</title>
<!-- Node1 -->
<g id="Node000001" class="node">
<title>Node1</title>
<g id="a_Node000001"><a xlink:title="Generates a neural network that matches the current input.">
<polygon fill="#999999" stroke="#666666" points="101,-37 0,-37 0,-18 101,-18 101,-37"/>
<text text-anchor="middle" x="50.5" y="-25" font-family="Helvetica,sans-Serif" font-size="10.00">cond_neural_match</text>
</a>
</g>
</g>
<!-- Node2 -->
<g id="Node000002" class="node">
<title>Node2</title>
<g id="a_Node000002"><a xlink:href="neural_8c.html#a700dd0e8ee581681b32f1ffe5c7c709b" target="_top" xlink:title="Returns the output of a specified neuron in the output layer of a neural network.">
<polygon fill="white" stroke="#666666" points="220,-56 145,-56 145,-37 220,-37 220,-56"/>
<text text-anchor="middle" x="182.5" y="-44" font-family="Helvetica,sans-Serif" font-size="10.00">neural_output</text>
</a>
</g>
</g>
<!-- Node1&#45;&gt;Node2 -->
<g id="edge1_Node000001_Node000002" class="edge">
<title>Node1&#45;&gt;Node2</title>
<g id="a_edge1_Node000001_Node000002"><a xlink:title=" ">
<path fill="none" stroke="#63b8ff" d="M101.02,-34.74C112,-36.34 123.61,-38.04 134.49,-39.63"/>
<polygon fill="#63b8ff" stroke="#63b8ff" points="134.25,-43.13 144.66,-41.12 135.27,-36.21 134.25,-43.13"/>
</a>
</g>
</g>
<!-- Node4 -->
<g id="Node000004" class="node">
<title>Node4</title>
<g id="a_Node000004"><a xlink:href="neural_8c.html#ae52d35ca06ded1387949731e1ad3d751" target="_top" xlink:title="Forward propagates a neural network.">
<polygon fill="white" stroke="#666666" points="228,-19 137,-19 137,0 228,0 228,-19"/>
<text text-anchor="middle" x="182.5" y="-7" font-family="Helvetica,sans-Serif" font-size="10.00">neural_propagate</text>
</a>
</g>
</g>
<!-- Node1&#45;&gt;Node4 -->
<g id="edge3_Node000001_Node000004" class="edge">
<title>Node1&#45;&gt;Node4</title>
<g id="a_edge3_Node000001_Node000004"><a xlink:title=" ">
<path fill="none" stroke="#63b8ff" d="M101.02,-20.64C109.48,-19.47 118.31,-18.25 126.89,-17.06"/>
<polygon fill="#63b8ff" stroke="#63b8ff" points="127.38,-20.53 136.81,-15.69 126.42,-13.59 127.38,-20.53"/>
</a>
</g>
</g>
<!-- Node3 -->
<g id="Node000003" class="node">
<title>Node3</title>
<g id="a_Node000003"><a xlink:href="neural__layer_8h.html#a5f745c9f7568146a1b5e0bb37a2666b8" target="_top" xlink:title="Returns the outputs of a layer.">
<polygon fill="white" stroke="#666666" points="336.5,-56 266.5,-56 266.5,-37 336.5,-37 336.5,-56"/>
<text text-anchor="middle" x="301.5" y="-44" font-family="Helvetica,sans-Serif" font-size="10.00">layer_output</text>
</a>
</g>
</g>
<!-- Node2&#45;&gt;Node3 -->
<g id="edge2_Node000002_Node000003" class="edge">
<title>Node2&#45;&gt;Node3</title>
<g id="a_edge2_Node000002_Node000003"><a xlink:title=" ">
<path fill="none" stroke="#63b8ff" d="M220.2,-46.5C231.6,-46.5 244.29,-46.5 256.16,-46.5"/>
<polygon fill="#63b8ff" stroke="#63b8ff" points="256.32,-50 266.32,-46.5 256.32,-43 256.32,-50"/>
</a>
</g>
</g>
<!-- Node4&#45;&gt;Node3 -->
<g id="edge5_Node000004_Node000003" class="edge">
<title>Node4&#45;&gt;Node3</title>
<g id="a_edge5_Node000004_Node000003"><a xlink:title=" ">
<path fill="none" stroke="#63b8ff" d="M213.63,-19.03C227.85,-23.52 245.02,-28.95 260.32,-33.8"/>
<polygon fill="#63b8ff" stroke="#63b8ff" points="259.48,-37.2 270.07,-36.88 261.59,-30.52 259.48,-37.2"/>
</a>
</g>
</g>
<!-- Node5 -->
<g id="Node000005" class="node">
<title>Node5</title>
<g id="a_Node000005"><a xlink:href="neural__layer_8h.html#aabfac5227c61181614f84ebf5e00e462" target="_top" xlink:title="Forward propagates an input through the layer.">
<polygon fill="white" stroke="#666666" points="339,-19 264,-19 264,0 339,0 339,-19"/>
<text text-anchor="middle" x="301.5" y="-7" font-family="Helvetica,sans-Serif" font-size="10.00">layer_forward</text>
</a>
</g>
</g>
<!-- Node4&#45;&gt;Node5 -->
<g id="edge4_Node000004_Node000005" class="edge">
<title>Node4&#45;&gt;Node5</title>
<g id="a_edge4_Node000004_Node000005"><a xlink:title=" ">
<path fill="none" stroke="#63b8ff" d="M228.07,-9.5C236.42,-9.5 245.18,-9.5 253.6,-9.5"/>
<polygon fill="#63b8ff" stroke="#63b8ff" points="253.66,-13 263.66,-9.5 253.66,-6 253.66,-13"/>
</a>
</g>
</g>
</g>
</svg>
