<?xml version="1.0" encoding="UTF-8" standalone="no"?>
<!DOCTYPE svg PUBLIC "-//W3C//DTD SVG 1.1//EN"
 "http://www.w3.org/Graphics/SVG/1.1/DTD/svg11.dtd">
<!-- Generated by graphviz version 2.43.0 (0)
 -->
<!-- Title: cond_rectangle_mutate Pages: 1 -->
<svg width="461pt" height="142pt"
 viewBox="0.00 0.00 461.00 142.00" xmlns="http://www.w3.org/2000/svg" xmlns:xlink="http://www.w3.org/1999/xlink">
<g id="graph0" class="graph" transform="scale(1 1) rotate(0) translate(4 138)">
<title>cond_rectangle_mutate</title>
<!-- Node1 -->
<g id="node1" class="node">
<title>Node1</title>
<g id="a_node1"><a xlink:title=" ">
<polygon fill="#bfbfbf" stroke="black" points="0,-76.5 0,-95.5 118,-95.5 118,-76.5 0,-76.5"/>
<text text-anchor="middle" x="59" y="-83.5" font-family="Helvetica,sans-Serif" font-size="10.00">cond_rectangle_mutate</text>
</a>
</g>
</g>
<!-- Node2 -->
<g id="node2" class="node">
<title>Node2</title>
<g id="a_node2"><a xlink:href="utils_8h.html#a234dd9ca33bcf1fba3e675bc900abc88" target="_top" xlink:title="Returns a float clamped within the specified range.">
<polygon fill="none" stroke="black" points="278,-114.5 278,-133.5 321,-133.5 321,-114.5 278,-114.5"/>
<text text-anchor="middle" x="299.5" y="-121.5" font-family="Helvetica,sans-Serif" font-size="10.00">clamp</text>
</a>
</g>
</g>
<!-- Node1&#45;&gt;Node2 -->
<g id="edge1" class="edge">
<title>Node1&#45;&gt;Node2</title>
<path fill="none" stroke="midnightblue" d="M118.04,-95.25C165.3,-102.78 230.16,-113.11 267.88,-119.12"/>
<polygon fill="midnightblue" stroke="midnightblue" points="267.33,-122.58 277.76,-120.7 268.43,-115.67 267.33,-122.58"/>
</g>
<!-- Node3 -->
<g id="node3" class="node">
<title>Node3</title>
<g id="a_node3"><a xlink:href="utils_8c.html#a6a36d869b4a218a3f55cd19067f62c0f" target="_top" xlink:title="Returns a random Gaussian with specified mean and standard deviation.">
<polygon fill="none" stroke="black" points="264.5,-76.5 264.5,-95.5 334.5,-95.5 334.5,-76.5 264.5,-76.5"/>
<text text-anchor="middle" x="299.5" y="-83.5" font-family="Helvetica,sans-Serif" font-size="10.00">rand_normal</text>
</a>
</g>
</g>
<!-- Node1&#45;&gt;Node3 -->
<g id="edge2" class="edge">
<title>Node1&#45;&gt;Node3</title>
<path fill="none" stroke="midnightblue" d="M118.04,-86C159.88,-86 215.52,-86 253.9,-86"/>
<polygon fill="midnightblue" stroke="midnightblue" points="254.24,-89.5 264.24,-86 254.24,-82.5 254.24,-89.5"/>
</g>
<!-- Node4 -->
<g id="node4" class="node">
<title>Node4</title>
<g id="a_node4"><a xlink:href="sam_8c.html#a8dfbd425ab3513d47726620e94fc861c" target="_top" xlink:title="Self&#45;adapts mutation rates.">
<polygon fill="none" stroke="black" points="154,-38.5 154,-57.5 219,-57.5 219,-38.5 154,-38.5"/>
<text text-anchor="middle" x="186.5" y="-45.5" font-family="Helvetica,sans-Serif" font-size="10.00">sam_adapt</text>
</a>
</g>
</g>
<!-- Node1&#45;&gt;Node4 -->
<g id="edge3" class="edge">
<title>Node1&#45;&gt;Node4</title>
<path fill="none" stroke="midnightblue" d="M91.67,-76.41C107.57,-71.6 127.04,-65.7 144.11,-60.53"/>
<polygon fill="midnightblue" stroke="midnightblue" points="145.28,-63.83 153.84,-57.59 143.26,-57.13 145.28,-63.83"/>
</g>
<!-- Node4&#45;&gt;Node2 -->
<g id="edge4" class="edge">
<title>Node4&#45;&gt;Node2</title>
<path fill="none" stroke="midnightblue" d="M197.3,-57.88C209.83,-70.12 232.6,-91.06 255,-105 259.24,-107.64 263.91,-110.09 268.56,-112.3"/>
<polygon fill="midnightblue" stroke="midnightblue" points="267.4,-115.61 277.96,-116.47 270.24,-109.21 267.4,-115.61"/>
</g>
<!-- Node4&#45;&gt;Node3 -->
<g id="edge5" class="edge">
<title>Node4&#45;&gt;Node3</title>
<path fill="none" stroke="midnightblue" d="M215.51,-57.59C229.18,-62.27 245.83,-67.97 260.62,-73.03"/>
<polygon fill="midnightblue" stroke="midnightblue" points="259.9,-76.49 270.5,-76.41 262.17,-69.86 259.9,-76.49"/>
</g>
<!-- Node5 -->
<g id="node5" class="node">
<title>Node5</title>
<g id="a_node5"><a xlink:href="utils_8c.html#a972761ba8f47a6c3e7396a7c685158fc" target="_top" xlink:title="Returns a uniform random float [min,max].">
<polygon fill="none" stroke="black" points="380,-19.5 380,-38.5 453,-38.5 453,-19.5 380,-19.5"/>
<text text-anchor="middle" x="416.5" y="-26.5" font-family="Helvetica,sans-Serif" font-size="10.00">rand_uniform</text>
</a>
</g>
</g>
<!-- Node4&#45;&gt;Node5 -->
<g id="edge6" class="edge">
<title>Node4&#45;&gt;Node5</title>
<path fill="none" stroke="midnightblue" d="M219.2,-45.36C258.37,-42.09 325.28,-36.52 369.94,-32.8"/>
<polygon fill="midnightblue" stroke="midnightblue" points="370.27,-36.28 379.95,-31.96 369.69,-29.31 370.27,-36.28"/>
</g>
<!-- Node6 -->
<g id="node6" class="node">
<title>Node6</title>
<g id="a_node6"><a xlink:href="utils_8c.html#a5e6304fd9b177f36684d4bb00af49f91" target="_top" xlink:title="Returns a uniform random integer [min,max] not inclusive of max.">
<polygon fill="none" stroke="black" points="255,-0.5 255,-19.5 344,-19.5 344,-0.5 255,-0.5"/>
<text text-anchor="middle" x="299.5" y="-7.5" font-family="Helvetica,sans-Serif" font-size="10.00">rand_uniform_int</text>
</a>
</g>
</g>
<!-- Node4&#45;&gt;Node6 -->
<g id="edge7" class="edge">
<title>Node4&#45;&gt;Node6</title>
<path fill="none" stroke="midnightblue" d="M215.51,-38.41C229.18,-33.73 245.83,-28.03 260.62,-22.97"/>
<polygon fill="midnightblue" stroke="midnightblue" points="262.17,-26.14 270.5,-19.59 259.9,-19.51 262.17,-26.14"/>
</g>
<!-- Node6&#45;&gt;Node5 -->
<g id="edge8" class="edge">
<title>Node6&#45;&gt;Node5</title>
<path fill="none" stroke="midnightblue" d="M344.3,-17.24C352.61,-18.61 361.32,-20.05 369.68,-21.43"/>
<polygon fill="midnightblue" stroke="midnightblue" points="369.22,-24.9 379.66,-23.08 370.36,-18 369.22,-24.9"/>
</g>
</g>
</svg>
