<?xml version="1.0" encoding="UTF-8" standalone="no"?>
<!DOCTYPE svg PUBLIC "-//W3C//DTD SVG 1.1//EN"
 "http://www.w3.org/Graphics/SVG/1.1/DTD/svg11.dtd">
<!-- Generated by graphviz version 2.43.0 (0)
 -->
<!-- Title: cond_neural.c Pages: 1 -->
<svg width="1361pt" height="252pt"
 viewBox="0.00 0.00 1361.00 252.00" xmlns="http://www.w3.org/2000/svg" xmlns:xlink="http://www.w3.org/1999/xlink">
<g id="graph0" class="graph" transform="scale(1 1) rotate(0) translate(4 248)">
<title>cond_neural.c</title>
<!-- Node1 -->
<g id="node1" class="node">
<title>Node1</title>
<g id="a_node1"><a xlink:title="Multi&#45;layer perceptron neural network condition functions.">
<polygon fill="#bfbfbf" stroke="black" points="662,-224.5 662,-243.5 739,-243.5 739,-224.5 662,-224.5"/>
<text text-anchor="middle" x="700.5" y="-231.5" font-family="Helvetica,sans-Serif" font-size="10.00">cond_neural.c</text>
</a>
</g>
</g>
<!-- Node2 -->
<g id="node2" class="node">
<title>Node2</title>
<g id="a_node2"><a xlink:href="cond__neural_8h.html" target="_top" xlink:title="Multi&#45;layer perceptron neural network condition functions.">
<polygon fill="none" stroke="black" points="1094,-168.5 1094,-187.5 1171,-187.5 1171,-168.5 1094,-168.5"/>
<text text-anchor="middle" x="1132.5" y="-175.5" font-family="Helvetica,sans-Serif" font-size="10.00">cond_neural.h</text>
</a>
</g>
</g>
<!-- Node1&#45;&gt;Node2 -->
<g id="edge1" class="edge">
<title>Node1&#45;&gt;Node2</title>
<path fill="none" stroke="midnightblue" d="M739.04,-229.37C806.67,-222.8 951.3,-207.91 1083.84,-188"/>
<polygon fill="midnightblue" stroke="midnightblue" points="1084.4,-191.46 1093.77,-186.5 1083.35,-184.54 1084.4,-191.46"/>
</g>
<!-- Node16 -->
<g id="node16" class="node">
<title>Node16</title>
<g id="a_node16"><a xlink:href="neural__activations_8h.html" target="_top" xlink:title="Neural network activation functions.">
<polygon fill="none" stroke="black" points="1173.5,-112.5 1173.5,-131.5 1277.5,-131.5 1277.5,-112.5 1173.5,-112.5"/>
<text text-anchor="middle" x="1225.5" y="-119.5" font-family="Helvetica,sans-Serif" font-size="10.00">neural_activations.h</text>
</a>
</g>
</g>
<!-- Node1&#45;&gt;Node16 -->
<g id="edge25" class="edge">
<title>Node1&#45;&gt;Node16</title>
<path fill="none" stroke="midnightblue" d="M739.03,-233.5C839.33,-234.16 1105.91,-231.64 1180.5,-188 1198.6,-177.41 1211.12,-156.32 1218.28,-141.02"/>
<polygon fill="midnightblue" stroke="midnightblue" points="1221.61,-142.13 1222.38,-131.56 1215.19,-139.35 1221.61,-142.13"/>
</g>
<!-- Node18 -->
<g id="node18" class="node">
<title>Node18</title>
<g id="a_node18"><a xlink:href="neural__layer__connected_8h.html" target="_top" xlink:title="An implementation of a fully&#45;connected layer of perceptrons.">
<polygon fill="none" stroke="black" points="275.5,-168.5 275.5,-187.5 403.5,-187.5 403.5,-168.5 275.5,-168.5"/>
<text text-anchor="middle" x="339.5" y="-175.5" font-family="Helvetica,sans-Serif" font-size="10.00">neural_layer_connected.h</text>
</a>
</g>
</g>
<!-- Node1&#45;&gt;Node18 -->
<g id="edge26" class="edge">
<title>Node1&#45;&gt;Node18</title>
<path fill="none" stroke="midnightblue" d="M661.87,-227.22C600.98,-218.11 481.9,-200.3 406.76,-189.06"/>
<polygon fill="midnightblue" stroke="midnightblue" points="406.87,-185.54 396.46,-187.52 405.83,-192.46 406.87,-185.54"/>
</g>
<!-- Node19 -->
<g id="node19" class="node">
<title>Node19</title>
<g id="a_node19"><a xlink:href="neural__layer__convolutional_8h.html" target="_top" xlink:title="An implementation of a 2D convolutional layer.">
<polygon fill="none" stroke="black" points="421.5,-168.5 421.5,-187.5 561.5,-187.5 561.5,-168.5 421.5,-168.5"/>
<text text-anchor="middle" x="491.5" y="-175.5" font-family="Helvetica,sans-Serif" font-size="10.00">neural_layer_convolutional.h</text>
</a>
</g>
</g>
<!-- Node1&#45;&gt;Node19 -->
<g id="edge28" class="edge">
<title>Node1&#45;&gt;Node19</title>
<path fill="none" stroke="midnightblue" d="M667.38,-224.44C631.38,-215.14 573.73,-200.25 534.31,-190.06"/>
<polygon fill="midnightblue" stroke="midnightblue" points="535.02,-186.63 524.46,-187.52 533.27,-193.41 535.02,-186.63"/>
</g>
<!-- Node20 -->
<g id="node20" class="node">
<title>Node20</title>
<g id="a_node20"><a xlink:href="neural__layer__dropout_8h.html" target="_top" xlink:title="An implementation of a dropout layer.">
<polygon fill="none" stroke="black" points="580,-168.5 580,-187.5 695,-187.5 695,-168.5 580,-168.5"/>
<text text-anchor="middle" x="637.5" y="-175.5" font-family="Helvetica,sans-Serif" font-size="10.00">neural_layer_dropout.h</text>
</a>
</g>
</g>
<!-- Node1&#45;&gt;Node20 -->
<g id="edge30" class="edge">
<title>Node1&#45;&gt;Node20</title>
<path fill="none" stroke="midnightblue" d="M690.38,-224.32C680.97,-216.26 666.76,-204.08 655.43,-194.37"/>
<polygon fill="midnightblue" stroke="midnightblue" points="657.68,-191.68 647.81,-187.83 653.12,-197 657.68,-191.68"/>
</g>
<!-- Node21 -->
<g id="node21" class="node">
<title>Node21</title>
<g id="a_node21"><a xlink:href="neural__layer__lstm_8h.html" target="_top" xlink:title="An implementation of a long short&#45;term memory layer.">
<polygon fill="none" stroke="black" points="713,-168.5 713,-187.5 814,-187.5 814,-168.5 713,-168.5"/>
<text text-anchor="middle" x="763.5" y="-175.5" font-family="Helvetica,sans-Serif" font-size="10.00">neural_layer_lstm.h</text>
</a>
</g>
</g>
<!-- Node1&#45;&gt;Node21 -->
<g id="edge32" class="edge">
<title>Node1&#45;&gt;Node21</title>
<path fill="none" stroke="midnightblue" d="M710.62,-224.32C720.03,-216.26 734.24,-204.08 745.57,-194.37"/>
<polygon fill="midnightblue" stroke="midnightblue" points="747.88,-197 753.19,-187.83 743.32,-191.68 747.88,-197"/>
</g>
<!-- Node22 -->
<g id="node22" class="node">
<title>Node22</title>
<g id="a_node22"><a xlink:href="neural__layer__maxpool_8h.html" target="_top" xlink:title="An implementation of a 2D maxpooling layer.">
<polygon fill="none" stroke="black" points="832,-168.5 832,-187.5 951,-187.5 951,-168.5 832,-168.5"/>
<text text-anchor="middle" x="891.5" y="-175.5" font-family="Helvetica,sans-Serif" font-size="10.00">neural_layer_maxpool.h</text>
</a>
</g>
</g>
<!-- Node1&#45;&gt;Node22 -->
<g id="edge34" class="edge">
<title>Node1&#45;&gt;Node22</title>
<path fill="none" stroke="midnightblue" d="M730.76,-224.44C763.46,-215.2 815.68,-200.44 851.68,-190.26"/>
<polygon fill="midnightblue" stroke="midnightblue" points="852.71,-193.61 861.38,-187.52 850.8,-186.87 852.71,-193.61"/>
</g>
<!-- Node23 -->
<g id="node23" class="node">
<title>Node23</title>
<g id="a_node23"><a xlink:href="neural__layer__noise_8h.html" target="_top" xlink:title="An implementation of a Gaussian noise adding layer.">
<polygon fill="none" stroke="black" points="969.5,-168.5 969.5,-187.5 1075.5,-187.5 1075.5,-168.5 969.5,-168.5"/>
<text text-anchor="middle" x="1022.5" y="-175.5" font-family="Helvetica,sans-Serif" font-size="10.00">neural_layer_noise.h</text>
</a>
</g>
</g>
<!-- Node1&#45;&gt;Node23 -->
<g id="edge36" class="edge">
<title>Node1&#45;&gt;Node23</title>
<path fill="none" stroke="midnightblue" d="M739.02,-226.54C794.16,-217.29 896.15,-200.19 961.58,-189.22"/>
<polygon fill="midnightblue" stroke="midnightblue" points="962.48,-192.62 971.76,-187.51 961.32,-185.71 962.48,-192.62"/>
</g>
<!-- Node24 -->
<g id="node24" class="node">
<title>Node24</title>
<g id="a_node24"><a xlink:href="neural__layer__recurrent_8h.html" target="_top" xlink:title="An implementation of a recurrent layer of perceptrons.">
<polygon fill="none" stroke="black" points="0,-168.5 0,-187.5 121,-187.5 121,-168.5 0,-168.5"/>
<text text-anchor="middle" x="60.5" y="-175.5" font-family="Helvetica,sans-Serif" font-size="10.00">neural_layer_recurrent.h</text>
</a>
</g>
</g>
<!-- Node1&#45;&gt;Node24 -->
<g id="edge38" class="edge">
<title>Node1&#45;&gt;Node24</title>
<path fill="none" stroke="midnightblue" d="M661.74,-230.6C571.02,-224.84 337.63,-209.2 131.3,-188.03"/>
<polygon fill="midnightblue" stroke="midnightblue" points="131.49,-184.53 121.19,-186.99 130.77,-191.5 131.49,-184.53"/>
</g>
<!-- Node25 -->
<g id="node25" class="node">
<title>Node25</title>
<g id="a_node25"><a xlink:href="neural__layer__softmax_8h.html" target="_top" xlink:title="An implementation of a softmax layer.">
<polygon fill="none" stroke="black" points="139.5,-168.5 139.5,-187.5 257.5,-187.5 257.5,-168.5 139.5,-168.5"/>
<text text-anchor="middle" x="198.5" y="-175.5" font-family="Helvetica,sans-Serif" font-size="10.00">neural_layer_softmax.h</text>
</a>
</g>
</g>
<!-- Node1&#45;&gt;Node25 -->
<g id="edge40" class="edge">
<title>Node1&#45;&gt;Node25</title>
<path fill="none" stroke="midnightblue" d="M661.85,-229.36C587.61,-222.3 419.68,-205.92 267.8,-188.13"/>
<polygon fill="midnightblue" stroke="midnightblue" points="268.17,-184.64 257.83,-186.95 267.35,-191.6 268.17,-184.64"/>
</g>
<!-- Node3 -->
<g id="node3" class="node">
<title>Node3</title>
<g id="a_node3"><a xlink:href="condition_8h.html" target="_top" xlink:title="Interface for classifier conditions.">
<polygon fill="none" stroke="black" points="1091.5,-112.5 1091.5,-131.5 1155.5,-131.5 1155.5,-112.5 1091.5,-112.5"/>
<text text-anchor="middle" x="1123.5" y="-119.5" font-family="Helvetica,sans-Serif" font-size="10.00">condition.h</text>
</a>
</g>
</g>
<!-- Node2&#45;&gt;Node3 -->
<g id="edge2" class="edge">
<title>Node2&#45;&gt;Node3</title>
<path fill="none" stroke="midnightblue" d="M1131.01,-168.08C1129.82,-160.93 1128.11,-150.64 1126.62,-141.69"/>
<polygon fill="midnightblue" stroke="midnightblue" points="1130.05,-141.04 1124.96,-131.75 1123.15,-142.19 1130.05,-141.04"/>
</g>
<!-- Node4 -->
<g id="node4" class="node">
<title>Node4</title>
<g id="a_node4"><a xlink:href="xcsf_8h.html" target="_top" xlink:title="XCSF data structures.">
<polygon fill="none" stroke="black" points="1041.5,-56.5 1041.5,-75.5 1085.5,-75.5 1085.5,-56.5 1041.5,-56.5"/>
<text text-anchor="middle" x="1063.5" y="-63.5" font-family="Helvetica,sans-Serif" font-size="10.00">xcsf.h</text>
</a>
</g>
</g>
<!-- Node2&#45;&gt;Node4 -->
<g id="edge24" class="edge">
<title>Node2&#45;&gt;Node4</title>
<path fill="none" stroke="midnightblue" d="M1119.13,-168.19C1107.8,-160.08 1091.95,-147.03 1082.5,-132 1073.6,-117.85 1068.73,-99.36 1066.15,-85.73"/>
<polygon fill="midnightblue" stroke="midnightblue" points="1069.57,-84.91 1064.49,-75.61 1062.66,-86.05 1069.57,-84.91"/>
</g>
<!-- Node15 -->
<g id="node15" class="node">
<title>Node15</title>
<g id="a_node15"><a xlink:href="neural_8h.html" target="_top" xlink:title="An implementation of a multi&#45;layer perceptron neural network.">
<polygon fill="none" stroke="black" points="824,-56.5 824,-75.5 875,-75.5 875,-56.5 824,-56.5"/>
<text text-anchor="middle" x="849.5" y="-63.5" font-family="Helvetica,sans-Serif" font-size="10.00">neural.h</text>
</a>
</g>
</g>
<!-- Node2&#45;&gt;Node15 -->
<g id="edge14" class="edge">
<title>Node2&#45;&gt;Node15</title>
<path fill="none" stroke="midnightblue" d="M1110.29,-168.37C1060.28,-148.93 938.71,-101.67 880.96,-79.23"/>
<polygon fill="midnightblue" stroke="midnightblue" points="882.19,-75.95 871.6,-75.59 879.66,-82.48 882.19,-75.95"/>
</g>
<!-- Node2&#45;&gt;Node16 -->
<g id="edge20" class="edge">
<title>Node2&#45;&gt;Node16</title>
<path fill="none" stroke="midnightblue" d="M1147.44,-168.32C1162.09,-159.82 1184.63,-146.73 1201.74,-136.8"/>
<polygon fill="midnightblue" stroke="midnightblue" points="1203.7,-139.7 1210.6,-131.65 1200.19,-133.65 1203.7,-139.7"/>
</g>
<!-- Node17 -->
<g id="node17" class="node">
<title>Node17</title>
<g id="a_node17"><a xlink:href="neural__layer_8h.html" target="_top" xlink:title="Interface for neural network layers.">
<polygon fill="none" stroke="black" points="662,-112.5 662,-131.5 739,-131.5 739,-112.5 662,-112.5"/>
<text text-anchor="middle" x="700.5" y="-119.5" font-family="Helvetica,sans-Serif" font-size="10.00">neural_layer.h</text>
</a>
</g>
</g>
<!-- Node2&#45;&gt;Node17 -->
<g id="edge22" class="edge">
<title>Node2&#45;&gt;Node17</title>
<path fill="none" stroke="midnightblue" d="M1093.77,-169.5C1090.64,-168.97 1087.52,-168.46 1084.5,-168 964.49,-149.74 822.39,-134.82 749.31,-127.64"/>
<polygon fill="midnightblue" stroke="midnightblue" points="749.34,-124.12 739.04,-126.63 748.65,-131.09 749.34,-124.12"/>
</g>
<!-- Node3&#45;&gt;Node4 -->
<g id="edge3" class="edge">
<title>Node3&#45;&gt;Node4</title>
<path fill="none" stroke="midnightblue" d="M1113.86,-112.32C1104.99,-104.34 1091.63,-92.31 1080.89,-82.65"/>
<polygon fill="midnightblue" stroke="midnightblue" points="1083.09,-79.92 1073.32,-75.83 1078.41,-85.13 1083.09,-79.92"/>
</g>
<!-- Node5 -->
<g id="node5" class="node">
<title>Node5</title>
<g id="a_node5"><a xlink:title=" ">
<polygon fill="none" stroke="#bfbfbf" points="1178,-0.5 1178,-19.5 1225,-19.5 1225,-0.5 1178,-0.5"/>
<text text-anchor="middle" x="1201.5" y="-7.5" font-family="Helvetica,sans-Serif" font-size="10.00">errno.h</text>
</a>
</g>
</g>
<!-- Node4&#45;&gt;Node5 -->
<g id="edge4" class="edge">
<title>Node4&#45;&gt;Node5</title>
<path fill="none" stroke="midnightblue" d="M1085.37,-56.44C1108.28,-47.48 1144.48,-33.31 1170.37,-23.18"/>
<polygon fill="midnightblue" stroke="midnightblue" points="1171.7,-26.42 1179.74,-19.52 1169.15,-19.9 1171.7,-26.42"/>
</g>
<!-- Node6 -->
<g id="node6" class="node">
<title>Node6</title>
<g id="a_node6"><a xlink:title=" ">
<polygon fill="none" stroke="#bfbfbf" points="1243.5,-0.5 1243.5,-19.5 1287.5,-19.5 1287.5,-0.5 1243.5,-0.5"/>
<text text-anchor="middle" x="1265.5" y="-7.5" font-family="Helvetica,sans-Serif" font-size="10.00">float.h</text>
</a>
</g>
</g>
<!-- Node4&#45;&gt;Node6 -->
<g id="edge5" class="edge">
<title>Node4&#45;&gt;Node6</title>
<path fill="none" stroke="midnightblue" d="M1085.68,-59.35C1116.62,-51.44 1174.69,-36.43 1233.37,-20.27"/>
<polygon fill="midnightblue" stroke="midnightblue" points="1234.46,-23.59 1243.17,-17.56 1232.6,-16.85 1234.46,-23.59"/>
</g>
<!-- Node7 -->
<g id="node7" class="node">
<title>Node7</title>
<g id="a_node7"><a xlink:title=" ">
<polygon fill="none" stroke="#bfbfbf" points="1034,-0.5 1034,-19.5 1093,-19.5 1093,-0.5 1034,-0.5"/>
<text text-anchor="middle" x="1063.5" y="-7.5" font-family="Helvetica,sans-Serif" font-size="10.00">inttypes.h</text>
</a>
</g>
</g>
<!-- Node4&#45;&gt;Node7 -->
<g id="edge6" class="edge">
<title>Node4&#45;&gt;Node7</title>
<path fill="none" stroke="midnightblue" d="M1063.5,-56.08C1063.5,-49.01 1063.5,-38.86 1063.5,-29.99"/>
<polygon fill="midnightblue" stroke="midnightblue" points="1067,-29.75 1063.5,-19.75 1060,-29.75 1067,-29.75"/>
</g>
<!-- Node8 -->
<g id="node8" class="node">
<title>Node8</title>
<g id="a_node8"><a xlink:title=" ">
<polygon fill="none" stroke="#bfbfbf" points="1111.5,-0.5 1111.5,-19.5 1159.5,-19.5 1159.5,-0.5 1111.5,-0.5"/>
<text text-anchor="middle" x="1135.5" y="-7.5" font-family="Helvetica,sans-Serif" font-size="10.00">limits.h</text>
</a>
</g>
</g>
<!-- Node4&#45;&gt;Node8 -->
<g id="edge7" class="edge">
<title>Node4&#45;&gt;Node8</title>
<path fill="none" stroke="midnightblue" d="M1075.07,-56.32C1085.92,-48.18 1102.38,-35.84 1115.38,-26.09"/>
<polygon fill="midnightblue" stroke="midnightblue" points="1117.82,-28.63 1123.72,-19.83 1113.62,-23.03 1117.82,-28.63"/>
</g>
<!-- Node9 -->
<g id="node9" class="node">
<title>Node9</title>
<g id="a_node9"><a xlink:title=" ">
<polygon fill="none" stroke="#bfbfbf" points="1306,-0.5 1306,-19.5 1353,-19.5 1353,-0.5 1306,-0.5"/>
<text text-anchor="middle" x="1329.5" y="-7.5" font-family="Helvetica,sans-Serif" font-size="10.00">math.h</text>
</a>
</g>
</g>
<!-- Node4&#45;&gt;Node9 -->
<g id="edge8" class="edge">
<title>Node4&#45;&gt;Node9</title>
<path fill="none" stroke="midnightblue" d="M1085.79,-61.27C1125.81,-54.46 1212.7,-39.1 1295.9,-19.99"/>
<polygon fill="midnightblue" stroke="midnightblue" points="1296.81,-23.37 1305.76,-17.7 1295.23,-16.55 1296.81,-23.37"/>
</g>
<!-- Node10 -->
<g id="node10" class="node">
<title>Node10</title>
<g id="a_node10"><a xlink:title=" ">
<polygon fill="none" stroke="#bfbfbf" points="959.5,-0.5 959.5,-19.5 1015.5,-19.5 1015.5,-0.5 959.5,-0.5"/>
<text text-anchor="middle" x="987.5" y="-7.5" font-family="Helvetica,sans-Serif" font-size="10.00">stdbool.h</text>
</a>
</g>
</g>
<!-- Node4&#45;&gt;Node10 -->
<g id="edge9" class="edge">
<title>Node4&#45;&gt;Node10</title>
<path fill="none" stroke="midnightblue" d="M1051.29,-56.32C1039.72,-48.11 1022.12,-35.6 1008.34,-25.81"/>
<polygon fill="midnightblue" stroke="midnightblue" points="1010.11,-22.77 999.93,-19.83 1006.06,-28.48 1010.11,-22.77"/>
</g>
<!-- Node11 -->
<g id="node11" class="node">
<title>Node11</title>
<g id="a_node11"><a xlink:title=" ">
<polygon fill="none" stroke="#bfbfbf" points="694,-0.5 694,-19.5 743,-19.5 743,-0.5 694,-0.5"/>
<text text-anchor="middle" x="718.5" y="-7.5" font-family="Helvetica,sans-Serif" font-size="10.00">stdint.h</text>
</a>
</g>
</g>
<!-- Node4&#45;&gt;Node11 -->
<g id="edge10" class="edge">
<title>Node4&#45;&gt;Node11</title>
<path fill="none" stroke="midnightblue" d="M1041.48,-62.7C991.84,-57.32 867.27,-42.77 753.25,-19.94"/>
<polygon fill="midnightblue" stroke="midnightblue" points="753.8,-16.48 743.3,-17.92 752.41,-23.34 753.8,-16.48"/>
</g>
<!-- Node12 -->
<g id="node12" class="node">
<title>Node12</title>
<g id="a_node12"><a xlink:title=" ">
<polygon fill="none" stroke="#bfbfbf" points="761.5,-0.5 761.5,-19.5 807.5,-19.5 807.5,-0.5 761.5,-0.5"/>
<text text-anchor="middle" x="784.5" y="-7.5" font-family="Helvetica,sans-Serif" font-size="10.00">stdio.h</text>
</a>
</g>
</g>
<!-- Node4&#45;&gt;Node12 -->
<g id="edge11" class="edge">
<title>Node4&#45;&gt;Node12</title>
<path fill="none" stroke="midnightblue" d="M1041.22,-61.66C999.31,-55.23 905.76,-40.14 817.42,-20.03"/>
<polygon fill="midnightblue" stroke="midnightblue" points="818.04,-16.58 807.51,-17.75 816.46,-23.4 818.04,-16.58"/>
</g>
<!-- Node13 -->
<g id="node13" class="node">
<title>Node13</title>
<g id="a_node13"><a xlink:title=" ">
<polygon fill="none" stroke="#bfbfbf" points="825.5,-0.5 825.5,-19.5 873.5,-19.5 873.5,-0.5 825.5,-0.5"/>
<text text-anchor="middle" x="849.5" y="-7.5" font-family="Helvetica,sans-Serif" font-size="10.00">stdlib.h</text>
</a>
</g>
</g>
<!-- Node4&#45;&gt;Node13 -->
<g id="edge12" class="edge">
<title>Node4&#45;&gt;Node13</title>
<path fill="none" stroke="midnightblue" d="M1041.45,-59.69C1008.99,-51.83 946.21,-36.5 883.32,-20.17"/>
<polygon fill="midnightblue" stroke="midnightblue" points="884.19,-16.78 873.63,-17.65 882.43,-23.56 884.19,-16.78"/>
</g>
<!-- Node14 -->
<g id="node14" class="node">
<title>Node14</title>
<g id="a_node14"><a xlink:title=" ">
<polygon fill="none" stroke="#bfbfbf" points="892,-0.5 892,-19.5 941,-19.5 941,-0.5 892,-0.5"/>
<text text-anchor="middle" x="916.5" y="-7.5" font-family="Helvetica,sans-Serif" font-size="10.00">string.h</text>
</a>
</g>
</g>
<!-- Node4&#45;&gt;Node14 -->
<g id="edge13" class="edge">
<title>Node4&#45;&gt;Node14</title>
<path fill="none" stroke="midnightblue" d="M1041.49,-56.92C1017.13,-47.97 977.61,-33.45 949.53,-23.13"/>
<polygon fill="midnightblue" stroke="midnightblue" points="950.71,-19.84 940.12,-19.68 948.3,-26.41 950.71,-19.84"/>
</g>
<!-- Node15&#45;&gt;Node10 -->
<g id="edge15" class="edge">
<title>Node15&#45;&gt;Node10</title>
<path fill="none" stroke="midnightblue" d="M871.37,-56.44C894.28,-47.48 930.48,-33.31 956.37,-23.18"/>
<polygon fill="midnightblue" stroke="midnightblue" points="957.7,-26.42 965.74,-19.52 955.15,-19.9 957.7,-26.42"/>
</g>
<!-- Node15&#45;&gt;Node11 -->
<g id="edge16" class="edge">
<title>Node15&#45;&gt;Node11</title>
<path fill="none" stroke="midnightblue" d="M828.74,-56.44C807.18,-47.56 773.24,-33.56 748.71,-23.45"/>
<polygon fill="midnightblue" stroke="midnightblue" points="749.74,-20.09 739.16,-19.52 747.07,-26.56 749.74,-20.09"/>
</g>
<!-- Node15&#45;&gt;Node12 -->
<g id="edge17" class="edge">
<title>Node15&#45;&gt;Node12</title>
<path fill="none" stroke="midnightblue" d="M839.06,-56.32C829.35,-48.26 814.68,-36.08 803,-26.37"/>
<polygon fill="midnightblue" stroke="midnightblue" points="805.06,-23.53 795.13,-19.83 800.59,-28.92 805.06,-23.53"/>
</g>
<!-- Node15&#45;&gt;Node13 -->
<g id="edge18" class="edge">
<title>Node15&#45;&gt;Node13</title>
<path fill="none" stroke="midnightblue" d="M849.5,-56.08C849.5,-49.01 849.5,-38.86 849.5,-29.99"/>
<polygon fill="midnightblue" stroke="midnightblue" points="853,-29.75 849.5,-19.75 846,-29.75 853,-29.75"/>
</g>
<!-- Node15&#45;&gt;Node14 -->
<g id="edge19" class="edge">
<title>Node15&#45;&gt;Node14</title>
<path fill="none" stroke="midnightblue" d="M860.26,-56.32C870.27,-48.26 885.39,-36.08 897.43,-26.37"/>
<polygon fill="midnightblue" stroke="midnightblue" points="899.95,-28.83 905.54,-19.83 895.56,-23.38 899.95,-28.83"/>
</g>
<!-- Node16&#45;&gt;Node9 -->
<g id="edge21" class="edge">
<title>Node16&#45;&gt;Node9</title>
<path fill="none" stroke="midnightblue" d="M1233.66,-112.37C1251.05,-93.97 1291.99,-50.67 1314.32,-27.05"/>
<polygon fill="midnightblue" stroke="midnightblue" points="1317.05,-29.26 1321.38,-19.59 1311.96,-24.45 1317.05,-29.26"/>
</g>
<!-- Node17&#45;&gt;Node15 -->
<g id="edge23" class="edge">
<title>Node17&#45;&gt;Node15</title>
<path fill="none" stroke="midnightblue" d="M724.11,-112.44C748.96,-103.44 788.27,-89.19 816.25,-79.05"/>
<polygon fill="midnightblue" stroke="midnightblue" points="817.79,-82.21 826,-75.52 815.41,-75.63 817.79,-82.21"/>
</g>
<!-- Node18&#45;&gt;Node17 -->
<g id="edge27" class="edge">
<title>Node18&#45;&gt;Node17</title>
<path fill="none" stroke="midnightblue" d="M396.7,-168.44C467.09,-157.91 585.41,-140.22 651.7,-130.3"/>
<polygon fill="midnightblue" stroke="midnightblue" points="652.51,-133.72 661.88,-128.78 651.47,-126.79 652.51,-133.72"/>
</g>
<!-- Node19&#45;&gt;Node17 -->
<g id="edge29" class="edge">
<title>Node19&#45;&gt;Node17</title>
<path fill="none" stroke="midnightblue" d="M524.62,-168.44C560.62,-159.14 618.27,-144.25 657.69,-134.06"/>
<polygon fill="midnightblue" stroke="midnightblue" points="658.73,-137.41 667.54,-131.52 656.98,-130.63 658.73,-137.41"/>
</g>
<!-- Node20&#45;&gt;Node17 -->
<g id="edge31" class="edge">
<title>Node20&#45;&gt;Node17</title>
<path fill="none" stroke="midnightblue" d="M647.62,-168.32C657.03,-160.26 671.24,-148.08 682.57,-138.37"/>
<polygon fill="midnightblue" stroke="midnightblue" points="684.88,-141 690.19,-131.83 680.32,-135.68 684.88,-141"/>
</g>
<!-- Node21&#45;&gt;Node17 -->
<g id="edge33" class="edge">
<title>Node21&#45;&gt;Node17</title>
<path fill="none" stroke="midnightblue" d="M753.38,-168.32C743.97,-160.26 729.76,-148.08 718.43,-138.37"/>
<polygon fill="midnightblue" stroke="midnightblue" points="720.68,-135.68 710.81,-131.83 716.12,-141 720.68,-135.68"/>
</g>
<!-- Node22&#45;&gt;Node17 -->
<g id="edge35" class="edge">
<title>Node22&#45;&gt;Node17</title>
<path fill="none" stroke="midnightblue" d="M861.24,-168.44C828.54,-159.2 776.32,-144.44 740.32,-134.26"/>
<polygon fill="midnightblue" stroke="midnightblue" points="741.2,-130.87 730.62,-131.52 739.29,-137.61 741.2,-130.87"/>
</g>
<!-- Node23&#45;&gt;Node17 -->
<g id="edge37" class="edge">
<title>Node23&#45;&gt;Node17</title>
<path fill="none" stroke="midnightblue" d="M971.48,-168.44C910.46,-158.21 809.07,-141.21 749.13,-131.15"/>
<polygon fill="midnightblue" stroke="midnightblue" points="749.6,-127.68 739.16,-129.48 748.44,-134.59 749.6,-127.68"/>
</g>
<!-- Node24&#45;&gt;Node17 -->
<g id="edge39" class="edge">
<title>Node24&#45;&gt;Node17</title>
<path fill="none" stroke="midnightblue" d="M121.19,-169.01C124.33,-168.66 127.45,-168.32 130.5,-168 322.94,-148.05 552.74,-132.39 651.47,-126.06"/>
<polygon fill="midnightblue" stroke="midnightblue" points="651.98,-129.53 661.74,-125.4 651.53,-122.55 651.98,-129.53"/>
</g>
<!-- Node25&#45;&gt;Node17 -->
<g id="edge41" class="edge">
<title>Node25&#45;&gt;Node17</title>
<path fill="none" stroke="midnightblue" d="M257.83,-169.05C260.76,-168.69 263.66,-168.33 266.5,-168 405.99,-151.54 571.1,-135.32 651.54,-127.62"/>
<polygon fill="midnightblue" stroke="midnightblue" points="652.23,-131.07 661.85,-126.64 651.56,-124.1 652.23,-131.07"/>
</g>
</g>
</svg>
