<?xml version="1.0" encoding="UTF-8" standalone="no"?>
<!DOCTYPE svg PUBLIC "-//W3C//DTD SVG 1.1//EN"
 "http://www.w3.org/Graphics/SVG/1.1/DTD/svg11.dtd">
<!-- Generated by graphviz version 2.43.0 (0)
 -->
<!-- Title: cond_ternary.h Pages: 1 -->
<svg width="170pt" height="84pt"
 viewBox="0.00 0.00 170.00 84.00" xmlns="http://www.w3.org/2000/svg" xmlns:xlink="http://www.w3.org/1999/xlink">
<g id="graph0" class="graph" transform="scale(1 1) rotate(0) translate(4 80)">
<title>cond_ternary.h</title>
<!-- Node1 -->
<g id="node1" class="node">
<title>Node1</title>
<g id="a_node1"><a xlink:title="Ternary condition functions.">
<polygon fill="#bfbfbf" stroke="black" points="45,-56.5 45,-75.5 125,-75.5 125,-56.5 45,-56.5"/>
<text text-anchor="middle" x="85" y="-63.5" font-family="Helvetica,sans-Serif" font-size="10.00">cond_ternary.h</text>
</a>
</g>
</g>
<!-- Node2 -->
<g id="node2" class="node">
<title>Node2</title>
<g id="a_node2"><a xlink:href="cond__ternary_8c.html" target="_top" xlink:title="Ternary condition functions.">
<polygon fill="none" stroke="black" points="0,-0.5 0,-19.5 80,-19.5 80,-0.5 0,-0.5"/>
<text text-anchor="middle" x="40" y="-7.5" font-family="Helvetica,sans-Serif" font-size="10.00">cond_ternary.c</text>
</a>
</g>
</g>
<!-- Node1&#45;&gt;Node2 -->
<g id="edge1" class="edge">
<title>Node1&#45;&gt;Node2</title>
<path fill="none" stroke="midnightblue" d="M70.95,-48.14C63.11,-38.74 53.67,-27.4 47.29,-19.75"/>
<polygon fill="midnightblue" stroke="midnightblue" points="68.48,-50.64 77.57,-56.08 73.86,-46.16 68.48,-50.64"/>
</g>
<!-- Node3 -->
<g id="node3" class="node">
<title>Node3</title>
<g id="a_node3"><a xlink:href="condition_8c.html" target="_top" xlink:title="Interface for classifier conditions.">
<polygon fill="none" stroke="black" points="98,-0.5 98,-19.5 162,-19.5 162,-0.5 98,-0.5"/>
<text text-anchor="middle" x="130" y="-7.5" font-family="Helvetica,sans-Serif" font-size="10.00">condition.c</text>
</a>
</g>
</g>
<!-- Node1&#45;&gt;Node3 -->
<g id="edge2" class="edge">
<title>Node1&#45;&gt;Node3</title>
<path fill="none" stroke="midnightblue" d="M99.05,-48.14C106.89,-38.74 116.33,-27.4 122.71,-19.75"/>
<polygon fill="midnightblue" stroke="midnightblue" points="96.14,-46.16 92.43,-56.08 101.52,-50.64 96.14,-46.16"/>
</g>
</g>
</svg>
