<?xml version="1.0" encoding="UTF-8" standalone="no"?>
<!DOCTYPE svg PUBLIC "-//W3C//DTD SVG 1.1//EN"
 "http://www.w3.org/Graphics/SVG/1.1/DTD/svg11.dtd">
<!-- Generated by graphviz version 2.43.0 (0)
 -->
<!-- Title: cond_param_set_type_string Pages: 1 -->
<svg width="614pt" height="66pt"
 viewBox="0.00 0.00 614.00 66.00" xmlns="http://www.w3.org/2000/svg" xmlns:xlink="http://www.w3.org/1999/xlink">
<g id="graph0" class="graph" transform="scale(1 1) rotate(0) translate(4 62)">
<title>cond_param_set_type_string</title>
<!-- Node1 -->
<g id="node1" class="node">
<title>Node1</title>
<g id="a_node1"><a xlink:title=" ">
<polygon fill="#bfbfbf" stroke="black" points="493,-14 493,-44 606,-44 606,-14 493,-14"/>
<text text-anchor="start" x="501" y="-32" font-family="Helvetica,sans-Serif" font-size="10.00">cond_param_set_type</text>
<text text-anchor="middle" x="549.5" y="-21" font-family="Helvetica,sans-Serif" font-size="10.00">_string</text>
</a>
</g>
</g>
<!-- Node2 -->
<g id="node2" class="node">
<title>Node2</title>
<g id="a_node2"><a xlink:href="param_8c.html#a94f5495282a36944cade334e52c3c5cd" target="_top" xlink:title="Sets the condition parameters from a json formatted string.">
<polygon fill="none" stroke="black" points="314,-38.5 314,-57.5 457,-57.5 457,-38.5 314,-38.5"/>
<text text-anchor="middle" x="385.5" y="-45.5" font-family="Helvetica,sans-Serif" font-size="10.00">param_json_import_condition</text>
</a>
</g>
</g>
<!-- Node1&#45;&gt;Node2 -->
<g id="edge1" class="edge">
<title>Node1&#45;&gt;Node2</title>
<path fill="none" stroke="midnightblue" d="M482.67,-36.72C474.29,-37.7 465.68,-38.71 457.23,-39.7"/>
<polygon fill="midnightblue" stroke="midnightblue" points="483.22,-40.18 492.75,-35.54 482.41,-33.23 483.22,-40.18"/>
</g>
<!-- Node6 -->
<g id="node6" class="node">
<title>Node6</title>
<g id="a_node6"><a xlink:href="classXCS.html#a3983bb0db5f57917ea83af2b10489d3b" target="_top" xlink:title="Sets the condition type.">
<polygon fill="none" stroke="black" points="335,-0.5 335,-19.5 436,-19.5 436,-0.5 335,-0.5"/>
<text text-anchor="middle" x="385.5" y="-7.5" font-family="Helvetica,sans-Serif" font-size="10.00">XCS::set_condition</text>
</a>
</g>
</g>
<!-- Node1&#45;&gt;Node6 -->
<g id="edge5" class="edge">
<title>Node1&#45;&gt;Node6</title>
<path fill="none" stroke="midnightblue" d="M482.67,-21.28C467.13,-19.46 450.81,-17.54 436.12,-15.82"/>
<polygon fill="midnightblue" stroke="midnightblue" points="482.41,-24.77 492.75,-22.46 483.22,-17.82 482.41,-24.77"/>
</g>
<!-- Node3 -->
<g id="node3" class="node">
<title>Node3</title>
<g id="a_node3"><a xlink:href="param_8c.html#a130260988988535419aee8abe51986c1" target="_top" xlink:title="Sets the parameters from a json formatted string.">
<polygon fill="none" stroke="black" points="178,-38.5 178,-57.5 277,-57.5 277,-38.5 178,-38.5"/>
<text text-anchor="middle" x="227.5" y="-45.5" font-family="Helvetica,sans-Serif" font-size="10.00">param_json_import</text>
</a>
</g>
</g>
<!-- Node2&#45;&gt;Node3 -->
<g id="edge2" class="edge">
<title>Node2&#45;&gt;Node3</title>
<path fill="none" stroke="midnightblue" d="M303.59,-48C294.54,-48 285.54,-48 277.08,-48"/>
<polygon fill="midnightblue" stroke="midnightblue" points="303.8,-51.5 313.8,-48 303.8,-44.5 303.8,-51.5"/>
</g>
<!-- Node4 -->
<g id="node4" class="node">
<title>Node4</title>
<g id="a_node4"><a xlink:href="config_8c.html#a045a64a30d99a4bef2ebfd9b54aa9698" target="_top" xlink:title="Reads the specified configuration file.">
<polygon fill="none" stroke="black" points="74,-38.5 74,-57.5 141,-57.5 141,-38.5 74,-38.5"/>
<text text-anchor="middle" x="107.5" y="-45.5" font-family="Helvetica,sans-Serif" font-size="10.00">config_read</text>
</a>
</g>
</g>
<!-- Node3&#45;&gt;Node4 -->
<g id="edge3" class="edge">
<title>Node3&#45;&gt;Node4</title>
<path fill="none" stroke="midnightblue" d="M167.63,-48C158.55,-48 149.48,-48 141.25,-48"/>
<polygon fill="midnightblue" stroke="midnightblue" points="167.82,-51.5 177.82,-48 167.82,-44.5 167.82,-51.5"/>
</g>
<!-- Node5 -->
<g id="node5" class="node">
<title>Node5</title>
<g id="a_node5"><a xlink:href="main_8c.html#a3c04138a5bfe5d72780bb7e82a18e627" target="_top" xlink:title=" ">
<polygon fill="none" stroke="black" points="0,-38.5 0,-57.5 38,-57.5 38,-38.5 0,-38.5"/>
<text text-anchor="middle" x="19" y="-45.5" font-family="Helvetica,sans-Serif" font-size="10.00">main</text>
</a>
</g>
</g>
<!-- Node4&#45;&gt;Node5 -->
<g id="edge4" class="edge">
<title>Node4&#45;&gt;Node5</title>
<path fill="none" stroke="midnightblue" d="M63.73,-48C54.73,-48 45.7,-48 38.2,-48"/>
<polygon fill="midnightblue" stroke="midnightblue" points="63.8,-51.5 73.8,-48 63.8,-44.5 63.8,-51.5"/>
</g>
<!-- Node7 -->
<g id="node7" class="node">
<title>Node7</title>
<g id="a_node7"><a xlink:href="classXCS.html#ab16720d21296ba0832318f67e55522e3" target="_top" xlink:title="Sets the condition type and initialisation arguments.">
<polygon fill="none" stroke="black" points="177,-0.5 177,-19.5 278,-19.5 278,-0.5 177,-0.5"/>
<text text-anchor="middle" x="227.5" y="-7.5" font-family="Helvetica,sans-Serif" font-size="10.00">XCS::set_condition</text>
</a>
</g>
</g>
<!-- Node6&#45;&gt;Node7 -->
<g id="edge6" class="edge">
<title>Node6&#45;&gt;Node7</title>
<path fill="none" stroke="midnightblue" d="M324.31,-10C309.03,-10 292.78,-10 278.08,-10"/>
<polygon fill="midnightblue" stroke="midnightblue" points="324.71,-13.5 334.71,-10 324.71,-6.5 324.71,-13.5"/>
</g>
</g>
</svg>
