<?xml version="1.0" encoding="UTF-8" standalone="no"?>
<!DOCTYPE svg PUBLIC "-//W3C//DTD SVG 1.1//EN"
 "http://www.w3.org/Graphics/SVG/1.1/DTD/svg11.dtd">
<!-- Generated by graphviz version 2.43.0 (0)
 -->
<!-- Title: cond_rectangle.h Pages: 1 -->
<svg width="876pt" height="252pt"
 viewBox="0.00 0.00 876.00 252.00" xmlns="http://www.w3.org/2000/svg" xmlns:xlink="http://www.w3.org/1999/xlink">
<g id="graph0" class="graph" transform="scale(1 1) rotate(0) translate(4 248)">
<title>cond_rectangle.h</title>
<!-- Node1 -->
<g id="node1" class="node">
<title>Node1</title>
<g id="a_node1"><a xlink:title="Hyperrectangle condition functions.">
<polygon fill="#bfbfbf" stroke="black" points="448,-224.5 448,-243.5 539,-243.5 539,-224.5 448,-224.5"/>
<text text-anchor="middle" x="493.5" y="-231.5" font-family="Helvetica,sans-Serif" font-size="10.00">cond_rectangle.h</text>
</a>
</g>
</g>
<!-- Node2 -->
<g id="node2" class="node">
<title>Node2</title>
<g id="a_node2"><a xlink:href="condition_8h.html" target="_top" xlink:title="Interface for classifier conditions.">
<polygon fill="none" stroke="black" points="491.5,-168.5 491.5,-187.5 555.5,-187.5 555.5,-168.5 491.5,-168.5"/>
<text text-anchor="middle" x="523.5" y="-175.5" font-family="Helvetica,sans-Serif" font-size="10.00">condition.h</text>
</a>
</g>
</g>
<!-- Node1&#45;&gt;Node2 -->
<g id="edge1" class="edge">
<title>Node1&#45;&gt;Node2</title>
<path fill="none" stroke="midnightblue" d="M498.45,-224.08C502.6,-216.61 508.65,-205.72 513.77,-196.52"/>
<polygon fill="midnightblue" stroke="midnightblue" points="516.84,-198.19 518.64,-187.75 510.72,-194.79 516.84,-198.19"/>
</g>
<!-- Node3 -->
<g id="node3" class="node">
<title>Node3</title>
<g id="a_node3"><a xlink:href="xcsf_8h.html" target="_top" xlink:title="XCSF data structures.">
<polygon fill="none" stroke="black" points="471.5,-112.5 471.5,-131.5 515.5,-131.5 515.5,-112.5 471.5,-112.5"/>
<text text-anchor="middle" x="493.5" y="-119.5" font-family="Helvetica,sans-Serif" font-size="10.00">xcsf.h</text>
</a>
</g>
</g>
<!-- Node1&#45;&gt;Node3 -->
<g id="edge19" class="edge">
<title>Node1&#45;&gt;Node3</title>
<path fill="none" stroke="midnightblue" d="M490.38,-224.21C486.33,-211.75 480.06,-188.23 482.5,-168 483.57,-159.11 485.79,-149.43 487.96,-141.34"/>
<polygon fill="midnightblue" stroke="midnightblue" points="491.39,-142.09 490.77,-131.51 484.66,-140.17 491.39,-142.09"/>
</g>
<!-- Node2&#45;&gt;Node3 -->
<g id="edge2" class="edge">
<title>Node2&#45;&gt;Node3</title>
<path fill="none" stroke="midnightblue" d="M518.55,-168.08C514.4,-160.61 508.35,-149.72 503.23,-140.52"/>
<polygon fill="midnightblue" stroke="midnightblue" points="506.28,-138.79 498.36,-131.75 500.16,-142.19 506.28,-138.79"/>
</g>
<!-- Node4 -->
<g id="node4" class="node">
<title>Node4</title>
<g id="a_node4"><a xlink:href="utils_8h.html" target="_top" xlink:title="Utility functions for random number handling, etc.">
<polygon fill="none" stroke="black" points="244,-56.5 244,-75.5 287,-75.5 287,-56.5 244,-56.5"/>
<text text-anchor="middle" x="265.5" y="-63.5" font-family="Helvetica,sans-Serif" font-size="10.00">utils.h</text>
</a>
</g>
</g>
<!-- Node3&#45;&gt;Node4 -->
<g id="edge3" class="edge">
<title>Node3&#45;&gt;Node4</title>
<path fill="none" stroke="midnightblue" d="M471.22,-115.72C430.49,-106.08 343.9,-85.57 297.1,-74.48"/>
<polygon fill="midnightblue" stroke="midnightblue" points="297.74,-71.04 287.2,-72.14 296.12,-77.85 297.74,-71.04"/>
</g>
<!-- Node7 -->
<g id="node7" class="node">
<title>Node7</title>
<g id="a_node7"><a xlink:title=" ">
<polygon fill="none" stroke="#bfbfbf" points="0,-0.5 0,-19.5 47,-19.5 47,-0.5 0,-0.5"/>
<text text-anchor="middle" x="23.5" y="-7.5" font-family="Helvetica,sans-Serif" font-size="10.00">math.h</text>
</a>
</g>
</g>
<!-- Node3&#45;&gt;Node7 -->
<g id="edge13" class="edge">
<title>Node3&#45;&gt;Node7</title>
<path fill="none" stroke="midnightblue" d="M471.48,-118.14C426.56,-112.08 321.26,-96.81 234.5,-76 170.8,-60.72 98.11,-36.87 56.82,-22.71"/>
<polygon fill="midnightblue" stroke="midnightblue" points="57.87,-19.36 47.28,-19.41 55.59,-25.98 57.87,-19.36"/>
</g>
<!-- Node8 -->
<g id="node8" class="node">
<title>Node8</title>
<g id="a_node8"><a xlink:title=" ">
<polygon fill="none" stroke="#bfbfbf" points="328.5,-0.5 328.5,-19.5 374.5,-19.5 374.5,-0.5 328.5,-0.5"/>
<text text-anchor="middle" x="351.5" y="-7.5" font-family="Helvetica,sans-Serif" font-size="10.00">stdio.h</text>
</a>
</g>
</g>
<!-- Node3&#45;&gt;Node8 -->
<g id="edge16" class="edge">
<title>Node3&#45;&gt;Node8</title>
<path fill="none" stroke="midnightblue" d="M471.12,-115.91C448.14,-109.74 412.46,-97.4 388.5,-76 374.16,-63.19 364.03,-43.46 358.04,-29.09"/>
<polygon fill="midnightblue" stroke="midnightblue" points="361.29,-27.8 354.41,-19.76 354.77,-30.34 361.29,-27.8"/>
</g>
<!-- Node9 -->
<g id="node9" class="node">
<title>Node9</title>
<g id="a_node9"><a xlink:title=" ">
<polygon fill="none" stroke="#bfbfbf" points="392.5,-0.5 392.5,-19.5 440.5,-19.5 440.5,-0.5 392.5,-0.5"/>
<text text-anchor="middle" x="416.5" y="-7.5" font-family="Helvetica,sans-Serif" font-size="10.00">stdlib.h</text>
</a>
</g>
</g>
<!-- Node3&#45;&gt;Node9 -->
<g id="edge17" class="edge">
<title>Node3&#45;&gt;Node9</title>
<path fill="none" stroke="midnightblue" d="M471.27,-117.68C448.08,-112.91 412.88,-101.66 396.5,-76 387.1,-61.28 395.24,-41.88 403.78,-28.12"/>
<polygon fill="midnightblue" stroke="midnightblue" points="406.83,-29.85 409.55,-19.61 401.04,-25.92 406.83,-29.85"/>
</g>
<!-- Node10 -->
<g id="node10" class="node">
<title>Node10</title>
<g id="a_node10"><a xlink:title=" ">
<polygon fill="none" stroke="#bfbfbf" points="406,-56.5 406,-75.5 453,-75.5 453,-56.5 406,-56.5"/>
<text text-anchor="middle" x="429.5" y="-63.5" font-family="Helvetica,sans-Serif" font-size="10.00">errno.h</text>
</a>
</g>
</g>
<!-- Node3&#45;&gt;Node10 -->
<g id="edge9" class="edge">
<title>Node3&#45;&gt;Node10</title>
<path fill="none" stroke="midnightblue" d="M483.22,-112.32C473.66,-104.26 459.22,-92.08 447.72,-82.37"/>
<polygon fill="midnightblue" stroke="midnightblue" points="449.87,-79.61 439.97,-75.83 445.36,-84.96 449.87,-79.61"/>
</g>
<!-- Node11 -->
<g id="node11" class="node">
<title>Node11</title>
<g id="a_node11"><a xlink:title=" ">
<polygon fill="none" stroke="#bfbfbf" points="471.5,-56.5 471.5,-75.5 515.5,-75.5 515.5,-56.5 471.5,-56.5"/>
<text text-anchor="middle" x="493.5" y="-63.5" font-family="Helvetica,sans-Serif" font-size="10.00">float.h</text>
</a>
</g>
</g>
<!-- Node3&#45;&gt;Node11 -->
<g id="edge10" class="edge">
<title>Node3&#45;&gt;Node11</title>
<path fill="none" stroke="midnightblue" d="M493.5,-112.08C493.5,-105.01 493.5,-94.86 493.5,-85.99"/>
<polygon fill="midnightblue" stroke="midnightblue" points="497,-85.75 493.5,-75.75 490,-85.75 497,-85.75"/>
</g>
<!-- Node12 -->
<g id="node12" class="node">
<title>Node12</title>
<g id="a_node12"><a xlink:title=" ">
<polygon fill="none" stroke="#bfbfbf" points="534,-56.5 534,-75.5 593,-75.5 593,-56.5 534,-56.5"/>
<text text-anchor="middle" x="563.5" y="-63.5" font-family="Helvetica,sans-Serif" font-size="10.00">inttypes.h</text>
</a>
</g>
</g>
<!-- Node3&#45;&gt;Node12 -->
<g id="edge11" class="edge">
<title>Node3&#45;&gt;Node12</title>
<path fill="none" stroke="midnightblue" d="M504.75,-112.32C515.3,-104.18 531.3,-91.84 543.94,-82.09"/>
<polygon fill="midnightblue" stroke="midnightblue" points="546.27,-84.71 552.05,-75.83 541.99,-79.17 546.27,-84.71"/>
</g>
<!-- Node13 -->
<g id="node13" class="node">
<title>Node13</title>
<g id="a_node13"><a xlink:title=" ">
<polygon fill="none" stroke="#bfbfbf" points="611.5,-56.5 611.5,-75.5 659.5,-75.5 659.5,-56.5 611.5,-56.5"/>
<text text-anchor="middle" x="635.5" y="-63.5" font-family="Helvetica,sans-Serif" font-size="10.00">limits.h</text>
</a>
</g>
</g>
<!-- Node3&#45;&gt;Node13 -->
<g id="edge12" class="edge">
<title>Node3&#45;&gt;Node13</title>
<path fill="none" stroke="midnightblue" d="M515.69,-112.56C539.2,-103.62 576.57,-89.41 603.32,-79.24"/>
<polygon fill="midnightblue" stroke="midnightblue" points="604.9,-82.38 613,-75.56 602.41,-75.84 604.9,-82.38"/>
</g>
<!-- Node14 -->
<g id="node14" class="node">
<title>Node14</title>
<g id="a_node14"><a xlink:title=" ">
<polygon fill="none" stroke="#bfbfbf" points="677.5,-56.5 677.5,-75.5 733.5,-75.5 733.5,-56.5 677.5,-56.5"/>
<text text-anchor="middle" x="705.5" y="-63.5" font-family="Helvetica,sans-Serif" font-size="10.00">stdbool.h</text>
</a>
</g>
</g>
<!-- Node3&#45;&gt;Node14 -->
<g id="edge14" class="edge">
<title>Node3&#45;&gt;Node14</title>
<path fill="none" stroke="midnightblue" d="M515.79,-115.32C551.79,-106.15 623.15,-87.98 667.35,-76.72"/>
<polygon fill="midnightblue" stroke="midnightblue" points="668.33,-80.08 677.16,-74.22 666.61,-73.3 668.33,-80.08"/>
</g>
<!-- Node15 -->
<g id="node15" class="node">
<title>Node15</title>
<g id="a_node15"><a xlink:title=" ">
<polygon fill="none" stroke="#bfbfbf" points="752,-56.5 752,-75.5 801,-75.5 801,-56.5 752,-56.5"/>
<text text-anchor="middle" x="776.5" y="-63.5" font-family="Helvetica,sans-Serif" font-size="10.00">stdint.h</text>
</a>
</g>
</g>
<!-- Node3&#45;&gt;Node15 -->
<g id="edge15" class="edge">
<title>Node3&#45;&gt;Node15</title>
<path fill="none" stroke="midnightblue" d="M515.6,-117.61C557.68,-111.04 652.34,-95.63 741.91,-75.98"/>
<polygon fill="midnightblue" stroke="midnightblue" points="742.67,-79.4 751.67,-73.82 741.15,-72.56 742.67,-79.4"/>
</g>
<!-- Node16 -->
<g id="node16" class="node">
<title>Node16</title>
<g id="a_node16"><a xlink:title=" ">
<polygon fill="none" stroke="#bfbfbf" points="819,-56.5 819,-75.5 868,-75.5 868,-56.5 819,-56.5"/>
<text text-anchor="middle" x="843.5" y="-63.5" font-family="Helvetica,sans-Serif" font-size="10.00">string.h</text>
</a>
</g>
</g>
<!-- Node3&#45;&gt;Node16 -->
<g id="edge18" class="edge">
<title>Node3&#45;&gt;Node16</title>
<path fill="none" stroke="midnightblue" d="M515.57,-118.83C565.93,-113.67 693.32,-99.49 808.66,-76.18"/>
<polygon fill="midnightblue" stroke="midnightblue" points="809.62,-79.55 818.71,-74.12 808.21,-72.7 809.62,-79.55"/>
</g>
<!-- Node5 -->
<g id="node5" class="node">
<title>Node5</title>
<g id="a_node5"><a xlink:title=" ">
<polygon fill="none" stroke="#bfbfbf" points="196.5,-0.5 196.5,-19.5 310.5,-19.5 310.5,-0.5 196.5,-0.5"/>
<text text-anchor="middle" x="253.5" y="-7.5" font-family="Helvetica,sans-Serif" font-size="10.00">../lib/cJSON/cJSON.h</text>
</a>
</g>
</g>
<!-- Node4&#45;&gt;Node5 -->
<g id="edge4" class="edge">
<title>Node4&#45;&gt;Node5</title>
<path fill="none" stroke="midnightblue" d="M263.52,-56.08C261.93,-48.93 259.64,-38.64 257.65,-29.69"/>
<polygon fill="midnightblue" stroke="midnightblue" points="261.03,-28.75 255.44,-19.75 254.2,-30.27 261.03,-28.75"/>
</g>
<!-- Node6 -->
<g id="node6" class="node">
<title>Node6</title>
<g id="a_node6"><a xlink:title=" ">
<polygon fill="none" stroke="#bfbfbf" points="65,-0.5 65,-19.5 178,-19.5 178,-0.5 65,-0.5"/>
<text text-anchor="middle" x="121.5" y="-7.5" font-family="Helvetica,sans-Serif" font-size="10.00">../lib/dSFMT/dSFMT.h</text>
</a>
</g>
</g>
<!-- Node4&#45;&gt;Node6 -->
<g id="edge5" class="edge">
<title>Node4&#45;&gt;Node6</title>
<path fill="none" stroke="midnightblue" d="M243.94,-56.92C220.18,-48.01 181.7,-33.57 154.22,-23.27"/>
<polygon fill="midnightblue" stroke="midnightblue" points="155.23,-19.91 144.64,-19.68 152.77,-26.47 155.23,-19.91"/>
</g>
<!-- Node4&#45;&gt;Node7 -->
<g id="edge6" class="edge">
<title>Node4&#45;&gt;Node7</title>
<path fill="none" stroke="midnightblue" d="M243.93,-60.85C207.41,-53.71 130.86,-38.33 57.13,-20.3"/>
<polygon fill="midnightblue" stroke="midnightblue" points="57.77,-16.85 47.22,-17.85 56.09,-23.64 57.77,-16.85"/>
</g>
<!-- Node4&#45;&gt;Node8 -->
<g id="edge7" class="edge">
<title>Node4&#45;&gt;Node8</title>
<path fill="none" stroke="midnightblue" d="M279.32,-56.32C292.73,-47.9 313.32,-34.97 329.09,-25.07"/>
<polygon fill="midnightblue" stroke="midnightblue" points="331.11,-27.94 337.72,-19.65 327.39,-22.01 331.11,-27.94"/>
</g>
<!-- Node4&#45;&gt;Node9 -->
<g id="edge8" class="edge">
<title>Node4&#45;&gt;Node9</title>
<path fill="none" stroke="midnightblue" d="M287.13,-57.26C312.16,-48.32 353.65,-33.48 382.88,-23.02"/>
<polygon fill="midnightblue" stroke="midnightblue" points="384.43,-26.19 392.66,-19.52 382.07,-19.6 384.43,-26.19"/>
</g>
</g>
</svg>
