<?xml version="1.0" encoding="UTF-8" standalone="no"?>
<!DOCTYPE svg PUBLIC "-//W3C//DTD SVG 1.1//EN"
 "http://www.w3.org/Graphics/SVG/1.1/DTD/svg11.dtd">
<!-- Generated by graphviz version 2.43.0 (0)
 -->
<!-- Title: cond_general Pages: 1 -->
<svg width="1189pt" height="284pt"
 viewBox="0.00 0.00 1189.00 284.00" xmlns="http://www.w3.org/2000/svg" xmlns:xlink="http://www.w3.org/1999/xlink">
<g id="graph0" class="graph" transform="scale(1 1) rotate(0) translate(4 280)">
<title>cond_general</title>
<!-- Node1 -->
<g id="node1" class="node">
<title>Node1</title>
<g id="a_node1"><a xlink:title="Returns whether classifier c1 has a condition more general than c2.">
<polygon fill="#bfbfbf" stroke="black" points="1107,-147.5 1107,-166.5 1181,-166.5 1181,-147.5 1107,-147.5"/>
<text text-anchor="middle" x="1144" y="-154.5" font-family="Helvetica,sans-Serif" font-size="10.00">cond_general</text>
</a>
</g>
</g>
<!-- Node2 -->
<g id="node2" class="node">
<title>Node2</title>
<g id="a_node2"><a xlink:href="cl_8c.html#a702d046abd4a69246f5bfd302c523f92" target="_top" xlink:title="Returns whether classifier c1 is more general than c2.">
<polygon fill="none" stroke="black" points="1010,-147.5 1010,-166.5 1071,-166.5 1071,-147.5 1010,-147.5"/>
<text text-anchor="middle" x="1040.5" y="-154.5" font-family="Helvetica,sans-Serif" font-size="10.00">cl_general</text>
</a>
</g>
</g>
<!-- Node1&#45;&gt;Node2 -->
<g id="edge1" class="edge">
<title>Node1&#45;&gt;Node2</title>
<path fill="none" stroke="midnightblue" d="M1096.82,-157C1088.08,-157 1079.15,-157 1071.1,-157"/>
<polygon fill="midnightblue" stroke="midnightblue" points="1096.93,-160.5 1106.93,-157 1096.93,-153.5 1096.93,-160.5"/>
</g>
<!-- Node3 -->
<g id="node3" class="node">
<title>Node3</title>
<g id="a_node3"><a xlink:href="clset_8c.html#a4777af2f15c4a7b5abeecb35e7e8b6b3" target="_top" xlink:title="Performs set subsumption.">
<polygon fill="none" stroke="black" points="876,-166.5 876,-185.5 974,-185.5 974,-166.5 876,-166.5"/>
<text text-anchor="middle" x="925" y="-173.5" font-family="Helvetica,sans-Serif" font-size="10.00">clset_subsumption</text>
</a>
</g>
</g>
<!-- Node2&#45;&gt;Node3 -->
<g id="edge2" class="edge">
<title>Node2&#45;&gt;Node3</title>
<path fill="none" stroke="midnightblue" d="M999.86,-163.64C991.6,-165.02 982.81,-166.49 974.28,-167.92"/>
<polygon fill="midnightblue" stroke="midnightblue" points="1000.69,-167.05 1009.98,-161.94 999.53,-160.14 1000.69,-167.05"/>
</g>
<!-- Node22 -->
<g id="node22" class="node">
<title>Node22</title>
<g id="a_node22"><a xlink:href="ea_8c.html#ac3134366cd64189d6386a3cf014987b7" target="_top" xlink:title="Performs evolutionary algorithm subsumption.">
<polygon fill="none" stroke="black" points="889,-128.5 889,-147.5 961,-147.5 961,-128.5 889,-128.5"/>
<text text-anchor="middle" x="925" y="-135.5" font-family="Helvetica,sans-Serif" font-size="10.00">ea_subsume</text>
</a>
</g>
</g>
<!-- Node2&#45;&gt;Node22 -->
<g id="edge24" class="edge">
<title>Node2&#45;&gt;Node22</title>
<path fill="none" stroke="midnightblue" d="M1000.11,-150.41C987.4,-148.28 973.4,-145.93 961.03,-143.86"/>
<polygon fill="midnightblue" stroke="midnightblue" points="999.53,-153.86 1009.98,-152.06 1000.69,-146.95 999.53,-153.86"/>
</g>
<!-- Node4 -->
<g id="node4" class="node">
<title>Node4</title>
<g id="a_node4"><a xlink:href="clset_8c.html#a27aedca23d7c37f4ca0f44845e9805c7" target="_top" xlink:title="Provides reinforcement to the set and performs set subsumption.">
<polygon fill="none" stroke="black" points="684,-166.5 684,-185.5 756,-185.5 756,-166.5 684,-166.5"/>
<text text-anchor="middle" x="720" y="-173.5" font-family="Helvetica,sans-Serif" font-size="10.00">clset_update</text>
</a>
</g>
</g>
<!-- Node3&#45;&gt;Node4 -->
<g id="edge3" class="edge">
<title>Node3&#45;&gt;Node4</title>
<path fill="none" stroke="midnightblue" d="M865.67,-176C830.24,-176 786.19,-176 756.06,-176"/>
<polygon fill="midnightblue" stroke="midnightblue" points="865.89,-179.5 875.89,-176 865.89,-172.5 865.89,-179.5"/>
</g>
<!-- Node5 -->
<g id="node5" class="node">
<title>Node5</title>
<g id="a_node5"><a xlink:href="xcs__rl_8c.html#a5e5ba8c28646690f0b1c51aae7f6aa78" target="_top" xlink:title="Provides reinforcement to the sets.">
<polygon fill="none" stroke="black" points="556.5,-180.5 556.5,-199.5 633.5,-199.5 633.5,-180.5 556.5,-180.5"/>
<text text-anchor="middle" x="595" y="-187.5" font-family="Helvetica,sans-Serif" font-size="10.00">xcs_rl_update</text>
</a>
</g>
</g>
<!-- Node4&#45;&gt;Node5 -->
<g id="edge4" class="edge">
<title>Node4&#45;&gt;Node5</title>
<path fill="none" stroke="midnightblue" d="M673.55,-181.17C660.48,-182.66 646.38,-184.27 633.83,-185.69"/>
<polygon fill="midnightblue" stroke="midnightblue" points="674.21,-184.62 683.75,-180.01 673.42,-177.67 674.21,-184.62"/>
</g>
<!-- Node12 -->
<g id="node12" class="node">
<title>Node12</title>
<g id="a_node12"><a xlink:href="xcs__supervised_8c.html#a8e376723db7b6786507d5ea6add9f650" target="_top" xlink:title="Executes a single XCSF trial.">
<polygon fill="none" stroke="black" points="542,-114.5 542,-133.5 648,-133.5 648,-114.5 542,-114.5"/>
<text text-anchor="middle" x="595" y="-121.5" font-family="Helvetica,sans-Serif" font-size="10.00">xcs_supervised_trial</text>
</a>
</g>
</g>
<!-- Node4&#45;&gt;Node12 -->
<g id="edge11" class="edge">
<title>Node4&#45;&gt;Node12</title>
<path fill="none" stroke="midnightblue" d="M687.1,-162.52C665.71,-153.47 638.04,-141.77 618.83,-133.65"/>
<polygon fill="midnightblue" stroke="midnightblue" points="685.87,-165.79 696.44,-166.46 688.59,-159.34 685.87,-165.79"/>
</g>
<!-- Node6 -->
<g id="node6" class="node">
<title>Node6</title>
<g id="a_node6"><a xlink:href="classXCS.html#af8970ba52403714439fda0d4383a390b" target="_top" xlink:title="Creates the action set using the previously selected action, updates the classifiers,...">
<polygon fill="none" stroke="black" points="410,-256.5 410,-275.5 483,-275.5 483,-256.5 410,-256.5"/>
<text text-anchor="middle" x="446.5" y="-263.5" font-family="Helvetica,sans-Serif" font-size="10.00">XCS::update</text>
</a>
</g>
</g>
<!-- Node5&#45;&gt;Node6 -->
<g id="edge5" class="edge">
<title>Node5&#45;&gt;Node6</title>
<path fill="none" stroke="midnightblue" d="M573.28,-205.65C555.99,-218.14 530.35,-235.4 506,-247 498.48,-250.58 490.11,-253.74 482.11,-256.41"/>
<polygon fill="midnightblue" stroke="midnightblue" points="575.51,-208.35 581.5,-199.61 571.37,-202.71 575.51,-208.35"/>
</g>
<!-- Node7 -->
<g id="node7" class="node">
<title>Node7</title>
<g id="a_node7"><a xlink:href="xcs__rl_8c.html#a391abf9bd2540ff284f822b30899c438" target="_top" xlink:title="Creates and updates an action set for a given (state, action, reward).">
<polygon fill="none" stroke="black" points="418.5,-218.5 418.5,-237.5 474.5,-237.5 474.5,-218.5 418.5,-218.5"/>
<text text-anchor="middle" x="446.5" y="-225.5" font-family="Helvetica,sans-Serif" font-size="10.00">xcs_rl_fit</text>
</a>
</g>
</g>
<!-- Node5&#45;&gt;Node7 -->
<g id="edge6" class="edge">
<title>Node5&#45;&gt;Node7</title>
<path fill="none" stroke="midnightblue" d="M547.1,-202.17C523.22,-208.36 495.03,-215.67 474.74,-220.93"/>
<polygon fill="midnightblue" stroke="midnightblue" points="548.23,-205.49 557.03,-199.59 546.47,-198.71 548.23,-205.49"/>
</g>
<!-- Node9 -->
<g id="node9" class="node">
<title>Node9</title>
<g id="a_node9"><a xlink:href="xcs__rl_8c.html#a8171cd945b56ed0a4563f9dcd89438e3" target="_top" xlink:title="Executes a reinforcement learning trial using a built&#45;in environment.">
<polygon fill="none" stroke="black" points="414.5,-180.5 414.5,-199.5 478.5,-199.5 478.5,-180.5 414.5,-180.5"/>
<text text-anchor="middle" x="446.5" y="-187.5" font-family="Helvetica,sans-Serif" font-size="10.00">xcs_rl_trial</text>
</a>
</g>
</g>
<!-- Node5&#45;&gt;Node9 -->
<g id="edge8" class="edge">
<title>Node5&#45;&gt;Node9</title>
<path fill="none" stroke="midnightblue" d="M546.06,-190C523.92,-190 498.26,-190 478.68,-190"/>
<polygon fill="midnightblue" stroke="midnightblue" points="546.27,-193.5 556.27,-190 546.27,-186.5 546.27,-193.5"/>
</g>
<!-- Node8 -->
<g id="node8" class="node">
<title>Node8</title>
<g id="a_node8"><a xlink:href="classXCS.html#ac12768292958a714a726b1c029e9616a" target="_top" xlink:title="Creates/updates an action set for a given (state, action, reward).">
<polygon fill="none" stroke="black" points="262.5,-228.5 262.5,-247.5 314.5,-247.5 314.5,-228.5 262.5,-228.5"/>
<text text-anchor="middle" x="288.5" y="-235.5" font-family="Helvetica,sans-Serif" font-size="10.00">XCS::fit</text>
</a>
</g>
</g>
<!-- Node7&#45;&gt;Node8 -->
<g id="edge7" class="edge">
<title>Node7&#45;&gt;Node8</title>
<path fill="none" stroke="midnightblue" d="M408.17,-230.39C379.2,-232.25 339.85,-234.77 314.56,-236.39"/>
<polygon fill="midnightblue" stroke="midnightblue" points="408.57,-233.87 418.33,-229.74 408.12,-226.89 408.57,-233.87"/>
</g>
<!-- Node10 -->
<g id="node10" class="node">
<title>Node10</title>
<g id="a_node10"><a xlink:href="xcs__rl_8c.html#adb4c284d19eeaed2b4a629f9b939ed20" target="_top" xlink:title="Executes a reinforcement learning experiment.">
<polygon fill="none" stroke="black" points="256.5,-190.5 256.5,-209.5 320.5,-209.5 320.5,-190.5 256.5,-190.5"/>
<text text-anchor="middle" x="288.5" y="-197.5" font-family="Helvetica,sans-Serif" font-size="10.00">xcs_rl_exp</text>
</a>
</g>
</g>
<!-- Node9&#45;&gt;Node10 -->
<g id="edge9" class="edge">
<title>Node9&#45;&gt;Node10</title>
<path fill="none" stroke="midnightblue" d="M404.28,-192.64C378.06,-194.32 344.65,-196.47 320.64,-198"/>
<polygon fill="midnightblue" stroke="midnightblue" points="404.55,-196.13 414.31,-192 404.1,-189.15 404.55,-196.13"/>
</g>
<!-- Node11 -->
<g id="node11" class="node">
<title>Node11</title>
<g id="a_node11"><a xlink:href="main_8c.html#a3c04138a5bfe5d72780bb7e82a18e627" target="_top" xlink:title=" ">
<polygon fill="none" stroke="black" points="128,-171.5 128,-190.5 166,-190.5 166,-171.5 128,-171.5"/>
<text text-anchor="middle" x="147" y="-178.5" font-family="Helvetica,sans-Serif" font-size="10.00">main</text>
</a>
</g>
</g>
<!-- Node10&#45;&gt;Node11 -->
<g id="edge10" class="edge">
<title>Node10&#45;&gt;Node11</title>
<path fill="none" stroke="midnightblue" d="M246.04,-194.35C219.57,-190.75 186.54,-186.25 166.38,-183.5"/>
<polygon fill="midnightblue" stroke="midnightblue" points="245.81,-197.85 256.19,-195.74 246.76,-190.92 245.81,-197.85"/>
</g>
<!-- Node13 -->
<g id="node13" class="node">
<title>Node13</title>
<g id="a_node13"><a xlink:href="xcs__supervised_8c.html#aac1347b7b83576d581a1b725b4c84e56" target="_top" xlink:title="Executes MAX_TRIALS number of XCSF learning iterations using the training data and test iterations us...">
<polygon fill="none" stroke="black" points="397.5,-133.5 397.5,-152.5 495.5,-152.5 495.5,-133.5 397.5,-133.5"/>
<text text-anchor="middle" x="446.5" y="-140.5" font-family="Helvetica,sans-Serif" font-size="10.00">xcs_supervised_fit</text>
</a>
</g>
</g>
<!-- Node12&#45;&gt;Node13 -->
<g id="edge12" class="edge">
<title>Node12&#45;&gt;Node13</title>
<path fill="none" stroke="midnightblue" d="M531.96,-132.05C519.93,-133.61 507.48,-135.22 495.97,-136.71"/>
<polygon fill="midnightblue" stroke="midnightblue" points="532.47,-135.51 541.94,-130.75 531.57,-128.57 532.47,-135.51"/>
</g>
<!-- Node15 -->
<g id="node15" class="node">
<title>Node15</title>
<g id="a_node15"><a xlink:href="xcs__supervised_8c.html#ae4791c1daf0baaa6615f70332657aadb" target="_top" xlink:title="Calculates the XCSF predictions for the provided input.">
<polygon fill="none" stroke="black" points="387,-19.5 387,-38.5 506,-38.5 506,-19.5 387,-19.5"/>
<text text-anchor="middle" x="446.5" y="-26.5" font-family="Helvetica,sans-Serif" font-size="10.00">xcs_supervised_predict</text>
</a>
</g>
</g>
<!-- Node12&#45;&gt;Node15 -->
<g id="edge15" class="edge">
<title>Node12&#45;&gt;Node15</title>
<path fill="none" stroke="midnightblue" d="M578.24,-106.87C561.72,-89.81 534.26,-63.93 506,-48 499.39,-44.28 491.95,-41.16 484.65,-38.59"/>
<polygon fill="midnightblue" stroke="midnightblue" points="576.01,-109.6 585.43,-114.45 581.09,-104.79 576.01,-109.6"/>
</g>
<!-- Node18 -->
<g id="node18" class="node">
<title>Node18</title>
<g id="a_node18"><a xlink:href="xcs__supervised_8c.html#a535e3dbbf0f80e64a4e9b1c700e51f40" target="_top" xlink:title="Calculates the XCSF error for the input data.">
<polygon fill="none" stroke="black" points="389.5,-57.5 389.5,-76.5 503.5,-76.5 503.5,-57.5 389.5,-57.5"/>
<text text-anchor="middle" x="446.5" y="-64.5" font-family="Helvetica,sans-Serif" font-size="10.00">xcs_supervised_score</text>
</a>
</g>
</g>
<!-- Node12&#45;&gt;Node18 -->
<g id="edge18" class="edge">
<title>Node12&#45;&gt;Node18</title>
<path fill="none" stroke="midnightblue" d="M560.07,-110.8C533.17,-100.33 496.21,-85.95 472.1,-76.57"/>
<polygon fill="midnightblue" stroke="midnightblue" points="558.89,-114.1 569.48,-114.46 561.43,-107.57 558.89,-114.1"/>
</g>
<!-- Node21 -->
<g id="node21" class="node">
<title>Node21</title>
<g id="a_node21"><a xlink:href="xcs__supervised_8c.html#a9ab2bb39625aea84c716901a95a4326e" target="_top" xlink:title="Calculates the XCSF error for a subsample of the input data.">
<polygon fill="none" stroke="black" points="226,-76.5 226,-95.5 351,-95.5 351,-76.5 226,-76.5"/>
<text text-anchor="middle" x="288.5" y="-83.5" font-family="Helvetica,sans-Serif" font-size="10.00">xcs_supervised_score_n</text>
</a>
</g>
</g>
<!-- Node12&#45;&gt;Node21 -->
<g id="edge23" class="edge">
<title>Node12&#45;&gt;Node21</title>
<path fill="none" stroke="midnightblue" d="M531.41,-116.19C478.66,-109.61 403.6,-100.24 351.12,-93.69"/>
<polygon fill="midnightblue" stroke="midnightblue" points="531.3,-119.7 541.65,-117.47 532.17,-112.76 531.3,-119.7"/>
</g>
<!-- Node13&#45;&gt;Node11 -->
<g id="edge14" class="edge">
<title>Node13&#45;&gt;Node11</title>
<path fill="none" stroke="midnightblue" d="M387.16,-150.45C318.67,-159.2 208.98,-173.21 166.05,-178.69"/>
<polygon fill="midnightblue" stroke="midnightblue" points="387.89,-153.89 397.37,-149.15 387.01,-146.94 387.89,-153.89"/>
</g>
<!-- Node14 -->
<g id="node14" class="node">
<title>Node14</title>
<g id="a_node14"><a xlink:href="classXCS.html#a3f8168ffade2d933d0971625200f1d92" target="_top" xlink:title="Executes MAX_TRIALS number of XCSF learning iterations using the provided training data.">
<polygon fill="none" stroke="black" points="262.5,-114.5 262.5,-133.5 314.5,-133.5 314.5,-114.5 262.5,-114.5"/>
<text text-anchor="middle" x="288.5" y="-121.5" font-family="Helvetica,sans-Serif" font-size="10.00">XCS::fit</text>
</a>
</g>
</g>
<!-- Node13&#45;&gt;Node14 -->
<g id="edge13" class="edge">
<title>Node13&#45;&gt;Node14</title>
<path fill="none" stroke="midnightblue" d="M387.24,-135.9C362.15,-132.85 334.13,-129.44 314.55,-127.05"/>
<polygon fill="midnightblue" stroke="midnightblue" points="387.07,-139.41 397.42,-137.14 387.92,-132.46 387.07,-139.41"/>
</g>
<!-- Node16 -->
<g id="node16" class="node">
<title>Node16</title>
<g id="a_node16"><a xlink:href="classXCS.html#a213bbab8324b5a60482e87f18a9ceaee" target="_top" xlink:title="Returns the XCSF prediction array for the provided input.">
<polygon fill="none" stroke="black" points="233.5,-0.5 233.5,-19.5 343.5,-19.5 343.5,-0.5 233.5,-0.5"/>
<text text-anchor="middle" x="288.5" y="-7.5" font-family="Helvetica,sans-Serif" font-size="10.00">XCS::get_predictions</text>
</a>
</g>
</g>
<!-- Node15&#45;&gt;Node16 -->
<g id="edge16" class="edge">
<title>Node15&#45;&gt;Node16</title>
<path fill="none" stroke="midnightblue" d="M376.87,-20.64C365.77,-19.29 354.42,-17.91 343.72,-16.6"/>
<polygon fill="midnightblue" stroke="midnightblue" points="376.62,-24.14 386.97,-21.87 377.46,-17.19 376.62,-24.14"/>
</g>
<!-- Node17 -->
<g id="node17" class="node">
<title>Node17</title>
<g id="a_node17"><a xlink:href="classXCS.html#aa29ac60a35ac4874b65bb22deca6df0c" target="_top" xlink:title="Returns the XCSF prediction array for the provided input.">
<polygon fill="none" stroke="black" points="110.5,-0.5 110.5,-19.5 183.5,-19.5 183.5,-0.5 110.5,-0.5"/>
<text text-anchor="middle" x="147" y="-7.5" font-family="Helvetica,sans-Serif" font-size="10.00">XCS::predict</text>
</a>
</g>
</g>
<!-- Node16&#45;&gt;Node17 -->
<g id="edge17" class="edge">
<title>Node16&#45;&gt;Node17</title>
<path fill="none" stroke="midnightblue" d="M222.98,-10C209.55,-10 195.86,-10 183.91,-10"/>
<polygon fill="midnightblue" stroke="midnightblue" points="223.17,-13.5 233.17,-10 223.17,-6.5 223.17,-13.5"/>
</g>
<!-- Node19 -->
<g id="node19" class="node">
<title>Node19</title>
<g id="a_node19"><a xlink:href="classXCS.html#abe2ecac1d31f36659f70eb3ff9665bef" target="_top" xlink:title="Returns the error using N random samples from the provided data.">
<polygon fill="none" stroke="black" points="104,-57.5 104,-76.5 190,-76.5 190,-57.5 104,-57.5"/>
<text text-anchor="middle" x="147" y="-64.5" font-family="Helvetica,sans-Serif" font-size="10.00">XCS::get_score</text>
</a>
</g>
</g>
<!-- Node18&#45;&gt;Node19 -->
<g id="edge19" class="edge">
<title>Node18&#45;&gt;Node19</title>
<path fill="none" stroke="midnightblue" d="M379.06,-67C321.29,-67 239.33,-67 190.15,-67"/>
<polygon fill="midnightblue" stroke="midnightblue" points="379.19,-70.5 389.19,-67 379.19,-63.5 379.19,-70.5"/>
</g>
<!-- Node18&#45;&gt;Node21 -->
<g id="edge21" class="edge">
<title>Node18&#45;&gt;Node21</title>
<path fill="none" stroke="midnightblue" d="M379.16,-75.08C369.82,-76.22 360.26,-77.38 351.02,-78.51"/>
<polygon fill="midnightblue" stroke="midnightblue" points="379.68,-78.54 389.18,-73.86 378.83,-71.59 379.68,-78.54"/>
</g>
<!-- Node20 -->
<g id="node20" class="node">
<title>Node20</title>
<g id="a_node20"><a xlink:href="classXCS.html#a4bb9f3f8613abf7ba95837a03bbb931d" target="_top" xlink:title="Returns the error using N random samples from the provided data.">
<polygon fill="none" stroke="black" points="0,-57.5 0,-76.5 68,-76.5 68,-57.5 0,-57.5"/>
<text text-anchor="middle" x="34" y="-64.5" font-family="Helvetica,sans-Serif" font-size="10.00">XCS::score</text>
</a>
</g>
</g>
<!-- Node19&#45;&gt;Node20 -->
<g id="edge20" class="edge">
<title>Node19&#45;&gt;Node20</title>
<path fill="none" stroke="midnightblue" d="M93.65,-67C84.98,-67 76.21,-67 68.19,-67"/>
<polygon fill="midnightblue" stroke="midnightblue" points="93.72,-70.5 103.72,-67 93.72,-63.5 93.72,-70.5"/>
</g>
<!-- Node21&#45;&gt;Node19 -->
<g id="edge22" class="edge">
<title>Node21&#45;&gt;Node19</title>
<path fill="none" stroke="midnightblue" d="M215.92,-76.25C207.07,-75.05 198.25,-73.84 190.05,-72.73"/>
<polygon fill="midnightblue" stroke="midnightblue" points="215.53,-79.73 225.91,-77.61 216.47,-72.79 215.53,-79.73"/>
</g>
<!-- Node23 -->
<g id="node23" class="node">
<title>Node23</title>
<g id="a_node23"><a xlink:href="ea_8c.html#a2a3b0de53f9d67b5025957b59b8fc9a3" target="_top" xlink:title="Adds offspring to the population.">
<polygon fill="none" stroke="black" points="792,-128.5 792,-147.5 840,-147.5 840,-128.5 792,-128.5"/>
<text text-anchor="middle" x="816" y="-135.5" font-family="Helvetica,sans-Serif" font-size="10.00">ea_add</text>
</a>
</g>
</g>
<!-- Node22&#45;&gt;Node23 -->
<g id="edge25" class="edge">
<title>Node22&#45;&gt;Node23</title>
<path fill="none" stroke="midnightblue" d="M878.59,-138C865.39,-138 851.52,-138 840.3,-138"/>
<polygon fill="midnightblue" stroke="midnightblue" points="878.96,-141.5 888.96,-138 878.96,-134.5 878.96,-141.5"/>
</g>
<!-- Node24 -->
<g id="node24" class="node">
<title>Node24</title>
<g id="a_node24"><a xlink:href="ea_8c.html#a295cd56f77428d1fa2555df1ce363cdd" target="_top" xlink:title="Executes the evolutionary algorithm (EA).">
<polygon fill="none" stroke="black" points="705.5,-128.5 705.5,-147.5 734.5,-147.5 734.5,-128.5 705.5,-128.5"/>
<text text-anchor="middle" x="720" y="-135.5" font-family="Helvetica,sans-Serif" font-size="10.00">ea</text>
</a>
</g>
</g>
<!-- Node23&#45;&gt;Node24 -->
<g id="edge26" class="edge">
<title>Node23&#45;&gt;Node24</title>
<path fill="none" stroke="midnightblue" d="M781.58,-138C765.42,-138 746.93,-138 734.67,-138"/>
<polygon fill="midnightblue" stroke="midnightblue" points="781.76,-141.5 791.76,-138 781.76,-134.5 781.76,-141.5"/>
</g>
<!-- Node24&#45;&gt;Node5 -->
<g id="edge27" class="edge">
<title>Node24&#45;&gt;Node5</title>
<path fill="none" stroke="midnightblue" d="M696.1,-147.68C674.06,-157 640.93,-171.01 618.89,-180.32"/>
<polygon fill="midnightblue" stroke="midnightblue" points="697.52,-150.88 705.37,-143.76 694.79,-144.43 697.52,-150.88"/>
</g>
<!-- Node24&#45;&gt;Node12 -->
<g id="edge28" class="edge">
<title>Node24&#45;&gt;Node12</title>
<path fill="none" stroke="midnightblue" d="M695.14,-135.28C681.75,-133.76 664.5,-131.8 648.15,-129.94"/>
<polygon fill="midnightblue" stroke="midnightblue" points="695.04,-138.79 705.37,-136.45 695.83,-131.84 695.04,-138.79"/>
</g>
</g>
</svg>
