<?xml version="1.0" encoding="UTF-8" standalone="no"?>
<!DOCTYPE svg PUBLIC "-//W3C//DTD SVG 1.1//EN"
 "http://www.w3.org/Graphics/SVG/1.1/DTD/svg11.dtd">
<!-- Generated by graphviz version 2.43.0 (0)
 -->
<!-- Title: cond_neural.c Pages: 1 -->
<svg width="1279pt" height="302pt"
 viewBox="0.00 0.00 1278.90 302.00" xmlns="http://www.w3.org/2000/svg" xmlns:xlink="http://www.w3.org/1999/xlink">
<g id="graph0" class="graph" transform="scale(1 1) rotate(0) translate(4 298)">
<title>cond_neural.c</title>
<!-- Node1 -->
<g id="Node000001" class="node">
<title>Node1</title>
<g id="a_Node000001"><a xlink:title="Multi&#45;layer perceptron neural network condition functions.">
<polygon fill="#999999" stroke="#666666" points="685,-294 608,-294 608,-275 685,-275 685,-294"/>
<text text-anchor="middle" x="646.5" y="-282" font-family="Helvetica,sans-Serif" font-size="10.00">cond_neural.c</text>
</a>
</g>
</g>
<!-- Node2 -->
<g id="Node000002" class="node">
<title>Node2</title>
<g id="a_Node000002"><a xlink:href="cond__neural_8h.html" target="_top" xlink:title="Multi&#45;layer perceptron neural network condition functions.">
<polygon fill="white" stroke="#666666" points="158,-239 81,-239 81,-220 158,-220 158,-239"/>
<text text-anchor="middle" x="119.5" y="-227" font-family="Helvetica,sans-Serif" font-size="10.00">cond_neural.h</text>
</a>
</g>
</g>
<!-- Node1&#45;&gt;Node2 -->
<g id="edge1_Node000001_Node000002" class="edge">
<title>Node1&#45;&gt;Node2</title>
<g id="a_edge1_Node000001_Node000002"><a xlink:title=" ">
<path fill="none" stroke="#63b8ff" d="M607.88,-281C527.91,-275.59 338.16,-261.54 168.35,-239"/>
<polygon fill="#63b8ff" stroke="#63b8ff" points="168.61,-235.5 158.23,-237.64 167.68,-242.44 168.61,-235.5"/>
</a>
</g>
</g>
<!-- Node5 -->
<g id="Node000005" class="node">
<title>Node5</title>
<g id="a_Node000005"><a xlink:href="utils_8h.html" target="_top" xlink:title="Utility functions for random number handling, etc.">
<polygon fill="white" stroke="#666666" points="654,-74 611,-74 611,-55 654,-55 654,-74"/>
<text text-anchor="middle" x="632.5" y="-62" font-family="Helvetica,sans-Serif" font-size="10.00">utils.h</text>
</a>
</g>
</g>
<!-- Node1&#45;&gt;Node5 -->
<g id="edge52_Node000001_Node000005" class="edge">
<title>Node1&#45;&gt;Node5</title>
<g id="a_edge52_Node000001_Node000005"><a xlink:title=" ">
<path fill="none" stroke="#63b8ff" d="M685.31,-283.68C814.22,-283.89 1222.26,-281.18 1261.5,-239 1347.79,-146.24 803.12,-83.13 664.19,-68.66"/>
<polygon fill="#63b8ff" stroke="#63b8ff" points="664.48,-65.18 654.17,-67.63 663.76,-72.14 664.48,-65.18"/>
</a>
</g>
</g>
<!-- Node19 -->
<g id="Node000019" class="node">
<title>Node19</title>
<g id="a_Node000019"><a xlink:href="neural__activations_8h.html" target="_top" xlink:title="Neural network activation functions.">
<polygon fill="white" stroke="#666666" points="104.5,-184 0.5,-184 0.5,-165 104.5,-165 104.5,-184"/>
<text text-anchor="middle" x="52.5" y="-172" font-family="Helvetica,sans-Serif" font-size="10.00">neural_activations.h</text>
</a>
</g>
</g>
<!-- Node1&#45;&gt;Node19 -->
<g id="edge35_Node000001_Node000019" class="edge">
<title>Node1&#45;&gt;Node19</title>
<g id="a_edge35_Node000001_Node000019"><a xlink:title=" ">
<path fill="none" stroke="#63b8ff" d="M607.66,-283C485.24,-281.09 113.1,-272.55 71.5,-239 58.35,-228.4 54.04,-209.08 52.75,-194.53"/>
<polygon fill="#63b8ff" stroke="#63b8ff" points="56.22,-193.95 52.25,-184.13 49.23,-194.29 56.22,-193.95"/>
</a>
</g>
</g>
<!-- Node22 -->
<g id="Node000022" class="node">
<title>Node22</title>
<g id="a_Node000022"><a xlink:href="neural__layer__connected_8h.html" target="_top" xlink:title="An implementation of a fully&#45;connected layer of perceptrons.">
<polygon fill="white" stroke="#666666" points="1252.5,-239 1124.5,-239 1124.5,-220 1252.5,-220 1252.5,-239"/>
<text text-anchor="middle" x="1188.5" y="-227" font-family="Helvetica,sans-Serif" font-size="10.00">neural_layer_connected.h</text>
</a>
</g>
</g>
<!-- Node1&#45;&gt;Node22 -->
<g id="edge36_Node000001_Node000022" class="edge">
<title>Node1&#45;&gt;Node22</title>
<g id="a_edge36_Node000001_Node000022"><a xlink:title=" ">
<path fill="none" stroke="#63b8ff" d="M685.13,-280.12C763.72,-273.17 948.11,-256.56 1114.02,-239.14"/>
<polygon fill="#63b8ff" stroke="#63b8ff" points="1114.84,-242.57 1124.41,-238.04 1114.1,-235.61 1114.84,-242.57"/>
</a>
</g>
</g>
<!-- Node23 -->
<g id="Node000023" class="node">
<title>Node23</title>
<g id="a_Node000023"><a xlink:href="neural__layer__convolutional_8h.html" target="_top" xlink:title="An implementation of a 2D convolutional layer.">
<polygon fill="white" stroke="#666666" points="316.5,-239 176.5,-239 176.5,-220 316.5,-220 316.5,-239"/>
<text text-anchor="middle" x="246.5" y="-227" font-family="Helvetica,sans-Serif" font-size="10.00">neural_layer_convolutional.h</text>
</a>
</g>
</g>
<!-- Node1&#45;&gt;Node23 -->
<g id="edge38_Node000001_Node000023" class="edge">
<title>Node1&#45;&gt;Node23</title>
<g id="a_edge38_Node000001_Node000023"><a xlink:title=" ">
<path fill="none" stroke="#63b8ff" d="M607.78,-278.37C541.65,-269.61 405.86,-251.62 320.89,-240.36"/>
<polygon fill="#63b8ff" stroke="#63b8ff" points="321.16,-236.86 310.79,-239.02 320.24,-243.8 321.16,-236.86"/>
</a>
</g>
</g>
<!-- Node24 -->
<g id="Node000024" class="node">
<title>Node24</title>
<g id="a_Node000024"><a xlink:href="neural__layer__dropout_8h.html" target="_top" xlink:title="An implementation of a dropout layer.">
<polygon fill="white" stroke="#666666" points="450,-239 335,-239 335,-220 450,-220 450,-239"/>
<text text-anchor="middle" x="392.5" y="-227" font-family="Helvetica,sans-Serif" font-size="10.00">neural_layer_dropout.h</text>
</a>
</g>
</g>
<!-- Node1&#45;&gt;Node24 -->
<g id="edge40_Node000001_Node000024" class="edge">
<title>Node1&#45;&gt;Node24</title>
<g id="a_edge40_Node000001_Node000024"><a xlink:title=" ">
<path fill="none" stroke="#63b8ff" d="M607.92,-275.45C564,-266.29 492.07,-251.28 443.53,-241.15"/>
<polygon fill="#63b8ff" stroke="#63b8ff" points="444.05,-237.68 433.55,-239.07 442.62,-244.53 444.05,-237.68"/>
</a>
</g>
</g>
<!-- Node25 -->
<g id="Node000025" class="node">
<title>Node25</title>
<g id="a_Node000025"><a xlink:href="neural__layer__lstm_8h.html" target="_top" xlink:title="An implementation of a long short&#45;term memory layer.">
<polygon fill="white" stroke="#666666" points="569,-239 468,-239 468,-220 569,-220 569,-239"/>
<text text-anchor="middle" x="518.5" y="-227" font-family="Helvetica,sans-Serif" font-size="10.00">neural_layer_lstm.h</text>
</a>
</g>
</g>
<!-- Node1&#45;&gt;Node25 -->
<g id="edge42_Node000001_Node000025" class="edge">
<title>Node1&#45;&gt;Node25</title>
<g id="a_edge42_Node000001_Node000025"><a xlink:title=" ">
<path fill="none" stroke="#63b8ff" d="M625.93,-274.98C605.07,-266.34 572.53,-252.87 548.73,-243.02"/>
<polygon fill="#63b8ff" stroke="#63b8ff" points="550.02,-239.76 539.44,-239.17 547.34,-246.23 550.02,-239.76"/>
</a>
</g>
</g>
<!-- Node26 -->
<g id="Node000026" class="node">
<title>Node26</title>
<g id="a_Node000026"><a xlink:href="neural__layer__maxpool_8h.html" target="_top" xlink:title="An implementation of a 2D maxpooling layer.">
<polygon fill="white" stroke="#666666" points="706,-239 587,-239 587,-220 706,-220 706,-239"/>
<text text-anchor="middle" x="646.5" y="-227" font-family="Helvetica,sans-Serif" font-size="10.00">neural_layer_maxpool.h</text>
</a>
</g>
</g>
<!-- Node1&#45;&gt;Node26 -->
<g id="edge44_Node000001_Node000026" class="edge">
<title>Node1&#45;&gt;Node26</title>
<g id="a_edge44_Node000001_Node000026"><a xlink:title=" ">
<path fill="none" stroke="#63b8ff" d="M646.5,-274.75C646.5,-267.8 646.5,-257.85 646.5,-249.13"/>
<polygon fill="#63b8ff" stroke="#63b8ff" points="650,-249.09 646.5,-239.09 643,-249.09 650,-249.09"/>
</a>
</g>
</g>
<!-- Node27 -->
<g id="Node000027" class="node">
<title>Node27</title>
<g id="a_Node000027"><a xlink:href="neural__layer__noise_8h.html" target="_top" xlink:title="An implementation of a Gaussian noise adding layer.">
<polygon fill="white" stroke="#666666" points="830.5,-239 724.5,-239 724.5,-220 830.5,-220 830.5,-239"/>
<text text-anchor="middle" x="777.5" y="-227" font-family="Helvetica,sans-Serif" font-size="10.00">neural_layer_noise.h</text>
</a>
</g>
</g>
<!-- Node1&#45;&gt;Node27 -->
<g id="edge46_Node000001_Node000027" class="edge">
<title>Node1&#45;&gt;Node27</title>
<g id="a_edge46_Node000001_Node000027"><a xlink:title=" ">
<path fill="none" stroke="#63b8ff" d="M667.55,-274.98C688.91,-266.34 722.2,-252.87 746.56,-243.02"/>
<polygon fill="#63b8ff" stroke="#63b8ff" points="748.11,-246.17 756.07,-239.17 745.49,-239.68 748.11,-246.17"/>
</a>
</g>
</g>
<!-- Node28 -->
<g id="Node000028" class="node">
<title>Node28</title>
<g id="a_Node000028"><a xlink:href="neural__layer__recurrent_8h.html" target="_top" xlink:title="An implementation of a recurrent layer of perceptrons.">
<polygon fill="white" stroke="#666666" points="970,-239 849,-239 849,-220 970,-220 970,-239"/>
<text text-anchor="middle" x="909.5" y="-227" font-family="Helvetica,sans-Serif" font-size="10.00">neural_layer_recurrent.h</text>
</a>
</g>
</g>
<!-- Node1&#45;&gt;Node28 -->
<g id="edge48_Node000001_Node000028" class="edge">
<title>Node1&#45;&gt;Node28</title>
<g id="a_edge48_Node000001_Node000028"><a xlink:title=" ">
<path fill="none" stroke="#63b8ff" d="M685.02,-275.74C730.5,-266.57 806.36,-251.29 857.14,-241.05"/>
<polygon fill="#63b8ff" stroke="#63b8ff" points="857.83,-244.48 866.95,-239.08 856.45,-237.62 857.83,-244.48"/>
</a>
</g>
</g>
<!-- Node29 -->
<g id="Node000029" class="node">
<title>Node29</title>
<g id="a_Node000029"><a xlink:href="neural__layer__softmax_8h.html" target="_top" xlink:title="An implementation of a softmax layer.">
<polygon fill="white" stroke="#666666" points="1106.5,-239 988.5,-239 988.5,-220 1106.5,-220 1106.5,-239"/>
<text text-anchor="middle" x="1047.5" y="-227" font-family="Helvetica,sans-Serif" font-size="10.00">neural_layer_softmax.h</text>
</a>
</g>
</g>
<!-- Node1&#45;&gt;Node29 -->
<g id="edge50_Node000001_Node000029" class="edge">
<title>Node1&#45;&gt;Node29</title>
<g id="a_edge50_Node000001_Node000029"><a xlink:title=" ">
<path fill="none" stroke="#63b8ff" d="M685.31,-278.37C753.03,-269.42 893.59,-250.84 978.31,-239.64"/>
<polygon fill="#63b8ff" stroke="#63b8ff" points="978.9,-243.1 988.36,-238.32 977.99,-236.16 978.9,-243.1"/>
</a>
</g>
</g>
<!-- Node3 -->
<g id="Node000003" class="node">
<title>Node3</title>
<g id="a_Node000003"><a xlink:href="condition_8h.html" target="_top" xlink:title="Interface for classifier conditions.">
<polygon fill="white" stroke="#666666" points="195.5,-184 131.5,-184 131.5,-165 195.5,-165 195.5,-184"/>
<text text-anchor="middle" x="163.5" y="-172" font-family="Helvetica,sans-Serif" font-size="10.00">condition.h</text>
</a>
</g>
</g>
<!-- Node2&#45;&gt;Node3 -->
<g id="edge2_Node000002_Node000003" class="edge">
<title>Node2&#45;&gt;Node3</title>
<g id="a_edge2_Node000002_Node000003"><a xlink:title=" ">
<path fill="none" stroke="#63b8ff" d="M126.77,-219.75C133.04,-212.18 142.29,-201.05 149.93,-191.84"/>
<polygon fill="#63b8ff" stroke="#63b8ff" points="152.67,-194.02 156.37,-184.09 147.29,-189.55 152.67,-194.02"/>
</a>
</g>
</g>
<!-- Node4 -->
<g id="Node000004" class="node">
<title>Node4</title>
<g id="a_Node000004"><a xlink:href="xcsf_8h.html" target="_top" xlink:title="XCSF data structures.">
<polygon fill="white" stroke="#666666" points="293.5,-129 249.5,-129 249.5,-110 293.5,-110 293.5,-129"/>
<text text-anchor="middle" x="271.5" y="-117" font-family="Helvetica,sans-Serif" font-size="10.00">xcsf.h</text>
</a>
</g>
</g>
<!-- Node2&#45;&gt;Node4 -->
<g id="edge34_Node000002_Node000004" class="edge">
<title>Node2&#45;&gt;Node4</title>
<g id="a_edge34_Node000002_Node000004"><a xlink:title=" ">
<path fill="none" stroke="#63b8ff" d="M139.64,-219.88C157.45,-211.82 183.76,-198.82 204.5,-184 224.15,-169.96 243.89,-150.44 256.8,-136.76"/>
<polygon fill="#63b8ff" stroke="#63b8ff" points="259.66,-138.81 263.89,-129.1 254.53,-134.06 259.66,-138.81"/>
</a>
</g>
</g>
<!-- Node18 -->
<g id="Node000018" class="node">
<title>Node18</title>
<g id="a_Node000018"><a xlink:href="neural_8h.html" target="_top" xlink:title="An implementation of a multi&#45;layer perceptron neural network.">
<polygon fill="white" stroke="#666666" points="570,-129 519,-129 519,-110 570,-110 570,-129"/>
<text text-anchor="middle" x="544.5" y="-117" font-family="Helvetica,sans-Serif" font-size="10.00">neural.h</text>
</a>
</g>
</g>
<!-- Node2&#45;&gt;Node18 -->
<g id="edge21_Node000002_Node000018" class="edge">
<title>Node2&#45;&gt;Node18</title>
<g id="a_edge21_Node000002_Node000018"><a xlink:title=" ">
<path fill="none" stroke="#63b8ff" d="M153.2,-219.94C232.03,-199.91 427.83,-150.15 508.69,-129.6"/>
<polygon fill="#63b8ff" stroke="#63b8ff" points="510.03,-132.87 518.86,-127.01 508.31,-126.09 510.03,-132.87"/>
</a>
</g>
</g>
<!-- Node2&#45;&gt;Node19 -->
<g id="edge28_Node000002_Node000019" class="edge">
<title>Node2&#45;&gt;Node19</title>
<g id="a_edge28_Node000002_Node000019"><a xlink:title=" ">
<path fill="none" stroke="#63b8ff" d="M108.74,-219.98C98.73,-212.07 83.61,-200.11 71.57,-190.58"/>
<polygon fill="#63b8ff" stroke="#63b8ff" points="73.47,-187.63 63.46,-184.17 69.13,-193.12 73.47,-187.63"/>
</a>
</g>
</g>
<!-- Node20 -->
<g id="Node000020" class="node">
<title>Node20</title>
<g id="a_Node000020"><a xlink:href="neural__layer_8h.html" target="_top" xlink:title="Interface for neural network layers.">
<polygon fill="white" stroke="#666666" points="677,-184 600,-184 600,-165 677,-165 677,-184"/>
<text text-anchor="middle" x="638.5" y="-172" font-family="Helvetica,sans-Serif" font-size="10.00">neural_layer.h</text>
</a>
</g>
</g>
<!-- Node2&#45;&gt;Node20 -->
<g id="edge30_Node000002_Node000020" class="edge">
<title>Node2&#45;&gt;Node20</title>
<g id="a_edge30_Node000002_Node000020"><a xlink:title=" ">
<path fill="none" stroke="#63b8ff" d="M158.23,-221.36C161.36,-220.87 164.48,-220.41 167.5,-220 321.03,-199.19 504.03,-184.89 589.71,-178.8"/>
<polygon fill="#63b8ff" stroke="#63b8ff" points="590.19,-182.27 599.92,-178.08 589.69,-175.29 590.19,-182.27"/>
</a>
</g>
</g>
<!-- Node3&#45;&gt;Node4 -->
<g id="edge3_Node000003_Node000004" class="edge">
<title>Node3&#45;&gt;Node4</title>
<g id="a_edge3_Node000003_Node000004"><a xlink:title=" ">
<path fill="none" stroke="#63b8ff" d="M180.85,-164.98C198.07,-156.54 224.7,-143.47 244.65,-133.68"/>
<polygon fill="#63b8ff" stroke="#63b8ff" points="246.4,-136.72 253.83,-129.17 243.31,-130.43 246.4,-136.72"/>
</a>
</g>
</g>
<!-- Node4&#45;&gt;Node5 -->
<g id="edge4_Node000004_Node000005" class="edge">
<title>Node4&#45;&gt;Node5</title>
<g id="a_edge4_Node000004_Node000005"><a xlink:title=" ">
<path fill="none" stroke="#63b8ff" d="M293.54,-115.26C354.99,-106.24 528.42,-80.78 600.48,-70.2"/>
<polygon fill="#63b8ff" stroke="#63b8ff" points="601.36,-73.61 610.75,-68.69 600.35,-66.68 601.36,-73.61"/>
</a>
</g>
</g>
<!-- Node8 -->
<g id="Node000008" class="node">
<title>Node8</title>
<g id="a_Node000008"><a xlink:title=" ">
<polygon fill="#e0e0e0" stroke="#999999" points="47,-19 0,-19 0,0 47,0 47,-19"/>
<text text-anchor="middle" x="23.5" y="-7" font-family="Helvetica,sans-Serif" font-size="10.00">math.h</text>
</a>
</g>
</g>
<!-- Node4&#45;&gt;Node8 -->
<g id="edge15_Node000004_Node000008" class="edge">
<title>Node4&#45;&gt;Node8</title>
<g id="a_edge15_Node000004_Node000008"><a xlink:title=" ">
<path fill="none" stroke="#63b8ff" d="M249.28,-117.06C197.87,-113.29 72.82,-101.46 42.5,-74 30.12,-62.78 25.67,-43.87 24.14,-29.59"/>
<polygon fill="#63b8ff" stroke="#63b8ff" points="27.61,-29.11 23.44,-19.37 20.63,-29.59 27.61,-29.11"/>
</a>
</g>
</g>
<!-- Node9 -->
<g id="Node000009" class="node">
<title>Node9</title>
<g id="a_Node000009"><a xlink:title=" ">
<polygon fill="#e0e0e0" stroke="#999999" points="425.5,-19 369.5,-19 369.5,0 425.5,0 425.5,-19"/>
<text text-anchor="middle" x="397.5" y="-7" font-family="Helvetica,sans-Serif" font-size="10.00">stdbool.h</text>
</a>
</g>
</g>
<!-- Node4&#45;&gt;Node9 -->
<g id="edge16_Node000004_Node000009" class="edge">
<title>Node4&#45;&gt;Node9</title>
<g id="a_edge16_Node000004_Node000009"><a xlink:title=" ">
<path fill="none" stroke="#63b8ff" d="M293.12,-109.86C310.47,-102.21 334.78,-89.81 352.5,-74 367.27,-60.83 379.87,-41.95 387.94,-28.2"/>
<polygon fill="#63b8ff" stroke="#63b8ff" points="391.13,-29.68 392.99,-19.25 385.03,-26.24 391.13,-29.68"/>
</a>
</g>
</g>
<!-- Node10 -->
<g id="Node000010" class="node">
<title>Node10</title>
<g id="a_Node000010"><a xlink:title=" ">
<polygon fill="#e0e0e0" stroke="#999999" points="753.5,-19 707.5,-19 707.5,0 753.5,0 753.5,-19"/>
<text text-anchor="middle" x="730.5" y="-7" font-family="Helvetica,sans-Serif" font-size="10.00">stdio.h</text>
</a>
</g>
</g>
<!-- Node4&#45;&gt;Node10 -->
<g id="edge18_Node000004_Node000010" class="edge">
<title>Node4&#45;&gt;Node10</title>
<g id="a_edge18_Node000004_Node000010"><a xlink:title=" ">
<path fill="none" stroke="#63b8ff" d="M293.56,-117.82C366.16,-115.32 596.83,-105.05 663.5,-74 686.09,-63.48 705.95,-42.32 718.07,-27.32"/>
<polygon fill="#63b8ff" stroke="#63b8ff" points="720.91,-29.37 724.27,-19.32 715.38,-25.08 720.91,-29.37"/>
</a>
</g>
</g>
<!-- Node11 -->
<g id="Node000011" class="node">
<title>Node11</title>
<g id="a_Node000011"><a xlink:title=" ">
<polygon fill="#e0e0e0" stroke="#999999" points="351.5,-19 303.5,-19 303.5,0 351.5,0 351.5,-19"/>
<text text-anchor="middle" x="327.5" y="-7" font-family="Helvetica,sans-Serif" font-size="10.00">stdlib.h</text>
</a>
</g>
</g>
<!-- Node4&#45;&gt;Node11 -->
<g id="edge19_Node000004_Node000011" class="edge">
<title>Node4&#45;&gt;Node11</title>
<g id="a_edge19_Node000004_Node000011"><a xlink:title=" ">
<path fill="none" stroke="#63b8ff" d="M272.94,-109.86C275.3,-97.23 280.71,-73.25 290.5,-55 296,-44.75 304.09,-34.67 311.31,-26.7"/>
<polygon fill="#63b8ff" stroke="#63b8ff" points="314.03,-28.91 318.36,-19.24 308.95,-24.1 314.03,-28.91"/>
</a>
</g>
</g>
<!-- Node12 -->
<g id="Node000012" class="node">
<title>Node12</title>
<g id="a_Node000012"><a xlink:title=" ">
<polygon fill="#e0e0e0" stroke="#999999" points="243,-74 196,-74 196,-55 243,-55 243,-74"/>
<text text-anchor="middle" x="219.5" y="-62" font-family="Helvetica,sans-Serif" font-size="10.00">errno.h</text>
</a>
</g>
</g>
<!-- Node4&#45;&gt;Node12 -->
<g id="edge11_Node000004_Node000012" class="edge">
<title>Node4&#45;&gt;Node12</title>
<g id="a_edge11_Node000004_Node000012"><a xlink:title=" ">
<path fill="none" stroke="#63b8ff" d="M262.91,-109.75C255.34,-102.03 244.12,-90.6 234.99,-81.28"/>
<polygon fill="#63b8ff" stroke="#63b8ff" points="237.43,-78.78 227.93,-74.09 232.43,-83.68 237.43,-78.78"/>
</a>
</g>
</g>
<!-- Node13 -->
<g id="Node000013" class="node">
<title>Node13</title>
<g id="a_Node000013"><a xlink:title=" ">
<polygon fill="#e0e0e0" stroke="#999999" points="343.5,-74 299.5,-74 299.5,-55 343.5,-55 343.5,-74"/>
<text text-anchor="middle" x="321.5" y="-62" font-family="Helvetica,sans-Serif" font-size="10.00">float.h</text>
</a>
</g>
</g>
<!-- Node4&#45;&gt;Node13 -->
<g id="edge12_Node000004_Node000013" class="edge">
<title>Node4&#45;&gt;Node13</title>
<g id="a_edge12_Node000004_Node000013"><a xlink:title=" ">
<path fill="none" stroke="#63b8ff" d="M279.76,-109.75C286.96,-102.11 297.61,-90.82 306.35,-81.56"/>
<polygon fill="#63b8ff" stroke="#63b8ff" points="309.08,-83.76 313.4,-74.09 303.99,-78.96 309.08,-83.76"/>
</a>
</g>
</g>
<!-- Node14 -->
<g id="Node000014" class="node">
<title>Node14</title>
<g id="a_Node000014"><a xlink:title=" ">
<polygon fill="#e0e0e0" stroke="#999999" points="111,-74 52,-74 52,-55 111,-55 111,-74"/>
<text text-anchor="middle" x="81.5" y="-62" font-family="Helvetica,sans-Serif" font-size="10.00">inttypes.h</text>
</a>
</g>
</g>
<!-- Node4&#45;&gt;Node14 -->
<g id="edge13_Node000004_Node000014" class="edge">
<title>Node4&#45;&gt;Node14</title>
<g id="a_edge13_Node000004_Node000014"><a xlink:title=" ">
<path fill="none" stroke="#63b8ff" d="M249.33,-112.32C217.97,-103.57 160.15,-87.44 121.25,-76.59"/>
<polygon fill="#63b8ff" stroke="#63b8ff" points="121.89,-73.13 111.31,-73.82 120,-79.87 121.89,-73.13"/>
</a>
</g>
</g>
<!-- Node15 -->
<g id="Node000015" class="node">
<title>Node15</title>
<g id="a_Node000015"><a xlink:title=" ">
<polygon fill="#e0e0e0" stroke="#999999" points="177.5,-74 129.5,-74 129.5,-55 177.5,-55 177.5,-74"/>
<text text-anchor="middle" x="153.5" y="-62" font-family="Helvetica,sans-Serif" font-size="10.00">limits.h</text>
</a>
</g>
</g>
<!-- Node4&#45;&gt;Node15 -->
<g id="edge14_Node000004_Node000015" class="edge">
<title>Node4&#45;&gt;Node15</title>
<g id="a_edge14_Node000004_Node000015"><a xlink:title=" ">
<path fill="none" stroke="#63b8ff" d="M252.54,-109.98C233.47,-101.42 203.84,-88.11 181.95,-78.28"/>
<polygon fill="#63b8ff" stroke="#63b8ff" points="183.36,-75.07 172.8,-74.17 180.49,-81.46 183.36,-75.07"/>
</a>
</g>
</g>
<!-- Node16 -->
<g id="Node000016" class="node">
<title>Node16</title>
<g id="a_Node000016"><a xlink:title=" ">
<polygon fill="#e0e0e0" stroke="#999999" points="516,-74 467,-74 467,-55 516,-55 516,-74"/>
<text text-anchor="middle" x="491.5" y="-62" font-family="Helvetica,sans-Serif" font-size="10.00">stdint.h</text>
</a>
</g>
</g>
<!-- Node4&#45;&gt;Node16 -->
<g id="edge17_Node000004_Node000016" class="edge">
<title>Node4&#45;&gt;Node16</title>
<g id="a_edge17_Node000004_Node000016"><a xlink:title=" ">
<path fill="none" stroke="#63b8ff" d="M293.56,-113.3C326.71,-105.47 391.57,-90.08 456.93,-74.12"/>
<polygon fill="#63b8ff" stroke="#63b8ff" points="458.11,-77.43 466.99,-71.66 456.45,-70.63 458.11,-77.43"/>
</a>
</g>
</g>
<!-- Node17 -->
<g id="Node000017" class="node">
<title>Node17</title>
<g id="a_Node000017"><a xlink:title=" ">
<polygon fill="#e0e0e0" stroke="#999999" points="449,-74 400,-74 400,-55 449,-55 449,-74"/>
<text text-anchor="middle" x="424.5" y="-62" font-family="Helvetica,sans-Serif" font-size="10.00">string.h</text>
</a>
</g>
</g>
<!-- Node4&#45;&gt;Node17 -->
<g id="edge20_Node000004_Node000017" class="edge">
<title>Node4&#45;&gt;Node17</title>
<g id="a_edge20_Node000004_Node000017"><a xlink:title=" ">
<path fill="none" stroke="#63b8ff" d="M293.75,-110.79C319.14,-102 360.96,-87.51 390.46,-77.29"/>
<polygon fill="#63b8ff" stroke="#63b8ff" points="391.64,-80.59 399.95,-74.01 389.35,-73.97 391.64,-80.59"/>
</a>
</g>
</g>
<!-- Node6 -->
<g id="Node000006" class="node">
<title>Node6</title>
<g id="a_Node000006"><a xlink:title=" ">
<polygon fill="#e0e0e0" stroke="#999999" points="557.5,-19 443.5,-19 443.5,0 557.5,0 557.5,-19"/>
<text text-anchor="middle" x="500.5" y="-7" font-family="Helvetica,sans-Serif" font-size="10.00">../lib/cJSON/cJSON.h</text>
</a>
</g>
</g>
<!-- Node5&#45;&gt;Node6 -->
<g id="edge5_Node000005_Node000006" class="edge">
<title>Node5&#45;&gt;Node6</title>
<g id="a_edge5_Node000005_Node000006"><a xlink:title=" ">
<path fill="none" stroke="#63b8ff" d="M611.29,-54.98C589.77,-46.34 556.22,-32.87 531.67,-23.02"/>
<polygon fill="#63b8ff" stroke="#63b8ff" points="532.68,-19.65 522.09,-19.17 530.07,-26.14 532.68,-19.65"/>
</a>
</g>
</g>
<!-- Node7 -->
<g id="Node000007" class="node">
<title>Node7</title>
<g id="a_Node000007"><a xlink:title=" ">
<polygon fill="#e0e0e0" stroke="#999999" points="689,-19 576,-19 576,0 689,0 689,-19"/>
<text text-anchor="middle" x="632.5" y="-7" font-family="Helvetica,sans-Serif" font-size="10.00">../lib/dSFMT/dSFMT.h</text>
</a>
</g>
</g>
<!-- Node5&#45;&gt;Node7 -->
<g id="edge6_Node000005_Node000007" class="edge">
<title>Node5&#45;&gt;Node7</title>
<g id="a_edge6_Node000005_Node000007"><a xlink:title=" ">
<path fill="none" stroke="#63b8ff" d="M632.5,-54.75C632.5,-47.8 632.5,-37.85 632.5,-29.13"/>
<polygon fill="#63b8ff" stroke="#63b8ff" points="636,-29.09 632.5,-19.09 629,-29.09 636,-29.09"/>
</a>
</g>
</g>
<!-- Node5&#45;&gt;Node8 -->
<g id="edge7_Node000005_Node000008" class="edge">
<title>Node5&#45;&gt;Node8</title>
<g id="a_edge7_Node000005_Node000008"><a xlink:title=" ">
<path fill="none" stroke="#63b8ff" d="M610.83,-61.61C519.88,-53.7 168.68,-23.13 57.47,-13.46"/>
<polygon fill="#63b8ff" stroke="#63b8ff" points="57.45,-9.94 47.18,-12.56 56.84,-16.91 57.45,-9.94"/>
</a>
</g>
</g>
<!-- Node5&#45;&gt;Node9 -->
<g id="edge8_Node000005_Node000009" class="edge">
<title>Node5&#45;&gt;Node9</title>
<g id="a_edge8_Node000005_Node000009"><a xlink:title=" ">
<path fill="none" stroke="#63b8ff" d="M610.81,-58.33C606.09,-57.22 601.13,-56.06 596.5,-55 527.7,-39.23 508.1,-35.56 435.84,-19.29"/>
<polygon fill="#63b8ff" stroke="#63b8ff" points="436.3,-15.81 425.78,-17.02 434.76,-22.63 436.3,-15.81"/>
</a>
</g>
</g>
<!-- Node5&#45;&gt;Node10 -->
<g id="edge9_Node000005_Node000010" class="edge">
<title>Node5&#45;&gt;Node10</title>
<g id="a_edge9_Node000005_Node000010"><a xlink:title=" ">
<path fill="none" stroke="#63b8ff" d="M648.25,-54.98C663.73,-46.61 687.59,-33.7 705.64,-23.95"/>
<polygon fill="#63b8ff" stroke="#63b8ff" points="707.34,-27.01 714.47,-19.17 704.01,-20.85 707.34,-27.01"/>
</a>
</g>
</g>
<!-- Node5&#45;&gt;Node11 -->
<g id="edge10_Node000005_Node000011" class="edge">
<title>Node5&#45;&gt;Node11</title>
<g id="a_edge10_Node000005_Node000011"><a xlink:title=" ">
<path fill="none" stroke="#63b8ff" d="M610.87,-60.64C566.15,-54.57 460.11,-39.45 361.42,-19.03"/>
<polygon fill="#63b8ff" stroke="#63b8ff" points="362.1,-15.59 351.59,-16.97 360.66,-22.45 362.1,-15.59"/>
</a>
</g>
</g>
<!-- Node18&#45;&gt;Node5 -->
<g id="edge22_Node000018_Node000005" class="edge">
<title>Node18&#45;&gt;Node5</title>
<g id="a_edge22_Node000018_Node000005"><a xlink:title=" ">
<path fill="none" stroke="#63b8ff" d="M558.64,-109.98C572.29,-101.77 593.19,-89.18 609.28,-79.49"/>
<polygon fill="#63b8ff" stroke="#63b8ff" points="611.34,-82.33 618.1,-74.17 607.73,-76.33 611.34,-82.33"/>
</a>
</g>
</g>
<!-- Node18&#45;&gt;Node9 -->
<g id="edge23_Node000018_Node000009" class="edge">
<title>Node18&#45;&gt;Node9</title>
<g id="a_edge23_Node000018_Node000009"><a xlink:title=" ">
<path fill="none" stroke="#63b8ff" d="M550.45,-109.75C558.62,-96.55 570.94,-71.35 558.5,-55 554.69,-49.99 481.88,-31.28 435.5,-19.78"/>
<polygon fill="#63b8ff" stroke="#63b8ff" points="436.3,-16.37 425.75,-17.37 434.62,-23.17 436.3,-16.37"/>
</a>
</g>
</g>
<!-- Node18&#45;&gt;Node10 -->
<g id="edge25_Node000018_Node000010" class="edge">
<title>Node18&#45;&gt;Node10</title>
<g id="a_edge25_Node000018_Node000010"><a xlink:title=" ">
<path fill="none" stroke="#63b8ff" d="M570.09,-111.73C612.8,-100.36 694.45,-78.24 699.5,-74 713.28,-62.44 721.44,-43.29 725.91,-29.04"/>
<polygon fill="#63b8ff" stroke="#63b8ff" points="729.31,-29.87 728.63,-19.3 722.56,-27.99 729.31,-29.87"/>
</a>
</g>
</g>
<!-- Node18&#45;&gt;Node11 -->
<g id="edge26_Node000018_Node000011" class="edge">
<title>Node18&#45;&gt;Node11</title>
<g id="a_edge26_Node000018_Node000011"><a xlink:title=" ">
<path fill="none" stroke="#63b8ff" d="M544.37,-109.66C543.66,-95.88 540.19,-69.35 524.5,-55 471.69,-6.7 436.1,-33.85 361.43,-18.97"/>
<polygon fill="#63b8ff" stroke="#63b8ff" points="362.14,-15.54 351.63,-16.82 360.64,-22.38 362.14,-15.54"/>
</a>
</g>
</g>
<!-- Node18&#45;&gt;Node16 -->
<g id="edge24_Node000018_Node000016" class="edge">
<title>Node18&#45;&gt;Node16</title>
<g id="a_edge24_Node000018_Node000016"><a xlink:title=" ">
<path fill="none" stroke="#63b8ff" d="M535.75,-109.75C528.03,-102.03 516.6,-90.6 507.28,-81.28"/>
<polygon fill="#63b8ff" stroke="#63b8ff" points="509.64,-78.69 500.09,-74.09 504.69,-83.64 509.64,-78.69"/>
</a>
</g>
</g>
<!-- Node18&#45;&gt;Node17 -->
<g id="edge27_Node000018_Node000017" class="edge">
<title>Node18&#45;&gt;Node17</title>
<g id="a_edge27_Node000018_Node000017"><a xlink:title=" ">
<path fill="none" stroke="#63b8ff" d="M525.22,-109.98C505.83,-101.42 475.69,-88.11 453.43,-78.28"/>
<polygon fill="#63b8ff" stroke="#63b8ff" points="454.69,-75.01 444.13,-74.17 451.86,-81.41 454.69,-75.01"/>
</a>
</g>
</g>
<!-- Node19&#45;&gt;Node8 -->
<g id="edge29_Node000019_Node000008" class="edge">
<title>Node19&#45;&gt;Node8</title>
<g id="a_edge29_Node000019_Node000008"><a xlink:title=" ">
<path fill="none" stroke="#63b8ff" d="M49.75,-164.83C44.43,-147.68 32.82,-108.14 27.5,-74 25.18,-59.13 24.2,-42.09 23.79,-29.41"/>
<polygon fill="#63b8ff" stroke="#63b8ff" points="27.28,-29.1 23.54,-19.18 20.28,-29.26 27.28,-29.1"/>
</a>
</g>
</g>
<!-- Node20&#45;&gt;Node18 -->
<g id="edge31_Node000020_Node000018" class="edge">
<title>Node20&#45;&gt;Node18</title>
<g id="a_edge31_Node000020_Node000018"><a xlink:title=" ">
<path fill="none" stroke="#63b8ff" d="M623.4,-164.98C608.68,-156.69 586.08,-143.94 568.83,-134.22"/>
<polygon fill="#63b8ff" stroke="#63b8ff" points="570.31,-131.03 559.88,-129.17 566.87,-137.13 570.31,-131.03"/>
</a>
</g>
</g>
<!-- Node21 -->
<g id="Node000021" class="node">
<title>Node21</title>
<g id="a_Node000021"><a xlink:href="neural__layer__args_8h.html" target="_top" xlink:title="Functions operating on neural network arguments/constants.">
<polygon fill="white" stroke="#666666" points="689,-129 588,-129 588,-110 689,-110 689,-129"/>
<text text-anchor="middle" x="638.5" y="-117" font-family="Helvetica,sans-Serif" font-size="10.00">neural_layer_args.h</text>
</a>
</g>
</g>
<!-- Node20&#45;&gt;Node21 -->
<g id="edge32_Node000020_Node000021" class="edge">
<title>Node20&#45;&gt;Node21</title>
<g id="a_edge32_Node000020_Node000021"><a xlink:title=" ">
<path fill="none" stroke="#63b8ff" d="M638.5,-164.75C638.5,-157.8 638.5,-147.85 638.5,-139.13"/>
<polygon fill="#63b8ff" stroke="#63b8ff" points="642,-139.09 638.5,-129.09 635,-139.09 642,-139.09"/>
</a>
</g>
</g>
<!-- Node21&#45;&gt;Node5 -->
<g id="edge33_Node000021_Node000005" class="edge">
<title>Node21&#45;&gt;Node5</title>
<g id="a_edge33_Node000021_Node000005"><a xlink:title=" ">
<path fill="none" stroke="#63b8ff" d="M637.51,-109.75C636.72,-102.8 635.6,-92.85 634.61,-84.13"/>
<polygon fill="#63b8ff" stroke="#63b8ff" points="638.08,-83.63 633.47,-74.09 631.12,-84.42 638.08,-83.63"/>
</a>
</g>
</g>
<!-- Node22&#45;&gt;Node20 -->
<g id="edge37_Node000022_Node000020" class="edge">
<title>Node22&#45;&gt;Node20</title>
<g id="a_edge37_Node000022_Node000020"><a xlink:title=" ">
<path fill="none" stroke="#63b8ff" d="M1124.42,-220.95C1121.4,-220.63 1118.42,-220.31 1115.5,-220 959.11,-203.6 773.55,-187.15 687.2,-179.67"/>
<polygon fill="#63b8ff" stroke="#63b8ff" points="687.44,-176.18 677.17,-178.81 686.83,-183.15 687.44,-176.18"/>
</a>
</g>
</g>
<!-- Node23&#45;&gt;Node20 -->
<g id="edge39_Node000023_Node000020" class="edge">
<title>Node23&#45;&gt;Node20</title>
<g id="a_edge39_Node000023_Node000020"><a xlink:title=" ">
<path fill="none" stroke="#63b8ff" d="M309.48,-219.98C387.56,-209.43 518.96,-191.66 589.77,-182.09"/>
<polygon fill="#63b8ff" stroke="#63b8ff" points="590.33,-185.55 599.77,-180.74 589.39,-178.61 590.33,-185.55"/>
</a>
</g>
</g>
<!-- Node24&#45;&gt;Node20 -->
<g id="edge41_Node000024_Node000020" class="edge">
<title>Node24&#45;&gt;Node20</title>
<g id="a_edge41_Node000024_Node000020"><a xlink:title=" ">
<path fill="none" stroke="#63b8ff" d="M432.02,-219.98C475.05,-210.72 543.86,-195.89 590.09,-185.93"/>
<polygon fill="#63b8ff" stroke="#63b8ff" points="590.85,-189.35 599.88,-183.82 589.37,-182.5 590.85,-189.35"/>
</a>
</g>
</g>
<!-- Node25&#45;&gt;Node20 -->
<g id="edge43_Node000025_Node000020" class="edge">
<title>Node25&#45;&gt;Node20</title>
<g id="a_edge43_Node000025_Node000020"><a xlink:title=" ">
<path fill="none" stroke="#63b8ff" d="M537.78,-219.98C557.17,-211.42 587.31,-198.11 609.57,-188.28"/>
<polygon fill="#63b8ff" stroke="#63b8ff" points="611.14,-191.41 618.87,-184.17 608.31,-185.01 611.14,-191.41"/>
</a>
</g>
</g>
<!-- Node26&#45;&gt;Node20 -->
<g id="edge45_Node000026_Node000020" class="edge">
<title>Node26&#45;&gt;Node20</title>
<g id="a_edge45_Node000026_Node000020"><a xlink:title=" ">
<path fill="none" stroke="#63b8ff" d="M645.18,-219.75C644.13,-212.8 642.63,-202.85 641.31,-194.13"/>
<polygon fill="#63b8ff" stroke="#63b8ff" points="644.75,-193.45 639.8,-184.09 637.83,-194.5 644.75,-193.45"/>
</a>
</g>
</g>
<!-- Node27&#45;&gt;Node20 -->
<g id="edge47_Node000027_Node000020" class="edge">
<title>Node27&#45;&gt;Node20</title>
<g id="a_edge47_Node000027_Node000020"><a xlink:title=" ">
<path fill="none" stroke="#63b8ff" d="M755.17,-219.98C732.3,-211.27 696.54,-197.63 670.64,-187.75"/>
<polygon fill="#63b8ff" stroke="#63b8ff" points="671.83,-184.46 661.24,-184.17 669.34,-191 671.83,-184.46"/>
</a>
</g>
</g>
<!-- Node28&#45;&gt;Node20 -->
<g id="edge49_Node000028_Node000020" class="edge">
<title>Node28&#45;&gt;Node20</title>
<g id="a_edge49_Node000028_Node000020"><a xlink:title=" ">
<path fill="none" stroke="#63b8ff" d="M865.96,-219.98C817.11,-210.43 738.06,-194.97 687.2,-185.02"/>
<polygon fill="#63b8ff" stroke="#63b8ff" points="687.59,-181.53 677.11,-183.05 686.25,-188.4 687.59,-181.53"/>
</a>
</g>
</g>
<!-- Node29&#45;&gt;Node20 -->
<g id="edge51_Node000029_Node000020" class="edge">
<title>Node29&#45;&gt;Node20</title>
<g id="a_edge51_Node000029_Node000020"><a xlink:title=" ">
<path fill="none" stroke="#63b8ff" d="M988.46,-220.85C907.33,-210.34 762.87,-191.62 687.43,-181.84"/>
<polygon fill="#63b8ff" stroke="#63b8ff" points="687.62,-178.34 677.25,-180.52 686.72,-185.28 687.62,-178.34"/>
</a>
</g>
</g>
</g>
</svg>
