<?xml version="1.0" encoding="UTF-8" standalone="no"?>
<!DOCTYPE svg PUBLIC "-//W3C//DTD SVG 1.1//EN"
 "http://www.w3.org/Graphics/SVG/1.1/DTD/svg11.dtd">
<!-- Generated by graphviz version 2.43.0 (0)
 -->
<!-- Title: cond_param_json_import_csr Pages: 1 -->
<svg width="332pt" height="249pt"
 viewBox="0.00 0.00 332.00 249.00" xmlns="http://www.w3.org/2000/svg" xmlns:xlink="http://www.w3.org/1999/xlink">
<g id="graph0" class="graph" transform="scale(1 1) rotate(0) translate(4 245)">
<title>cond_param_json_import_csr</title>
<!-- Node1 -->
<g id="Node000001" class="node">
<title>Node1</title>
<g id="a_Node000001"><a xlink:title="Sets the center&#45;spread parameters from a cJSON object.">
<polygon fill="#999999" stroke="#666666" points="144,-130 0,-130 0,-111 144,-111 144,-130"/>
<text text-anchor="middle" x="72" y="-118" font-family="Helvetica,sans-Serif" font-size="10.00">cond_param_json_import_csr</text>
</a>
</g>
</g>
<!-- Node2 -->
<g id="Node000002" class="node">
<title>Node2</title>
<g id="a_Node000002"><a xlink:href="condition_8c.html#afba6bf151b5efdac267a5acea6ec6f98" target="_top" xlink:title=" ">
<polygon fill="white" stroke="#666666" points="305.5,-241 198.5,-241 198.5,-222 305.5,-222 305.5,-241"/>
<text text-anchor="middle" x="252" y="-229" font-family="Helvetica,sans-Serif" font-size="10.00">cond_param_set_eta</text>
</a>
</g>
</g>
<!-- Node1&#45;&gt;Node2 -->
<g id="edge1_Node000001_Node000002" class="edge">
<title>Node1&#45;&gt;Node2</title>
<g id="a_edge1_Node000001_Node000002"><a xlink:title=" ">
<path fill="none" stroke="#63b8ff" d="M81.09,-130.04C97.65,-148.94 137.47,-191.26 180,-213.5 183.68,-215.42 187.57,-217.15 191.56,-218.69"/>
<polygon fill="#63b8ff" stroke="#63b8ff" points="190.42,-222 201.01,-221.99 192.72,-215.39 190.42,-222"/>
</a>
</g>
</g>
<!-- Node3 -->
<g id="Node000003" class="node">
<title>Node3</title>
<g id="a_Node000003"><a xlink:href="condition_8c.html#a96145ee4b72dff5896f1d441501f788b" target="_top" xlink:title=" ">
<polygon fill="white" stroke="#666666" points="308.5,-204 195.5,-204 195.5,-185 308.5,-185 308.5,-204"/>
<text text-anchor="middle" x="252" y="-192" font-family="Helvetica,sans-Serif" font-size="10.00">cond_param_set_max</text>
</a>
</g>
</g>
<!-- Node1&#45;&gt;Node3 -->
<g id="edge2_Node000001_Node000003" class="edge">
<title>Node1&#45;&gt;Node3</title>
<g id="a_edge2_Node000001_Node000003"><a xlink:title=" ">
<path fill="none" stroke="#63b8ff" d="M88.41,-130.05C108.74,-142.28 145.92,-163.47 180,-176.5 185.4,-178.57 191.13,-180.47 196.89,-182.19"/>
<polygon fill="#63b8ff" stroke="#63b8ff" points="195.99,-185.58 206.57,-184.94 197.9,-178.84 195.99,-185.58"/>
</a>
</g>
</g>
<!-- Node4 -->
<g id="Node000004" class="node">
<title>Node4</title>
<g id="a_Node000004"><a xlink:href="condition_8c.html#a76bc79f6e7f0ad3c034ef9c66b987dfd" target="_top" xlink:title=" ">
<polygon fill="white" stroke="#666666" points="307,-167 197,-167 197,-148 307,-148 307,-167"/>
<text text-anchor="middle" x="252" y="-155" font-family="Helvetica,sans-Serif" font-size="10.00">cond_param_set_min</text>
</a>
</g>
</g>
<!-- Node1&#45;&gt;Node4 -->
<g id="edge3_Node000001_Node000004" class="edge">
<title>Node1&#45;&gt;Node4</title>
<g id="a_edge3_Node000001_Node000004"><a xlink:title=" ">
<path fill="none" stroke="#63b8ff" d="M118.84,-130.03C142.11,-134.86 170.57,-140.78 195.11,-145.88"/>
<polygon fill="#63b8ff" stroke="#63b8ff" points="194.5,-149.33 205.01,-147.94 195.93,-142.48 194.5,-149.33"/>
</a>
</g>
</g>
<!-- Node5 -->
<g id="Node000005" class="node">
<title>Node5</title>
<g id="a_Node000005"><a xlink:href="condition_8c.html#aa8fc5c4ed13a43cfc295e66c9d1ef175" target="_top" xlink:title=" ">
<polygon fill="white" stroke="#666666" points="305.5,-130 198.5,-130 198.5,-111 305.5,-111 305.5,-130"/>
<text text-anchor="middle" x="252" y="-118" font-family="Helvetica,sans-Serif" font-size="10.00">cond_param_set_mu</text>
</a>
</g>
</g>
<!-- Node1&#45;&gt;Node5 -->
<g id="edge4_Node000001_Node000005" class="edge">
<title>Node1&#45;&gt;Node5</title>
<g id="a_edge4_Node000001_Node000005"><a xlink:title=" ">
<path fill="none" stroke="#63b8ff" d="M144.12,-120.5C158.69,-120.5 173.93,-120.5 188.18,-120.5"/>
<polygon fill="#63b8ff" stroke="#63b8ff" points="188.37,-124 198.36,-120.5 188.36,-117 188.37,-124"/>
</a>
</g>
</g>
<!-- Node6 -->
<g id="Node000006" class="node">
<title>Node6</title>
<g id="a_Node000006"><a xlink:href="condition_8c.html#aa1c7cc2fe3622079f56f4aa822aa4567" target="_top" xlink:title=" ">
<polygon fill="white" stroke="#666666" points="311,-93 193,-93 193,-74 311,-74 311,-93"/>
<text text-anchor="middle" x="252" y="-81" font-family="Helvetica,sans-Serif" font-size="10.00">cond_param_set_p_mu</text>
</a>
</g>
</g>
<!-- Node1&#45;&gt;Node6 -->
<g id="edge5_Node000001_Node000006" class="edge">
<title>Node1&#45;&gt;Node6</title>
<g id="a_edge5_Node000001_Node000006"><a xlink:title=" ">
<path fill="none" stroke="#63b8ff" d="M118.84,-110.97C142.11,-106.14 170.57,-100.22 195.11,-95.12"/>
<polygon fill="#63b8ff" stroke="#63b8ff" points="195.93,-98.52 205.01,-93.06 194.5,-91.67 195.93,-98.52"/>
</a>
</g>
</g>
<!-- Node7 -->
<g id="Node000007" class="node">
<title>Node7</title>
<g id="a_Node000007"><a xlink:href="condition_8c.html#a5be18d5696ede2ac15242a5b969b815b" target="_top" xlink:title=" ">
<polygon fill="white" stroke="#666666" points="308.5,-56 195.5,-56 195.5,-37 308.5,-37 308.5,-56"/>
<text text-anchor="middle" x="252" y="-44" font-family="Helvetica,sans-Serif" font-size="10.00">cond_param_set_sam</text>
</a>
</g>
</g>
<!-- Node1&#45;&gt;Node7 -->
<g id="edge6_Node000001_Node000007" class="edge">
<title>Node1&#45;&gt;Node7</title>
<g id="a_edge6_Node000001_Node000007"><a xlink:title=" ">
<path fill="none" stroke="#63b8ff" d="M89.17,-110.8C109.7,-98.81 146.48,-78.43 180,-65.5 186.24,-63.09 192.9,-60.88 199.55,-58.87"/>
<polygon fill="#63b8ff" stroke="#63b8ff" points="200.58,-62.22 209.23,-56.09 198.65,-55.49 200.58,-62.22"/>
</a>
</g>
</g>
<!-- Node8 -->
<g id="Node000008" class="node">
<title>Node8</title>
<g id="a_Node000008"><a xlink:href="condition_8c.html#a508893aeed24ea2c0eab380f49b05f8b" target="_top" xlink:title=" ">
<polygon fill="white" stroke="#666666" points="324,-19 180,-19 180,0 324,0 324,-19"/>
<text text-anchor="middle" x="252" y="-7" font-family="Helvetica,sans-Serif" font-size="10.00">cond_param_set_spread_min</text>
</a>
</g>
</g>
<!-- Node1&#45;&gt;Node8 -->
<g id="edge7_Node000001_Node000008" class="edge">
<title>Node1&#45;&gt;Node8</title>
<g id="a_edge7_Node000001_Node000008"><a xlink:title=" ">
<path fill="none" stroke="#63b8ff" d="M81.39,-110.83C98.19,-92.08 137.97,-50.69 180,-28.5 184.29,-26.24 188.87,-24.23 193.56,-22.44"/>
<polygon fill="#63b8ff" stroke="#63b8ff" points="194.96,-25.66 203.28,-19.1 192.69,-19.04 194.96,-25.66"/>
</a>
</g>
</g>
</g>
</svg>
