<?xml version="1.0" encoding="UTF-8" standalone="no"?>
<!DOCTYPE svg PUBLIC "-//W3C//DTD SVG 1.1//EN"
 "http://www.w3.org/Graphics/SVG/1.1/DTD/svg11.dtd">
<!-- Generated by graphviz version 2.43.0 (0)
 -->
<!-- Title: cond_ternary_param_defaults Pages: 1 -->
<svg width="291pt" height="64pt"
 viewBox="0.00 0.00 291.00 64.00" xmlns="http://www.w3.org/2000/svg" xmlns:xlink="http://www.w3.org/1999/xlink">
<g id="graph0" class="graph" transform="scale(1 1) rotate(0) translate(4 60)">
<title>cond_ternary_param_defaults</title>
<!-- Node1 -->
<g id="Node000001" class="node">
<title>Node1</title>
<g id="a_Node000001"><a xlink:title="Initialises default ternary condition parameters.">
<polygon fill="#999999" stroke="#666666" points="105,-42.5 0,-42.5 0,-12.5 105,-12.5 105,-42.5"/>
<text text-anchor="start" x="8" y="-30.5" font-family="Helvetica,sans-Serif" font-size="10.00">cond_ternary_param</text>
<text text-anchor="middle" x="52.5" y="-19.5" font-family="Helvetica,sans-Serif" font-size="10.00">_defaults</text>
</a>
</g>
</g>
<!-- Node2 -->
<g id="Node000002" class="node">
<title>Node2</title>
<g id="a_Node000002"><a xlink:href="condition_8c.html#a6d08714de7bb2d395de2a8171635afac" target="_top" xlink:title=" ">
<polygon fill="white" stroke="#666666" points="267,-56 157,-56 157,-37 267,-37 267,-56"/>
<text text-anchor="middle" x="212" y="-44" font-family="Helvetica,sans-Serif" font-size="10.00">cond_param_set_bits</text>
</a>
</g>
</g>
<!-- Node1&#45;&gt;Node2 -->
<g id="edge1_Node000001_Node000002" class="edge">
<title>Node1&#45;&gt;Node2</title>
<g id="a_edge1_Node000001_Node000002"><a xlink:title=" ">
<path fill="none" stroke="#63b8ff" d="M105.07,-33.72C118.43,-35.33 132.97,-37.09 146.88,-38.77"/>
<polygon fill="#63b8ff" stroke="#63b8ff" points="146.53,-42.25 156.88,-39.97 147.37,-35.3 146.53,-42.25"/>
</a>
</g>
</g>
<!-- Node3 -->
<g id="Node000003" class="node">
<title>Node3</title>
<g id="a_Node000003"><a xlink:href="condition_8c.html#a95e3f93f8f4d82e7a6f5ef3b7a6a71ef" target="_top" xlink:title=" ">
<polygon fill="white" stroke="#666666" points="283,-19 141,-19 141,0 283,0 283,-19"/>
<text text-anchor="middle" x="212" y="-7" font-family="Helvetica,sans-Serif" font-size="10.00">cond_param_set_p_dontcare</text>
</a>
</g>
</g>
<!-- Node1&#45;&gt;Node3 -->
<g id="edge2_Node000001_Node000003" class="edge">
<title>Node1&#45;&gt;Node3</title>
<g id="a_edge2_Node000001_Node000003"><a xlink:title=" ">
<path fill="none" stroke="#63b8ff" d="M105.07,-21.61C113.26,-20.67 121.9,-19.68 130.56,-18.69"/>
<polygon fill="#63b8ff" stroke="#63b8ff" points="131.18,-22.15 140.72,-17.53 130.38,-15.19 131.18,-22.15"/>
</a>
</g>
</g>
</g>
</svg>
