<?xml version="1.0" encoding="UTF-8" standalone="no"?>
<!DOCTYPE svg PUBLIC "-//W3C//DTD SVG 1.1//EN"
 "http://www.w3.org/Graphics/SVG/1.1/DTD/svg11.dtd">
<!-- Generated by graphviz version 2.43.0 (0)
 -->
<!-- Title: cond_neural.c Pages: 1 -->
<svg width="1600pt" height="252pt"
 viewBox="0.00 0.00 1599.50 252.00" xmlns="http://www.w3.org/2000/svg" xmlns:xlink="http://www.w3.org/1999/xlink">
<g id="graph0" class="graph" transform="scale(1 1) rotate(0) translate(4 248)">
<title>cond_neural.c</title>
<!-- Node1 -->
<g id="node1" class="node">
<title>Node1</title>
<g id="a_node1"><a xlink:title="Multi&#45;layer perceptron neural network condition functions.">
<polygon fill="#bfbfbf" stroke="black" points="902,-224.5 902,-243.5 979,-243.5 979,-224.5 902,-224.5"/>
<text text-anchor="middle" x="940.5" y="-231.5" font-family="Helvetica,sans-Serif" font-size="10.00">cond_neural.c</text>
</a>
</g>
</g>
<!-- Node2 -->
<g id="node2" class="node">
<title>Node2</title>
<g id="a_node2"><a xlink:href="cond__neural_8h.html" target="_top" xlink:title="Multi&#45;layer perceptron neural network condition functions.">
<polygon fill="none" stroke="black" points="382,-168.5 382,-187.5 459,-187.5 459,-168.5 382,-168.5"/>
<text text-anchor="middle" x="420.5" y="-175.5" font-family="Helvetica,sans-Serif" font-size="10.00">cond_neural.h</text>
</a>
</g>
</g>
<!-- Node1&#45;&gt;Node2 -->
<g id="edge1" class="edge">
<title>Node1&#45;&gt;Node2</title>
<path fill="none" stroke="midnightblue" d="M901.95,-230.23C821.91,-224.28 631.96,-209.06 473.5,-188 472.2,-187.83 470.88,-187.65 469.55,-187.46"/>
<polygon fill="midnightblue" stroke="midnightblue" points="469.65,-183.93 459.24,-185.91 468.61,-190.86 469.65,-183.93"/>
</g>
<!-- Node16 -->
<g id="node16" class="node">
<title>Node16</title>
<g id="a_node16"><a xlink:href="neural__activations_8h.html" target="_top" xlink:title="Neural network activation functions.">
<polygon fill="none" stroke="black" points="478.5,-112.5 478.5,-131.5 582.5,-131.5 582.5,-112.5 478.5,-112.5"/>
<text text-anchor="middle" x="530.5" y="-119.5" font-family="Helvetica,sans-Serif" font-size="10.00">neural_activations.h</text>
</a>
</g>
</g>
<!-- Node1&#45;&gt;Node16 -->
<g id="edge26" class="edge">
<title>Node1&#45;&gt;Node16</title>
<path fill="none" stroke="midnightblue" d="M901.77,-231.89C800.31,-228.57 532.75,-217.11 506.5,-188 494.23,-174.39 505.07,-153.95 515.85,-139.64"/>
<polygon fill="midnightblue" stroke="midnightblue" points="518.77,-141.6 522.36,-131.63 513.33,-137.19 518.77,-141.6"/>
</g>
<!-- Node19 -->
<g id="node19" class="node">
<title>Node19</title>
<g id="a_node19"><a xlink:href="neural__layer__connected_8h.html" target="_top" xlink:title="An implementation of a fully&#45;connected layer of perceptrons.">
<polygon fill="none" stroke="black" points="515.5,-168.5 515.5,-187.5 643.5,-187.5 643.5,-168.5 515.5,-168.5"/>
<text text-anchor="middle" x="579.5" y="-175.5" font-family="Helvetica,sans-Serif" font-size="10.00">neural_layer_connected.h</text>
</a>
</g>
</g>
<!-- Node1&#45;&gt;Node19 -->
<g id="edge27" class="edge">
<title>Node1&#45;&gt;Node19</title>
<path fill="none" stroke="midnightblue" d="M901.87,-227.22C840.98,-218.11 721.9,-200.3 646.76,-189.06"/>
<polygon fill="midnightblue" stroke="midnightblue" points="646.87,-185.54 636.46,-187.52 645.83,-192.46 646.87,-185.54"/>
</g>
<!-- Node20 -->
<g id="node20" class="node">
<title>Node20</title>
<g id="a_node20"><a xlink:href="neural__layer__convolutional_8h.html" target="_top" xlink:title="An implementation of a 2D convolutional layer.">
<polygon fill="none" stroke="black" points="661.5,-168.5 661.5,-187.5 801.5,-187.5 801.5,-168.5 661.5,-168.5"/>
<text text-anchor="middle" x="731.5" y="-175.5" font-family="Helvetica,sans-Serif" font-size="10.00">neural_layer_convolutional.h</text>
</a>
</g>
</g>
<!-- Node1&#45;&gt;Node20 -->
<g id="edge29" class="edge">
<title>Node1&#45;&gt;Node20</title>
<path fill="none" stroke="midnightblue" d="M907.38,-224.44C871.38,-215.14 813.73,-200.25 774.31,-190.06"/>
<polygon fill="midnightblue" stroke="midnightblue" points="775.02,-186.63 764.46,-187.52 773.27,-193.41 775.02,-186.63"/>
</g>
<!-- Node21 -->
<g id="node21" class="node">
<title>Node21</title>
<g id="a_node21"><a xlink:href="neural__layer__dropout_8h.html" target="_top" xlink:title="An implementation of a dropout layer.">
<polygon fill="none" stroke="black" points="820,-168.5 820,-187.5 935,-187.5 935,-168.5 820,-168.5"/>
<text text-anchor="middle" x="877.5" y="-175.5" font-family="Helvetica,sans-Serif" font-size="10.00">neural_layer_dropout.h</text>
</a>
</g>
</g>
<!-- Node1&#45;&gt;Node21 -->
<g id="edge31" class="edge">
<title>Node1&#45;&gt;Node21</title>
<path fill="none" stroke="midnightblue" d="M930.38,-224.32C920.97,-216.26 906.76,-204.08 895.43,-194.37"/>
<polygon fill="midnightblue" stroke="midnightblue" points="897.68,-191.68 887.81,-187.83 893.12,-197 897.68,-191.68"/>
</g>
<!-- Node22 -->
<g id="node22" class="node">
<title>Node22</title>
<g id="a_node22"><a xlink:href="neural__layer__lstm_8h.html" target="_top" xlink:title="An implementation of a long short&#45;term memory layer.">
<polygon fill="none" stroke="black" points="953,-168.5 953,-187.5 1054,-187.5 1054,-168.5 953,-168.5"/>
<text text-anchor="middle" x="1003.5" y="-175.5" font-family="Helvetica,sans-Serif" font-size="10.00">neural_layer_lstm.h</text>
</a>
</g>
</g>
<!-- Node1&#45;&gt;Node22 -->
<g id="edge33" class="edge">
<title>Node1&#45;&gt;Node22</title>
<path fill="none" stroke="midnightblue" d="M950.62,-224.32C960.03,-216.26 974.24,-204.08 985.57,-194.37"/>
<polygon fill="midnightblue" stroke="midnightblue" points="987.88,-197 993.19,-187.83 983.32,-191.68 987.88,-197"/>
</g>
<!-- Node23 -->
<g id="node23" class="node">
<title>Node23</title>
<g id="a_node23"><a xlink:href="neural__layer__maxpool_8h.html" target="_top" xlink:title="An implementation of a 2D maxpooling layer.">
<polygon fill="none" stroke="black" points="1072,-168.5 1072,-187.5 1191,-187.5 1191,-168.5 1072,-168.5"/>
<text text-anchor="middle" x="1131.5" y="-175.5" font-family="Helvetica,sans-Serif" font-size="10.00">neural_layer_maxpool.h</text>
</a>
</g>
</g>
<!-- Node1&#45;&gt;Node23 -->
<g id="edge35" class="edge">
<title>Node1&#45;&gt;Node23</title>
<path fill="none" stroke="midnightblue" d="M970.76,-224.44C1003.46,-215.2 1055.68,-200.44 1091.68,-190.26"/>
<polygon fill="midnightblue" stroke="midnightblue" points="1092.71,-193.61 1101.38,-187.52 1090.8,-186.87 1092.71,-193.61"/>
</g>
<!-- Node24 -->
<g id="node24" class="node">
<title>Node24</title>
<g id="a_node24"><a xlink:href="neural__layer__noise_8h.html" target="_top" xlink:title="An implementation of a Gaussian noise adding layer.">
<polygon fill="none" stroke="black" points="1209.5,-168.5 1209.5,-187.5 1315.5,-187.5 1315.5,-168.5 1209.5,-168.5"/>
<text text-anchor="middle" x="1262.5" y="-175.5" font-family="Helvetica,sans-Serif" font-size="10.00">neural_layer_noise.h</text>
</a>
</g>
</g>
<!-- Node1&#45;&gt;Node24 -->
<g id="edge37" class="edge">
<title>Node1&#45;&gt;Node24</title>
<path fill="none" stroke="midnightblue" d="M979.02,-226.54C1034.16,-217.29 1136.15,-200.19 1201.58,-189.22"/>
<polygon fill="midnightblue" stroke="midnightblue" points="1202.48,-192.62 1211.76,-187.51 1201.32,-185.71 1202.48,-192.62"/>
</g>
<!-- Node25 -->
<g id="node25" class="node">
<title>Node25</title>
<g id="a_node25"><a xlink:href="neural__layer__recurrent_8h.html" target="_top" xlink:title="An implementation of a recurrent layer of perceptrons.">
<polygon fill="none" stroke="black" points="1334,-168.5 1334,-187.5 1455,-187.5 1455,-168.5 1334,-168.5"/>
<text text-anchor="middle" x="1394.5" y="-175.5" font-family="Helvetica,sans-Serif" font-size="10.00">neural_layer_recurrent.h</text>
</a>
</g>
</g>
<!-- Node1&#45;&gt;Node25 -->
<g id="edge39" class="edge">
<title>Node1&#45;&gt;Node25</title>
<path fill="none" stroke="midnightblue" d="M979.22,-228.61C1046.81,-220.91 1190.99,-204.35 1323.85,-188.07"/>
<polygon fill="midnightblue" stroke="midnightblue" points="1324.3,-191.54 1333.8,-186.85 1323.45,-184.59 1324.3,-191.54"/>
</g>
<!-- Node26 -->
<g id="node26" class="node">
<title>Node26</title>
<g id="a_node26"><a xlink:href="neural__layer__softmax_8h.html" target="_top" xlink:title="An implementation of a softmax layer.">
<polygon fill="none" stroke="black" points="1473.5,-168.5 1473.5,-187.5 1591.5,-187.5 1591.5,-168.5 1473.5,-168.5"/>
<text text-anchor="middle" x="1532.5" y="-175.5" font-family="Helvetica,sans-Serif" font-size="10.00">neural_layer_softmax.h</text>
</a>
</g>
</g>
<!-- Node1&#45;&gt;Node26 -->
<g id="edge41" class="edge">
<title>Node1&#45;&gt;Node26</title>
<path fill="none" stroke="midnightblue" d="M979.02,-230.3C1064.27,-224.2 1275.59,-208.34 1463.14,-188.1"/>
<polygon fill="midnightblue" stroke="midnightblue" points="1463.62,-191.57 1473.18,-187.01 1462.86,-184.61 1463.62,-191.57"/>
</g>
<!-- Node3 -->
<g id="node3" class="node">
<title>Node3</title>
<g id="a_node3"><a xlink:href="condition_8h.html" target="_top" xlink:title="Interface for classifier conditions.">
<polygon fill="none" stroke="black" points="358.5,-112.5 358.5,-131.5 422.5,-131.5 422.5,-112.5 358.5,-112.5"/>
<text text-anchor="middle" x="390.5" y="-119.5" font-family="Helvetica,sans-Serif" font-size="10.00">condition.h</text>
</a>
</g>
</g>
<!-- Node2&#45;&gt;Node3 -->
<g id="edge2" class="edge">
<title>Node2&#45;&gt;Node3</title>
<path fill="none" stroke="midnightblue" d="M415.55,-168.08C411.4,-160.61 405.35,-149.72 400.23,-140.52"/>
<polygon fill="midnightblue" stroke="midnightblue" points="403.28,-138.79 395.36,-131.75 397.16,-142.19 403.28,-138.79"/>
</g>
<!-- Node4 -->
<g id="node4" class="node">
<title>Node4</title>
<g id="a_node4"><a xlink:href="xcsf_8h.html" target="_top" xlink:title="XCSF data structures.">
<polygon fill="none" stroke="black" points="332.5,-56.5 332.5,-75.5 376.5,-75.5 376.5,-56.5 332.5,-56.5"/>
<text text-anchor="middle" x="354.5" y="-63.5" font-family="Helvetica,sans-Serif" font-size="10.00">xcsf.h</text>
</a>
</g>
</g>
<!-- Node2&#45;&gt;Node4 -->
<g id="edge25" class="edge">
<title>Node2&#45;&gt;Node4</title>
<path fill="none" stroke="midnightblue" d="M395.34,-168.38C379.08,-161.34 359.21,-149.65 349.5,-132 341.67,-117.76 344.19,-99.04 347.92,-85.35"/>
<polygon fill="midnightblue" stroke="midnightblue" points="351.32,-86.22 351,-75.63 344.65,-84.11 351.32,-86.22"/>
</g>
<!-- Node15 -->
<g id="node15" class="node">
<title>Node15</title>
<g id="a_node15"><a xlink:href="neural_8h.html" target="_top" xlink:title="An implementation of a multi&#45;layer perceptron neural network.">
<polygon fill="none" stroke="black" points="425,-56.5 425,-75.5 476,-75.5 476,-56.5 425,-56.5"/>
<text text-anchor="middle" x="450.5" y="-63.5" font-family="Helvetica,sans-Serif" font-size="10.00">neural.h</text>
</a>
</g>
</g>
<!-- Node2&#45;&gt;Node15 -->
<g id="edge14" class="edge">
<title>Node2&#45;&gt;Node15</title>
<path fill="none" stroke="midnightblue" d="M422.85,-168.37C427.72,-150.54 438.96,-109.3 445.52,-85.27"/>
<polygon fill="midnightblue" stroke="midnightblue" points="448.9,-86.16 448.16,-75.59 442.15,-84.32 448.9,-86.16"/>
</g>
<!-- Node2&#45;&gt;Node16 -->
<g id="edge20" class="edge">
<title>Node2&#45;&gt;Node16</title>
<path fill="none" stroke="midnightblue" d="M438.17,-168.32C455.89,-159.62 483.4,-146.12 503.79,-136.11"/>
<polygon fill="midnightblue" stroke="midnightblue" points="505.44,-139.2 512.87,-131.65 502.35,-132.92 505.44,-139.2"/>
</g>
<!-- Node17 -->
<g id="node17" class="node">
<title>Node17</title>
<g id="a_node17"><a xlink:href="neural__layer_8h.html" target="_top" xlink:title="Interface for neural network layers.">
<polygon fill="none" stroke="black" points="902,-112.5 902,-131.5 979,-131.5 979,-112.5 902,-112.5"/>
<text text-anchor="middle" x="940.5" y="-119.5" font-family="Helvetica,sans-Serif" font-size="10.00">neural_layer.h</text>
</a>
</g>
</g>
<!-- Node2&#45;&gt;Node17 -->
<g id="edge22" class="edge">
<title>Node2&#45;&gt;Node17</title>
<path fill="none" stroke="midnightblue" d="M459.03,-172.96C473.87,-171.41 490.97,-169.62 506.5,-168 646.21,-153.45 811.22,-136.37 891.59,-128.06"/>
<polygon fill="midnightblue" stroke="midnightblue" points="892.3,-131.5 901.89,-126.99 891.58,-124.54 892.3,-131.5"/>
</g>
<!-- Node3&#45;&gt;Node4 -->
<g id="edge3" class="edge">
<title>Node3&#45;&gt;Node4</title>
<path fill="none" stroke="midnightblue" d="M384.56,-112.08C379.52,-104.53 372.16,-93.49 365.99,-84.23"/>
<polygon fill="midnightblue" stroke="midnightblue" points="368.79,-82.13 360.33,-75.75 362.97,-86.01 368.79,-82.13"/>
</g>
<!-- Node5 -->
<g id="node5" class="node">
<title>Node5</title>
<g id="a_node5"><a xlink:title=" ">
<polygon fill="none" stroke="#bfbfbf" points="0,-0.5 0,-19.5 47,-19.5 47,-0.5 0,-0.5"/>
<text text-anchor="middle" x="23.5" y="-7.5" font-family="Helvetica,sans-Serif" font-size="10.00">errno.h</text>
</a>
</g>
</g>
<!-- Node4&#45;&gt;Node5 -->
<g id="edge4" class="edge">
<title>Node4&#45;&gt;Node5</title>
<path fill="none" stroke="midnightblue" d="M332.29,-62.54C284.02,-57.01 165.83,-42.45 57.04,-19.89"/>
<polygon fill="midnightblue" stroke="midnightblue" points="57.72,-16.45 47.21,-17.82 56.28,-23.3 57.72,-16.45"/>
</g>
<!-- Node6 -->
<g id="node6" class="node">
<title>Node6</title>
<g id="a_node6"><a xlink:title=" ">
<polygon fill="none" stroke="#bfbfbf" points="65.5,-0.5 65.5,-19.5 109.5,-19.5 109.5,-0.5 65.5,-0.5"/>
<text text-anchor="middle" x="87.5" y="-7.5" font-family="Helvetica,sans-Serif" font-size="10.00">float.h</text>
</a>
</g>
</g>
<!-- Node4&#45;&gt;Node6 -->
<g id="edge5" class="edge">
<title>Node4&#45;&gt;Node6</title>
<path fill="none" stroke="midnightblue" d="M332.23,-61.47C291.79,-54.91 203.44,-39.89 119.71,-20.11"/>
<polygon fill="midnightblue" stroke="midnightblue" points="120.32,-16.66 109.78,-17.74 118.7,-23.47 120.32,-16.66"/>
</g>
<!-- Node7 -->
<g id="node7" class="node">
<title>Node7</title>
<g id="a_node7"><a xlink:title=" ">
<polygon fill="none" stroke="#bfbfbf" points="128,-0.5 128,-19.5 187,-19.5 187,-0.5 128,-0.5"/>
<text text-anchor="middle" x="157.5" y="-7.5" font-family="Helvetica,sans-Serif" font-size="10.00">inttypes.h</text>
</a>
</g>
</g>
<!-- Node4&#45;&gt;Node7 -->
<g id="edge6" class="edge">
<title>Node4&#45;&gt;Node7</title>
<path fill="none" stroke="midnightblue" d="M332.28,-58.91C299.54,-49.93 237.81,-33.01 197.17,-21.87"/>
<polygon fill="midnightblue" stroke="midnightblue" points="197.89,-18.44 187.32,-19.17 196.04,-25.19 197.89,-18.44"/>
</g>
<!-- Node8 -->
<g id="node8" class="node">
<title>Node8</title>
<g id="a_node8"><a xlink:title=" ">
<polygon fill="none" stroke="#bfbfbf" points="205.5,-0.5 205.5,-19.5 253.5,-19.5 253.5,-0.5 205.5,-0.5"/>
<text text-anchor="middle" x="229.5" y="-7.5" font-family="Helvetica,sans-Serif" font-size="10.00">limits.h</text>
</a>
</g>
</g>
<!-- Node4&#45;&gt;Node8 -->
<g id="edge7" class="edge">
<title>Node4&#45;&gt;Node8</title>
<path fill="none" stroke="midnightblue" d="M334.69,-56.44C314.21,-47.6 282.02,-33.69 258.64,-23.59"/>
<polygon fill="midnightblue" stroke="midnightblue" points="259.78,-20.27 249.21,-19.52 257.01,-26.7 259.78,-20.27"/>
</g>
<!-- Node9 -->
<g id="node9" class="node">
<title>Node9</title>
<g id="a_node9"><a xlink:title=" ">
<polygon fill="none" stroke="#bfbfbf" points="612,-0.5 612,-19.5 659,-19.5 659,-0.5 612,-0.5"/>
<text text-anchor="middle" x="635.5" y="-7.5" font-family="Helvetica,sans-Serif" font-size="10.00">math.h</text>
</a>
</g>
</g>
<!-- Node4&#45;&gt;Node9 -->
<g id="edge8" class="edge">
<title>Node4&#45;&gt;Node9</title>
<path fill="none" stroke="midnightblue" d="M376.52,-61.66C418.41,-55.17 512.57,-39.92 601.76,-20"/>
<polygon fill="midnightblue" stroke="midnightblue" points="602.79,-23.35 611.77,-17.74 601.24,-16.53 602.79,-23.35"/>
</g>
<!-- Node10 -->
<g id="node10" class="node">
<title>Node10</title>
<g id="a_node10"><a xlink:title=" ">
<polygon fill="none" stroke="#bfbfbf" points="339.5,-0.5 339.5,-19.5 395.5,-19.5 395.5,-0.5 339.5,-0.5"/>
<text text-anchor="middle" x="367.5" y="-7.5" font-family="Helvetica,sans-Serif" font-size="10.00">stdbool.h</text>
</a>
</g>
</g>
<!-- Node4&#45;&gt;Node10 -->
<g id="edge9" class="edge">
<title>Node4&#45;&gt;Node10</title>
<path fill="none" stroke="midnightblue" d="M356.65,-56.08C358.37,-48.93 360.85,-38.64 363,-29.69"/>
<polygon fill="midnightblue" stroke="midnightblue" points="366.46,-30.29 365.39,-19.75 359.65,-28.65 366.46,-30.29"/>
</g>
<!-- Node11 -->
<g id="node11" class="node">
<title>Node11</title>
<g id="a_node11"><a xlink:title=" ">
<polygon fill="none" stroke="#bfbfbf" points="414,-0.5 414,-19.5 463,-19.5 463,-0.5 414,-0.5"/>
<text text-anchor="middle" x="438.5" y="-7.5" font-family="Helvetica,sans-Serif" font-size="10.00">stdint.h</text>
</a>
</g>
</g>
<!-- Node4&#45;&gt;Node11 -->
<g id="edge10" class="edge">
<title>Node4&#45;&gt;Node11</title>
<path fill="none" stroke="midnightblue" d="M368,-56.32C381.1,-47.9 401.21,-34.97 416.61,-25.07"/>
<polygon fill="midnightblue" stroke="midnightblue" points="418.52,-28.01 425.04,-19.65 414.73,-22.12 418.52,-28.01"/>
</g>
<!-- Node12 -->
<g id="node12" class="node">
<title>Node12</title>
<g id="a_node12"><a xlink:title=" ">
<polygon fill="none" stroke="#bfbfbf" points="481.5,-0.5 481.5,-19.5 527.5,-19.5 527.5,-0.5 481.5,-0.5"/>
<text text-anchor="middle" x="504.5" y="-7.5" font-family="Helvetica,sans-Serif" font-size="10.00">stdio.h</text>
</a>
</g>
</g>
<!-- Node4&#45;&gt;Node12 -->
<g id="edge11" class="edge">
<title>Node4&#45;&gt;Node12</title>
<path fill="none" stroke="midnightblue" d="M376.63,-57.03C401.71,-48 442.83,-33.2 471.65,-22.82"/>
<polygon fill="midnightblue" stroke="midnightblue" points="473.07,-26.04 481.29,-19.36 470.69,-19.45 473.07,-26.04"/>
</g>
<!-- Node13 -->
<g id="node13" class="node">
<title>Node13</title>
<g id="a_node13"><a xlink:title=" ">
<polygon fill="none" stroke="#bfbfbf" points="545.5,-0.5 545.5,-19.5 593.5,-19.5 593.5,-0.5 545.5,-0.5"/>
<text text-anchor="middle" x="569.5" y="-7.5" font-family="Helvetica,sans-Serif" font-size="10.00">stdlib.h</text>
</a>
</g>
</g>
<!-- Node4&#45;&gt;Node13 -->
<g id="edge12" class="edge">
<title>Node4&#45;&gt;Node13</title>
<path fill="none" stroke="midnightblue" d="M376.68,-59.7C409.32,-51.85 472.45,-36.54 535.64,-20.18"/>
<polygon fill="midnightblue" stroke="midnightblue" points="536.57,-23.55 545.37,-17.65 534.81,-16.78 536.57,-23.55"/>
</g>
<!-- Node14 -->
<g id="node14" class="node">
<title>Node14</title>
<g id="a_node14"><a xlink:title=" ">
<polygon fill="none" stroke="#bfbfbf" points="272,-0.5 272,-19.5 321,-19.5 321,-0.5 272,-0.5"/>
<text text-anchor="middle" x="296.5" y="-7.5" font-family="Helvetica,sans-Serif" font-size="10.00">string.h</text>
</a>
</g>
</g>
<!-- Node4&#45;&gt;Node14 -->
<g id="edge13" class="edge">
<title>Node4&#45;&gt;Node14</title>
<path fill="none" stroke="midnightblue" d="M345.18,-56.32C336.61,-48.34 323.69,-36.31 313.31,-26.65"/>
<polygon fill="midnightblue" stroke="midnightblue" points="315.69,-24.09 305.99,-19.83 310.92,-29.21 315.69,-24.09"/>
</g>
<!-- Node15&#45;&gt;Node10 -->
<g id="edge15" class="edge">
<title>Node15&#45;&gt;Node10</title>
<path fill="none" stroke="midnightblue" d="M437.16,-56.32C424.34,-47.98 404.72,-35.21 389.56,-25.35"/>
<polygon fill="midnightblue" stroke="midnightblue" points="391.09,-22.17 380.8,-19.65 387.28,-28.04 391.09,-22.17"/>
</g>
<!-- Node15&#45;&gt;Node11 -->
<g id="edge16" class="edge">
<title>Node15&#45;&gt;Node11</title>
<path fill="none" stroke="midnightblue" d="M448.52,-56.08C446.93,-48.93 444.64,-38.64 442.65,-29.69"/>
<polygon fill="midnightblue" stroke="midnightblue" points="446.03,-28.75 440.44,-19.75 439.2,-30.27 446.03,-28.75"/>
</g>
<!-- Node15&#45;&gt;Node12 -->
<g id="edge17" class="edge">
<title>Node15&#45;&gt;Node12</title>
<path fill="none" stroke="midnightblue" d="M459.42,-56.08C467.28,-48.22 478.93,-36.57 488.42,-27.08"/>
<polygon fill="midnightblue" stroke="midnightblue" points="491.15,-29.3 495.75,-19.75 486.2,-24.35 491.15,-29.3"/>
</g>
<!-- Node15&#45;&gt;Node13 -->
<g id="edge18" class="edge">
<title>Node15&#45;&gt;Node13</title>
<path fill="none" stroke="midnightblue" d="M469.36,-56.44C488.77,-47.64 519.23,-33.81 541.46,-23.72"/>
<polygon fill="midnightblue" stroke="midnightblue" points="543.07,-26.84 550.73,-19.52 540.18,-20.46 543.07,-26.84"/>
</g>
<!-- Node15&#45;&gt;Node14 -->
<g id="edge19" class="edge">
<title>Node15&#45;&gt;Node14</title>
<path fill="none" stroke="midnightblue" d="M426.1,-56.44C400.3,-47.4 359.42,-33.06 330.48,-22.92"/>
<polygon fill="midnightblue" stroke="midnightblue" points="331.38,-19.52 320.79,-19.52 329.07,-26.13 331.38,-19.52"/>
</g>
<!-- Node16&#45;&gt;Node9 -->
<g id="edge21" class="edge">
<title>Node16&#45;&gt;Node9</title>
<path fill="none" stroke="midnightblue" d="M538.74,-112.37C556.3,-93.97 597.63,-50.67 620.18,-27.05"/>
<polygon fill="midnightblue" stroke="midnightblue" points="622.93,-29.24 627.3,-19.59 617.86,-24.41 622.93,-29.24"/>
</g>
<!-- Node17&#45;&gt;Node15 -->
<g id="edge23" class="edge">
<title>Node17&#45;&gt;Node15</title>
<path fill="none" stroke="midnightblue" d="M901.64,-116.72C808.98,-106.51 576.1,-80.84 486.45,-70.96"/>
<polygon fill="midnightblue" stroke="midnightblue" points="486.57,-67.45 476.25,-69.84 485.8,-74.41 486.57,-67.45"/>
</g>
<!-- Node18 -->
<g id="node18" class="node">
<title>Node18</title>
<g id="a_node18"><a xlink:href="neural__layer__args_8h.html" target="_top" xlink:title="Functions operating on neural network arguments/constants.">
<polygon fill="none" stroke="black" points="890,-56.5 890,-75.5 991,-75.5 991,-56.5 890,-56.5"/>
<text text-anchor="middle" x="940.5" y="-63.5" font-family="Helvetica,sans-Serif" font-size="10.00">neural_layer_args.h</text>
</a>
</g>
</g>
<!-- Node17&#45;&gt;Node18 -->
<g id="edge24" class="edge">
<title>Node17&#45;&gt;Node18</title>
<path fill="none" stroke="midnightblue" d="M940.5,-112.08C940.5,-105.01 940.5,-94.86 940.5,-85.99"/>
<polygon fill="midnightblue" stroke="midnightblue" points="944,-85.75 940.5,-75.75 937,-85.75 944,-85.75"/>
</g>
<!-- Node19&#45;&gt;Node17 -->
<g id="edge28" class="edge">
<title>Node19&#45;&gt;Node17</title>
<path fill="none" stroke="midnightblue" d="M636.7,-168.44C707.09,-157.91 825.41,-140.22 891.7,-130.3"/>
<polygon fill="midnightblue" stroke="midnightblue" points="892.51,-133.72 901.88,-128.78 891.47,-126.79 892.51,-133.72"/>
</g>
<!-- Node20&#45;&gt;Node17 -->
<g id="edge30" class="edge">
<title>Node20&#45;&gt;Node17</title>
<path fill="none" stroke="midnightblue" d="M764.62,-168.44C800.62,-159.14 858.27,-144.25 897.69,-134.06"/>
<polygon fill="midnightblue" stroke="midnightblue" points="898.73,-137.41 907.54,-131.52 896.98,-130.63 898.73,-137.41"/>
</g>
<!-- Node21&#45;&gt;Node17 -->
<g id="edge32" class="edge">
<title>Node21&#45;&gt;Node17</title>
<path fill="none" stroke="midnightblue" d="M887.62,-168.32C897.03,-160.26 911.24,-148.08 922.57,-138.37"/>
<polygon fill="midnightblue" stroke="midnightblue" points="924.88,-141 930.19,-131.83 920.32,-135.68 924.88,-141"/>
</g>
<!-- Node22&#45;&gt;Node17 -->
<g id="edge34" class="edge">
<title>Node22&#45;&gt;Node17</title>
<path fill="none" stroke="midnightblue" d="M993.38,-168.32C983.97,-160.26 969.76,-148.08 958.43,-138.37"/>
<polygon fill="midnightblue" stroke="midnightblue" points="960.68,-135.68 950.81,-131.83 956.12,-141 960.68,-135.68"/>
</g>
<!-- Node23&#45;&gt;Node17 -->
<g id="edge36" class="edge">
<title>Node23&#45;&gt;Node17</title>
<path fill="none" stroke="midnightblue" d="M1101.24,-168.44C1068.54,-159.2 1016.32,-144.44 980.32,-134.26"/>
<polygon fill="midnightblue" stroke="midnightblue" points="981.2,-130.87 970.62,-131.52 979.29,-137.61 981.2,-130.87"/>
</g>
<!-- Node24&#45;&gt;Node17 -->
<g id="edge38" class="edge">
<title>Node24&#45;&gt;Node17</title>
<path fill="none" stroke="midnightblue" d="M1211.48,-168.44C1150.46,-158.21 1049.07,-141.21 989.13,-131.15"/>
<polygon fill="midnightblue" stroke="midnightblue" points="989.6,-127.68 979.16,-129.48 988.44,-134.59 989.6,-127.68"/>
</g>
<!-- Node25&#45;&gt;Node17 -->
<g id="edge40" class="edge">
<title>Node25&#45;&gt;Node17</title>
<path fill="none" stroke="midnightblue" d="M1333.8,-169.15C1330.65,-168.76 1327.54,-168.37 1324.5,-168 1204.17,-153.21 1062.49,-136.89 989.48,-128.56"/>
<polygon fill="midnightblue" stroke="midnightblue" points="989.55,-125.05 979.22,-127.39 988.76,-132 989.55,-125.05"/>
</g>
<!-- Node26&#45;&gt;Node17 -->
<g id="edge42" class="edge">
<title>Node26&#45;&gt;Node17</title>
<path fill="none" stroke="midnightblue" d="M1473.18,-168.99C1470.25,-168.64 1467.34,-168.31 1464.5,-168 1289.92,-148.96 1081.88,-133.13 989.21,-126.43"/>
<polygon fill="midnightblue" stroke="midnightblue" points="989.24,-122.93 979.02,-125.7 988.74,-129.91 989.24,-122.93"/>
</g>
</g>
</svg>
