<?xml version="1.0" encoding="UTF-8" standalone="no"?>
<!DOCTYPE svg PUBLIC "-//W3C//DTD SVG 1.1//EN"
 "http://www.w3.org/Graphics/SVG/1.1/DTD/svg11.dtd">
<!-- Generated by graphviz version 2.43.0 (0)
 -->
<!-- Title: cond_param_defaults Pages: 1 -->
<svg width="559pt" height="142pt"
 viewBox="0.00 0.00 559.00 142.00" xmlns="http://www.w3.org/2000/svg" xmlns:xlink="http://www.w3.org/1999/xlink">
<g id="graph0" class="graph" transform="scale(1 1) rotate(0) translate(4 138)">
<title>cond_param_defaults</title>
<!-- Node1 -->
<g id="node1" class="node">
<title>Node1</title>
<g id="a_node1"><a xlink:title="Initialises default condition parameters.">
<polygon fill="#bfbfbf" stroke="black" points="441,-57.5 441,-76.5 551,-76.5 551,-57.5 441,-57.5"/>
<text text-anchor="middle" x="496" y="-64.5" font-family="Helvetica,sans-Serif" font-size="10.00">cond_param_defaults</text>
</a>
</g>
</g>
<!-- Node2 -->
<g id="node2" class="node">
<title>Node2</title>
<g id="a_node2"><a xlink:href="param_8c.html#ac8218a170803be0bcd974764e7494b0e" target="_top" xlink:title="Initialises default XCSF parameters.">
<polygon fill="none" stroke="black" points="343,-57.5 343,-76.5 405,-76.5 405,-57.5 343,-57.5"/>
<text text-anchor="middle" x="374" y="-64.5" font-family="Helvetica,sans-Serif" font-size="10.00">param_init</text>
</a>
</g>
</g>
<!-- Node1&#45;&gt;Node2 -->
<g id="edge1" class="edge">
<title>Node1&#45;&gt;Node2</title>
<path fill="none" stroke="midnightblue" d="M430.83,-67C421.86,-67 413.02,-67 405.1,-67"/>
<polygon fill="midnightblue" stroke="midnightblue" points="430.97,-70.5 440.97,-67 430.97,-63.5 430.97,-70.5"/>
</g>
<!-- Node3 -->
<g id="node3" class="node">
<title>Node3</title>
<g id="a_node3"><a xlink:href="env__csv_8c.html#ab26a39a388f0ac83b9ac14726ad14b16" target="_top" xlink:title="Initialises a CSV input environment from a specified filename.">
<polygon fill="none" stroke="black" points="231.5,-114.5 231.5,-133.5 302.5,-133.5 302.5,-114.5 231.5,-114.5"/>
<text text-anchor="middle" x="267" y="-121.5" font-family="Helvetica,sans-Serif" font-size="10.00">env_csv_init</text>
</a>
</g>
</g>
<!-- Node2&#45;&gt;Node3 -->
<g id="edge2" class="edge">
<title>Node2&#45;&gt;Node3</title>
<path fill="none" stroke="midnightblue" d="M348.38,-81.71C336.07,-88.93 320.87,-97.64 307,-105 301.01,-108.18 294.41,-111.47 288.38,-114.4"/>
<polygon fill="midnightblue" stroke="midnightblue" points="350.34,-84.62 357.17,-76.53 346.78,-78.6 350.34,-84.62"/>
</g>
<!-- Node6 -->
<g id="node6" class="node">
<title>Node6</title>
<g id="a_node6"><a xlink:href="env__maze_8c.html#acad3cc6e9fe2b7e07e878f1f517ad3a6" target="_top" xlink:title="Initialises a maze environment from a specified file.">
<polygon fill="none" stroke="black" points="227,-76.5 227,-95.5 307,-95.5 307,-76.5 227,-76.5"/>
<text text-anchor="middle" x="267" y="-83.5" font-family="Helvetica,sans-Serif" font-size="10.00">env_maze_init</text>
</a>
</g>
</g>
<!-- Node2&#45;&gt;Node6 -->
<g id="edge5" class="edge">
<title>Node2&#45;&gt;Node6</title>
<path fill="none" stroke="midnightblue" d="M332.89,-74.26C324.44,-75.79 315.53,-77.4 307.11,-78.92"/>
<polygon fill="midnightblue" stroke="midnightblue" points="333.69,-77.67 342.91,-72.44 332.45,-70.78 333.69,-77.67"/>
</g>
<!-- Node7 -->
<g id="node7" class="node">
<title>Node7</title>
<g id="a_node7"><a xlink:href="env__mux_8c.html#aff3b81b4913d273ecfd62d7585480b15" target="_top" xlink:title="Initialises a real multiplexer environment of specified length.">
<polygon fill="none" stroke="black" points="230,-38.5 230,-57.5 304,-57.5 304,-38.5 230,-38.5"/>
<text text-anchor="middle" x="267" y="-45.5" font-family="Helvetica,sans-Serif" font-size="10.00">env_mux_init</text>
</a>
</g>
</g>
<!-- Node2&#45;&gt;Node7 -->
<g id="edge7" class="edge">
<title>Node2&#45;&gt;Node7</title>
<path fill="none" stroke="midnightblue" d="M332.9,-59.74C323.41,-58.03 313.35,-56.21 304.05,-54.52"/>
<polygon fill="midnightblue" stroke="midnightblue" points="332.45,-63.22 342.91,-61.56 333.69,-56.33 332.45,-63.22"/>
</g>
<!-- Node8 -->
<g id="node8" class="node">
<title>Node8</title>
<g id="a_node8"><a xlink:href="classXCS.html#a2e542f3f17c9c76d07045adf1f5c16f9" target="_top" xlink:title="Resets basic constructor variables.">
<polygon fill="none" stroke="black" points="234.5,-0.5 234.5,-19.5 299.5,-19.5 299.5,-0.5 234.5,-0.5"/>
<text text-anchor="middle" x="267" y="-7.5" font-family="Helvetica,sans-Serif" font-size="10.00">XCS::reset</text>
</a>
</g>
</g>
<!-- Node2&#45;&gt;Node8 -->
<g id="edge9" class="edge">
<title>Node2&#45;&gt;Node8</title>
<path fill="none" stroke="midnightblue" d="M348.38,-52.29C336.07,-45.07 320.87,-36.36 307,-29 301.01,-25.82 294.41,-22.53 288.38,-19.6"/>
<polygon fill="midnightblue" stroke="midnightblue" points="346.78,-55.4 357.17,-57.47 350.34,-49.38 346.78,-55.4"/>
</g>
<!-- Node4 -->
<g id="node4" class="node">
<title>Node4</title>
<g id="a_node4"><a xlink:href="env_8c.html#a9213fcf5fc422d6a77bce853b1d78dc9" target="_top" xlink:title="Initialises a built&#45;in problem environment.">
<polygon fill="none" stroke="black" points="133.5,-76.5 133.5,-95.5 183.5,-95.5 183.5,-76.5 133.5,-76.5"/>
<text text-anchor="middle" x="158.5" y="-83.5" font-family="Helvetica,sans-Serif" font-size="10.00">env_init</text>
</a>
</g>
</g>
<!-- Node3&#45;&gt;Node4 -->
<g id="edge3" class="edge">
<title>Node3&#45;&gt;Node4</title>
<path fill="none" stroke="midnightblue" d="M229.55,-110.99C214.45,-105.61 197.35,-99.5 183.82,-94.68"/>
<polygon fill="midnightblue" stroke="midnightblue" points="228.53,-114.35 239.13,-114.41 230.88,-107.75 228.53,-114.35"/>
</g>
<!-- Node5 -->
<g id="node5" class="node">
<title>Node5</title>
<g id="a_node5"><a xlink:href="main_8c.html#a3c04138a5bfe5d72780bb7e82a18e627" target="_top" xlink:title=" ">
<polygon fill="none" stroke="black" points="26,-76.5 26,-95.5 64,-95.5 64,-76.5 26,-76.5"/>
<text text-anchor="middle" x="45" y="-83.5" font-family="Helvetica,sans-Serif" font-size="10.00">main</text>
</a>
</g>
</g>
<!-- Node4&#45;&gt;Node5 -->
<g id="edge4" class="edge">
<title>Node4&#45;&gt;Node5</title>
<path fill="none" stroke="midnightblue" d="M123.28,-86C103.83,-86 80.24,-86 64.28,-86"/>
<polygon fill="midnightblue" stroke="midnightblue" points="123.31,-89.5 133.31,-86 123.31,-82.5 123.31,-89.5"/>
</g>
<!-- Node6&#45;&gt;Node4 -->
<g id="edge6" class="edge">
<title>Node6&#45;&gt;Node4</title>
<path fill="none" stroke="midnightblue" d="M216.92,-86C205.38,-86 193.57,-86 183.69,-86"/>
<polygon fill="midnightblue" stroke="midnightblue" points="216.95,-89.5 226.95,-86 216.95,-82.5 216.95,-89.5"/>
</g>
<!-- Node7&#45;&gt;Node4 -->
<g id="edge8" class="edge">
<title>Node7&#45;&gt;Node4</title>
<path fill="none" stroke="midnightblue" d="M229.55,-61.01C214.45,-66.39 197.35,-72.5 183.82,-77.32"/>
<polygon fill="midnightblue" stroke="midnightblue" points="230.88,-64.25 239.13,-57.59 228.53,-57.65 230.88,-64.25"/>
</g>
<!-- Node9 -->
<g id="node9" class="node">
<title>Node9</title>
<g id="a_node9"><a xlink:href="classXCS.html#a8a53a8df81152fbf73e6abcc6a6e56b4" target="_top" xlink:title="Default Constructor.">
<polygon fill="none" stroke="black" points="126,-0.5 126,-19.5 191,-19.5 191,-0.5 126,-0.5"/>
<text text-anchor="middle" x="158.5" y="-7.5" font-family="Helvetica,sans-Serif" font-size="10.00">XCS::XCS</text>
</a>
</g>
</g>
<!-- Node8&#45;&gt;Node9 -->
<g id="edge10" class="edge">
<title>Node8&#45;&gt;Node9</title>
<path fill="none" stroke="midnightblue" d="M224.11,-10C213.16,-10 201.55,-10 191.23,-10"/>
<polygon fill="midnightblue" stroke="midnightblue" points="224.33,-13.5 234.33,-10 224.33,-6.5 224.33,-13.5"/>
</g>
<!-- Node10 -->
<g id="node10" class="node">
<title>Node10</title>
<g id="a_node10"><a xlink:href="classXCS.html#a71b21201e1a2aef16702a2c308eb6683" target="_top" xlink:title="Implements pickle file reading.">
<polygon fill="none" stroke="black" points="0,-0.5 0,-19.5 90,-19.5 90,-0.5 0,-0.5"/>
<text text-anchor="middle" x="45" y="-7.5" font-family="Helvetica,sans-Serif" font-size="10.00">XCS::deserialize</text>
</a>
</g>
</g>
<!-- Node9&#45;&gt;Node10 -->
<g id="edge11" class="edge">
<title>Node9&#45;&gt;Node10</title>
<path fill="none" stroke="midnightblue" d="M115.63,-10C107.33,-10 98.59,-10 90.22,-10"/>
<polygon fill="midnightblue" stroke="midnightblue" points="115.85,-13.5 125.85,-10 115.85,-6.5 115.85,-13.5"/>
</g>
</g>
</svg>
