<?xml version="1.0" encoding="UTF-8" standalone="no"?>
<!DOCTYPE svg PUBLIC "-//W3C//DTD SVG 1.1//EN"
 "http://www.w3.org/Graphics/SVG/1.1/DTD/svg11.dtd">
<!-- Generated by graphviz version 2.43.0 (0)
 -->
<!-- Title: cond_param_set_max Pages: 1 -->
<svg width="1026pt" height="218pt"
 viewBox="0.00 0.00 1026.00 218.00" xmlns="http://www.w3.org/2000/svg" xmlns:xlink="http://www.w3.org/1999/xlink">
<g id="graph0" class="graph" transform="scale(1 1) rotate(0) translate(4 214)">
<title>cond_param_set_max</title>
<!-- Node1 -->
<g id="node1" class="node">
<title>Node1</title>
<g id="a_node1"><a xlink:title=" ">
<polygon fill="#bfbfbf" stroke="black" points="905,-81.5 905,-100.5 1018,-100.5 1018,-81.5 905,-81.5"/>
<text text-anchor="middle" x="961.5" y="-88.5" font-family="Helvetica,sans-Serif" font-size="10.00">cond_param_set_max</text>
</a>
</g>
</g>
<!-- Node2 -->
<g id="node2" class="node">
<title>Node2</title>
<g id="a_node2"><a xlink:href="condition_8c.html#ac7f09d43efc7400318fe32c917a92292" target="_top" xlink:title="Initialises default condition parameters.">
<polygon fill="none" stroke="black" points="742,-109.5 742,-128.5 852,-128.5 852,-109.5 742,-109.5"/>
<text text-anchor="middle" x="797" y="-116.5" font-family="Helvetica,sans-Serif" font-size="10.00">cond_param_defaults</text>
</a>
</g>
</g>
<!-- Node1&#45;&gt;Node2 -->
<g id="edge1" class="edge">
<title>Node1&#45;&gt;Node2</title>
<path fill="none" stroke="midnightblue" d="M894.84,-102.31C880.65,-104.76 865.81,-107.32 852.12,-109.67"/>
<polygon fill="midnightblue" stroke="midnightblue" points="895.77,-105.71 905.03,-100.56 894.58,-98.81 895.77,-105.71"/>
</g>
<!-- Node12 -->
<g id="node12" class="node">
<title>Node12</title>
<g id="a_node12"><a xlink:href="condition_8c.html#a720cc103a0bb61677a3e918bddc4e6a4" target="_top" xlink:title="Sets the center&#45;spread parameters from a cJSON object.">
<polygon fill="none" stroke="black" points="725,-62.5 725,-81.5 869,-81.5 869,-62.5 725,-62.5"/>
<text text-anchor="middle" x="797" y="-69.5" font-family="Helvetica,sans-Serif" font-size="10.00">cond_param_json_import_csr</text>
</a>
</g>
</g>
<!-- Node1&#45;&gt;Node12 -->
<g id="edge13" class="edge">
<title>Node1&#45;&gt;Node12</title>
<path fill="none" stroke="midnightblue" d="M894.54,-83.29C886.21,-82.31 877.65,-81.31 869.24,-80.33"/>
<polygon fill="midnightblue" stroke="midnightblue" points="894.24,-86.78 904.58,-84.46 895.05,-79.82 894.24,-86.78"/>
</g>
<!-- Node3 -->
<g id="node3" class="node">
<title>Node3</title>
<g id="a_node3"><a xlink:href="param_8c.html#ac8218a170803be0bcd974764e7494b0e" target="_top" xlink:title="Initialises default XCSF parameters.">
<polygon fill="none" stroke="black" points="595.5,-114.5 595.5,-133.5 657.5,-133.5 657.5,-114.5 595.5,-114.5"/>
<text text-anchor="middle" x="626.5" y="-121.5" font-family="Helvetica,sans-Serif" font-size="10.00">param_init</text>
</a>
</g>
</g>
<!-- Node2&#45;&gt;Node3 -->
<g id="edge2" class="edge">
<title>Node2&#45;&gt;Node3</title>
<path fill="none" stroke="midnightblue" d="M731.43,-120.92C706.02,-121.67 678.08,-122.5 657.58,-123.11"/>
<polygon fill="midnightblue" stroke="midnightblue" points="731.87,-124.4 741.76,-120.61 731.66,-117.41 731.87,-124.4"/>
</g>
<!-- Node4 -->
<g id="node4" class="node">
<title>Node4</title>
<g id="a_node4"><a xlink:href="env__csv_8c.html#ab26a39a388f0ac83b9ac14726ad14b16" target="_top" xlink:title="Initialises a CSV input environment from a specified filename.">
<polygon fill="none" stroke="black" points="421,-190.5 421,-209.5 492,-209.5 492,-190.5 421,-190.5"/>
<text text-anchor="middle" x="456.5" y="-197.5" font-family="Helvetica,sans-Serif" font-size="10.00">env_csv_init</text>
</a>
</g>
</g>
<!-- Node3&#45;&gt;Node4 -->
<g id="edge3" class="edge">
<title>Node3&#45;&gt;Node4</title>
<path fill="none" stroke="midnightblue" d="M603.56,-139.12C584.36,-151.78 555.33,-169.57 528,-181 516.66,-185.74 503.79,-189.62 492.18,-192.61"/>
<polygon fill="midnightblue" stroke="midnightblue" points="605.54,-142 611.9,-133.53 601.64,-136.19 605.54,-142"/>
</g>
<!-- Node7 -->
<g id="node7" class="node">
<title>Node7</title>
<g id="a_node7"><a xlink:href="env__maze_8c.html#acad3cc6e9fe2b7e07e878f1f517ad3a6" target="_top" xlink:title="Initialises a maze environment from a specified file.">
<polygon fill="none" stroke="black" points="416.5,-152.5 416.5,-171.5 496.5,-171.5 496.5,-152.5 416.5,-152.5"/>
<text text-anchor="middle" x="456.5" y="-159.5" font-family="Helvetica,sans-Serif" font-size="10.00">env_maze_init</text>
</a>
</g>
</g>
<!-- Node3&#45;&gt;Node7 -->
<g id="edge6" class="edge">
<title>Node3&#45;&gt;Node7</title>
<path fill="none" stroke="midnightblue" d="M585.62,-133.02C558.76,-139.1 523.49,-147.07 496.76,-153.12"/>
<polygon fill="midnightblue" stroke="midnightblue" points="586.48,-136.41 595.46,-130.79 584.94,-129.59 586.48,-136.41"/>
</g>
<!-- Node8 -->
<g id="node8" class="node">
<title>Node8</title>
<g id="a_node8"><a xlink:href="env__mux_8c.html#aff3b81b4913d273ecfd62d7585480b15" target="_top" xlink:title="Initialises a real multiplexer environment of specified length.">
<polygon fill="none" stroke="black" points="419.5,-114.5 419.5,-133.5 493.5,-133.5 493.5,-114.5 419.5,-114.5"/>
<text text-anchor="middle" x="456.5" y="-121.5" font-family="Helvetica,sans-Serif" font-size="10.00">env_mux_init</text>
</a>
</g>
</g>
<!-- Node3&#45;&gt;Node8 -->
<g id="edge8" class="edge">
<title>Node3&#45;&gt;Node8</title>
<path fill="none" stroke="midnightblue" d="M585.26,-124C557.41,-124 520.64,-124 493.7,-124"/>
<polygon fill="midnightblue" stroke="midnightblue" points="585.47,-127.5 595.46,-124 585.46,-120.5 585.47,-127.5"/>
</g>
<!-- Node9 -->
<g id="node9" class="node">
<title>Node9</title>
<g id="a_node9"><a xlink:href="classXCS.html#a2e542f3f17c9c76d07045adf1f5c16f9" target="_top" xlink:title="Resets basic constructor variables.">
<polygon fill="none" stroke="black" points="424,-76.5 424,-95.5 489,-95.5 489,-76.5 424,-76.5"/>
<text text-anchor="middle" x="456.5" y="-83.5" font-family="Helvetica,sans-Serif" font-size="10.00">XCS::reset</text>
</a>
</g>
</g>
<!-- Node3&#45;&gt;Node9 -->
<g id="edge10" class="edge">
<title>Node3&#45;&gt;Node9</title>
<path fill="none" stroke="midnightblue" d="M585.51,-114.95C556.06,-108.29 516.57,-99.36 489.27,-93.19"/>
<polygon fill="midnightblue" stroke="midnightblue" points="584.94,-118.41 595.46,-117.21 586.48,-111.59 584.94,-118.41"/>
</g>
<!-- Node5 -->
<g id="node5" class="node">
<title>Node5</title>
<g id="a_node5"><a xlink:href="env_8c.html#a9213fcf5fc422d6a77bce853b1d78dc9" target="_top" xlink:title="Initialises a built&#45;in problem environment.">
<polygon fill="none" stroke="black" points="274.5,-147.5 274.5,-166.5 324.5,-166.5 324.5,-147.5 274.5,-147.5"/>
<text text-anchor="middle" x="299.5" y="-154.5" font-family="Helvetica,sans-Serif" font-size="10.00">env_init</text>
</a>
</g>
</g>
<!-- Node4&#45;&gt;Node5 -->
<g id="edge4" class="edge">
<title>Node4&#45;&gt;Node5</title>
<path fill="none" stroke="midnightblue" d="M410.83,-188.06C402.25,-185.74 393.34,-183.31 385,-181 364.57,-175.35 341.41,-168.76 324.51,-163.91"/>
<polygon fill="midnightblue" stroke="midnightblue" points="410.13,-191.49 420.69,-190.72 411.95,-184.74 410.13,-191.49"/>
</g>
<!-- Node6 -->
<g id="node6" class="node">
<title>Node6</title>
<g id="a_node6"><a xlink:href="main_8c.html#a3c04138a5bfe5d72780bb7e82a18e627" target="_top" xlink:title=" ">
<polygon fill="none" stroke="black" points="22.5,-104.5 22.5,-123.5 60.5,-123.5 60.5,-104.5 22.5,-104.5"/>
<text text-anchor="middle" x="41.5" y="-111.5" font-family="Helvetica,sans-Serif" font-size="10.00">main</text>
</a>
</g>
</g>
<!-- Node5&#45;&gt;Node6 -->
<g id="edge5" class="edge">
<title>Node5&#45;&gt;Node6</title>
<path fill="none" stroke="midnightblue" d="M264.47,-151.28C209.54,-142.06 103.2,-124.2 60.7,-117.06"/>
<polygon fill="midnightblue" stroke="midnightblue" points="263.97,-154.75 274.42,-152.95 265.13,-147.85 263.97,-154.75"/>
</g>
<!-- Node7&#45;&gt;Node5 -->
<g id="edge7" class="edge">
<title>Node7&#45;&gt;Node5</title>
<path fill="none" stroke="midnightblue" d="M406.24,-160.41C378.99,-159.53 346.34,-158.48 324.6,-157.78"/>
<polygon fill="midnightblue" stroke="midnightblue" points="406.28,-163.91 416.39,-160.74 406.51,-156.92 406.28,-163.91"/>
</g>
<!-- Node8&#45;&gt;Node5 -->
<g id="edge9" class="edge">
<title>Node8&#45;&gt;Node5</title>
<path fill="none" stroke="midnightblue" d="M409.23,-133.85C381.39,-139.78 347.09,-147.08 324.55,-151.88"/>
<polygon fill="midnightblue" stroke="midnightblue" points="410.11,-137.24 419.16,-131.74 408.65,-130.4 410.11,-137.24"/>
</g>
<!-- Node10 -->
<g id="node10" class="node">
<title>Node10</title>
<g id="a_node10"><a xlink:href="classXCS.html#a8a53a8df81152fbf73e6abcc6a6e56b4" target="_top" xlink:title="Default Constructor.">
<polygon fill="none" stroke="black" points="267,-76.5 267,-95.5 332,-95.5 332,-76.5 267,-76.5"/>
<text text-anchor="middle" x="299.5" y="-83.5" font-family="Helvetica,sans-Serif" font-size="10.00">XCS::XCS</text>
</a>
</g>
</g>
<!-- Node9&#45;&gt;Node10 -->
<g id="edge11" class="edge">
<title>Node9&#45;&gt;Node10</title>
<path fill="none" stroke="midnightblue" d="M413.58,-86C387.96,-86 355.7,-86 332.2,-86"/>
<polygon fill="midnightblue" stroke="midnightblue" points="413.76,-89.5 423.76,-86 413.76,-82.5 413.76,-89.5"/>
</g>
<!-- Node11 -->
<g id="node11" class="node">
<title>Node11</title>
<g id="a_node11"><a xlink:href="classXCS.html#a71b21201e1a2aef16702a2c308eb6683" target="_top" xlink:title="Implements pickle file reading.">
<polygon fill="none" stroke="black" points="121.5,-95.5 121.5,-114.5 211.5,-114.5 211.5,-95.5 121.5,-95.5"/>
<text text-anchor="middle" x="166.5" y="-102.5" font-family="Helvetica,sans-Serif" font-size="10.00">XCS::deserialize</text>
</a>
</g>
</g>
<!-- Node10&#45;&gt;Node11 -->
<g id="edge12" class="edge">
<title>Node10&#45;&gt;Node11</title>
<path fill="none" stroke="midnightblue" d="M256.71,-92.06C242.38,-94.14 226.31,-96.47 211.79,-98.58"/>
<polygon fill="midnightblue" stroke="midnightblue" points="257.39,-95.5 266.79,-90.6 256.39,-88.57 257.39,-95.5"/>
</g>
<!-- Node13 -->
<g id="node13" class="node">
<title>Node13</title>
<g id="a_node13"><a xlink:href="condition_8c.html#a05cc17fed48d042eaefd1e22582b24c6" target="_top" xlink:title="Sets the condition parameters from a cJSON object.">
<polygon fill="none" stroke="black" points="564,-43.5 564,-62.5 689,-62.5 689,-43.5 564,-43.5"/>
<text text-anchor="middle" x="626.5" y="-50.5" font-family="Helvetica,sans-Serif" font-size="10.00">cond_param_json_import</text>
</a>
</g>
</g>
<!-- Node12&#45;&gt;Node13 -->
<g id="edge14" class="edge">
<title>Node12&#45;&gt;Node13</title>
<path fill="none" stroke="midnightblue" d="M714.57,-62.82C706.04,-61.86 697.47,-60.89 689.21,-59.96"/>
<polygon fill="midnightblue" stroke="midnightblue" points="714.21,-66.3 724.54,-63.94 715,-59.34 714.21,-66.3"/>
</g>
<!-- Node14 -->
<g id="node14" class="node">
<title>Node14</title>
<g id="a_node14"><a xlink:href="param_8c.html#a94f5495282a36944cade334e52c3c5cd" target="_top" xlink:title="Sets the condition parameters from a json formatted string.">
<polygon fill="none" stroke="black" points="385,-38.5 385,-57.5 528,-57.5 528,-38.5 385,-38.5"/>
<text text-anchor="middle" x="456.5" y="-45.5" font-family="Helvetica,sans-Serif" font-size="10.00">param_json_import_condition</text>
</a>
</g>
</g>
<!-- Node13&#45;&gt;Node14 -->
<g id="edge15" class="edge">
<title>Node13&#45;&gt;Node14</title>
<path fill="none" stroke="midnightblue" d="M553.7,-50.86C545.25,-50.61 536.63,-50.35 528.19,-50.1"/>
<polygon fill="midnightblue" stroke="midnightblue" points="553.8,-54.37 563.9,-51.17 554.01,-47.37 553.8,-54.37"/>
</g>
<!-- Node15 -->
<g id="node15" class="node">
<title>Node15</title>
<g id="a_node15"><a xlink:href="param_8c.html#a130260988988535419aee8abe51986c1" target="_top" xlink:title="Sets the parameters from a json formatted string.">
<polygon fill="none" stroke="black" points="250,-38.5 250,-57.5 349,-57.5 349,-38.5 250,-38.5"/>
<text text-anchor="middle" x="299.5" y="-45.5" font-family="Helvetica,sans-Serif" font-size="10.00">param_json_import</text>
</a>
</g>
</g>
<!-- Node14&#45;&gt;Node15 -->
<g id="edge16" class="edge">
<title>Node14&#45;&gt;Node15</title>
<path fill="none" stroke="midnightblue" d="M374.67,-48C366.04,-48 357.47,-48 349.38,-48"/>
<polygon fill="midnightblue" stroke="midnightblue" points="374.8,-51.5 384.8,-48 374.8,-44.5 374.8,-51.5"/>
</g>
<!-- Node16 -->
<g id="node16" class="node">
<title>Node16</title>
<g id="a_node16"><a xlink:href="config_8c.html#a045a64a30d99a4bef2ebfd9b54aa9698" target="_top" xlink:title="Reads the specified configuration file.">
<polygon fill="none" stroke="black" points="133,-57.5 133,-76.5 200,-76.5 200,-57.5 133,-57.5"/>
<text text-anchor="middle" x="166.5" y="-64.5" font-family="Helvetica,sans-Serif" font-size="10.00">config_read</text>
</a>
</g>
</g>
<!-- Node15&#45;&gt;Node16 -->
<g id="edge17" class="edge">
<title>Node15&#45;&gt;Node16</title>
<path fill="none" stroke="midnightblue" d="M239.46,-56.56C225.9,-58.53 211.97,-60.55 200.02,-62.28"/>
<polygon fill="midnightblue" stroke="midnightblue" points="240.33,-59.97 249.72,-55.07 239.32,-53.05 240.33,-59.97"/>
</g>
<!-- Node17 -->
<g id="node17" class="node">
<title>Node17</title>
<g id="a_node17"><a xlink:href="classXCS.html#ad8780630d80d4bf5b76d9bf2f6c91f25" target="_top" xlink:title="Sets parameter values.">
<polygon fill="none" stroke="black" points="119,-19.5 119,-38.5 214,-38.5 214,-19.5 119,-19.5"/>
<text text-anchor="middle" x="166.5" y="-26.5" font-family="Helvetica,sans-Serif" font-size="10.00">XCS::set_params</text>
</a>
</g>
</g>
<!-- Node15&#45;&gt;Node17 -->
<g id="edge19" class="edge">
<title>Node15&#45;&gt;Node17</title>
<path fill="none" stroke="midnightblue" d="M239.76,-39.48C231.18,-38.24 222.44,-36.97 214.15,-35.77"/>
<polygon fill="midnightblue" stroke="midnightblue" points="239.32,-42.95 249.72,-40.93 240.33,-36.03 239.32,-42.95"/>
</g>
<!-- Node16&#45;&gt;Node6 -->
<g id="edge18" class="edge">
<title>Node16&#45;&gt;Node6</title>
<path fill="none" stroke="midnightblue" d="M131.23,-80.1C108.31,-88.85 79.08,-100.02 60.57,-107.09"/>
<polygon fill="midnightblue" stroke="midnightblue" points="132.52,-83.35 140.61,-76.51 130.02,-76.81 132.52,-83.35"/>
</g>
<!-- Node18 -->
<g id="node18" class="node">
<title>Node18</title>
<g id="a_node18"><a xlink:href="classXCS.html#a0c600c37d5e5160d553b52b6d5c179b4" target="_top" xlink:title="Sets XCSF input and output dimensions.">
<polygon fill="none" stroke="black" points="0,-38.5 0,-57.5 83,-57.5 83,-38.5 0,-38.5"/>
<text text-anchor="middle" x="41.5" y="-45.5" font-family="Helvetica,sans-Serif" font-size="10.00">XCS::set_dims</text>
</a>
</g>
</g>
<!-- Node17&#45;&gt;Node18 -->
<g id="edge20" class="edge">
<title>Node17&#45;&gt;Node18</title>
<path fill="none" stroke="midnightblue" d="M108.87,-37.75C100.15,-39.1 91.3,-40.46 83.02,-41.74"/>
<polygon fill="midnightblue" stroke="midnightblue" points="109.65,-41.17 119,-36.18 108.58,-34.25 109.65,-41.17"/>
</g>
<!-- Node19 -->
<g id="node19" class="node">
<title>Node19</title>
<g id="a_node19"><a xlink:href="classXCS.html#a608a50f998819369d28ef9966d6812ca" target="_top" xlink:title="Constructor.">
<polygon fill="none" stroke="black" points="9,-0.5 9,-19.5 74,-19.5 74,-0.5 9,-0.5"/>
<text text-anchor="middle" x="41.5" y="-7.5" font-family="Helvetica,sans-Serif" font-size="10.00">XCS::XCS</text>
</a>
</g>
</g>
<!-- Node17&#45;&gt;Node19 -->
<g id="edge21" class="edge">
<title>Node17&#45;&gt;Node19</title>
<path fill="none" stroke="midnightblue" d="M109.04,-20.28C97.06,-18.43 84.82,-16.54 74.16,-14.89"/>
<polygon fill="midnightblue" stroke="midnightblue" points="108.58,-23.75 119,-21.82 109.65,-16.83 108.58,-23.75"/>
</g>
</g>
</svg>
