<?xml version="1.0" encoding="UTF-8" standalone="no"?>
<!DOCTYPE svg PUBLIC "-//W3C//DTD SVG 1.1//EN"
 "http://www.w3.org/Graphics/SVG/1.1/DTD/svg11.dtd">
<!-- Generated by graphviz version 2.43.0 (0)
 -->
<!-- Title: cond_dgp_init Pages: 1 -->
<svg width="543pt" height="122pt"
 viewBox="0.00 0.00 543.00 121.65" xmlns="http://www.w3.org/2000/svg" xmlns:xlink="http://www.w3.org/1999/xlink">
<g id="graph0" class="graph" transform="scale(1 1) rotate(0) translate(4 117.65)">
<title>cond_dgp_init</title>
<!-- Node1 -->
<g id="node1" class="node">
<title>Node1</title>
<g id="a_node1"><a xlink:title="Creates and initialises a dynamical GP graph condition.">
<polygon fill="#bfbfbf" stroke="black" points="0,-56.15 0,-75.15 77,-75.15 77,-56.15 0,-56.15"/>
<text text-anchor="middle" x="38.5" y="-63.15" font-family="Helvetica,sans-Serif" font-size="10.00">cond_dgp_init</text>
</a>
</g>
</g>
<!-- Node2 -->
<g id="node2" class="node">
<title>Node2</title>
<g id="a_node2"><a xlink:href="dgp_8c.html#a2308a840f133298f5fc019610e62a6c7" target="_top" xlink:title="Initialises a new DGP graph.">
<polygon fill="none" stroke="black" points="116,-84.15 116,-103.15 175,-103.15 175,-84.15 116,-84.15"/>
<text text-anchor="middle" x="145.5" y="-91.15" font-family="Helvetica,sans-Serif" font-size="10.00">graph_init</text>
</a>
</g>
</g>
<!-- Node1&#45;&gt;Node2 -->
<g id="edge1" class="edge">
<title>Node1&#45;&gt;Node2</title>
<path fill="none" stroke="midnightblue" d="M75.34,-75.21C85.23,-77.84 96,-80.72 106.04,-83.39"/>
<polygon fill="midnightblue" stroke="midnightblue" points="105.2,-86.79 115.77,-85.99 107.01,-80.03 105.2,-86.79"/>
</g>
<!-- Node6 -->
<g id="node6" class="node">
<title>Node6</title>
<g id="a_node6"><a xlink:href="dgp_8c.html#a34dcc559c282cc59f6e8dc2c58c29297" target="_top" xlink:title="Randomises a specified DGP graph.">
<polygon fill="none" stroke="black" points="113,-37.15 113,-56.15 178,-56.15 178,-37.15 113,-37.15"/>
<text text-anchor="middle" x="145.5" y="-44.15" font-family="Helvetica,sans-Serif" font-size="10.00">graph_rand</text>
</a>
</g>
</g>
<!-- Node1&#45;&gt;Node6 -->
<g id="edge6" class="edge">
<title>Node1&#45;&gt;Node6</title>
<path fill="none" stroke="midnightblue" d="M77.11,-58.84C85.39,-57.34 94.22,-55.75 102.66,-54.22"/>
<polygon fill="midnightblue" stroke="midnightblue" points="103.48,-57.63 112.7,-52.4 102.23,-50.74 103.48,-57.63"/>
</g>
<!-- Node3 -->
<g id="node3" class="node">
<title>Node3</title>
<g id="a_node3"><a xlink:href="sam_8c.html#a7f7f30716900f06683a74486aca5f5a0" target="_top" xlink:title="Initialises self&#45;adaptive mutation rates.">
<polygon fill="none" stroke="black" points="238,-94.15 238,-113.15 291,-113.15 291,-94.15 238,-94.15"/>
<text text-anchor="middle" x="264.5" y="-101.15" font-family="Helvetica,sans-Serif" font-size="10.00">sam_init</text>
</a>
</g>
</g>
<!-- Node2&#45;&gt;Node3 -->
<g id="edge2" class="edge">
<title>Node2&#45;&gt;Node3</title>
<path fill="none" stroke="midnightblue" d="M175.12,-96.09C191.03,-97.45 210.97,-99.16 227.89,-100.6"/>
<polygon fill="midnightblue" stroke="midnightblue" points="227.7,-104.1 237.96,-101.46 228.3,-97.13 227.7,-104.1"/>
</g>
<!-- Node4 -->
<g id="node4" class="node">
<title>Node4</title>
<g id="a_node4"><a xlink:href="utils_8c.html#a894e776eb1a127a7b31a52bd86327a2a" target="_top" xlink:title="Returns a uniform random integer [min,max] not inclusive of max.">
<polygon fill="none" stroke="black" points="351,-56.15 351,-75.15 426,-75.15 426,-56.15 351,-56.15"/>
<text text-anchor="middle" x="388.5" y="-63.15" font-family="Helvetica,sans-Serif" font-size="10.00">irand_uniform</text>
</a>
</g>
</g>
<!-- Node3&#45;&gt;Node4 -->
<g id="edge3" class="edge">
<title>Node3&#45;&gt;Node4</title>
<path fill="none" stroke="midnightblue" d="M291.08,-95.68C307.3,-90.63 328.65,-83.98 347.13,-78.22"/>
<polygon fill="midnightblue" stroke="midnightblue" points="348.27,-81.53 356.77,-75.22 346.19,-74.85 348.27,-81.53"/>
</g>
<!-- Node5 -->
<g id="node5" class="node">
<title>Node5</title>
<g id="a_node5"><a xlink:href="utils_8c.html#a972761ba8f47a6c3e7396a7c685158fc" target="_top" xlink:title="Returns a uniform random float [min,max].">
<polygon fill="none" stroke="black" points="462,-37.15 462,-56.15 535,-56.15 535,-37.15 462,-37.15"/>
<text text-anchor="middle" x="498.5" y="-44.15" font-family="Helvetica,sans-Serif" font-size="10.00">rand_uniform</text>
</a>
</g>
</g>
<!-- Node3&#45;&gt;Node5 -->
<g id="edge5" class="edge">
<title>Node3&#45;&gt;Node5</title>
<path fill="none" stroke="midnightblue" d="M291.12,-103.51C323.32,-102.68 379.94,-99.06 426,-84.65 443.22,-79.26 461.15,-69.72 474.75,-61.55"/>
<polygon fill="midnightblue" stroke="midnightblue" points="476.76,-64.42 483.41,-56.17 473.06,-58.47 476.76,-64.42"/>
</g>
<!-- Node4&#45;&gt;Node5 -->
<g id="edge4" class="edge">
<title>Node4&#45;&gt;Node5</title>
<path fill="none" stroke="midnightblue" d="M426.06,-59.22C434.33,-57.76 443.21,-56.2 451.81,-54.69"/>
<polygon fill="midnightblue" stroke="midnightblue" points="452.46,-58.12 461.71,-52.94 451.25,-51.23 452.46,-58.12"/>
</g>
<!-- Node6&#45;&gt;Node4 -->
<g id="edge7" class="edge">
<title>Node6&#45;&gt;Node4</title>
<path fill="none" stroke="midnightblue" d="M178.01,-49.13C219.49,-52.4 292.77,-58.18 340.73,-61.96"/>
<polygon fill="midnightblue" stroke="midnightblue" points="340.62,-65.46 350.86,-62.76 341.17,-58.48 340.62,-65.46"/>
</g>
<!-- Node6&#45;&gt;Node5 -->
<g id="edge8" class="edge">
<title>Node6&#45;&gt;Node5</title>
<path fill="none" stroke="midnightblue" d="M159.08,-36.93C172.02,-27.58 193.19,-14.1 214,-8.65 302,14.42 409.23,-14.99 463.1,-33.58"/>
<polygon fill="midnightblue" stroke="midnightblue" points="462.24,-36.98 472.84,-37.02 464.58,-30.39 462.24,-36.98"/>
</g>
<!-- Node7 -->
<g id="node7" class="node">
<title>Node7</title>
<g id="a_node7"><a xlink:href="dgp_8c.html#a60cad5226bcd3510b7c52b046c4cb5d6" target="_top" xlink:title="Returns a random connection.">
<polygon fill="none" stroke="black" points="214,-18.15 214,-37.15 315,-37.15 315,-18.15 214,-18.15"/>
<text text-anchor="middle" x="264.5" y="-25.15" font-family="Helvetica,sans-Serif" font-size="10.00">random_connection</text>
</a>
</g>
</g>
<!-- Node6&#45;&gt;Node7 -->
<g id="edge9" class="edge">
<title>Node6&#45;&gt;Node7</title>
<path fill="none" stroke="midnightblue" d="M178.16,-41.51C186.13,-40.21 194.94,-38.78 203.79,-37.34"/>
<polygon fill="midnightblue" stroke="midnightblue" points="204.45,-40.78 213.76,-35.73 203.32,-33.87 204.45,-40.78"/>
</g>
<!-- Node7&#45;&gt;Node4 -->
<g id="edge10" class="edge">
<title>Node7&#45;&gt;Node4</title>
<path fill="none" stroke="midnightblue" d="M296.29,-37.24C311.6,-42.01 330.32,-47.84 346.8,-52.97"/>
<polygon fill="midnightblue" stroke="midnightblue" points="346.14,-56.43 356.72,-56.06 348.22,-49.75 346.14,-56.43"/>
</g>
<!-- Node7&#45;&gt;Node5 -->
<g id="edge11" class="edge">
<title>Node7&#45;&gt;Node5</title>
<path fill="none" stroke="midnightblue" d="M315.27,-31.72C355.73,-35.04 412.34,-39.67 451.69,-42.9"/>
<polygon fill="midnightblue" stroke="midnightblue" points="451.55,-46.4 461.8,-43.72 452.12,-39.42 451.55,-46.4"/>
</g>
</g>
</svg>
