<?xml version="1.0" encoding="UTF-8" standalone="no"?>
<!DOCTYPE svg PUBLIC "-//W3C//DTD SVG 1.1//EN"
 "http://www.w3.org/Graphics/SVG/1.1/DTD/svg11.dtd">
<!-- Generated by graphviz version 2.43.0 (0)
 -->
<!-- Title: cond_dgp_match Pages: 1 -->
<svg width="545pt" height="85pt"
 viewBox="0.00 0.00 545.00 85.00" xmlns="http://www.w3.org/2000/svg" xmlns:xlink="http://www.w3.org/1999/xlink">
<g id="graph0" class="graph" transform="scale(1 1) rotate(0) translate(4 81)">
<title>cond_dgp_match</title>
<!-- Node1 -->
<g id="node1" class="node">
<title>Node1</title>
<g id="a_node1"><a xlink:title=" ">
<polygon fill="#bfbfbf" stroke="black" points="0,-38.5 0,-57.5 91,-57.5 91,-38.5 0,-38.5"/>
<text text-anchor="middle" x="45.5" y="-45.5" font-family="Helvetica,sans-Serif" font-size="10.00">cond_dgp_match</text>
</a>
</g>
</g>
<!-- Node2 -->
<g id="node2" class="node">
<title>Node2</title>
<g id="a_node2"><a xlink:href="dgp_8c.html#abe0a33f0456b471c1c5c139331757fdc" target="_top" xlink:title="Returns the current state of a specified node in the graph.">
<polygon fill="none" stroke="black" points="128,-57.5 128,-76.5 201,-76.5 201,-57.5 128,-57.5"/>
<text text-anchor="middle" x="164.5" y="-64.5" font-family="Helvetica,sans-Serif" font-size="10.00">graph_output</text>
</a>
</g>
</g>
<!-- Node1&#45;&gt;Node2 -->
<g id="edge1" class="edge">
<title>Node1&#45;&gt;Node2</title>
<path fill="none" stroke="midnightblue" d="M91.07,-55.24C99.79,-56.65 108.96,-58.14 117.72,-59.57"/>
<polygon fill="midnightblue" stroke="midnightblue" points="117.35,-63.05 127.78,-61.2 118.47,-56.14 117.35,-63.05"/>
</g>
<!-- Node3 -->
<g id="node3" class="node">
<title>Node3</title>
<g id="a_node3"><a xlink:href="dgp_8c.html#a738c5f34dcb0e22f67fdb6750701c222" target="_top" xlink:title="Updates a DGP graph T cycles.">
<polygon fill="none" stroke="black" points="127,-19.5 127,-38.5 202,-38.5 202,-19.5 127,-19.5"/>
<text text-anchor="middle" x="164.5" y="-26.5" font-family="Helvetica,sans-Serif" font-size="10.00">graph_update</text>
</a>
</g>
</g>
<!-- Node1&#45;&gt;Node3 -->
<g id="edge2" class="edge">
<title>Node1&#45;&gt;Node3</title>
<path fill="none" stroke="midnightblue" d="M91.07,-40.76C99.42,-39.41 108.18,-37.98 116.6,-36.62"/>
<polygon fill="midnightblue" stroke="midnightblue" points="117.36,-40.04 126.66,-34.98 116.23,-33.13 117.36,-40.04"/>
</g>
<!-- Node4 -->
<g id="node4" class="node">
<title>Node4</title>
<g id="a_node4"><a xlink:href="dgp_8c.html#a36f9294ea7c9d84f1c39ad356445f664" target="_top" xlink:title="Resets the states to their initial state.">
<polygon fill="none" stroke="black" points="257.5,-38.5 257.5,-57.5 325.5,-57.5 325.5,-38.5 257.5,-38.5"/>
<text text-anchor="middle" x="291.5" y="-45.5" font-family="Helvetica,sans-Serif" font-size="10.00">graph_reset</text>
</a>
</g>
</g>
<!-- Node3&#45;&gt;Node4 -->
<g id="edge3" class="edge">
<title>Node3&#45;&gt;Node4</title>
<path fill="none" stroke="midnightblue" d="M202.33,-34.6C216.35,-36.73 232.46,-39.18 247.04,-41.39"/>
<polygon fill="midnightblue" stroke="midnightblue" points="246.93,-44.92 257.34,-42.96 247.98,-38 246.93,-44.92"/>
</g>
<!-- Node5 -->
<g id="node5" class="node">
<title>Node5</title>
<g id="a_node5"><a xlink:href="dgp_8c.html#a512333d7626fea1425b471bd7a3ec273" target="_top" xlink:title="Performs a synchronous update.">
<polygon fill="none" stroke="black" points="238,-0.5 238,-19.5 345,-19.5 345,-0.5 238,-0.5"/>
<text text-anchor="middle" x="291.5" y="-7.5" font-family="Helvetica,sans-Serif" font-size="10.00">synchronous_update</text>
</a>
</g>
</g>
<!-- Node3&#45;&gt;Node5 -->
<g id="edge4" class="edge">
<title>Node3&#45;&gt;Node5</title>
<path fill="none" stroke="midnightblue" d="M202.33,-23.4C210.3,-22.19 218.94,-20.88 227.6,-19.56"/>
<polygon fill="midnightblue" stroke="midnightblue" points="228.37,-22.98 237.73,-18.02 227.31,-16.06 228.37,-22.98"/>
</g>
<!-- Node6 -->
<g id="node6" class="node">
<title>Node6</title>
<g id="a_node6"><a xlink:href="dgp_8c.html#ace96d089b13bac9a14edeb6406b6d8cb" target="_top" xlink:title="Returns the result from applying a specified activation function.">
<polygon fill="none" stroke="black" points="381,-0.5 381,-19.5 458,-19.5 458,-0.5 381,-0.5"/>
<text text-anchor="middle" x="419.5" y="-7.5" font-family="Helvetica,sans-Serif" font-size="10.00">node_activate</text>
</a>
</g>
</g>
<!-- Node5&#45;&gt;Node6 -->
<g id="edge5" class="edge">
<title>Node5&#45;&gt;Node6</title>
<path fill="none" stroke="midnightblue" d="M345.21,-10C353.74,-10 362.53,-10 370.93,-10"/>
<polygon fill="midnightblue" stroke="midnightblue" points="370.95,-13.5 380.95,-10 370.95,-6.5 370.95,-13.5"/>
</g>
<!-- Node7 -->
<g id="node7" class="node">
<title>Node7</title>
<g id="a_node7"><a xlink:href="utils_8h.html#a234dd9ca33bcf1fba3e675bc900abc88" target="_top" xlink:title="Returns a float clamped within the specified range.">
<polygon fill="none" stroke="black" points="494,-0.5 494,-19.5 537,-19.5 537,-0.5 494,-0.5"/>
<text text-anchor="middle" x="515.5" y="-7.5" font-family="Helvetica,sans-Serif" font-size="10.00">clamp</text>
</a>
</g>
</g>
<!-- Node6&#45;&gt;Node7 -->
<g id="edge6" class="edge">
<title>Node6&#45;&gt;Node7</title>
<path fill="none" stroke="midnightblue" d="M458.19,-10C466.64,-10 475.52,-10 483.65,-10"/>
<polygon fill="midnightblue" stroke="midnightblue" points="483.83,-13.5 493.83,-10 483.83,-6.5 483.83,-13.5"/>
</g>
</g>
</svg>
