<?xml version="1.0" encoding="UTF-8" standalone="no"?>
<!DOCTYPE svg PUBLIC "-//W3C//DTD SVG 1.1//EN"
 "http://www.w3.org/Graphics/SVG/1.1/DTD/svg11.dtd">
<!-- Generated by graphviz version 2.43.0 (0)
 -->
<!-- Title: cond_param_json_export Pages: 1 -->
<svg width="756pt" height="367pt"
 viewBox="0.00 0.00 756.00 366.50" xmlns="http://www.w3.org/2000/svg" xmlns:xlink="http://www.w3.org/1999/xlink">
<g id="graph0" class="graph" transform="scale(1 1) rotate(0) translate(4 362.5)">
<title>cond_param_json_export</title>
<!-- Node1 -->
<g id="node1" class="node">
<title>Node1</title>
<g id="a_node1"><a xlink:title="Returns a json formatted string of the condition parameters.">
<polygon fill="#bfbfbf" stroke="black" points="0,-209.5 0,-228.5 125,-228.5 125,-209.5 0,-209.5"/>
<text text-anchor="middle" x="62.5" y="-216.5" font-family="Helvetica,sans-Serif" font-size="10.00">cond_param_json_export</text>
</a>
</g>
</g>
<!-- Node2 -->
<g id="node2" class="node">
<title>Node2</title>
<g id="a_node2"><a xlink:href="condition_8c.html#acd584c89e889fee4610d4a70e89c6402" target="_top" xlink:title="Returns a json formatted string of the center&#45;spread parameters.">
<polygon fill="none" stroke="black" points="161,-316.5 161,-335.5 305,-335.5 305,-316.5 161,-316.5"/>
<text text-anchor="middle" x="233" y="-323.5" font-family="Helvetica,sans-Serif" font-size="10.00">cond_param_json_export_csr</text>
</a>
</g>
</g>
<!-- Node1&#45;&gt;Node2 -->
<g id="edge1" class="edge">
<title>Node1&#45;&gt;Node2</title>
<path fill="none" stroke="midnightblue" d="M71.28,-228.55C86.55,-246.64 122.33,-285.98 161,-307 165.19,-309.28 169.68,-311.3 174.28,-313.08"/>
<polygon fill="midnightblue" stroke="midnightblue" points="173.23,-316.43 183.83,-316.43 175.55,-309.82 173.23,-316.43"/>
</g>
<!-- Node3 -->
<g id="node3" class="node">
<title>Node3</title>
<g id="a_node3"><a xlink:href="condition_8c.html#a54a3d044167738974491766ddc699d14" target="_top" xlink:title="Returns a json formatted string of the ternary parameters.">
<polygon fill="none" stroke="black" points="170.5,-267 170.5,-297 295.5,-297 295.5,-267 170.5,-267"/>
<text text-anchor="start" x="178.5" y="-285" font-family="Helvetica,sans-Serif" font-size="10.00">cond_param_json_export</text>
<text text-anchor="middle" x="233" y="-274" font-family="Helvetica,sans-Serif" font-size="10.00">_ternary</text>
</a>
</g>
</g>
<!-- Node1&#45;&gt;Node3 -->
<g id="edge2" class="edge">
<title>Node1&#45;&gt;Node3</title>
<path fill="none" stroke="midnightblue" d="M87.46,-228.59C107.14,-236.41 135.79,-247.65 161,-257 166.79,-259.15 172.86,-261.35 178.91,-263.52"/>
<polygon fill="midnightblue" stroke="midnightblue" points="177.77,-266.83 188.36,-266.89 180.12,-260.24 177.77,-266.83"/>
</g>
<!-- Node4 -->
<g id="node4" class="node">
<title>Node4</title>
<g id="a_node4"><a xlink:href="condition_8c.html#af5a052e347755190271b32d8b09ec026" target="_top" xlink:title="Returns a string representation of a condition type from an integer.">
<polygon fill="none" stroke="black" points="170.5,-228.5 170.5,-247.5 295.5,-247.5 295.5,-228.5 170.5,-228.5"/>
<text text-anchor="middle" x="233" y="-235.5" font-family="Helvetica,sans-Serif" font-size="10.00">condition_type_as_string</text>
</a>
</g>
</g>
<!-- Node1&#45;&gt;Node4 -->
<g id="edge3" class="edge">
<title>Node1&#45;&gt;Node4</title>
<path fill="none" stroke="midnightblue" d="M125.29,-225.97C136.62,-227.24 148.54,-228.59 160.13,-229.9"/>
<polygon fill="midnightblue" stroke="midnightblue" points="159.89,-233.39 170.22,-231.03 160.68,-226.44 159.89,-233.39"/>
</g>
<!-- Node5 -->
<g id="node5" class="node">
<title>Node5</title>
<g id="a_node5"><a xlink:href="dgp_8c.html#aedf264534de2691640b2389251db7927" target="_top" xlink:title="Returns a json formatted string of the DGP parameters.">
<polygon fill="none" stroke="black" points="173,-190.5 173,-209.5 293,-209.5 293,-190.5 173,-190.5"/>
<text text-anchor="middle" x="233" y="-197.5" font-family="Helvetica,sans-Serif" font-size="10.00">graph_args_json_export</text>
</a>
</g>
</g>
<!-- Node1&#45;&gt;Node5 -->
<g id="edge4" class="edge">
<title>Node1&#45;&gt;Node5</title>
<path fill="none" stroke="midnightblue" d="M125.29,-212.03C137.39,-210.67 150.17,-209.23 162.51,-207.84"/>
<polygon fill="midnightblue" stroke="midnightblue" points="163.2,-211.28 172.75,-206.68 162.42,-204.32 163.2,-211.28"/>
</g>
<!-- Node6 -->
<g id="node6" class="node">
<title>Node6</title>
<g id="a_node6"><a xlink:href="neural__layer__args_8c.html#a660f9e96fa6caf7aa200a6eead34501b" target="_top" xlink:title="Returns a json formatted string of the neural layer parameters.">
<polygon fill="none" stroke="black" points="174.5,-152.5 174.5,-171.5 291.5,-171.5 291.5,-152.5 174.5,-152.5"/>
<text text-anchor="middle" x="233" y="-159.5" font-family="Helvetica,sans-Serif" font-size="10.00">layer_args_json_export</text>
</a>
</g>
</g>
<!-- Node1&#45;&gt;Node6 -->
<g id="edge5" class="edge">
<title>Node1&#45;&gt;Node6</title>
<path fill="none" stroke="midnightblue" d="M86.09,-209.38C105.69,-201.23 134.93,-189.54 161,-181 168.17,-178.65 175.81,-176.38 183.32,-174.26"/>
<polygon fill="midnightblue" stroke="midnightblue" points="184.36,-177.61 193.08,-171.59 182.51,-170.86 184.36,-177.61"/>
</g>
<!-- Node24 -->
<g id="node24" class="node">
<title>Node24</title>
<g id="a_node24"><a xlink:href="gp_8c.html#aff82366cbfae9c6c193acf4a52674270" target="_top" xlink:title="Returns a json formatted string of the GP tree parameters.">
<polygon fill="none" stroke="black" points="176.5,-114.5 176.5,-133.5 289.5,-133.5 289.5,-114.5 176.5,-114.5"/>
<text text-anchor="middle" x="233" y="-121.5" font-family="Helvetica,sans-Serif" font-size="10.00">tree_args_json_export</text>
</a>
</g>
</g>
<!-- Node1&#45;&gt;Node24 -->
<g id="edge24" class="edge">
<title>Node1&#45;&gt;Node24</title>
<path fill="none" stroke="midnightblue" d="M73.1,-209.31C89.61,-193.19 125.07,-160.88 161,-143 165.66,-140.68 170.65,-138.61 175.73,-136.78"/>
<polygon fill="midnightblue" stroke="midnightblue" points="177.16,-140 185.56,-133.55 174.97,-133.35 177.16,-140"/>
</g>
<!-- Node7 -->
<g id="node7" class="node">
<title>Node7</title>
<g id="a_node7"><a xlink:href="neural__layer__args_8c.html#a0d29d99487e5afd1746e7ac70fadf68f" target="_top" xlink:title="Adds layer activation function to a json object.">
<polygon fill="none" stroke="black" points="351.5,-328 351.5,-358 468.5,-358 468.5,-328 351.5,-328"/>
<text text-anchor="start" x="359.5" y="-346" font-family="Helvetica,sans-Serif" font-size="10.00">layer_args_json_export</text>
<text text-anchor="middle" x="410" y="-335" font-family="Helvetica,sans-Serif" font-size="10.00">_activation</text>
</a>
</g>
</g>
<!-- Node6&#45;&gt;Node7 -->
<g id="edge6" class="edge">
<title>Node6&#45;&gt;Node7</title>
<path fill="none" stroke="midnightblue" d="M291.62,-171.5C296.56,-173.99 301.13,-177.11 305,-181 349.42,-225.62 298.66,-271.41 341,-318 342.22,-319.34 343.52,-320.62 344.89,-321.82"/>
<polygon fill="midnightblue" stroke="midnightblue" points="343.2,-324.92 353.34,-327.99 347.33,-319.27 343.2,-324.92"/>
</g>
<!-- Node9 -->
<g id="node9" class="node">
<title>Node9</title>
<g id="a_node9"><a xlink:href="neural__layer__args_8c.html#aba8bd68ce834099ac6558a3b2560963a" target="_top" xlink:title="Adds layer evolutionary parameters to a json object.">
<polygon fill="none" stroke="black" points="341,-289.5 341,-308.5 479,-308.5 479,-289.5 341,-289.5"/>
<text text-anchor="middle" x="410" y="-296.5" font-family="Helvetica,sans-Serif" font-size="10.00">layer_args_json_export_evo</text>
</a>
</g>
</g>
<!-- Node6&#45;&gt;Node9 -->
<g id="edge8" class="edge">
<title>Node6&#45;&gt;Node9</title>
<path fill="none" stroke="midnightblue" d="M290.56,-171.54C295.83,-174.02 300.77,-177.12 305,-181 339.52,-212.63 306.66,-248.18 341,-280 342.68,-281.56 344.48,-282.99 346.37,-284.3"/>
<polygon fill="midnightblue" stroke="midnightblue" points="344.73,-287.4 355.15,-289.36 348.23,-281.33 344.73,-287.4"/>
</g>
<!-- Node10 -->
<g id="node10" class="node">
<title>Node10</title>
<g id="a_node10"><a xlink:href="neural__layer__args_8c.html#a7b6e5027adbd710fc3653c7056c22fa2" target="_top" xlink:title="Adds layer input parameters to a json object.">
<polygon fill="none" stroke="black" points="351.5,-240 351.5,-270 468.5,-270 468.5,-240 351.5,-240"/>
<text text-anchor="start" x="359.5" y="-258" font-family="Helvetica,sans-Serif" font-size="10.00">layer_args_json_export</text>
<text text-anchor="middle" x="410" y="-247" font-family="Helvetica,sans-Serif" font-size="10.00">_inputs</text>
</a>
</g>
</g>
<!-- Node6&#45;&gt;Node10 -->
<g id="edge9" class="edge">
<title>Node6&#45;&gt;Node10</title>
<path fill="none" stroke="midnightblue" d="M286.26,-171.51C292.89,-173.98 299.33,-177.09 305,-181 327.54,-196.55 319.09,-214.58 341,-231 342.83,-232.37 344.75,-233.67 346.73,-234.9"/>
<polygon fill="midnightblue" stroke="midnightblue" points="345.3,-238.11 355.75,-239.85 348.67,-231.97 345.3,-238.11"/>
</g>
<!-- Node12 -->
<g id="node12" class="node">
<title>Node12</title>
<g id="a_node12"><a xlink:href="neural__layer__args_8c.html#a1130173f486e5e1b647a65ff0822aebc" target="_top" xlink:title="Adds layer scaling parameters to a json object.">
<polygon fill="none" stroke="black" points="351.5,-191 351.5,-221 468.5,-221 468.5,-191 351.5,-191"/>
<text text-anchor="start" x="359.5" y="-209" font-family="Helvetica,sans-Serif" font-size="10.00">layer_args_json_export</text>
<text text-anchor="middle" x="410" y="-198" font-family="Helvetica,sans-Serif" font-size="10.00">_scale</text>
</a>
</g>
</g>
<!-- Node6&#45;&gt;Node12 -->
<g id="edge11" class="edge">
<title>Node6&#45;&gt;Node12</title>
<path fill="none" stroke="midnightblue" d="M271.97,-171.55C292.29,-176.66 317.92,-183.1 341.51,-189.03"/>
<polygon fill="midnightblue" stroke="midnightblue" points="340.91,-192.49 351.47,-191.53 342.62,-185.7 340.91,-192.49"/>
</g>
<!-- Node13 -->
<g id="node13" class="node">
<title>Node13</title>
<g id="a_node13"><a xlink:href="neural__layer__args_8c.html#a686e3f11eb7bb524effd5ddb75bdbd34" target="_top" xlink:title="Adds layer gradient descent parameters to a json object.">
<polygon fill="none" stroke="black" points="341,-152.5 341,-171.5 479,-171.5 479,-152.5 341,-152.5"/>
<text text-anchor="middle" x="410" y="-159.5" font-family="Helvetica,sans-Serif" font-size="10.00">layer_args_json_export_sgd</text>
</a>
</g>
</g>
<!-- Node6&#45;&gt;Node13 -->
<g id="edge12" class="edge">
<title>Node6&#45;&gt;Node13</title>
<path fill="none" stroke="midnightblue" d="M291.79,-162C304.2,-162 317.52,-162 330.56,-162"/>
<polygon fill="midnightblue" stroke="midnightblue" points="330.94,-165.5 340.94,-162 330.94,-158.5 330.94,-165.5"/>
</g>
<!-- Node14 -->
<g id="node14" class="node">
<title>Node14</title>
<g id="a_node14"><a xlink:href="neural__layer_8c.html#a0e2222a263f09abb981bc7273cd88d7e" target="_top" xlink:title="Returns a string representation of a layer type from an integer.">
<polygon fill="none" stroke="black" points="356.5,-114.5 356.5,-133.5 463.5,-133.5 463.5,-114.5 356.5,-114.5"/>
<text text-anchor="middle" x="410" y="-121.5" font-family="Helvetica,sans-Serif" font-size="10.00">layer_type_as_string</text>
</a>
</g>
</g>
<!-- Node6&#45;&gt;Node14 -->
<g id="edge13" class="edge">
<title>Node6&#45;&gt;Node14</title>
<path fill="none" stroke="midnightblue" d="M278.16,-152.41C301.57,-147.33 330.51,-141.04 355.21,-135.68"/>
<polygon fill="midnightblue" stroke="midnightblue" points="356.13,-139.06 365.16,-133.52 354.64,-132.22 356.13,-139.06"/>
</g>
<!-- Node15 -->
<g id="node15" class="node">
<title>Node15</title>
<g id="a_node15"><a xlink:href="neural_8c.html#a6466387dd7c533e0f15da4c2127bfd79" target="_top" xlink:title="Initialises and creates a new neural network from a parameter list.">
<polygon fill="none" stroke="black" points="372.5,-76.5 372.5,-95.5 447.5,-95.5 447.5,-76.5 372.5,-76.5"/>
<text text-anchor="middle" x="410" y="-83.5" font-family="Helvetica,sans-Serif" font-size="10.00">neural_create</text>
</a>
</g>
</g>
<!-- Node6&#45;&gt;Node15 -->
<g id="edge14" class="edge">
<title>Node6&#45;&gt;Node15</title>
<path fill="none" stroke="midnightblue" d="M283.93,-152.4C291.27,-149.94 298.53,-146.85 305,-143 324.99,-131.1 321.08,-117.01 341,-105 347.57,-101.04 354.99,-97.88 362.45,-95.37"/>
<polygon fill="midnightblue" stroke="midnightblue" points="363.66,-98.66 372.22,-92.42 361.64,-91.96 363.66,-98.66"/>
</g>
<!-- Node19 -->
<g id="node19" class="node">
<title>Node19</title>
<g id="a_node19"><a xlink:href="neural_8c.html#ad70aee7c40f698d4be45e3d419051c2f" target="_top" xlink:title="Initialises an empty neural network.">
<polygon fill="none" stroke="black" points="544,-38.5 544,-57.5 605,-57.5 605,-38.5 544,-38.5"/>
<text text-anchor="middle" x="574.5" y="-45.5" font-family="Helvetica,sans-Serif" font-size="10.00">neural_init</text>
</a>
</g>
</g>
<!-- Node6&#45;&gt;Node19 -->
<g id="edge23" class="edge">
<title>Node6&#45;&gt;Node19</title>
<path fill="none" stroke="midnightblue" d="M289.49,-152.37C295.09,-149.91 300.39,-146.84 305,-143 333.71,-119.07 310.26,-88.26 341,-67 398.53,-27.22 484.26,-32.47 533.96,-40.09"/>
<polygon fill="midnightblue" stroke="midnightblue" points="533.55,-43.57 543.99,-41.74 534.69,-36.67 533.55,-43.57"/>
</g>
<!-- Node22 -->
<g id="node22" class="node">
<title>Node22</title>
<g id="a_node22"><a xlink:href="neural_8c.html#a9c3e1da0425d0fc17daa12c21e4799ca" target="_top" xlink:title="Frees a neural network.">
<polygon fill="none" stroke="black" points="377.5,-0.5 377.5,-19.5 442.5,-19.5 442.5,-0.5 377.5,-0.5"/>
<text text-anchor="middle" x="410" y="-7.5" font-family="Helvetica,sans-Serif" font-size="10.00">neural_free</text>
</a>
</g>
</g>
<!-- Node6&#45;&gt;Node22 -->
<g id="edge21" class="edge">
<title>Node6&#45;&gt;Node22</title>
<path fill="none" stroke="midnightblue" d="M291.03,-152.42C296.14,-149.94 300.92,-146.85 305,-143 342.1,-107.98 305.29,-70.44 341,-34 348.23,-26.62 357.86,-21.51 367.6,-17.96"/>
<polygon fill="midnightblue" stroke="midnightblue" points="368.79,-21.26 377.28,-14.92 366.69,-14.58 368.79,-21.26"/>
</g>
<!-- Node8 -->
<g id="node8" class="node">
<title>Node8</title>
<g id="a_node8"><a xlink:href="neural__activations_8c.html#a429f5b4427682cb174e3d4d56f181a22" target="_top" xlink:title="Returns the name of a specified activation function.">
<polygon fill="none" stroke="black" points="515,-333.5 515,-352.5 634,-352.5 634,-333.5 515,-333.5"/>
<text text-anchor="middle" x="574.5" y="-340.5" font-family="Helvetica,sans-Serif" font-size="10.00">neural_activation_string</text>
</a>
</g>
</g>
<!-- Node7&#45;&gt;Node8 -->
<g id="edge7" class="edge">
<title>Node7&#45;&gt;Node8</title>
<path fill="none" stroke="midnightblue" d="M468.75,-343C480.32,-343 492.59,-343 504.5,-343"/>
<polygon fill="midnightblue" stroke="midnightblue" points="504.84,-346.5 514.84,-343 504.84,-339.5 504.84,-346.5"/>
</g>
<!-- Node11 -->
<g id="node11" class="node">
<title>Node11</title>
<g id="a_node11"><a xlink:href="neural__layer_8c.html#ad1b7188119d0d96791ee0d87c105896a" target="_top" xlink:title="Returns a whether a layer type expects images as input.">
<polygon fill="none" stroke="black" points="516.5,-245.5 516.5,-264.5 632.5,-264.5 632.5,-245.5 516.5,-245.5"/>
<text text-anchor="middle" x="574.5" y="-252.5" font-family="Helvetica,sans-Serif" font-size="10.00">layer_receives_images</text>
</a>
</g>
</g>
<!-- Node10&#45;&gt;Node11 -->
<g id="edge10" class="edge">
<title>Node10&#45;&gt;Node11</title>
<path fill="none" stroke="midnightblue" d="M468.75,-255C480.86,-255 493.74,-255 506.17,-255"/>
<polygon fill="midnightblue" stroke="midnightblue" points="506.48,-258.5 516.48,-255 506.48,-251.5 506.48,-258.5"/>
</g>
<!-- Node16 -->
<g id="node16" class="node">
<title>Node16</title>
<g id="a_node16"><a xlink:href="neural__layer_8h.html#a33f40237cec8d79bf6325b78d1f955fe" target="_top" xlink:title="Creates and initialises a new layer.">
<polygon fill="none" stroke="black" points="546.5,-114.5 546.5,-133.5 602.5,-133.5 602.5,-114.5 546.5,-114.5"/>
<text text-anchor="middle" x="574.5" y="-121.5" font-family="Helvetica,sans-Serif" font-size="10.00">layer_init</text>
</a>
</g>
</g>
<!-- Node15&#45;&gt;Node16 -->
<g id="edge15" class="edge">
<title>Node15&#45;&gt;Node16</title>
<path fill="none" stroke="midnightblue" d="M447.87,-94.62C474.33,-100.81 509.83,-109.11 536.35,-115.31"/>
<polygon fill="midnightblue" stroke="midnightblue" points="535.86,-118.79 546.39,-117.66 537.45,-111.98 535.86,-118.79"/>
</g>
<!-- Node15&#45;&gt;Node19 -->
<g id="edge18" class="edge">
<title>Node15&#45;&gt;Node19</title>
<path fill="none" stroke="midnightblue" d="M447.87,-77.38C473.5,-71.38 507.62,-63.4 533.84,-57.27"/>
<polygon fill="midnightblue" stroke="midnightblue" points="534.88,-60.63 543.82,-54.94 533.29,-53.81 534.88,-60.63"/>
</g>
<!-- Node20 -->
<g id="node20" class="node">
<title>Node20</title>
<g id="a_node20"><a xlink:href="neural_8c.html#a1c1c06446fc719b8293aade2ded8433c" target="_top" xlink:title="Inserts a layer at the head of a neural network.">
<polygon fill="none" stroke="black" points="540,-76.5 540,-95.5 609,-95.5 609,-76.5 540,-76.5"/>
<text text-anchor="middle" x="574.5" y="-83.5" font-family="Helvetica,sans-Serif" font-size="10.00">neural_push</text>
</a>
</g>
</g>
<!-- Node15&#45;&gt;Node20 -->
<g id="edge19" class="edge">
<title>Node15&#45;&gt;Node20</title>
<path fill="none" stroke="midnightblue" d="M447.87,-86C472.15,-86 504.06,-86 529.64,-86"/>
<polygon fill="midnightblue" stroke="midnightblue" points="529.82,-89.5 539.82,-86 529.82,-82.5 529.82,-89.5"/>
</g>
<!-- Node17 -->
<g id="node17" class="node">
<title>Node17</title>
<g id="a_node17"><a xlink:href="neural__layer_8h.html#a21a8acbaa483c46984c4f5f20d4edf95" target="_top" xlink:title="Initialises a layer to default values.">
<polygon fill="none" stroke="black" points="670.5,-152.5 670.5,-171.5 747.5,-171.5 747.5,-152.5 670.5,-152.5"/>
<text text-anchor="middle" x="709" y="-159.5" font-family="Helvetica,sans-Serif" font-size="10.00">layer_defaults</text>
</a>
</g>
</g>
<!-- Node16&#45;&gt;Node17 -->
<g id="edge16" class="edge">
<title>Node16&#45;&gt;Node17</title>
<path fill="none" stroke="midnightblue" d="M602.63,-131.78C620.59,-136.93 644.52,-143.8 665.04,-149.68"/>
<polygon fill="midnightblue" stroke="midnightblue" points="664.22,-153.09 674.8,-152.48 666.15,-146.36 664.22,-153.09"/>
</g>
<!-- Node18 -->
<g id="node18" class="node">
<title>Node18</title>
<g id="a_node18"><a xlink:href="neural__layer_8h.html#a786726dce503a14b3bdd88b1ab5c356f" target="_top" xlink:title="Sets a neural network layer&#39;s functions to the implementations.">
<polygon fill="none" stroke="black" points="670,-114.5 670,-133.5 748,-133.5 748,-114.5 670,-114.5"/>
<text text-anchor="middle" x="709" y="-121.5" font-family="Helvetica,sans-Serif" font-size="10.00">layer_set_vptr</text>
</a>
</g>
</g>
<!-- Node16&#45;&gt;Node18 -->
<g id="edge17" class="edge">
<title>Node16&#45;&gt;Node18</title>
<path fill="none" stroke="midnightblue" d="M602.63,-124C619.06,-124 640.49,-124 659.73,-124"/>
<polygon fill="midnightblue" stroke="midnightblue" points="659.85,-127.5 669.85,-124 659.85,-120.5 659.85,-127.5"/>
</g>
<!-- Node21 -->
<g id="node21" class="node">
<title>Node21</title>
<g id="a_node21"><a xlink:href="neural_8c.html#afab574137fbf9da9a286d020917c8295" target="_top" xlink:title="Inserts a layer into a neural network.">
<polygon fill="none" stroke="black" points="673,-76.5 673,-95.5 745,-95.5 745,-76.5 673,-76.5"/>
<text text-anchor="middle" x="709" y="-83.5" font-family="Helvetica,sans-Serif" font-size="10.00">neural_insert</text>
</a>
</g>
</g>
<!-- Node20&#45;&gt;Node21 -->
<g id="edge20" class="edge">
<title>Node20&#45;&gt;Node21</title>
<path fill="none" stroke="midnightblue" d="M609.28,-86C625.56,-86 645.31,-86 662.86,-86"/>
<polygon fill="midnightblue" stroke="midnightblue" points="662.9,-89.5 672.9,-86 662.9,-82.5 662.9,-89.5"/>
</g>
<!-- Node23 -->
<g id="node23" class="node">
<title>Node23</title>
<g id="a_node23"><a xlink:href="neural__layer_8h.html#a5ea2541eb1936ed851001c4a8b99b08f" target="_top" xlink:title="Frees the memory used by the layer.">
<polygon fill="none" stroke="black" points="545,-0.5 545,-19.5 604,-19.5 604,-0.5 545,-0.5"/>
<text text-anchor="middle" x="574.5" y="-7.5" font-family="Helvetica,sans-Serif" font-size="10.00">layer_free</text>
</a>
</g>
</g>
<!-- Node22&#45;&gt;Node23 -->
<g id="edge22" class="edge">
<title>Node22&#45;&gt;Node23</title>
<path fill="none" stroke="midnightblue" d="M442.72,-10C469.01,-10 506.49,-10 534.59,-10"/>
<polygon fill="midnightblue" stroke="midnightblue" points="534.86,-13.5 544.86,-10 534.86,-6.5 534.86,-13.5"/>
</g>
</g>
</svg>
