<?xml version="1.0" encoding="UTF-8" standalone="no"?>
<!DOCTYPE svg PUBLIC "-//W3C//DTD SVG 1.1//EN"
 "http://www.w3.org/Graphics/SVG/1.1/DTD/svg11.dtd">
<!-- Generated by graphviz version 2.43.0 (0)
 -->
<!-- Title: cond_neural_match Pages: 1 -->
<svg width="347pt" height="66pt"
 viewBox="0.00 0.00 347.00 66.00" xmlns="http://www.w3.org/2000/svg" xmlns:xlink="http://www.w3.org/1999/xlink">
<g id="graph0" class="graph" transform="scale(1 1) rotate(0) translate(4 62)">
<title>cond_neural_match</title>
<!-- Node1 -->
<g id="node1" class="node">
<title>Node1</title>
<g id="a_node1"><a xlink:title=" ">
<polygon fill="#bfbfbf" stroke="black" points="0,-19.5 0,-38.5 101,-38.5 101,-19.5 0,-19.5"/>
<text text-anchor="middle" x="50.5" y="-26.5" font-family="Helvetica,sans-Serif" font-size="10.00">cond_neural_match</text>
</a>
</g>
</g>
<!-- Node2 -->
<g id="node2" class="node">
<title>Node2</title>
<g id="a_node2"><a xlink:href="neural_8c.html#aea148f8cb311a148672f4c598ee3bbe4" target="_top" xlink:title="Returns the output of a specified neuron in the output layer of a neural network.">
<polygon fill="none" stroke="black" points="145,-38.5 145,-57.5 220,-57.5 220,-38.5 145,-38.5"/>
<text text-anchor="middle" x="182.5" y="-45.5" font-family="Helvetica,sans-Serif" font-size="10.00">neural_output</text>
</a>
</g>
</g>
<!-- Node1&#45;&gt;Node2 -->
<g id="edge1" class="edge">
<title>Node1&#45;&gt;Node2</title>
<path fill="none" stroke="midnightblue" d="M101.02,-36.24C112,-37.84 123.61,-39.54 134.49,-41.13"/>
<polygon fill="midnightblue" stroke="midnightblue" points="134.25,-44.63 144.66,-42.62 135.27,-37.71 134.25,-44.63"/>
</g>
<!-- Node4 -->
<g id="node4" class="node">
<title>Node4</title>
<g id="a_node4"><a xlink:href="neural_8c.html#ab23124bb3b9a6ea9bdde67ce44bc3fea" target="_top" xlink:title="Forward propagates a neural network.">
<polygon fill="none" stroke="black" points="137,-0.5 137,-19.5 228,-19.5 228,-0.5 137,-0.5"/>
<text text-anchor="middle" x="182.5" y="-7.5" font-family="Helvetica,sans-Serif" font-size="10.00">neural_propagate</text>
</a>
</g>
</g>
<!-- Node1&#45;&gt;Node4 -->
<g id="edge3" class="edge">
<title>Node1&#45;&gt;Node4</title>
<path fill="none" stroke="midnightblue" d="M101.02,-21.76C109.48,-20.53 118.31,-19.24 126.89,-17.98"/>
<polygon fill="midnightblue" stroke="midnightblue" points="127.42,-21.44 136.81,-16.53 126.41,-14.51 127.42,-21.44"/>
</g>
<!-- Node3 -->
<g id="node3" class="node">
<title>Node3</title>
<g id="a_node3"><a xlink:href="neural__layer_8h.html#a72aa2a09ea2bd24f78635233dd00be36" target="_top" xlink:title="Returns the outputs of a layer.">
<polygon fill="none" stroke="black" points="266.5,-38.5 266.5,-57.5 336.5,-57.5 336.5,-38.5 266.5,-38.5"/>
<text text-anchor="middle" x="301.5" y="-45.5" font-family="Helvetica,sans-Serif" font-size="10.00">layer_output</text>
</a>
</g>
</g>
<!-- Node2&#45;&gt;Node3 -->
<g id="edge2" class="edge">
<title>Node2&#45;&gt;Node3</title>
<path fill="none" stroke="midnightblue" d="M220.2,-48C231.6,-48 244.29,-48 256.16,-48"/>
<polygon fill="midnightblue" stroke="midnightblue" points="256.32,-51.5 266.32,-48 256.32,-44.5 256.32,-51.5"/>
</g>
<!-- Node4&#45;&gt;Node3 -->
<g id="edge5" class="edge">
<title>Node4&#45;&gt;Node3</title>
<path fill="none" stroke="midnightblue" d="M213.02,-19.59C227.71,-24.36 245.66,-30.19 261.47,-35.32"/>
<polygon fill="midnightblue" stroke="midnightblue" points="260.39,-38.65 270.99,-38.41 262.56,-32 260.39,-38.65"/>
</g>
<!-- Node5 -->
<g id="node5" class="node">
<title>Node5</title>
<g id="a_node5"><a xlink:href="neural__layer_8h.html#a8f853ce40e3ff3a4304cfc94a50e7861" target="_top" xlink:title="Forward propagates an input through the layer.">
<polygon fill="none" stroke="black" points="264,-0.5 264,-19.5 339,-19.5 339,-0.5 264,-0.5"/>
<text text-anchor="middle" x="301.5" y="-7.5" font-family="Helvetica,sans-Serif" font-size="10.00">layer_forward</text>
</a>
</g>
</g>
<!-- Node4&#45;&gt;Node5 -->
<g id="edge4" class="edge">
<title>Node4&#45;&gt;Node5</title>
<path fill="none" stroke="midnightblue" d="M228.07,-10C236.42,-10 245.18,-10 253.6,-10"/>
<polygon fill="midnightblue" stroke="midnightblue" points="253.66,-13.5 263.66,-10 253.66,-6.5 253.66,-13.5"/>
</g>
</g>
</svg>
