<?xml version="1.0" encoding="UTF-8" standalone="no"?>
<!DOCTYPE svg PUBLIC "-//W3C//DTD SVG 1.1//EN"
 "http://www.w3.org/Graphics/SVG/1.1/DTD/svg11.dtd">
<!-- Generated by graphviz version 2.43.0 (0)
 -->
<!-- Title: cond_neural_mutate Pages: 1 -->
<svg width="335pt" height="66pt"
 viewBox="0.00 0.00 335.00 66.00" xmlns="http://www.w3.org/2000/svg" xmlns:xlink="http://www.w3.org/1999/xlink">
<g id="graph0" class="graph" transform="scale(1 1) rotate(0) translate(4 62)">
<title>cond_neural_mutate</title>
<!-- Node1 -->
<g id="node1" class="node">
<title>Node1</title>
<g id="a_node1"><a xlink:title="Mutates a neural network condition with the self&#45;adaptive rates.">
<polygon fill="#bfbfbf" stroke="black" points="0,-19.5 0,-38.5 104,-38.5 104,-19.5 0,-19.5"/>
<text text-anchor="middle" x="52" y="-26.5" font-family="Helvetica,sans-Serif" font-size="10.00">cond_neural_mutate</text>
</a>
</g>
</g>
<!-- Node2 -->
<g id="node2" class="node">
<title>Node2</title>
<g id="a_node2"><a xlink:href="neural_8c.html#a462b490af8481803fd34af3c728f057d" target="_top" xlink:title="Mutates a neural network.">
<polygon fill="none" stroke="black" points="140,-19.5 140,-38.5 218,-38.5 218,-19.5 140,-19.5"/>
<text text-anchor="middle" x="179" y="-26.5" font-family="Helvetica,sans-Serif" font-size="10.00">neural_mutate</text>
</a>
</g>
</g>
<!-- Node1&#45;&gt;Node2 -->
<g id="edge1" class="edge">
<title>Node1&#45;&gt;Node2</title>
<path fill="none" stroke="midnightblue" d="M104.2,-29C112.55,-29 121.17,-29 129.45,-29"/>
<polygon fill="midnightblue" stroke="midnightblue" points="129.7,-32.5 139.7,-29 129.7,-25.5 129.7,-32.5"/>
</g>
<!-- Node3 -->
<g id="node3" class="node">
<title>Node3</title>
<g id="a_node3"><a xlink:href="neural__layer_8h.html#ad3229854f8e7c4c0eed64b22a8cd1cfa" target="_top" xlink:title="Performs layer mutation.">
<polygon fill="none" stroke="black" points="254,-38.5 254,-57.5 327,-57.5 327,-38.5 254,-38.5"/>
<text text-anchor="middle" x="290.5" y="-45.5" font-family="Helvetica,sans-Serif" font-size="10.00">layer_mutate</text>
</a>
</g>
</g>
<!-- Node2&#45;&gt;Node3 -->
<g id="edge2" class="edge">
<title>Node2&#45;&gt;Node3</title>
<path fill="none" stroke="midnightblue" d="M218.3,-35.65C226.63,-37.09 235.53,-38.63 244.1,-40.12"/>
<polygon fill="midnightblue" stroke="midnightblue" points="243.53,-43.57 253.98,-41.84 244.72,-36.68 243.53,-43.57"/>
</g>
<!-- Node4 -->
<g id="node4" class="node">
<title>Node4</title>
<g id="a_node4"><a xlink:href="neural__layer_8h.html#a28fed9ac2d12fe1bad08b4540f3f0455" target="_top" xlink:title="Resizes a layer using the previous layer&#39;s inputs.">
<polygon fill="none" stroke="black" points="256,-0.5 256,-19.5 325,-19.5 325,-0.5 256,-0.5"/>
<text text-anchor="middle" x="290.5" y="-7.5" font-family="Helvetica,sans-Serif" font-size="10.00">layer_resize</text>
</a>
</g>
</g>
<!-- Node2&#45;&gt;Node4 -->
<g id="edge3" class="edge">
<title>Node2&#45;&gt;Node4</title>
<path fill="none" stroke="midnightblue" d="M218.3,-22.35C227.17,-20.82 236.68,-19.17 245.76,-17.59"/>
<polygon fill="midnightblue" stroke="midnightblue" points="246.53,-21.01 255.79,-15.85 245.33,-14.11 246.53,-21.01"/>
</g>
</g>
</svg>
