<?xml version="1.0" encoding="UTF-8" standalone="no"?>
<!DOCTYPE svg PUBLIC "-//W3C//DTD SVG 1.1//EN"
 "http://www.w3.org/Graphics/SVG/1.1/DTD/svg11.dtd">
<!-- Generated by graphviz version 2.43.0 (0)
 -->
<!-- Title: cond_dgp.h Pages: 1 -->
<svg width="279pt" height="84pt"
 viewBox="0.00 0.00 279.00 84.00" xmlns="http://www.w3.org/2000/svg" xmlns:xlink="http://www.w3.org/1999/xlink">
<g id="graph0" class="graph" transform="scale(1 1) rotate(0) translate(4 80)">
<title>cond_dgp.h</title>
<!-- Node1 -->
<g id="node1" class="node">
<title>Node1</title>
<g id="a_node1"><a xlink:title="Dynamical GP graph condition functions.">
<polygon fill="#bfbfbf" stroke="black" points="84,-56.5 84,-75.5 151,-75.5 151,-56.5 84,-56.5"/>
<text text-anchor="middle" x="117.5" y="-63.5" font-family="Helvetica,sans-Serif" font-size="10.00">cond_dgp.h</text>
</a>
</g>
</g>
<!-- Node2 -->
<g id="node2" class="node">
<title>Node2</title>
<g id="a_node2"><a xlink:href="cond__dgp_8c.html" target="_top" xlink:title="Dynamical GP graph condition functions.">
<polygon fill="none" stroke="black" points="0,-0.5 0,-19.5 67,-19.5 67,-0.5 0,-0.5"/>
<text text-anchor="middle" x="33.5" y="-7.5" font-family="Helvetica,sans-Serif" font-size="10.00">cond_dgp.c</text>
</a>
</g>
</g>
<!-- Node1&#45;&gt;Node2 -->
<g id="edge1" class="edge">
<title>Node1&#45;&gt;Node2</title>
<path fill="none" stroke="midnightblue" d="M95.57,-50.9C80.16,-41 60.05,-28.07 46.96,-19.65"/>
<polygon fill="midnightblue" stroke="midnightblue" points="93.7,-53.86 104,-56.32 97.48,-47.97 93.7,-53.86"/>
</g>
<!-- Node3 -->
<g id="node3" class="node">
<title>Node3</title>
<g id="a_node3"><a xlink:href="condition_8c.html" target="_top" xlink:title="Interface for classifier conditions.">
<polygon fill="none" stroke="black" points="85.5,-0.5 85.5,-19.5 149.5,-19.5 149.5,-0.5 85.5,-0.5"/>
<text text-anchor="middle" x="117.5" y="-7.5" font-family="Helvetica,sans-Serif" font-size="10.00">condition.c</text>
</a>
</g>
</g>
<!-- Node1&#45;&gt;Node3 -->
<g id="edge2" class="edge">
<title>Node1&#45;&gt;Node3</title>
<path fill="none" stroke="midnightblue" d="M117.5,-45.8C117.5,-36.91 117.5,-26.78 117.5,-19.75"/>
<polygon fill="midnightblue" stroke="midnightblue" points="114,-46.08 117.5,-56.08 121,-46.08 114,-46.08"/>
</g>
<!-- Node4 -->
<g id="node4" class="node">
<title>Node4</title>
<g id="a_node4"><a xlink:href="pybind__wrapper_8cpp.html" target="_top" xlink:title="Python library wrapper functions.">
<polygon fill="none" stroke="black" points="168,-0.5 168,-19.5 271,-19.5 271,-0.5 168,-0.5"/>
<text text-anchor="middle" x="219.5" y="-7.5" font-family="Helvetica,sans-Serif" font-size="10.00">pybind_wrapper.cpp</text>
</a>
</g>
</g>
<!-- Node1&#45;&gt;Node4 -->
<g id="edge3" class="edge">
<title>Node1&#45;&gt;Node4</title>
<path fill="none" stroke="midnightblue" d="M142.83,-51.59C161.69,-41.61 186.88,-28.27 203.15,-19.65"/>
<polygon fill="midnightblue" stroke="midnightblue" points="141.09,-48.55 133.89,-56.32 144.36,-54.74 141.09,-48.55"/>
</g>
</g>
</svg>
