<?xml version="1.0" encoding="UTF-8" standalone="no"?>
<!DOCTYPE svg PUBLIC "-//W3C//DTD SVG 1.1//EN"
 "http://www.w3.org/Graphics/SVG/1.1/DTD/svg11.dtd">
<!-- Generated by graphviz version 2.43.0 (0)
 -->
<!-- Title: cond_neural.h Pages: 1 -->
<svg width="447pt" height="84pt"
 viewBox="0.00 0.00 446.50 84.00" xmlns="http://www.w3.org/2000/svg" xmlns:xlink="http://www.w3.org/1999/xlink">
<g id="graph0" class="graph" transform="scale(1 1) rotate(0) translate(4 80)">
<title>cond_neural.h</title>
<!-- Node1 -->
<g id="node1" class="node">
<title>Node1</title>
<g id="a_node1"><a xlink:title="Multi&#45;layer perceptron neural network condition functions.">
<polygon fill="#bfbfbf" stroke="black" points="184,-56.5 184,-75.5 261,-75.5 261,-56.5 184,-56.5"/>
<text text-anchor="middle" x="222.5" y="-63.5" font-family="Helvetica,sans-Serif" font-size="10.00">cond_neural.h</text>
</a>
</g>
</g>
<!-- Node2 -->
<g id="node2" class="node">
<title>Node2</title>
<g id="a_node2"><a xlink:href="clset__neural_8c.html" target="_top" xlink:title="Functions operating on sets of neural classifiers.">
<polygon fill="none" stroke="black" points="0,-0.5 0,-19.5 77,-19.5 77,-0.5 0,-0.5"/>
<text text-anchor="middle" x="38.5" y="-7.5" font-family="Helvetica,sans-Serif" font-size="10.00">clset_neural.c</text>
</a>
</g>
</g>
<!-- Node1&#45;&gt;Node2 -->
<g id="edge1" class="edge">
<title>Node1&#45;&gt;Node2</title>
<path fill="none" stroke="midnightblue" d="M183.55,-53.57C148.84,-43.38 98.82,-28.7 67.52,-19.52"/>
<polygon fill="midnightblue" stroke="midnightblue" points="182.76,-56.99 193.34,-56.44 184.73,-50.27 182.76,-56.99"/>
</g>
<!-- Node3 -->
<g id="node3" class="node">
<title>Node3</title>
<g id="a_node3"><a xlink:href="cond__neural_8c.html" target="_top" xlink:title="Multi&#45;layer perceptron neural network condition functions.">
<polygon fill="none" stroke="black" points="95,-0.5 95,-19.5 172,-19.5 172,-0.5 95,-0.5"/>
<text text-anchor="middle" x="133.5" y="-7.5" font-family="Helvetica,sans-Serif" font-size="10.00">cond_neural.c</text>
</a>
</g>
</g>
<!-- Node1&#45;&gt;Node3 -->
<g id="edge2" class="edge">
<title>Node1&#45;&gt;Node3</title>
<path fill="none" stroke="midnightblue" d="M199.26,-50.9C182.94,-41 161.63,-28.07 147.76,-19.65"/>
<polygon fill="midnightblue" stroke="midnightblue" points="197.84,-54.13 208.2,-56.32 201.47,-48.14 197.84,-54.13"/>
</g>
<!-- Node4 -->
<g id="node4" class="node">
<title>Node4</title>
<g id="a_node4"><a xlink:href="condition_8c.html" target="_top" xlink:title="Interface for classifier conditions.">
<polygon fill="none" stroke="black" points="190.5,-0.5 190.5,-19.5 254.5,-19.5 254.5,-0.5 190.5,-0.5"/>
<text text-anchor="middle" x="222.5" y="-7.5" font-family="Helvetica,sans-Serif" font-size="10.00">condition.c</text>
</a>
</g>
</g>
<!-- Node1&#45;&gt;Node4 -->
<g id="edge3" class="edge">
<title>Node1&#45;&gt;Node4</title>
<path fill="none" stroke="midnightblue" d="M222.5,-45.8C222.5,-36.91 222.5,-26.78 222.5,-19.75"/>
<polygon fill="midnightblue" stroke="midnightblue" points="219,-46.08 222.5,-56.08 226,-46.08 219,-46.08"/>
</g>
<!-- Node5 -->
<g id="node5" class="node">
<title>Node5</title>
<g id="a_node5"><a xlink:href="pybind__wrapper_8cpp.html" target="_top" xlink:title="Python library wrapper functions.">
<polygon fill="none" stroke="black" points="273,-0.5 273,-19.5 376,-19.5 376,-0.5 273,-0.5"/>
<text text-anchor="middle" x="324.5" y="-7.5" font-family="Helvetica,sans-Serif" font-size="10.00">pybind_wrapper.cpp</text>
</a>
</g>
</g>
<!-- Node1&#45;&gt;Node5 -->
<g id="edge4" class="edge">
<title>Node1&#45;&gt;Node5</title>
<path fill="none" stroke="midnightblue" d="M247.83,-51.59C266.69,-41.61 291.88,-28.27 308.15,-19.65"/>
<polygon fill="midnightblue" stroke="midnightblue" points="246.09,-48.55 238.89,-56.32 249.36,-54.74 246.09,-48.55"/>
</g>
<!-- Node6 -->
<g id="node6" class="node">
<title>Node6</title>
<g id="a_node6"><a xlink:href="xcsf_8c.html" target="_top" xlink:title="System&#45;level functions for initialising, saving, loading, etc.">
<polygon fill="none" stroke="black" points="394.5,-0.5 394.5,-19.5 438.5,-19.5 438.5,-0.5 394.5,-0.5"/>
<text text-anchor="middle" x="416.5" y="-7.5" font-family="Helvetica,sans-Serif" font-size="10.00">xcsf.c</text>
</a>
</g>
</g>
<!-- Node1&#45;&gt;Node6 -->
<g id="edge5" class="edge">
<title>Node1&#45;&gt;Node6</title>
<path fill="none" stroke="midnightblue" d="M263.53,-53.83C296.52,-44.82 344.03,-31.74 385.5,-20 388.41,-19.18 391.47,-18.3 394.49,-17.43"/>
<polygon fill="midnightblue" stroke="midnightblue" points="262.51,-50.48 253.78,-56.5 264.35,-57.24 262.51,-50.48"/>
</g>
</g>
</svg>
