<?xml version="1.0" encoding="UTF-8" standalone="no"?>
<!DOCTYPE svg PUBLIC "-//W3C//DTD SVG 1.1//EN"
 "http://www.w3.org/Graphics/SVG/1.1/DTD/svg11.dtd">
<!-- Generated by graphviz version 2.43.0 (0)
 -->
<!-- Title: cond_neural.c Pages: 1 -->
<svg width="1279pt" height="308pt"
 viewBox="0.00 0.00 1278.91 308.00" xmlns="http://www.w3.org/2000/svg" xmlns:xlink="http://www.w3.org/1999/xlink">
<g id="graph0" class="graph" transform="scale(1 1) rotate(0) translate(4 304)">
<title>cond_neural.c</title>
<!-- Node1 -->
<g id="node1" class="node">
<title>Node1</title>
<g id="a_node1"><a xlink:title="Multi&#45;layer perceptron neural network condition functions.">
<polygon fill="#bfbfbf" stroke="black" points="608,-280.5 608,-299.5 685,-299.5 685,-280.5 608,-280.5"/>
<text text-anchor="middle" x="646.5" y="-287.5" font-family="Helvetica,sans-Serif" font-size="10.00">cond_neural.c</text>
</a>
</g>
</g>
<!-- Node2 -->
<g id="node2" class="node">
<title>Node2</title>
<g id="a_node2"><a xlink:href="cond__neural_8h.html" target="_top" xlink:title="Multi&#45;layer perceptron neural network condition functions.">
<polygon fill="none" stroke="black" points="81,-224.5 81,-243.5 158,-243.5 158,-224.5 81,-224.5"/>
<text text-anchor="middle" x="119.5" y="-231.5" font-family="Helvetica,sans-Serif" font-size="10.00">cond_neural.h</text>
</a>
</g>
</g>
<!-- Node1&#45;&gt;Node2 -->
<g id="edge1" class="edge">
<title>Node1&#45;&gt;Node2</title>
<path fill="none" stroke="midnightblue" d="M607.87,-286.58C527.86,-281.3 338.05,-267.44 168.34,-243.99"/>
<polygon fill="midnightblue" stroke="midnightblue" points="168.61,-240.49 158.22,-242.58 167.64,-247.43 168.61,-240.49"/>
</g>
<!-- Node5 -->
<g id="node5" class="node">
<title>Node5</title>
<g id="a_node5"><a xlink:href="utils_8h.html" target="_top" xlink:title="Utility functions for random number handling, etc.">
<polygon fill="none" stroke="black" points="611,-56.5 611,-75.5 654,-75.5 654,-56.5 611,-56.5"/>
<text text-anchor="middle" x="632.5" y="-63.5" font-family="Helvetica,sans-Serif" font-size="10.00">utils.h</text>
</a>
</g>
</g>
<!-- Node1&#45;&gt;Node5 -->
<g id="edge52" class="edge">
<title>Node1&#45;&gt;Node5</title>
<path fill="none" stroke="midnightblue" d="M685.31,-289.15C814.22,-289.25 1222.28,-286.2 1261.5,-244 1347.88,-151.07 803.14,-85.41 664.19,-70.31"/>
<polygon fill="midnightblue" stroke="midnightblue" points="664.49,-66.82 654.17,-69.23 663.74,-73.78 664.49,-66.82"/>
</g>
<!-- Node19 -->
<g id="node19" class="node">
<title>Node19</title>
<g id="a_node19"><a xlink:href="neural__activations_8h.html" target="_top" xlink:title="Neural network activation functions.">
<polygon fill="none" stroke="black" points="0.5,-168.5 0.5,-187.5 104.5,-187.5 104.5,-168.5 0.5,-168.5"/>
<text text-anchor="middle" x="52.5" y="-175.5" font-family="Helvetica,sans-Serif" font-size="10.00">neural_activations.h</text>
</a>
</g>
</g>
<!-- Node1&#45;&gt;Node19 -->
<g id="edge35" class="edge">
<title>Node1&#45;&gt;Node19</title>
<path fill="none" stroke="midnightblue" d="M607.65,-288.48C485.2,-286.49 112.98,-277.7 71.5,-244 57.97,-233.01 53.74,-212.96 52.58,-198.02"/>
<polygon fill="midnightblue" stroke="midnightblue" points="56.07,-197.69 52.18,-187.83 49.07,-197.96 56.07,-197.69"/>
</g>
<!-- Node22 -->
<g id="node22" class="node">
<title>Node22</title>
<g id="a_node22"><a xlink:href="neural__layer__connected_8h.html" target="_top" xlink:title="An implementation of a fully&#45;connected layer of perceptrons.">
<polygon fill="none" stroke="black" points="1124.5,-224.5 1124.5,-243.5 1252.5,-243.5 1252.5,-224.5 1124.5,-224.5"/>
<text text-anchor="middle" x="1188.5" y="-231.5" font-family="Helvetica,sans-Serif" font-size="10.00">neural_layer_connected.h</text>
</a>
</g>
</g>
<!-- Node1&#45;&gt;Node22 -->
<g id="edge36" class="edge">
<title>Node1&#45;&gt;Node22</title>
<path fill="none" stroke="midnightblue" d="M685.14,-285.65C763.75,-278.75 948.16,-262.19 1114.02,-244.14"/>
<polygon fill="midnightblue" stroke="midnightblue" points="1114.86,-247.57 1124.42,-243 1114.1,-240.61 1114.86,-247.57"/>
</g>
<!-- Node23 -->
<g id="node23" class="node">
<title>Node23</title>
<g id="a_node23"><a xlink:href="neural__layer__convolutional_8h.html" target="_top" xlink:title="An implementation of a 2D convolutional layer.">
<polygon fill="none" stroke="black" points="176.5,-224.5 176.5,-243.5 316.5,-243.5 316.5,-224.5 176.5,-224.5"/>
<text text-anchor="middle" x="246.5" y="-231.5" font-family="Helvetica,sans-Serif" font-size="10.00">neural_layer_convolutional.h</text>
</a>
</g>
</g>
<!-- Node1&#45;&gt;Node23 -->
<g id="edge38" class="edge">
<title>Node1&#45;&gt;Node23</title>
<path fill="none" stroke="midnightblue" d="M607.78,-283.77C541.37,-274.81 404.7,-256.36 319.81,-244.9"/>
<polygon fill="midnightblue" stroke="midnightblue" points="320.1,-241.4 309.72,-243.53 319.16,-248.34 320.1,-241.4"/>
</g>
<!-- Node24 -->
<g id="node24" class="node">
<title>Node24</title>
<g id="a_node24"><a xlink:href="neural__layer__dropout_8h.html" target="_top" xlink:title="An implementation of a dropout layer.">
<polygon fill="none" stroke="black" points="335,-224.5 335,-243.5 450,-243.5 450,-224.5 335,-224.5"/>
<text text-anchor="middle" x="392.5" y="-231.5" font-family="Helvetica,sans-Serif" font-size="10.00">neural_layer_dropout.h</text>
</a>
</g>
</g>
<!-- Node1&#45;&gt;Node24 -->
<g id="edge40" class="edge">
<title>Node1&#45;&gt;Node24</title>
<path fill="none" stroke="midnightblue" d="M607.92,-280.8C563.74,-271.41 491.22,-255.99 442.68,-245.67"/>
<polygon fill="midnightblue" stroke="midnightblue" points="443.21,-242.2 432.7,-243.55 441.75,-249.05 443.21,-242.2"/>
</g>
<!-- Node25 -->
<g id="node25" class="node">
<title>Node25</title>
<g id="a_node25"><a xlink:href="neural__layer__lstm_8h.html" target="_top" xlink:title="An implementation of a long short&#45;term memory layer.">
<polygon fill="none" stroke="black" points="468,-224.5 468,-243.5 569,-243.5 569,-224.5 468,-224.5"/>
<text text-anchor="middle" x="518.5" y="-231.5" font-family="Helvetica,sans-Serif" font-size="10.00">neural_layer_lstm.h</text>
</a>
</g>
</g>
<!-- Node1&#45;&gt;Node25 -->
<g id="edge42" class="edge">
<title>Node1&#45;&gt;Node25</title>
<path fill="none" stroke="midnightblue" d="M626.22,-280.44C605.15,-271.56 571.98,-257.56 548.01,-247.45"/>
<polygon fill="midnightblue" stroke="midnightblue" points="549.26,-244.18 538.69,-243.52 546.54,-250.63 549.26,-244.18"/>
</g>
<!-- Node26 -->
<g id="node26" class="node">
<title>Node26</title>
<g id="a_node26"><a xlink:href="neural__layer__maxpool_8h.html" target="_top" xlink:title="An implementation of a 2D maxpooling layer.">
<polygon fill="none" stroke="black" points="587,-224.5 587,-243.5 706,-243.5 706,-224.5 587,-224.5"/>
<text text-anchor="middle" x="646.5" y="-231.5" font-family="Helvetica,sans-Serif" font-size="10.00">neural_layer_maxpool.h</text>
</a>
</g>
</g>
<!-- Node1&#45;&gt;Node26 -->
<g id="edge44" class="edge">
<title>Node1&#45;&gt;Node26</title>
<path fill="none" stroke="midnightblue" d="M646.5,-280.08C646.5,-273.01 646.5,-262.86 646.5,-253.99"/>
<polygon fill="midnightblue" stroke="midnightblue" points="650,-253.75 646.5,-243.75 643,-253.75 650,-253.75"/>
</g>
<!-- Node27 -->
<g id="node27" class="node">
<title>Node27</title>
<g id="a_node27"><a xlink:href="neural__layer__noise_8h.html" target="_top" xlink:title="An implementation of a Gaussian noise adding layer.">
<polygon fill="none" stroke="black" points="724.5,-224.5 724.5,-243.5 830.5,-243.5 830.5,-224.5 724.5,-224.5"/>
<text text-anchor="middle" x="777.5" y="-231.5" font-family="Helvetica,sans-Serif" font-size="10.00">neural_layer_noise.h</text>
</a>
</g>
</g>
<!-- Node1&#45;&gt;Node27 -->
<g id="edge46" class="edge">
<title>Node1&#45;&gt;Node27</title>
<path fill="none" stroke="midnightblue" d="M667.26,-280.44C688.82,-271.56 722.76,-257.56 747.29,-247.45"/>
<polygon fill="midnightblue" stroke="midnightblue" points="748.93,-250.56 756.84,-243.52 746.26,-244.09 748.93,-250.56"/>
</g>
<!-- Node28 -->
<g id="node28" class="node">
<title>Node28</title>
<g id="a_node28"><a xlink:href="neural__layer__recurrent_8h.html" target="_top" xlink:title="An implementation of a recurrent layer of perceptrons.">
<polygon fill="none" stroke="black" points="849,-224.5 849,-243.5 970,-243.5 970,-224.5 849,-224.5"/>
<text text-anchor="middle" x="909.5" y="-231.5" font-family="Helvetica,sans-Serif" font-size="10.00">neural_layer_recurrent.h</text>
</a>
</g>
</g>
<!-- Node1&#45;&gt;Node28 -->
<g id="edge48" class="edge">
<title>Node1&#45;&gt;Node28</title>
<path fill="none" stroke="midnightblue" d="M685.02,-281.09C730.77,-271.7 807.25,-255.99 858.03,-245.57"/>
<polygon fill="midnightblue" stroke="midnightblue" points="858.74,-249 867.83,-243.56 857.33,-242.14 858.74,-249"/>
</g>
<!-- Node29 -->
<g id="node29" class="node">
<title>Node29</title>
<g id="a_node29"><a xlink:href="neural__layer__softmax_8h.html" target="_top" xlink:title="An implementation of a softmax layer.">
<polygon fill="none" stroke="black" points="988.5,-224.5 988.5,-243.5 1106.5,-243.5 1106.5,-224.5 988.5,-224.5"/>
<text text-anchor="middle" x="1047.5" y="-231.5" font-family="Helvetica,sans-Serif" font-size="10.00">neural_layer_softmax.h</text>
</a>
</g>
</g>
<!-- Node1&#45;&gt;Node29 -->
<g id="edge50" class="edge">
<title>Node1&#45;&gt;Node29</title>
<path fill="none" stroke="midnightblue" d="M685.31,-283.77C753.03,-274.65 893.59,-255.73 978.31,-244.32"/>
<polygon fill="midnightblue" stroke="midnightblue" points="978.91,-247.77 988.36,-242.96 977.98,-240.83 978.91,-247.77"/>
</g>
<!-- Node3 -->
<g id="node3" class="node">
<title>Node3</title>
<g id="a_node3"><a xlink:href="condition_8h.html" target="_top" xlink:title="Interface for classifier conditions.">
<polygon fill="none" stroke="black" points="131.5,-168.5 131.5,-187.5 195.5,-187.5 195.5,-168.5 131.5,-168.5"/>
<text text-anchor="middle" x="163.5" y="-175.5" font-family="Helvetica,sans-Serif" font-size="10.00">condition.h</text>
</a>
</g>
</g>
<!-- Node2&#45;&gt;Node3 -->
<g id="edge2" class="edge">
<title>Node2&#45;&gt;Node3</title>
<path fill="none" stroke="midnightblue" d="M126.77,-224.08C133.04,-216.38 142.29,-205.03 149.93,-195.65"/>
<polygon fill="midnightblue" stroke="midnightblue" points="152.77,-197.71 156.37,-187.75 147.34,-193.29 152.77,-197.71"/>
</g>
<!-- Node4 -->
<g id="node4" class="node">
<title>Node4</title>
<g id="a_node4"><a xlink:href="xcsf_8h.html" target="_top" xlink:title="XCSF data structures.">
<polygon fill="none" stroke="black" points="249.5,-112.5 249.5,-131.5 293.5,-131.5 293.5,-112.5 249.5,-112.5"/>
<text text-anchor="middle" x="271.5" y="-119.5" font-family="Helvetica,sans-Serif" font-size="10.00">xcsf.h</text>
</a>
</g>
</g>
<!-- Node2&#45;&gt;Node4 -->
<g id="edge34" class="edge">
<title>Node2&#45;&gt;Node4</title>
<path fill="none" stroke="midnightblue" d="M139.32,-224.46C157.17,-216.33 183.7,-203.12 204.5,-188 224.44,-173.5 244.35,-153.28 257.21,-139.26"/>
<polygon fill="midnightblue" stroke="midnightblue" points="259.83,-141.58 263.92,-131.81 254.63,-136.89 259.83,-141.58"/>
</g>
<!-- Node18 -->
<g id="node18" class="node">
<title>Node18</title>
<g id="a_node18"><a xlink:href="neural_8h.html" target="_top" xlink:title="An implementation of a multi&#45;layer perceptron neural network.">
<polygon fill="none" stroke="black" points="519,-112.5 519,-131.5 570,-131.5 570,-112.5 519,-112.5"/>
<text text-anchor="middle" x="544.5" y="-119.5" font-family="Helvetica,sans-Serif" font-size="10.00">neural.h</text>
</a>
</g>
</g>
<!-- Node2&#45;&gt;Node18 -->
<g id="edge21" class="edge">
<title>Node2&#45;&gt;Node18</title>
<path fill="none" stroke="midnightblue" d="M152.5,-224.46C230.95,-204.15 428.13,-153.12 509.03,-132.18"/>
<polygon fill="midnightblue" stroke="midnightblue" points="509.95,-135.56 518.75,-129.66 508.19,-128.78 509.95,-135.56"/>
</g>
<!-- Node2&#45;&gt;Node19 -->
<g id="edge28" class="edge">
<title>Node2&#45;&gt;Node19</title>
<path fill="none" stroke="midnightblue" d="M108.74,-224.32C98.73,-216.26 83.61,-204.08 71.57,-194.37"/>
<polygon fill="midnightblue" stroke="midnightblue" points="73.44,-191.38 63.46,-187.83 69.05,-196.83 73.44,-191.38"/>
</g>
<!-- Node20 -->
<g id="node20" class="node">
<title>Node20</title>
<g id="a_node20"><a xlink:href="neural__layer_8h.html" target="_top" xlink:title="Interface for neural network layers.">
<polygon fill="none" stroke="black" points="600,-168.5 600,-187.5 677,-187.5 677,-168.5 600,-168.5"/>
<text text-anchor="middle" x="638.5" y="-175.5" font-family="Helvetica,sans-Serif" font-size="10.00">neural_layer.h</text>
</a>
</g>
</g>
<!-- Node2&#45;&gt;Node20 -->
<g id="edge30" class="edge">
<title>Node2&#45;&gt;Node20</title>
<path fill="none" stroke="midnightblue" d="M158.22,-225.43C161.36,-224.91 164.48,-224.43 167.5,-224 320.93,-202.33 503.97,-188.16 589.69,-182.21"/>
<polygon fill="midnightblue" stroke="midnightblue" points="590.16,-185.68 599.9,-181.5 589.68,-178.7 590.16,-185.68"/>
</g>
<!-- Node3&#45;&gt;Node4 -->
<g id="edge3" class="edge">
<title>Node3&#45;&gt;Node4</title>
<path fill="none" stroke="midnightblue" d="M180.85,-168.32C198.17,-159.66 225.02,-146.24 245,-136.25"/>
<polygon fill="midnightblue" stroke="midnightblue" points="246.81,-139.26 254.19,-131.65 243.68,-133 246.81,-139.26"/>
</g>
<!-- Node4&#45;&gt;Node5 -->
<g id="edge4" class="edge">
<title>Node4&#45;&gt;Node5</title>
<path fill="none" stroke="midnightblue" d="M293.54,-117.7C354.99,-108.51 528.42,-82.57 600.48,-71.79"/>
<polygon fill="midnightblue" stroke="midnightblue" points="601.38,-75.19 610.75,-70.25 600.34,-68.27 601.38,-75.19"/>
</g>
<!-- Node8 -->
<g id="node8" class="node">
<title>Node8</title>
<g id="a_node8"><a xlink:title=" ">
<polygon fill="none" stroke="#bfbfbf" points="0,-0.5 0,-19.5 47,-19.5 47,-0.5 0,-0.5"/>
<text text-anchor="middle" x="23.5" y="-7.5" font-family="Helvetica,sans-Serif" font-size="10.00">math.h</text>
</a>
</g>
</g>
<!-- Node4&#45;&gt;Node8 -->
<g id="edge15" class="edge">
<title>Node4&#45;&gt;Node8</title>
<path fill="none" stroke="midnightblue" d="M249.26,-119.52C197.83,-115.66 72.71,-103.6 42.5,-76 29.63,-64.25 25.3,-44.31 23.93,-29.61"/>
<polygon fill="midnightblue" stroke="midnightblue" points="27.42,-29.4 23.36,-19.61 20.43,-29.79 27.42,-29.4"/>
</g>
<!-- Node9 -->
<g id="node9" class="node">
<title>Node9</title>
<g id="a_node9"><a xlink:title=" ">
<polygon fill="none" stroke="#bfbfbf" points="369.5,-0.5 369.5,-19.5 425.5,-19.5 425.5,-0.5 369.5,-0.5"/>
<text text-anchor="middle" x="397.5" y="-7.5" font-family="Helvetica,sans-Serif" font-size="10.00">stdbool.h</text>
</a>
</g>
</g>
<!-- Node4&#45;&gt;Node9 -->
<g id="edge16" class="edge">
<title>Node4&#45;&gt;Node9</title>
<path fill="none" stroke="midnightblue" d="M292.81,-112.42C310.21,-104.7 334.74,-92.09 352.5,-76 367.56,-62.35 380.25,-42.75 388.28,-28.64"/>
<polygon fill="midnightblue" stroke="midnightblue" points="391.55,-29.96 393.26,-19.51 385.4,-26.61 391.55,-29.96"/>
</g>
<!-- Node10 -->
<g id="node10" class="node">
<title>Node10</title>
<g id="a_node10"><a xlink:title=" ">
<polygon fill="none" stroke="#bfbfbf" points="707.5,-0.5 707.5,-19.5 753.5,-19.5 753.5,-0.5 707.5,-0.5"/>
<text text-anchor="middle" x="730.5" y="-7.5" font-family="Helvetica,sans-Serif" font-size="10.00">stdio.h</text>
</a>
</g>
</g>
<!-- Node4&#45;&gt;Node10 -->
<g id="edge18" class="edge">
<title>Node4&#45;&gt;Node10</title>
<path fill="none" stroke="midnightblue" d="M293.58,-120.32C366.23,-117.81 597.02,-107.48 663.5,-76 686.52,-65.1 706.53,-43.09 718.54,-27.71"/>
<polygon fill="midnightblue" stroke="midnightblue" points="721.46,-29.66 724.66,-19.56 715.86,-25.46 721.46,-29.66"/>
</g>
<!-- Node11 -->
<g id="node11" class="node">
<title>Node11</title>
<g id="a_node11"><a xlink:title=" ">
<polygon fill="none" stroke="#bfbfbf" points="303.5,-0.5 303.5,-19.5 351.5,-19.5 351.5,-0.5 303.5,-0.5"/>
<text text-anchor="middle" x="327.5" y="-7.5" font-family="Helvetica,sans-Serif" font-size="10.00">stdlib.h</text>
</a>
</g>
</g>
<!-- Node4&#45;&gt;Node11 -->
<g id="edge19" class="edge">
<title>Node4&#45;&gt;Node11</title>
<path fill="none" stroke="midnightblue" d="M272.91,-112.16C275.23,-99.24 280.61,-74.71 290.5,-56 296.1,-45.4 304.44,-34.98 311.79,-26.83"/>
<polygon fill="midnightblue" stroke="midnightblue" points="314.36,-29.2 318.67,-19.52 309.27,-24.41 314.36,-29.2"/>
</g>
<!-- Node12 -->
<g id="node12" class="node">
<title>Node12</title>
<g id="a_node12"><a xlink:title=" ">
<polygon fill="none" stroke="#bfbfbf" points="196,-56.5 196,-75.5 243,-75.5 243,-56.5 196,-56.5"/>
<text text-anchor="middle" x="219.5" y="-63.5" font-family="Helvetica,sans-Serif" font-size="10.00">errno.h</text>
</a>
</g>
</g>
<!-- Node4&#45;&gt;Node12 -->
<g id="edge11" class="edge">
<title>Node4&#45;&gt;Node12</title>
<path fill="none" stroke="midnightblue" d="M262.91,-112.08C255.34,-104.22 244.12,-92.57 234.99,-83.08"/>
<polygon fill="midnightblue" stroke="midnightblue" points="237.38,-80.53 227.93,-75.75 232.34,-85.38 237.38,-80.53"/>
</g>
<!-- Node13 -->
<g id="node13" class="node">
<title>Node13</title>
<g id="a_node13"><a xlink:title=" ">
<polygon fill="none" stroke="#bfbfbf" points="299.5,-56.5 299.5,-75.5 343.5,-75.5 343.5,-56.5 299.5,-56.5"/>
<text text-anchor="middle" x="321.5" y="-63.5" font-family="Helvetica,sans-Serif" font-size="10.00">float.h</text>
</a>
</g>
</g>
<!-- Node4&#45;&gt;Node13 -->
<g id="edge12" class="edge">
<title>Node4&#45;&gt;Node13</title>
<path fill="none" stroke="midnightblue" d="M279.76,-112.08C286.96,-104.3 297.61,-92.8 306.35,-83.37"/>
<polygon fill="midnightblue" stroke="midnightblue" points="309.17,-85.47 313.4,-75.75 304.03,-80.71 309.17,-85.47"/>
</g>
<!-- Node14 -->
<g id="node14" class="node">
<title>Node14</title>
<g id="a_node14"><a xlink:title=" ">
<polygon fill="none" stroke="#bfbfbf" points="52,-56.5 52,-75.5 111,-75.5 111,-56.5 52,-56.5"/>
<text text-anchor="middle" x="81.5" y="-63.5" font-family="Helvetica,sans-Serif" font-size="10.00">inttypes.h</text>
</a>
</g>
</g>
<!-- Node4&#45;&gt;Node14 -->
<g id="edge13" class="edge">
<title>Node4&#45;&gt;Node14</title>
<path fill="none" stroke="midnightblue" d="M249.33,-114.7C217.97,-105.79 160.15,-89.35 121.25,-78.3"/>
<polygon fill="midnightblue" stroke="midnightblue" points="121.89,-74.84 111.31,-75.47 119.97,-81.57 121.89,-74.84"/>
</g>
<!-- Node15 -->
<g id="node15" class="node">
<title>Node15</title>
<g id="a_node15"><a xlink:title=" ">
<polygon fill="none" stroke="#bfbfbf" points="129.5,-56.5 129.5,-75.5 177.5,-75.5 177.5,-56.5 129.5,-56.5"/>
<text text-anchor="middle" x="153.5" y="-63.5" font-family="Helvetica,sans-Serif" font-size="10.00">limits.h</text>
</a>
</g>
</g>
<!-- Node4&#45;&gt;Node15 -->
<g id="edge14" class="edge">
<title>Node4&#45;&gt;Node15</title>
<path fill="none" stroke="midnightblue" d="M252.8,-112.44C233.56,-103.64 203.35,-89.81 181.3,-79.72"/>
<polygon fill="midnightblue" stroke="midnightblue" points="182.66,-76.5 172.11,-75.52 179.75,-82.86 182.66,-76.5"/>
</g>
<!-- Node16 -->
<g id="node16" class="node">
<title>Node16</title>
<g id="a_node16"><a xlink:title=" ">
<polygon fill="none" stroke="#bfbfbf" points="467,-56.5 467,-75.5 516,-75.5 516,-56.5 467,-56.5"/>
<text text-anchor="middle" x="491.5" y="-63.5" font-family="Helvetica,sans-Serif" font-size="10.00">stdint.h</text>
</a>
</g>
</g>
<!-- Node4&#45;&gt;Node16 -->
<g id="edge17" class="edge">
<title>Node4&#45;&gt;Node16</title>
<path fill="none" stroke="midnightblue" d="M293.58,-115.82C326.76,-108 391.65,-92.57 456.63,-76.18"/>
<polygon fill="midnightblue" stroke="midnightblue" points="457.8,-79.49 466.63,-73.65 456.08,-72.71 457.8,-79.49"/>
</g>
<!-- Node17 -->
<g id="node17" class="node">
<title>Node17</title>
<g id="a_node17"><a xlink:title=" ">
<polygon fill="none" stroke="#bfbfbf" points="400,-56.5 400,-75.5 449,-75.5 449,-56.5 400,-56.5"/>
<text text-anchor="middle" x="424.5" y="-63.5" font-family="Helvetica,sans-Serif" font-size="10.00">string.h</text>
</a>
</g>
</g>
<!-- Node4&#45;&gt;Node17 -->
<g id="edge20" class="edge">
<title>Node4&#45;&gt;Node17</title>
<path fill="none" stroke="midnightblue" d="M293.75,-113.15C319.21,-104.16 361.2,-89.34 390.72,-78.92"/>
<polygon fill="midnightblue" stroke="midnightblue" points="391.94,-82.2 400.2,-75.58 389.61,-75.6 391.94,-82.2"/>
</g>
<!-- Node6 -->
<g id="node6" class="node">
<title>Node6</title>
<g id="a_node6"><a xlink:title=" ">
<polygon fill="none" stroke="#bfbfbf" points="443.5,-0.5 443.5,-19.5 557.5,-19.5 557.5,-0.5 443.5,-0.5"/>
<text text-anchor="middle" x="500.5" y="-7.5" font-family="Helvetica,sans-Serif" font-size="10.00">../lib/cJSON/cJSON.h</text>
</a>
</g>
</g>
<!-- Node5&#45;&gt;Node6 -->
<g id="edge5" class="edge">
<title>Node5&#45;&gt;Node6</title>
<path fill="none" stroke="midnightblue" d="M611.58,-56.44C589.76,-47.52 555.35,-33.44 530.61,-23.32"/>
<polygon fill="midnightblue" stroke="midnightblue" points="531.9,-20.06 521.32,-19.52 529.25,-26.54 531.9,-20.06"/>
</g>
<!-- Node7 -->
<g id="node7" class="node">
<title>Node7</title>
<g id="a_node7"><a xlink:title=" ">
<polygon fill="none" stroke="#bfbfbf" points="576,-0.5 576,-19.5 689,-19.5 689,-0.5 576,-0.5"/>
<text text-anchor="middle" x="632.5" y="-7.5" font-family="Helvetica,sans-Serif" font-size="10.00">../lib/dSFMT/dSFMT.h</text>
</a>
</g>
</g>
<!-- Node5&#45;&gt;Node7 -->
<g id="edge6" class="edge">
<title>Node5&#45;&gt;Node7</title>
<path fill="none" stroke="midnightblue" d="M632.5,-56.08C632.5,-49.01 632.5,-38.86 632.5,-29.99"/>
<polygon fill="midnightblue" stroke="midnightblue" points="636,-29.75 632.5,-19.75 629,-29.75 636,-29.75"/>
</g>
<!-- Node5&#45;&gt;Node8 -->
<g id="edge7" class="edge">
<title>Node5&#45;&gt;Node8</title>
<path fill="none" stroke="midnightblue" d="M610.83,-63.08C519.88,-55.01 168.68,-23.87 57.47,-14.01"/>
<polygon fill="midnightblue" stroke="midnightblue" points="57.45,-10.5 47.18,-13.1 56.83,-17.47 57.45,-10.5"/>
</g>
<!-- Node5&#45;&gt;Node9 -->
<g id="edge8" class="edge">
<title>Node5&#45;&gt;Node9</title>
<path fill="none" stroke="midnightblue" d="M610.82,-59.48C606.11,-58.31 601.14,-57.1 596.5,-56 527.8,-39.78 508.02,-36.94 435.82,-20.27"/>
<polygon fill="midnightblue" stroke="midnightblue" points="436.3,-16.79 425.77,-17.94 434.72,-23.61 436.3,-16.79"/>
</g>
<!-- Node5&#45;&gt;Node10 -->
<g id="edge9" class="edge">
<title>Node5&#45;&gt;Node10</title>
<path fill="none" stroke="midnightblue" d="M648.25,-56.32C663.82,-47.74 687.88,-34.49 705.96,-24.52"/>
<polygon fill="midnightblue" stroke="midnightblue" points="707.72,-27.55 714.79,-19.65 704.35,-21.42 707.72,-27.55"/>
</g>
<!-- Node5&#45;&gt;Node11 -->
<g id="edge10" class="edge">
<title>Node5&#45;&gt;Node11</title>
<path fill="none" stroke="midnightblue" d="M610.85,-62.19C566.09,-56.2 459.99,-41.19 361.4,-20.01"/>
<polygon fill="midnightblue" stroke="midnightblue" points="362.1,-16.58 351.58,-17.87 360.61,-23.42 362.1,-16.58"/>
</g>
<!-- Node18&#45;&gt;Node5 -->
<g id="edge22" class="edge">
<title>Node18&#45;&gt;Node5</title>
<path fill="none" stroke="midnightblue" d="M558.64,-112.32C572.37,-103.9 593.44,-90.97 609.56,-81.07"/>
<polygon fill="midnightblue" stroke="midnightblue" points="611.7,-83.87 618.4,-75.65 608.04,-77.9 611.7,-83.87"/>
</g>
<!-- Node18&#45;&gt;Node9 -->
<g id="edge23" class="edge">
<title>Node18&#45;&gt;Node9</title>
<path fill="none" stroke="midnightblue" d="M550.25,-112.48C558.49,-99.1 571.34,-72.92 558.5,-56 554.69,-50.98 481.89,-32.04 435.5,-20.4"/>
<polygon fill="midnightblue" stroke="midnightblue" points="436.3,-16.99 425.75,-17.96 434.6,-23.78 436.3,-16.99"/>
</g>
<!-- Node18&#45;&gt;Node10 -->
<g id="edge25" class="edge">
<title>Node18&#45;&gt;Node10</title>
<path fill="none" stroke="midnightblue" d="M570.1,-114.16C612.81,-102.65 694.47,-80.27 699.5,-76 713.62,-64 721.78,-44.11 726.15,-29.48"/>
<polygon fill="midnightblue" stroke="midnightblue" points="729.61,-30.11 728.79,-19.55 722.84,-28.31 729.61,-30.11"/>
</g>
<!-- Node18&#45;&gt;Node11 -->
<g id="edge26" class="edge">
<title>Node18&#45;&gt;Node11</title>
<path fill="none" stroke="midnightblue" d="M544.46,-112.41C543.89,-98.45 540.66,-70.88 524.5,-56 471.86,-7.52 436,-35.31 361.4,-19.94"/>
<polygon fill="midnightblue" stroke="midnightblue" points="362.14,-16.52 351.61,-17.73 360.59,-23.35 362.14,-16.52"/>
</g>
<!-- Node18&#45;&gt;Node16 -->
<g id="edge24" class="edge">
<title>Node18&#45;&gt;Node16</title>
<path fill="none" stroke="midnightblue" d="M535.75,-112.08C528.03,-104.22 516.6,-92.57 507.28,-83.08"/>
<polygon fill="midnightblue" stroke="midnightblue" points="509.59,-80.44 500.09,-75.75 504.6,-85.34 509.59,-80.44"/>
</g>
<!-- Node18&#45;&gt;Node17 -->
<g id="edge27" class="edge">
<title>Node18&#45;&gt;Node17</title>
<path fill="none" stroke="midnightblue" d="M525.49,-112.44C505.91,-103.64 475.19,-89.81 452.77,-79.72"/>
<polygon fill="midnightblue" stroke="midnightblue" points="453.98,-76.43 443.43,-75.52 451.11,-82.81 453.98,-76.43"/>
</g>
<!-- Node19&#45;&gt;Node8 -->
<g id="edge29" class="edge">
<title>Node19&#45;&gt;Node8</title>
<path fill="none" stroke="midnightblue" d="M49.67,-168.48C44.08,-151.24 31.74,-110.92 26.5,-76 24.19,-60.62 23.5,-42.98 23.35,-29.97"/>
<polygon fill="midnightblue" stroke="midnightblue" points="26.85,-29.88 23.33,-19.89 19.85,-29.89 26.85,-29.88"/>
</g>
<!-- Node20&#45;&gt;Node18 -->
<g id="edge31" class="edge">
<title>Node20&#45;&gt;Node18</title>
<path fill="none" stroke="midnightblue" d="M623.4,-168.32C608.6,-159.82 585.81,-146.73 568.52,-136.8"/>
<polygon fill="midnightblue" stroke="midnightblue" points="569.98,-133.6 559.57,-131.65 566.49,-139.67 569.98,-133.6"/>
</g>
<!-- Node21 -->
<g id="node21" class="node">
<title>Node21</title>
<g id="a_node21"><a xlink:href="neural__layer__args_8h.html" target="_top" xlink:title="Functions operating on neural network arguments/constants.">
<polygon fill="none" stroke="black" points="588,-112.5 588,-131.5 689,-131.5 689,-112.5 588,-112.5"/>
<text text-anchor="middle" x="638.5" y="-119.5" font-family="Helvetica,sans-Serif" font-size="10.00">neural_layer_args.h</text>
</a>
</g>
</g>
<!-- Node20&#45;&gt;Node21 -->
<g id="edge32" class="edge">
<title>Node20&#45;&gt;Node21</title>
<path fill="none" stroke="midnightblue" d="M638.5,-168.08C638.5,-161.01 638.5,-150.86 638.5,-141.99"/>
<polygon fill="midnightblue" stroke="midnightblue" points="642,-141.75 638.5,-131.75 635,-141.75 642,-141.75"/>
</g>
<!-- Node21&#45;&gt;Node5 -->
<g id="edge33" class="edge">
<title>Node21&#45;&gt;Node5</title>
<path fill="none" stroke="midnightblue" d="M637.51,-112.08C636.71,-104.93 635.57,-94.64 634.58,-85.69"/>
<polygon fill="midnightblue" stroke="midnightblue" points="638.06,-85.3 633.47,-75.75 631.1,-86.08 638.06,-85.3"/>
</g>
<!-- Node22&#45;&gt;Node20 -->
<g id="edge37" class="edge">
<title>Node22&#45;&gt;Node20</title>
<path fill="none" stroke="midnightblue" d="M1124.42,-224.99C1121.4,-224.65 1118.42,-224.32 1115.5,-224 959.16,-206.99 773.57,-190.56 687.21,-183.13"/>
<polygon fill="midnightblue" stroke="midnightblue" points="687.44,-179.64 677.18,-182.27 686.85,-186.61 687.44,-179.64"/>
</g>
<!-- Node23&#45;&gt;Node20 -->
<g id="edge39" class="edge">
<title>Node23&#45;&gt;Node20</title>
<path fill="none" stroke="midnightblue" d="M308.61,-224.44C386.6,-213.7 518.75,-195.5 589.82,-185.71"/>
<polygon fill="midnightblue" stroke="midnightblue" points="590.42,-189.16 599.85,-184.32 589.46,-182.22 590.42,-189.16"/>
</g>
<!-- Node24&#45;&gt;Node20 -->
<g id="edge41" class="edge">
<title>Node24&#45;&gt;Node20</title>
<path fill="none" stroke="midnightblue" d="M431.48,-224.44C474.39,-215.02 543.45,-199.87 589.87,-189.68"/>
<polygon fill="midnightblue" stroke="midnightblue" points="590.69,-193.08 599.7,-187.52 589.19,-186.24 590.69,-193.08"/>
</g>
<!-- Node25&#45;&gt;Node20 -->
<g id="edge43" class="edge">
<title>Node25&#45;&gt;Node20</title>
<path fill="none" stroke="midnightblue" d="M537.51,-224.44C557.09,-215.64 587.81,-201.81 610.23,-191.72"/>
<polygon fill="midnightblue" stroke="midnightblue" points="611.89,-194.81 619.57,-187.52 609.02,-188.43 611.89,-194.81"/>
</g>
<!-- Node26&#45;&gt;Node20 -->
<g id="edge45" class="edge">
<title>Node26&#45;&gt;Node20</title>
<path fill="none" stroke="midnightblue" d="M645.18,-224.08C644.12,-216.93 642.59,-206.64 641.27,-197.69"/>
<polygon fill="midnightblue" stroke="midnightblue" points="644.72,-197.13 639.8,-187.75 637.8,-198.16 644.72,-197.13"/>
</g>
<!-- Node27&#45;&gt;Node20 -->
<g id="edge47" class="edge">
<title>Node27&#45;&gt;Node20</title>
<path fill="none" stroke="midnightblue" d="M755.48,-224.44C732.4,-215.48 695.94,-201.31 669.86,-191.18"/>
<polygon fill="midnightblue" stroke="midnightblue" points="671.01,-187.88 660.42,-187.52 668.48,-194.4 671.01,-187.88"/>
</g>
<!-- Node28&#45;&gt;Node20 -->
<g id="edge49" class="edge">
<title>Node28&#45;&gt;Node20</title>
<path fill="none" stroke="midnightblue" d="M866.56,-224.44C817.73,-214.71 738.17,-198.86 687.1,-188.69"/>
<polygon fill="midnightblue" stroke="midnightblue" points="687.78,-185.25 677.29,-186.73 686.41,-192.12 687.78,-185.25"/>
</g>
<!-- Node29&#45;&gt;Node20 -->
<g id="edge51" class="edge">
<title>Node29&#45;&gt;Node20</title>
<path fill="none" stroke="midnightblue" d="M988.16,-225.15C985.23,-224.76 982.33,-224.37 979.5,-224 875.4,-210.24 753.42,-194.15 687.24,-185.43"/>
<polygon fill="midnightblue" stroke="midnightblue" points="687.48,-181.93 677.11,-184.09 686.57,-188.87 687.48,-181.93"/>
</g>
</g>
</svg>
