<?xml version="1.0" encoding="UTF-8" standalone="no"?>
<!DOCTYPE svg PUBLIC "-//W3C//DTD SVG 1.1//EN"
 "http://www.w3.org/Graphics/SVG/1.1/DTD/svg11.dtd">
<!-- Generated by graphviz version 2.43.0 (0)
 -->
<!-- Title: condition_type_as_string Pages: 1 -->
<svg width="843pt" height="151pt"
 viewBox="0.00 0.00 843.00 151.00" xmlns="http://www.w3.org/2000/svg" xmlns:xlink="http://www.w3.org/1999/xlink">
<g id="graph0" class="graph" transform="scale(1 1) rotate(0) translate(4 147)">
<title>condition_type_as_string</title>
<!-- Node1 -->
<g id="node1" class="node">
<title>Node1</title>
<g id="a_node1"><a xlink:title="Returns a string representation of a condition type from an integer.">
<polygon fill="#bfbfbf" stroke="black" points="710,-76.5 710,-95.5 835,-95.5 835,-76.5 710,-76.5"/>
<text text-anchor="middle" x="772.5" y="-83.5" font-family="Helvetica,sans-Serif" font-size="10.00">condition_type_as_string</text>
</a>
</g>
</g>
<!-- Node2 -->
<g id="node2" class="node">
<title>Node2</title>
<g id="a_node2"><a xlink:href="condition_8h.html#a8ccc134194a65daacdb42e62a8df050e" target="_top" xlink:title="Creates a condition from a cJSON object.">
<polygon fill="none" stroke="black" points="565,-95.5 565,-114.5 658,-114.5 658,-95.5 565,-95.5"/>
<text text-anchor="middle" x="611.5" y="-102.5" font-family="Helvetica,sans-Serif" font-size="10.00">cond_json_import</text>
</a>
</g>
</g>
<!-- Node1&#45;&gt;Node2 -->
<g id="edge1" class="edge">
<title>Node1&#45;&gt;Node2</title>
<path fill="none" stroke="midnightblue" d="M699.45,-94.61C685.44,-96.28 671.13,-97.99 658.26,-99.53"/>
<polygon fill="midnightblue" stroke="midnightblue" points="700.06,-98.06 709.57,-93.4 699.23,-91.11 700.06,-98.06"/>
</g>
<!-- Node8 -->
<g id="node8" class="node">
<title>Node8</title>
<g id="a_node8"><a xlink:href="condition_8c.html#ac3384a0731c16bed95c104111873c6e2" target="_top" xlink:title="Returns a json formatted string of the condition parameters.">
<polygon fill="none" stroke="black" points="549,-57.5 549,-76.5 674,-76.5 674,-57.5 549,-57.5"/>
<text text-anchor="middle" x="611.5" y="-64.5" font-family="Helvetica,sans-Serif" font-size="10.00">cond_param_json_export</text>
</a>
</g>
</g>
<!-- Node1&#45;&gt;Node8 -->
<g id="edge7" class="edge">
<title>Node1&#45;&gt;Node8</title>
<path fill="none" stroke="midnightblue" d="M699.41,-77.39C691.01,-76.38 682.5,-75.36 674.26,-74.38"/>
<polygon fill="midnightblue" stroke="midnightblue" points="699.23,-80.89 709.57,-78.6 700.06,-73.94 699.23,-80.89"/>
</g>
<!-- Node3 -->
<g id="node3" class="node">
<title>Node3</title>
<g id="a_node3"><a xlink:href="cl_8c.html#ada9e7ce4c9c81af8ea0d1fd0dda59e3c" target="_top" xlink:title="Creates a classifier from a cJSON object.">
<polygon fill="none" stroke="black" points="423.5,-95.5 423.5,-114.5 503.5,-114.5 503.5,-95.5 423.5,-95.5"/>
<text text-anchor="middle" x="463.5" y="-102.5" font-family="Helvetica,sans-Serif" font-size="10.00">cl_json_import</text>
</a>
</g>
</g>
<!-- Node2&#45;&gt;Node3 -->
<g id="edge2" class="edge">
<title>Node2&#45;&gt;Node3</title>
<path fill="none" stroke="midnightblue" d="M554.38,-105C537.48,-105 519.3,-105 503.74,-105"/>
<polygon fill="midnightblue" stroke="midnightblue" points="554.71,-108.5 564.71,-105 554.71,-101.5 554.71,-108.5"/>
</g>
<!-- Node4 -->
<g id="node4" class="node">
<title>Node4</title>
<g id="a_node4"><a xlink:href="clset_8c.html#a9f71f62cb4c5216fb3a3e76a6b3df82f" target="_top" xlink:title="Creates a classifier from cJSON and inserts in the population set.">
<polygon fill="none" stroke="black" points="275,-95.5 275,-114.5 365,-114.5 365,-95.5 275,-95.5"/>
<text text-anchor="middle" x="320" y="-102.5" font-family="Helvetica,sans-Serif" font-size="10.00">clset_json_insert</text>
</a>
</g>
</g>
<!-- Node3&#45;&gt;Node4 -->
<g id="edge3" class="edge">
<title>Node3&#45;&gt;Node4</title>
<path fill="none" stroke="midnightblue" d="M413.41,-105C397.73,-105 380.47,-105 365.15,-105"/>
<polygon fill="midnightblue" stroke="midnightblue" points="413.46,-108.5 423.46,-105 413.46,-101.5 413.46,-108.5"/>
</g>
<!-- Node5 -->
<g id="node5" class="node">
<title>Node5</title>
<g id="a_node5"><a xlink:href="classXCS.html#af888b891afb66fbe06ba4919ef16adf9" target="_top" xlink:title="Creates classifiers from JSON and inserts into the population.">
<polygon fill="none" stroke="black" points="128.5,-123.5 128.5,-142.5 219.5,-142.5 219.5,-123.5 128.5,-123.5"/>
<text text-anchor="middle" x="174" y="-130.5" font-family="Helvetica,sans-Serif" font-size="10.00">XCS::json_insert</text>
</a>
</g>
</g>
<!-- Node4&#45;&gt;Node5 -->
<g id="edge4" class="edge">
<title>Node4&#45;&gt;Node5</title>
<path fill="none" stroke="midnightblue" d="M264.63,-115.57C249.9,-118.44 234.12,-121.5 219.98,-124.25"/>
<polygon fill="midnightblue" stroke="midnightblue" points="265.47,-118.97 274.62,-113.63 264.14,-112.1 265.47,-118.97"/>
</g>
<!-- Node7 -->
<g id="node7" class="node">
<title>Node7</title>
<g id="a_node7"><a xlink:href="classXCS.html#a61361120dbba1dba3ca49b53ded91edb" target="_top" xlink:title="Creates a classifier from JSON and inserts into the population.">
<polygon fill="none" stroke="black" points="122,-85.5 122,-104.5 226,-104.5 226,-85.5 122,-85.5"/>
<text text-anchor="middle" x="174" y="-92.5" font-family="Helvetica,sans-Serif" font-size="10.00">XCS::json_insert_cl</text>
</a>
</g>
</g>
<!-- Node4&#45;&gt;Node7 -->
<g id="edge6" class="edge">
<title>Node4&#45;&gt;Node7</title>
<path fill="none" stroke="midnightblue" d="M264.29,-101.2C251.73,-100.33 238.43,-99.4 226.04,-98.54"/>
<polygon fill="midnightblue" stroke="midnightblue" points="264.4,-104.72 274.62,-101.92 264.89,-97.73 264.4,-104.72"/>
</g>
<!-- Node6 -->
<g id="node6" class="node">
<title>Node6</title>
<g id="a_node6"><a xlink:href="classXCS.html#a1a882e28a64c4e2b92ae234d79f327de" target="_top" xlink:title="Reads classifiers from a JSON file and adds to the population.">
<polygon fill="none" stroke="black" points="0,-123.5 0,-142.5 86,-142.5 86,-123.5 0,-123.5"/>
<text text-anchor="middle" x="43" y="-130.5" font-family="Helvetica,sans-Serif" font-size="10.00">XCS::json_read</text>
</a>
</g>
</g>
<!-- Node5&#45;&gt;Node6 -->
<g id="edge5" class="edge">
<title>Node5&#45;&gt;Node6</title>
<path fill="none" stroke="midnightblue" d="M118.11,-133C107.39,-133 96.3,-133 86.07,-133"/>
<polygon fill="midnightblue" stroke="midnightblue" points="118.24,-136.5 128.24,-133 118.24,-129.5 118.24,-136.5"/>
</g>
<!-- Node9 -->
<g id="node9" class="node">
<title>Node9</title>
<g id="a_node9"><a xlink:href="param_8c.html#a92d92fc270b6ed2e2637ccb590eb15d5" target="_top" xlink:title="Returns a json formatted string representation of the parameters.">
<polygon fill="none" stroke="black" points="414,-57.5 414,-76.5 513,-76.5 513,-57.5 414,-57.5"/>
<text text-anchor="middle" x="463.5" y="-64.5" font-family="Helvetica,sans-Serif" font-size="10.00">param_json_export</text>
</a>
</g>
</g>
<!-- Node8&#45;&gt;Node9 -->
<g id="edge8" class="edge">
<title>Node8&#45;&gt;Node9</title>
<path fill="none" stroke="midnightblue" d="M538.55,-67C529.97,-67 521.37,-67 513.23,-67"/>
<polygon fill="midnightblue" stroke="midnightblue" points="538.58,-70.5 548.58,-67 538.58,-63.5 538.58,-70.5"/>
</g>
<!-- Node10 -->
<g id="node10" class="node">
<title>Node10</title>
<g id="a_node10"><a xlink:href="classXCS.html#adb57289e76542083f52f422992e4ee13" target="_top" xlink:title="Returns a JSON formatted string representing the parameters.">
<polygon fill="none" stroke="black" points="262,-57.5 262,-76.5 378,-76.5 378,-57.5 262,-57.5"/>
<text text-anchor="middle" x="320" y="-64.5" font-family="Helvetica,sans-Serif" font-size="10.00">XCS::json_parameters</text>
</a>
</g>
</g>
<!-- Node9&#45;&gt;Node10 -->
<g id="edge9" class="edge">
<title>Node9&#45;&gt;Node10</title>
<path fill="none" stroke="midnightblue" d="M403.64,-67C395.18,-67 386.49,-67 378.07,-67"/>
<polygon fill="midnightblue" stroke="midnightblue" points="403.8,-70.5 413.8,-67 403.8,-63.5 403.8,-70.5"/>
</g>
<!-- Node11 -->
<g id="node11" class="node">
<title>Node11</title>
<g id="a_node11"><a xlink:href="param_8c.html#a1e92bde5285ed6ded96ba4af5fd27bd2" target="_top" xlink:title="Prints all XCSF parameters.">
<polygon fill="none" stroke="black" points="286,-19.5 286,-38.5 354,-38.5 354,-19.5 286,-19.5"/>
<text text-anchor="middle" x="320" y="-26.5" font-family="Helvetica,sans-Serif" font-size="10.00">param_print</text>
</a>
</g>
</g>
<!-- Node9&#45;&gt;Node11 -->
<g id="edge10" class="edge">
<title>Node9&#45;&gt;Node11</title>
<path fill="none" stroke="midnightblue" d="M417.07,-54.8C396.65,-49.32 372.99,-42.96 354.26,-37.93"/>
<polygon fill="midnightblue" stroke="midnightblue" points="416.23,-58.2 426.79,-57.41 418.04,-51.44 416.23,-58.2"/>
</g>
<!-- Node12 -->
<g id="node12" class="node">
<title>Node12</title>
<g id="a_node12"><a xlink:href="main_8c.html#a3c04138a5bfe5d72780bb7e82a18e627" target="_top" xlink:title=" ">
<polygon fill="none" stroke="black" points="155,-38.5 155,-57.5 193,-57.5 193,-38.5 155,-38.5"/>
<text text-anchor="middle" x="174" y="-45.5" font-family="Helvetica,sans-Serif" font-size="10.00">main</text>
</a>
</g>
</g>
<!-- Node11&#45;&gt;Node12 -->
<g id="edge11" class="edge">
<title>Node11&#45;&gt;Node12</title>
<path fill="none" stroke="midnightblue" d="M275.79,-34.7C248.26,-38.33 214.02,-42.85 193.37,-45.58"/>
<polygon fill="midnightblue" stroke="midnightblue" points="276.51,-38.14 285.96,-33.36 275.59,-31.2 276.51,-38.14"/>
</g>
<!-- Node13 -->
<g id="node13" class="node">
<title>Node13</title>
<g id="a_node13"><a xlink:href="classXCS.html#a7731d72fe05a86f0d9bc67939fd56182" target="_top" xlink:title="Prints the XCSF parameters and their current values.">
<polygon fill="none" stroke="black" points="124,-0.5 124,-19.5 224,-19.5 224,-0.5 124,-0.5"/>
<text text-anchor="middle" x="174" y="-7.5" font-family="Helvetica,sans-Serif" font-size="10.00">XCS::print_params</text>
</a>
</g>
</g>
<!-- Node11&#45;&gt;Node13 -->
<g id="edge12" class="edge">
<title>Node11&#45;&gt;Node13</title>
<path fill="none" stroke="midnightblue" d="M275.65,-23.28C259.37,-21.13 240.76,-18.68 224.01,-16.47"/>
<polygon fill="midnightblue" stroke="midnightblue" points="275.59,-26.8 285.96,-24.64 276.51,-19.86 275.59,-26.8"/>
</g>
</g>
</svg>
