<?xml version="1.0" encoding="UTF-8" standalone="no"?>
<!DOCTYPE svg PUBLIC "-//W3C//DTD SVG 1.1//EN"
 "http://www.w3.org/Graphics/SVG/1.1/DTD/svg11.dtd">
<!-- Generated by graphviz version 2.43.0 (0)
 -->
<!-- Title: cond_rectangle.c Pages: 1 -->
<svg width="666pt" height="252pt"
 viewBox="0.00 0.00 665.50 252.00" xmlns="http://www.w3.org/2000/svg" xmlns:xlink="http://www.w3.org/1999/xlink">
<g id="graph0" class="graph" transform="scale(1 1) rotate(0) translate(4 248)">
<title>cond_rectangle.c</title>
<!-- Node1 -->
<g id="node1" class="node">
<title>Node1</title>
<g id="a_node1"><a xlink:title="Hyperrectangle condition functions.">
<polygon fill="#bfbfbf" stroke="black" points="399,-224.5 399,-243.5 490,-243.5 490,-224.5 399,-224.5"/>
<text text-anchor="middle" x="444.5" y="-231.5" font-family="Helvetica,sans-Serif" font-size="10.00">cond_rectangle.c</text>
</a>
</g>
</g>
<!-- Node2 -->
<g id="node2" class="node">
<title>Node2</title>
<g id="a_node2"><a xlink:href="cond__rectangle_8h.html" target="_top" xlink:title="Hyperrectangle condition functions.">
<polygon fill="none" stroke="black" points="362,-168.5 362,-187.5 453,-187.5 453,-168.5 362,-168.5"/>
<text text-anchor="middle" x="407.5" y="-175.5" font-family="Helvetica,sans-Serif" font-size="10.00">cond_rectangle.h</text>
</a>
</g>
</g>
<!-- Node1&#45;&gt;Node2 -->
<g id="edge1" class="edge">
<title>Node1&#45;&gt;Node2</title>
<path fill="none" stroke="midnightblue" d="M438.39,-224.08C433.22,-216.53 425.65,-205.49 419.31,-196.23"/>
<polygon fill="midnightblue" stroke="midnightblue" points="422.04,-194.02 413.5,-187.75 416.26,-197.98 422.04,-194.02"/>
</g>
<!-- Node15 -->
<g id="node15" class="node">
<title>Node15</title>
<g id="a_node15"><a xlink:href="ea_8h.html" target="_top" xlink:title="Evolutionary algorithm functions.">
<polygon fill="none" stroke="black" points="464,-112.5 464,-131.5 499,-131.5 499,-112.5 464,-112.5"/>
<text text-anchor="middle" x="481.5" y="-119.5" font-family="Helvetica,sans-Serif" font-size="10.00">ea.h</text>
</a>
</g>
</g>
<!-- Node1&#45;&gt;Node15 -->
<g id="edge15" class="edge">
<title>Node1&#45;&gt;Node15</title>
<path fill="none" stroke="midnightblue" d="M447.92,-224.43C451.47,-215.42 457.12,-200.8 461.5,-188 466.82,-172.47 472.26,-154.63 476.12,-141.57"/>
<polygon fill="midnightblue" stroke="midnightblue" points="479.51,-142.47 478.96,-131.89 472.79,-140.5 479.51,-142.47"/>
</g>
<!-- Node16 -->
<g id="node16" class="node">
<title>Node16</title>
<g id="a_node16"><a xlink:href="sam_8h.html" target="_top" xlink:title="Self&#45;adaptive mutation functions.">
<polygon fill="none" stroke="black" points="296.5,-168.5 296.5,-187.5 340.5,-187.5 340.5,-168.5 296.5,-168.5"/>
<text text-anchor="middle" x="318.5" y="-175.5" font-family="Helvetica,sans-Serif" font-size="10.00">sam.h</text>
</a>
</g>
</g>
<!-- Node1&#45;&gt;Node16 -->
<g id="edge17" class="edge">
<title>Node1&#45;&gt;Node16</title>
<path fill="none" stroke="midnightblue" d="M424.53,-224.44C403.89,-215.6 371.44,-201.69 347.87,-191.59"/>
<polygon fill="midnightblue" stroke="midnightblue" points="348.94,-188.24 338.37,-187.52 346.18,-194.67 348.94,-188.24"/>
</g>
<!-- Node17 -->
<g id="node17" class="node">
<title>Node17</title>
<g id="a_node17"><a xlink:href="utils_8h.html" target="_top" xlink:title="Utility functions for random number handling, etc.">
<polygon fill="none" stroke="black" points="536,-56.5 536,-75.5 579,-75.5 579,-56.5 536,-56.5"/>
<text text-anchor="middle" x="557.5" y="-63.5" font-family="Helvetica,sans-Serif" font-size="10.00">utils.h</text>
</a>
</g>
</g>
<!-- Node1&#45;&gt;Node17 -->
<g id="edge19" class="edge">
<title>Node1&#45;&gt;Node17</title>
<path fill="none" stroke="midnightblue" d="M451.71,-224.21C458.96,-215.27 470.34,-200.92 479.5,-188 505.04,-151.98 532.48,-108.05 547.03,-84.28"/>
<polygon fill="midnightblue" stroke="midnightblue" points="550.06,-86.04 552.27,-75.68 544.08,-82.4 550.06,-86.04"/>
</g>
<!-- Node3 -->
<g id="node3" class="node">
<title>Node3</title>
<g id="a_node3"><a xlink:href="condition_8h.html" target="_top" xlink:title="Interface for classifier conditions.">
<polygon fill="none" stroke="black" points="343.5,-112.5 343.5,-131.5 407.5,-131.5 407.5,-112.5 343.5,-112.5"/>
<text text-anchor="middle" x="375.5" y="-119.5" font-family="Helvetica,sans-Serif" font-size="10.00">condition.h</text>
</a>
</g>
</g>
<!-- Node2&#45;&gt;Node3 -->
<g id="edge2" class="edge">
<title>Node2&#45;&gt;Node3</title>
<path fill="none" stroke="midnightblue" d="M402.22,-168.08C397.79,-160.61 391.34,-149.72 385.88,-140.52"/>
<polygon fill="midnightblue" stroke="midnightblue" points="388.79,-138.57 380.69,-131.75 382.77,-142.14 388.79,-138.57"/>
</g>
<!-- Node4 -->
<g id="node4" class="node">
<title>Node4</title>
<g id="a_node4"><a xlink:href="xcsf_8h.html" target="_top" xlink:title="XCSF data structures.">
<polygon fill="none" stroke="black" points="353.5,-56.5 353.5,-75.5 397.5,-75.5 397.5,-56.5 353.5,-56.5"/>
<text text-anchor="middle" x="375.5" y="-63.5" font-family="Helvetica,sans-Serif" font-size="10.00">xcsf.h</text>
</a>
</g>
</g>
<!-- Node2&#45;&gt;Node4 -->
<g id="edge14" class="edge">
<title>Node2&#45;&gt;Node4</title>
<path fill="none" stroke="midnightblue" d="M411.37,-168.27C416.45,-155.49 423.91,-131.12 416.5,-112 412.05,-100.5 403.13,-90.13 394.75,-82.25"/>
<polygon fill="midnightblue" stroke="midnightblue" points="396.87,-79.46 387.04,-75.51 392.26,-84.73 396.87,-79.46"/>
</g>
<!-- Node3&#45;&gt;Node4 -->
<g id="edge3" class="edge">
<title>Node3&#45;&gt;Node4</title>
<path fill="none" stroke="midnightblue" d="M375.5,-112.08C375.5,-105.01 375.5,-94.86 375.5,-85.99"/>
<polygon fill="midnightblue" stroke="midnightblue" points="379,-85.75 375.5,-75.75 372,-85.75 379,-85.75"/>
</g>
<!-- Node5 -->
<g id="node5" class="node">
<title>Node5</title>
<g id="a_node5"><a xlink:title=" ">
<polygon fill="none" stroke="#bfbfbf" points="352,-0.5 352,-19.5 399,-19.5 399,-0.5 352,-0.5"/>
<text text-anchor="middle" x="375.5" y="-7.5" font-family="Helvetica,sans-Serif" font-size="10.00">errno.h</text>
</a>
</g>
</g>
<!-- Node4&#45;&gt;Node5 -->
<g id="edge4" class="edge">
<title>Node4&#45;&gt;Node5</title>
<path fill="none" stroke="midnightblue" d="M375.5,-56.08C375.5,-49.01 375.5,-38.86 375.5,-29.99"/>
<polygon fill="midnightblue" stroke="midnightblue" points="379,-29.75 375.5,-19.75 372,-29.75 379,-29.75"/>
</g>
<!-- Node6 -->
<g id="node6" class="node">
<title>Node6</title>
<g id="a_node6"><a xlink:title=" ">
<polygon fill="none" stroke="#bfbfbf" points="417.5,-0.5 417.5,-19.5 461.5,-19.5 461.5,-0.5 417.5,-0.5"/>
<text text-anchor="middle" x="439.5" y="-7.5" font-family="Helvetica,sans-Serif" font-size="10.00">float.h</text>
</a>
</g>
</g>
<!-- Node4&#45;&gt;Node6 -->
<g id="edge5" class="edge">
<title>Node4&#45;&gt;Node6</title>
<path fill="none" stroke="midnightblue" d="M385.78,-56.32C395.34,-48.26 409.78,-36.08 421.28,-26.37"/>
<polygon fill="midnightblue" stroke="midnightblue" points="423.64,-28.96 429.03,-19.83 419.13,-23.61 423.64,-28.96"/>
</g>
<!-- Node7 -->
<g id="node7" class="node">
<title>Node7</title>
<g id="a_node7"><a xlink:title=" ">
<polygon fill="none" stroke="#bfbfbf" points="0,-0.5 0,-19.5 59,-19.5 59,-0.5 0,-0.5"/>
<text text-anchor="middle" x="29.5" y="-7.5" font-family="Helvetica,sans-Serif" font-size="10.00">inttypes.h</text>
</a>
</g>
</g>
<!-- Node4&#45;&gt;Node7 -->
<g id="edge6" class="edge">
<title>Node4&#45;&gt;Node7</title>
<path fill="none" stroke="midnightblue" d="M353.43,-62.39C304.27,-56.44 181.84,-40.91 69.09,-19.97"/>
<polygon fill="midnightblue" stroke="midnightblue" points="69.73,-16.53 59.26,-18.13 68.44,-23.41 69.73,-16.53"/>
</g>
<!-- Node8 -->
<g id="node8" class="node">
<title>Node8</title>
<g id="a_node8"><a xlink:title=" ">
<polygon fill="none" stroke="#bfbfbf" points="77.5,-0.5 77.5,-19.5 125.5,-19.5 125.5,-0.5 77.5,-0.5"/>
<text text-anchor="middle" x="101.5" y="-7.5" font-family="Helvetica,sans-Serif" font-size="10.00">limits.h</text>
</a>
</g>
</g>
<!-- Node4&#45;&gt;Node8 -->
<g id="edge7" class="edge">
<title>Node4&#45;&gt;Node8</title>
<path fill="none" stroke="midnightblue" d="M353.44,-61.5C312.47,-54.87 221.64,-39.55 135.53,-20.08"/>
<polygon fill="midnightblue" stroke="midnightblue" points="136.12,-16.63 125.59,-17.81 134.56,-23.45 136.12,-16.63"/>
</g>
<!-- Node9 -->
<g id="node9" class="node">
<title>Node9</title>
<g id="a_node9"><a xlink:title=" ">
<polygon fill="none" stroke="#bfbfbf" points="480,-0.5 480,-19.5 527,-19.5 527,-0.5 480,-0.5"/>
<text text-anchor="middle" x="503.5" y="-7.5" font-family="Helvetica,sans-Serif" font-size="10.00">math.h</text>
</a>
</g>
</g>
<!-- Node4&#45;&gt;Node9 -->
<g id="edge8" class="edge">
<title>Node4&#45;&gt;Node9</title>
<path fill="none" stroke="midnightblue" d="M395.78,-56.44C416.85,-47.56 450.02,-33.56 473.99,-23.45"/>
<polygon fill="midnightblue" stroke="midnightblue" points="475.46,-26.63 483.31,-19.52 472.74,-20.18 475.46,-26.63"/>
</g>
<!-- Node10 -->
<g id="node10" class="node">
<title>Node10</title>
<g id="a_node10"><a xlink:title=" ">
<polygon fill="none" stroke="#bfbfbf" points="143.5,-0.5 143.5,-19.5 199.5,-19.5 199.5,-0.5 143.5,-0.5"/>
<text text-anchor="middle" x="171.5" y="-7.5" font-family="Helvetica,sans-Serif" font-size="10.00">stdbool.h</text>
</a>
</g>
</g>
<!-- Node4&#45;&gt;Node10 -->
<g id="edge9" class="edge">
<title>Node4&#45;&gt;Node10</title>
<path fill="none" stroke="midnightblue" d="M353.28,-59.12C318.75,-49.98 251.77,-32.25 209.47,-21.05"/>
<polygon fill="midnightblue" stroke="midnightblue" points="210.1,-17.6 199.54,-18.42 208.31,-24.36 210.1,-17.6"/>
</g>
<!-- Node11 -->
<g id="node11" class="node">
<title>Node11</title>
<g id="a_node11"><a xlink:title=" ">
<polygon fill="none" stroke="#bfbfbf" points="218,-0.5 218,-19.5 267,-19.5 267,-0.5 218,-0.5"/>
<text text-anchor="middle" x="242.5" y="-7.5" font-family="Helvetica,sans-Serif" font-size="10.00">stdint.h</text>
</a>
</g>
</g>
<!-- Node4&#45;&gt;Node11 -->
<g id="edge10" class="edge">
<title>Node4&#45;&gt;Node11</title>
<path fill="none" stroke="midnightblue" d="M354.43,-56.44C332.44,-47.52 297.77,-33.44 272.84,-23.32"/>
<polygon fill="midnightblue" stroke="midnightblue" points="274.06,-20.04 263.48,-19.52 271.42,-26.52 274.06,-20.04"/>
</g>
<!-- Node12 -->
<g id="node12" class="node">
<title>Node12</title>
<g id="a_node12"><a xlink:title=" ">
<polygon fill="none" stroke="#bfbfbf" points="545.5,-0.5 545.5,-19.5 591.5,-19.5 591.5,-0.5 545.5,-0.5"/>
<text text-anchor="middle" x="568.5" y="-7.5" font-family="Helvetica,sans-Serif" font-size="10.00">stdio.h</text>
</a>
</g>
</g>
<!-- Node4&#45;&gt;Node12 -->
<g id="edge11" class="edge">
<title>Node4&#45;&gt;Node12</title>
<path fill="none" stroke="midnightblue" d="M397.64,-58.82C426.92,-50.65 480.39,-35.72 535.49,-20.28"/>
<polygon fill="midnightblue" stroke="midnightblue" points="536.75,-23.56 545.43,-17.49 534.86,-16.82 536.75,-23.56"/>
</g>
<!-- Node13 -->
<g id="node13" class="node">
<title>Node13</title>
<g id="a_node13"><a xlink:title=" ">
<polygon fill="none" stroke="#bfbfbf" points="609.5,-0.5 609.5,-19.5 657.5,-19.5 657.5,-0.5 609.5,-0.5"/>
<text text-anchor="middle" x="633.5" y="-7.5" font-family="Helvetica,sans-Serif" font-size="10.00">stdlib.h</text>
</a>
</g>
</g>
<!-- Node4&#45;&gt;Node13 -->
<g id="edge12" class="edge">
<title>Node4&#45;&gt;Node13</title>
<path fill="none" stroke="midnightblue" d="M397.65,-61.09C436.45,-54.14 519.46,-38.77 599.19,-20.18"/>
<polygon fill="midnightblue" stroke="midnightblue" points="600.47,-23.48 609.4,-17.78 598.86,-16.66 600.47,-23.48"/>
</g>
<!-- Node14 -->
<g id="node14" class="node">
<title>Node14</title>
<g id="a_node14"><a xlink:title=" ">
<polygon fill="none" stroke="#bfbfbf" points="285,-0.5 285,-19.5 334,-19.5 334,-0.5 285,-0.5"/>
<text text-anchor="middle" x="309.5" y="-7.5" font-family="Helvetica,sans-Serif" font-size="10.00">string.h</text>
</a>
</g>
</g>
<!-- Node4&#45;&gt;Node14 -->
<g id="edge13" class="edge">
<title>Node4&#45;&gt;Node14</title>
<path fill="none" stroke="midnightblue" d="M364.9,-56.32C355.04,-48.26 340.15,-36.08 328.28,-26.37"/>
<polygon fill="midnightblue" stroke="midnightblue" points="330.25,-23.46 320.3,-19.83 325.82,-28.88 330.25,-23.46"/>
</g>
<!-- Node15&#45;&gt;Node4 -->
<g id="edge16" class="edge">
<title>Node15&#45;&gt;Node4</title>
<path fill="none" stroke="midnightblue" d="M464.47,-112.32C447.47,-103.66 421.12,-90.24 401.51,-80.25"/>
<polygon fill="midnightblue" stroke="midnightblue" points="402.99,-77.08 392.49,-75.65 399.81,-83.31 402.99,-77.08"/>
</g>
<!-- Node16&#45;&gt;Node4 -->
<g id="edge18" class="edge">
<title>Node16&#45;&gt;Node4</title>
<path fill="none" stroke="midnightblue" d="M319.29,-168.1C320.74,-155.09 324.65,-130.46 334.5,-112 340.38,-100.98 349.57,-90.54 357.77,-82.49"/>
<polygon fill="midnightblue" stroke="midnightblue" points="360.25,-84.96 365.17,-75.58 355.48,-79.84 360.25,-84.96"/>
</g>
<!-- Node17&#45;&gt;Node9 -->
<g id="edge20" class="edge">
<title>Node17&#45;&gt;Node9</title>
<path fill="none" stroke="midnightblue" d="M548.58,-56.08C540.72,-48.22 529.07,-36.57 519.58,-27.08"/>
<polygon fill="midnightblue" stroke="midnightblue" points="521.8,-24.35 512.25,-19.75 516.85,-29.3 521.8,-24.35"/>
</g>
<!-- Node17&#45;&gt;Node12 -->
<g id="edge21" class="edge">
<title>Node17&#45;&gt;Node12</title>
<path fill="none" stroke="midnightblue" d="M559.32,-56.08C560.77,-48.93 562.87,-38.64 564.69,-29.69"/>
<polygon fill="midnightblue" stroke="midnightblue" points="568.15,-30.25 566.72,-19.75 561.29,-28.85 568.15,-30.25"/>
</g>
<!-- Node17&#45;&gt;Node13 -->
<g id="edge22" class="edge">
<title>Node17&#45;&gt;Node13</title>
<path fill="none" stroke="midnightblue" d="M569.71,-56.32C581.28,-48.11 598.88,-35.6 612.66,-25.81"/>
<polygon fill="midnightblue" stroke="midnightblue" points="614.94,-28.48 621.07,-19.83 610.89,-22.77 614.94,-28.48"/>
</g>
</g>
</svg>
