<?xml version="1.0" encoding="UTF-8" standalone="no"?>
<!DOCTYPE svg PUBLIC "-//W3C//DTD SVG 1.1//EN"
 "http://www.w3.org/Graphics/SVG/1.1/DTD/svg11.dtd">
<!-- Generated by graphviz version 2.43.0 (0)
 -->
<!-- Title: cond_param_load Pages: 1 -->
<svg width="344pt" height="101pt"
 viewBox="0.00 0.00 344.00 101.00" xmlns="http://www.w3.org/2000/svg" xmlns:xlink="http://www.w3.org/1999/xlink">
<g id="graph0" class="graph" transform="scale(1 1) rotate(0) translate(4 97)">
<title>cond_param_load</title>
<!-- Node1 -->
<g id="Node000001" class="node">
<title>Node1</title>
<g id="a_Node000001"><a xlink:title="Loads condition parameters.">
<polygon fill="#999999" stroke="#666666" points="93,-56 0,-56 0,-37 93,-37 93,-56"/>
<text text-anchor="middle" x="46.5" y="-44" font-family="Helvetica,sans-Serif" font-size="10.00">cond_param_load</text>
</a>
</g>
</g>
<!-- Node2 -->
<g id="Node000002" class="node">
<title>Node2</title>
<g id="a_Node000002"><a xlink:href="dgp_8c.html#a4e160f3ae49e0876bd5d9d03cff31a79" target="_top" xlink:title="Loads DGP parameters.">
<polygon fill="white" stroke="#666666" points="217,-93 129,-93 129,-74 217,-74 217,-93"/>
<text text-anchor="middle" x="173" y="-81" font-family="Helvetica,sans-Serif" font-size="10.00">graph_args_load</text>
</a>
</g>
</g>
<!-- Node1&#45;&gt;Node2 -->
<g id="edge1_Node000001_Node000002" class="edge">
<title>Node1&#45;&gt;Node2</title>
<g id="a_edge1_Node000001_Node000002"><a xlink:title=" ">
<path fill="none" stroke="#63b8ff" d="M79.56,-56.03C94.84,-60.57 113.31,-66.06 129.71,-70.93"/>
<polygon fill="#63b8ff" stroke="#63b8ff" points="129.03,-74.38 139.61,-73.88 131.03,-67.67 129.03,-74.38"/>
</a>
</g>
</g>
<!-- Node3 -->
<g id="Node000003" class="node">
<title>Node3</title>
<g id="a_Node000003"><a xlink:href="neural__layer__args_8c.html#a398a06830ed5cc20b78e7e04121897fd" target="_top" xlink:title="Loads neural network layer parameters.">
<polygon fill="white" stroke="#666666" points="215.5,-56 130.5,-56 130.5,-37 215.5,-37 215.5,-56"/>
<text text-anchor="middle" x="173" y="-44" font-family="Helvetica,sans-Serif" font-size="10.00">layer_args_load</text>
</a>
</g>
</g>
<!-- Node1&#45;&gt;Node3 -->
<g id="edge2_Node000001_Node000003" class="edge">
<title>Node1&#45;&gt;Node3</title>
<g id="a_edge2_Node000001_Node000003"><a xlink:title=" ">
<path fill="none" stroke="#63b8ff" d="M93.15,-46.5C102.03,-46.5 111.39,-46.5 120.44,-46.5"/>
<polygon fill="#63b8ff" stroke="#63b8ff" points="120.48,-50 130.48,-46.5 120.48,-43 120.48,-50"/>
</a>
</g>
</g>
<!-- Node6 -->
<g id="Node000006" class="node">
<title>Node6</title>
<g id="a_Node000006"><a xlink:href="gp_8c.html#ace6f12ff809357296578e8aa1d1b0b47" target="_top" xlink:title="Loads Tree GP parameters.">
<polygon fill="white" stroke="#666666" points="213,-19 133,-19 133,0 213,0 213,-19"/>
<text text-anchor="middle" x="173" y="-7" font-family="Helvetica,sans-Serif" font-size="10.00">tree_args_load</text>
</a>
</g>
</g>
<!-- Node1&#45;&gt;Node6 -->
<g id="edge5_Node000001_Node000006" class="edge">
<title>Node1&#45;&gt;Node6</title>
<g id="a_edge5_Node000001_Node000006"><a xlink:title=" ">
<path fill="none" stroke="#63b8ff" d="M79.56,-36.97C94.84,-32.43 113.31,-26.94 129.71,-22.07"/>
<polygon fill="#63b8ff" stroke="#63b8ff" points="131.03,-25.33 139.61,-19.12 129.03,-18.62 131.03,-25.33"/>
</a>
</g>
</g>
<!-- Node4 -->
<g id="Node000004" class="node">
<title>Node4</title>
<g id="a_Node000004"><a xlink:href="neural__layer__args_8c.html#a477d2c5cf9da9413c6dba66b5d7f7aff" target="_top" xlink:title="Frees memory used by a list of layer parameters and points to NULL.">
<polygon fill="white" stroke="#666666" points="336,-74 253,-74 253,-55 336,-55 336,-74"/>
<text text-anchor="middle" x="294.5" y="-62" font-family="Helvetica,sans-Serif" font-size="10.00">layer_args_free</text>
</a>
</g>
</g>
<!-- Node3&#45;&gt;Node4 -->
<g id="edge3_Node000003_Node000004" class="edge">
<title>Node3&#45;&gt;Node4</title>
<g id="a_edge3_Node000003_Node000004"><a xlink:title=" ">
<path fill="none" stroke="#63b8ff" d="M215.8,-52.8C224.5,-54.11 233.76,-55.5 242.75,-56.86"/>
<polygon fill="#63b8ff" stroke="#63b8ff" points="242.33,-60.33 252.74,-58.36 243.37,-53.41 242.33,-60.33"/>
</a>
</g>
</g>
<!-- Node5 -->
<g id="Node000005" class="node">
<title>Node5</title>
<g id="a_Node000005"><a xlink:href="neural__layer__args_8c.html#a3b06e82bed7fc9a8915d6187ce08d33e" target="_top" xlink:title="Sets layer parameters to default values.">
<polygon fill="white" stroke="#666666" points="334.5,-37 254.5,-37 254.5,-18 334.5,-18 334.5,-37"/>
<text text-anchor="middle" x="294.5" y="-25" font-family="Helvetica,sans-Serif" font-size="10.00">layer_args_init</text>
</a>
</g>
</g>
<!-- Node3&#45;&gt;Node5 -->
<g id="edge4_Node000003_Node000005" class="edge">
<title>Node3&#45;&gt;Node5</title>
<g id="a_edge4_Node000003_Node000005"><a xlink:title=" ">
<path fill="none" stroke="#63b8ff" d="M215.8,-39.85C224.99,-38.39 234.81,-36.83 244.26,-35.33"/>
<polygon fill="#63b8ff" stroke="#63b8ff" points="245.01,-38.75 254.34,-33.73 243.91,-31.84 245.01,-38.75"/>
</a>
</g>
</g>
</g>
</svg>
