<?xml version="1.0" encoding="UTF-8" standalone="no"?>
<!DOCTYPE svg PUBLIC "-//W3C//DTD SVG 1.1//EN"
 "http://www.w3.org/Graphics/SVG/1.1/DTD/svg11.dtd">
<!-- Generated by graphviz version 2.43.0 (0)
 -->
<!-- Title: cond_neural_param_json_import Pages: 1 -->
<svg width="618pt" height="295pt"
 viewBox="0.00 0.00 618.00 295.00" xmlns="http://www.w3.org/2000/svg" xmlns:xlink="http://www.w3.org/1999/xlink">
<g id="graph0" class="graph" transform="scale(1 1) rotate(0) translate(4 291)">
<title>cond_neural_param_json_import</title>
<!-- Node1 -->
<g id="Node000001" class="node">
<title>Node1</title>
<g id="a_Node000001"><a xlink:title="Sets the neural network parameters from a cJSON object.">
<polygon fill="#999999" stroke="#666666" points="125,-171 0,-171 0,-141 125,-141 125,-171"/>
<text text-anchor="start" x="8" y="-159" font-family="Helvetica,sans-Serif" font-size="10.00">cond_neural_param_json</text>
<text text-anchor="middle" x="62.5" y="-148" font-family="Helvetica,sans-Serif" font-size="10.00">_import</text>
</a>
</g>
</g>
<!-- Node2 -->
<g id="Node000002" class="node">
<title>Node2</title>
<g id="a_Node000002"><a xlink:href="neural__layer__args_8c.html#a477d2c5cf9da9413c6dba66b5d7f7aff" target="_top" xlink:title="Frees memory used by a list of layer parameters and points to NULL.">
<polygon fill="white" stroke="#666666" points="261,-221.5 178,-221.5 178,-202.5 261,-202.5 261,-221.5"/>
<text text-anchor="middle" x="219.5" y="-209.5" font-family="Helvetica,sans-Serif" font-size="10.00">layer_args_free</text>
</a>
</g>
</g>
<!-- Node1&#45;&gt;Node2 -->
<g id="edge1_Node000001_Node000002" class="edge">
<title>Node1&#45;&gt;Node2</title>
<g id="a_edge1_Node000001_Node000002"><a xlink:title=" ">
<path fill="none" stroke="#63b8ff" d="M100.32,-171.03C118.48,-178.27 140.77,-186.9 161,-194 166.18,-195.82 171.66,-197.65 177.09,-199.41"/>
<polygon fill="#63b8ff" stroke="#63b8ff" points="176.15,-202.78 186.74,-202.48 178.27,-196.11 176.15,-202.78"/>
</a>
</g>
</g>
<!-- Node3 -->
<g id="Node000003" class="node">
<title>Node3</title>
<g id="a_Node000003"><a xlink:href="neural__layer__args_8c.html#a3b06e82bed7fc9a8915d6187ce08d33e" target="_top" xlink:title="Sets layer parameters to default values.">
<polygon fill="white" stroke="#666666" points="259.5,-184.5 179.5,-184.5 179.5,-165.5 259.5,-165.5 259.5,-184.5"/>
<text text-anchor="middle" x="219.5" y="-172.5" font-family="Helvetica,sans-Serif" font-size="10.00">layer_args_init</text>
</a>
</g>
</g>
<!-- Node1&#45;&gt;Node3 -->
<g id="edge2_Node000001_Node000003" class="edge">
<title>Node1&#45;&gt;Node3</title>
<g id="a_edge2_Node000001_Node000003"><a xlink:title=" ">
<path fill="none" stroke="#63b8ff" d="M125.21,-163.56C139.88,-165.36 155.34,-167.26 169.37,-168.98"/>
<polygon fill="#63b8ff" stroke="#63b8ff" points="168.94,-172.45 179.29,-170.19 169.79,-165.5 168.94,-172.45"/>
</a>
</g>
</g>
<!-- Node4 -->
<g id="Node000004" class="node">
<title>Node4</title>
<g id="a_Node000004"><a xlink:href="neural__layer__args_8c.html#aa75a852a1179d08e50341fc45ebc7435" target="_top" xlink:title="Sets the layer parameters from a cJSON object.">
<polygon fill="white" stroke="#666666" points="278,-147.5 161,-147.5 161,-128.5 278,-128.5 278,-147.5"/>
<text text-anchor="middle" x="219.5" y="-135.5" font-family="Helvetica,sans-Serif" font-size="10.00">layer_args_json_import</text>
</a>
</g>
</g>
<!-- Node1&#45;&gt;Node4 -->
<g id="edge3_Node000001_Node000004" class="edge">
<title>Node1&#45;&gt;Node4</title>
<g id="a_edge3_Node000001_Node000004"><a xlink:title=" ">
<path fill="none" stroke="#63b8ff" d="M125.21,-148.83C133.55,-147.87 142.15,-146.87 150.59,-145.89"/>
<polygon fill="#63b8ff" stroke="#63b8ff" points="151.26,-149.33 160.78,-144.7 150.45,-142.38 151.26,-149.33"/>
</a>
</g>
</g>
<!-- Node12 -->
<g id="Node000012" class="node">
<title>Node12</title>
<g id="a_Node000012"><a xlink:href="neural__layer__args_8c.html#a492de2de029ff6124f8fe466ad6b0d80" target="_top" xlink:title="Checks network layer arguments are valid.">
<polygon fill="white" stroke="#666666" points="270,-67.5 169,-67.5 169,-48.5 270,-48.5 270,-67.5"/>
<text text-anchor="middle" x="219.5" y="-55.5" font-family="Helvetica,sans-Serif" font-size="10.00">layer_args_validate</text>
</a>
</g>
</g>
<!-- Node1&#45;&gt;Node12 -->
<g id="edge11_Node000001_Node000012" class="edge">
<title>Node1&#45;&gt;Node12</title>
<g id="a_edge11_Node000001_Node000012"><a xlink:title=" ">
<path fill="none" stroke="#63b8ff" d="M87.38,-140.9C116.5,-122.49 165.42,-91.56 194.57,-73.13"/>
<polygon fill="#63b8ff" stroke="#63b8ff" points="196.7,-75.92 203.28,-67.62 192.96,-70.01 196.7,-75.92"/>
</a>
</g>
</g>
<!-- Node5 -->
<g id="Node000005" class="node">
<title>Node5</title>
<g id="a_Node000005"><a xlink:href="neural__layer__args_8c.html#af7388e196c27ab190bb7bb6848a7a456" target="_top" xlink:title="Sets the layer activation from a cJSON object.">
<polygon fill="white" stroke="#666666" points="441.5,-287 324.5,-287 324.5,-257 441.5,-257 441.5,-287"/>
<text text-anchor="start" x="332.5" y="-275" font-family="Helvetica,sans-Serif" font-size="10.00">layer_args_json_import</text>
<text text-anchor="middle" x="383" y="-264" font-family="Helvetica,sans-Serif" font-size="10.00">_activation</text>
</a>
</g>
</g>
<!-- Node4&#45;&gt;Node5 -->
<g id="edge4_Node000004_Node000005" class="edge">
<title>Node4&#45;&gt;Node5</title>
<g id="a_edge4_Node000004_Node000005"><a xlink:title=" ">
<path fill="none" stroke="#63b8ff" d="M263.69,-147.54C268.93,-150 273.87,-153.1 278,-157 309.63,-186.86 282.67,-217.83 314,-248 315.13,-249.09 316.31,-250.12 317.53,-251.11"/>
<polygon fill="#63b8ff" stroke="#63b8ff" points="315.93,-254.26 326.16,-256.99 319.87,-248.47 315.93,-254.26"/>
</a>
</g>
</g>
<!-- Node7 -->
<g id="Node000007" class="node">
<title>Node7</title>
<g id="a_Node000007"><a xlink:href="neural__layer__args_8c.html#a511a92070d5a53700d9650c1705b96ab" target="_top" xlink:title="Sets the layer evolutionary parameters from a cJSON object.">
<polygon fill="white" stroke="#666666" points="452,-238.5 314,-238.5 314,-219.5 452,-219.5 452,-238.5"/>
<text text-anchor="middle" x="383" y="-226.5" font-family="Helvetica,sans-Serif" font-size="10.00">layer_args_json_import_evo</text>
</a>
</g>
</g>
<!-- Node4&#45;&gt;Node7 -->
<g id="edge6_Node000004_Node000007" class="edge">
<title>Node4&#45;&gt;Node7</title>
<g id="a_edge6_Node000004_Node000007"><a xlink:title=" ">
<path fill="none" stroke="#63b8ff" d="M260.85,-147.55C266.94,-150.03 272.88,-153.14 278,-157 300.73,-174.16 290.88,-193.38 314,-210 316.69,-211.93 319.56,-213.67 322.56,-215.23"/>
<polygon fill="#63b8ff" stroke="#63b8ff" points="321.28,-218.49 331.84,-219.4 324.15,-212.11 321.28,-218.49"/>
</a>
</g>
</g>
<!-- Node8 -->
<g id="Node000008" class="node">
<title>Node8</title>
<g id="a_Node000008"><a xlink:href="neural__layer__args_8c.html#a22a018ccf2e332aafeaa450968b96ed1" target="_top" xlink:title="Sets the layer input parameters from a cJSON object.">
<polygon fill="white" stroke="#666666" points="441.5,-201 324.5,-201 324.5,-171 441.5,-171 441.5,-201"/>
<text text-anchor="start" x="332.5" y="-189" font-family="Helvetica,sans-Serif" font-size="10.00">layer_args_json_import</text>
<text text-anchor="middle" x="383" y="-178" font-family="Helvetica,sans-Serif" font-size="10.00">_inputs</text>
</a>
</g>
</g>
<!-- Node4&#45;&gt;Node8 -->
<g id="edge7_Node000004_Node000008" class="edge">
<title>Node4&#45;&gt;Node8</title>
<g id="a_edge7_Node000004_Node000008"><a xlink:title=" ">
<path fill="none" stroke="#63b8ff" d="M252.79,-147.6C272.45,-153.44 298.18,-161.09 321.5,-168.02"/>
<polygon fill="#63b8ff" stroke="#63b8ff" points="320.74,-171.44 331.32,-170.94 322.73,-164.73 320.74,-171.44"/>
</a>
</g>
</g>
<!-- Node9 -->
<g id="Node000009" class="node">
<title>Node9</title>
<g id="a_Node000009"><a xlink:href="neural__layer__args_8c.html#ab5d03fe4bb8549b5321c9bda9c514161" target="_top" xlink:title="Sets the layer scaling parameters from a cJSON object.">
<polygon fill="white" stroke="#666666" points="441.5,-153 324.5,-153 324.5,-123 441.5,-123 441.5,-153"/>
<text text-anchor="start" x="332.5" y="-141" font-family="Helvetica,sans-Serif" font-size="10.00">layer_args_json_import</text>
<text text-anchor="middle" x="383" y="-130" font-family="Helvetica,sans-Serif" font-size="10.00">_scale</text>
</a>
</g>
</g>
<!-- Node4&#45;&gt;Node9 -->
<g id="edge8_Node000004_Node000009" class="edge">
<title>Node4&#45;&gt;Node9</title>
<g id="a_edge8_Node000004_Node000009"><a xlink:title=" ">
<path fill="none" stroke="#63b8ff" d="M278.35,-138C289.9,-138 302.13,-138 313.99,-138"/>
<polygon fill="#63b8ff" stroke="#63b8ff" points="314.28,-141.5 324.28,-138 314.28,-134.5 314.28,-141.5"/>
</a>
</g>
</g>
<!-- Node10 -->
<g id="Node000010" class="node">
<title>Node10</title>
<g id="a_Node000010"><a xlink:href="neural__layer__args_8c.html#a9a07261fd04326ccbae66c152f8f6de2" target="_top" xlink:title="Sets the layer SGD parameters from a cJSON object.">
<polygon fill="white" stroke="#666666" points="452,-104.5 314,-104.5 314,-85.5 452,-85.5 452,-104.5"/>
<text text-anchor="middle" x="383" y="-92.5" font-family="Helvetica,sans-Serif" font-size="10.00">layer_args_json_import_sgd</text>
</a>
</g>
</g>
<!-- Node4&#45;&gt;Node10 -->
<g id="edge9_Node000004_Node000010" class="edge">
<title>Node4&#45;&gt;Node10</title>
<g id="a_edge9_Node000004_Node000010"><a xlink:title=" ">
<path fill="none" stroke="#63b8ff" d="M256.34,-128.46C279.97,-122.17 311.12,-113.87 336.49,-107.12"/>
<polygon fill="#63b8ff" stroke="#63b8ff" points="337.5,-110.47 346.26,-104.52 335.69,-103.71 337.5,-110.47"/>
</a>
</g>
</g>
<!-- Node11 -->
<g id="Node000011" class="node">
<title>Node11</title>
<g id="a_Node000011"><a xlink:href="neural__layer_8c.html#a5a8bc3e92587742c0bd1ee27780b1128" target="_top" xlink:title="Returns the integer representation of a layer type given a name.">
<polygon fill="white" stroke="#666666" points="429.5,-67.5 336.5,-67.5 336.5,-48.5 429.5,-48.5 429.5,-67.5"/>
<text text-anchor="middle" x="383" y="-55.5" font-family="Helvetica,sans-Serif" font-size="10.00">layer_type_as_int</text>
</a>
</g>
</g>
<!-- Node4&#45;&gt;Node11 -->
<g id="edge10_Node000004_Node000011" class="edge">
<title>Node4&#45;&gt;Node11</title>
<g id="a_edge10_Node000004_Node000011"><a xlink:title=" ">
<path fill="none" stroke="#63b8ff" d="M232.5,-128.43C249.65,-115.16 282.57,-91.23 314,-77 319.09,-74.69 324.53,-72.6 330.03,-70.73"/>
<polygon fill="#63b8ff" stroke="#63b8ff" points="331.46,-73.95 339.93,-67.59 329.34,-67.28 331.46,-73.95"/>
</a>
</g>
</g>
<!-- Node6 -->
<g id="Node000006" class="node">
<title>Node6</title>
<g id="a_Node000006"><a xlink:href="neural__activations_8c.html#aaba6ef52952c92bb15f6231b6b42fa73" target="_top" xlink:title="Returns the integer representation of an activation function.">
<polygon fill="white" stroke="#666666" points="610,-281.5 488,-281.5 488,-262.5 610,-262.5 610,-281.5"/>
<text text-anchor="middle" x="549" y="-269.5" font-family="Helvetica,sans-Serif" font-size="10.00">neural_activation_as_int</text>
</a>
</g>
</g>
<!-- Node5&#45;&gt;Node6 -->
<g id="edge5_Node000005_Node000006" class="edge">
<title>Node5&#45;&gt;Node6</title>
<g id="a_edge5_Node000005_Node000006"><a xlink:title=" ">
<path fill="none" stroke="#63b8ff" d="M441.82,-272C453.49,-272 465.88,-272 477.92,-272"/>
<polygon fill="#63b8ff" stroke="#63b8ff" points="477.93,-275.5 487.93,-272 477.93,-268.5 477.93,-275.5"/>
</a>
</g>
</g>
<!-- Node13 -->
<g id="Node000013" class="node">
<title>Node13</title>
<g id="a_Node000013"><a xlink:href="neural__layer__args_8c.html#a8e1a02c60d1cbe0baba8f2c6ff0b5266" target="_top" xlink:title="Checks input layer arguments are valid.">
<polygon fill="white" stroke="#666666" points="433.5,-30 332.5,-30 332.5,0 433.5,0 433.5,-30"/>
<text text-anchor="start" x="340.5" y="-18" font-family="Helvetica,sans-Serif" font-size="10.00">layer_args_validate</text>
<text text-anchor="middle" x="383" y="-7" font-family="Helvetica,sans-Serif" font-size="10.00">_inputs</text>
</a>
</g>
</g>
<!-- Node12&#45;&gt;Node13 -->
<g id="edge12_Node000012_Node000013" class="edge">
<title>Node12&#45;&gt;Node13</title>
<g id="a_edge12_Node000012_Node000013"><a xlink:title=" ">
<path fill="none" stroke="#63b8ff" d="M256.34,-48.46C275.85,-43.26 300.49,-36.7 322.77,-30.77"/>
<polygon fill="#63b8ff" stroke="#63b8ff" points="323.72,-34.14 332.48,-28.19 321.91,-27.38 323.72,-34.14"/>
</a>
</g>
</g>
<!-- Node14 -->
<g id="Node000014" class="node">
<title>Node14</title>
<g id="a_Node000014"><a xlink:href="neural__layer_8c.html#ad1b7188119d0d96791ee0d87c105896a" target="_top" xlink:title="Returns a whether a layer type expects images as input.">
<polygon fill="white" stroke="#666666" points="607,-24.5 491,-24.5 491,-5.5 607,-5.5 607,-24.5"/>
<text text-anchor="middle" x="549" y="-12.5" font-family="Helvetica,sans-Serif" font-size="10.00">layer_receives_images</text>
</a>
</g>
</g>
<!-- Node13&#45;&gt;Node14 -->
<g id="edge13_Node000013_Node000014" class="edge">
<title>Node13&#45;&gt;Node14</title>
<g id="a_edge13_Node000013_Node000014"><a xlink:title=" ">
<path fill="none" stroke="#63b8ff" d="M433.65,-15C448.42,-15 464.86,-15 480.56,-15"/>
<polygon fill="#63b8ff" stroke="#63b8ff" points="480.75,-18.5 490.75,-15 480.75,-11.5 480.75,-18.5"/>
</a>
</g>
</g>
</g>
</svg>
