<?xml version="1.0" encoding="UTF-8" standalone="no"?>
<!DOCTYPE svg PUBLIC "-//W3C//DTD SVG 1.1//EN"
 "http://www.w3.org/Graphics/SVG/1.1/DTD/svg11.dtd">
<!-- Generated by graphviz version 2.43.0 (0)
 -->
<!-- Title: cond_param_set_bits Pages: 1 -->
<svg width="1140pt" height="214pt"
 viewBox="0.00 0.00 1140.00 214.00" xmlns="http://www.w3.org/2000/svg" xmlns:xlink="http://www.w3.org/1999/xlink">
<g id="graph0" class="graph" transform="scale(1 1) rotate(0) translate(4 210)">
<title>cond_param_set_bits</title>
<!-- Node1 -->
<g id="Node000001" class="node">
<title>Node1</title>
<g id="a_Node000001"><a xlink:title=" ">
<polygon fill="#999999" stroke="#666666" points="1132,-106 1022,-106 1022,-87 1132,-87 1132,-106"/>
<text text-anchor="middle" x="1077" y="-94" font-family="Helvetica,sans-Serif" font-size="10.00">cond_param_set_bits</text>
</a>
</g>
</g>
<!-- Node2 -->
<g id="Node000002" class="node">
<title>Node2</title>
<g id="a_Node000002"><a xlink:href="cond__ternary_8c.html#ae43a7aeb5fd85f6620d8f56359db587d" target="_top" xlink:title="Initialises default ternary condition parameters.">
<polygon fill="white" stroke="#666666" points="986,-87.5 881,-87.5 881,-57.5 986,-57.5 986,-87.5"/>
<text text-anchor="start" x="889" y="-75.5" font-family="Helvetica,sans-Serif" font-size="10.00">cond_ternary_param</text>
<text text-anchor="middle" x="933.5" y="-64.5" font-family="Helvetica,sans-Serif" font-size="10.00">_defaults</text>
</a>
</g>
</g>
<!-- Node1&#45;&gt;Node2 -->
<g id="edge1_Node000001_Node000002" class="edge">
<title>Node1&#45;&gt;Node2</title>
<g id="a_edge1_Node000001_Node000002"><a xlink:title=" ">
<path fill="none" stroke="#63b8ff" d="M1011.71,-85.6C1003.13,-84.14 994.42,-82.66 986.1,-81.25"/>
<polygon fill="#63b8ff" stroke="#63b8ff" points="1011.25,-89.07 1021.7,-87.29 1012.42,-82.17 1011.25,-89.07"/>
</a>
</g>
</g>
<!-- Node15 -->
<g id="Node000015" class="node">
<title>Node15</title>
<g id="a_Node000015"><a xlink:href="cond__ternary_8c.html#aa77071d571c2ab9b4c318e73efb77ca1" target="_top" xlink:title="Sets the ternary parameters from a cJSON object.">
<polygon fill="white" stroke="#666666" points="986,-135.5 881,-135.5 881,-105.5 986,-105.5 986,-135.5"/>
<text text-anchor="start" x="889" y="-123.5" font-family="Helvetica,sans-Serif" font-size="10.00">cond_ternary_param</text>
<text text-anchor="middle" x="933.5" y="-112.5" font-family="Helvetica,sans-Serif" font-size="10.00">_json_import</text>
</a>
</g>
</g>
<!-- Node1&#45;&gt;Node15 -->
<g id="edge16_Node000001_Node000015" class="edge">
<title>Node1&#45;&gt;Node15</title>
<g id="a_edge16_Node000001_Node000015"><a xlink:title=" ">
<path fill="none" stroke="#63b8ff" d="M1011.71,-107.4C1003.13,-108.86 994.42,-110.34 986.1,-111.75"/>
<polygon fill="#63b8ff" stroke="#63b8ff" points="1012.42,-110.83 1021.7,-105.71 1011.25,-103.93 1012.42,-110.83"/>
</a>
</g>
</g>
<!-- Node3 -->
<g id="Node000003" class="node">
<title>Node3</title>
<g id="a_Node000003"><a xlink:href="condition_8c.html#ac7f09d43efc7400318fe32c917a92292" target="_top" xlink:title="Initialises default condition parameters.">
<polygon fill="white" stroke="#666666" points="837.5,-82 727.5,-82 727.5,-63 837.5,-63 837.5,-82"/>
<text text-anchor="middle" x="782.5" y="-70" font-family="Helvetica,sans-Serif" font-size="10.00">cond_param_defaults</text>
</a>
</g>
</g>
<!-- Node2&#45;&gt;Node3 -->
<g id="edge2_Node000002_Node000003" class="edge">
<title>Node2&#45;&gt;Node3</title>
<g id="a_edge2_Node000002_Node000003"><a xlink:title=" ">
<path fill="none" stroke="#63b8ff" d="M870.49,-72.5C859.58,-72.5 848.31,-72.5 837.64,-72.5"/>
<polygon fill="#63b8ff" stroke="#63b8ff" points="870.81,-76 880.81,-72.5 870.81,-69 870.81,-76"/>
</a>
</g>
</g>
<!-- Node4 -->
<g id="Node000004" class="node">
<title>Node4</title>
<g id="a_Node000004"><a xlink:href="param_8c.html#ac8218a170803be0bcd974764e7494b0e" target="_top" xlink:title="Initialises default XCSF parameters.">
<polygon fill="white" stroke="#666666" points="643.5,-82 581.5,-82 581.5,-63 643.5,-63 643.5,-82"/>
<text text-anchor="middle" x="612.5" y="-70" font-family="Helvetica,sans-Serif" font-size="10.00">param_init</text>
</a>
</g>
</g>
<!-- Node3&#45;&gt;Node4 -->
<g id="edge3_Node000003_Node000004" class="edge">
<title>Node3&#45;&gt;Node4</title>
<g id="a_edge3_Node000003_Node000004"><a xlink:title=" ">
<path fill="none" stroke="#63b8ff" d="M717.19,-72.5C692.04,-72.5 664.39,-72.5 643.97,-72.5"/>
<polygon fill="#63b8ff" stroke="#63b8ff" points="717.42,-76 727.42,-72.5 717.42,-69 717.42,-76"/>
</a>
</g>
</g>
<!-- Node5 -->
<g id="Node000005" class="node">
<title>Node5</title>
<g id="a_Node000005"><a xlink:href="env__csv_8c.html#ab26a39a388f0ac83b9ac14726ad14b16" target="_top" xlink:title="Initialises a CSV input environment from a specified filename.">
<polygon fill="white" stroke="#666666" points="491,-56 420,-56 420,-37 491,-37 491,-56"/>
<text text-anchor="middle" x="455.5" y="-44" font-family="Helvetica,sans-Serif" font-size="10.00">env_csv_init</text>
</a>
</g>
</g>
<!-- Node4&#45;&gt;Node5 -->
<g id="edge4_Node000004_Node000005" class="edge">
<title>Node4&#45;&gt;Node5</title>
<g id="a_edge4_Node000004_Node000005"><a xlink:title=" ">
<path fill="none" stroke="#63b8ff" d="M571.37,-65.77C546.46,-61.59 514.78,-56.28 491,-52.29"/>
<polygon fill="#63b8ff" stroke="#63b8ff" points="570.81,-69.22 581.25,-67.43 571.96,-62.32 570.81,-69.22"/>
</a>
</g>
</g>
<!-- Node8 -->
<g id="Node000008" class="node">
<title>Node8</title>
<g id="a_Node000008"><a xlink:href="env__maze_8c.html#acad3cc6e9fe2b7e07e878f1f517ad3a6" target="_top" xlink:title="Initialises a maze environment from a specified file.">
<polygon fill="white" stroke="#666666" points="495.5,-19 415.5,-19 415.5,0 495.5,0 495.5,-19"/>
<text text-anchor="middle" x="455.5" y="-7" font-family="Helvetica,sans-Serif" font-size="10.00">env_maze_init</text>
</a>
</g>
</g>
<!-- Node4&#45;&gt;Node8 -->
<g id="edge7_Node000004_Node000008" class="edge">
<title>Node4&#45;&gt;Node8</title>
<g id="a_edge7_Node000004_Node000008"><a xlink:title=" ">
<path fill="none" stroke="#63b8ff" d="M580.15,-58.82C559.01,-49.71 530.45,-37.59 505,-27.5 497.82,-24.65 489.99,-21.69 482.76,-19"/>
<polygon fill="#63b8ff" stroke="#63b8ff" points="579.02,-62.15 589.59,-62.91 581.8,-55.72 579.02,-62.15"/>
</a>
</g>
</g>
<!-- Node9 -->
<g id="Node000009" class="node">
<title>Node9</title>
<g id="a_Node000009"><a xlink:href="env__mux_8c.html#aff3b81b4913d273ecfd62d7585480b15" target="_top" xlink:title="Initialises a real multiplexer environment of specified length.">
<polygon fill="white" stroke="#666666" points="492.5,-93 418.5,-93 418.5,-74 492.5,-74 492.5,-93"/>
<text text-anchor="middle" x="455.5" y="-81" font-family="Helvetica,sans-Serif" font-size="10.00">env_mux_init</text>
</a>
</g>
</g>
<!-- Node4&#45;&gt;Node9 -->
<g id="edge9_Node000004_Node000009" class="edge">
<title>Node4&#45;&gt;Node9</title>
<g id="a_edge9_Node000004_Node000009"><a xlink:title=" ">
<path fill="none" stroke="#63b8ff" d="M571.26,-75.36C546.95,-77.08 516.21,-79.26 492.67,-80.93"/>
<polygon fill="#63b8ff" stroke="#63b8ff" points="571.52,-78.85 581.25,-74.65 571.02,-71.86 571.52,-78.85"/>
</a>
</g>
</g>
<!-- Node10 -->
<g id="Node000010" class="node">
<title>Node10</title>
<g id="a_Node000010"><a xlink:href="classXCS.html#a2e542f3f17c9c76d07045adf1f5c16f9" target="_top" xlink:title="Resets basic constructor variables.">
<polygon fill="white" stroke="#666666" points="488,-168 423,-168 423,-149 488,-149 488,-168"/>
<text text-anchor="middle" x="455.5" y="-156" font-family="Helvetica,sans-Serif" font-size="10.00">XCS::reset</text>
</a>
</g>
</g>
<!-- Node4&#45;&gt;Node10 -->
<g id="edge11_Node000004_Node000010" class="edge">
<title>Node4&#45;&gt;Node10</title>
<g id="a_edge11_Node000004_Node000010"><a xlink:title=" ">
<path fill="none" stroke="#63b8ff" d="M572.48,-85.87C561.82,-90.36 550.58,-95.94 541,-102.5 522.07,-115.47 524.11,-126.81 505,-139.5 499.43,-143.2 493.02,-146.35 486.73,-148.96"/>
<polygon fill="#63b8ff" stroke="#63b8ff" points="574.05,-89 582.04,-82.04 571.45,-82.51 574.05,-89"/>
</a>
</g>
</g>
<!-- Node6 -->
<g id="Node000006" class="node">
<title>Node6</title>
<g id="a_Node000006"><a xlink:href="env_8c.html#a9213fcf5fc422d6a77bce853b1d78dc9" target="_top" xlink:title="Initialises a built&#45;in problem environment.">
<polygon fill="white" stroke="#666666" points="347.5,-56 297.5,-56 297.5,-37 347.5,-37 347.5,-56"/>
<text text-anchor="middle" x="322.5" y="-44" font-family="Helvetica,sans-Serif" font-size="10.00">env_init</text>
</a>
</g>
</g>
<!-- Node5&#45;&gt;Node6 -->
<g id="edge5_Node000005_Node000006" class="edge">
<title>Node5&#45;&gt;Node6</title>
<g id="a_edge5_Node000005_Node000006"><a xlink:title=" ">
<path fill="none" stroke="#63b8ff" d="M409.52,-46.5C388.76,-46.5 364.94,-46.5 347.64,-46.5"/>
<polygon fill="#63b8ff" stroke="#63b8ff" points="409.74,-50 419.74,-46.5 409.74,-43 409.74,-50"/>
</a>
</g>
</g>
<!-- Node7 -->
<g id="Node000007" class="node">
<title>Node7</title>
<g id="a_Node000007"><a xlink:href="main_8c.html#a3c04138a5bfe5d72780bb7e82a18e627" target="_top" xlink:title=" ">
<polygon fill="white" stroke="#666666" points="213,-74 175,-74 175,-55 213,-55 213,-74"/>
<text text-anchor="middle" x="194" y="-62" font-family="Helvetica,sans-Serif" font-size="10.00">main</text>
</a>
</g>
</g>
<!-- Node6&#45;&gt;Node7 -->
<g id="edge6_Node000006_Node000007" class="edge">
<title>Node6&#45;&gt;Node7</title>
<g id="a_edge6_Node000006_Node000007"><a xlink:title=" ">
<path fill="none" stroke="#63b8ff" d="M287.34,-51.36C263.49,-54.75 232.58,-59.15 213.26,-61.9"/>
<polygon fill="#63b8ff" stroke="#63b8ff" points="288,-54.8 297.41,-49.93 287.02,-47.87 288,-54.8"/>
</a>
</g>
</g>
<!-- Node8&#45;&gt;Node6 -->
<g id="edge8_Node000008_Node000006" class="edge">
<title>Node8&#45;&gt;Node6</title>
<g id="a_edge8_Node000008_Node000006"><a xlink:title=" ">
<path fill="none" stroke="#63b8ff" d="M411.03,-21.78C389.91,-27.74 365.34,-34.68 347.61,-39.69"/>
<polygon fill="#63b8ff" stroke="#63b8ff" points="412.09,-25.11 420.76,-19.03 410.19,-18.38 412.09,-25.11"/>
</a>
</g>
</g>
<!-- Node9&#45;&gt;Node6 -->
<g id="edge10_Node000009_Node000006" class="edge">
<title>Node9&#45;&gt;Node6</title>
<g id="a_edge10_Node000009_Node000006"><a xlink:title=" ">
<path fill="none" stroke="#63b8ff" d="M411.03,-71.22C389.91,-65.26 365.34,-58.32 347.61,-53.31"/>
<polygon fill="#63b8ff" stroke="#63b8ff" points="410.19,-74.62 420.76,-73.97 412.09,-67.89 410.19,-74.62"/>
</a>
</g>
</g>
<!-- Node11 -->
<g id="Node000011" class="node">
<title>Node11</title>
<g id="a_Node000011"><a xlink:href="classXCS.html#a8a53a8df81152fbf73e6abcc6a6e56b4" target="_top" xlink:title="Default Constructor.">
<polygon fill="white" stroke="#666666" points="355,-206 290,-206 290,-187 355,-187 355,-206"/>
<text text-anchor="middle" x="322.5" y="-194" font-family="Helvetica,sans-Serif" font-size="10.00">XCS::XCS</text>
</a>
</g>
</g>
<!-- Node10&#45;&gt;Node11 -->
<g id="edge12_Node000010_Node000011" class="edge">
<title>Node10&#45;&gt;Node11</title>
<g id="a_edge12_Node000010_Node000011"><a xlink:title=" ">
<path fill="none" stroke="#63b8ff" d="M413.07,-170.52C394.41,-175.93 372.73,-182.22 355.37,-187.25"/>
<polygon fill="#63b8ff" stroke="#63b8ff" points="414.16,-173.85 422.79,-167.7 412.21,-167.12 414.16,-173.85"/>
</a>
</g>
</g>
<!-- Node14 -->
<g id="Node000014" class="node">
<title>Node14</title>
<g id="a_Node000014"><a xlink:href="classXCS.html#a608a50f998819369d28ef9966d6812ca" target="_top" xlink:title="Constructor.">
<polygon fill="white" stroke="#666666" points="226.5,-168 161.5,-168 161.5,-149 226.5,-149 226.5,-168"/>
<text text-anchor="middle" x="194" y="-156" font-family="Helvetica,sans-Serif" font-size="10.00">XCS::XCS</text>
</a>
</g>
</g>
<!-- Node10&#45;&gt;Node14 -->
<g id="edge15_Node000010_Node000014" class="edge">
<title>Node10&#45;&gt;Node14</title>
<g id="a_edge15_Node000010_Node000014"><a xlink:title=" ">
<path fill="none" stroke="#63b8ff" d="M412.75,-158.5C360.86,-158.5 273.48,-158.5 226.75,-158.5"/>
<polygon fill="#63b8ff" stroke="#63b8ff" points="412.94,-162 422.94,-158.5 412.94,-155 412.94,-162"/>
</a>
</g>
</g>
<!-- Node12 -->
<g id="Node000012" class="node">
<title>Node12</title>
<g id="a_Node000012"><a xlink:href="classXCS.html#a71b21201e1a2aef16702a2c308eb6683" target="_top" xlink:title="Implements pickle file reading.">
<polygon fill="white" stroke="#666666" points="239,-205 149,-205 149,-186 239,-186 239,-205"/>
<text text-anchor="middle" x="194" y="-193" font-family="Helvetica,sans-Serif" font-size="10.00">XCS::deserialize</text>
</a>
</g>
</g>
<!-- Node11&#45;&gt;Node12 -->
<g id="edge13_Node000011_Node000012" class="edge">
<title>Node11&#45;&gt;Node12</title>
<g id="a_edge13_Node000011_Node000012"><a xlink:title=" ">
<path fill="none" stroke="#63b8ff" d="M279.78,-196.17C266.72,-196.07 252.28,-195.95 239.06,-195.85"/>
<polygon fill="#63b8ff" stroke="#63b8ff" points="279.88,-199.67 289.91,-196.25 279.93,-192.67 279.88,-199.67"/>
</a>
</g>
</g>
<!-- Node13 -->
<g id="Node000013" class="node">
<title>Node13</title>
<g id="a_Node000013"><a xlink:href="pybind__wrapper_8cpp.html#a172daba0778fe2bd38d723d5f52a23d5" target="_top" xlink:title=" ">
<polygon fill="white" stroke="#666666" points="113,-167 0,-167 0,-148 113,-148 113,-167"/>
<text text-anchor="middle" x="56.5" y="-155" font-family="Helvetica,sans-Serif" font-size="10.00">PYBIND11_MODULE</text>
</a>
</g>
</g>
<!-- Node12&#45;&gt;Node13 -->
<g id="edge14_Node000012_Node000013" class="edge">
<title>Node12&#45;&gt;Node13</title>
<g id="a_edge14_Node000012_Node000013"><a xlink:title=" ">
<path fill="none" stroke="#63b8ff" d="M149.08,-183.18C130.46,-177.96 109.09,-171.97 91.68,-167.09"/>
<polygon fill="#63b8ff" stroke="#63b8ff" points="148.23,-186.58 158.81,-185.91 150.12,-179.84 148.23,-186.58"/>
</a>
</g>
</g>
<!-- Node16 -->
<g id="Node000016" class="node">
<title>Node16</title>
<g id="a_Node000016"><a xlink:href="condition_8c.html#afc111ebe0ddef1e7d19f0129d8c0f646" target="_top" xlink:title="Sets the condition parameters from a cJSON object.">
<polygon fill="white" stroke="#666666" points="845,-130 720,-130 720,-111 845,-111 845,-130"/>
<text text-anchor="middle" x="782.5" y="-118" font-family="Helvetica,sans-Serif" font-size="10.00">cond_param_json_import</text>
</a>
</g>
</g>
<!-- Node15&#45;&gt;Node16 -->
<g id="edge17_Node000015_Node000016" class="edge">
<title>Node15&#45;&gt;Node16</title>
<g id="a_edge17_Node000015_Node000016"><a xlink:title=" ">
<path fill="none" stroke="#63b8ff" d="M870.65,-120.5C862.21,-120.5 853.54,-120.5 845.1,-120.5"/>
<polygon fill="#63b8ff" stroke="#63b8ff" points="870.81,-124 880.81,-120.5 870.81,-117 870.81,-124"/>
</a>
</g>
</g>
<!-- Node17 -->
<g id="Node000017" class="node">
<title>Node17</title>
<g id="a_Node000017"><a xlink:href="param_8c.html#a94f5495282a36944cade334e52c3c5cd" target="_top" xlink:title="Sets the condition parameters from a json formatted string.">
<polygon fill="white" stroke="#666666" points="684,-130 541,-130 541,-111 684,-111 684,-130"/>
<text text-anchor="middle" x="612.5" y="-118" font-family="Helvetica,sans-Serif" font-size="10.00">param_json_import_condition</text>
</a>
</g>
</g>
<!-- Node16&#45;&gt;Node17 -->
<g id="edge18_Node000016_Node000017" class="edge">
<title>Node16&#45;&gt;Node17</title>
<g id="a_edge18_Node000016_Node000017"><a xlink:title=" ">
<path fill="none" stroke="#63b8ff" d="M709.7,-120.5C701.25,-120.5 692.63,-120.5 684.19,-120.5"/>
<polygon fill="#63b8ff" stroke="#63b8ff" points="709.9,-124 719.9,-120.5 709.9,-117 709.9,-124"/>
</a>
</g>
</g>
<!-- Node18 -->
<g id="Node000018" class="node">
<title>Node18</title>
<g id="a_Node000018"><a xlink:href="param_8c.html#a130260988988535419aee8abe51986c1" target="_top" xlink:title="Sets the parameters from a json formatted string.">
<polygon fill="white" stroke="#666666" points="505,-130 406,-130 406,-111 505,-111 505,-130"/>
<text text-anchor="middle" x="455.5" y="-118" font-family="Helvetica,sans-Serif" font-size="10.00">param_json_import</text>
</a>
</g>
</g>
<!-- Node17&#45;&gt;Node18 -->
<g id="edge19_Node000017_Node000018" class="edge">
<title>Node17&#45;&gt;Node18</title>
<g id="a_edge19_Node000017_Node000018"><a xlink:title=" ">
<path fill="none" stroke="#63b8ff" d="M530.67,-120.5C522.04,-120.5 513.47,-120.5 505.38,-120.5"/>
<polygon fill="#63b8ff" stroke="#63b8ff" points="530.8,-124 540.8,-120.5 530.8,-117 530.8,-124"/>
</a>
</g>
</g>
<!-- Node19 -->
<g id="Node000019" class="node">
<title>Node19</title>
<g id="a_Node000019"><a xlink:href="config_8c.html#a045a64a30d99a4bef2ebfd9b54aa9698" target="_top" xlink:title="Reads the specified configuration file.">
<polygon fill="white" stroke="#666666" points="356,-93 289,-93 289,-74 356,-74 356,-93"/>
<text text-anchor="middle" x="322.5" y="-81" font-family="Helvetica,sans-Serif" font-size="10.00">config_read</text>
</a>
</g>
</g>
<!-- Node18&#45;&gt;Node19 -->
<g id="edge20_Node000018_Node000019" class="edge">
<title>Node18&#45;&gt;Node19</title>
<g id="a_edge20_Node000018_Node000019"><a xlink:title=" ">
<path fill="none" stroke="#63b8ff" d="M411.12,-108.25C393.22,-103.19 372.82,-97.43 356.22,-92.74"/>
<polygon fill="#63b8ff" stroke="#63b8ff" points="410.19,-111.62 420.76,-110.97 412.09,-104.89 410.19,-111.62"/>
</a>
</g>
</g>
<!-- Node20 -->
<g id="Node000020" class="node">
<title>Node20</title>
<g id="a_Node000020"><a xlink:href="classXCS.html#a0d9522bfc97392a8b6ee11774ae29f8a" target="_top" xlink:title="Sets parameter values.">
<polygon fill="white" stroke="#666666" points="370,-130 275,-130 275,-111 370,-111 370,-130"/>
<text text-anchor="middle" x="322.5" y="-118" font-family="Helvetica,sans-Serif" font-size="10.00">XCS::set_params</text>
</a>
</g>
</g>
<!-- Node18&#45;&gt;Node20 -->
<g id="edge22_Node000018_Node000020" class="edge">
<title>Node18&#45;&gt;Node20</title>
<g id="a_edge22_Node000018_Node000020"><a xlink:title=" ">
<path fill="none" stroke="#63b8ff" d="M395.48,-120.5C386.99,-120.5 378.35,-120.5 370.15,-120.5"/>
<polygon fill="#63b8ff" stroke="#63b8ff" points="395.72,-124 405.72,-120.5 395.72,-117 395.72,-124"/>
</a>
</g>
</g>
<!-- Node19&#45;&gt;Node7 -->
<g id="edge21_Node000019_Node000007" class="edge">
<title>Node19&#45;&gt;Node7</title>
<g id="a_edge21_Node000019_Node000007"><a xlink:title=" ">
<path fill="none" stroke="#63b8ff" d="M278.93,-77.11C256.47,-73.73 230.11,-69.77 213.01,-67.2"/>
<polygon fill="#63b8ff" stroke="#63b8ff" points="278.51,-80.58 288.92,-78.61 279.55,-73.66 278.51,-80.58"/>
</a>
</g>
</g>
<!-- Node20&#45;&gt;Node13 -->
<g id="edge23_Node000020_Node000013" class="edge">
<title>Node20&#45;&gt;Node13</title>
<g id="a_edge23_Node000020_Node000013"><a xlink:title=" ">
<path fill="none" stroke="#63b8ff" d="M264.77,-126.09C231.05,-129.66 187.5,-134.7 149,-140.5 134.78,-142.64 119.39,-145.35 105.36,-147.97"/>
<polygon fill="#63b8ff" stroke="#63b8ff" points="265.31,-129.55 274.89,-125.03 264.58,-122.59 265.31,-129.55"/>
</a>
</g>
</g>
<!-- Node20&#45;&gt;Node14 -->
<g id="edge24_Node000020_Node000014" class="edge">
<title>Node20&#45;&gt;Node14</title>
<g id="a_edge24_Node000020_Node000014"><a xlink:title=" ">
<path fill="none" stroke="#63b8ff" d="M279.77,-133.04C262.56,-138.2 242.94,-144.1 226.91,-148.91"/>
<polygon fill="#63b8ff" stroke="#63b8ff" points="281.01,-136.32 289.58,-130.09 278.99,-129.61 281.01,-136.32"/>
</a>
</g>
</g>
</g>
</svg>
