<?xml version="1.0" encoding="UTF-8" standalone="no"?>
<!DOCTYPE svg PUBLIC "-//W3C//DTD SVG 1.1//EN"
 "http://www.w3.org/Graphics/SVG/1.1/DTD/svg11.dtd">
<!-- Generated by graphviz version 2.43.0 (0)
 -->
<!-- Title: cond_ternary.h Pages: 1 -->
<svg width="292pt" height="84pt"
 viewBox="0.00 0.00 291.50 84.00" xmlns="http://www.w3.org/2000/svg" xmlns:xlink="http://www.w3.org/1999/xlink">
<g id="graph0" class="graph" transform="scale(1 1) rotate(0) translate(4 80)">
<title>cond_ternary.h</title>
<!-- Node1 -->
<g id="node1" class="node">
<title>Node1</title>
<g id="a_node1"><a xlink:title="Ternary condition functions.">
<polygon fill="#bfbfbf" stroke="black" points="90,-56.5 90,-75.5 170,-75.5 170,-56.5 90,-56.5"/>
<text text-anchor="middle" x="130" y="-63.5" font-family="Helvetica,sans-Serif" font-size="10.00">cond_ternary.h</text>
</a>
</g>
</g>
<!-- Node2 -->
<g id="node2" class="node">
<title>Node2</title>
<g id="a_node2"><a xlink:href="cond__ternary_8c.html" target="_top" xlink:title="Ternary condition functions.">
<polygon fill="none" stroke="black" points="0,-0.5 0,-19.5 80,-19.5 80,-0.5 0,-0.5"/>
<text text-anchor="middle" x="40" y="-7.5" font-family="Helvetica,sans-Serif" font-size="10.00">cond_ternary.c</text>
</a>
</g>
</g>
<!-- Node1&#45;&gt;Node2 -->
<g id="edge1" class="edge">
<title>Node1&#45;&gt;Node2</title>
<path fill="none" stroke="midnightblue" d="M106.96,-51.18C90.4,-41.24 68.58,-28.15 54.42,-19.65"/>
<polygon fill="midnightblue" stroke="midnightblue" points="105.16,-54.18 115.54,-56.32 108.77,-48.18 105.16,-54.18"/>
</g>
<!-- Node3 -->
<g id="node3" class="node">
<title>Node3</title>
<g id="a_node3"><a xlink:href="condition_8c.html" target="_top" xlink:title="Interface for classifier conditions.">
<polygon fill="none" stroke="black" points="98,-0.5 98,-19.5 162,-19.5 162,-0.5 98,-0.5"/>
<text text-anchor="middle" x="130" y="-7.5" font-family="Helvetica,sans-Serif" font-size="10.00">condition.c</text>
</a>
</g>
</g>
<!-- Node1&#45;&gt;Node3 -->
<g id="edge2" class="edge">
<title>Node1&#45;&gt;Node3</title>
<path fill="none" stroke="midnightblue" d="M130,-45.8C130,-36.91 130,-26.78 130,-19.75"/>
<polygon fill="midnightblue" stroke="midnightblue" points="126.5,-46.08 130,-56.08 133.5,-46.08 126.5,-46.08"/>
</g>
<!-- Node4 -->
<g id="node4" class="node">
<title>Node4</title>
<g id="a_node4"><a xlink:href="pybind__wrapper_8cpp.html" target="_top" xlink:title="Python library wrapper functions.">
<polygon fill="none" stroke="black" points="180.5,-0.5 180.5,-19.5 283.5,-19.5 283.5,-0.5 180.5,-0.5"/>
<text text-anchor="middle" x="232" y="-7.5" font-family="Helvetica,sans-Serif" font-size="10.00">pybind_wrapper.cpp</text>
</a>
</g>
</g>
<!-- Node1&#45;&gt;Node4 -->
<g id="edge3" class="edge">
<title>Node1&#45;&gt;Node4</title>
<path fill="none" stroke="midnightblue" d="M155.33,-51.59C174.19,-41.61 199.38,-28.27 215.65,-19.65"/>
<polygon fill="midnightblue" stroke="midnightblue" points="153.59,-48.55 146.39,-56.32 156.86,-54.74 153.59,-48.55"/>
</g>
</g>
</svg>
