<?xml version="1.0" encoding="UTF-8" standalone="no"?>
<!DOCTYPE svg PUBLIC "-//W3C//DTD SVG 1.1//EN"
 "http://www.w3.org/Graphics/SVG/1.1/DTD/svg11.dtd">
<!-- Generated by graphviz version 2.43.0 (0)
 -->
<!-- Title: cond_dgp_json_export Pages: 1 -->
<svg width="370pt" height="27pt"
 viewBox="0.00 0.00 370.00 27.00" xmlns="http://www.w3.org/2000/svg" xmlns:xlink="http://www.w3.org/1999/xlink">
<g id="graph0" class="graph" transform="scale(1 1) rotate(0) translate(4 23)">
<title>cond_dgp_json_export</title>
<!-- Node1 -->
<g id="Node000001" class="node">
<title>Node1</title>
<g id="a_Node000001"><a xlink:title="Returns a json formatted string representation of a DGP condition.">
<polygon fill="#999999" stroke="#666666" points="114,-19 0,-19 0,0 114,0 114,-19"/>
<text text-anchor="middle" x="57" y="-7" font-family="Helvetica,sans-Serif" font-size="10.00">cond_dgp_json_export</text>
</a>
</g>
</g>
<!-- Node2 -->
<g id="Node000002" class="node">
<title>Node2</title>
<g id="a_Node000002"><a xlink:href="dgp_8c.html#a6e561b0a46615962e977ccc8b4d4e0ae" target="_top" xlink:title="Returns a json formatted string representation of a DGP graph.">
<polygon fill="white" stroke="#666666" points="246,-19 150,-19 150,0 246,0 246,-19"/>
<text text-anchor="middle" x="198" y="-7" font-family="Helvetica,sans-Serif" font-size="10.00">graph_json_export</text>
</a>
</g>
</g>
<!-- Node1&#45;&gt;Node2 -->
<g id="edge1_Node000001_Node000002" class="edge">
<title>Node1&#45;&gt;Node2</title>
<g id="a_edge1_Node000001_Node000002"><a xlink:title=" ">
<path fill="none" stroke="#63b8ff" d="M114.14,-9.5C122.49,-9.5 131.12,-9.5 139.5,-9.5"/>
<polygon fill="#63b8ff" stroke="#63b8ff" points="139.57,-13 149.57,-9.5 139.57,-6 139.57,-13"/>
</a>
</g>
</g>
<!-- Node3 -->
<g id="Node000003" class="node">
<title>Node3</title>
<g id="a_Node000003"><a xlink:href="dgp_8c.html#a0e52d68ab8db46a3fa505aabda274cad" target="_top" xlink:title="Returns the name of a specified node function.">
<polygon fill="white" stroke="#666666" points="362,-19 282,-19 282,0 362,0 362,-19"/>
<text text-anchor="middle" x="322" y="-7" font-family="Helvetica,sans-Serif" font-size="10.00">function_string</text>
</a>
</g>
</g>
<!-- Node2&#45;&gt;Node3 -->
<g id="edge2_Node000002_Node000003" class="edge">
<title>Node2&#45;&gt;Node3</title>
<g id="a_edge2_Node000002_Node000003"><a xlink:title=" ">
<path fill="none" stroke="#63b8ff" d="M246.17,-9.5C254.56,-9.5 263.32,-9.5 271.76,-9.5"/>
<polygon fill="#63b8ff" stroke="#63b8ff" points="271.86,-13 281.86,-9.5 271.86,-6 271.86,-13"/>
</a>
</g>
</g>
</g>
</svg>
