<?xml version="1.0" encoding="UTF-8" standalone="no"?>
<!DOCTYPE svg PUBLIC "-//W3C//DTD SVG 1.1//EN"
 "http://www.w3.org/Graphics/SVG/1.1/DTD/svg11.dtd">
<!-- Generated by graphviz version 2.43.0 (0)
 -->
<!-- Title: cond_gp_mutate Pages: 1 -->
<svg width="522pt" height="138pt"
 viewBox="0.00 0.00 522.00 137.72" xmlns="http://www.w3.org/2000/svg" xmlns:xlink="http://www.w3.org/1999/xlink">
<g id="graph0" class="graph" transform="scale(1 1) rotate(0) translate(4 133.72)">
<title>cond_gp_mutate</title>
<!-- Node1 -->
<g id="node1" class="node">
<title>Node1</title>
<g id="a_node1"><a xlink:title=" ">
<polygon fill="#bfbfbf" stroke="black" points="0,-95.59 0,-114.59 89,-114.59 89,-95.59 0,-95.59"/>
<text text-anchor="middle" x="44.5" y="-102.59" font-family="Helvetica,sans-Serif" font-size="10.00">cond_gp_mutate</text>
</a>
</g>
</g>
<!-- Node2 -->
<g id="node2" class="node">
<title>Node2</title>
<g id="a_node2"><a xlink:href="gp_8c.html#a60e4b8750a087a8a663bcf9e38c9d71e" target="_top" xlink:title="Performs point mutation on a GP tree.">
<polygon fill="none" stroke="black" points="125,-95.59 125,-114.59 193,-114.59 193,-95.59 125,-95.59"/>
<text text-anchor="middle" x="159" y="-102.59" font-family="Helvetica,sans-Serif" font-size="10.00">tree_mutate</text>
</a>
</g>
</g>
<!-- Node1&#45;&gt;Node2 -->
<g id="edge1" class="edge">
<title>Node1&#45;&gt;Node2</title>
<path fill="none" stroke="midnightblue" d="M89.32,-105.09C97.65,-105.09 106.36,-105.09 114.67,-105.09"/>
<polygon fill="midnightblue" stroke="midnightblue" points="114.93,-108.59 124.93,-105.09 114.93,-101.59 114.93,-108.59"/>
</g>
<!-- Node3 -->
<g id="node3" class="node">
<title>Node3</title>
<g id="a_node3"><a xlink:href="utils_8c.html#a894e776eb1a127a7b31a52bd86327a2a" target="_top" xlink:title="Returns a uniform random integer [min,max] not inclusive of max.">
<polygon fill="none" stroke="black" points="330,-95.59 330,-114.59 405,-114.59 405,-95.59 330,-95.59"/>
<text text-anchor="middle" x="367.5" y="-102.59" font-family="Helvetica,sans-Serif" font-size="10.00">irand_uniform</text>
</a>
</g>
</g>
<!-- Node2&#45;&gt;Node3 -->
<g id="edge2" class="edge">
<title>Node2&#45;&gt;Node3</title>
<path fill="none" stroke="midnightblue" d="M193.18,-105.09C227.36,-105.09 280.94,-105.09 319.48,-105.09"/>
<polygon fill="midnightblue" stroke="midnightblue" points="319.92,-108.59 329.92,-105.09 319.92,-101.59 319.92,-108.59"/>
</g>
<!-- Node4 -->
<g id="node4" class="node">
<title>Node4</title>
<g id="a_node4"><a xlink:href="utils_8c.html#a972761ba8f47a6c3e7396a7c685158fc" target="_top" xlink:title="Returns a uniform random float [min,max].">
<polygon fill="none" stroke="black" points="441,-95.59 441,-114.59 514,-114.59 514,-95.59 441,-95.59"/>
<text text-anchor="middle" x="477.5" y="-102.59" font-family="Helvetica,sans-Serif" font-size="10.00">rand_uniform</text>
</a>
</g>
</g>
<!-- Node2&#45;&gt;Node4 -->
<g id="edge4" class="edge">
<title>Node2&#45;&gt;Node4</title>
<path fill="none" stroke="midnightblue" d="M193.17,-112.87C204.48,-115.25 217.24,-117.61 229,-119.09 306.64,-128.83 327.41,-134.22 405,-124.09 415.81,-122.68 427.31,-120.11 437.86,-117.32"/>
<polygon fill="midnightblue" stroke="midnightblue" points="438.93,-120.65 447.62,-114.59 437.05,-113.91 438.93,-120.65"/>
</g>
<!-- Node5 -->
<g id="node5" class="node">
<title>Node5</title>
<g id="a_node5"><a xlink:href="sam_8c.html#a8dfbd425ab3513d47726620e94fc861c" target="_top" xlink:title="Self&#45;adapts mutation rates.">
<polygon fill="none" stroke="black" points="229,-57.59 229,-76.59 294,-76.59 294,-57.59 229,-57.59"/>
<text text-anchor="middle" x="261.5" y="-64.59" font-family="Helvetica,sans-Serif" font-size="10.00">sam_adapt</text>
</a>
</g>
</g>
<!-- Node2&#45;&gt;Node5 -->
<g id="edge5" class="edge">
<title>Node2&#45;&gt;Node5</title>
<path fill="none" stroke="midnightblue" d="M185.36,-95.5C197.5,-90.91 212.23,-85.34 225.43,-80.35"/>
<polygon fill="midnightblue" stroke="midnightblue" points="227.03,-83.49 235.15,-76.67 224.56,-76.94 227.03,-83.49"/>
</g>
<!-- Node3&#45;&gt;Node4 -->
<g id="edge3" class="edge">
<title>Node3&#45;&gt;Node4</title>
<path fill="none" stroke="midnightblue" d="M405.06,-105.09C413.24,-105.09 422.02,-105.09 430.53,-105.09"/>
<polygon fill="midnightblue" stroke="midnightblue" points="430.71,-108.59 440.71,-105.09 430.71,-101.59 430.71,-108.59"/>
</g>
<!-- Node5&#45;&gt;Node3 -->
<g id="edge7" class="edge">
<title>Node5&#45;&gt;Node3</title>
<path fill="none" stroke="midnightblue" d="M288.74,-76.68C301.43,-81.31 316.85,-86.95 330.61,-91.97"/>
<polygon fill="midnightblue" stroke="midnightblue" points="329.67,-95.36 340.26,-95.5 332.07,-88.78 329.67,-95.36"/>
</g>
<!-- Node5&#45;&gt;Node4 -->
<g id="edge9" class="edge">
<title>Node5&#45;&gt;Node4</title>
<path fill="none" stroke="midnightblue" d="M269.96,-57.51C281.23,-43.9 304.07,-19.57 330,-10.09 361.31,1.36 375.17,4.79 405,-10.09 436.72,-25.91 458.05,-63.25 468.66,-86.12"/>
<polygon fill="midnightblue" stroke="midnightblue" points="465.55,-87.74 472.78,-95.48 471.96,-84.92 465.55,-87.74"/>
</g>
<!-- Node6 -->
<g id="node6" class="node">
<title>Node6</title>
<g id="a_node6"><a xlink:href="utils_8h.html#a234dd9ca33bcf1fba3e675bc900abc88" target="_top" xlink:title="Returns a float clamped within the specified range.">
<polygon fill="none" stroke="black" points="346,-57.59 346,-76.59 389,-76.59 389,-57.59 346,-57.59"/>
<text text-anchor="middle" x="367.5" y="-64.59" font-family="Helvetica,sans-Serif" font-size="10.00">clamp</text>
</a>
</g>
</g>
<!-- Node5&#45;&gt;Node6 -->
<g id="edge6" class="edge">
<title>Node5&#45;&gt;Node6</title>
<path fill="none" stroke="midnightblue" d="M294.27,-67.09C307.34,-67.09 322.42,-67.09 335.42,-67.09"/>
<polygon fill="midnightblue" stroke="midnightblue" points="335.75,-70.59 345.75,-67.09 335.75,-63.59 335.75,-70.59"/>
</g>
<!-- Node7 -->
<g id="node7" class="node">
<title>Node7</title>
<g id="a_node7"><a xlink:href="utils_8c.html#a6a36d869b4a218a3f55cd19067f62c0f" target="_top" xlink:title="Returns a random Gaussian with specified mean and standard deviation.">
<polygon fill="none" stroke="black" points="332.5,-19.59 332.5,-38.59 402.5,-38.59 402.5,-19.59 332.5,-19.59"/>
<text text-anchor="middle" x="367.5" y="-26.59" font-family="Helvetica,sans-Serif" font-size="10.00">rand_normal</text>
</a>
</g>
</g>
<!-- Node5&#45;&gt;Node7 -->
<g id="edge8" class="edge">
<title>Node5&#45;&gt;Node7</title>
<path fill="none" stroke="midnightblue" d="M288.74,-57.5C301.43,-52.86 316.85,-47.23 330.61,-42.2"/>
<polygon fill="midnightblue" stroke="midnightblue" points="332.07,-45.39 340.26,-38.67 329.67,-38.82 332.07,-45.39"/>
</g>
</g>
</svg>
