<?xml version="1.0" encoding="UTF-8" standalone="no"?>
<!DOCTYPE svg PUBLIC "-//W3C//DTD SVG 1.1//EN"
 "http://www.w3.org/Graphics/SVG/1.1/DTD/svg11.dtd">
<!-- Generated by graphviz version 2.43.0 (0)
 -->
<!-- Title: cond_gp_cover Pages: 1 -->
<svg width="528pt" height="141pt"
 viewBox="0.00 0.00 528.00 141.00" xmlns="http://www.w3.org/2000/svg" xmlns:xlink="http://www.w3.org/1999/xlink">
<g id="graph0" class="graph" transform="scale(1 1) rotate(0) translate(4 137)">
<title>cond_gp_cover</title>
<!-- Node1 -->
<g id="node1" class="node">
<title>Node1</title>
<g id="a_node1"><a xlink:title=" ">
<polygon fill="#bfbfbf" stroke="black" points="0,-57.5 0,-76.5 83,-76.5 83,-57.5 0,-57.5"/>
<text text-anchor="middle" x="41.5" y="-64.5" font-family="Helvetica,sans-Serif" font-size="10.00">cond_gp_cover</text>
</a>
</g>
</g>
<!-- Node2 -->
<g id="node2" class="node">
<title>Node2</title>
<g id="a_node2"><a xlink:href="cond__gp_8c.html#a783dc5e92c9b75a2985fa44b095a406f" target="_top" xlink:title=" ">
<polygon fill="none" stroke="black" points="119,-95.5 119,-114.5 205,-114.5 205,-95.5 119,-95.5"/>
<text text-anchor="middle" x="162" y="-102.5" font-family="Helvetica,sans-Serif" font-size="10.00">cond_gp_match</text>
</a>
</g>
</g>
<!-- Node1&#45;&gt;Node2 -->
<g id="edge1" class="edge">
<title>Node1&#45;&gt;Node2</title>
<path fill="none" stroke="midnightblue" d="M72.4,-76.59C87.28,-81.36 105.46,-87.19 121.47,-92.32"/>
<polygon fill="midnightblue" stroke="midnightblue" points="120.52,-95.69 131.11,-95.41 122.65,-89.03 120.52,-95.69"/>
</g>
<!-- Node4 -->
<g id="node4" class="node">
<title>Node4</title>
<g id="a_node4"><a xlink:href="gp_8c.html#a5756c7c03a1bf90e91bd0c0ad1e69701" target="_top" xlink:title="Frees a GP tree.">
<polygon fill="none" stroke="black" points="134.5,-57.5 134.5,-76.5 189.5,-76.5 189.5,-57.5 134.5,-57.5"/>
<text text-anchor="middle" x="162" y="-64.5" font-family="Helvetica,sans-Serif" font-size="10.00">tree_free</text>
</a>
</g>
</g>
<!-- Node1&#45;&gt;Node4 -->
<g id="edge4" class="edge">
<title>Node1&#45;&gt;Node4</title>
<path fill="none" stroke="midnightblue" d="M83.28,-67C96.46,-67 111,-67 123.9,-67"/>
<polygon fill="midnightblue" stroke="midnightblue" points="124.28,-70.5 134.28,-67 124.28,-63.5 124.28,-70.5"/>
</g>
<!-- Node5 -->
<g id="node5" class="node">
<title>Node5</title>
<g id="a_node5"><a xlink:href="gp_8c.html#ace13f38511697ce80c1c1a37fbe02e9d" target="_top" xlink:title="Creates a random GP tree.">
<polygon fill="none" stroke="black" points="133.5,-19.5 133.5,-38.5 190.5,-38.5 190.5,-19.5 133.5,-19.5"/>
<text text-anchor="middle" x="162" y="-26.5" font-family="Helvetica,sans-Serif" font-size="10.00">tree_rand</text>
</a>
</g>
</g>
<!-- Node1&#45;&gt;Node5 -->
<g id="edge5" class="edge">
<title>Node1&#45;&gt;Node5</title>
<path fill="none" stroke="midnightblue" d="M72.4,-57.41C87.85,-52.46 106.85,-46.36 123.29,-41.09"/>
<polygon fill="midnightblue" stroke="midnightblue" points="124.69,-44.32 133.14,-37.93 122.55,-37.65 124.69,-44.32"/>
</g>
<!-- Node3 -->
<g id="node3" class="node">
<title>Node3</title>
<g id="a_node3"><a xlink:href="gp_8c.html#a2683f65764ba2aec7834f68f7ad734b9" target="_top" xlink:title="Evaluates a GP tree.">
<polygon fill="none" stroke="black" points="242.5,-95.5 242.5,-114.5 298.5,-114.5 298.5,-95.5 242.5,-95.5"/>
<text text-anchor="middle" x="270.5" y="-102.5" font-family="Helvetica,sans-Serif" font-size="10.00">tree_eval</text>
</a>
</g>
</g>
<!-- Node2&#45;&gt;Node3 -->
<g id="edge2" class="edge">
<title>Node2&#45;&gt;Node3</title>
<path fill="none" stroke="midnightblue" d="M205.09,-105C214.02,-105 223.39,-105 232.13,-105"/>
<polygon fill="midnightblue" stroke="midnightblue" points="232.4,-108.5 242.4,-105 232.4,-101.5 232.4,-108.5"/>
</g>
<!-- Node3&#45;&gt;Node3 -->
<g id="edge3" class="edge">
<title>Node3&#45;&gt;Node3</title>
<path fill="none" stroke="midnightblue" d="M254.78,-114.76C247.13,-123.57 252.37,-133 270.5,-133 281.83,-133 288.13,-129.31 289.39,-124.4"/>
<polygon fill="midnightblue" stroke="midnightblue" points="292.67,-123.17 286.22,-114.76 286.02,-125.35 292.67,-123.17"/>
</g>
<!-- Node6 -->
<g id="node6" class="node">
<title>Node6</title>
<g id="a_node6"><a xlink:href="sam_8c.html#a7f7f30716900f06683a74486aca5f5a0" target="_top" xlink:title="Initialises self&#45;adaptive mutation rates.">
<polygon fill="none" stroke="black" points="244,-0.5 244,-19.5 297,-19.5 297,-0.5 244,-0.5"/>
<text text-anchor="middle" x="270.5" y="-7.5" font-family="Helvetica,sans-Serif" font-size="10.00">sam_init</text>
</a>
</g>
</g>
<!-- Node5&#45;&gt;Node6 -->
<g id="edge6" class="edge">
<title>Node5&#45;&gt;Node6</title>
<path fill="none" stroke="midnightblue" d="M190.7,-24.06C203.9,-21.7 219.83,-18.86 233.91,-16.35"/>
<polygon fill="midnightblue" stroke="midnightblue" points="234.53,-19.79 243.76,-14.59 233.3,-12.9 234.53,-19.79"/>
</g>
<!-- Node9 -->
<g id="node9" class="node">
<title>Node9</title>
<g id="a_node9"><a xlink:href="gp_8c.html#a5bc2d6d3d8019907ef170a661142bef1" target="_top" xlink:title="Grows a random GP tree of specified max length and depth.">
<polygon fill="none" stroke="black" points="241,-38.5 241,-57.5 300,-57.5 300,-38.5 241,-38.5"/>
<text text-anchor="middle" x="270.5" y="-45.5" font-family="Helvetica,sans-Serif" font-size="10.00">tree_grow</text>
</a>
</g>
</g>
<!-- Node5&#45;&gt;Node9 -->
<g id="edge10" class="edge">
<title>Node5&#45;&gt;Node9</title>
<path fill="none" stroke="midnightblue" d="M190.7,-33.94C202.98,-36.13 217.63,-38.75 230.96,-41.12"/>
<polygon fill="midnightblue" stroke="midnightblue" points="230.36,-44.57 240.82,-42.88 231.59,-37.68 230.36,-44.57"/>
</g>
<!-- Node7 -->
<g id="node7" class="node">
<title>Node7</title>
<g id="a_node7"><a xlink:href="utils_8c.html#a894e776eb1a127a7b31a52bd86327a2a" target="_top" xlink:title="Returns a uniform random integer [min,max] not inclusive of max.">
<polygon fill="none" stroke="black" points="336,-38.5 336,-57.5 411,-57.5 411,-38.5 336,-38.5"/>
<text text-anchor="middle" x="373.5" y="-45.5" font-family="Helvetica,sans-Serif" font-size="10.00">irand_uniform</text>
</a>
</g>
</g>
<!-- Node6&#45;&gt;Node7 -->
<g id="edge7" class="edge">
<title>Node6&#45;&gt;Node7</title>
<path fill="none" stroke="midnightblue" d="M296.99,-19.59C309.31,-24.22 324.28,-29.86 337.64,-34.89"/>
<polygon fill="midnightblue" stroke="midnightblue" points="336.43,-38.17 347.02,-38.41 338.89,-31.62 336.43,-38.17"/>
</g>
<!-- Node8 -->
<g id="node8" class="node">
<title>Node8</title>
<g id="a_node8"><a xlink:href="utils_8c.html#a972761ba8f47a6c3e7396a7c685158fc" target="_top" xlink:title="Returns a uniform random float [min,max].">
<polygon fill="none" stroke="black" points="447,-19.5 447,-38.5 520,-38.5 520,-19.5 447,-19.5"/>
<text text-anchor="middle" x="483.5" y="-26.5" font-family="Helvetica,sans-Serif" font-size="10.00">rand_uniform</text>
</a>
</g>
</g>
<!-- Node6&#45;&gt;Node8 -->
<g id="edge9" class="edge">
<title>Node6&#45;&gt;Node8</title>
<path fill="none" stroke="midnightblue" d="M297.37,-12.33C332.04,-15.45 394.13,-21.04 436.78,-24.88"/>
<polygon fill="midnightblue" stroke="midnightblue" points="436.63,-28.38 446.9,-25.79 437.25,-21.41 436.63,-28.38"/>
</g>
<!-- Node7&#45;&gt;Node8 -->
<g id="edge8" class="edge">
<title>Node7&#45;&gt;Node8</title>
<path fill="none" stroke="midnightblue" d="M411.06,-41.57C419.33,-40.11 428.21,-38.55 436.81,-37.04"/>
<polygon fill="midnightblue" stroke="midnightblue" points="437.46,-40.48 446.71,-35.3 436.25,-33.58 437.46,-40.48"/>
</g>
<!-- Node9&#45;&gt;Node7 -->
<g id="edge11" class="edge">
<title>Node9&#45;&gt;Node7</title>
<path fill="none" stroke="midnightblue" d="M300.17,-48C308.14,-48 317,-48 325.71,-48"/>
<polygon fill="midnightblue" stroke="midnightblue" points="325.81,-51.5 335.81,-48 325.81,-44.5 325.81,-51.5"/>
</g>
</g>
</svg>
