<?xml version="1.0" encoding="UTF-8" standalone="no"?>
<!DOCTYPE svg PUBLIC "-//W3C//DTD SVG 1.1//EN"
 "http://www.w3.org/Graphics/SVG/1.1/DTD/svg11.dtd">
<!-- Generated by graphviz version 2.43.0 (0)
 -->
<!-- Title: cond_neural_mutate Pages: 1 -->
<svg width="335pt" height="64pt"
 viewBox="0.00 0.00 335.00 64.00" xmlns="http://www.w3.org/2000/svg" xmlns:xlink="http://www.w3.org/1999/xlink">
<g id="graph0" class="graph" transform="scale(1 1) rotate(0) translate(4 60)">
<title>cond_neural_mutate</title>
<!-- Node1 -->
<g id="Node000001" class="node">
<title>Node1</title>
<g id="a_Node000001"><a xlink:title="Mutates a neural network condition with the self&#45;adaptive rates.">
<polygon fill="#999999" stroke="#666666" points="104,-37 0,-37 0,-18 104,-18 104,-37"/>
<text text-anchor="middle" x="52" y="-25" font-family="Helvetica,sans-Serif" font-size="10.00">cond_neural_mutate</text>
</a>
</g>
</g>
<!-- Node2 -->
<g id="Node000002" class="node">
<title>Node2</title>
<g id="a_Node000002"><a xlink:href="neural_8c.html#a462b490af8481803fd34af3c728f057d" target="_top" xlink:title="Mutates a neural network.">
<polygon fill="white" stroke="#666666" points="218,-37 140,-37 140,-18 218,-18 218,-37"/>
<text text-anchor="middle" x="179" y="-25" font-family="Helvetica,sans-Serif" font-size="10.00">neural_mutate</text>
</a>
</g>
</g>
<!-- Node1&#45;&gt;Node2 -->
<g id="edge1_Node000001_Node000002" class="edge">
<title>Node1&#45;&gt;Node2</title>
<g id="a_edge1_Node000001_Node000002"><a xlink:title=" ">
<path fill="none" stroke="#63b8ff" d="M104.2,-27.5C112.55,-27.5 121.17,-27.5 129.45,-27.5"/>
<polygon fill="#63b8ff" stroke="#63b8ff" points="129.7,-31 139.7,-27.5 129.7,-24 129.7,-31"/>
</a>
</g>
</g>
<!-- Node3 -->
<g id="Node000003" class="node">
<title>Node3</title>
<g id="a_Node000003"><a xlink:href="neural__layer_8h.html#ad3229854f8e7c4c0eed64b22a8cd1cfa" target="_top" xlink:title="Performs layer mutation.">
<polygon fill="white" stroke="#666666" points="327,-56 254,-56 254,-37 327,-37 327,-56"/>
<text text-anchor="middle" x="290.5" y="-44" font-family="Helvetica,sans-Serif" font-size="10.00">layer_mutate</text>
</a>
</g>
</g>
<!-- Node2&#45;&gt;Node3 -->
<g id="edge2_Node000002_Node000003" class="edge">
<title>Node2&#45;&gt;Node3</title>
<g id="a_edge2_Node000002_Node000003"><a xlink:title=" ">
<path fill="none" stroke="#63b8ff" d="M218.3,-34.15C226.63,-35.59 235.53,-37.13 244.1,-38.62"/>
<polygon fill="#63b8ff" stroke="#63b8ff" points="243.53,-42.07 253.98,-40.34 244.72,-35.18 243.53,-42.07"/>
</a>
</g>
</g>
<!-- Node4 -->
<g id="Node000004" class="node">
<title>Node4</title>
<g id="a_Node000004"><a xlink:href="neural__layer_8h.html#a28fed9ac2d12fe1bad08b4540f3f0455" target="_top" xlink:title="Resizes a layer using the previous layer&#39;s inputs.">
<polygon fill="white" stroke="#666666" points="325,-19 256,-19 256,0 325,0 325,-19"/>
<text text-anchor="middle" x="290.5" y="-7" font-family="Helvetica,sans-Serif" font-size="10.00">layer_resize</text>
</a>
</g>
</g>
<!-- Node2&#45;&gt;Node4 -->
<g id="edge3_Node000002_Node000004" class="edge">
<title>Node2&#45;&gt;Node4</title>
<g id="a_edge3_Node000002_Node000004"><a xlink:title=" ">
<path fill="none" stroke="#63b8ff" d="M218.3,-21.2C227.17,-19.75 236.68,-18.18 245.76,-16.69"/>
<polygon fill="#63b8ff" stroke="#63b8ff" points="246.49,-20.12 255.79,-15.04 245.35,-13.21 246.49,-20.12"/>
</a>
</g>
</g>
</g>
</svg>
