<?xml version="1.0" encoding="UTF-8" standalone="no"?>
<!DOCTYPE svg PUBLIC "-//W3C//DTD SVG 1.1//EN"
 "http://www.w3.org/Graphics/SVG/1.1/DTD/svg11.dtd">
<!-- Generated by graphviz version 2.43.0 (0)
 -->
<!-- Title: cond_param_json_import Pages: 1 -->
<svg width="830pt" height="772pt"
 viewBox="0.00 0.00 830.00 771.50" xmlns="http://www.w3.org/2000/svg" xmlns:xlink="http://www.w3.org/1999/xlink">
<g id="graph0" class="graph" transform="scale(1 1) rotate(0) translate(4 767.5)">
<title>cond_param_json_import</title>
<!-- Node1 -->
<g id="Node000001" class="node">
<title>Node1</title>
<g id="a_Node000001"><a xlink:title="Sets the condition parameters from a cJSON object.">
<polygon fill="#999999" stroke="#666666" points="125,-296 0,-296 0,-277 125,-277 125,-296"/>
<text text-anchor="middle" x="62.5" y="-284" font-family="Helvetica,sans-Serif" font-size="10.00">cond_param_json_import</text>
</a>
</g>
</g>
<!-- Node2 -->
<g id="Node000002" class="node">
<title>Node2</title>
<g id="a_Node000002"><a xlink:href="cond__dgp_8c.html#a01e3a34cbdb19ec586dd87d8e0162635" target="_top" xlink:title="Sets the DGP parameters from a cJSON object.">
<polygon fill="white" stroke="#666666" points="290,-608.5 176,-608.5 176,-578.5 290,-578.5 290,-608.5"/>
<text text-anchor="start" x="184" y="-596.5" font-family="Helvetica,sans-Serif" font-size="10.00">cond_dgp_param_json</text>
<text text-anchor="middle" x="233" y="-585.5" font-family="Helvetica,sans-Serif" font-size="10.00">_import</text>
</a>
</g>
</g>
<!-- Node1&#45;&gt;Node2 -->
<g id="edge1_Node000001_Node000002" class="edge">
<title>Node1&#45;&gt;Node2</title>
<g id="a_edge1_Node000001_Node000002"><a xlink:title=" ">
<path fill="none" stroke="#63b8ff" d="M67.34,-296.42C79.34,-327.02 117.96,-422.34 161,-495.5 176.77,-522.32 198.06,-550.9 213.2,-570.23"/>
<polygon fill="#63b8ff" stroke="#63b8ff" points="210.53,-572.5 219.48,-578.17 216.02,-568.16 210.53,-572.5"/>
</a>
</g>
</g>
<!-- Node8 -->
<g id="Node000008" class="node">
<title>Node8</title>
<g id="a_Node000008"><a xlink:href="cond__gp_8c.html#adb86ba03cb054b508cb043981563db80" target="_top" xlink:title="Sets the tree GP parameters from a cJSON object.">
<polygon fill="white" stroke="#666666" points="287.5,-486.5 178.5,-486.5 178.5,-456.5 287.5,-456.5 287.5,-486.5"/>
<text text-anchor="start" x="186.5" y="-474.5" font-family="Helvetica,sans-Serif" font-size="10.00">cond_gp_param_json</text>
<text text-anchor="middle" x="233" y="-463.5" font-family="Helvetica,sans-Serif" font-size="10.00">_import</text>
</a>
</g>
</g>
<!-- Node1&#45;&gt;Node8 -->
<g id="edge7_Node000001_Node000008" class="edge">
<title>Node1&#45;&gt;Node8</title>
<g id="a_edge7_Node000001_Node000008"><a xlink:title=" ">
<path fill="none" stroke="#63b8ff" d="M72.32,-296.19C98.22,-324.62 174.54,-408.42 211.49,-448.98"/>
<polygon fill="#63b8ff" stroke="#63b8ff" points="209.01,-451.46 218.33,-456.49 214.19,-446.74 209.01,-451.46"/>
</a>
</g>
</g>
<!-- Node17 -->
<g id="Node000017" class="node">
<title>Node17</title>
<g id="a_Node000017"><a xlink:href="cond__neural_8c.html#af20411cd96e7b9fd459a69a4da6a3d7c" target="_top" xlink:title="Sets the neural network parameters from a cJSON object.">
<polygon fill="white" stroke="#666666" points="295.5,-301.5 170.5,-301.5 170.5,-271.5 295.5,-271.5 295.5,-301.5"/>
<text text-anchor="start" x="178.5" y="-289.5" font-family="Helvetica,sans-Serif" font-size="10.00">cond_neural_param_json</text>
<text text-anchor="middle" x="233" y="-278.5" font-family="Helvetica,sans-Serif" font-size="10.00">_import</text>
</a>
</g>
</g>
<!-- Node1&#45;&gt;Node17 -->
<g id="edge16_Node000001_Node000017" class="edge">
<title>Node1&#45;&gt;Node17</title>
<g id="a_edge16_Node000001_Node000017"><a xlink:title=" ">
<path fill="none" stroke="#63b8ff" d="M125.29,-286.5C136.62,-286.5 148.54,-286.5 160.13,-286.5"/>
<polygon fill="#63b8ff" stroke="#63b8ff" points="160.22,-290 170.22,-286.5 160.22,-283 160.22,-290"/>
</a>
</g>
</g>
<!-- Node31 -->
<g id="Node000031" class="node">
<title>Node31</title>
<g id="a_Node000031"><a xlink:href="condition_8c.html#a3183ca49067fec06ce5a06acd298bef9" target="_top" xlink:title="Sets the center&#45;spread parameters from a cJSON object.">
<polygon fill="white" stroke="#666666" points="305,-167 161,-167 161,-148 305,-148 305,-167"/>
<text text-anchor="middle" x="233" y="-155" font-family="Helvetica,sans-Serif" font-size="10.00">cond_param_json_import_csr</text>
</a>
</g>
</g>
<!-- Node1&#45;&gt;Node31 -->
<g id="edge30_Node000001_Node000031" class="edge">
<title>Node1&#45;&gt;Node31</title>
<g id="a_edge30_Node000001_Node000031"><a xlink:title=" ">
<path fill="none" stroke="#63b8ff" d="M76.16,-276.8C104.95,-254.77 175.54,-200.72 210.98,-173.59"/>
<polygon fill="#63b8ff" stroke="#63b8ff" points="213.38,-176.17 219.19,-167.31 209.12,-170.61 213.38,-176.17"/>
</a>
</g>
</g>
<!-- Node36 -->
<g id="Node000036" class="node">
<title>Node36</title>
<g id="a_Node000036"><a xlink:href="cond__ternary_8c.html#aa77071d571c2ab9b4c318e73efb77ca1" target="_top" xlink:title="Sets the ternary parameters from a cJSON object.">
<polygon fill="white" stroke="#666666" points="285.5,-61.5 180.5,-61.5 180.5,-31.5 285.5,-31.5 285.5,-61.5"/>
<text text-anchor="start" x="188.5" y="-49.5" font-family="Helvetica,sans-Serif" font-size="10.00">cond_ternary_param</text>
<text text-anchor="middle" x="233" y="-38.5" font-family="Helvetica,sans-Serif" font-size="10.00">_json_import</text>
</a>
</g>
</g>
<!-- Node1&#45;&gt;Node36 -->
<g id="edge35_Node000001_Node000036" class="edge">
<title>Node1&#45;&gt;Node36</title>
<g id="a_edge35_Node000001_Node000036"><a xlink:title=" ">
<path fill="none" stroke="#63b8ff" d="M69.67,-276.72C84.76,-252.9 124.94,-190.14 161,-139.5 178.27,-115.25 199.04,-88.29 213.63,-69.66"/>
<polygon fill="#63b8ff" stroke="#63b8ff" points="216.44,-71.76 219.87,-61.73 210.94,-67.43 216.44,-71.76"/>
</a>
</g>
</g>
<!-- Node3 -->
<g id="Node000003" class="node">
<title>Node3</title>
<g id="a_Node000003"><a xlink:href="dgp_8c.html#a249d71f924000750fb224b1a992d0427" target="_top" xlink:title="Sets the DGP graph parameters from a cJSON object.">
<polygon fill="white" stroke="#666666" points="473,-678 353,-678 353,-659 473,-659 473,-678"/>
<text text-anchor="middle" x="413" y="-666" font-family="Helvetica,sans-Serif" font-size="10.00">graph_args_json_import</text>
</a>
</g>
</g>
<!-- Node2&#45;&gt;Node3 -->
<g id="edge2_Node000002_Node000003" class="edge">
<title>Node2&#45;&gt;Node3</title>
<g id="a_edge2_Node000002_Node000003"><a xlink:title=" ">
<path fill="none" stroke="#63b8ff" d="M270.02,-608.68C302.2,-622.23 348.89,-641.91 379.84,-654.95"/>
<polygon fill="#63b8ff" stroke="#63b8ff" points="378.72,-658.27 389.29,-658.93 381.43,-651.82 378.72,-658.27"/>
</a>
</g>
</g>
<!-- Node4 -->
<g id="Node000004" class="node">
<title>Node4</title>
<g id="a_Node000004"><a xlink:href="dgp_8c.html#aed1478bc3f88ad1f133a130dca8609d6" target="_top" xlink:title=" ">
<polygon fill="white" stroke="#666666" points="655,-763.5 530,-763.5 530,-733.5 655,-733.5 655,-763.5"/>
<text text-anchor="start" x="538" y="-751.5" font-family="Helvetica,sans-Serif" font-size="10.00">graph_param_set_evolve</text>
<text text-anchor="middle" x="592.5" y="-740.5" font-family="Helvetica,sans-Serif" font-size="10.00">_cycles</text>
</a>
</g>
</g>
<!-- Node3&#45;&gt;Node4 -->
<g id="edge3_Node000003_Node000004" class="edge">
<title>Node3&#45;&gt;Node4</title>
<g id="a_edge3_Node000003_Node000004"><a xlink:title=" ">
<path fill="none" stroke="#63b8ff" d="M430.3,-678.04C450.95,-689.89 487.86,-710.29 521,-724.5 525.37,-726.38 529.95,-728.21 534.57,-729.97"/>
<polygon fill="#63b8ff" stroke="#63b8ff" points="533.5,-733.31 544.1,-733.48 535.92,-726.74 533.5,-733.31"/>
</a>
</g>
</g>
<!-- Node5 -->
<g id="Node000005" class="node">
<title>Node5</title>
<g id="a_Node000005"><a xlink:href="dgp_8c.html#ad00d04d5a1aa9f62c635775765099ca7" target="_top" xlink:title=" ">
<polygon fill="white" stroke="#666666" points="655.5,-715 529.5,-715 529.5,-696 655.5,-696 655.5,-715"/>
<text text-anchor="middle" x="592.5" y="-703" font-family="Helvetica,sans-Serif" font-size="10.00">graph_param_set_max_k</text>
</a>
</g>
</g>
<!-- Node3&#45;&gt;Node5 -->
<g id="edge4_Node000003_Node000005" class="edge">
<title>Node3&#45;&gt;Node5</title>
<g id="a_edge4_Node000003_Node000005"><a xlink:title=" ">
<path fill="none" stroke="#63b8ff" d="M459.71,-678.03C482.91,-682.86 511.29,-688.78 535.77,-693.88"/>
<polygon fill="#63b8ff" stroke="#63b8ff" points="535.13,-697.33 545.64,-695.94 536.56,-690.47 535.13,-697.33"/>
</a>
</g>
</g>
<!-- Node6 -->
<g id="Node000006" class="node">
<title>Node6</title>
<g id="a_Node000006"><a xlink:href="dgp_8c.html#a2032837921a137ebe4c7704c47fd420f" target="_top" xlink:title=" ">
<polygon fill="white" stroke="#666666" points="654.5,-678 530.5,-678 530.5,-659 654.5,-659 654.5,-678"/>
<text text-anchor="middle" x="592.5" y="-666" font-family="Helvetica,sans-Serif" font-size="10.00">graph_param_set_max_t</text>
</a>
</g>
</g>
<!-- Node3&#45;&gt;Node6 -->
<g id="edge5_Node000003_Node000006" class="edge">
<title>Node3&#45;&gt;Node6</title>
<g id="a_edge5_Node000003_Node000006"><a xlink:title=" ">
<path fill="none" stroke="#63b8ff" d="M473.1,-668.5C488.16,-668.5 504.5,-668.5 520.1,-668.5"/>
<polygon fill="#63b8ff" stroke="#63b8ff" points="520.22,-672 530.22,-668.5 520.22,-665 520.22,-672"/>
</a>
</g>
</g>
<!-- Node7 -->
<g id="Node000007" class="node">
<title>Node7</title>
<g id="a_Node000007"><a xlink:href="dgp_8c.html#a5fae5c843dd7b47d4a7a136122efd24b" target="_top" xlink:title=" ">
<polygon fill="white" stroke="#666666" points="643.5,-641 541.5,-641 541.5,-622 643.5,-622 643.5,-641"/>
<text text-anchor="middle" x="592.5" y="-629" font-family="Helvetica,sans-Serif" font-size="10.00">graph_param_set_n</text>
</a>
</g>
</g>
<!-- Node3&#45;&gt;Node7 -->
<g id="edge6_Node000003_Node000007" class="edge">
<title>Node3&#45;&gt;Node7</title>
<g id="a_edge6_Node000003_Node000007"><a xlink:title=" ">
<path fill="none" stroke="#63b8ff" d="M459.71,-658.97C482.91,-654.14 511.29,-648.22 535.77,-643.12"/>
<polygon fill="#63b8ff" stroke="#63b8ff" points="536.56,-646.53 545.64,-641.06 535.13,-639.67 536.56,-646.53"/>
</a>
</g>
</g>
<!-- Node9 -->
<g id="Node000009" class="node">
<title>Node9</title>
<g id="a_Node000009"><a xlink:href="gp_8c.html#ab1a2a5d4c1921eeb8d76a3fae68b2d13" target="_top" xlink:title="Builds global constants used by GP trees.">
<polygon fill="white" stroke="#666666" points="474.5,-561 351.5,-561 351.5,-542 474.5,-542 474.5,-561"/>
<text text-anchor="middle" x="413" y="-549" font-family="Helvetica,sans-Serif" font-size="10.00">tree_args_init_constants</text>
</a>
</g>
</g>
<!-- Node8&#45;&gt;Node9 -->
<g id="edge8_Node000008_Node000009" class="edge">
<title>Node8&#45;&gt;Node9</title>
<g id="a_edge8_Node000008_Node000009"><a xlink:title=" ">
<path fill="none" stroke="#63b8ff" d="M267.48,-486.55C300.25,-501.27 349.72,-523.51 381.45,-537.77"/>
<polygon fill="#63b8ff" stroke="#63b8ff" points="380.13,-541.01 390.68,-541.92 383,-534.63 380.13,-541.01"/>
</a>
</g>
</g>
<!-- Node11 -->
<g id="Node000011" class="node">
<title>Node11</title>
<g id="a_Node000011"><a xlink:href="gp_8c.html#a0b1101a475d79681212de4554301fa42" target="_top" xlink:title="Sets the GP tree parameters from a cJSON object.">
<polygon fill="white" stroke="#666666" points="469.5,-481 356.5,-481 356.5,-462 469.5,-462 469.5,-481"/>
<text text-anchor="middle" x="413" y="-469" font-family="Helvetica,sans-Serif" font-size="10.00">tree_args_json_import</text>
</a>
</g>
</g>
<!-- Node8&#45;&gt;Node11 -->
<g id="edge10_Node000008_Node000011" class="edge">
<title>Node8&#45;&gt;Node11</title>
<g id="a_edge10_Node000008_Node000011"><a xlink:title=" ">
<path fill="none" stroke="#63b8ff" d="M287.89,-471.5C306.28,-471.5 327.05,-471.5 346.26,-471.5"/>
<polygon fill="#63b8ff" stroke="#63b8ff" points="346.45,-475 356.45,-471.5 346.45,-468 346.45,-475"/>
</a>
</g>
</g>
<!-- Node10 -->
<g id="Node000010" class="node">
<title>Node10</title>
<g id="a_Node000010"><a xlink:href="utils_8c.html#a972761ba8f47a6c3e7396a7c685158fc" target="_top" xlink:title="Returns a uniform random float [min,max].">
<polygon fill="white" stroke="#666666" points="629,-604 556,-604 556,-585 629,-585 629,-604"/>
<text text-anchor="middle" x="592.5" y="-592" font-family="Helvetica,sans-Serif" font-size="10.00">rand_uniform</text>
</a>
</g>
</g>
<!-- Node9&#45;&gt;Node10 -->
<g id="edge9_Node000009_Node000010" class="edge">
<title>Node9&#45;&gt;Node10</title>
<g id="a_edge9_Node000009_Node000010"><a xlink:title=" ">
<path fill="none" stroke="#63b8ff" d="M453.39,-561.04C480.8,-567.68 517.42,-576.55 546.06,-583.49"/>
<polygon fill="#63b8ff" stroke="#63b8ff" points="545.29,-586.91 555.83,-585.86 546.94,-580.1 545.29,-586.91"/>
</a>
</g>
</g>
<!-- Node12 -->
<g id="Node000012" class="node">
<title>Node12</title>
<g id="a_Node000012"><a xlink:href="gp_8c.html#ab912e7b472f6fdc6bf9a7565bac8f063" target="_top" xlink:title=" ">
<polygon fill="white" stroke="#666666" points="643.5,-566.5 541.5,-566.5 541.5,-536.5 643.5,-536.5 643.5,-566.5"/>
<text text-anchor="start" x="549.5" y="-554.5" font-family="Helvetica,sans-Serif" font-size="10.00">tree_param_set_init</text>
<text text-anchor="middle" x="592.5" y="-543.5" font-family="Helvetica,sans-Serif" font-size="10.00">_depth</text>
</a>
</g>
</g>
<!-- Node11&#45;&gt;Node12 -->
<g id="edge11_Node000011_Node000012" class="edge">
<title>Node11&#45;&gt;Node12</title>
<g id="a_edge11_Node000011_Node000012"><a xlink:title=" ">
<path fill="none" stroke="#63b8ff" d="M430.3,-481.04C450.95,-492.89 487.86,-513.29 521,-527.5 525.37,-529.38 529.95,-531.21 534.57,-532.97"/>
<polygon fill="#63b8ff" stroke="#63b8ff" points="533.5,-536.31 544.1,-536.48 535.92,-529.74 533.5,-536.31"/>
</a>
</g>
</g>
<!-- Node13 -->
<g id="Node000013" class="node">
<title>Node13</title>
<g id="a_Node000013"><a xlink:href="gp_8c.html#a7ce902011f75d08acceed528c688a3d0" target="_top" xlink:title=" ">
<polygon fill="white" stroke="#666666" points="646.5,-518 538.5,-518 538.5,-499 646.5,-499 646.5,-518"/>
<text text-anchor="middle" x="592.5" y="-506" font-family="Helvetica,sans-Serif" font-size="10.00">tree_param_set_max</text>
</a>
</g>
</g>
<!-- Node11&#45;&gt;Node13 -->
<g id="edge12_Node000011_Node000013" class="edge">
<title>Node11&#45;&gt;Node13</title>
<g id="a_edge12_Node000011_Node000013"><a xlink:title=" ">
<path fill="none" stroke="#63b8ff" d="M459.71,-481.03C482.91,-485.86 511.29,-491.78 535.77,-496.88"/>
<polygon fill="#63b8ff" stroke="#63b8ff" points="535.13,-500.33 545.64,-498.94 536.56,-493.47 535.13,-500.33"/>
</a>
</g>
</g>
<!-- Node14 -->
<g id="Node000014" class="node">
<title>Node14</title>
<g id="a_Node000014"><a xlink:href="gp_8c.html#a31aa4c7ee72dd3c66fa9fb093d3d8519" target="_top" xlink:title=" ">
<polygon fill="white" stroke="#666666" points="655.5,-481 529.5,-481 529.5,-462 655.5,-462 655.5,-481"/>
<text text-anchor="middle" x="592.5" y="-469" font-family="Helvetica,sans-Serif" font-size="10.00">tree_param_set_max_len</text>
</a>
</g>
</g>
<!-- Node11&#45;&gt;Node14 -->
<g id="edge13_Node000011_Node000014" class="edge">
<title>Node11&#45;&gt;Node14</title>
<g id="a_edge13_Node000011_Node000014"><a xlink:title=" ">
<path fill="none" stroke="#63b8ff" d="M469.68,-471.5C485.34,-471.5 502.6,-471.5 519.08,-471.5"/>
<polygon fill="#63b8ff" stroke="#63b8ff" points="519.23,-475 529.23,-471.5 519.23,-468 519.23,-475"/>
</a>
</g>
</g>
<!-- Node15 -->
<g id="Node000015" class="node">
<title>Node15</title>
<g id="a_Node000015"><a xlink:href="gp_8c.html#ace8b76bf8fcb4b48723dd94efae893c9" target="_top" xlink:title=" ">
<polygon fill="white" stroke="#666666" points="645,-444 540,-444 540,-425 645,-425 645,-444"/>
<text text-anchor="middle" x="592.5" y="-432" font-family="Helvetica,sans-Serif" font-size="10.00">tree_param_set_min</text>
</a>
</g>
</g>
<!-- Node11&#45;&gt;Node15 -->
<g id="edge14_Node000011_Node000015" class="edge">
<title>Node11&#45;&gt;Node15</title>
<g id="a_edge14_Node000011_Node000015"><a xlink:title=" ">
<path fill="none" stroke="#63b8ff" d="M459.71,-461.97C482.91,-457.14 511.29,-451.22 535.77,-446.12"/>
<polygon fill="#63b8ff" stroke="#63b8ff" points="536.56,-449.53 545.64,-444.06 535.13,-442.67 536.56,-449.53"/>
</a>
</g>
</g>
<!-- Node16 -->
<g id="Node000016" class="node">
<title>Node16</title>
<g id="a_Node000016"><a xlink:href="gp_8c.html#a9a12da4c3d6254d01924a949478bcc01" target="_top" xlink:title=" ">
<polygon fill="white" stroke="#666666" points="664,-407 521,-407 521,-388 664,-388 664,-407"/>
<text text-anchor="middle" x="592.5" y="-395" font-family="Helvetica,sans-Serif" font-size="10.00">tree_param_set_n_constants</text>
</a>
</g>
</g>
<!-- Node11&#45;&gt;Node16 -->
<g id="edge15_Node000011_Node000016" class="edge">
<title>Node11&#45;&gt;Node16</title>
<g id="a_edge15_Node000011_Node000016"><a xlink:title=" ">
<path fill="none" stroke="#63b8ff" d="M430.18,-461.81C450.71,-449.83 487.49,-429.46 521,-416.5 527.28,-414.07 533.98,-411.84 540.66,-409.81"/>
<polygon fill="#63b8ff" stroke="#63b8ff" points="541.75,-413.14 550.39,-407.01 539.81,-406.42 541.75,-413.14"/>
</a>
</g>
</g>
<!-- Node18 -->
<g id="Node000018" class="node">
<title>Node18</title>
<g id="a_Node000018"><a xlink:href="neural__layer__args_8c.html#a477d2c5cf9da9413c6dba66b5d7f7aff" target="_top" xlink:title="Frees memory used by a list of layer parameters and points to NULL.">
<polygon fill="white" stroke="#666666" points="454.5,-352 371.5,-352 371.5,-333 454.5,-333 454.5,-352"/>
<text text-anchor="middle" x="413" y="-340" font-family="Helvetica,sans-Serif" font-size="10.00">layer_args_free</text>
</a>
</g>
</g>
<!-- Node17&#45;&gt;Node18 -->
<g id="edge17_Node000017_Node000018" class="edge">
<title>Node17&#45;&gt;Node18</title>
<g id="a_edge17_Node000017_Node000018"><a xlink:title=" ">
<path fill="none" stroke="#63b8ff" d="M273.6,-301.55C293.65,-308.92 318.46,-317.66 341,-324.5 347.62,-326.51 354.64,-328.48 361.58,-330.33"/>
<polygon fill="#63b8ff" stroke="#63b8ff" points="361.08,-333.82 371.64,-332.96 362.85,-327.05 361.08,-333.82"/>
</a>
</g>
</g>
<!-- Node19 -->
<g id="Node000019" class="node">
<title>Node19</title>
<g id="a_Node000019"><a xlink:href="neural__layer__args_8c.html#a3b06e82bed7fc9a8915d6187ce08d33e" target="_top" xlink:title="Sets layer parameters to default values.">
<polygon fill="white" stroke="#666666" points="453,-315 373,-315 373,-296 453,-296 453,-315"/>
<text text-anchor="middle" x="413" y="-303" font-family="Helvetica,sans-Serif" font-size="10.00">layer_args_init</text>
</a>
</g>
</g>
<!-- Node17&#45;&gt;Node19 -->
<g id="edge18_Node000017_Node000019" class="edge">
<title>Node17&#45;&gt;Node19</title>
<g id="a_edge18_Node000017_Node000019"><a xlink:title=" ">
<path fill="none" stroke="#63b8ff" d="M295.76,-293.09C317.66,-295.43 342,-298.03 362.73,-300.24"/>
<polygon fill="#63b8ff" stroke="#63b8ff" points="362.58,-303.74 372.89,-301.33 363.32,-296.78 362.58,-303.74"/>
</a>
</g>
</g>
<!-- Node20 -->
<g id="Node000020" class="node">
<title>Node20</title>
<g id="a_Node000020"><a xlink:href="neural__layer__args_8c.html#aa75a852a1179d08e50341fc45ebc7435" target="_top" xlink:title="Sets the layer parameters from a cJSON object.">
<polygon fill="white" stroke="#666666" points="471.5,-278 354.5,-278 354.5,-259 471.5,-259 471.5,-278"/>
<text text-anchor="middle" x="413" y="-266" font-family="Helvetica,sans-Serif" font-size="10.00">layer_args_json_import</text>
</a>
</g>
</g>
<!-- Node17&#45;&gt;Node20 -->
<g id="edge19_Node000017_Node000020" class="edge">
<title>Node17&#45;&gt;Node20</title>
<g id="a_edge19_Node000017_Node000020"><a xlink:title=" ">
<path fill="none" stroke="#63b8ff" d="M295.76,-280.25C311.32,-278.68 328.12,-276.98 343.98,-275.38"/>
<polygon fill="#63b8ff" stroke="#63b8ff" points="344.64,-278.83 354.24,-274.34 343.94,-271.86 344.64,-278.83"/>
</a>
</g>
</g>
<!-- Node28 -->
<g id="Node000028" class="node">
<title>Node28</title>
<g id="a_Node000028"><a xlink:href="neural__layer__args_8c.html#a492de2de029ff6124f8fe466ad6b0d80" target="_top" xlink:title="Checks network layer arguments are valid.">
<polygon fill="white" stroke="#666666" points="463.5,-241 362.5,-241 362.5,-222 463.5,-222 463.5,-241"/>
<text text-anchor="middle" x="413" y="-229" font-family="Helvetica,sans-Serif" font-size="10.00">layer_args_validate</text>
</a>
</g>
</g>
<!-- Node17&#45;&gt;Node28 -->
<g id="edge27_Node000017_Node000028" class="edge">
<title>Node17&#45;&gt;Node28</title>
<g id="a_edge27_Node000017_Node000028"><a xlink:title=" ">
<path fill="none" stroke="#63b8ff" d="M276.76,-271.43C296.26,-264.73 319.7,-256.93 341,-250.5 348.64,-248.19 356.79,-245.88 364.75,-243.7"/>
<polygon fill="#63b8ff" stroke="#63b8ff" points="365.92,-247.01 374.66,-241.02 364.09,-240.25 365.92,-247.01"/>
</a>
</g>
</g>
<!-- Node21 -->
<g id="Node000021" class="node">
<title>Node21</title>
<g id="a_Node000021"><a xlink:href="neural__layer__args_8c.html#af7388e196c27ab190bb7bb6848a7a456" target="_top" xlink:title="Sets the layer activation from a cJSON object.">
<polygon fill="white" stroke="#666666" points="651,-369.5 534,-369.5 534,-339.5 651,-339.5 651,-369.5"/>
<text text-anchor="start" x="542" y="-357.5" font-family="Helvetica,sans-Serif" font-size="10.00">layer_args_json_import</text>
<text text-anchor="middle" x="592.5" y="-346.5" font-family="Helvetica,sans-Serif" font-size="10.00">_activation</text>
</a>
</g>
</g>
<!-- Node20&#45;&gt;Node21 -->
<g id="edge20_Node000020_Node000021" class="edge">
<title>Node20&#45;&gt;Node21</title>
<g id="a_edge20_Node000020_Node000021"><a xlink:title=" ">
<path fill="none" stroke="#63b8ff" d="M464.89,-278C471.95,-280.48 478.87,-283.59 485,-287.5 506.02,-300.9 500.44,-316.41 521,-330.5 523.15,-331.97 525.39,-333.36 527.7,-334.67"/>
<polygon fill="#63b8ff" stroke="#63b8ff" points="526.41,-337.94 536.91,-339.33 529.58,-331.69 526.41,-337.94"/>
</a>
</g>
</g>
<!-- Node23 -->
<g id="Node000023" class="node">
<title>Node23</title>
<g id="a_Node000023"><a xlink:href="neural__layer__args_8c.html#a511a92070d5a53700d9650c1705b96ab" target="_top" xlink:title="Sets the layer evolutionary parameters from a cJSON object.">
<polygon fill="white" stroke="#666666" points="661.5,-321 523.5,-321 523.5,-302 661.5,-302 661.5,-321"/>
<text text-anchor="middle" x="592.5" y="-309" font-family="Helvetica,sans-Serif" font-size="10.00">layer_args_json_import_evo</text>
</a>
</g>
</g>
<!-- Node20&#45;&gt;Node23 -->
<g id="edge22_Node000020_Node000023" class="edge">
<title>Node20&#45;&gt;Node23</title>
<g id="a_edge22_Node000020_Node000023"><a xlink:title=" ">
<path fill="none" stroke="#63b8ff" d="M453.39,-278.04C479.59,-284.39 514.2,-292.77 542.22,-299.56"/>
<polygon fill="#63b8ff" stroke="#63b8ff" points="541.67,-303.03 552.22,-301.98 543.32,-296.23 541.67,-303.03"/>
</a>
</g>
</g>
<!-- Node24 -->
<g id="Node000024" class="node">
<title>Node24</title>
<g id="a_Node000024"><a xlink:href="neural__layer__args_8c.html#a22a018ccf2e332aafeaa450968b96ed1" target="_top" xlink:title="Sets the layer input parameters from a cJSON object.">
<polygon fill="white" stroke="#666666" points="651,-283.5 534,-283.5 534,-253.5 651,-253.5 651,-283.5"/>
<text text-anchor="start" x="542" y="-271.5" font-family="Helvetica,sans-Serif" font-size="10.00">layer_args_json_import</text>
<text text-anchor="middle" x="592.5" y="-260.5" font-family="Helvetica,sans-Serif" font-size="10.00">_inputs</text>
</a>
</g>
</g>
<!-- Node20&#45;&gt;Node24 -->
<g id="edge23_Node000020_Node000024" class="edge">
<title>Node20&#45;&gt;Node24</title>
<g id="a_edge23_Node000020_Node000024"><a xlink:title=" ">
<path fill="none" stroke="#63b8ff" d="M471.63,-268.5C488.14,-268.5 506.3,-268.5 523.39,-268.5"/>
<polygon fill="#63b8ff" stroke="#63b8ff" points="523.86,-272 533.86,-268.5 523.86,-265 523.86,-272"/>
</a>
</g>
</g>
<!-- Node25 -->
<g id="Node000025" class="node">
<title>Node25</title>
<g id="a_Node000025"><a xlink:href="neural__layer__args_8c.html#ab5d03fe4bb8549b5321c9bda9c514161" target="_top" xlink:title="Sets the layer scaling parameters from a cJSON object.">
<polygon fill="white" stroke="#666666" points="651,-235.5 534,-235.5 534,-205.5 651,-205.5 651,-235.5"/>
<text text-anchor="start" x="542" y="-223.5" font-family="Helvetica,sans-Serif" font-size="10.00">layer_args_json_import</text>
<text text-anchor="middle" x="592.5" y="-212.5" font-family="Helvetica,sans-Serif" font-size="10.00">_scale</text>
</a>
</g>
</g>
<!-- Node20&#45;&gt;Node25 -->
<g id="edge24_Node000020_Node000025" class="edge">
<title>Node20&#45;&gt;Node25</title>
<g id="a_edge24_Node000020_Node000025"><a xlink:title=" ">
<path fill="none" stroke="#63b8ff" d="M452.37,-258.97C462.96,-256.29 474.44,-253.33 485,-250.5 499.32,-246.67 514.69,-242.42 529.17,-238.35"/>
<polygon fill="#63b8ff" stroke="#63b8ff" points="530.36,-241.66 539.03,-235.58 528.46,-234.92 530.36,-241.66"/>
</a>
</g>
</g>
<!-- Node26 -->
<g id="Node000026" class="node">
<title>Node26</title>
<g id="a_Node000026"><a xlink:href="neural__layer__args_8c.html#a9a07261fd04326ccbae66c152f8f6de2" target="_top" xlink:title="Sets the layer SGD parameters from a cJSON object.">
<polygon fill="white" stroke="#666666" points="661.5,-187 523.5,-187 523.5,-168 661.5,-168 661.5,-187"/>
<text text-anchor="middle" x="592.5" y="-175" font-family="Helvetica,sans-Serif" font-size="10.00">layer_args_json_import_sgd</text>
</a>
</g>
</g>
<!-- Node20&#45;&gt;Node26 -->
<g id="edge25_Node000020_Node000026" class="edge">
<title>Node20&#45;&gt;Node26</title>
<g id="a_edge25_Node000020_Node000026"><a xlink:title=" ">
<path fill="none" stroke="#63b8ff" d="M468.94,-259C474.64,-256.74 480.12,-253.95 485,-250.5 508.55,-233.85 497.57,-213.33 521,-196.5 523.68,-194.58 526.54,-192.85 529.52,-191.29"/>
<polygon fill="#63b8ff" stroke="#63b8ff" points="531.06,-194.44 538.74,-187.14 528.19,-188.05 531.06,-194.44"/>
</a>
</g>
</g>
<!-- Node27 -->
<g id="Node000027" class="node">
<title>Node27</title>
<g id="a_Node000027"><a xlink:href="neural__layer_8c.html#a5a8bc3e92587742c0bd1ee27780b1128" target="_top" xlink:title="Returns the integer representation of a layer type given a name.">
<polygon fill="white" stroke="#666666" points="639,-150 546,-150 546,-131 639,-131 639,-150"/>
<text text-anchor="middle" x="592.5" y="-138" font-family="Helvetica,sans-Serif" font-size="10.00">layer_type_as_int</text>
</a>
</g>
</g>
<!-- Node20&#45;&gt;Node27 -->
<g id="edge26_Node000020_Node000027" class="edge">
<title>Node20&#45;&gt;Node27</title>
<g id="a_edge26_Node000020_Node000027"><a xlink:title=" ">
<path fill="none" stroke="#63b8ff" d="M471.83,-259.02C476.6,-256.74 481.08,-253.94 485,-250.5 517.67,-221.78 488.55,-188.46 521,-159.5 525.48,-155.5 530.72,-152.33 536.29,-149.82"/>
<polygon fill="#63b8ff" stroke="#63b8ff" points="537.77,-153 545.88,-146.18 535.29,-146.45 537.77,-153"/>
</a>
</g>
</g>
<!-- Node22 -->
<g id="Node000022" class="node">
<title>Node22</title>
<g id="a_Node000022"><a xlink:href="neural__activations_8c.html#aaba6ef52952c92bb15f6231b6b42fa73" target="_top" xlink:title="Returns the integer representation of an activation function.">
<polygon fill="white" stroke="#666666" points="822,-364 700,-364 700,-345 822,-345 822,-364"/>
<text text-anchor="middle" x="761" y="-352" font-family="Helvetica,sans-Serif" font-size="10.00">neural_activation_as_int</text>
</a>
</g>
</g>
<!-- Node21&#45;&gt;Node22 -->
<g id="edge21_Node000021_Node000022" class="edge">
<title>Node21&#45;&gt;Node22</title>
<g id="a_edge21_Node000021_Node000022"><a xlink:title=" ">
<path fill="none" stroke="#63b8ff" d="M651.27,-354.5C663.64,-354.5 676.85,-354.5 689.64,-354.5"/>
<polygon fill="#63b8ff" stroke="#63b8ff" points="689.79,-358 699.79,-354.5 689.79,-351 689.79,-358"/>
</a>
</g>
</g>
<!-- Node29 -->
<g id="Node000029" class="node">
<title>Node29</title>
<g id="a_Node000029"><a xlink:href="neural__layer__args_8c.html#a8e1a02c60d1cbe0baba8f2c6ff0b5266" target="_top" xlink:title="Checks input layer arguments are valid.">
<polygon fill="white" stroke="#666666" points="643,-112.5 542,-112.5 542,-82.5 643,-82.5 643,-112.5"/>
<text text-anchor="start" x="550" y="-100.5" font-family="Helvetica,sans-Serif" font-size="10.00">layer_args_validate</text>
<text text-anchor="middle" x="592.5" y="-89.5" font-family="Helvetica,sans-Serif" font-size="10.00">_inputs</text>
</a>
</g>
</g>
<!-- Node28&#45;&gt;Node29 -->
<g id="edge28_Node000028_Node000029" class="edge">
<title>Node28&#45;&gt;Node29</title>
<g id="a_edge28_Node000028_Node000029"><a xlink:title=" ">
<path fill="none" stroke="#63b8ff" d="M463.59,-225.38C471.39,-222.69 478.89,-218.87 485,-213.5 517.67,-184.78 489.7,-152.7 521,-122.5 524.5,-119.13 528.48,-116.21 532.72,-113.68"/>
<polygon fill="#63b8ff" stroke="#63b8ff" points="534.47,-116.72 541.75,-109.02 531.26,-110.5 534.47,-116.72"/>
</a>
</g>
</g>
<!-- Node30 -->
<g id="Node000030" class="node">
<title>Node30</title>
<g id="a_Node000030"><a xlink:href="neural__layer_8c.html#ad1b7188119d0d96791ee0d87c105896a" target="_top" xlink:title="Returns a whether a layer type expects images as input.">
<polygon fill="white" stroke="#666666" points="819,-107 703,-107 703,-88 819,-88 819,-107"/>
<text text-anchor="middle" x="761" y="-95" font-family="Helvetica,sans-Serif" font-size="10.00">layer_receives_images</text>
</a>
</g>
</g>
<!-- Node29&#45;&gt;Node30 -->
<g id="edge29_Node000029_Node000030" class="edge">
<title>Node29&#45;&gt;Node30</title>
<g id="a_edge29_Node000029_Node000030"><a xlink:title=" ">
<path fill="none" stroke="#63b8ff" d="M643,-97.5C658.56,-97.5 676.02,-97.5 692.6,-97.5"/>
<polygon fill="#63b8ff" stroke="#63b8ff" points="692.78,-101 702.78,-97.5 692.78,-94 692.78,-101"/>
</a>
</g>
</g>
<!-- Node32 -->
<g id="Node000032" class="node">
<title>Node32</title>
<g id="a_Node000032"><a xlink:href="condition_8c.html#afba6bf151b5efdac267a5acea6ec6f98" target="_top" xlink:title=" ">
<polygon fill="white" stroke="#666666" points="466.5,-204 359.5,-204 359.5,-185 466.5,-185 466.5,-204"/>
<text text-anchor="middle" x="413" y="-192" font-family="Helvetica,sans-Serif" font-size="10.00">cond_param_set_eta</text>
</a>
</g>
</g>
<!-- Node31&#45;&gt;Node32 -->
<g id="edge31_Node000031_Node000032" class="edge">
<title>Node31&#45;&gt;Node32</title>
<g id="a_edge31_Node000031_Node000032"><a xlink:title=" ">
<path fill="none" stroke="#63b8ff" d="M279.84,-167.03C303.11,-171.86 331.57,-177.78 356.11,-182.88"/>
<polygon fill="#63b8ff" stroke="#63b8ff" points="355.5,-186.33 366.01,-184.94 356.93,-179.48 355.5,-186.33"/>
</a>
</g>
</g>
<!-- Node33 -->
<g id="Node000033" class="node">
<title>Node33</title>
<g id="a_Node000033"><a xlink:href="condition_8c.html#a96145ee4b72dff5896f1d441501f788b" target="_top" xlink:title=" ">
<polygon fill="white" stroke="#666666" points="469.5,-167 356.5,-167 356.5,-148 469.5,-148 469.5,-167"/>
<text text-anchor="middle" x="413" y="-155" font-family="Helvetica,sans-Serif" font-size="10.00">cond_param_set_max</text>
</a>
</g>
</g>
<!-- Node31&#45;&gt;Node33 -->
<g id="edge32_Node000031_Node000033" class="edge">
<title>Node31&#45;&gt;Node33</title>
<g id="a_edge32_Node000031_Node000033"><a xlink:title=" ">
<path fill="none" stroke="#63b8ff" d="M305.12,-157.5C318.7,-157.5 332.86,-157.5 346.26,-157.5"/>
<polygon fill="#63b8ff" stroke="#63b8ff" points="346.34,-161 356.34,-157.5 346.34,-154 346.34,-161"/>
</a>
</g>
</g>
<!-- Node34 -->
<g id="Node000034" class="node">
<title>Node34</title>
<g id="a_Node000034"><a xlink:href="condition_8c.html#a76bc79f6e7f0ad3c034ef9c66b987dfd" target="_top" xlink:title=" ">
<polygon fill="white" stroke="#666666" points="468,-130 358,-130 358,-111 468,-111 468,-130"/>
<text text-anchor="middle" x="413" y="-118" font-family="Helvetica,sans-Serif" font-size="10.00">cond_param_set_min</text>
</a>
</g>
</g>
<!-- Node31&#45;&gt;Node34 -->
<g id="edge33_Node000031_Node000034" class="edge">
<title>Node31&#45;&gt;Node34</title>
<g id="a_edge33_Node000031_Node000034"><a xlink:title=" ">
<path fill="none" stroke="#63b8ff" d="M279.84,-147.97C303.11,-143.14 331.57,-137.22 356.11,-132.12"/>
<polygon fill="#63b8ff" stroke="#63b8ff" points="356.93,-135.52 366.01,-130.06 355.5,-128.67 356.93,-135.52"/>
</a>
</g>
</g>
<!-- Node35 -->
<g id="Node000035" class="node">
<title>Node35</title>
<g id="a_Node000035"><a xlink:href="condition_8c.html#a508893aeed24ea2c0eab380f49b05f8b" target="_top" xlink:title=" ">
<polygon fill="white" stroke="#666666" points="485,-93 341,-93 341,-74 485,-74 485,-93"/>
<text text-anchor="middle" x="413" y="-81" font-family="Helvetica,sans-Serif" font-size="10.00">cond_param_set_spread_min</text>
</a>
</g>
</g>
<!-- Node31&#45;&gt;Node35 -->
<g id="edge34_Node000031_Node000035" class="edge">
<title>Node31&#45;&gt;Node35</title>
<g id="a_edge34_Node000031_Node000035"><a xlink:title=" ">
<path fill="none" stroke="#63b8ff" d="M250.17,-147.8C270.7,-135.81 307.48,-115.43 341,-102.5 347.24,-100.09 353.9,-97.88 360.55,-95.87"/>
<polygon fill="#63b8ff" stroke="#63b8ff" points="361.58,-99.22 370.23,-93.09 359.65,-92.49 361.58,-99.22"/>
</a>
</g>
</g>
<!-- Node37 -->
<g id="Node000037" class="node">
<title>Node37</title>
<g id="a_Node000037"><a xlink:href="condition_8c.html#a6d08714de7bb2d395de2a8171635afac" target="_top" xlink:title=" ">
<polygon fill="white" stroke="#666666" points="468,-56 358,-56 358,-37 468,-37 468,-56"/>
<text text-anchor="middle" x="413" y="-44" font-family="Helvetica,sans-Serif" font-size="10.00">cond_param_set_bits</text>
</a>
</g>
</g>
<!-- Node36&#45;&gt;Node37 -->
<g id="edge36_Node000036_Node000037" class="edge">
<title>Node36&#45;&gt;Node37</title>
<g id="a_edge36_Node000036_Node000037"><a xlink:title=" ">
<path fill="none" stroke="#63b8ff" d="M285.96,-46.5C305.28,-46.5 327.42,-46.5 347.71,-46.5"/>
<polygon fill="#63b8ff" stroke="#63b8ff" points="347.8,-50 357.8,-46.5 347.8,-43 347.8,-50"/>
</a>
</g>
</g>
<!-- Node38 -->
<g id="Node000038" class="node">
<title>Node38</title>
<g id="a_Node000038"><a xlink:href="condition_8c.html#a95e3f93f8f4d82e7a6f5ef3b7a6a71ef" target="_top" xlink:title=" ">
<polygon fill="white" stroke="#666666" points="484,-19 342,-19 342,0 484,0 484,-19"/>
<text text-anchor="middle" x="413" y="-7" font-family="Helvetica,sans-Serif" font-size="10.00">cond_param_set_p_dontcare</text>
</a>
</g>
</g>
<!-- Node36&#45;&gt;Node38 -->
<g id="edge37_Node000036_Node000038" class="edge">
<title>Node36&#45;&gt;Node38</title>
<g id="a_edge37_Node000036_Node000038"><a xlink:title=" ">
<path fill="none" stroke="#63b8ff" d="M285.96,-35.7C307.94,-31.13 333.59,-25.8 355.99,-21.14"/>
<polygon fill="#63b8ff" stroke="#63b8ff" points="356.95,-24.52 366.03,-19.06 355.53,-17.66 356.95,-24.52"/>
</a>
</g>
</g>
</g>
</svg>
