<?xml version="1.0" encoding="UTF-8" standalone="no"?>
<!DOCTYPE svg PUBLIC "-//W3C//DTD SVG 1.1//EN"
 "http://www.w3.org/Graphics/SVG/1.1/DTD/svg11.dtd">
<!-- Generated by graphviz version 2.43.0 (0)
 -->
<!-- Title: cond_dgp_print Pages: 1 -->
<svg width="489pt" height="28pt"
 viewBox="0.00 0.00 489.00 28.00" xmlns="http://www.w3.org/2000/svg" xmlns:xlink="http://www.w3.org/1999/xlink">
<g id="graph0" class="graph" transform="scale(1 1) rotate(0) translate(4 24)">
<title>cond_dgp_print</title>
<!-- Node1 -->
<g id="node1" class="node">
<title>Node1</title>
<g id="a_node1"><a xlink:title="Prints a dynamical GP graph condition.">
<polygon fill="#bfbfbf" stroke="black" points="0,-0.5 0,-19.5 83,-19.5 83,-0.5 0,-0.5"/>
<text text-anchor="middle" x="41.5" y="-7.5" font-family="Helvetica,sans-Serif" font-size="10.00">cond_dgp_print</text>
</a>
</g>
</g>
<!-- Node2 -->
<g id="node2" class="node">
<title>Node2</title>
<g id="a_node2"><a xlink:href="cond__dgp_8c.html#af439b56394d5f265da1414019a1f326b" target="_top" xlink:title="Returns a json formatted string representation of a DGP condition.">
<polygon fill="none" stroke="black" points="119,-0.5 119,-19.5 233,-19.5 233,-0.5 119,-0.5"/>
<text text-anchor="middle" x="176" y="-7.5" font-family="Helvetica,sans-Serif" font-size="10.00">cond_dgp_json_export</text>
</a>
</g>
</g>
<!-- Node1&#45;&gt;Node2 -->
<g id="edge1" class="edge">
<title>Node1&#45;&gt;Node2</title>
<path fill="none" stroke="midnightblue" d="M83.34,-10C91.42,-10 100.11,-10 108.79,-10"/>
<polygon fill="midnightblue" stroke="midnightblue" points="108.95,-13.5 118.95,-10 108.95,-6.5 108.95,-13.5"/>
</g>
<!-- Node3 -->
<g id="node3" class="node">
<title>Node3</title>
<g id="a_node3"><a xlink:href="dgp_8c.html#ac1f6f6714cd298c49c7ba05cf7f994e1" target="_top" xlink:title="Returns a json formatted string representation of a DGP graph.">
<polygon fill="none" stroke="black" points="269,-0.5 269,-19.5 365,-19.5 365,-0.5 269,-0.5"/>
<text text-anchor="middle" x="317" y="-7.5" font-family="Helvetica,sans-Serif" font-size="10.00">graph_json_export</text>
</a>
</g>
</g>
<!-- Node2&#45;&gt;Node3 -->
<g id="edge2" class="edge">
<title>Node2&#45;&gt;Node3</title>
<path fill="none" stroke="midnightblue" d="M233.14,-10C241.49,-10 250.12,-10 258.5,-10"/>
<polygon fill="midnightblue" stroke="midnightblue" points="258.57,-13.5 268.57,-10 258.57,-6.5 258.57,-13.5"/>
</g>
<!-- Node4 -->
<g id="node4" class="node">
<title>Node4</title>
<g id="a_node4"><a xlink:href="dgp_8c.html#adacd704e517eabb4de2b9c586169ad45" target="_top" xlink:title="Returns the name of a specified node function.">
<polygon fill="none" stroke="black" points="401,-0.5 401,-19.5 481,-19.5 481,-0.5 401,-0.5"/>
<text text-anchor="middle" x="441" y="-7.5" font-family="Helvetica,sans-Serif" font-size="10.00">function_string</text>
</a>
</g>
</g>
<!-- Node3&#45;&gt;Node4 -->
<g id="edge3" class="edge">
<title>Node3&#45;&gt;Node4</title>
<path fill="none" stroke="midnightblue" d="M365.17,-10C373.56,-10 382.32,-10 390.76,-10"/>
<polygon fill="midnightblue" stroke="midnightblue" points="390.86,-13.5 400.86,-10 390.86,-6.5 390.86,-13.5"/>
</g>
</g>
</svg>
