<?xml version="1.0" encoding="UTF-8" standalone="no"?>
<!DOCTYPE svg PUBLIC "-//W3C//DTD SVG 1.1//EN"
 "http://www.w3.org/Graphics/SVG/1.1/DTD/svg11.dtd">
<!-- Generated by graphviz version 2.43.0 (0)
 -->
<!-- Title: config_cl_pred_neural Pages: 1 -->
<svg width="791pt" height="28pt"
 viewBox="0.00 0.00 791.00 28.00" xmlns="http://www.w3.org/2000/svg" xmlns:xlink="http://www.w3.org/1999/xlink">
<g id="graph0" class="graph" transform="scale(1 1) rotate(0) translate(4 24)">
<title>config_cl_pred_neural</title>
<!-- Node1 -->
<g id="node1" class="node">
<title>Node1</title>
<g id="a_node1"><a xlink:title="Sets classifier neural network prediction parameters.">
<polygon fill="#bfbfbf" stroke="black" points="672,-0.5 672,-19.5 783,-19.5 783,-0.5 672,-0.5"/>
<text text-anchor="middle" x="727.5" y="-7.5" font-family="Helvetica,sans-Serif" font-size="10.00">config_cl_pred_neural</text>
</a>
</g>
</g>
<!-- Node2 -->
<g id="node2" class="node">
<title>Node2</title>
<g id="a_node2"><a xlink:href="config_8c.html#a805cfd2c56d55c033ea40872f7ba0e70" target="_top" xlink:title="Sets classifier prediction parameters.">
<polygon fill="none" stroke="black" points="556,-0.5 556,-19.5 636,-19.5 636,-0.5 556,-0.5"/>
<text text-anchor="middle" x="596" y="-7.5" font-family="Helvetica,sans-Serif" font-size="10.00">config_cl_pred</text>
</a>
</g>
</g>
<!-- Node1&#45;&gt;Node2 -->
<g id="edge1" class="edge">
<title>Node1&#45;&gt;Node2</title>
<path fill="none" stroke="midnightblue" d="M661.73,-10C652.99,-10 644.25,-10 636.14,-10"/>
<polygon fill="midnightblue" stroke="midnightblue" points="661.96,-13.5 671.96,-10 661.96,-6.5 661.96,-13.5"/>
</g>
<!-- Node3 -->
<g id="node3" class="node">
<title>Node3</title>
<g id="a_node3"><a xlink:href="config_8c.html#a0f0fcad0b6090da01e5bd58b77d98787" target="_top" xlink:title="Sets specified parameter.">
<polygon fill="none" stroke="black" points="424,-0.5 424,-19.5 520,-19.5 520,-0.5 424,-0.5"/>
<text text-anchor="middle" x="472" y="-7.5" font-family="Helvetica,sans-Serif" font-size="10.00">config_add_param</text>
</a>
</g>
</g>
<!-- Node2&#45;&gt;Node3 -->
<g id="edge2" class="edge">
<title>Node2&#45;&gt;Node3</title>
<path fill="none" stroke="midnightblue" d="M545.7,-10C537.32,-10 528.63,-10 520.3,-10"/>
<polygon fill="midnightblue" stroke="midnightblue" points="545.73,-13.5 555.73,-10 545.73,-6.5 545.73,-13.5"/>
</g>
<!-- Node4 -->
<g id="node4" class="node">
<title>Node4</title>
<g id="a_node4"><a xlink:href="config_8c.html#a5b96815b9ebb26a8fc7bcc30a75ab36d" target="_top" xlink:title="Adds a parameter to the list.">
<polygon fill="none" stroke="black" points="296,-0.5 296,-19.5 388,-19.5 388,-0.5 296,-0.5"/>
<text text-anchor="middle" x="342" y="-7.5" font-family="Helvetica,sans-Serif" font-size="10.00">config_newnvpair</text>
</a>
</g>
</g>
<!-- Node3&#45;&gt;Node4 -->
<g id="edge3" class="edge">
<title>Node3&#45;&gt;Node4</title>
<path fill="none" stroke="midnightblue" d="M413.54,-10C405.12,-10 396.54,-10 388.4,-10"/>
<polygon fill="midnightblue" stroke="midnightblue" points="413.7,-13.5 423.7,-10 413.7,-6.5 413.7,-13.5"/>
</g>
<!-- Node5 -->
<g id="node5" class="node">
<title>Node5</title>
<g id="a_node5"><a xlink:href="config_8c.html#a01c178cc1587140f60ecf27291a2032a" target="_top" xlink:title="Parses a line of the config file and adds to the list.">
<polygon fill="none" stroke="black" points="177,-0.5 177,-19.5 260,-19.5 260,-0.5 177,-0.5"/>
<text text-anchor="middle" x="218.5" y="-7.5" font-family="Helvetica,sans-Serif" font-size="10.00">config_process</text>
</a>
</g>
</g>
<!-- Node4&#45;&gt;Node5 -->
<g id="edge4" class="edge">
<title>Node4&#45;&gt;Node5</title>
<path fill="none" stroke="midnightblue" d="M285.54,-10C277.06,-10 268.45,-10 260.37,-10"/>
<polygon fill="midnightblue" stroke="midnightblue" points="285.76,-13.5 295.76,-10 285.76,-6.5 285.76,-13.5"/>
</g>
<!-- Node6 -->
<g id="node6" class="node">
<title>Node6</title>
<g id="a_node6"><a xlink:href="config_8h.html#a045a64a30d99a4bef2ebfd9b54aa9698" target="_top" xlink:title="Reads the specified configuration file.">
<polygon fill="none" stroke="black" points="74,-0.5 74,-19.5 141,-19.5 141,-0.5 74,-0.5"/>
<text text-anchor="middle" x="107.5" y="-7.5" font-family="Helvetica,sans-Serif" font-size="10.00">config_read</text>
</a>
</g>
</g>
<!-- Node5&#45;&gt;Node6 -->
<g id="edge5" class="edge">
<title>Node5&#45;&gt;Node6</title>
<path fill="none" stroke="midnightblue" d="M166.84,-10C158.16,-10 149.35,-10 141.3,-10"/>
<polygon fill="midnightblue" stroke="midnightblue" points="166.91,-13.5 176.91,-10 166.91,-6.5 166.91,-13.5"/>
</g>
<!-- Node7 -->
<g id="node7" class="node">
<title>Node7</title>
<g id="a_node7"><a xlink:href="main_8c.html#a3c04138a5bfe5d72780bb7e82a18e627" target="_top" xlink:title=" ">
<polygon fill="none" stroke="black" points="0,-0.5 0,-19.5 38,-19.5 38,-0.5 0,-0.5"/>
<text text-anchor="middle" x="19" y="-7.5" font-family="Helvetica,sans-Serif" font-size="10.00">main</text>
</a>
</g>
</g>
<!-- Node6&#45;&gt;Node7 -->
<g id="edge6" class="edge">
<title>Node6&#45;&gt;Node7</title>
<path fill="none" stroke="midnightblue" d="M63.73,-10C54.73,-10 45.7,-10 38.2,-10"/>
<polygon fill="midnightblue" stroke="midnightblue" points="63.8,-13.5 73.8,-10 63.8,-6.5 63.8,-13.5"/>
</g>
</g>
</svg>
