<?xml version="1.0" encoding="UTF-8" standalone="no"?>
<!DOCTYPE svg PUBLIC "-//W3C//DTD SVG 1.1//EN"
 "http://www.w3.org/Graphics/SVG/1.1/DTD/svg11.dtd">
<!-- Generated by graphviz version 2.43.0 (0)
 -->
<!-- Title: config_cl_pred_ls Pages: 1 -->
<svg width="275pt" height="230pt"
 viewBox="0.00 0.00 275.00 230.00" xmlns="http://www.w3.org/2000/svg" xmlns:xlink="http://www.w3.org/1999/xlink">
<g id="graph0" class="graph" transform="scale(1 1) rotate(0) translate(4 226)">
<title>config_cl_pred_ls</title>
<!-- Node1 -->
<g id="node1" class="node">
<title>Node1</title>
<g id="a_node1"><a xlink:title="Sets classifier least squares prediction parameters.">
<polygon fill="#bfbfbf" stroke="black" points="0,-107.5 0,-126.5 92,-126.5 92,-107.5 0,-107.5"/>
<text text-anchor="middle" x="46" y="-114.5" font-family="Helvetica,sans-Serif" font-size="10.00">config_cl_pred_ls</text>
</a>
</g>
</g>
<!-- Node2 -->
<g id="node2" class="node">
<title>Node2</title>
<g id="a_node2"><a xlink:href="prediction_8h.html#a3b9eafc6d40bd256f6079ea0196a12af" target="_top" xlink:title=" ">
<polygon fill="none" stroke="black" points="145,-202.5 145,-221.5 250,-221.5 250,-202.5 145,-202.5"/>
<text text-anchor="middle" x="197.5" y="-209.5" font-family="Helvetica,sans-Serif" font-size="10.00">pred_param_set_eta</text>
</a>
</g>
</g>
<!-- Node1&#45;&gt;Node2 -->
<g id="edge1" class="edge">
<title>Node1&#45;&gt;Node2</title>
<path fill="none" stroke="midnightblue" d="M54.63,-126.74C67.83,-142.92 96.57,-175.33 128,-193 131.98,-195.24 136.24,-197.22 140.62,-198.99"/>
<polygon fill="midnightblue" stroke="midnightblue" points="139.73,-202.39 150.32,-202.5 142.11,-195.81 139.73,-202.39"/>
</g>
<!-- Node3 -->
<g id="node3" class="node">
<title>Node3</title>
<g id="a_node3"><a xlink:href="prediction_8h.html#a10f4289d9526a2d23f473de78bc3326b" target="_top" xlink:title=" ">
<polygon fill="none" stroke="black" points="134.5,-164.5 134.5,-183.5 260.5,-183.5 260.5,-164.5 134.5,-164.5"/>
<text text-anchor="middle" x="197.5" y="-171.5" font-family="Helvetica,sans-Serif" font-size="10.00">pred_param_set_eta_min</text>
</a>
</g>
</g>
<!-- Node1&#45;&gt;Node3 -->
<g id="edge2" class="edge">
<title>Node1&#45;&gt;Node3</title>
<path fill="none" stroke="midnightblue" d="M65.28,-126.66C81.45,-134.94 105.86,-146.8 128,-155 134.38,-157.36 141.18,-159.59 147.93,-161.62"/>
<polygon fill="midnightblue" stroke="midnightblue" points="147.16,-165.04 157.73,-164.47 149.11,-158.32 147.16,-165.04"/>
</g>
<!-- Node4 -->
<g id="node4" class="node">
<title>Node4</title>
<g id="a_node4"><a xlink:href="prediction_8h.html#ad41a8d3ff22e8d868954d32e25085875" target="_top" xlink:title=" ">
<polygon fill="none" stroke="black" points="128,-126.5 128,-145.5 267,-145.5 267,-126.5 128,-126.5"/>
<text text-anchor="middle" x="197.5" y="-133.5" font-family="Helvetica,sans-Serif" font-size="10.00">pred_param_set_evolve_eta</text>
</a>
</g>
</g>
<!-- Node1&#45;&gt;Node4 -->
<g id="edge3" class="edge">
<title>Node1&#45;&gt;Node4</title>
<path fill="none" stroke="midnightblue" d="M92.26,-122.75C100.44,-123.79 109.18,-124.9 117.99,-126.02"/>
<polygon fill="midnightblue" stroke="midnightblue" points="117.58,-129.5 127.94,-127.29 118.46,-122.55 117.58,-129.5"/>
</g>
<!-- Node5 -->
<g id="node5" class="node">
<title>Node5</title>
<g id="a_node5"><a xlink:href="prediction_8h.html#a5bc9e416df93878b6175cdbaf1b24fee" target="_top" xlink:title=" ">
<polygon fill="none" stroke="black" points="136,-88.5 136,-107.5 259,-107.5 259,-88.5 136,-88.5"/>
<text text-anchor="middle" x="197.5" y="-95.5" font-family="Helvetica,sans-Serif" font-size="10.00">pred_param_set_lambda</text>
</a>
</g>
</g>
<!-- Node1&#45;&gt;Node5 -->
<g id="edge4" class="edge">
<title>Node1&#45;&gt;Node5</title>
<path fill="none" stroke="midnightblue" d="M92.26,-111.25C102.9,-109.9 114.48,-108.42 125.93,-106.97"/>
<polygon fill="midnightblue" stroke="midnightblue" points="126.46,-110.43 135.94,-105.7 125.57,-103.49 126.46,-110.43"/>
</g>
<!-- Node6 -->
<g id="node6" class="node">
<title>Node6</title>
<g id="a_node6"><a xlink:href="prediction_8h.html#a1d5d9c5543371cb9a689573e536112f7" target="_top" xlink:title=" ">
<polygon fill="none" stroke="black" points="140,-39 140,-69 255,-69 255,-39 140,-39"/>
<text text-anchor="start" x="148" y="-57" font-family="Helvetica,sans-Serif" font-size="10.00">pred_param_set_scale</text>
<text text-anchor="middle" x="197.5" y="-46" font-family="Helvetica,sans-Serif" font-size="10.00">_factor</text>
</a>
</g>
</g>
<!-- Node1&#45;&gt;Node6 -->
<g id="edge5" class="edge">
<title>Node1&#45;&gt;Node6</title>
<path fill="none" stroke="midnightblue" d="M66.1,-107.45C82.38,-99.46 106.49,-87.95 128,-79 133.11,-76.87 138.48,-74.74 143.86,-72.67"/>
<polygon fill="midnightblue" stroke="midnightblue" points="145.4,-75.83 153.52,-69.02 142.93,-69.28 145.4,-75.83"/>
</g>
<!-- Node7 -->
<g id="node7" class="node">
<title>Node7</title>
<g id="a_node7"><a xlink:href="prediction_8h.html#a5deca9174c9bafe4d73784566e307e6c" target="_top" xlink:title=" ">
<polygon fill="none" stroke="black" points="146.5,-0.5 146.5,-19.5 248.5,-19.5 248.5,-0.5 146.5,-0.5"/>
<text text-anchor="middle" x="197.5" y="-7.5" font-family="Helvetica,sans-Serif" font-size="10.00">pred_param_set_x0</text>
</a>
</g>
</g>
<!-- Node1&#45;&gt;Node7 -->
<g id="edge6" class="edge">
<title>Node1&#45;&gt;Node7</title>
<path fill="none" stroke="midnightblue" d="M53.33,-107.31C65.57,-89.34 94.27,-50.8 128,-30 132.13,-27.45 136.6,-25.21 141.22,-23.25"/>
<polygon fill="midnightblue" stroke="midnightblue" points="142.71,-26.43 150.81,-19.61 140.22,-19.89 142.71,-26.43"/>
</g>
</g>
</svg>
