<?xml version="1.0" encoding="UTF-8" standalone="no"?>
<!DOCTYPE svg PUBLIC "-//W3C//DTD SVG 1.1//EN"
 "http://www.w3.org/Graphics/SVG/1.1/DTD/svg11.dtd">
<!-- Generated by graphviz version 2.43.0 (0)
 -->
<!-- Title: config_cl_act Pages: 1 -->
<svg width="370pt" height="142pt"
 viewBox="0.00 0.00 370.00 142.00" xmlns="http://www.w3.org/2000/svg" xmlns:xlink="http://www.w3.org/1999/xlink">
<g id="graph0" class="graph" transform="scale(1 1) rotate(0) translate(4 138)">
<title>config_cl_act</title>
<!-- Node1 -->
<g id="node1" class="node">
<title>Node1</title>
<g id="a_node1"><a xlink:title="Sets classifier action parameters.">
<polygon fill="#bfbfbf" stroke="black" points="0,-76.5 0,-95.5 74,-95.5 74,-76.5 0,-76.5"/>
<text text-anchor="middle" x="37" y="-83.5" font-family="Helvetica,sans-Serif" font-size="10.00">config_cl_act</text>
</a>
</g>
</g>
<!-- Node2 -->
<g id="node2" class="node">
<title>Node2</title>
<g id="a_node2"><a xlink:href="action_8c.html#a55974a228c3a692a22c9d6ce0c4cc869" target="_top" xlink:title=" ">
<polygon fill="none" stroke="black" points="110,-101 110,-131 228,-131 228,-101 110,-101"/>
<text text-anchor="start" x="118" y="-119" font-family="Helvetica,sans-Serif" font-size="10.00">action_param_set_type</text>
<text text-anchor="middle" x="169" y="-108" font-family="Helvetica,sans-Serif" font-size="10.00">_string</text>
</a>
</g>
</g>
<!-- Node1&#45;&gt;Node2 -->
<g id="edge1" class="edge">
<title>Node1&#45;&gt;Node2</title>
<path fill="none" stroke="midnightblue" d="M74.21,-94.36C82.18,-96.2 90.87,-98.2 99.65,-100.23"/>
<polygon fill="midnightblue" stroke="midnightblue" points="99.03,-103.67 109.56,-102.51 100.6,-96.85 99.03,-103.67"/>
</g>
<!-- Node4 -->
<g id="node4" class="node">
<title>Node4</title>
<g id="a_node4"><a xlink:href="config_8c.html#a742d5489e36da7e3a8301aeb5b2d25f0" target="_top" xlink:title="Sets classifier neural network action parameters.">
<polygon fill="none" stroke="black" points="116,-54.5 116,-73.5 222,-73.5 222,-54.5 116,-54.5"/>
<text text-anchor="middle" x="169" y="-61.5" font-family="Helvetica,sans-Serif" font-size="10.00">config_cl_act_neural</text>
</a>
</g>
</g>
<!-- Node1&#45;&gt;Node4 -->
<g id="edge3" class="edge">
<title>Node1&#45;&gt;Node4</title>
<path fill="none" stroke="midnightblue" d="M74.21,-79.87C84.11,-78.2 95.11,-76.33 106.01,-74.49"/>
<polygon fill="midnightblue" stroke="midnightblue" points="106.67,-77.93 115.95,-72.81 105.51,-71.03 106.67,-77.93"/>
</g>
<!-- Node3 -->
<g id="node3" class="node">
<title>Node3</title>
<g id="a_node3"><a xlink:href="action_8c.html#a38d3209ab8ce0417631ce2359f6590a7" target="_top" xlink:title="Returns the integer representation of an action type given a name.">
<polygon fill="none" stroke="black" points="264,-114.5 264,-133.5 362,-133.5 362,-114.5 264,-114.5"/>
<text text-anchor="middle" x="313" y="-121.5" font-family="Helvetica,sans-Serif" font-size="10.00">action_type_as_int</text>
</a>
</g>
</g>
<!-- Node2&#45;&gt;Node3 -->
<g id="edge2" class="edge">
<title>Node2&#45;&gt;Node3</title>
<path fill="none" stroke="midnightblue" d="M228.17,-119.28C236.55,-119.75 245.18,-120.24 253.58,-120.71"/>
<polygon fill="midnightblue" stroke="midnightblue" points="253.48,-124.21 263.66,-121.28 253.87,-117.22 253.48,-124.21"/>
</g>
<!-- Node5 -->
<g id="node5" class="node">
<title>Node5</title>
<g id="a_node5"><a xlink:href="neural__layer__args_8c.html#a3b06e82bed7fc9a8915d6187ce08d33e" target="_top" xlink:title="Sets layer parameters to default values.">
<polygon fill="none" stroke="black" points="273,-76.5 273,-95.5 353,-95.5 353,-76.5 273,-76.5"/>
<text text-anchor="middle" x="313" y="-83.5" font-family="Helvetica,sans-Serif" font-size="10.00">layer_args_init</text>
</a>
</g>
</g>
<!-- Node4&#45;&gt;Node5 -->
<g id="edge4" class="edge">
<title>Node4&#45;&gt;Node5</title>
<path fill="none" stroke="midnightblue" d="M222.07,-72.07C235.31,-74.12 249.5,-76.32 262.6,-78.35"/>
<polygon fill="midnightblue" stroke="midnightblue" points="262.42,-81.86 272.84,-79.93 263.49,-74.94 262.42,-81.86"/>
</g>
<!-- Node6 -->
<g id="node6" class="node">
<title>Node6</title>
<g id="a_node6"><a xlink:href="neural__layer__args_8c.html#a4125c294939dcfcb1e3aa4d66f91bb70" target="_top" xlink:title="Returns the current output layer arguments.">
<polygon fill="none" stroke="black" points="273,-38.5 273,-57.5 353,-57.5 353,-38.5 273,-38.5"/>
<text text-anchor="middle" x="313" y="-45.5" font-family="Helvetica,sans-Serif" font-size="10.00">layer_args_tail</text>
</a>
</g>
</g>
<!-- Node4&#45;&gt;Node6 -->
<g id="edge5" class="edge">
<title>Node4&#45;&gt;Node6</title>
<path fill="none" stroke="midnightblue" d="M222.07,-58.13C235.31,-56.64 249.5,-55.04 262.6,-53.57"/>
<polygon fill="midnightblue" stroke="midnightblue" points="263.29,-57.01 272.84,-52.41 262.51,-50.05 263.29,-57.01"/>
</g>
<!-- Node7 -->
<g id="node7" class="node">
<title>Node7</title>
<g id="a_node7"><a xlink:href="neural__layer_8c.html#a5a8bc3e92587742c0bd1ee27780b1128" target="_top" xlink:title="Returns the integer representation of a layer type given a name.">
<polygon fill="none" stroke="black" points="266.5,-0.5 266.5,-19.5 359.5,-19.5 359.5,-0.5 266.5,-0.5"/>
<text text-anchor="middle" x="313" y="-7.5" font-family="Helvetica,sans-Serif" font-size="10.00">layer_type_as_int</text>
</a>
</g>
</g>
<!-- Node4&#45;&gt;Node7 -->
<g id="edge6" class="edge">
<title>Node4&#45;&gt;Node7</title>
<path fill="none" stroke="midnightblue" d="M195.06,-54.47C217.83,-45.81 251.66,-32.95 277.08,-23.28"/>
<polygon fill="midnightblue" stroke="midnightblue" points="278.61,-26.44 286.71,-19.62 276.12,-19.9 278.61,-26.44"/>
</g>
</g>
</svg>
