<?xml version="1.0" encoding="UTF-8" standalone="no"?>
<!DOCTYPE svg PUBLIC "-//W3C//DTD SVG 1.1//EN"
 "http://www.w3.org/Graphics/SVG/1.1/DTD/svg11.dtd">
<!-- Generated by graphviz version 2.43.0 (0)
 -->
<!-- Title: graph_json_export Pages: 1 -->
<svg width="394pt" height="113pt"
 viewBox="0.00 0.00 394.00 112.50" xmlns="http://www.w3.org/2000/svg" xmlns:xlink="http://www.w3.org/1999/xlink">
<g id="graph0" class="graph" transform="scale(1 1) rotate(0) translate(4 108.5)">
<title>graph_json_export</title>
<!-- Node1 -->
<g id="Node000001" class="node">
<title>Node1</title>
<g id="a_Node000001"><a xlink:title="Returns a json formatted string representation of a DGP graph.">
<polygon fill="#999999" stroke="#666666" points="386,-67.5 290,-67.5 290,-48.5 386,-48.5 386,-67.5"/>
<text text-anchor="middle" x="338" y="-55.5" font-family="Helvetica,sans-Serif" font-size="10.00">graph_json_export</text>
</a>
</g>
</g>
<!-- Node2 -->
<g id="Node000002" class="node">
<title>Node2</title>
<g id="a_Node000002"><a xlink:href="cond__dgp_8c.html#a4d91198718537eb185f62d65e9100929" target="_top" xlink:title="Returns a json formatted string representation of a DGP condition.">
<polygon fill="white" stroke="#666666" points="254,-104.5 140,-104.5 140,-85.5 254,-85.5 254,-104.5"/>
<text text-anchor="middle" x="197" y="-92.5" font-family="Helvetica,sans-Serif" font-size="10.00">cond_dgp_json_export</text>
</a>
</g>
</g>
<!-- Node1&#45;&gt;Node2 -->
<g id="edge1_Node000001_Node000002" class="edge">
<title>Node1&#45;&gt;Node2</title>
<g id="a_edge1_Node000001_Node000002"><a xlink:title=" ">
<path fill="none" stroke="#63b8ff" d="M291.47,-70.12C272.87,-75.07 251.66,-80.72 234.16,-85.38"/>
<polygon fill="#63b8ff" stroke="#63b8ff" points="292.44,-73.48 301.2,-67.53 290.64,-66.72 292.44,-73.48"/>
</a>
</g>
</g>
<!-- Node4 -->
<g id="Node000004" class="node">
<title>Node4</title>
<g id="a_Node000004"><a xlink:href="dgp_8c.html#a1536710c682332c80237d59720e951d4" target="_top" xlink:title="Prints a DGP graph.">
<polygon fill="white" stroke="#666666" points="229.5,-67.5 164.5,-67.5 164.5,-48.5 229.5,-48.5 229.5,-67.5"/>
<text text-anchor="middle" x="197" y="-55.5" font-family="Helvetica,sans-Serif" font-size="10.00">graph_print</text>
</a>
</g>
</g>
<!-- Node1&#45;&gt;Node4 -->
<g id="edge3_Node000001_Node000004" class="edge">
<title>Node1&#45;&gt;Node4</title>
<g id="a_edge3_Node000001_Node000004"><a xlink:title=" ">
<path fill="none" stroke="#63b8ff" d="M279.5,-58C262.47,-58 244.45,-58 229.69,-58"/>
<polygon fill="#63b8ff" stroke="#63b8ff" points="279.94,-61.5 289.94,-58 279.94,-54.5 279.94,-61.5"/>
</a>
</g>
</g>
<!-- Node5 -->
<g id="Node000005" class="node">
<title>Node5</title>
<g id="a_Node000005"><a xlink:href="rule__dgp_8c.html#a6b66b87f21c38601683836f72115c7b5" target="_top" xlink:title=" ">
<polygon fill="white" stroke="#666666" points="248.5,-30 145.5,-30 145.5,0 248.5,0 248.5,-30"/>
<text text-anchor="start" x="153.5" y="-18" font-family="Helvetica,sans-Serif" font-size="10.00">rule_dgp_cond_json</text>
<text text-anchor="middle" x="197" y="-7" font-family="Helvetica,sans-Serif" font-size="10.00">_export</text>
</a>
</g>
</g>
<!-- Node1&#45;&gt;Node5 -->
<g id="edge4_Node000001_Node000005" class="edge">
<title>Node1&#45;&gt;Node5</title>
<g id="a_edge4_Node000001_Node000005"><a xlink:title=" ">
<path fill="none" stroke="#63b8ff" d="M296.29,-45.41C280.7,-40.58 262.76,-35.03 246.51,-30.01"/>
<polygon fill="#63b8ff" stroke="#63b8ff" points="295.56,-48.85 306.15,-48.46 297.63,-42.16 295.56,-48.85"/>
</a>
</g>
</g>
<!-- Node3 -->
<g id="Node000003" class="node">
<title>Node3</title>
<g id="a_Node000003"><a xlink:href="cond__dgp_8c.html#a092ceb2e9dc6a81da9341066f2a671e3" target="_top" xlink:title="Prints a dynamical GP graph condition.">
<polygon fill="white" stroke="#666666" points="93.5,-104.5 10.5,-104.5 10.5,-85.5 93.5,-85.5 93.5,-104.5"/>
<text text-anchor="middle" x="52" y="-92.5" font-family="Helvetica,sans-Serif" font-size="10.00">cond_dgp_print</text>
</a>
</g>
</g>
<!-- Node2&#45;&gt;Node3 -->
<g id="edge2_Node000002_Node000003" class="edge">
<title>Node2&#45;&gt;Node3</title>
<g id="a_edge2_Node000002_Node000003"><a xlink:title=" ">
<path fill="none" stroke="#63b8ff" d="M129.72,-95C117.51,-95 105.1,-95 93.92,-95"/>
<polygon fill="#63b8ff" stroke="#63b8ff" points="129.89,-98.5 139.89,-95 129.89,-91.5 129.89,-98.5"/>
</a>
</g>
</g>
<!-- Node6 -->
<g id="Node000006" class="node">
<title>Node6</title>
<g id="a_Node000006"><a xlink:href="rule__dgp_8c.html#a6d4b375832d5449829e5fd50070777af" target="_top" xlink:title=" ">
<polygon fill="white" stroke="#666666" points="104,-24.5 0,-24.5 0,-5.5 104,-5.5 104,-24.5"/>
<text text-anchor="middle" x="52" y="-12.5" font-family="Helvetica,sans-Serif" font-size="10.00">rule_dgp_cond_print</text>
</a>
</g>
</g>
<!-- Node5&#45;&gt;Node6 -->
<g id="edge5_Node000005_Node000006" class="edge">
<title>Node5&#45;&gt;Node6</title>
<g id="a_edge5_Node000005_Node000006"><a xlink:title=" ">
<path fill="none" stroke="#63b8ff" d="M135.02,-15C124.73,-15 114.14,-15 104.14,-15"/>
<polygon fill="#63b8ff" stroke="#63b8ff" points="135.18,-18.5 145.18,-15 135.18,-11.5 135.18,-18.5"/>
</a>
</g>
</g>
</g>
</svg>
