<?xml version="1.0" encoding="UTF-8" standalone="no"?>
<!DOCTYPE svg PUBLIC "-//W3C//DTD SVG 1.1//EN"
 "http://www.w3.org/Graphics/SVG/1.1/DTD/svg11.dtd">
<!-- Generated by graphviz version 2.43.0 (0)
 -->
<!-- Title: graph_update Pages: 1 -->
<svg width="368pt" height="66pt"
 viewBox="0.00 0.00 368.00 66.00" xmlns="http://www.w3.org/2000/svg" xmlns:xlink="http://www.w3.org/1999/xlink">
<g id="graph0" class="graph" transform="scale(1 1) rotate(0) translate(4 62)">
<title>graph_update</title>
<!-- Node1 -->
<g id="node1" class="node">
<title>Node1</title>
<g id="a_node1"><a xlink:title="Updates a DGP graph T cycles.">
<polygon fill="#bfbfbf" stroke="black" points="285,-19.5 285,-38.5 360,-38.5 360,-19.5 285,-19.5"/>
<text text-anchor="middle" x="322.5" y="-26.5" font-family="Helvetica,sans-Serif" font-size="10.00">graph_update</text>
</a>
</g>
</g>
<!-- Node2 -->
<g id="node2" class="node">
<title>Node2</title>
<g id="a_node2"><a xlink:href="$cond__dgp_8h.html#a8bb6fc747fba92c9a717c1b26f5ffca7" xlink:title=" ">
<polygon fill="none" stroke="black" points="147.5,-38.5 147.5,-57.5 238.5,-57.5 238.5,-38.5 147.5,-38.5"/>
<text text-anchor="middle" x="193" y="-45.5" font-family="Helvetica,sans-Serif" font-size="10.00">cond_dgp_match</text>
</a>
</g>
</g>
<!-- Node1&#45;&gt;Node2 -->
<g id="edge1" class="edge">
<title>Node1&#45;&gt;Node2</title>
<path fill="none" stroke="midnightblue" d="M274.85,-35.95C263.05,-37.71 250.4,-39.6 238.7,-41.34"/>
<polygon fill="midnightblue" stroke="midnightblue" points="275.59,-39.38 284.96,-34.44 274.56,-32.46 275.59,-39.38"/>
</g>
<!-- Node4 -->
<g id="node4" class="node">
<title>Node4</title>
<g id="a_node4"><a xlink:href="$rule__dgp_8h.html#a85eb12064cc539b1ec1fea93ee5f5e3e" xlink:title=" ">
<polygon fill="none" stroke="black" points="137,-0.5 137,-19.5 249,-19.5 249,-0.5 137,-0.5"/>
<text text-anchor="middle" x="193" y="-7.5" font-family="Helvetica,sans-Serif" font-size="10.00">rule_dgp_cond_match</text>
</a>
</g>
</g>
<!-- Node1&#45;&gt;Node4 -->
<g id="edge3" class="edge">
<title>Node1&#45;&gt;Node4</title>
<path fill="none" stroke="midnightblue" d="M274.96,-22.07C266.55,-20.81 257.71,-19.49 249.08,-18.21"/>
<polygon fill="midnightblue" stroke="midnightblue" points="274.56,-25.54 284.96,-23.56 275.59,-18.62 274.56,-25.54"/>
</g>
<!-- Node3 -->
<g id="node3" class="node">
<title>Node3</title>
<g id="a_node3"><a xlink:href="$cond__dgp_8h.html#a585a3476b4473b1b19159a7d55daa6ae" xlink:title=" ">
<polygon fill="none" stroke="black" points="6.5,-38.5 6.5,-57.5 94.5,-57.5 94.5,-38.5 6.5,-38.5"/>
<text text-anchor="middle" x="50.5" y="-45.5" font-family="Helvetica,sans-Serif" font-size="10.00">cond_dgp_cover</text>
</a>
</g>
</g>
<!-- Node2&#45;&gt;Node3 -->
<g id="edge2" class="edge">
<title>Node2&#45;&gt;Node3</title>
<path fill="none" stroke="midnightblue" d="M137.15,-48C123.15,-48 108.3,-48 94.96,-48"/>
<polygon fill="midnightblue" stroke="midnightblue" points="137.16,-51.5 147.16,-48 137.16,-44.5 137.16,-51.5"/>
</g>
<!-- Node5 -->
<g id="node5" class="node">
<title>Node5</title>
<g id="a_node5"><a xlink:href="$rule__dgp_8h.html#ac1f0b0c11b92852e82b00ad7b4bb169f" xlink:title=" ">
<polygon fill="none" stroke="black" points="0,-0.5 0,-19.5 101,-19.5 101,-0.5 0,-0.5"/>
<text text-anchor="middle" x="50.5" y="-7.5" font-family="Helvetica,sans-Serif" font-size="10.00">rule_dgp_act_cover</text>
</a>
</g>
</g>
<!-- Node4&#45;&gt;Node5 -->
<g id="edge4" class="edge">
<title>Node4&#45;&gt;Node5</title>
<path fill="none" stroke="midnightblue" d="M126.63,-10C118.16,-10 109.6,-10 101.44,-10"/>
<polygon fill="midnightblue" stroke="midnightblue" points="126.87,-13.5 136.87,-10 126.87,-6.5 126.87,-13.5"/>
</g>
</g>
</svg>
