<?xml version="1.0" encoding="UTF-8" standalone="no"?>
<!DOCTYPE svg PUBLIC "-//W3C//DTD SVG 1.1//EN"
 "http://www.w3.org/Graphics/SVG/1.1/DTD/svg11.dtd">
<!-- Generated by graphviz version 2.43.0 (0)
 -->
<!-- Title: graph_mutate Pages: 1 -->
<svg width="645pt" height="223pt"
 viewBox="0.00 0.00 645.00 223.42" xmlns="http://www.w3.org/2000/svg" xmlns:xlink="http://www.w3.org/1999/xlink">
<g id="graph0" class="graph" transform="scale(1 1) rotate(0) translate(4 219.42)">
<title>graph_mutate</title>
<!-- Node1 -->
<g id="Node000001" class="node">
<title>Node1</title>
<g id="a_Node000001"><a xlink:title="Mutates a specified DGP graph.">
<polygon fill="#999999" stroke="#666666" points="76,-122 0,-122 0,-103 76,-103 76,-122"/>
<text text-anchor="middle" x="38" y="-110" font-family="Helvetica,sans-Serif" font-size="10.00">graph_mutate</text>
</a>
</g>
</g>
<!-- Node2 -->
<g id="Node000002" class="node">
<title>Node2</title>
<g id="a_Node000002"><a xlink:href="dgp_8c.html#a9f7258ad6f516679d0f6f42cc132e786" target="_top" xlink:title="Mutates the connectivity of a DGP graph.">
<polygon fill="white" stroke="#666666" points="246,-198 112,-198 112,-179 246,-179 246,-198"/>
<text text-anchor="middle" x="179" y="-186" font-family="Helvetica,sans-Serif" font-size="10.00">graph_mutate_connectivity</text>
</a>
</g>
</g>
<!-- Node1&#45;&gt;Node2 -->
<g id="edge1_Node000001_Node000002" class="edge">
<title>Node1&#45;&gt;Node2</title>
<g id="a_edge1_Node000001_Node000002"><a xlink:title=" ">
<path fill="none" stroke="#63b8ff" d="M56.6,-122.13C80.63,-135.26 123.87,-158.9 151.73,-174.14"/>
<polygon fill="#63b8ff" stroke="#63b8ff" points="150.09,-177.23 160.54,-178.95 153.44,-171.08 150.09,-177.23"/>
</a>
</g>
</g>
<!-- Node6 -->
<g id="Node000006" class="node">
<title>Node6</title>
<g id="a_Node000006"><a xlink:href="dgp_8c.html#ac8a2a3639d6abed0b0ff6d86a11b2bf8" target="_top" xlink:title="Mutates the number of update cycles performed by a DGP graph.">
<polygon fill="white" stroke="#666666" points="234,-65 124,-65 124,-46 234,-46 234,-65"/>
<text text-anchor="middle" x="179" y="-53" font-family="Helvetica,sans-Serif" font-size="10.00">graph_mutate_cycles</text>
</a>
</g>
</g>
<!-- Node1&#45;&gt;Node6 -->
<g id="edge7_Node000001_Node000006" class="edge">
<title>Node1&#45;&gt;Node6</title>
<g id="a_edge7_Node000001_Node000006"><a xlink:title=" ">
<path fill="none" stroke="#63b8ff" d="M58.96,-102.98C73.54,-96.16 93.84,-86.9 112,-79.5 121.22,-75.75 131.27,-71.95 140.69,-68.51"/>
<polygon fill="#63b8ff" stroke="#63b8ff" points="141.98,-71.76 150.21,-65.08 139.61,-65.18 141.98,-71.76"/>
</a>
</g>
</g>
<!-- Node7 -->
<g id="Node000007" class="node">
<title>Node7</title>
<g id="a_Node000007"><a xlink:href="dgp_8c.html#a97de370d641fe9c28c2d7cc97e1f4511" target="_top" xlink:title="Mutates the node functions within a DGP graph.">
<polygon fill="white" stroke="#666666" points="403,-141 282,-141 282,-122 403,-122 403,-141"/>
<text text-anchor="middle" x="342.5" y="-129" font-family="Helvetica,sans-Serif" font-size="10.00">graph_mutate_functions</text>
</a>
</g>
</g>
<!-- Node1&#45;&gt;Node7 -->
<g id="edge8_Node000001_Node000007" class="edge">
<title>Node1&#45;&gt;Node7</title>
<g id="a_edge8_Node000001_Node000007"><a xlink:title=" ">
<path fill="none" stroke="#63b8ff" d="M76.09,-114.83C124.64,-117.88 210.69,-123.28 271.64,-127.11"/>
<polygon fill="#63b8ff" stroke="#63b8ff" points="271.75,-130.63 281.95,-127.76 272.19,-123.64 271.75,-130.63"/>
</a>
</g>
</g>
<!-- Node8 -->
<g id="Node000008" class="node">
<title>Node8</title>
<g id="a_Node000008"><a xlink:href="sam_8c.html#a8dfbd425ab3513d47726620e94fc861c" target="_top" xlink:title="Self&#45;adapts mutation rates.">
<polygon fill="white" stroke="#666666" points="375,-94 310,-94 310,-75 375,-75 375,-94"/>
<text text-anchor="middle" x="342.5" y="-82" font-family="Helvetica,sans-Serif" font-size="10.00">sam_adapt</text>
</a>
</g>
</g>
<!-- Node1&#45;&gt;Node8 -->
<g id="edge11_Node000001_Node000008" class="edge">
<title>Node1&#45;&gt;Node8</title>
<g id="a_edge11_Node000001_Node000008"><a xlink:title=" ">
<path fill="none" stroke="#63b8ff" d="M76.09,-109.07C132.65,-103.83 240.11,-93.88 299.48,-88.39"/>
<polygon fill="#63b8ff" stroke="#63b8ff" points="299.99,-91.86 309.63,-87.45 299.35,-84.89 299.99,-91.86"/>
</a>
</g>
</g>
<!-- Node3 -->
<g id="Node000003" class="node">
<title>Node3</title>
<g id="a_Node000003"><a xlink:href="utils_8c.html#a972761ba8f47a6c3e7396a7c685158fc" target="_top" xlink:title="Returns a uniform random float [min,max].">
<polygon fill="white" stroke="#666666" points="637,-170 564,-170 564,-151 637,-151 637,-170"/>
<text text-anchor="middle" x="600.5" y="-158" font-family="Helvetica,sans-Serif" font-size="10.00">rand_uniform</text>
</a>
</g>
</g>
<!-- Node2&#45;&gt;Node3 -->
<g id="edge2_Node000002_Node000003" class="edge">
<title>Node2&#45;&gt;Node3</title>
<g id="a_edge2_Node000002_Node000003"><a xlink:title=" ">
<path fill="none" stroke="#63b8ff" d="M221.44,-198.01C239.88,-201.78 261.91,-205.64 282,-207.5 391.07,-217.57 422.44,-221.73 528,-192.5 543.5,-188.21 559.95,-181.05 573.15,-174.59"/>
<polygon fill="#63b8ff" stroke="#63b8ff" points="574.78,-177.69 582.13,-170.06 571.63,-171.44 574.78,-177.69"/>
</a>
</g>
</g>
<!-- Node4 -->
<g id="Node000004" class="node">
<title>Node4</title>
<g id="a_Node000004"><a xlink:href="dgp_8c.html#a60cad5226bcd3510b7c52b046c4cb5d6" target="_top" xlink:title="Returns a random connection.">
<polygon fill="white" stroke="#666666" points="393,-198 292,-198 292,-179 393,-179 393,-198"/>
<text text-anchor="middle" x="342.5" y="-186" font-family="Helvetica,sans-Serif" font-size="10.00">random_connection</text>
</a>
</g>
</g>
<!-- Node2&#45;&gt;Node4 -->
<g id="edge3_Node000002_Node000004" class="edge">
<title>Node2&#45;&gt;Node4</title>
<g id="a_edge3_Node000002_Node000004"><a xlink:title=" ">
<path fill="none" stroke="#63b8ff" d="M246.15,-188.5C257.76,-188.5 269.78,-188.5 281.21,-188.5"/>
<polygon fill="#63b8ff" stroke="#63b8ff" points="281.52,-192 291.52,-188.5 281.52,-185 281.52,-192"/>
</a>
</g>
</g>
<!-- Node4&#45;&gt;Node3 -->
<g id="edge4_Node000004_Node000003" class="edge">
<title>Node4&#45;&gt;Node3</title>
<g id="a_edge4_Node000004_Node000003"><a xlink:title=" ">
<path fill="none" stroke="#63b8ff" d="M393,-186.33C430.24,-184.31 482.48,-180.66 528,-174.5 536.47,-173.35 545.45,-171.84 554.08,-170.23"/>
<polygon fill="#63b8ff" stroke="#63b8ff" points="554.84,-173.64 564,-168.31 553.51,-166.77 554.84,-173.64"/>
</a>
</g>
</g>
<!-- Node5 -->
<g id="Node000005" class="node">
<title>Node5</title>
<g id="a_Node000005"><a xlink:href="utils_8c.html#a5e6304fd9b177f36684d4bb00af49f91" target="_top" xlink:title="Returns a uniform random integer [min,max] not inclusive of max.">
<polygon fill="white" stroke="#666666" points="528,-132 439,-132 439,-113 528,-113 528,-132"/>
<text text-anchor="middle" x="483.5" y="-120" font-family="Helvetica,sans-Serif" font-size="10.00">rand_uniform_int</text>
</a>
</g>
</g>
<!-- Node4&#45;&gt;Node5 -->
<g id="edge5_Node000004_Node000005" class="edge">
<title>Node4&#45;&gt;Node5</title>
<g id="a_edge5_Node000004_Node000005"><a xlink:title=" ">
<path fill="none" stroke="#63b8ff" d="M363.71,-178.9C387.18,-167.76 426.11,-149.28 452.96,-136.52"/>
<polygon fill="#63b8ff" stroke="#63b8ff" points="454.73,-139.56 462.26,-132.11 451.73,-133.24 454.73,-139.56"/>
</a>
</g>
</g>
<!-- Node5&#45;&gt;Node3 -->
<g id="edge6_Node000005_Node000003" class="edge">
<title>Node5&#45;&gt;Node3</title>
<g id="a_edge6_Node000005_Node000003"><a xlink:title=" ">
<path fill="none" stroke="#63b8ff" d="M513.52,-132.09C527.82,-136.81 545.26,-142.58 560.69,-147.68"/>
<polygon fill="#63b8ff" stroke="#63b8ff" points="559.9,-151.1 570.49,-150.91 562.09,-144.45 559.9,-151.1"/>
</a>
</g>
</g>
<!-- Node7&#45;&gt;Node3 -->
<g id="edge9_Node000007_Node000003" class="edge">
<title>Node7&#45;&gt;Node3</title>
<g id="a_edge9_Node000007_Node000003"><a xlink:title=" ">
<path fill="none" stroke="#63b8ff" d="M403.2,-138.26C449.2,-143.47 511.84,-150.57 553.87,-155.33"/>
<polygon fill="#63b8ff" stroke="#63b8ff" points="553.5,-158.81 563.83,-156.46 554.29,-151.86 553.5,-158.81"/>
</a>
</g>
</g>
<!-- Node7&#45;&gt;Node5 -->
<g id="edge10_Node000007_Node000005" class="edge">
<title>Node7&#45;&gt;Node5</title>
<g id="a_edge10_Node000007_Node000005"><a xlink:title=" ">
<path fill="none" stroke="#63b8ff" d="M403.26,-127.63C411.73,-127.08 420.4,-126.52 428.75,-125.98"/>
<polygon fill="#63b8ff" stroke="#63b8ff" points="428.99,-129.47 438.75,-125.33 428.54,-122.49 428.99,-129.47"/>
</a>
</g>
</g>
<!-- Node8&#45;&gt;Node3 -->
<g id="edge14_Node000008_Node000003" class="edge">
<title>Node8&#45;&gt;Node3</title>
<g id="a_edge14_Node000008_Node000003"><a xlink:title=" ">
<path fill="none" stroke="#63b8ff" d="M375.15,-82.47C412.97,-81.22 477.47,-82.86 528,-103.5 549.87,-112.43 570.47,-130.24 583.89,-143.58"/>
<polygon fill="#63b8ff" stroke="#63b8ff" points="581.44,-146.09 590.92,-150.83 586.47,-141.21 581.44,-146.09"/>
</a>
</g>
</g>
<!-- Node8&#45;&gt;Node5 -->
<g id="edge15_Node000008_Node000005" class="edge">
<title>Node8&#45;&gt;Node5</title>
<g id="a_edge15_Node000008_Node000005"><a xlink:title=" ">
<path fill="none" stroke="#63b8ff" d="M375.04,-93.12C393.63,-98.2 417.44,-104.71 437.92,-110.31"/>
<polygon fill="#63b8ff" stroke="#63b8ff" points="437.1,-113.72 447.67,-112.98 438.95,-106.96 437.1,-113.72"/>
</a>
</g>
</g>
<!-- Node9 -->
<g id="Node000009" class="node">
<title>Node9</title>
<g id="a_Node000009"><a xlink:href="utils_8h.html#a234dd9ca33bcf1fba3e675bc900abc88" target="_top" xlink:title="Returns a float clamped within the specified range.">
<polygon fill="white" stroke="#666666" points="505,-19 462,-19 462,0 505,0 505,-19"/>
<text text-anchor="middle" x="483.5" y="-7" font-family="Helvetica,sans-Serif" font-size="10.00">clamp</text>
</a>
</g>
</g>
<!-- Node8&#45;&gt;Node9 -->
<g id="edge12_Node000008_Node000009" class="edge">
<title>Node8&#45;&gt;Node9</title>
<g id="a_edge12_Node000008_Node000009"><a xlink:title=" ">
<path fill="none" stroke="#63b8ff" d="M358.01,-74.93C376.41,-63.01 409.32,-42.4 439,-27.5 443.34,-25.32 448,-23.19 452.61,-21.19"/>
<polygon fill="#63b8ff" stroke="#63b8ff" points="453.99,-24.41 461.86,-17.32 451.29,-17.95 453.99,-24.41"/>
</a>
</g>
</g>
<!-- Node10 -->
<g id="Node000010" class="node">
<title>Node10</title>
<g id="a_Node000010"><a xlink:href="utils_8c.html#a6a36d869b4a218a3f55cd19067f62c0f" target="_top" xlink:title="Returns a random Gaussian with specified mean and standard deviation.">
<polygon fill="white" stroke="#666666" points="518.5,-56 448.5,-56 448.5,-37 518.5,-37 518.5,-56"/>
<text text-anchor="middle" x="483.5" y="-44" font-family="Helvetica,sans-Serif" font-size="10.00">rand_normal</text>
</a>
</g>
</g>
<!-- Node8&#45;&gt;Node10 -->
<g id="edge13_Node000008_Node000010" class="edge">
<title>Node8&#45;&gt;Node10</title>
<g id="a_edge13_Node000008_Node000010"><a xlink:title=" ">
<path fill="none" stroke="#63b8ff" d="M375.04,-75.88C393.76,-70.76 417.79,-64.19 438.37,-58.56"/>
<polygon fill="#63b8ff" stroke="#63b8ff" points="439.44,-61.9 448.16,-55.89 437.59,-55.15 439.44,-61.9"/>
</a>
</g>
</g>
</g>
</svg>
