<?xml version="1.0" encoding="UTF-8" standalone="no"?>
<!DOCTYPE svg PUBLIC "-//W3C//DTD SVG 1.1//EN"
 "http://www.w3.org/Graphics/SVG/1.1/DTD/svg11.dtd">
<!-- Generated by graphviz version 2.43.0 (0)
 -->
<!-- Title: graph_param_set_max_t Pages: 1 -->
<svg width="922pt" height="210pt"
 viewBox="0.00 0.00 922.00 210.00" xmlns="http://www.w3.org/2000/svg" xmlns:xlink="http://www.w3.org/1999/xlink">
<g id="graph0" class="graph" transform="scale(1 1) rotate(0) translate(4 206)">
<title>graph_param_set_max_t</title>
<!-- Node1 -->
<g id="node1" class="node">
<title>Node1</title>
<g id="a_node1"><a xlink:title=" ">
<polygon fill="#bfbfbf" stroke="black" points="790,-60.5 790,-79.5 914,-79.5 914,-60.5 790,-60.5"/>
<text text-anchor="middle" x="852" y="-67.5" font-family="Helvetica,sans-Serif" font-size="10.00">graph_param_set_max_t</text>
</a>
</g>
</g>
<!-- Node2 -->
<g id="node2" class="node">
<title>Node2</title>
<g id="a_node2"><a xlink:href="cond__dgp_8h.html#aa9eb7a2cd9c34375726b5afa3aaff18e" target="_top" xlink:title="Initialises default DGP condition parameters.">
<polygon fill="none" stroke="black" points="623,-80.5 623,-99.5 754,-99.5 754,-80.5 623,-80.5"/>
<text text-anchor="middle" x="688.5" y="-87.5" font-family="Helvetica,sans-Serif" font-size="10.00">cond_dgp_param_defaults</text>
</a>
</g>
</g>
<!-- Node1&#45;&gt;Node2 -->
<g id="edge1" class="edge">
<title>Node1&#45;&gt;Node2</title>
<path fill="none" stroke="midnightblue" d="M779.95,-78.8C771.37,-79.86 762.63,-80.94 754.14,-81.99"/>
<polygon fill="midnightblue" stroke="midnightblue" points="780.45,-82.26 789.94,-77.56 779.59,-75.32 780.45,-82.26"/>
</g>
<!-- Node11 -->
<g id="node11" class="node">
<title>Node11</title>
<g id="a_node11"><a xlink:href="dgp_8h.html#a3208cc6d02deae06dd2faea89f32f873" target="_top" xlink:title="Sets the DGP graph parameters from a cJSON object.">
<polygon fill="none" stroke="black" points="628.5,-41.5 628.5,-60.5 748.5,-60.5 748.5,-41.5 628.5,-41.5"/>
<text text-anchor="middle" x="688.5" y="-48.5" font-family="Helvetica,sans-Serif" font-size="10.00">graph_args_json_import</text>
</a>
</g>
</g>
<!-- Node1&#45;&gt;Node11 -->
<g id="edge12" class="edge">
<title>Node1&#45;&gt;Node11</title>
<path fill="none" stroke="midnightblue" d="M779.96,-61.64C769.46,-60.41 758.73,-59.14 748.51,-57.94"/>
<polygon fill="midnightblue" stroke="midnightblue" points="779.6,-65.12 789.94,-62.82 780.42,-58.17 779.6,-65.12"/>
</g>
<!-- Node3 -->
<g id="node3" class="node">
<title>Node3</title>
<g id="a_node3"><a xlink:href="condition_8h.html#ac7f09d43efc7400318fe32c917a92292" target="_top" xlink:title="Initialises default condition parameters.">
<polygon fill="none" stroke="black" points="475,-90.5 475,-109.5 585,-109.5 585,-90.5 475,-90.5"/>
<text text-anchor="middle" x="530" y="-97.5" font-family="Helvetica,sans-Serif" font-size="10.00">cond_param_defaults</text>
</a>
</g>
</g>
<!-- Node2&#45;&gt;Node3 -->
<g id="edge2" class="edge">
<title>Node2&#45;&gt;Node3</title>
<path fill="none" stroke="midnightblue" d="M612.94,-94.76C603.67,-95.36 594.33,-95.95 585.44,-96.52"/>
<polygon fill="midnightblue" stroke="midnightblue" points="613.19,-98.26 622.94,-94.13 612.74,-91.27 613.19,-98.26"/>
</g>
<!-- Node4 -->
<g id="node4" class="node">
<title>Node4</title>
<g id="a_node4"><a xlink:href="param_8h.html#ac8218a170803be0bcd974764e7494b0e" target="_top" xlink:title="Initialises default XCSF parameters.">
<polygon fill="none" stroke="black" points="343.5,-106.5 343.5,-125.5 405.5,-125.5 405.5,-106.5 343.5,-106.5"/>
<text text-anchor="middle" x="374.5" y="-113.5" font-family="Helvetica,sans-Serif" font-size="10.00">param_init</text>
</a>
</g>
</g>
<!-- Node3&#45;&gt;Node4 -->
<g id="edge3" class="edge">
<title>Node3&#45;&gt;Node4</title>
<path fill="none" stroke="midnightblue" d="M464.69,-106.7C444.33,-108.83 422.76,-111.07 405.94,-112.83"/>
<polygon fill="midnightblue" stroke="midnightblue" points="465.3,-110.16 474.88,-105.64 464.57,-103.2 465.3,-110.16"/>
</g>
<!-- Node5 -->
<g id="node5" class="node">
<title>Node5</title>
<g id="a_node5"><a xlink:href="env__csv_8h.html#ab26a39a388f0ac83b9ac14726ad14b16" target="_top" xlink:title="Initialises a CSV input environment from a specified filename.">
<polygon fill="none" stroke="black" points="191,-182.5 191,-201.5 262,-201.5 262,-182.5 191,-182.5"/>
<text text-anchor="middle" x="226.5" y="-189.5" font-family="Helvetica,sans-Serif" font-size="10.00">env_csv_init</text>
</a>
</g>
</g>
<!-- Node4&#45;&gt;Node5 -->
<g id="edge4" class="edge">
<title>Node4&#45;&gt;Node5</title>
<path fill="none" stroke="midnightblue" d="M350.22,-131C330.81,-143.16 302.2,-160.3 276,-173 269,-176.39 261.23,-179.65 254,-182.48"/>
<polygon fill="midnightblue" stroke="midnightblue" points="352.12,-133.94 358.7,-125.63 348.38,-128.02 352.12,-133.94"/>
</g>
<!-- Node8 -->
<g id="node8" class="node">
<title>Node8</title>
<g id="a_node8"><a xlink:href="env__maze_8h.html#acad3cc6e9fe2b7e07e878f1f517ad3a6" target="_top" xlink:title="Initialises a maze environment from a specified file.">
<polygon fill="none" stroke="black" points="186.5,-144.5 186.5,-163.5 266.5,-163.5 266.5,-144.5 186.5,-144.5"/>
<text text-anchor="middle" x="226.5" y="-151.5" font-family="Helvetica,sans-Serif" font-size="10.00">env_maze_init</text>
</a>
</g>
</g>
<!-- Node4&#45;&gt;Node8 -->
<g id="edge7" class="edge">
<title>Node4&#45;&gt;Node8</title>
<path fill="none" stroke="midnightblue" d="M333.38,-126.44C311.75,-132.07 285.25,-138.97 264.18,-144.45"/>
<polygon fill="midnightblue" stroke="midnightblue" points="334.45,-129.78 343.25,-123.87 332.69,-123.01 334.45,-129.78"/>
</g>
<!-- Node9 -->
<g id="node9" class="node">
<title>Node9</title>
<g id="a_node9"><a xlink:href="env__mux_8h.html#acc5dab817235c6910ba43b9dc4158ccd" target="_top" xlink:title="Initialises a real multiplexer environment of specified length.">
<polygon fill="none" stroke="black" points="189.5,-106.5 189.5,-125.5 263.5,-125.5 263.5,-106.5 189.5,-106.5"/>
<text text-anchor="middle" x="226.5" y="-113.5" font-family="Helvetica,sans-Serif" font-size="10.00">env_mux_init</text>
</a>
</g>
</g>
<!-- Node4&#45;&gt;Node9 -->
<g id="edge9" class="edge">
<title>Node4&#45;&gt;Node9</title>
<path fill="none" stroke="midnightblue" d="M333.01,-116C311.27,-116 284.69,-116 263.65,-116"/>
<polygon fill="midnightblue" stroke="midnightblue" points="333.25,-119.5 343.25,-116 333.25,-112.5 333.25,-119.5"/>
</g>
<!-- Node10 -->
<g id="node10" class="node">
<title>Node10</title>
<g id="a_node10"><a xlink:href="classXCS.html#af1010afd63843f86ad1dd81fade9bd72" target="_top" xlink:title="Constructor.">
<polygon fill="none" stroke="black" points="194,-68.5 194,-87.5 259,-87.5 259,-68.5 194,-68.5"/>
<text text-anchor="middle" x="226.5" y="-75.5" font-family="Helvetica,sans-Serif" font-size="10.00">XCS::XCS</text>
</a>
</g>
</g>
<!-- Node4&#45;&gt;Node10 -->
<g id="edge11" class="edge">
<title>Node4&#45;&gt;Node10</title>
<path fill="none" stroke="midnightblue" d="M333.3,-105.54C309.95,-99.46 280.96,-91.91 259.23,-86.26"/>
<polygon fill="midnightblue" stroke="midnightblue" points="332.69,-108.99 343.25,-108.13 334.45,-102.22 332.69,-108.99"/>
</g>
<!-- Node6 -->
<g id="node6" class="node">
<title>Node6</title>
<g id="a_node6"><a xlink:href="env_8h.html#a9213fcf5fc422d6a77bce853b1d78dc9" target="_top" xlink:title="Initialises a built&#45;in problem environment.">
<polygon fill="none" stroke="black" points="82.5,-125.5 82.5,-144.5 132.5,-144.5 132.5,-125.5 82.5,-125.5"/>
<text text-anchor="middle" x="107.5" y="-132.5" font-family="Helvetica,sans-Serif" font-size="10.00">env_init</text>
</a>
</g>
</g>
<!-- Node5&#45;&gt;Node6 -->
<g id="edge5" class="edge">
<title>Node5&#45;&gt;Node6</title>
<path fill="none" stroke="midnightblue" d="M189.85,-178.66C185.49,-176.85 181.12,-174.94 177,-173 158.42,-164.25 137.93,-152.61 124.24,-144.52"/>
<polygon fill="midnightblue" stroke="midnightblue" points="188.72,-181.98 199.3,-182.47 191.34,-175.49 188.72,-181.98"/>
</g>
<!-- Node7 -->
<g id="node7" class="node">
<title>Node7</title>
<g id="a_node7"><a xlink:href="main_8c.html#a3c04138a5bfe5d72780bb7e82a18e627" target="_top" xlink:title=" ">
<polygon fill="none" stroke="black" points="0,-87.5 0,-106.5 38,-106.5 38,-87.5 0,-87.5"/>
<text text-anchor="middle" x="19" y="-94.5" font-family="Helvetica,sans-Serif" font-size="10.00">main</text>
</a>
</g>
</g>
<!-- Node6&#45;&gt;Node7 -->
<g id="edge6" class="edge">
<title>Node6&#45;&gt;Node7</title>
<path fill="none" stroke="midnightblue" d="M75.44,-121.36C62.89,-115.84 48.84,-109.67 38.03,-104.92"/>
<polygon fill="midnightblue" stroke="midnightblue" points="74.11,-124.59 84.67,-125.41 76.92,-118.18 74.11,-124.59"/>
</g>
<!-- Node8&#45;&gt;Node6 -->
<g id="edge8" class="edge">
<title>Node8&#45;&gt;Node6</title>
<path fill="none" stroke="midnightblue" d="M175.98,-145.96C160.93,-143.51 145.07,-140.94 132.51,-138.9"/>
<polygon fill="midnightblue" stroke="midnightblue" points="175.78,-149.47 186.22,-147.62 176.91,-142.56 175.78,-149.47"/>
</g>
<!-- Node9&#45;&gt;Node6 -->
<g id="edge10" class="edge">
<title>Node9&#45;&gt;Node6</title>
<path fill="none" stroke="midnightblue" d="M179.24,-123.51C163.36,-126.09 146.21,-128.88 132.78,-131.06"/>
<polygon fill="midnightblue" stroke="midnightblue" points="180.13,-126.91 189.44,-121.86 179.01,-120 180.13,-126.91"/>
</g>
<!-- Node12 -->
<g id="node12" class="node">
<title>Node12</title>
<g id="a_node12"><a xlink:href="cond__dgp_8h.html#ade1c67058d4786b83eb509bf0970f488" target="_top" xlink:title="Sets the DGP parameters from a cJSON object.">
<polygon fill="none" stroke="black" points="473,-33 473,-63 587,-63 587,-33 473,-33"/>
<text text-anchor="start" x="481" y="-51" font-family="Helvetica,sans-Serif" font-size="10.00">cond_dgp_param_json</text>
<text text-anchor="middle" x="530" y="-40" font-family="Helvetica,sans-Serif" font-size="10.00">_import</text>
</a>
</g>
</g>
<!-- Node11&#45;&gt;Node12 -->
<g id="edge13" class="edge">
<title>Node11&#45;&gt;Node12</title>
<path fill="none" stroke="midnightblue" d="M618.08,-49.67C607.73,-49.47 597.18,-49.27 587.15,-49.08"/>
<polygon fill="midnightblue" stroke="midnightblue" points="618.27,-53.17 628.33,-49.87 618.4,-46.17 618.27,-53.17"/>
</g>
<!-- Node13 -->
<g id="node13" class="node">
<title>Node13</title>
<g id="a_node13"><a xlink:href="condition_8h.html#aac2f9eaa3555b7e4b8d6106fe46f7d41" target="_top" xlink:title="Sets the condition parameters from a cJSON object.">
<polygon fill="none" stroke="black" points="312,-38.5 312,-57.5 437,-57.5 437,-38.5 312,-38.5"/>
<text text-anchor="middle" x="374.5" y="-45.5" font-family="Helvetica,sans-Serif" font-size="10.00">cond_param_json_import</text>
</a>
</g>
</g>
<!-- Node12&#45;&gt;Node13 -->
<g id="edge14" class="edge">
<title>Node12&#45;&gt;Node13</title>
<path fill="none" stroke="midnightblue" d="M462.56,-48C454.14,-48 445.55,-48 437.21,-48"/>
<polygon fill="midnightblue" stroke="midnightblue" points="462.71,-51.5 472.71,-48 462.71,-44.5 462.71,-51.5"/>
</g>
<!-- Node16 -->
<g id="node16" class="node">
<title>Node16</title>
<g id="a_node16"><a xlink:href="classXCS.html#ab16720d21296ba0832318f67e55522e3" target="_top" xlink:title="Sets the condition type and initialisation arguments.">
<polygon fill="none" stroke="black" points="324,-0.5 324,-19.5 425,-19.5 425,-0.5 324,-0.5"/>
<text text-anchor="middle" x="374.5" y="-7.5" font-family="Helvetica,sans-Serif" font-size="10.00">XCS::set_condition</text>
</a>
</g>
</g>
<!-- Node12&#45;&gt;Node16 -->
<g id="edge18" class="edge">
<title>Node12&#45;&gt;Node16</title>
<path fill="none" stroke="midnightblue" d="M462.98,-31.66C446.28,-27.52 428.88,-23.21 414.04,-19.54"/>
<polygon fill="midnightblue" stroke="midnightblue" points="462.17,-35.06 472.71,-34.07 463.85,-28.27 462.17,-35.06"/>
</g>
<!-- Node14 -->
<g id="node14" class="node">
<title>Node14</title>
<g id="a_node14"><a xlink:href="param_8h.html#a130260988988535419aee8abe51986c1" target="_top" xlink:title="Sets the parameters from a json formatted string.">
<polygon fill="none" stroke="black" points="177,-30.5 177,-49.5 276,-49.5 276,-30.5 177,-30.5"/>
<text text-anchor="middle" x="226.5" y="-37.5" font-family="Helvetica,sans-Serif" font-size="10.00">param_json_import</text>
</a>
</g>
</g>
<!-- Node13&#45;&gt;Node14 -->
<g id="edge15" class="edge">
<title>Node13&#45;&gt;Node14</title>
<path fill="none" stroke="midnightblue" d="M301.55,-44.06C292.97,-43.59 284.37,-43.12 276.23,-42.67"/>
<polygon fill="midnightblue" stroke="midnightblue" points="301.41,-47.55 311.58,-44.61 301.79,-40.57 301.41,-47.55"/>
</g>
<!-- Node15 -->
<g id="node15" class="node">
<title>Node15</title>
<g id="a_node15"><a xlink:href="config_8h.html#a045a64a30d99a4bef2ebfd9b54aa9698" target="_top" xlink:title="Reads the specified configuration file.">
<polygon fill="none" stroke="black" points="74,-68.5 74,-87.5 141,-87.5 141,-68.5 74,-68.5"/>
<text text-anchor="middle" x="107.5" y="-75.5" font-family="Helvetica,sans-Serif" font-size="10.00">config_read</text>
</a>
</g>
</g>
<!-- Node14&#45;&gt;Node15 -->
<g id="edge16" class="edge">
<title>Node14&#45;&gt;Node15</title>
<path fill="none" stroke="midnightblue" d="M186.46,-52.68C170.65,-57.81 152.7,-63.64 138.01,-68.41"/>
<polygon fill="midnightblue" stroke="midnightblue" points="187.55,-56.01 195.98,-49.59 185.38,-49.35 187.55,-56.01"/>
</g>
<!-- Node15&#45;&gt;Node7 -->
<g id="edge17" class="edge">
<title>Node15&#45;&gt;Node7</title>
<path fill="none" stroke="midnightblue" d="M64.02,-87.33C54.92,-89.33 45.78,-91.34 38.2,-93"/>
<polygon fill="midnightblue" stroke="midnightblue" points="64.78,-90.75 73.8,-85.18 63.28,-83.91 64.78,-90.75"/>
</g>
</g>
</svg>
