<?xml version="1.0" encoding="UTF-8" standalone="no"?>
<!DOCTYPE svg PUBLIC "-//W3C//DTD SVG 1.1//EN"
 "http://www.w3.org/Graphics/SVG/1.1/DTD/svg11.dtd">
<!-- Generated by graphviz version 2.43.0 (0)
 -->
<!-- Title: graph_update Pages: 1 -->
<svg width="418pt" height="64pt"
 viewBox="0.00 0.00 418.00 64.00" xmlns="http://www.w3.org/2000/svg" xmlns:xlink="http://www.w3.org/1999/xlink">
<g id="graph0" class="graph" transform="scale(1 1) rotate(0) translate(4 60)">
<title>graph_update</title>
<!-- Node1 -->
<g id="Node000001" class="node">
<title>Node1</title>
<g id="a_Node000001"><a xlink:title="Updates a DGP graph T cycles.">
<polygon fill="#999999" stroke="#666666" points="75,-37 0,-37 0,-18 75,-18 75,-37"/>
<text text-anchor="middle" x="37.5" y="-25" font-family="Helvetica,sans-Serif" font-size="10.00">graph_update</text>
</a>
</g>
</g>
<!-- Node2 -->
<g id="Node000002" class="node">
<title>Node2</title>
<g id="a_Node000002"><a xlink:href="dgp_8c.html#aee734e2659ea39d69c4fdd8f567ef63c" target="_top" xlink:title="Resets the states to their initial state.">
<polygon fill="white" stroke="#666666" points="198.5,-56 130.5,-56 130.5,-37 198.5,-37 198.5,-56"/>
<text text-anchor="middle" x="164.5" y="-44" font-family="Helvetica,sans-Serif" font-size="10.00">graph_reset</text>
</a>
</g>
</g>
<!-- Node1&#45;&gt;Node2 -->
<g id="edge1_Node000001_Node000002" class="edge">
<title>Node1&#45;&gt;Node2</title>
<g id="a_edge1_Node000001_Node000002"><a xlink:title=" ">
<path fill="none" stroke="#63b8ff" d="M75.33,-33.1C89.35,-35.23 105.46,-37.68 120.04,-39.89"/>
<polygon fill="#63b8ff" stroke="#63b8ff" points="119.93,-43.42 130.34,-41.46 120.98,-36.5 119.93,-43.42"/>
</a>
</g>
</g>
<!-- Node3 -->
<g id="Node000003" class="node">
<title>Node3</title>
<g id="a_Node000003"><a xlink:href="dgp_8c.html#a3086c105976334ceda0e9b8e97964220" target="_top" xlink:title="Performs a synchronous update.">
<polygon fill="white" stroke="#666666" points="218,-19 111,-19 111,0 218,0 218,-19"/>
<text text-anchor="middle" x="164.5" y="-7" font-family="Helvetica,sans-Serif" font-size="10.00">synchronous_update</text>
</a>
</g>
</g>
<!-- Node1&#45;&gt;Node3 -->
<g id="edge2_Node000001_Node000003" class="edge">
<title>Node1&#45;&gt;Node3</title>
<g id="a_edge2_Node000001_Node000003"><a xlink:title=" ">
<path fill="none" stroke="#63b8ff" d="M75.33,-22.2C83.3,-21.05 91.94,-19.8 100.6,-18.56"/>
<polygon fill="#63b8ff" stroke="#63b8ff" points="101.33,-21.99 110.73,-17.1 100.33,-15.06 101.33,-21.99"/>
</a>
</g>
</g>
<!-- Node4 -->
<g id="Node000004" class="node">
<title>Node4</title>
<g id="a_Node000004"><a xlink:href="dgp_8c.html#ace96d089b13bac9a14edeb6406b6d8cb" target="_top" xlink:title="Returns the result from applying a specified activation function.">
<polygon fill="white" stroke="#666666" points="331,-19 254,-19 254,0 331,0 331,-19"/>
<text text-anchor="middle" x="292.5" y="-7" font-family="Helvetica,sans-Serif" font-size="10.00">node_activate</text>
</a>
</g>
</g>
<!-- Node3&#45;&gt;Node4 -->
<g id="edge3_Node000003_Node000004" class="edge">
<title>Node3&#45;&gt;Node4</title>
<g id="a_edge3_Node000003_Node000004"><a xlink:title=" ">
<path fill="none" stroke="#63b8ff" d="M218.21,-9.5C226.74,-9.5 235.53,-9.5 243.93,-9.5"/>
<polygon fill="#63b8ff" stroke="#63b8ff" points="243.95,-13 253.95,-9.5 243.95,-6 243.95,-13"/>
</a>
</g>
</g>
<!-- Node5 -->
<g id="Node000005" class="node">
<title>Node5</title>
<g id="a_Node000005"><a xlink:href="utils_8h.html#a234dd9ca33bcf1fba3e675bc900abc88" target="_top" xlink:title="Returns a float clamped within the specified range.">
<polygon fill="white" stroke="#666666" points="410,-19 367,-19 367,0 410,0 410,-19"/>
<text text-anchor="middle" x="388.5" y="-7" font-family="Helvetica,sans-Serif" font-size="10.00">clamp</text>
</a>
</g>
</g>
<!-- Node4&#45;&gt;Node5 -->
<g id="edge4_Node000004_Node000005" class="edge">
<title>Node4&#45;&gt;Node5</title>
<g id="a_edge4_Node000004_Node000005"><a xlink:title=" ">
<path fill="none" stroke="#63b8ff" d="M331.19,-9.5C339.64,-9.5 348.52,-9.5 356.65,-9.5"/>
<polygon fill="#63b8ff" stroke="#63b8ff" points="356.83,-13 366.83,-9.5 356.83,-6 356.83,-13"/>
</a>
</g>
</g>
</g>
</svg>
