<?xml version="1.0" encoding="UTF-8" standalone="no"?>
<!DOCTYPE svg PUBLIC "-//W3C//DTD SVG 1.1//EN"
 "http://www.w3.org/Graphics/SVG/1.1/DTD/svg11.dtd">
<!-- Generated by graphviz version 2.43.0 (0)
 -->
<!-- Title: graph_param_set_n_inputs Pages: 1 -->
<svg width="829pt" height="142pt"
 viewBox="0.00 0.00 829.00 142.00" xmlns="http://www.w3.org/2000/svg" xmlns:xlink="http://www.w3.org/1999/xlink">
<g id="graph0" class="graph" transform="scale(1 1) rotate(0) translate(4 138)">
<title>graph_param_set_n_inputs</title>
<!-- Node1 -->
<g id="node1" class="node">
<title>Node1</title>
<g id="a_node1"><a xlink:title=" ">
<polygon fill="#bfbfbf" stroke="black" points="687,-38.5 687,-57.5 821,-57.5 821,-38.5 687,-38.5"/>
<text text-anchor="middle" x="754" y="-45.5" font-family="Helvetica,sans-Serif" font-size="10.00">graph_param_set_n_inputs</text>
</a>
</g>
</g>
<!-- Node2 -->
<g id="node2" class="node">
<title>Node2</title>
<g id="a_node2"><a xlink:href="condition_8c.html#a55966dbe2d7405bc8457c44adf1a7e55" target="_top" xlink:title="Initialises default DGP condition parameters.">
<polygon fill="none" stroke="black" points="520,-57.5 520,-76.5 651,-76.5 651,-57.5 520,-57.5"/>
<text text-anchor="middle" x="585.5" y="-64.5" font-family="Helvetica,sans-Serif" font-size="10.00">cond_param_defaults_dgp</text>
</a>
</g>
</g>
<!-- Node1&#45;&gt;Node2 -->
<g id="edge1" class="edge">
<title>Node1&#45;&gt;Node2</title>
<path fill="none" stroke="midnightblue" d="M676.76,-56.7C668.22,-57.68 659.57,-58.66 651.2,-59.62"/>
<polygon fill="midnightblue" stroke="midnightblue" points="677.18,-60.18 686.72,-55.56 676.38,-53.22 677.18,-60.18"/>
</g>
<!-- Node11 -->
<g id="node11" class="node">
<title>Node11</title>
<g id="a_node11"><a xlink:href="classXCS.html#aea930ef16731a87eec08c4056e964534" target="_top" xlink:title="Sets parameters used by dynamical GP graph conditions.">
<polygon fill="none" stroke="black" points="524.5,-19.5 524.5,-38.5 646.5,-38.5 646.5,-19.5 524.5,-19.5"/>
<text text-anchor="middle" x="585.5" y="-26.5" font-family="Helvetica,sans-Serif" font-size="10.00">XCS::unpack_cond_dgp</text>
</a>
</g>
</g>
<!-- Node1&#45;&gt;Node11 -->
<g id="edge12" class="edge">
<title>Node1&#45;&gt;Node11</title>
<path fill="none" stroke="midnightblue" d="M676.7,-39.29C666.61,-38.14 656.38,-36.97 646.62,-35.86"/>
<polygon fill="midnightblue" stroke="midnightblue" points="676.38,-42.78 686.72,-40.44 677.18,-35.82 676.38,-42.78"/>
</g>
<!-- Node3 -->
<g id="node3" class="node">
<title>Node3</title>
<g id="a_node3"><a xlink:href="condition_8h.html#ac7f09d43efc7400318fe32c917a92292" target="_top" xlink:title="Initialises default condition parameters.">
<polygon fill="none" stroke="black" points="374,-57.5 374,-76.5 484,-76.5 484,-57.5 374,-57.5"/>
<text text-anchor="middle" x="429" y="-64.5" font-family="Helvetica,sans-Serif" font-size="10.00">cond_param_defaults</text>
</a>
</g>
</g>
<!-- Node2&#45;&gt;Node3 -->
<g id="edge2" class="edge">
<title>Node2&#45;&gt;Node3</title>
<path fill="none" stroke="midnightblue" d="M509.76,-67C501.1,-67 492.4,-67 484.09,-67"/>
<polygon fill="midnightblue" stroke="midnightblue" points="509.87,-70.5 519.87,-67 509.87,-63.5 509.87,-70.5"/>
</g>
<!-- Node4 -->
<g id="node4" class="node">
<title>Node4</title>
<g id="a_node4"><a xlink:href="param_8h.html#ac8218a170803be0bcd974764e7494b0e" target="_top" xlink:title="Initialises default XCSF parameters.">
<polygon fill="none" stroke="black" points="276,-57.5 276,-76.5 338,-76.5 338,-57.5 276,-57.5"/>
<text text-anchor="middle" x="307" y="-64.5" font-family="Helvetica,sans-Serif" font-size="10.00">param_init</text>
</a>
</g>
</g>
<!-- Node3&#45;&gt;Node4 -->
<g id="edge3" class="edge">
<title>Node3&#45;&gt;Node4</title>
<path fill="none" stroke="midnightblue" d="M363.83,-67C354.86,-67 346.02,-67 338.1,-67"/>
<polygon fill="midnightblue" stroke="midnightblue" points="363.97,-70.5 373.97,-67 363.97,-63.5 363.97,-70.5"/>
</g>
<!-- Node5 -->
<g id="node5" class="node">
<title>Node5</title>
<g id="a_node5"><a xlink:href="env__csv_8h.html#ab26a39a388f0ac83b9ac14726ad14b16" target="_top" xlink:title="Initialises a CSV input environment from a specified filename.">
<polygon fill="none" stroke="black" points="164.5,-114.5 164.5,-133.5 235.5,-133.5 235.5,-114.5 164.5,-114.5"/>
<text text-anchor="middle" x="200" y="-121.5" font-family="Helvetica,sans-Serif" font-size="10.00">env_csv_init</text>
</a>
</g>
</g>
<!-- Node4&#45;&gt;Node5 -->
<g id="edge4" class="edge">
<title>Node4&#45;&gt;Node5</title>
<path fill="none" stroke="midnightblue" d="M281.38,-81.71C269.07,-88.93 253.87,-97.64 240,-105 234.01,-108.18 227.41,-111.47 221.38,-114.4"/>
<polygon fill="midnightblue" stroke="midnightblue" points="283.34,-84.62 290.17,-76.53 279.78,-78.6 283.34,-84.62"/>
</g>
<!-- Node8 -->
<g id="node8" class="node">
<title>Node8</title>
<g id="a_node8"><a xlink:href="env__maze_8h.html#acad3cc6e9fe2b7e07e878f1f517ad3a6" target="_top" xlink:title="Initialises a maze environment from a specified file.">
<polygon fill="none" stroke="black" points="160,-76.5 160,-95.5 240,-95.5 240,-76.5 160,-76.5"/>
<text text-anchor="middle" x="200" y="-83.5" font-family="Helvetica,sans-Serif" font-size="10.00">env_maze_init</text>
</a>
</g>
</g>
<!-- Node4&#45;&gt;Node8 -->
<g id="edge7" class="edge">
<title>Node4&#45;&gt;Node8</title>
<path fill="none" stroke="midnightblue" d="M265.89,-74.26C257.44,-75.79 248.53,-77.4 240.11,-78.92"/>
<polygon fill="midnightblue" stroke="midnightblue" points="266.69,-77.67 275.91,-72.44 265.45,-70.78 266.69,-77.67"/>
</g>
<!-- Node9 -->
<g id="node9" class="node">
<title>Node9</title>
<g id="a_node9"><a xlink:href="env__mux_8h.html#acc5dab817235c6910ba43b9dc4158ccd" target="_top" xlink:title="Initialises a real multiplexer environment of specified length.">
<polygon fill="none" stroke="black" points="163,-38.5 163,-57.5 237,-57.5 237,-38.5 163,-38.5"/>
<text text-anchor="middle" x="200" y="-45.5" font-family="Helvetica,sans-Serif" font-size="10.00">env_mux_init</text>
</a>
</g>
</g>
<!-- Node4&#45;&gt;Node9 -->
<g id="edge9" class="edge">
<title>Node4&#45;&gt;Node9</title>
<path fill="none" stroke="midnightblue" d="M265.9,-59.74C256.41,-58.03 246.35,-56.21 237.05,-54.52"/>
<polygon fill="midnightblue" stroke="midnightblue" points="265.45,-63.22 275.91,-61.56 266.69,-56.33 265.45,-63.22"/>
</g>
<!-- Node10 -->
<g id="node10" class="node">
<title>Node10</title>
<g id="a_node10"><a xlink:href="classXCS.html#af1010afd63843f86ad1dd81fade9bd72" target="_top" xlink:title="Constructor.">
<polygon fill="none" stroke="black" points="167.5,-0.5 167.5,-19.5 232.5,-19.5 232.5,-0.5 167.5,-0.5"/>
<text text-anchor="middle" x="200" y="-7.5" font-family="Helvetica,sans-Serif" font-size="10.00">XCS::XCS</text>
</a>
</g>
</g>
<!-- Node4&#45;&gt;Node10 -->
<g id="edge11" class="edge">
<title>Node4&#45;&gt;Node10</title>
<path fill="none" stroke="midnightblue" d="M281.38,-52.29C269.07,-45.07 253.87,-36.36 240,-29 234.01,-25.82 227.41,-22.53 221.38,-19.6"/>
<polygon fill="midnightblue" stroke="midnightblue" points="279.78,-55.4 290.17,-57.47 283.34,-49.38 279.78,-55.4"/>
</g>
<!-- Node6 -->
<g id="node6" class="node">
<title>Node6</title>
<g id="a_node6"><a xlink:href="env_8h.html#a9213fcf5fc422d6a77bce853b1d78dc9" target="_top" xlink:title="Initialises a built&#45;in problem environment.">
<polygon fill="none" stroke="black" points="74,-76.5 74,-95.5 124,-95.5 124,-76.5 74,-76.5"/>
<text text-anchor="middle" x="99" y="-83.5" font-family="Helvetica,sans-Serif" font-size="10.00">env_init</text>
</a>
</g>
</g>
<!-- Node5&#45;&gt;Node6 -->
<g id="edge5" class="edge">
<title>Node5&#45;&gt;Node6</title>
<path fill="none" stroke="midnightblue" d="M164.68,-110.83C151.37,-105.72 136.45,-99.99 124.29,-95.32"/>
<polygon fill="midnightblue" stroke="midnightblue" points="163.43,-114.1 174.02,-114.41 165.94,-107.56 163.43,-114.1"/>
</g>
<!-- Node7 -->
<g id="node7" class="node">
<title>Node7</title>
<g id="a_node7"><a xlink:href="main_8c.html#a3c04138a5bfe5d72780bb7e82a18e627" target="_top" xlink:title=" ">
<polygon fill="none" stroke="black" points="0,-76.5 0,-95.5 38,-95.5 38,-76.5 0,-76.5"/>
<text text-anchor="middle" x="19" y="-83.5" font-family="Helvetica,sans-Serif" font-size="10.00">main</text>
</a>
</g>
</g>
<!-- Node6&#45;&gt;Node7 -->
<g id="edge6" class="edge">
<title>Node6&#45;&gt;Node7</title>
<path fill="none" stroke="midnightblue" d="M63.72,-86C54.97,-86 45.89,-86 38.29,-86"/>
<polygon fill="midnightblue" stroke="midnightblue" points="63.75,-89.5 73.75,-86 63.75,-82.5 63.75,-89.5"/>
</g>
<!-- Node8&#45;&gt;Node6 -->
<g id="edge8" class="edge">
<title>Node8&#45;&gt;Node6</title>
<path fill="none" stroke="midnightblue" d="M149.81,-86C140.84,-86 131.85,-86 124.03,-86"/>
<polygon fill="midnightblue" stroke="midnightblue" points="149.87,-89.5 159.87,-86 149.87,-82.5 149.87,-89.5"/>
</g>
<!-- Node9&#45;&gt;Node6 -->
<g id="edge10" class="edge">
<title>Node9&#45;&gt;Node6</title>
<path fill="none" stroke="midnightblue" d="M164.68,-61.17C151.37,-66.28 136.45,-72.01 124.29,-76.68"/>
<polygon fill="midnightblue" stroke="midnightblue" points="165.94,-64.44 174.02,-57.59 163.43,-57.9 165.94,-64.44"/>
</g>
<!-- Node12 -->
<g id="node12" class="node">
<title>Node12</title>
<g id="a_node12"><a xlink:href="classXCS.html#a4eb6acf0a155d5e94fa843d7523df9b1" target="_top" xlink:title="Sets the condition type and initialisation arguments.">
<polygon fill="none" stroke="black" points="378.5,-19.5 378.5,-38.5 479.5,-38.5 479.5,-19.5 378.5,-19.5"/>
<text text-anchor="middle" x="429" y="-26.5" font-family="Helvetica,sans-Serif" font-size="10.00">XCS::set_condition</text>
</a>
</g>
</g>
<!-- Node11&#45;&gt;Node12 -->
<g id="edge13" class="edge">
<title>Node11&#45;&gt;Node12</title>
<path fill="none" stroke="midnightblue" d="M514.2,-29C502.58,-29 490.75,-29 479.77,-29"/>
<polygon fill="midnightblue" stroke="midnightblue" points="514.32,-32.5 524.32,-29 514.32,-25.5 514.32,-32.5"/>
</g>
</g>
</svg>
