<?xml version="1.0" encoding="UTF-8" standalone="no"?>
<!DOCTYPE svg PUBLIC "-//W3C//DTD SVG 1.1//EN"
 "http://www.w3.org/Graphics/SVG/1.1/DTD/svg11.dtd">
<!-- Generated by graphviz version 2.43.0 (0)
 -->
<!-- Title: graph_rand Pages: 1 -->
<svg width="360pt" height="175pt"
 viewBox="0.00 0.00 360.00 175.00" xmlns="http://www.w3.org/2000/svg" xmlns:xlink="http://www.w3.org/1999/xlink">
<g id="graph0" class="graph" transform="scale(1 1) rotate(0) translate(4 171)">
<title>graph_rand</title>
<!-- Node1 -->
<g id="Node000001" class="node">
<title>Node1</title>
<g id="a_Node000001"><a xlink:title="Randomises a specified DGP graph.">
<polygon fill="#999999" stroke="#666666" points="352,-93 287,-93 287,-74 352,-74 352,-93"/>
<text text-anchor="middle" x="319.5" y="-81" font-family="Helvetica,sans-Serif" font-size="10.00">graph_rand</text>
</a>
</g>
</g>
<!-- Node2 -->
<g id="Node000002" class="node">
<title>Node2</title>
<g id="a_Node000002"><a xlink:href="cond__dgp_8c.html#a585a3476b4473b1b19159a7d55daa6ae" target="_top" xlink:title="Generates a dynamical GP graph that matches the current input.">
<polygon fill="white" stroke="#666666" points="244.5,-167 156.5,-167 156.5,-148 244.5,-148 244.5,-167"/>
<text text-anchor="middle" x="200.5" y="-155" font-family="Helvetica,sans-Serif" font-size="10.00">cond_dgp_cover</text>
</a>
</g>
</g>
<!-- Node1&#45;&gt;Node2 -->
<g id="edge1_Node000001_Node000002" class="edge">
<title>Node1&#45;&gt;Node2</title>
<g id="a_edge1_Node000001_Node000002"><a xlink:title=" ">
<path fill="none" stroke="#63b8ff" d="M301.54,-100.41C288.59,-112.59 269.81,-128.71 251,-139.5 245.37,-142.73 239.05,-145.55 232.87,-147.95"/>
<polygon fill="#63b8ff" stroke="#63b8ff" points="304.03,-102.88 308.81,-93.42 299.17,-97.84 304.03,-102.88"/>
</a>
</g>
</g>
<!-- Node3 -->
<g id="Node000003" class="node">
<title>Node3</title>
<g id="a_Node000003"><a xlink:href="cond__dgp_8c.html#a36eb6c8e497eb217ea0423ffce18e8e4" target="_top" xlink:title="Creates and initialises a dynamical GP graph condition.">
<polygon fill="white" stroke="#666666" points="239,-130 162,-130 162,-111 239,-111 239,-130"/>
<text text-anchor="middle" x="200.5" y="-118" font-family="Helvetica,sans-Serif" font-size="10.00">cond_dgp_init</text>
</a>
</g>
</g>
<!-- Node1&#45;&gt;Node3 -->
<g id="edge2_Node000001_Node000003" class="edge">
<title>Node1&#45;&gt;Node3</title>
<g id="a_edge2_Node000001_Node000003"><a xlink:title=" ">
<path fill="none" stroke="#63b8ff" d="M278.65,-96.1C263.37,-100.93 246.2,-106.37 231.93,-110.88"/>
<polygon fill="#63b8ff" stroke="#63b8ff" points="279.89,-99.38 288.37,-93.03 277.78,-92.71 279.89,-99.38"/>
</a>
</g>
</g>
<!-- Node4 -->
<g id="Node000004" class="node">
<title>Node4</title>
<g id="a_Node000004"><a xlink:href="dgp_8c.html#a6ffd1789a8d7f668658d61f97f6de1fc" target="_top" xlink:title="Creates a DGP graph from a cJSON object.">
<polygon fill="white" stroke="#666666" points="248.5,-93 152.5,-93 152.5,-74 248.5,-74 248.5,-93"/>
<text text-anchor="middle" x="200.5" y="-81" font-family="Helvetica,sans-Serif" font-size="10.00">graph_json_import</text>
</a>
</g>
</g>
<!-- Node1&#45;&gt;Node4 -->
<g id="edge3_Node000001_Node000004" class="edge">
<title>Node1&#45;&gt;Node4</title>
<g id="a_edge3_Node000001_Node000004"><a xlink:title=" ">
<path fill="none" stroke="#63b8ff" d="M276.82,-83.5C267.67,-83.5 257.92,-83.5 248.57,-83.5"/>
<polygon fill="#63b8ff" stroke="#63b8ff" points="276.84,-87 286.84,-83.5 276.84,-80 276.84,-87"/>
</a>
</g>
</g>
<!-- Node7 -->
<g id="Node000007" class="node">
<title>Node7</title>
<g id="a_Node000007"><a xlink:href="rule__dgp_8c.html#ac1f0b0c11b92852e82b00ad7b4bb169f" target="_top" xlink:title=" ">
<polygon fill="white" stroke="#666666" points="251,-56 150,-56 150,-37 251,-37 251,-56"/>
<text text-anchor="middle" x="200.5" y="-44" font-family="Helvetica,sans-Serif" font-size="10.00">rule_dgp_act_cover</text>
</a>
</g>
</g>
<!-- Node1&#45;&gt;Node7 -->
<g id="edge6_Node000001_Node000007" class="edge">
<title>Node1&#45;&gt;Node7</title>
<g id="a_edge6_Node000001_Node000007"><a xlink:title=" ">
<path fill="none" stroke="#63b8ff" d="M278.65,-70.9C263.37,-66.07 246.2,-60.63 231.93,-56.12"/>
<polygon fill="#63b8ff" stroke="#63b8ff" points="277.78,-74.29 288.37,-73.97 279.89,-67.62 277.78,-74.29"/>
</a>
</g>
</g>
<!-- Node8 -->
<g id="Node000008" class="node">
<title>Node8</title>
<g id="a_Node000008"><a xlink:href="rule__dgp_8c.html#a242104780e9757fc9b303b8850f56382" target="_top" xlink:title=" ">
<polygon fill="white" stroke="#666666" points="249.5,-19 151.5,-19 151.5,0 249.5,0 249.5,-19"/>
<text text-anchor="middle" x="200.5" y="-7" font-family="Helvetica,sans-Serif" font-size="10.00">rule_dgp_cond_init</text>
</a>
</g>
</g>
<!-- Node1&#45;&gt;Node8 -->
<g id="edge7_Node000001_Node000008" class="edge">
<title>Node1&#45;&gt;Node8</title>
<g id="a_edge7_Node000001_Node000008"><a xlink:title=" ">
<path fill="none" stroke="#63b8ff" d="M301.54,-66.59C288.59,-54.41 269.81,-38.29 251,-27.5 245.37,-24.27 239.05,-21.45 232.87,-19.05"/>
<polygon fill="#63b8ff" stroke="#63b8ff" points="299.17,-69.16 308.81,-73.58 304.03,-64.12 299.17,-69.16"/>
</a>
</g>
</g>
<!-- Node5 -->
<g id="Node000005" class="node">
<title>Node5</title>
<g id="a_Node000005"><a xlink:href="cond__dgp_8c.html#ad5fd6cccf1ece3ebaac69644a86bcfb5" target="_top" xlink:title="Creates a DGP condition from a cJSON object.">
<polygon fill="white" stroke="#666666" points="114,-114 0,-114 0,-95 114,-95 114,-114"/>
<text text-anchor="middle" x="57" y="-102" font-family="Helvetica,sans-Serif" font-size="10.00">cond_dgp_json_import</text>
</a>
</g>
</g>
<!-- Node4&#45;&gt;Node5 -->
<g id="edge4_Node000004_Node000005" class="edge">
<title>Node4&#45;&gt;Node5</title>
<g id="a_edge4_Node000004_Node000005"><a xlink:title=" ">
<path fill="none" stroke="#63b8ff" d="M142.45,-91.97C133.15,-93.35 123.52,-94.78 114.24,-96.15"/>
<polygon fill="#63b8ff" stroke="#63b8ff" points="143,-95.42 152.38,-90.49 141.98,-88.5 143,-95.42"/>
</a>
</g>
</g>
<!-- Node6 -->
<g id="Node000006" class="node">
<title>Node6</title>
<g id="a_Node000006"><a xlink:href="rule__dgp_8c.html#afc876278ab001399d3cd9b2d4a097aa8" target="_top" xlink:title=" ">
<polygon fill="white" stroke="#666666" points="108.5,-76.5 5.5,-76.5 5.5,-46.5 108.5,-46.5 108.5,-76.5"/>
<text text-anchor="start" x="13.5" y="-64.5" font-family="Helvetica,sans-Serif" font-size="10.00">rule_dgp_cond_json</text>
<text text-anchor="middle" x="57" y="-53.5" font-family="Helvetica,sans-Serif" font-size="10.00">_import</text>
</a>
</g>
</g>
<!-- Node4&#45;&gt;Node6 -->
<g id="edge5_Node000004_Node000006" class="edge">
<title>Node4&#45;&gt;Node6</title>
<g id="a_edge5_Node000004_Node000006"><a xlink:title=" ">
<path fill="none" stroke="#63b8ff" d="M142.35,-74.61C131.25,-72.89 119.68,-71.09 108.8,-69.4"/>
<polygon fill="#63b8ff" stroke="#63b8ff" points="141.96,-78.1 152.38,-76.17 143.04,-71.18 141.96,-78.1"/>
</a>
</g>
</g>
</g>
</svg>
