<?xml version="1.0" encoding="UTF-8" standalone="no"?>
<!DOCTYPE svg PUBLIC "-//W3C//DTD SVG 1.1//EN"
 "http://www.w3.org/Graphics/SVG/1.1/DTD/svg11.dtd">
<!-- Generated by graphviz version 2.43.0 (0)
 -->
<!-- Title: graph_init Pages: 1 -->
<svg width="390pt" height="46pt"
 viewBox="0.00 0.00 390.00 46.00" xmlns="http://www.w3.org/2000/svg" xmlns:xlink="http://www.w3.org/1999/xlink">
<g id="graph0" class="graph" transform="scale(1 1) rotate(0) translate(4 42)">
<title>graph_init</title>
<!-- Node1 -->
<g id="Node000001" class="node">
<title>Node1</title>
<g id="a_Node000001"><a xlink:title="Initialises a new DGP graph.">
<polygon fill="#999999" stroke="#666666" points="59,-38 0,-38 0,-19 59,-19 59,-38"/>
<text text-anchor="middle" x="29.5" y="-26" font-family="Helvetica,sans-Serif" font-size="10.00">graph_init</text>
</a>
</g>
</g>
<!-- Node2 -->
<g id="Node000002" class="node">
<title>Node2</title>
<g id="a_Node000002"><a xlink:href="sam_8c.html#a7f7f30716900f06683a74486aca5f5a0" target="_top" xlink:title="Initialises self&#45;adaptive mutation rates.">
<polygon fill="white" stroke="#666666" points="148,-38 95,-38 95,-19 148,-19 148,-38"/>
<text text-anchor="middle" x="121.5" y="-26" font-family="Helvetica,sans-Serif" font-size="10.00">sam_init</text>
</a>
</g>
</g>
<!-- Node1&#45;&gt;Node2 -->
<g id="edge1_Node000001_Node000002" class="edge">
<title>Node1&#45;&gt;Node2</title>
<g id="a_edge1_Node000001_Node000002"><a xlink:title=" ">
<path fill="none" stroke="#63b8ff" d="M59.47,-28.5C67.49,-28.5 76.3,-28.5 84.66,-28.5"/>
<polygon fill="#63b8ff" stroke="#63b8ff" points="84.92,-32 94.92,-28.5 84.92,-25 84.92,-32"/>
</a>
</g>
</g>
<!-- Node3 -->
<g id="Node000003" class="node">
<title>Node3</title>
<g id="a_Node000003"><a xlink:href="utils_8c.html#a972761ba8f47a6c3e7396a7c685158fc" target="_top" xlink:title="Returns a uniform random float [min,max].">
<polygon fill="white" stroke="#666666" points="382,-38 309,-38 309,-19 382,-19 382,-38"/>
<text text-anchor="middle" x="345.5" y="-26" font-family="Helvetica,sans-Serif" font-size="10.00">rand_uniform</text>
</a>
</g>
</g>
<!-- Node2&#45;&gt;Node3 -->
<g id="edge2_Node000002_Node000003" class="edge">
<title>Node2&#45;&gt;Node3</title>
<g id="a_edge2_Node000002_Node000003"><a xlink:title=" ">
<path fill="none" stroke="#63b8ff" d="M148.4,-28.5C185.22,-28.5 253.26,-28.5 298.71,-28.5"/>
<polygon fill="#63b8ff" stroke="#63b8ff" points="298.89,-32 308.89,-28.5 298.89,-25 298.89,-32"/>
</a>
</g>
</g>
<!-- Node4 -->
<g id="Node000004" class="node">
<title>Node4</title>
<g id="a_Node000004"><a xlink:href="utils_8c.html#a5e6304fd9b177f36684d4bb00af49f91" target="_top" xlink:title="Returns a uniform random integer [min,max] not inclusive of max.">
<polygon fill="white" stroke="#666666" points="273,-19 184,-19 184,0 273,0 273,-19"/>
<text text-anchor="middle" x="228.5" y="-7" font-family="Helvetica,sans-Serif" font-size="10.00">rand_uniform_int</text>
</a>
</g>
</g>
<!-- Node2&#45;&gt;Node4 -->
<g id="edge3_Node000002_Node000004" class="edge">
<title>Node2&#45;&gt;Node4</title>
<g id="a_edge3_Node000002_Node000004"><a xlink:title=" ">
<path fill="none" stroke="#63b8ff" d="M148.19,-23.85C155.95,-22.45 164.78,-20.85 173.67,-19.24"/>
<polygon fill="#63b8ff" stroke="#63b8ff" points="174.45,-22.66 183.66,-17.43 173.2,-15.77 174.45,-22.66"/>
</a>
</g>
</g>
<!-- Node4&#45;&gt;Node3 -->
<g id="edge4_Node000004_Node000003" class="edge">
<title>Node4&#45;&gt;Node3</title>
<g id="a_edge4_Node000004_Node000003"><a xlink:title=" ">
<path fill="none" stroke="#63b8ff" d="M273.3,-16.74C281.61,-18.11 290.32,-19.55 298.68,-20.93"/>
<polygon fill="#63b8ff" stroke="#63b8ff" points="298.22,-24.4 308.66,-22.58 299.36,-17.5 298.22,-24.4"/>
</a>
</g>
</g>
</g>
</svg>
