<?xml version="1.0" encoding="UTF-8" standalone="no"?>
<!DOCTYPE svg PUBLIC "-//W3C//DTD SVG 1.1//EN"
 "http://www.w3.org/Graphics/SVG/1.1/DTD/svg11.dtd">
<!-- Generated by graphviz version 2.43.0 (0)
 -->
<!-- Title: graph_rand Pages: 1 -->
<svg width="360pt" height="180pt"
 viewBox="0.00 0.00 360.00 180.00" xmlns="http://www.w3.org/2000/svg" xmlns:xlink="http://www.w3.org/1999/xlink">
<g id="graph0" class="graph" transform="scale(1 1) rotate(0) translate(4 176)">
<title>graph_rand</title>
<!-- Node1 -->
<g id="node1" class="node">
<title>Node1</title>
<g id="a_node1"><a xlink:title="Randomises a specified DGP graph.">
<polygon fill="#bfbfbf" stroke="black" points="287,-76.5 287,-95.5 352,-95.5 352,-76.5 287,-76.5"/>
<text text-anchor="middle" x="319.5" y="-83.5" font-family="Helvetica,sans-Serif" font-size="10.00">graph_rand</text>
</a>
</g>
</g>
<!-- Node2 -->
<g id="node2" class="node">
<title>Node2</title>
<g id="a_node2"><a xlink:href="cond__dgp_8h.html#a585a3476b4473b1b19159a7d55daa6ae" target="_top" xlink:title="Generates a dynamical GP graph that matches the current input.">
<polygon fill="none" stroke="black" points="156.5,-152.5 156.5,-171.5 244.5,-171.5 244.5,-152.5 156.5,-152.5"/>
<text text-anchor="middle" x="200.5" y="-159.5" font-family="Helvetica,sans-Serif" font-size="10.00">cond_dgp_cover</text>
</a>
</g>
</g>
<!-- Node1&#45;&gt;Node2 -->
<g id="edge1" class="edge">
<title>Node1&#45;&gt;Node2</title>
<path fill="none" stroke="midnightblue" d="M301.99,-102.71C289.02,-115.11 270.03,-131.75 251,-143 244.9,-146.61 237.99,-149.76 231.31,-152.41"/>
<polygon fill="midnightblue" stroke="midnightblue" points="304.53,-105.11 309.23,-95.62 299.64,-100.11 304.53,-105.11"/>
</g>
<!-- Node3 -->
<g id="node3" class="node">
<title>Node3</title>
<g id="a_node3"><a xlink:href="cond__dgp_8h.html#a36eb6c8e497eb217ea0423ffce18e8e4" target="_top" xlink:title="Creates and initialises a dynamical GP graph condition.">
<polygon fill="none" stroke="black" points="162,-114.5 162,-133.5 239,-133.5 239,-114.5 162,-114.5"/>
<text text-anchor="middle" x="200.5" y="-121.5" font-family="Helvetica,sans-Serif" font-size="10.00">cond_dgp_init</text>
</a>
</g>
</g>
<!-- Node1&#45;&gt;Node3 -->
<g id="edge2" class="edge">
<title>Node1&#45;&gt;Node3</title>
<path fill="none" stroke="midnightblue" d="M279.46,-98.68C263.65,-103.81 245.7,-109.64 231.01,-114.41"/>
<polygon fill="midnightblue" stroke="midnightblue" points="280.55,-102.01 288.98,-95.59 278.38,-95.35 280.55,-102.01"/>
</g>
<!-- Node4 -->
<g id="node4" class="node">
<title>Node4</title>
<g id="a_node4"><a xlink:href="dgp_8h.html#a6ffd1789a8d7f668658d61f97f6de1fc" target="_top" xlink:title="Creates a DGP graph from a cJSON object.">
<polygon fill="none" stroke="black" points="152.5,-76.5 152.5,-95.5 248.5,-95.5 248.5,-76.5 152.5,-76.5"/>
<text text-anchor="middle" x="200.5" y="-83.5" font-family="Helvetica,sans-Serif" font-size="10.00">graph_json_import</text>
</a>
</g>
</g>
<!-- Node1&#45;&gt;Node4 -->
<g id="edge3" class="edge">
<title>Node1&#45;&gt;Node4</title>
<path fill="none" stroke="midnightblue" d="M276.82,-86C267.67,-86 257.92,-86 248.57,-86"/>
<polygon fill="midnightblue" stroke="midnightblue" points="276.84,-89.5 286.84,-86 276.84,-82.5 276.84,-89.5"/>
</g>
<!-- Node7 -->
<g id="node7" class="node">
<title>Node7</title>
<g id="a_node7"><a xlink:href="rule__dgp_8h.html#ac1f0b0c11b92852e82b00ad7b4bb169f" target="_top" xlink:title=" ">
<polygon fill="none" stroke="black" points="150,-38.5 150,-57.5 251,-57.5 251,-38.5 150,-38.5"/>
<text text-anchor="middle" x="200.5" y="-45.5" font-family="Helvetica,sans-Serif" font-size="10.00">rule_dgp_act_cover</text>
</a>
</g>
</g>
<!-- Node1&#45;&gt;Node7 -->
<g id="edge6" class="edge">
<title>Node1&#45;&gt;Node7</title>
<path fill="none" stroke="midnightblue" d="M279.46,-73.32C263.65,-68.19 245.7,-62.36 231.01,-57.59"/>
<polygon fill="midnightblue" stroke="midnightblue" points="278.38,-76.65 288.98,-76.41 280.55,-69.99 278.38,-76.65"/>
</g>
<!-- Node8 -->
<g id="node8" class="node">
<title>Node8</title>
<g id="a_node8"><a xlink:href="rule__dgp_8h.html#a242104780e9757fc9b303b8850f56382" target="_top" xlink:title=" ">
<polygon fill="none" stroke="black" points="151.5,-0.5 151.5,-19.5 249.5,-19.5 249.5,-0.5 151.5,-0.5"/>
<text text-anchor="middle" x="200.5" y="-7.5" font-family="Helvetica,sans-Serif" font-size="10.00">rule_dgp_cond_init</text>
</a>
</g>
</g>
<!-- Node1&#45;&gt;Node8 -->
<g id="edge7" class="edge">
<title>Node1&#45;&gt;Node8</title>
<path fill="none" stroke="midnightblue" d="M301.99,-69.29C289.02,-56.89 270.03,-40.25 251,-29 244.9,-25.39 237.99,-22.24 231.31,-19.59"/>
<polygon fill="midnightblue" stroke="midnightblue" points="299.64,-71.89 309.23,-76.38 304.53,-66.89 299.64,-71.89"/>
</g>
<!-- Node5 -->
<g id="node5" class="node">
<title>Node5</title>
<g id="a_node5"><a xlink:href="cond__dgp_8h.html#ad5fd6cccf1ece3ebaac69644a86bcfb5" target="_top" xlink:title="Creates a DGP condition from a cJSON object.">
<polygon fill="none" stroke="black" points="0,-98.5 0,-117.5 114,-117.5 114,-98.5 0,-98.5"/>
<text text-anchor="middle" x="57" y="-105.5" font-family="Helvetica,sans-Serif" font-size="10.00">cond_dgp_json_import</text>
</a>
</g>
</g>
<!-- Node4&#45;&gt;Node5 -->
<g id="edge4" class="edge">
<title>Node4&#45;&gt;Node5</title>
<path fill="none" stroke="midnightblue" d="M142.45,-94.87C133.15,-96.32 123.52,-97.81 114.24,-99.26"/>
<polygon fill="midnightblue" stroke="midnightblue" points="143.04,-98.32 152.38,-93.33 141.96,-91.4 143.04,-98.32"/>
</g>
<!-- Node6 -->
<g id="node6" class="node">
<title>Node6</title>
<g id="a_node6"><a xlink:href="rule__dgp_8h.html#afc876278ab001399d3cd9b2d4a097aa8" target="_top" xlink:title=" ">
<polygon fill="none" stroke="black" points="5.5,-49 5.5,-79 108.5,-79 108.5,-49 5.5,-49"/>
<text text-anchor="start" x="13.5" y="-67" font-family="Helvetica,sans-Serif" font-size="10.00">rule_dgp_cond_json</text>
<text text-anchor="middle" x="57" y="-56" font-family="Helvetica,sans-Serif" font-size="10.00">_import</text>
</a>
</g>
</g>
<!-- Node4&#45;&gt;Node6 -->
<g id="edge5" class="edge">
<title>Node4&#45;&gt;Node6</title>
<path fill="none" stroke="midnightblue" d="M142.35,-77.11C131.25,-75.39 119.68,-73.59 108.8,-71.9"/>
<polygon fill="midnightblue" stroke="midnightblue" points="141.96,-80.6 152.38,-78.67 143.04,-73.68 141.96,-80.6"/>
</g>
</g>
</svg>
