<?xml version="1.0" encoding="UTF-8" standalone="no"?>
<!DOCTYPE svg PUBLIC "-//W3C//DTD SVG 1.1//EN"
 "http://www.w3.org/Graphics/SVG/1.1/DTD/svg11.dtd">
<!-- Generated by graphviz version 2.43.0 (0)
 -->
<!-- Title: graph_init Pages: 1 -->
<svg width="209pt" height="138pt"
 viewBox="0.00 0.00 209.00 138.00" xmlns="http://www.w3.org/2000/svg" xmlns:xlink="http://www.w3.org/1999/xlink">
<g id="graph0" class="graph" transform="scale(1 1) rotate(0) translate(4 134)">
<title>graph_init</title>
<!-- Node1 -->
<g id="Node000001" class="node">
<title>Node1</title>
<g id="a_Node000001"><a xlink:title="Initialises a new DGP graph.">
<polygon fill="#999999" stroke="#666666" points="201,-74 142,-74 142,-55 201,-55 201,-74"/>
<text text-anchor="middle" x="171.5" y="-62" font-family="Helvetica,sans-Serif" font-size="10.00">graph_init</text>
</a>
</g>
</g>
<!-- Node2 -->
<g id="Node000002" class="node">
<title>Node2</title>
<g id="a_Node000002"><a xlink:href="cond__dgp_8c.html#aa85c960376cf5892cb5fc18c82c6934a" target="_top" xlink:title="Copies a dynamical GP graph condition from one classifier to another.">
<polygon fill="white" stroke="#666666" points="95.5,-130 10.5,-130 10.5,-111 95.5,-111 95.5,-130"/>
<text text-anchor="middle" x="53" y="-118" font-family="Helvetica,sans-Serif" font-size="10.00">cond_dgp_copy</text>
</a>
</g>
</g>
<!-- Node1&#45;&gt;Node2 -->
<g id="edge1_Node000001_Node000002" class="edge">
<title>Node1&#45;&gt;Node2</title>
<g id="a_edge1_Node000001_Node000002"><a xlink:title=" ">
<path fill="none" stroke="#63b8ff" d="M147.55,-79.53C135.5,-87.04 120.29,-95.9 106,-102.5 99.32,-105.59 91.96,-108.44 84.92,-110.93"/>
<polygon fill="#63b8ff" stroke="#63b8ff" points="149.52,-82.43 156.09,-74.12 145.77,-76.52 149.52,-82.43"/>
</a>
</g>
</g>
<!-- Node3 -->
<g id="Node000003" class="node">
<title>Node3</title>
<g id="a_Node000003"><a xlink:href="cond__dgp_8c.html#a36eb6c8e497eb217ea0423ffce18e8e4" target="_top" xlink:title="Creates and initialises a dynamical GP graph condition.">
<polygon fill="white" stroke="#666666" points="91.5,-93 14.5,-93 14.5,-74 91.5,-74 91.5,-93"/>
<text text-anchor="middle" x="53" y="-81" font-family="Helvetica,sans-Serif" font-size="10.00">cond_dgp_init</text>
</a>
</g>
</g>
<!-- Node1&#45;&gt;Node3 -->
<g id="edge2_Node000001_Node000003" class="edge">
<title>Node1&#45;&gt;Node3</title>
<g id="a_edge2_Node000001_Node000003"><a xlink:title=" ">
<path fill="none" stroke="#63b8ff" d="M131.73,-70.82C118.84,-72.93 104.51,-75.26 91.7,-77.35"/>
<polygon fill="#63b8ff" stroke="#63b8ff" points="132.4,-74.26 141.7,-69.2 131.27,-67.35 132.4,-74.26"/>
</a>
</g>
</g>
<!-- Node4 -->
<g id="Node000004" class="node">
<title>Node4</title>
<g id="a_Node000004"><a xlink:href="rule__dgp_8c.html#a6e5c0bccb713a8dc277bf31a25673fab" target="_top" xlink:title=" ">
<polygon fill="white" stroke="#666666" points="106,-56 0,-56 0,-37 106,-37 106,-56"/>
<text text-anchor="middle" x="53" y="-44" font-family="Helvetica,sans-Serif" font-size="10.00">rule_dgp_cond_copy</text>
</a>
</g>
</g>
<!-- Node1&#45;&gt;Node4 -->
<g id="edge3_Node000001_Node000004" class="edge">
<title>Node1&#45;&gt;Node4</title>
<g id="a_edge3_Node000001_Node000004"><a xlink:title=" ">
<path fill="none" stroke="#63b8ff" d="M131.67,-58.5C123.47,-57.23 114.68,-55.88 106.07,-54.55"/>
<polygon fill="#63b8ff" stroke="#63b8ff" points="131.29,-61.98 141.7,-60.05 132.35,-55.06 131.29,-61.98"/>
</a>
</g>
</g>
<!-- Node5 -->
<g id="Node000005" class="node">
<title>Node5</title>
<g id="a_Node000005"><a xlink:href="rule__dgp_8c.html#a242104780e9757fc9b303b8850f56382" target="_top" xlink:title=" ">
<polygon fill="white" stroke="#666666" points="102,-19 4,-19 4,0 102,0 102,-19"/>
<text text-anchor="middle" x="53" y="-7" font-family="Helvetica,sans-Serif" font-size="10.00">rule_dgp_cond_init</text>
</a>
</g>
</g>
<!-- Node1&#45;&gt;Node5 -->
<g id="edge4_Node000001_Node000005" class="edge">
<title>Node1&#45;&gt;Node5</title>
<g id="a_edge4_Node000001_Node000005"><a xlink:title=" ">
<path fill="none" stroke="#63b8ff" d="M146.1,-49.67C134.23,-42.78 119.61,-34.74 106,-28.5 98.57,-25.1 90.35,-21.86 82.67,-19.05"/>
<polygon fill="#63b8ff" stroke="#63b8ff" points="144.57,-52.84 154.96,-54.91 148.13,-46.81 144.57,-52.84"/>
</a>
</g>
</g>
</g>
</svg>
