<?xml version="1.0" encoding="UTF-8" standalone="no"?>
<!DOCTYPE svg PUBLIC "-//W3C//DTD SVG 1.1//EN"
 "http://www.w3.org/Graphics/SVG/1.1/DTD/svg11.dtd">
<!-- Generated by graphviz version 2.43.0 (0)
 -->
<!-- Title: graph_copy Pages: 1 -->
<svg width="217pt" height="64pt"
 viewBox="0.00 0.00 217.00 64.00" xmlns="http://www.w3.org/2000/svg" xmlns:xlink="http://www.w3.org/1999/xlink">
<g id="graph0" class="graph" transform="scale(1 1) rotate(0) translate(4 60)">
<title>graph_copy</title>
<!-- Node1 -->
<g id="Node000001" class="node">
<title>Node1</title>
<g id="a_Node000001"><a xlink:title="Copies a DGP graph.">
<polygon fill="#999999" stroke="#666666" points="209,-37 142,-37 142,-18 209,-18 209,-37"/>
<text text-anchor="middle" x="175.5" y="-25" font-family="Helvetica,sans-Serif" font-size="10.00">graph_copy</text>
</a>
</g>
</g>
<!-- Node2 -->
<g id="Node000002" class="node">
<title>Node2</title>
<g id="a_Node000002"><a xlink:href="cond__dgp_8c.html#aa85c960376cf5892cb5fc18c82c6934a" target="_top" xlink:title="Copies a dynamical GP graph condition from one classifier to another.">
<polygon fill="white" stroke="#666666" points="95.5,-56 10.5,-56 10.5,-37 95.5,-37 95.5,-56"/>
<text text-anchor="middle" x="53" y="-44" font-family="Helvetica,sans-Serif" font-size="10.00">cond_dgp_copy</text>
</a>
</g>
</g>
<!-- Node1&#45;&gt;Node2 -->
<g id="edge1_Node000001_Node000002" class="edge">
<title>Node1&#45;&gt;Node2</title>
<g id="a_edge1_Node000001_Node000002"><a xlink:title=" ">
<path fill="none" stroke="#63b8ff" d="M131.87,-34.22C120.13,-36.07 107.41,-38.08 95.71,-39.92"/>
<polygon fill="#63b8ff" stroke="#63b8ff" points="132.56,-37.66 141.89,-32.64 131.47,-30.74 132.56,-37.66"/>
</a>
</g>
</g>
<!-- Node3 -->
<g id="Node000003" class="node">
<title>Node3</title>
<g id="a_Node000003"><a xlink:href="rule__dgp_8c.html#a6e5c0bccb713a8dc277bf31a25673fab" target="_top" xlink:title=" ">
<polygon fill="white" stroke="#666666" points="106,-19 0,-19 0,0 106,0 106,-19"/>
<text text-anchor="middle" x="53" y="-7" font-family="Helvetica,sans-Serif" font-size="10.00">rule_dgp_cond_copy</text>
</a>
</g>
</g>
<!-- Node1&#45;&gt;Node3 -->
<g id="edge2_Node000001_Node000003" class="edge">
<title>Node1&#45;&gt;Node3</title>
<g id="a_edge2_Node000001_Node000003"><a xlink:title=" ">
<path fill="none" stroke="#63b8ff" d="M132,-21.15C123.64,-19.9 114.78,-18.58 106.15,-17.29"/>
<polygon fill="#63b8ff" stroke="#63b8ff" points="131.48,-24.61 141.89,-22.63 132.52,-17.69 131.48,-24.61"/>
</a>
</g>
</g>
</g>
</svg>
