<?xml version="1.0" encoding="UTF-8" standalone="no"?>
<!DOCTYPE svg PUBLIC "-//W3C//DTD SVG 1.1//EN"
 "http://www.w3.org/Graphics/SVG/1.1/DTD/svg11.dtd">
<!-- Generated by graphviz version 2.43.0 (0)
 -->
<!-- Title: random_connection Pages: 1 -->
<svg width="343pt" height="47pt"
 viewBox="0.00 0.00 343.00 47.00" xmlns="http://www.w3.org/2000/svg" xmlns:xlink="http://www.w3.org/1999/xlink">
<g id="graph0" class="graph" transform="scale(1 1) rotate(0) translate(4 43)">
<title>random_connection</title>
<!-- Node1 -->
<g id="node1" class="node">
<title>Node1</title>
<g id="a_node1"><a xlink:title="Returns a random connection.">
<polygon fill="#bfbfbf" stroke="black" points="0,-19.5 0,-38.5 101,-38.5 101,-19.5 0,-19.5"/>
<text text-anchor="middle" x="50.5" y="-26.5" font-family="Helvetica,sans-Serif" font-size="10.00">random_connection</text>
</a>
</g>
</g>
<!-- Node2 -->
<g id="node2" class="node">
<title>Node2</title>
<g id="a_node2"><a xlink:href="utils_8c.html#a972761ba8f47a6c3e7396a7c685158fc" target="_top" xlink:title="Returns a uniform random float [min,max].">
<polygon fill="none" stroke="black" points="262,-19.5 262,-38.5 335,-38.5 335,-19.5 262,-19.5"/>
<text text-anchor="middle" x="298.5" y="-26.5" font-family="Helvetica,sans-Serif" font-size="10.00">rand_uniform</text>
</a>
</g>
</g>
<!-- Node1&#45;&gt;Node2 -->
<g id="edge1" class="edge">
<title>Node1&#45;&gt;Node2</title>
<path fill="none" stroke="midnightblue" d="M101.28,-29C145.25,-29 208.84,-29 251.6,-29"/>
<polygon fill="midnightblue" stroke="midnightblue" points="251.73,-32.5 261.73,-29 251.73,-25.5 251.73,-32.5"/>
</g>
<!-- Node3 -->
<g id="node3" class="node">
<title>Node3</title>
<g id="a_node3"><a xlink:href="utils_8c.html#a5e6304fd9b177f36684d4bb00af49f91" target="_top" xlink:title="Returns a uniform random integer [min,max] not inclusive of max.">
<polygon fill="none" stroke="black" points="137,-0.5 137,-19.5 226,-19.5 226,-0.5 137,-0.5"/>
<text text-anchor="middle" x="181.5" y="-7.5" font-family="Helvetica,sans-Serif" font-size="10.00">rand_uniform_int</text>
</a>
</g>
</g>
<!-- Node1&#45;&gt;Node3 -->
<g id="edge2" class="edge">
<title>Node1&#45;&gt;Node3</title>
<path fill="none" stroke="midnightblue" d="M101.01,-21.71C109.48,-20.46 118.33,-19.16 126.9,-17.89"/>
<polygon fill="midnightblue" stroke="midnightblue" points="127.43,-21.35 136.82,-16.43 126.41,-14.43 127.43,-21.35"/>
</g>
<!-- Node3&#45;&gt;Node2 -->
<g id="edge3" class="edge">
<title>Node3&#45;&gt;Node2</title>
<path fill="none" stroke="midnightblue" d="M226.3,-17.24C234.61,-18.61 243.32,-20.05 251.68,-21.43"/>
<polygon fill="midnightblue" stroke="midnightblue" points="251.22,-24.9 261.66,-23.08 252.36,-18 251.22,-24.9"/>
</g>
</g>
</svg>
