<?xml version="1.0" encoding="UTF-8" standalone="no"?>
<!DOCTYPE svg PUBLIC "-//W3C//DTD SVG 1.1//EN"
 "http://www.w3.org/Graphics/SVG/1.1/DTD/svg11.dtd">
<!-- Generated by graphviz version 2.43.0 (0)
 -->
<!-- Title: ea.h Pages: 1 -->
<svg width="858pt" height="82pt"
 viewBox="0.00 0.00 857.50 82.00" xmlns="http://www.w3.org/2000/svg" xmlns:xlink="http://www.w3.org/1999/xlink">
<g id="graph0" class="graph" transform="scale(1 1) rotate(0) translate(4 78)">
<title>ea.h</title>
<!-- Node1 -->
<g id="Node000001" class="node">
<title>Node1</title>
<g id="a_Node000001"><a xlink:title="Evolutionary algorithm functions.">
<polygon fill="#999999" stroke="#666666" points="439.5,-74 404.5,-74 404.5,-55 439.5,-55 439.5,-74"/>
<text text-anchor="middle" x="422" y="-62" font-family="Helvetica,sans-Serif" font-size="10.00">ea.h</text>
</a>
</g>
</g>
<!-- Node2 -->
<g id="Node000002" class="node">
<title>Node2</title>
<g id="a_Node000002"><a xlink:href="cl_8c.html" target="_top" xlink:title="Functions operating on classifiers.">
<polygon fill="white" stroke="#666666" points="32,-19 0,-19 0,0 32,0 32,-19"/>
<text text-anchor="middle" x="16" y="-7" font-family="Helvetica,sans-Serif" font-size="10.00">cl.c</text>
</a>
</g>
</g>
<!-- Node1&#45;&gt;Node2 -->
<g id="edge1_Node000001_Node000002" class="edge">
<title>Node1&#45;&gt;Node2</title>
<g id="a_edge1_Node000001_Node000002"><a xlink:title=" ">
<path fill="none" stroke="#63b8ff" d="M394.32,-62.27C331.03,-59.03 171.19,-48.39 41,-19 38.14,-18.35 35.14,-17.5 32.26,-16.58"/>
<polygon fill="#63b8ff" stroke="#63b8ff" points="394.15,-65.77 404.31,-62.76 394.49,-58.78 394.15,-65.77"/>
</a>
</g>
</g>
<!-- Node3 -->
<g id="Node000003" class="node">
<title>Node3</title>
<g id="a_Node000003"><a xlink:href="cond__ellipsoid_8c.html" target="_top" xlink:title="Hyperellipsoid condition functions.">
<polygon fill="white" stroke="#666666" points="136,-19 50,-19 50,0 136,0 136,-19"/>
<text text-anchor="middle" x="93" y="-7" font-family="Helvetica,sans-Serif" font-size="10.00">cond_ellipsoid.c</text>
</a>
</g>
</g>
<!-- Node1&#45;&gt;Node3 -->
<g id="edge2_Node000001_Node000003" class="edge">
<title>Node1&#45;&gt;Node3</title>
<g id="a_edge2_Node000001_Node000003"><a xlink:title=" ">
<path fill="none" stroke="#63b8ff" d="M394.52,-59.11C344.75,-51.16 236.38,-33.81 145,-19 142.11,-18.53 139.13,-18.05 136.13,-17.56"/>
<polygon fill="#63b8ff" stroke="#63b8ff" points="394.07,-62.58 404.5,-60.71 395.17,-55.67 394.07,-62.58"/>
</a>
</g>
</g>
<!-- Node4 -->
<g id="Node000004" class="node">
<title>Node4</title>
<g id="a_Node000004"><a xlink:href="cond__gp_8c.html" target="_top" xlink:title="Tree GP condition functions.">
<polygon fill="white" stroke="#666666" points="216,-19 154,-19 154,0 216,0 216,-19"/>
<text text-anchor="middle" x="185" y="-7" font-family="Helvetica,sans-Serif" font-size="10.00">cond_gp.c</text>
</a>
</g>
</g>
<!-- Node1&#45;&gt;Node4 -->
<g id="edge3_Node000001_Node000004" class="edge">
<title>Node1&#45;&gt;Node4</title>
<g id="a_edge3_Node000001_Node000004"><a xlink:title=" ">
<path fill="none" stroke="#63b8ff" d="M394.36,-57.32C349.92,-47.38 262.84,-27.91 216.22,-17.48"/>
<polygon fill="#63b8ff" stroke="#63b8ff" points="393.66,-60.75 404.19,-59.52 395.19,-53.92 393.66,-60.75"/>
</a>
</g>
</g>
<!-- Node5 -->
<g id="Node000005" class="node">
<title>Node5</title>
<g id="a_Node000005"><a xlink:href="cond__rectangle_8c.html" target="_top" xlink:title="Hyperrectangle condition functions.">
<polygon fill="white" stroke="#666666" points="325.5,-19 234.5,-19 234.5,0 325.5,0 325.5,-19"/>
<text text-anchor="middle" x="280" y="-7" font-family="Helvetica,sans-Serif" font-size="10.00">cond_rectangle.c</text>
</a>
</g>
</g>
<!-- Node1&#45;&gt;Node5 -->
<g id="edge4_Node000001_Node000005" class="edge">
<title>Node1&#45;&gt;Node5</title>
<g id="a_edge4_Node000001_Node000005"><a xlink:title=" ">
<path fill="none" stroke="#63b8ff" d="M394.83,-53.36C368.25,-43.44 328.2,-28.49 303.11,-19.12"/>
<polygon fill="#63b8ff" stroke="#63b8ff" points="393.71,-56.68 404.3,-56.89 396.16,-50.12 393.71,-56.68"/>
</a>
</g>
</g>
<!-- Node6 -->
<g id="Node000006" class="node">
<title>Node6</title>
<g id="a_Node000006"><a xlink:href="cond__ternary_8c.html" target="_top" xlink:title="Ternary condition functions.">
<polygon fill="white" stroke="#666666" points="424,-19 344,-19 344,0 424,0 424,-19"/>
<text text-anchor="middle" x="384" y="-7" font-family="Helvetica,sans-Serif" font-size="10.00">cond_ternary.c</text>
</a>
</g>
</g>
<!-- Node1&#45;&gt;Node6 -->
<g id="edge5_Node000001_Node000006" class="edge">
<title>Node1&#45;&gt;Node6</title>
<g id="a_edge5_Node000001_Node000006"><a xlink:title=" ">
<path fill="none" stroke="#63b8ff" d="M409.73,-46.39C403.19,-37.27 395.43,-26.45 390.16,-19.09"/>
<polygon fill="#63b8ff" stroke="#63b8ff" points="407.05,-48.66 415.73,-54.75 412.74,-44.58 407.05,-48.66"/>
</a>
</g>
</g>
<!-- Node7 -->
<g id="Node000007" class="node">
<title>Node7</title>
<g id="a_Node000007"><a xlink:href="ea_8c.html" target="_top" xlink:title="Evolutionary algorithm functions.">
<polygon fill="white" stroke="#666666" points="477.5,-19 442.5,-19 442.5,0 477.5,0 477.5,-19"/>
<text text-anchor="middle" x="460" y="-7" font-family="Helvetica,sans-Serif" font-size="10.00">ea.c</text>
</a>
</g>
</g>
<!-- Node1&#45;&gt;Node7 -->
<g id="edge6_Node000001_Node000007" class="edge">
<title>Node1&#45;&gt;Node7</title>
<g id="a_edge6_Node000001_Node000007"><a xlink:title=" ">
<path fill="none" stroke="#63b8ff" d="M434.27,-46.39C440.81,-37.27 448.57,-26.45 453.84,-19.09"/>
<polygon fill="#63b8ff" stroke="#63b8ff" points="431.26,-44.58 428.27,-54.75 436.95,-48.66 431.26,-44.58"/>
</a>
</g>
</g>
<!-- Node8 -->
<g id="Node000008" class="node">
<title>Node8</title>
<g id="a_Node000008"><a xlink:href="param_8c.html" target="_top" xlink:title="Functions for setting and printing parameters.">
<polygon fill="white" stroke="#666666" points="548,-19 496,-19 496,0 548,0 548,-19"/>
<text text-anchor="middle" x="522" y="-7" font-family="Helvetica,sans-Serif" font-size="10.00">param.c</text>
</a>
</g>
</g>
<!-- Node1&#45;&gt;Node8 -->
<g id="edge7_Node000001_Node000008" class="edge">
<title>Node1&#45;&gt;Node8</title>
<g id="a_edge7_Node000001_Node000008"><a xlink:title=" ">
<path fill="none" stroke="#63b8ff" d="M447.03,-50.23C465.37,-40.51 489.74,-27.6 505.64,-19.17"/>
<polygon fill="#63b8ff" stroke="#63b8ff" points="445.26,-47.21 438.07,-54.98 448.54,-53.39 445.26,-47.21"/>
</a>
</g>
</g>
<!-- Node9 -->
<g id="Node000009" class="node">
<title>Node9</title>
<g id="a_Node000009"><a xlink:href="pybind__wrapper_8cpp.html" target="_top" xlink:title="Python library wrapper functions.">
<polygon fill="white" stroke="#666666" points="669.5,-19 566.5,-19 566.5,0 669.5,0 669.5,-19"/>
<text text-anchor="middle" x="618" y="-7" font-family="Helvetica,sans-Serif" font-size="10.00">pybind_wrapper.cpp</text>
</a>
</g>
</g>
<!-- Node1&#45;&gt;Node9 -->
<g id="edge8_Node000001_Node000009" class="edge">
<title>Node1&#45;&gt;Node9</title>
<g id="a_edge8_Node000001_Node000009"><a xlink:title=" ">
<path fill="none" stroke="#63b8ff" d="M449.57,-56.05C485.57,-46.31 548.47,-29.3 586.37,-19.05"/>
<polygon fill="#63b8ff" stroke="#63b8ff" points="448.48,-52.71 439.74,-58.7 450.31,-59.47 448.48,-52.71"/>
</a>
</g>
</g>
<!-- Node10 -->
<g id="Node000010" class="node">
<title>Node10</title>
<g id="a_Node000010"><a xlink:href="xcs__rl_8c.html" target="_top" xlink:title="Reinforcement learning functions.">
<polygon fill="white" stroke="#666666" points="738.5,-19 687.5,-19 687.5,0 738.5,0 738.5,-19"/>
<text text-anchor="middle" x="713" y="-7" font-family="Helvetica,sans-Serif" font-size="10.00">xcs_rl.c</text>
</a>
</g>
</g>
<!-- Node1&#45;&gt;Node10 -->
<g id="edge9_Node000001_Node000010" class="edge">
<title>Node1&#45;&gt;Node10</title>
<g id="a_edge9_Node000001_Node000010"><a xlink:title=" ">
<path fill="none" stroke="#63b8ff" d="M449.59,-59.41C496.78,-52.25 595.97,-36.54 679,-19 681.74,-18.42 684.59,-17.78 687.43,-17.11"/>
<polygon fill="#63b8ff" stroke="#63b8ff" points="448.9,-55.97 439.54,-60.92 449.94,-62.89 448.9,-55.97"/>
</a>
</g>
</g>
<!-- Node11 -->
<g id="Node000011" class="node">
<title>Node11</title>
<g id="a_Node000011"><a xlink:href="xcs__supervised_8c.html" target="_top" xlink:title="Supervised regression learning functions.">
<polygon fill="white" stroke="#666666" points="849.5,-19 756.5,-19 756.5,0 849.5,0 849.5,-19"/>
<text text-anchor="middle" x="803" y="-7" font-family="Helvetica,sans-Serif" font-size="10.00">xcs_supervised.c</text>
</a>
</g>
</g>
<!-- Node1&#45;&gt;Node11 -->
<g id="edge10_Node000001_Node000011" class="edge">
<title>Node1&#45;&gt;Node11</title>
<g id="a_edge10_Node000001_Node000011"><a xlink:title=" ">
<path fill="none" stroke="#63b8ff" d="M449.93,-59.86C506.32,-52.46 637.77,-35.04 748,-19 750.77,-18.6 753.62,-18.18 756.5,-17.75"/>
<polygon fill="#63b8ff" stroke="#63b8ff" points="449.15,-56.43 439.68,-61.2 450.05,-63.37 449.15,-56.43"/>
</a>
</g>
</g>
</g>
</svg>
