<?xml version="1.0" encoding="UTF-8" standalone="no"?>
<!DOCTYPE svg PUBLIC "-//W3C//DTD SVG 1.1//EN"
 "http://www.w3.org/Graphics/SVG/1.1/DTD/svg11.dtd">
<!-- Generated by graphviz version 2.43.0 (0)
 -->
<!-- Title: ea_param_json_import Pages: 1 -->
<svg width="417pt" height="370pt"
 viewBox="0.00 0.00 417.00 370.00" xmlns="http://www.w3.org/2000/svg" xmlns:xlink="http://www.w3.org/1999/xlink">
<g id="graph0" class="graph" transform="scale(1 1) rotate(0) translate(4 366)">
<title>ea_param_json_import</title>
<!-- Node1 -->
<g id="node1" class="node">
<title>Node1</title>
<g id="a_node1"><a xlink:title="Sets the EA parameters from a cJSON object.">
<polygon fill="#bfbfbf" stroke="black" points="0,-171.5 0,-190.5 115,-190.5 115,-171.5 0,-171.5"/>
<text text-anchor="middle" x="57.5" y="-178.5" font-family="Helvetica,sans-Serif" font-size="10.00">ea_param_json_import</text>
</a>
</g>
</g>
<!-- Node2 -->
<g id="node2" class="node">
<title>Node2</title>
<g id="a_node2"><a xlink:href="utils_8h.html#ad4c1cfaf547c968379d68470354816b7" target="_top" xlink:title="Catches parameter value errors.">
<polygon fill="none" stroke="black" points="188,-342.5 188,-361.5 253,-361.5 253,-342.5 188,-342.5"/>
<text text-anchor="middle" x="220.5" y="-349.5" font-family="Helvetica,sans-Serif" font-size="10.00">catch_error</text>
</a>
</g>
</g>
<!-- Node1&#45;&gt;Node2 -->
<g id="edge1" class="edge">
<title>Node1&#45;&gt;Node2</title>
<path fill="none" stroke="midnightblue" d="M61.5,-190.55C70.44,-217.39 99.5,-294.06 151,-333 158.89,-338.97 168.56,-343.06 178.11,-345.87"/>
<polygon fill="midnightblue" stroke="midnightblue" points="177.4,-349.3 187.95,-348.35 179.11,-342.51 177.4,-349.3"/>
</g>
<!-- Node3 -->
<g id="node3" class="node">
<title>Node3</title>
<g id="a_node3"><a xlink:href="ea_8c.html#a542e7edec79442b8ea67b549de8c20f4" target="_top" xlink:title=" ">
<polygon fill="none" stroke="black" points="158.5,-304.5 158.5,-323.5 282.5,-323.5 282.5,-304.5 158.5,-304.5"/>
<text text-anchor="middle" x="220.5" y="-311.5" font-family="Helvetica,sans-Serif" font-size="10.00">ea_param_set_err_reduc</text>
</a>
</g>
</g>
<!-- Node1&#45;&gt;Node3 -->
<g id="edge2" class="edge">
<title>Node1&#45;&gt;Node3</title>
<path fill="none" stroke="midnightblue" d="M63.54,-190.64C75.56,-212.66 108.14,-266.93 151,-295 154.13,-297.05 157.47,-298.88 160.94,-300.51"/>
<polygon fill="midnightblue" stroke="midnightblue" points="159.76,-303.81 170.34,-304.39 162.44,-297.34 159.76,-303.81"/>
</g>
<!-- Node4 -->
<g id="node4" class="node">
<title>Node4</title>
<g id="a_node4"><a xlink:href="ea_8c.html#a6991ded81cd5f8092edd273f14b51656" target="_top" xlink:title=" ">
<polygon fill="none" stroke="black" points="160,-266.5 160,-285.5 281,-285.5 281,-266.5 160,-266.5"/>
<text text-anchor="middle" x="220.5" y="-273.5" font-family="Helvetica,sans-Serif" font-size="10.00">ea_param_set_fit_reduc</text>
</a>
</g>
</g>
<!-- Node1&#45;&gt;Node4 -->
<g id="edge3" class="edge">
<title>Node1&#45;&gt;Node4</title>
<path fill="none" stroke="midnightblue" d="M67.52,-190.68C83.05,-206.79 116.51,-239.08 151,-257 155.47,-259.32 160.26,-261.39 165.15,-263.22"/>
<polygon fill="midnightblue" stroke="midnightblue" points="164.02,-266.53 174.62,-266.46 166.29,-259.91 164.02,-266.53"/>
</g>
<!-- Node5 -->
<g id="node5" class="node">
<title>Node5</title>
<g id="a_node5"><a xlink:href="ea_8c.html#a3cd269c31d0c8746945c5702b0ff2878" target="_top" xlink:title=" ">
<polygon fill="none" stroke="black" points="163,-228.5 163,-247.5 278,-247.5 278,-228.5 163,-228.5"/>
<text text-anchor="middle" x="220.5" y="-235.5" font-family="Helvetica,sans-Serif" font-size="10.00">ea_param_set_lambda</text>
</a>
</g>
</g>
<!-- Node1&#45;&gt;Node5 -->
<g id="edge4" class="edge">
<title>Node1&#45;&gt;Node5</title>
<path fill="none" stroke="midnightblue" d="M79.9,-190.64C98.47,-198.81 126.2,-210.5 151,-219 157.82,-221.34 165.1,-223.6 172.27,-225.7"/>
<polygon fill="midnightblue" stroke="midnightblue" points="171.35,-229.07 181.92,-228.45 173.26,-222.34 171.35,-229.07"/>
</g>
<!-- Node6 -->
<g id="node6" class="node">
<title>Node6</title>
<g id="a_node6"><a xlink:href="ea_8c.html#aa13da4ecefb72f2ea73ac3305978fbd9" target="_top" xlink:title=" ">
<polygon fill="none" stroke="black" points="152,-190.5 152,-209.5 289,-209.5 289,-190.5 152,-190.5"/>
<text text-anchor="middle" x="220.5" y="-197.5" font-family="Helvetica,sans-Serif" font-size="10.00">ea_param_set_p_crossover</text>
</a>
</g>
</g>
<!-- Node1&#45;&gt;Node6 -->
<g id="edge5" class="edge">
<title>Node1&#45;&gt;Node6</title>
<path fill="none" stroke="midnightblue" d="M115.26,-187.7C123.88,-188.72 132.89,-189.78 141.86,-190.84"/>
<polygon fill="midnightblue" stroke="midnightblue" points="141.6,-194.33 151.94,-192.03 142.42,-187.38 141.6,-194.33"/>
</g>
<!-- Node7 -->
<g id="node7" class="node">
<title>Node7</title>
<g id="a_node7"><a xlink:href="ea_8c.html#a8dddce688fce5036e42a02cb5f81c16a" target="_top" xlink:title=" ">
<polygon fill="none" stroke="black" points="156,-152.5 156,-171.5 285,-171.5 285,-152.5 156,-152.5"/>
<text text-anchor="middle" x="220.5" y="-159.5" font-family="Helvetica,sans-Serif" font-size="10.00">ea_param_set_pred_reset</text>
</a>
</g>
</g>
<!-- Node1&#45;&gt;Node7 -->
<g id="edge6" class="edge">
<title>Node1&#45;&gt;Node7</title>
<path fill="none" stroke="midnightblue" d="M115.26,-174.3C125.11,-173.14 135.47,-171.92 145.69,-170.71"/>
<polygon fill="midnightblue" stroke="midnightblue" points="146.32,-174.16 155.84,-169.51 145.5,-167.21 146.32,-174.16"/>
</g>
<!-- Node8 -->
<g id="node8" class="node">
<title>Node8</title>
<g id="a_node8"><a xlink:href="ea_8c.html#af8835dfc61b17259355a8857b834a085" target="_top" xlink:title=" ">
<polygon fill="none" stroke="black" points="154,-114.5 154,-133.5 287,-133.5 287,-114.5 154,-114.5"/>
<text text-anchor="middle" x="220.5" y="-121.5" font-family="Helvetica,sans-Serif" font-size="10.00">ea_param_set_select_size</text>
</a>
</g>
</g>
<!-- Node1&#45;&gt;Node8 -->
<g id="edge7" class="edge">
<title>Node1&#45;&gt;Node8</title>
<path fill="none" stroke="midnightblue" d="M79.9,-171.36C98.47,-163.19 126.2,-151.5 151,-143 157.82,-140.66 165.1,-138.4 172.27,-136.3"/>
<polygon fill="midnightblue" stroke="midnightblue" points="173.26,-139.66 181.92,-133.55 171.35,-132.93 173.26,-139.66"/>
</g>
<!-- Node9 -->
<g id="node9" class="node">
<title>Node9</title>
<g id="a_node9"><a xlink:href="ea_8c.html#a01bfae90b944b75fb043898949cffc93" target="_top" xlink:title=" ">
<polygon fill="none" stroke="black" points="151,-76.5 151,-95.5 290,-95.5 290,-76.5 151,-76.5"/>
<text text-anchor="middle" x="220.5" y="-83.5" font-family="Helvetica,sans-Serif" font-size="10.00">ea_param_set_subsumption</text>
</a>
</g>
</g>
<!-- Node1&#45;&gt;Node9 -->
<g id="edge8" class="edge">
<title>Node1&#45;&gt;Node9</title>
<path fill="none" stroke="midnightblue" d="M67.52,-171.32C83.05,-155.21 116.51,-122.92 151,-105 155.47,-102.68 160.26,-100.61 165.15,-98.78"/>
<polygon fill="midnightblue" stroke="midnightblue" points="166.29,-102.09 174.62,-95.54 164.02,-95.47 166.29,-102.09"/>
</g>
<!-- Node10 -->
<g id="node10" class="node">
<title>Node10</title>
<g id="a_node10"><a xlink:href="ea_8c.html#a4f787e4f40ad089a2d7ed89705921669" target="_top" xlink:title=" ">
<polygon fill="none" stroke="black" points="168,-38.5 168,-57.5 273,-57.5 273,-38.5 168,-38.5"/>
<text text-anchor="middle" x="220.5" y="-45.5" font-family="Helvetica,sans-Serif" font-size="10.00">ea_param_set_theta</text>
</a>
</g>
</g>
<!-- Node1&#45;&gt;Node10 -->
<g id="edge9" class="edge">
<title>Node1&#45;&gt;Node10</title>
<path fill="none" stroke="midnightblue" d="M63.54,-171.36C75.56,-149.34 108.14,-95.07 151,-67 154.13,-64.95 157.47,-63.12 160.94,-61.49"/>
<polygon fill="midnightblue" stroke="midnightblue" points="162.44,-64.66 170.34,-57.61 159.76,-58.19 162.44,-64.66"/>
</g>
<!-- Node11 -->
<g id="node11" class="node">
<title>Node11</title>
<g id="a_node11"><a xlink:href="ea_8c.html#aae5494ed1288e31cd5ff702ecdb9d02b" target="_top" xlink:title=" ">
<polygon fill="none" stroke="black" points="155,-0.5 155,-19.5 286,-19.5 286,-0.5 155,-0.5"/>
<text text-anchor="middle" x="220.5" y="-7.5" font-family="Helvetica,sans-Serif" font-size="10.00">ea_param_set_type_string</text>
</a>
</g>
</g>
<!-- Node1&#45;&gt;Node11 -->
<g id="edge10" class="edge">
<title>Node1&#45;&gt;Node11</title>
<path fill="none" stroke="midnightblue" d="M61.5,-171.45C70.44,-144.61 99.5,-67.94 151,-29 153.48,-27.13 156.13,-25.44 158.91,-23.91"/>
<polygon fill="midnightblue" stroke="midnightblue" points="160.53,-27.02 168.08,-19.59 157.54,-20.69 160.53,-27.02"/>
</g>
<!-- Node12 -->
<g id="node12" class="node">
<title>Node12</title>
<g id="a_node12"><a xlink:href="ea_8c.html#aa0505eb5ed3eb60094e9aa48bec5c02f" target="_top" xlink:title="Returns the integer representation of an EA selection type.">
<polygon fill="none" stroke="black" points="326,-0.5 326,-19.5 409,-19.5 409,-0.5 326,-0.5"/>
<text text-anchor="middle" x="367.5" y="-7.5" font-family="Helvetica,sans-Serif" font-size="10.00">ea_type_as_int</text>
</a>
</g>
</g>
<!-- Node11&#45;&gt;Node12 -->
<g id="edge11" class="edge">
<title>Node11&#45;&gt;Node12</title>
<path fill="none" stroke="midnightblue" d="M286.37,-10C296.22,-10 306.27,-10 315.77,-10"/>
<polygon fill="midnightblue" stroke="midnightblue" points="315.82,-13.5 325.82,-10 315.82,-6.5 315.82,-13.5"/>
</g>
</g>
</svg>
