<?xml version="1.0" encoding="UTF-8" standalone="no"?>
<!DOCTYPE svg PUBLIC "-//W3C//DTD SVG 1.1//EN"
 "http://www.w3.org/Graphics/SVG/1.1/DTD/svg11.dtd">
<!-- Generated by graphviz version 2.43.0 (0)
 -->
<!-- Title: ea_param_set_pred_reset Pages: 1 -->
<svg width="725pt" height="194pt"
 viewBox="0.00 0.00 725.00 194.00" xmlns="http://www.w3.org/2000/svg" xmlns:xlink="http://www.w3.org/1999/xlink">
<g id="graph0" class="graph" transform="scale(1 1) rotate(0) translate(4 190)">
<title>ea_param_set_pred_reset</title>
<!-- Node1 -->
<g id="node1" class="node">
<title>Node1</title>
<g id="a_node1"><a xlink:title=" ">
<polygon fill="#bfbfbf" stroke="black" points="588,-38.5 588,-57.5 717,-57.5 717,-38.5 588,-38.5"/>
<text text-anchor="middle" x="652.5" y="-45.5" font-family="Helvetica,sans-Serif" font-size="10.00">ea_param_set_pred_reset</text>
</a>
</g>
</g>
<!-- Node2 -->
<g id="node2" class="node">
<title>Node2</title>
<g id="a_node2"><a xlink:href="ea_8c.html#a2e9957163a28eeb4c6f9c3f72f0213f3" target="_top" xlink:title="Initialises default evolutionary algorithm parameters.">
<polygon fill="none" stroke="black" points="440.5,-81.5 440.5,-100.5 539.5,-100.5 539.5,-81.5 440.5,-81.5"/>
<text text-anchor="middle" x="490" y="-88.5" font-family="Helvetica,sans-Serif" font-size="10.00">ea_param_defaults</text>
</a>
</g>
</g>
<!-- Node1&#45;&gt;Node2 -->
<g id="edge1" class="edge">
<title>Node1&#45;&gt;Node2</title>
<path fill="none" stroke="midnightblue" d="M606.16,-60.15C580.93,-66.91 549.98,-75.2 526.52,-81.48"/>
<polygon fill="midnightblue" stroke="midnightblue" points="607.13,-63.51 615.88,-57.54 605.31,-56.75 607.13,-63.51"/>
</g>
<!-- Node10 -->
<g id="node10" class="node">
<title>Node10</title>
<g id="a_node10"><a xlink:href="ea_8c.html#ae78d49893c85cfe792ceafc58e590965" target="_top" xlink:title="Sets the EA parameters from a cJSON object.">
<polygon fill="none" stroke="black" points="432.5,-38.5 432.5,-57.5 547.5,-57.5 547.5,-38.5 432.5,-38.5"/>
<text text-anchor="middle" x="490" y="-45.5" font-family="Helvetica,sans-Serif" font-size="10.00">ea_param_json_import</text>
</a>
</g>
</g>
<!-- Node1&#45;&gt;Node10 -->
<g id="edge11" class="edge">
<title>Node1&#45;&gt;Node10</title>
<path fill="none" stroke="midnightblue" d="M577.3,-48C567.34,-48 557.26,-48 547.67,-48"/>
<polygon fill="midnightblue" stroke="midnightblue" points="577.61,-51.5 587.6,-48 577.6,-44.5 577.61,-51.5"/>
</g>
<!-- Node13 -->
<g id="node13" class="node">
<title>Node13</title>
<g id="a_node13"><a xlink:href="classXCS.html#a0377287c69cdbd61d873bc5e78359696" target="_top" xlink:title=" ">
<polygon fill="none" stroke="black" points="428,-0.5 428,-19.5 552,-19.5 552,-0.5 428,-0.5"/>
<text text-anchor="middle" x="490" y="-7.5" font-family="Helvetica,sans-Serif" font-size="10.00">XCS::set_ea_pred_reset</text>
</a>
</g>
</g>
<!-- Node1&#45;&gt;Node13 -->
<g id="edge15" class="edge">
<title>Node1&#45;&gt;Node13</title>
<path fill="none" stroke="midnightblue" d="M601.25,-36.1C578.69,-30.76 552.44,-24.55 531.21,-19.52"/>
<polygon fill="midnightblue" stroke="midnightblue" points="600.46,-39.51 611,-38.41 602.07,-32.7 600.46,-39.51"/>
</g>
<!-- Node3 -->
<g id="node3" class="node">
<title>Node3</title>
<g id="a_node3"><a xlink:href="param_8c.html#ac8218a170803be0bcd974764e7494b0e" target="_top" xlink:title="Initialises default XCSF parameters.">
<polygon fill="none" stroke="black" points="311.5,-90.5 311.5,-109.5 373.5,-109.5 373.5,-90.5 311.5,-90.5"/>
<text text-anchor="middle" x="342.5" y="-97.5" font-family="Helvetica,sans-Serif" font-size="10.00">param_init</text>
</a>
</g>
</g>
<!-- Node2&#45;&gt;Node3 -->
<g id="edge2" class="edge">
<title>Node2&#45;&gt;Node3</title>
<path fill="none" stroke="midnightblue" d="M429.91,-94.65C410.64,-95.85 390.04,-97.12 373.78,-98.13"/>
<polygon fill="midnightblue" stroke="midnightblue" points="430.38,-98.13 440.15,-94.02 429.95,-91.15 430.38,-98.13"/>
</g>
<!-- Node4 -->
<g id="node4" class="node">
<title>Node4</title>
<g id="a_node4"><a xlink:href="env__csv_8c.html#ab26a39a388f0ac83b9ac14726ad14b16" target="_top" xlink:title="Initialises a CSV input environment from a specified filename.">
<polygon fill="none" stroke="black" points="181.5,-166.5 181.5,-185.5 252.5,-185.5 252.5,-166.5 181.5,-166.5"/>
<text text-anchor="middle" x="217" y="-173.5" font-family="Helvetica,sans-Serif" font-size="10.00">env_csv_init</text>
</a>
</g>
</g>
<!-- Node3&#45;&gt;Node4 -->
<g id="edge3" class="edge">
<title>Node3&#45;&gt;Node4</title>
<path fill="none" stroke="midnightblue" d="M319.9,-115.8C303.14,-127.76 279.11,-144.24 257,-157 251.26,-160.31 244.86,-163.59 238.93,-166.47"/>
<polygon fill="midnightblue" stroke="midnightblue" points="322.34,-118.36 328.41,-109.68 318.25,-112.68 322.34,-118.36"/>
</g>
<!-- Node7 -->
<g id="node7" class="node">
<title>Node7</title>
<g id="a_node7"><a xlink:href="env__maze_8c.html#acad3cc6e9fe2b7e07e878f1f517ad3a6" target="_top" xlink:title="Initialises a maze environment from a specified file.">
<polygon fill="none" stroke="black" points="177,-128.5 177,-147.5 257,-147.5 257,-128.5 177,-128.5"/>
<text text-anchor="middle" x="217" y="-135.5" font-family="Helvetica,sans-Serif" font-size="10.00">env_maze_init</text>
</a>
</g>
</g>
<!-- Node3&#45;&gt;Node7 -->
<g id="edge6" class="edge">
<title>Node3&#45;&gt;Node7</title>
<path fill="none" stroke="midnightblue" d="M301.62,-112.27C284.63,-117.5 265.1,-123.51 249.19,-128.4"/>
<polygon fill="midnightblue" stroke="midnightblue" points="302.76,-115.58 311.29,-109.3 300.7,-108.89 302.76,-115.58"/>
</g>
<!-- Node8 -->
<g id="node8" class="node">
<title>Node8</title>
<g id="a_node8"><a xlink:href="env__mux_8c.html#aff3b81b4913d273ecfd62d7585480b15" target="_top" xlink:title="Initialises a real multiplexer environment of specified length.">
<polygon fill="none" stroke="black" points="180,-90.5 180,-109.5 254,-109.5 254,-90.5 180,-90.5"/>
<text text-anchor="middle" x="217" y="-97.5" font-family="Helvetica,sans-Serif" font-size="10.00">env_mux_init</text>
</a>
</g>
</g>
<!-- Node3&#45;&gt;Node8 -->
<g id="edge8" class="edge">
<title>Node3&#45;&gt;Node8</title>
<path fill="none" stroke="midnightblue" d="M301.15,-100C285.96,-100 268.81,-100 254.05,-100"/>
<polygon fill="midnightblue" stroke="midnightblue" points="301.29,-103.5 311.29,-100 301.29,-96.5 301.29,-103.5"/>
</g>
<!-- Node9 -->
<g id="node9" class="node">
<title>Node9</title>
<g id="a_node9"><a xlink:href="classXCS.html#af1010afd63843f86ad1dd81fade9bd72" target="_top" xlink:title="Constructor.">
<polygon fill="none" stroke="black" points="184.5,-52.5 184.5,-71.5 249.5,-71.5 249.5,-52.5 184.5,-52.5"/>
<text text-anchor="middle" x="217" y="-59.5" font-family="Helvetica,sans-Serif" font-size="10.00">XCS::XCS</text>
</a>
</g>
</g>
<!-- Node3&#45;&gt;Node9 -->
<g id="edge10" class="edge">
<title>Node3&#45;&gt;Node9</title>
<path fill="none" stroke="midnightblue" d="M301.62,-87.73C284.63,-82.5 265.1,-76.49 249.19,-71.6"/>
<polygon fill="midnightblue" stroke="midnightblue" points="300.7,-91.11 311.29,-90.7 302.76,-84.42 300.7,-91.11"/>
</g>
<!-- Node5 -->
<g id="node5" class="node">
<title>Node5</title>
<g id="a_node5"><a xlink:href="env_8c.html#a9213fcf5fc422d6a77bce853b1d78dc9" target="_top" xlink:title="Initialises a built&#45;in problem environment.">
<polygon fill="none" stroke="black" points="82.5,-109.5 82.5,-128.5 132.5,-128.5 132.5,-109.5 82.5,-109.5"/>
<text text-anchor="middle" x="107.5" y="-116.5" font-family="Helvetica,sans-Serif" font-size="10.00">env_init</text>
</a>
</g>
</g>
<!-- Node4&#45;&gt;Node5 -->
<g id="edge4" class="edge">
<title>Node4&#45;&gt;Node5</title>
<path fill="none" stroke="midnightblue" d="M186.61,-161.89C183.36,-160.27 180.1,-158.61 177,-157 159.15,-147.71 139.04,-136.46 125.26,-128.62"/>
<polygon fill="midnightblue" stroke="midnightblue" points="185.14,-165.07 195.66,-166.34 188.23,-158.79 185.14,-165.07"/>
</g>
<!-- Node6 -->
<g id="node6" class="node">
<title>Node6</title>
<g id="a_node6"><a xlink:href="main_8c.html#a3c04138a5bfe5d72780bb7e82a18e627" target="_top" xlink:title=" ">
<polygon fill="none" stroke="black" points="0,-85.5 0,-104.5 38,-104.5 38,-85.5 0,-85.5"/>
<text text-anchor="middle" x="19" y="-92.5" font-family="Helvetica,sans-Serif" font-size="10.00">main</text>
</a>
</g>
</g>
<!-- Node5&#45;&gt;Node6 -->
<g id="edge5" class="edge">
<title>Node5&#45;&gt;Node6</title>
<path fill="none" stroke="midnightblue" d="M72.47,-109.56C60.78,-106.31 48.14,-102.81 38.21,-100.05"/>
<polygon fill="midnightblue" stroke="midnightblue" points="71.83,-113.01 82.4,-112.31 73.7,-106.27 71.83,-113.01"/>
</g>
<!-- Node7&#45;&gt;Node5 -->
<g id="edge7" class="edge">
<title>Node7&#45;&gt;Node5</title>
<path fill="none" stroke="midnightblue" d="M167.02,-129.34C155.12,-127.24 142.91,-125.08 132.74,-123.28"/>
<polygon fill="midnightblue" stroke="midnightblue" points="166.43,-132.79 176.89,-131.09 167.65,-125.9 166.43,-132.79"/>
</g>
<!-- Node8&#45;&gt;Node5 -->
<g id="edge9" class="edge">
<title>Node8&#45;&gt;Node5</title>
<path fill="none" stroke="midnightblue" d="M169.86,-108.15C157.12,-110.41 143.79,-112.76 132.82,-114.7"/>
<polygon fill="midnightblue" stroke="midnightblue" points="170.67,-111.57 179.91,-106.38 169.45,-104.67 170.67,-111.57"/>
</g>
<!-- Node11 -->
<g id="node11" class="node">
<title>Node11</title>
<g id="a_node11"><a xlink:href="param_8c.html#a130260988988535419aee8abe51986c1" target="_top" xlink:title="Sets the parameters from a json formatted string.">
<polygon fill="none" stroke="black" points="293,-33.5 293,-52.5 392,-52.5 392,-33.5 293,-33.5"/>
<text text-anchor="middle" x="342.5" y="-40.5" font-family="Helvetica,sans-Serif" font-size="10.00">param_json_import</text>
</a>
</g>
</g>
<!-- Node10&#45;&gt;Node11 -->
<g id="edge12" class="edge">
<title>Node10&#45;&gt;Node11</title>
<path fill="none" stroke="midnightblue" d="M422.28,-45.71C412.16,-45.36 401.87,-45.01 392.22,-44.67"/>
<polygon fill="midnightblue" stroke="midnightblue" points="422.21,-49.21 432.33,-46.05 422.46,-42.21 422.21,-49.21"/>
</g>
<!-- Node12 -->
<g id="node12" class="node">
<title>Node12</title>
<g id="a_node12"><a xlink:href="config_8c.html#a045a64a30d99a4bef2ebfd9b54aa9698" target="_top" xlink:title="Reads the specified configuration file.">
<polygon fill="none" stroke="black" points="74,-38.5 74,-57.5 141,-57.5 141,-38.5 74,-38.5"/>
<text text-anchor="middle" x="107.5" y="-45.5" font-family="Helvetica,sans-Serif" font-size="10.00">config_read</text>
</a>
</g>
</g>
<!-- Node11&#45;&gt;Node12 -->
<g id="edge13" class="edge">
<title>Node11&#45;&gt;Node12</title>
<path fill="none" stroke="midnightblue" d="M282.58,-41.96C251.22,-41.67 212,-41.72 177,-43 165.32,-43.43 152.55,-44.26 141.23,-45.12"/>
<polygon fill="midnightblue" stroke="midnightblue" points="282.86,-45.46 292.9,-42.07 282.94,-38.46 282.86,-45.46"/>
</g>
<!-- Node12&#45;&gt;Node6 -->
<g id="edge14" class="edge">
<title>Node12&#45;&gt;Node6</title>
<path fill="none" stroke="midnightblue" d="M80.02,-62.39C66.31,-69.84 49.95,-78.73 37.78,-85.34"/>
<polygon fill="midnightblue" stroke="midnightblue" points="81.88,-65.36 89,-57.51 78.54,-59.21 81.88,-65.36"/>
</g>
</g>
</svg>
