<?xml version="1.0" encoding="UTF-8" standalone="no"?>
<!DOCTYPE svg PUBLIC "-//W3C//DTD SVG 1.1//EN"
 "http://www.w3.org/Graphics/SVG/1.1/DTD/svg11.dtd">
<!-- Generated by graphviz version 2.43.0 (0)
 -->
<!-- Title: ea.h Pages: 1 -->
<svg width="858pt" height="84pt"
 viewBox="0.00 0.00 857.50 84.00" xmlns="http://www.w3.org/2000/svg" xmlns:xlink="http://www.w3.org/1999/xlink">
<g id="graph0" class="graph" transform="scale(1 1) rotate(0) translate(4 80)">
<title>ea.h</title>
<!-- Node1 -->
<g id="node1" class="node">
<title>Node1</title>
<g id="a_node1"><a xlink:title="Evolutionary algorithm functions.">
<polygon fill="#bfbfbf" stroke="black" points="404.5,-56.5 404.5,-75.5 439.5,-75.5 439.5,-56.5 404.5,-56.5"/>
<text text-anchor="middle" x="422" y="-63.5" font-family="Helvetica,sans-Serif" font-size="10.00">ea.h</text>
</a>
</g>
</g>
<!-- Node2 -->
<g id="node2" class="node">
<title>Node2</title>
<g id="a_node2"><a xlink:href="cl_8c.html" target="_top" xlink:title="Functions operating on classifiers.">
<polygon fill="none" stroke="black" points="0,-0.5 0,-19.5 32,-19.5 32,-0.5 0,-0.5"/>
<text text-anchor="middle" x="16" y="-7.5" font-family="Helvetica,sans-Serif" font-size="10.00">cl.c</text>
</a>
</g>
</g>
<!-- Node1&#45;&gt;Node2 -->
<g id="edge1" class="edge">
<title>Node1&#45;&gt;Node2</title>
<path fill="none" stroke="midnightblue" d="M394.28,-63.89C330.92,-60.88 170.92,-50.63 41,-20 38.13,-19.32 35.13,-18.42 32.24,-17.45"/>
<polygon fill="midnightblue" stroke="midnightblue" points="394.14,-67.39 404.28,-64.34 394.45,-60.39 394.14,-67.39"/>
</g>
<!-- Node3 -->
<g id="node3" class="node">
<title>Node3</title>
<g id="a_node3"><a xlink:href="cond__ellipsoid_8c.html" target="_top" xlink:title="Hyperellipsoid condition functions.">
<polygon fill="none" stroke="black" points="50,-0.5 50,-19.5 136,-19.5 136,-0.5 50,-0.5"/>
<text text-anchor="middle" x="93" y="-7.5" font-family="Helvetica,sans-Serif" font-size="10.00">cond_ellipsoid.c</text>
</a>
</g>
</g>
<!-- Node1&#45;&gt;Node3 -->
<g id="edge2" class="edge">
<title>Node1&#45;&gt;Node3</title>
<path fill="none" stroke="midnightblue" d="M394.51,-60.63C344.72,-52.69 236.32,-35.32 145,-20 142.11,-19.51 139.13,-19.01 136.12,-18.5"/>
<polygon fill="midnightblue" stroke="midnightblue" points="394.06,-64.1 404.49,-62.22 395.16,-57.19 394.06,-64.1"/>
</g>
<!-- Node4 -->
<g id="node4" class="node">
<title>Node4</title>
<g id="a_node4"><a xlink:href="cond__gp_8c.html" target="_top" xlink:title="Tree GP condition functions.">
<polygon fill="none" stroke="black" points="154,-0.5 154,-19.5 216,-19.5 216,-0.5 154,-0.5"/>
<text text-anchor="middle" x="185" y="-7.5" font-family="Helvetica,sans-Serif" font-size="10.00">cond_gp.c</text>
</a>
</g>
</g>
<!-- Node1&#45;&gt;Node4 -->
<g id="edge3" class="edge">
<title>Node1&#45;&gt;Node4</title>
<path fill="none" stroke="midnightblue" d="M394.36,-58.7C349.92,-48.58 262.84,-28.74 216.22,-18.11"/>
<polygon fill="midnightblue" stroke="midnightblue" points="393.66,-62.13 404.19,-60.94 395.21,-55.31 393.66,-62.13"/>
</g>
<!-- Node5 -->
<g id="node5" class="node">
<title>Node5</title>
<g id="a_node5"><a xlink:href="cond__rectangle_8c.html" target="_top" xlink:title="Hyperrectangle condition functions.">
<polygon fill="none" stroke="black" points="234.5,-0.5 234.5,-19.5 325.5,-19.5 325.5,-0.5 234.5,-0.5"/>
<text text-anchor="middle" x="280" y="-7.5" font-family="Helvetica,sans-Serif" font-size="10.00">cond_rectangle.c</text>
</a>
</g>
</g>
<!-- Node1&#45;&gt;Node5 -->
<g id="edge4" class="edge">
<title>Node1&#45;&gt;Node5</title>
<path fill="none" stroke="midnightblue" d="M394.77,-54.65C368.02,-44.47 327.66,-29.12 302.61,-19.6"/>
<polygon fill="midnightblue" stroke="midnightblue" points="393.71,-57.99 404.3,-58.27 396.2,-51.44 393.71,-57.99"/>
</g>
<!-- Node6 -->
<g id="node6" class="node">
<title>Node6</title>
<g id="a_node6"><a xlink:href="cond__ternary_8c.html" target="_top" xlink:title="Ternary condition functions.">
<polygon fill="none" stroke="black" points="344,-0.5 344,-19.5 424,-19.5 424,-0.5 344,-0.5"/>
<text text-anchor="middle" x="384" y="-7.5" font-family="Helvetica,sans-Serif" font-size="10.00">cond_ternary.c</text>
</a>
</g>
</g>
<!-- Node1&#45;&gt;Node6 -->
<g id="edge5" class="edge">
<title>Node1&#45;&gt;Node6</title>
<path fill="none" stroke="midnightblue" d="M409.94,-47.86C403.36,-38.5 395.49,-27.33 390.16,-19.75"/>
<polygon fill="midnightblue" stroke="midnightblue" points="407.11,-49.92 415.73,-56.08 412.83,-45.89 407.11,-49.92"/>
</g>
<!-- Node7 -->
<g id="node7" class="node">
<title>Node7</title>
<g id="a_node7"><a xlink:href="ea_8c.html" target="_top" xlink:title="Evolutionary algorithm functions.">
<polygon fill="none" stroke="black" points="442.5,-0.5 442.5,-19.5 477.5,-19.5 477.5,-0.5 442.5,-0.5"/>
<text text-anchor="middle" x="460" y="-7.5" font-family="Helvetica,sans-Serif" font-size="10.00">ea.c</text>
</a>
</g>
</g>
<!-- Node1&#45;&gt;Node7 -->
<g id="edge6" class="edge">
<title>Node1&#45;&gt;Node7</title>
<path fill="none" stroke="midnightblue" d="M434.06,-47.86C440.64,-38.5 448.51,-27.33 453.84,-19.75"/>
<polygon fill="midnightblue" stroke="midnightblue" points="431.17,-45.89 428.27,-56.08 436.89,-49.92 431.17,-45.89"/>
</g>
<!-- Node8 -->
<g id="node8" class="node">
<title>Node8</title>
<g id="a_node8"><a xlink:href="param_8c.html" target="_top" xlink:title="Functions for setting and printing parameters.">
<polygon fill="none" stroke="black" points="496,-0.5 496,-19.5 548,-19.5 548,-0.5 496,-0.5"/>
<text text-anchor="middle" x="522" y="-7.5" font-family="Helvetica,sans-Serif" font-size="10.00">param.c</text>
</a>
</g>
</g>
<!-- Node1&#45;&gt;Node8 -->
<g id="edge7" class="edge">
<title>Node1&#45;&gt;Node8</title>
<path fill="none" stroke="midnightblue" d="M447.09,-51.45C465.55,-41.48 490.1,-28.23 505.97,-19.65"/>
<polygon fill="midnightblue" stroke="midnightblue" points="445.2,-48.49 438.07,-56.32 448.53,-54.65 445.2,-48.49"/>
</g>
<!-- Node9 -->
<g id="node9" class="node">
<title>Node9</title>
<g id="a_node9"><a xlink:href="pybind__wrapper_8cpp.html" target="_top" xlink:title="Python library wrapper functions.">
<polygon fill="none" stroke="black" points="566.5,-0.5 566.5,-19.5 669.5,-19.5 669.5,-0.5 566.5,-0.5"/>
<text text-anchor="middle" x="618" y="-7.5" font-family="Helvetica,sans-Serif" font-size="10.00">pybind_wrapper.cpp</text>
</a>
</g>
</g>
<!-- Node1&#45;&gt;Node9 -->
<g id="edge8" class="edge">
<title>Node1&#45;&gt;Node9</title>
<path fill="none" stroke="midnightblue" d="M449.63,-57.39C485.87,-47.4 549.28,-29.93 587.08,-19.52"/>
<polygon fill="midnightblue" stroke="midnightblue" points="448.45,-54.08 439.74,-60.11 450.31,-60.83 448.45,-54.08"/>
</g>
<!-- Node10 -->
<g id="node10" class="node">
<title>Node10</title>
<g id="a_node10"><a xlink:href="xcs__rl_8c.html" target="_top" xlink:title="Reinforcement learning functions.">
<polygon fill="none" stroke="black" points="687.5,-0.5 687.5,-19.5 738.5,-19.5 738.5,-0.5 687.5,-0.5"/>
<text text-anchor="middle" x="713" y="-7.5" font-family="Helvetica,sans-Serif" font-size="10.00">xcs_rl.c</text>
</a>
</g>
</g>
<!-- Node1&#45;&gt;Node10 -->
<g id="edge9" class="edge">
<title>Node1&#45;&gt;Node10</title>
<path fill="none" stroke="midnightblue" d="M449.61,-60.96C496.84,-53.87 596.09,-38.2 679,-20 681.74,-19.4 684.6,-18.72 687.44,-18.02"/>
<polygon fill="midnightblue" stroke="midnightblue" points="448.93,-57.52 439.55,-62.46 449.96,-64.44 448.93,-57.52"/>
</g>
<!-- Node11 -->
<g id="node11" class="node">
<title>Node11</title>
<g id="a_node11"><a xlink:href="xcs__supervised_8c.html" target="_top" xlink:title="Supervised regression learning functions.">
<polygon fill="none" stroke="black" points="756.5,-0.5 756.5,-19.5 849.5,-19.5 849.5,-0.5 756.5,-0.5"/>
<text text-anchor="middle" x="803" y="-7.5" font-family="Helvetica,sans-Serif" font-size="10.00">xcs_supervised.c</text>
</a>
</g>
</g>
<!-- Node1&#45;&gt;Node11 -->
<g id="edge10" class="edge">
<title>Node1&#45;&gt;Node11</title>
<path fill="none" stroke="midnightblue" d="M449.94,-61.38C506.35,-54.03 637.83,-36.61 748,-20 750.68,-19.6 753.43,-19.17 756.2,-18.74"/>
<polygon fill="midnightblue" stroke="midnightblue" points="449.16,-57.96 439.69,-62.72 450.06,-64.9 449.16,-57.96"/>
</g>
</g>
</svg>
