<?xml version="1.0" encoding="UTF-8" standalone="no"?>
<!DOCTYPE svg PUBLIC "-//W3C//DTD SVG 1.1//EN"
 "http://www.w3.org/Graphics/SVG/1.1/DTD/svg11.dtd">
<!-- Generated by graphviz version 2.43.0 (0)
 -->
<!-- Title: ea.h Pages: 1 -->
<svg width="927pt" height="84pt"
 viewBox="0.00 0.00 926.50 84.00" xmlns="http://www.w3.org/2000/svg" xmlns:xlink="http://www.w3.org/1999/xlink">
<g id="graph0" class="graph" transform="scale(1 1) rotate(0) translate(4 80)">
<title>ea.h</title>
<!-- Node1 -->
<g id="node1" class="node">
<title>Node1</title>
<g id="a_node1"><a xlink:title="Evolutionary algorithm functions.">
<polygon fill="#bfbfbf" stroke="black" points="450.5,-56.5 450.5,-75.5 485.5,-75.5 485.5,-56.5 450.5,-56.5"/>
<text text-anchor="middle" x="468" y="-63.5" font-family="Helvetica,sans-Serif" font-size="10.00">ea.h</text>
</a>
</g>
</g>
<!-- Node2 -->
<g id="node2" class="node">
<title>Node2</title>
<g id="a_node2"><a xlink:href="cl_8c.html" target="_top" xlink:title="Functions operating on classifiers.">
<polygon fill="none" stroke="black" points="0,-0.5 0,-19.5 32,-19.5 32,-0.5 0,-0.5"/>
<text text-anchor="middle" x="16" y="-7.5" font-family="Helvetica,sans-Serif" font-size="10.00">cl.c</text>
</a>
</g>
</g>
<!-- Node1&#45;&gt;Node2 -->
<g id="edge1" class="edge">
<title>Node1&#45;&gt;Node2</title>
<path fill="none" stroke="midnightblue" d="M440.26,-64.38C371.66,-62.34 188.94,-53.9 41,-20 38.12,-19.34 35.12,-18.45 32.24,-17.48"/>
<polygon fill="midnightblue" stroke="midnightblue" points="440.17,-67.88 450.26,-64.65 440.36,-60.88 440.17,-67.88"/>
</g>
<!-- Node3 -->
<g id="node3" class="node">
<title>Node3</title>
<g id="a_node3"><a xlink:href="cond__ellipsoid_8c.html" target="_top" xlink:title="Hyperellipsoid condition functions.">
<polygon fill="none" stroke="black" points="50,-0.5 50,-19.5 136,-19.5 136,-0.5 50,-0.5"/>
<text text-anchor="middle" x="93" y="-7.5" font-family="Helvetica,sans-Serif" font-size="10.00">cond_ellipsoid.c</text>
</a>
</g>
</g>
<!-- Node1&#45;&gt;Node3 -->
<g id="edge2" class="edge">
<title>Node1&#45;&gt;Node3</title>
<path fill="none" stroke="midnightblue" d="M440.3,-61.45C384.39,-54.23 254.08,-37.03 145,-20 142.1,-19.55 139.12,-19.07 136.11,-18.57"/>
<polygon fill="midnightblue" stroke="midnightblue" points="440.1,-64.96 450.46,-62.76 440.99,-58.01 440.1,-64.96"/>
</g>
<!-- Node4 -->
<g id="node4" class="node">
<title>Node4</title>
<g id="a_node4"><a xlink:href="cond__gp_8c.html" target="_top" xlink:title="Tree GP condition functions.">
<polygon fill="none" stroke="black" points="154,-0.5 154,-19.5 216,-19.5 216,-0.5 154,-0.5"/>
<text text-anchor="middle" x="185" y="-7.5" font-family="Helvetica,sans-Serif" font-size="10.00">cond_gp.c</text>
</a>
</g>
</g>
<!-- Node1&#45;&gt;Node4 -->
<g id="edge3" class="edge">
<title>Node1&#45;&gt;Node4</title>
<path fill="none" stroke="midnightblue" d="M440.35,-60.23C395.19,-52.37 302.82,-35.95 225,-20 222.21,-19.43 219.32,-18.82 216.42,-18.19"/>
<polygon fill="midnightblue" stroke="midnightblue" points="439.82,-63.69 450.27,-61.96 441.02,-56.8 439.82,-63.69"/>
</g>
<!-- Node5 -->
<g id="node5" class="node">
<title>Node5</title>
<g id="a_node5"><a xlink:href="cond__rectangle_8c.html" target="_top" xlink:title="Hyperrectangle condition functions.">
<polygon fill="none" stroke="black" points="234.5,-0.5 234.5,-19.5 325.5,-19.5 325.5,-0.5 234.5,-0.5"/>
<text text-anchor="middle" x="280" y="-7.5" font-family="Helvetica,sans-Serif" font-size="10.00">cond_rectangle.c</text>
</a>
</g>
</g>
<!-- Node1&#45;&gt;Node5 -->
<g id="edge4" class="edge">
<title>Node1&#45;&gt;Node5</title>
<path fill="none" stroke="midnightblue" d="M440.33,-57.05C405.42,-47.02 345.6,-29.84 309.74,-19.54"/>
<polygon fill="midnightblue" stroke="midnightblue" points="439.74,-60.52 450.31,-59.92 441.67,-53.8 439.74,-60.52"/>
</g>
<!-- Node6 -->
<g id="node6" class="node">
<title>Node6</title>
<g id="a_node6"><a xlink:href="cond__ternary_8c.html" target="_top" xlink:title="Ternary condition functions.">
<polygon fill="none" stroke="black" points="344,-0.5 344,-19.5 424,-19.5 424,-0.5 344,-0.5"/>
<text text-anchor="middle" x="384" y="-7.5" font-family="Helvetica,sans-Serif" font-size="10.00">cond_ternary.c</text>
</a>
</g>
</g>
<!-- Node1&#45;&gt;Node6 -->
<g id="edge5" class="edge">
<title>Node1&#45;&gt;Node6</title>
<path fill="none" stroke="midnightblue" d="M446.07,-50.9C430.66,-41 410.55,-28.07 397.46,-19.65"/>
<polygon fill="midnightblue" stroke="midnightblue" points="444.2,-53.86 454.5,-56.32 447.98,-47.97 444.2,-53.86"/>
</g>
<!-- Node7 -->
<g id="node7" class="node">
<title>Node7</title>
<g id="a_node7"><a xlink:href="config_8c.html" target="_top" xlink:title="Configuration file handling functions.">
<polygon fill="none" stroke="black" points="442.5,-0.5 442.5,-19.5 493.5,-19.5 493.5,-0.5 442.5,-0.5"/>
<text text-anchor="middle" x="468" y="-7.5" font-family="Helvetica,sans-Serif" font-size="10.00">config.c</text>
</a>
</g>
</g>
<!-- Node1&#45;&gt;Node7 -->
<g id="edge6" class="edge">
<title>Node1&#45;&gt;Node7</title>
<path fill="none" stroke="midnightblue" d="M468,-45.8C468,-36.91 468,-26.78 468,-19.75"/>
<polygon fill="midnightblue" stroke="midnightblue" points="464.5,-46.08 468,-56.08 471.5,-46.08 464.5,-46.08"/>
</g>
<!-- Node8 -->
<g id="node8" class="node">
<title>Node8</title>
<g id="a_node8"><a xlink:href="ea_8c.html" target="_top" xlink:title="Evolutionary algorithm functions.">
<polygon fill="none" stroke="black" points="511.5,-0.5 511.5,-19.5 546.5,-19.5 546.5,-0.5 511.5,-0.5"/>
<text text-anchor="middle" x="529" y="-7.5" font-family="Helvetica,sans-Serif" font-size="10.00">ea.c</text>
</a>
</g>
</g>
<!-- Node1&#45;&gt;Node8 -->
<g id="edge7" class="edge">
<title>Node1&#45;&gt;Node8</title>
<path fill="none" stroke="midnightblue" d="M485.47,-49.54C496.34,-39.91 509.94,-27.87 519.02,-19.83"/>
<polygon fill="midnightblue" stroke="midnightblue" points="482.97,-47.07 477.8,-56.32 487.61,-52.32 482.97,-47.07"/>
</g>
<!-- Node9 -->
<g id="node9" class="node">
<title>Node9</title>
<g id="a_node9"><a xlink:href="param_8c.html" target="_top" xlink:title="Functions for setting and printing parameters.">
<polygon fill="none" stroke="black" points="565,-0.5 565,-19.5 617,-19.5 617,-0.5 565,-0.5"/>
<text text-anchor="middle" x="591" y="-7.5" font-family="Helvetica,sans-Serif" font-size="10.00">param.c</text>
</a>
</g>
</g>
<!-- Node1&#45;&gt;Node9 -->
<g id="edge8" class="edge">
<title>Node1&#45;&gt;Node9</title>
<path fill="none" stroke="midnightblue" d="M494.86,-53.21C517.94,-43.07 550.68,-28.7 571.38,-19.62"/>
<polygon fill="midnightblue" stroke="midnightblue" points="493.37,-50.04 485.62,-57.26 496.19,-56.45 493.37,-50.04"/>
</g>
<!-- Node10 -->
<g id="node10" class="node">
<title>Node10</title>
<g id="a_node10"><a xlink:href="pybind__wrapper_8cpp.html" target="_top" xlink:title="Python library wrapper functions.">
<polygon fill="none" stroke="black" points="635.5,-0.5 635.5,-19.5 738.5,-19.5 738.5,-0.5 635.5,-0.5"/>
<text text-anchor="middle" x="687" y="-7.5" font-family="Helvetica,sans-Serif" font-size="10.00">pybind_wrapper.cpp</text>
</a>
</g>
</g>
<!-- Node1&#45;&gt;Node10 -->
<g id="edge9" class="edge">
<title>Node1&#45;&gt;Node10</title>
<path fill="none" stroke="midnightblue" d="M495.35,-58.26C535.11,-48.45 608.85,-30.27 652.36,-19.54"/>
<polygon fill="midnightblue" stroke="midnightblue" points="494.42,-54.88 485.55,-60.67 496.1,-61.68 494.42,-54.88"/>
</g>
<!-- Node11 -->
<g id="node11" class="node">
<title>Node11</title>
<g id="a_node11"><a xlink:href="xcs__rl_8c.html" target="_top" xlink:title="Reinforcement learning functions.">
<polygon fill="none" stroke="black" points="756.5,-0.5 756.5,-19.5 807.5,-19.5 807.5,-0.5 756.5,-0.5"/>
<text text-anchor="middle" x="782" y="-7.5" font-family="Helvetica,sans-Serif" font-size="10.00">xcs_rl.c</text>
</a>
</g>
</g>
<!-- Node1&#45;&gt;Node11 -->
<g id="edge10" class="edge">
<title>Node1&#45;&gt;Node11</title>
<path fill="none" stroke="midnightblue" d="M495.95,-61.45C546.52,-54.81 656.46,-39.42 748,-20 750.75,-19.42 753.61,-18.75 756.45,-18.06"/>
<polygon fill="midnightblue" stroke="midnightblue" points="495.27,-58 485.8,-62.76 496.17,-64.95 495.27,-58"/>
</g>
<!-- Node12 -->
<g id="node12" class="node">
<title>Node12</title>
<g id="a_node12"><a xlink:href="xcs__supervised_8c.html" target="_top" xlink:title="Supervised regression learning functions.">
<polygon fill="none" stroke="black" points="825.5,-0.5 825.5,-19.5 918.5,-19.5 918.5,-0.5 825.5,-0.5"/>
<text text-anchor="middle" x="872" y="-7.5" font-family="Helvetica,sans-Serif" font-size="10.00">xcs_supervised.c</text>
</a>
</g>
</g>
<!-- Node1&#45;&gt;Node12 -->
<g id="edge11" class="edge">
<title>Node1&#45;&gt;Node12</title>
<path fill="none" stroke="midnightblue" d="M495.89,-61.73C555.11,-54.71 697.78,-37.44 817,-20 819.68,-19.61 822.43,-19.19 825.21,-18.77"/>
<polygon fill="midnightblue" stroke="midnightblue" points="495.35,-58.27 485.83,-62.92 496.17,-65.22 495.35,-58.27"/>
</g>
</g>
</svg>
