<?xml version="1.0" encoding="UTF-8" standalone="no"?>
<!DOCTYPE svg PUBLIC "-//W3C//DTD SVG 1.1//EN"
 "http://www.w3.org/Graphics/SVG/1.1/DTD/svg11.dtd">
<!-- Generated by graphviz version 2.43.0 (0)
 -->
<!-- Title: ea_type_as_int Pages: 1 -->
<svg width="748pt" height="66pt"
 viewBox="0.00 0.00 748.00 66.00" xmlns="http://www.w3.org/2000/svg" xmlns:xlink="http://www.w3.org/1999/xlink">
<g id="graph0" class="graph" transform="scale(1 1) rotate(0) translate(4 62)">
<title>ea_type_as_int</title>
<!-- Node1 -->
<g id="node1" class="node">
<title>Node1</title>
<g id="a_node1"><a xlink:title="Returns the integer representation of an EA selection type.">
<polygon fill="#bfbfbf" stroke="black" points="657,-19.5 657,-38.5 740,-38.5 740,-19.5 657,-19.5"/>
<text text-anchor="middle" x="698.5" y="-26.5" font-family="Helvetica,sans-Serif" font-size="10.00">ea_type_as_int</text>
</a>
</g>
</g>
<!-- Node2 -->
<g id="node2" class="node">
<title>Node2</title>
<g id="a_node2"><a xlink:href="ea_8h.html#a7c618001ea65594331df774b0d84cde2" target="_top" xlink:title=" ">
<polygon fill="none" stroke="black" points="490,-19.5 490,-38.5 621,-38.5 621,-19.5 490,-19.5"/>
<text text-anchor="middle" x="555.5" y="-26.5" font-family="Helvetica,sans-Serif" font-size="10.00">ea_param_set_type_string</text>
</a>
</g>
</g>
<!-- Node1&#45;&gt;Node2 -->
<g id="edge1" class="edge">
<title>Node1&#45;&gt;Node2</title>
<path fill="none" stroke="midnightblue" d="M646.51,-29C638.26,-29 629.62,-29 621.1,-29"/>
<polygon fill="midnightblue" stroke="midnightblue" points="646.72,-32.5 656.72,-29 646.72,-25.5 646.72,-32.5"/>
</g>
<!-- Node3 -->
<g id="node3" class="node">
<title>Node3</title>
<g id="a_node3"><a xlink:href="ea_8h.html#ae78d49893c85cfe792ceafc58e590965" target="_top" xlink:title="Sets the EA parameters from a cJSON object.">
<polygon fill="none" stroke="black" points="332.5,-38.5 332.5,-57.5 447.5,-57.5 447.5,-38.5 332.5,-38.5"/>
<text text-anchor="middle" x="390" y="-45.5" font-family="Helvetica,sans-Serif" font-size="10.00">ea_param_json_import</text>
</a>
</g>
</g>
<!-- Node2&#45;&gt;Node3 -->
<g id="edge2" class="edge">
<title>Node2&#45;&gt;Node3</title>
<path fill="none" stroke="midnightblue" d="M479.67,-37.7C468.93,-38.94 458.04,-40.21 447.74,-41.41"/>
<polygon fill="midnightblue" stroke="midnightblue" points="480.35,-41.14 489.88,-36.51 479.54,-34.19 480.35,-41.14"/>
</g>
<!-- Node7 -->
<g id="node7" class="node">
<title>Node7</title>
<g id="a_node7"><a xlink:href="classXCS.html#a98fac3b28ebb3cfe5ccc1b83ab4700ed" target="_top" xlink:title=" ">
<polygon fill="none" stroke="black" points="326,-0.5 326,-19.5 454,-19.5 454,-0.5 326,-0.5"/>
<text text-anchor="middle" x="390" y="-7.5" font-family="Helvetica,sans-Serif" font-size="10.00">XCS::set_ea_select_type</text>
</a>
</g>
</g>
<!-- Node2&#45;&gt;Node7 -->
<g id="edge6" class="edge">
<title>Node2&#45;&gt;Node7</title>
<path fill="none" stroke="midnightblue" d="M479.84,-20.32C471.23,-19.32 462.52,-18.31 454.08,-17.33"/>
<polygon fill="midnightblue" stroke="midnightblue" points="479.54,-23.81 489.88,-21.49 480.35,-16.86 479.54,-23.81"/>
</g>
<!-- Node4 -->
<g id="node4" class="node">
<title>Node4</title>
<g id="a_node4"><a xlink:href="param_8h.html#a130260988988535419aee8abe51986c1" target="_top" xlink:title="Sets the parameters from a json formatted string.">
<polygon fill="none" stroke="black" points="184,-38.5 184,-57.5 283,-57.5 283,-38.5 184,-38.5"/>
<text text-anchor="middle" x="233.5" y="-45.5" font-family="Helvetica,sans-Serif" font-size="10.00">param_json_import</text>
</a>
</g>
</g>
<!-- Node3&#45;&gt;Node4 -->
<g id="edge3" class="edge">
<title>Node3&#45;&gt;Node4</title>
<path fill="none" stroke="midnightblue" d="M322.35,-48C309.13,-48 295.48,-48 283.01,-48"/>
<polygon fill="midnightblue" stroke="midnightblue" points="322.35,-51.5 332.35,-48 322.35,-44.5 322.35,-51.5"/>
</g>
<!-- Node5 -->
<g id="node5" class="node">
<title>Node5</title>
<g id="a_node5"><a xlink:href="config_8h.html#a045a64a30d99a4bef2ebfd9b54aa9698" target="_top" xlink:title="Reads the specified configuration file.">
<polygon fill="none" stroke="black" points="74,-38.5 74,-57.5 141,-57.5 141,-38.5 74,-38.5"/>
<text text-anchor="middle" x="107.5" y="-45.5" font-family="Helvetica,sans-Serif" font-size="10.00">config_read</text>
</a>
</g>
</g>
<!-- Node4&#45;&gt;Node5 -->
<g id="edge4" class="edge">
<title>Node4&#45;&gt;Node5</title>
<path fill="none" stroke="midnightblue" d="M173.71,-48C162.58,-48 151.31,-48 141.35,-48"/>
<polygon fill="midnightblue" stroke="midnightblue" points="173.85,-51.5 183.85,-48 173.85,-44.5 173.85,-51.5"/>
</g>
<!-- Node6 -->
<g id="node6" class="node">
<title>Node6</title>
<g id="a_node6"><a xlink:href="main_8c.html#a3c04138a5bfe5d72780bb7e82a18e627" target="_top" xlink:title=" ">
<polygon fill="none" stroke="black" points="0,-38.5 0,-57.5 38,-57.5 38,-38.5 0,-38.5"/>
<text text-anchor="middle" x="19" y="-45.5" font-family="Helvetica,sans-Serif" font-size="10.00">main</text>
</a>
</g>
</g>
<!-- Node5&#45;&gt;Node6 -->
<g id="edge5" class="edge">
<title>Node5&#45;&gt;Node6</title>
<path fill="none" stroke="midnightblue" d="M63.73,-48C54.73,-48 45.7,-48 38.2,-48"/>
<polygon fill="midnightblue" stroke="midnightblue" points="63.8,-51.5 73.8,-48 63.8,-44.5 63.8,-51.5"/>
</g>
<!-- Node8 -->
<g id="node8" class="node">
<title>Node8</title>
<g id="a_node8"><a xlink:href="pybind__wrapper_8cpp.html#a172daba0778fe2bd38d723d5f52a23d5" target="_top" xlink:title=" ">
<polygon fill="none" stroke="black" points="177,-0.5 177,-19.5 290,-19.5 290,-0.5 177,-0.5"/>
<text text-anchor="middle" x="233.5" y="-7.5" font-family="Helvetica,sans-Serif" font-size="10.00">PYBIND11_MODULE</text>
</a>
</g>
</g>
<!-- Node7&#45;&gt;Node8 -->
<g id="edge7" class="edge">
<title>Node7&#45;&gt;Node8</title>
<path fill="none" stroke="midnightblue" d="M315.65,-10C307.03,-10 298.34,-10 290.02,-10"/>
<polygon fill="midnightblue" stroke="midnightblue" points="315.71,-13.5 325.71,-10 315.71,-6.5 315.71,-13.5"/>
</g>
</g>
</svg>
