<?xml version="1.0" encoding="UTF-8" standalone="no"?>
<!DOCTYPE svg PUBLIC "-//W3C//DTD SVG 1.1//EN"
 "http://www.w3.org/Graphics/SVG/1.1/DTD/svg11.dtd">
<!-- Generated by graphviz version 2.43.0 (0)
 -->
<!-- Title: tree_param_set_max_len Pages: 1 -->
<svg width="1093pt" height="218pt"
 viewBox="0.00 0.00 1093.00 218.00" xmlns="http://www.w3.org/2000/svg" xmlns:xlink="http://www.w3.org/1999/xlink">
<g id="graph0" class="graph" transform="scale(1 1) rotate(0) translate(4 214)">
<title>tree_param_set_max_len</title>
<!-- Node1 -->
<g id="node1" class="node">
<title>Node1</title>
<g id="a_node1"><a xlink:title=" ">
<polygon fill="#bfbfbf" stroke="black" points="959,-68.5 959,-87.5 1085,-87.5 1085,-68.5 959,-68.5"/>
<text text-anchor="middle" x="1022" y="-75.5" font-family="Helvetica,sans-Serif" font-size="10.00">tree_param_set_max_len</text>
</a>
</g>
</g>
<!-- Node2 -->
<g id="node2" class="node">
<title>Node2</title>
<g id="a_node2"><a xlink:href="cond__gp_8c.html#a59163dacf829d985cdfe39037762d03d" target="_top" xlink:title="Initialises default tree GP condition parameters.">
<polygon fill="none" stroke="black" points="798,-88.5 798,-107.5 923,-107.5 923,-88.5 798,-88.5"/>
<text text-anchor="middle" x="860.5" y="-95.5" font-family="Helvetica,sans-Serif" font-size="10.00">cond_gp_param_defaults</text>
</a>
</g>
</g>
<!-- Node1&#45;&gt;Node2 -->
<g id="edge1" class="edge">
<title>Node1&#45;&gt;Node2</title>
<path fill="none" stroke="midnightblue" d="M948.88,-87.04C940.3,-88.12 931.61,-89.21 923.19,-90.26"/>
<polygon fill="midnightblue" stroke="midnightblue" points="949.39,-90.51 958.88,-85.79 948.52,-83.56 949.39,-90.51"/>
</g>
<!-- Node11 -->
<g id="node11" class="node">
<title>Node11</title>
<g id="a_node11"><a xlink:href="gp_8c.html#a7ee1efc093c4c4d9d52dd962c9d00595" target="_top" xlink:title="Sets the GP tree parameters from a cJSON object.">
<polygon fill="none" stroke="black" points="804,-49.5 804,-68.5 917,-68.5 917,-49.5 804,-49.5"/>
<text text-anchor="middle" x="860.5" y="-56.5" font-family="Helvetica,sans-Serif" font-size="10.00">tree_args_json_import</text>
</a>
</g>
</g>
<!-- Node1&#45;&gt;Node11 -->
<g id="edge12" class="edge">
<title>Node1&#45;&gt;Node11</title>
<path fill="none" stroke="midnightblue" d="M948.79,-69.4C938.2,-68.14 927.42,-66.85 917.22,-65.64"/>
<polygon fill="midnightblue" stroke="midnightblue" points="948.53,-72.89 958.88,-70.6 949.36,-65.94 948.53,-72.89"/>
</g>
<!-- Node3 -->
<g id="node3" class="node">
<title>Node3</title>
<g id="a_node3"><a xlink:href="condition_8c.html#ac7f09d43efc7400318fe32c917a92292" target="_top" xlink:title="Initialises default condition parameters.">
<polygon fill="none" stroke="black" points="652,-106.5 652,-125.5 762,-125.5 762,-106.5 652,-106.5"/>
<text text-anchor="middle" x="707" y="-113.5" font-family="Helvetica,sans-Serif" font-size="10.00">cond_param_defaults</text>
</a>
</g>
</g>
<!-- Node2&#45;&gt;Node3 -->
<g id="edge2" class="edge">
<title>Node2&#45;&gt;Node3</title>
<path fill="none" stroke="midnightblue" d="M787.84,-106.51C779.24,-107.54 770.56,-108.57 762.27,-109.55"/>
<polygon fill="midnightblue" stroke="midnightblue" points="788.36,-109.98 797.88,-105.32 787.54,-103.03 788.36,-109.98"/>
</g>
<!-- Node4 -->
<g id="node4" class="node">
<title>Node4</title>
<g id="a_node4"><a xlink:href="param_8c.html#ac8218a170803be0bcd974764e7494b0e" target="_top" xlink:title="Initialises default XCSF parameters.">
<polygon fill="none" stroke="black" points="522.5,-114.5 522.5,-133.5 584.5,-133.5 584.5,-114.5 522.5,-114.5"/>
<text text-anchor="middle" x="553.5" y="-121.5" font-family="Helvetica,sans-Serif" font-size="10.00">param_init</text>
</a>
</g>
</g>
<!-- Node3&#45;&gt;Node4 -->
<g id="edge3" class="edge">
<title>Node3&#45;&gt;Node4</title>
<path fill="none" stroke="midnightblue" d="M641.52,-119.4C621.76,-120.45 600.94,-121.55 584.63,-122.41"/>
<polygon fill="midnightblue" stroke="midnightblue" points="641.93,-122.89 651.73,-118.87 641.56,-115.9 641.93,-122.89"/>
</g>
<!-- Node5 -->
<g id="node5" class="node">
<title>Node5</title>
<g id="a_node5"><a xlink:href="env__csv_8c.html#ab26a39a388f0ac83b9ac14726ad14b16" target="_top" xlink:title="Initialises a CSV input environment from a specified filename.">
<polygon fill="none" stroke="black" points="348,-190.5 348,-209.5 419,-209.5 419,-190.5 348,-190.5"/>
<text text-anchor="middle" x="383.5" y="-197.5" font-family="Helvetica,sans-Serif" font-size="10.00">env_csv_init</text>
</a>
</g>
</g>
<!-- Node4&#45;&gt;Node5 -->
<g id="edge4" class="edge">
<title>Node4&#45;&gt;Node5</title>
<path fill="none" stroke="midnightblue" d="M530.56,-139.12C511.36,-151.78 482.33,-169.57 455,-181 443.66,-185.74 430.79,-189.62 419.18,-192.61"/>
<polygon fill="midnightblue" stroke="midnightblue" points="532.54,-142 538.9,-133.53 528.64,-136.19 532.54,-142"/>
</g>
<!-- Node8 -->
<g id="node8" class="node">
<title>Node8</title>
<g id="a_node8"><a xlink:href="env__maze_8c.html#acad3cc6e9fe2b7e07e878f1f517ad3a6" target="_top" xlink:title="Initialises a maze environment from a specified file.">
<polygon fill="none" stroke="black" points="343.5,-152.5 343.5,-171.5 423.5,-171.5 423.5,-152.5 343.5,-152.5"/>
<text text-anchor="middle" x="383.5" y="-159.5" font-family="Helvetica,sans-Serif" font-size="10.00">env_maze_init</text>
</a>
</g>
</g>
<!-- Node4&#45;&gt;Node8 -->
<g id="edge7" class="edge">
<title>Node4&#45;&gt;Node8</title>
<path fill="none" stroke="midnightblue" d="M512.62,-133.02C485.76,-139.1 450.49,-147.07 423.76,-153.12"/>
<polygon fill="midnightblue" stroke="midnightblue" points="513.48,-136.41 522.46,-130.79 511.94,-129.59 513.48,-136.41"/>
</g>
<!-- Node9 -->
<g id="node9" class="node">
<title>Node9</title>
<g id="a_node9"><a xlink:href="env__mux_8c.html#aff3b81b4913d273ecfd62d7585480b15" target="_top" xlink:title="Initialises a real multiplexer environment of specified length.">
<polygon fill="none" stroke="black" points="346.5,-114.5 346.5,-133.5 420.5,-133.5 420.5,-114.5 346.5,-114.5"/>
<text text-anchor="middle" x="383.5" y="-121.5" font-family="Helvetica,sans-Serif" font-size="10.00">env_mux_init</text>
</a>
</g>
</g>
<!-- Node4&#45;&gt;Node9 -->
<g id="edge9" class="edge">
<title>Node4&#45;&gt;Node9</title>
<path fill="none" stroke="midnightblue" d="M512.26,-124C484.41,-124 447.64,-124 420.7,-124"/>
<polygon fill="midnightblue" stroke="midnightblue" points="512.47,-127.5 522.46,-124 512.46,-120.5 512.47,-127.5"/>
</g>
<!-- Node10 -->
<g id="node10" class="node">
<title>Node10</title>
<g id="a_node10"><a xlink:href="classXCS.html#af1010afd63843f86ad1dd81fade9bd72" target="_top" xlink:title="Constructor.">
<polygon fill="none" stroke="black" points="351,-76.5 351,-95.5 416,-95.5 416,-76.5 351,-76.5"/>
<text text-anchor="middle" x="383.5" y="-83.5" font-family="Helvetica,sans-Serif" font-size="10.00">XCS::XCS</text>
</a>
</g>
</g>
<!-- Node4&#45;&gt;Node10 -->
<g id="edge11" class="edge">
<title>Node4&#45;&gt;Node10</title>
<path fill="none" stroke="midnightblue" d="M512.51,-114.95C483.06,-108.29 443.57,-99.36 416.27,-93.19"/>
<polygon fill="midnightblue" stroke="midnightblue" points="511.94,-118.41 522.46,-117.21 513.48,-111.59 511.94,-118.41"/>
</g>
<!-- Node6 -->
<g id="node6" class="node">
<title>Node6</title>
<g id="a_node6"><a xlink:href="env_8c.html#a9213fcf5fc422d6a77bce853b1d78dc9" target="_top" xlink:title="Initialises a built&#45;in problem environment.">
<polygon fill="none" stroke="black" points="201.5,-133.5 201.5,-152.5 251.5,-152.5 251.5,-133.5 201.5,-133.5"/>
<text text-anchor="middle" x="226.5" y="-140.5" font-family="Helvetica,sans-Serif" font-size="10.00">env_init</text>
</a>
</g>
</g>
<!-- Node5&#45;&gt;Node6 -->
<g id="edge5" class="edge">
<title>Node5&#45;&gt;Node6</title>
<path fill="none" stroke="midnightblue" d="M338.07,-189.18C329.35,-186.74 320.33,-183.97 312,-181 288.97,-172.78 263.5,-160.92 246.61,-152.65"/>
<polygon fill="midnightblue" stroke="midnightblue" points="337.17,-192.57 347.74,-191.81 339,-185.81 337.17,-192.57"/>
</g>
<!-- Node7 -->
<g id="node7" class="node">
<title>Node7</title>
<g id="a_node7"><a xlink:href="main_8c.html#a3c04138a5bfe5d72780bb7e82a18e627" target="_top" xlink:title=" ">
<polygon fill="none" stroke="black" points="0,-91.5 0,-110.5 38,-110.5 38,-91.5 0,-91.5"/>
<text text-anchor="middle" x="19" y="-98.5" font-family="Helvetica,sans-Serif" font-size="10.00">main</text>
</a>
</g>
</g>
<!-- Node6&#45;&gt;Node7 -->
<g id="edge6" class="edge">
<title>Node6&#45;&gt;Node7</title>
<path fill="none" stroke="midnightblue" d="M191.15,-135.98C147.08,-126.97 72.24,-111.68 38.03,-104.69"/>
<polygon fill="midnightblue" stroke="midnightblue" points="190.62,-139.44 201.12,-138.02 192.02,-132.59 190.62,-139.44"/>
</g>
<!-- Node8&#45;&gt;Node6 -->
<g id="edge8" class="edge">
<title>Node8&#45;&gt;Node6</title>
<path fill="none" stroke="midnightblue" d="M333.24,-155.96C305.99,-152.62 273.34,-148.62 251.6,-145.95"/>
<polygon fill="midnightblue" stroke="midnightblue" points="333.04,-159.46 343.39,-157.21 333.89,-152.51 333.04,-159.46"/>
</g>
<!-- Node9&#45;&gt;Node6 -->
<g id="edge10" class="edge">
<title>Node9&#45;&gt;Node6</title>
<path fill="none" stroke="midnightblue" d="M336.23,-129.67C308.39,-133.08 274.09,-137.29 251.55,-140.05"/>
<polygon fill="midnightblue" stroke="midnightblue" points="336.66,-133.15 346.16,-128.45 335.81,-126.2 336.66,-133.15"/>
</g>
<!-- Node12 -->
<g id="node12" class="node">
<title>Node12</title>
<g id="a_node12"><a xlink:href="cond__gp_8c.html#a98843961b5ca747608752353a5d0edae" target="_top" xlink:title="Sets the tree GP parameters from a cJSON object.">
<polygon fill="none" stroke="black" points="652.5,-41 652.5,-71 761.5,-71 761.5,-41 652.5,-41"/>
<text text-anchor="start" x="660.5" y="-59" font-family="Helvetica,sans-Serif" font-size="10.00">cond_gp_param_json</text>
<text text-anchor="middle" x="707" y="-48" font-family="Helvetica,sans-Serif" font-size="10.00">_import</text>
</a>
</g>
</g>
<!-- Node11&#45;&gt;Node12 -->
<g id="edge13" class="edge">
<title>Node11&#45;&gt;Node12</title>
<path fill="none" stroke="midnightblue" d="M793.74,-57.7C782.98,-57.48 771.95,-57.27 761.53,-57.06"/>
<polygon fill="midnightblue" stroke="midnightblue" points="793.88,-61.2 803.95,-57.9 794.02,-54.2 793.88,-61.2"/>
</g>
<!-- Node13 -->
<g id="node13" class="node">
<title>Node13</title>
<g id="a_node13"><a xlink:href="condition_8c.html#a05cc17fed48d042eaefd1e22582b24c6" target="_top" xlink:title="Sets the condition parameters from a cJSON object.">
<polygon fill="none" stroke="black" points="491,-38.5 491,-57.5 616,-57.5 616,-38.5 491,-38.5"/>
<text text-anchor="middle" x="553.5" y="-45.5" font-family="Helvetica,sans-Serif" font-size="10.00">cond_param_json_import</text>
</a>
</g>
</g>
<!-- Node12&#45;&gt;Node13 -->
<g id="edge14" class="edge">
<title>Node12&#45;&gt;Node13</title>
<path fill="none" stroke="midnightblue" d="M641.9,-52.61C633.38,-52.17 624.65,-51.7 616.17,-51.26"/>
<polygon fill="midnightblue" stroke="midnightblue" points="641.99,-56.12 652.16,-53.16 642.36,-49.13 641.99,-56.12"/>
</g>
<!-- Node14 -->
<g id="node14" class="node">
<title>Node14</title>
<g id="a_node14"><a xlink:href="param_8c.html#a94f5495282a36944cade334e52c3c5cd" target="_top" xlink:title="Sets the condition parameters from a json formatted string.">
<polygon fill="none" stroke="black" points="312,-38.5 312,-57.5 455,-57.5 455,-38.5 312,-38.5"/>
<text text-anchor="middle" x="383.5" y="-45.5" font-family="Helvetica,sans-Serif" font-size="10.00">param_json_import_condition</text>
</a>
</g>
</g>
<!-- Node13&#45;&gt;Node14 -->
<g id="edge15" class="edge">
<title>Node13&#45;&gt;Node14</title>
<path fill="none" stroke="midnightblue" d="M480.7,-48C472.25,-48 463.63,-48 455.19,-48"/>
<polygon fill="midnightblue" stroke="midnightblue" points="480.9,-51.5 490.9,-48 480.9,-44.5 480.9,-51.5"/>
</g>
<!-- Node17 -->
<g id="node17" class="node">
<title>Node17</title>
<g id="a_node17"><a xlink:href="classXCS.html#ab16720d21296ba0832318f67e55522e3" target="_top" xlink:title="Sets the condition type and initialisation arguments.">
<polygon fill="none" stroke="black" points="333,-0.5 333,-19.5 434,-19.5 434,-0.5 333,-0.5"/>
<text text-anchor="middle" x="383.5" y="-7.5" font-family="Helvetica,sans-Serif" font-size="10.00">XCS::set_condition</text>
</a>
</g>
</g>
<!-- Node13&#45;&gt;Node17 -->
<g id="edge19" class="edge">
<title>Node13&#45;&gt;Node17</title>
<path fill="none" stroke="midnightblue" d="M500.22,-36.18C476.54,-30.82 448.91,-24.57 426.59,-19.52"/>
<polygon fill="midnightblue" stroke="midnightblue" points="499.58,-39.62 510.11,-38.41 501.13,-32.79 499.58,-39.62"/>
</g>
<!-- Node15 -->
<g id="node15" class="node">
<title>Node15</title>
<g id="a_node15"><a xlink:href="param_8c.html#a130260988988535419aee8abe51986c1" target="_top" xlink:title="Sets the parameters from a json formatted string.">
<polygon fill="none" stroke="black" points="177,-53.5 177,-72.5 276,-72.5 276,-53.5 177,-53.5"/>
<text text-anchor="middle" x="226.5" y="-60.5" font-family="Helvetica,sans-Serif" font-size="10.00">param_json_import</text>
</a>
</g>
</g>
<!-- Node14&#45;&gt;Node15 -->
<g id="edge16" class="edge">
<title>Node14&#45;&gt;Node15</title>
<path fill="none" stroke="midnightblue" d="M301.67,-55.82C293.04,-56.66 284.47,-57.49 276.38,-58.27"/>
<polygon fill="midnightblue" stroke="midnightblue" points="302.19,-59.29 311.8,-54.84 301.51,-52.32 302.19,-59.29"/>
</g>
<!-- Node16 -->
<g id="node16" class="node">
<title>Node16</title>
<g id="a_node16"><a xlink:href="config_8c.html#a045a64a30d99a4bef2ebfd9b54aa9698" target="_top" xlink:title="Reads the specified configuration file.">
<polygon fill="none" stroke="black" points="74,-72.5 74,-91.5 141,-91.5 141,-72.5 74,-72.5"/>
<text text-anchor="middle" x="107.5" y="-79.5" font-family="Helvetica,sans-Serif" font-size="10.00">config_read</text>
</a>
</g>
</g>
<!-- Node15&#45;&gt;Node16 -->
<g id="edge17" class="edge">
<title>Node15&#45;&gt;Node16</title>
<path fill="none" stroke="midnightblue" d="M166.92,-72.51C158.05,-73.95 149.18,-75.39 141.13,-76.7"/>
<polygon fill="midnightblue" stroke="midnightblue" points="167.59,-75.95 176.9,-70.89 166.47,-69.04 167.59,-75.95"/>
</g>
<!-- Node16&#45;&gt;Node7 -->
<g id="edge18" class="edge">
<title>Node16&#45;&gt;Node7</title>
<path fill="none" stroke="midnightblue" d="M64.02,-91.33C54.92,-93.33 45.78,-95.34 38.2,-97"/>
<polygon fill="midnightblue" stroke="midnightblue" points="64.78,-94.75 73.8,-89.18 63.28,-87.91 64.78,-94.75"/>
</g>
</g>
</svg>
