<?xml version="1.0" encoding="UTF-8" standalone="no"?>
<!DOCTYPE svg PUBLIC "-//W3C//DTD SVG 1.1//EN"
 "http://www.w3.org/Graphics/SVG/1.1/DTD/svg11.dtd">
<!-- Generated by graphviz version 2.43.0 (0)
 -->
<!-- Title: tree_args_init_constants Pages: 1 -->
<svg width="1024pt" height="208pt"
 viewBox="0.00 0.00 1024.00 208.00" xmlns="http://www.w3.org/2000/svg" xmlns:xlink="http://www.w3.org/1999/xlink">
<g id="graph0" class="graph" transform="scale(1 1) rotate(0) translate(4 204)">
<title>tree_args_init_constants</title>
<!-- Node1 -->
<g id="node1" class="node">
<title>Node1</title>
<g id="a_node1"><a xlink:title="Builds global constants used by GP trees.">
<polygon fill="#bfbfbf" stroke="black" points="893,-63.5 893,-82.5 1016,-82.5 1016,-63.5 893,-63.5"/>
<text text-anchor="middle" x="954.5" y="-70.5" font-family="Helvetica,sans-Serif" font-size="10.00">tree_args_init_constants</text>
</a>
</g>
</g>
<!-- Node2 -->
<g id="node2" class="node">
<title>Node2</title>
<g id="a_node2"><a xlink:href="cond__gp_8c.html#a59163dacf829d985cdfe39037762d03d" target="_top" xlink:title="Initialises default tree GP condition parameters.">
<polygon fill="none" stroke="black" points="732,-101.5 732,-120.5 857,-120.5 857,-101.5 732,-101.5"/>
<text text-anchor="middle" x="794.5" y="-108.5" font-family="Helvetica,sans-Serif" font-size="10.00">cond_gp_param_defaults</text>
</a>
</g>
</g>
<!-- Node1&#45;&gt;Node2 -->
<g id="edge1" class="edge">
<title>Node1&#45;&gt;Node2</title>
<path fill="none" stroke="midnightblue" d="M903.74,-84.97C881.6,-90.29 855.89,-96.48 835.08,-101.48"/>
<polygon fill="midnightblue" stroke="midnightblue" points="904.73,-88.33 913.63,-82.59 903.09,-81.52 904.73,-88.33"/>
</g>
<!-- Node13 -->
<g id="node13" class="node">
<title>Node13</title>
<g id="a_node13"><a xlink:href="cond__gp_8c.html#a98843961b5ca747608752353a5d0edae" target="_top" xlink:title="Sets the tree GP parameters from a cJSON object.">
<polygon fill="none" stroke="black" points="740,-36 740,-66 849,-66 849,-36 740,-36"/>
<text text-anchor="start" x="748" y="-54" font-family="Helvetica,sans-Serif" font-size="10.00">cond_gp_param_json</text>
<text text-anchor="middle" x="794.5" y="-43" font-family="Helvetica,sans-Serif" font-size="10.00">_import</text>
</a>
</g>
</g>
<!-- Node1&#45;&gt;Node13 -->
<g id="edge14" class="edge">
<title>Node1&#45;&gt;Node13</title>
<path fill="none" stroke="midnightblue" d="M882.94,-63.17C871.54,-61.59 859.91,-59.97 849.01,-58.45"/>
<polygon fill="midnightblue" stroke="midnightblue" points="882.48,-66.64 892.86,-64.56 883.44,-59.71 882.48,-66.64"/>
</g>
<!-- Node3 -->
<g id="node3" class="node">
<title>Node3</title>
<g id="a_node3"><a xlink:href="condition_8c.html#ac7f09d43efc7400318fe32c917a92292" target="_top" xlink:title="Initialises default condition parameters.">
<polygon fill="none" stroke="black" points="578.5,-102.5 578.5,-121.5 688.5,-121.5 688.5,-102.5 578.5,-102.5"/>
<text text-anchor="middle" x="633.5" y="-109.5" font-family="Helvetica,sans-Serif" font-size="10.00">cond_param_defaults</text>
</a>
</g>
</g>
<!-- Node2&#45;&gt;Node3 -->
<g id="edge2" class="edge">
<title>Node2&#45;&gt;Node3</title>
<path fill="none" stroke="midnightblue" d="M721.47,-111.45C710.39,-111.52 699.11,-111.59 688.51,-111.66"/>
<polygon fill="midnightblue" stroke="midnightblue" points="721.59,-114.95 731.57,-111.39 721.55,-107.95 721.59,-114.95"/>
</g>
<!-- Node4 -->
<g id="node4" class="node">
<title>Node4</title>
<g id="a_node4"><a xlink:href="param_8c.html#ac8218a170803be0bcd974764e7494b0e" target="_top" xlink:title="Initialises default XCSF parameters.">
<polygon fill="none" stroke="black" points="432.5,-104.5 432.5,-123.5 494.5,-123.5 494.5,-104.5 432.5,-104.5"/>
<text text-anchor="middle" x="463.5" y="-111.5" font-family="Helvetica,sans-Serif" font-size="10.00">param_init</text>
</a>
</g>
</g>
<!-- Node3&#45;&gt;Node4 -->
<g id="edge3" class="edge">
<title>Node3&#45;&gt;Node4</title>
<path fill="none" stroke="midnightblue" d="M568.19,-112.77C543.04,-113.07 515.39,-113.39 494.97,-113.64"/>
<polygon fill="midnightblue" stroke="midnightblue" points="568.46,-116.26 578.42,-112.64 568.38,-109.26 568.46,-116.26"/>
</g>
<!-- Node5 -->
<g id="node5" class="node">
<title>Node5</title>
<g id="a_node5"><a xlink:href="env__csv_8c.html#ab26a39a388f0ac83b9ac14726ad14b16" target="_top" xlink:title="Initialises a CSV input environment from a specified filename.">
<polygon fill="none" stroke="black" points="271,-142.5 271,-161.5 342,-161.5 342,-142.5 271,-142.5"/>
<text text-anchor="middle" x="306.5" y="-149.5" font-family="Helvetica,sans-Serif" font-size="10.00">env_csv_init</text>
</a>
</g>
</g>
<!-- Node4&#45;&gt;Node5 -->
<g id="edge4" class="edge">
<title>Node4&#45;&gt;Node5</title>
<path fill="none" stroke="midnightblue" d="M422.37,-123.84C397.46,-129.94 365.78,-137.71 342,-143.54"/>
<polygon fill="midnightblue" stroke="midnightblue" points="423.37,-127.2 432.25,-121.42 421.7,-120.4 423.37,-127.2"/>
</g>
<!-- Node8 -->
<g id="node8" class="node">
<title>Node8</title>
<g id="a_node8"><a xlink:href="env__maze_8c.html#acad3cc6e9fe2b7e07e878f1f517ad3a6" target="_top" xlink:title="Initialises a maze environment from a specified file.">
<polygon fill="none" stroke="black" points="266.5,-104.5 266.5,-123.5 346.5,-123.5 346.5,-104.5 266.5,-104.5"/>
<text text-anchor="middle" x="306.5" y="-111.5" font-family="Helvetica,sans-Serif" font-size="10.00">env_maze_init</text>
</a>
</g>
</g>
<!-- Node4&#45;&gt;Node8 -->
<g id="edge7" class="edge">
<title>Node4&#45;&gt;Node8</title>
<path fill="none" stroke="midnightblue" d="M421.99,-114C398.69,-114 369.55,-114 346.51,-114"/>
<polygon fill="midnightblue" stroke="midnightblue" points="422.25,-117.5 432.25,-114 422.25,-110.5 422.25,-117.5"/>
</g>
<!-- Node9 -->
<g id="node9" class="node">
<title>Node9</title>
<g id="a_node9"><a xlink:href="env__mux_8c.html#aff3b81b4913d273ecfd62d7585480b15" target="_top" xlink:title="Initialises a real multiplexer environment of specified length.">
<polygon fill="none" stroke="black" points="269.5,-66.5 269.5,-85.5 343.5,-85.5 343.5,-66.5 269.5,-66.5"/>
<text text-anchor="middle" x="306.5" y="-73.5" font-family="Helvetica,sans-Serif" font-size="10.00">env_mux_init</text>
</a>
</g>
</g>
<!-- Node4&#45;&gt;Node9 -->
<g id="edge9" class="edge">
<title>Node4&#45;&gt;Node9</title>
<path fill="none" stroke="midnightblue" d="M422.26,-104.13C397.95,-98.17 367.21,-90.64 343.67,-84.87"/>
<polygon fill="midnightblue" stroke="midnightblue" points="421.7,-107.6 432.25,-106.58 423.37,-100.8 421.7,-107.6"/>
</g>
<!-- Node10 -->
<g id="node10" class="node">
<title>Node10</title>
<g id="a_node10"><a xlink:href="classXCS.html#a2e542f3f17c9c76d07045adf1f5c16f9" target="_top" xlink:title="Resets basic constructor variables.">
<polygon fill="none" stroke="black" points="274,-180.5 274,-199.5 339,-199.5 339,-180.5 274,-180.5"/>
<text text-anchor="middle" x="306.5" y="-187.5" font-family="Helvetica,sans-Serif" font-size="10.00">XCS::reset</text>
</a>
</g>
</g>
<!-- Node4&#45;&gt;Node10 -->
<g id="edge11" class="edge">
<title>Node4&#45;&gt;Node10</title>
<path fill="none" stroke="midnightblue" d="M437.46,-128.49C416.14,-140.55 384.53,-157.83 356,-171 348.86,-174.3 340.97,-177.55 333.66,-180.4"/>
<polygon fill="midnightblue" stroke="midnightblue" points="439.25,-131.49 446.2,-123.5 435.78,-125.41 439.25,-131.49"/>
</g>
<!-- Node6 -->
<g id="node6" class="node">
<title>Node6</title>
<g id="a_node6"><a xlink:href="env_8c.html#a9213fcf5fc422d6a77bce853b1d78dc9" target="_top" xlink:title="Initialises a built&#45;in problem environment.">
<polygon fill="none" stroke="black" points="148.5,-104.5 148.5,-123.5 198.5,-123.5 198.5,-104.5 148.5,-104.5"/>
<text text-anchor="middle" x="173.5" y="-111.5" font-family="Helvetica,sans-Serif" font-size="10.00">env_init</text>
</a>
</g>
</g>
<!-- Node5&#45;&gt;Node6 -->
<g id="edge5" class="edge">
<title>Node5&#45;&gt;Node6</title>
<path fill="none" stroke="midnightblue" d="M262.7,-139.58C241.53,-133.44 216.76,-126.26 198.86,-121.07"/>
<polygon fill="midnightblue" stroke="midnightblue" points="261.86,-142.99 272.44,-142.41 263.81,-136.26 261.86,-142.99"/>
</g>
<!-- Node7 -->
<g id="node7" class="node">
<title>Node7</title>
<g id="a_node7"><a xlink:href="main_8c.html#a3c04138a5bfe5d72780bb7e82a18e627" target="_top" xlink:title=" ">
<polygon fill="none" stroke="black" points="26,-95.5 26,-114.5 64,-114.5 64,-95.5 26,-95.5"/>
<text text-anchor="middle" x="45" y="-102.5" font-family="Helvetica,sans-Serif" font-size="10.00">main</text>
</a>
</g>
</g>
<!-- Node6&#45;&gt;Node7 -->
<g id="edge6" class="edge">
<title>Node6&#45;&gt;Node7</title>
<path fill="none" stroke="midnightblue" d="M138.34,-111.57C114.49,-109.87 83.58,-107.67 64.26,-106.3"/>
<polygon fill="midnightblue" stroke="midnightblue" points="138.19,-115.07 148.41,-112.29 138.68,-108.09 138.19,-115.07"/>
</g>
<!-- Node8&#45;&gt;Node6 -->
<g id="edge8" class="edge">
<title>Node8&#45;&gt;Node6</title>
<path fill="none" stroke="midnightblue" d="M256.12,-114C236.43,-114 214.65,-114 198.55,-114"/>
<polygon fill="midnightblue" stroke="midnightblue" points="256.2,-117.5 266.2,-114 256.2,-110.5 256.2,-117.5"/>
</g>
<!-- Node9&#45;&gt;Node6 -->
<g id="edge10" class="edge">
<title>Node9&#45;&gt;Node6</title>
<path fill="none" stroke="midnightblue" d="M262.7,-88.42C241.53,-94.56 216.76,-101.74 198.86,-106.93"/>
<polygon fill="midnightblue" stroke="midnightblue" points="263.81,-91.74 272.44,-85.59 261.86,-85.01 263.81,-91.74"/>
</g>
<!-- Node11 -->
<g id="node11" class="node">
<title>Node11</title>
<g id="a_node11"><a xlink:href="classXCS.html#a8a53a8df81152fbf73e6abcc6a6e56b4" target="_top" xlink:title="Default Constructor.">
<polygon fill="none" stroke="black" points="141,-180.5 141,-199.5 206,-199.5 206,-180.5 141,-180.5"/>
<text text-anchor="middle" x="173.5" y="-187.5" font-family="Helvetica,sans-Serif" font-size="10.00">XCS::XCS</text>
</a>
</g>
</g>
<!-- Node10&#45;&gt;Node11 -->
<g id="edge12" class="edge">
<title>Node10&#45;&gt;Node11</title>
<path fill="none" stroke="midnightblue" d="M263.55,-190C245.01,-190 223.57,-190 206.37,-190"/>
<polygon fill="midnightblue" stroke="midnightblue" points="263.79,-193.5 273.79,-190 263.79,-186.5 263.79,-193.5"/>
</g>
<!-- Node12 -->
<g id="node12" class="node">
<title>Node12</title>
<g id="a_node12"><a xlink:href="classXCS.html#a71b21201e1a2aef16702a2c308eb6683" target="_top" xlink:title="Implements pickle file reading.">
<polygon fill="none" stroke="black" points="0,-180.5 0,-199.5 90,-199.5 90,-180.5 0,-180.5"/>
<text text-anchor="middle" x="45" y="-187.5" font-family="Helvetica,sans-Serif" font-size="10.00">XCS::deserialize</text>
</a>
</g>
</g>
<!-- Node11&#45;&gt;Node12 -->
<g id="edge13" class="edge">
<title>Node11&#45;&gt;Node12</title>
<path fill="none" stroke="midnightblue" d="M130.78,-190C117.72,-190 103.28,-190 90.06,-190"/>
<polygon fill="midnightblue" stroke="midnightblue" points="130.91,-193.5 140.91,-190 130.9,-186.5 130.91,-193.5"/>
</g>
<!-- Node14 -->
<g id="node14" class="node">
<title>Node14</title>
<g id="a_node14"><a xlink:href="condition_8c.html#a05cc17fed48d042eaefd1e22582b24c6" target="_top" xlink:title="Sets the condition parameters from a cJSON object.">
<polygon fill="none" stroke="black" points="571,-40.5 571,-59.5 696,-59.5 696,-40.5 571,-40.5"/>
<text text-anchor="middle" x="633.5" y="-47.5" font-family="Helvetica,sans-Serif" font-size="10.00">cond_param_json_import</text>
</a>
</g>
</g>
<!-- Node13&#45;&gt;Node14 -->
<g id="edge15" class="edge">
<title>Node13&#45;&gt;Node14</title>
<path fill="none" stroke="midnightblue" d="M729.34,-50.6C718.42,-50.53 707.09,-50.46 696.22,-50.39"/>
<polygon fill="midnightblue" stroke="midnightblue" points="729.65,-54.1 739.67,-50.66 729.69,-47.1 729.65,-54.1"/>
</g>
<!-- Node15 -->
<g id="node15" class="node">
<title>Node15</title>
<g id="a_node15"><a xlink:href="param_8c.html#a94f5495282a36944cade334e52c3c5cd" target="_top" xlink:title="Sets the condition parameters from a json formatted string.">
<polygon fill="none" stroke="black" points="392,-32.5 392,-51.5 535,-51.5 535,-32.5 392,-32.5"/>
<text text-anchor="middle" x="463.5" y="-39.5" font-family="Helvetica,sans-Serif" font-size="10.00">param_json_import_condition</text>
</a>
</g>
</g>
<!-- Node14&#45;&gt;Node15 -->
<g id="edge16" class="edge">
<title>Node14&#45;&gt;Node15</title>
<path fill="none" stroke="midnightblue" d="M560.7,-46.58C552.25,-46.18 543.63,-45.77 535.19,-45.37"/>
<polygon fill="midnightblue" stroke="midnightblue" points="560.74,-50.09 570.9,-47.07 561.07,-43.09 560.74,-50.09"/>
</g>
<!-- Node16 -->
<g id="node16" class="node">
<title>Node16</title>
<g id="a_node16"><a xlink:href="param_8c.html#a130260988988535419aee8abe51986c1" target="_top" xlink:title="Sets the parameters from a json formatted string.">
<polygon fill="none" stroke="black" points="257,-28.5 257,-47.5 356,-47.5 356,-28.5 257,-28.5"/>
<text text-anchor="middle" x="306.5" y="-35.5" font-family="Helvetica,sans-Serif" font-size="10.00">param_json_import</text>
</a>
</g>
</g>
<!-- Node15&#45;&gt;Node16 -->
<g id="edge17" class="edge">
<title>Node15&#45;&gt;Node16</title>
<path fill="none" stroke="midnightblue" d="M381.67,-39.91C373.04,-39.69 364.47,-39.47 356.38,-39.26"/>
<polygon fill="midnightblue" stroke="midnightblue" points="381.72,-43.42 391.8,-40.18 381.9,-36.42 381.72,-43.42"/>
</g>
<!-- Node17 -->
<g id="node17" class="node">
<title>Node17</title>
<g id="a_node17"><a xlink:href="config_8c.html#a045a64a30d99a4bef2ebfd9b54aa9698" target="_top" xlink:title="Reads the specified configuration file.">
<polygon fill="none" stroke="black" points="140,-66.5 140,-85.5 207,-85.5 207,-66.5 140,-66.5"/>
<text text-anchor="middle" x="173.5" y="-73.5" font-family="Helvetica,sans-Serif" font-size="10.00">config_read</text>
</a>
</g>
</g>
<!-- Node16&#45;&gt;Node17 -->
<g id="edge18" class="edge">
<title>Node16&#45;&gt;Node17</title>
<path fill="none" stroke="midnightblue" d="M262.71,-50.41C244.62,-55.66 223.9,-61.67 207.09,-66.55"/>
<polygon fill="midnightblue" stroke="midnightblue" points="263.81,-53.74 272.44,-47.59 261.86,-47.01 263.81,-53.74"/>
</g>
<!-- Node18 -->
<g id="node18" class="node">
<title>Node18</title>
<g id="a_node18"><a xlink:href="classXCS.html#ad8780630d80d4bf5b76d9bf2f6c91f25" target="_top" xlink:title="Sets parameter values.">
<polygon fill="none" stroke="black" points="126,-28.5 126,-47.5 221,-47.5 221,-28.5 126,-28.5"/>
<text text-anchor="middle" x="173.5" y="-35.5" font-family="Helvetica,sans-Serif" font-size="10.00">XCS::set_params</text>
</a>
</g>
</g>
<!-- Node16&#45;&gt;Node18 -->
<g id="edge20" class="edge">
<title>Node16&#45;&gt;Node18</title>
<path fill="none" stroke="midnightblue" d="M246.48,-38C237.99,-38 229.35,-38 221.15,-38"/>
<polygon fill="midnightblue" stroke="midnightblue" points="246.72,-41.5 256.72,-38 246.72,-34.5 246.72,-41.5"/>
</g>
<!-- Node17&#45;&gt;Node7 -->
<g id="edge19" class="edge">
<title>Node17&#45;&gt;Node7</title>
<path fill="none" stroke="midnightblue" d="M129.93,-85.76C107.47,-90.91 81.11,-96.95 64.01,-100.87"/>
<polygon fill="midnightblue" stroke="midnightblue" points="130.96,-89.11 139.92,-83.47 129.39,-82.29 130.96,-89.11"/>
</g>
<!-- Node19 -->
<g id="node19" class="node">
<title>Node19</title>
<g id="a_node19"><a xlink:href="classXCS.html#a0c600c37d5e5160d553b52b6d5c179b4" target="_top" xlink:title="Sets XCSF input and output dimensions.">
<polygon fill="none" stroke="black" points="3.5,-38.5 3.5,-57.5 86.5,-57.5 86.5,-38.5 3.5,-38.5"/>
<text text-anchor="middle" x="45" y="-45.5" font-family="Helvetica,sans-Serif" font-size="10.00">XCS::set_dims</text>
</a>
</g>
</g>
<!-- Node18&#45;&gt;Node19 -->
<g id="edge21" class="edge">
<title>Node18&#45;&gt;Node19</title>
<path fill="none" stroke="midnightblue" d="M115.69,-42.49C105.93,-43.26 95.96,-44.05 86.72,-44.78"/>
<polygon fill="midnightblue" stroke="midnightblue" points="116.06,-45.97 125.76,-41.7 115.51,-38.99 116.06,-45.97"/>
</g>
<!-- Node20 -->
<g id="node20" class="node">
<title>Node20</title>
<g id="a_node20"><a xlink:href="classXCS.html#a608a50f998819369d28ef9966d6812ca" target="_top" xlink:title="Constructor.">
<polygon fill="none" stroke="black" points="12.5,-0.5 12.5,-19.5 77.5,-19.5 77.5,-0.5 12.5,-0.5"/>
<text text-anchor="middle" x="45" y="-7.5" font-family="Helvetica,sans-Serif" font-size="10.00">XCS::XCS</text>
</a>
</g>
</g>
<!-- Node18&#45;&gt;Node20 -->
<g id="edge22" class="edge">
<title>Node18&#45;&gt;Node20</title>
<path fill="none" stroke="midnightblue" d="M119.22,-26.21C105.13,-23.09 90.36,-19.82 77.81,-17.04"/>
<polygon fill="midnightblue" stroke="midnightblue" points="118.8,-29.7 129.32,-28.44 120.31,-22.86 118.8,-29.7"/>
</g>
</g>
</svg>
