<?xml version="1.0" encoding="UTF-8" standalone="no"?>
<!DOCTYPE svg PUBLIC "-//W3C//DTD SVG 1.1//EN"
 "http://www.w3.org/Graphics/SVG/1.1/DTD/svg11.dtd">
<!-- Generated by graphviz version 2.43.0 (0)
 -->
<!-- Title: tree_eval Pages: 1 -->
<svg width="235pt" height="57pt"
 viewBox="0.00 0.00 235.00 56.96" xmlns="http://www.w3.org/2000/svg" xmlns:xlink="http://www.w3.org/1999/xlink">
<g id="graph0" class="graph" transform="scale(1 1) rotate(0) translate(4 52.96)">
<title>tree_eval</title>
<!-- Node1 -->
<g id="node1" class="node">
<title>Node1</title>
<g id="a_node1"><a xlink:title="Evaluates a GP tree.">
<polygon fill="#bfbfbf" stroke="black" points="0,-28.5 0,-47.5 56,-47.5 56,-28.5 0,-28.5"/>
<text text-anchor="middle" x="28" y="-35.5" font-family="Helvetica,sans-Serif" font-size="10.00">tree_eval</text>
</a>
</g>
</g>
<!-- Node2 -->
<g id="node2" class="node">
<title>Node2</title>
<g id="a_node2"><a xlink:href="utils_8h.html#a234dd9ca33bcf1fba3e675bc900abc88" target="_top" xlink:title="Returns a float clamped within the specified range.">
<polygon fill="none" stroke="black" points="184,-28.5 184,-47.5 227,-47.5 227,-28.5 184,-28.5"/>
<text text-anchor="middle" x="205.5" y="-35.5" font-family="Helvetica,sans-Serif" font-size="10.00">clamp</text>
</a>
</g>
</g>
<!-- Node1&#45;&gt;Node2 -->
<g id="edge1" class="edge">
<title>Node1&#45;&gt;Node2</title>
<path fill="none" stroke="midnightblue" d="M56.2,-42.75C67.27,-44.45 80.21,-46.16 92,-47 116.83,-48.76 123.19,-48.96 148,-47 156.42,-46.33 165.49,-45.12 173.84,-43.79"/>
<polygon fill="midnightblue" stroke="midnightblue" points="174.66,-47.2 183.93,-42.08 173.49,-40.3 174.66,-47.2"/>
</g>
<!-- Node3 -->
<g id="node3" class="node">
<title>Node3</title>
<g id="a_node3"><a xlink:href="gp_8c.html#a88f58058fc80e2e8c8735ed7843705b2" target="_top" xlink:title="Evaluates a GP tree.">
<polygon fill="none" stroke="black" points="92,-0.5 92,-19.5 148,-19.5 148,-0.5 92,-0.5"/>
<text text-anchor="middle" x="120" y="-7.5" font-family="Helvetica,sans-Serif" font-size="10.00">tree_eval</text>
</a>
</g>
</g>
<!-- Node1&#45;&gt;Node3 -->
<g id="edge2" class="edge">
<title>Node1&#45;&gt;Node3</title>
<path fill="none" stroke="midnightblue" d="M56,-29.6C64.2,-27.05 73.36,-24.2 82.09,-21.48"/>
<polygon fill="midnightblue" stroke="midnightblue" points="83.2,-24.8 91.71,-18.49 81.12,-18.12 83.2,-24.8"/>
</g>
<!-- Node3&#45;&gt;Node2 -->
<g id="edge3" class="edge">
<title>Node3&#45;&gt;Node2</title>
<path fill="none" stroke="midnightblue" d="M148.34,-19.17C156.68,-21.97 165.9,-25.06 174.41,-27.91"/>
<polygon fill="midnightblue" stroke="midnightblue" points="173.39,-31.26 183.99,-31.12 175.62,-24.62 173.39,-31.26"/>
</g>
<!-- Node3&#45;&gt;Node3 -->
<g id="edge4" class="edge">
<title>Node3&#45;&gt;Node3</title>
<path fill="none" stroke="midnightblue" d="M107.05,-19.76C100.75,-28.57 105.07,-38 120,-38 129.1,-38 134.25,-34.5 135.47,-29.77"/>
<polygon fill="midnightblue" stroke="midnightblue" points="138.78,-28.6 132.95,-19.76 132,-30.31 138.78,-28.6"/>
</g>
</g>
</svg>
