<?xml version="1.0" encoding="UTF-8" standalone="no"?>
<!DOCTYPE svg PUBLIC "-//W3C//DTD SVG 1.1//EN"
 "http://www.w3.org/Graphics/SVG/1.1/DTD/svg11.dtd">
<!-- Generated by graphviz version 2.43.0 (0)
 -->
<!-- Title: tree_args_init_constants Pages: 1 -->
<svg width="944pt" height="216pt"
 viewBox="0.00 0.00 944.00 216.00" xmlns="http://www.w3.org/2000/svg" xmlns:xlink="http://www.w3.org/1999/xlink">
<g id="graph0" class="graph" transform="scale(1 1) rotate(0) translate(4 212)">
<title>tree_args_init_constants</title>
<!-- Node1 -->
<g id="node1" class="node">
<title>Node1</title>
<g id="a_node1"><a xlink:title="Builds global constants used by GP trees.">
<polygon fill="#bfbfbf" stroke="black" points="813,-76.5 813,-95.5 936,-95.5 936,-76.5 813,-76.5"/>
<text text-anchor="middle" x="874.5" y="-83.5" font-family="Helvetica,sans-Serif" font-size="10.00">tree_args_init_constants</text>
</a>
</g>
</g>
<!-- Node2 -->
<g id="node2" class="node">
<title>Node2</title>
<g id="a_node2"><a xlink:href="cond__gp_8c.html#a59163dacf829d985cdfe39037762d03d" target="_top" xlink:title="Initialises default tree GP condition parameters.">
<polygon fill="none" stroke="black" points="652,-106.5 652,-125.5 777,-125.5 777,-106.5 652,-106.5"/>
<text text-anchor="middle" x="714.5" y="-113.5" font-family="Helvetica,sans-Serif" font-size="10.00">cond_gp_param_defaults</text>
</a>
</g>
</g>
<!-- Node1&#45;&gt;Node2 -->
<g id="edge1" class="edge">
<title>Node1&#45;&gt;Node2</title>
<path fill="none" stroke="midnightblue" d="M812.99,-97.49C797.38,-100.45 780.74,-103.61 765.72,-106.46"/>
<polygon fill="midnightblue" stroke="midnightblue" points="813.9,-100.88 823.07,-95.57 812.6,-94 813.9,-100.88"/>
</g>
<!-- Node11 -->
<g id="node11" class="node">
<title>Node11</title>
<g id="a_node11"><a xlink:href="cond__gp_8c.html#a98843961b5ca747608752353a5d0edae" target="_top" xlink:title="Sets the tree GP parameters from a cJSON object.">
<polygon fill="none" stroke="black" points="660,-49 660,-79 769,-79 769,-49 660,-49"/>
<text text-anchor="start" x="668" y="-67" font-family="Helvetica,sans-Serif" font-size="10.00">cond_gp_param_json</text>
<text text-anchor="middle" x="714.5" y="-56" font-family="Helvetica,sans-Serif" font-size="10.00">_import</text>
</a>
</g>
</g>
<!-- Node1&#45;&gt;Node11 -->
<g id="edge12" class="edge">
<title>Node1&#45;&gt;Node11</title>
<path fill="none" stroke="midnightblue" d="M802.94,-76.17C791.54,-74.59 779.91,-72.97 769.01,-71.45"/>
<polygon fill="midnightblue" stroke="midnightblue" points="802.48,-79.64 812.86,-77.56 803.44,-72.71 802.48,-79.64"/>
</g>
<!-- Node3 -->
<g id="node3" class="node">
<title>Node3</title>
<g id="a_node3"><a xlink:href="condition_8c.html#ac7f09d43efc7400318fe32c917a92292" target="_top" xlink:title="Initialises default condition parameters.">
<polygon fill="none" stroke="black" points="498.5,-108.5 498.5,-127.5 608.5,-127.5 608.5,-108.5 498.5,-108.5"/>
<text text-anchor="middle" x="553.5" y="-115.5" font-family="Helvetica,sans-Serif" font-size="10.00">cond_param_defaults</text>
</a>
</g>
</g>
<!-- Node2&#45;&gt;Node3 -->
<g id="edge2" class="edge">
<title>Node2&#45;&gt;Node3</title>
<path fill="none" stroke="midnightblue" d="M641.47,-116.91C630.39,-117.05 619.11,-117.19 608.51,-117.32"/>
<polygon fill="midnightblue" stroke="midnightblue" points="641.62,-120.4 651.57,-116.78 641.53,-113.41 641.62,-120.4"/>
</g>
<!-- Node4 -->
<g id="node4" class="node">
<title>Node4</title>
<g id="a_node4"><a xlink:href="param_8c.html#ac8218a170803be0bcd974764e7494b0e" target="_top" xlink:title="Initialises default XCSF parameters.">
<polygon fill="none" stroke="black" points="352.5,-112.5 352.5,-131.5 414.5,-131.5 414.5,-112.5 352.5,-112.5"/>
<text text-anchor="middle" x="383.5" y="-119.5" font-family="Helvetica,sans-Serif" font-size="10.00">param_init</text>
</a>
</g>
</g>
<!-- Node3&#45;&gt;Node4 -->
<g id="edge3" class="edge">
<title>Node3&#45;&gt;Node4</title>
<path fill="none" stroke="midnightblue" d="M488.19,-119.53C463.04,-120.13 435.39,-120.79 414.97,-121.27"/>
<polygon fill="midnightblue" stroke="midnightblue" points="488.51,-123.02 498.42,-119.29 488.34,-116.03 488.51,-123.02"/>
</g>
<!-- Node5 -->
<g id="node5" class="node">
<title>Node5</title>
<g id="a_node5"><a xlink:href="env__csv_8c.html#ab26a39a388f0ac83b9ac14726ad14b16" target="_top" xlink:title="Initialises a CSV input environment from a specified filename.">
<polygon fill="none" stroke="black" points="191,-188.5 191,-207.5 262,-207.5 262,-188.5 191,-188.5"/>
<text text-anchor="middle" x="226.5" y="-195.5" font-family="Helvetica,sans-Serif" font-size="10.00">env_csv_init</text>
</a>
</g>
</g>
<!-- Node4&#45;&gt;Node5 -->
<g id="edge4" class="edge">
<title>Node4&#45;&gt;Node5</title>
<path fill="none" stroke="midnightblue" d="M357.46,-136.49C336.14,-148.55 304.53,-165.83 276,-179 268.86,-182.3 260.97,-185.55 253.66,-188.4"/>
<polygon fill="midnightblue" stroke="midnightblue" points="359.25,-139.49 366.2,-131.5 355.78,-133.41 359.25,-139.49"/>
</g>
<!-- Node8 -->
<g id="node8" class="node">
<title>Node8</title>
<g id="a_node8"><a xlink:href="env__maze_8c.html#acad3cc6e9fe2b7e07e878f1f517ad3a6" target="_top" xlink:title="Initialises a maze environment from a specified file.">
<polygon fill="none" stroke="black" points="186.5,-150.5 186.5,-169.5 266.5,-169.5 266.5,-150.5 186.5,-150.5"/>
<text text-anchor="middle" x="226.5" y="-157.5" font-family="Helvetica,sans-Serif" font-size="10.00">env_maze_init</text>
</a>
</g>
</g>
<!-- Node4&#45;&gt;Node8 -->
<g id="edge7" class="edge">
<title>Node4&#45;&gt;Node8</title>
<path fill="none" stroke="midnightblue" d="M342.31,-131.85C318.95,-137.58 289.66,-144.76 266.51,-150.44"/>
<polygon fill="midnightblue" stroke="midnightblue" points="343.37,-135.2 352.25,-129.42 341.7,-128.4 343.37,-135.2"/>
</g>
<!-- Node9 -->
<g id="node9" class="node">
<title>Node9</title>
<g id="a_node9"><a xlink:href="env__mux_8c.html#aff3b81b4913d273ecfd62d7585480b15" target="_top" xlink:title="Initialises a real multiplexer environment of specified length.">
<polygon fill="none" stroke="black" points="189.5,-112.5 189.5,-131.5 263.5,-131.5 263.5,-112.5 189.5,-112.5"/>
<text text-anchor="middle" x="226.5" y="-119.5" font-family="Helvetica,sans-Serif" font-size="10.00">env_mux_init</text>
</a>
</g>
</g>
<!-- Node4&#45;&gt;Node9 -->
<g id="edge9" class="edge">
<title>Node4&#45;&gt;Node9</title>
<path fill="none" stroke="midnightblue" d="M341.93,-122C317.67,-122 287.11,-122 263.67,-122"/>
<polygon fill="midnightblue" stroke="midnightblue" points="342.25,-125.5 352.25,-122 342.25,-118.5 342.25,-125.5"/>
</g>
<!-- Node10 -->
<g id="node10" class="node">
<title>Node10</title>
<g id="a_node10"><a xlink:href="classXCS.html#af1010afd63843f86ad1dd81fade9bd72" target="_top" xlink:title="Constructor.">
<polygon fill="none" stroke="black" points="194,-74.5 194,-93.5 259,-93.5 259,-74.5 194,-74.5"/>
<text text-anchor="middle" x="226.5" y="-81.5" font-family="Helvetica,sans-Serif" font-size="10.00">XCS::XCS</text>
</a>
</g>
</g>
<!-- Node4&#45;&gt;Node10 -->
<g id="edge11" class="edge">
<title>Node4&#45;&gt;Node10</title>
<path fill="none" stroke="midnightblue" d="M342.33,-112.15C316.37,-105.79 283.06,-97.62 259.01,-91.72"/>
<polygon fill="midnightblue" stroke="midnightblue" points="341.7,-115.6 352.25,-114.58 343.37,-108.8 341.7,-115.6"/>
</g>
<!-- Node6 -->
<g id="node6" class="node">
<title>Node6</title>
<g id="a_node6"><a xlink:href="env_8c.html#a9213fcf5fc422d6a77bce853b1d78dc9" target="_top" xlink:title="Initialises a built&#45;in problem environment.">
<polygon fill="none" stroke="black" points="82.5,-131.5 82.5,-150.5 132.5,-150.5 132.5,-131.5 82.5,-131.5"/>
<text text-anchor="middle" x="107.5" y="-138.5" font-family="Helvetica,sans-Serif" font-size="10.00">env_init</text>
</a>
</g>
</g>
<!-- Node5&#45;&gt;Node6 -->
<g id="edge5" class="edge">
<title>Node5&#45;&gt;Node6</title>
<path fill="none" stroke="midnightblue" d="M189.85,-184.66C185.49,-182.85 181.12,-180.94 177,-179 158.42,-170.25 137.93,-158.61 124.24,-150.52"/>
<polygon fill="midnightblue" stroke="midnightblue" points="188.72,-187.98 199.3,-188.47 191.34,-181.49 188.72,-187.98"/>
</g>
<!-- Node7 -->
<g id="node7" class="node">
<title>Node7</title>
<g id="a_node7"><a xlink:href="main_8c.html#a3c04138a5bfe5d72780bb7e82a18e627" target="_top" xlink:title=" ">
<polygon fill="none" stroke="black" points="0,-93.5 0,-112.5 38,-112.5 38,-93.5 0,-93.5"/>
<text text-anchor="middle" x="19" y="-100.5" font-family="Helvetica,sans-Serif" font-size="10.00">main</text>
</a>
</g>
</g>
<!-- Node6&#45;&gt;Node7 -->
<g id="edge6" class="edge">
<title>Node6&#45;&gt;Node7</title>
<path fill="none" stroke="midnightblue" d="M75.44,-127.36C62.89,-121.84 48.84,-115.67 38.03,-110.92"/>
<polygon fill="midnightblue" stroke="midnightblue" points="74.11,-130.59 84.67,-131.41 76.92,-124.18 74.11,-130.59"/>
</g>
<!-- Node8&#45;&gt;Node6 -->
<g id="edge8" class="edge">
<title>Node8&#45;&gt;Node6</title>
<path fill="none" stroke="midnightblue" d="M175.98,-151.96C160.93,-149.51 145.07,-146.94 132.51,-144.9"/>
<polygon fill="midnightblue" stroke="midnightblue" points="175.78,-155.47 186.22,-153.62 176.91,-148.56 175.78,-155.47"/>
</g>
<!-- Node9&#45;&gt;Node6 -->
<g id="edge10" class="edge">
<title>Node9&#45;&gt;Node6</title>
<path fill="none" stroke="midnightblue" d="M179.24,-129.51C163.36,-132.09 146.21,-134.88 132.78,-137.06"/>
<polygon fill="midnightblue" stroke="midnightblue" points="180.13,-132.91 189.44,-127.86 179.01,-126 180.13,-132.91"/>
</g>
<!-- Node12 -->
<g id="node12" class="node">
<title>Node12</title>
<g id="a_node12"><a xlink:href="condition_8c.html#a05cc17fed48d042eaefd1e22582b24c6" target="_top" xlink:title="Sets the condition parameters from a cJSON object.">
<polygon fill="none" stroke="black" points="491,-38.5 491,-57.5 616,-57.5 616,-38.5 491,-38.5"/>
<text text-anchor="middle" x="553.5" y="-45.5" font-family="Helvetica,sans-Serif" font-size="10.00">cond_param_json_import</text>
</a>
</g>
</g>
<!-- Node11&#45;&gt;Node12 -->
<g id="edge13" class="edge">
<title>Node11&#45;&gt;Node12</title>
<path fill="none" stroke="midnightblue" d="M649.68,-57.58C638.65,-56.47 627.2,-55.32 616.22,-54.21"/>
<polygon fill="midnightblue" stroke="midnightblue" points="649.37,-61.06 659.67,-58.58 650.07,-54.1 649.37,-61.06"/>
</g>
<!-- Node13 -->
<g id="node13" class="node">
<title>Node13</title>
<g id="a_node13"><a xlink:href="param_8c.html#a94f5495282a36944cade334e52c3c5cd" target="_top" xlink:title="Sets the condition parameters from a json formatted string.">
<polygon fill="none" stroke="black" points="312,-38.5 312,-57.5 455,-57.5 455,-38.5 312,-38.5"/>
<text text-anchor="middle" x="383.5" y="-45.5" font-family="Helvetica,sans-Serif" font-size="10.00">param_json_import_condition</text>
</a>
</g>
</g>
<!-- Node12&#45;&gt;Node13 -->
<g id="edge14" class="edge">
<title>Node12&#45;&gt;Node13</title>
<path fill="none" stroke="midnightblue" d="M480.7,-48C472.25,-48 463.63,-48 455.19,-48"/>
<polygon fill="midnightblue" stroke="midnightblue" points="480.9,-51.5 490.9,-48 480.9,-44.5 480.9,-51.5"/>
</g>
<!-- Node16 -->
<g id="node16" class="node">
<title>Node16</title>
<g id="a_node16"><a xlink:href="classXCS.html#ab16720d21296ba0832318f67e55522e3" target="_top" xlink:title="Sets the condition type and initialisation arguments.">
<polygon fill="none" stroke="black" points="333,-0.5 333,-19.5 434,-19.5 434,-0.5 333,-0.5"/>
<text text-anchor="middle" x="383.5" y="-7.5" font-family="Helvetica,sans-Serif" font-size="10.00">XCS::set_condition</text>
</a>
</g>
</g>
<!-- Node12&#45;&gt;Node16 -->
<g id="edge18" class="edge">
<title>Node12&#45;&gt;Node16</title>
<path fill="none" stroke="midnightblue" d="M500.22,-36.18C476.54,-30.82 448.91,-24.57 426.59,-19.52"/>
<polygon fill="midnightblue" stroke="midnightblue" points="499.58,-39.62 510.11,-38.41 501.13,-32.79 499.58,-39.62"/>
</g>
<!-- Node14 -->
<g id="node14" class="node">
<title>Node14</title>
<g id="a_node14"><a xlink:href="param_8c.html#a130260988988535419aee8abe51986c1" target="_top" xlink:title="Sets the parameters from a json formatted string.">
<polygon fill="none" stroke="black" points="177,-36.5 177,-55.5 276,-55.5 276,-36.5 177,-36.5"/>
<text text-anchor="middle" x="226.5" y="-43.5" font-family="Helvetica,sans-Serif" font-size="10.00">param_json_import</text>
</a>
</g>
</g>
<!-- Node13&#45;&gt;Node14 -->
<g id="edge15" class="edge">
<title>Node13&#45;&gt;Node14</title>
<path fill="none" stroke="midnightblue" d="M301.67,-46.96C293.04,-46.85 284.47,-46.74 276.38,-46.63"/>
<polygon fill="midnightblue" stroke="midnightblue" points="301.76,-50.46 311.8,-47.09 301.85,-43.46 301.76,-50.46"/>
</g>
<!-- Node15 -->
<g id="node15" class="node">
<title>Node15</title>
<g id="a_node15"><a xlink:href="config_8c.html#a045a64a30d99a4bef2ebfd9b54aa9698" target="_top" xlink:title="Reads the specified configuration file.">
<polygon fill="none" stroke="black" points="74,-74.5 74,-93.5 141,-93.5 141,-74.5 74,-74.5"/>
<text text-anchor="middle" x="107.5" y="-81.5" font-family="Helvetica,sans-Serif" font-size="10.00">config_read</text>
</a>
</g>
</g>
<!-- Node14&#45;&gt;Node15 -->
<g id="edge16" class="edge">
<title>Node14&#45;&gt;Node15</title>
<path fill="none" stroke="midnightblue" d="M186.46,-58.68C170.65,-63.81 152.7,-69.64 138.01,-74.41"/>
<polygon fill="midnightblue" stroke="midnightblue" points="187.55,-62.01 195.98,-55.59 185.38,-55.35 187.55,-62.01"/>
</g>
<!-- Node15&#45;&gt;Node7 -->
<g id="edge17" class="edge">
<title>Node15&#45;&gt;Node7</title>
<path fill="none" stroke="midnightblue" d="M64.02,-93.33C54.92,-95.33 45.78,-97.34 38.2,-99"/>
<polygon fill="midnightblue" stroke="midnightblue" points="64.78,-96.75 73.8,-91.18 63.28,-89.91 64.78,-96.75"/>
</g>
</g>
</svg>
