<?xml version="1.0" encoding="UTF-8" standalone="no"?>
<!DOCTYPE svg PUBLIC "-//W3C//DTD SVG 1.1//EN"
 "http://www.w3.org/Graphics/SVG/1.1/DTD/svg11.dtd">
<!-- Generated by graphviz version 2.43.0 (0)
 -->
<!-- Title: tree_args_load Pages: 1 -->
<svg width="513pt" height="66pt"
 viewBox="0.00 0.00 513.00 66.00" xmlns="http://www.w3.org/2000/svg" xmlns:xlink="http://www.w3.org/1999/xlink">
<g id="graph0" class="graph" transform="scale(1 1) rotate(0) translate(4 62)">
<title>tree_args_load</title>
<!-- Node1 -->
<g id="node1" class="node">
<title>Node1</title>
<g id="a_node1"><a xlink:title="Loads Tree GP parameters.">
<polygon fill="#bfbfbf" stroke="black" points="425,-19.5 425,-38.5 505,-38.5 505,-19.5 425,-19.5"/>
<text text-anchor="middle" x="465" y="-26.5" font-family="Helvetica,sans-Serif" font-size="10.00">tree_args_load</text>
</a>
</g>
</g>
<!-- Node2 -->
<g id="node2" class="node">
<title>Node2</title>
<g id="a_node2"><a xlink:href="condition_8c.html#a529394a6a6f7f5a7aa596e14b2eb1ec2" target="_top" xlink:title="Loads condition parameters.">
<polygon fill="none" stroke="black" points="296,-19.5 296,-38.5 389,-38.5 389,-19.5 296,-19.5"/>
<text text-anchor="middle" x="342.5" y="-26.5" font-family="Helvetica,sans-Serif" font-size="10.00">cond_param_load</text>
</a>
</g>
</g>
<!-- Node1&#45;&gt;Node2 -->
<g id="edge1" class="edge">
<title>Node1&#45;&gt;Node2</title>
<path fill="none" stroke="midnightblue" d="M414.74,-29C406.27,-29 397.5,-29 389.13,-29"/>
<polygon fill="midnightblue" stroke="midnightblue" points="414.88,-32.5 424.88,-29 414.88,-25.5 414.88,-32.5"/>
</g>
<!-- Node3 -->
<g id="node3" class="node">
<title>Node3</title>
<g id="a_node3"><a xlink:href="param_8c.html#ae7f8932981ba2f49027da90acfd121b1" target="_top" xlink:title="Reads the XCSF data structure from a file.">
<polygon fill="none" stroke="black" points="193,-19.5 193,-38.5 260,-38.5 260,-19.5 193,-19.5"/>
<text text-anchor="middle" x="226.5" y="-26.5" font-family="Helvetica,sans-Serif" font-size="10.00">param_load</text>
</a>
</g>
</g>
<!-- Node2&#45;&gt;Node3 -->
<g id="edge2" class="edge">
<title>Node2&#45;&gt;Node3</title>
<path fill="none" stroke="midnightblue" d="M285.64,-29C276.94,-29 268.2,-29 260.24,-29"/>
<polygon fill="midnightblue" stroke="midnightblue" points="285.79,-32.5 295.79,-29 285.79,-25.5 285.79,-32.5"/>
</g>
<!-- Node4 -->
<g id="node4" class="node">
<title>Node4</title>
<g id="a_node4"><a xlink:href="xcsf_8c.html#ada5fb9a2a1e9225aad40a36614fc0de7" target="_top" xlink:title="Reads the state of XCSF from a file.">
<polygon fill="none" stroke="black" points="98,-19.5 98,-38.5 157,-38.5 157,-19.5 98,-19.5"/>
<text text-anchor="middle" x="127.5" y="-26.5" font-family="Helvetica,sans-Serif" font-size="10.00">xcsf_load</text>
</a>
</g>
</g>
<!-- Node3&#45;&gt;Node4 -->
<g id="edge3" class="edge">
<title>Node3&#45;&gt;Node4</title>
<path fill="none" stroke="midnightblue" d="M182.92,-29C174.24,-29 165.3,-29 157.24,-29"/>
<polygon fill="midnightblue" stroke="midnightblue" points="182.93,-32.5 192.93,-29 182.93,-25.5 182.93,-32.5"/>
</g>
<!-- Node5 -->
<g id="node5" class="node">
<title>Node5</title>
<g id="a_node5"><a xlink:href="classXCS.html#a1a7ff32cb3485c0de9dd988f6f3e3470" target="_top" xlink:title="Reads the entire current state of XCSF from a file.">
<polygon fill="none" stroke="black" points="0,-38.5 0,-57.5 62,-57.5 62,-38.5 0,-38.5"/>
<text text-anchor="middle" x="31" y="-45.5" font-family="Helvetica,sans-Serif" font-size="10.00">XCS::load</text>
</a>
</g>
</g>
<!-- Node4&#45;&gt;Node5 -->
<g id="edge4" class="edge">
<title>Node4&#45;&gt;Node5</title>
<path fill="none" stroke="midnightblue" d="M88.03,-36.74C79.4,-38.47 70.38,-40.28 62.15,-41.94"/>
<polygon fill="midnightblue" stroke="midnightblue" points="88.78,-40.15 97.89,-34.75 87.4,-33.29 88.78,-40.15"/>
</g>
<!-- Node6 -->
<g id="node6" class="node">
<title>Node6</title>
<g id="a_node6"><a xlink:href="main_8c.html#a3c04138a5bfe5d72780bb7e82a18e627" target="_top" xlink:title=" ">
<polygon fill="none" stroke="black" points="12,-0.5 12,-19.5 50,-19.5 50,-0.5 12,-0.5"/>
<text text-anchor="middle" x="31" y="-7.5" font-family="Helvetica,sans-Serif" font-size="10.00">main</text>
</a>
</g>
</g>
<!-- Node4&#45;&gt;Node6 -->
<g id="edge5" class="edge">
<title>Node4&#45;&gt;Node6</title>
<path fill="none" stroke="midnightblue" d="M87.71,-21.2C74.68,-18.58 60.76,-15.78 50.1,-13.64"/>
<polygon fill="midnightblue" stroke="midnightblue" points="87.4,-24.71 97.89,-23.25 88.78,-17.85 87.4,-24.71"/>
</g>
</g>
</svg>
