<?xml version="1.0" encoding="UTF-8" standalone="no"?>
<!DOCTYPE svg PUBLIC "-//W3C//DTD SVG 1.1//EN"
 "http://www.w3.org/Graphics/SVG/1.1/DTD/svg11.dtd">
<!-- Generated by graphviz version 2.43.0 (0)
 -->
<!-- Title: gp.h Pages: 1 -->
<svg width="164pt" height="140pt"
 viewBox="0.00 0.00 163.50 140.00" xmlns="http://www.w3.org/2000/svg" xmlns:xlink="http://www.w3.org/1999/xlink">
<g id="graph0" class="graph" transform="scale(1 1) rotate(0) translate(4 136)">
<title>gp.h</title>
<!-- Node1 -->
<g id="node1" class="node">
<title>Node1</title>
<g id="a_node1"><a xlink:title="An implementation of GP trees based upon TinyGP.">
<polygon fill="#bfbfbf" stroke="black" points="86.5,-112.5 86.5,-131.5 121.5,-131.5 121.5,-112.5 86.5,-112.5"/>
<text text-anchor="middle" x="104" y="-119.5" font-family="Helvetica,sans-Serif" font-size="10.00">gp.h</text>
</a>
</g>
</g>
<!-- Node2 -->
<g id="node2" class="node">
<title>Node2</title>
<g id="a_node2"><a xlink:href="cond__gp_8h.html" target="_top" xlink:title="Tree GP condition functions.">
<polygon fill="none" stroke="black" points="40,-56.5 40,-75.5 102,-75.5 102,-56.5 40,-56.5"/>
<text text-anchor="middle" x="71" y="-63.5" font-family="Helvetica,sans-Serif" font-size="10.00">cond_gp.h</text>
</a>
</g>
</g>
<!-- Node1&#45;&gt;Node2 -->
<g id="edge1" class="edge">
<title>Node1&#45;&gt;Node2</title>
<path fill="none" stroke="midnightblue" d="M93.17,-103.27C87.53,-94.05 80.88,-83.17 76.35,-75.75"/>
<polygon fill="midnightblue" stroke="midnightblue" points="90.35,-105.38 98.55,-112.08 96.32,-101.73 90.35,-105.38"/>
</g>
<!-- Node5 -->
<g id="node5" class="node">
<title>Node5</title>
<g id="a_node5"><a xlink:href="gp_8c.html" target="_top" xlink:title="An implementation of GP trees based upon TinyGP.">
<polygon fill="none" stroke="black" points="120.5,-56.5 120.5,-75.5 155.5,-75.5 155.5,-56.5 120.5,-56.5"/>
<text text-anchor="middle" x="138" y="-63.5" font-family="Helvetica,sans-Serif" font-size="10.00">gp.c</text>
</a>
</g>
</g>
<!-- Node1&#45;&gt;Node5 -->
<g id="edge4" class="edge">
<title>Node1&#45;&gt;Node5</title>
<path fill="none" stroke="midnightblue" d="M114.98,-103.57C120.83,-94.27 127.77,-83.25 132.49,-75.75"/>
<polygon fill="midnightblue" stroke="midnightblue" points="111.98,-101.76 109.61,-112.08 117.9,-105.49 111.98,-101.76"/>
</g>
<!-- Node3 -->
<g id="node3" class="node">
<title>Node3</title>
<g id="a_node3"><a xlink:href="cond__gp_8c.html" target="_top" xlink:title="Tree GP condition functions.">
<polygon fill="none" stroke="black" points="0,-0.5 0,-19.5 62,-19.5 62,-0.5 0,-0.5"/>
<text text-anchor="middle" x="31" y="-7.5" font-family="Helvetica,sans-Serif" font-size="10.00">cond_gp.c</text>
</a>
</g>
</g>
<!-- Node2&#45;&gt;Node3 -->
<g id="edge2" class="edge">
<title>Node2&#45;&gt;Node3</title>
<path fill="none" stroke="midnightblue" d="M58.3,-47.86C51.37,-38.5 43.09,-27.33 37.48,-19.75"/>
<polygon fill="midnightblue" stroke="midnightblue" points="55.63,-50.13 64.39,-56.08 61.25,-45.96 55.63,-50.13"/>
</g>
<!-- Node4 -->
<g id="node4" class="node">
<title>Node4</title>
<g id="a_node4"><a xlink:href="condition_8c.html" target="_top" xlink:title="Interface for classifier conditions.">
<polygon fill="none" stroke="black" points="80,-0.5 80,-19.5 144,-19.5 144,-0.5 80,-0.5"/>
<text text-anchor="middle" x="112" y="-7.5" font-family="Helvetica,sans-Serif" font-size="10.00">condition.c</text>
</a>
</g>
</g>
<!-- Node2&#45;&gt;Node4 -->
<g id="edge3" class="edge">
<title>Node2&#45;&gt;Node4</title>
<path fill="none" stroke="midnightblue" d="M84.02,-47.86C91.12,-38.5 99.6,-27.33 105.36,-19.75"/>
<polygon fill="midnightblue" stroke="midnightblue" points="81.03,-46 77.77,-56.08 86.61,-50.24 81.03,-46"/>
</g>
</g>
</svg>
