<?xml version="1.0" encoding="UTF-8" standalone="no"?>
<!DOCTYPE svg PUBLIC "-//W3C//DTD SVG 1.1//EN"
 "http://www.w3.org/Graphics/SVG/1.1/DTD/svg11.dtd">
<!-- Generated by graphviz version 2.43.0 (0)
 -->
<!-- Title: tree_json_export Pages: 1 -->
<svg width="355pt" height="66pt"
 viewBox="0.00 0.00 355.00 66.00" xmlns="http://www.w3.org/2000/svg" xmlns:xlink="http://www.w3.org/1999/xlink">
<g id="graph0" class="graph" transform="scale(1 1) rotate(0) translate(4 62)">
<title>tree_json_export</title>
<!-- Node1 -->
<g id="node1" class="node">
<title>Node1</title>
<g id="a_node1"><a xlink:title="Returns a json formatted string representation of a GP tree.">
<polygon fill="#bfbfbf" stroke="black" points="258,-19.5 258,-38.5 347,-38.5 347,-19.5 258,-19.5"/>
<text text-anchor="middle" x="302.5" y="-26.5" font-family="Helvetica,sans-Serif" font-size="10.00">tree_json_export</text>
</a>
</g>
</g>
<!-- Node2 -->
<g id="node2" class="node">
<title>Node2</title>
<g id="a_node2"><a xlink:href="cond__gp_8c.html#a56f3b0a6833bc769adc5707fb0a6f301" target="_top" xlink:title="Returns a json formatted string representation of a tree&#45;GP condition.">
<polygon fill="none" stroke="black" points="113,-38.5 113,-57.5 222,-57.5 222,-38.5 113,-38.5"/>
<text text-anchor="middle" x="167.5" y="-45.5" font-family="Helvetica,sans-Serif" font-size="10.00">cond_gp_json_export</text>
</a>
</g>
</g>
<!-- Node1&#45;&gt;Node2 -->
<g id="edge1" class="edge">
<title>Node1&#45;&gt;Node2</title>
<path fill="none" stroke="midnightblue" d="M247.88,-36.66C239.47,-37.86 230.78,-39.1 222.37,-40.3"/>
<polygon fill="midnightblue" stroke="midnightblue" points="248.55,-40.1 257.95,-35.22 247.56,-33.17 248.55,-40.1"/>
</g>
<!-- Node4 -->
<g id="node4" class="node">
<title>Node4</title>
<g id="a_node4"><a xlink:href="gp_8c.html#a776ec7119667ca4611451522c3c4d247" target="_top" xlink:title="Prints a GP tree.">
<polygon fill="none" stroke="black" points="139,-0.5 139,-19.5 196,-19.5 196,-0.5 139,-0.5"/>
<text text-anchor="middle" x="167.5" y="-7.5" font-family="Helvetica,sans-Serif" font-size="10.00">tree_print</text>
</a>
</g>
</g>
<!-- Node1&#45;&gt;Node4 -->
<g id="edge3" class="edge">
<title>Node1&#45;&gt;Node4</title>
<path fill="none" stroke="midnightblue" d="M247.73,-21.32C230.07,-18.8 211.16,-16.09 196.25,-13.96"/>
<polygon fill="midnightblue" stroke="midnightblue" points="247.56,-24.83 257.95,-22.78 248.55,-17.9 247.56,-24.83"/>
</g>
<!-- Node3 -->
<g id="node3" class="node">
<title>Node3</title>
<g id="a_node3"><a xlink:href="cond__gp_8c.html#a096c64bae58b314e1a303f0e3887d412" target="_top" xlink:title="Prints a tree&#45;GP condition.">
<polygon fill="none" stroke="black" points="0,-38.5 0,-57.5 77,-57.5 77,-38.5 0,-38.5"/>
<text text-anchor="middle" x="38.5" y="-45.5" font-family="Helvetica,sans-Serif" font-size="10.00">cond_gp_print</text>
</a>
</g>
</g>
<!-- Node2&#45;&gt;Node3 -->
<g id="edge2" class="edge">
<title>Node2&#45;&gt;Node3</title>
<path fill="none" stroke="midnightblue" d="M102.53,-48C93.89,-48 85.26,-48 77.28,-48"/>
<polygon fill="midnightblue" stroke="midnightblue" points="102.64,-51.5 112.64,-48 102.64,-44.5 102.64,-51.5"/>
</g>
</g>
</svg>
