<?xml version="1.0" encoding="UTF-8" standalone="no"?>
<!DOCTYPE svg PUBLIC "-//W3C//DTD SVG 1.1//EN"
 "http://www.w3.org/Graphics/SVG/1.1/DTD/svg11.dtd">
<!-- Generated by graphviz version 2.43.0 (0)
 -->
<!-- Title: tree_function_string Pages: 1 -->
<svg width="591pt" height="64pt"
 viewBox="0.00 0.00 591.00 64.00" xmlns="http://www.w3.org/2000/svg" xmlns:xlink="http://www.w3.org/1999/xlink">
<g id="graph0" class="graph" transform="scale(1 1) rotate(0) translate(4 60)">
<title>tree_function_string</title>
<!-- Node1 -->
<g id="Node000001" class="node">
<title>Node1</title>
<g id="a_Node000001"><a xlink:title="Returns a string representation of a node function.">
<polygon fill="#999999" stroke="#666666" points="583,-37 481,-37 481,-18 583,-18 583,-37"/>
<text text-anchor="middle" x="532" y="-25" font-family="Helvetica,sans-Serif" font-size="10.00">tree_function_string</text>
</a>
</g>
</g>
<!-- Node2 -->
<g id="Node000002" class="node">
<title>Node2</title>
<g id="a_Node000002"><a xlink:href="gp_8c.html#a7d9e5de8f96b49e28beba7017673fb2a" target="_top" xlink:title="Returns a json formatted string representation of a GP tree.">
<polygon fill="white" stroke="#666666" points="445,-37 383,-37 383,-18 445,-18 445,-37"/>
<text text-anchor="middle" x="414" y="-25" font-family="Helvetica,sans-Serif" font-size="10.00">tree_string</text>
</a>
</g>
</g>
<!-- Node1&#45;&gt;Node2 -->
<g id="edge1_Node000001_Node000002" class="edge">
<title>Node1&#45;&gt;Node2</title>
<g id="a_edge1_Node000001_Node000002"><a xlink:title=" ">
<path fill="none" stroke="#63b8ff" d="M470.79,-27.5C461.92,-27.5 453.11,-27.5 445.21,-27.5"/>
<polygon fill="#63b8ff" stroke="#63b8ff" points="470.8,-31 480.8,-27.5 470.8,-24 470.8,-31"/>
</a>
</g>
</g>
<!-- Node2&#45;&gt;Node2 -->
<g id="edge6_Node000002_Node000002" class="edge">
<title>Node2&#45;&gt;Node2</title>
<g id="a_edge6_Node000002_Node000002"><a xlink:title=" ">
<path fill="none" stroke="#63b8ff" d="M434.37,-46.55C433.01,-51.38 426.22,-55 414,-55 394.45,-55 388.8,-45.73 397.05,-37.08"/>
<polygon fill="#63b8ff" stroke="#63b8ff" points="437.64,-45.3 430.95,-37.08 431.05,-47.68 437.64,-45.3"/>
</a>
</g>
</g>
<!-- Node3 -->
<g id="Node000003" class="node">
<title>Node3</title>
<g id="a_Node000003"><a xlink:href="gp_8c.html#a165275c764a6a128565ce26a9e64f331" target="_top" xlink:title="Returns a json formatted string representation of a GP tree.">
<polygon fill="white" stroke="#666666" points="347,-37 258,-37 258,-18 347,-18 347,-37"/>
<text text-anchor="middle" x="302.5" y="-25" font-family="Helvetica,sans-Serif" font-size="10.00">tree_json_export</text>
</a>
</g>
</g>
<!-- Node2&#45;&gt;Node3 -->
<g id="edge2_Node000002_Node000003" class="edge">
<title>Node2&#45;&gt;Node3</title>
<g id="a_edge2_Node000002_Node000003"><a xlink:title=" ">
<path fill="none" stroke="#63b8ff" d="M372.6,-27.5C364.31,-27.5 355.54,-27.5 347.14,-27.5"/>
<polygon fill="#63b8ff" stroke="#63b8ff" points="372.79,-31 382.79,-27.5 372.79,-24 372.79,-31"/>
</a>
</g>
</g>
<!-- Node4 -->
<g id="Node000004" class="node">
<title>Node4</title>
<g id="a_Node000004"><a xlink:href="cond__gp_8c.html#a12532efa42109d58afc33789581e2d21" target="_top" xlink:title="Returns a json formatted string representation of a tree&#45;GP condition.">
<polygon fill="white" stroke="#666666" points="222,-56 113,-56 113,-37 222,-37 222,-56"/>
<text text-anchor="middle" x="167.5" y="-44" font-family="Helvetica,sans-Serif" font-size="10.00">cond_gp_json_export</text>
</a>
</g>
</g>
<!-- Node3&#45;&gt;Node4 -->
<g id="edge3_Node000003_Node000004" class="edge">
<title>Node3&#45;&gt;Node4</title>
<g id="a_edge3_Node000003_Node000004"><a xlink:title=" ">
<path fill="none" stroke="#63b8ff" d="M247.88,-35.16C239.47,-36.36 230.78,-37.6 222.37,-38.8"/>
<polygon fill="#63b8ff" stroke="#63b8ff" points="248.55,-38.6 257.95,-33.72 247.56,-31.67 248.55,-38.6"/>
</a>
</g>
</g>
<!-- Node6 -->
<g id="Node000006" class="node">
<title>Node6</title>
<g id="a_Node000006"><a xlink:href="gp_8c.html#a776ec7119667ca4611451522c3c4d247" target="_top" xlink:title="Prints a GP tree.">
<polygon fill="white" stroke="#666666" points="196,-19 139,-19 139,0 196,0 196,-19"/>
<text text-anchor="middle" x="167.5" y="-7" font-family="Helvetica,sans-Serif" font-size="10.00">tree_print</text>
</a>
</g>
</g>
<!-- Node3&#45;&gt;Node6 -->
<g id="edge5_Node000003_Node000006" class="edge">
<title>Node3&#45;&gt;Node6</title>
<g id="a_edge5_Node000003_Node000006"><a xlink:title=" ">
<path fill="none" stroke="#63b8ff" d="M247.73,-20.22C230.07,-17.83 211.16,-15.27 196.25,-13.26"/>
<polygon fill="#63b8ff" stroke="#63b8ff" points="247.57,-23.73 257.95,-21.61 248.51,-16.8 247.57,-23.73"/>
</a>
</g>
</g>
<!-- Node5 -->
<g id="Node000005" class="node">
<title>Node5</title>
<g id="a_Node000005"><a xlink:href="cond__gp_8c.html#a096c64bae58b314e1a303f0e3887d412" target="_top" xlink:title="Prints a tree&#45;GP condition.">
<polygon fill="white" stroke="#666666" points="77,-56 0,-56 0,-37 77,-37 77,-56"/>
<text text-anchor="middle" x="38.5" y="-44" font-family="Helvetica,sans-Serif" font-size="10.00">cond_gp_print</text>
</a>
</g>
</g>
<!-- Node4&#45;&gt;Node5 -->
<g id="edge4_Node000004_Node000005" class="edge">
<title>Node4&#45;&gt;Node5</title>
<g id="a_edge4_Node000004_Node000005"><a xlink:title=" ">
<path fill="none" stroke="#63b8ff" d="M102.53,-46.5C93.89,-46.5 85.26,-46.5 77.28,-46.5"/>
<polygon fill="#63b8ff" stroke="#63b8ff" points="102.64,-50 112.64,-46.5 102.64,-43 102.64,-50"/>
</a>
</g>
</g>
</g>
</svg>
