<?xml version="1.0" encoding="UTF-8" standalone="no"?>
<!DOCTYPE svg PUBLIC "-//W3C//DTD SVG 1.1//EN"
 "http://www.w3.org/Graphics/SVG/1.1/DTD/svg11.dtd">
<!-- Generated by graphviz version 2.43.0 (0)
 -->
<!-- Title: tree_mutate Pages: 1 -->
<svg width="397pt" height="138pt"
 viewBox="0.00 0.00 397.00 137.72" xmlns="http://www.w3.org/2000/svg" xmlns:xlink="http://www.w3.org/1999/xlink">
<g id="graph0" class="graph" transform="scale(1 1) rotate(0) translate(4 133.72)">
<title>tree_mutate</title>
<!-- Node1 -->
<g id="node1" class="node">
<title>Node1</title>
<g id="a_node1"><a xlink:title="Performs point mutation on a GP tree.">
<polygon fill="#bfbfbf" stroke="black" points="0,-95.59 0,-114.59 68,-114.59 68,-95.59 0,-95.59"/>
<text text-anchor="middle" x="34" y="-102.59" font-family="Helvetica,sans-Serif" font-size="10.00">tree_mutate</text>
</a>
</g>
</g>
<!-- Node2 -->
<g id="node2" class="node">
<title>Node2</title>
<g id="a_node2"><a xlink:href="utils_8c.html#a894e776eb1a127a7b31a52bd86327a2a" target="_top" xlink:title="Returns a uniform random integer [min,max] not inclusive of max.">
<polygon fill="none" stroke="black" points="205,-95.59 205,-114.59 280,-114.59 280,-95.59 205,-95.59"/>
<text text-anchor="middle" x="242.5" y="-102.59" font-family="Helvetica,sans-Serif" font-size="10.00">irand_uniform</text>
</a>
</g>
</g>
<!-- Node1&#45;&gt;Node2 -->
<g id="edge1" class="edge">
<title>Node1&#45;&gt;Node2</title>
<path fill="none" stroke="midnightblue" d="M68.18,-105.09C102.36,-105.09 155.94,-105.09 194.48,-105.09"/>
<polygon fill="midnightblue" stroke="midnightblue" points="194.92,-108.59 204.92,-105.09 194.92,-101.59 194.92,-108.59"/>
</g>
<!-- Node3 -->
<g id="node3" class="node">
<title>Node3</title>
<g id="a_node3"><a xlink:href="utils_8c.html#a972761ba8f47a6c3e7396a7c685158fc" target="_top" xlink:title="Returns a uniform random float [min,max].">
<polygon fill="none" stroke="black" points="316,-95.59 316,-114.59 389,-114.59 389,-95.59 316,-95.59"/>
<text text-anchor="middle" x="352.5" y="-102.59" font-family="Helvetica,sans-Serif" font-size="10.00">rand_uniform</text>
</a>
</g>
</g>
<!-- Node1&#45;&gt;Node3 -->
<g id="edge3" class="edge">
<title>Node1&#45;&gt;Node3</title>
<path fill="none" stroke="midnightblue" d="M68.17,-112.87C79.48,-115.25 92.24,-117.61 104,-119.09 181.64,-128.83 202.41,-134.22 280,-124.09 290.81,-122.68 302.31,-120.11 312.86,-117.32"/>
<polygon fill="midnightblue" stroke="midnightblue" points="313.93,-120.65 322.62,-114.59 312.05,-113.91 313.93,-120.65"/>
</g>
<!-- Node4 -->
<g id="node4" class="node">
<title>Node4</title>
<g id="a_node4"><a xlink:href="sam_8c.html#a8dfbd425ab3513d47726620e94fc861c" target="_top" xlink:title="Self&#45;adapts mutation rates.">
<polygon fill="none" stroke="black" points="104,-57.59 104,-76.59 169,-76.59 169,-57.59 104,-57.59"/>
<text text-anchor="middle" x="136.5" y="-64.59" font-family="Helvetica,sans-Serif" font-size="10.00">sam_adapt</text>
</a>
</g>
</g>
<!-- Node1&#45;&gt;Node4 -->
<g id="edge4" class="edge">
<title>Node1&#45;&gt;Node4</title>
<path fill="none" stroke="midnightblue" d="M60.36,-95.5C72.5,-90.91 87.23,-85.34 100.43,-80.35"/>
<polygon fill="midnightblue" stroke="midnightblue" points="102.03,-83.49 110.15,-76.67 99.56,-76.94 102.03,-83.49"/>
</g>
<!-- Node2&#45;&gt;Node3 -->
<g id="edge2" class="edge">
<title>Node2&#45;&gt;Node3</title>
<path fill="none" stroke="midnightblue" d="M280.06,-105.09C288.24,-105.09 297.02,-105.09 305.53,-105.09"/>
<polygon fill="midnightblue" stroke="midnightblue" points="305.71,-108.59 315.71,-105.09 305.71,-101.59 305.71,-108.59"/>
</g>
<!-- Node4&#45;&gt;Node2 -->
<g id="edge6" class="edge">
<title>Node4&#45;&gt;Node2</title>
<path fill="none" stroke="midnightblue" d="M163.74,-76.68C176.43,-81.31 191.85,-86.95 205.61,-91.97"/>
<polygon fill="midnightblue" stroke="midnightblue" points="204.67,-95.36 215.26,-95.5 207.07,-88.78 204.67,-95.36"/>
</g>
<!-- Node4&#45;&gt;Node3 -->
<g id="edge8" class="edge">
<title>Node4&#45;&gt;Node3</title>
<path fill="none" stroke="midnightblue" d="M144.96,-57.51C156.23,-43.9 179.07,-19.57 205,-10.09 236.31,1.36 250.17,4.79 280,-10.09 311.72,-25.91 333.05,-63.25 343.66,-86.12"/>
<polygon fill="midnightblue" stroke="midnightblue" points="340.55,-87.74 347.78,-95.48 346.96,-84.92 340.55,-87.74"/>
</g>
<!-- Node5 -->
<g id="node5" class="node">
<title>Node5</title>
<g id="a_node5"><a xlink:href="utils_8h.html#a234dd9ca33bcf1fba3e675bc900abc88" target="_top" xlink:title="Returns a float clamped within the specified range.">
<polygon fill="none" stroke="black" points="221,-57.59 221,-76.59 264,-76.59 264,-57.59 221,-57.59"/>
<text text-anchor="middle" x="242.5" y="-64.59" font-family="Helvetica,sans-Serif" font-size="10.00">clamp</text>
</a>
</g>
</g>
<!-- Node4&#45;&gt;Node5 -->
<g id="edge5" class="edge">
<title>Node4&#45;&gt;Node5</title>
<path fill="none" stroke="midnightblue" d="M169.27,-67.09C182.34,-67.09 197.42,-67.09 210.42,-67.09"/>
<polygon fill="midnightblue" stroke="midnightblue" points="210.75,-70.59 220.75,-67.09 210.75,-63.59 210.75,-70.59"/>
</g>
<!-- Node6 -->
<g id="node6" class="node">
<title>Node6</title>
<g id="a_node6"><a xlink:href="utils_8c.html#a6a36d869b4a218a3f55cd19067f62c0f" target="_top" xlink:title="Returns a random Gaussian with specified mean and standard deviation.">
<polygon fill="none" stroke="black" points="207.5,-19.59 207.5,-38.59 277.5,-38.59 277.5,-19.59 207.5,-19.59"/>
<text text-anchor="middle" x="242.5" y="-26.59" font-family="Helvetica,sans-Serif" font-size="10.00">rand_normal</text>
</a>
</g>
</g>
<!-- Node4&#45;&gt;Node6 -->
<g id="edge7" class="edge">
<title>Node4&#45;&gt;Node6</title>
<path fill="none" stroke="midnightblue" d="M163.74,-57.5C176.43,-52.86 191.85,-47.23 205.61,-42.2"/>
<polygon fill="midnightblue" stroke="midnightblue" points="207.07,-45.39 215.26,-38.67 204.67,-38.82 207.07,-45.39"/>
</g>
</g>
</svg>
