<?xml version="1.0" encoding="UTF-8" standalone="no"?>
<!DOCTYPE svg PUBLIC "-//W3C//DTD SVG 1.1//EN"
 "http://www.w3.org/Graphics/SVG/1.1/DTD/svg11.dtd">
<!-- Generated by graphviz version 2.43.0 (0)
 -->
<!-- Title: Graphical Class Hierarchy Pages: 1 -->
<svg width="264pt" height="323pt"
 viewBox="0.00 0.00 264.00 323.00" xmlns="http://www.w3.org/2000/svg" xmlns:xlink="http://www.w3.org/1999/xlink">
<g id="graph0" class="graph" transform="scale(1 1) rotate(0) translate(4 319)">
<title>Graphical Class Hierarchy</title>
<!-- Node25 -->
<g id="node1" class="node">
<title>Node25</title>
<g id="a_node1"><a xlink:title=" ">
<polygon fill="none" stroke="#bfbfbf" points="10,-186 10,-205 51,-205 51,-186 10,-186"/>
<text text-anchor="middle" x="30.5" y="-193" font-family="Helvetica,sans-Serif" font-size="10.00">False</text>
</a>
</g>
</g>
<!-- Node0 -->
<g id="node2" class="node">
<title>Node0</title>
<g id="a_node2"><a xlink:href="classxcsf_1_1utils_1_1types_1_1ConditionCSRArgs.html" target="_top" xlink:title=" ">
<polygon fill="none" stroke="black" points="112.5,-0.5 112.5,-30.5 240.5,-30.5 240.5,-0.5 112.5,-0.5"/>
<text text-anchor="start" x="120.5" y="-18.5" font-family="Helvetica,sans-Serif" font-size="10.00">xcsf.utils.types.Condition</text>
<text text-anchor="middle" x="176.5" y="-7.5" font-family="Helvetica,sans-Serif" font-size="10.00">CSRArgs</text>
</a>
</g>
</g>
<!-- Node25&#45;&gt;Node0 -->
<g id="edge1" class="edge">
<title>Node25&#45;&gt;Node0</title>
<path fill="none" stroke="midnightblue" d="M58.85,-179.14C59.62,-178.29 60.34,-177.41 61,-176.5 97.98,-125.55 53.38,-84.89 97,-39.5 101.44,-34.88 106.75,-31.14 112.48,-28.11"/>
<polygon fill="midnightblue" stroke="midnightblue" points="56.32,-176.7 51.02,-185.88 60.88,-182.01 56.32,-176.7"/>
</g>
<!-- Node27 -->
<g id="node3" class="node">
<title>Node27</title>
<g id="a_node3"><a xlink:href="classxcsf_1_1utils_1_1types_1_1ConditionDGPArgs.html" target="_top" xlink:title=" ">
<polygon fill="none" stroke="black" points="112.5,-284.5 112.5,-314.5 240.5,-314.5 240.5,-284.5 112.5,-284.5"/>
<text text-anchor="start" x="120.5" y="-302.5" font-family="Helvetica,sans-Serif" font-size="10.00">xcsf.utils.types.Condition</text>
<text text-anchor="middle" x="176.5" y="-291.5" font-family="Helvetica,sans-Serif" font-size="10.00">DGPArgs</text>
</a>
</g>
</g>
<!-- Node25&#45;&gt;Node27 -->
<g id="edge2" class="edge">
<title>Node25&#45;&gt;Node27</title>
<path fill="none" stroke="midnightblue" d="M42.27,-214.25C53.65,-232.43 73.23,-259.56 97,-275.5 102.09,-278.91 107.68,-281.86 113.47,-284.39"/>
<polygon fill="midnightblue" stroke="midnightblue" points="44.98,-211.95 36.82,-205.19 38.98,-215.56 44.98,-211.95"/>
</g>
<!-- Node28 -->
<g id="node4" class="node">
<title>Node28</title>
<g id="a_node4"><a xlink:href="classxcsf_1_1utils_1_1types_1_1ConditionGPArgs.html" target="_top" xlink:title=" ">
<polygon fill="none" stroke="black" points="112.5,-235.5 112.5,-265.5 240.5,-265.5 240.5,-235.5 112.5,-235.5"/>
<text text-anchor="start" x="120.5" y="-253.5" font-family="Helvetica,sans-Serif" font-size="10.00">xcsf.utils.types.Condition</text>
<text text-anchor="middle" x="176.5" y="-242.5" font-family="Helvetica,sans-Serif" font-size="10.00">GPArgs</text>
</a>
</g>
</g>
<!-- Node25&#45;&gt;Node28 -->
<g id="edge3" class="edge">
<title>Node25&#45;&gt;Node28</title>
<path fill="none" stroke="midnightblue" d="M58.97,-209.59C70.54,-215.24 84.26,-221.57 97,-226.5 105.11,-229.64 113.81,-232.64 122.36,-235.4"/>
<polygon fill="midnightblue" stroke="midnightblue" points="60.33,-206.36 49.82,-205.05 57.22,-212.63 60.33,-206.36"/>
</g>
<!-- Node29 -->
<g id="node5" class="node">
<title>Node29</title>
<g id="a_node5"><a xlink:href="classxcsf_1_1utils_1_1types_1_1ConditionTernaryArgs.html" target="_top" xlink:title=" ">
<polygon fill="none" stroke="black" points="112.5,-186.5 112.5,-216.5 240.5,-216.5 240.5,-186.5 112.5,-186.5"/>
<text text-anchor="start" x="120.5" y="-204.5" font-family="Helvetica,sans-Serif" font-size="10.00">xcsf.utils.types.Condition</text>
<text text-anchor="middle" x="176.5" y="-193.5" font-family="Helvetica,sans-Serif" font-size="10.00">TernaryArgs</text>
</a>
</g>
</g>
<!-- Node25&#45;&gt;Node29 -->
<g id="edge4" class="edge">
<title>Node25&#45;&gt;Node29</title>
<path fill="none" stroke="midnightblue" d="M61.3,-196.74C76.11,-197.36 94.62,-198.13 112.39,-198.87"/>
<polygon fill="midnightblue" stroke="midnightblue" points="61.36,-193.24 51.22,-196.32 61.07,-200.24 61.36,-193.24"/>
</g>
<!-- Node30 -->
<g id="node6" class="node">
<title>Node30</title>
<g id="a_node6"><a xlink:href="classxcsf_1_1utils_1_1types_1_1NeuralLayerArgs.html" target="_top" xlink:title=" ">
<polygon fill="none" stroke="black" points="97,-148 97,-167 256,-167 256,-148 97,-148"/>
<text text-anchor="middle" x="176.5" y="-155" font-family="Helvetica,sans-Serif" font-size="10.00">xcsf.utils.types.NeuralLayerArgs</text>
</a>
</g>
</g>
<!-- Node25&#45;&gt;Node30 -->
<g id="edge5" class="edge">
<title>Node25&#45;&gt;Node30</title>
<path fill="none" stroke="midnightblue" d="M61.02,-187.26C72.27,-184.15 85.22,-180.62 97,-177.5 110.19,-174.01 124.65,-170.29 137.53,-167.02"/>
<polygon fill="midnightblue" stroke="midnightblue" points="59.95,-183.93 51.25,-189.97 61.82,-190.67 59.95,-183.93"/>
</g>
<!-- Node31 -->
<g id="node7" class="node">
<title>Node31</title>
<g id="a_node7"><a xlink:href="classxcsf_1_1utils_1_1types_1_1PredictionNLMSArgs.html" target="_top" xlink:title=" ">
<polygon fill="none" stroke="black" points="111.5,-98.5 111.5,-128.5 241.5,-128.5 241.5,-98.5 111.5,-98.5"/>
<text text-anchor="start" x="119.5" y="-116.5" font-family="Helvetica,sans-Serif" font-size="10.00">xcsf.utils.types.Prediction</text>
<text text-anchor="middle" x="176.5" y="-105.5" font-family="Helvetica,sans-Serif" font-size="10.00">NLMSArgs</text>
</a>
</g>
</g>
<!-- Node25&#45;&gt;Node31 -->
<g id="edge6" class="edge">
<title>Node25&#45;&gt;Node31</title>
<path fill="none" stroke="midnightblue" d="M56.25,-180.2C57.89,-178.99 59.49,-177.75 61,-176.5 78.91,-161.65 77.29,-150.86 97,-138.5 103.06,-134.7 109.74,-131.43 116.58,-128.63"/>
<polygon fill="midnightblue" stroke="midnightblue" points="54.18,-177.37 47.91,-185.92 58.14,-183.15 54.18,-177.37"/>
</g>
<!-- Node32 -->
<g id="node8" class="node">
<title>Node32</title>
<g id="a_node8"><a xlink:href="classxcsf_1_1utils_1_1types_1_1PredictionRLSArgs.html" target="_top" xlink:title=" ">
<polygon fill="none" stroke="black" points="111.5,-49.5 111.5,-79.5 241.5,-79.5 241.5,-49.5 111.5,-49.5"/>
<text text-anchor="start" x="119.5" y="-67.5" font-family="Helvetica,sans-Serif" font-size="10.00">xcsf.utils.types.Prediction</text>
<text text-anchor="middle" x="176.5" y="-56.5" font-family="Helvetica,sans-Serif" font-size="10.00">RLSArgs</text>
</a>
</g>
</g>
<!-- Node25&#45;&gt;Node32 -->
<g id="edge7" class="edge">
<title>Node25&#45;&gt;Node32</title>
<path fill="none" stroke="midnightblue" d="M58.31,-179.39C59.26,-178.46 60.17,-177.5 61,-176.5 87.81,-144.37 66.19,-117.82 97,-89.5 101.21,-85.63 106.02,-82.36 111.15,-79.59"/>
<polygon fill="midnightblue" stroke="midnightblue" points="55.95,-176.81 50.34,-185.8 60.33,-182.26 55.95,-176.81"/>
</g>
<!-- Node47 -->
<g id="node9" class="node">
<title>Node47</title>
<g id="a_node9"><a xlink:title=" ">
<polygon fill="none" stroke="#bfbfbf" points="13,-148 13,-167 48,-167 48,-148 13,-148"/>
<text text-anchor="middle" x="30.5" y="-155" font-family="Helvetica,sans-Serif" font-size="10.00">total</text>
</a>
</g>
</g>
<!-- Node47&#45;&gt;Node0 -->
<g id="edge8" class="edge">
<title>Node47&#45;&gt;Node0</title>
<path fill="none" stroke="midnightblue" d="M56.19,-143.49C57.95,-141.94 59.58,-140.28 61,-138.5 90.21,-101.91 63.04,-71.73 97,-39.5 101.44,-35.28 106.61,-31.8 112.13,-28.93"/>
<polygon fill="midnightblue" stroke="midnightblue" points="54,-140.76 48,-149.49 58.14,-146.4 54,-140.76"/>
</g>
<!-- Node47&#45;&gt;Node27 -->
<g id="edge9" class="edge">
<title>Node47&#45;&gt;Node27</title>
<path fill="none" stroke="midnightblue" d="M56.19,-171.51C57.95,-173.06 59.58,-174.72 61,-176.5 90.21,-213.09 63.04,-243.27 97,-275.5 101.44,-279.72 106.61,-283.2 112.13,-286.07"/>
<polygon fill="midnightblue" stroke="midnightblue" points="58.14,-168.6 48,-165.51 54,-174.24 58.14,-168.6"/>
</g>
<!-- Node47&#45;&gt;Node28 -->
<g id="edge10" class="edge">
<title>Node47&#45;&gt;Node28</title>
<path fill="none" stroke="midnightblue" d="M56.45,-172.57C58.04,-173.83 59.58,-175.15 61,-176.5 80.86,-195.35 74.74,-210.55 97,-226.5 101.75,-229.9 106.99,-232.83 112.45,-235.35"/>
<polygon fill="midnightblue" stroke="midnightblue" points="58.4,-169.67 48.22,-166.74 54.35,-175.38 58.4,-169.67"/>
</g>
<!-- Node47&#45;&gt;Node29 -->
<g id="edge11" class="edge">
<title>Node47&#45;&gt;Node29</title>
<path fill="none" stroke="midnightblue" d="M57.81,-165.54C76.9,-171.37 103.3,-179.44 126.26,-186.45"/>
<polygon fill="midnightblue" stroke="midnightblue" points="58.6,-162.12 48.02,-162.55 56.56,-168.82 58.6,-162.12"/>
</g>
<!-- Node47&#45;&gt;Node30 -->
<g id="edge12" class="edge">
<title>Node47&#45;&gt;Node30</title>
<path fill="none" stroke="midnightblue" d="M58.3,-157.5C69.46,-157.5 83.06,-157.5 97,-157.5"/>
<polygon fill="midnightblue" stroke="midnightblue" points="58.02,-154 48.02,-157.5 58.02,-161 58.02,-154"/>
</g>
<!-- Node47&#45;&gt;Node31 -->
<g id="edge13" class="edge">
<title>Node47&#45;&gt;Node31</title>
<path fill="none" stroke="midnightblue" d="M57.81,-149.46C76.9,-143.63 103.3,-135.56 126.26,-128.55"/>
<polygon fill="midnightblue" stroke="midnightblue" points="56.56,-146.18 48.02,-152.45 58.6,-152.88 56.56,-146.18"/>
</g>
<!-- Node47&#45;&gt;Node32 -->
<g id="edge14" class="edge">
<title>Node47&#45;&gt;Node32</title>
<path fill="none" stroke="midnightblue" d="M56.43,-142.41C58.03,-141.15 59.57,-139.85 61,-138.5 80.69,-119.99 75.05,-105.26 97,-89.5 102.34,-85.66 108.3,-82.4 114.48,-79.62"/>
<polygon fill="midnightblue" stroke="midnightblue" points="54.34,-139.61 48.2,-148.24 58.38,-145.32 54.34,-139.61"/>
</g>
<!-- Node51 -->
<g id="node10" class="node">
<title>Node51</title>
<g id="a_node10"><a xlink:title=" ">
<polygon fill="none" stroke="#bfbfbf" points="0,-110 0,-129 61,-129 61,-110 0,-110"/>
<text text-anchor="middle" x="30.5" y="-117" font-family="Helvetica,sans-Serif" font-size="10.00">TypedDict</text>
</a>
</g>
</g>
<!-- Node51&#45;&gt;Node0 -->
<g id="edge15" class="edge">
<title>Node51&#45;&gt;Node0</title>
<path fill="none" stroke="midnightblue" d="M42.27,-100.75C53.65,-82.57 73.23,-55.44 97,-39.5 102.09,-36.09 107.68,-33.14 113.47,-30.61"/>
<polygon fill="midnightblue" stroke="midnightblue" points="38.98,-99.44 36.82,-109.81 44.98,-103.05 38.98,-99.44"/>
</g>
<!-- Node51&#45;&gt;Node27 -->
<g id="edge16" class="edge">
<title>Node51&#45;&gt;Node27</title>
<path fill="none" stroke="midnightblue" d="M58.85,-135.86C59.62,-136.71 60.34,-137.59 61,-138.5 97.98,-189.45 53.38,-230.11 97,-275.5 101.44,-280.12 106.75,-283.86 112.48,-286.89"/>
<polygon fill="midnightblue" stroke="midnightblue" points="60.88,-132.99 51.02,-129.12 56.32,-138.3 60.88,-132.99"/>
</g>
<!-- Node51&#45;&gt;Node28 -->
<g id="edge17" class="edge">
<title>Node51&#45;&gt;Node28</title>
<path fill="none" stroke="midnightblue" d="M58.32,-135.6C59.27,-136.53 60.17,-137.5 61,-138.5 88.01,-171 65.78,-198.02 97,-226.5 101.53,-230.63 106.75,-234.05 112.3,-236.88"/>
<polygon fill="midnightblue" stroke="midnightblue" points="60.34,-132.73 50.35,-129.19 55.95,-138.19 60.34,-132.73"/>
</g>
<!-- Node51&#45;&gt;Node29 -->
<g id="edge18" class="edge">
<title>Node51&#45;&gt;Node29</title>
<path fill="none" stroke="midnightblue" d="M56.25,-134.8C57.89,-136.01 59.49,-137.25 61,-138.5 78.91,-153.35 77.29,-164.14 97,-176.5 103.06,-180.3 109.74,-183.57 116.58,-186.37"/>
<polygon fill="midnightblue" stroke="midnightblue" points="58.14,-131.85 47.91,-129.08 54.18,-137.63 58.14,-131.85"/>
</g>
<!-- Node51&#45;&gt;Node30 -->
<g id="edge19" class="edge">
<title>Node51&#45;&gt;Node30</title>
<path fill="none" stroke="midnightblue" d="M70.89,-131.24C79.48,-133.71 88.53,-136.25 97,-138.5 109.2,-141.74 122.52,-145.05 134.67,-147.98"/>
<polygon fill="midnightblue" stroke="midnightblue" points="71.67,-127.82 61.09,-128.39 69.72,-134.54 71.67,-127.82"/>
</g>
<!-- Node51&#45;&gt;Node31 -->
<g id="edge20" class="edge">
<title>Node51&#45;&gt;Node31</title>
<path fill="none" stroke="midnightblue" d="M71.69,-117.83C83.97,-117.31 97.8,-116.74 111.26,-116.18"/>
<polygon fill="midnightblue" stroke="midnightblue" points="71.18,-114.34 61.34,-118.26 71.47,-121.34 71.18,-114.34"/>
</g>
<!-- Node51&#45;&gt;Node32 -->
<g id="edge21" class="edge">
<title>Node51&#45;&gt;Node32</title>
<path fill="none" stroke="midnightblue" d="M59.79,-105.63C71.22,-100.27 84.6,-94.29 97,-89.5 105.94,-86.04 115.57,-82.69 124.93,-79.61"/>
<polygon fill="midnightblue" stroke="midnightblue" points="58.25,-102.49 50.73,-109.95 61.26,-108.81 58.25,-102.49"/>
</g>
</g>
</svg>
