<?xml version="1.0" encoding="UTF-8" standalone="no"?>
<!DOCTYPE svg PUBLIC "-//W3C//DTD SVG 1.1//EN"
 "http://www.w3.org/Graphics/SVG/1.1/DTD/svg11.dtd">
<!-- Generated by graphviz version 2.43.0 (0)
 -->
<!-- Title: loss_mse Pages: 1 -->
<svg width="1001pt" height="256pt"
 viewBox="0.00 0.00 1001.00 256.00" xmlns="http://www.w3.org/2000/svg" xmlns:xlink="http://www.w3.org/1999/xlink">
<g id="graph0" class="graph" transform="scale(1 1) rotate(0) translate(4 252)">
<title>loss_mse</title>
<!-- Node1 -->
<g id="node1" class="node">
<title>Node1</title>
<g id="a_node1"><a xlink:title="Mean squared error loss function.">
<polygon fill="#bfbfbf" stroke="black" points="934,-94.5 934,-113.5 993,-113.5 993,-94.5 934,-94.5"/>
<text text-anchor="middle" x="963.5" y="-101.5" font-family="Helvetica,sans-Serif" font-size="10.00">loss_mse</text>
</a>
</g>
</g>
<!-- Node2 -->
<g id="node2" class="node">
<title>Node2</title>
<g id="a_node2"><a xlink:href="loss_8c.html#a3278a1ba45bd0ccbf39e25bde1562f8f" target="_top" xlink:title="Root mean squared error loss function.">
<polygon fill="none" stroke="black" points="836,-75.5 836,-94.5 898,-94.5 898,-75.5 836,-75.5"/>
<text text-anchor="middle" x="867" y="-82.5" font-family="Helvetica,sans-Serif" font-size="10.00">loss_rmse</text>
</a>
</g>
</g>
<!-- Node1&#45;&gt;Node2 -->
<g id="edge1" class="edge">
<title>Node1&#45;&gt;Node2</title>
<path fill="none" stroke="midnightblue" d="M924.03,-96.26C915.4,-94.53 906.38,-92.72 898.15,-91.06"/>
<polygon fill="midnightblue" stroke="midnightblue" points="923.4,-99.71 933.89,-98.25 924.78,-92.85 923.4,-99.71"/>
</g>
<!-- Node3 -->
<g id="node3" class="node">
<title>Node3</title>
<g id="a_node3"><a xlink:href="loss_8c.html#abd279ef66e8491bb524ee192a45e0e34" target="_top" xlink:title="Sets the XCSF error function to the implemented function.">
<polygon fill="none" stroke="black" points="723,-94.5 723,-113.5 800,-113.5 800,-94.5 723,-94.5"/>
<text text-anchor="middle" x="761.5" y="-101.5" font-family="Helvetica,sans-Serif" font-size="10.00">loss_set_func</text>
</a>
</g>
</g>
<!-- Node1&#45;&gt;Node3 -->
<g id="edge29" class="edge">
<title>Node1&#45;&gt;Node3</title>
<path fill="none" stroke="midnightblue" d="M923.82,-104C888.2,-104 835.67,-104 800.33,-104"/>
<polygon fill="midnightblue" stroke="midnightblue" points="923.84,-107.5 933.84,-104 923.84,-100.5 923.84,-107.5"/>
</g>
<!-- Node2&#45;&gt;Node3 -->
<g id="edge2" class="edge">
<title>Node2&#45;&gt;Node3</title>
<path fill="none" stroke="midnightblue" d="M825.82,-92.38C817.43,-93.92 808.6,-95.54 800.3,-97.06"/>
<polygon fill="midnightblue" stroke="midnightblue" points="826.58,-95.79 835.79,-90.55 825.32,-88.91 826.58,-95.79"/>
</g>
<!-- Node4 -->
<g id="node4" class="node">
<title>Node4</title>
<g id="a_node4"><a xlink:href="param_8c.html#ae7f8932981ba2f49027da90acfd121b1" target="_top" xlink:title="Reads the XCSF data structure from a file.">
<polygon fill="none" stroke="black" points="598.5,-180.5 598.5,-199.5 665.5,-199.5 665.5,-180.5 598.5,-180.5"/>
<text text-anchor="middle" x="632" y="-187.5" font-family="Helvetica,sans-Serif" font-size="10.00">param_load</text>
</a>
</g>
</g>
<!-- Node3&#45;&gt;Node4 -->
<g id="edge3" class="edge">
<title>Node3&#45;&gt;Node4</title>
<path fill="none" stroke="midnightblue" d="M737.82,-119.3C711.57,-137 669.16,-165.61 647.2,-180.43"/>
<polygon fill="midnightblue" stroke="midnightblue" points="740.03,-122.03 746.37,-113.53 736.12,-116.22 740.03,-122.03"/>
</g>
<!-- Node9 -->
<g id="node9" class="node">
<title>Node9</title>
<g id="a_node9"><a xlink:href="param_8c.html#a802ad715416c4b9ac967c43f51399d75" target="_top" xlink:title=" ">
<polygon fill="none" stroke="black" points="577,-94.5 577,-113.5 687,-113.5 687,-94.5 577,-94.5"/>
<text text-anchor="middle" x="632" y="-101.5" font-family="Helvetica,sans-Serif" font-size="10.00">param_set_loss_func</text>
</a>
</g>
</g>
<!-- Node3&#45;&gt;Node9 -->
<g id="edge8" class="edge">
<title>Node3&#45;&gt;Node9</title>
<path fill="none" stroke="midnightblue" d="M712.69,-104C704.41,-104 695.74,-104 687.3,-104"/>
<polygon fill="midnightblue" stroke="midnightblue" points="712.94,-107.5 722.94,-104 712.94,-100.5 712.94,-107.5"/>
</g>
<!-- Node19 -->
<g id="node19" class="node">
<title>Node19</title>
<g id="a_node19"><a xlink:href="param_8c.html#ac445df670c4171f1830eeb60967a03ad" target="_top" xlink:title=" ">
<polygon fill="none" stroke="black" points="577,-25 577,-55 687,-55 687,-25 577,-25"/>
<text text-anchor="start" x="585" y="-43" font-family="Helvetica,sans-Serif" font-size="10.00">param_set_loss_func</text>
<text text-anchor="middle" x="632" y="-32" font-family="Helvetica,sans-Serif" font-size="10.00">_string</text>
</a>
</g>
</g>
<!-- Node3&#45;&gt;Node19 -->
<g id="edge22" class="edge">
<title>Node3&#45;&gt;Node19</title>
<path fill="none" stroke="midnightblue" d="M732.27,-89.83C711.77,-79.54 684.07,-65.63 663.14,-55.13"/>
<polygon fill="midnightblue" stroke="midnightblue" points="730.9,-93.06 741.41,-94.42 734.04,-86.8 730.9,-93.06"/>
</g>
<!-- Node5 -->
<g id="node5" class="node">
<title>Node5</title>
<g id="a_node5"><a xlink:href="xcsf_8c.html#ada5fb9a2a1e9225aad40a36614fc0de7" target="_top" xlink:title="Reads the state of XCSF from a file.">
<polygon fill="none" stroke="black" points="144,-228.5 144,-247.5 203,-247.5 203,-228.5 144,-228.5"/>
<text text-anchor="middle" x="173.5" y="-235.5" font-family="Helvetica,sans-Serif" font-size="10.00">xcsf_load</text>
</a>
</g>
</g>
<!-- Node4&#45;&gt;Node5 -->
<g id="edge4" class="edge">
<title>Node4&#45;&gt;Node5</title>
<path fill="none" stroke="midnightblue" d="M588.18,-194.91C536.32,-200.82 446.29,-210.95 369,-219 310.11,-225.13 241.13,-231.73 203.18,-235.31"/>
<polygon fill="midnightblue" stroke="midnightblue" points="588.8,-198.36 598.34,-193.75 588.01,-191.41 588.8,-198.36"/>
</g>
<!-- Node6 -->
<g id="node6" class="node">
<title>Node6</title>
<g id="a_node6"><a xlink:href="classXCS.html#a71b21201e1a2aef16702a2c308eb6683" target="_top" xlink:title="Implements pickle file reading.">
<polygon fill="none" stroke="black" points="0,-190.5 0,-209.5 90,-209.5 90,-190.5 0,-190.5"/>
<text text-anchor="middle" x="45" y="-197.5" font-family="Helvetica,sans-Serif" font-size="10.00">XCS::deserialize</text>
</a>
</g>
</g>
<!-- Node5&#45;&gt;Node6 -->
<g id="edge5" class="edge">
<title>Node5&#45;&gt;Node6</title>
<path fill="none" stroke="midnightblue" d="M134.14,-226.48C116.09,-221.06 94.82,-214.67 77.7,-209.52"/>
<polygon fill="midnightblue" stroke="midnightblue" points="133.21,-229.85 143.8,-229.38 135.22,-223.15 133.21,-229.85"/>
</g>
<!-- Node7 -->
<g id="node7" class="node">
<title>Node7</title>
<g id="a_node7"><a xlink:href="classXCS.html#a1a7ff32cb3485c0de9dd988f6f3e3470" target="_top" xlink:title="Reads the entire current state of XCSF from a file.">
<polygon fill="none" stroke="black" points="14,-228.5 14,-247.5 76,-247.5 76,-228.5 14,-228.5"/>
<text text-anchor="middle" x="45" y="-235.5" font-family="Helvetica,sans-Serif" font-size="10.00">XCS::load</text>
</a>
</g>
</g>
<!-- Node5&#45;&gt;Node7 -->
<g id="edge6" class="edge">
<title>Node5&#45;&gt;Node7</title>
<path fill="none" stroke="midnightblue" d="M133.66,-238C115.24,-238 93.55,-238 76.36,-238"/>
<polygon fill="midnightblue" stroke="midnightblue" points="133.8,-241.5 143.8,-238 133.8,-234.5 133.8,-241.5"/>
</g>
<!-- Node8 -->
<g id="node8" class="node">
<title>Node8</title>
<g id="a_node8"><a xlink:href="main_8c.html#a3c04138a5bfe5d72780bb7e82a18e627" target="_top" xlink:title=" ">
<polygon fill="none" stroke="black" points="26,-114.5 26,-133.5 64,-133.5 64,-114.5 26,-114.5"/>
<text text-anchor="middle" x="45" y="-121.5" font-family="Helvetica,sans-Serif" font-size="10.00">main</text>
</a>
</g>
</g>
<!-- Node5&#45;&gt;Node8 -->
<g id="edge7" class="edge">
<title>Node5&#45;&gt;Node8</title>
<path fill="none" stroke="midnightblue" d="M134.6,-224.38C131.59,-222.74 128.68,-220.95 126,-219 108.48,-206.24 69.16,-154.95 53.07,-133.5"/>
<polygon fill="midnightblue" stroke="midnightblue" points="133.28,-227.63 143.81,-228.82 136.32,-221.32 133.28,-227.63"/>
</g>
<!-- Node10 -->
<g id="node10" class="node">
<title>Node10</title>
<g id="a_node10"><a xlink:href="param_8c.html#ac8218a170803be0bcd974764e7494b0e" target="_top" xlink:title="Initialises default XCSF parameters.">
<polygon fill="none" stroke="black" points="442,-114.5 442,-133.5 504,-133.5 504,-114.5 442,-114.5"/>
<text text-anchor="middle" x="473" y="-121.5" font-family="Helvetica,sans-Serif" font-size="10.00">param_init</text>
</a>
</g>
</g>
<!-- Node9&#45;&gt;Node10 -->
<g id="edge9" class="edge">
<title>Node9&#45;&gt;Node10</title>
<path fill="none" stroke="midnightblue" d="M566.83,-112.17C545.2,-114.93 522.07,-117.88 504.31,-120.14"/>
<polygon fill="midnightblue" stroke="midnightblue" points="567.49,-115.62 576.97,-110.88 566.61,-108.67 567.49,-115.62"/>
</g>
<!-- Node17 -->
<g id="node17" class="node">
<title>Node17</title>
<g id="a_node17"><a xlink:href="xcsf_8c.html#ad77461184a11780681798ac593b090ab" target="_top" xlink:title="Switches from autoencoding to classification.">
<polygon fill="none" stroke="black" points="418.5,-63.5 418.5,-82.5 527.5,-82.5 527.5,-63.5 418.5,-63.5"/>
<text text-anchor="middle" x="473" y="-70.5" font-family="Helvetica,sans-Serif" font-size="10.00">xcsf_ae_to_classifier</text>
</a>
</g>
</g>
<!-- Node9&#45;&gt;Node17 -->
<g id="edge20" class="edge">
<title>Node9&#45;&gt;Node17</title>
<path fill="none" stroke="midnightblue" d="M572.5,-92.45C555.94,-89.18 538.11,-85.66 522.23,-82.52"/>
<polygon fill="midnightblue" stroke="midnightblue" points="572.13,-95.94 582.61,-94.45 573.48,-89.08 572.13,-95.94"/>
</g>
<!-- Node11 -->
<g id="node11" class="node">
<title>Node11</title>
<g id="a_node11"><a xlink:href="env__csv_8c.html#ab26a39a388f0ac83b9ac14726ad14b16" target="_top" xlink:title="Initialises a CSV input environment from a specified filename.">
<polygon fill="none" stroke="black" points="277.5,-152.5 277.5,-171.5 348.5,-171.5 348.5,-152.5 277.5,-152.5"/>
<text text-anchor="middle" x="313" y="-159.5" font-family="Helvetica,sans-Serif" font-size="10.00">env_csv_init</text>
</a>
</g>
</g>
<!-- Node10&#45;&gt;Node11 -->
<g id="edge10" class="edge">
<title>Node10&#45;&gt;Node11</title>
<path fill="none" stroke="midnightblue" d="M432.1,-133.6C406.38,-139.78 373.27,-147.75 348.65,-153.67"/>
<polygon fill="midnightblue" stroke="midnightblue" points="433.01,-136.98 441.91,-131.24 431.37,-130.17 433.01,-136.98"/>
</g>
<!-- Node13 -->
<g id="node13" class="node">
<title>Node13</title>
<g id="a_node13"><a xlink:href="env__maze_8c.html#acad3cc6e9fe2b7e07e878f1f517ad3a6" target="_top" xlink:title="Initialises a maze environment from a specified file.">
<polygon fill="none" stroke="black" points="273,-114.5 273,-133.5 353,-133.5 353,-114.5 273,-114.5"/>
<text text-anchor="middle" x="313" y="-121.5" font-family="Helvetica,sans-Serif" font-size="10.00">env_maze_init</text>
</a>
</g>
</g>
<!-- Node10&#45;&gt;Node13 -->
<g id="edge13" class="edge">
<title>Node10&#45;&gt;Node13</title>
<path fill="none" stroke="midnightblue" d="M431.68,-124C407.59,-124 377.14,-124 353.25,-124"/>
<polygon fill="midnightblue" stroke="midnightblue" points="431.91,-127.5 441.91,-124 431.91,-120.5 431.91,-127.5"/>
</g>
<!-- Node14 -->
<g id="node14" class="node">
<title>Node14</title>
<g id="a_node14"><a xlink:href="env__mux_8c.html#aff3b81b4913d273ecfd62d7585480b15" target="_top" xlink:title="Initialises a real multiplexer environment of specified length.">
<polygon fill="none" stroke="black" points="276,-76.5 276,-95.5 350,-95.5 350,-76.5 276,-76.5"/>
<text text-anchor="middle" x="313" y="-83.5" font-family="Helvetica,sans-Serif" font-size="10.00">env_mux_init</text>
</a>
</g>
</g>
<!-- Node10&#45;&gt;Node14 -->
<g id="edge15" class="edge">
<title>Node10&#45;&gt;Node14</title>
<path fill="none" stroke="midnightblue" d="M431.93,-114.36C406.73,-108.3 374.48,-100.54 350.07,-94.68"/>
<polygon fill="midnightblue" stroke="midnightblue" points="431.37,-117.83 441.91,-116.76 433.01,-111.02 431.37,-117.83"/>
</g>
<!-- Node15 -->
<g id="node15" class="node">
<title>Node15</title>
<g id="a_node15"><a xlink:href="classXCS.html#a2e542f3f17c9c76d07045adf1f5c16f9" target="_top" xlink:title="Resets basic constructor variables.">
<polygon fill="none" stroke="black" points="280.5,-190.5 280.5,-209.5 345.5,-209.5 345.5,-190.5 280.5,-190.5"/>
<text text-anchor="middle" x="313" y="-197.5" font-family="Helvetica,sans-Serif" font-size="10.00">XCS::reset</text>
</a>
</g>
</g>
<!-- Node10&#45;&gt;Node15 -->
<g id="edge17" class="edge">
<title>Node10&#45;&gt;Node15</title>
<path fill="none" stroke="midnightblue" d="M448.06,-138.8C427.56,-151.1 397.01,-168.52 369,-181 361.25,-184.45 352.66,-187.69 344.62,-190.47"/>
<polygon fill="midnightblue" stroke="midnightblue" points="449.99,-141.73 456.72,-133.55 446.36,-135.74 449.99,-141.73"/>
</g>
<!-- Node12 -->
<g id="node12" class="node">
<title>Node12</title>
<g id="a_node12"><a xlink:href="env_8c.html#a9213fcf5fc422d6a77bce853b1d78dc9" target="_top" xlink:title="Initialises a built&#45;in problem environment.">
<polygon fill="none" stroke="black" points="148.5,-114.5 148.5,-133.5 198.5,-133.5 198.5,-114.5 148.5,-114.5"/>
<text text-anchor="middle" x="173.5" y="-121.5" font-family="Helvetica,sans-Serif" font-size="10.00">env_init</text>
</a>
</g>
</g>
<!-- Node11&#45;&gt;Node12 -->
<g id="edge11" class="edge">
<title>Node11&#45;&gt;Node12</title>
<path fill="none" stroke="midnightblue" d="M267.48,-149.7C244.66,-143.39 217.77,-135.96 198.79,-130.71"/>
<polygon fill="midnightblue" stroke="midnightblue" points="266.73,-153.12 277.3,-152.41 268.6,-146.37 266.73,-153.12"/>
</g>
<!-- Node12&#45;&gt;Node8 -->
<g id="edge12" class="edge">
<title>Node12&#45;&gt;Node8</title>
<path fill="none" stroke="midnightblue" d="M138.34,-124C114.49,-124 83.58,-124 64.26,-124"/>
<polygon fill="midnightblue" stroke="midnightblue" points="138.41,-127.5 148.41,-124 138.41,-120.5 138.41,-127.5"/>
</g>
<!-- Node13&#45;&gt;Node12 -->
<g id="edge14" class="edge">
<title>Node13&#45;&gt;Node12</title>
<path fill="none" stroke="midnightblue" d="M262.84,-124C240.97,-124 216.23,-124 198.5,-124"/>
<polygon fill="midnightblue" stroke="midnightblue" points="262.97,-127.5 272.97,-124 262.97,-120.5 262.97,-127.5"/>
</g>
<!-- Node14&#45;&gt;Node12 -->
<g id="edge16" class="edge">
<title>Node14&#45;&gt;Node12</title>
<path fill="none" stroke="midnightblue" d="M267.48,-98.3C244.66,-104.61 217.77,-112.04 198.79,-117.29"/>
<polygon fill="midnightblue" stroke="midnightblue" points="268.6,-101.63 277.3,-95.59 266.73,-94.88 268.6,-101.63"/>
</g>
<!-- Node16 -->
<g id="node16" class="node">
<title>Node16</title>
<g id="a_node16"><a xlink:href="classXCS.html#a8a53a8df81152fbf73e6abcc6a6e56b4" target="_top" xlink:title="Default Constructor.">
<polygon fill="none" stroke="black" points="141,-190.5 141,-209.5 206,-209.5 206,-190.5 141,-190.5"/>
<text text-anchor="middle" x="173.5" y="-197.5" font-family="Helvetica,sans-Serif" font-size="10.00">XCS::XCS</text>
</a>
</g>
</g>
<!-- Node15&#45;&gt;Node16 -->
<g id="edge18" class="edge">
<title>Node15&#45;&gt;Node16</title>
<path fill="none" stroke="midnightblue" d="M270.41,-200C249.85,-200 225.43,-200 206.37,-200"/>
<polygon fill="midnightblue" stroke="midnightblue" points="270.45,-203.5 280.45,-200 270.45,-196.5 270.45,-203.5"/>
</g>
<!-- Node16&#45;&gt;Node6 -->
<g id="edge19" class="edge">
<title>Node16&#45;&gt;Node6</title>
<path fill="none" stroke="midnightblue" d="M130.78,-200C117.72,-200 103.28,-200 90.06,-200"/>
<polygon fill="midnightblue" stroke="midnightblue" points="130.91,-203.5 140.91,-200 130.9,-196.5 130.91,-203.5"/>
</g>
<!-- Node18 -->
<g id="node18" class="node">
<title>Node18</title>
<g id="a_node18"><a xlink:href="classXCS.html#ad73009d926d395ee03bf7586f194fcbe" target="_top" xlink:title="Switches from autoencoding to classification.">
<polygon fill="none" stroke="black" points="257,-38.5 257,-57.5 369,-57.5 369,-38.5 257,-38.5"/>
<text text-anchor="middle" x="313" y="-45.5" font-family="Helvetica,sans-Serif" font-size="10.00">XCS::ae_to_classifier</text>
</a>
</g>
</g>
<!-- Node17&#45;&gt;Node18 -->
<g id="edge21" class="edge">
<title>Node17&#45;&gt;Node18</title>
<path fill="none" stroke="midnightblue" d="M407.88,-62.85C395,-60.82 381.57,-58.69 369.03,-56.71"/>
<polygon fill="midnightblue" stroke="midnightblue" points="407.64,-66.36 418.07,-64.47 408.74,-59.45 407.64,-66.36"/>
</g>
<!-- Node20 -->
<g id="node20" class="node">
<title>Node20</title>
<g id="a_node20"><a xlink:href="param_8c.html#ad7d3421611d8020079446a6a190df8f8" target="_top" xlink:title="Sets the general parameters from a cJSON object.">
<polygon fill="none" stroke="black" points="405,-14.5 405,-33.5 541,-33.5 541,-14.5 405,-14.5"/>
<text text-anchor="middle" x="473" y="-21.5" font-family="Helvetica,sans-Serif" font-size="10.00">param_json_import_general</text>
</a>
</g>
</g>
<!-- Node19&#45;&gt;Node20 -->
<g id="edge23" class="edge">
<title>Node19&#45;&gt;Node20</title>
<path fill="none" stroke="midnightblue" d="M566.8,-33.46C558.35,-32.6 549.67,-31.71 541.17,-30.85"/>
<polygon fill="midnightblue" stroke="midnightblue" points="566.67,-36.96 576.97,-34.49 567.38,-30 566.67,-36.96"/>
</g>
<!-- Node21 -->
<g id="node21" class="node">
<title>Node21</title>
<g id="a_node21"><a xlink:href="param_8c.html#a130260988988535419aee8abe51986c1" target="_top" xlink:title="Sets the parameters from a json formatted string.">
<polygon fill="none" stroke="black" points="263.5,-0.5 263.5,-19.5 362.5,-19.5 362.5,-0.5 263.5,-0.5"/>
<text text-anchor="middle" x="313" y="-7.5" font-family="Helvetica,sans-Serif" font-size="10.00">param_json_import</text>
</a>
</g>
</g>
<!-- Node20&#45;&gt;Node21 -->
<g id="edge24" class="edge">
<title>Node20&#45;&gt;Node21</title>
<path fill="none" stroke="midnightblue" d="M395,-17.18C384.07,-16.21 373.09,-15.24 362.9,-14.33"/>
<polygon fill="midnightblue" stroke="midnightblue" points="394.72,-20.67 404.99,-18.06 395.34,-13.69 394.72,-20.67"/>
</g>
<!-- Node22 -->
<g id="node22" class="node">
<title>Node22</title>
<g id="a_node22"><a xlink:href="config_8c.html#a045a64a30d99a4bef2ebfd9b54aa9698" target="_top" xlink:title="Reads the specified configuration file.">
<polygon fill="none" stroke="black" points="140,-57.5 140,-76.5 207,-76.5 207,-57.5 140,-57.5"/>
<text text-anchor="middle" x="173.5" y="-64.5" font-family="Helvetica,sans-Serif" font-size="10.00">config_read</text>
</a>
</g>
</g>
<!-- Node21&#45;&gt;Node22 -->
<g id="edge25" class="edge">
<title>Node21&#45;&gt;Node22</title>
<path fill="none" stroke="midnightblue" d="M273.06,-22.91C267.63,-24.87 262.16,-26.93 257,-29 235.05,-37.82 210.5,-49.35 193.93,-57.39"/>
<polygon fill="midnightblue" stroke="midnightblue" points="274.42,-26.15 282.69,-19.53 272.09,-19.54 274.42,-26.15"/>
</g>
<!-- Node23 -->
<g id="node23" class="node">
<title>Node23</title>
<g id="a_node23"><a xlink:href="classXCS.html#ad8780630d80d4bf5b76d9bf2f6c91f25" target="_top" xlink:title="Sets parameter values.">
<polygon fill="none" stroke="black" points="126,-0.5 126,-19.5 221,-19.5 221,-0.5 126,-0.5"/>
<text text-anchor="middle" x="173.5" y="-7.5" font-family="Helvetica,sans-Serif" font-size="10.00">XCS::set_params</text>
</a>
</g>
</g>
<!-- Node21&#45;&gt;Node23 -->
<g id="edge27" class="edge">
<title>Node21&#45;&gt;Node23</title>
<path fill="none" stroke="midnightblue" d="M253.1,-10C242.49,-10 231.57,-10 221.36,-10"/>
<polygon fill="midnightblue" stroke="midnightblue" points="253.14,-13.5 263.14,-10 253.14,-6.5 253.14,-13.5"/>
</g>
<!-- Node22&#45;&gt;Node8 -->
<g id="edge26" class="edge">
<title>Node22&#45;&gt;Node8</title>
<path fill="none" stroke="midnightblue" d="M142.2,-80.65C117.95,-91.58 84.74,-106.54 64.36,-115.73"/>
<polygon fill="midnightblue" stroke="midnightblue" points="143.65,-83.84 151.33,-76.54 140.77,-77.46 143.65,-83.84"/>
</g>
<!-- Node24 -->
<g id="node24" class="node">
<title>Node24</title>
<g id="a_node24"><a xlink:href="classXCS.html#a608a50f998819369d28ef9966d6812ca" target="_top" xlink:title="Constructor.">
<polygon fill="none" stroke="black" points="12.5,-0.5 12.5,-19.5 77.5,-19.5 77.5,-0.5 12.5,-0.5"/>
<text text-anchor="middle" x="45" y="-7.5" font-family="Helvetica,sans-Serif" font-size="10.00">XCS::XCS</text>
</a>
</g>
</g>
<!-- Node23&#45;&gt;Node24 -->
<g id="edge28" class="edge">
<title>Node23&#45;&gt;Node24</title>
<path fill="none" stroke="midnightblue" d="M115.44,-10C102.43,-10 89.07,-10 77.58,-10"/>
<polygon fill="midnightblue" stroke="midnightblue" points="115.76,-13.5 125.76,-10 115.76,-6.5 115.76,-13.5"/>
</g>
</g>
</svg>
