<?xml version="1.0" encoding="UTF-8" standalone="no"?>
<!DOCTYPE svg PUBLIC "-//W3C//DTD SVG 1.1//EN"
 "http://www.w3.org/Graphics/SVG/1.1/DTD/svg11.dtd">
<!-- Generated by graphviz version 2.43.0 (0)
 -->
<!-- Title: loss.c Pages: 1 -->
<svg width="929pt" height="196pt"
 viewBox="0.00 0.00 928.50 196.00" xmlns="http://www.w3.org/2000/svg" xmlns:xlink="http://www.w3.org/1999/xlink">
<g id="graph0" class="graph" transform="scale(1 1) rotate(0) translate(4 192)">
<title>loss.c</title>
<!-- Node1 -->
<g id="node1" class="node">
<title>Node1</title>
<g id="a_node1"><a xlink:title="Loss functions for calculating prediction error.">
<polygon fill="#bfbfbf" stroke="black" points="448.5,-168.5 448.5,-187.5 491.5,-187.5 491.5,-168.5 448.5,-168.5"/>
<text text-anchor="middle" x="470" y="-175.5" font-family="Helvetica,sans-Serif" font-size="10.00">loss.c</text>
</a>
</g>
</g>
<!-- Node2 -->
<g id="node2" class="node">
<title>Node2</title>
<g id="a_node2"><a xlink:href="loss_8h.html" target="_top" xlink:title="Loss functions for calculating prediction error.">
<polygon fill="none" stroke="black" points="423.5,-112.5 423.5,-131.5 466.5,-131.5 466.5,-112.5 423.5,-112.5"/>
<text text-anchor="middle" x="445" y="-119.5" font-family="Helvetica,sans-Serif" font-size="10.00">loss.h</text>
</a>
</g>
</g>
<!-- Node1&#45;&gt;Node2 -->
<g id="edge1" class="edge">
<title>Node1&#45;&gt;Node2</title>
<path fill="none" stroke="midnightblue" d="M465.87,-168.08C462.49,-160.77 457.58,-150.18 453.38,-141.1"/>
<polygon fill="midnightblue" stroke="midnightblue" points="456.43,-139.36 449.05,-131.75 450.08,-142.3 456.43,-139.36"/>
</g>
<!-- Node14 -->
<g id="node14" class="node">
<title>Node14</title>
<g id="a_node14"><a xlink:href="utils_8h.html" target="_top" xlink:title="Utility functions for random number handling, etc.">
<polygon fill="none" stroke="black" points="578.5,-56.5 578.5,-75.5 621.5,-75.5 621.5,-56.5 578.5,-56.5"/>
<text text-anchor="middle" x="600" y="-63.5" font-family="Helvetica,sans-Serif" font-size="10.00">utils.h</text>
</a>
</g>
</g>
<!-- Node1&#45;&gt;Node14 -->
<g id="edge13" class="edge">
<title>Node1&#45;&gt;Node14</title>
<path fill="none" stroke="midnightblue" d="M480.2,-168.37C502.22,-149.73 554.46,-105.53 582.11,-82.13"/>
<polygon fill="midnightblue" stroke="midnightblue" points="584.47,-84.72 589.85,-75.59 579.95,-79.38 584.47,-84.72"/>
</g>
<!-- Node3 -->
<g id="node3" class="node">
<title>Node3</title>
<g id="a_node3"><a xlink:href="xcsf_8h.html" target="_top" xlink:title="XCSF data structures.">
<polygon fill="none" stroke="black" points="350,-56.5 350,-75.5 394,-75.5 394,-56.5 350,-56.5"/>
<text text-anchor="middle" x="372" y="-63.5" font-family="Helvetica,sans-Serif" font-size="10.00">xcsf.h</text>
</a>
</g>
</g>
<!-- Node2&#45;&gt;Node3 -->
<g id="edge2" class="edge">
<title>Node2&#45;&gt;Node3</title>
<path fill="none" stroke="midnightblue" d="M433.27,-112.32C422.16,-104.11 405.26,-91.6 392.02,-81.81"/>
<polygon fill="midnightblue" stroke="midnightblue" points="394.06,-78.97 383.94,-75.83 389.9,-84.59 394.06,-78.97"/>
</g>
<!-- Node4 -->
<g id="node4" class="node">
<title>Node4</title>
<g id="a_node4"><a xlink:title=" ">
<polygon fill="none" stroke="#bfbfbf" points="414.5,-0.5 414.5,-19.5 461.5,-19.5 461.5,-0.5 414.5,-0.5"/>
<text text-anchor="middle" x="438" y="-7.5" font-family="Helvetica,sans-Serif" font-size="10.00">errno.h</text>
</a>
</g>
</g>
<!-- Node3&#45;&gt;Node4 -->
<g id="edge3" class="edge">
<title>Node3&#45;&gt;Node4</title>
<path fill="none" stroke="midnightblue" d="M382.6,-56.32C392.46,-48.26 407.35,-36.08 419.22,-26.37"/>
<polygon fill="midnightblue" stroke="midnightblue" points="421.68,-28.88 427.2,-19.83 417.25,-23.46 421.68,-28.88"/>
</g>
<!-- Node5 -->
<g id="node5" class="node">
<title>Node5</title>
<g id="a_node5"><a xlink:title=" ">
<polygon fill="none" stroke="#bfbfbf" points="0,-0.5 0,-19.5 44,-19.5 44,-0.5 0,-0.5"/>
<text text-anchor="middle" x="22" y="-7.5" font-family="Helvetica,sans-Serif" font-size="10.00">float.h</text>
</a>
</g>
</g>
<!-- Node3&#45;&gt;Node5 -->
<g id="edge4" class="edge">
<title>Node3&#45;&gt;Node5</title>
<path fill="none" stroke="midnightblue" d="M349.76,-62.96C298.98,-58.08 170.48,-44.42 54.04,-19.96"/>
<polygon fill="midnightblue" stroke="midnightblue" points="54.76,-16.54 44.25,-17.87 53.3,-23.38 54.76,-16.54"/>
</g>
<!-- Node6 -->
<g id="node6" class="node">
<title>Node6</title>
<g id="a_node6"><a xlink:title=" ">
<polygon fill="none" stroke="#bfbfbf" points="62.5,-0.5 62.5,-19.5 121.5,-19.5 121.5,-0.5 62.5,-0.5"/>
<text text-anchor="middle" x="92" y="-7.5" font-family="Helvetica,sans-Serif" font-size="10.00">inttypes.h</text>
</a>
</g>
</g>
<!-- Node3&#45;&gt;Node6 -->
<g id="edge5" class="edge">
<title>Node3&#45;&gt;Node6</title>
<path fill="none" stroke="midnightblue" d="M349.68,-61.16C308.64,-54.02 218.25,-37.98 131.76,-20.09"/>
<polygon fill="midnightblue" stroke="midnightblue" points="132.29,-16.62 121.78,-18.01 130.86,-23.47 132.29,-16.62"/>
</g>
<!-- Node7 -->
<g id="node7" class="node">
<title>Node7</title>
<g id="a_node7"><a xlink:title=" ">
<polygon fill="none" stroke="#bfbfbf" points="140,-0.5 140,-19.5 188,-19.5 188,-0.5 140,-0.5"/>
<text text-anchor="middle" x="164" y="-7.5" font-family="Helvetica,sans-Serif" font-size="10.00">limits.h</text>
</a>
</g>
</g>
<!-- Node3&#45;&gt;Node7 -->
<g id="edge6" class="edge">
<title>Node3&#45;&gt;Node7</title>
<path fill="none" stroke="midnightblue" d="M349.87,-59.42C318.33,-51.44 258.38,-36.19 197.85,-20.2"/>
<polygon fill="midnightblue" stroke="midnightblue" points="198.7,-16.8 188.14,-17.63 196.91,-23.57 198.7,-16.8"/>
</g>
<!-- Node8 -->
<g id="node8" class="node">
<title>Node8</title>
<g id="a_node8"><a xlink:title=" ">
<polygon fill="none" stroke="#bfbfbf" points="479.5,-0.5 479.5,-19.5 526.5,-19.5 526.5,-0.5 479.5,-0.5"/>
<text text-anchor="middle" x="503" y="-7.5" font-family="Helvetica,sans-Serif" font-size="10.00">math.h</text>
</a>
</g>
</g>
<!-- Node3&#45;&gt;Node8 -->
<g id="edge7" class="edge">
<title>Node3&#45;&gt;Node8</title>
<path fill="none" stroke="midnightblue" d="M392.76,-56.44C414.32,-47.56 448.26,-33.56 472.79,-23.45"/>
<polygon fill="midnightblue" stroke="midnightblue" points="474.43,-26.56 482.34,-19.52 471.76,-20.09 474.43,-26.56"/>
</g>
<!-- Node9 -->
<g id="node9" class="node">
<title>Node9</title>
<g id="a_node9"><a xlink:title=" ">
<polygon fill="none" stroke="#bfbfbf" points="206,-0.5 206,-19.5 262,-19.5 262,-0.5 206,-0.5"/>
<text text-anchor="middle" x="234" y="-7.5" font-family="Helvetica,sans-Serif" font-size="10.00">stdbool.h</text>
</a>
</g>
</g>
<!-- Node3&#45;&gt;Node9 -->
<g id="edge8" class="edge">
<title>Node3&#45;&gt;Node9</title>
<path fill="none" stroke="midnightblue" d="M350.13,-56.44C327.22,-47.48 291.02,-33.31 265.13,-23.18"/>
<polygon fill="midnightblue" stroke="midnightblue" points="266.35,-19.9 255.76,-19.52 263.8,-26.42 266.35,-19.9"/>
</g>
<!-- Node10 -->
<g id="node10" class="node">
<title>Node10</title>
<g id="a_node10"><a xlink:title=" ">
<polygon fill="none" stroke="#bfbfbf" points="280.5,-0.5 280.5,-19.5 329.5,-19.5 329.5,-0.5 280.5,-0.5"/>
<text text-anchor="middle" x="305" y="-7.5" font-family="Helvetica,sans-Serif" font-size="10.00">stdint.h</text>
</a>
</g>
</g>
<!-- Node3&#45;&gt;Node10 -->
<g id="edge9" class="edge">
<title>Node3&#45;&gt;Node10</title>
<path fill="none" stroke="midnightblue" d="M361.24,-56.32C351.23,-48.26 336.11,-36.08 324.07,-26.37"/>
<polygon fill="midnightblue" stroke="midnightblue" points="325.94,-23.38 315.96,-19.83 321.55,-28.83 325.94,-23.38"/>
</g>
<!-- Node11 -->
<g id="node11" class="node">
<title>Node11</title>
<g id="a_node11"><a xlink:title=" ">
<polygon fill="none" stroke="#bfbfbf" points="545,-0.5 545,-19.5 591,-19.5 591,-0.5 545,-0.5"/>
<text text-anchor="middle" x="568" y="-7.5" font-family="Helvetica,sans-Serif" font-size="10.00">stdio.h</text>
</a>
</g>
</g>
<!-- Node3&#45;&gt;Node11 -->
<g id="edge10" class="edge">
<title>Node3&#45;&gt;Node11</title>
<path fill="none" stroke="midnightblue" d="M394.1,-58.91C428.46,-49.45 494.87,-31.15 534.94,-20.11"/>
<polygon fill="midnightblue" stroke="midnightblue" points="536.05,-23.43 544.77,-17.4 534.19,-16.68 536.05,-23.43"/>
</g>
<!-- Node12 -->
<g id="node12" class="node">
<title>Node12</title>
<g id="a_node12"><a xlink:title=" ">
<polygon fill="none" stroke="#bfbfbf" points="609,-0.5 609,-19.5 657,-19.5 657,-0.5 609,-0.5"/>
<text text-anchor="middle" x="633" y="-7.5" font-family="Helvetica,sans-Serif" font-size="10.00">stdlib.h</text>
</a>
</g>
</g>
<!-- Node3&#45;&gt;Node12 -->
<g id="edge11" class="edge">
<title>Node3&#45;&gt;Node12</title>
<path fill="none" stroke="midnightblue" d="M394.12,-61.18C433.39,-54.27 518.02,-38.88 599.04,-20.09"/>
<polygon fill="midnightblue" stroke="midnightblue" points="599.96,-23.47 608.9,-17.79 598.37,-16.66 599.96,-23.47"/>
</g>
<!-- Node13 -->
<g id="node13" class="node">
<title>Node13</title>
<g id="a_node13"><a xlink:title=" ">
<polygon fill="none" stroke="#bfbfbf" points="347.5,-0.5 347.5,-19.5 396.5,-19.5 396.5,-0.5 347.5,-0.5"/>
<text text-anchor="middle" x="372" y="-7.5" font-family="Helvetica,sans-Serif" font-size="10.00">string.h</text>
</a>
</g>
</g>
<!-- Node3&#45;&gt;Node13 -->
<g id="edge12" class="edge">
<title>Node3&#45;&gt;Node13</title>
<path fill="none" stroke="midnightblue" d="M372,-56.08C372,-49.01 372,-38.86 372,-29.99"/>
<polygon fill="midnightblue" stroke="midnightblue" points="375.5,-29.75 372,-19.75 368.5,-29.75 375.5,-29.75"/>
</g>
<!-- Node14&#45;&gt;Node8 -->
<g id="edge16" class="edge">
<title>Node14&#45;&gt;Node8</title>
<path fill="none" stroke="midnightblue" d="M584.42,-56.32C569,-47.74 545.19,-34.49 527.29,-24.52"/>
<polygon fill="midnightblue" stroke="midnightblue" points="528.99,-21.46 518.55,-19.65 525.58,-27.58 528.99,-21.46"/>
</g>
<!-- Node14&#45;&gt;Node11 -->
<g id="edge17" class="edge">
<title>Node14&#45;&gt;Node11</title>
<path fill="none" stroke="midnightblue" d="M594.72,-56.08C590.29,-48.61 583.84,-37.72 578.38,-28.52"/>
<polygon fill="midnightblue" stroke="midnightblue" points="581.29,-26.57 573.19,-19.75 575.27,-30.14 581.29,-26.57"/>
</g>
<!-- Node14&#45;&gt;Node12 -->
<g id="edge18" class="edge">
<title>Node14&#45;&gt;Node12</title>
<path fill="none" stroke="midnightblue" d="M605.45,-56.08C610.01,-48.61 616.67,-37.72 622.29,-28.52"/>
<polygon fill="midnightblue" stroke="midnightblue" points="625.42,-30.11 627.65,-19.75 619.45,-26.46 625.42,-30.11"/>
</g>
<!-- Node15 -->
<g id="node15" class="node">
<title>Node15</title>
<g id="a_node15"><a xlink:title=" ">
<polygon fill="none" stroke="#bfbfbf" points="675,-0.5 675,-19.5 789,-19.5 789,-0.5 675,-0.5"/>
<text text-anchor="middle" x="732" y="-7.5" font-family="Helvetica,sans-Serif" font-size="10.00">../lib/cJSON/cJSON.h</text>
</a>
</g>
</g>
<!-- Node14&#45;&gt;Node15 -->
<g id="edge14" class="edge">
<title>Node14&#45;&gt;Node15</title>
<path fill="none" stroke="midnightblue" d="M620.92,-56.44C642.74,-47.52 677.15,-33.44 701.89,-23.32"/>
<polygon fill="midnightblue" stroke="midnightblue" points="703.25,-26.54 711.18,-19.52 700.6,-20.06 703.25,-26.54"/>
</g>
<!-- Node16 -->
<g id="node16" class="node">
<title>Node16</title>
<g id="a_node16"><a xlink:title=" ">
<polygon fill="none" stroke="#bfbfbf" points="807.5,-0.5 807.5,-19.5 920.5,-19.5 920.5,-0.5 807.5,-0.5"/>
<text text-anchor="middle" x="864" y="-7.5" font-family="Helvetica,sans-Serif" font-size="10.00">../lib/dSFMT/dSFMT.h</text>
</a>
</g>
</g>
<!-- Node14&#45;&gt;Node16 -->
<g id="edge15" class="edge">
<title>Node14&#45;&gt;Node16</title>
<path fill="none" stroke="midnightblue" d="M621.6,-60.58C662.96,-52.12 754.35,-33.43 812.35,-21.57"/>
<polygon fill="midnightblue" stroke="midnightblue" points="813.32,-24.94 822.41,-19.51 811.92,-18.08 813.32,-24.94"/>
</g>
</g>
</svg>
