<?xml version="1.0" encoding="UTF-8" standalone="no"?>
<!DOCTYPE svg PUBLIC "-//W3C//DTD SVG 1.1//EN"
 "http://www.w3.org/Graphics/SVG/1.1/DTD/svg11.dtd">
<!-- Generated by graphviz version 2.43.0 (0)
 -->
<!-- Title: loss_set_func Pages: 1 -->
<svg width="300pt" height="251pt"
 viewBox="0.00 0.00 300.00 251.00" xmlns="http://www.w3.org/2000/svg" xmlns:xlink="http://www.w3.org/1999/xlink">
<g id="graph0" class="graph" transform="scale(1 1) rotate(0) translate(4 247)">
<title>loss_set_func</title>
<!-- Node1 -->
<g id="Node000001" class="node">
<title>Node1</title>
<g id="a_Node000001"><a xlink:title="Sets the XCSF error function to the implemented function.">
<polygon fill="#999999" stroke="#666666" points="77,-132 0,-132 0,-113 77,-113 77,-132"/>
<text text-anchor="middle" x="38.5" y="-120" font-family="Helvetica,sans-Serif" font-size="10.00">loss_set_func</text>
</a>
</g>
</g>
<!-- Node2 -->
<g id="Node000002" class="node">
<title>Node2</title>
<g id="a_Node000002"><a xlink:href="loss_8c.html#a2687b111bc407194c64e07e2b933bb3c" target="_top" xlink:title="Binary logistic log loss for binary&#45;class classification.">
<polygon fill="white" stroke="#666666" points="197,-243 113,-243 113,-224 197,-224 197,-243"/>
<text text-anchor="middle" x="155" y="-231" font-family="Helvetica,sans-Serif" font-size="10.00">loss_binary_log</text>
</a>
</g>
</g>
<!-- Node1&#45;&gt;Node2 -->
<g id="edge1_Node000001_Node000002" class="edge">
<title>Node1&#45;&gt;Node2</title>
<g id="a_edge1_Node000001_Node000002"><a xlink:title=" ">
<path fill="none" stroke="#63b8ff" d="M44.95,-132.21C55.76,-150.69 81.57,-191.22 113,-215.5 114.57,-216.71 116.23,-217.86 117.95,-218.95"/>
<polygon fill="#63b8ff" stroke="#63b8ff" points="116.46,-222.12 126.91,-223.86 119.83,-215.98 116.46,-222.12"/>
</a>
</g>
</g>
<!-- Node3 -->
<g id="Node000003" class="node">
<title>Node3</title>
<g id="a_Node000003"><a xlink:href="loss_8c.html#adf5bc1e947369774d48b0355dbdbcc30" target="_top" xlink:title="Huber loss function.">
<polygon fill="white" stroke="#666666" points="187,-206 123,-206 123,-187 187,-187 187,-206"/>
<text text-anchor="middle" x="155" y="-194" font-family="Helvetica,sans-Serif" font-size="10.00">loss_huber</text>
</a>
</g>
</g>
<!-- Node1&#45;&gt;Node3 -->
<g id="edge2_Node000001_Node000003" class="edge">
<title>Node1&#45;&gt;Node3</title>
<g id="a_edge2_Node000001_Node000003"><a xlink:title=" ">
<path fill="none" stroke="#63b8ff" d="M50.37,-132.11C64.22,-144.03 89.23,-164.49 113,-178.5 115.37,-179.89 117.86,-181.25 120.4,-182.54"/>
<polygon fill="#63b8ff" stroke="#63b8ff" points="119.14,-185.82 129.68,-186.96 122.15,-179.5 119.14,-185.82"/>
</a>
</g>
</g>
<!-- Node4 -->
<g id="Node000004" class="node">
<title>Node4</title>
<g id="a_Node000004"><a xlink:href="loss_8c.html#a5b0fc07896aaa302b61213c450874d49" target="_top" xlink:title="Logistic log loss for multi&#45;class classification.">
<polygon fill="white" stroke="#666666" points="181.5,-169 128.5,-169 128.5,-150 181.5,-150 181.5,-169"/>
<text text-anchor="middle" x="155" y="-157" font-family="Helvetica,sans-Serif" font-size="10.00">loss_log</text>
</a>
</g>
</g>
<!-- Node1&#45;&gt;Node4 -->
<g id="edge3_Node000001_Node000004" class="edge">
<title>Node1&#45;&gt;Node4</title>
<g id="a_edge3_Node000001_Node000004"><a xlink:title=" ">
<path fill="none" stroke="#63b8ff" d="M68.99,-132.03C83.99,-136.88 102.35,-142.81 118.16,-147.92"/>
<polygon fill="#63b8ff" stroke="#63b8ff" points="117.53,-151.39 128.12,-151.14 119.68,-144.73 117.53,-151.39"/>
</a>
</g>
</g>
<!-- Node5 -->
<g id="Node000005" class="node">
<title>Node5</title>
<g id="a_Node000005"><a xlink:href="loss_8c.html#a7f1e236d219a5f551408639674b4a24a" target="_top" xlink:title="Mean absolute error loss function.">
<polygon fill="white" stroke="#666666" points="184.5,-132 125.5,-132 125.5,-113 184.5,-113 184.5,-132"/>
<text text-anchor="middle" x="155" y="-120" font-family="Helvetica,sans-Serif" font-size="10.00">loss_mae</text>
</a>
</g>
</g>
<!-- Node1&#45;&gt;Node5 -->
<g id="edge4_Node000001_Node000005" class="edge">
<title>Node1&#45;&gt;Node5</title>
<g id="a_edge4_Node000001_Node000005"><a xlink:title=" ">
<path fill="none" stroke="#63b8ff" d="M77.31,-122.5C89.4,-122.5 102.8,-122.5 114.98,-122.5"/>
<polygon fill="#63b8ff" stroke="#63b8ff" points="115.3,-126 125.3,-122.5 115.3,-119 115.3,-126"/>
</a>
</g>
</g>
<!-- Node6 -->
<g id="Node000006" class="node">
<title>Node6</title>
<g id="a_Node000006"><a xlink:href="loss_8c.html#aaeed4518371c4e75de20532e3a6aa601" target="_top" xlink:title="Mean squared error loss function.">
<polygon fill="white" stroke="#666666" points="292,-75 233,-75 233,-56 292,-56 292,-75"/>
<text text-anchor="middle" x="262.5" y="-63" font-family="Helvetica,sans-Serif" font-size="10.00">loss_mse</text>
</a>
</g>
</g>
<!-- Node1&#45;&gt;Node6 -->
<g id="edge5_Node000001_Node000006" class="edge">
<title>Node1&#45;&gt;Node6</title>
<g id="a_edge5_Node000001_Node000006"><a xlink:title=" ">
<path fill="none" stroke="#63b8ff" d="M76.66,-112.96C117.17,-102.56 181.69,-85.99 222.8,-75.44"/>
<polygon fill="#63b8ff" stroke="#63b8ff" points="223.9,-78.77 232.72,-72.89 222.16,-71.99 223.9,-78.77"/>
</a>
</g>
</g>
<!-- Node7 -->
<g id="Node000007" class="node">
<title>Node7</title>
<g id="a_Node000007"><a xlink:href="loss_8c.html#a38e786a5c46be2519aae23287c92cc23" target="_top" xlink:title="One&#45;hot classification error.">
<polygon fill="white" stroke="#666666" points="189.5,-19 120.5,-19 120.5,0 189.5,0 189.5,-19"/>
<text text-anchor="middle" x="155" y="-7" font-family="Helvetica,sans-Serif" font-size="10.00">loss_onehot</text>
</a>
</g>
</g>
<!-- Node1&#45;&gt;Node7 -->
<g id="edge6_Node000001_Node000007" class="edge">
<title>Node1&#45;&gt;Node7</title>
<g id="a_edge6_Node000001_Node000007"><a xlink:title=" ">
<path fill="none" stroke="#63b8ff" d="M44.73,-112.86C55.35,-94.12 81.12,-52.4 113,-27.5 114.56,-26.28 116.22,-25.12 117.94,-24.03"/>
<polygon fill="#63b8ff" stroke="#63b8ff" points="119.82,-26.99 126.88,-19.1 116.44,-20.86 119.82,-26.99"/>
</a>
</g>
</g>
<!-- Node9 -->
<g id="Node000009" class="node">
<title>Node9</title>
<g id="a_Node000009"><a xlink:href="loss_8c.html#a3278a1ba45bd0ccbf39e25bde1562f8f" target="_top" xlink:title="Root mean squared error loss function.">
<polygon fill="white" stroke="#666666" points="186,-56 124,-56 124,-37 186,-37 186,-56"/>
<text text-anchor="middle" x="155" y="-44" font-family="Helvetica,sans-Serif" font-size="10.00">loss_rmse</text>
</a>
</g>
</g>
<!-- Node1&#45;&gt;Node9 -->
<g id="edge8_Node000001_Node000009" class="edge">
<title>Node1&#45;&gt;Node9</title>
<g id="a_edge8_Node000001_Node000009"><a xlink:title=" ">
<path fill="none" stroke="#63b8ff" d="M52.28,-112.95C66.76,-102.25 91.19,-84.56 113,-70.5 117.77,-67.43 122.93,-64.27 127.93,-61.31"/>
<polygon fill="#63b8ff" stroke="#63b8ff" points="129.77,-64.28 136.64,-56.22 126.24,-58.24 129.77,-64.28"/>
</a>
</g>
</g>
<!-- Node8 -->
<g id="Node000008" class="node">
<title>Node8</title>
<g id="a_Node000008"><a xlink:href="utils_8h.html#ae85373ce85c9be81cf1456fb58478274" target="_top" xlink:title="Returns the index of the largest element in vector X.">
<polygon fill="white" stroke="#666666" points="287,-19 238,-19 238,0 287,0 287,-19"/>
<text text-anchor="middle" x="262.5" y="-7" font-family="Helvetica,sans-Serif" font-size="10.00">argmax</text>
</a>
</g>
</g>
<!-- Node7&#45;&gt;Node8 -->
<g id="edge7_Node000007_Node000008" class="edge">
<title>Node7&#45;&gt;Node8</title>
<g id="a_edge7_Node000007_Node000008"><a xlink:title=" ">
<path fill="none" stroke="#63b8ff" d="M189.67,-9.5C201.8,-9.5 215.48,-9.5 227.62,-9.5"/>
<polygon fill="#63b8ff" stroke="#63b8ff" points="227.82,-13 237.82,-9.5 227.82,-6 227.82,-13"/>
</a>
</g>
</g>
<!-- Node9&#45;&gt;Node6 -->
<g id="edge9_Node000009_Node000006" class="edge">
<title>Node9&#45;&gt;Node6</title>
<g id="a_edge9_Node000009_Node000006"><a xlink:title=" ">
<path fill="none" stroke="#63b8ff" d="M186.23,-51.94C197.53,-53.98 210.53,-56.32 222.52,-58.48"/>
<polygon fill="#63b8ff" stroke="#63b8ff" points="222.25,-61.99 232.72,-60.32 223.49,-55.1 222.25,-61.99"/>
</a>
</g>
</g>
</g>
</svg>
