<?xml version="1.0" encoding="UTF-8" standalone="no"?>
<!DOCTYPE svg PUBLIC "-//W3C//DTD SVG 1.1//EN"
 "http://www.w3.org/Graphics/SVG/1.1/DTD/svg11.dtd">
<!-- Generated by graphviz version 2.43.0 (0)
 -->
<!-- Title: main.c Pages: 1 -->
<svg width="666pt" height="252pt"
 viewBox="0.00 0.00 665.50 252.00" xmlns="http://www.w3.org/2000/svg" xmlns:xlink="http://www.w3.org/1999/xlink">
<g id="graph0" class="graph" transform="scale(1 1) rotate(0) translate(4 248)">
<title>main.c</title>
<!-- Node1 -->
<g id="node1" class="node">
<title>Node1</title>
<g id="a_node1"><a xlink:title="Main function for stand&#45;alone binary execution.">
<polygon fill="#bfbfbf" stroke="black" points="336.5,-224.5 336.5,-243.5 382.5,-243.5 382.5,-224.5 336.5,-224.5"/>
<text text-anchor="middle" x="359.5" y="-231.5" font-family="Helvetica,sans-Serif" font-size="10.00">main.c</text>
</a>
</g>
</g>
<!-- Node2 -->
<g id="node2" class="node">
<title>Node2</title>
<g id="a_node2"><a xlink:href="clset_8h.html" target="_top" xlink:title="Functions operating on sets of classifiers.">
<polygon fill="none" stroke="black" points="424.5,-112.5 424.5,-131.5 470.5,-131.5 470.5,-112.5 424.5,-112.5"/>
<text text-anchor="middle" x="447.5" y="-119.5" font-family="Helvetica,sans-Serif" font-size="10.00">clset.h</text>
</a>
</g>
</g>
<!-- Node1&#45;&gt;Node2 -->
<g id="edge1" class="edge">
<title>Node1&#45;&gt;Node2</title>
<path fill="none" stroke="midnightblue" d="M382.75,-228.4C404.01,-222.83 434.26,-211.16 448.5,-188 456.99,-174.19 455.64,-155.42 452.82,-141.6"/>
<polygon fill="midnightblue" stroke="midnightblue" points="456.19,-140.64 450.4,-131.77 449.39,-142.31 456.19,-140.64"/>
</g>
<!-- Node3 -->
<g id="node3" class="node">
<title>Node3</title>
<g id="a_node3"><a xlink:href="xcsf_8h.html" target="_top" xlink:title="XCSF data structures.">
<polygon fill="none" stroke="black" points="292.5,-56.5 292.5,-75.5 336.5,-75.5 336.5,-56.5 292.5,-56.5"/>
<text text-anchor="middle" x="314.5" y="-63.5" font-family="Helvetica,sans-Serif" font-size="10.00">xcsf.h</text>
</a>
</g>
</g>
<!-- Node1&#45;&gt;Node3 -->
<g id="edge33" class="edge">
<title>Node1&#45;&gt;Node3</title>
<path fill="none" stroke="midnightblue" d="M377,-224.46C390.29,-216.92 407.58,-204.53 415.5,-188 419.34,-179.98 418.9,-176.21 415.5,-168 399.7,-129.84 361.71,-98.59 337.09,-81.4"/>
<polygon fill="midnightblue" stroke="midnightblue" points="338.93,-78.42 328.69,-75.72 335.01,-84.22 338.93,-78.42"/>
</g>
<!-- Node14 -->
<g id="node14" class="node">
<title>Node14</title>
<g id="a_node14"><a xlink:href="config_8h.html" target="_top" xlink:title="Configuration file handling functions.">
<polygon fill="none" stroke="black" points="489,-112.5 489,-131.5 540,-131.5 540,-112.5 489,-112.5"/>
<text text-anchor="middle" x="514.5" y="-119.5" font-family="Helvetica,sans-Serif" font-size="10.00">config.h</text>
</a>
</g>
</g>
<!-- Node1&#45;&gt;Node14 -->
<g id="edge13" class="edge">
<title>Node1&#45;&gt;Node14</title>
<path fill="none" stroke="midnightblue" d="M382.83,-226.94C405.63,-220.19 440.45,-207.57 465.5,-188 482.15,-174.99 496.06,-155.01 504.76,-140.64"/>
<polygon fill="midnightblue" stroke="midnightblue" points="507.93,-142.14 509.92,-131.73 501.87,-138.63 507.93,-142.14"/>
</g>
<!-- Node15 -->
<g id="node15" class="node">
<title>Node15</title>
<g id="a_node15"><a xlink:href="env__csv_8h.html" target="_top" xlink:title="CSV input file handling functions.">
<polygon fill="none" stroke="black" points="57.5,-168.5 57.5,-187.5 117.5,-187.5 117.5,-168.5 57.5,-168.5"/>
<text text-anchor="middle" x="87.5" y="-175.5" font-family="Helvetica,sans-Serif" font-size="10.00">env_csv.h</text>
</a>
</g>
</g>
<!-- Node1&#45;&gt;Node15 -->
<g id="edge15" class="edge">
<title>Node1&#45;&gt;Node15</title>
<path fill="none" stroke="midnightblue" d="M336.19,-228.45C294.91,-220.39 206.26,-203.02 131.5,-188 130.25,-187.75 128.99,-187.49 127.71,-187.24"/>
<polygon fill="midnightblue" stroke="midnightblue" points="128.29,-183.78 117.79,-185.22 126.9,-190.64 128.29,-183.78"/>
</g>
<!-- Node17 -->
<g id="node17" class="node">
<title>Node17</title>
<g id="a_node17"><a xlink:href="pa_8h.html" target="_top" xlink:title="Prediction array functions.">
<polygon fill="none" stroke="black" points="154,-112.5 154,-131.5 189,-131.5 189,-112.5 154,-112.5"/>
<text text-anchor="middle" x="171.5" y="-119.5" font-family="Helvetica,sans-Serif" font-size="10.00">pa.h</text>
</a>
</g>
</g>
<!-- Node1&#45;&gt;Node17 -->
<g id="edge19" class="edge">
<title>Node1&#45;&gt;Node17</title>
<path fill="none" stroke="midnightblue" d="M336.24,-231.17C289.27,-226.93 185.75,-214.71 164.5,-188 154.04,-174.85 158.02,-155.17 163.24,-140.91"/>
<polygon fill="midnightblue" stroke="midnightblue" points="166.48,-142.23 167.07,-131.65 160.01,-139.56 166.48,-142.23"/>
</g>
<!-- Node18 -->
<g id="node18" class="node">
<title>Node18</title>
<g id="a_node18"><a xlink:href="param_8h.html" target="_top" xlink:title="Functions for setting and printing parameters.">
<polygon fill="none" stroke="black" points="173.5,-168.5 173.5,-187.5 225.5,-187.5 225.5,-168.5 173.5,-168.5"/>
<text text-anchor="middle" x="199.5" y="-175.5" font-family="Helvetica,sans-Serif" font-size="10.00">param.h</text>
</a>
</g>
</g>
<!-- Node1&#45;&gt;Node18 -->
<g id="edge21" class="edge">
<title>Node1&#45;&gt;Node18</title>
<path fill="none" stroke="midnightblue" d="M336.23,-225.15C309.49,-216.12 265.31,-201.21 234.43,-190.79"/>
<polygon fill="midnightblue" stroke="midnightblue" points="235.5,-187.46 224.91,-187.58 233.26,-194.09 235.5,-187.46"/>
</g>
<!-- Node20 -->
<g id="node20" class="node">
<title>Node20</title>
<g id="a_node20"><a xlink:href="utils_8h.html" target="_top" xlink:title="Utility functions for random number handling, etc.">
<polygon fill="none" stroke="black" points="547,-56.5 547,-75.5 590,-75.5 590,-56.5 547,-56.5"/>
<text text-anchor="middle" x="568.5" y="-63.5" font-family="Helvetica,sans-Serif" font-size="10.00">utils.h</text>
</a>
</g>
</g>
<!-- Node1&#45;&gt;Node20 -->
<g id="edge25" class="edge">
<title>Node1&#45;&gt;Node20</title>
<path fill="none" stroke="midnightblue" d="M382.63,-227.96C409.43,-221.45 454.3,-208.46 488.5,-188 520.08,-169.1 530.07,-163.25 549.5,-132 558.33,-117.8 563.21,-99.32 565.81,-85.7"/>
<polygon fill="midnightblue" stroke="midnightblue" points="569.3,-86.04 567.49,-75.6 562.39,-84.89 569.3,-86.04"/>
</g>
<!-- Node21 -->
<g id="node21" class="node">
<title>Node21</title>
<g id="a_node21"><a xlink:href="xcs__rl_8h.html" target="_top" xlink:title="Reinforcement learning functions.">
<polygon fill="none" stroke="black" points="244,-168.5 244,-187.5 295,-187.5 295,-168.5 244,-168.5"/>
<text text-anchor="middle" x="269.5" y="-175.5" font-family="Helvetica,sans-Serif" font-size="10.00">xcs_rl.h</text>
</a>
</g>
</g>
<!-- Node1&#45;&gt;Node21 -->
<g id="edge29" class="edge">
<title>Node1&#45;&gt;Node21</title>
<path fill="none" stroke="midnightblue" d="M345.04,-224.32C331,-215.9 309.45,-202.97 292.96,-193.07"/>
<polygon fill="midnightblue" stroke="midnightblue" points="294.3,-189.8 283.92,-187.65 290.7,-195.8 294.3,-189.8"/>
</g>
<!-- Node22 -->
<g id="node22" class="node">
<title>Node22</title>
<g id="a_node22"><a xlink:href="xcs__supervised_8h.html" target="_top" xlink:title="Supervised regression learning functions.">
<polygon fill="none" stroke="black" points="313,-168.5 313,-187.5 406,-187.5 406,-168.5 313,-168.5"/>
<text text-anchor="middle" x="359.5" y="-175.5" font-family="Helvetica,sans-Serif" font-size="10.00">xcs_supervised.h</text>
</a>
</g>
</g>
<!-- Node1&#45;&gt;Node22 -->
<g id="edge31" class="edge">
<title>Node1&#45;&gt;Node22</title>
<path fill="none" stroke="midnightblue" d="M359.5,-224.08C359.5,-217.01 359.5,-206.86 359.5,-197.99"/>
<polygon fill="midnightblue" stroke="midnightblue" points="363,-197.75 359.5,-187.75 356,-197.75 363,-197.75"/>
</g>
<!-- Node2&#45;&gt;Node3 -->
<g id="edge2" class="edge">
<title>Node2&#45;&gt;Node3</title>
<path fill="none" stroke="midnightblue" d="M426.43,-112.44C404.44,-103.52 369.77,-89.44 344.84,-79.32"/>
<polygon fill="midnightblue" stroke="midnightblue" points="346.06,-76.04 335.48,-75.52 343.42,-82.52 346.06,-76.04"/>
</g>
<!-- Node4 -->
<g id="node4" class="node">
<title>Node4</title>
<g id="a_node4"><a xlink:title=" ">
<polygon fill="none" stroke="#bfbfbf" points="352,-0.5 352,-19.5 399,-19.5 399,-0.5 352,-0.5"/>
<text text-anchor="middle" x="375.5" y="-7.5" font-family="Helvetica,sans-Serif" font-size="10.00">errno.h</text>
</a>
</g>
</g>
<!-- Node3&#45;&gt;Node4 -->
<g id="edge3" class="edge">
<title>Node3&#45;&gt;Node4</title>
<path fill="none" stroke="midnightblue" d="M324.3,-56.32C333.32,-48.34 346.91,-36.31 357.82,-26.65"/>
<polygon fill="midnightblue" stroke="midnightblue" points="360.35,-29.08 365.52,-19.83 355.71,-23.84 360.35,-29.08"/>
</g>
<!-- Node5 -->
<g id="node5" class="node">
<title>Node5</title>
<g id="a_node5"><a xlink:title=" ">
<polygon fill="none" stroke="#bfbfbf" points="417.5,-0.5 417.5,-19.5 461.5,-19.5 461.5,-0.5 417.5,-0.5"/>
<text text-anchor="middle" x="439.5" y="-7.5" font-family="Helvetica,sans-Serif" font-size="10.00">float.h</text>
</a>
</g>
</g>
<!-- Node3&#45;&gt;Node5 -->
<g id="edge4" class="edge">
<title>Node3&#45;&gt;Node5</title>
<path fill="none" stroke="midnightblue" d="M334.31,-56.44C354.79,-47.6 386.98,-33.69 410.36,-23.59"/>
<polygon fill="midnightblue" stroke="midnightblue" points="411.99,-26.7 419.79,-19.52 409.22,-20.27 411.99,-26.7"/>
</g>
<!-- Node6 -->
<g id="node6" class="node">
<title>Node6</title>
<g id="a_node6"><a xlink:title=" ">
<polygon fill="none" stroke="#bfbfbf" points="0,-0.5 0,-19.5 59,-19.5 59,-0.5 0,-0.5"/>
<text text-anchor="middle" x="29.5" y="-7.5" font-family="Helvetica,sans-Serif" font-size="10.00">inttypes.h</text>
</a>
</g>
</g>
<!-- Node3&#45;&gt;Node6 -->
<g id="edge5" class="edge">
<title>Node3&#45;&gt;Node6</title>
<path fill="none" stroke="midnightblue" d="M292.38,-61.3C250.78,-54.28 157.81,-38.22 69.22,-20.07"/>
<polygon fill="midnightblue" stroke="midnightblue" points="69.78,-16.61 59.28,-18.02 68.37,-23.47 69.78,-16.61"/>
</g>
<!-- Node7 -->
<g id="node7" class="node">
<title>Node7</title>
<g id="a_node7"><a xlink:title=" ">
<polygon fill="none" stroke="#bfbfbf" points="77.5,-0.5 77.5,-19.5 125.5,-19.5 125.5,-0.5 77.5,-0.5"/>
<text text-anchor="middle" x="101.5" y="-7.5" font-family="Helvetica,sans-Serif" font-size="10.00">limits.h</text>
</a>
</g>
</g>
<!-- Node3&#45;&gt;Node7 -->
<g id="edge6" class="edge">
<title>Node3&#45;&gt;Node7</title>
<path fill="none" stroke="midnightblue" d="M292.29,-59.61C260,-51.74 197.95,-36.48 135.63,-20.26"/>
<polygon fill="midnightblue" stroke="midnightblue" points="136.19,-16.79 125.63,-17.65 134.43,-23.56 136.19,-16.79"/>
</g>
<!-- Node8 -->
<g id="node8" class="node">
<title>Node8</title>
<g id="a_node8"><a xlink:title=" ">
<polygon fill="none" stroke="#bfbfbf" points="480,-0.5 480,-19.5 527,-19.5 527,-0.5 480,-0.5"/>
<text text-anchor="middle" x="503.5" y="-7.5" font-family="Helvetica,sans-Serif" font-size="10.00">math.h</text>
</a>
</g>
</g>
<!-- Node3&#45;&gt;Node8 -->
<g id="edge7" class="edge">
<title>Node3&#45;&gt;Node8</title>
<path fill="none" stroke="midnightblue" d="M336.55,-58.7C369.45,-49.3 431.61,-31.54 470.1,-20.54"/>
<polygon fill="midnightblue" stroke="midnightblue" points="471.16,-23.88 479.81,-17.77 469.24,-17.15 471.16,-23.88"/>
</g>
<!-- Node9 -->
<g id="node9" class="node">
<title>Node9</title>
<g id="a_node9"><a xlink:title=" ">
<polygon fill="none" stroke="#bfbfbf" points="143.5,-0.5 143.5,-19.5 199.5,-19.5 199.5,-0.5 143.5,-0.5"/>
<text text-anchor="middle" x="171.5" y="-7.5" font-family="Helvetica,sans-Serif" font-size="10.00">stdbool.h</text>
</a>
</g>
</g>
<!-- Node3&#45;&gt;Node9 -->
<g id="edge8" class="edge">
<title>Node3&#45;&gt;Node9</title>
<path fill="none" stroke="midnightblue" d="M292.47,-56.68C268.75,-47.72 230.77,-33.38 203.7,-23.16"/>
<polygon fill="midnightblue" stroke="midnightblue" points="204.86,-19.86 194.26,-19.6 202.38,-26.4 204.86,-19.86"/>
</g>
<!-- Node10 -->
<g id="node10" class="node">
<title>Node10</title>
<g id="a_node10"><a xlink:title=" ">
<polygon fill="none" stroke="#bfbfbf" points="218,-0.5 218,-19.5 267,-19.5 267,-0.5 218,-0.5"/>
<text text-anchor="middle" x="242.5" y="-7.5" font-family="Helvetica,sans-Serif" font-size="10.00">stdint.h</text>
</a>
</g>
</g>
<!-- Node3&#45;&gt;Node10 -->
<g id="edge9" class="edge">
<title>Node3&#45;&gt;Node10</title>
<path fill="none" stroke="midnightblue" d="M302.93,-56.32C292.08,-48.18 275.62,-35.84 262.62,-26.09"/>
<polygon fill="midnightblue" stroke="midnightblue" points="264.38,-23.03 254.28,-19.83 260.18,-28.63 264.38,-23.03"/>
</g>
<!-- Node11 -->
<g id="node11" class="node">
<title>Node11</title>
<g id="a_node11"><a xlink:title=" ">
<polygon fill="none" stroke="#bfbfbf" points="545.5,-0.5 545.5,-19.5 591.5,-19.5 591.5,-0.5 545.5,-0.5"/>
<text text-anchor="middle" x="568.5" y="-7.5" font-family="Helvetica,sans-Serif" font-size="10.00">stdio.h</text>
</a>
</g>
</g>
<!-- Node3&#45;&gt;Node11 -->
<g id="edge10" class="edge">
<title>Node3&#45;&gt;Node11</title>
<path fill="none" stroke="midnightblue" d="M336.68,-61.07C375.12,-54.13 456.81,-38.87 535.42,-20.12"/>
<polygon fill="midnightblue" stroke="midnightblue" points="536.58,-23.44 545.48,-17.69 534.94,-16.63 536.58,-23.44"/>
</g>
<!-- Node12 -->
<g id="node12" class="node">
<title>Node12</title>
<g id="a_node12"><a xlink:title=" ">
<polygon fill="none" stroke="#bfbfbf" points="609.5,-0.5 609.5,-19.5 657.5,-19.5 657.5,-0.5 609.5,-0.5"/>
<text text-anchor="middle" x="633.5" y="-7.5" font-family="Helvetica,sans-Serif" font-size="10.00">stdlib.h</text>
</a>
</g>
</g>
<!-- Node3&#45;&gt;Node12 -->
<g id="edge11" class="edge">
<title>Node3&#45;&gt;Node12</title>
<path fill="none" stroke="midnightblue" d="M336.54,-62.37C383.22,-56.63 495.62,-41.87 599.41,-20.03"/>
<polygon fill="midnightblue" stroke="midnightblue" points="600.37,-23.4 609.42,-17.9 598.91,-16.56 600.37,-23.4"/>
</g>
<!-- Node13 -->
<g id="node13" class="node">
<title>Node13</title>
<g id="a_node13"><a xlink:title=" ">
<polygon fill="none" stroke="#bfbfbf" points="285,-0.5 285,-19.5 334,-19.5 334,-0.5 285,-0.5"/>
<text text-anchor="middle" x="309.5" y="-7.5" font-family="Helvetica,sans-Serif" font-size="10.00">string.h</text>
</a>
</g>
</g>
<!-- Node3&#45;&gt;Node13 -->
<g id="edge12" class="edge">
<title>Node3&#45;&gt;Node13</title>
<path fill="none" stroke="midnightblue" d="M313.67,-56.08C313.02,-49.01 312.08,-38.86 311.26,-29.99"/>
<polygon fill="midnightblue" stroke="midnightblue" points="314.72,-29.39 310.31,-19.75 307.75,-30.03 314.72,-29.39"/>
</g>
<!-- Node14&#45;&gt;Node3 -->
<g id="edge14" class="edge">
<title>Node14&#45;&gt;Node3</title>
<path fill="none" stroke="midnightblue" d="M488.76,-114.05C452.37,-104.22 385.91,-86.28 346.42,-75.62"/>
<polygon fill="midnightblue" stroke="midnightblue" points="347.32,-72.24 336.76,-73.01 345.5,-78.99 347.32,-72.24"/>
</g>
<!-- Node15&#45;&gt;Node3 -->
<g id="edge18" class="edge">
<title>Node15&#45;&gt;Node3</title>
<path fill="none" stroke="midnightblue" d="M92.76,-168.38C101.78,-154.37 121.54,-126.73 145.5,-112 188.28,-85.7 246.32,-74.6 282.05,-70.04"/>
<polygon fill="midnightblue" stroke="midnightblue" points="282.86,-73.47 292.38,-68.82 282.04,-66.51 282.86,-73.47"/>
</g>
<!-- Node16 -->
<g id="node16" class="node">
<title>Node16</title>
<g id="a_node16"><a xlink:href="env_8h.html" target="_top" xlink:title="Built&#45;in problem environment interface.">
<polygon fill="none" stroke="black" points="58,-112.5 58,-131.5 97,-131.5 97,-112.5 58,-112.5"/>
<text text-anchor="middle" x="77.5" y="-119.5" font-family="Helvetica,sans-Serif" font-size="10.00">env.h</text>
</a>
</g>
</g>
<!-- Node15&#45;&gt;Node16 -->
<g id="edge16" class="edge">
<title>Node15&#45;&gt;Node16</title>
<path fill="none" stroke="midnightblue" d="M85.85,-168.08C84.52,-160.93 82.62,-150.64 80.96,-141.69"/>
<polygon fill="midnightblue" stroke="midnightblue" points="84.38,-140.95 79.12,-131.75 77.5,-142.22 84.38,-140.95"/>
</g>
<!-- Node16&#45;&gt;Node3 -->
<g id="edge17" class="edge">
<title>Node16&#45;&gt;Node3</title>
<path fill="none" stroke="midnightblue" d="M97.24,-115.63C101.91,-114.4 106.87,-113.12 111.5,-112 171.55,-97.4 242.07,-82.2 282.2,-73.74"/>
<polygon fill="midnightblue" stroke="midnightblue" points="283.14,-77.12 292.2,-71.63 281.7,-70.27 283.14,-77.12"/>
</g>
<!-- Node17&#45;&gt;Node3 -->
<g id="edge20" class="edge">
<title>Node17&#45;&gt;Node3</title>
<path fill="none" stroke="midnightblue" d="M189.03,-114.38C212.25,-105.61 253.62,-89.99 282.48,-79.09"/>
<polygon fill="midnightblue" stroke="midnightblue" points="284,-82.26 292.12,-75.45 281.53,-75.71 284,-82.26"/>
</g>
<!-- Node18&#45;&gt;Node3 -->
<g id="edge24" class="edge">
<title>Node18&#45;&gt;Node3</title>
<path fill="none" stroke="midnightblue" d="M212.57,-168.47C225.18,-159.95 244.53,-146.11 259.5,-132 275.56,-116.86 291.59,-97.27 302.17,-83.57"/>
<polygon fill="midnightblue" stroke="midnightblue" points="305.02,-85.61 308.28,-75.53 299.44,-81.38 305.02,-85.61"/>
</g>
<!-- Node19 -->
<g id="node19" class="node">
<title>Node19</title>
<g id="a_node19"><a xlink:href="loss_8h.html" target="_top" xlink:title="Loss functions for calculating prediction error.">
<polygon fill="none" stroke="black" points="207,-112.5 207,-131.5 250,-131.5 250,-112.5 207,-112.5"/>
<text text-anchor="middle" x="228.5" y="-119.5" font-family="Helvetica,sans-Serif" font-size="10.00">loss.h</text>
</a>
</g>
</g>
<!-- Node18&#45;&gt;Node19 -->
<g id="edge22" class="edge">
<title>Node18&#45;&gt;Node19</title>
<path fill="none" stroke="midnightblue" d="M204.29,-168.08C208.26,-160.69 214.03,-149.95 218.93,-140.81"/>
<polygon fill="midnightblue" stroke="midnightblue" points="222.15,-142.22 223.8,-131.75 215.99,-138.91 222.15,-142.22"/>
</g>
<!-- Node19&#45;&gt;Node3 -->
<g id="edge23" class="edge">
<title>Node19&#45;&gt;Node3</title>
<path fill="none" stroke="midnightblue" d="M242.32,-112.32C255.73,-103.9 276.32,-90.97 292.09,-81.07"/>
<polygon fill="midnightblue" stroke="midnightblue" points="294.11,-83.94 300.72,-75.65 290.39,-78.01 294.11,-83.94"/>
</g>
<!-- Node20&#45;&gt;Node8 -->
<g id="edge26" class="edge">
<title>Node20&#45;&gt;Node8</title>
<path fill="none" stroke="midnightblue" d="M558.06,-56.32C548.35,-48.26 533.68,-36.08 522,-26.37"/>
<polygon fill="midnightblue" stroke="midnightblue" points="524.06,-23.53 514.13,-19.83 519.59,-28.92 524.06,-23.53"/>
</g>
<!-- Node20&#45;&gt;Node11 -->
<g id="edge27" class="edge">
<title>Node20&#45;&gt;Node11</title>
<path fill="none" stroke="midnightblue" d="M568.5,-56.08C568.5,-49.01 568.5,-38.86 568.5,-29.99"/>
<polygon fill="midnightblue" stroke="midnightblue" points="572,-29.75 568.5,-19.75 565,-29.75 572,-29.75"/>
</g>
<!-- Node20&#45;&gt;Node12 -->
<g id="edge28" class="edge">
<title>Node20&#45;&gt;Node12</title>
<path fill="none" stroke="midnightblue" d="M578.94,-56.32C588.65,-48.26 603.32,-36.08 615,-26.37"/>
<polygon fill="midnightblue" stroke="midnightblue" points="617.41,-28.92 622.87,-19.83 612.94,-23.53 617.41,-28.92"/>
</g>
<!-- Node21&#45;&gt;Node3 -->
<g id="edge30" class="edge">
<title>Node21&#45;&gt;Node3</title>
<path fill="none" stroke="midnightblue" d="M274.47,-168.22C279.42,-159.28 287.04,-144.93 292.5,-132 299.02,-116.57 305.01,-98.47 309.09,-85.3"/>
<polygon fill="midnightblue" stroke="midnightblue" points="312.49,-86.15 312.04,-75.56 305.79,-84.12 312.49,-86.15"/>
</g>
<!-- Node22&#45;&gt;Node3 -->
<g id="edge32" class="edge">
<title>Node22&#45;&gt;Node3</title>
<path fill="none" stroke="midnightblue" d="M355.97,-168.37C348.64,-150.46 331.65,-108.92 321.84,-84.95"/>
<polygon fill="midnightblue" stroke="midnightblue" points="325.04,-83.52 318.01,-75.59 318.56,-86.17 325.04,-83.52"/>
</g>
</g>
</svg>
