<?xml version="1.0" encoding="UTF-8" standalone="no"?>
<!DOCTYPE svg PUBLIC "-//W3C//DTD SVG 1.1//EN"
 "http://www.w3.org/Graphics/SVG/1.1/DTD/svg11.dtd">
<!-- Generated by graphviz version 2.43.0 (0)
 -->
<!-- Title: set_layer_n_active Pages: 1 -->
<svg width="422pt" height="104pt"
 viewBox="0.00 0.00 422.00 104.00" xmlns="http://www.w3.org/2000/svg" xmlns:xlink="http://www.w3.org/1999/xlink">
<g id="graph0" class="graph" transform="scale(1 1) rotate(0) translate(4 100)">
<title>set_layer_n_active</title>
<!-- Node1 -->
<g id="node1" class="node">
<title>Node1</title>
<g id="a_node1"><a xlink:title="Sets the number of active (non&#45;zero) weights in a recurrent layer.">
<polygon fill="#bfbfbf" stroke="black" points="316,-38.5 316,-57.5 414,-57.5 414,-38.5 316,-38.5"/>
<text text-anchor="middle" x="365" y="-45.5" font-family="Helvetica,sans-Serif" font-size="10.00">set_layer_n_active</text>
</a>
</g>
</g>
<!-- Node2 -->
<g id="node2" class="node">
<title>Node2</title>
<g id="a_node2"><a xlink:href="neural__layer__recurrent_8c.html#af1574ac1aaa2948e0e159e07e7c4d24a" target="_top" xlink:title="Mutates the number of active weights in a recurrent layer.">
<polygon fill="none" stroke="black" points="162.5,-76.5 162.5,-95.5 266.5,-95.5 266.5,-76.5 162.5,-76.5"/>
<text text-anchor="middle" x="214.5" y="-83.5" font-family="Helvetica,sans-Serif" font-size="10.00">mutate_connectivity</text>
</a>
</g>
</g>
<!-- Node1&#45;&gt;Node2 -->
<g id="edge1" class="edge">
<title>Node1&#45;&gt;Node2</title>
<path fill="none" stroke="midnightblue" d="M316.67,-60.11C295.99,-65.4 272.08,-71.52 252.7,-76.48"/>
<polygon fill="midnightblue" stroke="midnightblue" points="317.71,-63.46 326.53,-57.59 315.97,-56.68 317.71,-63.46"/>
</g>
<!-- Node4 -->
<g id="node4" class="node">
<title>Node4</title>
<g id="a_node4"><a xlink:href="neural__layer__recurrent_8c.html#a804cc1f15baeb4bb507dc449b8e3dcfd" target="_top" xlink:title="Mutates the number of neurons in a recurrent layer.">
<polygon fill="none" stroke="black" points="171.5,-38.5 171.5,-57.5 257.5,-57.5 257.5,-38.5 171.5,-38.5"/>
<text text-anchor="middle" x="214.5" y="-45.5" font-family="Helvetica,sans-Serif" font-size="10.00">mutate_neurons</text>
</a>
</g>
</g>
<!-- Node1&#45;&gt;Node4 -->
<g id="edge3" class="edge">
<title>Node1&#45;&gt;Node4</title>
<path fill="none" stroke="midnightblue" d="M305.53,-48C289.66,-48 272.78,-48 257.97,-48"/>
<polygon fill="midnightblue" stroke="midnightblue" points="305.79,-51.5 315.79,-48 305.79,-44.5 305.79,-51.5"/>
</g>
<!-- Node5 -->
<g id="node5" class="node">
<title>Node5</title>
<g id="a_node5"><a xlink:href="neural__layer__recurrent_8h.html#a74274033f3a8272fb8aae4366f93d74c" target="_top" xlink:title="Initialises a recurrent layer.">
<polygon fill="none" stroke="black" points="149,-0.5 149,-19.5 280,-19.5 280,-0.5 149,-0.5"/>
<text text-anchor="middle" x="214.5" y="-7.5" font-family="Helvetica,sans-Serif" font-size="10.00">neural_layer_recurrent_init</text>
</a>
</g>
</g>
<!-- Node1&#45;&gt;Node5 -->
<g id="edge5" class="edge">
<title>Node1&#45;&gt;Node5</title>
<path fill="none" stroke="midnightblue" d="M316.67,-35.89C295.99,-30.6 272.08,-24.48 252.7,-19.52"/>
<polygon fill="midnightblue" stroke="midnightblue" points="315.97,-39.32 326.53,-38.41 317.71,-32.54 315.97,-39.32"/>
</g>
<!-- Node3 -->
<g id="node3" class="node">
<title>Node3</title>
<g id="a_node3"><a xlink:href="neural__layer__recurrent_8h.html#a5f6793ef0a2d69438a499632e360f9e6" target="_top" xlink:title="Mutates a recurrent layer.">
<polygon fill="none" stroke="black" points="0,-52 0,-82 113,-82 113,-52 0,-52"/>
<text text-anchor="start" x="8" y="-70" font-family="Helvetica,sans-Serif" font-size="10.00">neural_layer_recurrent</text>
<text text-anchor="middle" x="56.5" y="-59" font-family="Helvetica,sans-Serif" font-size="10.00">_mutate</text>
</a>
</g>
</g>
<!-- Node2&#45;&gt;Node3 -->
<g id="edge2" class="edge">
<title>Node2&#45;&gt;Node3</title>
<path fill="none" stroke="midnightblue" d="M152.21,-78.54C139.28,-76.96 125.71,-75.31 113,-73.76"/>
<polygon fill="midnightblue" stroke="midnightblue" points="152.07,-82.04 162.42,-79.78 152.92,-75.1 152.07,-82.04"/>
</g>
<!-- Node4&#45;&gt;Node3 -->
<g id="edge4" class="edge">
<title>Node4&#45;&gt;Node3</title>
<path fill="none" stroke="midnightblue" d="M160.93,-54.4C145.59,-56.27 128.77,-58.32 113.24,-60.21"/>
<polygon fill="midnightblue" stroke="midnightblue" points="161.78,-57.83 171.28,-53.14 160.93,-50.88 161.78,-57.83"/>
</g>
</g>
</svg>
