<?xml version="1.0" encoding="UTF-8" standalone="no"?>
<!DOCTYPE svg PUBLIC "-//W3C//DTD SVG 1.1//EN"
 "http://www.w3.org/Graphics/SVG/1.1/DTD/svg11.dtd">
<!-- Generated by graphviz version 2.43.0 (0)
 -->
<!-- Title: mutate_connectivity Pages: 1 -->
<svg width="388pt" height="82pt"
 viewBox="0.00 0.00 388.00 82.00" xmlns="http://www.w3.org/2000/svg" xmlns:xlink="http://www.w3.org/1999/xlink">
<g id="graph0" class="graph" transform="scale(1 1) rotate(0) translate(4 78)">
<title>mutate_connectivity</title>
<!-- Node1 -->
<g id="Node000001" class="node">
<title>Node1</title>
<g id="a_Node000001"><a xlink:title="Mutates the number of active weights in an LSTM layer.">
<polygon fill="#999999" stroke="#666666" points="104,-37 0,-37 0,-18 104,-18 104,-37"/>
<text text-anchor="middle" x="52" y="-25" font-family="Helvetica,sans-Serif" font-size="10.00">mutate_connectivity</text>
</a>
</g>
</g>
<!-- Node2 -->
<g id="Node000002" class="node">
<title>Node2</title>
<g id="a_Node000002"><a xlink:href="neural__layer_8c.html#a0540e1d6748c9b53c1114d869147340f" target="_top" xlink:title="Mutates a layer&#39;s connectivity by zeroing weights.">
<polygon fill="white" stroke="#666666" points="271,-56 140,-56 140,-37 271,-37 271,-56"/>
<text text-anchor="middle" x="205.5" y="-44" font-family="Helvetica,sans-Serif" font-size="10.00">layer_mutate_connectivity</text>
</a>
</g>
</g>
<!-- Node1&#45;&gt;Node2 -->
<g id="edge1_Node000001_Node000002" class="edge">
<title>Node1&#45;&gt;Node2</title>
<g id="a_edge1_Node000001_Node000002"><a xlink:title=" ">
<path fill="none" stroke="#63b8ff" d="M104.29,-33.93C112.5,-34.96 121.13,-36.04 129.75,-37.13"/>
<polygon fill="#63b8ff" stroke="#63b8ff" points="129.47,-40.62 139.83,-38.39 130.34,-33.67 129.47,-40.62"/>
</a>
</g>
</g>
<!-- Node5 -->
<g id="Node000005" class="node">
<title>Node5</title>
<g id="a_Node000005"><a xlink:href="neural__layer__lstm_8c.html#a9cf6a4d407837c532b89f9f457072203" target="_top" xlink:title="Sets the number of active (non&#45;zero) weights in an LSTM layer.">
<polygon fill="white" stroke="#666666" points="254.5,-19 156.5,-19 156.5,0 254.5,0 254.5,-19"/>
<text text-anchor="middle" x="205.5" y="-7" font-family="Helvetica,sans-Serif" font-size="10.00">set_layer_n_active</text>
</a>
</g>
</g>
<!-- Node1&#45;&gt;Node5 -->
<g id="edge4_Node000001_Node000005" class="edge">
<title>Node1&#45;&gt;Node5</title>
<g id="a_edge4_Node000001_Node000005"><a xlink:title=" ">
<path fill="none" stroke="#63b8ff" d="M104.29,-21.41C117.7,-19.81 132.25,-18.08 146,-16.45"/>
<polygon fill="#63b8ff" stroke="#63b8ff" points="146.81,-19.88 156.33,-15.22 145.99,-12.93 146.81,-19.88"/>
</a>
</g>
</g>
<!-- Node3 -->
<g id="Node000003" class="node">
<title>Node3</title>
<g id="a_Node000003"><a xlink:href="utils_8c.html#a6a36d869b4a218a3f55cd19067f62c0f" target="_top" xlink:title="Returns a random Gaussian with specified mean and standard deviation.">
<polygon fill="white" stroke="#666666" points="378.5,-74 308.5,-74 308.5,-55 378.5,-55 378.5,-74"/>
<text text-anchor="middle" x="343.5" y="-62" font-family="Helvetica,sans-Serif" font-size="10.00">rand_normal</text>
</a>
</g>
</g>
<!-- Node2&#45;&gt;Node3 -->
<g id="edge2_Node000002_Node000003" class="edge">
<title>Node2&#45;&gt;Node3</title>
<g id="a_edge2_Node000002_Node000003"><a xlink:title=" ">
<path fill="none" stroke="#63b8ff" d="M271.31,-55.08C280.36,-56.28 289.48,-57.48 298.04,-58.62"/>
<polygon fill="#63b8ff" stroke="#63b8ff" points="297.78,-62.11 308.15,-59.95 298.69,-55.17 297.78,-62.11"/>
</a>
</g>
</g>
<!-- Node4 -->
<g id="Node000004" class="node">
<title>Node4</title>
<g id="a_Node000004"><a xlink:href="utils_8c.html#a972761ba8f47a6c3e7396a7c685158fc" target="_top" xlink:title="Returns a uniform random float [min,max].">
<polygon fill="white" stroke="#666666" points="380,-37 307,-37 307,-18 380,-18 380,-37"/>
<text text-anchor="middle" x="343.5" y="-25" font-family="Helvetica,sans-Serif" font-size="10.00">rand_uniform</text>
</a>
</g>
</g>
<!-- Node2&#45;&gt;Node4 -->
<g id="edge3_Node000002_Node000004" class="edge">
<title>Node2&#45;&gt;Node4</title>
<g id="a_edge3_Node000002_Node000004"><a xlink:title=" ">
<path fill="none" stroke="#63b8ff" d="M271.31,-37.45C279.88,-36.25 288.51,-35.04 296.66,-33.9"/>
<polygon fill="#63b8ff" stroke="#63b8ff" points="297.27,-37.35 306.69,-32.5 296.3,-30.42 297.27,-37.35"/>
</a>
</g>
</g>
</g>
</svg>
