<?xml version="1.0" encoding="UTF-8" standalone="no"?>
<!DOCTYPE svg PUBLIC "-//W3C//DTD SVG 1.1//EN"
 "http://www.w3.org/Graphics/SVG/1.1/DTD/svg11.dtd">
<!-- Generated by graphviz version 2.43.0 (0)
 -->
<!-- Title: neural_layer_recurrent_print Pages: 1 -->
<svg width="276pt" height="104pt"
 viewBox="0.00 0.00 276.00 104.00" xmlns="http://www.w3.org/2000/svg" xmlns:xlink="http://www.w3.org/1999/xlink">
<g id="graph0" class="graph" transform="scale(1 1) rotate(0) translate(4 100)">
<title>neural_layer_recurrent_print</title>
<!-- Node1 -->
<g id="node1" class="node">
<title>Node1</title>
<g id="a_node1"><a xlink:title="Prints a recurrent layer.">
<polygon fill="#bfbfbf" stroke="black" points="0,-33 0,-63 113,-63 113,-33 0,-33"/>
<text text-anchor="start" x="8" y="-51" font-family="Helvetica,sans-Serif" font-size="10.00">neural_layer_recurrent</text>
<text text-anchor="middle" x="56.5" y="-40" font-family="Helvetica,sans-Serif" font-size="10.00">_print</text>
</a>
</g>
</g>
<!-- Node2 -->
<g id="node2" class="node">
<title>Node2</title>
<g id="a_node2"><a xlink:href="neural__layer_8h.html#af3da4af94dd537080a072c07c66d955d" target="_top" xlink:title="Prints the layer.">
<polygon fill="none" stroke="black" points="177.5,-76.5 177.5,-95.5 239.5,-95.5 239.5,-76.5 177.5,-76.5"/>
<text text-anchor="middle" x="208.5" y="-83.5" font-family="Helvetica,sans-Serif" font-size="10.00">layer_print</text>
</a>
</g>
</g>
<!-- Node1&#45;&gt;Node2 -->
<g id="edge1" class="edge">
<title>Node1&#45;&gt;Node2</title>
<path fill="none" stroke="midnightblue" d="M113.35,-62.15C131.29,-66.69 150.79,-71.63 167.37,-75.83"/>
<polygon fill="midnightblue" stroke="midnightblue" points="166.72,-79.28 177.27,-78.34 168.44,-72.49 166.72,-79.28"/>
</g>
<!-- Node3 -->
<g id="node3" class="node">
<title>Node3</title>
<g id="a_node3"><a xlink:href="neural__activations_8c.html#a429f5b4427682cb174e3d4d56f181a22" target="_top" xlink:title="Returns the name of a specified activation function.">
<polygon fill="none" stroke="black" points="149,-38.5 149,-57.5 268,-57.5 268,-38.5 149,-38.5"/>
<text text-anchor="middle" x="208.5" y="-45.5" font-family="Helvetica,sans-Serif" font-size="10.00">neural_activation_string</text>
</a>
</g>
</g>
<!-- Node1&#45;&gt;Node3 -->
<g id="edge2" class="edge">
<title>Node1&#45;&gt;Node3</title>
<path fill="none" stroke="midnightblue" d="M113.35,-48C121.59,-48 130.15,-48 138.6,-48"/>
<polygon fill="midnightblue" stroke="midnightblue" points="138.84,-51.5 148.84,-48 138.84,-44.5 138.84,-51.5"/>
</g>
<!-- Node4 -->
<g id="node4" class="node">
<title>Node4</title>
<g id="a_node4"><a xlink:href="sam_8c.html#a9131a7c79bb813647604527b5b761af9" target="_top" xlink:title="Prints mutation rates.">
<polygon fill="none" stroke="black" points="179,-0.5 179,-19.5 238,-19.5 238,-0.5 179,-0.5"/>
<text text-anchor="middle" x="208.5" y="-7.5" font-family="Helvetica,sans-Serif" font-size="10.00">sam_print</text>
</a>
</g>
</g>
<!-- Node1&#45;&gt;Node4 -->
<g id="edge3" class="edge">
<title>Node1&#45;&gt;Node4</title>
<path fill="none" stroke="midnightblue" d="M113.35,-33.85C131.84,-29.17 151.99,-24.06 168.89,-19.78"/>
<polygon fill="midnightblue" stroke="midnightblue" points="170.11,-23.08 178.94,-17.23 168.39,-16.3 170.11,-23.08"/>
</g>
</g>
</svg>
