<?xml version="1.0" encoding="UTF-8" standalone="no"?>
<!DOCTYPE svg PUBLIC "-//W3C//DTD SVG 1.1//EN"
 "http://www.w3.org/Graphics/SVG/1.1/DTD/svg11.dtd">
<!-- Generated by graphviz version 2.43.0 (0)
 -->
<!-- Title: neural_layer_connected_forward Pages: 1 -->
<svg width="524pt" height="397pt"
 viewBox="0.00 0.00 524.00 397.00" xmlns="http://www.w3.org/2000/svg" xmlns:xlink="http://www.w3.org/1999/xlink">
<g id="graph0" class="graph" transform="scale(1 1) rotate(0) translate(4 393)">
<title>neural_layer_connected_forward</title>
<!-- Node1 -->
<g id="Node000001" class="node">
<title>Node1</title>
<g id="a_Node000001"><a xlink:title="Forward propagates a connected layer.">
<polygon fill="#999999" stroke="#666666" points="119,-283.5 0,-283.5 0,-253.5 119,-253.5 119,-283.5"/>
<text text-anchor="start" x="8" y="-271.5" font-family="Helvetica,sans-Serif" font-size="10.00">neural_layer_connected</text>
<text text-anchor="middle" x="59.5" y="-260.5" font-family="Helvetica,sans-Serif" font-size="10.00">_forward</text>
</a>
</g>
</g>
<!-- Node2 -->
<g id="Node000002" class="node">
<title>Node2</title>
<g id="a_Node000002"><a xlink:href="blas_8c.html#af641b4337bf32be77f094e40817a55b7" target="_top" xlink:title="Performs the matrix&#45;matrix multiplication: .">
<polygon fill="white" stroke="#666666" points="243.5,-315 176.5,-315 176.5,-296 243.5,-296 243.5,-315"/>
<text text-anchor="middle" x="210" y="-303" font-family="Helvetica,sans-Serif" font-size="10.00">blas_gemm</text>
</a>
</g>
</g>
<!-- Node1&#45;&gt;Node2 -->
<g id="edge1_Node000001_Node000002" class="edge">
<title>Node1&#45;&gt;Node2</title>
<g id="a_edge1_Node000001_Node000002"><a xlink:title=" ">
<path fill="none" stroke="#63b8ff" d="M119.19,-283.12C135,-287.06 151.79,-291.25 166.53,-294.92"/>
<polygon fill="#63b8ff" stroke="#63b8ff" points="165.82,-298.35 176.37,-297.37 167.51,-291.55 165.82,-298.35"/>
</a>
</g>
</g>
<!-- Node7 -->
<g id="Node000007" class="node">
<title>Node7</title>
<g id="a_Node000007"><a xlink:href="neural__activations_8c.html#acef0d15cd01c7dcc5a4d6d8bdc1d8bad" target="_top" xlink:title="Applies an activation function to a vector of neuron states.">
<polygon fill="white" stroke="#666666" points="265,-241 155,-241 155,-222 265,-222 265,-241"/>
<text text-anchor="middle" x="210" y="-229" font-family="Helvetica,sans-Serif" font-size="10.00">neural_activate_array</text>
</a>
</g>
</g>
<!-- Node1&#45;&gt;Node7 -->
<g id="edge6_Node000001_Node000007" class="edge">
<title>Node1&#45;&gt;Node7</title>
<g id="a_edge6_Node000001_Node000007"><a xlink:title=" ">
<path fill="none" stroke="#63b8ff" d="M119.19,-253.88C133.02,-250.43 147.59,-246.8 160.89,-243.49"/>
<polygon fill="#63b8ff" stroke="#63b8ff" points="161.92,-246.84 170.78,-241.02 160.23,-240.05 161.92,-246.84"/>
</a>
</g>
</g>
<!-- Node3 -->
<g id="Node000003" class="node">
<title>Node3</title>
<g id="a_Node000003"><a xlink:href="blas_8c.html#a2a960e3645ec841778e7b85e7bb96e3d" target="_top" xlink:title=" ">
<polygon fill="white" stroke="#666666" points="372,-389 313,-389 313,-370 372,-370 372,-389"/>
<text text-anchor="middle" x="342.5" y="-377" font-family="Helvetica,sans-Serif" font-size="10.00">gemm_nn</text>
</a>
</g>
</g>
<!-- Node2&#45;&gt;Node3 -->
<g id="edge2_Node000002_Node000003" class="edge">
<title>Node2&#45;&gt;Node3</title>
<g id="a_edge2_Node000002_Node000003"><a xlink:title=" ">
<path fill="none" stroke="#63b8ff" d="M224.98,-315.05C242.38,-326.73 273.2,-346.76 301,-361.5 303.7,-362.93 306.54,-364.35 309.4,-365.73"/>
<polygon fill="#63b8ff" stroke="#63b8ff" points="307.98,-368.93 318.53,-369.95 310.92,-362.58 307.98,-368.93"/>
</a>
</g>
</g>
<!-- Node4 -->
<g id="Node000004" class="node">
<title>Node4</title>
<g id="a_Node000004"><a xlink:href="blas_8c.html#aa57c04fbd7b97c802c920578b88b658e" target="_top" xlink:title=" ">
<polygon fill="white" stroke="#666666" points="371,-352 314,-352 314,-333 371,-333 371,-352"/>
<text text-anchor="middle" x="342.5" y="-340" font-family="Helvetica,sans-Serif" font-size="10.00">gemm_nt</text>
</a>
</g>
</g>
<!-- Node2&#45;&gt;Node4 -->
<g id="edge3_Node000002_Node000004" class="edge">
<title>Node2&#45;&gt;Node4</title>
<g id="a_edge3_Node000002_Node000004"><a xlink:title=" ">
<path fill="none" stroke="#63b8ff" d="M243.59,-314.74C261.9,-319.93 284.82,-326.43 303.88,-331.83"/>
<polygon fill="#63b8ff" stroke="#63b8ff" points="303.16,-335.27 313.73,-334.63 305.07,-328.53 303.16,-335.27"/>
</a>
</g>
</g>
<!-- Node5 -->
<g id="Node000005" class="node">
<title>Node5</title>
<g id="a_Node000005"><a xlink:href="blas_8c.html#a515bbd20d69faf17bfdbc9387a83779a" target="_top" xlink:title=" ">
<polygon fill="white" stroke="#666666" points="371,-315 314,-315 314,-296 371,-296 371,-315"/>
<text text-anchor="middle" x="342.5" y="-303" font-family="Helvetica,sans-Serif" font-size="10.00">gemm_tn</text>
</a>
</g>
</g>
<!-- Node2&#45;&gt;Node5 -->
<g id="edge4_Node000002_Node000005" class="edge">
<title>Node2&#45;&gt;Node5</title>
<g id="a_edge4_Node000002_Node000005"><a xlink:title=" ">
<path fill="none" stroke="#63b8ff" d="M243.59,-305.5C261.81,-305.5 284.61,-305.5 303.61,-305.5"/>
<polygon fill="#63b8ff" stroke="#63b8ff" points="303.73,-309 313.73,-305.5 303.73,-302 303.73,-309"/>
</a>
</g>
</g>
<!-- Node6 -->
<g id="Node000006" class="node">
<title>Node6</title>
<g id="a_Node000006"><a xlink:href="blas_8c.html#abd0602933738dc1c44f69f27786bc603" target="_top" xlink:title=" ">
<polygon fill="white" stroke="#666666" points="370,-278 315,-278 315,-259 370,-259 370,-278"/>
<text text-anchor="middle" x="342.5" y="-266" font-family="Helvetica,sans-Serif" font-size="10.00">gemm_tt</text>
</a>
</g>
</g>
<!-- Node2&#45;&gt;Node6 -->
<g id="edge5_Node000002_Node000006" class="edge">
<title>Node2&#45;&gt;Node6</title>
<g id="a_edge5_Node000002_Node000006"><a xlink:title=" ">
<path fill="none" stroke="#63b8ff" d="M243.59,-296.26C262.24,-290.97 285.67,-284.33 304.94,-278.87"/>
<polygon fill="#63b8ff" stroke="#63b8ff" points="305.92,-282.22 314.59,-276.13 304.01,-275.49 305.92,-282.22"/>
</a>
</g>
</g>
<!-- Node8 -->
<g id="Node000008" class="node">
<title>Node8</title>
<g id="a_Node000008"><a xlink:href="utils_8h.html#a234dd9ca33bcf1fba3e675bc900abc88" target="_top" xlink:title="Returns a float clamped within the specified range.">
<polygon fill="white" stroke="#666666" points="364,-241 321,-241 321,-222 364,-222 364,-241"/>
<text text-anchor="middle" x="342.5" y="-229" font-family="Helvetica,sans-Serif" font-size="10.00">clamp</text>
</a>
</g>
</g>
<!-- Node7&#45;&gt;Node8 -->
<g id="edge7_Node000007_Node000008" class="edge">
<title>Node7&#45;&gt;Node8</title>
<g id="a_edge7_Node000007_Node000008"><a xlink:title=" ">
<path fill="none" stroke="#63b8ff" d="M265.21,-231.5C280.68,-231.5 297.01,-231.5 310.57,-231.5"/>
<polygon fill="#63b8ff" stroke="#63b8ff" points="310.78,-235 320.78,-231.5 310.78,-228 310.78,-235"/>
</a>
</g>
</g>
<!-- Node9 -->
<g id="Node000009" class="node">
<title>Node9</title>
<g id="a_Node000009"><a xlink:href="neural__activations_8c.html#a00b26b831c9b6ad65114ee7c1dd6760e" target="_top" xlink:title="Returns the result from applying a specified activation function.">
<polygon fill="white" stroke="#666666" points="384,-204 301,-204 301,-185 384,-185 384,-204"/>
<text text-anchor="middle" x="342.5" y="-192" font-family="Helvetica,sans-Serif" font-size="10.00">neural_activate</text>
</a>
</g>
</g>
<!-- Node7&#45;&gt;Node9 -->
<g id="edge8_Node000007_Node000009" class="edge">
<title>Node7&#45;&gt;Node9</title>
<g id="a_edge8_Node000007_Node000009"><a xlink:title=" ">
<path fill="none" stroke="#63b8ff" d="M244.61,-221.97C260.77,-217.39 280.35,-211.84 297.66,-206.93"/>
<polygon fill="#63b8ff" stroke="#63b8ff" points="298.89,-210.22 307.55,-204.12 296.98,-203.49 298.89,-210.22"/>
</a>
</g>
</g>
<!-- Node10 -->
<g id="Node000010" class="node">
<title>Node10</title>
<g id="a_Node000010"><a xlink:href="neural__activations_8h.html#a2a1911ebfe2cce90f9b909d685a59d15" target="_top" xlink:title=" ">
<polygon fill="white" stroke="#666666" points="504,-389 432,-389 432,-370 504,-370 504,-389"/>
<text text-anchor="middle" x="468" y="-377" font-family="Helvetica,sans-Serif" font-size="10.00">cos_activate</text>
</a>
</g>
</g>
<!-- Node9&#45;&gt;Node10 -->
<g id="edge9_Node000009_Node000010" class="edge">
<title>Node9&#45;&gt;Node10</title>
<g id="a_edge9_Node000009_Node000010"><a xlink:title=" ">
<path fill="none" stroke="#63b8ff" d="M372.36,-204.04C376.75,-206.54 380.85,-209.65 384,-213.5 426.85,-265.91 375.27,-310.69 420,-361.5 421.01,-362.65 422.1,-363.72 423.26,-364.73"/>
<polygon fill="#63b8ff" stroke="#63b8ff" points="421.44,-367.72 431.68,-370.43 425.36,-361.93 421.44,-367.72"/>
</a>
</g>
</g>
<!-- Node11 -->
<g id="Node000011" class="node">
<title>Node11</title>
<g id="a_Node000011"><a xlink:href="neural__activations_8h.html#a5a67647a321713d6ac1586b89dcdceb0" target="_top" xlink:title=" ">
<polygon fill="white" stroke="#666666" points="515.5,-352 420.5,-352 420.5,-333 515.5,-333 515.5,-352"/>
<text text-anchor="middle" x="468" y="-340" font-family="Helvetica,sans-Serif" font-size="10.00">gaussian_activate</text>
</a>
</g>
</g>
<!-- Node9&#45;&gt;Node11 -->
<g id="edge10_Node000009_Node000011" class="edge">
<title>Node9&#45;&gt;Node11</title>
<g id="a_edge10_Node000009_Node000011"><a xlink:title=" ">
<path fill="none" stroke="#63b8ff" d="M371.71,-204.01C376.27,-206.53 380.61,-209.66 384,-213.5 418.31,-252.39 384.3,-286.88 420,-324.5 420.91,-325.46 421.88,-326.37 422.9,-327.24"/>
<polygon fill="#63b8ff" stroke="#63b8ff" points="421.2,-330.31 431.46,-332.96 425.09,-324.49 421.2,-330.31"/>
</a>
</g>
</g>
<!-- Node12 -->
<g id="Node000012" class="node">
<title>Node12</title>
<g id="a_Node000012"><a xlink:href="neural__activations_8h.html#aca09887967da390ec55c3f4a1f2dee48" target="_top" xlink:title=" ">
<polygon fill="white" stroke="#666666" points="508,-315 428,-315 428,-296 508,-296 508,-315"/>
<text text-anchor="middle" x="468" y="-303" font-family="Helvetica,sans-Serif" font-size="10.00">leaky_activate</text>
</a>
</g>
</g>
<!-- Node9&#45;&gt;Node12 -->
<g id="edge11_Node000009_Node000012" class="edge">
<title>Node9&#45;&gt;Node12</title>
<g id="a_edge11_Node000009_Node000012"><a xlink:title=" ">
<path fill="none" stroke="#63b8ff" d="M370.86,-204.19C375.62,-206.71 380.24,-209.79 384,-213.5 410.04,-239.18 393.04,-262.79 420,-287.5 421.28,-288.68 422.65,-289.78 424.09,-290.81"/>
<polygon fill="#63b8ff" stroke="#63b8ff" points="422.46,-293.92 432.85,-296 426.03,-287.89 422.46,-293.92"/>
</a>
</g>
</g>
<!-- Node13 -->
<g id="Node000013" class="node">
<title>Node13</title>
<g id="a_Node000013"><a xlink:href="neural__activations_8h.html#ab867da5d496341c42b73c27ccc9b5f2b" target="_top" xlink:title=" ">
<polygon fill="white" stroke="#666666" points="508,-278 428,-278 428,-259 508,-259 508,-278"/>
<text text-anchor="middle" x="468" y="-266" font-family="Helvetica,sans-Serif" font-size="10.00">linear_activate</text>
</a>
</g>
</g>
<!-- Node9&#45;&gt;Node13 -->
<g id="edge12_Node000009_Node000013" class="edge">
<title>Node9&#45;&gt;Node13</title>
<g id="a_edge12_Node000009_Node000013"><a xlink:title=" ">
<path fill="none" stroke="#63b8ff" d="M367.86,-204.19C373.38,-206.85 379.07,-209.99 384,-213.5 402.69,-226.81 400.84,-237.88 420,-250.5 422.25,-251.98 424.64,-253.37 427.1,-254.66"/>
<polygon fill="#63b8ff" stroke="#63b8ff" points="425.67,-257.85 436.21,-258.92 428.64,-251.51 425.67,-257.85"/>
</a>
</g>
</g>
<!-- Node14 -->
<g id="Node000014" class="node">
<title>Node14</title>
<g id="a_Node000014"><a xlink:href="neural__activations_8h.html#a72f509e640dc8b6e9b33af9d8d2aa023" target="_top" xlink:title=" ">
<polygon fill="white" stroke="#666666" points="508,-241 428,-241 428,-222 508,-222 508,-241"/>
<text text-anchor="middle" x="468" y="-229" font-family="Helvetica,sans-Serif" font-size="10.00">loggy_activate</text>
</a>
</g>
</g>
<!-- Node9&#45;&gt;Node14 -->
<g id="edge13_Node000009_Node000014" class="edge">
<title>Node9&#45;&gt;Node14</title>
<g id="a_edge13_Node000009_Node000014"><a xlink:title=" ">
<path fill="none" stroke="#63b8ff" d="M375.3,-204.03C390.46,-208.57 408.78,-214.06 425.05,-218.93"/>
<polygon fill="#63b8ff" stroke="#63b8ff" points="424.29,-222.36 434.87,-221.88 426.3,-215.65 424.29,-222.36"/>
</a>
</g>
</g>
<!-- Node15 -->
<g id="Node000015" class="node">
<title>Node15</title>
<g id="a_Node000015"><a xlink:href="neural__activations_8h.html#ac92b3d5389aff87e855b8ae05b9ec0f9" target="_top" xlink:title=" ">
<polygon fill="white" stroke="#666666" points="511.5,-204 424.5,-204 424.5,-185 511.5,-185 511.5,-204"/>
<text text-anchor="middle" x="468" y="-192" font-family="Helvetica,sans-Serif" font-size="10.00">logistic_activate</text>
</a>
</g>
</g>
<!-- Node9&#45;&gt;Node15 -->
<g id="edge14_Node000009_Node000015" class="edge">
<title>Node9&#45;&gt;Node15</title>
<g id="a_edge14_Node000009_Node000015"><a xlink:title=" ">
<path fill="none" stroke="#63b8ff" d="M384.28,-194.5C393.77,-194.5 404.01,-194.5 413.95,-194.5"/>
<polygon fill="#63b8ff" stroke="#63b8ff" points="414.14,-198 424.14,-194.5 414.14,-191 414.14,-198"/>
</a>
</g>
</g>
<!-- Node16 -->
<g id="Node000016" class="node">
<title>Node16</title>
<g id="a_Node000016"><a xlink:href="neural__activations_8h.html#a36d1fc0c7b2462a22d82d41138bd79eb" target="_top" xlink:title=" ">
<polygon fill="white" stroke="#666666" points="504,-167 432,-167 432,-148 504,-148 504,-167"/>
<text text-anchor="middle" x="468" y="-155" font-family="Helvetica,sans-Serif" font-size="10.00">relu_activate</text>
</a>
</g>
</g>
<!-- Node9&#45;&gt;Node16 -->
<g id="edge15_Node000009_Node000016" class="edge">
<title>Node9&#45;&gt;Node16</title>
<g id="a_edge15_Node000009_Node000016"><a xlink:title=" ">
<path fill="none" stroke="#63b8ff" d="M375.3,-184.97C390.46,-180.43 408.78,-174.94 425.05,-170.07"/>
<polygon fill="#63b8ff" stroke="#63b8ff" points="426.3,-173.35 434.87,-167.12 424.29,-166.64 426.3,-173.35"/>
</a>
</g>
</g>
<!-- Node17 -->
<g id="Node000017" class="node">
<title>Node17</title>
<g id="a_Node000017"><a xlink:href="neural__activations_8h.html#ae8360118176b50bcc1ce7b6e9a5c5d96" target="_top" xlink:title=" ">
<polygon fill="white" stroke="#666666" points="505,-130 431,-130 431,-111 505,-111 505,-130"/>
<text text-anchor="middle" x="468" y="-118" font-family="Helvetica,sans-Serif" font-size="10.00">selu_activate</text>
</a>
</g>
</g>
<!-- Node9&#45;&gt;Node17 -->
<g id="edge16_Node000009_Node000017" class="edge">
<title>Node9&#45;&gt;Node17</title>
<g id="a_edge16_Node000009_Node000017"><a xlink:title=" ">
<path fill="none" stroke="#63b8ff" d="M355.1,-184.8C369.6,-173.01 395.5,-153 420,-139.5 423.46,-137.59 427.14,-135.77 430.88,-134.07"/>
<polygon fill="#63b8ff" stroke="#63b8ff" points="432.34,-137.25 440.14,-130.07 429.57,-130.82 432.34,-137.25"/>
</a>
</g>
</g>
<!-- Node18 -->
<g id="Node000018" class="node">
<title>Node18</title>
<g id="a_Node000018"><a xlink:href="neural__activations_8h.html#addeba3077f238bf95ab678521f3f01f4" target="_top" xlink:title=" ">
<polygon fill="white" stroke="#666666" points="502.5,-93 433.5,-93 433.5,-74 502.5,-74 502.5,-93"/>
<text text-anchor="middle" x="468" y="-81" font-family="Helvetica,sans-Serif" font-size="10.00">sin_activate</text>
</a>
</g>
</g>
<!-- Node9&#45;&gt;Node18 -->
<g id="edge17_Node000009_Node000018" class="edge">
<title>Node9&#45;&gt;Node18</title>
<g id="a_edge17_Node000009_Node000018"><a xlink:title=" ">
<path fill="none" stroke="#63b8ff" d="M349.24,-184.82C360.58,-166.43 387.62,-126.14 420,-102.5 422.48,-100.69 425.15,-99.02 427.93,-97.49"/>
<polygon fill="#63b8ff" stroke="#63b8ff" points="429.55,-100.59 436.99,-93.05 426.47,-94.3 429.55,-100.59"/>
</a>
</g>
</g>
<!-- Node19 -->
<g id="Node000019" class="node">
<title>Node19</title>
<g id="a_Node000019"><a xlink:href="neural__activations_8h.html#a72a5c108b60b2e169e798a31a16ed5c9" target="_top" xlink:title=" ">
<polygon fill="white" stroke="#666666" points="516,-56 420,-56 420,-37 516,-37 516,-56"/>
<text text-anchor="middle" x="468" y="-44" font-family="Helvetica,sans-Serif" font-size="10.00">soft_plus_activate</text>
</a>
</g>
</g>
<!-- Node9&#45;&gt;Node19 -->
<g id="edge18_Node000009_Node000019" class="edge">
<title>Node9&#45;&gt;Node19</title>
<g id="a_edge18_Node000009_Node000019"><a xlink:title=" ">
<path fill="none" stroke="#63b8ff" d="M346.7,-184.98C355.06,-161.48 379.71,-100.12 420,-65.5 421.93,-63.84 424.02,-62.32 426.21,-60.92"/>
<polygon fill="#63b8ff" stroke="#63b8ff" points="427.94,-63.96 435.04,-56.11 424.59,-57.82 427.94,-63.96"/>
</a>
</g>
</g>
<!-- Node20 -->
<g id="Node000020" class="node">
<title>Node20</title>
<g id="a_Node000020"><a xlink:href="neural__activations_8h.html#ad5b55632ec4cca70c5cac2f139ab7890" target="_top" xlink:title=" ">
<polygon fill="white" stroke="#666666" points="505.5,-19 430.5,-19 430.5,0 505.5,0 505.5,-19"/>
<text text-anchor="middle" x="468" y="-7" font-family="Helvetica,sans-Serif" font-size="10.00">tanh_activate</text>
</a>
</g>
</g>
<!-- Node9&#45;&gt;Node20 -->
<g id="edge19_Node000009_Node000020" class="edge">
<title>Node9&#45;&gt;Node20</title>
<g id="a_edge19_Node000009_Node000020"><a xlink:title=" ">
<path fill="none" stroke="#63b8ff" d="M345.35,-184.8C351.19,-156.73 371.77,-74.48 420,-28.5 421.48,-27.09 423.08,-25.78 424.77,-24.56"/>
<polygon fill="#63b8ff" stroke="#63b8ff" points="426.94,-27.33 433.74,-19.21 423.36,-21.32 426.94,-27.33"/>
</a>
</g>
</g>
</g>
</svg>
