<?xml version="1.0" encoding="UTF-8" standalone="no"?>
<!DOCTYPE svg PUBLIC "-//W3C//DTD SVG 1.1//EN"
 "http://www.w3.org/Graphics/SVG/1.1/DTD/svg11.dtd">
<!-- Generated by graphviz version 2.43.0 (0)
 -->
<!-- Title: neural_layer_convolutional_init Pages: 1 -->
<svg width="551pt" height="294pt"
 viewBox="0.00 0.00 551.00 294.00" xmlns="http://www.w3.org/2000/svg" xmlns:xlink="http://www.w3.org/1999/xlink">
<g id="graph0" class="graph" transform="scale(1 1) rotate(0) translate(4 290)">
<title>neural_layer_convolutional_init</title>
<!-- Node1 -->
<g id="node1" class="node">
<title>Node1</title>
<g id="a_node1"><a xlink:title="Initialises a 2D convolutional layer.">
<polygon fill="#bfbfbf" stroke="black" points="0,-133.5 0,-152.5 149,-152.5 149,-133.5 0,-133.5"/>
<text text-anchor="middle" x="74.5" y="-140.5" font-family="Helvetica,sans-Serif" font-size="10.00">neural_layer_convolutional_init</text>
</a>
</g>
</g>
<!-- Node2 -->
<g id="node2" class="node">
<title>Node2</title>
<g id="a_node2"><a xlink:href="neural__layer__convolutional_8c.html#afa7d1286da596763b6ab82d3820c2081" target="_top" xlink:title="Returns the output height of a convolutional layer.">
<polygon fill="none" stroke="black" points="185,-266.5 185,-285.5 309,-285.5 309,-266.5 185,-266.5"/>
<text text-anchor="middle" x="247" y="-273.5" font-family="Helvetica,sans-Serif" font-size="10.00">convolutional_out_height</text>
</a>
</g>
</g>
<!-- Node1&#45;&gt;Node2 -->
<g id="edge1" class="edge">
<title>Node1&#45;&gt;Node2</title>
<path fill="none" stroke="midnightblue" d="M81.99,-152.51C97.34,-174.26 138.08,-227.99 185,-257 188.41,-259.11 192.06,-260.99 195.83,-262.69"/>
<polygon fill="midnightblue" stroke="midnightblue" points="194.78,-266.03 205.36,-266.5 197.38,-259.54 194.78,-266.03"/>
</g>
<!-- Node3 -->
<g id="node3" class="node">
<title>Node3</title>
<g id="a_node3"><a xlink:href="neural__layer__convolutional_8c.html#a6db6e391775a4f6c5305ce1bf438cb76" target="_top" xlink:title="Returns the output width of a convolutional layer.">
<polygon fill="none" stroke="black" points="186.5,-228.5 186.5,-247.5 307.5,-247.5 307.5,-228.5 186.5,-228.5"/>
<text text-anchor="middle" x="247" y="-235.5" font-family="Helvetica,sans-Serif" font-size="10.00">convolutional_out_width</text>
</a>
</g>
</g>
<!-- Node1&#45;&gt;Node3 -->
<g id="edge2" class="edge">
<title>Node1&#45;&gt;Node3</title>
<path fill="none" stroke="midnightblue" d="M86.91,-152.7C106.05,-168.55 146.32,-200.11 185,-219 189.56,-221.22 194.43,-223.26 199.36,-225.1"/>
<polygon fill="midnightblue" stroke="midnightblue" points="198.25,-228.43 208.85,-228.41 200.56,-221.82 198.25,-228.43"/>
</g>
<!-- Node4 -->
<g id="node4" class="node">
<title>Node4</title>
<g id="a_node4"><a xlink:href="neural__layer__convolutional_8c.html#a9613e3f3c10a68cc7b9d5e8f084b137c" target="_top" xlink:title="Returns the memory workspace size for a convolutional layer.">
<polygon fill="none" stroke="black" points="194,-190.5 194,-209.5 300,-209.5 300,-190.5 194,-190.5"/>
<text text-anchor="middle" x="247" y="-197.5" font-family="Helvetica,sans-Serif" font-size="10.00">get_workspace_size</text>
</a>
</g>
</g>
<!-- Node1&#45;&gt;Node4 -->
<g id="edge3" class="edge">
<title>Node1&#45;&gt;Node4</title>
<path fill="none" stroke="midnightblue" d="M104.04,-152.54C132.44,-162.03 176.21,-176.67 207.63,-187.17"/>
<polygon fill="midnightblue" stroke="midnightblue" points="206.78,-190.58 217.37,-190.43 208.99,-183.94 206.78,-190.58"/>
</g>
<!-- Node5 -->
<g id="node5" class="node">
<title>Node5</title>
<g id="a_node5"><a xlink:href="neural__layer_8c.html#adaa85b5b91de990f50a023060e0c16c5" target="_top" xlink:title="Initialises a layer&#39;s gradient descent rate.">
<polygon fill="none" stroke="black" points="352.5,-114.5 352.5,-133.5 426.5,-133.5 426.5,-114.5 352.5,-114.5"/>
<text text-anchor="middle" x="389.5" y="-121.5" font-family="Helvetica,sans-Serif" font-size="10.00">layer_init_eta</text>
</a>
</g>
</g>
<!-- Node1&#45;&gt;Node5 -->
<g id="edge4" class="edge">
<title>Node1&#45;&gt;Node5</title>
<path fill="none" stroke="midnightblue" d="M149.11,-147.4C195.21,-149.07 255.76,-149.27 309,-143 321.33,-141.55 334.52,-138.87 346.54,-135.97"/>
<polygon fill="midnightblue" stroke="midnightblue" points="347.48,-139.34 356.32,-133.51 345.77,-132.56 347.48,-139.34"/>
</g>
<!-- Node7 -->
<g id="node7" class="node">
<title>Node7</title>
<g id="a_node7"><a xlink:href="neural__layer_8c.html#aa1dead0dac474467ac3f2e9e4c02279b" target="_top" xlink:title="Returns a bitstring representing the permissions granted by a layer.">
<polygon fill="none" stroke="black" points="219,-114.5 219,-133.5 275,-133.5 275,-114.5 219,-114.5"/>
<text text-anchor="middle" x="247" y="-121.5" font-family="Helvetica,sans-Serif" font-size="10.00">layer_opt</text>
</a>
</g>
</g>
<!-- Node1&#45;&gt;Node7 -->
<g id="edge6" class="edge">
<title>Node1&#45;&gt;Node7</title>
<path fill="none" stroke="midnightblue" d="M149.29,-134.78C169.71,-132.5 191.03,-130.13 208.43,-128.19"/>
<polygon fill="midnightblue" stroke="midnightblue" points="209.17,-131.63 218.72,-127.04 208.4,-124.67 209.17,-131.63"/>
</g>
<!-- Node8 -->
<g id="node8" class="node">
<title>Node8</title>
<g id="a_node8"><a xlink:href="neural__layer__convolutional_8c.html#a6e3344e46eea0817b14f3568ef81ff97" target="_top" xlink:title="Allocate memory used by a convolutional layer.">
<polygon fill="none" stroke="black" points="195,-76.5 195,-95.5 299,-95.5 299,-76.5 195,-76.5"/>
<text text-anchor="middle" x="247" y="-83.5" font-family="Helvetica,sans-Serif" font-size="10.00">malloc_layer_arrays</text>
</a>
</g>
</g>
<!-- Node1&#45;&gt;Node8 -->
<g id="edge7" class="edge">
<title>Node1&#45;&gt;Node8</title>
<path fill="none" stroke="midnightblue" d="M102.42,-133.39C124.53,-125.56 156.71,-114.31 185,-105 191.44,-102.88 198.29,-100.69 204.97,-98.58"/>
<polygon fill="midnightblue" stroke="midnightblue" points="206.09,-101.9 214.59,-95.57 204,-95.22 206.09,-101.9"/>
</g>
<!-- Node9 -->
<g id="node9" class="node">
<title>Node9</title>
<g id="a_node9"><a xlink:href="utils_8c.html#a6a36d869b4a218a3f55cd19067f62c0f" target="_top" xlink:title="Returns a random Gaussian with specified mean and standard deviation.">
<polygon fill="none" stroke="black" points="212,-38.5 212,-57.5 282,-57.5 282,-38.5 212,-38.5"/>
<text text-anchor="middle" x="247" y="-45.5" font-family="Helvetica,sans-Serif" font-size="10.00">rand_normal</text>
</a>
</g>
</g>
<!-- Node1&#45;&gt;Node9 -->
<g id="edge8" class="edge">
<title>Node1&#45;&gt;Node9</title>
<path fill="none" stroke="midnightblue" d="M86.91,-133.3C106.05,-117.45 146.32,-85.89 185,-67 190.36,-64.38 196.17,-62.02 201.99,-59.93"/>
<polygon fill="midnightblue" stroke="midnightblue" points="203.36,-63.16 211.73,-56.67 201.14,-56.53 203.36,-63.16"/>
</g>
<!-- Node10 -->
<g id="node10" class="node">
<title>Node10</title>
<g id="a_node10"><a xlink:href="sam_8c.html#a7f7f30716900f06683a74486aca5f5a0" target="_top" xlink:title="Initialises self&#45;adaptive mutation rates.">
<polygon fill="none" stroke="black" points="220.5,-0.5 220.5,-19.5 273.5,-19.5 273.5,-0.5 220.5,-0.5"/>
<text text-anchor="middle" x="247" y="-7.5" font-family="Helvetica,sans-Serif" font-size="10.00">sam_init</text>
</a>
</g>
</g>
<!-- Node1&#45;&gt;Node10 -->
<g id="edge9" class="edge">
<title>Node1&#45;&gt;Node10</title>
<path fill="none" stroke="midnightblue" d="M81.99,-133.49C97.34,-111.74 138.08,-58.01 185,-29 192.81,-24.17 201.96,-20.47 210.75,-17.69"/>
<polygon fill="midnightblue" stroke="midnightblue" points="211.79,-21.03 220.44,-14.91 209.87,-14.3 211.79,-21.03"/>
</g>
<!-- Node6 -->
<g id="node6" class="node">
<title>Node6</title>
<g id="a_node6"><a xlink:href="utils_8c.html#a972761ba8f47a6c3e7396a7c685158fc" target="_top" xlink:title="Returns a uniform random float [min,max].">
<polygon fill="none" stroke="black" points="470,-38.5 470,-57.5 543,-57.5 543,-38.5 470,-38.5"/>
<text text-anchor="middle" x="506.5" y="-45.5" font-family="Helvetica,sans-Serif" font-size="10.00">rand_uniform</text>
</a>
</g>
</g>
<!-- Node5&#45;&gt;Node6 -->
<g id="edge5" class="edge">
<title>Node5&#45;&gt;Node6</title>
<path fill="none" stroke="midnightblue" d="M405.06,-114.37C424.59,-101.47 459.47,-78.42 482.55,-63.17"/>
<polygon fill="midnightblue" stroke="midnightblue" points="484.64,-65.98 491.05,-57.55 480.78,-60.14 484.64,-65.98"/>
</g>
<!-- Node10&#45;&gt;Node6 -->
<g id="edge10" class="edge">
<title>Node10&#45;&gt;Node6</title>
<path fill="none" stroke="midnightblue" d="M273.84,-15.61C293.33,-19.71 320.76,-25.2 345,-29 383.52,-35.04 427.51,-40.12 459.69,-43.51"/>
<polygon fill="midnightblue" stroke="midnightblue" points="459.39,-46.99 469.7,-44.54 460.11,-40.03 459.39,-46.99"/>
</g>
<!-- Node11 -->
<g id="node11" class="node">
<title>Node11</title>
<g id="a_node11"><a xlink:href="utils_8c.html#a5e6304fd9b177f36684d4bb00af49f91" target="_top" xlink:title="Returns a uniform random integer [min,max] not inclusive of max.">
<polygon fill="none" stroke="black" points="345,-0.5 345,-19.5 434,-19.5 434,-0.5 345,-0.5"/>
<text text-anchor="middle" x="389.5" y="-7.5" font-family="Helvetica,sans-Serif" font-size="10.00">rand_uniform_int</text>
</a>
</g>
</g>
<!-- Node10&#45;&gt;Node11 -->
<g id="edge11" class="edge">
<title>Node10&#45;&gt;Node11</title>
<path fill="none" stroke="midnightblue" d="M273.77,-10C290.86,-10 313.91,-10 334.87,-10"/>
<polygon fill="midnightblue" stroke="midnightblue" points="334.96,-13.5 344.96,-10 334.96,-6.5 334.96,-13.5"/>
</g>
<!-- Node11&#45;&gt;Node6 -->
<g id="edge12" class="edge">
<title>Node11&#45;&gt;Node6</title>
<path fill="none" stroke="midnightblue" d="M419.52,-19.59C433.82,-24.31 451.26,-30.08 466.69,-35.18"/>
<polygon fill="midnightblue" stroke="midnightblue" points="465.9,-38.6 476.49,-38.41 468.09,-31.95 465.9,-38.6"/>
</g>
</g>
</svg>
