<?xml version="1.0" encoding="UTF-8" standalone="no"?>
<!DOCTYPE svg PUBLIC "-//W3C//DTD SVG 1.1//EN"
 "http://www.w3.org/Graphics/SVG/1.1/DTD/svg11.dtd">
<!-- Generated by graphviz version 2.43.0 (0)
 -->
<!-- Title: layer_free Pages: 1 -->
<svg width="855pt" height="199pt"
 viewBox="0.00 0.00 855.00 199.00" xmlns="http://www.w3.org/2000/svg" xmlns:xlink="http://www.w3.org/1999/xlink">
<g id="graph0" class="graph" transform="scale(1 1) rotate(0) translate(4 195)">
<title>layer_free</title>
<!-- Node1 -->
<g id="node1" class="node">
<title>Node1</title>
<g id="a_node1"><a xlink:title="Frees the memory used by the layer.">
<polygon fill="#bfbfbf" stroke="black" points="788,-57.5 788,-76.5 847,-76.5 847,-57.5 788,-57.5"/>
<text text-anchor="middle" x="817.5" y="-64.5" font-family="Helvetica,sans-Serif" font-size="10.00">layer_free</text>
</a>
</g>
</g>
<!-- Node2 -->
<g id="node2" class="node">
<title>Node2</title>
<g id="a_node2"><a xlink:href="neural_8h.html#a8107be93287bbeb8def340f9b52b8315" target="_top" xlink:title="Frees a neural network.">
<polygon fill="none" stroke="black" points="652.5,-114.5 652.5,-133.5 717.5,-133.5 717.5,-114.5 652.5,-114.5"/>
<text text-anchor="middle" x="685" y="-121.5" font-family="Helvetica,sans-Serif" font-size="10.00">neural_free</text>
</a>
</g>
</g>
<!-- Node1&#45;&gt;Node2 -->
<g id="edge1" class="edge">
<title>Node1&#45;&gt;Node2</title>
<path fill="none" stroke="midnightblue" d="M794.17,-82.05C782.08,-89.7 766.65,-98.7 752,-105 741.16,-109.67 728.83,-113.56 717.79,-116.59"/>
<polygon fill="midnightblue" stroke="midnightblue" points="796.21,-84.9 802.7,-76.52 792.4,-79.02 796.21,-84.9"/>
</g>
<!-- Node7 -->
<g id="node7" class="node">
<title>Node7</title>
<g id="a_node7"><a xlink:href="neural__layer__lstm_8h.html#a913eab886e0a48084a568a73a6718343" target="_top" xlink:title=" ">
<polygon fill="none" stroke="black" points="627.5,-76.5 627.5,-95.5 742.5,-95.5 742.5,-76.5 627.5,-76.5"/>
<text text-anchor="middle" x="685" y="-83.5" font-family="Helvetica,sans-Serif" font-size="10.00">neural_layer_lstm_free</text>
</a>
</g>
</g>
<!-- Node1&#45;&gt;Node7 -->
<g id="edge6" class="edge">
<title>Node1&#45;&gt;Node7</title>
<path fill="none" stroke="midnightblue" d="M777.74,-72.64C766.74,-74.24 754.53,-76.02 742.7,-77.74"/>
<polygon fill="midnightblue" stroke="midnightblue" points="778.47,-76.07 787.86,-71.17 777.46,-69.15 778.47,-76.07"/>
</g>
<!-- Node8 -->
<g id="node8" class="node">
<title>Node8</title>
<g id="a_node8"><a xlink:href="neural__layer__recurrent_8h.html#a91b7e1ae3d04706ed3872628f2f84469" target="_top" xlink:title=" ">
<polygon fill="none" stroke="black" points="618,-38.5 618,-57.5 752,-57.5 752,-38.5 618,-38.5"/>
<text text-anchor="middle" x="685" y="-45.5" font-family="Helvetica,sans-Serif" font-size="10.00">neural_layer_recurrent_free</text>
</a>
</g>
</g>
<!-- Node1&#45;&gt;Node8 -->
<g id="edge7" class="edge">
<title>Node1&#45;&gt;Node8</title>
<path fill="none" stroke="midnightblue" d="M777.77,-61.36C769.47,-60.15 760.47,-58.84 751.48,-57.53"/>
<polygon fill="midnightblue" stroke="midnightblue" points="777.46,-64.85 787.86,-62.83 778.47,-57.93 777.46,-64.85"/>
</g>
<!-- Node9 -->
<g id="node9" class="node">
<title>Node9</title>
<g id="a_node9"><a xlink:href="neural_8h.html#a36232425bfe499d97871d4a58b90c817" target="_top" xlink:title="Removes a layer from a neural network.">
<polygon fill="none" stroke="black" points="631.5,-0.5 631.5,-19.5 738.5,-19.5 738.5,-0.5 631.5,-0.5"/>
<text text-anchor="middle" x="685" y="-7.5" font-family="Helvetica,sans-Serif" font-size="10.00">neural_layer_remove</text>
</a>
</g>
</g>
<!-- Node1&#45;&gt;Node9 -->
<g id="edge8" class="edge">
<title>Node1&#45;&gt;Node9</title>
<path fill="none" stroke="midnightblue" d="M794.17,-51.95C782.08,-44.3 766.65,-35.3 752,-29 743.57,-25.37 734.24,-22.21 725.31,-19.55"/>
<polygon fill="midnightblue" stroke="midnightblue" points="792.4,-54.98 802.7,-57.48 796.21,-49.1 792.4,-54.98"/>
</g>
<!-- Node3 -->
<g id="node3" class="node">
<title>Node3</title>
<g id="a_node3"><a xlink:href="act__neural_8h.html#af4e02d2c694c9eeddfe7c1407f29305d" target="_top" xlink:title=" ">
<polygon fill="none" stroke="black" points="470.5,-171.5 470.5,-190.5 553.5,-190.5 553.5,-171.5 470.5,-171.5"/>
<text text-anchor="middle" x="512" y="-178.5" font-family="Helvetica,sans-Serif" font-size="10.00">act_neural_free</text>
</a>
</g>
</g>
<!-- Node2&#45;&gt;Node3 -->
<g id="edge2" class="edge">
<title>Node2&#45;&gt;Node3</title>
<path fill="none" stroke="midnightblue" d="M650.8,-137.21C630.98,-144.89 605.23,-154.49 582,-162 571.71,-165.33 560.45,-168.58 550.06,-171.44"/>
<polygon fill="midnightblue" stroke="midnightblue" points="652.26,-140.4 660.3,-133.5 649.71,-133.88 652.26,-140.4"/>
</g>
<!-- Node4 -->
<g id="node4" class="node">
<title>Node4</title>
<g id="a_node4"><a xlink:href="cond__neural_8h.html#a03eb2cc7736651f4e015a29319990b1a" target="_top" xlink:title=" ">
<polygon fill="none" stroke="black" points="466.5,-133.5 466.5,-152.5 557.5,-152.5 557.5,-133.5 466.5,-133.5"/>
<text text-anchor="middle" x="512" y="-140.5" font-family="Helvetica,sans-Serif" font-size="10.00">cond_neural_free</text>
</a>
</g>
</g>
<!-- Node2&#45;&gt;Node4 -->
<g id="edge3" class="edge">
<title>Node2&#45;&gt;Node4</title>
<path fill="none" stroke="midnightblue" d="M642.11,-128.65C616.55,-131.49 583.89,-135.12 557.81,-138.02"/>
<polygon fill="midnightblue" stroke="midnightblue" points="642.68,-132.11 652.24,-127.53 641.91,-125.16 642.68,-132.11"/>
</g>
<!-- Node5 -->
<g id="node5" class="node">
<title>Node5</title>
<g id="a_node5"><a xlink:href="pred__neural_8h.html#a3f30c5096c03e974360396c678b53d40" target="_top" xlink:title=" ">
<polygon fill="none" stroke="black" points="467.5,-95.5 467.5,-114.5 556.5,-114.5 556.5,-95.5 467.5,-95.5"/>
<text text-anchor="middle" x="512" y="-102.5" font-family="Helvetica,sans-Serif" font-size="10.00">pred_neural_free</text>
</a>
</g>
</g>
<!-- Node2&#45;&gt;Node5 -->
<g id="edge4" class="edge">
<title>Node2&#45;&gt;Node5</title>
<path fill="none" stroke="midnightblue" d="M641.96,-119.33C616,-116.44 582.75,-112.75 556.52,-109.84"/>
<polygon fill="midnightblue" stroke="midnightblue" points="641.91,-122.84 652.24,-120.47 642.68,-115.89 641.91,-122.84"/>
</g>
<!-- Node6 -->
<g id="node6" class="node">
<title>Node6</title>
<g id="a_node6"><a xlink:href="rule__neural_8h.html#a66602150b0b8b3b7e38b05e53f6e1abd" target="_top" xlink:title=" ">
<polygon fill="none" stroke="black" points="456,-57.5 456,-76.5 568,-76.5 568,-57.5 456,-57.5"/>
<text text-anchor="middle" x="512" y="-64.5" font-family="Helvetica,sans-Serif" font-size="10.00">rule_neural_cond_free</text>
</a>
</g>
</g>
<!-- Node2&#45;&gt;Node6 -->
<g id="edge5" class="edge">
<title>Node2&#45;&gt;Node6</title>
<path fill="none" stroke="midnightblue" d="M642.5,-113.46C634.28,-110.98 625.78,-108.14 618,-105 601.22,-98.24 598.82,-92.66 582,-86 572.87,-82.39 562.81,-79.19 553.26,-76.5"/>
<polygon fill="midnightblue" stroke="midnightblue" points="641.75,-116.89 652.33,-116.3 643.7,-110.17 641.75,-116.89"/>
</g>
<!-- Node10 -->
<g id="node10" class="node">
<title>Node10</title>
<g id="a_node10"><a xlink:href="pred__neural_8h.html#a610669174ae845912b814e159f49b4af" target="_top" xlink:title=" ">
<polygon fill="none" stroke="black" points="442,-0.5 442,-19.5 582,-19.5 582,-0.5 442,-0.5"/>
<text text-anchor="middle" x="512" y="-7.5" font-family="Helvetica,sans-Serif" font-size="10.00">pred_neural_ae_to_classifier</text>
</a>
</g>
</g>
<!-- Node9&#45;&gt;Node10 -->
<g id="edge9" class="edge">
<title>Node9&#45;&gt;Node10</title>
<path fill="none" stroke="midnightblue" d="M621.28,-10C608.57,-10 595.14,-10 582.22,-10"/>
<polygon fill="midnightblue" stroke="midnightblue" points="621.3,-13.5 631.3,-10 621.3,-6.5 621.3,-13.5"/>
</g>
<!-- Node11 -->
<g id="node11" class="node">
<title>Node11</title>
<g id="a_node11"><a xlink:href="xcsf_8h.html#ad77461184a11780681798ac593b090ab" target="_top" xlink:title="Switches from autoencoding to classification.">
<polygon fill="none" stroke="black" points="297,-0.5 297,-19.5 406,-19.5 406,-0.5 297,-0.5"/>
<text text-anchor="middle" x="351.5" y="-7.5" font-family="Helvetica,sans-Serif" font-size="10.00">xcsf_ae_to_classifier</text>
</a>
</g>
</g>
<!-- Node10&#45;&gt;Node11 -->
<g id="edge10" class="edge">
<title>Node10&#45;&gt;Node11</title>
<path fill="none" stroke="midnightblue" d="M431.75,-10C423.06,-10 414.36,-10 406.08,-10"/>
<polygon fill="midnightblue" stroke="midnightblue" points="431.94,-13.5 441.94,-10 431.94,-6.5 431.94,-13.5"/>
</g>
<!-- Node12 -->
<g id="node12" class="node">
<title>Node12</title>
<g id="a_node12"><a xlink:href="classXCS.html#ad73009d926d395ee03bf7586f194fcbe" target="_top" xlink:title="Switches from autoencoding to classification.">
<polygon fill="none" stroke="black" points="149,-0.5 149,-19.5 261,-19.5 261,-0.5 149,-0.5"/>
<text text-anchor="middle" x="205" y="-7.5" font-family="Helvetica,sans-Serif" font-size="10.00">XCS::ae_to_classifier</text>
</a>
</g>
</g>
<!-- Node11&#45;&gt;Node12 -->
<g id="edge11" class="edge">
<title>Node11&#45;&gt;Node12</title>
<path fill="none" stroke="midnightblue" d="M286.54,-10C278.12,-10 269.55,-10 261.3,-10"/>
<polygon fill="midnightblue" stroke="midnightblue" points="286.69,-13.5 296.69,-10 286.69,-6.5 286.69,-13.5"/>
</g>
<!-- Node13 -->
<g id="node13" class="node">
<title>Node13</title>
<g id="a_node13"><a xlink:href="pybind__wrapper_8cpp.html#a269acb618355873dacf057083f07eb58" target="_top" xlink:title=" ">
<polygon fill="none" stroke="black" points="0,-0.5 0,-19.5 113,-19.5 113,-0.5 0,-0.5"/>
<text text-anchor="middle" x="56.5" y="-7.5" font-family="Helvetica,sans-Serif" font-size="10.00">pybind11_init_wrapper</text>
</a>
</g>
</g>
<!-- Node12&#45;&gt;Node13 -->
<g id="edge12" class="edge">
<title>Node12&#45;&gt;Node13</title>
<path fill="none" stroke="midnightblue" d="M138.51,-10C130.15,-10 121.64,-10 113.45,-10"/>
<polygon fill="midnightblue" stroke="midnightblue" points="138.61,-13.5 148.61,-10 138.61,-6.5 138.61,-13.5"/>
</g>
</g>
</svg>
