<?xml version="1.0" encoding="UTF-8" standalone="no"?>
<!DOCTYPE svg PUBLIC "-//W3C//DTD SVG 1.1//EN"
 "http://www.w3.org/Graphics/SVG/1.1/DTD/svg11.dtd">
<!-- Generated by graphviz version 2.43.0 (0)
 -->
<!-- Title: layer_set_vptr Pages: 1 -->
<svg width="1326pt" height="427pt"
 viewBox="0.00 0.00 1326.00 427.00" xmlns="http://www.w3.org/2000/svg" xmlns:xlink="http://www.w3.org/1999/xlink">
<g id="graph0" class="graph" transform="scale(1 1) rotate(0) translate(4 423)">
<title>layer_set_vptr</title>
<!-- Node1 -->
<g id="node1" class="node">
<title>Node1</title>
<g id="a_node1"><a xlink:title="Sets a neural network layer&#39;s functions to the implementations.">
<polygon fill="#bfbfbf" stroke="black" points="1240,-152.5 1240,-171.5 1318,-171.5 1318,-152.5 1240,-152.5"/>
<text text-anchor="middle" x="1279" y="-159.5" font-family="Helvetica,sans-Serif" font-size="10.00">layer_set_vptr</text>
</a>
</g>
</g>
<!-- Node2 -->
<g id="node2" class="node">
<title>Node2</title>
<g id="a_node2"><a xlink:href="neural__layer_8h.html#a33f40237cec8d79bf6325b78d1f955fe" target="_top" xlink:title="Creates and initialises a new layer.">
<polygon fill="none" stroke="black" points="1145.5,-228.5 1145.5,-247.5 1201.5,-247.5 1201.5,-228.5 1145.5,-228.5"/>
<text text-anchor="middle" x="1173.5" y="-235.5" font-family="Helvetica,sans-Serif" font-size="10.00">layer_init</text>
</a>
</g>
</g>
<!-- Node1&#45;&gt;Node2 -->
<g id="edge1" class="edge">
<title>Node1&#45;&gt;Node2</title>
<path fill="none" stroke="midnightblue" d="M1256.66,-177.67C1235.85,-192.95 1204.87,-215.7 1187.5,-228.45"/>
<polygon fill="midnightblue" stroke="midnightblue" points="1258.9,-180.37 1264.89,-171.63 1254.76,-174.72 1258.9,-180.37"/>
</g>
<!-- Node30 -->
<g id="node30" class="node">
<title>Node30</title>
<g id="a_node30"><a xlink:href="neural__layer_8h.html#a69ce571bb41dc2df362e3987fe595b63" target="_top" xlink:title="Reads the layer from a file.">
<polygon fill="none" stroke="black" points="1143,-114.5 1143,-133.5 1204,-133.5 1204,-114.5 1143,-114.5"/>
<text text-anchor="middle" x="1173.5" y="-121.5" font-family="Helvetica,sans-Serif" font-size="10.00">layer_load</text>
</a>
</g>
</g>
<!-- Node1&#45;&gt;Node30 -->
<g id="edge31" class="edge">
<title>Node1&#45;&gt;Node30</title>
<path fill="none" stroke="midnightblue" d="M1242.27,-148.88C1228.58,-143.86 1213.23,-138.22 1200.61,-133.59"/>
<polygon fill="midnightblue" stroke="midnightblue" points="1241.29,-152.25 1251.88,-152.41 1243.7,-145.68 1241.29,-152.25"/>
</g>
<!-- Node3 -->
<g id="node3" class="node">
<title>Node3</title>
<g id="a_node3"><a xlink:href="neural_8c.html#a6466387dd7c533e0f15da4c2127bfd79" target="_top" xlink:title="Initialises and creates a new neural network from a parameter list.">
<polygon fill="none" stroke="black" points="999.5,-323.5 999.5,-342.5 1074.5,-342.5 1074.5,-323.5 999.5,-323.5"/>
<text text-anchor="middle" x="1037" y="-330.5" font-family="Helvetica,sans-Serif" font-size="10.00">neural_create</text>
</a>
</g>
</g>
<!-- Node2&#45;&gt;Node3 -->
<g id="edge2" class="edge">
<title>Node2&#45;&gt;Node3</title>
<path fill="none" stroke="midnightblue" d="M1161.41,-256.21C1149.91,-273.58 1130.35,-299.23 1107,-314 1097.34,-320.11 1085.71,-324.28 1074.78,-327.12"/>
<polygon fill="midnightblue" stroke="midnightblue" points="1164.52,-257.85 1166.95,-247.53 1158.62,-254.08 1164.52,-257.85"/>
</g>
<!-- Node22 -->
<g id="node22" class="node">
<title>Node22</title>
<g id="a_node22"><a xlink:href="neural__layer__lstm_8c.html#ae10001d478d05d7503e4ce76e02cbf6b" target="_top" xlink:title="Initialises a long short&#45;term memory layer.">
<polygon fill="none" stroke="black" points="981.5,-285.5 981.5,-304.5 1092.5,-304.5 1092.5,-285.5 981.5,-285.5"/>
<text text-anchor="middle" x="1037" y="-292.5" font-family="Helvetica,sans-Serif" font-size="10.00">neural_layer_lstm_init</text>
</a>
</g>
</g>
<!-- Node2&#45;&gt;Node22 -->
<g id="edge23" class="edge">
<title>Node2&#45;&gt;Node22</title>
<path fill="none" stroke="midnightblue" d="M1149.82,-253.1C1137.54,-260.77 1121.88,-269.76 1107,-276 1098.29,-279.65 1088.67,-282.81 1079.45,-285.45"/>
<polygon fill="midnightblue" stroke="midnightblue" points="1151.94,-255.9 1158.48,-247.56 1148.17,-250 1151.94,-255.9"/>
</g>
<!-- Node23 -->
<g id="node23" class="node">
<title>Node23</title>
<g id="a_node23"><a xlink:href="neural__layer__recurrent_8c.html#a74274033f3a8272fb8aae4366f93d74c" target="_top" xlink:title="Initialises a recurrent layer.">
<polygon fill="none" stroke="black" points="971.5,-247.5 971.5,-266.5 1102.5,-266.5 1102.5,-247.5 971.5,-247.5"/>
<text text-anchor="middle" x="1037" y="-254.5" font-family="Helvetica,sans-Serif" font-size="10.00">neural_layer_recurrent_init</text>
</a>
</g>
</g>
<!-- Node2&#45;&gt;Node23 -->
<g id="edge24" class="edge">
<title>Node2&#45;&gt;Node23</title>
<path fill="none" stroke="midnightblue" d="M1135.21,-243.27C1125.1,-244.7 1113.86,-246.28 1102.7,-247.86"/>
<polygon fill="midnightblue" stroke="midnightblue" points="1135.87,-246.71 1145.28,-241.84 1134.89,-239.78 1135.87,-246.71"/>
</g>
<!-- Node24 -->
<g id="node24" class="node">
<title>Node24</title>
<g id="a_node24"><a xlink:href="pred__neural_8c.html#aa639a9130cac0c222bca241f86d6c135" target="_top" xlink:title="Removes prediction (decoder) layers and inserts softmax output layer.">
<polygon fill="none" stroke="black" points="967,-209.5 967,-228.5 1107,-228.5 1107,-209.5 967,-209.5"/>
<text text-anchor="middle" x="1037" y="-216.5" font-family="Helvetica,sans-Serif" font-size="10.00">pred_neural_ae_to_classifier</text>
</a>
</g>
</g>
<!-- Node2&#45;&gt;Node24 -->
<g id="edge25" class="edge">
<title>Node2&#45;&gt;Node24</title>
<path fill="none" stroke="midnightblue" d="M1135.26,-232.74C1125.99,-231.43 1115.75,-229.98 1105.51,-228.54"/>
<polygon fill="midnightblue" stroke="midnightblue" points="1134.89,-236.22 1145.28,-234.16 1135.87,-229.29 1134.89,-236.22"/>
</g>
<!-- Node27 -->
<g id="node27" class="node">
<title>Node27</title>
<g id="a_node27"><a xlink:href="pred__neural_8c.html#ab573aaed6ff7623e99afe1d1f6e00919" target="_top" xlink:title="Creates and inserts a hidden layer before the prediction output layer.">
<polygon fill="none" stroke="black" points="985,-171.5 985,-190.5 1089,-190.5 1089,-171.5 985,-171.5"/>
<text text-anchor="middle" x="1037" y="-178.5" font-family="Helvetica,sans-Serif" font-size="10.00">pred_neural_expand</text>
</a>
</g>
</g>
<!-- Node2&#45;&gt;Node27 -->
<g id="edge28" class="edge">
<title>Node2&#45;&gt;Node27</title>
<path fill="none" stroke="midnightblue" d="M1149.82,-222.9C1137.54,-215.23 1121.88,-206.24 1107,-200 1098.29,-196.35 1088.67,-193.19 1079.45,-190.55"/>
<polygon fill="midnightblue" stroke="midnightblue" points="1148.17,-226 1158.48,-228.44 1151.94,-220.1 1148.17,-226"/>
</g>
<!-- Node4 -->
<g id="node4" class="node">
<title>Node4</title>
<g id="a_node4"><a xlink:href="act__neural_8c.html#abbdbc4d92f139ccc9816289233dbf934" target="_top" xlink:title="Creates and initialises an action neural network.">
<polygon fill="none" stroke="black" points="832.5,-399.5 832.5,-418.5 912.5,-418.5 912.5,-399.5 832.5,-399.5"/>
<text text-anchor="middle" x="872.5" y="-406.5" font-family="Helvetica,sans-Serif" font-size="10.00">act_neural_init</text>
</a>
</g>
</g>
<!-- Node3&#45;&gt;Node4 -->
<g id="edge3" class="edge">
<title>Node3&#45;&gt;Node4</title>
<path fill="none" stroke="midnightblue" d="M1011.6,-347.87C990.71,-360.2 959.56,-377.65 931,-390 922.99,-393.46 914.13,-396.68 905.81,-399.44"/>
<polygon fill="midnightblue" stroke="midnightblue" points="1013.64,-350.73 1020.43,-342.6 1010.05,-344.71 1013.64,-350.73"/>
</g>
<!-- Node5 -->
<g id="node5" class="node">
<title>Node5</title>
<g id="a_node5"><a xlink:href="cond__neural_8c.html#a16f80af76361587e6da53dd21fa05b7b" target="_top" xlink:title="Creates and initialises a neural network condition.">
<polygon fill="none" stroke="black" points="829,-361.5 829,-380.5 916,-380.5 916,-361.5 829,-361.5"/>
<text text-anchor="middle" x="872.5" y="-368.5" font-family="Helvetica,sans-Serif" font-size="10.00">cond_neural_init</text>
</a>
</g>
</g>
<!-- Node3&#45;&gt;Node5 -->
<g id="edge4" class="edge">
<title>Node3&#45;&gt;Node5</title>
<path fill="none" stroke="midnightblue" d="M989.29,-343.92C965.57,-349.47 937.03,-356.14 914.22,-361.48"/>
<polygon fill="midnightblue" stroke="midnightblue" points="990.19,-347.31 999.13,-341.62 988.59,-340.49 990.19,-347.31"/>
</g>
<!-- Node6 -->
<g id="node6" class="node">
<title>Node6</title>
<g id="a_node6"><a xlink:href="neural__layer__args_8c.html#a390bf97769999138966232a530c705e8" target="_top" xlink:title="Returns a json formatted string of the neural layer parameters.">
<polygon fill="none" stroke="black" points="814,-323.5 814,-342.5 931,-342.5 931,-323.5 814,-323.5"/>
<text text-anchor="middle" x="872.5" y="-330.5" font-family="Helvetica,sans-Serif" font-size="10.00">layer_args_json_export</text>
</a>
</g>
</g>
<!-- Node3&#45;&gt;Node6 -->
<g id="edge5" class="edge">
<title>Node3&#45;&gt;Node6</title>
<path fill="none" stroke="midnightblue" d="M988.88,-333C970.88,-333 950.15,-333 931.27,-333"/>
<polygon fill="midnightblue" stroke="midnightblue" points="989.13,-336.5 999.13,-333 989.13,-329.5 989.13,-336.5"/>
</g>
<!-- Node20 -->
<g id="node20" class="node">
<title>Node20</title>
<g id="a_node20"><a xlink:href="pred__neural_8c.html#a8ff454a2da61b52670f4b70b71da2fe8" target="_top" xlink:title="Creates and initialises a neural network prediction.">
<polygon fill="none" stroke="black" points="830,-285.5 830,-304.5 915,-304.5 915,-285.5 830,-285.5"/>
<text text-anchor="middle" x="872.5" y="-292.5" font-family="Helvetica,sans-Serif" font-size="10.00">pred_neural_init</text>
</a>
</g>
</g>
<!-- Node3&#45;&gt;Node20 -->
<g id="edge21" class="edge">
<title>Node3&#45;&gt;Node20</title>
<path fill="none" stroke="midnightblue" d="M989.29,-322.08C965.57,-316.53 937.03,-309.86 914.22,-304.52"/>
<polygon fill="midnightblue" stroke="midnightblue" points="988.59,-325.51 999.13,-324.38 990.19,-318.69 988.59,-325.51"/>
</g>
<!-- Node21 -->
<g id="node21" class="node">
<title>Node21</title>
<g id="a_node21"><a xlink:href="rule__neural_8c.html#accc0db627c6130e7c8680c008b47a2e2" target="_top" xlink:title=" ">
<polygon fill="none" stroke="black" points="818.5,-247.5 818.5,-266.5 926.5,-266.5 926.5,-247.5 818.5,-247.5"/>
<text text-anchor="middle" x="872.5" y="-254.5" font-family="Helvetica,sans-Serif" font-size="10.00">rule_neural_cond_init</text>
</a>
</g>
</g>
<!-- Node3&#45;&gt;Node21 -->
<g id="edge22" class="edge">
<title>Node3&#45;&gt;Node21</title>
<path fill="none" stroke="midnightblue" d="M989.54,-323.96C981.71,-321.4 973.89,-318.14 967,-314 947.05,-302.03 950.64,-288.47 931,-276 925.05,-272.22 918.28,-269.12 911.52,-266.6"/>
<polygon fill="midnightblue" stroke="midnightblue" points="988.82,-327.39 999.4,-326.84 990.78,-320.67 988.82,-327.39"/>
</g>
<!-- Node7 -->
<g id="node7" class="node">
<title>Node7</title>
<g id="a_node7"><a xlink:href="action_8c.html#ae4c75dacfa854514efe71cc00515d6c0" target="_top" xlink:title="Returns a json formatted string of the action parameters.">
<polygon fill="none" stroke="black" points="647,-361.5 647,-380.5 778,-380.5 778,-361.5 647,-361.5"/>
<text text-anchor="middle" x="712.5" y="-368.5" font-family="Helvetica,sans-Serif" font-size="10.00">action_param_json_export</text>
</a>
</g>
</g>
<!-- Node6&#45;&gt;Node7 -->
<g id="edge6" class="edge">
<title>Node6&#45;&gt;Node7</title>
<path fill="none" stroke="midnightblue" d="M821.74,-344.97C799.6,-350.29 773.89,-356.48 753.08,-361.48"/>
<polygon fill="midnightblue" stroke="midnightblue" points="822.73,-348.33 831.63,-342.59 821.09,-341.52 822.73,-348.33"/>
</g>
<!-- Node18 -->
<g id="node18" class="node">
<title>Node18</title>
<g id="a_node18"><a xlink:href="condition_8c.html#ac3384a0731c16bed95c104111873c6e2" target="_top" xlink:title="Returns a json formatted string of the condition parameters.">
<polygon fill="none" stroke="black" points="650,-323.5 650,-342.5 775,-342.5 775,-323.5 650,-323.5"/>
<text text-anchor="middle" x="712.5" y="-330.5" font-family="Helvetica,sans-Serif" font-size="10.00">cond_param_json_export</text>
</a>
</g>
</g>
<!-- Node6&#45;&gt;Node18 -->
<g id="edge17" class="edge">
<title>Node6&#45;&gt;Node18</title>
<path fill="none" stroke="midnightblue" d="M803.46,-333C794.05,-333 784.43,-333 775.15,-333"/>
<polygon fill="midnightblue" stroke="midnightblue" points="803.56,-336.5 813.56,-333 803.56,-329.5 803.56,-336.5"/>
</g>
<!-- Node19 -->
<g id="node19" class="node">
<title>Node19</title>
<g id="a_node19"><a xlink:href="prediction_8c.html#afb4c9f7647df17c3b4ab748f01b5e301" target="_top" xlink:title="Returns a json formatted string of the prediction parameters.">
<polygon fill="none" stroke="black" points="651,-285.5 651,-304.5 774,-304.5 774,-285.5 651,-285.5"/>
<text text-anchor="middle" x="712.5" y="-292.5" font-family="Helvetica,sans-Serif" font-size="10.00">pred_param_json_export</text>
</a>
</g>
</g>
<!-- Node6&#45;&gt;Node19 -->
<g id="edge19" class="edge">
<title>Node6&#45;&gt;Node19</title>
<path fill="none" stroke="midnightblue" d="M821.74,-321.03C799.6,-315.71 773.89,-309.52 753.08,-304.52"/>
<polygon fill="midnightblue" stroke="midnightblue" points="821.09,-324.48 831.63,-323.41 822.73,-317.67 821.09,-324.48"/>
</g>
<!-- Node8 -->
<g id="node8" class="node">
<title>Node8</title>
<g id="a_node8"><a xlink:href="param_8c.html#a92d92fc270b6ed2e2637ccb590eb15d5" target="_top" xlink:title="Returns a json formatted string representation of the parameters.">
<polygon fill="none" stroke="black" points="512,-323.5 512,-342.5 611,-342.5 611,-323.5 512,-323.5"/>
<text text-anchor="middle" x="561.5" y="-330.5" font-family="Helvetica,sans-Serif" font-size="10.00">param_json_export</text>
</a>
</g>
</g>
<!-- Node7&#45;&gt;Node8 -->
<g id="edge7" class="edge">
<title>Node7&#45;&gt;Node8</title>
<path fill="none" stroke="midnightblue" d="M664.01,-358.89C643.26,-353.6 619.27,-347.48 599.83,-342.52"/>
<polygon fill="midnightblue" stroke="midnightblue" points="663.35,-362.33 673.9,-361.41 665.08,-355.55 663.35,-362.33"/>
</g>
<!-- Node9 -->
<g id="node9" class="node">
<title>Node9</title>
<g id="a_node9"><a xlink:href="classXCS.html#a2f70d3a3365697faaa1cf120a6485ba8" target="_top" xlink:title="Returns a dictionary of the internal parameters.">
<polygon fill="none" stroke="black" points="363,-361.5 363,-380.5 476,-380.5 476,-361.5 363,-361.5"/>
<text text-anchor="middle" x="419.5" y="-368.5" font-family="Helvetica,sans-Serif" font-size="10.00">XCS::internal_params</text>
</a>
</g>
</g>
<!-- Node8&#45;&gt;Node9 -->
<g id="edge8" class="edge">
<title>Node8&#45;&gt;Node9</title>
<path fill="none" stroke="midnightblue" d="M515.38,-345.25C496.09,-350.48 473.89,-356.51 455.82,-361.41"/>
<polygon fill="midnightblue" stroke="midnightblue" points="516.44,-348.59 525.17,-342.59 514.6,-341.83 516.44,-348.59"/>
</g>
<!-- Node10 -->
<g id="node10" class="node">
<title>Node10</title>
<g id="a_node10"><a xlink:href="param_8c.html#a1e92bde5285ed6ded96ba4af5fd27bd2" target="_top" xlink:title="Prints all XCSF parameters.">
<polygon fill="none" stroke="black" points="385.5,-323.5 385.5,-342.5 453.5,-342.5 453.5,-323.5 385.5,-323.5"/>
<text text-anchor="middle" x="419.5" y="-330.5" font-family="Helvetica,sans-Serif" font-size="10.00">param_print</text>
</a>
</g>
</g>
<!-- Node8&#45;&gt;Node10 -->
<g id="edge9" class="edge">
<title>Node8&#45;&gt;Node10</title>
<path fill="none" stroke="midnightblue" d="M501.81,-333C485.34,-333 468,-333 453.59,-333"/>
<polygon fill="midnightblue" stroke="midnightblue" points="501.93,-336.5 511.93,-333 501.93,-329.5 501.93,-336.5"/>
</g>
<!-- Node13 -->
<g id="node13" class="node">
<title>Node13</title>
<g id="a_node13"><a xlink:href="classXCS.html#ae0f45d78bb598a31d8068c3ca3242e2c" target="_top" xlink:title="Updates the Python object&#39;s parameter dictionary.">
<polygon fill="none" stroke="black" points="364.5,-285.5 364.5,-304.5 474.5,-304.5 474.5,-285.5 364.5,-285.5"/>
<text text-anchor="middle" x="419.5" y="-292.5" font-family="Helvetica,sans-Serif" font-size="10.00">XCS::update_params</text>
</a>
</g>
</g>
<!-- Node8&#45;&gt;Node13 -->
<g id="edge12" class="edge">
<title>Node8&#45;&gt;Node13</title>
<path fill="none" stroke="midnightblue" d="M515.38,-320.75C496.09,-315.52 473.89,-309.49 455.82,-304.59"/>
<polygon fill="midnightblue" stroke="midnightblue" points="514.6,-324.17 525.17,-323.41 516.44,-317.41 514.6,-324.17"/>
</g>
<!-- Node11 -->
<g id="node11" class="node">
<title>Node11</title>
<g id="a_node11"><a xlink:href="main_8c.html#a3c04138a5bfe5d72780bb7e82a18e627" target="_top" xlink:title=" ">
<polygon fill="none" stroke="black" points="258,-361.5 258,-380.5 296,-380.5 296,-361.5 258,-361.5"/>
<text text-anchor="middle" x="277" y="-368.5" font-family="Helvetica,sans-Serif" font-size="10.00">main</text>
</a>
</g>
</g>
<!-- Node10&#45;&gt;Node11 -->
<g id="edge10" class="edge">
<title>Node10&#45;&gt;Node11</title>
<path fill="none" stroke="midnightblue" d="M375.34,-344.67C348.71,-351.88 315.95,-360.74 296.04,-366.12"/>
<polygon fill="midnightblue" stroke="midnightblue" points="376.46,-347.99 385.2,-342.01 374.64,-341.24 376.46,-347.99"/>
</g>
<!-- Node12 -->
<g id="node12" class="node">
<title>Node12</title>
<g id="a_node12"><a xlink:href="classXCS.html#a7731d72fe05a86f0d9bc67939fd56182" target="_top" xlink:title="Prints the XCSF parameters and their current values.">
<polygon fill="none" stroke="black" points="227,-323.5 227,-342.5 327,-342.5 327,-323.5 227,-323.5"/>
<text text-anchor="middle" x="277" y="-330.5" font-family="Helvetica,sans-Serif" font-size="10.00">XCS::print_params</text>
</a>
</g>
</g>
<!-- Node10&#45;&gt;Node12 -->
<g id="edge11" class="edge">
<title>Node10&#45;&gt;Node12</title>
<path fill="none" stroke="midnightblue" d="M375.03,-333C359.83,-333 342.65,-333 327.03,-333"/>
<polygon fill="midnightblue" stroke="midnightblue" points="375.2,-336.5 385.2,-333 375.2,-329.5 375.2,-336.5"/>
</g>
<!-- Node14 -->
<g id="node14" class="node">
<title>Node14</title>
<g id="a_node14"><a xlink:href="classXCS.html#a1a7ff32cb3485c0de9dd988f6f3e3470" target="_top" xlink:title="Reads the entire current state of XCSF from a file.">
<polygon fill="none" stroke="black" points="246,-285.5 246,-304.5 308,-304.5 308,-285.5 246,-285.5"/>
<text text-anchor="middle" x="277" y="-292.5" font-family="Helvetica,sans-Serif" font-size="10.00">XCS::load</text>
</a>
</g>
</g>
<!-- Node13&#45;&gt;Node14 -->
<g id="edge13" class="edge">
<title>Node13&#45;&gt;Node14</title>
<path fill="none" stroke="midnightblue" d="M353.81,-295C337.91,-295 321.61,-295 308.23,-295"/>
<polygon fill="midnightblue" stroke="midnightblue" points="354.18,-298.5 364.18,-295 354.18,-291.5 354.18,-298.5"/>
</g>
<!-- Node15 -->
<g id="node15" class="node">
<title>Node15</title>
<g id="a_node15"><a xlink:href="classXCS.html#a2e542f3f17c9c76d07045adf1f5c16f9" target="_top" xlink:title="Resets basic constructor variables.">
<polygon fill="none" stroke="black" points="244.5,-247.5 244.5,-266.5 309.5,-266.5 309.5,-247.5 244.5,-247.5"/>
<text text-anchor="middle" x="277" y="-254.5" font-family="Helvetica,sans-Serif" font-size="10.00">XCS::reset</text>
</a>
</g>
</g>
<!-- Node13&#45;&gt;Node15 -->
<g id="edge14" class="edge">
<title>Node13&#45;&gt;Node15</title>
<path fill="none" stroke="midnightblue" d="M373.17,-282.74C352.43,-277.13 328.35,-270.62 309.61,-265.55"/>
<polygon fill="midnightblue" stroke="midnightblue" points="372.48,-286.18 383.05,-285.41 374.31,-279.42 372.48,-286.18"/>
</g>
<!-- Node16 -->
<g id="node16" class="node">
<title>Node16</title>
<g id="a_node16"><a xlink:href="classXCS.html#a8a53a8df81152fbf73e6abcc6a6e56b4" target="_top" xlink:title="Default Constructor.">
<polygon fill="none" stroke="black" points="126,-247.5 126,-266.5 191,-266.5 191,-247.5 126,-247.5"/>
<text text-anchor="middle" x="158.5" y="-254.5" font-family="Helvetica,sans-Serif" font-size="10.00">XCS::XCS</text>
</a>
</g>
</g>
<!-- Node15&#45;&gt;Node16 -->
<g id="edge15" class="edge">
<title>Node15&#45;&gt;Node16</title>
<path fill="none" stroke="midnightblue" d="M234.39,-257C220.12,-257 204.39,-257 191.05,-257"/>
<polygon fill="midnightblue" stroke="midnightblue" points="234.47,-260.5 244.47,-257 234.47,-253.5 234.47,-260.5"/>
</g>
<!-- Node17 -->
<g id="node17" class="node">
<title>Node17</title>
<g id="a_node17"><a xlink:href="classXCS.html#a71b21201e1a2aef16702a2c308eb6683" target="_top" xlink:title="Implements pickle file reading.">
<polygon fill="none" stroke="black" points="0,-247.5 0,-266.5 90,-266.5 90,-247.5 0,-247.5"/>
<text text-anchor="middle" x="45" y="-254.5" font-family="Helvetica,sans-Serif" font-size="10.00">XCS::deserialize</text>
</a>
</g>
</g>
<!-- Node16&#45;&gt;Node17 -->
<g id="edge16" class="edge">
<title>Node16&#45;&gt;Node17</title>
<path fill="none" stroke="midnightblue" d="M115.63,-257C107.33,-257 98.59,-257 90.22,-257"/>
<polygon fill="midnightblue" stroke="midnightblue" points="115.85,-260.5 125.85,-257 115.85,-253.5 115.85,-260.5"/>
</g>
<!-- Node18&#45;&gt;Node8 -->
<g id="edge18" class="edge">
<title>Node18&#45;&gt;Node8</title>
<path fill="none" stroke="midnightblue" d="M639.33,-333C629.82,-333 620.26,-333 611.26,-333"/>
<polygon fill="midnightblue" stroke="midnightblue" points="639.61,-336.5 649.61,-333 639.6,-329.5 639.61,-336.5"/>
</g>
<!-- Node19&#45;&gt;Node8 -->
<g id="edge20" class="edge">
<title>Node19&#45;&gt;Node8</title>
<path fill="none" stroke="midnightblue" d="M664.01,-307.11C643.26,-312.4 619.27,-318.52 599.83,-323.48"/>
<polygon fill="midnightblue" stroke="midnightblue" points="665.08,-310.45 673.9,-304.59 663.35,-303.67 665.08,-310.45"/>
</g>
<!-- Node25 -->
<g id="node25" class="node">
<title>Node25</title>
<g id="a_node25"><a xlink:href="xcsf_8c.html#ad77461184a11780681798ac593b090ab" target="_top" xlink:title="Switches from autoencoding to classification.">
<polygon fill="none" stroke="black" points="818,-209.5 818,-228.5 927,-228.5 927,-209.5 818,-209.5"/>
<text text-anchor="middle" x="872.5" y="-216.5" font-family="Helvetica,sans-Serif" font-size="10.00">xcsf_ae_to_classifier</text>
</a>
</g>
</g>
<!-- Node24&#45;&gt;Node25 -->
<g id="edge26" class="edge">
<title>Node24&#45;&gt;Node25</title>
<path fill="none" stroke="midnightblue" d="M956.41,-219C946.59,-219 936.73,-219 927.42,-219"/>
<polygon fill="midnightblue" stroke="midnightblue" points="956.61,-222.5 966.61,-219 956.61,-215.5 956.61,-222.5"/>
</g>
<!-- Node26 -->
<g id="node26" class="node">
<title>Node26</title>
<g id="a_node26"><a xlink:href="classXCS.html#ad73009d926d395ee03bf7586f194fcbe" target="_top" xlink:title="Switches from autoencoding to classification.">
<polygon fill="none" stroke="black" points="656.5,-209.5 656.5,-228.5 768.5,-228.5 768.5,-209.5 656.5,-209.5"/>
<text text-anchor="middle" x="712.5" y="-216.5" font-family="Helvetica,sans-Serif" font-size="10.00">XCS::ae_to_classifier</text>
</a>
</g>
</g>
<!-- Node25&#45;&gt;Node26 -->
<g id="edge27" class="edge">
<title>Node25&#45;&gt;Node26</title>
<path fill="none" stroke="midnightblue" d="M807.38,-219C794.5,-219 781.07,-219 768.53,-219"/>
<polygon fill="midnightblue" stroke="midnightblue" points="807.57,-222.5 817.57,-219 807.57,-215.5 807.57,-222.5"/>
</g>
<!-- Node28 -->
<g id="node28" class="node">
<title>Node28</title>
<g id="a_node28"><a xlink:href="xcsf_8c.html#a6bb93a888da68d6397ce63fb58428237" target="_top" xlink:title="Inserts a new hidden layer before the output layer within all prediction neural networks in the popul...">
<polygon fill="none" stroke="black" points="824.5,-171.5 824.5,-190.5 920.5,-190.5 920.5,-171.5 824.5,-171.5"/>
<text text-anchor="middle" x="872.5" y="-178.5" font-family="Helvetica,sans-Serif" font-size="10.00">xcsf_pred_expand</text>
</a>
</g>
</g>
<!-- Node27&#45;&gt;Node28 -->
<g id="edge29" class="edge">
<title>Node27&#45;&gt;Node28</title>
<path fill="none" stroke="midnightblue" d="M974.31,-181C956.54,-181 937.46,-181 920.72,-181"/>
<polygon fill="midnightblue" stroke="midnightblue" points="974.58,-184.5 984.58,-181 974.58,-177.5 974.58,-184.5"/>
</g>
<!-- Node29 -->
<g id="node29" class="node">
<title>Node29</title>
<g id="a_node29"><a xlink:href="classXCS.html#aa4d00c1db4ef961055b74f231cbd39f0" target="_top" xlink:title="Inserts a new hidden layer before the output layer within all prediction neural networks in the popul...">
<polygon fill="none" stroke="black" points="663,-171.5 663,-190.5 762,-190.5 762,-171.5 663,-171.5"/>
<text text-anchor="middle" x="712.5" y="-178.5" font-family="Helvetica,sans-Serif" font-size="10.00">XCS::pred_expand</text>
</a>
</g>
</g>
<!-- Node28&#45;&gt;Node29 -->
<g id="edge30" class="edge">
<title>Node28&#45;&gt;Node29</title>
<path fill="none" stroke="midnightblue" d="M813.77,-181C796.86,-181 778.54,-181 762.24,-181"/>
<polygon fill="midnightblue" stroke="midnightblue" points="814.09,-184.5 824.09,-181 814.09,-177.5 814.09,-184.5"/>
</g>
<!-- Node31 -->
<g id="node31" class="node">
<title>Node31</title>
<g id="a_node31"><a xlink:href="neural__layer__lstm_8c.html#a6f8cf6bf022b03c7513b8360002720af" target="_top" xlink:title="Reads an LSTM layer from a file.">
<polygon fill="none" stroke="black" points="979,-133.5 979,-152.5 1095,-152.5 1095,-133.5 979,-133.5"/>
<text text-anchor="middle" x="1037" y="-140.5" font-family="Helvetica,sans-Serif" font-size="10.00">neural_layer_lstm_load</text>
</a>
</g>
</g>
<!-- Node30&#45;&gt;Node31 -->
<g id="edge32" class="edge">
<title>Node30&#45;&gt;Node31</title>
<path fill="none" stroke="midnightblue" d="M1132.96,-129.59C1121.1,-131.26 1107.84,-133.13 1095.08,-134.94"/>
<polygon fill="midnightblue" stroke="midnightblue" points="1133.57,-133.03 1142.98,-128.17 1132.59,-126.1 1133.57,-133.03"/>
</g>
<!-- Node32 -->
<g id="node32" class="node">
<title>Node32</title>
<g id="a_node32"><a xlink:href="neural__layer__recurrent_8c.html#a2492453a3912b4d17ecd3edf142069de" target="_top" xlink:title="Reads a recurrent layer from a file.">
<polygon fill="none" stroke="black" points="969,-95.5 969,-114.5 1105,-114.5 1105,-95.5 969,-95.5"/>
<text text-anchor="middle" x="1037" y="-102.5" font-family="Helvetica,sans-Serif" font-size="10.00">neural_layer_recurrent_load</text>
</a>
</g>
</g>
<!-- Node30&#45;&gt;Node32 -->
<g id="edge33" class="edge">
<title>Node30&#45;&gt;Node32</title>
<path fill="none" stroke="midnightblue" d="M1133.08,-118.43C1124.3,-117.19 1114.75,-115.84 1105.21,-114.49"/>
<polygon fill="midnightblue" stroke="midnightblue" points="1132.59,-121.9 1142.98,-119.83 1133.57,-114.97 1132.59,-121.9"/>
</g>
<!-- Node33 -->
<g id="node33" class="node">
<title>Node33</title>
<g id="a_node33"><a xlink:href="neural_8c.html#a7cb2bd3f18f66f9ccd9512b9d35d6d08" target="_top" xlink:title="Reads a neural network from a file.">
<polygon fill="none" stroke="black" points="1004,-57.5 1004,-76.5 1070,-76.5 1070,-57.5 1004,-57.5"/>
<text text-anchor="middle" x="1037" y="-64.5" font-family="Helvetica,sans-Serif" font-size="10.00">neural_load</text>
</a>
</g>
</g>
<!-- Node30&#45;&gt;Node33 -->
<g id="edge34" class="edge">
<title>Node30&#45;&gt;Node33</title>
<path fill="none" stroke="midnightblue" d="M1149.82,-108.9C1137.54,-101.23 1121.88,-92.24 1107,-86 1095.31,-81.1 1081.99,-77.09 1070.18,-74.03"/>
<polygon fill="midnightblue" stroke="midnightblue" points="1148.17,-112 1158.48,-114.44 1151.94,-106.1 1148.17,-112"/>
</g>
<!-- Node34 -->
<g id="node34" class="node">
<title>Node34</title>
<g id="a_node34"><a xlink:href="act__neural_8c.html#a241289b5c61dec98b854ee24fdf16d67" target="_top" xlink:title="Reads a neural network action from a file.">
<polygon fill="none" stroke="black" points="830,-114.5 830,-133.5 915,-133.5 915,-114.5 830,-114.5"/>
<text text-anchor="middle" x="872.5" y="-121.5" font-family="Helvetica,sans-Serif" font-size="10.00">act_neural_load</text>
</a>
</g>
</g>
<!-- Node33&#45;&gt;Node34 -->
<g id="edge35" class="edge">
<title>Node33&#45;&gt;Node34</title>
<path fill="none" stroke="midnightblue" d="M994.26,-76.93C985.15,-79.52 975.65,-82.57 967,-86 950.18,-92.66 947.65,-97.92 931,-105 922.87,-108.46 913.89,-111.69 905.49,-114.48"/>
<polygon fill="midnightblue" stroke="midnightblue" points="995.2,-80.3 1003.92,-74.29 993.36,-73.54 995.2,-80.3"/>
</g>
<!-- Node35 -->
<g id="node35" class="node">
<title>Node35</title>
<g id="a_node35"><a xlink:href="cond__neural_8c.html#a8decac2646ea64aba95cd8522d295c83" target="_top" xlink:title="Reads a neural network condition from a file.">
<polygon fill="none" stroke="black" points="826.5,-76.5 826.5,-95.5 918.5,-95.5 918.5,-76.5 826.5,-76.5"/>
<text text-anchor="middle" x="872.5" y="-83.5" font-family="Helvetica,sans-Serif" font-size="10.00">cond_neural_load</text>
</a>
</g>
</g>
<!-- Node33&#45;&gt;Node35 -->
<g id="edge36" class="edge">
<title>Node33&#45;&gt;Node35</title>
<path fill="none" stroke="midnightblue" d="M993.74,-71.94C970.72,-74.63 942.23,-77.96 918.76,-80.71"/>
<polygon fill="midnightblue" stroke="midnightblue" points="994.37,-75.39 1003.9,-70.75 993.56,-68.44 994.37,-75.39"/>
</g>
<!-- Node36 -->
<g id="node36" class="node">
<title>Node36</title>
<g id="a_node36"><a xlink:href="pred__neural_8c.html#aee98eff48767b879343983d0717952cc" target="_top" xlink:title="Reads a neural network prediction from a file.">
<polygon fill="none" stroke="black" points="827.5,-38.5 827.5,-57.5 917.5,-57.5 917.5,-38.5 827.5,-38.5"/>
<text text-anchor="middle" x="872.5" y="-45.5" font-family="Helvetica,sans-Serif" font-size="10.00">pred_neural_load</text>
</a>
</g>
</g>
<!-- Node33&#45;&gt;Node36 -->
<g id="edge37" class="edge">
<title>Node33&#45;&gt;Node36</title>
<path fill="none" stroke="midnightblue" d="M993.9,-62.08C970.45,-59.34 941.28,-55.93 917.53,-53.15"/>
<polygon fill="midnightblue" stroke="midnightblue" points="993.56,-65.56 1003.9,-63.25 994.37,-58.61 993.56,-65.56"/>
</g>
<!-- Node37 -->
<g id="node37" class="node">
<title>Node37</title>
<g id="a_node37"><a xlink:href="rule__neural_8c.html#a0e1e69e3c01307e2423a9c3c05409d63" target="_top" xlink:title=" ">
<polygon fill="none" stroke="black" points="816,-0.5 816,-19.5 929,-19.5 929,-0.5 816,-0.5"/>
<text text-anchor="middle" x="872.5" y="-7.5" font-family="Helvetica,sans-Serif" font-size="10.00">rule_neural_cond_load</text>
</a>
</g>
</g>
<!-- Node33&#45;&gt;Node37 -->
<g id="edge38" class="edge">
<title>Node33&#45;&gt;Node37</title>
<path fill="none" stroke="midnightblue" d="M1000.7,-53.94C980.37,-46.5 954.3,-37.06 931,-29 921.86,-25.84 911.86,-22.49 902.81,-19.51"/>
<polygon fill="midnightblue" stroke="midnightblue" points="999.59,-57.27 1010.18,-57.43 1002,-50.69 999.59,-57.27"/>
</g>
</g>
</svg>
