<?xml version="1.0" encoding="UTF-8" standalone="no"?>
<!DOCTYPE svg PUBLIC "-//W3C//DTD SVG 1.1//EN"
 "http://www.w3.org/Graphics/SVG/1.1/DTD/svg11.dtd">
<!-- Generated by graphviz version 2.43.0 (0)
 -->
<!-- Title: neural_layer_lstm_backward Pages: 1 -->
<svg width="545pt" height="826pt"
 viewBox="0.00 0.00 545.00 826.00" xmlns="http://www.w3.org/2000/svg" xmlns:xlink="http://www.w3.org/1999/xlink">
<g id="graph0" class="graph" transform="scale(1 1) rotate(0) translate(4 822)">
<title>neural_layer_lstm_backward</title>
<!-- Node1 -->
<g id="node1" class="node">
<title>Node1</title>
<g id="a_node1"><a xlink:title="Backward propagates an LSTM layer.">
<polygon fill="#bfbfbf" stroke="black" points="0,-608.5 0,-627.5 140,-627.5 140,-608.5 0,-608.5"/>
<text text-anchor="middle" x="70" y="-615.5" font-family="Helvetica,sans-Serif" font-size="10.00">neural_layer_lstm_backward</text>
</a>
</g>
</g>
<!-- Node2 -->
<g id="node2" class="node">
<title>Node2</title>
<g id="a_node2"><a xlink:href="blas_8c.html#ad4fa7c98f973bedeaf96fa3757229876" target="_top" xlink:title="Multiplies vector X by the scalar ALPHA and adds it to the vector Y.">
<polygon fill="none" stroke="black" points="200.5,-703.5 200.5,-722.5 261.5,-722.5 261.5,-703.5 200.5,-703.5"/>
<text text-anchor="middle" x="231" y="-710.5" font-family="Helvetica,sans-Serif" font-size="10.00">blas_axpy</text>
</a>
</g>
</g>
<!-- Node1&#45;&gt;Node2 -->
<g id="edge1" class="edge">
<title>Node1&#45;&gt;Node2</title>
<path fill="none" stroke="midnightblue" d="M81.94,-627.58C100.29,-643.26 138.92,-674.58 176,-694 180.67,-696.44 185.72,-698.69 190.79,-700.72"/>
<polygon fill="midnightblue" stroke="midnightblue" points="189.89,-704.12 200.49,-704.34 192.34,-697.56 189.89,-704.12"/>
</g>
<!-- Node3 -->
<g id="node3" class="node">
<title>Node3</title>
<g id="a_node3"><a xlink:href="blas_8c.html#adfdbb2f078abcca5ca746f30a0bed04a" target="_top" xlink:title="Multiplies vector X by the vector Y and stores the result in vector Y.">
<polygon fill="none" stroke="black" points="203,-665.5 203,-684.5 259,-684.5 259,-665.5 203,-665.5"/>
<text text-anchor="middle" x="231" y="-672.5" font-family="Helvetica,sans-Serif" font-size="10.00">blas_mul</text>
</a>
</g>
</g>
<!-- Node1&#45;&gt;Node3 -->
<g id="edge2" class="edge">
<title>Node1&#45;&gt;Node3</title>
<path fill="none" stroke="midnightblue" d="M97.3,-627.59C118.52,-635.31 149.16,-646.42 176,-656 181.58,-657.99 187.48,-660.08 193.26,-662.12"/>
<polygon fill="midnightblue" stroke="midnightblue" points="192.19,-665.46 202.79,-665.48 194.52,-658.86 192.19,-665.46"/>
</g>
<!-- Node4 -->
<g id="node4" class="node">
<title>Node4</title>
<g id="a_node4"><a xlink:href="neural__layer_8h.html#a6966544bb6a9a50c006d6d39083434ae" target="_top" xlink:title="Backward propagates the error through a layer.">
<polygon fill="none" stroke="black" points="188.5,-627.5 188.5,-646.5 273.5,-646.5 273.5,-627.5 188.5,-627.5"/>
<text text-anchor="middle" x="231" y="-634.5" font-family="Helvetica,sans-Serif" font-size="10.00">layer_backward</text>
</a>
</g>
</g>
<!-- Node1&#45;&gt;Node4 -->
<g id="edge3" class="edge">
<title>Node1&#45;&gt;Node4</title>
<path fill="none" stroke="midnightblue" d="M140.28,-626.28C153.09,-627.81 166.27,-629.38 178.44,-630.84"/>
<polygon fill="midnightblue" stroke="midnightblue" points="178.06,-634.32 188.4,-632.03 178.89,-627.37 178.06,-634.32"/>
</g>
<!-- Node5 -->
<g id="node5" class="node">
<title>Node5</title>
<g id="a_node5"><a xlink:href="neural__activations_8c.html#acef0d15cd01c7dcc5a4d6d8bdc1d8bad" target="_top" xlink:title="Applies an activation function to a vector of neuron states.">
<polygon fill="none" stroke="black" points="176,-589.5 176,-608.5 286,-608.5 286,-589.5 176,-589.5"/>
<text text-anchor="middle" x="231" y="-596.5" font-family="Helvetica,sans-Serif" font-size="10.00">neural_activate_array</text>
</a>
</g>
</g>
<!-- Node1&#45;&gt;Node5 -->
<g id="edge4" class="edge">
<title>Node1&#45;&gt;Node5</title>
<path fill="none" stroke="midnightblue" d="M140.28,-609.72C148.73,-608.71 157.33,-607.68 165.7,-606.68"/>
<polygon fill="midnightblue" stroke="midnightblue" points="166.26,-610.14 175.77,-605.48 165.43,-603.19 166.26,-610.14"/>
</g>
<!-- Node19 -->
<g id="node19" class="node">
<title>Node19</title>
<g id="a_node19"><a xlink:href="neural__activations_8c.html#a5ccdc55bfed79e093028c3670f3009fd" target="_top" xlink:title="Applies a gradient function to a vector of neuron states.">
<polygon fill="none" stroke="black" points="176,-551.5 176,-570.5 286,-570.5 286,-551.5 176,-551.5"/>
<text text-anchor="middle" x="231" y="-558.5" font-family="Helvetica,sans-Serif" font-size="10.00">neural_gradient_array</text>
</a>
</g>
</g>
<!-- Node1&#45;&gt;Node19 -->
<g id="edge18" class="edge">
<title>Node1&#45;&gt;Node19</title>
<path fill="none" stroke="midnightblue" d="M97.3,-608.41C118.52,-600.69 149.16,-589.58 176,-580 181.58,-578.01 187.48,-575.92 193.26,-573.88"/>
<polygon fill="midnightblue" stroke="midnightblue" points="194.52,-577.14 202.79,-570.52 192.19,-570.54 194.52,-577.14"/>
</g>
<!-- Node32 -->
<g id="node32" class="node">
<title>Node32</title>
<g id="a_node32"><a xlink:href="neural__layer__lstm_8c.html#aa63ab6a035fefb9f181ead7eafc58e69" target="_top" xlink:title="Zeros the deltas used to update an LSTM layer.">
<polygon fill="none" stroke="black" points="183,-513.5 183,-532.5 279,-532.5 279,-513.5 183,-513.5"/>
<text text-anchor="middle" x="231" y="-520.5" font-family="Helvetica,sans-Serif" font-size="10.00">reset_layer_deltas</text>
</a>
</g>
</g>
<!-- Node1&#45;&gt;Node32 -->
<g id="edge31" class="edge">
<title>Node1&#45;&gt;Node32</title>
<path fill="none" stroke="midnightblue" d="M81.94,-608.42C100.29,-592.74 138.92,-561.42 176,-542 179.97,-539.92 184.22,-537.98 188.52,-536.21"/>
<polygon fill="midnightblue" stroke="midnightblue" points="189.88,-539.43 197.94,-532.57 187.35,-532.9 189.88,-539.43"/>
</g>
<!-- Node6 -->
<g id="node6" class="node">
<title>Node6</title>
<g id="a_node6"><a xlink:href="utils_8h.html#a234dd9ca33bcf1fba3e675bc900abc88" target="_top" xlink:title="Returns a float clamped within the specified range.">
<polygon fill="none" stroke="black" points="342,-627.5 342,-646.5 385,-646.5 385,-627.5 342,-627.5"/>
<text text-anchor="middle" x="363.5" y="-634.5" font-family="Helvetica,sans-Serif" font-size="10.00">clamp</text>
</a>
</g>
</g>
<!-- Node5&#45;&gt;Node6 -->
<g id="edge5" class="edge">
<title>Node5&#45;&gt;Node6</title>
<path fill="none" stroke="midnightblue" d="M264.93,-608.59C285.6,-614.61 312.06,-622.31 332.21,-628.18"/>
<polygon fill="midnightblue" stroke="midnightblue" points="331.24,-631.54 341.82,-630.98 333.2,-624.82 331.24,-631.54"/>
</g>
<!-- Node7 -->
<g id="node7" class="node">
<title>Node7</title>
<g id="a_node7"><a xlink:href="neural__activations_8c.html#a00b26b831c9b6ad65114ee7c1dd6760e" target="_top" xlink:title="Returns the result from applying a specified activation function.">
<polygon fill="none" stroke="black" points="322,-589.5 322,-608.5 405,-608.5 405,-589.5 322,-589.5"/>
<text text-anchor="middle" x="363.5" y="-596.5" font-family="Helvetica,sans-Serif" font-size="10.00">neural_activate</text>
</a>
</g>
</g>
<!-- Node5&#45;&gt;Node7 -->
<g id="edge6" class="edge">
<title>Node5&#45;&gt;Node7</title>
<path fill="none" stroke="midnightblue" d="M286.21,-599C294.67,-599 303.39,-599 311.77,-599"/>
<polygon fill="midnightblue" stroke="midnightblue" points="311.79,-602.5 321.79,-599 311.79,-595.5 311.79,-602.5"/>
</g>
<!-- Node8 -->
<g id="node8" class="node">
<title>Node8</title>
<g id="a_node8"><a xlink:href="neural__activations_8h.html#a2a1911ebfe2cce90f9b909d685a59d15" target="_top" xlink:title=" ">
<polygon fill="none" stroke="black" points="453,-798.5 453,-817.5 525,-817.5 525,-798.5 453,-798.5"/>
<text text-anchor="middle" x="489" y="-805.5" font-family="Helvetica,sans-Serif" font-size="10.00">cos_activate</text>
</a>
</g>
</g>
<!-- Node7&#45;&gt;Node8 -->
<g id="edge7" class="edge">
<title>Node7&#45;&gt;Node8</title>
<path fill="none" stroke="midnightblue" d="M393.87,-608.69C398.09,-611.16 402.01,-614.23 405,-618 453.22,-678.88 391.14,-729.45 441,-789 441.99,-790.18 443.06,-791.29 444.2,-792.33"/>
<polygon fill="midnightblue" stroke="midnightblue" points="442.37,-795.32 452.56,-798.25 446.42,-789.61 442.37,-795.32"/>
</g>
<!-- Node9 -->
<g id="node9" class="node">
<title>Node9</title>
<g id="a_node9"><a xlink:href="neural__activations_8h.html#a5a67647a321713d6ac1586b89dcdceb0" target="_top" xlink:title=" ">
<polygon fill="none" stroke="black" points="441.5,-760.5 441.5,-779.5 536.5,-779.5 536.5,-760.5 441.5,-760.5"/>
<text text-anchor="middle" x="489" y="-767.5" font-family="Helvetica,sans-Serif" font-size="10.00">gaussian_activate</text>
</a>
</g>
</g>
<!-- Node7&#45;&gt;Node9 -->
<g id="edge8" class="edge">
<title>Node7&#45;&gt;Node9</title>
<path fill="none" stroke="midnightblue" d="M393.28,-608.61C397.68,-611.1 401.8,-614.19 405,-618 444.37,-664.91 400.37,-705.18 441,-751 442.16,-752.31 443.43,-753.54 444.78,-754.68"/>
<polygon fill="midnightblue" stroke="midnightblue" points="442.97,-757.68 453.22,-760.34 446.87,-751.86 442.97,-757.68"/>
</g>
<!-- Node10 -->
<g id="node10" class="node">
<title>Node10</title>
<g id="a_node10"><a xlink:href="neural__activations_8h.html#aca09887967da390ec55c3f4a1f2dee48" target="_top" xlink:title=" ">
<polygon fill="none" stroke="black" points="449,-722.5 449,-741.5 529,-741.5 529,-722.5 449,-722.5"/>
<text text-anchor="middle" x="489" y="-729.5" font-family="Helvetica,sans-Serif" font-size="10.00">leaky_activate</text>
</a>
</g>
</g>
<!-- Node7&#45;&gt;Node10 -->
<g id="edge9" class="edge">
<title>Node7&#45;&gt;Node10</title>
<path fill="none" stroke="midnightblue" d="M392.56,-608.65C397.14,-611.16 401.52,-614.24 405,-618 435.68,-651.12 409.42,-680.72 441,-713 442.38,-714.42 443.89,-715.73 445.48,-716.95"/>
<polygon fill="midnightblue" stroke="midnightblue" points="443.69,-719.96 454.03,-722.28 447.4,-714.02 443.69,-719.96"/>
</g>
<!-- Node11 -->
<g id="node11" class="node">
<title>Node11</title>
<g id="a_node11"><a xlink:href="neural__activations_8h.html#ab867da5d496341c42b73c27ccc9b5f2b" target="_top" xlink:title=" ">
<polygon fill="none" stroke="black" points="449,-684.5 449,-703.5 529,-703.5 529,-684.5 449,-684.5"/>
<text text-anchor="middle" x="489" y="-691.5" font-family="Helvetica,sans-Serif" font-size="10.00">linear_activate</text>
</a>
</g>
</g>
<!-- Node7&#45;&gt;Node11 -->
<g id="edge10" class="edge">
<title>Node7&#45;&gt;Node11</title>
<path fill="none" stroke="midnightblue" d="M390.69,-608.6C395.77,-611.18 400.81,-614.3 405,-618 427.47,-637.83 418,-655.79 441,-675 442.95,-676.63 445.06,-678.13 447.27,-679.52"/>
<polygon fill="midnightblue" stroke="midnightblue" points="445.66,-682.63 456.13,-684.29 448.98,-676.47 445.66,-682.63"/>
</g>
<!-- Node12 -->
<g id="node12" class="node">
<title>Node12</title>
<g id="a_node12"><a xlink:href="neural__activations_8h.html#a72f509e640dc8b6e9b33af9d8d2aa023" target="_top" xlink:title=" ">
<polygon fill="none" stroke="black" points="449,-646.5 449,-665.5 529,-665.5 529,-646.5 449,-646.5"/>
<text text-anchor="middle" x="489" y="-653.5" font-family="Helvetica,sans-Serif" font-size="10.00">loggy_activate</text>
</a>
</g>
</g>
<!-- Node7&#45;&gt;Node12 -->
<g id="edge11" class="edge">
<title>Node7&#45;&gt;Node12</title>
<path fill="none" stroke="midnightblue" d="M385.61,-608.67C391.88,-611.61 398.74,-614.88 405,-618 421.19,-626.07 424.59,-629.38 441,-637 445.06,-638.89 449.36,-640.77 453.65,-642.59"/>
<polygon fill="midnightblue" stroke="midnightblue" points="452.34,-645.83 462.92,-646.41 455.01,-639.36 452.34,-645.83"/>
</g>
<!-- Node13 -->
<g id="node13" class="node">
<title>Node13</title>
<g id="a_node13"><a xlink:href="neural__activations_8h.html#ac92b3d5389aff87e855b8ae05b9ec0f9" target="_top" xlink:title=" ">
<polygon fill="none" stroke="black" points="445.5,-608.5 445.5,-627.5 532.5,-627.5 532.5,-608.5 445.5,-608.5"/>
<text text-anchor="middle" x="489" y="-615.5" font-family="Helvetica,sans-Serif" font-size="10.00">logistic_activate</text>
</a>
</g>
</g>
<!-- Node7&#45;&gt;Node13 -->
<g id="edge12" class="edge">
<title>Node7&#45;&gt;Node13</title>
<path fill="none" stroke="midnightblue" d="M405.28,-605.27C414.77,-606.73 425.01,-608.31 434.95,-609.84"/>
<polygon fill="midnightblue" stroke="midnightblue" points="434.73,-613.35 445.14,-611.41 435.79,-606.43 434.73,-613.35"/>
</g>
<!-- Node14 -->
<g id="node14" class="node">
<title>Node14</title>
<g id="a_node14"><a xlink:href="neural__activations_8h.html#a36d1fc0c7b2462a22d82d41138bd79eb" target="_top" xlink:title=" ">
<polygon fill="none" stroke="black" points="453,-570.5 453,-589.5 525,-589.5 525,-570.5 453,-570.5"/>
<text text-anchor="middle" x="489" y="-577.5" font-family="Helvetica,sans-Serif" font-size="10.00">relu_activate</text>
</a>
</g>
</g>
<!-- Node7&#45;&gt;Node14 -->
<g id="edge13" class="edge">
<title>Node7&#45;&gt;Node14</title>
<path fill="none" stroke="midnightblue" d="M405.28,-592.73C417.25,-590.89 430.4,-588.86 442.64,-586.98"/>
<polygon fill="midnightblue" stroke="midnightblue" points="443.3,-590.42 452.65,-585.44 442.23,-583.5 443.3,-590.42"/>
</g>
<!-- Node15 -->
<g id="node15" class="node">
<title>Node15</title>
<g id="a_node15"><a xlink:href="neural__activations_8h.html#ae8360118176b50bcc1ce7b6e9a5c5d96" target="_top" xlink:title=" ">
<polygon fill="none" stroke="black" points="452,-532.5 452,-551.5 526,-551.5 526,-532.5 452,-532.5"/>
<text text-anchor="middle" x="489" y="-539.5" font-family="Helvetica,sans-Serif" font-size="10.00">selu_activate</text>
</a>
</g>
</g>
<!-- Node7&#45;&gt;Node15 -->
<g id="edge14" class="edge">
<title>Node7&#45;&gt;Node15</title>
<path fill="none" stroke="midnightblue" d="M382.86,-589.38C398.24,-581.45 420.85,-570.06 441,-561 445.18,-559.12 449.6,-557.22 453.99,-555.39"/>
<polygon fill="midnightblue" stroke="midnightblue" points="455.53,-558.54 463.46,-551.51 452.88,-552.06 455.53,-558.54"/>
</g>
<!-- Node16 -->
<g id="node16" class="node">
<title>Node16</title>
<g id="a_node16"><a xlink:href="neural__activations_8h.html#addeba3077f238bf95ab678521f3f01f4" target="_top" xlink:title=" ">
<polygon fill="none" stroke="black" points="454.5,-494.5 454.5,-513.5 523.5,-513.5 523.5,-494.5 454.5,-494.5"/>
<text text-anchor="middle" x="489" y="-501.5" font-family="Helvetica,sans-Serif" font-size="10.00">sin_activate</text>
</a>
</g>
</g>
<!-- Node7&#45;&gt;Node16 -->
<g id="edge15" class="edge">
<title>Node7&#45;&gt;Node16</title>
<path fill="none" stroke="midnightblue" d="M372.01,-589.36C384.72,-573.61 411.93,-542.17 441,-523 443.88,-521.1 446.98,-519.34 450.16,-517.71"/>
<polygon fill="midnightblue" stroke="midnightblue" points="451.64,-520.88 459.25,-513.51 448.7,-514.53 451.64,-520.88"/>
</g>
<!-- Node17 -->
<g id="node17" class="node">
<title>Node17</title>
<g id="a_node17"><a xlink:href="neural__activations_8h.html#a72a5c108b60b2e169e798a31a16ed5c9" target="_top" xlink:title=" ">
<polygon fill="none" stroke="black" points="441,-456.5 441,-475.5 537,-475.5 537,-456.5 441,-456.5"/>
<text text-anchor="middle" x="489" y="-463.5" font-family="Helvetica,sans-Serif" font-size="10.00">soft_plus_activate</text>
</a>
</g>
</g>
<!-- Node7&#45;&gt;Node17 -->
<g id="edge16" class="edge">
<title>Node7&#45;&gt;Node17</title>
<path fill="none" stroke="midnightblue" d="M368.57,-589.33C378.12,-567.73 403.99,-515.05 441,-485 443.03,-483.35 445.23,-481.83 447.52,-480.42"/>
<polygon fill="midnightblue" stroke="midnightblue" points="449.49,-483.34 456.7,-475.59 446.22,-477.15 449.49,-483.34"/>
</g>
<!-- Node18 -->
<g id="node18" class="node">
<title>Node18</title>
<g id="a_node18"><a xlink:href="neural__activations_8h.html#ad5b55632ec4cca70c5cac2f139ab7890" target="_top" xlink:title=" ">
<polygon fill="none" stroke="black" points="451.5,-418.5 451.5,-437.5 526.5,-437.5 526.5,-418.5 451.5,-418.5"/>
<text text-anchor="middle" x="489" y="-425.5" font-family="Helvetica,sans-Serif" font-size="10.00">tanh_activate</text>
</a>
</g>
</g>
<!-- Node7&#45;&gt;Node18 -->
<g id="edge17" class="edge">
<title>Node7&#45;&gt;Node18</title>
<path fill="none" stroke="midnightblue" d="M366.79,-589.36C373.55,-562.96 395.8,-488.63 441,-447 442.68,-445.45 444.51,-444.02 446.43,-442.7"/>
<polygon fill="midnightblue" stroke="midnightblue" points="448.4,-445.6 455.34,-437.59 444.92,-439.53 448.4,-445.6"/>
</g>
<!-- Node20 -->
<g id="node20" class="node">
<title>Node20</title>
<g id="a_node20"><a xlink:href="neural__activations_8c.html#af1e6b151408fad2e90b248ff314da5b2" target="_top" xlink:title="Returns the derivative from applying a specified activation function.">
<polygon fill="none" stroke="black" points="322,-209.5 322,-228.5 405,-228.5 405,-209.5 322,-209.5"/>
<text text-anchor="middle" x="363.5" y="-216.5" font-family="Helvetica,sans-Serif" font-size="10.00">neural_gradient</text>
</a>
</g>
</g>
<!-- Node19&#45;&gt;Node20 -->
<g id="edge19" class="edge">
<title>Node19&#45;&gt;Node20</title>
<path fill="none" stroke="midnightblue" d="M273.37,-551.49C278.1,-549.03 282.48,-545.92 286,-542 327.18,-496.22 352.92,-301.8 360.3,-238.79"/>
<polygon fill="midnightblue" stroke="midnightblue" points="363.8,-238.96 361.46,-228.62 356.85,-238.16 363.8,-238.96"/>
</g>
<!-- Node21 -->
<g id="node21" class="node">
<title>Node21</title>
<g id="a_node21"><a xlink:href="neural__activations_8h.html#a8b35bc0fcd0779795f27b6b83a02466b" target="_top" xlink:title=" ">
<polygon fill="none" stroke="black" points="453,-380.5 453,-399.5 525,-399.5 525,-380.5 453,-380.5"/>
<text text-anchor="middle" x="489" y="-387.5" font-family="Helvetica,sans-Serif" font-size="10.00">cos_gradient</text>
</a>
</g>
</g>
<!-- Node20&#45;&gt;Node21 -->
<g id="edge20" class="edge">
<title>Node20&#45;&gt;Node21</title>
<path fill="none" stroke="midnightblue" d="M366.79,-228.64C373.55,-255.04 395.8,-329.37 441,-371 442.68,-372.55 444.51,-373.98 446.43,-375.3"/>
<polygon fill="midnightblue" stroke="midnightblue" points="444.92,-378.47 455.34,-380.41 448.4,-372.4 444.92,-378.47"/>
</g>
<!-- Node22 -->
<g id="node22" class="node">
<title>Node22</title>
<g id="a_node22"><a xlink:href="neural__activations_8h.html#a591192fa5d068adbb7ebcf8aa6fde0ea" target="_top" xlink:title=" ">
<polygon fill="none" stroke="black" points="441.5,-342.5 441.5,-361.5 536.5,-361.5 536.5,-342.5 441.5,-342.5"/>
<text text-anchor="middle" x="489" y="-349.5" font-family="Helvetica,sans-Serif" font-size="10.00">gaussian_gradient</text>
</a>
</g>
</g>
<!-- Node20&#45;&gt;Node22 -->
<g id="edge21" class="edge">
<title>Node20&#45;&gt;Node22</title>
<path fill="none" stroke="midnightblue" d="M368.57,-228.67C378.12,-250.27 403.99,-302.95 441,-333 443.03,-334.65 445.23,-336.17 447.52,-337.58"/>
<polygon fill="midnightblue" stroke="midnightblue" points="446.22,-340.85 456.7,-342.41 449.49,-334.66 446.22,-340.85"/>
</g>
<!-- Node23 -->
<g id="node23" class="node">
<title>Node23</title>
<g id="a_node23"><a xlink:href="neural__activations_8h.html#a54fca7a19218547112acfd5a782ec69d" target="_top" xlink:title=" ">
<polygon fill="none" stroke="black" points="449,-304.5 449,-323.5 529,-323.5 529,-304.5 449,-304.5"/>
<text text-anchor="middle" x="489" y="-311.5" font-family="Helvetica,sans-Serif" font-size="10.00">leaky_gradient</text>
</a>
</g>
</g>
<!-- Node20&#45;&gt;Node23 -->
<g id="edge22" class="edge">
<title>Node20&#45;&gt;Node23</title>
<path fill="none" stroke="midnightblue" d="M372.01,-228.64C384.72,-244.39 411.93,-275.83 441,-295 443.88,-296.9 446.98,-298.66 450.16,-300.29"/>
<polygon fill="midnightblue" stroke="midnightblue" points="448.7,-303.47 459.25,-304.49 451.64,-297.12 448.7,-303.47"/>
</g>
<!-- Node24 -->
<g id="node24" class="node">
<title>Node24</title>
<g id="a_node24"><a xlink:href="neural__activations_8h.html#a5403577088ebf10e5c05c7ab42243138" target="_top" xlink:title=" ">
<polygon fill="none" stroke="black" points="449,-266.5 449,-285.5 529,-285.5 529,-266.5 449,-266.5"/>
<text text-anchor="middle" x="489" y="-273.5" font-family="Helvetica,sans-Serif" font-size="10.00">linear_gradient</text>
</a>
</g>
</g>
<!-- Node20&#45;&gt;Node24 -->
<g id="edge23" class="edge">
<title>Node20&#45;&gt;Node24</title>
<path fill="none" stroke="midnightblue" d="M382.86,-228.62C398.24,-236.55 420.85,-247.94 441,-257 445.18,-258.88 449.6,-260.78 453.99,-262.61"/>
<polygon fill="midnightblue" stroke="midnightblue" points="452.88,-265.94 463.46,-266.49 455.53,-259.46 452.88,-265.94"/>
</g>
<!-- Node25 -->
<g id="node25" class="node">
<title>Node25</title>
<g id="a_node25"><a xlink:href="neural__activations_8h.html#a7098b000d894f53d2e61fbbcf02daeaa" target="_top" xlink:title=" ">
<polygon fill="none" stroke="black" points="449,-228.5 449,-247.5 529,-247.5 529,-228.5 449,-228.5"/>
<text text-anchor="middle" x="489" y="-235.5" font-family="Helvetica,sans-Serif" font-size="10.00">loggy_gradient</text>
</a>
</g>
</g>
<!-- Node20&#45;&gt;Node25 -->
<g id="edge24" class="edge">
<title>Node20&#45;&gt;Node25</title>
<path fill="none" stroke="midnightblue" d="M405.28,-225.27C416.04,-226.93 427.76,-228.73 438.91,-230.45"/>
<polygon fill="midnightblue" stroke="midnightblue" points="438.52,-233.93 448.94,-231.99 439.59,-227.01 438.52,-233.93"/>
</g>
<!-- Node26 -->
<g id="node26" class="node">
<title>Node26</title>
<g id="a_node26"><a xlink:href="neural__activations_8h.html#acd860c96bee8c36d8b046c9165676798" target="_top" xlink:title=" ">
<polygon fill="none" stroke="black" points="445.5,-190.5 445.5,-209.5 532.5,-209.5 532.5,-190.5 445.5,-190.5"/>
<text text-anchor="middle" x="489" y="-197.5" font-family="Helvetica,sans-Serif" font-size="10.00">logistic_gradient</text>
</a>
</g>
</g>
<!-- Node20&#45;&gt;Node26 -->
<g id="edge25" class="edge">
<title>Node20&#45;&gt;Node26</title>
<path fill="none" stroke="midnightblue" d="M405.28,-212.73C414.77,-211.27 425.01,-209.69 434.95,-208.16"/>
<polygon fill="midnightblue" stroke="midnightblue" points="435.79,-211.57 445.14,-206.59 434.73,-204.65 435.79,-211.57"/>
</g>
<!-- Node27 -->
<g id="node27" class="node">
<title>Node27</title>
<g id="a_node27"><a xlink:href="neural__activations_8h.html#adc18deff50ba0c7fe05232548817ba82" target="_top" xlink:title=" ">
<polygon fill="none" stroke="black" points="453,-152.5 453,-171.5 525,-171.5 525,-152.5 453,-152.5"/>
<text text-anchor="middle" x="489" y="-159.5" font-family="Helvetica,sans-Serif" font-size="10.00">relu_gradient</text>
</a>
</g>
</g>
<!-- Node20&#45;&gt;Node27 -->
<g id="edge26" class="edge">
<title>Node20&#45;&gt;Node27</title>
<path fill="none" stroke="midnightblue" d="M382.86,-209.38C398.24,-201.45 420.85,-190.06 441,-181 445.18,-179.12 449.6,-177.22 453.99,-175.39"/>
<polygon fill="midnightblue" stroke="midnightblue" points="455.53,-178.54 463.46,-171.51 452.88,-172.06 455.53,-178.54"/>
</g>
<!-- Node28 -->
<g id="node28" class="node">
<title>Node28</title>
<g id="a_node28"><a xlink:href="neural__activations_8h.html#a2d7841732c797d9ae6fb4bee542e7093" target="_top" xlink:title=" ">
<polygon fill="none" stroke="black" points="452,-114.5 452,-133.5 526,-133.5 526,-114.5 452,-114.5"/>
<text text-anchor="middle" x="489" y="-121.5" font-family="Helvetica,sans-Serif" font-size="10.00">selu_gradient</text>
</a>
</g>
</g>
<!-- Node20&#45;&gt;Node28 -->
<g id="edge27" class="edge">
<title>Node20&#45;&gt;Node28</title>
<path fill="none" stroke="midnightblue" d="M372.01,-209.36C384.72,-193.61 411.93,-162.17 441,-143 443.88,-141.1 446.98,-139.34 450.16,-137.71"/>
<polygon fill="midnightblue" stroke="midnightblue" points="451.64,-140.88 459.25,-133.51 448.7,-134.53 451.64,-140.88"/>
</g>
<!-- Node29 -->
<g id="node29" class="node">
<title>Node29</title>
<g id="a_node29"><a xlink:href="neural__activations_8h.html#ac34a770e7c1caa4e7b52b22049c713e5" target="_top" xlink:title=" ">
<polygon fill="none" stroke="black" points="454.5,-76.5 454.5,-95.5 523.5,-95.5 523.5,-76.5 454.5,-76.5"/>
<text text-anchor="middle" x="489" y="-83.5" font-family="Helvetica,sans-Serif" font-size="10.00">sin_gradient</text>
</a>
</g>
</g>
<!-- Node20&#45;&gt;Node29 -->
<g id="edge28" class="edge">
<title>Node20&#45;&gt;Node29</title>
<path fill="none" stroke="midnightblue" d="M368.57,-209.33C378.12,-187.73 403.99,-135.05 441,-105 443.03,-103.35 445.23,-101.83 447.52,-100.42"/>
<polygon fill="midnightblue" stroke="midnightblue" points="449.49,-103.34 456.7,-95.59 446.22,-97.15 449.49,-103.34"/>
</g>
<!-- Node30 -->
<g id="node30" class="node">
<title>Node30</title>
<g id="a_node30"><a xlink:href="neural__activations_8h.html#a3d5aa96a76605eb0dcdd30a62a363b69" target="_top" xlink:title=" ">
<polygon fill="none" stroke="black" points="441,-38.5 441,-57.5 537,-57.5 537,-38.5 441,-38.5"/>
<text text-anchor="middle" x="489" y="-45.5" font-family="Helvetica,sans-Serif" font-size="10.00">soft_plus_gradient</text>
</a>
</g>
</g>
<!-- Node20&#45;&gt;Node30 -->
<g id="edge29" class="edge">
<title>Node20&#45;&gt;Node30</title>
<path fill="none" stroke="midnightblue" d="M366.79,-209.36C373.55,-182.96 395.8,-108.63 441,-67 442.68,-65.45 444.51,-64.02 446.43,-62.7"/>
<polygon fill="midnightblue" stroke="midnightblue" points="448.4,-65.6 455.34,-57.59 444.92,-59.53 448.4,-65.6"/>
</g>
<!-- Node31 -->
<g id="node31" class="node">
<title>Node31</title>
<g id="a_node31"><a xlink:href="neural__activations_8h.html#adbc5cccd0f30d4b526fd3759a9a26f69" target="_top" xlink:title=" ">
<polygon fill="none" stroke="black" points="451.5,-0.5 451.5,-19.5 526.5,-19.5 526.5,-0.5 451.5,-0.5"/>
<text text-anchor="middle" x="489" y="-7.5" font-family="Helvetica,sans-Serif" font-size="10.00">tanh_gradient</text>
</a>
</g>
</g>
<!-- Node20&#45;&gt;Node31 -->
<g id="edge30" class="edge">
<title>Node20&#45;&gt;Node31</title>
<path fill="none" stroke="midnightblue" d="M365.72,-209.26C370.06,-178.54 387.48,-82.59 441,-29 442.45,-27.55 444.02,-26.21 445.68,-24.97"/>
<polygon fill="midnightblue" stroke="midnightblue" points="447.86,-27.74 454.58,-19.54 444.22,-21.76 447.86,-27.74"/>
</g>
</g>
</svg>
