<?xml version="1.0" encoding="UTF-8" standalone="no"?>
<!DOCTYPE svg PUBLIC "-//W3C//DTD SVG 1.1//EN"
 "http://www.w3.org/Graphics/SVG/1.1/DTD/svg11.dtd">
<!-- Generated by graphviz version 2.43.0 (0)
 -->
<!-- Title: neural_layer_lstm_copy Pages: 1 -->
<svg width="505pt" height="104pt"
 viewBox="0.00 0.00 505.00 104.00" xmlns="http://www.w3.org/2000/svg" xmlns:xlink="http://www.w3.org/1999/xlink">
<g id="graph0" class="graph" transform="scale(1 1) rotate(0) translate(4 100)">
<title>neural_layer_lstm_copy</title>
<!-- Node1 -->
<g id="node1" class="node">
<title>Node1</title>
<g id="a_node1"><a xlink:title="Initialises and creates a copy of one LSTM layer from another.">
<polygon fill="#bfbfbf" stroke="black" points="0,-38.5 0,-57.5 119,-57.5 119,-38.5 0,-38.5"/>
<text text-anchor="middle" x="59.5" y="-45.5" font-family="Helvetica,sans-Serif" font-size="10.00">neural_layer_lstm_copy</text>
</a>
</g>
</g>
<!-- Node2 -->
<g id="node2" class="node">
<title>Node2</title>
<g id="a_node2"><a xlink:href="neural__layer_8h.html#a392e18d96d59f5739ebeec3b05d5b4ad" target="_top" xlink:title="Creates and returns a copy of a specified layer.">
<polygon fill="none" stroke="black" points="175,-76.5 175,-95.5 239,-95.5 239,-76.5 175,-76.5"/>
<text text-anchor="middle" x="207" y="-83.5" font-family="Helvetica,sans-Serif" font-size="10.00">layer_copy</text>
</a>
</g>
</g>
<!-- Node1&#45;&gt;Node2 -->
<g id="edge1" class="edge">
<title>Node1&#45;&gt;Node2</title>
<path fill="none" stroke="midnightblue" d="M97.22,-57.59C117.86,-62.98 143.67,-69.72 164.98,-75.29"/>
<polygon fill="midnightblue" stroke="midnightblue" points="164.16,-78.69 174.72,-77.83 165.93,-71.92 164.16,-78.69"/>
</g>
<!-- Node3 -->
<g id="node3" class="node">
<title>Node3</title>
<g id="a_node3"><a xlink:href="neural__layer_8c.html#a21a8acbaa483c46984c4f5f20d4edf95" target="_top" xlink:title="Initialises a layer to default values.">
<polygon fill="none" stroke="black" points="168.5,-38.5 168.5,-57.5 245.5,-57.5 245.5,-38.5 168.5,-38.5"/>
<text text-anchor="middle" x="207" y="-45.5" font-family="Helvetica,sans-Serif" font-size="10.00">layer_defaults</text>
</a>
</g>
</g>
<!-- Node1&#45;&gt;Node3 -->
<g id="edge2" class="edge">
<title>Node1&#45;&gt;Node3</title>
<path fill="none" stroke="midnightblue" d="M119.26,-48C132.2,-48 145.75,-48 158.2,-48"/>
<polygon fill="midnightblue" stroke="midnightblue" points="158.35,-51.5 168.35,-48 158.35,-44.5 158.35,-51.5"/>
</g>
<!-- Node4 -->
<g id="node4" class="node">
<title>Node4</title>
<g id="a_node4"><a xlink:href="neural__layer__lstm_8c.html#a6e3344e46eea0817b14f3568ef81ff97" target="_top" xlink:title="Allocate memory used by an LSTM layer.">
<polygon fill="none" stroke="black" points="155,-0.5 155,-19.5 259,-19.5 259,-0.5 155,-0.5"/>
<text text-anchor="middle" x="207" y="-7.5" font-family="Helvetica,sans-Serif" font-size="10.00">malloc_layer_arrays</text>
</a>
</g>
</g>
<!-- Node1&#45;&gt;Node4 -->
<g id="edge3" class="edge">
<title>Node1&#45;&gt;Node4</title>
<path fill="none" stroke="midnightblue" d="M97.22,-38.41C116.16,-33.46 139.46,-27.38 159.63,-22.11"/>
<polygon fill="midnightblue" stroke="midnightblue" points="160.76,-25.43 169.55,-19.52 158.99,-18.66 160.76,-25.43"/>
</g>
<!-- Node5 -->
<g id="node5" class="node">
<title>Node5</title>
<g id="a_node5"><a xlink:href="neural__layer_8c.html#a99157f8bba089b8f6d617020cdc45d7b" target="_top" xlink:title="Check number of outputs is within bounds.">
<polygon fill="none" stroke="black" points="295,-0.5 295,-19.5 399,-19.5 399,-0.5 295,-0.5"/>
<text text-anchor="middle" x="347" y="-7.5" font-family="Helvetica,sans-Serif" font-size="10.00">layer_guard_outputs</text>
</a>
</g>
</g>
<!-- Node4&#45;&gt;Node5 -->
<g id="edge4" class="edge">
<title>Node4&#45;&gt;Node5</title>
<path fill="none" stroke="midnightblue" d="M259.39,-10C267.56,-10 276.08,-10 284.46,-10"/>
<polygon fill="midnightblue" stroke="midnightblue" points="284.57,-13.5 294.57,-10 284.57,-6.5 284.57,-13.5"/>
</g>
<!-- Node6 -->
<g id="node6" class="node">
<title>Node6</title>
<g id="a_node6"><a xlink:href="neural__layer_8h.html#af3da4af94dd537080a072c07c66d955d" target="_top" xlink:title="Prints the layer.">
<polygon fill="none" stroke="black" points="435,-0.5 435,-19.5 497,-19.5 497,-0.5 435,-0.5"/>
<text text-anchor="middle" x="466" y="-7.5" font-family="Helvetica,sans-Serif" font-size="10.00">layer_print</text>
</a>
</g>
</g>
<!-- Node5&#45;&gt;Node6 -->
<g id="edge5" class="edge">
<title>Node5&#45;&gt;Node6</title>
<path fill="none" stroke="midnightblue" d="M399.32,-10C407.87,-10 416.62,-10 424.84,-10"/>
<polygon fill="midnightblue" stroke="midnightblue" points="424.91,-13.5 434.91,-10 424.91,-6.5 424.91,-13.5"/>
</g>
</g>
</svg>
