<?xml version="1.0" encoding="UTF-8" standalone="no"?>
<!DOCTYPE svg PUBLIC "-//W3C//DTD SVG 1.1//EN"
 "http://www.w3.org/Graphics/SVG/1.1/DTD/svg11.dtd">
<!-- Generated by graphviz version 2.43.0 (0)
 -->
<!-- Title: neural_json_export Pages: 1 -->
<svg width="417pt" height="192pt"
 viewBox="0.00 0.00 417.00 191.50" xmlns="http://www.w3.org/2000/svg" xmlns:xlink="http://www.w3.org/1999/xlink">
<g id="graph0" class="graph" transform="scale(1 1) rotate(0) translate(4 187.5)">
<title>neural_json_export</title>
<!-- Node1 -->
<g id="node1" class="node">
<title>Node1</title>
<g id="a_node1"><a xlink:title="Returns a json formatted string representation of a neural network.">
<polygon fill="#bfbfbf" stroke="black" points="311,-88 311,-107 409,-107 409,-88 311,-88"/>
<text text-anchor="middle" x="360" y="-95" font-family="Helvetica,sans-Serif" font-size="10.00">neural_json_export</text>
</a>
</g>
</g>
<!-- Node2 -->
<g id="node2" class="node">
<title>Node2</title>
<g id="a_node2"><a xlink:href="act__neural_8c.html#af5dd183fdacf478efeac81b6921ffa86" target="_top" xlink:title="Returns a json formatted string representation of a neural action.">
<polygon fill="none" stroke="black" points="154,-164 154,-183 271,-183 271,-164 154,-164"/>
<text text-anchor="middle" x="212.5" y="-171" font-family="Helvetica,sans-Serif" font-size="10.00">act_neural_json_export</text>
</a>
</g>
</g>
<!-- Node1&#45;&gt;Node2 -->
<g id="edge1" class="edge">
<title>Node1&#45;&gt;Node2</title>
<path fill="none" stroke="midnightblue" d="M338.92,-113.65C322.52,-126.19 298.32,-143.29 275,-154.5 267.34,-158.18 258.81,-161.35 250.6,-163.98"/>
<polygon fill="midnightblue" stroke="midnightblue" points="341.44,-116.12 347.17,-107.21 337.14,-110.6 341.44,-116.12"/>
</g>
<!-- Node4 -->
<g id="node4" class="node">
<title>Node4</title>
<g id="a_node4"><a xlink:href="cond__neural_8c.html#a4145d0d67f9d079a3656e6ec7f262baa" target="_top" xlink:title="Returns a json formatted string representation of a neural condition.">
<polygon fill="none" stroke="black" points="150,-126 150,-145 275,-145 275,-126 150,-126"/>
<text text-anchor="middle" x="212.5" y="-133" font-family="Helvetica,sans-Serif" font-size="10.00">cond_neural_json_export</text>
</a>
</g>
</g>
<!-- Node1&#45;&gt;Node4 -->
<g id="edge3" class="edge">
<title>Node1&#45;&gt;Node4</title>
<path fill="none" stroke="midnightblue" d="M312.35,-109.68C292.15,-114.96 268.85,-121.04 249.95,-125.98"/>
<polygon fill="midnightblue" stroke="midnightblue" points="313.49,-113 322.28,-107.09 311.72,-106.23 313.49,-113"/>
</g>
<!-- Node6 -->
<g id="node6" class="node">
<title>Node6</title>
<g id="a_node6"><a xlink:href="neural_8c.html#ab5c47a049b73e0a95b0ff56bd8085583" target="_top" xlink:title="Prints a neural network.">
<polygon fill="none" stroke="black" points="179,-88 179,-107 246,-107 246,-88 179,-88"/>
<text text-anchor="middle" x="212.5" y="-95" font-family="Helvetica,sans-Serif" font-size="10.00">neural_print</text>
</a>
</g>
</g>
<!-- Node1&#45;&gt;Node6 -->
<g id="edge5" class="edge">
<title>Node1&#45;&gt;Node6</title>
<path fill="none" stroke="midnightblue" d="M300.82,-97.5C282.28,-97.5 262.42,-97.5 246.33,-97.5"/>
<polygon fill="midnightblue" stroke="midnightblue" points="300.95,-101 310.95,-97.5 300.95,-94 300.95,-101"/>
</g>
<!-- Node7 -->
<g id="node7" class="node">
<title>Node7</title>
<g id="a_node7"><a xlink:href="pred__neural_8c.html#a3893bcacdef034a27bd771a599d0b5f0" target="_top" xlink:title="Returns a json formatted string representation of a neural prediction.">
<polygon fill="none" stroke="black" points="151.5,-50 151.5,-69 273.5,-69 273.5,-50 151.5,-50"/>
<text text-anchor="middle" x="212.5" y="-57" font-family="Helvetica,sans-Serif" font-size="10.00">pred_neural_json_export</text>
</a>
</g>
</g>
<!-- Node1&#45;&gt;Node7 -->
<g id="edge6" class="edge">
<title>Node1&#45;&gt;Node7</title>
<path fill="none" stroke="midnightblue" d="M312.35,-85.32C292.15,-80.04 268.85,-73.96 249.95,-69.02"/>
<polygon fill="midnightblue" stroke="midnightblue" points="311.72,-88.77 322.28,-87.91 313.49,-82 311.72,-88.77"/>
</g>
<!-- Node9 -->
<g id="node9" class="node">
<title>Node9</title>
<g id="a_node9"><a xlink:href="rule__neural_8c.html#ac4136bd429ca59c6b0861c25ea192cca" target="_top" xlink:title=" ">
<polygon fill="none" stroke="black" points="156,-0.5 156,-30.5 269,-30.5 269,-0.5 156,-0.5"/>
<text text-anchor="start" x="164" y="-18.5" font-family="Helvetica,sans-Serif" font-size="10.00">rule_neural_cond_json</text>
<text text-anchor="middle" x="212.5" y="-7.5" font-family="Helvetica,sans-Serif" font-size="10.00">_export</text>
</a>
</g>
</g>
<!-- Node1&#45;&gt;Node9 -->
<g id="edge8" class="edge">
<title>Node1&#45;&gt;Node9</title>
<path fill="none" stroke="midnightblue" d="M338.36,-81.69C321.81,-69.46 297.68,-52.63 275,-40.5 268.39,-36.97 261.18,-33.62 254.09,-30.58"/>
<polygon fill="midnightblue" stroke="midnightblue" points="336.61,-84.75 346.71,-87.94 340.81,-79.15 336.61,-84.75"/>
</g>
<!-- Node3 -->
<g id="node3" class="node">
<title>Node3</title>
<g id="a_node3"><a xlink:href="act__neural_8c.html#a63ce7b4880f83e8db3f13e3457d96a6c" target="_top" xlink:title="Prints a neural network action.">
<polygon fill="none" stroke="black" points="14,-164 14,-183 100,-183 100,-164 14,-164"/>
<text text-anchor="middle" x="57" y="-171" font-family="Helvetica,sans-Serif" font-size="10.00">act_neural_print</text>
</a>
</g>
</g>
<!-- Node2&#45;&gt;Node3 -->
<g id="edge2" class="edge">
<title>Node2&#45;&gt;Node3</title>
<path fill="none" stroke="midnightblue" d="M143.73,-173.5C128.88,-173.5 113.58,-173.5 100.09,-173.5"/>
<polygon fill="midnightblue" stroke="midnightblue" points="143.91,-177 153.91,-173.5 143.91,-170 143.91,-177"/>
</g>
<!-- Node5 -->
<g id="node5" class="node">
<title>Node5</title>
<g id="a_node5"><a xlink:href="cond__neural_8c.html#ad1218afacd3efb2cfe911de3f2daa280" target="_top" xlink:title="Prints a neural network condition.">
<polygon fill="none" stroke="black" points="10.5,-126 10.5,-145 103.5,-145 103.5,-126 10.5,-126"/>
<text text-anchor="middle" x="57" y="-133" font-family="Helvetica,sans-Serif" font-size="10.00">cond_neural_print</text>
</a>
</g>
</g>
<!-- Node4&#45;&gt;Node5 -->
<g id="edge4" class="edge">
<title>Node4&#45;&gt;Node5</title>
<path fill="none" stroke="midnightblue" d="M139.78,-135.5C127.6,-135.5 115.25,-135.5 103.96,-135.5"/>
<polygon fill="midnightblue" stroke="midnightblue" points="139.95,-139 149.95,-135.5 139.95,-132 139.95,-139"/>
</g>
<!-- Node8 -->
<g id="node8" class="node">
<title>Node8</title>
<g id="a_node8"><a xlink:href="pred__neural_8c.html#a6d409885406112df91093475dd764f10" target="_top" xlink:title="Prints a neural network prediction.">
<polygon fill="none" stroke="black" points="11.5,-50 11.5,-69 102.5,-69 102.5,-50 11.5,-50"/>
<text text-anchor="middle" x="57" y="-57" font-family="Helvetica,sans-Serif" font-size="10.00">pred_neural_print</text>
</a>
</g>
</g>
<!-- Node7&#45;&gt;Node8 -->
<g id="edge7" class="edge">
<title>Node7&#45;&gt;Node8</title>
<path fill="none" stroke="midnightblue" d="M140.96,-59.5C128,-59.5 114.81,-59.5 102.86,-59.5"/>
<polygon fill="midnightblue" stroke="midnightblue" points="141.27,-63 151.27,-59.5 141.27,-56 141.27,-63"/>
</g>
<!-- Node10 -->
<g id="node10" class="node">
<title>Node10</title>
<g id="a_node10"><a xlink:href="rule__neural_8c.html#a58fe829282a240e23301cf432e85fed4" target="_top" xlink:title=" ">
<polygon fill="none" stroke="black" points="0,-6 0,-25 114,-25 114,-6 0,-6"/>
<text text-anchor="middle" x="57" y="-13" font-family="Helvetica,sans-Serif" font-size="10.00">rule_neural_cond_print</text>
</a>
</g>
</g>
<!-- Node9&#45;&gt;Node10 -->
<g id="edge9" class="edge">
<title>Node9&#45;&gt;Node10</title>
<path fill="none" stroke="midnightblue" d="M145.34,-15.5C134.92,-15.5 124.23,-15.5 114.07,-15.5"/>
<polygon fill="midnightblue" stroke="midnightblue" points="145.65,-19 155.65,-15.5 145.65,-12 145.65,-19"/>
</g>
</g>
</svg>
