<?xml version="1.0" encoding="UTF-8" standalone="no"?>
<!DOCTYPE svg PUBLIC "-//W3C//DTD SVG 1.1//EN"
 "http://www.w3.org/Graphics/SVG/1.1/DTD/svg11.dtd">
<!-- Generated by graphviz version 2.43.0 (0)
 -->
<!-- Title: mutate_neurons Pages: 1 -->
<svg width="483pt" height="294pt"
 viewBox="0.00 0.00 483.00 294.00" xmlns="http://www.w3.org/2000/svg" xmlns:xlink="http://www.w3.org/1999/xlink">
<g id="graph0" class="graph" transform="scale(1 1) rotate(0) translate(4 290)">
<title>mutate_neurons</title>
<!-- Node1 -->
<g id="node1" class="node">
<title>Node1</title>
<g id="a_node1"><a xlink:title="Mutates the number of neurons in a recurrent layer.">
<polygon fill="#bfbfbf" stroke="black" points="0,-114.5 0,-133.5 86,-133.5 86,-114.5 0,-114.5"/>
<text text-anchor="middle" x="43" y="-121.5" font-family="Helvetica,sans-Serif" font-size="10.00">mutate_neurons</text>
</a>
</g>
</g>
<!-- Node2 -->
<g id="node2" class="node">
<title>Node2</title>
<g id="a_node2"><a xlink:href="neural__layer_8c.html#a9bdb16a2c9164cf5895c9a7af9adc051" target="_top" xlink:title="Adds N neurons to a layer. Negative N removes neurons.">
<polygon fill="none" stroke="black" points="129.5,-190.5 129.5,-209.5 227.5,-209.5 227.5,-190.5 129.5,-190.5"/>
<text text-anchor="middle" x="178.5" y="-197.5" font-family="Helvetica,sans-Serif" font-size="10.00">layer_add_neurons</text>
</a>
</g>
</g>
<!-- Node1&#45;&gt;Node2 -->
<g id="edge1" class="edge">
<title>Node1&#45;&gt;Node2</title>
<path fill="none" stroke="midnightblue" d="M54.92,-133.65C69.39,-146.03 96.12,-167.51 122,-181 126.02,-183.1 130.32,-185.04 134.68,-186.81"/>
<polygon fill="midnightblue" stroke="midnightblue" points="133.65,-190.17 144.24,-190.44 136.13,-183.62 133.65,-190.17"/>
</g>
<!-- Node9 -->
<g id="node9" class="node">
<title>Node9</title>
<g id="a_node9"><a xlink:href="neural__layer_8c.html#a35e1133cd8863d674d0506d963a93f08" target="_top" xlink:title="Returns the number of neurons to add or remove from a layer.">
<polygon fill="none" stroke="black" points="122,-152.5 122,-171.5 235,-171.5 235,-152.5 122,-152.5"/>
<text text-anchor="middle" x="178.5" y="-159.5" font-family="Helvetica,sans-Serif" font-size="10.00">layer_mutate_neurons</text>
</a>
</g>
</g>
<!-- Node1&#45;&gt;Node9 -->
<g id="edge9" class="edge">
<title>Node1&#45;&gt;Node9</title>
<path fill="none" stroke="midnightblue" d="M77.69,-133.59C94.76,-138.45 115.7,-144.41 133.98,-149.61"/>
<polygon fill="midnightblue" stroke="midnightblue" points="133.25,-153.04 143.82,-152.41 135.16,-146.31 133.25,-153.04"/>
</g>
<!-- Node11 -->
<g id="node11" class="node">
<title>Node11</title>
<g id="a_node11"><a xlink:href="neural__layer_8h.html#a28fed9ac2d12fe1bad08b4540f3f0455" target="_top" xlink:title="Resizes a layer using the previous layer&#39;s inputs.">
<polygon fill="none" stroke="black" points="144,-114.5 144,-133.5 213,-133.5 213,-114.5 144,-114.5"/>
<text text-anchor="middle" x="178.5" y="-121.5" font-family="Helvetica,sans-Serif" font-size="10.00">layer_resize</text>
</a>
</g>
</g>
<!-- Node1&#45;&gt;Node11 -->
<g id="edge13" class="edge">
<title>Node1&#45;&gt;Node11</title>
<path fill="none" stroke="midnightblue" d="M86.24,-124C101.38,-124 118.48,-124 133.75,-124"/>
<polygon fill="midnightblue" stroke="midnightblue" points="133.98,-127.5 143.98,-124 133.98,-120.5 133.98,-127.5"/>
</g>
<!-- Node12 -->
<g id="node12" class="node">
<title>Node12</title>
<g id="a_node12"><a xlink:href="neural__layer__recurrent_8c.html#a7575ee8d3534af2a6dcc865e02e5351f" target="_top" xlink:title="Resize memory used by a recurrent layer.">
<polygon fill="none" stroke="black" points="126.5,-247.5 126.5,-266.5 230.5,-266.5 230.5,-247.5 126.5,-247.5"/>
<text text-anchor="middle" x="178.5" y="-254.5" font-family="Helvetica,sans-Serif" font-size="10.00">realloc_layer_arrays</text>
</a>
</g>
</g>
<!-- Node1&#45;&gt;Node12 -->
<g id="edge14" class="edge">
<title>Node1&#45;&gt;Node12</title>
<path fill="none" stroke="midnightblue" d="M50.52,-133.65C63.02,-151.72 91.79,-191.32 122,-219 131.23,-227.46 142.46,-235.49 152.4,-241.98"/>
<polygon fill="midnightblue" stroke="midnightblue" points="150.74,-245.08 161.06,-247.47 154.49,-239.16 150.74,-245.08"/>
</g>
<!-- Node13 -->
<g id="node13" class="node">
<title>Node13</title>
<g id="a_node13"><a xlink:href="neural__layer__recurrent_8c.html#a9cf6a4d407837c532b89f9f457072203" target="_top" xlink:title="Sets the number of active (non&#45;zero) weights in a recurrent layer.">
<polygon fill="none" stroke="black" points="129.5,-76.5 129.5,-95.5 227.5,-95.5 227.5,-76.5 129.5,-76.5"/>
<text text-anchor="middle" x="178.5" y="-83.5" font-family="Helvetica,sans-Serif" font-size="10.00">set_layer_n_active</text>
</a>
</g>
</g>
<!-- Node1&#45;&gt;Node13 -->
<g id="edge16" class="edge">
<title>Node1&#45;&gt;Node13</title>
<path fill="none" stroke="midnightblue" d="M77.69,-114.41C94.76,-109.55 115.7,-103.59 133.98,-98.39"/>
<polygon fill="midnightblue" stroke="midnightblue" points="135.16,-101.69 143.82,-95.59 133.25,-94.96 135.16,-101.69"/>
</g>
<!-- Node14 -->
<g id="node14" class="node">
<title>Node14</title>
<g id="a_node14"><a xlink:href="neural__layer__recurrent_8c.html#ab67b6e38da6db94e4735740f8521d5b1" target="_top" xlink:title="Sets the total number of biases in a recurrent layer.">
<polygon fill="none" stroke="black" points="128,-38.5 128,-57.5 229,-57.5 229,-38.5 128,-38.5"/>
<text text-anchor="middle" x="178.5" y="-45.5" font-family="Helvetica,sans-Serif" font-size="10.00">set_layer_n_biases</text>
</a>
</g>
</g>
<!-- Node1&#45;&gt;Node14 -->
<g id="edge17" class="edge">
<title>Node1&#45;&gt;Node14</title>
<path fill="none" stroke="midnightblue" d="M54.92,-114.35C69.39,-101.97 96.12,-80.49 122,-67 126.02,-64.9 130.32,-62.96 134.68,-61.19"/>
<polygon fill="midnightblue" stroke="midnightblue" points="136.13,-64.38 144.24,-57.56 133.65,-57.83 136.13,-64.38"/>
</g>
<!-- Node15 -->
<g id="node15" class="node">
<title>Node15</title>
<g id="a_node15"><a xlink:href="neural__layer__recurrent_8c.html#a75386a5e5f7e81bf322e68e2c87ad374" target="_top" xlink:title="Sets the total number of weights in a recurrent layer.">
<polygon fill="none" stroke="black" points="125.5,-0.5 125.5,-19.5 231.5,-19.5 231.5,-0.5 125.5,-0.5"/>
<text text-anchor="middle" x="178.5" y="-7.5" font-family="Helvetica,sans-Serif" font-size="10.00">set_layer_n_weights</text>
</a>
</g>
</g>
<!-- Node1&#45;&gt;Node15 -->
<g id="edge18" class="edge">
<title>Node1&#45;&gt;Node15</title>
<path fill="none" stroke="midnightblue" d="M49.35,-114.43C60.45,-95.43 87.81,-52.72 122,-29 124.85,-27.02 127.92,-25.24 131.1,-23.63"/>
<polygon fill="midnightblue" stroke="midnightblue" points="132.58,-26.8 140.29,-19.53 129.73,-20.41 132.58,-26.8"/>
</g>
<!-- Node3 -->
<g id="node3" class="node">
<title>Node3</title>
<g id="a_node3"><a xlink:href="neural__layer_8c.html#abb27e5ed20353f12ec393c83e30372fe" target="_top" xlink:title="Recalculates the number of active connections within a layer.">
<polygon fill="none" stroke="black" points="272.5,-228.5 272.5,-247.5 375.5,-247.5 375.5,-228.5 272.5,-228.5"/>
<text text-anchor="middle" x="324" y="-235.5" font-family="Helvetica,sans-Serif" font-size="10.00">layer_calc_n_active</text>
</a>
</g>
</g>
<!-- Node2&#45;&gt;Node3 -->
<g id="edge2" class="edge">
<title>Node2&#45;&gt;Node3</title>
<path fill="none" stroke="midnightblue" d="M215.71,-209.59C234.32,-214.52 257.2,-220.57 277.04,-225.83"/>
<polygon fill="midnightblue" stroke="midnightblue" points="276.24,-229.24 286.8,-228.41 278.03,-222.47 276.24,-229.24"/>
</g>
<!-- Node4 -->
<g id="node4" class="node">
<title>Node4</title>
<g id="a_node4"><a xlink:href="neural__layer_8c.html#a99157f8bba089b8f6d617020cdc45d7b" target="_top" xlink:title="Check number of outputs is within bounds.">
<polygon fill="none" stroke="black" points="272,-266.5 272,-285.5 376,-285.5 376,-266.5 272,-266.5"/>
<text text-anchor="middle" x="324" y="-273.5" font-family="Helvetica,sans-Serif" font-size="10.00">layer_guard_outputs</text>
</a>
</g>
</g>
<!-- Node2&#45;&gt;Node4 -->
<g id="edge3" class="edge">
<title>Node2&#45;&gt;Node4</title>
<path fill="none" stroke="midnightblue" d="M192.94,-209.61C210.34,-221.77 241.9,-242.81 271,-257 275.15,-259.02 279.56,-260.95 284.01,-262.76"/>
<polygon fill="midnightblue" stroke="midnightblue" points="283.09,-266.15 293.68,-266.49 285.61,-259.62 283.09,-266.15"/>
</g>
<!-- Node6 -->
<g id="node6" class="node">
<title>Node6</title>
<g id="a_node6"><a xlink:href="neural__layer_8c.html#afb8c6762568c65726b62ee12c816fb2b" target="_top" xlink:title="Check number of weights is within bounds.">
<polygon fill="none" stroke="black" points="271,-190.5 271,-209.5 377,-209.5 377,-190.5 271,-190.5"/>
<text text-anchor="middle" x="324" y="-197.5" font-family="Helvetica,sans-Serif" font-size="10.00">layer_guard_weights</text>
</a>
</g>
</g>
<!-- Node2&#45;&gt;Node6 -->
<g id="edge5" class="edge">
<title>Node2&#45;&gt;Node6</title>
<path fill="none" stroke="midnightblue" d="M227.68,-200C238.28,-200 249.65,-200 260.71,-200"/>
<polygon fill="midnightblue" stroke="midnightblue" points="260.76,-203.5 270.76,-200 260.76,-196.5 260.76,-203.5"/>
</g>
<!-- Node7 -->
<g id="node7" class="node">
<title>Node7</title>
<g id="a_node7"><a xlink:href="utils_8c.html#a6a36d869b4a218a3f55cd19067f62c0f" target="_top" xlink:title="Returns a random Gaussian with specified mean and standard deviation.">
<polygon fill="none" stroke="black" points="289,-152.5 289,-171.5 359,-171.5 359,-152.5 289,-152.5"/>
<text text-anchor="middle" x="324" y="-159.5" font-family="Helvetica,sans-Serif" font-size="10.00">rand_normal</text>
</a>
</g>
</g>
<!-- Node2&#45;&gt;Node7 -->
<g id="edge7" class="edge">
<title>Node2&#45;&gt;Node7</title>
<path fill="none" stroke="midnightblue" d="M215.71,-190.41C234.89,-185.33 258.6,-179.05 278.85,-173.69"/>
<polygon fill="midnightblue" stroke="midnightblue" points="280.01,-177.01 288.78,-171.06 278.21,-170.24 280.01,-177.01"/>
</g>
<!-- Node8 -->
<g id="node8" class="node">
<title>Node8</title>
<g id="a_node8"><a xlink:href="utils_8c.html#a972761ba8f47a6c3e7396a7c685158fc" target="_top" xlink:title="Returns a uniform random float [min,max].">
<polygon fill="none" stroke="black" points="287.5,-114.5 287.5,-133.5 360.5,-133.5 360.5,-114.5 287.5,-114.5"/>
<text text-anchor="middle" x="324" y="-121.5" font-family="Helvetica,sans-Serif" font-size="10.00">rand_uniform</text>
</a>
</g>
</g>
<!-- Node2&#45;&gt;Node8 -->
<g id="edge8" class="edge">
<title>Node2&#45;&gt;Node8</title>
<path fill="none" stroke="midnightblue" d="M215.61,-190.48C222.33,-187.93 229.09,-184.8 235,-181 254.57,-168.42 251.56,-155.78 271,-143 273.94,-141.07 277.1,-139.3 280.37,-137.69"/>
<polygon fill="midnightblue" stroke="midnightblue" points="281.98,-140.8 289.72,-133.55 279.15,-134.4 281.98,-140.8"/>
</g>
<!-- Node5 -->
<g id="node5" class="node">
<title>Node5</title>
<g id="a_node5"><a xlink:href="neural__layer_8h.html#af3da4af94dd537080a072c07c66d955d" target="_top" xlink:title="Prints the layer.">
<polygon fill="none" stroke="black" points="413,-228.5 413,-247.5 475,-247.5 475,-228.5 413,-228.5"/>
<text text-anchor="middle" x="444" y="-235.5" font-family="Helvetica,sans-Serif" font-size="10.00">layer_print</text>
</a>
</g>
</g>
<!-- Node4&#45;&gt;Node5 -->
<g id="edge4" class="edge">
<title>Node4&#45;&gt;Node5</title>
<path fill="none" stroke="midnightblue" d="M354.78,-266.41C369.59,-261.64 387.69,-255.81 403.63,-250.68"/>
<polygon fill="midnightblue" stroke="midnightblue" points="404.79,-253.98 413.23,-247.59 402.64,-247.32 404.79,-253.98"/>
</g>
<!-- Node6&#45;&gt;Node5 -->
<g id="edge6" class="edge">
<title>Node6&#45;&gt;Node5</title>
<path fill="none" stroke="midnightblue" d="M354.78,-209.59C369.59,-214.36 387.69,-220.19 403.63,-225.32"/>
<polygon fill="midnightblue" stroke="midnightblue" points="402.64,-228.68 413.23,-228.41 404.79,-222.02 402.64,-228.68"/>
</g>
<!-- Node9&#45;&gt;Node7 -->
<g id="edge11" class="edge">
<title>Node9&#45;&gt;Node7</title>
<path fill="none" stroke="midnightblue" d="M235.39,-162C249.69,-162 264.87,-162 278.51,-162"/>
<polygon fill="midnightblue" stroke="midnightblue" points="278.6,-165.5 288.6,-162 278.6,-158.5 278.6,-165.5"/>
</g>
<!-- Node9&#45;&gt;Node8 -->
<g id="edge12" class="edge">
<title>Node9&#45;&gt;Node8</title>
<path fill="none" stroke="midnightblue" d="M215.71,-152.41C234.46,-147.45 257.55,-141.33 277.49,-136.05"/>
<polygon fill="midnightblue" stroke="midnightblue" points="278.53,-139.4 287.3,-133.45 276.73,-132.63 278.53,-139.4"/>
</g>
<!-- Node10 -->
<g id="node10" class="node">
<title>Node10</title>
<g id="a_node10"><a xlink:href="utils_8h.html#a234dd9ca33bcf1fba3e675bc900abc88" target="_top" xlink:title="Returns a float clamped within the specified range.">
<polygon fill="none" stroke="black" points="302.5,-76.5 302.5,-95.5 345.5,-95.5 345.5,-76.5 302.5,-76.5"/>
<text text-anchor="middle" x="324" y="-83.5" font-family="Helvetica,sans-Serif" font-size="10.00">clamp</text>
</a>
</g>
</g>
<!-- Node9&#45;&gt;Node10 -->
<g id="edge10" class="edge">
<title>Node9&#45;&gt;Node10</title>
<path fill="none" stroke="midnightblue" d="M215.61,-152.48C222.33,-149.93 229.09,-146.8 235,-143 254.57,-130.42 251.56,-117.78 271,-105 277.65,-100.63 285.43,-97.1 292.92,-94.33"/>
<polygon fill="midnightblue" stroke="midnightblue" points="294.12,-97.62 302.47,-91.1 291.88,-90.98 294.12,-97.62"/>
</g>
<!-- Node12&#45;&gt;Node4 -->
<g id="edge15" class="edge">
<title>Node12&#45;&gt;Node4</title>
<path fill="none" stroke="midnightblue" d="M230.9,-263.81C240.91,-265.13 251.5,-266.53 261.8,-267.9"/>
<polygon fill="midnightblue" stroke="midnightblue" points="261.58,-271.4 271.96,-269.24 262.5,-264.46 261.58,-271.4"/>
</g>
</g>
</svg>
