<?xml version="1.0" encoding="UTF-8" standalone="no"?>
<!DOCTYPE svg PUBLIC "-//W3C//DTD SVG 1.1//EN"
 "http://www.w3.org/Graphics/SVG/1.1/DTD/svg11.dtd">
<!-- Generated by graphviz version 2.43.0 (0)
 -->
<!-- Title: neural_insert Pages: 1 -->
<svg width="845pt" height="522pt"
 viewBox="0.00 0.00 845.00 522.00" xmlns="http://www.w3.org/2000/svg" xmlns:xlink="http://www.w3.org/1999/xlink">
<g id="graph0" class="graph" transform="scale(1 1) rotate(0) translate(4 518)">
<title>neural_insert</title>
<!-- Node1 -->
<g id="node1" class="node">
<title>Node1</title>
<g id="a_node1"><a xlink:title="Inserts a layer into a neural network.">
<polygon fill="#bfbfbf" stroke="black" points="765,-76.5 765,-95.5 837,-95.5 837,-76.5 765,-76.5"/>
<text text-anchor="middle" x="801" y="-83.5" font-family="Helvetica,sans-Serif" font-size="10.00">neural_insert</text>
</a>
</g>
</g>
<!-- Node2 -->
<g id="node2" class="node">
<title>Node2</title>
<g id="a_node2"><a xlink:href="neural_8h.html#a1c1c06446fc719b8293aade2ded8433c" target="_top" xlink:title="Inserts a layer at the head of a neural network.">
<polygon fill="none" stroke="black" points="642.5,-133.5 642.5,-152.5 711.5,-152.5 711.5,-133.5 642.5,-133.5"/>
<text text-anchor="middle" x="677" y="-140.5" font-family="Helvetica,sans-Serif" font-size="10.00">neural_push</text>
</a>
</g>
</g>
<!-- Node1&#45;&gt;Node2 -->
<g id="edge1" class="edge">
<title>Node1&#45;&gt;Node2</title>
<path fill="none" stroke="midnightblue" d="M770.26,-99.9C748,-110.3 718.13,-124.25 698.49,-133.43"/>
<polygon fill="midnightblue" stroke="midnightblue" points="772,-102.94 779.58,-95.54 769.04,-96.6 772,-102.94"/>
</g>
<!-- Node22 -->
<g id="node22" class="node">
<title>Node22</title>
<g id="a_node22"><a xlink:href="pred__neural_8h.html#ab573aaed6ff7623e99afe1d1f6e00919" target="_top" xlink:title="Creates and inserts a hidden layer before the prediction output layer.">
<polygon fill="none" stroke="black" points="625,-57.5 625,-76.5 729,-76.5 729,-57.5 625,-57.5"/>
<text text-anchor="middle" x="677" y="-64.5" font-family="Helvetica,sans-Serif" font-size="10.00">pred_neural_expand</text>
</a>
</g>
</g>
<!-- Node1&#45;&gt;Node22 -->
<g id="edge21" class="edge">
<title>Node1&#45;&gt;Node22</title>
<path fill="none" stroke="midnightblue" d="M754.77,-78.96C746.4,-77.65 737.61,-76.28 729.09,-74.96"/>
<polygon fill="midnightblue" stroke="midnightblue" points="754.29,-82.42 764.71,-80.5 755.37,-75.51 754.29,-82.42"/>
</g>
<!-- Node3 -->
<g id="node3" class="node">
<title>Node3</title>
<g id="a_node3"><a xlink:href="neural_8h.html#acc35a399d5b8b9dd9a2d9500138966f3" target="_top" xlink:title="Copies a neural network.">
<polygon fill="none" stroke="black" points="484.5,-418.5 484.5,-437.5 553.5,-437.5 553.5,-418.5 484.5,-418.5"/>
<text text-anchor="middle" x="519" y="-425.5" font-family="Helvetica,sans-Serif" font-size="10.00">neural_copy</text>
</a>
</g>
</g>
<!-- Node2&#45;&gt;Node3 -->
<g id="edge2" class="edge">
<title>Node2&#45;&gt;Node3</title>
<path fill="none" stroke="midnightblue" d="M665.69,-161.84C635.47,-217.04 547.9,-377.03 525.35,-418.23"/>
<polygon fill="midnightblue" stroke="midnightblue" points="668.9,-163.26 670.63,-152.81 662.76,-159.9 668.9,-163.26"/>
</g>
<!-- Node8 -->
<g id="node8" class="node">
<title>Node8</title>
<g id="a_node8"><a xlink:href="neural_8h.html#a6466387dd7c533e0f15da4c2127bfd79" target="_top" xlink:title="Initialises and creates a new neural network from a parameter list.">
<polygon fill="none" stroke="black" points="481.5,-266.5 481.5,-285.5 556.5,-285.5 556.5,-266.5 481.5,-266.5"/>
<text text-anchor="middle" x="519" y="-273.5" font-family="Helvetica,sans-Serif" font-size="10.00">neural_create</text>
</a>
</g>
</g>
<!-- Node2&#45;&gt;Node8 -->
<g id="edge7" class="edge">
<title>Node2&#45;&gt;Node8</title>
<path fill="none" stroke="midnightblue" d="M656.84,-159.34C624.05,-187.29 558.15,-243.48 531.54,-266.16"/>
<polygon fill="midnightblue" stroke="midnightblue" points="659.44,-161.72 664.78,-152.57 654.9,-156.39 659.44,-161.72"/>
</g>
<!-- Node13 -->
<g id="node13" class="node">
<title>Node13</title>
<g id="a_node13"><a xlink:href="neural_8h.html#a7cb2bd3f18f66f9ccd9512b9d35d6d08" target="_top" xlink:title="Reads a neural network from a file.">
<polygon fill="none" stroke="black" points="486,-133.5 486,-152.5 552,-152.5 552,-133.5 486,-133.5"/>
<text text-anchor="middle" x="519" y="-140.5" font-family="Helvetica,sans-Serif" font-size="10.00">neural_load</text>
</a>
</g>
</g>
<!-- Node2&#45;&gt;Node13 -->
<g id="edge12" class="edge">
<title>Node2&#45;&gt;Node13</title>
<path fill="none" stroke="midnightblue" d="M632.03,-143C606.64,-143 575.27,-143 552.18,-143"/>
<polygon fill="midnightblue" stroke="midnightblue" points="632.15,-146.5 642.15,-143 632.15,-139.5 632.15,-146.5"/>
</g>
<!-- Node18 -->
<g id="node18" class="node">
<title>Node18</title>
<g id="a_node18"><a xlink:href="pred__neural_8h.html#aa639a9130cac0c222bca241f86d6c135" target="_top" xlink:title="Removes prediction (decoder) layers and inserts softmax output layer.">
<polygon fill="none" stroke="black" points="449,-66.5 449,-85.5 589,-85.5 589,-66.5 449,-66.5"/>
<text text-anchor="middle" x="519" y="-73.5" font-family="Helvetica,sans-Serif" font-size="10.00">pred_neural_ae_to_classifier</text>
</a>
</g>
</g>
<!-- Node2&#45;&gt;Node18 -->
<g id="edge17" class="edge">
<title>Node2&#45;&gt;Node18</title>
<path fill="none" stroke="midnightblue" d="M644.36,-129.41C614.04,-116.39 569.05,-97.07 542.31,-85.58"/>
<polygon fill="midnightblue" stroke="midnightblue" points="643.08,-132.67 653.65,-133.4 645.84,-126.24 643.08,-132.67"/>
</g>
<!-- Node4 -->
<g id="node4" class="node">
<title>Node4</title>
<g id="a_node4"><a xlink:href="act__neural_8h.html#a6c3049bc82f3a2bd512e156a0f1c1a9b" target="_top" xlink:title="Copies a neural network action from one classifier to another.">
<polygon fill="none" stroke="black" points="311,-494.5 311,-513.5 399,-513.5 399,-494.5 311,-494.5"/>
<text text-anchor="middle" x="355" y="-501.5" font-family="Helvetica,sans-Serif" font-size="10.00">act_neural_copy</text>
</a>
</g>
</g>
<!-- Node3&#45;&gt;Node4 -->
<g id="edge3" class="edge">
<title>Node3&#45;&gt;Node4</title>
<path fill="none" stroke="midnightblue" d="M493.59,-442.85C472.69,-455.17 441.54,-472.61 413,-485 405.06,-488.45 396.27,-491.66 388.03,-494.42"/>
<polygon fill="midnightblue" stroke="midnightblue" points="495.63,-445.71 502.43,-437.58 492.04,-439.7 495.63,-445.71"/>
</g>
<!-- Node5 -->
<g id="node5" class="node">
<title>Node5</title>
<g id="a_node5"><a xlink:href="cond__neural_8h.html#ad37696d691025a38a0f8dafeb376ad44" target="_top" xlink:title="Copies a neural network condition from one classifier to another.">
<polygon fill="none" stroke="black" points="307.5,-456.5 307.5,-475.5 402.5,-475.5 402.5,-456.5 307.5,-456.5"/>
<text text-anchor="middle" x="355" y="-463.5" font-family="Helvetica,sans-Serif" font-size="10.00">cond_neural_copy</text>
</a>
</g>
</g>
<!-- Node3&#45;&gt;Node5 -->
<g id="edge4" class="edge">
<title>Node3&#45;&gt;Node5</title>
<path fill="none" stroke="midnightblue" d="M474.46,-438.21C450.28,-443.88 420.4,-450.89 396.7,-456.45"/>
<polygon fill="midnightblue" stroke="midnightblue" points="475.5,-441.56 484.43,-435.87 473.9,-434.75 475.5,-441.56"/>
</g>
<!-- Node6 -->
<g id="node6" class="node">
<title>Node6</title>
<g id="a_node6"><a xlink:href="pred__neural_8h.html#aabc294bd7043f7ea912832c3a26b73a1" target="_top" xlink:title="Copies a neural network prediction from one classifier to another.">
<polygon fill="none" stroke="black" points="308.5,-418.5 308.5,-437.5 401.5,-437.5 401.5,-418.5 308.5,-418.5"/>
<text text-anchor="middle" x="355" y="-425.5" font-family="Helvetica,sans-Serif" font-size="10.00">pred_neural_copy</text>
</a>
</g>
</g>
<!-- Node3&#45;&gt;Node6 -->
<g id="edge5" class="edge">
<title>Node3&#45;&gt;Node6</title>
<path fill="none" stroke="midnightblue" d="M474.15,-428C451.64,-428 424.24,-428 401.5,-428"/>
<polygon fill="midnightblue" stroke="midnightblue" points="474.43,-431.5 484.43,-428 474.43,-424.5 474.43,-431.5"/>
</g>
<!-- Node7 -->
<g id="node7" class="node">
<title>Node7</title>
<g id="a_node7"><a xlink:href="rule__neural_8h.html#ad4146518a1cee7c58589d9ea89e02a83" target="_top" xlink:title=" ">
<polygon fill="none" stroke="black" points="297,-380.5 297,-399.5 413,-399.5 413,-380.5 297,-380.5"/>
<text text-anchor="middle" x="355" y="-387.5" font-family="Helvetica,sans-Serif" font-size="10.00">rule_neural_cond_copy</text>
</a>
</g>
</g>
<!-- Node3&#45;&gt;Node7 -->
<g id="edge6" class="edge">
<title>Node3&#45;&gt;Node7</title>
<path fill="none" stroke="midnightblue" d="M474.46,-417.79C450.28,-412.12 420.4,-405.11 396.7,-399.55"/>
<polygon fill="midnightblue" stroke="midnightblue" points="473.9,-421.25 484.43,-420.13 475.5,-414.44 473.9,-421.25"/>
</g>
<!-- Node9 -->
<g id="node9" class="node">
<title>Node9</title>
<g id="a_node9"><a xlink:href="act__neural_8h.html#abbdbc4d92f139ccc9816289233dbf934" target="_top" xlink:title="Creates and initialises an action neural network.">
<polygon fill="none" stroke="black" points="315,-342.5 315,-361.5 395,-361.5 395,-342.5 315,-342.5"/>
<text text-anchor="middle" x="355" y="-349.5" font-family="Helvetica,sans-Serif" font-size="10.00">act_neural_init</text>
</a>
</g>
</g>
<!-- Node8&#45;&gt;Node9 -->
<g id="edge8" class="edge">
<title>Node8&#45;&gt;Node9</title>
<path fill="none" stroke="midnightblue" d="M493.59,-290.85C472.69,-303.17 441.54,-320.61 413,-333 405.06,-336.45 396.27,-339.66 388.03,-342.42"/>
<polygon fill="midnightblue" stroke="midnightblue" points="495.63,-293.71 502.43,-285.58 492.04,-287.7 495.63,-293.71"/>
</g>
<!-- Node10 -->
<g id="node10" class="node">
<title>Node10</title>
<g id="a_node10"><a xlink:href="cond__neural_8h.html#a16f80af76361587e6da53dd21fa05b7b" target="_top" xlink:title="Creates and initialises a neural network condition.">
<polygon fill="none" stroke="black" points="311.5,-304.5 311.5,-323.5 398.5,-323.5 398.5,-304.5 311.5,-304.5"/>
<text text-anchor="middle" x="355" y="-311.5" font-family="Helvetica,sans-Serif" font-size="10.00">cond_neural_init</text>
</a>
</g>
</g>
<!-- Node8&#45;&gt;Node10 -->
<g id="edge9" class="edge">
<title>Node8&#45;&gt;Node10</title>
<path fill="none" stroke="midnightblue" d="M471.43,-286.92C447.79,-292.47 419.34,-299.14 396.6,-304.48"/>
<polygon fill="midnightblue" stroke="midnightblue" points="472.3,-290.31 481.24,-284.62 470.7,-283.5 472.3,-290.31"/>
</g>
<!-- Node11 -->
<g id="node11" class="node">
<title>Node11</title>
<g id="a_node11"><a xlink:href="pred__neural_8h.html#a8ff454a2da61b52670f4b70b71da2fe8" target="_top" xlink:title="Creates and initialises a neural network prediction.">
<polygon fill="none" stroke="black" points="312.5,-266.5 312.5,-285.5 397.5,-285.5 397.5,-266.5 312.5,-266.5"/>
<text text-anchor="middle" x="355" y="-273.5" font-family="Helvetica,sans-Serif" font-size="10.00">pred_neural_init</text>
</a>
</g>
</g>
<!-- Node8&#45;&gt;Node11 -->
<g id="edge10" class="edge">
<title>Node8&#45;&gt;Node11</title>
<path fill="none" stroke="midnightblue" d="M470.96,-276C447.81,-276 420.14,-276 397.76,-276"/>
<polygon fill="midnightblue" stroke="midnightblue" points="471.24,-279.5 481.24,-276 471.24,-272.5 471.24,-279.5"/>
</g>
<!-- Node12 -->
<g id="node12" class="node">
<title>Node12</title>
<g id="a_node12"><a xlink:href="rule__neural_8h.html#accc0db627c6130e7c8680c008b47a2e2" target="_top" xlink:title=" ">
<polygon fill="none" stroke="black" points="301,-228.5 301,-247.5 409,-247.5 409,-228.5 301,-228.5"/>
<text text-anchor="middle" x="355" y="-235.5" font-family="Helvetica,sans-Serif" font-size="10.00">rule_neural_cond_init</text>
</a>
</g>
</g>
<!-- Node8&#45;&gt;Node12 -->
<g id="edge11" class="edge">
<title>Node8&#45;&gt;Node12</title>
<path fill="none" stroke="midnightblue" d="M471.43,-265.08C447.79,-259.53 419.34,-252.86 396.6,-247.52"/>
<polygon fill="midnightblue" stroke="midnightblue" points="470.7,-268.5 481.24,-267.38 472.3,-261.69 470.7,-268.5"/>
</g>
<!-- Node14 -->
<g id="node14" class="node">
<title>Node14</title>
<g id="a_node14"><a xlink:href="act__neural_8h.html#a241289b5c61dec98b854ee24fdf16d67" target="_top" xlink:title="Reads a neural network action from a file.">
<polygon fill="none" stroke="black" points="312.5,-190.5 312.5,-209.5 397.5,-209.5 397.5,-190.5 312.5,-190.5"/>
<text text-anchor="middle" x="355" y="-197.5" font-family="Helvetica,sans-Serif" font-size="10.00">act_neural_load</text>
</a>
</g>
</g>
<!-- Node13&#45;&gt;Node14 -->
<g id="edge13" class="edge">
<title>Node13&#45;&gt;Node14</title>
<path fill="none" stroke="midnightblue" d="M482.69,-156.03C462.36,-163.47 436.29,-172.91 413,-181 403.94,-184.15 394.02,-187.49 385.05,-190.48"/>
<polygon fill="midnightblue" stroke="midnightblue" points="483.99,-159.28 492.17,-152.55 481.58,-152.71 483.99,-159.28"/>
</g>
<!-- Node15 -->
<g id="node15" class="node">
<title>Node15</title>
<g id="a_node15"><a xlink:href="cond__neural_8h.html#a8decac2646ea64aba95cd8522d295c83" target="_top" xlink:title="Reads a neural network condition from a file.">
<polygon fill="none" stroke="black" points="309,-152.5 309,-171.5 401,-171.5 401,-152.5 309,-152.5"/>
<text text-anchor="middle" x="355" y="-159.5" font-family="Helvetica,sans-Serif" font-size="10.00">cond_neural_load</text>
</a>
</g>
</g>
<!-- Node13&#45;&gt;Node15 -->
<g id="edge14" class="edge">
<title>Node13&#45;&gt;Node15</title>
<path fill="none" stroke="midnightblue" d="M475.87,-147.94C452.93,-150.63 424.52,-153.96 401.12,-156.71"/>
<polygon fill="midnightblue" stroke="midnightblue" points="476.47,-151.39 485.99,-146.75 475.65,-144.44 476.47,-151.39"/>
</g>
<!-- Node16 -->
<g id="node16" class="node">
<title>Node16</title>
<g id="a_node16"><a xlink:href="pred__neural_8h.html#aee98eff48767b879343983d0717952cc" target="_top" xlink:title="Reads a neural network prediction from a file.">
<polygon fill="none" stroke="black" points="310,-114.5 310,-133.5 400,-133.5 400,-114.5 310,-114.5"/>
<text text-anchor="middle" x="355" y="-121.5" font-family="Helvetica,sans-Serif" font-size="10.00">pred_neural_load</text>
</a>
</g>
</g>
<!-- Node13&#45;&gt;Node16 -->
<g id="edge15" class="edge">
<title>Node13&#45;&gt;Node16</title>
<path fill="none" stroke="midnightblue" d="M475.75,-138.04C452.52,-135.32 423.73,-131.94 400.2,-129.18"/>
<polygon fill="midnightblue" stroke="midnightblue" points="475.65,-141.56 485.99,-139.25 476.47,-134.61 475.65,-141.56"/>
</g>
<!-- Node17 -->
<g id="node17" class="node">
<title>Node17</title>
<g id="a_node17"><a xlink:href="rule__neural_8h.html#a0e1e69e3c01307e2423a9c3c05409d63" target="_top" xlink:title=" ">
<polygon fill="none" stroke="black" points="298.5,-76.5 298.5,-95.5 411.5,-95.5 411.5,-76.5 298.5,-76.5"/>
<text text-anchor="middle" x="355" y="-83.5" font-family="Helvetica,sans-Serif" font-size="10.00">rule_neural_cond_load</text>
</a>
</g>
</g>
<!-- Node13&#45;&gt;Node17 -->
<g id="edge16" class="edge">
<title>Node13&#45;&gt;Node17</title>
<path fill="none" stroke="midnightblue" d="M482.69,-129.97C462.36,-122.53 436.29,-113.09 413,-105 403.94,-101.85 394.02,-98.51 385.05,-95.52"/>
<polygon fill="midnightblue" stroke="midnightblue" points="481.58,-133.29 492.17,-133.45 483.99,-126.72 481.58,-133.29"/>
</g>
<!-- Node19 -->
<g id="node19" class="node">
<title>Node19</title>
<g id="a_node19"><a xlink:href="xcsf_8h.html#ad77461184a11780681798ac593b090ab" target="_top" xlink:title="Switches from autoencoding to classification.">
<polygon fill="none" stroke="black" points="300.5,-38.5 300.5,-57.5 409.5,-57.5 409.5,-38.5 300.5,-38.5"/>
<text text-anchor="middle" x="355" y="-45.5" font-family="Helvetica,sans-Serif" font-size="10.00">xcsf_ae_to_classifier</text>
</a>
</g>
</g>
<!-- Node18&#45;&gt;Node19 -->
<g id="edge18" class="edge">
<title>Node18&#45;&gt;Node19</title>
<path fill="none" stroke="midnightblue" d="M452.49,-64.68C438.27,-62.22 423.38,-59.65 409.68,-57.28"/>
<polygon fill="midnightblue" stroke="midnightblue" points="452.25,-68.19 462.7,-66.44 453.44,-61.29 452.25,-68.19"/>
</g>
<!-- Node20 -->
<g id="node20" class="node">
<title>Node20</title>
<g id="a_node20"><a xlink:href="classXCS.html#ad73009d926d395ee03bf7586f194fcbe" target="_top" xlink:title="Switches from autoencoding to classification.">
<polygon fill="none" stroke="black" points="149,-38.5 149,-57.5 261,-57.5 261,-38.5 149,-38.5"/>
<text text-anchor="middle" x="205" y="-45.5" font-family="Helvetica,sans-Serif" font-size="10.00">XCS::ae_to_classifier</text>
</a>
</g>
</g>
<!-- Node19&#45;&gt;Node20 -->
<g id="edge19" class="edge">
<title>Node19&#45;&gt;Node20</title>
<path fill="none" stroke="midnightblue" d="M289.86,-48C280.26,-48 270.44,-48 261.05,-48"/>
<polygon fill="midnightblue" stroke="midnightblue" points="290.15,-51.5 300.15,-48 290.15,-44.5 290.15,-51.5"/>
</g>
<!-- Node21 -->
<g id="node21" class="node">
<title>Node21</title>
<g id="a_node21"><a xlink:href="pybind__wrapper_8cpp.html#a269acb618355873dacf057083f07eb58" target="_top" xlink:title=" ">
<polygon fill="none" stroke="black" points="0,-19.5 0,-38.5 113,-38.5 113,-19.5 0,-19.5"/>
<text text-anchor="middle" x="56.5" y="-26.5" font-family="Helvetica,sans-Serif" font-size="10.00">pybind11_init_wrapper</text>
</a>
</g>
</g>
<!-- Node20&#45;&gt;Node21 -->
<g id="edge20" class="edge">
<title>Node20&#45;&gt;Node21</title>
<path fill="none" stroke="midnightblue" d="M138.51,-39.51C130.15,-38.42 121.64,-37.32 113.45,-36.26"/>
<polygon fill="midnightblue" stroke="midnightblue" points="138.25,-43 148.61,-40.82 139.15,-36.06 138.25,-43"/>
</g>
<!-- Node23 -->
<g id="node23" class="node">
<title>Node23</title>
<g id="a_node23"><a xlink:href="xcsf_8h.html#a6bb93a888da68d6397ce63fb58428237" target="_top" xlink:title="Inserts a new hidden layer before the output layer within all prediction neural networks in the popul...">
<polygon fill="none" stroke="black" points="471,-9.5 471,-28.5 567,-28.5 567,-9.5 471,-9.5"/>
<text text-anchor="middle" x="519" y="-16.5" font-family="Helvetica,sans-Serif" font-size="10.00">xcsf_pred_expand</text>
</a>
</g>
</g>
<!-- Node22&#45;&gt;Node23 -->
<g id="edge22" class="edge">
<title>Node22&#45;&gt;Node23</title>
<path fill="none" stroke="midnightblue" d="M635.13,-54.42C608.86,-46.34 575.25,-36 551.14,-28.58"/>
<polygon fill="midnightblue" stroke="midnightblue" points="634.22,-57.81 644.81,-57.4 636.28,-51.12 634.22,-57.81"/>
</g>
<!-- Node24 -->
<g id="node24" class="node">
<title>Node24</title>
<g id="a_node24"><a xlink:href="classXCS.html#aa4d00c1db4ef961055b74f231cbd39f0" target="_top" xlink:title="Inserts a new hidden layer before the output layer within all prediction neural networks in the popul...">
<polygon fill="none" stroke="black" points="155.5,-0.5 155.5,-19.5 254.5,-19.5 254.5,-0.5 155.5,-0.5"/>
<text text-anchor="middle" x="205" y="-7.5" font-family="Helvetica,sans-Serif" font-size="10.00">XCS::pred_expand</text>
</a>
</g>
</g>
<!-- Node23&#45;&gt;Node24 -->
<g id="edge23" class="edge">
<title>Node23&#45;&gt;Node24</title>
<path fill="none" stroke="midnightblue" d="M460.67,-17.35C401.58,-15.64 310.44,-13.01 254.72,-11.41"/>
<polygon fill="midnightblue" stroke="midnightblue" points="460.86,-20.85 470.95,-17.64 461.06,-13.86 460.86,-20.85"/>
</g>
<!-- Node24&#45;&gt;Node21 -->
<g id="edge24" class="edge">
<title>Node24&#45;&gt;Node21</title>
<path fill="none" stroke="midnightblue" d="M145.23,-17.62C134.65,-18.99 123.65,-20.42 113.16,-21.78"/>
<polygon fill="midnightblue" stroke="midnightblue" points="145.75,-21.08 155.22,-16.33 144.85,-14.14 145.75,-21.08"/>
</g>
</g>
</svg>
