<?xml version="1.0" encoding="UTF-8" standalone="no"?>
<!DOCTYPE svg PUBLIC "-//W3C//DTD SVG 1.1//EN"
 "http://www.w3.org/Graphics/SVG/1.1/DTD/svg11.dtd">
<!-- Generated by graphviz version 2.43.0 (0)
 -->
<!-- Title: mutate_neurons Pages: 1 -->
<svg width="382pt" height="256pt"
 viewBox="0.00 0.00 382.00 256.00" xmlns="http://www.w3.org/2000/svg" xmlns:xlink="http://www.w3.org/1999/xlink">
<g id="graph0" class="graph" transform="scale(1 1) rotate(0) translate(4 252)">
<title>mutate_neurons</title>
<!-- Node1 -->
<g id="node1" class="node">
<title>Node1</title>
<g id="a_node1"><a xlink:title=" ">
<polygon fill="#bfbfbf" stroke="black" points="0,-95.5 0,-114.5 86,-114.5 86,-95.5 0,-95.5"/>
<text text-anchor="middle" x="43" y="-102.5" font-family="Helvetica,sans-Serif" font-size="10.00">mutate_neurons</text>
</a>
</g>
</g>
<!-- Node2 -->
<g id="node2" class="node">
<title>Node2</title>
<g id="a_node2"><a xlink:href="neural__layer_8c.html#a7c9493f1104c01aa45507c5f624b3d06" target="_top" xlink:title="Adds N neurons to a layer. Negative N removes neurons.">
<polygon fill="none" stroke="black" points="129.5,-190.5 129.5,-209.5 227.5,-209.5 227.5,-190.5 129.5,-190.5"/>
<text text-anchor="middle" x="178.5" y="-197.5" font-family="Helvetica,sans-Serif" font-size="10.00">layer_add_neurons</text>
</a>
</g>
</g>
<!-- Node1&#45;&gt;Node2 -->
<g id="edge1" class="edge">
<title>Node1&#45;&gt;Node2</title>
<path fill="none" stroke="midnightblue" d="M51.38,-114.55C64.14,-130.47 91.88,-162.49 122,-181 125.23,-182.98 128.69,-184.79 132.24,-186.43"/>
<polygon fill="midnightblue" stroke="midnightblue" points="131.22,-189.8 141.8,-190.4 133.9,-183.33 131.22,-189.8"/>
</g>
<!-- Node6 -->
<g id="node6" class="node">
<title>Node6</title>
<g id="a_node6"><a xlink:href="neural__layer_8c.html#a80c0ed65f15305d3bba7fb3f27024ab5" target="_top" xlink:title="Returns the number of neurons to add or remove from a layer.">
<polygon fill="none" stroke="black" points="122,-152.5 122,-171.5 235,-171.5 235,-152.5 122,-152.5"/>
<text text-anchor="middle" x="178.5" y="-159.5" font-family="Helvetica,sans-Serif" font-size="10.00">layer_mutate_neurons</text>
</a>
</g>
</g>
<!-- Node1&#45;&gt;Node6 -->
<g id="edge5" class="edge">
<title>Node1&#45;&gt;Node6</title>
<path fill="none" stroke="midnightblue" d="M61.99,-114.55C77.62,-122.66 100.98,-134.32 122,-143 127.06,-145.09 132.44,-147.14 137.79,-149.07"/>
<polygon fill="midnightblue" stroke="midnightblue" points="136.7,-152.4 147.29,-152.41 139.02,-145.8 136.7,-152.4"/>
</g>
<!-- Node8 -->
<g id="node8" class="node">
<title>Node8</title>
<g id="a_node8"><a xlink:href="neural__layer_8h.html#aaffd82dc165319b5147d9b04b5f24057" target="_top" xlink:title="Resizes a layer using the previous layer&#39;s inputs.">
<polygon fill="none" stroke="black" points="144,-114.5 144,-133.5 213,-133.5 213,-114.5 144,-114.5"/>
<text text-anchor="middle" x="178.5" y="-121.5" font-family="Helvetica,sans-Serif" font-size="10.00">layer_resize</text>
</a>
</g>
</g>
<!-- Node1&#45;&gt;Node8 -->
<g id="edge9" class="edge">
<title>Node1&#45;&gt;Node8</title>
<path fill="none" stroke="midnightblue" d="M86.24,-111.01C101.38,-113.17 118.48,-115.6 133.75,-117.77"/>
<polygon fill="midnightblue" stroke="midnightblue" points="133.59,-121.29 143.98,-119.23 134.58,-114.36 133.59,-121.29"/>
</g>
<!-- Node9 -->
<g id="node9" class="node">
<title>Node9</title>
<g id="a_node9"><a xlink:href="neural__layer__recurrent_8c.html#ae26c13f50e77c562f9c50a9683924fd8" target="_top" xlink:title=" ">
<polygon fill="none" stroke="black" points="129.5,-76.5 129.5,-95.5 227.5,-95.5 227.5,-76.5 129.5,-76.5"/>
<text text-anchor="middle" x="178.5" y="-83.5" font-family="Helvetica,sans-Serif" font-size="10.00">set_layer_n_active</text>
</a>
</g>
</g>
<!-- Node1&#45;&gt;Node9 -->
<g id="edge10" class="edge">
<title>Node1&#45;&gt;Node9</title>
<path fill="none" stroke="midnightblue" d="M86.24,-98.99C96.77,-97.49 108.24,-95.86 119.38,-94.27"/>
<polygon fill="midnightblue" stroke="midnightblue" points="120.08,-97.71 129.49,-92.83 119.1,-90.78 120.08,-97.71"/>
</g>
<!-- Node10 -->
<g id="node10" class="node">
<title>Node10</title>
<g id="a_node10"><a xlink:href="neural__layer__recurrent_8c.html#add65471ddebc633f1e6dd59dc9bcf926" target="_top" xlink:title=" ">
<polygon fill="none" stroke="black" points="128,-38.5 128,-57.5 229,-57.5 229,-38.5 128,-38.5"/>
<text text-anchor="middle" x="178.5" y="-45.5" font-family="Helvetica,sans-Serif" font-size="10.00">set_layer_n_biases</text>
</a>
</g>
</g>
<!-- Node1&#45;&gt;Node10 -->
<g id="edge11" class="edge">
<title>Node1&#45;&gt;Node10</title>
<path fill="none" stroke="midnightblue" d="M61.99,-95.45C77.62,-87.34 100.98,-75.68 122,-67 127.06,-64.91 132.44,-62.86 137.79,-60.93"/>
<polygon fill="midnightblue" stroke="midnightblue" points="139.02,-64.2 147.29,-57.59 136.7,-57.6 139.02,-64.2"/>
</g>
<!-- Node11 -->
<g id="node11" class="node">
<title>Node11</title>
<g id="a_node11"><a xlink:href="neural__layer__recurrent_8c.html#a5e217fb77ac1fd2a56555889a918640f" target="_top" xlink:title=" ">
<polygon fill="none" stroke="black" points="125.5,-0.5 125.5,-19.5 231.5,-19.5 231.5,-0.5 125.5,-0.5"/>
<text text-anchor="middle" x="178.5" y="-7.5" font-family="Helvetica,sans-Serif" font-size="10.00">set_layer_n_weights</text>
</a>
</g>
</g>
<!-- Node1&#45;&gt;Node11 -->
<g id="edge12" class="edge">
<title>Node1&#45;&gt;Node11</title>
<path fill="none" stroke="midnightblue" d="M51.38,-95.45C64.14,-79.53 91.88,-47.51 122,-29 125.23,-27.02 128.69,-25.21 132.24,-23.57"/>
<polygon fill="midnightblue" stroke="midnightblue" points="133.9,-26.67 141.8,-19.6 131.22,-20.2 133.9,-26.67"/>
</g>
<!-- Node3 -->
<g id="node3" class="node">
<title>Node3</title>
<g id="a_node3"><a xlink:href="neural__layer_8c.html#a6a9344fcc62882fd9b03458539ee90cb" target="_top" xlink:title="Sets n_active to the number of non&#45;zero weights within a layer.">
<polygon fill="none" stroke="black" points="271,-228.5 271,-247.5 374,-247.5 374,-228.5 271,-228.5"/>
<text text-anchor="middle" x="322.5" y="-235.5" font-family="Helvetica,sans-Serif" font-size="10.00">layer_calc_n_active</text>
</a>
</g>
</g>
<!-- Node2&#45;&gt;Node3 -->
<g id="edge2" class="edge">
<title>Node2&#45;&gt;Node3</title>
<path fill="none" stroke="midnightblue" d="M215.33,-209.59C233.66,-214.49 256.18,-220.52 275.75,-225.76"/>
<polygon fill="midnightblue" stroke="midnightblue" points="275.11,-229.21 285.68,-228.41 276.92,-222.45 275.11,-229.21"/>
</g>
<!-- Node4 -->
<g id="node4" class="node">
<title>Node4</title>
<g id="a_node4"><a xlink:href="utils_8c.html#a6a36d869b4a218a3f55cd19067f62c0f" target="_top" xlink:title="Returns a random Gaussian with specified mean and standard deviation.">
<polygon fill="none" stroke="black" points="287.5,-190.5 287.5,-209.5 357.5,-209.5 357.5,-190.5 287.5,-190.5"/>
<text text-anchor="middle" x="322.5" y="-197.5" font-family="Helvetica,sans-Serif" font-size="10.00">rand_normal</text>
</a>
</g>
</g>
<!-- Node2&#45;&gt;Node4 -->
<g id="edge3" class="edge">
<title>Node2&#45;&gt;Node4</title>
<path fill="none" stroke="midnightblue" d="M227.57,-200C243.68,-200 261.55,-200 277.34,-200"/>
<polygon fill="midnightblue" stroke="midnightblue" points="277.37,-203.5 287.37,-200 277.37,-196.5 277.37,-203.5"/>
</g>
<!-- Node5 -->
<g id="node5" class="node">
<title>Node5</title>
<g id="a_node5"><a xlink:href="utils_8c.html#a972761ba8f47a6c3e7396a7c685158fc" target="_top" xlink:title="Returns a uniform random float [min,max].">
<polygon fill="none" stroke="black" points="286,-152.5 286,-171.5 359,-171.5 359,-152.5 286,-152.5"/>
<text text-anchor="middle" x="322.5" y="-159.5" font-family="Helvetica,sans-Serif" font-size="10.00">rand_uniform</text>
</a>
</g>
</g>
<!-- Node2&#45;&gt;Node5 -->
<g id="edge4" class="edge">
<title>Node2&#45;&gt;Node5</title>
<path fill="none" stroke="midnightblue" d="M215.33,-190.41C233.66,-185.51 256.18,-179.48 275.75,-174.24"/>
<polygon fill="midnightblue" stroke="midnightblue" points="276.92,-177.55 285.68,-171.59 275.11,-170.79 276.92,-177.55"/>
</g>
<!-- Node6&#45;&gt;Node4 -->
<g id="edge7" class="edge">
<title>Node6&#45;&gt;Node4</title>
<path fill="none" stroke="midnightblue" d="M215.33,-171.59C234.17,-176.63 257.42,-182.85 277.36,-188.19"/>
<polygon fill="midnightblue" stroke="midnightblue" points="276.58,-191.6 287.15,-190.81 278.39,-184.84 276.58,-191.6"/>
</g>
<!-- Node6&#45;&gt;Node5 -->
<g id="edge8" class="edge">
<title>Node6&#45;&gt;Node5</title>
<path fill="none" stroke="midnightblue" d="M235.21,-162C248.7,-162 262.96,-162 275.92,-162"/>
<polygon fill="midnightblue" stroke="midnightblue" points="276,-165.5 286,-162 276,-158.5 276,-165.5"/>
</g>
<!-- Node7 -->
<g id="node7" class="node">
<title>Node7</title>
<g id="a_node7"><a xlink:href="utils_8h.html#a234dd9ca33bcf1fba3e675bc900abc88" target="_top" xlink:title="Returns a float clamped within the specified range.">
<polygon fill="none" stroke="black" points="301,-114.5 301,-133.5 344,-133.5 344,-114.5 301,-114.5"/>
<text text-anchor="middle" x="322.5" y="-121.5" font-family="Helvetica,sans-Serif" font-size="10.00">clamp</text>
</a>
</g>
</g>
<!-- Node6&#45;&gt;Node7 -->
<g id="edge6" class="edge">
<title>Node6&#45;&gt;Node7</title>
<path fill="none" stroke="midnightblue" d="M215.33,-152.41C238.6,-146.19 268.6,-138.16 290.77,-132.22"/>
<polygon fill="midnightblue" stroke="midnightblue" points="291.91,-135.54 300.66,-129.58 290.1,-128.78 291.91,-135.54"/>
</g>
</g>
</svg>
