<?xml version="1.0" encoding="UTF-8" standalone="no"?>
<!DOCTYPE svg PUBLIC "-//W3C//DTD SVG 1.1//EN"
 "http://www.w3.org/Graphics/SVG/1.1/DTD/svg11.dtd">
<!-- Generated by graphviz version 2.43.0 (0)
 -->
<!-- Title: neural_layer_lstm_forward Pages: 1 -->
<svg width="536pt" height="408pt"
 viewBox="0.00 0.00 536.00 408.00" xmlns="http://www.w3.org/2000/svg" xmlns:xlink="http://www.w3.org/1999/xlink">
<g id="graph0" class="graph" transform="scale(1 1) rotate(0) translate(4 404)">
<title>neural_layer_lstm_forward</title>
<!-- Node1 -->
<g id="node1" class="node">
<title>Node1</title>
<g id="a_node1"><a xlink:title=" ">
<polygon fill="#bfbfbf" stroke="black" points="0,-266.5 0,-285.5 131,-285.5 131,-266.5 0,-266.5"/>
<text text-anchor="middle" x="65.5" y="-273.5" font-family="Helvetica,sans-Serif" font-size="10.00">neural_layer_lstm_forward</text>
</a>
</g>
</g>
<!-- Node2 -->
<g id="node2" class="node">
<title>Node2</title>
<g id="a_node2"><a xlink:href="blas_8c.html#ad4fa7c98f973bedeaf96fa3757229876" target="_top" xlink:title="Multiplies vector X by the scalar ALPHA and adds it to the vector Y.">
<polygon fill="none" stroke="black" points="191.5,-323.5 191.5,-342.5 252.5,-342.5 252.5,-323.5 191.5,-323.5"/>
<text text-anchor="middle" x="222" y="-330.5" font-family="Helvetica,sans-Serif" font-size="10.00">blas_axpy</text>
</a>
</g>
</g>
<!-- Node1&#45;&gt;Node2 -->
<g id="edge1" class="edge">
<title>Node1&#45;&gt;Node2</title>
<path fill="none" stroke="midnightblue" d="M91.22,-285.53C111.53,-293.31 141.07,-304.54 167,-314 172.5,-316.01 178.33,-318.1 184.05,-320.13"/>
<polygon fill="midnightblue" stroke="midnightblue" points="182.89,-323.43 193.48,-323.46 185.22,-316.83 182.89,-323.43"/>
</g>
<!-- Node3 -->
<g id="node3" class="node">
<title>Node3</title>
<g id="a_node3"><a xlink:href="blas_8c.html#adfdbb2f078abcca5ca746f30a0bed04a" target="_top" xlink:title="Multiplies vector X by the vector Y and stores the result in vector Y.">
<polygon fill="none" stroke="black" points="194,-285.5 194,-304.5 250,-304.5 250,-285.5 194,-285.5"/>
<text text-anchor="middle" x="222" y="-292.5" font-family="Helvetica,sans-Serif" font-size="10.00">blas_mul</text>
</a>
</g>
</g>
<!-- Node1&#45;&gt;Node3 -->
<g id="edge2" class="edge">
<title>Node1&#45;&gt;Node3</title>
<path fill="none" stroke="midnightblue" d="M131.13,-283.95C149,-286.15 167.8,-288.46 183.55,-290.39"/>
<polygon fill="midnightblue" stroke="midnightblue" points="183.58,-293.92 193.93,-291.67 184.43,-286.98 183.58,-293.92"/>
</g>
<!-- Node4 -->
<g id="node4" class="node">
<title>Node4</title>
<g id="a_node4"><a xlink:href="neural__layer_8h.html#a8f853ce40e3ff3a4304cfc94a50e7861" target="_top" xlink:title="Forward propagates an input through the layer.">
<polygon fill="none" stroke="black" points="184.5,-247.5 184.5,-266.5 259.5,-266.5 259.5,-247.5 184.5,-247.5"/>
<text text-anchor="middle" x="222" y="-254.5" font-family="Helvetica,sans-Serif" font-size="10.00">layer_forward</text>
</a>
</g>
</g>
<!-- Node1&#45;&gt;Node4 -->
<g id="edge3" class="edge">
<title>Node1&#45;&gt;Node4</title>
<path fill="none" stroke="midnightblue" d="M131.13,-268.05C145.62,-266.27 160.73,-264.41 174.33,-262.74"/>
<polygon fill="midnightblue" stroke="midnightblue" points="174.9,-266.2 184.4,-261.5 174.05,-259.25 174.9,-266.2"/>
</g>
<!-- Node5 -->
<g id="node5" class="node">
<title>Node5</title>
<g id="a_node5"><a xlink:href="neural__activations_8c.html#acef0d15cd01c7dcc5a4d6d8bdc1d8bad" target="_top" xlink:title="Applies a specified activation function to an array.">
<polygon fill="none" stroke="black" points="167,-209.5 167,-228.5 277,-228.5 277,-209.5 167,-209.5"/>
<text text-anchor="middle" x="222" y="-216.5" font-family="Helvetica,sans-Serif" font-size="10.00">neural_activate_array</text>
</a>
</g>
</g>
<!-- Node1&#45;&gt;Node5 -->
<g id="edge4" class="edge">
<title>Node1&#45;&gt;Node5</title>
<path fill="none" stroke="midnightblue" d="M91.22,-266.47C111.53,-258.69 141.07,-247.46 167,-238 172.5,-235.99 178.33,-233.9 184.05,-231.87"/>
<polygon fill="midnightblue" stroke="midnightblue" points="185.22,-235.17 193.48,-228.54 182.89,-228.57 185.22,-235.17"/>
</g>
<!-- Node6 -->
<g id="node6" class="node">
<title>Node6</title>
<g id="a_node6"><a xlink:href="utils_8h.html#a234dd9ca33bcf1fba3e675bc900abc88" target="_top" xlink:title="Returns a float clamped within the specified range.">
<polygon fill="none" stroke="black" points="333,-228.5 333,-247.5 376,-247.5 376,-228.5 333,-228.5"/>
<text text-anchor="middle" x="354.5" y="-235.5" font-family="Helvetica,sans-Serif" font-size="10.00">clamp</text>
</a>
</g>
</g>
<!-- Node5&#45;&gt;Node6 -->
<g id="edge5" class="edge">
<title>Node5&#45;&gt;Node6</title>
<path fill="none" stroke="midnightblue" d="M277.21,-226.89C292.68,-229.15 309.01,-231.52 322.57,-233.5"/>
<polygon fill="midnightblue" stroke="midnightblue" points="322.38,-237.01 332.78,-234.98 323.39,-230.08 322.38,-237.01"/>
</g>
<!-- Node7 -->
<g id="node7" class="node">
<title>Node7</title>
<g id="a_node7"><a xlink:href="neural__activations_8c.html#a00b26b831c9b6ad65114ee7c1dd6760e" target="_top" xlink:title="Returns the result from applying a specified activation function.">
<polygon fill="none" stroke="black" points="313,-190.5 313,-209.5 396,-209.5 396,-190.5 313,-190.5"/>
<text text-anchor="middle" x="354.5" y="-197.5" font-family="Helvetica,sans-Serif" font-size="10.00">neural_activate</text>
</a>
</g>
</g>
<!-- Node5&#45;&gt;Node7 -->
<g id="edge6" class="edge">
<title>Node5&#45;&gt;Node7</title>
<path fill="none" stroke="midnightblue" d="M277.21,-211.11C285.67,-209.88 294.39,-208.61 302.77,-207.39"/>
<polygon fill="midnightblue" stroke="midnightblue" points="303.4,-210.83 312.79,-205.93 302.39,-203.9 303.4,-210.83"/>
</g>
<!-- Node8 -->
<g id="node8" class="node">
<title>Node8</title>
<g id="a_node8"><a xlink:href="neural__activations_8h.html#a2a1911ebfe2cce90f9b909d685a59d15" target="_top" xlink:title=" ">
<polygon fill="none" stroke="black" points="444,-380.5 444,-399.5 516,-399.5 516,-380.5 444,-380.5"/>
<text text-anchor="middle" x="480" y="-387.5" font-family="Helvetica,sans-Serif" font-size="10.00">cos_activate</text>
</a>
</g>
</g>
<!-- Node7&#45;&gt;Node8 -->
<g id="edge7" class="edge">
<title>Node7&#45;&gt;Node8</title>
<path fill="none" stroke="midnightblue" d="M384.38,-209.52C388.77,-212.03 392.87,-215.14 396,-219 439.78,-272.88 386.77,-318.33 432,-371 433.14,-372.33 434.39,-373.57 435.73,-374.72"/>
<polygon fill="midnightblue" stroke="midnightblue" points="433.88,-377.7 444.11,-380.43 437.82,-371.91 433.88,-377.7"/>
</g>
<!-- Node9 -->
<g id="node9" class="node">
<title>Node9</title>
<g id="a_node9"><a xlink:href="neural__activations_8h.html#a5a67647a321713d6ac1586b89dcdceb0" target="_top" xlink:title=" ">
<polygon fill="none" stroke="black" points="432.5,-342.5 432.5,-361.5 527.5,-361.5 527.5,-342.5 432.5,-342.5"/>
<text text-anchor="middle" x="480" y="-349.5" font-family="Helvetica,sans-Serif" font-size="10.00">gaussian_activate</text>
</a>
</g>
</g>
<!-- Node7&#45;&gt;Node9 -->
<g id="edge8" class="edge">
<title>Node7&#45;&gt;Node9</title>
<path fill="none" stroke="midnightblue" d="M384.15,-209.72C388.56,-212.2 392.73,-215.26 396,-219 431,-258.98 395.93,-293.99 432,-333 433.34,-334.45 434.82,-335.8 436.38,-337.04"/>
<polygon fill="midnightblue" stroke="midnightblue" points="434.53,-340.01 444.84,-342.46 438.31,-334.12 434.53,-340.01"/>
</g>
<!-- Node10 -->
<g id="node10" class="node">
<title>Node10</title>
<g id="a_node10"><a xlink:href="neural__activations_8h.html#aca09887967da390ec55c3f4a1f2dee48" target="_top" xlink:title=" ">
<polygon fill="none" stroke="black" points="440,-304.5 440,-323.5 520,-323.5 520,-304.5 440,-304.5"/>
<text text-anchor="middle" x="480" y="-311.5" font-family="Helvetica,sans-Serif" font-size="10.00">leaky_activate</text>
</a>
</g>
</g>
<!-- Node7&#45;&gt;Node10 -->
<g id="edge9" class="edge">
<title>Node7&#45;&gt;Node10</title>
<path fill="none" stroke="midnightblue" d="M382.89,-209.66C387.65,-212.18 392.26,-215.27 396,-219 422.48,-245.38 404.81,-269.35 432,-295 433.66,-296.57 435.48,-298.02 437.39,-299.35"/>
<polygon fill="midnightblue" stroke="midnightblue" points="435.85,-302.51 446.26,-304.49 439.36,-296.45 435.85,-302.51"/>
</g>
<!-- Node11 -->
<g id="node11" class="node">
<title>Node11</title>
<g id="a_node11"><a xlink:href="neural__activations_8h.html#ab867da5d496341c42b73c27ccc9b5f2b" target="_top" xlink:title=" ">
<polygon fill="none" stroke="black" points="440,-266.5 440,-285.5 520,-285.5 520,-266.5 440,-266.5"/>
<text text-anchor="middle" x="480" y="-273.5" font-family="Helvetica,sans-Serif" font-size="10.00">linear_activate</text>
</a>
</g>
</g>
<!-- Node7&#45;&gt;Node11 -->
<g id="edge10" class="edge">
<title>Node7&#45;&gt;Node11</title>
<path fill="none" stroke="midnightblue" d="M379.89,-209.64C385.41,-212.3 391.09,-215.45 396,-219 414.86,-232.62 412.78,-243.9 432,-257 434.69,-258.83 437.59,-260.54 440.57,-262.1"/>
<polygon fill="midnightblue" stroke="midnightblue" points="439.13,-265.3 449.67,-266.41 442.13,-258.97 439.13,-265.3"/>
</g>
<!-- Node12 -->
<g id="node12" class="node">
<title>Node12</title>
<g id="a_node12"><a xlink:href="neural__activations_8h.html#a72f509e640dc8b6e9b33af9d8d2aa023" target="_top" xlink:title=" ">
<polygon fill="none" stroke="black" points="440,-228.5 440,-247.5 520,-247.5 520,-228.5 440,-228.5"/>
<text text-anchor="middle" x="480" y="-235.5" font-family="Helvetica,sans-Serif" font-size="10.00">loggy_activate</text>
</a>
</g>
</g>
<!-- Node7&#45;&gt;Node12 -->
<g id="edge11" class="edge">
<title>Node7&#45;&gt;Node12</title>
<path fill="none" stroke="midnightblue" d="M386.66,-209.59C402.31,-214.4 421.47,-220.3 438.27,-225.47"/>
<polygon fill="midnightblue" stroke="midnightblue" points="437.26,-228.82 447.85,-228.41 439.32,-222.13 437.26,-228.82"/>
</g>
<!-- Node13 -->
<g id="node13" class="node">
<title>Node13</title>
<g id="a_node13"><a xlink:href="neural__activations_8h.html#ac92b3d5389aff87e855b8ae05b9ec0f9" target="_top" xlink:title=" ">
<polygon fill="none" stroke="black" points="436.5,-190.5 436.5,-209.5 523.5,-209.5 523.5,-190.5 436.5,-190.5"/>
<text text-anchor="middle" x="480" y="-197.5" font-family="Helvetica,sans-Serif" font-size="10.00">logistic_activate</text>
</a>
</g>
</g>
<!-- Node7&#45;&gt;Node13 -->
<g id="edge12" class="edge">
<title>Node7&#45;&gt;Node13</title>
<path fill="none" stroke="midnightblue" d="M396.28,-200C405.77,-200 416.01,-200 425.95,-200"/>
<polygon fill="midnightblue" stroke="midnightblue" points="426.14,-203.5 436.14,-200 426.14,-196.5 426.14,-203.5"/>
</g>
<!-- Node14 -->
<g id="node14" class="node">
<title>Node14</title>
<g id="a_node14"><a xlink:href="neural__activations_8h.html#a36d1fc0c7b2462a22d82d41138bd79eb" target="_top" xlink:title=" ">
<polygon fill="none" stroke="black" points="444,-152.5 444,-171.5 516,-171.5 516,-152.5 444,-152.5"/>
<text text-anchor="middle" x="480" y="-159.5" font-family="Helvetica,sans-Serif" font-size="10.00">relu_activate</text>
</a>
</g>
</g>
<!-- Node7&#45;&gt;Node14 -->
<g id="edge13" class="edge">
<title>Node7&#45;&gt;Node14</title>
<path fill="none" stroke="midnightblue" d="M386.66,-190.41C402.31,-185.6 421.47,-179.7 438.27,-174.53"/>
<polygon fill="midnightblue" stroke="midnightblue" points="439.32,-177.87 447.85,-171.59 437.26,-171.18 439.32,-177.87"/>
</g>
<!-- Node15 -->
<g id="node15" class="node">
<title>Node15</title>
<g id="a_node15"><a xlink:href="neural__activations_8h.html#ae8360118176b50bcc1ce7b6e9a5c5d96" target="_top" xlink:title=" ">
<polygon fill="none" stroke="black" points="443,-114.5 443,-133.5 517,-133.5 517,-114.5 443,-114.5"/>
<text text-anchor="middle" x="480" y="-121.5" font-family="Helvetica,sans-Serif" font-size="10.00">selu_activate</text>
</a>
</g>
</g>
<!-- Node7&#45;&gt;Node15 -->
<g id="edge14" class="edge">
<title>Node7&#45;&gt;Node15</title>
<path fill="none" stroke="midnightblue" d="M366.78,-190.13C381.17,-177.89 407.17,-156.96 432,-143 435.26,-141.17 438.73,-139.42 442.26,-137.78"/>
<polygon fill="midnightblue" stroke="midnightblue" points="443.84,-140.91 451.6,-133.7 441.04,-134.49 443.84,-140.91"/>
</g>
<!-- Node16 -->
<g id="node16" class="node">
<title>Node16</title>
<g id="a_node16"><a xlink:href="neural__activations_8h.html#addeba3077f238bf95ab678521f3f01f4" target="_top" xlink:title=" ">
<polygon fill="none" stroke="black" points="445.5,-76.5 445.5,-95.5 514.5,-95.5 514.5,-76.5 445.5,-76.5"/>
<text text-anchor="middle" x="480" y="-83.5" font-family="Helvetica,sans-Serif" font-size="10.00">sin_activate</text>
</a>
</g>
</g>
<!-- Node7&#45;&gt;Node16 -->
<g id="edge15" class="edge">
<title>Node7&#45;&gt;Node16</title>
<path fill="none" stroke="midnightblue" d="M360.98,-190.29C372.09,-171.42 399.01,-129.48 432,-105 434.32,-103.28 436.82,-101.69 439.41,-100.22"/>
<polygon fill="midnightblue" stroke="midnightblue" points="441.07,-103.3 448.46,-95.7 437.94,-97.04 441.07,-103.3"/>
</g>
<!-- Node17 -->
<g id="node17" class="node">
<title>Node17</title>
<g id="a_node17"><a xlink:href="neural__activations_8h.html#a72a5c108b60b2e169e798a31a16ed5c9" target="_top" xlink:title=" ">
<polygon fill="none" stroke="black" points="432,-38.5 432,-57.5 528,-57.5 528,-38.5 432,-38.5"/>
<text text-anchor="middle" x="480" y="-45.5" font-family="Helvetica,sans-Serif" font-size="10.00">soft_plus_activate</text>
</a>
</g>
</g>
<!-- Node7&#45;&gt;Node17 -->
<g id="edge16" class="edge">
<title>Node7&#45;&gt;Node17</title>
<path fill="none" stroke="midnightblue" d="M358.61,-190.18C366.77,-165.95 391.02,-102.69 432,-67 433.92,-65.33 436,-63.8 438.18,-62.39"/>
<polygon fill="midnightblue" stroke="midnightblue" points="439.91,-65.43 447,-57.56 436.55,-59.29 439.91,-65.43"/>
</g>
<!-- Node18 -->
<g id="node18" class="node">
<title>Node18</title>
<g id="a_node18"><a xlink:href="neural__activations_8h.html#ad5b55632ec4cca70c5cac2f139ab7890" target="_top" xlink:title=" ">
<polygon fill="none" stroke="black" points="442.5,-0.5 442.5,-19.5 517.5,-19.5 517.5,-0.5 442.5,-0.5"/>
<text text-anchor="middle" x="480" y="-7.5" font-family="Helvetica,sans-Serif" font-size="10.00">tanh_activate</text>
</a>
</g>
</g>
<!-- Node7&#45;&gt;Node18 -->
<g id="edge17" class="edge">
<title>Node7&#45;&gt;Node18</title>
<path fill="none" stroke="midnightblue" d="M357.18,-190.42C362.66,-161.91 382.6,-76.63 432,-29 433.47,-27.58 435.07,-26.26 436.75,-25.04"/>
<polygon fill="midnightblue" stroke="midnightblue" points="438.92,-27.81 445.7,-19.67 435.33,-21.81 438.92,-27.81"/>
</g>
</g>
</svg>
