<?xml version="1.0" encoding="UTF-8" standalone="no"?>
<!DOCTYPE svg PUBLIC "-//W3C//DTD SVG 1.1//EN"
 "http://www.w3.org/Graphics/SVG/1.1/DTD/svg11.dtd">
<!-- Generated by graphviz version 2.43.0 (0)
 -->
<!-- Title: neural_layer_maxpool_forward Pages: 1 -->
<svg width="314pt" height="66pt"
 viewBox="0.00 0.00 314.00 66.00" xmlns="http://www.w3.org/2000/svg" xmlns:xlink="http://www.w3.org/1999/xlink">
<g id="graph0" class="graph" transform="scale(1 1) rotate(0) translate(4 62)">
<title>neural_layer_maxpool_forward</title>
<!-- Node1 -->
<g id="node1" class="node">
<title>Node1</title>
<g id="a_node1"><a xlink:title="Forward propagates a maxpooling layer.">
<polygon fill="#bfbfbf" stroke="black" points="0,-14 0,-44 111,-44 111,-14 0,-14"/>
<text text-anchor="start" x="8" y="-32" font-family="Helvetica,sans-Serif" font-size="10.00">neural_layer_maxpool</text>
<text text-anchor="middle" x="55.5" y="-21" font-family="Helvetica,sans-Serif" font-size="10.00">_forward</text>
</a>
</g>
</g>
<!-- Node2 -->
<g id="node2" class="node">
<title>Node2</title>
<g id="a_node2"><a xlink:href="utils_8h.html#adc87687be632aa642e838b81a7404db1" target="_top" xlink:title="Returns the index of the largest element in vector X.">
<polygon fill="none" stroke="black" points="242,-38.5 242,-57.5 306,-57.5 306,-38.5 242,-38.5"/>
<text text-anchor="middle" x="274" y="-45.5" font-family="Helvetica,sans-Serif" font-size="10.00">max_index</text>
</a>
</g>
</g>
<!-- Node1&#45;&gt;Node2 -->
<g id="edge1" class="edge">
<title>Node1&#45;&gt;Node2</title>
<path fill="none" stroke="midnightblue" d="M111.13,-33.79C148.59,-37.08 197.52,-41.38 231.73,-44.38"/>
<polygon fill="midnightblue" stroke="midnightblue" points="231.58,-47.88 241.85,-45.27 232.2,-40.91 231.58,-47.88"/>
</g>
<!-- Node3 -->
<g id="node3" class="node">
<title>Node3</title>
<g id="a_node3"><a xlink:href="neural__layer__maxpool_8c.html#a03e721637071990d769895cac88b29a8" target="_top" xlink:title="Returns the index of the maximum input value corresponding to a specified output height,...">
<polygon fill="none" stroke="black" points="147,-0.5 147,-19.5 206,-19.5 206,-0.5 147,-0.5"/>
<text text-anchor="middle" x="176.5" y="-7.5" font-family="Helvetica,sans-Serif" font-size="10.00">max_pool</text>
</a>
</g>
</g>
<!-- Node1&#45;&gt;Node3 -->
<g id="edge2" class="edge">
<title>Node1&#45;&gt;Node3</title>
<path fill="none" stroke="midnightblue" d="M111.12,-20.28C119.8,-18.89 128.62,-17.49 136.83,-16.17"/>
<polygon fill="midnightblue" stroke="midnightblue" points="137.53,-19.61 146.85,-14.57 136.43,-12.69 137.53,-19.61"/>
</g>
<!-- Node3&#45;&gt;Node2 -->
<g id="edge4" class="edge">
<title>Node3&#45;&gt;Node2</title>
<path fill="none" stroke="midnightblue" d="M201.6,-19.59C213.02,-24.13 226.86,-29.64 239.3,-34.59"/>
<polygon fill="midnightblue" stroke="midnightblue" points="238.32,-37.97 248.91,-38.41 240.91,-31.46 238.32,-37.97"/>
</g>
<!-- Node4 -->
<g id="node4" class="node">
<title>Node4</title>
<g id="a_node4"><a xlink:href="neural__layer_8h.html#af3da4af94dd537080a072c07c66d955d" target="_top" xlink:title="Prints the layer.">
<polygon fill="none" stroke="black" points="243,-0.5 243,-19.5 305,-19.5 305,-0.5 243,-0.5"/>
<text text-anchor="middle" x="274" y="-7.5" font-family="Helvetica,sans-Serif" font-size="10.00">layer_print</text>
</a>
</g>
</g>
<!-- Node3&#45;&gt;Node4 -->
<g id="edge3" class="edge">
<title>Node3&#45;&gt;Node4</title>
<path fill="none" stroke="midnightblue" d="M206.15,-10C214.45,-10 223.66,-10 232.53,-10"/>
<polygon fill="midnightblue" stroke="midnightblue" points="232.71,-13.5 242.71,-10 232.71,-6.5 232.71,-13.5"/>
</g>
</g>
</svg>
