<?xml version="1.0" encoding="UTF-8" standalone="no"?>
<!DOCTYPE svg PUBLIC "-//W3C//DTD SVG 1.1//EN"
 "http://www.w3.org/Graphics/SVG/1.1/DTD/svg11.dtd">
<!-- Generated by graphviz version 2.43.0 (0)
 -->
<!-- Title: neural.c Pages: 1 -->
<svg width="726pt" height="302pt"
 viewBox="0.00 0.00 725.79 302.00" xmlns="http://www.w3.org/2000/svg" xmlns:xlink="http://www.w3.org/1999/xlink">
<g id="graph0" class="graph" transform="scale(1 1) rotate(0) translate(4 298)">
<title>neural.c</title>
<!-- Node1 -->
<g id="Node000001" class="node">
<title>Node1</title>
<g id="a_Node000001"><a xlink:title="An implementation of a multi&#45;layer perceptron neural network.">
<polygon fill="#999999" stroke="#666666" points="398.5,-294 347.5,-294 347.5,-275 398.5,-275 398.5,-294"/>
<text text-anchor="middle" x="373" y="-282" font-family="Helvetica,sans-Serif" font-size="10.00">neural.c</text>
</a>
</g>
</g>
<!-- Node2 -->
<g id="Node000002" class="node">
<title>Node2</title>
<g id="a_Node000002"><a xlink:href="neural_8h.html" target="_top" xlink:title="An implementation of a multi&#45;layer perceptron neural network.">
<polygon fill="white" stroke="#666666" points="456.5,-129 405.5,-129 405.5,-110 456.5,-110 456.5,-129"/>
<text text-anchor="middle" x="431" y="-117" font-family="Helvetica,sans-Serif" font-size="10.00">neural.h</text>
</a>
</g>
</g>
<!-- Node1&#45;&gt;Node2 -->
<g id="edge1_Node000001_Node000002" class="edge">
<title>Node1&#45;&gt;Node2</title>
<g id="a_edge1_Node000001_Node000002"><a xlink:title=" ">
<path fill="none" stroke="#63b8ff" d="M398.59,-284.17C469.2,-285.41 664.16,-284.56 704,-239 773.95,-159.02 555.36,-131.07 466.66,-123.17"/>
<polygon fill="#63b8ff" stroke="#63b8ff" points="466.77,-119.67 456.51,-122.3 466.18,-126.64 466.77,-119.67"/>
</a>
</g>
</g>
<!-- Node3 -->
<g id="Node000003" class="node">
<title>Node3</title>
<g id="a_Node000003"><a xlink:href="utils_8h.html" target="_top" xlink:title="Utility functions for random number handling, etc.">
<polygon fill="white" stroke="#666666" points="323.5,-74 280.5,-74 280.5,-55 323.5,-55 323.5,-74"/>
<text text-anchor="middle" x="302" y="-62" font-family="Helvetica,sans-Serif" font-size="10.00">utils.h</text>
</a>
</g>
</g>
<!-- Node1&#45;&gt;Node3 -->
<g id="edge27_Node000001_Node000003" class="edge">
<title>Node1&#45;&gt;Node3</title>
<g id="a_edge27_Node000001_Node000003"><a xlink:title=" ">
<path fill="none" stroke="#63b8ff" d="M347.24,-282.15C270.16,-277.83 45.37,-263.27 24,-239 -54.85,-149.45 182.07,-90.18 270.3,-71.68"/>
<polygon fill="#63b8ff" stroke="#63b8ff" points="271.2,-75.07 280.29,-69.63 269.79,-68.21 271.2,-75.07"/>
</a>
</g>
</g>
<!-- Node12 -->
<g id="Node000012" class="node">
<title>Node12</title>
<g id="a_Node000012"><a xlink:href="neural__layer__connected_8h.html" target="_top" xlink:title="An implementation of a fully&#45;connected layer of perceptrons.">
<polygon fill="white" stroke="#666666" points="297,-239 169,-239 169,-220 297,-220 297,-239"/>
<text text-anchor="middle" x="233" y="-227" font-family="Helvetica,sans-Serif" font-size="10.00">neural_layer_connected.h</text>
</a>
</g>
</g>
<!-- Node1&#45;&gt;Node12 -->
<g id="edge14_Node000001_Node000012" class="edge">
<title>Node1&#45;&gt;Node12</title>
<g id="a_edge14_Node000001_Node000012"><a xlink:title=" ">
<path fill="none" stroke="#63b8ff" d="M350.51,-274.98C327.48,-266.27 291.46,-252.63 265.37,-242.75"/>
<polygon fill="#63b8ff" stroke="#63b8ff" points="266.49,-239.44 255.9,-239.17 264.02,-245.98 266.49,-239.44"/>
</a>
</g>
</g>
<!-- Node15 -->
<g id="Node000015" class="node">
<title>Node15</title>
<g id="a_Node000015"><a xlink:href="neural__layer__dropout_8h.html" target="_top" xlink:title="An implementation of a dropout layer.">
<polygon fill="white" stroke="#666666" points="430.5,-239 315.5,-239 315.5,-220 430.5,-220 430.5,-239"/>
<text text-anchor="middle" x="373" y="-227" font-family="Helvetica,sans-Serif" font-size="10.00">neural_layer_dropout.h</text>
</a>
</g>
</g>
<!-- Node1&#45;&gt;Node15 -->
<g id="edge19_Node000001_Node000015" class="edge">
<title>Node1&#45;&gt;Node15</title>
<g id="a_edge19_Node000001_Node000015"><a xlink:title=" ">
<path fill="none" stroke="#63b8ff" d="M373,-274.75C373,-267.8 373,-257.85 373,-249.13"/>
<polygon fill="#63b8ff" stroke="#63b8ff" points="376.5,-249.09 373,-239.09 369.5,-249.09 376.5,-249.09"/>
</a>
</g>
</g>
<!-- Node16 -->
<g id="Node000016" class="node">
<title>Node16</title>
<g id="a_Node000016"><a xlink:href="neural__layer__noise_8h.html" target="_top" xlink:title="An implementation of a Gaussian noise adding layer.">
<polygon fill="white" stroke="#666666" points="555,-239 449,-239 449,-220 555,-220 555,-239"/>
<text text-anchor="middle" x="502" y="-227" font-family="Helvetica,sans-Serif" font-size="10.00">neural_layer_noise.h</text>
</a>
</g>
</g>
<!-- Node1&#45;&gt;Node16 -->
<g id="edge21_Node000001_Node000016" class="edge">
<title>Node1&#45;&gt;Node16</title>
<g id="a_edge21_Node000001_Node000016"><a xlink:title=" ">
<path fill="none" stroke="#63b8ff" d="M393.73,-274.98C414.76,-266.34 447.55,-252.87 471.54,-243.02"/>
<polygon fill="#63b8ff" stroke="#63b8ff" points="472.98,-246.21 480.9,-239.17 470.32,-239.73 472.98,-246.21"/>
</a>
</g>
</g>
<!-- Node17 -->
<g id="Node000017" class="node">
<title>Node17</title>
<g id="a_Node000017"><a xlink:href="neural__layer__recurrent_8h.html" target="_top" xlink:title="An implementation of a recurrent layer of perceptrons.">
<polygon fill="white" stroke="#666666" points="694.5,-239 573.5,-239 573.5,-220 694.5,-220 694.5,-239"/>
<text text-anchor="middle" x="634" y="-227" font-family="Helvetica,sans-Serif" font-size="10.00">neural_layer_recurrent.h</text>
</a>
</g>
</g>
<!-- Node1&#45;&gt;Node17 -->
<g id="edge23_Node000001_Node000017" class="edge">
<title>Node1&#45;&gt;Node17</title>
<g id="a_edge23_Node000001_Node000017"><a xlink:title=" ">
<path fill="none" stroke="#63b8ff" d="M398.5,-278.32C440.77,-269.74 526.16,-252.4 581.67,-241.13"/>
<polygon fill="#63b8ff" stroke="#63b8ff" points="582.57,-244.52 591.67,-239.1 581.18,-237.66 582.57,-244.52"/>
</a>
</g>
</g>
<!-- Node18 -->
<g id="Node000018" class="node">
<title>Node18</title>
<g id="a_Node000018"><a xlink:href="neural__layer__softmax_8h.html" target="_top" xlink:title="An implementation of a softmax layer.">
<polygon fill="white" stroke="#666666" points="151,-239 33,-239 33,-220 151,-220 151,-239"/>
<text text-anchor="middle" x="92" y="-227" font-family="Helvetica,sans-Serif" font-size="10.00">neural_layer_softmax.h</text>
</a>
</g>
</g>
<!-- Node1&#45;&gt;Node18 -->
<g id="edge25_Node000001_Node000018" class="edge">
<title>Node1&#45;&gt;Node18</title>
<g id="a_edge25_Node000001_Node000018"><a xlink:title=" ">
<path fill="none" stroke="#63b8ff" d="M347.07,-278.61C301.86,-270.08 207.68,-252.32 147.28,-240.93"/>
<polygon fill="#63b8ff" stroke="#63b8ff" points="147.62,-237.43 137.15,-239.02 146.33,-244.31 147.62,-237.43"/>
</a>
</g>
</g>
<!-- Node2&#45;&gt;Node3 -->
<g id="edge2_Node000002_Node000003" class="edge">
<title>Node2&#45;&gt;Node3</title>
<g id="a_edge2_Node000002_Node000003"><a xlink:title=" ">
<path fill="none" stroke="#63b8ff" d="M410.27,-109.98C389.24,-101.34 356.45,-87.87 332.46,-78.02"/>
<polygon fill="#63b8ff" stroke="#63b8ff" points="333.68,-74.73 323.1,-74.17 331.02,-81.21 333.68,-74.73"/>
</a>
</g>
</g>
<!-- Node7 -->
<g id="Node000007" class="node">
<title>Node7</title>
<g id="a_Node000007"><a xlink:title=" ">
<polygon fill="#e0e0e0" stroke="#999999" points="553,-19 497,-19 497,0 553,0 553,-19"/>
<text text-anchor="middle" x="525" y="-7" font-family="Helvetica,sans-Serif" font-size="10.00">stdbool.h</text>
</a>
</g>
</g>
<!-- Node2&#45;&gt;Node7 -->
<g id="edge9_Node000002_Node000007" class="edge">
<title>Node2&#45;&gt;Node7</title>
<g id="a_edge9_Node000002_Node000007"><a xlink:title=" ">
<path fill="none" stroke="#63b8ff" d="M456.75,-116.46C483.64,-112.81 524.54,-102.58 544,-74 553.58,-59.93 545.75,-40.93 537.43,-27.39"/>
<polygon fill="#63b8ff" stroke="#63b8ff" points="540.28,-25.36 531.8,-19.01 534.47,-29.26 540.28,-25.36"/>
</a>
</g>
</g>
<!-- Node8 -->
<g id="Node000008" class="node">
<title>Node8</title>
<g id="a_Node000008"><a xlink:title=" ">
<polygon fill="#e0e0e0" stroke="#999999" points="375,-19 329,-19 329,0 375,0 375,-19"/>
<text text-anchor="middle" x="352" y="-7" font-family="Helvetica,sans-Serif" font-size="10.00">stdio.h</text>
</a>
</g>
</g>
<!-- Node2&#45;&gt;Node8 -->
<g id="edge11_Node000002_Node000008" class="edge">
<title>Node2&#45;&gt;Node8</title>
<g id="a_edge11_Node000002_Node000008"><a xlink:title=" ">
<path fill="none" stroke="#63b8ff" d="M424.54,-109.66C411.39,-91.69 381.36,-50.64 364.35,-27.38"/>
<polygon fill="#63b8ff" stroke="#63b8ff" points="367.06,-25.16 358.33,-19.16 361.41,-29.3 367.06,-25.16"/>
</a>
</g>
</g>
<!-- Node9 -->
<g id="Node000009" class="node">
<title>Node9</title>
<g id="a_Node000009"><a xlink:title=" ">
<polygon fill="#e0e0e0" stroke="#999999" points="441,-19 393,-19 393,0 441,0 441,-19"/>
<text text-anchor="middle" x="417" y="-7" font-family="Helvetica,sans-Serif" font-size="10.00">stdlib.h</text>
</a>
</g>
</g>
<!-- Node2&#45;&gt;Node9 -->
<g id="edge12_Node000002_Node000009" class="edge">
<title>Node2&#45;&gt;Node9</title>
<g id="a_edge12_Node000002_Node000009"><a xlink:title=" ">
<path fill="none" stroke="#63b8ff" d="M425.42,-109.72C420.26,-101.03 412.95,-87.17 410,-74 406.66,-59.1 408.94,-41.86 411.76,-29.11"/>
<polygon fill="#63b8ff" stroke="#63b8ff" points="415.2,-29.78 414.24,-19.23 408.41,-28.07 415.2,-29.78"/>
</a>
</g>
</g>
<!-- Node10 -->
<g id="Node000010" class="node">
<title>Node10</title>
<g id="a_Node000010"><a xlink:title=" ">
<polygon fill="#e0e0e0" stroke="#999999" points="467.5,-74 418.5,-74 418.5,-55 467.5,-55 467.5,-74"/>
<text text-anchor="middle" x="443" y="-62" font-family="Helvetica,sans-Serif" font-size="10.00">stdint.h</text>
</a>
</g>
</g>
<!-- Node2&#45;&gt;Node10 -->
<g id="edge10_Node000002_Node000010" class="edge">
<title>Node2&#45;&gt;Node10</title>
<g id="a_edge10_Node000002_Node000010"><a xlink:title=" ">
<path fill="none" stroke="#63b8ff" d="M432.98,-109.75C434.57,-102.72 436.86,-92.62 438.85,-83.84"/>
<polygon fill="#63b8ff" stroke="#63b8ff" points="442.26,-84.62 441.06,-74.09 435.43,-83.07 442.26,-84.62"/>
</a>
</g>
</g>
<!-- Node11 -->
<g id="Node000011" class="node">
<title>Node11</title>
<g id="a_Node000011"><a xlink:title=" ">
<polygon fill="#e0e0e0" stroke="#999999" points="534.5,-74 485.5,-74 485.5,-55 534.5,-55 534.5,-74"/>
<text text-anchor="middle" x="510" y="-62" font-family="Helvetica,sans-Serif" font-size="10.00">string.h</text>
</a>
</g>
</g>
<!-- Node2&#45;&gt;Node11 -->
<g id="edge13_Node000002_Node000011" class="edge">
<title>Node2&#45;&gt;Node11</title>
<g id="a_edge13_Node000002_Node000011"><a xlink:title=" ">
<path fill="none" stroke="#63b8ff" d="M443.69,-109.98C455.83,-101.84 474.36,-89.41 488.75,-79.76"/>
<polygon fill="#63b8ff" stroke="#63b8ff" points="490.72,-82.65 497.08,-74.17 486.82,-76.84 490.72,-82.65"/>
</a>
</g>
</g>
<!-- Node4 -->
<g id="Node000004" class="node">
<title>Node4</title>
<g id="a_Node000004"><a xlink:title=" ">
<polygon fill="#e0e0e0" stroke="#999999" points="114,-19 0,-19 0,0 114,0 114,-19"/>
<text text-anchor="middle" x="57" y="-7" font-family="Helvetica,sans-Serif" font-size="10.00">../lib/cJSON/cJSON.h</text>
</a>
</g>
</g>
<!-- Node3&#45;&gt;Node4 -->
<g id="edge3_Node000003_Node000004" class="edge">
<title>Node3&#45;&gt;Node4</title>
<g id="a_edge3_Node000003_Node000004"><a xlink:title=" ">
<path fill="none" stroke="#63b8ff" d="M280.26,-58.8C241.53,-50.42 159.7,-32.72 106.59,-21.23"/>
<polygon fill="#63b8ff" stroke="#63b8ff" points="107.22,-17.78 96.7,-19.09 105.74,-24.62 107.22,-17.78"/>
</a>
</g>
</g>
<!-- Node5 -->
<g id="Node000005" class="node">
<title>Node5</title>
<g id="a_Node000005"><a xlink:title=" ">
<polygon fill="#e0e0e0" stroke="#999999" points="245.5,-19 132.5,-19 132.5,0 245.5,0 245.5,-19"/>
<text text-anchor="middle" x="189" y="-7" font-family="Helvetica,sans-Serif" font-size="10.00">../lib/dSFMT/dSFMT.h</text>
</a>
</g>
</g>
<!-- Node3&#45;&gt;Node5 -->
<g id="edge4_Node000003_Node000005" class="edge">
<title>Node3&#45;&gt;Node5</title>
<g id="a_edge4_Node000003_Node000005"><a xlink:title=" ">
<path fill="none" stroke="#63b8ff" d="M283.84,-54.98C265.75,-46.5 237.72,-33.35 216.81,-23.54"/>
<polygon fill="#63b8ff" stroke="#63b8ff" points="218.03,-20.25 207.49,-19.17 215.05,-26.59 218.03,-20.25"/>
</a>
</g>
</g>
<!-- Node6 -->
<g id="Node000006" class="node">
<title>Node6</title>
<g id="a_Node000006"><a xlink:title=" ">
<polygon fill="#e0e0e0" stroke="#999999" points="310.5,-19 263.5,-19 263.5,0 310.5,0 310.5,-19"/>
<text text-anchor="middle" x="287" y="-7" font-family="Helvetica,sans-Serif" font-size="10.00">math.h</text>
</a>
</g>
</g>
<!-- Node3&#45;&gt;Node6 -->
<g id="edge5_Node000003_Node000006" class="edge">
<title>Node3&#45;&gt;Node6</title>
<g id="a_edge5_Node000003_Node000006"><a xlink:title=" ">
<path fill="none" stroke="#63b8ff" d="M299.52,-54.75C297.54,-47.72 294.68,-37.62 292.19,-28.84"/>
<polygon fill="#63b8ff" stroke="#63b8ff" points="295.52,-27.76 289.43,-19.09 288.79,-29.66 295.52,-27.76"/>
</a>
</g>
</g>
<!-- Node3&#45;&gt;Node7 -->
<g id="edge6_Node000003_Node000007" class="edge">
<title>Node3&#45;&gt;Node7</title>
<g id="a_edge6_Node000003_Node000007"><a xlink:title=" ">
<path fill="none" stroke="#63b8ff" d="M323.79,-58.32C361.67,-49.32 440.1,-30.68 487.07,-19.51"/>
<polygon fill="#63b8ff" stroke="#63b8ff" points="487.96,-22.9 496.88,-17.18 486.34,-16.09 487.96,-22.9"/>
</a>
</g>
</g>
<!-- Node3&#45;&gt;Node8 -->
<g id="edge7_Node000003_Node000008" class="edge">
<title>Node3&#45;&gt;Node8</title>
<g id="a_edge7_Node000003_Node000008"><a xlink:title=" ">
<path fill="none" stroke="#63b8ff" d="M310.26,-54.75C317.46,-47.11 328.11,-35.82 336.85,-26.56"/>
<polygon fill="#63b8ff" stroke="#63b8ff" points="339.58,-28.76 343.9,-19.09 334.49,-23.96 339.58,-28.76"/>
</a>
</g>
</g>
<!-- Node3&#45;&gt;Node9 -->
<g id="edge8_Node000003_Node000009" class="edge">
<title>Node3&#45;&gt;Node9</title>
<g id="a_edge8_Node000003_Node000009"><a xlink:title=" ">
<path fill="none" stroke="#63b8ff" d="M320.48,-54.98C338.98,-46.46 367.68,-33.23 388.98,-23.41"/>
<polygon fill="#63b8ff" stroke="#63b8ff" points="390.57,-26.53 398.19,-19.17 387.64,-20.18 390.57,-26.53"/>
</a>
</g>
</g>
<!-- Node13 -->
<g id="Node000013" class="node">
<title>Node13</title>
<g id="a_Node000013"><a xlink:href="neural__layer_8h.html" target="_top" xlink:title="Interface for neural network layers.">
<polygon fill="white" stroke="#666666" points="411.5,-184 334.5,-184 334.5,-165 411.5,-165 411.5,-184"/>
<text text-anchor="middle" x="373" y="-172" font-family="Helvetica,sans-Serif" font-size="10.00">neural_layer.h</text>
</a>
</g>
</g>
<!-- Node12&#45;&gt;Node13 -->
<g id="edge15_Node000012_Node000013" class="edge">
<title>Node12&#45;&gt;Node13</title>
<g id="a_edge15_Node000012_Node000013"><a xlink:title=" ">
<path fill="none" stroke="#63b8ff" d="M255.49,-219.98C278.52,-211.27 314.54,-197.63 340.63,-187.75"/>
<polygon fill="#63b8ff" stroke="#63b8ff" points="341.98,-190.98 350.1,-184.17 339.51,-184.44 341.98,-190.98"/>
</a>
</g>
</g>
<!-- Node13&#45;&gt;Node2 -->
<g id="edge16_Node000013_Node000002" class="edge">
<title>Node13&#45;&gt;Node2</title>
<g id="a_edge16_Node000013_Node000002"><a xlink:title=" ">
<path fill="none" stroke="#63b8ff" d="M382.32,-164.98C390.81,-157.23 403.56,-145.58 413.88,-136.14"/>
<polygon fill="#63b8ff" stroke="#63b8ff" points="416.49,-138.5 421.51,-129.17 411.77,-133.33 416.49,-138.5"/>
</a>
</g>
</g>
<!-- Node14 -->
<g id="Node000014" class="node">
<title>Node14</title>
<g id="a_Node000014"><a xlink:href="neural__layer__args_8h.html" target="_top" xlink:title="Functions operating on neural network arguments/constants.">
<polygon fill="white" stroke="#666666" points="364.5,-129 263.5,-129 263.5,-110 364.5,-110 364.5,-129"/>
<text text-anchor="middle" x="314" y="-117" font-family="Helvetica,sans-Serif" font-size="10.00">neural_layer_args.h</text>
</a>
</g>
</g>
<!-- Node13&#45;&gt;Node14 -->
<g id="edge17_Node000013_Node000014" class="edge">
<title>Node13&#45;&gt;Node14</title>
<g id="a_edge17_Node000013_Node000014"><a xlink:title=" ">
<path fill="none" stroke="#63b8ff" d="M363.52,-164.98C354.8,-157.15 341.66,-145.34 331.1,-135.86"/>
<polygon fill="#63b8ff" stroke="#63b8ff" points="333.43,-133.25 323.65,-129.17 328.75,-138.46 333.43,-133.25"/>
</a>
</g>
</g>
<!-- Node14&#45;&gt;Node3 -->
<g id="edge18_Node000014_Node000003" class="edge">
<title>Node14&#45;&gt;Node3</title>
<g id="a_edge18_Node000014_Node000003"><a xlink:title=" ">
<path fill="none" stroke="#63b8ff" d="M312.02,-109.75C310.43,-102.72 308.14,-92.62 306.15,-83.84"/>
<polygon fill="#63b8ff" stroke="#63b8ff" points="309.57,-83.07 303.94,-74.09 302.74,-84.62 309.57,-83.07"/>
</a>
</g>
</g>
<!-- Node15&#45;&gt;Node13 -->
<g id="edge20_Node000015_Node000013" class="edge">
<title>Node15&#45;&gt;Node13</title>
<g id="a_edge20_Node000015_Node000013"><a xlink:title=" ">
<path fill="none" stroke="#63b8ff" d="M373,-219.75C373,-212.8 373,-202.85 373,-194.13"/>
<polygon fill="#63b8ff" stroke="#63b8ff" points="376.5,-194.09 373,-184.09 369.5,-194.09 376.5,-194.09"/>
</a>
</g>
</g>
<!-- Node16&#45;&gt;Node13 -->
<g id="edge22_Node000016_Node000013" class="edge">
<title>Node16&#45;&gt;Node13</title>
<g id="a_edge22_Node000016_Node000013"><a xlink:title=" ">
<path fill="none" stroke="#63b8ff" d="M481.27,-219.98C460.24,-211.34 427.45,-197.87 403.46,-188.02"/>
<polygon fill="#63b8ff" stroke="#63b8ff" points="404.68,-184.73 394.1,-184.17 402.02,-191.21 404.68,-184.73"/>
</a>
</g>
</g>
<!-- Node17&#45;&gt;Node13 -->
<g id="edge24_Node000017_Node000013" class="edge">
<title>Node17&#45;&gt;Node13</title>
<g id="a_edge24_Node000017_Node000013"><a xlink:title=" ">
<path fill="none" stroke="#63b8ff" d="M592.07,-219.98C545.65,-210.56 470.94,-195.39 421.9,-185.43"/>
<polygon fill="#63b8ff" stroke="#63b8ff" points="422.34,-181.95 411.85,-183.39 420.95,-188.81 422.34,-181.95"/>
</a>
</g>
</g>
<!-- Node18&#45;&gt;Node13 -->
<g id="edge26_Node000018_Node000013" class="edge">
<title>Node18&#45;&gt;Node13</title>
<g id="a_edge26_Node000018_Node000013"><a xlink:title=" ">
<path fill="none" stroke="#63b8ff" d="M137.15,-219.98C188.34,-210.33 271.52,-194.64 324.19,-184.71"/>
<polygon fill="#63b8ff" stroke="#63b8ff" points="325.12,-188.09 334.3,-182.8 323.82,-181.21 325.12,-188.09"/>
</a>
</g>
</g>
</g>
</svg>
