<?xml version="1.0" encoding="UTF-8" standalone="no"?>
<!DOCTYPE svg PUBLIC "-//W3C//DTD SVG 1.1//EN"
 "http://www.w3.org/Graphics/SVG/1.1/DTD/svg11.dtd">
<!-- Generated by graphviz version 2.43.0 (0)
 -->
<!-- Title: neural_propagate Pages: 1 -->
<svg width="210pt" height="64pt"
 viewBox="0.00 0.00 210.00 64.00" xmlns="http://www.w3.org/2000/svg" xmlns:xlink="http://www.w3.org/1999/xlink">
<g id="graph0" class="graph" transform="scale(1 1) rotate(0) translate(4 60)">
<title>neural_propagate</title>
<!-- Node1 -->
<g id="Node000001" class="node">
<title>Node1</title>
<g id="a_Node000001"><a xlink:title="Forward propagates a neural network.">
<polygon fill="#999999" stroke="#666666" points="91,-37 0,-37 0,-18 91,-18 91,-37"/>
<text text-anchor="middle" x="45.5" y="-25" font-family="Helvetica,sans-Serif" font-size="10.00">neural_propagate</text>
</a>
</g>
</g>
<!-- Node2 -->
<g id="Node000002" class="node">
<title>Node2</title>
<g id="a_Node000002"><a xlink:href="neural__layer_8h.html#aabfac5227c61181614f84ebf5e00e462" target="_top" xlink:title="Forward propagates an input through the layer.">
<polygon fill="white" stroke="#666666" points="202,-56 127,-56 127,-37 202,-37 202,-56"/>
<text text-anchor="middle" x="164.5" y="-44" font-family="Helvetica,sans-Serif" font-size="10.00">layer_forward</text>
</a>
</g>
</g>
<!-- Node1&#45;&gt;Node2 -->
<g id="edge1_Node000001_Node000002" class="edge">
<title>Node1&#45;&gt;Node2</title>
<g id="a_edge1_Node000001_Node000002"><a xlink:title=" ">
<path fill="none" stroke="#63b8ff" d="M91.07,-34.74C99.42,-36.09 108.18,-37.52 116.6,-38.88"/>
<polygon fill="#63b8ff" stroke="#63b8ff" points="116.23,-42.37 126.66,-40.52 117.36,-35.46 116.23,-42.37"/>
</a>
</g>
</g>
<!-- Node3 -->
<g id="Node000003" class="node">
<title>Node3</title>
<g id="a_Node000003"><a xlink:href="neural__layer_8h.html#a5f745c9f7568146a1b5e0bb37a2666b8" target="_top" xlink:title="Returns the outputs of a layer.">
<polygon fill="white" stroke="#666666" points="199.5,-19 129.5,-19 129.5,0 199.5,0 199.5,-19"/>
<text text-anchor="middle" x="164.5" y="-7" font-family="Helvetica,sans-Serif" font-size="10.00">layer_output</text>
</a>
</g>
</g>
<!-- Node1&#45;&gt;Node3 -->
<g id="edge2_Node000001_Node000003" class="edge">
<title>Node1&#45;&gt;Node3</title>
<g id="a_edge2_Node000001_Node000003"><a xlink:title=" ">
<path fill="none" stroke="#63b8ff" d="M91.07,-20.64C100.26,-19.23 109.95,-17.74 119.14,-16.33"/>
<polygon fill="#63b8ff" stroke="#63b8ff" points="119.9,-19.75 129.25,-14.77 118.83,-12.83 119.9,-19.75"/>
</a>
</g>
</g>
</g>
</svg>
