<?xml version="1.0" encoding="UTF-8" standalone="no"?>
<!DOCTYPE svg PUBLIC "-//W3C//DTD SVG 1.1//EN"
 "http://www.w3.org/Graphics/SVG/1.1/DTD/svg11.dtd">
<!-- Generated by graphviz version 2.43.0 (0)
 -->
<!-- Title: neural_layer_recurrent.c Pages: 1 -->
<svg width="885pt" height="308pt"
 viewBox="0.00 0.00 884.50 308.00" xmlns="http://www.w3.org/2000/svg" xmlns:xlink="http://www.w3.org/1999/xlink">
<g id="graph0" class="graph" transform="scale(1 1) rotate(0) translate(4 304)">
<title>neural_layer_recurrent.c</title>
<!-- Node1 -->
<g id="node1" class="node">
<title>Node1</title>
<g id="a_node1"><a xlink:title="An implementation of a recurrent layer of perceptrons.">
<polygon fill="#bfbfbf" stroke="black" points="458.5,-280.5 458.5,-299.5 579.5,-299.5 579.5,-280.5 458.5,-280.5"/>
<text text-anchor="middle" x="519" y="-287.5" font-family="Helvetica,sans-Serif" font-size="10.00">neural_layer_recurrent.c</text>
</a>
</g>
</g>
<!-- Node2 -->
<g id="node2" class="node">
<title>Node2</title>
<g id="a_node2"><a xlink:href="neural__layer__recurrent_8h.html" target="_top" xlink:title="An implementation of a recurrent layer of perceptrons.">
<polygon fill="none" stroke="black" points="263.5,-224.5 263.5,-243.5 384.5,-243.5 384.5,-224.5 263.5,-224.5"/>
<text text-anchor="middle" x="324" y="-231.5" font-family="Helvetica,sans-Serif" font-size="10.00">neural_layer_recurrent.h</text>
</a>
</g>
</g>
<!-- Node1&#45;&gt;Node2 -->
<g id="edge1" class="edge">
<title>Node1&#45;&gt;Node2</title>
<path fill="none" stroke="midnightblue" d="M488.1,-280.44C454.73,-271.2 401.41,-256.44 364.65,-246.26"/>
<polygon fill="midnightblue" stroke="midnightblue" points="365.33,-242.81 354.75,-243.52 363.46,-249.56 365.33,-242.81"/>
</g>
<!-- Node5 -->
<g id="node5" class="node">
<title>Node5</title>
<g id="a_node5"><a xlink:href="utils_8h.html" target="_top" xlink:title="Utility functions for random number handling, etc.">
<polygon fill="none" stroke="black" points="184.5,-56.5 184.5,-75.5 227.5,-75.5 227.5,-56.5 184.5,-56.5"/>
<text text-anchor="middle" x="206" y="-63.5" font-family="Helvetica,sans-Serif" font-size="10.00">utils.h</text>
</a>
</g>
</g>
<!-- Node1&#45;&gt;Node5 -->
<g id="edge36" class="edge">
<title>Node1&#45;&gt;Node5</title>
<path fill="none" stroke="midnightblue" d="M458.4,-283.85C391.35,-277.27 288.34,-264.22 255,-244 201.57,-211.59 189.93,-191.23 170,-132 167.17,-123.58 167.06,-120.39 170,-112 173.79,-101.21 181.37,-91.08 188.6,-83.18"/>
<polygon fill="midnightblue" stroke="midnightblue" points="191.33,-85.4 195.84,-75.81 186.33,-80.49 191.33,-85.4"/>
</g>
<!-- Node15 -->
<g id="node15" class="node">
<title>Node15</title>
<g id="a_node15"><a xlink:href="blas_8h.html" target="_top" xlink:title="Basic linear algebra functions.">
<polygon fill="none" stroke="black" points="649.5,-224.5 649.5,-243.5 692.5,-243.5 692.5,-224.5 649.5,-224.5"/>
<text text-anchor="middle" x="671" y="-231.5" font-family="Helvetica,sans-Serif" font-size="10.00">blas.h</text>
</a>
</g>
</g>
<!-- Node1&#45;&gt;Node15 -->
<g id="edge18" class="edge">
<title>Node1&#45;&gt;Node15</title>
<path fill="none" stroke="midnightblue" d="M543.08,-280.44C569.29,-271.13 611.28,-256.22 639.95,-246.03"/>
<polygon fill="midnightblue" stroke="midnightblue" points="641.23,-249.29 649.49,-242.64 638.89,-242.69 641.23,-249.29"/>
</g>
<!-- Node16 -->
<g id="node16" class="node">
<title>Node16</title>
<g id="a_node16"><a xlink:href="neural__activations_8h.html" target="_top" xlink:title="Neural network activation functions.">
<polygon fill="none" stroke="black" points="719,-168.5 719,-187.5 823,-187.5 823,-168.5 719,-168.5"/>
<text text-anchor="middle" x="771" y="-175.5" font-family="Helvetica,sans-Serif" font-size="10.00">neural_activations.h</text>
</a>
</g>
</g>
<!-- Node1&#45;&gt;Node16 -->
<g id="edge19" class="edge">
<title>Node1&#45;&gt;Node16</title>
<path fill="none" stroke="midnightblue" d="M534.65,-280.48C565.1,-263.94 630.28,-228.68 641,-224 671.09,-210.87 706.34,-198.87 732.54,-190.57"/>
<polygon fill="midnightblue" stroke="midnightblue" points="733.61,-193.9 742.11,-187.57 731.52,-187.22 733.61,-193.9"/>
</g>
<!-- Node17 -->
<g id="node17" class="node">
<title>Node17</title>
<g id="a_node17"><a xlink:href="neural__layer__connected_8h.html" target="_top" xlink:title="An implementation of a fully&#45;connected layer of perceptrons.">
<polygon fill="none" stroke="black" points="403,-224.5 403,-243.5 531,-243.5 531,-224.5 403,-224.5"/>
<text text-anchor="middle" x="467" y="-231.5" font-family="Helvetica,sans-Serif" font-size="10.00">neural_layer_connected.h</text>
</a>
</g>
</g>
<!-- Node1&#45;&gt;Node17 -->
<g id="edge21" class="edge">
<title>Node1&#45;&gt;Node17</title>
<path fill="none" stroke="midnightblue" d="M510.41,-280.08C502.84,-272.22 491.62,-260.57 482.49,-251.08"/>
<polygon fill="midnightblue" stroke="midnightblue" points="484.88,-248.53 475.43,-243.75 479.84,-253.38 484.88,-248.53"/>
</g>
<!-- Node18 -->
<g id="node18" class="node">
<title>Node18</title>
<g id="a_node18"><a xlink:href="sam_8h.html" target="_top" xlink:title="Self&#45;adaptive mutation functions.">
<polygon fill="none" stroke="black" points="549,-224.5 549,-243.5 593,-243.5 593,-224.5 549,-224.5"/>
<text text-anchor="middle" x="571" y="-231.5" font-family="Helvetica,sans-Serif" font-size="10.00">sam.h</text>
</a>
</g>
</g>
<!-- Node1&#45;&gt;Node18 -->
<g id="edge23" class="edge">
<title>Node1&#45;&gt;Node18</title>
<path fill="none" stroke="midnightblue" d="M527.59,-280.08C535.16,-272.22 546.38,-260.57 555.51,-251.08"/>
<polygon fill="midnightblue" stroke="midnightblue" points="558.16,-253.38 562.57,-243.75 553.12,-248.53 558.16,-253.38"/>
</g>
<!-- Node3 -->
<g id="node3" class="node">
<title>Node3</title>
<g id="a_node3"><a xlink:href="neural__layer_8h.html" target="_top" xlink:title="Interface for neural network layers.">
<polygon fill="none" stroke="black" points="285.5,-168.5 285.5,-187.5 362.5,-187.5 362.5,-168.5 285.5,-168.5"/>
<text text-anchor="middle" x="324" y="-175.5" font-family="Helvetica,sans-Serif" font-size="10.00">neural_layer.h</text>
</a>
</g>
</g>
<!-- Node2&#45;&gt;Node3 -->
<g id="edge2" class="edge">
<title>Node2&#45;&gt;Node3</title>
<path fill="none" stroke="midnightblue" d="M324,-224.08C324,-217.01 324,-206.86 324,-197.99"/>
<polygon fill="midnightblue" stroke="midnightblue" points="327.5,-197.75 324,-187.75 320.5,-197.75 327.5,-197.75"/>
</g>
<!-- Node4 -->
<g id="node4" class="node">
<title>Node4</title>
<g id="a_node4"><a xlink:href="neural_8h.html" target="_top" xlink:title="An implementation of a multi&#45;layer perceptron neural network.">
<polygon fill="none" stroke="black" points="298.5,-112.5 298.5,-131.5 349.5,-131.5 349.5,-112.5 298.5,-112.5"/>
<text text-anchor="middle" x="324" y="-119.5" font-family="Helvetica,sans-Serif" font-size="10.00">neural.h</text>
</a>
</g>
</g>
<!-- Node3&#45;&gt;Node4 -->
<g id="edge3" class="edge">
<title>Node3&#45;&gt;Node4</title>
<path fill="none" stroke="midnightblue" d="M324,-168.08C324,-161.01 324,-150.86 324,-141.99"/>
<polygon fill="midnightblue" stroke="midnightblue" points="327.5,-141.75 324,-131.75 320.5,-141.75 327.5,-141.75"/>
</g>
<!-- Node14 -->
<g id="node14" class="node">
<title>Node14</title>
<g id="a_node14"><a xlink:href="neural__layer__args_8h.html" target="_top" xlink:title="Functions operating on neural network arguments/constants.">
<polygon fill="none" stroke="black" points="179.5,-112.5 179.5,-131.5 280.5,-131.5 280.5,-112.5 179.5,-112.5"/>
<text text-anchor="middle" x="230" y="-119.5" font-family="Helvetica,sans-Serif" font-size="10.00">neural_layer_args.h</text>
</a>
</g>
</g>
<!-- Node3&#45;&gt;Node14 -->
<g id="edge16" class="edge">
<title>Node3&#45;&gt;Node14</title>
<path fill="none" stroke="midnightblue" d="M308.9,-168.32C294.1,-159.82 271.31,-146.73 254.02,-136.8"/>
<polygon fill="midnightblue" stroke="midnightblue" points="255.48,-133.6 245.07,-131.65 251.99,-139.67 255.48,-133.6"/>
</g>
<!-- Node4&#45;&gt;Node5 -->
<g id="edge4" class="edge">
<title>Node4&#45;&gt;Node5</title>
<path fill="none" stroke="midnightblue" d="M305.3,-112.44C286.06,-103.64 255.85,-89.81 233.8,-79.72"/>
<polygon fill="midnightblue" stroke="midnightblue" points="235.16,-76.5 224.61,-75.52 232.25,-82.86 235.16,-76.5"/>
</g>
<!-- Node9 -->
<g id="node9" class="node">
<title>Node9</title>
<g id="a_node9"><a xlink:title=" ">
<polygon fill="none" stroke="#bfbfbf" points="394,-0.5 394,-19.5 450,-19.5 450,-0.5 394,-0.5"/>
<text text-anchor="middle" x="422" y="-7.5" font-family="Helvetica,sans-Serif" font-size="10.00">stdbool.h</text>
</a>
</g>
</g>
<!-- Node4&#45;&gt;Node9 -->
<g id="edge11" class="edge">
<title>Node4&#45;&gt;Node9</title>
<path fill="none" stroke="midnightblue" d="M319.09,-112.18C312.39,-98.85 302.47,-73.29 314,-56 322.23,-43.66 356.23,-30.75 383.91,-21.94"/>
<polygon fill="midnightblue" stroke="midnightblue" points="385.24,-25.19 393.76,-18.89 383.17,-18.5 385.24,-25.19"/>
</g>
<!-- Node10 -->
<g id="node10" class="node">
<title>Node10</title>
<g id="a_node10"><a xlink:title=" ">
<polygon fill="none" stroke="#bfbfbf" points="330,-0.5 330,-19.5 376,-19.5 376,-0.5 330,-0.5"/>
<text text-anchor="middle" x="353" y="-7.5" font-family="Helvetica,sans-Serif" font-size="10.00">stdio.h</text>
</a>
</g>
</g>
<!-- Node4&#45;&gt;Node10 -->
<g id="edge13" class="edge">
<title>Node4&#45;&gt;Node10</title>
<path fill="none" stroke="midnightblue" d="M310.94,-112.47C294.07,-100.33 268.18,-77.18 280,-56 288.71,-40.39 305.31,-29.52 320.49,-22.39"/>
<polygon fill="midnightblue" stroke="midnightblue" points="321.88,-25.6 329.66,-18.41 319.1,-19.17 321.88,-25.6"/>
</g>
<!-- Node11 -->
<g id="node11" class="node">
<title>Node11</title>
<g id="a_node11"><a xlink:title=" ">
<polygon fill="none" stroke="#bfbfbf" points="132,-0.5 132,-19.5 180,-19.5 180,-0.5 132,-0.5"/>
<text text-anchor="middle" x="156" y="-7.5" font-family="Helvetica,sans-Serif" font-size="10.00">stdlib.h</text>
</a>
</g>
</g>
<!-- Node4&#45;&gt;Node11 -->
<g id="edge14" class="edge">
<title>Node4&#45;&gt;Node11</title>
<path fill="none" stroke="midnightblue" d="M298.33,-113.93C256.9,-102.43 179.45,-80.49 175,-76 162.98,-63.88 158.49,-44.6 156.84,-30.18"/>
<polygon fill="midnightblue" stroke="midnightblue" points="160.31,-29.59 156.05,-19.89 153.33,-30.13 160.31,-29.59"/>
</g>
<!-- Node12 -->
<g id="node12" class="node">
<title>Node12</title>
<g id="a_node12"><a xlink:title=" ">
<polygon fill="none" stroke="#bfbfbf" points="322.5,-56.5 322.5,-75.5 371.5,-75.5 371.5,-56.5 322.5,-56.5"/>
<text text-anchor="middle" x="347" y="-63.5" font-family="Helvetica,sans-Serif" font-size="10.00">stdint.h</text>
</a>
</g>
</g>
<!-- Node4&#45;&gt;Node12 -->
<g id="edge12" class="edge">
<title>Node4&#45;&gt;Node12</title>
<path fill="none" stroke="midnightblue" d="M327.8,-112.08C330.91,-104.77 335.42,-94.18 339.29,-85.1"/>
<polygon fill="midnightblue" stroke="midnightblue" points="342.57,-86.32 343.27,-75.75 336.13,-83.58 342.57,-86.32"/>
</g>
<!-- Node13 -->
<g id="node13" class="node">
<title>Node13</title>
<g id="a_node13"><a xlink:title=" ">
<polygon fill="none" stroke="#bfbfbf" points="389.5,-56.5 389.5,-75.5 438.5,-75.5 438.5,-56.5 389.5,-56.5"/>
<text text-anchor="middle" x="414" y="-63.5" font-family="Helvetica,sans-Serif" font-size="10.00">string.h</text>
</a>
</g>
</g>
<!-- Node4&#45;&gt;Node13 -->
<g id="edge15" class="edge">
<title>Node4&#45;&gt;Node13</title>
<path fill="none" stroke="midnightblue" d="M338.46,-112.32C352.5,-103.9 374.05,-90.97 390.54,-81.07"/>
<polygon fill="midnightblue" stroke="midnightblue" points="392.8,-83.8 399.58,-75.65 389.2,-77.8 392.8,-83.8"/>
</g>
<!-- Node6 -->
<g id="node6" class="node">
<title>Node6</title>
<g id="a_node6"><a xlink:title=" ">
<polygon fill="none" stroke="#bfbfbf" points="0,-0.5 0,-19.5 114,-19.5 114,-0.5 0,-0.5"/>
<text text-anchor="middle" x="57" y="-7.5" font-family="Helvetica,sans-Serif" font-size="10.00">../lib/cJSON/cJSON.h</text>
</a>
</g>
</g>
<!-- Node5&#45;&gt;Node6 -->
<g id="edge5" class="edge">
<title>Node5&#45;&gt;Node6</title>
<path fill="none" stroke="midnightblue" d="M184.33,-57.15C159.64,-48.2 119,-33.47 90.28,-23.06"/>
<polygon fill="midnightblue" stroke="midnightblue" points="91.26,-19.69 80.66,-19.58 88.87,-26.27 91.26,-19.69"/>
</g>
<!-- Node7 -->
<g id="node7" class="node">
<title>Node7</title>
<g id="a_node7"><a xlink:title=" ">
<polygon fill="none" stroke="#bfbfbf" points="198.5,-0.5 198.5,-19.5 311.5,-19.5 311.5,-0.5 198.5,-0.5"/>
<text text-anchor="middle" x="255" y="-7.5" font-family="Helvetica,sans-Serif" font-size="10.00">../lib/dSFMT/dSFMT.h</text>
</a>
</g>
</g>
<!-- Node5&#45;&gt;Node7 -->
<g id="edge6" class="edge">
<title>Node5&#45;&gt;Node7</title>
<path fill="none" stroke="midnightblue" d="M214.09,-56.08C221.16,-48.3 231.59,-36.8 240.15,-27.37"/>
<polygon fill="midnightblue" stroke="midnightblue" points="242.93,-29.51 247.06,-19.75 237.75,-24.8 242.93,-29.51"/>
</g>
<!-- Node8 -->
<g id="node8" class="node">
<title>Node8</title>
<g id="a_node8"><a xlink:title=" ">
<polygon fill="none" stroke="#bfbfbf" points="829.5,-0.5 829.5,-19.5 876.5,-19.5 876.5,-0.5 829.5,-0.5"/>
<text text-anchor="middle" x="853" y="-7.5" font-family="Helvetica,sans-Serif" font-size="10.00">math.h</text>
</a>
</g>
</g>
<!-- Node5&#45;&gt;Node8 -->
<g id="edge7" class="edge">
<title>Node5&#45;&gt;Node8</title>
<path fill="none" stroke="midnightblue" d="M227.53,-63.2C322.36,-55.29 703.29,-23.5 819.3,-13.81"/>
<polygon fill="midnightblue" stroke="midnightblue" points="819.7,-17.29 829.37,-12.97 819.12,-10.32 819.7,-17.29"/>
</g>
<!-- Node5&#45;&gt;Node9 -->
<g id="edge8" class="edge">
<title>Node5&#45;&gt;Node9</title>
<path fill="none" stroke="midnightblue" d="M227.5,-59.62C264.01,-50.5 338.57,-31.86 384.03,-20.49"/>
<polygon fill="midnightblue" stroke="midnightblue" points="384.96,-23.87 393.82,-18.05 383.27,-17.08 384.96,-23.87"/>
</g>
<!-- Node5&#45;&gt;Node10 -->
<g id="edge9" class="edge">
<title>Node5&#45;&gt;Node10</title>
<path fill="none" stroke="midnightblue" d="M227.69,-57.03C252.12,-48.06 292.1,-33.37 320.32,-23.01"/>
<polygon fill="midnightblue" stroke="midnightblue" points="321.58,-26.27 329.76,-19.54 319.17,-19.7 321.58,-26.27"/>
</g>
<!-- Node5&#45;&gt;Node11 -->
<g id="edge10" class="edge">
<title>Node5&#45;&gt;Node11</title>
<path fill="none" stroke="midnightblue" d="M197.74,-56.08C190.54,-48.3 179.89,-36.8 171.15,-27.37"/>
<polygon fill="midnightblue" stroke="midnightblue" points="173.47,-24.71 164.1,-19.75 168.33,-29.47 173.47,-24.71"/>
</g>
<!-- Node14&#45;&gt;Node5 -->
<g id="edge17" class="edge">
<title>Node14&#45;&gt;Node5</title>
<path fill="none" stroke="midnightblue" d="M226.04,-112.08C222.79,-104.77 218.08,-94.18 214.05,-85.1"/>
<polygon fill="midnightblue" stroke="midnightblue" points="217.15,-83.47 209.89,-75.75 210.75,-86.31 217.15,-83.47"/>
</g>
<!-- Node16&#45;&gt;Node8 -->
<g id="edge20" class="edge">
<title>Node16&#45;&gt;Node8</title>
<path fill="none" stroke="midnightblue" d="M781.81,-168.42C800.78,-152.57 839.46,-116.6 854,-76 859.35,-61.06 858.52,-42.92 856.69,-29.6"/>
<polygon fill="midnightblue" stroke="midnightblue" points="860.14,-29.01 855.02,-19.73 853.23,-30.17 860.14,-29.01"/>
</g>
<!-- Node17&#45;&gt;Node3 -->
<g id="edge22" class="edge">
<title>Node17&#45;&gt;Node3</title>
<path fill="none" stroke="midnightblue" d="M444.34,-224.44C420.6,-215.48 383.09,-201.31 356.26,-191.18"/>
<polygon fill="midnightblue" stroke="midnightblue" points="357.14,-187.77 346.55,-187.52 354.67,-194.32 357.14,-187.77"/>
</g>
<!-- Node19 -->
<g id="node19" class="node">
<title>Node19</title>
<g id="a_node19"><a xlink:href="xcsf_8h.html" target="_top" xlink:title="XCSF data structures.">
<polygon fill="none" stroke="black" points="562,-112.5 562,-131.5 606,-131.5 606,-112.5 562,-112.5"/>
<text text-anchor="middle" x="584" y="-119.5" font-family="Helvetica,sans-Serif" font-size="10.00">xcsf.h</text>
</a>
</g>
</g>
<!-- Node18&#45;&gt;Node19 -->
<g id="edge24" class="edge">
<title>Node18&#45;&gt;Node19</title>
<path fill="none" stroke="midnightblue" d="M572.02,-224.37C574.12,-206.62 578.96,-165.67 581.8,-141.6"/>
<polygon fill="midnightblue" stroke="midnightblue" points="585.29,-141.93 582.98,-131.59 578.34,-141.11 585.29,-141.93"/>
</g>
<!-- Node19&#45;&gt;Node5 -->
<g id="edge25" class="edge">
<title>Node19&#45;&gt;Node5</title>
<path fill="none" stroke="midnightblue" d="M561.77,-117.82C497.81,-108.69 313.17,-82.31 238.21,-71.6"/>
<polygon fill="midnightblue" stroke="midnightblue" points="238.36,-68.09 227.97,-70.14 237.37,-75.02 238.36,-68.09"/>
</g>
<!-- Node19&#45;&gt;Node8 -->
<g id="edge30" class="edge">
<title>Node19&#45;&gt;Node8</title>
<path fill="none" stroke="midnightblue" d="M606.21,-119.93C660.98,-116.84 800.47,-106.15 834,-76 846.96,-64.35 851.28,-44.4 852.62,-29.67"/>
<polygon fill="midnightblue" stroke="midnightblue" points="856.12,-29.82 853.16,-19.64 849.13,-29.44 856.12,-29.82"/>
</g>
<!-- Node19&#45;&gt;Node9 -->
<g id="edge31" class="edge">
<title>Node19&#45;&gt;Node9</title>
<path fill="none" stroke="midnightblue" d="M606.15,-113.72C636.07,-102.74 683.43,-80.59 663,-56 637.68,-25.51 521.66,-15.57 460.31,-12.41"/>
<polygon fill="midnightblue" stroke="midnightblue" points="460.39,-8.91 450.23,-11.93 460.06,-15.9 460.39,-8.91"/>
</g>
<!-- Node19&#45;&gt;Node10 -->
<g id="edge33" class="edge">
<title>Node19&#45;&gt;Node10</title>
<path fill="none" stroke="midnightblue" d="M597.74,-112.41C616.59,-99.59 646.36,-74.94 630,-56 595.85,-16.47 454.28,-29.89 386.54,-19.77"/>
<polygon fill="midnightblue" stroke="midnightblue" points="386.79,-16.26 376.33,-17.94 385.55,-23.15 386.79,-16.26"/>
</g>
<!-- Node19&#45;&gt;Node11 -->
<g id="edge34" class="edge">
<title>Node19&#45;&gt;Node11</title>
<path fill="none" stroke="midnightblue" d="M564.94,-112.42C545.3,-103.53 513.86,-89.11 487,-76 469.49,-67.46 466.57,-61.87 448,-56 340.21,-21.95 304.79,-42.16 189.94,-19.92"/>
<polygon fill="midnightblue" stroke="midnightblue" points="190.56,-16.48 180.06,-17.95 189.18,-23.34 190.56,-16.48"/>
</g>
<!-- Node19&#45;&gt;Node12 -->
<g id="edge32" class="edge">
<title>Node19&#45;&gt;Node12</title>
<path fill="none" stroke="midnightblue" d="M561.7,-116.37C525.94,-108.87 453.33,-93.38 381.92,-76.15"/>
<polygon fill="midnightblue" stroke="midnightblue" points="382.4,-72.66 371.85,-73.7 380.75,-79.46 382.4,-72.66"/>
</g>
<!-- Node19&#45;&gt;Node13 -->
<g id="edge35" class="edge">
<title>Node19&#45;&gt;Node13</title>
<path fill="none" stroke="midnightblue" d="M561.78,-113.94C532.98,-104.79 482.48,-88.75 448.64,-78"/>
<polygon fill="midnightblue" stroke="midnightblue" points="449.3,-74.54 438.71,-74.85 447.18,-81.21 449.3,-74.54"/>
</g>
<!-- Node20 -->
<g id="node20" class="node">
<title>Node20</title>
<g id="a_node20"><a xlink:title=" ">
<polygon fill="none" stroke="#bfbfbf" points="715.5,-56.5 715.5,-75.5 762.5,-75.5 762.5,-56.5 715.5,-56.5"/>
<text text-anchor="middle" x="739" y="-63.5" font-family="Helvetica,sans-Serif" font-size="10.00">errno.h</text>
</a>
</g>
</g>
<!-- Node19&#45;&gt;Node20 -->
<g id="edge26" class="edge">
<title>Node19&#45;&gt;Node20</title>
<path fill="none" stroke="midnightblue" d="M606.21,-113.26C632.23,-104.2 675.6,-89.09 705.67,-78.61"/>
<polygon fill="midnightblue" stroke="midnightblue" points="707.02,-81.85 715.31,-75.25 704.71,-75.24 707.02,-81.85"/>
</g>
<!-- Node21 -->
<g id="node21" class="node">
<title>Node21</title>
<g id="a_node21"><a xlink:title=" ">
<polygon fill="none" stroke="#bfbfbf" points="781,-56.5 781,-75.5 825,-75.5 825,-56.5 781,-56.5"/>
<text text-anchor="middle" x="803" y="-63.5" font-family="Helvetica,sans-Serif" font-size="10.00">float.h</text>
</a>
</g>
</g>
<!-- Node19&#45;&gt;Node21 -->
<g id="edge27" class="edge">
<title>Node19&#45;&gt;Node21</title>
<path fill="none" stroke="midnightblue" d="M606.08,-116.07C639.58,-108.52 705.45,-93.38 770.65,-76.27"/>
<polygon fill="midnightblue" stroke="midnightblue" points="771.91,-79.55 780.68,-73.62 770.12,-72.79 771.91,-79.55"/>
</g>
<!-- Node22 -->
<g id="node22" class="node">
<title>Node22</title>
<g id="a_node22"><a xlink:title=" ">
<polygon fill="none" stroke="#bfbfbf" points="495.5,-56.5 495.5,-75.5 554.5,-75.5 554.5,-56.5 495.5,-56.5"/>
<text text-anchor="middle" x="525" y="-63.5" font-family="Helvetica,sans-Serif" font-size="10.00">inttypes.h</text>
</a>
</g>
</g>
<!-- Node19&#45;&gt;Node22 -->
<g id="edge28" class="edge">
<title>Node19&#45;&gt;Node22</title>
<path fill="none" stroke="midnightblue" d="M574.52,-112.32C565.8,-104.34 552.66,-92.31 542.1,-82.65"/>
<polygon fill="midnightblue" stroke="midnightblue" points="544.39,-80 534.65,-75.83 539.67,-85.17 544.39,-80"/>
</g>
<!-- Node23 -->
<g id="node23" class="node">
<title>Node23</title>
<g id="a_node23"><a xlink:title=" ">
<polygon fill="none" stroke="#bfbfbf" points="573,-56.5 573,-75.5 621,-75.5 621,-56.5 573,-56.5"/>
<text text-anchor="middle" x="597" y="-63.5" font-family="Helvetica,sans-Serif" font-size="10.00">limits.h</text>
</a>
</g>
</g>
<!-- Node19&#45;&gt;Node23 -->
<g id="edge29" class="edge">
<title>Node19&#45;&gt;Node23</title>
<path fill="none" stroke="midnightblue" d="M586.15,-112.08C587.87,-104.93 590.35,-94.64 592.5,-85.69"/>
<polygon fill="midnightblue" stroke="midnightblue" points="595.96,-86.29 594.89,-75.75 589.15,-84.65 595.96,-86.29"/>
</g>
</g>
</svg>
