<?xml version="1.0" encoding="UTF-8" standalone="no"?>
<!DOCTYPE svg PUBLIC "-//W3C//DTD SVG 1.1//EN"
 "http://www.w3.org/Graphics/SVG/1.1/DTD/svg11.dtd">
<!-- Generated by graphviz version 2.43.0 (0)
 -->
<!-- Title: neural_layer_maxpool_init Pages: 1 -->
<svg width="277pt" height="66pt"
 viewBox="0.00 0.00 277.00 66.00" xmlns="http://www.w3.org/2000/svg" xmlns:xlink="http://www.w3.org/1999/xlink">
<g id="graph0" class="graph" transform="scale(1 1) rotate(0) translate(4 62)">
<title>neural_layer_maxpool_init</title>
<!-- Node1 -->
<g id="node1" class="node">
<title>Node1</title>
<g id="a_node1"><a xlink:title="Creates and initialises a 2D maxpooling layer.">
<polygon fill="#bfbfbf" stroke="black" points="0,-19.5 0,-38.5 129,-38.5 129,-19.5 0,-19.5"/>
<text text-anchor="middle" x="64.5" y="-26.5" font-family="Helvetica,sans-Serif" font-size="10.00">neural_layer_maxpool_init</text>
</a>
</g>
</g>
<!-- Node2 -->
<g id="node2" class="node">
<title>Node2</title>
<g id="a_node2"><a xlink:href="neural__layer_8c.html#ae63f8af2add5b111ec9656b8fc616a2c" target="_top" xlink:title="Initialises a layer to default values.">
<polygon fill="none" stroke="black" points="189,-38.5 189,-57.5 245,-57.5 245,-38.5 189,-38.5"/>
<text text-anchor="middle" x="217" y="-45.5" font-family="Helvetica,sans-Serif" font-size="10.00">layer_init</text>
</a>
</g>
</g>
<!-- Node1&#45;&gt;Node2 -->
<g id="edge1" class="edge">
<title>Node1&#45;&gt;Node2</title>
<path fill="none" stroke="midnightblue" d="M129.33,-37.06C146.09,-39.17 163.62,-41.39 178.5,-43.27"/>
<polygon fill="midnightblue" stroke="midnightblue" points="178.46,-46.79 188.82,-44.57 179.33,-39.84 178.46,-46.79"/>
</g>
<!-- Node3 -->
<g id="node3" class="node">
<title>Node3</title>
<g id="a_node3"><a xlink:href="neural__layer__maxpool_8c.html#a6e3344e46eea0817b14f3568ef81ff97" target="_top" xlink:title="Allocate memory used by a maxpooling layer.">
<polygon fill="none" stroke="black" points="165,-0.5 165,-19.5 269,-19.5 269,-0.5 165,-0.5"/>
<text text-anchor="middle" x="217" y="-7.5" font-family="Helvetica,sans-Serif" font-size="10.00">malloc_layer_arrays</text>
</a>
</g>
</g>
<!-- Node1&#45;&gt;Node3 -->
<g id="edge2" class="edge">
<title>Node1&#45;&gt;Node3</title>
<path fill="none" stroke="midnightblue" d="M129.33,-20.94C137.76,-19.88 146.38,-18.79 154.77,-17.73"/>
<polygon fill="midnightblue" stroke="midnightblue" points="155.36,-21.18 164.84,-16.46 154.48,-14.24 155.36,-21.18"/>
</g>
</g>
</svg>
