<?xml version="1.0" encoding="UTF-8" standalone="no"?>
<!DOCTYPE svg PUBLIC "-//W3C//DTD SVG 1.1//EN"
 "http://www.w3.org/Graphics/SVG/1.1/DTD/svg11.dtd">
<!-- Generated by graphviz version 2.43.0 (0)
 -->
<!-- Title: neural_create Pages: 1 -->
<svg width="1219pt" height="233pt"
 viewBox="0.00 0.00 1219.00 233.00" xmlns="http://www.w3.org/2000/svg" xmlns:xlink="http://www.w3.org/1999/xlink">
<g id="graph0" class="graph" transform="scale(1 1) rotate(0) translate(4 229)">
<title>neural_create</title>
<!-- Node1 -->
<g id="Node000001" class="node">
<title>Node1</title>
<g id="a_Node000001"><a xlink:title="Initialises and creates a new neural network from a parameter list.">
<polygon fill="#999999" stroke="#666666" points="1211,-151 1136,-151 1136,-132 1211,-132 1211,-151"/>
<text text-anchor="middle" x="1173.5" y="-139" font-family="Helvetica,sans-Serif" font-size="10.00">neural_create</text>
</a>
</g>
</g>
<!-- Node2 -->
<g id="Node000002" class="node">
<title>Node2</title>
<g id="a_Node000002"><a xlink:href="act__neural_8c.html#abbdbc4d92f139ccc9816289233dbf934" target="_top" xlink:title="Creates and initialises an action neural network.">
<polygon fill="white" stroke="#666666" points="1081.5,-225 1001.5,-225 1001.5,-206 1081.5,-206 1081.5,-225"/>
<text text-anchor="middle" x="1041.5" y="-213" font-family="Helvetica,sans-Serif" font-size="10.00">act_neural_init</text>
</a>
</g>
</g>
<!-- Node1&#45;&gt;Node2 -->
<g id="edge1_Node000001_Node000002" class="edge">
<title>Node1&#45;&gt;Node2</title>
<g id="a_edge1_Node000001_Node000002"><a xlink:title=" ">
<path fill="none" stroke="#63b8ff" d="M1154.7,-158.17C1140.74,-170.5 1120.32,-186.91 1100,-197.5 1093.69,-200.79 1086.68,-203.6 1079.78,-205.96"/>
<polygon fill="#63b8ff" stroke="#63b8ff" points="1157.43,-160.42 1162.5,-151.12 1152.74,-155.23 1157.43,-160.42"/>
</a>
</g>
</g>
<!-- Node3 -->
<g id="Node000003" class="node">
<title>Node3</title>
<g id="a_Node000003"><a xlink:href="cond__neural_8c.html#a16f80af76361587e6da53dd21fa05b7b" target="_top" xlink:title="Creates and initialises a neural network condition.">
<polygon fill="white" stroke="#666666" points="1085,-188 998,-188 998,-169 1085,-169 1085,-188"/>
<text text-anchor="middle" x="1041.5" y="-176" font-family="Helvetica,sans-Serif" font-size="10.00">cond_neural_init</text>
</a>
</g>
</g>
<!-- Node1&#45;&gt;Node3 -->
<g id="edge2_Node000001_Node000003" class="edge">
<title>Node1&#45;&gt;Node3</title>
<g id="a_edge2_Node000001_Node000003"><a xlink:title=" ">
<path fill="none" stroke="#63b8ff" d="M1129.19,-153.83C1111.97,-158.73 1092.46,-164.28 1076.32,-168.88"/>
<polygon fill="#63b8ff" stroke="#63b8ff" points="1130.36,-157.13 1139.02,-151.03 1128.45,-150.4 1130.36,-157.13"/>
</a>
</g>
</g>
<!-- Node4 -->
<g id="Node000004" class="node">
<title>Node4</title>
<g id="a_Node000004"><a xlink:href="neural__layer__args_8c.html#a91be60f1596b4940ddfe3aa08a72ea9d" target="_top" xlink:title="Returns a json formatted string of the neural layer parameters.">
<polygon fill="white" stroke="#666666" points="1100,-151 983,-151 983,-132 1100,-132 1100,-151"/>
<text text-anchor="middle" x="1041.5" y="-139" font-family="Helvetica,sans-Serif" font-size="10.00">layer_args_json_export</text>
</a>
</g>
</g>
<!-- Node1&#45;&gt;Node4 -->
<g id="edge3_Node000001_Node000004" class="edge">
<title>Node1&#45;&gt;Node4</title>
<g id="a_edge3_Node000001_Node000004"><a xlink:title=" ">
<path fill="none" stroke="#63b8ff" d="M1125.72,-141.5C1117.44,-141.5 1108.72,-141.5 1100.18,-141.5"/>
<polygon fill="#63b8ff" stroke="#63b8ff" points="1125.94,-145 1135.94,-141.5 1125.94,-138 1125.94,-145"/>
</a>
</g>
</g>
<!-- Node20 -->
<g id="Node000020" class="node">
<title>Node20</title>
<g id="a_Node000020"><a xlink:href="pred__neural_8c.html#a8ff454a2da61b52670f4b70b71da2fe8" target="_top" xlink:title="Creates and initialises a neural network prediction.">
<polygon fill="white" stroke="#666666" points="1084,-114 999,-114 999,-95 1084,-95 1084,-114"/>
<text text-anchor="middle" x="1041.5" y="-102" font-family="Helvetica,sans-Serif" font-size="10.00">pred_neural_init</text>
</a>
</g>
</g>
<!-- Node1&#45;&gt;Node20 -->
<g id="edge25_Node000001_Node000020" class="edge">
<title>Node1&#45;&gt;Node20</title>
<g id="a_edge25_Node000001_Node000020"><a xlink:title=" ">
<path fill="none" stroke="#63b8ff" d="M1129.19,-129.17C1111.97,-124.27 1092.46,-118.72 1076.32,-114.12"/>
<polygon fill="#63b8ff" stroke="#63b8ff" points="1128.45,-132.6 1139.02,-131.97 1130.36,-125.87 1128.45,-132.6"/>
</a>
</g>
</g>
<!-- Node21 -->
<g id="Node000021" class="node">
<title>Node21</title>
<g id="a_Node000021"><a xlink:href="rule__neural_8c.html#accc0db627c6130e7c8680c008b47a2e2" target="_top" xlink:title=" ">
<polygon fill="white" stroke="#666666" points="1095.5,-77 987.5,-77 987.5,-58 1095.5,-58 1095.5,-77"/>
<text text-anchor="middle" x="1041.5" y="-65" font-family="Helvetica,sans-Serif" font-size="10.00">rule_neural_cond_init</text>
</a>
</g>
</g>
<!-- Node1&#45;&gt;Node21 -->
<g id="edge26_Node000001_Node000021" class="edge">
<title>Node1&#45;&gt;Node21</title>
<g id="a_edge26_Node000001_Node000021"><a xlink:title=" ">
<path fill="none" stroke="#63b8ff" d="M1154.7,-124.83C1140.74,-112.5 1120.32,-96.09 1100,-85.5 1093.69,-82.21 1086.68,-79.4 1079.78,-77.04"/>
<polygon fill="#63b8ff" stroke="#63b8ff" points="1152.74,-127.77 1162.5,-131.88 1157.43,-122.58 1152.74,-127.77"/>
</a>
</g>
</g>
<!-- Node5 -->
<g id="Node000005" class="node">
<title>Node5</title>
<g id="a_Node000005"><a xlink:href="action_8c.html#abc3d337a565dc94c88faa33472505c3e" target="_top" xlink:title="Returns a json formatted string of the action parameters.">
<polygon fill="white" stroke="#666666" points="947,-188 816,-188 816,-169 947,-169 947,-188"/>
<text text-anchor="middle" x="881.5" y="-176" font-family="Helvetica,sans-Serif" font-size="10.00">action_param_json_export</text>
</a>
</g>
</g>
<!-- Node4&#45;&gt;Node5 -->
<g id="edge4_Node000004_Node000005" class="edge">
<title>Node4&#45;&gt;Node5</title>
<g id="a_edge4_Node000004_Node000005"><a xlink:title=" ">
<path fill="none" stroke="#63b8ff" d="M989.87,-153.36C968.37,-158.39 943.63,-164.18 923.33,-168.94"/>
<polygon fill="#63b8ff" stroke="#63b8ff" points="990.87,-156.72 999.81,-151.03 989.28,-149.9 990.87,-156.72"/>
</a>
</g>
</g>
<!-- Node18 -->
<g id="Node000018" class="node">
<title>Node18</title>
<g id="a_Node000018"><a xlink:href="condition_8c.html#ab1e3bf6514986d3bce77a73ce910047e" target="_top" xlink:title="Returns a json formatted string of the condition parameters.">
<polygon fill="white" stroke="#666666" points="944,-151 819,-151 819,-132 944,-132 944,-151"/>
<text text-anchor="middle" x="881.5" y="-139" font-family="Helvetica,sans-Serif" font-size="10.00">cond_param_json_export</text>
</a>
</g>
</g>
<!-- Node4&#45;&gt;Node18 -->
<g id="edge21_Node000004_Node000018" class="edge">
<title>Node4&#45;&gt;Node18</title>
<g id="a_edge21_Node000004_Node000018"><a xlink:title=" ">
<path fill="none" stroke="#63b8ff" d="M972.46,-141.5C963.05,-141.5 953.43,-141.5 944.15,-141.5"/>
<polygon fill="#63b8ff" stroke="#63b8ff" points="972.56,-145 982.56,-141.5 972.56,-138 972.56,-145"/>
</a>
</g>
</g>
<!-- Node19 -->
<g id="Node000019" class="node">
<title>Node19</title>
<g id="a_Node000019"><a xlink:href="prediction_8c.html#ac363177fac13104615104df74c5dcac4" target="_top" xlink:title="Returns a json formatted string of the prediction parameters.">
<polygon fill="white" stroke="#666666" points="943,-114 820,-114 820,-95 943,-95 943,-114"/>
<text text-anchor="middle" x="881.5" y="-102" font-family="Helvetica,sans-Serif" font-size="10.00">pred_param_json_export</text>
</a>
</g>
</g>
<!-- Node4&#45;&gt;Node19 -->
<g id="edge23_Node000004_Node000019" class="edge">
<title>Node4&#45;&gt;Node19</title>
<g id="a_edge23_Node000004_Node000019"><a xlink:title=" ">
<path fill="none" stroke="#63b8ff" d="M989.87,-129.64C968.37,-124.61 943.63,-118.82 923.33,-114.06"/>
<polygon fill="#63b8ff" stroke="#63b8ff" points="989.28,-133.1 999.81,-131.97 990.87,-126.28 989.28,-133.1"/>
</a>
</g>
</g>
<!-- Node6 -->
<g id="Node000006" class="node">
<title>Node6</title>
<g id="a_Node000006"><a xlink:href="param_8c.html#a6deea84ba84241d90aba6317656598a4" target="_top" xlink:title="Returns a json formatted string representation of the parameters.">
<polygon fill="white" stroke="#666666" points="780,-151 681,-151 681,-132 780,-132 780,-151"/>
<text text-anchor="middle" x="730.5" y="-139" font-family="Helvetica,sans-Serif" font-size="10.00">param_json_export</text>
</a>
</g>
</g>
<!-- Node5&#45;&gt;Node6 -->
<g id="edge5_Node000005_Node000006" class="edge">
<title>Node5&#45;&gt;Node6</title>
<g id="a_edge5_Node000005_Node000006"><a xlink:title=" ">
<path fill="none" stroke="#63b8ff" d="M832.2,-166.51C812.05,-161.5 788.98,-155.77 770,-151.06"/>
<polygon fill="#63b8ff" stroke="#63b8ff" points="831.58,-169.96 842.13,-168.97 833.27,-163.16 831.58,-169.96"/>
</a>
</g>
</g>
<!-- Node7 -->
<g id="Node000007" class="node">
<title>Node7</title>
<g id="a_Node000007"><a xlink:href="classXCS.html#a2f70d3a3365697faaa1cf120a6485ba8" target="_top" xlink:title="Returns a dictionary of the internal parameters.">
<polygon fill="white" stroke="#666666" points="262,-189 149,-189 149,-170 262,-170 262,-189"/>
<text text-anchor="middle" x="205.5" y="-177" font-family="Helvetica,sans-Serif" font-size="10.00">XCS::internal_params</text>
</a>
</g>
</g>
<!-- Node6&#45;&gt;Node7 -->
<g id="edge6_Node000006_Node000007" class="edge">
<title>Node6&#45;&gt;Node7</title>
<g id="a_edge6_Node000006_Node000007"><a xlink:title=" ">
<path fill="none" stroke="#63b8ff" d="M680.56,-153.31C668.94,-155.88 656.57,-158.45 645,-160.5 580.57,-171.91 564.3,-175.27 499,-179.5 416.65,-184.84 320.99,-183.4 262.1,-181.64"/>
<polygon fill="#63b8ff" stroke="#63b8ff" points="681.55,-156.67 690.53,-151.05 680,-149.84 681.55,-156.67"/>
</a>
</g>
</g>
<!-- Node9 -->
<g id="Node000009" class="node">
<title>Node9</title>
<g id="a_Node000009"><a xlink:href="param_8c.html#a1e92bde5285ed6ded96ba4af5fd27bd2" target="_top" xlink:title="Prints all XCSF parameters.">
<polygon fill="white" stroke="#666666" points="624,-151 556,-151 556,-132 624,-132 624,-151"/>
<text text-anchor="middle" x="590" y="-139" font-family="Helvetica,sans-Serif" font-size="10.00">param_print</text>
</a>
</g>
</g>
<!-- Node6&#45;&gt;Node9 -->
<g id="edge9_Node000006_Node000009" class="edge">
<title>Node6&#45;&gt;Node9</title>
<g id="a_edge9_Node000006_Node000009"><a xlink:title=" ">
<path fill="none" stroke="#63b8ff" d="M670.42,-141.5C654.61,-141.5 638.07,-141.5 624.21,-141.5"/>
<polygon fill="#63b8ff" stroke="#63b8ff" points="670.67,-145 680.67,-141.5 670.67,-138 670.67,-145"/>
</a>
</g>
</g>
<!-- Node12 -->
<g id="Node000012" class="node">
<title>Node12</title>
<g id="a_Node000012"><a xlink:href="classXCS.html#ae0f45d78bb598a31d8068c3ca3242e2c" target="_top" xlink:title="Updates the Python object&#39;s parameter dictionary.">
<polygon fill="white" stroke="#666666" points="645,-94 535,-94 535,-75 645,-75 645,-94"/>
<text text-anchor="middle" x="590" y="-82" font-family="Helvetica,sans-Serif" font-size="10.00">XCS::update_params</text>
</a>
</g>
</g>
<!-- Node6&#45;&gt;Node12 -->
<g id="edge13_Node000006_Node000012" class="edge">
<title>Node6&#45;&gt;Node12</title>
<g id="a_edge13_Node000006_Node000012"><a xlink:title=" ">
<path fill="none" stroke="#63b8ff" d="M696.75,-128.02C671.38,-117.58 636.85,-103.37 614.26,-94.07"/>
<polygon fill="#63b8ff" stroke="#63b8ff" points="695.74,-131.39 706.32,-131.96 698.4,-124.92 695.74,-131.39"/>
</a>
</g>
</g>
<!-- Node7&#45;&gt;Node7 -->
<g id="edge7_Node000007_Node000007" class="edge">
<title>Node7&#45;&gt;Node7</title>
<g id="a_edge7_Node000007_Node000007"><a xlink:title=" ">
<path fill="none" stroke="#63b8ff" d="M231.91,-198.19C230.47,-203.2 221.67,-207 205.5,-207 180.26,-207 172.97,-197.73 183.61,-189.08"/>
<polygon fill="#63b8ff" stroke="#63b8ff" points="234.97,-196.48 227.39,-189.08 228.7,-199.6 234.97,-196.48"/>
</a>
</g>
</g>
<!-- Node8 -->
<g id="Node000008" class="node">
<title>Node8</title>
<g id="a_Node000008"><a xlink:href="pybind__wrapper_8cpp.html#a172daba0778fe2bd38d723d5f52a23d5" target="_top" xlink:title=" ">
<polygon fill="white" stroke="#666666" points="113,-113 0,-113 0,-94 113,-94 113,-113"/>
<text text-anchor="middle" x="56.5" y="-101" font-family="Helvetica,sans-Serif" font-size="10.00">PYBIND11_MODULE</text>
</a>
</g>
</g>
<!-- Node7&#45;&gt;Node8 -->
<g id="edge8_Node000007_Node000008" class="edge">
<title>Node7&#45;&gt;Node8</title>
<g id="a_edge8_Node000007_Node000008"><a xlink:title=" ">
<path fill="none" stroke="#63b8ff" d="M176.92,-165.24C147.41,-149.98 101.4,-126.2 75.97,-113.05"/>
<polygon fill="#63b8ff" stroke="#63b8ff" points="175.39,-168.39 185.88,-169.87 178.61,-162.17 175.39,-168.39"/>
</a>
</g>
</g>
<!-- Node10 -->
<g id="Node000010" class="node">
<title>Node10</title>
<g id="a_Node000010"><a xlink:href="main_8c.html#a3c04138a5bfe5d72780bb7e82a18e627" target="_top" xlink:title=" ">
<polygon fill="white" stroke="#666666" points="485.5,-170 447.5,-170 447.5,-151 485.5,-151 485.5,-170"/>
<text text-anchor="middle" x="466.5" y="-158" font-family="Helvetica,sans-Serif" font-size="10.00">main</text>
</a>
</g>
</g>
<!-- Node9&#45;&gt;Node10 -->
<g id="edge10_Node000009_Node000010" class="edge">
<title>Node9&#45;&gt;Node10</title>
<g id="a_edge10_Node000009_Node000010"><a xlink:title=" ">
<path fill="none" stroke="#63b8ff" d="M545.92,-148.24C525.2,-151.48 501.49,-155.19 485.61,-157.67"/>
<polygon fill="#63b8ff" stroke="#63b8ff" points="546.46,-151.69 555.8,-146.69 545.38,-144.78 546.46,-151.69"/>
</a>
</g>
</g>
<!-- Node11 -->
<g id="Node000011" class="node">
<title>Node11</title>
<g id="a_Node000011"><a xlink:href="classXCS.html#a7731d72fe05a86f0d9bc67939fd56182" target="_top" xlink:title="Prints the XCSF parameters and their current values.">
<polygon fill="white" stroke="#666666" points="398,-132 298,-132 298,-113 398,-113 398,-132"/>
<text text-anchor="middle" x="348" y="-120" font-family="Helvetica,sans-Serif" font-size="10.00">XCS::print_params</text>
</a>
</g>
</g>
<!-- Node9&#45;&gt;Node11 -->
<g id="edge11_Node000009_Node000011" class="edge">
<title>Node9&#45;&gt;Node11</title>
<g id="a_edge11_Node000009_Node000011"><a xlink:title=" ">
<path fill="none" stroke="#63b8ff" d="M545.82,-138.08C504.38,-134.8 441.85,-129.85 398.43,-126.41"/>
<polygon fill="#63b8ff" stroke="#63b8ff" points="545.64,-141.58 555.88,-138.88 546.19,-134.6 545.64,-141.58"/>
</a>
</g>
</g>
<!-- Node11&#45;&gt;Node8 -->
<g id="edge12_Node000011_Node000008" class="edge">
<title>Node11&#45;&gt;Node8</title>
<g id="a_edge12_Node000011_Node000008"><a xlink:title=" ">
<path fill="none" stroke="#63b8ff" d="M287.64,-118.6C236.45,-115.24 163.09,-110.43 113.04,-107.15"/>
<polygon fill="#63b8ff" stroke="#63b8ff" points="287.68,-122.11 297.89,-119.28 288.14,-115.13 287.68,-122.11"/>
</a>
</g>
</g>
<!-- Node13 -->
<g id="Node000013" class="node">
<title>Node13</title>
<g id="a_Node000013"><a xlink:href="classXCS.html#a1a7ff32cb3485c0de9dd988f6f3e3470" target="_top" xlink:title="Reads the entire current state of XCSF from a file.">
<polygon fill="white" stroke="#666666" points="236.5,-94 174.5,-94 174.5,-75 236.5,-75 236.5,-94"/>
<text text-anchor="middle" x="205.5" y="-82" font-family="Helvetica,sans-Serif" font-size="10.00">XCS::load</text>
</a>
</g>
</g>
<!-- Node12&#45;&gt;Node13 -->
<g id="edge14_Node000012_Node000013" class="edge">
<title>Node12&#45;&gt;Node13</title>
<g id="a_edge14_Node000012_Node000013"><a xlink:title=" ">
<path fill="none" stroke="#63b8ff" d="M524.47,-84.5C440.93,-84.5 298.74,-84.5 236.82,-84.5"/>
<polygon fill="#63b8ff" stroke="#63b8ff" points="524.6,-88 534.6,-84.5 524.6,-81 524.6,-88"/>
</a>
</g>
</g>
<!-- Node14 -->
<g id="Node000014" class="node">
<title>Node14</title>
<g id="a_Node000014"><a xlink:href="classXCS.html#a2e542f3f17c9c76d07045adf1f5c16f9" target="_top" xlink:title="Resets basic constructor variables.">
<polygon fill="white" stroke="#666666" points="499,-56 434,-56 434,-37 499,-37 499,-56"/>
<text text-anchor="middle" x="466.5" y="-44" font-family="Helvetica,sans-Serif" font-size="10.00">XCS::reset</text>
</a>
</g>
</g>
<!-- Node12&#45;&gt;Node14 -->
<g id="edge16_Node000012_Node000014" class="edge">
<title>Node12&#45;&gt;Node14</title>
<g id="a_edge16_Node000012_Node000014"><a xlink:title=" ">
<path fill="none" stroke="#63b8ff" d="M548.46,-71.82C532.04,-66.69 513.4,-60.86 498.15,-56.09"/>
<polygon fill="#63b8ff" stroke="#63b8ff" points="547.75,-75.27 558.34,-74.91 549.84,-68.59 547.75,-75.27"/>
</a>
</g>
</g>
<!-- Node13&#45;&gt;Node8 -->
<g id="edge15_Node000013_Node000008" class="edge">
<title>Node13&#45;&gt;Node8</title>
<g id="a_edge15_Node000013_Node000008"><a xlink:title=" ">
<path fill="none" stroke="#63b8ff" d="M164.43,-89.68C148.62,-91.72 130.19,-94.11 113.12,-96.31"/>
<polygon fill="#63b8ff" stroke="#63b8ff" points="164.93,-93.14 174.4,-88.39 164.03,-86.2 164.93,-93.14"/>
</a>
</g>
</g>
<!-- Node15 -->
<g id="Node000015" class="node">
<title>Node15</title>
<g id="a_Node000015"><a xlink:href="classXCS.html#a8a53a8df81152fbf73e6abcc6a6e56b4" target="_top" xlink:title="Default Constructor.">
<polygon fill="white" stroke="#666666" points="380.5,-56 315.5,-56 315.5,-37 380.5,-37 380.5,-56"/>
<text text-anchor="middle" x="348" y="-44" font-family="Helvetica,sans-Serif" font-size="10.00">XCS::XCS</text>
</a>
</g>
</g>
<!-- Node14&#45;&gt;Node15 -->
<g id="edge17_Node000014_Node000015" class="edge">
<title>Node14&#45;&gt;Node15</title>
<g id="a_edge17_Node000014_Node000015"><a xlink:title=" ">
<path fill="none" stroke="#63b8ff" d="M423.89,-46.5C409.62,-46.5 393.89,-46.5 380.55,-46.5"/>
<polygon fill="#63b8ff" stroke="#63b8ff" points="423.97,-50 433.97,-46.5 423.97,-43 423.97,-50"/>
</a>
</g>
</g>
<!-- Node17 -->
<g id="Node000017" class="node">
<title>Node17</title>
<g id="a_Node000017"><a xlink:href="classXCS.html#a608a50f998819369d28ef9966d6812ca" target="_top" xlink:title="Constructor.">
<polygon fill="white" stroke="#666666" points="380.5,-19 315.5,-19 315.5,0 380.5,0 380.5,-19"/>
<text text-anchor="middle" x="348" y="-7" font-family="Helvetica,sans-Serif" font-size="10.00">XCS::XCS</text>
</a>
</g>
</g>
<!-- Node14&#45;&gt;Node17 -->
<g id="edge20_Node000014_Node000017" class="edge">
<title>Node14&#45;&gt;Node17</title>
<g id="a_edge20_Node000014_Node000017"><a xlink:title=" ">
<path fill="none" stroke="#63b8ff" d="M425.82,-33.9C410.61,-29.07 393.5,-23.63 379.3,-19.12"/>
<polygon fill="#63b8ff" stroke="#63b8ff" points="424.91,-37.28 435.5,-36.97 427.03,-30.61 424.91,-37.28"/>
</a>
</g>
</g>
<!-- Node16 -->
<g id="Node000016" class="node">
<title>Node16</title>
<g id="a_Node000016"><a xlink:href="classXCS.html#a71b21201e1a2aef16702a2c308eb6683" target="_top" xlink:title="Implements pickle file reading.">
<polygon fill="white" stroke="#666666" points="250.5,-57 160.5,-57 160.5,-38 250.5,-38 250.5,-57"/>
<text text-anchor="middle" x="205.5" y="-45" font-family="Helvetica,sans-Serif" font-size="10.00">XCS::deserialize</text>
</a>
</g>
</g>
<!-- Node15&#45;&gt;Node16 -->
<g id="edge18_Node000015_Node000016" class="edge">
<title>Node15&#45;&gt;Node16</title>
<g id="a_edge18_Node000015_Node000016"><a xlink:title=" ">
<path fill="none" stroke="#63b8ff" d="M305.18,-46.8C288.01,-46.92 268.12,-47.06 250.71,-47.19"/>
<polygon fill="#63b8ff" stroke="#63b8ff" points="305.49,-50.3 315.47,-46.72 305.44,-43.3 305.49,-50.3"/>
</a>
</g>
</g>
<!-- Node16&#45;&gt;Node8 -->
<g id="edge19_Node000016_Node000008" class="edge">
<title>Node16&#45;&gt;Node8</title>
<g id="a_edge19_Node000016_Node000008"><a xlink:title=" ">
<path fill="none" stroke="#63b8ff" d="M163.93,-60.24C158.88,-61.95 153.81,-63.73 149,-65.5 124.8,-74.43 97.54,-85.95 79.12,-93.95"/>
<polygon fill="#63b8ff" stroke="#63b8ff" points="165.13,-63.53 173.52,-57.06 162.93,-56.89 165.13,-63.53"/>
</a>
</g>
</g>
<!-- Node18&#45;&gt;Node6 -->
<g id="edge22_Node000018_Node000006" class="edge">
<title>Node18&#45;&gt;Node6</title>
<g id="a_edge22_Node000018_Node000006"><a xlink:title=" ">
<path fill="none" stroke="#63b8ff" d="M808.33,-141.5C798.82,-141.5 789.26,-141.5 780.26,-141.5"/>
<polygon fill="#63b8ff" stroke="#63b8ff" points="808.61,-145 818.61,-141.5 808.6,-138 808.61,-145"/>
</a>
</g>
</g>
<!-- Node19&#45;&gt;Node6 -->
<g id="edge24_Node000019_Node000006" class="edge">
<title>Node19&#45;&gt;Node6</title>
<g id="a_edge24_Node000019_Node000006"><a xlink:title=" ">
<path fill="none" stroke="#63b8ff" d="M832.2,-116.49C812.05,-121.5 788.98,-127.23 770,-131.94"/>
<polygon fill="#63b8ff" stroke="#63b8ff" points="833.27,-119.84 842.13,-114.03 831.58,-113.04 833.27,-119.84"/>
</a>
</g>
</g>
</g>
</svg>
