<?xml version="1.0" encoding="UTF-8" standalone="no"?>
<!DOCTYPE svg PUBLIC "-//W3C//DTD SVG 1.1//EN"
 "http://www.w3.org/Graphics/SVG/1.1/DTD/svg11.dtd">
<!-- Generated by graphviz version 2.43.0 (0)
 -->
<!-- Title: neural_insert Pages: 1 -->
<svg width="845pt" height="370pt"
 viewBox="0.00 0.00 845.00 370.00" xmlns="http://www.w3.org/2000/svg" xmlns:xlink="http://www.w3.org/1999/xlink">
<g id="graph0" class="graph" transform="scale(1 1) rotate(0) translate(4 366)">
<title>neural_insert</title>
<!-- Node1 -->
<g id="node1" class="node">
<title>Node1</title>
<g id="a_node1"><a xlink:title="Inserts a layer into a neural network.">
<polygon fill="#bfbfbf" stroke="black" points="765,-76.5 765,-95.5 837,-95.5 837,-76.5 765,-76.5"/>
<text text-anchor="middle" x="801" y="-83.5" font-family="Helvetica,sans-Serif" font-size="10.00">neural_insert</text>
</a>
</g>
</g>
<!-- Node2 -->
<g id="node2" class="node">
<title>Node2</title>
<g id="a_node2"><a xlink:href="neural_8h.html#a3ae44122ecbd5f15bd29cd832155e792" target="_top" xlink:title="Inserts a layer at the head of a neural network.">
<polygon fill="none" stroke="black" points="642.5,-133.5 642.5,-152.5 711.5,-152.5 711.5,-133.5 642.5,-133.5"/>
<text text-anchor="middle" x="677" y="-140.5" font-family="Helvetica,sans-Serif" font-size="10.00">neural_push</text>
</a>
</g>
</g>
<!-- Node1&#45;&gt;Node2 -->
<g id="edge1" class="edge">
<title>Node1&#45;&gt;Node2</title>
<path fill="none" stroke="midnightblue" d="M770.26,-99.9C748,-110.3 718.13,-124.25 698.49,-133.43"/>
<polygon fill="midnightblue" stroke="midnightblue" points="772,-102.94 779.58,-95.54 769.04,-96.6 772,-102.94"/>
</g>
<!-- Node21 -->
<g id="node21" class="node">
<title>Node21</title>
<g id="a_node21"><a xlink:href="pred__neural_8h.html#ab573aaed6ff7623e99afe1d1f6e00919" target="_top" xlink:title="Creates and inserts a hidden layer before the prediction output layer.">
<polygon fill="none" stroke="black" points="625,-57.5 625,-76.5 729,-76.5 729,-57.5 625,-57.5"/>
<text text-anchor="middle" x="677" y="-64.5" font-family="Helvetica,sans-Serif" font-size="10.00">pred_neural_expand</text>
</a>
</g>
</g>
<!-- Node1&#45;&gt;Node21 -->
<g id="edge20" class="edge">
<title>Node1&#45;&gt;Node21</title>
<path fill="none" stroke="midnightblue" d="M754.77,-78.96C746.4,-77.65 737.61,-76.28 729.09,-74.96"/>
<polygon fill="midnightblue" stroke="midnightblue" points="754.29,-82.42 764.71,-80.5 755.37,-75.51 754.29,-82.42"/>
</g>
<!-- Node3 -->
<g id="node3" class="node">
<title>Node3</title>
<g id="a_node3"><a xlink:href="act__neural_8h.html#abbdbc4d92f139ccc9816289233dbf934" target="_top" xlink:title="Creates and initialises an action neural network.">
<polygon fill="none" stroke="black" points="479,-304.5 479,-323.5 559,-323.5 559,-304.5 479,-304.5"/>
<text text-anchor="middle" x="519" y="-311.5" font-family="Helvetica,sans-Serif" font-size="10.00">act_neural_init</text>
</a>
</g>
</g>
<!-- Node2&#45;&gt;Node3 -->
<g id="edge2" class="edge">
<title>Node2&#45;&gt;Node3</title>
<path fill="none" stroke="midnightblue" d="M670.37,-162.18C659.85,-194.57 634.11,-260 589,-295 580.46,-301.63 569.75,-305.94 559.34,-308.75"/>
<polygon fill="midnightblue" stroke="midnightblue" points="673.73,-163.14 673.36,-152.55 667.05,-161.06 673.73,-163.14"/>
</g>
<!-- Node4 -->
<g id="node4" class="node">
<title>Node4</title>
<g id="a_node4"><a xlink:href="cond__neural_8h.html#a16f80af76361587e6da53dd21fa05b7b" target="_top" xlink:title="Creates and initialises a neural network condition.">
<polygon fill="none" stroke="black" points="475.5,-266.5 475.5,-285.5 562.5,-285.5 562.5,-266.5 475.5,-266.5"/>
<text text-anchor="middle" x="519" y="-273.5" font-family="Helvetica,sans-Serif" font-size="10.00">cond_neural_init</text>
</a>
</g>
</g>
<!-- Node2&#45;&gt;Node4 -->
<g id="edge3" class="edge">
<title>Node2&#45;&gt;Node4</title>
<path fill="none" stroke="midnightblue" d="M666.79,-161.63C653.27,-187.06 625.62,-232.28 589,-257 581.17,-262.28 571.91,-266.1 562.76,-268.87"/>
<polygon fill="midnightblue" stroke="midnightblue" points="669.95,-163.14 671.42,-152.65 663.73,-159.94 669.95,-163.14"/>
</g>
<!-- Node5 -->
<g id="node5" class="node">
<title>Node5</title>
<g id="a_node5"><a xlink:href="neural_8h.html#a9bc98830b0dead5c840ed0f4e709bcff" target="_top" xlink:title="Copies a neural network.">
<polygon fill="none" stroke="black" points="484.5,-228.5 484.5,-247.5 553.5,-247.5 553.5,-228.5 484.5,-228.5"/>
<text text-anchor="middle" x="519" y="-235.5" font-family="Helvetica,sans-Serif" font-size="10.00">neural_copy</text>
</a>
</g>
</g>
<!-- Node2&#45;&gt;Node5 -->
<g id="edge4" class="edge">
<title>Node2&#45;&gt;Node5</title>
<path fill="none" stroke="midnightblue" d="M651.34,-158.02C618.97,-177.73 563.1,-211.75 535.86,-228.34"/>
<polygon fill="midnightblue" stroke="midnightblue" points="653.46,-160.82 660.18,-152.63 649.82,-154.84 653.46,-160.82"/>
</g>
<!-- Node10 -->
<g id="node10" class="node">
<title>Node10</title>
<g id="a_node10"><a xlink:href="neural_8h.html#a833f6aab2b0a0177709b06f3af8f4688" target="_top" xlink:title="Reads a neural network from a file.">
<polygon fill="none" stroke="black" points="486,-152.5 486,-171.5 552,-171.5 552,-152.5 486,-152.5"/>
<text text-anchor="middle" x="519" y="-159.5" font-family="Helvetica,sans-Serif" font-size="10.00">neural_load</text>
</a>
</g>
</g>
<!-- Node2&#45;&gt;Node10 -->
<g id="edge9" class="edge">
<title>Node2&#45;&gt;Node10</title>
<path fill="none" stroke="midnightblue" d="M632.03,-148.35C606.64,-151.45 575.27,-155.27 552.18,-158.08"/>
<polygon fill="midnightblue" stroke="midnightblue" points="632.65,-151.81 642.15,-147.12 631.8,-144.86 632.65,-151.81"/>
</g>
<!-- Node15 -->
<g id="node15" class="node">
<title>Node15</title>
<g id="a_node15"><a xlink:href="pred__neural_8h.html#aa639a9130cac0c222bca241f86d6c135" target="_top" xlink:title="Removes prediction (decoder) layers and inserts softmax output layer.">
<polygon fill="none" stroke="black" points="449,-114.5 449,-133.5 589,-133.5 589,-114.5 449,-114.5"/>
<text text-anchor="middle" x="519" y="-121.5" font-family="Helvetica,sans-Serif" font-size="10.00">pred_neural_ae_to_classifier</text>
</a>
</g>
</g>
<!-- Node2&#45;&gt;Node15 -->
<g id="edge14" class="edge">
<title>Node2&#45;&gt;Node15</title>
<path fill="none" stroke="midnightblue" d="M631.85,-137.62C618.53,-136 603.57,-134.18 589.03,-132.41"/>
<polygon fill="midnightblue" stroke="midnightblue" points="631.8,-141.14 642.15,-138.88 632.65,-134.19 631.8,-141.14"/>
</g>
<!-- Node19 -->
<g id="node19" class="node">
<title>Node19</title>
<g id="a_node19"><a xlink:href="pred__neural_8h.html#a8ff454a2da61b52670f4b70b71da2fe8" target="_top" xlink:title="Creates and initialises a neural network prediction.">
<polygon fill="none" stroke="black" points="476.5,-76.5 476.5,-95.5 561.5,-95.5 561.5,-76.5 476.5,-76.5"/>
<text text-anchor="middle" x="519" y="-83.5" font-family="Helvetica,sans-Serif" font-size="10.00">pred_neural_init</text>
</a>
</g>
</g>
<!-- Node2&#45;&gt;Node19 -->
<g id="edge18" class="edge">
<title>Node2&#45;&gt;Node19</title>
<path fill="none" stroke="midnightblue" d="M647.05,-129.11C630.32,-121.4 608.74,-111.99 589,-105 579.28,-101.56 568.61,-98.35 558.62,-95.59"/>
<polygon fill="midnightblue" stroke="midnightblue" points="645.74,-132.36 656.28,-133.42 648.7,-126.02 645.74,-132.36"/>
</g>
<!-- Node20 -->
<g id="node20" class="node">
<title>Node20</title>
<g id="a_node20"><a xlink:href="rule__neural_8h.html#accc0db627c6130e7c8680c008b47a2e2" target="_top" xlink:title=" ">
<polygon fill="none" stroke="black" points="465,-38.5 465,-57.5 573,-57.5 573,-38.5 465,-38.5"/>
<text text-anchor="middle" x="519" y="-45.5" font-family="Helvetica,sans-Serif" font-size="10.00">rule_neural_cond_init</text>
</a>
</g>
</g>
<!-- Node2&#45;&gt;Node20 -->
<g id="edge19" class="edge">
<title>Node2&#45;&gt;Node20</title>
<path fill="none" stroke="midnightblue" d="M660.61,-125.59C644.42,-108.31 617.39,-82.26 589,-67 581.89,-63.18 573.94,-60.07 566.04,-57.56"/>
<polygon fill="midnightblue" stroke="midnightblue" points="658.31,-128.27 667.65,-133.28 663.48,-123.54 658.31,-128.27"/>
</g>
<!-- Node6 -->
<g id="node6" class="node">
<title>Node6</title>
<g id="a_node6"><a xlink:href="act__neural_8h.html#a6c3049bc82f3a2bd512e156a0f1c1a9b" target="_top" xlink:title="Copies a neural network action from one classifier to another.">
<polygon fill="none" stroke="black" points="311,-342.5 311,-361.5 399,-361.5 399,-342.5 311,-342.5"/>
<text text-anchor="middle" x="355" y="-349.5" font-family="Helvetica,sans-Serif" font-size="10.00">act_neural_copy</text>
</a>
</g>
</g>
<!-- Node5&#45;&gt;Node6 -->
<g id="edge5" class="edge">
<title>Node5&#45;&gt;Node6</title>
<path fill="none" stroke="midnightblue" d="M474.49,-243.92C465.34,-246.74 456.27,-250.9 449,-257 420.38,-281.04 440.97,-308.21 413,-333 408.63,-336.87 403.44,-339.96 398.01,-342.42"/>
<polygon fill="midnightblue" stroke="midnightblue" points="475.58,-247.26 484.38,-241.35 473.82,-240.48 475.58,-247.26"/>
</g>
<!-- Node7 -->
<g id="node7" class="node">
<title>Node7</title>
<g id="a_node7"><a xlink:href="cond__neural_8h.html#ad37696d691025a38a0f8dafeb376ad44" target="_top" xlink:title=" ">
<polygon fill="none" stroke="black" points="307.5,-304.5 307.5,-323.5 402.5,-323.5 402.5,-304.5 307.5,-304.5"/>
<text text-anchor="middle" x="355" y="-311.5" font-family="Helvetica,sans-Serif" font-size="10.00">cond_neural_copy</text>
</a>
</g>
</g>
<!-- Node5&#45;&gt;Node7 -->
<g id="edge6" class="edge">
<title>Node5&#45;&gt;Node7</title>
<path fill="none" stroke="midnightblue" d="M474.43,-246.13C465.65,-248.82 456.74,-252.35 449,-257 429.05,-268.97 432.62,-282.5 413,-295 407.02,-298.81 400.19,-301.94 393.39,-304.47"/>
<polygon fill="midnightblue" stroke="midnightblue" points="475.51,-249.46 484.23,-243.44 473.66,-242.71 475.51,-249.46"/>
</g>
<!-- Node8 -->
<g id="node8" class="node">
<title>Node8</title>
<g id="a_node8"><a xlink:href="pred__neural_8h.html#aabc294bd7043f7ea912832c3a26b73a1" target="_top" xlink:title="Copies a neural network prediction from one classifier to another.">
<polygon fill="none" stroke="black" points="308.5,-266.5 308.5,-285.5 401.5,-285.5 401.5,-266.5 308.5,-266.5"/>
<text text-anchor="middle" x="355" y="-273.5" font-family="Helvetica,sans-Serif" font-size="10.00">pred_neural_copy</text>
</a>
</g>
</g>
<!-- Node5&#45;&gt;Node8 -->
<g id="edge7" class="edge">
<title>Node5&#45;&gt;Node8</title>
<path fill="none" stroke="midnightblue" d="M474.46,-248.21C450.28,-253.88 420.4,-260.89 396.7,-266.45"/>
<polygon fill="midnightblue" stroke="midnightblue" points="475.5,-251.56 484.43,-245.87 473.9,-244.75 475.5,-251.56"/>
</g>
<!-- Node9 -->
<g id="node9" class="node">
<title>Node9</title>
<g id="a_node9"><a xlink:href="rule__neural_8h.html#ad4146518a1cee7c58589d9ea89e02a83" target="_top" xlink:title=" ">
<polygon fill="none" stroke="black" points="297,-228.5 297,-247.5 413,-247.5 413,-228.5 297,-228.5"/>
<text text-anchor="middle" x="355" y="-235.5" font-family="Helvetica,sans-Serif" font-size="10.00">rule_neural_cond_copy</text>
</a>
</g>
</g>
<!-- Node5&#45;&gt;Node9 -->
<g id="edge8" class="edge">
<title>Node5&#45;&gt;Node9</title>
<path fill="none" stroke="midnightblue" d="M474.36,-238C455.53,-238 433.25,-238 413.13,-238"/>
<polygon fill="midnightblue" stroke="midnightblue" points="474.43,-241.5 484.43,-238 474.43,-234.5 474.43,-241.5"/>
</g>
<!-- Node11 -->
<g id="node11" class="node">
<title>Node11</title>
<g id="a_node11"><a xlink:href="act__neural_8h.html#a241289b5c61dec98b854ee24fdf16d67" target="_top" xlink:title="Reads a neural network action from a file.">
<polygon fill="none" stroke="black" points="312.5,-190.5 312.5,-209.5 397.5,-209.5 397.5,-190.5 312.5,-190.5"/>
<text text-anchor="middle" x="355" y="-197.5" font-family="Helvetica,sans-Serif" font-size="10.00">act_neural_load</text>
</a>
</g>
</g>
<!-- Node10&#45;&gt;Node11 -->
<g id="edge10" class="edge">
<title>Node10&#45;&gt;Node11</title>
<path fill="none" stroke="midnightblue" d="M476.25,-171.79C451.74,-177.54 420.89,-184.78 396.58,-190.48"/>
<polygon fill="midnightblue" stroke="midnightblue" points="477.06,-175.2 485.99,-169.51 475.46,-168.38 477.06,-175.2"/>
</g>
<!-- Node12 -->
<g id="node12" class="node">
<title>Node12</title>
<g id="a_node12"><a xlink:href="cond__neural_8h.html#a8decac2646ea64aba95cd8522d295c83" target="_top" xlink:title=" ">
<polygon fill="none" stroke="black" points="309,-152.5 309,-171.5 401,-171.5 401,-152.5 309,-152.5"/>
<text text-anchor="middle" x="355" y="-159.5" font-family="Helvetica,sans-Serif" font-size="10.00">cond_neural_load</text>
</a>
</g>
</g>
<!-- Node10&#45;&gt;Node12 -->
<g id="edge11" class="edge">
<title>Node10&#45;&gt;Node12</title>
<path fill="none" stroke="midnightblue" d="M475.87,-162C452.93,-162 424.52,-162 401.12,-162"/>
<polygon fill="midnightblue" stroke="midnightblue" points="475.99,-165.5 485.99,-162 475.99,-158.5 475.99,-165.5"/>
</g>
<!-- Node13 -->
<g id="node13" class="node">
<title>Node13</title>
<g id="a_node13"><a xlink:href="pred__neural_8h.html#aee98eff48767b879343983d0717952cc" target="_top" xlink:title="Reads a neural network prediction from a file.">
<polygon fill="none" stroke="black" points="310,-114.5 310,-133.5 400,-133.5 400,-114.5 310,-114.5"/>
<text text-anchor="middle" x="355" y="-121.5" font-family="Helvetica,sans-Serif" font-size="10.00">pred_neural_load</text>
</a>
</g>
</g>
<!-- Node10&#45;&gt;Node13 -->
<g id="edge12" class="edge">
<title>Node10&#45;&gt;Node13</title>
<path fill="none" stroke="midnightblue" d="M476.25,-152.21C451.74,-146.46 420.89,-139.22 396.58,-133.52"/>
<polygon fill="midnightblue" stroke="midnightblue" points="475.46,-155.62 485.99,-154.49 477.06,-148.8 475.46,-155.62"/>
</g>
<!-- Node14 -->
<g id="node14" class="node">
<title>Node14</title>
<g id="a_node14"><a xlink:href="rule__neural_8h.html#a0e1e69e3c01307e2423a9c3c05409d63" target="_top" xlink:title=" ">
<polygon fill="none" stroke="black" points="298.5,-76.5 298.5,-95.5 411.5,-95.5 411.5,-76.5 298.5,-76.5"/>
<text text-anchor="middle" x="355" y="-83.5" font-family="Helvetica,sans-Serif" font-size="10.00">rule_neural_cond_load</text>
</a>
</g>
</g>
<!-- Node10&#45;&gt;Node14 -->
<g id="edge13" class="edge">
<title>Node10&#45;&gt;Node14</title>
<path fill="none" stroke="midnightblue" d="M476.04,-154.36C466.74,-151.61 457.21,-147.93 449,-143 429.05,-131.03 432.62,-117.5 413,-105 407.02,-101.19 400.19,-98.06 393.39,-95.53"/>
<polygon fill="midnightblue" stroke="midnightblue" points="475.41,-157.81 485.98,-156.97 477.2,-151.04 475.41,-157.81"/>
</g>
<!-- Node16 -->
<g id="node16" class="node">
<title>Node16</title>
<g id="a_node16"><a xlink:href="xcsf_8h.html#ad77461184a11780681798ac593b090ab" target="_top" xlink:title="Switches from autoencoding to classification.">
<polygon fill="none" stroke="black" points="300.5,-38.5 300.5,-57.5 409.5,-57.5 409.5,-38.5 300.5,-38.5"/>
<text text-anchor="middle" x="355" y="-45.5" font-family="Helvetica,sans-Serif" font-size="10.00">xcsf_ae_to_classifier</text>
</a>
</g>
</g>
<!-- Node15&#45;&gt;Node16 -->
<g id="edge15" class="edge">
<title>Node15&#45;&gt;Node16</title>
<path fill="none" stroke="midnightblue" d="M460.41,-110.78C456.44,-109.08 452.6,-107.16 449,-105 429.05,-93.03 432.62,-79.5 413,-67 407.02,-63.19 400.19,-60.06 393.39,-57.53"/>
<polygon fill="midnightblue" stroke="midnightblue" points="459.24,-114.08 469.83,-114.39 461.75,-107.55 459.24,-114.08"/>
</g>
<!-- Node17 -->
<g id="node17" class="node">
<title>Node17</title>
<g id="a_node17"><a xlink:href="classXCS.html#ad73009d926d395ee03bf7586f194fcbe" target="_top" xlink:title="Switches from autoencoding to classification.">
<polygon fill="none" stroke="black" points="149,-38.5 149,-57.5 261,-57.5 261,-38.5 149,-38.5"/>
<text text-anchor="middle" x="205" y="-45.5" font-family="Helvetica,sans-Serif" font-size="10.00">XCS::ae_to_classifier</text>
</a>
</g>
</g>
<!-- Node16&#45;&gt;Node17 -->
<g id="edge16" class="edge">
<title>Node16&#45;&gt;Node17</title>
<path fill="none" stroke="midnightblue" d="M289.86,-48C280.26,-48 270.44,-48 261.05,-48"/>
<polygon fill="midnightblue" stroke="midnightblue" points="290.15,-51.5 300.15,-48 290.15,-44.5 290.15,-51.5"/>
</g>
<!-- Node18 -->
<g id="node18" class="node">
<title>Node18</title>
<g id="a_node18"><a xlink:href="pybind__wrapper_8cpp.html#a269acb618355873dacf057083f07eb58" target="_top" xlink:title=" ">
<polygon fill="none" stroke="black" points="0,-19.5 0,-38.5 113,-38.5 113,-19.5 0,-19.5"/>
<text text-anchor="middle" x="56.5" y="-26.5" font-family="Helvetica,sans-Serif" font-size="10.00">pybind11_init_wrapper</text>
</a>
</g>
</g>
<!-- Node17&#45;&gt;Node18 -->
<g id="edge17" class="edge">
<title>Node17&#45;&gt;Node18</title>
<path fill="none" stroke="midnightblue" d="M138.51,-39.51C130.15,-38.42 121.64,-37.32 113.45,-36.26"/>
<polygon fill="midnightblue" stroke="midnightblue" points="138.25,-43 148.61,-40.82 139.15,-36.06 138.25,-43"/>
</g>
<!-- Node22 -->
<g id="node22" class="node">
<title>Node22</title>
<g id="a_node22"><a xlink:href="xcsf_8h.html#a6bb93a888da68d6397ce63fb58428237" target="_top" xlink:title="Inserts a new hidden layer before the output layer within all prediction neural networks in the popul...">
<polygon fill="none" stroke="black" points="471,-0.5 471,-19.5 567,-19.5 567,-0.5 471,-0.5"/>
<text text-anchor="middle" x="519" y="-7.5" font-family="Helvetica,sans-Serif" font-size="10.00">xcsf_pred_expand</text>
</a>
</g>
</g>
<!-- Node21&#45;&gt;Node22 -->
<g id="edge21" class="edge">
<title>Node21&#45;&gt;Node22</title>
<path fill="none" stroke="midnightblue" d="M647.05,-53.11C630.32,-45.4 608.74,-35.99 589,-29 579.28,-25.56 568.61,-22.35 558.62,-19.59"/>
<polygon fill="midnightblue" stroke="midnightblue" points="645.74,-56.36 656.28,-57.42 648.7,-50.02 645.74,-56.36"/>
</g>
<!-- Node23 -->
<g id="node23" class="node">
<title>Node23</title>
<g id="a_node23"><a xlink:href="classXCS.html#aa4d00c1db4ef961055b74f231cbd39f0" target="_top" xlink:title="Inserts a new hidden layer before the output layer within all prediction neural networks in the popul...">
<polygon fill="none" stroke="black" points="155.5,-0.5 155.5,-19.5 254.5,-19.5 254.5,-0.5 155.5,-0.5"/>
<text text-anchor="middle" x="205" y="-7.5" font-family="Helvetica,sans-Serif" font-size="10.00">XCS::pred_expand</text>
</a>
</g>
</g>
<!-- Node22&#45;&gt;Node23 -->
<g id="edge22" class="edge">
<title>Node22&#45;&gt;Node23</title>
<path fill="none" stroke="midnightblue" d="M460.67,-10C401.58,-10 310.44,-10 254.72,-10"/>
<polygon fill="midnightblue" stroke="midnightblue" points="460.95,-13.5 470.95,-10 460.95,-6.5 460.95,-13.5"/>
</g>
<!-- Node23&#45;&gt;Node18 -->
<g id="edge23" class="edge">
<title>Node23&#45;&gt;Node18</title>
<path fill="none" stroke="midnightblue" d="M145.23,-17.62C134.65,-18.99 123.65,-20.42 113.16,-21.78"/>
<polygon fill="midnightblue" stroke="midnightblue" points="145.75,-21.08 155.22,-16.33 144.85,-14.14 145.75,-21.08"/>
</g>
</g>
</svg>
