<?xml version="1.0" encoding="UTF-8" standalone="no"?>
<!DOCTYPE svg PUBLIC "-//W3C//DTD SVG 1.1//EN"
 "http://www.w3.org/Graphics/SVG/1.1/DTD/svg11.dtd">
<!-- Generated by graphviz version 2.43.0 (0)
 -->
<!-- Title: neural_layer_dropout.c Pages: 1 -->
<svg width="523pt" height="302pt"
 viewBox="0.00 0.00 522.50 302.00" xmlns="http://www.w3.org/2000/svg" xmlns:xlink="http://www.w3.org/1999/xlink">
<g id="graph0" class="graph" transform="scale(1 1) rotate(0) translate(4 298)">
<title>neural_layer_dropout.c</title>
<!-- Node1 -->
<g id="Node000001" class="node">
<title>Node1</title>
<g id="a_Node000001"><a xlink:title="An implementation of a dropout layer.">
<polygon fill="#999999" stroke="#666666" points="416.5,-294 301.5,-294 301.5,-275 416.5,-275 416.5,-294"/>
<text text-anchor="middle" x="359" y="-282" font-family="Helvetica,sans-Serif" font-size="10.00">neural_layer_dropout.c</text>
</a>
</g>
</g>
<!-- Node2 -->
<g id="Node000002" class="node">
<title>Node2</title>
<g id="a_Node000002"><a xlink:href="neural__layer__dropout_8h.html" target="_top" xlink:title="An implementation of a dropout layer.">
<polygon fill="white" stroke="#666666" points="330.5,-239 215.5,-239 215.5,-220 330.5,-220 330.5,-239"/>
<text text-anchor="middle" x="273" y="-227" font-family="Helvetica,sans-Serif" font-size="10.00">neural_layer_dropout.h</text>
</a>
</g>
</g>
<!-- Node1&#45;&gt;Node2 -->
<g id="edge1_Node000001_Node000002" class="edge">
<title>Node1&#45;&gt;Node2</title>
<g id="a_edge1_Node000001_Node000002"><a xlink:title=" ">
<path fill="none" stroke="#63b8ff" d="M345.18,-274.98C331.85,-266.77 311.42,-254.18 295.69,-244.49"/>
<polygon fill="#63b8ff" stroke="#63b8ff" points="297.42,-241.44 287.07,-239.17 293.75,-247.4 297.42,-241.44"/>
</a>
</g>
</g>
<!-- Node5 -->
<g id="Node000005" class="node">
<title>Node5</title>
<g id="a_Node000005"><a xlink:href="utils_8h.html" target="_top" xlink:title="Utility functions for random number handling, etc.">
<polygon fill="white" stroke="#666666" points="327.5,-74 284.5,-74 284.5,-55 327.5,-55 327.5,-74"/>
<text text-anchor="middle" x="306" y="-62" font-family="Helvetica,sans-Serif" font-size="10.00">utils.h</text>
</a>
</g>
</g>
<!-- Node1&#45;&gt;Node5 -->
<g id="edge20_Node000001_Node000005" class="edge">
<title>Node1&#45;&gt;Node5</title>
<g id="a_edge20_Node000001_Node000005"><a xlink:title=" ">
<path fill="none" stroke="#63b8ff" d="M359.33,-274.84C360.03,-248.89 360.01,-169.79 337,-110 333.17,-100.04 326.65,-90.18 320.58,-82.28"/>
<polygon fill="#63b8ff" stroke="#63b8ff" points="323.11,-79.84 314.08,-74.29 317.68,-84.26 323.11,-79.84"/>
</a>
</g>
</g>
<!-- Node15 -->
<g id="Node000015" class="node">
<title>Node15</title>
<g id="a_Node000015"><a xlink:href="neural__activations_8h.html" target="_top" xlink:title="Neural network activation functions.">
<polygon fill="white" stroke="#666666" points="507,-184 403,-184 403,-165 507,-165 507,-184"/>
<text text-anchor="middle" x="455" y="-172" font-family="Helvetica,sans-Serif" font-size="10.00">neural_activations.h</text>
</a>
</g>
</g>
<!-- Node1&#45;&gt;Node15 -->
<g id="edge18_Node000001_Node000015" class="edge">
<title>Node1&#45;&gt;Node15</title>
<g id="a_edge18_Node000001_Node000015"><a xlink:title=" ">
<path fill="none" stroke="#63b8ff" d="M366.86,-274.66C382.97,-256.54 419.97,-214.91 440.54,-191.77"/>
<polygon fill="#63b8ff" stroke="#63b8ff" points="443.28,-193.96 447.3,-184.16 438.04,-189.31 443.28,-193.96"/>
</a>
</g>
</g>
<!-- Node3 -->
<g id="Node000003" class="node">
<title>Node3</title>
<g id="a_Node000003"><a xlink:href="neural__layer_8h.html" target="_top" xlink:title="Interface for neural network layers.">
<polygon fill="white" stroke="#666666" points="311.5,-184 234.5,-184 234.5,-165 311.5,-165 311.5,-184"/>
<text text-anchor="middle" x="273" y="-172" font-family="Helvetica,sans-Serif" font-size="10.00">neural_layer.h</text>
</a>
</g>
</g>
<!-- Node2&#45;&gt;Node3 -->
<g id="edge2_Node000002_Node000003" class="edge">
<title>Node2&#45;&gt;Node3</title>
<g id="a_edge2_Node000002_Node000003"><a xlink:title=" ">
<path fill="none" stroke="#63b8ff" d="M273,-219.75C273,-212.8 273,-202.85 273,-194.13"/>
<polygon fill="#63b8ff" stroke="#63b8ff" points="276.5,-194.09 273,-184.09 269.5,-194.09 276.5,-194.09"/>
</a>
</g>
</g>
<!-- Node4 -->
<g id="Node000004" class="node">
<title>Node4</title>
<g id="a_Node000004"><a xlink:href="neural_8h.html" target="_top" xlink:title="An implementation of a multi&#45;layer perceptron neural network.">
<polygon fill="white" stroke="#666666" points="200.5,-129 149.5,-129 149.5,-110 200.5,-110 200.5,-129"/>
<text text-anchor="middle" x="175" y="-117" font-family="Helvetica,sans-Serif" font-size="10.00">neural.h</text>
</a>
</g>
</g>
<!-- Node3&#45;&gt;Node4 -->
<g id="edge3_Node000003_Node000004" class="edge">
<title>Node3&#45;&gt;Node4</title>
<g id="a_edge3_Node000003_Node000004"><a xlink:title=" ">
<path fill="none" stroke="#63b8ff" d="M257.25,-164.98C241.77,-156.61 217.91,-143.7 199.86,-133.95"/>
<polygon fill="#63b8ff" stroke="#63b8ff" points="201.49,-130.85 191.03,-129.17 198.16,-137.01 201.49,-130.85"/>
</a>
</g>
</g>
<!-- Node14 -->
<g id="Node000014" class="node">
<title>Node14</title>
<g id="a_Node000014"><a xlink:href="neural__layer__args_8h.html" target="_top" xlink:title="Functions operating on neural network arguments/constants.">
<polygon fill="white" stroke="#666666" points="327.5,-129 226.5,-129 226.5,-110 327.5,-110 327.5,-129"/>
<text text-anchor="middle" x="277" y="-117" font-family="Helvetica,sans-Serif" font-size="10.00">neural_layer_args.h</text>
</a>
</g>
</g>
<!-- Node3&#45;&gt;Node14 -->
<g id="edge16_Node000003_Node000014" class="edge">
<title>Node3&#45;&gt;Node14</title>
<g id="a_edge16_Node000003_Node000014"><a xlink:title=" ">
<path fill="none" stroke="#63b8ff" d="M273.66,-164.75C274.18,-157.8 274.94,-147.85 275.59,-139.13"/>
<polygon fill="#63b8ff" stroke="#63b8ff" points="279.09,-139.32 276.35,-129.09 272.11,-138.8 279.09,-139.32"/>
</a>
</g>
</g>
<!-- Node4&#45;&gt;Node5 -->
<g id="edge4_Node000004_Node000005" class="edge">
<title>Node4&#45;&gt;Node5</title>
<g id="a_edge4_Node000004_Node000005"><a xlink:title=" ">
<path fill="none" stroke="#63b8ff" d="M196.05,-109.98C217.41,-101.34 250.7,-87.87 275.06,-78.02"/>
<polygon fill="#63b8ff" stroke="#63b8ff" points="276.61,-81.17 284.57,-74.17 273.99,-74.68 276.61,-81.17"/>
</a>
</g>
</g>
<!-- Node9 -->
<g id="Node000009" class="node">
<title>Node9</title>
<g id="a_Node000009"><a xlink:title=" ">
<polygon fill="#e0e0e0" stroke="#999999" points="56,-19 0,-19 0,0 56,0 56,-19"/>
<text text-anchor="middle" x="28" y="-7" font-family="Helvetica,sans-Serif" font-size="10.00">stdbool.h</text>
</a>
</g>
</g>
<!-- Node4&#45;&gt;Node9 -->
<g id="edge11_Node000004_Node000009" class="edge">
<title>Node4&#45;&gt;Node9</title>
<g id="a_edge11_Node000004_Node000009"><a xlink:title=" ">
<path fill="none" stroke="#63b8ff" d="M163.22,-109.84C138.17,-91.44 79.36,-48.23 48.2,-25.34"/>
<polygon fill="#63b8ff" stroke="#63b8ff" points="49.97,-22.3 39.84,-19.2 45.82,-27.94 49.97,-22.3"/>
</a>
</g>
</g>
<!-- Node10 -->
<g id="Node000010" class="node">
<title>Node10</title>
<g id="a_Node000010"><a xlink:title=" ">
<polygon fill="#e0e0e0" stroke="#999999" points="120,-19 74,-19 74,0 120,0 120,-19"/>
<text text-anchor="middle" x="97" y="-7" font-family="Helvetica,sans-Serif" font-size="10.00">stdio.h</text>
</a>
</g>
</g>
<!-- Node4&#45;&gt;Node10 -->
<g id="edge13_Node000004_Node000010" class="edge">
<title>Node4&#45;&gt;Node10</title>
<g id="a_edge13_Node000004_Node000010"><a xlink:title=" ">
<path fill="none" stroke="#63b8ff" d="M166.46,-109.67C158.23,-100.95 145.63,-87.07 136,-74 124.99,-59.06 114.07,-40.93 106.6,-27.87"/>
<polygon fill="#63b8ff" stroke="#63b8ff" points="109.57,-26.01 101.62,-19.01 103.47,-29.44 109.57,-26.01"/>
</a>
</g>
</g>
<!-- Node11 -->
<g id="Node000011" class="node">
<title>Node11</title>
<g id="a_Node000011"><a xlink:title=" ">
<polygon fill="#e0e0e0" stroke="#999999" points="186,-19 138,-19 138,0 186,0 186,-19"/>
<text text-anchor="middle" x="162" y="-7" font-family="Helvetica,sans-Serif" font-size="10.00">stdlib.h</text>
</a>
</g>
</g>
<!-- Node4&#45;&gt;Node11 -->
<g id="edge14_Node000004_Node000011" class="edge">
<title>Node4&#45;&gt;Node11</title>
<g id="a_edge14_Node000004_Node000011"><a xlink:title=" ">
<path fill="none" stroke="#63b8ff" d="M165.39,-109.69C157.13,-101.41 145.8,-88.18 141,-74 135.72,-58.4 142.74,-40.59 150.05,-27.81"/>
<polygon fill="#63b8ff" stroke="#63b8ff" points="153.14,-29.47 155.49,-19.14 147.21,-25.75 153.14,-29.47"/>
</a>
</g>
</g>
<!-- Node12 -->
<g id="Node000012" class="node">
<title>Node12</title>
<g id="a_Node000012"><a xlink:title=" ">
<polygon fill="#e0e0e0" stroke="#999999" points="199.5,-74 150.5,-74 150.5,-55 199.5,-55 199.5,-74"/>
<text text-anchor="middle" x="175" y="-62" font-family="Helvetica,sans-Serif" font-size="10.00">stdint.h</text>
</a>
</g>
</g>
<!-- Node4&#45;&gt;Node12 -->
<g id="edge12_Node000004_Node000012" class="edge">
<title>Node4&#45;&gt;Node12</title>
<g id="a_edge12_Node000004_Node000012"><a xlink:title=" ">
<path fill="none" stroke="#63b8ff" d="M175,-109.75C175,-102.8 175,-92.85 175,-84.13"/>
<polygon fill="#63b8ff" stroke="#63b8ff" points="178.5,-84.09 175,-74.09 171.5,-84.09 178.5,-84.09"/>
</a>
</g>
</g>
<!-- Node13 -->
<g id="Node000013" class="node">
<title>Node13</title>
<g id="a_Node000013"><a xlink:title=" ">
<polygon fill="#e0e0e0" stroke="#999999" points="266.5,-74 217.5,-74 217.5,-55 266.5,-55 266.5,-74"/>
<text text-anchor="middle" x="242" y="-62" font-family="Helvetica,sans-Serif" font-size="10.00">string.h</text>
</a>
</g>
</g>
<!-- Node4&#45;&gt;Node13 -->
<g id="edge15_Node000004_Node000013" class="edge">
<title>Node4&#45;&gt;Node13</title>
<g id="a_edge15_Node000004_Node000013"><a xlink:title=" ">
<path fill="none" stroke="#63b8ff" d="M185.76,-109.98C195.77,-102.07 210.89,-90.11 222.93,-80.58"/>
<polygon fill="#63b8ff" stroke="#63b8ff" points="225.37,-83.12 231.04,-74.17 221.03,-77.63 225.37,-83.12"/>
</a>
</g>
</g>
<!-- Node6 -->
<g id="Node000006" class="node">
<title>Node6</title>
<g id="a_Node000006"><a xlink:title=" ">
<polygon fill="#e0e0e0" stroke="#999999" points="318,-19 204,-19 204,0 318,0 318,-19"/>
<text text-anchor="middle" x="261" y="-7" font-family="Helvetica,sans-Serif" font-size="10.00">../lib/cJSON/cJSON.h</text>
</a>
</g>
</g>
<!-- Node5&#45;&gt;Node6 -->
<g id="edge5_Node000005_Node000006" class="edge">
<title>Node5&#45;&gt;Node6</title>
<g id="a_edge5_Node000005_Node000006"><a xlink:title=" ">
<path fill="none" stroke="#63b8ff" d="M298.57,-54.75C292.15,-47.18 282.69,-36.05 274.88,-26.84"/>
<polygon fill="#63b8ff" stroke="#63b8ff" points="277.43,-24.45 268.29,-19.09 272.1,-28.98 277.43,-24.45"/>
</a>
</g>
</g>
<!-- Node7 -->
<g id="Node000007" class="node">
<title>Node7</title>
<g id="a_Node000007"><a xlink:title=" ">
<polygon fill="#e0e0e0" stroke="#999999" points="449.5,-19 336.5,-19 336.5,0 449.5,0 449.5,-19"/>
<text text-anchor="middle" x="393" y="-7" font-family="Helvetica,sans-Serif" font-size="10.00">../lib/dSFMT/dSFMT.h</text>
</a>
</g>
</g>
<!-- Node5&#45;&gt;Node7 -->
<g id="edge6_Node000005_Node000007" class="edge">
<title>Node5&#45;&gt;Node7</title>
<g id="a_edge6_Node000005_Node000007"><a xlink:title=" ">
<path fill="none" stroke="#63b8ff" d="M319.98,-54.98C333.47,-46.77 354.13,-34.18 370.04,-24.49"/>
<polygon fill="#63b8ff" stroke="#63b8ff" points="372.05,-27.36 378.77,-19.17 368.41,-21.38 372.05,-27.36"/>
</a>
</g>
</g>
<!-- Node8 -->
<g id="Node000008" class="node">
<title>Node8</title>
<g id="a_Node000008"><a xlink:title=" ">
<polygon fill="#e0e0e0" stroke="#999999" points="514.5,-19 467.5,-19 467.5,0 514.5,0 514.5,-19"/>
<text text-anchor="middle" x="491" y="-7" font-family="Helvetica,sans-Serif" font-size="10.00">math.h</text>
</a>
</g>
</g>
<!-- Node5&#45;&gt;Node8 -->
<g id="edge7_Node000005_Node000008" class="edge">
<title>Node5&#45;&gt;Node8</title>
<g id="a_edge7_Node000005_Node000008"><a xlink:title=" ">
<path fill="none" stroke="#63b8ff" d="M327.58,-57.32C359.47,-48.18 419.46,-31 457.21,-20.18"/>
<polygon fill="#63b8ff" stroke="#63b8ff" points="458.57,-23.43 467.22,-17.31 456.65,-16.7 458.57,-23.43"/>
</a>
</g>
</g>
<!-- Node5&#45;&gt;Node9 -->
<g id="edge8_Node000005_Node000009" class="edge">
<title>Node5&#45;&gt;Node9</title>
<g id="a_edge8_Node000005_Node000009"><a xlink:title=" ">
<path fill="none" stroke="#63b8ff" d="M284.39,-57.28C281.25,-56.47 278.05,-55.68 275,-55 185.63,-35.14 159.56,-37.43 66.12,-19.12"/>
<polygon fill="#63b8ff" stroke="#63b8ff" points="66.74,-15.68 56.25,-17.16 65.37,-22.54 66.74,-15.68"/>
</a>
</g>
</g>
<!-- Node5&#45;&gt;Node10 -->
<g id="edge9_Node000005_Node000010" class="edge">
<title>Node5&#45;&gt;Node10</title>
<g id="a_edge9_Node000005_Node000010"><a xlink:title=" ">
<path fill="none" stroke="#63b8ff" d="M284.34,-57.48C281.21,-56.64 278.02,-55.79 275,-55 213.36,-38.95 195.4,-35.85 130.06,-19.23"/>
<polygon fill="#63b8ff" stroke="#63b8ff" points="130.61,-15.76 120.06,-16.68 128.88,-22.54 130.61,-15.76"/>
</a>
</g>
</g>
<!-- Node5&#45;&gt;Node11 -->
<g id="edge10_Node000005_Node000011" class="edge">
<title>Node5&#45;&gt;Node11</title>
<g id="a_edge10_Node000005_Node000011"><a xlink:title=" ">
<path fill="none" stroke="#63b8ff" d="M284.44,-55.57C260.68,-46.82 222.2,-32.66 194.72,-22.54"/>
<polygon fill="#63b8ff" stroke="#63b8ff" points="195.73,-19.19 185.14,-19.02 193.31,-25.75 195.73,-19.19"/>
</a>
</g>
</g>
<!-- Node14&#45;&gt;Node5 -->
<g id="edge17_Node000014_Node000005" class="edge">
<title>Node14&#45;&gt;Node5</title>
<g id="a_edge17_Node000014_Node000005"><a xlink:title=" ">
<path fill="none" stroke="#63b8ff" d="M281.79,-109.75C285.76,-102.49 291.53,-91.95 296.43,-82.98"/>
<polygon fill="#63b8ff" stroke="#63b8ff" points="299.57,-84.54 301.3,-74.09 293.43,-81.18 299.57,-84.54"/>
</a>
</g>
</g>
<!-- Node15&#45;&gt;Node8 -->
<g id="edge19_Node000015_Node000008" class="edge">
<title>Node15&#45;&gt;Node8</title>
<g id="a_edge19_Node000015_Node000008"><a xlink:title=" ">
<path fill="none" stroke="#63b8ff" d="M456.94,-164.74C462.58,-139.2 479.09,-64.43 486.86,-29.23"/>
<polygon fill="#63b8ff" stroke="#63b8ff" points="490.32,-29.83 489.05,-19.31 483.48,-28.32 490.32,-29.83"/>
</a>
</g>
</g>
</g>
</svg>
