<?xml version="1.0" encoding="UTF-8" standalone="no"?>
<!DOCTYPE svg PUBLIC "-//W3C//DTD SVG 1.1//EN"
 "http://www.w3.org/Graphics/SVG/1.1/DTD/svg11.dtd">
<!-- Generated by graphviz version 2.43.0 (0)
 -->
<!-- Title: layer_output Pages: 1 -->
<svg width="514pt" height="180pt"
 viewBox="0.00 0.00 514.00 180.00" xmlns="http://www.w3.org/2000/svg" xmlns:xlink="http://www.w3.org/1999/xlink">
<g id="graph0" class="graph" transform="scale(1 1) rotate(0) translate(4 176)">
<title>layer_output</title>
<!-- Node1 -->
<g id="node1" class="node">
<title>Node1</title>
<g id="a_node1"><a xlink:title="Returns the outputs of a layer.">
<polygon fill="#bfbfbf" stroke="black" points="436,-95.5 436,-114.5 506,-114.5 506,-95.5 436,-95.5"/>
<text text-anchor="middle" x="471" y="-102.5" font-family="Helvetica,sans-Serif" font-size="10.00">layer_output</text>
</a>
</g>
</g>
<!-- Node2 -->
<g id="node2" class="node">
<title>Node2</title>
<g id="a_node2"><a xlink:href="neural_8h.html#aea148f8cb311a148672f4c598ee3bbe4" target="_top" xlink:title="Returns the output of a specified neuron in the output layer of a neural network.">
<polygon fill="none" stroke="black" points="317,-76.5 317,-95.5 392,-95.5 392,-76.5 317,-76.5"/>
<text text-anchor="middle" x="354.5" y="-83.5" font-family="Helvetica,sans-Serif" font-size="10.00">neural_output</text>
</a>
</g>
</g>
<!-- Node1&#45;&gt;Node2 -->
<g id="edge1" class="edge">
<title>Node1&#45;&gt;Node2</title>
<path fill="none" stroke="midnightblue" d="M425.92,-97.68C414.71,-95.83 402.79,-93.85 392.01,-92.06"/>
<polygon fill="midnightblue" stroke="midnightblue" points="425.52,-101.17 435.96,-99.35 426.66,-94.26 425.52,-101.17"/>
</g>
<!-- Node11 -->
<g id="node11" class="node">
<title>Node11</title>
<g id="a_node11"><a xlink:href="neural_8h.html#ab23124bb3b9a6ea9bdde67ce44bc3fea" target="_top" xlink:title="Forward propagates a neural network.">
<polygon fill="none" stroke="black" points="309,-114.5 309,-133.5 400,-133.5 400,-114.5 309,-114.5"/>
<text text-anchor="middle" x="354.5" y="-121.5" font-family="Helvetica,sans-Serif" font-size="10.00">neural_propagate</text>
</a>
</g>
</g>
<!-- Node1&#45;&gt;Node11 -->
<g id="edge11" class="edge">
<title>Node1&#45;&gt;Node11</title>
<path fill="none" stroke="midnightblue" d="M425.93,-112.31C417.51,-113.71 408.68,-115.18 400.24,-116.58"/>
<polygon fill="midnightblue" stroke="midnightblue" points="426.66,-115.74 435.96,-110.65 425.52,-108.83 426.66,-115.74"/>
</g>
<!-- Node3 -->
<g id="node3" class="node">
<title>Node3</title>
<g id="a_node3"><a xlink:href="act__neural_8h.html#a3f50549fbc1ea79c739ab5188babaf9f" target="_top" xlink:title=" ">
<polygon fill="none" stroke="black" points="158.5,-152.5 158.5,-171.5 262.5,-171.5 262.5,-152.5 158.5,-152.5"/>
<text text-anchor="middle" x="210.5" y="-159.5" font-family="Helvetica,sans-Serif" font-size="10.00">act_neural_compute</text>
</a>
</g>
</g>
<!-- Node2&#45;&gt;Node3 -->
<g id="edge2" class="edge">
<title>Node2&#45;&gt;Node3</title>
<path fill="none" stroke="midnightblue" d="M317.08,-100.05C314.27,-101.58 311.54,-103.23 309,-105 289.9,-118.29 292.76,-130.72 273,-143 266.83,-146.83 259.83,-149.95 252.82,-152.46"/>
<polygon fill="midnightblue" stroke="midnightblue" points="318.78,-103.11 326.21,-95.56 315.69,-96.83 318.78,-103.11"/>
</g>
<!-- Node5 -->
<g id="node5" class="node">
<title>Node5</title>
<g id="a_node5"><a xlink:href="cond__neural_8h.html#a63db91988474f7435885b515ac9b94c5" target="_top" xlink:title=" ">
<polygon fill="none" stroke="black" points="160,-114.5 160,-133.5 261,-133.5 261,-114.5 160,-114.5"/>
<text text-anchor="middle" x="210.5" y="-121.5" font-family="Helvetica,sans-Serif" font-size="10.00">cond_neural_match</text>
</a>
</g>
</g>
<!-- Node2&#45;&gt;Node5 -->
<g id="edge4" class="edge">
<title>Node2&#45;&gt;Node5</title>
<path fill="none" stroke="midnightblue" d="M308.01,-98.17C288.37,-103.43 265.73,-109.49 247.32,-114.41"/>
<polygon fill="midnightblue" stroke="midnightblue" points="308.91,-101.56 317.67,-95.59 307.1,-94.79 308.91,-101.56"/>
</g>
<!-- Node7 -->
<g id="node7" class="node">
<title>Node7</title>
<g id="a_node7"><a xlink:href="pred__neural_8h.html#ae0ca39fdd415939d8a9ed6704b251603" target="_top" xlink:title=" ">
<polygon fill="none" stroke="black" points="155.5,-76.5 155.5,-95.5 265.5,-95.5 265.5,-76.5 155.5,-76.5"/>
<text text-anchor="middle" x="210.5" y="-83.5" font-family="Helvetica,sans-Serif" font-size="10.00">pred_neural_compute</text>
</a>
</g>
</g>
<!-- Node2&#45;&gt;Node7 -->
<g id="edge6" class="edge">
<title>Node2&#45;&gt;Node7</title>
<path fill="none" stroke="midnightblue" d="M306.7,-86C293.56,-86 279.16,-86 265.62,-86"/>
<polygon fill="midnightblue" stroke="midnightblue" points="306.93,-89.5 316.93,-86 306.93,-82.5 306.93,-89.5"/>
</g>
<!-- Node8 -->
<g id="node8" class="node">
<title>Node8</title>
<g id="a_node8"><a xlink:href="rule__neural_8h.html#a5963528b8b286f84d5484e32dcd8dd20" target="_top" xlink:title=" ">
<polygon fill="none" stroke="black" points="148,-0.5 148,-19.5 273,-19.5 273,-0.5 148,-0.5"/>
<text text-anchor="middle" x="210.5" y="-7.5" font-family="Helvetica,sans-Serif" font-size="10.00">rule_neural_act_compute</text>
</a>
</g>
</g>
<!-- Node2&#45;&gt;Node8 -->
<g id="edge7" class="edge">
<title>Node2&#45;&gt;Node8</title>
<path fill="none" stroke="midnightblue" d="M334.64,-70.02C318.98,-57.42 295.68,-40.18 273,-29 265.48,-25.3 257.09,-22.13 248.98,-19.51"/>
<polygon fill="midnightblue" stroke="midnightblue" points="332.55,-72.83 342.5,-76.47 336.99,-67.42 332.55,-72.83"/>
</g>
<!-- Node10 -->
<g id="node10" class="node">
<title>Node10</title>
<g id="a_node10"><a xlink:href="rule__neural_8h.html#a09b06e1a07b8ae902197aa63013f86d8" target="_top" xlink:title=" ">
<polygon fill="none" stroke="black" points="149.5,-38.5 149.5,-57.5 271.5,-57.5 271.5,-38.5 149.5,-38.5"/>
<text text-anchor="middle" x="210.5" y="-45.5" font-family="Helvetica,sans-Serif" font-size="10.00">rule_neural_cond_match</text>
</a>
</g>
</g>
<!-- Node2&#45;&gt;Node10 -->
<g id="edge9" class="edge">
<title>Node2&#45;&gt;Node10</title>
<path fill="none" stroke="midnightblue" d="M308.01,-73.83C288.37,-68.57 265.73,-62.51 247.32,-57.59"/>
<polygon fill="midnightblue" stroke="midnightblue" points="307.1,-77.21 317.67,-76.41 308.91,-70.44 307.1,-77.21"/>
</g>
<!-- Node4 -->
<g id="node4" class="node">
<title>Node4</title>
<g id="a_node4"><a xlink:href="act__neural_8h.html#a66b7f4bdc1027594885d1c69fa37e637" target="_top" xlink:title=" ">
<polygon fill="none" stroke="black" points="10.5,-152.5 10.5,-171.5 101.5,-171.5 101.5,-152.5 10.5,-152.5"/>
<text text-anchor="middle" x="56" y="-159.5" font-family="Helvetica,sans-Serif" font-size="10.00">act_neural_cover</text>
</a>
</g>
</g>
<!-- Node3&#45;&gt;Node4 -->
<g id="edge3" class="edge">
<title>Node3&#45;&gt;Node4</title>
<path fill="none" stroke="midnightblue" d="M148.22,-162C132.67,-162 116.24,-162 101.68,-162"/>
<polygon fill="midnightblue" stroke="midnightblue" points="148.3,-165.5 158.3,-162 148.3,-158.5 148.3,-165.5"/>
</g>
<!-- Node6 -->
<g id="node6" class="node">
<title>Node6</title>
<g id="a_node6"><a xlink:href="cond__neural_8h.html#a35958d4c2caf52875985a925cd995ab0" target="_top" xlink:title=" ">
<polygon fill="none" stroke="black" points="7,-114.5 7,-133.5 105,-133.5 105,-114.5 7,-114.5"/>
<text text-anchor="middle" x="56" y="-121.5" font-family="Helvetica,sans-Serif" font-size="10.00">cond_neural_cover</text>
</a>
</g>
</g>
<!-- Node5&#45;&gt;Node6 -->
<g id="edge5" class="edge">
<title>Node5&#45;&gt;Node6</title>
<path fill="none" stroke="midnightblue" d="M149.91,-124C135.1,-124 119.41,-124 105.22,-124"/>
<polygon fill="midnightblue" stroke="midnightblue" points="149.99,-127.5 159.99,-124 149.99,-120.5 149.99,-127.5"/>
</g>
<!-- Node9 -->
<g id="node9" class="node">
<title>Node9</title>
<g id="a_node9"><a xlink:href="rule__neural_8h.html#aaaeb3d25bde2bde8dbb75ce15358a844" target="_top" xlink:title=" ">
<polygon fill="none" stroke="black" points="0,-19.5 0,-38.5 112,-38.5 112,-19.5 0,-19.5"/>
<text text-anchor="middle" x="56" y="-26.5" font-family="Helvetica,sans-Serif" font-size="10.00">rule_neural_act_cover</text>
</a>
</g>
</g>
<!-- Node8&#45;&gt;Node9 -->
<g id="edge8" class="edge">
<title>Node8&#45;&gt;Node9</title>
<path fill="none" stroke="midnightblue" d="M137.92,-18.92C129.35,-19.99 120.71,-21.06 112.42,-22.1"/>
<polygon fill="midnightblue" stroke="midnightblue" points="138.42,-22.38 147.91,-17.67 137.56,-15.44 138.42,-22.38"/>
</g>
<!-- Node10&#45;&gt;Node9 -->
<g id="edge10" class="edge">
<title>Node10&#45;&gt;Node9</title>
<path fill="none" stroke="midnightblue" d="M139.16,-39.24C130.17,-38.12 121.08,-36.98 112.37,-35.9"/>
<polygon fill="midnightblue" stroke="midnightblue" points="138.87,-42.73 149.23,-40.49 139.74,-35.78 138.87,-42.73"/>
</g>
<!-- Node11&#45;&gt;Node3 -->
<g id="edge12" class="edge">
<title>Node11&#45;&gt;Node3</title>
<path fill="none" stroke="midnightblue" d="M308.01,-136.17C288.37,-141.43 265.73,-147.49 247.32,-152.41"/>
<polygon fill="midnightblue" stroke="midnightblue" points="308.91,-139.56 317.67,-133.59 307.1,-132.79 308.91,-139.56"/>
</g>
<!-- Node11&#45;&gt;Node5 -->
<g id="edge13" class="edge">
<title>Node11&#45;&gt;Node5</title>
<path fill="none" stroke="midnightblue" d="M298.8,-124C286.47,-124 273.44,-124 261.32,-124"/>
<polygon fill="midnightblue" stroke="midnightblue" points="298.96,-127.5 308.96,-124 298.96,-120.5 298.96,-127.5"/>
</g>
<!-- Node11&#45;&gt;Node7 -->
<g id="edge14" class="edge">
<title>Node11&#45;&gt;Node7</title>
<path fill="none" stroke="midnightblue" d="M308.01,-111.83C288.37,-106.57 265.73,-100.51 247.32,-95.59"/>
<polygon fill="midnightblue" stroke="midnightblue" points="307.1,-115.21 317.67,-114.41 308.91,-108.44 307.1,-115.21"/>
</g>
<!-- Node11&#45;&gt;Node10 -->
<g id="edge15" class="edge">
<title>Node11&#45;&gt;Node10</title>
<path fill="none" stroke="midnightblue" d="M317.08,-109.95C314.27,-108.42 311.54,-106.77 309,-105 289.9,-91.71 292.76,-79.28 273,-67 266.83,-63.17 259.83,-60.05 252.82,-57.54"/>
<polygon fill="midnightblue" stroke="midnightblue" points="315.69,-113.17 326.21,-114.44 318.78,-106.89 315.69,-113.17"/>
</g>
</g>
</svg>
