<?xml version="1.0" encoding="UTF-8" standalone="no"?>
<!DOCTYPE svg PUBLIC "-//W3C//DTD SVG 1.1//EN"
 "http://www.w3.org/Graphics/SVG/1.1/DTD/svg11.dtd">
<!-- Generated by graphviz version 2.43.0 (0)
 -->
<!-- Title: neural_layer_convolutional_load Pages: 1 -->
<svg width="685pt" height="129pt"
 viewBox="0.00 0.00 685.00 129.00" xmlns="http://www.w3.org/2000/svg" xmlns:xlink="http://www.w3.org/1999/xlink">
<g id="graph0" class="graph" transform="scale(1 1) rotate(0) translate(4 125)">
<title>neural_layer_convolutional_load</title>
<!-- Node1 -->
<g id="Node000001" class="node">
<title>Node1</title>
<g id="a_Node000001"><a xlink:title="Reads a convolutional layer from a file.">
<polygon fill="#999999" stroke="#666666" points="155,-92 0,-92 0,-73 155,-73 155,-92"/>
<text text-anchor="middle" x="77.5" y="-80" font-family="Helvetica,sans-Serif" font-size="10.00">neural_layer_convolutional_load</text>
</a>
</g>
</g>
<!-- Node2 -->
<g id="Node000002" class="node">
<title>Node2</title>
<g id="a_Node000002"><a xlink:href="neural__layer__convolutional_8c.html#a6e3344e46eea0817b14f3568ef81ff97" target="_top" xlink:title="Allocate memory used by a convolutional layer.">
<polygon fill="white" stroke="#666666" points="295,-92 191,-92 191,-73 295,-73 295,-92"/>
<text text-anchor="middle" x="243" y="-80" font-family="Helvetica,sans-Serif" font-size="10.00">malloc_layer_arrays</text>
</a>
</g>
</g>
<!-- Node1&#45;&gt;Node2 -->
<g id="edge1_Node000001_Node000002" class="edge">
<title>Node1&#45;&gt;Node2</title>
<g id="a_edge1_Node000001_Node000002"><a xlink:title=" ">
<path fill="none" stroke="#63b8ff" d="M155.46,-82.5C163.85,-82.5 172.3,-82.5 180.47,-82.5"/>
<polygon fill="#63b8ff" stroke="#63b8ff" points="180.63,-86 190.63,-82.5 180.63,-79 180.63,-86"/>
</a>
</g>
</g>
<!-- Node3 -->
<g id="Node000003" class="node">
<title>Node3</title>
<g id="a_Node000003"><a xlink:href="neural__layer__convolutional_8c.html#a9613e3f3c10a68cc7b9d5e8f084b137c" target="_top" xlink:title="Returns the memory workspace size for a convolutional layer.">
<polygon fill="white" stroke="#666666" points="437,-121 331,-121 331,-102 437,-102 437,-121"/>
<text text-anchor="middle" x="384" y="-109" font-family="Helvetica,sans-Serif" font-size="10.00">get_workspace_size</text>
</a>
</g>
</g>
<!-- Node2&#45;&gt;Node3 -->
<g id="edge2_Node000002_Node000003" class="edge">
<title>Node2&#45;&gt;Node3</title>
<g id="a_edge2_Node000002_Node000003"><a xlink:title=" ">
<path fill="none" stroke="#63b8ff" d="M289.9,-92.08C301.88,-94.58 314.92,-97.3 327.35,-99.89"/>
<polygon fill="#63b8ff" stroke="#63b8ff" points="326.65,-103.32 337.15,-101.93 328.07,-96.47 326.65,-103.32"/>
</a>
</g>
</g>
<!-- Node5 -->
<g id="Node000005" class="node">
<title>Node5</title>
<g id="a_Node000005"><a xlink:href="neural__layer__convolutional_8c.html#adf18759f7155da7757db6805774dbc73" target="_top" xlink:title="Check memory allocation is within bounds.">
<polygon fill="white" stroke="#666666" points="421,-74 347,-74 347,-55 421,-55 421,-74"/>
<text text-anchor="middle" x="384" y="-62" font-family="Helvetica,sans-Serif" font-size="10.00">guard_malloc</text>
</a>
</g>
</g>
<!-- Node2&#45;&gt;Node5 -->
<g id="edge4_Node000002_Node000005" class="edge">
<title>Node2&#45;&gt;Node5</title>
<g id="a_edge4_Node000002_Node000005"><a xlink:title=" ">
<path fill="none" stroke="#63b8ff" d="M295.36,-75.85C308.79,-74.11 323.18,-72.25 336.35,-70.54"/>
<polygon fill="#63b8ff" stroke="#63b8ff" points="337.13,-73.97 346.6,-69.21 336.23,-67.03 337.13,-73.97"/>
</a>
</g>
</g>
<!-- Node4 -->
<g id="Node000004" class="node">
<title>Node4</title>
<g id="a_Node000004"><a xlink:href="neural__layer_8h.html#af3da4af94dd537080a072c07c66d955d" target="_top" xlink:title="Prints the layer.">
<polygon fill="white" stroke="#666666" points="677,-74 615,-74 615,-55 677,-55 677,-74"/>
<text text-anchor="middle" x="646" y="-62" font-family="Helvetica,sans-Serif" font-size="10.00">layer_print</text>
</a>
</g>
</g>
<!-- Node3&#45;&gt;Node4 -->
<g id="edge3_Node000003_Node000004" class="edge">
<title>Node3&#45;&gt;Node4</title>
<g id="a_edge3_Node000003_Node000004"><a xlink:title=" ">
<path fill="none" stroke="#63b8ff" d="M437.15,-115.66C476.84,-117.27 532.4,-116.12 579,-102.5 595.34,-97.72 611.94,-88.14 624.4,-79.79"/>
<polygon fill="#63b8ff" stroke="#63b8ff" points="626.48,-82.61 632.68,-74.02 622.48,-76.87 626.48,-82.61"/>
</a>
</g>
</g>
<!-- Node6 -->
<g id="Node000006" class="node">
<title>Node6</title>
<g id="a_Node000006"><a xlink:href="neural__layer_8c.html#a01a12854b9685f32f76429d615e90c50" target="_top" xlink:title="Check number of biases is within bounds.">
<polygon fill="white" stroke="#666666" points="576.5,-93 475.5,-93 475.5,-74 576.5,-74 576.5,-93"/>
<text text-anchor="middle" x="526" y="-81" font-family="Helvetica,sans-Serif" font-size="10.00">layer_guard_biases</text>
</a>
</g>
</g>
<!-- Node5&#45;&gt;Node6 -->
<g id="edge5_Node000005_Node000006" class="edge">
<title>Node5&#45;&gt;Node6</title>
<g id="a_edge5_Node000005_Node000006"><a xlink:title=" ">
<path fill="none" stroke="#63b8ff" d="M421.05,-69.39C434.48,-71.22 450.11,-73.34 465.11,-75.37"/>
<polygon fill="#63b8ff" stroke="#63b8ff" points="464.97,-78.89 475.35,-76.76 465.91,-71.95 464.97,-78.89"/>
</a>
</g>
</g>
<!-- Node7 -->
<g id="Node000007" class="node">
<title>Node7</title>
<g id="a_Node000007"><a xlink:href="neural__layer_8c.html#a99157f8bba089b8f6d617020cdc45d7b" target="_top" xlink:title="Check number of outputs is within bounds.">
<polygon fill="white" stroke="#666666" points="578,-56 474,-56 474,-37 578,-37 578,-56"/>
<text text-anchor="middle" x="526" y="-44" font-family="Helvetica,sans-Serif" font-size="10.00">layer_guard_outputs</text>
</a>
</g>
</g>
<!-- Node5&#45;&gt;Node7 -->
<g id="edge7_Node000005_Node000007" class="edge">
<title>Node5&#45;&gt;Node7</title>
<g id="a_edge7_Node000005_Node000007"><a xlink:title=" ">
<path fill="none" stroke="#63b8ff" d="M421.05,-59.86C434.09,-58.19 449.19,-56.25 463.78,-54.37"/>
<polygon fill="#63b8ff" stroke="#63b8ff" points="464.29,-57.83 473.77,-53.09 463.4,-50.89 464.29,-57.83"/>
</a>
</g>
</g>
<!-- Node8 -->
<g id="Node000008" class="node">
<title>Node8</title>
<g id="a_Node000008"><a xlink:href="neural__layer_8c.html#afb8c6762568c65726b62ee12c816fb2b" target="_top" xlink:title="Check number of weights is within bounds.">
<polygon fill="white" stroke="#666666" points="579,-19 473,-19 473,0 579,0 579,-19"/>
<text text-anchor="middle" x="526" y="-7" font-family="Helvetica,sans-Serif" font-size="10.00">layer_guard_weights</text>
</a>
</g>
</g>
<!-- Node5&#45;&gt;Node8 -->
<g id="edge9_Node000005_Node000008" class="edge">
<title>Node5&#45;&gt;Node8</title>
<g id="a_edge9_Node000005_Node000008"><a xlink:title=" ">
<path fill="none" stroke="#63b8ff" d="M406.54,-54.98C424.26,-47.27 450.09,-36.27 473,-27.5 477.45,-25.8 482.14,-24.07 486.81,-22.4"/>
<polygon fill="#63b8ff" stroke="#63b8ff" points="488,-25.69 496.27,-19.07 485.68,-19.09 488,-25.69"/>
</a>
</g>
</g>
<!-- Node6&#45;&gt;Node4 -->
<g id="edge6_Node000006_Node000004" class="edge">
<title>Node6&#45;&gt;Node4</title>
<g id="a_edge6_Node000006_Node000004"><a xlink:title=" ">
<path fill="none" stroke="#63b8ff" d="M576.7,-75.5C586.13,-73.98 595.88,-72.41 604.96,-70.95"/>
<polygon fill="#63b8ff" stroke="#63b8ff" points="605.56,-74.4 614.88,-69.35 604.45,-67.48 605.56,-74.4"/>
</a>
</g>
</g>
<!-- Node7&#45;&gt;Node4 -->
<g id="edge8_Node000007_Node000004" class="edge">
<title>Node7&#45;&gt;Node4</title>
<g id="a_edge8_Node000007_Node000004"><a xlink:title=" ">
<path fill="none" stroke="#63b8ff" d="M578.07,-54.29C587.02,-55.65 596.21,-57.06 604.81,-58.37"/>
<polygon fill="#63b8ff" stroke="#63b8ff" points="604.53,-61.87 614.94,-59.91 605.58,-54.95 604.53,-61.87"/>
</a>
</g>
</g>
<!-- Node8&#45;&gt;Node4 -->
<g id="edge10_Node000008_Node000004" class="edge">
<title>Node8&#45;&gt;Node4</title>
<g id="a_edge10_Node000008_Node000004"><a xlink:title=" ">
<path fill="none" stroke="#63b8ff" d="M557.6,-19.08C564.72,-21.58 572.2,-24.45 579,-27.5 593.32,-33.93 608.66,-42.42 620.94,-49.65"/>
<polygon fill="#63b8ff" stroke="#63b8ff" points="619.29,-52.74 629.67,-54.87 622.89,-46.74 619.29,-52.74"/>
</a>
</g>
</g>
</g>
</svg>
