<?xml version="1.0" encoding="UTF-8" standalone="no"?>
<!DOCTYPE svg PUBLIC "-//W3C//DTD SVG 1.1//EN"
 "http://www.w3.org/Graphics/SVG/1.1/DTD/svg11.dtd">
<!-- Generated by graphviz version 2.43.0 (0)
 -->
<!-- Title: neural.c Pages: 1 -->
<svg width="726pt" height="308pt"
 viewBox="0.00 0.00 725.85 308.00" xmlns="http://www.w3.org/2000/svg" xmlns:xlink="http://www.w3.org/1999/xlink">
<g id="graph0" class="graph" transform="scale(1 1) rotate(0) translate(4 304)">
<title>neural.c</title>
<!-- Node1 -->
<g id="node1" class="node">
<title>Node1</title>
<g id="a_node1"><a xlink:title="An implementation of a multi&#45;layer perceptron neural network.">
<polygon fill="#bfbfbf" stroke="black" points="347.5,-280.5 347.5,-299.5 398.5,-299.5 398.5,-280.5 347.5,-280.5"/>
<text text-anchor="middle" x="373" y="-287.5" font-family="Helvetica,sans-Serif" font-size="10.00">neural.c</text>
</a>
</g>
</g>
<!-- Node2 -->
<g id="node2" class="node">
<title>Node2</title>
<g id="a_node2"><a xlink:href="neural_8h.html" target="_top" xlink:title="An implementation of a multi&#45;layer perceptron neural network.">
<polygon fill="none" stroke="black" points="405.5,-112.5 405.5,-131.5 456.5,-131.5 456.5,-112.5 405.5,-112.5"/>
<text text-anchor="middle" x="431" y="-119.5" font-family="Helvetica,sans-Serif" font-size="10.00">neural.h</text>
</a>
</g>
</g>
<!-- Node1&#45;&gt;Node2 -->
<g id="edge1" class="edge">
<title>Node1&#45;&gt;Node2</title>
<path fill="none" stroke="midnightblue" d="M398.6,-289.63C469.21,-290.75 664.19,-289.59 704,-244 774.12,-163.7 555.43,-134.33 466.68,-125.88"/>
<polygon fill="midnightblue" stroke="midnightblue" points="466.8,-122.38 456.53,-124.95 466.17,-129.35 466.8,-122.38"/>
</g>
<!-- Node3 -->
<g id="node3" class="node">
<title>Node3</title>
<g id="a_node3"><a xlink:href="utils_8h.html" target="_top" xlink:title="Utility functions for random number handling, etc.">
<polygon fill="none" stroke="black" points="280.5,-56.5 280.5,-75.5 323.5,-75.5 323.5,-56.5 280.5,-56.5"/>
<text text-anchor="middle" x="302" y="-63.5" font-family="Helvetica,sans-Serif" font-size="10.00">utils.h</text>
</a>
</g>
</g>
<!-- Node1&#45;&gt;Node3 -->
<g id="edge27" class="edge">
<title>Node1&#45;&gt;Node3</title>
<path fill="none" stroke="midnightblue" d="M347.24,-287.61C270.16,-283.18 45.36,-268.29 24,-244 -55.24,-153.89 181.93,-92.63 270.27,-73.43"/>
<polygon fill="midnightblue" stroke="midnightblue" points="271.22,-76.8 280.27,-71.29 269.76,-69.96 271.22,-76.8"/>
</g>
<!-- Node12 -->
<g id="node12" class="node">
<title>Node12</title>
<g id="a_node12"><a xlink:href="neural__layer__connected_8h.html" target="_top" xlink:title="An implementation of a fully&#45;connected layer of perceptrons.">
<polygon fill="none" stroke="black" points="169,-224.5 169,-243.5 297,-243.5 297,-224.5 169,-224.5"/>
<text text-anchor="middle" x="233" y="-231.5" font-family="Helvetica,sans-Serif" font-size="10.00">neural_layer_connected.h</text>
</a>
</g>
</g>
<!-- Node1&#45;&gt;Node12 -->
<g id="edge14" class="edge">
<title>Node1&#45;&gt;Node12</title>
<path fill="none" stroke="midnightblue" d="M350.82,-280.44C327.57,-271.48 290.85,-257.31 264.58,-247.18"/>
<polygon fill="midnightblue" stroke="midnightblue" points="265.67,-243.85 255.08,-243.52 263.15,-250.38 265.67,-243.85"/>
</g>
<!-- Node15 -->
<g id="node15" class="node">
<title>Node15</title>
<g id="a_node15"><a xlink:href="neural__layer__dropout_8h.html" target="_top" xlink:title="An implementation of a dropout layer.">
<polygon fill="none" stroke="black" points="315.5,-224.5 315.5,-243.5 430.5,-243.5 430.5,-224.5 315.5,-224.5"/>
<text text-anchor="middle" x="373" y="-231.5" font-family="Helvetica,sans-Serif" font-size="10.00">neural_layer_dropout.h</text>
</a>
</g>
</g>
<!-- Node1&#45;&gt;Node15 -->
<g id="edge19" class="edge">
<title>Node1&#45;&gt;Node15</title>
<path fill="none" stroke="midnightblue" d="M373,-280.08C373,-273.01 373,-262.86 373,-253.99"/>
<polygon fill="midnightblue" stroke="midnightblue" points="376.5,-253.75 373,-243.75 369.5,-253.75 376.5,-253.75"/>
</g>
<!-- Node16 -->
<g id="node16" class="node">
<title>Node16</title>
<g id="a_node16"><a xlink:href="neural__layer__noise_8h.html" target="_top" xlink:title="An implementation of a Gaussian noise adding layer.">
<polygon fill="none" stroke="black" points="449,-224.5 449,-243.5 555,-243.5 555,-224.5 449,-224.5"/>
<text text-anchor="middle" x="502" y="-231.5" font-family="Helvetica,sans-Serif" font-size="10.00">neural_layer_noise.h</text>
</a>
</g>
</g>
<!-- Node1&#45;&gt;Node16 -->
<g id="edge21" class="edge">
<title>Node1&#45;&gt;Node16</title>
<path fill="none" stroke="midnightblue" d="M393.44,-280.44C414.67,-271.56 448.1,-257.56 472.25,-247.45"/>
<polygon fill="midnightblue" stroke="midnightblue" points="473.78,-250.61 481.66,-243.52 471.08,-244.15 473.78,-250.61"/>
</g>
<!-- Node17 -->
<g id="node17" class="node">
<title>Node17</title>
<g id="a_node17"><a xlink:href="neural__layer__recurrent_8h.html" target="_top" xlink:title="An implementation of a recurrent layer of perceptrons.">
<polygon fill="none" stroke="black" points="573.5,-224.5 573.5,-243.5 694.5,-243.5 694.5,-224.5 573.5,-224.5"/>
<text text-anchor="middle" x="634" y="-231.5" font-family="Helvetica,sans-Serif" font-size="10.00">neural_layer_recurrent.h</text>
</a>
</g>
</g>
<!-- Node1&#45;&gt;Node17 -->
<g id="edge23" class="edge">
<title>Node1&#45;&gt;Node17</title>
<path fill="none" stroke="midnightblue" d="M398.5,-283.72C441.01,-274.93 527.14,-257.11 582.62,-245.63"/>
<polygon fill="midnightblue" stroke="midnightblue" points="583.52,-249.02 592.61,-243.56 582.11,-242.16 583.52,-249.02"/>
</g>
<!-- Node18 -->
<g id="node18" class="node">
<title>Node18</title>
<g id="a_node18"><a xlink:href="neural__layer__softmax_8h.html" target="_top" xlink:title="An implementation of a softmax layer.">
<polygon fill="none" stroke="black" points="33,-224.5 33,-243.5 151,-243.5 151,-224.5 33,-224.5"/>
<text text-anchor="middle" x="92" y="-231.5" font-family="Helvetica,sans-Serif" font-size="10.00">neural_layer_softmax.h</text>
</a>
</g>
</g>
<!-- Node1&#45;&gt;Node18 -->
<g id="edge25" class="edge">
<title>Node1&#45;&gt;Node18</title>
<path fill="none" stroke="midnightblue" d="M347.07,-284.02C301.67,-275.29 206.87,-257.08 146.51,-245.47"/>
<polygon fill="midnightblue" stroke="midnightblue" points="146.87,-241.98 136.39,-243.53 145.55,-248.85 146.87,-241.98"/>
</g>
<!-- Node2&#45;&gt;Node3 -->
<g id="edge2" class="edge">
<title>Node2&#45;&gt;Node3</title>
<path fill="none" stroke="midnightblue" d="M410.56,-112.44C389.33,-103.56 355.9,-89.56 331.75,-79.45"/>
<polygon fill="midnightblue" stroke="midnightblue" points="332.92,-76.15 322.34,-75.52 330.22,-82.61 332.92,-76.15"/>
</g>
<!-- Node7 -->
<g id="node7" class="node">
<title>Node7</title>
<g id="a_node7"><a xlink:title=" ">
<polygon fill="none" stroke="#bfbfbf" points="497,-0.5 497,-19.5 553,-19.5 553,-0.5 497,-0.5"/>
<text text-anchor="middle" x="525" y="-7.5" font-family="Helvetica,sans-Serif" font-size="10.00">stdbool.h</text>
</a>
</g>
</g>
<!-- Node2&#45;&gt;Node7 -->
<g id="edge9" class="edge">
<title>Node2&#45;&gt;Node7</title>
<path fill="none" stroke="midnightblue" d="M456.76,-118.85C483.65,-115.07 524.56,-104.66 544,-76 553.76,-61.61 545.9,-42.16 537.53,-28.29"/>
<polygon fill="midnightblue" stroke="midnightblue" points="540.29,-26.12 531.86,-19.71 534.45,-29.99 540.29,-26.12"/>
</g>
<!-- Node8 -->
<g id="node8" class="node">
<title>Node8</title>
<g id="a_node8"><a xlink:title=" ">
<polygon fill="none" stroke="#bfbfbf" points="329,-0.5 329,-19.5 375,-19.5 375,-0.5 329,-0.5"/>
<text text-anchor="middle" x="352" y="-7.5" font-family="Helvetica,sans-Serif" font-size="10.00">stdio.h</text>
</a>
</g>
</g>
<!-- Node2&#45;&gt;Node8 -->
<g id="edge11" class="edge">
<title>Node2&#45;&gt;Node8</title>
<path fill="none" stroke="midnightblue" d="M424.8,-112.37C411.76,-94.22 381.3,-51.8 364.2,-27.99"/>
<polygon fill="midnightblue" stroke="midnightblue" points="366.85,-25.67 358.17,-19.59 361.16,-29.76 366.85,-25.67"/>
</g>
<!-- Node9 -->
<g id="node9" class="node">
<title>Node9</title>
<g id="a_node9"><a xlink:title=" ">
<polygon fill="none" stroke="#bfbfbf" points="393,-0.5 393,-19.5 441,-19.5 441,-0.5 393,-0.5"/>
<text text-anchor="middle" x="417" y="-7.5" font-family="Helvetica,sans-Serif" font-size="10.00">stdlib.h</text>
</a>
</g>
</g>
<!-- Node2&#45;&gt;Node9 -->
<g id="edge12" class="edge">
<title>Node2&#45;&gt;Node9</title>
<path fill="none" stroke="midnightblue" d="M425.62,-112.44C420.44,-103.68 412.99,-89.47 410,-76 406.54,-60.42 409,-42.34 411.91,-29.21"/>
<polygon fill="midnightblue" stroke="midnightblue" points="415.3,-30.06 414.35,-19.51 408.52,-28.36 415.3,-30.06"/>
</g>
<!-- Node10 -->
<g id="node10" class="node">
<title>Node10</title>
<g id="a_node10"><a xlink:title=" ">
<polygon fill="none" stroke="#bfbfbf" points="418.5,-56.5 418.5,-75.5 467.5,-75.5 467.5,-56.5 418.5,-56.5"/>
<text text-anchor="middle" x="443" y="-63.5" font-family="Helvetica,sans-Serif" font-size="10.00">stdint.h</text>
</a>
</g>
</g>
<!-- Node2&#45;&gt;Node10 -->
<g id="edge10" class="edge">
<title>Node2&#45;&gt;Node10</title>
<path fill="none" stroke="midnightblue" d="M432.98,-112.08C434.57,-104.93 436.86,-94.64 438.85,-85.69"/>
<polygon fill="midnightblue" stroke="midnightblue" points="442.3,-86.27 441.06,-75.75 435.47,-84.75 442.3,-86.27"/>
</g>
<!-- Node11 -->
<g id="node11" class="node">
<title>Node11</title>
<g id="a_node11"><a xlink:title=" ">
<polygon fill="none" stroke="#bfbfbf" points="485.5,-56.5 485.5,-75.5 534.5,-75.5 534.5,-56.5 485.5,-56.5"/>
<text text-anchor="middle" x="510" y="-63.5" font-family="Helvetica,sans-Serif" font-size="10.00">string.h</text>
</a>
</g>
</g>
<!-- Node2&#45;&gt;Node11 -->
<g id="edge13" class="edge">
<title>Node2&#45;&gt;Node11</title>
<path fill="none" stroke="midnightblue" d="M443.69,-112.32C455.9,-103.98 474.58,-91.21 489,-81.35"/>
<polygon fill="midnightblue" stroke="midnightblue" points="491.06,-84.19 497.34,-75.65 487.11,-78.41 491.06,-84.19"/>
</g>
<!-- Node4 -->
<g id="node4" class="node">
<title>Node4</title>
<g id="a_node4"><a xlink:title=" ">
<polygon fill="none" stroke="#bfbfbf" points="0,-0.5 0,-19.5 114,-19.5 114,-0.5 0,-0.5"/>
<text text-anchor="middle" x="57" y="-7.5" font-family="Helvetica,sans-Serif" font-size="10.00">../lib/cJSON/cJSON.h</text>
</a>
</g>
</g>
<!-- Node3&#45;&gt;Node4 -->
<g id="edge3" class="edge">
<title>Node3&#45;&gt;Node4</title>
<path fill="none" stroke="midnightblue" d="M280.26,-60.21C241.31,-51.62 158.77,-33.43 105.69,-21.73"/>
<polygon fill="midnightblue" stroke="midnightblue" points="106.34,-18.29 95.82,-19.56 104.83,-25.13 106.34,-18.29"/>
</g>
<!-- Node5 -->
<g id="node5" class="node">
<title>Node5</title>
<g id="a_node5"><a xlink:title=" ">
<polygon fill="none" stroke="#bfbfbf" points="132.5,-0.5 132.5,-19.5 245.5,-19.5 245.5,-0.5 132.5,-0.5"/>
<text text-anchor="middle" x="189" y="-7.5" font-family="Helvetica,sans-Serif" font-size="10.00">../lib/dSFMT/dSFMT.h</text>
</a>
</g>
</g>
<!-- Node3&#45;&gt;Node5 -->
<g id="edge4" class="edge">
<title>Node3&#45;&gt;Node5</title>
<path fill="none" stroke="midnightblue" d="M284.09,-56.44C265.75,-47.68 236.99,-33.94 215.91,-23.86"/>
<polygon fill="midnightblue" stroke="midnightblue" points="217.35,-20.67 206.82,-19.52 214.33,-26.99 217.35,-20.67"/>
</g>
<!-- Node6 -->
<g id="node6" class="node">
<title>Node6</title>
<g id="a_node6"><a xlink:title=" ">
<polygon fill="none" stroke="#bfbfbf" points="263.5,-0.5 263.5,-19.5 310.5,-19.5 310.5,-0.5 263.5,-0.5"/>
<text text-anchor="middle" x="287" y="-7.5" font-family="Helvetica,sans-Serif" font-size="10.00">math.h</text>
</a>
</g>
</g>
<!-- Node3&#45;&gt;Node6 -->
<g id="edge5" class="edge">
<title>Node3&#45;&gt;Node6</title>
<path fill="none" stroke="midnightblue" d="M299.52,-56.08C297.51,-48.85 294.61,-38.41 292.11,-29.4"/>
<polygon fill="midnightblue" stroke="midnightblue" points="295.48,-28.45 289.43,-19.75 288.74,-30.32 295.48,-28.45"/>
</g>
<!-- Node3&#45;&gt;Node7 -->
<g id="edge6" class="edge">
<title>Node3&#45;&gt;Node7</title>
<path fill="none" stroke="midnightblue" d="M323.79,-59.72C361.67,-50.55 440.1,-31.56 487.07,-20.18"/>
<polygon fill="midnightblue" stroke="midnightblue" points="487.98,-23.57 496.88,-17.81 486.33,-16.76 487.98,-23.57"/>
</g>
<!-- Node3&#45;&gt;Node8 -->
<g id="edge7" class="edge">
<title>Node3&#45;&gt;Node8</title>
<path fill="none" stroke="midnightblue" d="M310.26,-56.08C317.46,-48.3 328.11,-36.8 336.85,-27.37"/>
<polygon fill="midnightblue" stroke="midnightblue" points="339.67,-29.47 343.9,-19.75 334.53,-24.71 339.67,-29.47"/>
</g>
<!-- Node3&#45;&gt;Node9 -->
<g id="edge8" class="edge">
<title>Node3&#45;&gt;Node9</title>
<path fill="none" stroke="midnightblue" d="M320.22,-56.44C338.9,-47.68 368.16,-33.94 389.62,-23.86"/>
<polygon fill="midnightblue" stroke="midnightblue" points="391.3,-26.93 398.86,-19.52 388.32,-20.6 391.3,-26.93"/>
</g>
<!-- Node13 -->
<g id="node13" class="node">
<title>Node13</title>
<g id="a_node13"><a xlink:href="neural__layer_8h.html" target="_top" xlink:title="Interface for neural network layers.">
<polygon fill="none" stroke="black" points="334.5,-168.5 334.5,-187.5 411.5,-187.5 411.5,-168.5 334.5,-168.5"/>
<text text-anchor="middle" x="373" y="-175.5" font-family="Helvetica,sans-Serif" font-size="10.00">neural_layer.h</text>
</a>
</g>
</g>
<!-- Node12&#45;&gt;Node13 -->
<g id="edge15" class="edge">
<title>Node12&#45;&gt;Node13</title>
<path fill="none" stroke="midnightblue" d="M255.18,-224.44C278.43,-215.48 315.15,-201.31 341.42,-191.18"/>
<polygon fill="midnightblue" stroke="midnightblue" points="342.85,-194.38 350.92,-187.52 340.33,-187.85 342.85,-194.38"/>
</g>
<!-- Node13&#45;&gt;Node2 -->
<g id="edge16" class="edge">
<title>Node13&#45;&gt;Node2</title>
<path fill="none" stroke="midnightblue" d="M382.32,-168.32C390.89,-160.34 403.81,-148.31 414.19,-138.65"/>
<polygon fill="midnightblue" stroke="midnightblue" points="416.58,-141.21 421.51,-131.83 411.81,-136.09 416.58,-141.21"/>
</g>
<!-- Node14 -->
<g id="node14" class="node">
<title>Node14</title>
<g id="a_node14"><a xlink:href="neural__layer__args_8h.html" target="_top" xlink:title="Functions operating on neural network arguments/constants.">
<polygon fill="none" stroke="black" points="263.5,-112.5 263.5,-131.5 364.5,-131.5 364.5,-112.5 263.5,-112.5"/>
<text text-anchor="middle" x="314" y="-119.5" font-family="Helvetica,sans-Serif" font-size="10.00">neural_layer_args.h</text>
</a>
</g>
</g>
<!-- Node13&#45;&gt;Node14 -->
<g id="edge17" class="edge">
<title>Node13&#45;&gt;Node14</title>
<path fill="none" stroke="midnightblue" d="M363.52,-168.32C354.8,-160.34 341.66,-148.31 331.1,-138.65"/>
<polygon fill="midnightblue" stroke="midnightblue" points="333.39,-136 323.65,-131.83 328.67,-141.17 333.39,-136"/>
</g>
<!-- Node14&#45;&gt;Node3 -->
<g id="edge18" class="edge">
<title>Node14&#45;&gt;Node3</title>
<path fill="none" stroke="midnightblue" d="M312.02,-112.08C310.43,-104.93 308.14,-94.64 306.15,-85.69"/>
<polygon fill="midnightblue" stroke="midnightblue" points="309.53,-84.75 303.94,-75.75 302.7,-86.27 309.53,-84.75"/>
</g>
<!-- Node15&#45;&gt;Node13 -->
<g id="edge20" class="edge">
<title>Node15&#45;&gt;Node13</title>
<path fill="none" stroke="midnightblue" d="M373,-224.08C373,-217.01 373,-206.86 373,-197.99"/>
<polygon fill="midnightblue" stroke="midnightblue" points="376.5,-197.75 373,-187.75 369.5,-197.75 376.5,-197.75"/>
</g>
<!-- Node16&#45;&gt;Node13 -->
<g id="edge22" class="edge">
<title>Node16&#45;&gt;Node13</title>
<path fill="none" stroke="midnightblue" d="M481.56,-224.44C460.33,-215.56 426.9,-201.56 402.75,-191.45"/>
<polygon fill="midnightblue" stroke="midnightblue" points="403.92,-188.15 393.34,-187.52 401.22,-194.61 403.92,-188.15"/>
</g>
<!-- Node17&#45;&gt;Node13 -->
<g id="edge24" class="edge">
<title>Node17&#45;&gt;Node13</title>
<path fill="none" stroke="midnightblue" d="M592.64,-224.44C546.21,-214.84 470.94,-199.26 421.7,-189.08"/>
<polygon fill="midnightblue" stroke="midnightblue" points="422.11,-185.59 411.61,-186.99 420.69,-192.44 422.11,-185.59"/>
</g>
<!-- Node18&#45;&gt;Node13 -->
<g id="edge26" class="edge">
<title>Node18&#45;&gt;Node13</title>
<path fill="none" stroke="midnightblue" d="M136.53,-224.44C187.7,-214.61 271.42,-198.52 324.29,-188.36"/>
<polygon fill="midnightblue" stroke="midnightblue" points="324.95,-191.8 334.11,-186.47 323.63,-184.92 324.95,-191.8"/>
</g>
</g>
</svg>
