<?xml version="1.0" encoding="UTF-8" standalone="no"?>
<!DOCTYPE svg PUBLIC "-//W3C//DTD SVG 1.1//EN"
 "http://www.w3.org/Graphics/SVG/1.1/DTD/svg11.dtd">
<!-- Generated by graphviz version 2.43.0 (0)
 -->
<!-- Title: neural_layer_upsample.h Pages: 1 -->
<svg width="529pt" height="84pt"
 viewBox="0.00 0.00 528.50 84.00" xmlns="http://www.w3.org/2000/svg" xmlns:xlink="http://www.w3.org/1999/xlink">
<g id="graph0" class="graph" transform="scale(1 1) rotate(0) translate(4 80)">
<title>neural_layer_upsample.h</title>
<!-- Node1 -->
<g id="node1" class="node">
<title>Node1</title>
<g id="a_node1"><a xlink:title="An implementation of a 2D upsampling layer.">
<polygon fill="#bfbfbf" stroke="black" points="171.5,-56.5 171.5,-75.5 296.5,-75.5 296.5,-56.5 171.5,-56.5"/>
<text text-anchor="middle" x="234" y="-63.5" font-family="Helvetica,sans-Serif" font-size="10.00">neural_layer_upsample.h</text>
</a>
</g>
</g>
<!-- Node2 -->
<g id="node2" class="node">
<title>Node2</title>
<g id="a_node2"><a xlink:href="act__neural_8c.html" target="_top" xlink:title="Neural network action functions.">
<polygon fill="none" stroke="black" points="0,-0.5 0,-19.5 70,-19.5 70,-0.5 0,-0.5"/>
<text text-anchor="middle" x="35" y="-7.5" font-family="Helvetica,sans-Serif" font-size="10.00">act_neural.c</text>
</a>
</g>
</g>
<!-- Node1&#45;&gt;Node2 -->
<g id="edge1" class="edge">
<title>Node1&#45;&gt;Node2</title>
<path fill="none" stroke="midnightblue" d="M192.35,-53.7C154.79,-43.51 100.39,-28.74 66.38,-19.52"/>
<polygon fill="midnightblue" stroke="midnightblue" points="191.9,-57.2 202.47,-56.44 193.73,-50.45 191.9,-57.2"/>
</g>
<!-- Node3 -->
<g id="node3" class="node">
<title>Node3</title>
<g id="a_node3"><a xlink:href="neural__layer_8c.html" target="_top" xlink:title="Interface for neural network layers.">
<polygon fill="none" stroke="black" points="88.5,-0.5 88.5,-19.5 165.5,-19.5 165.5,-0.5 88.5,-0.5"/>
<text text-anchor="middle" x="127" y="-7.5" font-family="Helvetica,sans-Serif" font-size="10.00">neural_layer.c</text>
</a>
</g>
</g>
<!-- Node1&#45;&gt;Node3 -->
<g id="edge2" class="edge">
<title>Node1&#45;&gt;Node3</title>
<path fill="none" stroke="midnightblue" d="M207.7,-51.73C187.89,-41.73 161.29,-28.31 144.15,-19.65"/>
<polygon fill="midnightblue" stroke="midnightblue" points="206.3,-54.94 216.81,-56.32 209.46,-48.69 206.3,-54.94"/>
</g>
<!-- Node4 -->
<g id="node4" class="node">
<title>Node4</title>
<g id="a_node4"><a xlink:href="neural__layer__args_8c.html" target="_top" xlink:title="Functions operating on neural network arguments/constants.">
<polygon fill="none" stroke="black" points="183.5,-0.5 183.5,-19.5 284.5,-19.5 284.5,-0.5 183.5,-0.5"/>
<text text-anchor="middle" x="234" y="-7.5" font-family="Helvetica,sans-Serif" font-size="10.00">neural_layer_args.c</text>
</a>
</g>
</g>
<!-- Node1&#45;&gt;Node4 -->
<g id="edge3" class="edge">
<title>Node1&#45;&gt;Node4</title>
<path fill="none" stroke="midnightblue" d="M234,-45.8C234,-36.91 234,-26.78 234,-19.75"/>
<polygon fill="midnightblue" stroke="midnightblue" points="230.5,-46.08 234,-56.08 237.5,-46.08 230.5,-46.08"/>
</g>
<!-- Node5 -->
<g id="node5" class="node">
<title>Node5</title>
<g id="a_node5"><a xlink:href="neural__layer__upsample_8c.html" target="_top" xlink:title="An implementation of a 2D upsampling layer.">
<polygon fill="none" stroke="black" points="302.5,-0.5 302.5,-19.5 427.5,-19.5 427.5,-0.5 302.5,-0.5"/>
<text text-anchor="middle" x="365" y="-7.5" font-family="Helvetica,sans-Serif" font-size="10.00">neural_layer_upsample.c</text>
</a>
</g>
</g>
<!-- Node1&#45;&gt;Node5 -->
<g id="edge4" class="edge">
<title>Node1&#45;&gt;Node5</title>
<path fill="none" stroke="midnightblue" d="M264.32,-52.5C288.88,-42.38 322.82,-28.39 344.34,-19.52"/>
<polygon fill="midnightblue" stroke="midnightblue" points="262.67,-49.4 254.76,-56.44 265.34,-55.87 262.67,-49.4"/>
</g>
<!-- Node6 -->
<g id="node6" class="node">
<title>Node6</title>
<g id="a_node6"><a xlink:href="pred__neural_8c.html" target="_top" xlink:title="Multi&#45;layer perceptron neural network prediction functions.">
<polygon fill="none" stroke="black" points="445.5,-0.5 445.5,-19.5 520.5,-19.5 520.5,-0.5 445.5,-0.5"/>
<text text-anchor="middle" x="483" y="-7.5" font-family="Helvetica,sans-Serif" font-size="10.00">pred_neural.c</text>
</a>
</g>
</g>
<!-- Node1&#45;&gt;Node6 -->
<g id="edge5" class="edge">
<title>Node1&#45;&gt;Node6</title>
<path fill="none" stroke="midnightblue" d="M283.25,-54.32C330.9,-43.99 402.08,-28.55 445.36,-19.16"/>
<polygon fill="midnightblue" stroke="midnightblue" points="282.49,-50.9 273.45,-56.44 283.97,-57.74 282.49,-50.9"/>
</g>
</g>
</svg>
