<?xml version="1.0" encoding="UTF-8" standalone="no"?>
<!DOCTYPE svg PUBLIC "-//W3C//DTD SVG 1.1//EN"
 "http://www.w3.org/Graphics/SVG/1.1/DTD/svg11.dtd">
<!-- Generated by graphviz version 2.43.0 (0)
 -->
<!-- Title: neural_layer_maxpool.h Pages: 1 -->
<svg width="618pt" height="82pt"
 viewBox="0.00 0.00 617.50 82.00" xmlns="http://www.w3.org/2000/svg" xmlns:xlink="http://www.w3.org/1999/xlink">
<g id="graph0" class="graph" transform="scale(1 1) rotate(0) translate(4 78)">
<title>neural_layer_maxpool.h</title>
<!-- Node1 -->
<g id="Node000001" class="node">
<title>Node1</title>
<g id="a_Node000001"><a xlink:title="An implementation of a 2D maxpooling layer.">
<polygon fill="#999999" stroke="#666666" points="334.5,-74 215.5,-74 215.5,-55 334.5,-55 334.5,-74"/>
<text text-anchor="middle" x="275" y="-62" font-family="Helvetica,sans-Serif" font-size="10.00">neural_layer_maxpool.h</text>
</a>
</g>
</g>
<!-- Node2 -->
<g id="Node000002" class="node">
<title>Node2</title>
<g id="a_Node000002"><a xlink:href="act__neural_8c.html" target="_top" xlink:title="Neural network action functions.">
<polygon fill="white" stroke="#666666" points="70,-19 0,-19 0,0 70,0 70,-19"/>
<text text-anchor="middle" x="35" y="-7" font-family="Helvetica,sans-Serif" font-size="10.00">act_neural.c</text>
</a>
</g>
</g>
<!-- Node1&#45;&gt;Node2 -->
<g id="edge1_Node000001_Node000002" class="edge">
<title>Node1&#45;&gt;Node2</title>
<g id="a_edge1_Node000001_Node000002"><a xlink:title=" ">
<path fill="none" stroke="#63b8ff" d="M226.64,-52.82C180.37,-42.6 111.68,-27.43 70.34,-18.3"/>
<polygon fill="#63b8ff" stroke="#63b8ff" points="225.92,-56.25 236.44,-54.98 227.43,-49.41 225.92,-56.25"/>
</a>
</g>
</g>
<!-- Node3 -->
<g id="Node000003" class="node">
<title>Node3</title>
<g id="a_Node000003"><a xlink:href="cond__neural_8c.html" target="_top" xlink:title="Multi&#45;layer perceptron neural network condition functions.">
<polygon fill="white" stroke="#666666" points="165.5,-19 88.5,-19 88.5,0 165.5,0 165.5,-19"/>
<text text-anchor="middle" x="127" y="-7" font-family="Helvetica,sans-Serif" font-size="10.00">cond_neural.c</text>
</a>
</g>
</g>
<!-- Node1&#45;&gt;Node3 -->
<g id="edge2_Node000001_Node000003" class="edge">
<title>Node1&#45;&gt;Node3</title>
<g id="a_edge2_Node000001_Node000003"><a xlink:title=" ">
<path fill="none" stroke="#63b8ff" d="M241.63,-51.55C214.15,-41.71 175.83,-27.98 151.21,-19.17"/>
<polygon fill="#63b8ff" stroke="#63b8ff" points="240.63,-54.91 251.22,-54.98 242.99,-48.32 240.63,-54.91"/>
</a>
</g>
</g>
<!-- Node4 -->
<g id="Node000004" class="node">
<title>Node4</title>
<g id="a_Node000004"><a xlink:href="neural__layer_8c.html" target="_top" xlink:title="Interface for neural network layers.">
<polygon fill="white" stroke="#666666" points="260.5,-19 183.5,-19 183.5,0 260.5,0 260.5,-19"/>
<text text-anchor="middle" x="222" y="-7" font-family="Helvetica,sans-Serif" font-size="10.00">neural_layer.c</text>
</a>
</g>
</g>
<!-- Node1&#45;&gt;Node4 -->
<g id="edge3_Node000001_Node000004" class="edge">
<title>Node1&#45;&gt;Node4</title>
<g id="a_edge3_Node000001_Node000004"><a xlink:title=" ">
<path fill="none" stroke="#63b8ff" d="M259.02,-47.52C249.68,-38.18 238.25,-26.75 230.59,-19.09"/>
<polygon fill="#63b8ff" stroke="#63b8ff" points="256.7,-50.15 266.25,-54.75 261.65,-45.2 256.7,-50.15"/>
</a>
</g>
</g>
<!-- Node5 -->
<g id="Node000005" class="node">
<title>Node5</title>
<g id="a_Node000005"><a xlink:href="neural__layer__args_8c.html" target="_top" xlink:title="Functions operating on neural network arguments/constants.">
<polygon fill="white" stroke="#666666" points="379.5,-19 278.5,-19 278.5,0 379.5,0 379.5,-19"/>
<text text-anchor="middle" x="329" y="-7" font-family="Helvetica,sans-Serif" font-size="10.00">neural_layer_args.c</text>
</a>
</g>
</g>
<!-- Node1&#45;&gt;Node5 -->
<g id="edge4_Node000001_Node000005" class="edge">
<title>Node1&#45;&gt;Node5</title>
<g id="a_edge4_Node000001_Node000005"><a xlink:title=" ">
<path fill="none" stroke="#63b8ff" d="M291.28,-47.52C300.8,-38.18 312.44,-26.75 320.25,-19.09"/>
<polygon fill="#63b8ff" stroke="#63b8ff" points="288.6,-45.25 283.92,-54.75 293.51,-50.24 288.6,-45.25"/>
</a>
</g>
</g>
<!-- Node6 -->
<g id="Node000006" class="node">
<title>Node6</title>
<g id="a_Node000006"><a xlink:href="neural__layer__maxpool_8c.html" target="_top" xlink:title="An implementation of a 2D maxpooling layer.">
<polygon fill="white" stroke="#666666" points="516.5,-19 397.5,-19 397.5,0 516.5,0 516.5,-19"/>
<text text-anchor="middle" x="457" y="-7" font-family="Helvetica,sans-Serif" font-size="10.00">neural_layer_maxpool.c</text>
</a>
</g>
</g>
<!-- Node1&#45;&gt;Node6 -->
<g id="edge5_Node000001_Node000006" class="edge">
<title>Node1&#45;&gt;Node6</title>
<g id="a_edge5_Node000001_Node000006"><a xlink:title=" ">
<path fill="none" stroke="#63b8ff" d="M313.86,-52.18C347.9,-42.27 396.62,-28.08 427.53,-19.08"/>
<polygon fill="#63b8ff" stroke="#63b8ff" points="312.86,-48.83 304.24,-54.98 314.82,-55.55 312.86,-48.83"/>
</a>
</g>
</g>
<!-- Node7 -->
<g id="Node000007" class="node">
<title>Node7</title>
<g id="a_Node000007"><a xlink:href="pred__neural_8c.html" target="_top" xlink:title="Multi&#45;layer perceptron neural network prediction functions.">
<polygon fill="white" stroke="#666666" points="609.5,-19 534.5,-19 534.5,0 609.5,0 609.5,-19"/>
<text text-anchor="middle" x="572" y="-7" font-family="Helvetica,sans-Serif" font-size="10.00">pred_neural.c</text>
</a>
</g>
</g>
<!-- Node1&#45;&gt;Node7 -->
<g id="edge6_Node000001_Node000007" class="edge">
<title>Node1&#45;&gt;Node7</title>
<g id="a_edge6_Node000001_Node000007"><a xlink:title=" ">
<path fill="none" stroke="#63b8ff" d="M333.76,-53.21C384.64,-44.26 460.2,-30.91 526,-19 528.72,-18.51 531.52,-18 534.35,-17.48"/>
<polygon fill="#63b8ff" stroke="#63b8ff" points="332.85,-49.81 323.61,-54.99 334.06,-56.71 332.85,-49.81"/>
</a>
</g>
</g>
</g>
</svg>
