<?xml version="1.0" encoding="UTF-8" standalone="no"?>
<!DOCTYPE svg PUBLIC "-//W3C//DTD SVG 1.1//EN"
 "http://www.w3.org/Graphics/SVG/1.1/DTD/svg11.dtd">
<!-- Generated by graphviz version 2.43.0 (0)
 -->
<!-- Title: neural_activations.h Pages: 1 -->
<svg width="2299pt" height="137pt"
 viewBox="0.00 0.00 2299.00 137.00" xmlns="http://www.w3.org/2000/svg" xmlns:xlink="http://www.w3.org/1999/xlink">
<g id="graph0" class="graph" transform="scale(1 1) rotate(0) translate(4 133)">
<title>neural_activations.h</title>
<!-- Node1 -->
<g id="Node000001" class="node">
<title>Node1</title>
<g id="a_Node000001"><a xlink:title="Neural network activation functions.">
<polygon fill="#999999" stroke="#666666" points="1027,-129 923,-129 923,-110 1027,-110 1027,-129"/>
<text text-anchor="middle" x="975" y="-117" font-family="Helvetica,sans-Serif" font-size="10.00">neural_activations.h</text>
</a>
</g>
</g>
<!-- Node2 -->
<g id="Node000002" class="node">
<title>Node2</title>
<g id="a_Node000002"><a xlink:href="act__neural_8c.html" target="_top" xlink:title="Neural network action functions.">
<polygon fill="white" stroke="#666666" points="70,-19 0,-19 0,0 70,0 70,-19"/>
<text text-anchor="middle" x="35" y="-7" font-family="Helvetica,sans-Serif" font-size="10.00">act_neural.c</text>
</a>
</g>
</g>
<!-- Node1&#45;&gt;Node2 -->
<g id="edge1_Node000001_Node000002" class="edge">
<title>Node1&#45;&gt;Node2</title>
<g id="a_edge1_Node000001_Node000002"><a xlink:title=" ">
<path fill="none" stroke="#63b8ff" d="M912.54,-118.91C719.48,-119.71 141,-118.33 70,-74 50.14,-61.6 40.66,-33.7 36.96,-19.37"/>
<polygon fill="#63b8ff" stroke="#63b8ff" points="912.82,-122.41 922.8,-118.87 912.79,-115.41 912.82,-122.41"/>
</a>
</g>
</g>
<!-- Node3 -->
<g id="Node000003" class="node">
<title>Node3</title>
<g id="a_Node000003"><a xlink:href="act__neural_8h.html" target="_top" xlink:title="Neural network action functions.">
<polygon fill="white" stroke="#666666" points="149,-74 79,-74 79,-55 149,-55 149,-74"/>
<text text-anchor="middle" x="114" y="-62" font-family="Helvetica,sans-Serif" font-size="10.00">act_neural.h</text>
</a>
</g>
</g>
<!-- Node1&#45;&gt;Node3 -->
<g id="edge2_Node000001_Node000003" class="edge">
<title>Node1&#45;&gt;Node3</title>
<g id="a_edge2_Node000001_Node000003"><a xlink:title=" ">
<path fill="none" stroke="#63b8ff" d="M912.4,-116.01C779.67,-110.49 460.2,-95.96 193,-74 178.7,-72.82 162.98,-71.2 149.36,-69.69"/>
<polygon fill="#63b8ff" stroke="#63b8ff" points="912.64,-119.52 922.77,-116.44 912.93,-112.53 912.64,-119.52"/>
</a>
</g>
</g>
<!-- Node5 -->
<g id="Node000005" class="node">
<title>Node5</title>
<g id="a_Node000005"><a xlink:href="cond__neural_8c.html" target="_top" xlink:title="Multi&#45;layer perceptron neural network condition functions.">
<polygon fill="white" stroke="#666666" points="234.5,-19 157.5,-19 157.5,0 234.5,0 234.5,-19"/>
<text text-anchor="middle" x="196" y="-7" font-family="Helvetica,sans-Serif" font-size="10.00">cond_neural.c</text>
</a>
</g>
</g>
<!-- Node1&#45;&gt;Node5 -->
<g id="edge5_Node000001_Node000005" class="edge">
<title>Node1&#45;&gt;Node5</title>
<g id="a_edge5_Node000001_Node000005"><a xlink:title=" ">
<path fill="none" stroke="#63b8ff" d="M912.72,-116.72C752.16,-111.81 332.57,-96.94 274,-74 243.43,-62.03 215.7,-33.39 203.12,-19.03"/>
<polygon fill="#63b8ff" stroke="#63b8ff" points="912.81,-120.22 922.92,-117.03 913.03,-113.22 912.81,-120.22"/>
</a>
</g>
</g>
<!-- Node6 -->
<g id="Node000006" class="node">
<title>Node6</title>
<g id="a_Node000006"><a xlink:href="cond__neural_8h.html" target="_top" xlink:title="Multi&#45;layer perceptron neural network condition functions.">
<polygon fill="white" stroke="#666666" points="360.5,-74 283.5,-74 283.5,-55 360.5,-55 360.5,-74"/>
<text text-anchor="middle" x="322" y="-62" font-family="Helvetica,sans-Serif" font-size="10.00">cond_neural.h</text>
</a>
</g>
</g>
<!-- Node1&#45;&gt;Node6 -->
<g id="edge6_Node000001_Node000006" class="edge">
<title>Node1&#45;&gt;Node6</title>
<g id="a_edge6_Node000001_Node000006"><a xlink:title=" ">
<path fill="none" stroke="#63b8ff" d="M912.37,-116C802.31,-111.13 567.16,-98.64 370,-74 366.98,-73.62 363.85,-73.18 360.72,-72.71"/>
<polygon fill="#63b8ff" stroke="#63b8ff" points="912.48,-119.51 922.63,-116.45 912.79,-112.51 912.48,-119.51"/>
</a>
</g>
</g>
<!-- Node10 -->
<g id="Node000010" class="node">
<title>Node10</title>
<g id="a_Node000010"><a xlink:href="neural__activations_8c.html" target="_top" xlink:title="Neural network activation functions.">
<polygon fill="white" stroke="#666666" points="614,-74 510,-74 510,-55 614,-55 614,-74"/>
<text text-anchor="middle" x="562" y="-62" font-family="Helvetica,sans-Serif" font-size="10.00">neural_activations.c</text>
</a>
</g>
</g>
<!-- Node1&#45;&gt;Node10 -->
<g id="edge11_Node000001_Node000010" class="edge">
<title>Node1&#45;&gt;Node10</title>
<g id="a_edge11_Node000001_Node000010"><a xlink:title=" ">
<path fill="none" stroke="#63b8ff" d="M912.94,-110.83C842.78,-102.1 725.14,-87.34 624,-74 620.77,-73.57 617.44,-73.13 614.09,-72.68"/>
<polygon fill="#63b8ff" stroke="#63b8ff" points="912.59,-114.31 922.94,-112.07 913.45,-107.36 912.59,-114.31"/>
</a>
</g>
</g>
<!-- Node11 -->
<g id="Node000011" class="node">
<title>Node11</title>
<g id="a_Node000011"><a xlink:href="neural__layer_8c.html" target="_top" xlink:title="Interface for neural network layers.">
<polygon fill="white" stroke="#666666" points="709.5,-74 632.5,-74 632.5,-55 709.5,-55 709.5,-74"/>
<text text-anchor="middle" x="671" y="-62" font-family="Helvetica,sans-Serif" font-size="10.00">neural_layer.c</text>
</a>
</g>
</g>
<!-- Node1&#45;&gt;Node11 -->
<g id="edge12_Node000001_Node000011" class="edge">
<title>Node1&#45;&gt;Node11</title>
<g id="a_edge12_Node000001_Node000011"><a xlink:title=" ">
<path fill="none" stroke="#63b8ff" d="M915.41,-108.2C863.52,-99.21 786.27,-85.8 719,-74 715.92,-73.46 712.72,-72.9 709.51,-72.33"/>
<polygon fill="#63b8ff" stroke="#63b8ff" points="914.99,-111.68 925.44,-109.93 916.18,-104.78 914.99,-111.68"/>
</a>
</g>
</g>
<!-- Node12 -->
<g id="Node000012" class="node">
<title>Node12</title>
<g id="a_Node000012"><a xlink:href="neural__layer__args_8c.html" target="_top" xlink:title="Functions operating on neural network arguments/constants.">
<polygon fill="white" stroke="#666666" points="828.5,-74 727.5,-74 727.5,-55 828.5,-55 828.5,-74"/>
<text text-anchor="middle" x="778" y="-62" font-family="Helvetica,sans-Serif" font-size="10.00">neural_layer_args.c</text>
</a>
</g>
</g>
<!-- Node1&#45;&gt;Node12 -->
<g id="edge13_Node000001_Node000012" class="edge">
<title>Node1&#45;&gt;Node12</title>
<g id="a_edge13_Node000001_Node000012"><a xlink:title=" ">
<path fill="none" stroke="#63b8ff" d="M933.41,-107.31C896.55,-97.39 843.5,-83.12 809.9,-74.08"/>
<polygon fill="#63b8ff" stroke="#63b8ff" points="932.78,-110.77 943.35,-109.98 934.6,-104.01 932.78,-110.77"/>
</a>
</g>
</g>
<!-- Node13 -->
<g id="Node000013" class="node">
<title>Node13</title>
<g id="a_Node000013"><a xlink:href="neural__layer__avgpool_8c.html" target="_top" xlink:title="An implementation of an average pooling layer.">
<polygon fill="white" stroke="#666666" points="963,-74 847,-74 847,-55 963,-55 963,-74"/>
<text text-anchor="middle" x="905" y="-62" font-family="Helvetica,sans-Serif" font-size="10.00">neural_layer_avgpool.c</text>
</a>
</g>
</g>
<!-- Node1&#45;&gt;Node13 -->
<g id="edge14_Node000001_Node000013" class="edge">
<title>Node1&#45;&gt;Node13</title>
<g id="a_edge14_Node000001_Node000013"><a xlink:title=" ">
<path fill="none" stroke="#63b8ff" d="M955.69,-103.88C943.09,-94.34 927.07,-82.21 916.45,-74.17"/>
<polygon fill="#63b8ff" stroke="#63b8ff" points="953.67,-106.74 963.75,-109.98 957.89,-101.16 953.67,-106.74"/>
</a>
</g>
</g>
<!-- Node14 -->
<g id="Node000014" class="node">
<title>Node14</title>
<g id="a_Node000014"><a xlink:href="neural__layer__connected_8c.html" target="_top" xlink:title="An implementation of a fully&#45;connected layer of perceptrons.">
<polygon fill="white" stroke="#666666" points="1109,-74 981,-74 981,-55 1109,-55 1109,-74"/>
<text text-anchor="middle" x="1045" y="-62" font-family="Helvetica,sans-Serif" font-size="10.00">neural_layer_connected.c</text>
</a>
</g>
</g>
<!-- Node1&#45;&gt;Node14 -->
<g id="edge15_Node000001_Node000014" class="edge">
<title>Node1&#45;&gt;Node14</title>
<g id="a_edge15_Node000001_Node000014"><a xlink:title=" ">
<path fill="none" stroke="#63b8ff" d="M994.31,-103.88C1006.91,-94.34 1022.93,-82.21 1033.55,-74.17"/>
<polygon fill="#63b8ff" stroke="#63b8ff" points="992.11,-101.16 986.25,-109.98 996.33,-106.74 992.11,-101.16"/>
</a>
</g>
</g>
<!-- Node15 -->
<g id="Node000015" class="node">
<title>Node15</title>
<g id="a_Node000015"><a xlink:href="neural__layer__convolutional_8c.html" target="_top" xlink:title="An implementation of a 2D convolutional layer.">
<polygon fill="white" stroke="#666666" points="1267,-74 1127,-74 1127,-55 1267,-55 1267,-74"/>
<text text-anchor="middle" x="1197" y="-62" font-family="Helvetica,sans-Serif" font-size="10.00">neural_layer_convolutional.c</text>
</a>
</g>
</g>
<!-- Node1&#45;&gt;Node15 -->
<g id="edge16_Node000001_Node000015" class="edge">
<title>Node1&#45;&gt;Node15</title>
<g id="a_edge16_Node000001_Node000015"><a xlink:title=" ">
<path fill="none" stroke="#63b8ff" d="M1020.54,-107.63C1062.13,-97.7 1122.78,-83.22 1161.05,-74.08"/>
<polygon fill="#63b8ff" stroke="#63b8ff" points="1019.58,-104.26 1010.67,-109.98 1021.21,-111.07 1019.58,-104.26"/>
</a>
</g>
</g>
<!-- Node16 -->
<g id="Node000016" class="node">
<title>Node16</title>
<g id="a_Node000016"><a xlink:href="neural__layer__dropout_8c.html" target="_top" xlink:title="An implementation of a dropout layer.">
<polygon fill="white" stroke="#666666" points="1400.5,-74 1285.5,-74 1285.5,-55 1400.5,-55 1400.5,-74"/>
<text text-anchor="middle" x="1343" y="-62" font-family="Helvetica,sans-Serif" font-size="10.00">neural_layer_dropout.c</text>
</a>
</g>
</g>
<!-- Node1&#45;&gt;Node16 -->
<g id="edge17_Node000001_Node000016" class="edge">
<title>Node1&#45;&gt;Node16</title>
<g id="a_edge17_Node000001_Node000016"><a xlink:title=" ">
<path fill="none" stroke="#63b8ff" d="M1037.26,-109.53C1106.65,-99.54 1217.94,-83.51 1285.39,-73.8"/>
<polygon fill="#63b8ff" stroke="#63b8ff" points="1036.73,-106.07 1027.33,-110.96 1037.73,-113 1036.73,-106.07"/>
</a>
</g>
</g>
<!-- Node17 -->
<g id="Node000017" class="node">
<title>Node17</title>
<g id="a_Node000017"><a xlink:href="neural__layer__lstm_8c.html" target="_top" xlink:title="An implementation of a long short&#45;term memory layer.">
<polygon fill="white" stroke="#666666" points="1519.5,-74 1418.5,-74 1418.5,-55 1519.5,-55 1519.5,-74"/>
<text text-anchor="middle" x="1469" y="-62" font-family="Helvetica,sans-Serif" font-size="10.00">neural_layer_lstm.c</text>
</a>
</g>
</g>
<!-- Node1&#45;&gt;Node17 -->
<g id="edge18_Node000001_Node000017" class="edge">
<title>Node1&#45;&gt;Node17</title>
<g id="a_edge18_Node000001_Node000017"><a xlink:title=" ">
<path fill="none" stroke="#63b8ff" d="M1037.51,-112.92C1122.09,-105.18 1277.64,-90.3 1410,-74 1412.77,-73.66 1415.62,-73.29 1418.49,-72.92"/>
<polygon fill="#63b8ff" stroke="#63b8ff" points="1036.95,-109.46 1027.31,-113.85 1037.58,-116.43 1036.95,-109.46"/>
</a>
</g>
</g>
<!-- Node18 -->
<g id="Node000018" class="node">
<title>Node18</title>
<g id="a_Node000018"><a xlink:href="neural__layer__maxpool_8c.html" target="_top" xlink:title="An implementation of a 2D maxpooling layer.">
<polygon fill="white" stroke="#666666" points="1656.5,-74 1537.5,-74 1537.5,-55 1656.5,-55 1656.5,-74"/>
<text text-anchor="middle" x="1597" y="-62" font-family="Helvetica,sans-Serif" font-size="10.00">neural_layer_maxpool.c</text>
</a>
</g>
</g>
<!-- Node1&#45;&gt;Node18 -->
<g id="edge19_Node000001_Node000018" class="edge">
<title>Node1&#45;&gt;Node18</title>
<g id="a_edge19_Node000001_Node000018"><a xlink:title=" ">
<path fill="none" stroke="#63b8ff" d="M1037.19,-114.41C1139.76,-107.45 1350.83,-92.28 1529,-74 1531.72,-73.72 1534.5,-73.42 1537.31,-73.11"/>
<polygon fill="#63b8ff" stroke="#63b8ff" points="1036.75,-110.93 1027.01,-115.09 1037.22,-117.91 1036.75,-110.93"/>
</a>
</g>
</g>
<!-- Node19 -->
<g id="Node000019" class="node">
<title>Node19</title>
<g id="a_Node000019"><a xlink:href="neural__layer__noise_8c.html" target="_top" xlink:title="An implementation of a Gaussian noise adding layer.">
<polygon fill="white" stroke="#666666" points="1781,-74 1675,-74 1675,-55 1781,-55 1781,-74"/>
<text text-anchor="middle" x="1728" y="-62" font-family="Helvetica,sans-Serif" font-size="10.00">neural_layer_noise.c</text>
</a>
</g>
</g>
<!-- Node1&#45;&gt;Node19 -->
<g id="edge20_Node000001_Node000019" class="edge">
<title>Node1&#45;&gt;Node19</title>
<g id="a_edge20_Node000001_Node000019"><a xlink:title=" ">
<path fill="none" stroke="#63b8ff" d="M1037.32,-115.99C1158.59,-110.78 1434.72,-97.27 1666,-74 1668.92,-73.71 1671.91,-73.38 1674.93,-73.03"/>
<polygon fill="#63b8ff" stroke="#63b8ff" points="1036.96,-112.5 1027.11,-116.43 1037.25,-119.5 1036.96,-112.5"/>
</a>
</g>
</g>
<!-- Node20 -->
<g id="Node000020" class="node">
<title>Node20</title>
<g id="a_Node000020"><a xlink:href="neural__layer__recurrent_8c.html" target="_top" xlink:title="An implementation of a recurrent layer of perceptrons.">
<polygon fill="white" stroke="#666666" points="1920.5,-74 1799.5,-74 1799.5,-55 1920.5,-55 1920.5,-74"/>
<text text-anchor="middle" x="1860" y="-62" font-family="Helvetica,sans-Serif" font-size="10.00">neural_layer_recurrent.c</text>
</a>
</g>
</g>
<!-- Node1&#45;&gt;Node20 -->
<g id="edge21_Node000001_Node000020" class="edge">
<title>Node1&#45;&gt;Node20</title>
<g id="a_edge21_Node000001_Node000020"><a xlink:title=" ">
<path fill="none" stroke="#63b8ff" d="M1037.31,-116.51C1173.87,-111.83 1509.69,-98.64 1790,-74 1793.05,-73.73 1796.17,-73.44 1799.32,-73.12"/>
<polygon fill="#63b8ff" stroke="#63b8ff" points="1036.93,-113.02 1027.05,-116.86 1037.16,-120.01 1036.93,-113.02"/>
</a>
</g>
</g>
<!-- Node21 -->
<g id="Node000021" class="node">
<title>Node21</title>
<g id="a_Node000021"><a xlink:href="neural__layer__softmax_8c.html" target="_top" xlink:title="An implementation of a softmax layer.">
<polygon fill="white" stroke="#666666" points="2057,-74 1939,-74 1939,-55 2057,-55 2057,-74"/>
<text text-anchor="middle" x="1998" y="-62" font-family="Helvetica,sans-Serif" font-size="10.00">neural_layer_softmax.c</text>
</a>
</g>
</g>
<!-- Node1&#45;&gt;Node21 -->
<g id="edge22_Node000001_Node000021" class="edge">
<title>Node1&#45;&gt;Node21</title>
<g id="a_edge22_Node000001_Node000021"><a xlink:title=" ">
<path fill="none" stroke="#63b8ff" d="M1037.22,-117.28C1189.67,-113.91 1593.95,-102.79 1930,-74 1932.84,-73.76 1935.75,-73.48 1938.69,-73.19"/>
<polygon fill="#63b8ff" stroke="#63b8ff" points="1037.03,-113.78 1027.11,-117.5 1037.19,-120.78 1037.03,-113.78"/>
</a>
</g>
</g>
<!-- Node22 -->
<g id="Node000022" class="node">
<title>Node22</title>
<g id="a_Node000022"><a xlink:href="neural__layer__upsample_8c.html" target="_top" xlink:title="An implementation of a 2D upsampling layer.">
<polygon fill="white" stroke="#666666" points="2200.5,-74 2075.5,-74 2075.5,-55 2200.5,-55 2200.5,-74"/>
<text text-anchor="middle" x="2138" y="-62" font-family="Helvetica,sans-Serif" font-size="10.00">neural_layer_upsample.c</text>
</a>
</g>
</g>
<!-- Node1&#45;&gt;Node22 -->
<g id="edge23_Node000001_Node000022" class="edge">
<title>Node1&#45;&gt;Node22</title>
<g id="a_edge23_Node000001_Node000022"><a xlink:title=" ">
<path fill="none" stroke="#63b8ff" d="M1037.11,-117.63C1203.86,-114.95 1675.21,-104.99 2066,-74 2069.01,-73.76 2072.09,-73.49 2075.2,-73.2"/>
<polygon fill="#63b8ff" stroke="#63b8ff" points="1036.98,-114.14 1027.04,-117.79 1037.09,-121.14 1036.98,-114.14"/>
</a>
</g>
</g>
<!-- Node23 -->
<g id="Node000023" class="node">
<title>Node23</title>
<g id="a_Node000023"><a xlink:href="pred__neural_8c.html" target="_top" xlink:title="Multi&#45;layer perceptron neural network prediction functions.">
<polygon fill="white" stroke="#666666" points="653.5,-19 578.5,-19 578.5,0 653.5,0 653.5,-19"/>
<text text-anchor="middle" x="616" y="-7" font-family="Helvetica,sans-Serif" font-size="10.00">pred_neural.c</text>
</a>
</g>
</g>
<!-- Node1&#45;&gt;Node23 -->
<g id="edge24_Node000001_Node000023" class="edge">
<title>Node1&#45;&gt;Node23</title>
<g id="a_edge24_Node000001_Node000023"><a xlink:title=" ">
<path fill="none" stroke="#63b8ff" d="M912.29,-117.21C789.77,-114.05 528.17,-103.84 501,-74 474.59,-44.99 535.58,-26.3 578.45,-17.16"/>
<polygon fill="#63b8ff" stroke="#63b8ff" points="912.55,-120.72 922.64,-117.47 912.73,-113.72 912.55,-120.72"/>
</a>
</g>
</g>
<!-- Node24 -->
<g id="Node000024" class="node">
<title>Node24</title>
<g id="a_Node000024"><a xlink:href="pred__neural_8h.html" target="_top" xlink:title="Multi&#45;layer perceptron neural network prediction functions.">
<polygon fill="white" stroke="#666666" points="453.5,-74 378.5,-74 378.5,-55 453.5,-55 453.5,-74"/>
<text text-anchor="middle" x="416" y="-62" font-family="Helvetica,sans-Serif" font-size="10.00">pred_neural.h</text>
</a>
</g>
</g>
<!-- Node1&#45;&gt;Node24 -->
<g id="edge25_Node000001_Node000024" class="edge">
<title>Node1&#45;&gt;Node24</title>
<g id="a_edge25_Node000001_Node000024"><a xlink:title=" ">
<path fill="none" stroke="#63b8ff" d="M912.58,-114.52C816.74,-108.08 627.66,-94.03 468,-74 463.37,-73.42 458.52,-72.73 453.73,-72.01"/>
<polygon fill="#63b8ff" stroke="#63b8ff" points="912.47,-118.02 922.68,-115.2 912.93,-111.04 912.47,-118.02"/>
</a>
</g>
</g>
<!-- Node26 -->
<g id="Node000026" class="node">
<title>Node26</title>
<g id="a_Node000026"><a xlink:href="rule__neural_8c.html" target="_top" xlink:title="Neural network rule (condition + action) functions.">
<polygon fill="white" stroke="#666666" points="2291,-74 2219,-74 2219,-55 2291,-55 2291,-74"/>
<text text-anchor="middle" x="2255" y="-62" font-family="Helvetica,sans-Serif" font-size="10.00">rule_neural.c</text>
</a>
</g>
</g>
<!-- Node1&#45;&gt;Node26 -->
<g id="edge30_Node000001_Node000026" class="edge">
<title>Node1&#45;&gt;Node26</title>
<g id="a_edge30_Node000001_Node000026"><a xlink:title=" ">
<path fill="none" stroke="#63b8ff" d="M1037.41,-117.5C1254.96,-113.8 1979.11,-99.82 2210,-74 2212.84,-73.68 2215.78,-73.29 2218.72,-72.84"/>
<polygon fill="#63b8ff" stroke="#63b8ff" points="1037.08,-114 1027.14,-117.67 1037.19,-121 1037.08,-114"/>
</a>
</g>
</g>
<!-- Node3&#45;&gt;Node2 -->
<g id="edge3_Node000003_Node000002" class="edge">
<title>Node3&#45;&gt;Node2</title>
<g id="a_edge3_Node000003_Node000002"><a xlink:title=" ">
<path fill="none" stroke="#63b8ff" d="M92.61,-49.15C78.33,-39.57 60.03,-27.29 47.92,-19.17"/>
<polygon fill="#63b8ff" stroke="#63b8ff" points="91.05,-52.32 101.31,-54.98 94.95,-46.51 91.05,-52.32"/>
</a>
</g>
</g>
<!-- Node4 -->
<g id="Node000004" class="node">
<title>Node4</title>
<g id="a_Node000004"><a xlink:href="action_8c.html" target="_top" xlink:title="Interface for classifier actions.">
<polygon fill="white" stroke="#666666" points="139.5,-19 88.5,-19 88.5,0 139.5,0 139.5,-19"/>
<text text-anchor="middle" x="114" y="-7" font-family="Helvetica,sans-Serif" font-size="10.00">action.c</text>
</a>
</g>
</g>
<!-- Node3&#45;&gt;Node4 -->
<g id="edge4_Node000003_Node000004" class="edge">
<title>Node3&#45;&gt;Node4</title>
<g id="a_edge4_Node000003_Node000004"><a xlink:title=" ">
<path fill="none" stroke="#63b8ff" d="M114,-44.66C114,-35.93 114,-25.99 114,-19.09"/>
<polygon fill="#63b8ff" stroke="#63b8ff" points="110.5,-44.75 114,-54.75 117.5,-44.75 110.5,-44.75"/>
</a>
</g>
</g>
<!-- Node6&#45;&gt;Node5 -->
<g id="edge8_Node000006_Node000005" class="edge">
<title>Node6&#45;&gt;Node5</title>
<g id="a_edge8_Node000006_Node000005"><a xlink:title=" ">
<path fill="none" stroke="#63b8ff" d="M292.35,-51.03C269.05,-41.23 237.2,-27.83 216.61,-19.17"/>
<polygon fill="#63b8ff" stroke="#63b8ff" points="291.18,-54.33 301.76,-54.98 293.9,-47.88 291.18,-54.33"/>
</a>
</g>
</g>
<!-- Node7 -->
<g id="Node000007" class="node">
<title>Node7</title>
<g id="a_Node000007"><a xlink:href="clset__neural_8c.html" target="_top" xlink:title="Functions operating on sets of neural classifiers.">
<polygon fill="white" stroke="#666666" points="412.5,-19 335.5,-19 335.5,0 412.5,0 412.5,-19"/>
<text text-anchor="middle" x="374" y="-7" font-family="Helvetica,sans-Serif" font-size="10.00">clset_neural.c</text>
</a>
</g>
</g>
<!-- Node6&#45;&gt;Node7 -->
<g id="edge7_Node000006_Node000007" class="edge">
<title>Node6&#45;&gt;Node7</title>
<g id="a_edge7_Node000006_Node000007"><a xlink:title=" ">
<path fill="none" stroke="#63b8ff" d="M337.68,-47.52C346.84,-38.18 358.05,-26.75 365.57,-19.09"/>
<polygon fill="#63b8ff" stroke="#63b8ff" points="335.09,-45.16 330.59,-54.75 340.09,-50.06 335.09,-45.16"/>
</a>
</g>
</g>
<!-- Node8 -->
<g id="Node000008" class="node">
<title>Node8</title>
<g id="a_Node000008"><a xlink:href="condition_8c.html" target="_top" xlink:title="Interface for classifier conditions.">
<polygon fill="white" stroke="#666666" points="317,-19 253,-19 253,0 317,0 317,-19"/>
<text text-anchor="middle" x="285" y="-7" font-family="Helvetica,sans-Serif" font-size="10.00">condition.c</text>
</a>
</g>
</g>
<!-- Node6&#45;&gt;Node8 -->
<g id="edge9_Node000006_Node000008" class="edge">
<title>Node6&#45;&gt;Node8</title>
<g id="a_edge9_Node000006_Node000008"><a xlink:title=" ">
<path fill="none" stroke="#63b8ff" d="M310.05,-46.39C303.69,-37.27 296.13,-26.45 291,-19.09"/>
<polygon fill="#63b8ff" stroke="#63b8ff" points="307.3,-48.55 315.89,-54.75 313.04,-44.55 307.3,-48.55"/>
</a>
</g>
</g>
<!-- Node9 -->
<g id="Node000009" class="node">
<title>Node9</title>
<g id="a_Node000009"><a xlink:href="xcsf_8c.html" target="_top" xlink:title="System&#45;level functions for initialising, saving, loading, etc.">
<polygon fill="white" stroke="#666666" points="475,-19 431,-19 431,0 475,0 475,-19"/>
<text text-anchor="middle" x="453" y="-7" font-family="Helvetica,sans-Serif" font-size="10.00">xcsf.c</text>
</a>
</g>
</g>
<!-- Node6&#45;&gt;Node9 -->
<g id="edge10_Node000006_Node000009" class="edge">
<title>Node6&#45;&gt;Node9</title>
<g id="a_edge10_Node000006_Node000009"><a xlink:title=" ">
<path fill="none" stroke="#63b8ff" d="M352.5,-51.16C376.75,-41.35 410.07,-27.87 431.57,-19.17"/>
<polygon fill="#63b8ff" stroke="#63b8ff" points="351,-47.99 343.05,-54.98 353.63,-54.48 351,-47.99"/>
</a>
</g>
</g>
<!-- Node24&#45;&gt;Node7 -->
<g id="edge26_Node000024_Node000007" class="edge">
<title>Node24&#45;&gt;Node7</title>
<g id="a_edge26_Node000024_Node000007"><a xlink:title=" ">
<path fill="none" stroke="#63b8ff" d="M402.67,-46.67C395.39,-37.5 386.7,-26.52 380.81,-19.09"/>
<polygon fill="#63b8ff" stroke="#63b8ff" points="400.11,-49.08 409.06,-54.75 405.6,-44.74 400.11,-49.08"/>
</a>
</g>
</g>
<!-- Node24&#45;&gt;Node9 -->
<g id="edge29_Node000024_Node000009" class="edge">
<title>Node24&#45;&gt;Node9</title>
<g id="a_edge29_Node000024_Node000009"><a xlink:title=" ">
<path fill="none" stroke="#63b8ff" d="M427.95,-46.39C434.31,-37.27 441.87,-26.45 447,-19.09"/>
<polygon fill="#63b8ff" stroke="#63b8ff" points="424.96,-44.55 422.11,-54.75 430.7,-48.55 424.96,-44.55"/>
</a>
</g>
</g>
<!-- Node24&#45;&gt;Node23 -->
<g id="edge27_Node000024_Node000023" class="edge">
<title>Node24&#45;&gt;Node23</title>
<g id="a_edge27_Node000024_Node000023"><a xlink:title=" ">
<path fill="none" stroke="#63b8ff" d="M458.22,-52.31C495.65,-42.39 549.5,-28.12 583.61,-19.08"/>
<polygon fill="#63b8ff" stroke="#63b8ff" points="456.9,-49.04 448.13,-54.98 458.7,-55.81 456.9,-49.04"/>
</a>
</g>
</g>
<!-- Node25 -->
<g id="Node000025" class="node">
<title>Node25</title>
<g id="a_Node000025"><a xlink:href="prediction_8c.html" target="_top" xlink:title="Interface for classifier predictions.">
<polygon fill="white" stroke="#666666" points="560.5,-19 493.5,-19 493.5,0 560.5,0 560.5,-19"/>
<text text-anchor="middle" x="527" y="-7" font-family="Helvetica,sans-Serif" font-size="10.00">prediction.c</text>
</a>
</g>
</g>
<!-- Node24&#45;&gt;Node25 -->
<g id="edge28_Node000024_Node000025" class="edge">
<title>Node24&#45;&gt;Node25</title>
<g id="a_edge28_Node000024_Node000025"><a xlink:title=" ">
<path fill="none" stroke="#63b8ff" d="M442.95,-50.63C463.39,-40.87 490.95,-27.71 508.84,-19.17"/>
<polygon fill="#63b8ff" stroke="#63b8ff" points="441.35,-47.52 433.83,-54.98 444.37,-53.83 441.35,-47.52"/>
</a>
</g>
</g>
</g>
</svg>
