<?xml version="1.0" encoding="UTF-8" standalone="no"?>
<!DOCTYPE svg PUBLIC "-//W3C//DTD SVG 1.1//EN"
 "http://www.w3.org/Graphics/SVG/1.1/DTD/svg11.dtd">
<!-- Generated by graphviz version 2.43.0 (0)
 -->
<!-- Title: layer_args_copy Pages: 1 -->
<svg width="1014pt" height="194pt"
 viewBox="0.00 0.00 1014.00 194.00" xmlns="http://www.w3.org/2000/svg" xmlns:xlink="http://www.w3.org/1999/xlink">
<g id="graph0" class="graph" transform="scale(1 1) rotate(0) translate(4 190)">
<title>layer_args_copy</title>
<!-- Node1 -->
<g id="Node000001" class="node">
<title>Node1</title>
<g id="a_Node000001"><a xlink:title="Creates and returns a copy of specified layer parameters.">
<polygon fill="#999999" stroke="#666666" points="1006,-93 918,-93 918,-74 1006,-74 1006,-93"/>
<text text-anchor="middle" x="962" y="-81" font-family="Helvetica,sans-Serif" font-size="10.00">layer_args_copy</text>
</a>
</g>
</g>
<!-- Node2 -->
<g id="Node000002" class="node">
<title>Node2</title>
<g id="a_Node000002"><a xlink:href="act__neural_8c.html#ae9c1117ca77c9dbe5b509c508483d56b" target="_top" xlink:title="Initialises default neural action parameters.">
<polygon fill="white" stroke="#666666" points="878.5,-167 744.5,-167 744.5,-148 878.5,-148 878.5,-167"/>
<text text-anchor="middle" x="811.5" y="-155" font-family="Helvetica,sans-Serif" font-size="10.00">act_neural_param_defaults</text>
</a>
</g>
</g>
<!-- Node1&#45;&gt;Node2 -->
<g id="edge1_Node000001_Node000002" class="edge">
<title>Node1&#45;&gt;Node2</title>
<g id="a_edge1_Node000001_Node000002"><a xlink:title=" ">
<path fill="none" stroke="#63b8ff" d="M942.62,-99.48C927.34,-112.01 904.51,-129.04 882,-139.5 874.77,-142.86 866.81,-145.67 858.93,-147.99"/>
<polygon fill="#63b8ff" stroke="#63b8ff" points="944.88,-102.16 950.29,-93.05 940.38,-96.79 944.88,-102.16"/>
</a>
</g>
</g>
<!-- Node15 -->
<g id="Node000015" class="node">
<title>Node15</title>
<g id="a_Node000015"><a xlink:href="cond__neural_8c.html#a935ca37ecd32e1b791066e3bc0f7536e" target="_top" xlink:title="Initialises default neural condition parameters.">
<polygon fill="white" stroke="#666666" points="882,-130 741,-130 741,-111 882,-111 882,-130"/>
<text text-anchor="middle" x="811.5" y="-118" font-family="Helvetica,sans-Serif" font-size="10.00">cond_neural_param_defaults</text>
</a>
</g>
</g>
<!-- Node1&#45;&gt;Node15 -->
<g id="edge16_Node000001_Node000015" class="edge">
<title>Node1&#45;&gt;Node15</title>
<g id="a_edge16_Node000001_Node000015"><a xlink:title=" ">
<path fill="none" stroke="#63b8ff" d="M912.86,-95.49C892.78,-100.5 869.78,-106.23 850.87,-110.94"/>
<polygon fill="#63b8ff" stroke="#63b8ff" points="913.9,-98.84 922.76,-93.03 912.21,-92.05 913.9,-98.84"/>
</a>
</g>
</g>
<!-- Node17 -->
<g id="Node000017" class="node">
<title>Node17</title>
<g id="a_Node000017"><a xlink:href="neural__layer__lstm_8c.html#ae10001d478d05d7503e4ce76e02cbf6b" target="_top" xlink:title="Initialises a long short&#45;term memory layer.">
<polygon fill="white" stroke="#666666" points="867,-93 756,-93 756,-74 867,-74 867,-93"/>
<text text-anchor="middle" x="811.5" y="-81" font-family="Helvetica,sans-Serif" font-size="10.00">neural_layer_lstm_init</text>
</a>
</g>
</g>
<!-- Node1&#45;&gt;Node17 -->
<g id="edge19_Node000001_Node000017" class="edge">
<title>Node1&#45;&gt;Node17</title>
<g id="a_edge19_Node000001_Node000017"><a xlink:title=" ">
<path fill="none" stroke="#63b8ff" d="M907.36,-83.5C894.23,-83.5 880.17,-83.5 867,-83.5"/>
<polygon fill="#63b8ff" stroke="#63b8ff" points="907.65,-87 917.65,-83.5 907.65,-80 907.65,-87"/>
</a>
</g>
</g>
<!-- Node18 -->
<g id="Node000018" class="node">
<title>Node18</title>
<g id="a_Node000018"><a xlink:href="neural__layer__recurrent_8c.html#a74274033f3a8272fb8aae4366f93d74c" target="_top" xlink:title="Initialises a recurrent layer.">
<polygon fill="white" stroke="#666666" points="877,-56 746,-56 746,-37 877,-37 877,-56"/>
<text text-anchor="middle" x="811.5" y="-44" font-family="Helvetica,sans-Serif" font-size="10.00">neural_layer_recurrent_init</text>
</a>
</g>
</g>
<!-- Node1&#45;&gt;Node18 -->
<g id="edge20_Node000001_Node000018" class="edge">
<title>Node1&#45;&gt;Node18</title>
<g id="a_edge20_Node000001_Node000018"><a xlink:title=" ">
<path fill="none" stroke="#63b8ff" d="M912.86,-71.51C892.78,-66.5 869.78,-60.77 850.87,-56.06"/>
<polygon fill="#63b8ff" stroke="#63b8ff" points="912.21,-74.95 922.76,-73.97 913.9,-68.16 912.21,-74.95"/>
</a>
</g>
</g>
<!-- Node19 -->
<g id="Node000019" class="node">
<title>Node19</title>
<g id="a_Node000019"><a xlink:href="pred__neural_8c.html#ad98412e2a2999778290478e22b868859" target="_top" xlink:title="Initialises default neural prediction parameters.">
<polygon fill="white" stroke="#666666" points="881,-19 742,-19 742,0 881,0 881,-19"/>
<text text-anchor="middle" x="811.5" y="-7" font-family="Helvetica,sans-Serif" font-size="10.00">pred_neural_param_defaults</text>
</a>
</g>
</g>
<!-- Node1&#45;&gt;Node19 -->
<g id="edge21_Node000001_Node000019" class="edge">
<title>Node1&#45;&gt;Node19</title>
<g id="a_edge21_Node000001_Node000019"><a xlink:title=" ">
<path fill="none" stroke="#63b8ff" d="M942.62,-67.52C927.34,-54.99 904.51,-37.96 882,-27.5 874.77,-24.14 866.81,-21.33 858.93,-19.01"/>
<polygon fill="#63b8ff" stroke="#63b8ff" points="940.38,-70.21 950.29,-73.95 944.88,-64.84 940.38,-70.21"/>
</a>
</g>
</g>
<!-- Node3 -->
<g id="Node000003" class="node">
<title>Node3</title>
<g id="a_Node000003"><a xlink:href="action_8c.html#aa7e0cd00c920c30b15e0d1cc409cada5" target="_top" xlink:title="Initialises default action parameters.">
<polygon fill="white" stroke="#666666" points="705,-167 590,-167 590,-148 705,-148 705,-167"/>
<text text-anchor="middle" x="647.5" y="-155" font-family="Helvetica,sans-Serif" font-size="10.00">action_param_defaults</text>
</a>
</g>
</g>
<!-- Node2&#45;&gt;Node3 -->
<g id="edge2_Node000002_Node000003" class="edge">
<title>Node2&#45;&gt;Node3</title>
<g id="a_edge2_Node000002_Node000003"><a xlink:title=" ">
<path fill="none" stroke="#63b8ff" d="M734.06,-157.5C724.33,-157.5 714.52,-157.5 705.18,-157.5"/>
<polygon fill="#63b8ff" stroke="#63b8ff" points="734.14,-161 744.14,-157.5 734.14,-154 734.14,-161"/>
</a>
</g>
</g>
<!-- Node4 -->
<g id="Node000004" class="node">
<title>Node4</title>
<g id="a_Node000004"><a xlink:href="param_8c.html#ac8218a170803be0bcd974764e7494b0e" target="_top" xlink:title="Initialises default XCSF parameters.">
<polygon fill="white" stroke="#666666" points="554,-130 492,-130 492,-111 554,-111 554,-130"/>
<text text-anchor="middle" x="523" y="-118" font-family="Helvetica,sans-Serif" font-size="10.00">param_init</text>
</a>
</g>
</g>
<!-- Node3&#45;&gt;Node4 -->
<g id="edge3_Node000003_Node000004" class="edge">
<title>Node3&#45;&gt;Node4</title>
<g id="a_edge3_Node000003_Node000004"><a xlink:title=" ">
<path fill="none" stroke="#63b8ff" d="M604.92,-144.94C588.28,-139.91 569.47,-134.23 554.17,-129.61"/>
<polygon fill="#63b8ff" stroke="#63b8ff" points="604.37,-148.43 614.95,-147.97 606.39,-141.73 604.37,-148.43"/>
</a>
</g>
</g>
<!-- Node5 -->
<g id="Node000005" class="node">
<title>Node5</title>
<g id="a_Node000005"><a xlink:href="env__csv_8c.html#ab26a39a388f0ac83b9ac14726ad14b16" target="_top" xlink:title="Initialises a CSV input environment from a specified filename.">
<polygon fill="white" stroke="#666666" points="451.5,-186 380.5,-186 380.5,-167 451.5,-167 451.5,-186"/>
<text text-anchor="middle" x="416" y="-174" font-family="Helvetica,sans-Serif" font-size="10.00">env_csv_init</text>
</a>
</g>
</g>
<!-- Node4&#45;&gt;Node5 -->
<g id="edge4_Node000004_Node000005" class="edge">
<title>Node4&#45;&gt;Node5</title>
<g id="a_edge4_Node000004_Node000005"><a xlink:title=" ">
<path fill="none" stroke="#63b8ff" d="M497.45,-135.34C485.15,-142.59 469.94,-151.29 456,-158.5 450.44,-161.38 444.32,-164.31 438.62,-166.94"/>
<polygon fill="#63b8ff" stroke="#63b8ff" points="499.41,-138.24 506.22,-130.12 495.83,-132.23 499.41,-138.24"/>
</a>
</g>
</g>
<!-- Node8 -->
<g id="Node000008" class="node">
<title>Node8</title>
<g id="a_Node000008"><a xlink:href="env__maze_8c.html#acad3cc6e9fe2b7e07e878f1f517ad3a6" target="_top" xlink:title="Initialises a maze environment from a specified file.">
<polygon fill="white" stroke="#666666" points="456,-149 376,-149 376,-130 456,-130 456,-149"/>
<text text-anchor="middle" x="416" y="-137" font-family="Helvetica,sans-Serif" font-size="10.00">env_maze_init</text>
</a>
</g>
</g>
<!-- Node4&#45;&gt;Node8 -->
<g id="edge7_Node000004_Node000008" class="edge">
<title>Node4&#45;&gt;Node8</title>
<g id="a_edge7_Node000004_Node000008"><a xlink:title=" ">
<path fill="none" stroke="#63b8ff" d="M481.89,-127.76C473.44,-129.29 464.53,-130.9 456.11,-132.42"/>
<polygon fill="#63b8ff" stroke="#63b8ff" points="482.69,-131.17 491.91,-125.94 481.45,-124.28 482.69,-131.17"/>
</a>
</g>
</g>
<!-- Node9 -->
<g id="Node000009" class="node">
<title>Node9</title>
<g id="a_Node000009"><a xlink:href="env__mux_8c.html#aff3b81b4913d273ecfd62d7585480b15" target="_top" xlink:title="Initialises a real multiplexer environment of specified length.">
<polygon fill="white" stroke="#666666" points="453,-112 379,-112 379,-93 453,-93 453,-112"/>
<text text-anchor="middle" x="416" y="-100" font-family="Helvetica,sans-Serif" font-size="10.00">env_mux_init</text>
</a>
</g>
</g>
<!-- Node4&#45;&gt;Node9 -->
<g id="edge9_Node000004_Node000009" class="edge">
<title>Node4&#45;&gt;Node9</title>
<g id="a_edge9_Node000004_Node000009"><a xlink:title=" ">
<path fill="none" stroke="#63b8ff" d="M481.9,-113.63C472.41,-112 462.35,-110.27 453.05,-108.68"/>
<polygon fill="#63b8ff" stroke="#63b8ff" points="481.46,-117.1 491.91,-115.34 482.65,-110.2 481.46,-117.1"/>
</a>
</g>
</g>
<!-- Node10 -->
<g id="Node000010" class="node">
<title>Node10</title>
<g id="a_Node000010"><a xlink:href="classXCS.html#a2e542f3f17c9c76d07045adf1f5c16f9" target="_top" xlink:title="Resets basic constructor variables.">
<polygon fill="white" stroke="#666666" points="448.5,-75 383.5,-75 383.5,-56 448.5,-56 448.5,-75"/>
<text text-anchor="middle" x="416" y="-63" font-family="Helvetica,sans-Serif" font-size="10.00">XCS::reset</text>
</a>
</g>
</g>
<!-- Node4&#45;&gt;Node10 -->
<g id="edge11_Node000004_Node000010" class="edge">
<title>Node4&#45;&gt;Node10</title>
<g id="a_edge11_Node000004_Node000010"><a xlink:title=" ">
<path fill="none" stroke="#63b8ff" d="M495.94,-105.93C483.86,-99.27 469.27,-91.35 456,-84.5 449.98,-81.39 443.37,-78.12 437.33,-75.19"/>
<polygon fill="#63b8ff" stroke="#63b8ff" points="494.58,-109.17 505.02,-110.96 497.97,-103.05 494.58,-109.17"/>
</a>
</g>
</g>
<!-- Node6 -->
<g id="Node000006" class="node">
<title>Node6</title>
<g id="a_Node000006"><a xlink:href="env_8c.html#a9213fcf5fc422d6a77bce853b1d78dc9" target="_top" xlink:title="Initialises a built&#45;in problem environment.">
<polygon fill="white" stroke="#666666" points="332.5,-149 282.5,-149 282.5,-130 332.5,-130 332.5,-149"/>
<text text-anchor="middle" x="307.5" y="-137" font-family="Helvetica,sans-Serif" font-size="10.00">env_init</text>
</a>
</g>
</g>
<!-- Node5&#45;&gt;Node6 -->
<g id="edge5_Node000005_Node000006" class="edge">
<title>Node5&#45;&gt;Node6</title>
<g id="a_edge5_Node000005_Node000006"><a xlink:title=" ">
<path fill="none" stroke="#63b8ff" d="M378.01,-163.65C362.95,-158.42 345.98,-152.52 332.57,-147.86"/>
<polygon fill="#63b8ff" stroke="#63b8ff" points="376.98,-167 387.57,-166.97 379.28,-160.38 376.98,-167"/>
</a>
</g>
</g>
<!-- Node7 -->
<g id="Node000007" class="node">
<title>Node7</title>
<g id="a_Node000007"><a xlink:href="main_8c.html#a3c04138a5bfe5d72780bb7e82a18e627" target="_top" xlink:title=" ">
<polygon fill="white" stroke="#666666" points="213,-149 175,-149 175,-130 213,-130 213,-149"/>
<text text-anchor="middle" x="194" y="-137" font-family="Helvetica,sans-Serif" font-size="10.00">main</text>
</a>
</g>
</g>
<!-- Node6&#45;&gt;Node7 -->
<g id="edge6_Node000006_Node000007" class="edge">
<title>Node6&#45;&gt;Node7</title>
<g id="a_edge6_Node000006_Node000007"><a xlink:title=" ">
<path fill="none" stroke="#63b8ff" d="M272.28,-139.5C252.83,-139.5 229.24,-139.5 213.28,-139.5"/>
<polygon fill="#63b8ff" stroke="#63b8ff" points="272.31,-143 282.31,-139.5 272.31,-136 272.31,-143"/>
</a>
</g>
</g>
<!-- Node8&#45;&gt;Node6 -->
<g id="edge8_Node000008_Node000006" class="edge">
<title>Node8&#45;&gt;Node6</title>
<g id="a_edge8_Node000008_Node000006"><a xlink:title=" ">
<path fill="none" stroke="#63b8ff" d="M365.92,-139.5C354.38,-139.5 342.57,-139.5 332.69,-139.5"/>
<polygon fill="#63b8ff" stroke="#63b8ff" points="365.95,-143 375.95,-139.5 365.95,-136 365.95,-143"/>
</a>
</g>
</g>
<!-- Node9&#45;&gt;Node6 -->
<g id="edge10_Node000009_Node000006" class="edge">
<title>Node9&#45;&gt;Node6</title>
<g id="a_edge10_Node000009_Node000006"><a xlink:title=" ">
<path fill="none" stroke="#63b8ff" d="M378.01,-115.35C362.95,-120.58 345.98,-126.48 332.57,-131.14"/>
<polygon fill="#63b8ff" stroke="#63b8ff" points="379.28,-118.62 387.57,-112.03 376.98,-112 379.28,-118.62"/>
</a>
</g>
</g>
<!-- Node11 -->
<g id="Node000011" class="node">
<title>Node11</title>
<g id="a_Node000011"><a xlink:href="classXCS.html#a8a53a8df81152fbf73e6abcc6a6e56b4" target="_top" xlink:title="Default Constructor.">
<polygon fill="white" stroke="#666666" points="340,-94 275,-94 275,-75 340,-75 340,-94"/>
<text text-anchor="middle" x="307.5" y="-82" font-family="Helvetica,sans-Serif" font-size="10.00">XCS::XCS</text>
</a>
</g>
</g>
<!-- Node10&#45;&gt;Node11 -->
<g id="edge12_Node000010_Node000011" class="edge">
<title>Node10&#45;&gt;Node11</title>
<g id="a_edge12_Node000010_Node000011"><a xlink:title=" ">
<path fill="none" stroke="#63b8ff" d="M373.45,-72.91C362.4,-74.88 350.65,-76.98 340.23,-78.84"/>
<polygon fill="#63b8ff" stroke="#63b8ff" points="374.11,-76.35 383.33,-71.15 372.88,-69.46 374.11,-76.35"/>
</a>
</g>
</g>
<!-- Node14 -->
<g id="Node000014" class="node">
<title>Node14</title>
<g id="a_Node000014"><a xlink:href="classXCS.html#a608a50f998819369d28ef9966d6812ca" target="_top" xlink:title="Constructor.">
<polygon fill="white" stroke="#666666" points="340,-57 275,-57 275,-38 340,-38 340,-57"/>
<text text-anchor="middle" x="307.5" y="-45" font-family="Helvetica,sans-Serif" font-size="10.00">XCS::XCS</text>
</a>
</g>
</g>
<!-- Node10&#45;&gt;Node14 -->
<g id="edge15_Node000010_Node000014" class="edge">
<title>Node10&#45;&gt;Node14</title>
<g id="a_edge15_Node000010_Node000014"><a xlink:title=" ">
<path fill="none" stroke="#63b8ff" d="M373.45,-58.48C362.4,-56.61 350.65,-54.62 340.23,-52.86"/>
<polygon fill="#63b8ff" stroke="#63b8ff" points="372.89,-61.93 383.33,-60.15 374.06,-55.03 372.89,-61.93"/>
</a>
</g>
</g>
<!-- Node12 -->
<g id="Node000012" class="node">
<title>Node12</title>
<g id="a_Node000012"><a xlink:href="classXCS.html#a71b21201e1a2aef16702a2c308eb6683" target="_top" xlink:title="Implements pickle file reading.">
<polygon fill="white" stroke="#666666" points="239,-94 149,-94 149,-75 239,-75 239,-94"/>
<text text-anchor="middle" x="194" y="-82" font-family="Helvetica,sans-Serif" font-size="10.00">XCS::deserialize</text>
</a>
</g>
</g>
<!-- Node11&#45;&gt;Node12 -->
<g id="edge13_Node000011_Node000012" class="edge">
<title>Node11&#45;&gt;Node12</title>
<g id="a_edge13_Node000011_Node000012"><a xlink:title=" ">
<path fill="none" stroke="#63b8ff" d="M264.63,-84.5C256.33,-84.5 247.59,-84.5 239.22,-84.5"/>
<polygon fill="#63b8ff" stroke="#63b8ff" points="264.85,-88 274.85,-84.5 264.85,-81 264.85,-88"/>
</a>
</g>
</g>
<!-- Node13 -->
<g id="Node000013" class="node">
<title>Node13</title>
<g id="a_Node000013"><a xlink:href="pybind__wrapper_8cpp.html#a172daba0778fe2bd38d723d5f52a23d5" target="_top" xlink:title=" ">
<polygon fill="white" stroke="#666666" points="113,-94 0,-94 0,-75 113,-75 113,-94"/>
<text text-anchor="middle" x="56.5" y="-82" font-family="Helvetica,sans-Serif" font-size="10.00">PYBIND11_MODULE</text>
</a>
</g>
</g>
<!-- Node12&#45;&gt;Node13 -->
<g id="edge14_Node000012_Node000013" class="edge">
<title>Node12&#45;&gt;Node13</title>
<g id="a_edge14_Node000012_Node000013"><a xlink:title=" ">
<path fill="none" stroke="#63b8ff" d="M138.37,-84.5C130.13,-84.5 121.62,-84.5 113.35,-84.5"/>
<polygon fill="#63b8ff" stroke="#63b8ff" points="138.63,-88 148.63,-84.5 138.63,-81 138.63,-88"/>
</a>
</g>
</g>
<!-- Node16 -->
<g id="Node000016" class="node">
<title>Node16</title>
<g id="a_Node000016"><a xlink:href="condition_8c.html#ac7f09d43efc7400318fe32c917a92292" target="_top" xlink:title="Initialises default condition parameters.">
<polygon fill="white" stroke="#666666" points="702.5,-130 592.5,-130 592.5,-111 702.5,-111 702.5,-130"/>
<text text-anchor="middle" x="647.5" y="-118" font-family="Helvetica,sans-Serif" font-size="10.00">cond_param_defaults</text>
</a>
</g>
</g>
<!-- Node15&#45;&gt;Node16 -->
<g id="edge17_Node000015_Node000016" class="edge">
<title>Node15&#45;&gt;Node16</title>
<g id="a_edge17_Node000015_Node000016"><a xlink:title=" ">
<path fill="none" stroke="#63b8ff" d="M730.69,-120.5C721.28,-120.5 711.86,-120.5 702.92,-120.5"/>
<polygon fill="#63b8ff" stroke="#63b8ff" points="730.86,-124 740.86,-120.5 730.86,-117 730.86,-124"/>
</a>
</g>
</g>
<!-- Node16&#45;&gt;Node4 -->
<g id="edge18_Node000016_Node000004" class="edge">
<title>Node16&#45;&gt;Node4</title>
<g id="a_edge18_Node000016_Node000004"><a xlink:title=" ">
<path fill="none" stroke="#63b8ff" d="M582.25,-120.5C572.5,-120.5 562.85,-120.5 554.29,-120.5"/>
<polygon fill="#63b8ff" stroke="#63b8ff" points="582.41,-124 592.41,-120.5 582.41,-117 582.41,-124"/>
</a>
</g>
</g>
<!-- Node20 -->
<g id="Node000020" class="node">
<title>Node20</title>
<g id="a_Node000020"><a xlink:href="prediction_8c.html#af2e3b26751cb8f9af4c608e534ee6894" target="_top" xlink:title="Initialises default prediction parameters.">
<polygon fill="white" stroke="#666666" points="701,-56 594,-56 594,-37 701,-37 701,-56"/>
<text text-anchor="middle" x="647.5" y="-44" font-family="Helvetica,sans-Serif" font-size="10.00">pred_param_defaults</text>
</a>
</g>
</g>
<!-- Node19&#45;&gt;Node20 -->
<g id="edge22_Node000019_Node000020" class="edge">
<title>Node19&#45;&gt;Node20</title>
<g id="a_edge22_Node000019_Node000020"><a xlink:title=" ">
<path fill="none" stroke="#63b8ff" d="M758.89,-21.29C736.77,-26.34 711.27,-32.16 690.36,-36.94"/>
<polygon fill="#63b8ff" stroke="#63b8ff" points="759.81,-24.67 768.78,-19.03 758.25,-17.84 759.81,-24.67"/>
</a>
</g>
</g>
<!-- Node20&#45;&gt;Node4 -->
<g id="edge23_Node000020_Node000004" class="edge">
<title>Node20&#45;&gt;Node4</title>
<g id="a_edge23_Node000020_Node000004"><a xlink:title=" ">
<path fill="none" stroke="#63b8ff" d="M622.06,-61.26C597.71,-75.97 561,-98.15 540.09,-110.78"/>
<polygon fill="#63b8ff" stroke="#63b8ff" points="623.99,-64.19 630.74,-56.02 620.37,-58.2 623.99,-64.19"/>
</a>
</g>
</g>
</g>
</svg>
