<?xml version="1.0" encoding="UTF-8" standalone="no"?>
<!DOCTYPE svg PUBLIC "-//W3C//DTD SVG 1.1//EN"
 "http://www.w3.org/Graphics/SVG/1.1/DTD/svg11.dtd">
<!-- Generated by graphviz version 2.43.0 (0)
 -->
<!-- Title: layer_free Pages: 1 -->
<svg width="1404pt" height="251pt"
 viewBox="0.00 0.00 1404.00 251.00" xmlns="http://www.w3.org/2000/svg" xmlns:xlink="http://www.w3.org/1999/xlink">
<g id="graph0" class="graph" transform="scale(1 1) rotate(0) translate(4 247)">
<title>layer_free</title>
<!-- Node1 -->
<g id="Node000001" class="node">
<title>Node1</title>
<g id="a_Node000001"><a xlink:title="Frees the memory used by the layer.">
<polygon fill="#999999" stroke="#666666" points="1396,-84 1337,-84 1337,-65 1396,-65 1396,-84"/>
<text text-anchor="middle" x="1366.5" y="-72" font-family="Helvetica,sans-Serif" font-size="10.00">layer_free</text>
</a>
</g>
</g>
<!-- Node2 -->
<g id="Node000002" class="node">
<title>Node2</title>
<g id="a_Node000002"><a xlink:href="neural_8c.html#a9c3e1da0425d0fc17daa12c21e4799ca" target="_top" xlink:title="Frees a neural network.">
<polygon fill="white" stroke="#666666" points="1266.5,-140 1201.5,-140 1201.5,-121 1266.5,-121 1266.5,-140"/>
<text text-anchor="middle" x="1234" y="-128" font-family="Helvetica,sans-Serif" font-size="10.00">neural_free</text>
</a>
</g>
</g>
<!-- Node1&#45;&gt;Node2 -->
<g id="edge1_Node000001_Node000002" class="edge">
<title>Node1&#45;&gt;Node2</title>
<g id="a_edge1_Node000001_Node000002"><a xlink:title=" ">
<path fill="none" stroke="#63b8ff" d="M1343.2,-89.63C1331.12,-97.31 1315.69,-106.3 1301,-112.5 1290.17,-117.07 1277.84,-120.8 1266.8,-123.65"/>
<polygon fill="#63b8ff" stroke="#63b8ff" points="1345.25,-92.47 1351.72,-84.08 1341.43,-86.61 1345.25,-92.47"/>
</a>
</g>
</g>
<!-- Node23 -->
<g id="Node000023" class="node">
<title>Node23</title>
<g id="a_Node000023"><a xlink:href="neural__layer__lstm_8c.html#a5a415724e5bf8ff59f922b80b9a6bdb9" target="_top" xlink:title="Free memory used by an LSTM layer.">
<polygon fill="white" stroke="#666666" points="1291.5,-103 1176.5,-103 1176.5,-84 1291.5,-84 1291.5,-103"/>
<text text-anchor="middle" x="1234" y="-91" font-family="Helvetica,sans-Serif" font-size="10.00">neural_layer_lstm_free</text>
</a>
</g>
</g>
<!-- Node1&#45;&gt;Node23 -->
<g id="edge28_Node000001_Node000023" class="edge">
<title>Node1&#45;&gt;Node23</title>
<g id="a_edge28_Node000001_Node000023"><a xlink:title=" ">
<path fill="none" stroke="#63b8ff" d="M1326.74,-80.14C1315.74,-81.74 1303.53,-83.52 1291.7,-85.24"/>
<polygon fill="#63b8ff" stroke="#63b8ff" points="1327.47,-83.57 1336.86,-78.67 1326.46,-76.65 1327.47,-83.57"/>
</a>
</g>
</g>
<!-- Node24 -->
<g id="Node000024" class="node">
<title>Node24</title>
<g id="a_Node000024"><a xlink:href="neural__layer__recurrent_8c.html#ae432e30b57089c0a3fc6547ebe26616d" target="_top" xlink:title="Free memory used by a recurrent layer.">
<polygon fill="white" stroke="#666666" points="1301,-66 1167,-66 1167,-47 1301,-47 1301,-66"/>
<text text-anchor="middle" x="1234" y="-54" font-family="Helvetica,sans-Serif" font-size="10.00">neural_layer_recurrent_free</text>
</a>
</g>
</g>
<!-- Node1&#45;&gt;Node24 -->
<g id="edge29_Node000001_Node000024" class="edge">
<title>Node1&#45;&gt;Node24</title>
<g id="a_edge29_Node000001_Node000024"><a xlink:title=" ">
<path fill="none" stroke="#63b8ff" d="M1326.91,-69.18C1318.73,-68.05 1309.88,-66.83 1301.01,-65.6"/>
<polygon fill="#63b8ff" stroke="#63b8ff" points="1326.48,-72.65 1336.86,-70.55 1327.43,-65.72 1326.48,-72.65"/>
</a>
</g>
</g>
<!-- Node25 -->
<g id="Node000025" class="node">
<title>Node25</title>
<g id="a_Node000025"><a xlink:href="neural_8c.html#aa21d6a71eb14fd94a17e7937d3ccd6c9" target="_top" xlink:title="Removes a layer from a neural network.">
<polygon fill="white" stroke="#666666" points="1274,-29 1194,-29 1194,-10 1274,-10 1274,-29"/>
<text text-anchor="middle" x="1234" y="-17" font-family="Helvetica,sans-Serif" font-size="10.00">neural_remove</text>
</a>
</g>
</g>
<!-- Node1&#45;&gt;Node25 -->
<g id="edge30_Node000001_Node000025" class="edge">
<title>Node1&#45;&gt;Node25</title>
<g id="a_edge30_Node000001_Node000025"><a xlink:title=" ">
<path fill="none" stroke="#63b8ff" d="M1342.68,-59.5C1330.66,-52.1 1315.44,-43.5 1301,-37.5 1292.55,-33.99 1283.22,-30.97 1274.29,-28.45"/>
<polygon fill="#63b8ff" stroke="#63b8ff" points="1340.86,-62.49 1351.19,-64.87 1344.59,-56.57 1340.86,-62.49"/>
</a>
</g>
</g>
<!-- Node3 -->
<g id="Node000003" class="node">
<title>Node3</title>
<g id="a_Node000003"><a xlink:href="act__neural_8c.html#a344b63c1d2bb91a37a811e7fadc886be" target="_top" xlink:title="Frees the memory used by a neural network action.">
<polygon fill="white" stroke="#666666" points="1114,-214 1031,-214 1031,-195 1114,-195 1114,-214"/>
<text text-anchor="middle" x="1072.5" y="-202" font-family="Helvetica,sans-Serif" font-size="10.00">act_neural_free</text>
</a>
</g>
</g>
<!-- Node2&#45;&gt;Node3 -->
<g id="edge2_Node000002_Node000003" class="edge">
<title>Node2&#45;&gt;Node3</title>
<g id="a_edge2_Node000002_Node000003"><a xlink:title=" ">
<path fill="none" stroke="#63b8ff" d="M1209.37,-145.24C1189.11,-157.43 1158.88,-174.62 1131,-186.5 1123.69,-189.62 1115.65,-192.47 1107.96,-194.94"/>
<polygon fill="#63b8ff" stroke="#63b8ff" points="1211.21,-148.22 1217.93,-140.02 1207.57,-142.24 1211.21,-148.22"/>
</a>
</g>
</g>
<!-- Node4 -->
<g id="Node000004" class="node">
<title>Node4</title>
<g id="a_Node000004"><a xlink:href="cond__neural_8c.html#a3007869b0307eac31742ebdcb88f2a5a" target="_top" xlink:title="Frees the memory used by a neural network condition.">
<polygon fill="white" stroke="#666666" points="1118,-177 1027,-177 1027,-158 1118,-158 1118,-177"/>
<text text-anchor="middle" x="1072.5" y="-165" font-family="Helvetica,sans-Serif" font-size="10.00">cond_neural_free</text>
</a>
</g>
</g>
<!-- Node2&#45;&gt;Node4 -->
<g id="edge3_Node000002_Node000004" class="edge">
<title>Node2&#45;&gt;Node4</title>
<g id="a_edge3_Node000002_Node000004"><a xlink:title=" ">
<path fill="none" stroke="#63b8ff" d="M1191.72,-140.07C1168.01,-145.58 1138.32,-152.46 1114.63,-157.96"/>
<polygon fill="#63b8ff" stroke="#63b8ff" points="1192.54,-143.48 1201.49,-137.81 1190.96,-136.66 1192.54,-143.48"/>
</a>
</g>
</g>
<!-- Node5 -->
<g id="Node000005" class="node">
<title>Node5</title>
<g id="a_Node000005"><a xlink:href="neural__layer__args_8c.html#a91be60f1596b4940ddfe3aa08a72ea9d" target="_top" xlink:title="Returns a json formatted string of the neural layer parameters.">
<polygon fill="white" stroke="#666666" points="1131,-140 1014,-140 1014,-121 1131,-121 1131,-140"/>
<text text-anchor="middle" x="1072.5" y="-128" font-family="Helvetica,sans-Serif" font-size="10.00">layer_args_json_export</text>
</a>
</g>
</g>
<!-- Node2&#45;&gt;Node5 -->
<g id="edge4_Node000002_Node000005" class="edge">
<title>Node2&#45;&gt;Node5</title>
<g id="a_edge4_Node000002_Node000005"><a xlink:title=" ">
<path fill="none" stroke="#63b8ff" d="M1191.38,-130.5C1172.98,-130.5 1151.03,-130.5 1131.09,-130.5"/>
<polygon fill="#63b8ff" stroke="#63b8ff" points="1191.49,-134 1201.49,-130.5 1191.49,-127 1191.49,-134"/>
</a>
</g>
</g>
<!-- Node21 -->
<g id="Node000021" class="node">
<title>Node21</title>
<g id="a_Node000021"><a xlink:href="pred__neural_8c.html#a82da5a504ede83fcfc72182c0f246c15" target="_top" xlink:title="Frees the memory used by a neural network prediction.">
<polygon fill="white" stroke="#666666" points="1117,-103 1028,-103 1028,-84 1117,-84 1117,-103"/>
<text text-anchor="middle" x="1072.5" y="-91" font-family="Helvetica,sans-Serif" font-size="10.00">pred_neural_free</text>
</a>
</g>
</g>
<!-- Node2&#45;&gt;Node21 -->
<g id="edge26_Node000002_Node000021" class="edge">
<title>Node2&#45;&gt;Node21</title>
<g id="a_edge26_Node000002_Node000021"><a xlink:title=" ">
<path fill="none" stroke="#63b8ff" d="M1191.72,-120.93C1168.01,-115.42 1138.32,-108.54 1114.63,-103.04"/>
<polygon fill="#63b8ff" stroke="#63b8ff" points="1190.96,-124.34 1201.49,-123.19 1192.54,-117.52 1190.96,-124.34"/>
</a>
</g>
</g>
<!-- Node22 -->
<g id="Node000022" class="node">
<title>Node22</title>
<g id="a_Node000022"><a xlink:href="rule__neural_8c.html#a70e418c499c0374927b5edd6c8b618d0" target="_top" xlink:title=" ">
<polygon fill="white" stroke="#666666" points="1128.5,-66 1016.5,-66 1016.5,-47 1128.5,-47 1128.5,-66"/>
<text text-anchor="middle" x="1072.5" y="-54" font-family="Helvetica,sans-Serif" font-size="10.00">rule_neural_cond_free</text>
</a>
</g>
</g>
<!-- Node2&#45;&gt;Node22 -->
<g id="edge27_Node000002_Node000022" class="edge">
<title>Node2&#45;&gt;Node22</title>
<g id="a_edge27_Node000002_Node000022"><a xlink:title=" ">
<path fill="none" stroke="#63b8ff" d="M1191.55,-122.91C1183.08,-120.36 1174.47,-116.97 1167,-112.5 1147.04,-100.55 1150.74,-86.82 1131,-74.5 1125.59,-71.12 1119.49,-68.33 1113.34,-66.04"/>
<polygon fill="#63b8ff" stroke="#63b8ff" points="1190.8,-126.34 1201.37,-125.55 1192.62,-119.58 1190.8,-126.34"/>
</a>
</g>
</g>
<!-- Node6 -->
<g id="Node000006" class="node">
<title>Node6</title>
<g id="a_Node000006"><a xlink:href="action_8c.html#abc3d337a565dc94c88faa33472505c3e" target="_top" xlink:title="Returns a json formatted string of the action parameters.">
<polygon fill="white" stroke="#666666" points="973.5,-177 842.5,-177 842.5,-158 973.5,-158 973.5,-177"/>
<text text-anchor="middle" x="908" y="-165" font-family="Helvetica,sans-Serif" font-size="10.00">action_param_json_export</text>
</a>
</g>
</g>
<!-- Node5&#45;&gt;Node6 -->
<g id="edge5_Node000005_Node000006" class="edge">
<title>Node5&#45;&gt;Node6</title>
<g id="a_edge5_Node000005_Node000006"><a xlink:title=" ">
<path fill="none" stroke="#63b8ff" d="M1019.73,-142.29C997.54,-147.34 971.97,-153.16 950.99,-157.94"/>
<polygon fill="#63b8ff" stroke="#63b8ff" points="1020.68,-145.66 1029.65,-140.03 1019.12,-138.84 1020.68,-145.66"/>
</a>
</g>
</g>
<!-- Node19 -->
<g id="Node000019" class="node">
<title>Node19</title>
<g id="a_Node000019"><a xlink:href="condition_8c.html#ab1e3bf6514986d3bce77a73ce910047e" target="_top" xlink:title="Returns a json formatted string of the condition parameters.">
<polygon fill="white" stroke="#666666" points="970.5,-140 845.5,-140 845.5,-121 970.5,-121 970.5,-140"/>
<text text-anchor="middle" x="908" y="-128" font-family="Helvetica,sans-Serif" font-size="10.00">cond_param_json_export</text>
</a>
</g>
</g>
<!-- Node5&#45;&gt;Node19 -->
<g id="edge22_Node000005_Node000019" class="edge">
<title>Node5&#45;&gt;Node19</title>
<g id="a_edge22_Node000005_Node000019"><a xlink:title=" ">
<path fill="none" stroke="#63b8ff" d="M1003.46,-130.5C992.59,-130.5 981.4,-130.5 970.69,-130.5"/>
<polygon fill="#63b8ff" stroke="#63b8ff" points="1003.75,-134 1013.75,-130.5 1003.75,-127 1003.75,-134"/>
</a>
</g>
</g>
<!-- Node20 -->
<g id="Node000020" class="node">
<title>Node20</title>
<g id="a_Node000020"><a xlink:href="prediction_8c.html#ac363177fac13104615104df74c5dcac4" target="_top" xlink:title="Returns a json formatted string of the prediction parameters.">
<polygon fill="white" stroke="#666666" points="969.5,-103 846.5,-103 846.5,-84 969.5,-84 969.5,-103"/>
<text text-anchor="middle" x="908" y="-91" font-family="Helvetica,sans-Serif" font-size="10.00">pred_param_json_export</text>
</a>
</g>
</g>
<!-- Node5&#45;&gt;Node20 -->
<g id="edge24_Node000005_Node000020" class="edge">
<title>Node5&#45;&gt;Node20</title>
<g id="a_edge24_Node000005_Node000020"><a xlink:title=" ">
<path fill="none" stroke="#63b8ff" d="M1019.73,-118.71C997.54,-113.66 971.97,-107.84 950.99,-103.06"/>
<polygon fill="#63b8ff" stroke="#63b8ff" points="1019.12,-122.16 1029.65,-120.97 1020.68,-115.34 1019.12,-122.16"/>
</a>
</g>
</g>
<!-- Node7 -->
<g id="Node000007" class="node">
<title>Node7</title>
<g id="a_Node000007"><a xlink:href="param_8c.html#a6deea84ba84241d90aba6317656598a4" target="_top" xlink:title="Returns a json formatted string representation of the parameters.">
<polygon fill="white" stroke="#666666" points="797,-150 698,-150 698,-131 797,-131 797,-150"/>
<text text-anchor="middle" x="747.5" y="-138" font-family="Helvetica,sans-Serif" font-size="10.00">param_json_export</text>
</a>
</g>
</g>
<!-- Node6&#45;&gt;Node7 -->
<g id="edge6_Node000006_Node000007" class="edge">
<title>Node6&#45;&gt;Node7</title>
<g id="a_edge6_Node000006_Node000007"><a xlink:title=" ">
<path fill="none" stroke="#63b8ff" d="M841.04,-156.26C826.3,-153.75 810.92,-151.13 797.04,-148.77"/>
<polygon fill="#63b8ff" stroke="#63b8ff" points="840.67,-159.75 851.12,-157.98 841.85,-152.85 840.67,-159.75"/>
</a>
</g>
</g>
<!-- Node8 -->
<g id="Node000008" class="node">
<title>Node8</title>
<g id="a_Node000008"><a xlink:href="classXCS.html#a2f70d3a3365697faaa1cf120a6485ba8" target="_top" xlink:title="Returns a dictionary of the internal parameters.">
<polygon fill="white" stroke="#666666" points="262,-225 149,-225 149,-206 262,-206 262,-225"/>
<text text-anchor="middle" x="205.5" y="-213" font-family="Helvetica,sans-Serif" font-size="10.00">XCS::internal_params</text>
</a>
</g>
</g>
<!-- Node7&#45;&gt;Node8 -->
<g id="edge7_Node000007_Node000008" class="edge">
<title>Node7&#45;&gt;Node8</title>
<g id="a_edge7_Node000007_Node000008"><a xlink:title=" ">
<path fill="none" stroke="#63b8ff" d="M716.71,-154.45C699.5,-162.18 677.31,-171.59 657,-178.5 593.53,-200.1 577.51,-207.99 511,-216.5 424.61,-227.56 323.3,-223.97 262.05,-220.01"/>
<polygon fill="#63b8ff" stroke="#63b8ff" points="718.56,-157.45 726.21,-150.13 715.66,-151.08 718.56,-157.45"/>
</a>
</g>
</g>
<!-- Node10 -->
<g id="Node000010" class="node">
<title>Node10</title>
<g id="a_Node000010"><a xlink:href="param_8c.html#a1e92bde5285ed6ded96ba4af5fd27bd2" target="_top" xlink:title="Prints all XCSF parameters.">
<polygon fill="white" stroke="#666666" points="636,-169 568,-169 568,-150 636,-150 636,-169"/>
<text text-anchor="middle" x="602" y="-157" font-family="Helvetica,sans-Serif" font-size="10.00">param_print</text>
</a>
</g>
</g>
<!-- Node7&#45;&gt;Node10 -->
<g id="edge10_Node000007_Node000010" class="edge">
<title>Node7&#45;&gt;Node10</title>
<g id="a_edge10_Node000007_Node000010"><a xlink:title=" ">
<path fill="none" stroke="#63b8ff" d="M687.72,-148.28C670.14,-150.61 651.48,-153.08 636.16,-155.11"/>
<polygon fill="#63b8ff" stroke="#63b8ff" points="688.46,-151.71 697.92,-146.93 687.54,-144.78 688.46,-151.71"/>
</a>
</g>
</g>
<!-- Node13 -->
<g id="Node000013" class="node">
<title>Node13</title>
<g id="a_Node000013"><a xlink:href="classXCS.html#ae0f45d78bb598a31d8068c3ca3242e2c" target="_top" xlink:title="Updates the Python object&#39;s parameter dictionary.">
<polygon fill="white" stroke="#666666" points="657,-131 547,-131 547,-112 657,-112 657,-131"/>
<text text-anchor="middle" x="602" y="-119" font-family="Helvetica,sans-Serif" font-size="10.00">XCS::update_params</text>
</a>
</g>
</g>
<!-- Node7&#45;&gt;Node13 -->
<g id="edge14_Node000007_Node000013" class="edge">
<title>Node7&#45;&gt;Node13</title>
<g id="a_edge14_Node000007_Node000013"><a xlink:title=" ">
<path fill="none" stroke="#63b8ff" d="M687.98,-132.75C677.89,-131.42 667.43,-130.03 657.46,-128.71"/>
<polygon fill="#63b8ff" stroke="#63b8ff" points="687.54,-136.22 697.92,-134.07 688.46,-129.29 687.54,-136.22"/>
</a>
</g>
</g>
<!-- Node8&#45;&gt;Node8 -->
<g id="edge8_Node000008_Node000008" class="edge">
<title>Node8&#45;&gt;Node8</title>
<g id="a_edge8_Node000008_Node000008"><a xlink:title=" ">
<path fill="none" stroke="#63b8ff" d="M233.03,-234.19C231.53,-239.2 222.35,-243 205.5,-243 179.2,-243 171.59,-233.73 182.69,-225.08"/>
<polygon fill="#63b8ff" stroke="#63b8ff" points="236.02,-232.35 228.31,-225.08 229.8,-235.57 236.02,-232.35"/>
</a>
</g>
</g>
<!-- Node9 -->
<g id="Node000009" class="node">
<title>Node9</title>
<g id="a_Node000009"><a xlink:href="pybind__wrapper_8cpp.html#a172daba0778fe2bd38d723d5f52a23d5" target="_top" xlink:title=" ">
<polygon fill="white" stroke="#666666" points="113,-131 0,-131 0,-112 113,-112 113,-131"/>
<text text-anchor="middle" x="56.5" y="-119" font-family="Helvetica,sans-Serif" font-size="10.00">PYBIND11_MODULE</text>
</a>
</g>
</g>
<!-- Node8&#45;&gt;Node9 -->
<g id="edge9_Node000008_Node000009" class="edge">
<title>Node8&#45;&gt;Node9</title>
<g id="a_edge9_Node000008_Node000009"><a xlink:title=" ">
<path fill="none" stroke="#63b8ff" d="M180.87,-200.39C150.31,-180.85 98,-147.4 72.44,-131.06"/>
<polygon fill="#63b8ff" stroke="#63b8ff" points="179.29,-203.53 189.6,-205.97 183.06,-197.63 179.29,-203.53"/>
</a>
</g>
</g>
<!-- Node11 -->
<g id="Node000011" class="node">
<title>Node11</title>
<g id="a_Node000011"><a xlink:href="main_8c.html#a3c04138a5bfe5d72780bb7e82a18e627" target="_top" xlink:title=" ">
<polygon fill="white" stroke="#666666" points="497.5,-207 459.5,-207 459.5,-188 497.5,-188 497.5,-207"/>
<text text-anchor="middle" x="478.5" y="-195" font-family="Helvetica,sans-Serif" font-size="10.00">main</text>
</a>
</g>
</g>
<!-- Node10&#45;&gt;Node11 -->
<g id="edge11_Node000010_Node000011" class="edge">
<title>Node10&#45;&gt;Node11</title>
<g id="a_edge11_Node000010_Node000011"><a xlink:title=" ">
<path fill="none" stroke="#63b8ff" d="M560.56,-172.15C539.28,-178.8 514.24,-186.64 497.68,-191.81"/>
<polygon fill="#63b8ff" stroke="#63b8ff" points="561.84,-175.41 570.34,-169.09 559.75,-168.73 561.84,-175.41"/>
</a>
</g>
</g>
<!-- Node12 -->
<g id="Node000012" class="node">
<title>Node12</title>
<g id="a_Node000012"><a xlink:href="classXCS.html#a7731d72fe05a86f0d9bc67939fd56182" target="_top" xlink:title="Prints the XCSF parameters and their current values.">
<polygon fill="white" stroke="#666666" points="255.5,-169 155.5,-169 155.5,-150 255.5,-150 255.5,-169"/>
<text text-anchor="middle" x="205.5" y="-157" font-family="Helvetica,sans-Serif" font-size="10.00">XCS::print_params</text>
</a>
</g>
</g>
<!-- Node10&#45;&gt;Node12 -->
<g id="edge12_Node000010_Node000012" class="edge">
<title>Node10&#45;&gt;Node12</title>
<g id="a_edge12_Node000010_Node000012"><a xlink:title=" ">
<path fill="none" stroke="#63b8ff" d="M557.34,-159.5C483.21,-159.5 333.27,-159.5 255.61,-159.5"/>
<polygon fill="#63b8ff" stroke="#63b8ff" points="557.71,-163 567.71,-159.5 557.71,-156 557.71,-163"/>
</a>
</g>
</g>
<!-- Node12&#45;&gt;Node9 -->
<g id="edge13_Node000012_Node000009" class="edge">
<title>Node12&#45;&gt;Node9</title>
<g id="a_edge13_Node000012_Node000009"><a xlink:title=" ">
<path fill="none" stroke="#63b8ff" d="M157.65,-147.39C137.17,-142.1 113.51,-135.98 94.33,-131.02"/>
<polygon fill="#63b8ff" stroke="#63b8ff" points="156.85,-150.8 167.41,-149.91 158.6,-144.02 156.85,-150.8"/>
</a>
</g>
</g>
<!-- Node14 -->
<g id="Node000014" class="node">
<title>Node14</title>
<g id="a_Node000014"><a xlink:href="classXCS.html#a1a7ff32cb3485c0de9dd988f6f3e3470" target="_top" xlink:title="Reads the entire current state of XCSF from a file.">
<polygon fill="white" stroke="#666666" points="509.5,-131 447.5,-131 447.5,-112 509.5,-112 509.5,-131"/>
<text text-anchor="middle" x="478.5" y="-119" font-family="Helvetica,sans-Serif" font-size="10.00">XCS::load</text>
</a>
</g>
</g>
<!-- Node13&#45;&gt;Node14 -->
<g id="edge15_Node000013_Node000014" class="edge">
<title>Node13&#45;&gt;Node14</title>
<g id="a_edge15_Node000013_Node000014"><a xlink:title=" ">
<path fill="none" stroke="#63b8ff" d="M536.44,-121.5C527.04,-121.5 517.75,-121.5 509.5,-121.5"/>
<polygon fill="#63b8ff" stroke="#63b8ff" points="536.65,-125 546.65,-121.5 536.65,-118 536.65,-125"/>
</a>
</g>
</g>
<!-- Node15 -->
<g id="Node000015" class="node">
<title>Node15</title>
<g id="a_Node000015"><a xlink:href="classXCS.html#a2e542f3f17c9c76d07045adf1f5c16f9" target="_top" xlink:title="Resets basic constructor variables.">
<polygon fill="white" stroke="#666666" points="511,-93 446,-93 446,-74 511,-74 511,-93"/>
<text text-anchor="middle" x="478.5" y="-81" font-family="Helvetica,sans-Serif" font-size="10.00">XCS::reset</text>
</a>
</g>
</g>
<!-- Node13&#45;&gt;Node15 -->
<g id="edge17_Node000013_Node000015" class="edge">
<title>Node13&#45;&gt;Node15</title>
<g id="a_edge17_Node000013_Node000015"><a xlink:title=" ">
<path fill="none" stroke="#63b8ff" d="M560.46,-108.82C544.04,-103.69 525.4,-97.86 510.15,-93.09"/>
<polygon fill="#63b8ff" stroke="#63b8ff" points="559.75,-112.27 570.34,-111.91 561.84,-105.59 559.75,-112.27"/>
</a>
</g>
</g>
<!-- Node14&#45;&gt;Node9 -->
<g id="edge16_Node000014_Node000009" class="edge">
<title>Node14&#45;&gt;Node9</title>
<g id="a_edge16_Node000014_Node000009"><a xlink:title=" ">
<path fill="none" stroke="#63b8ff" d="M437.25,-121.5C361.86,-121.5 199.22,-121.5 113.3,-121.5"/>
<polygon fill="#63b8ff" stroke="#63b8ff" points="437.29,-125 447.29,-121.5 437.29,-118 437.29,-125"/>
</a>
</g>
</g>
<!-- Node16 -->
<g id="Node000016" class="node">
<title>Node16</title>
<g id="a_Node000016"><a xlink:href="classXCS.html#a8a53a8df81152fbf73e6abcc6a6e56b4" target="_top" xlink:title="Default Constructor.">
<polygon fill="white" stroke="#666666" points="386.5,-93 321.5,-93 321.5,-74 386.5,-74 386.5,-93"/>
<text text-anchor="middle" x="354" y="-81" font-family="Helvetica,sans-Serif" font-size="10.00">XCS::XCS</text>
</a>
</g>
</g>
<!-- Node15&#45;&gt;Node16 -->
<g id="edge18_Node000015_Node000016" class="edge">
<title>Node15&#45;&gt;Node16</title>
<g id="a_edge18_Node000015_Node000016"><a xlink:title=" ">
<path fill="none" stroke="#63b8ff" d="M435.78,-83.5C419.78,-83.5 401.8,-83.5 386.87,-83.5"/>
<polygon fill="#63b8ff" stroke="#63b8ff" points="435.95,-87 445.95,-83.5 435.95,-80 435.95,-87"/>
</a>
</g>
</g>
<!-- Node18 -->
<g id="Node000018" class="node">
<title>Node18</title>
<g id="a_Node000018"><a xlink:href="classXCS.html#a608a50f998819369d28ef9966d6812ca" target="_top" xlink:title="Constructor.">
<polygon fill="white" stroke="#666666" points="386.5,-56 321.5,-56 321.5,-37 386.5,-37 386.5,-56"/>
<text text-anchor="middle" x="354" y="-44" font-family="Helvetica,sans-Serif" font-size="10.00">XCS::XCS</text>
</a>
</g>
</g>
<!-- Node15&#45;&gt;Node18 -->
<g id="edge21_Node000015_Node000018" class="edge">
<title>Node15&#45;&gt;Node18</title>
<g id="a_edge21_Node000015_Node000018"><a xlink:title=" ">
<path fill="none" stroke="#63b8ff" d="M436.24,-71.04C420.12,-66.17 401.94,-60.68 386.87,-56.12"/>
<polygon fill="#63b8ff" stroke="#63b8ff" points="435.37,-74.43 445.95,-73.97 437.39,-67.73 435.37,-74.43"/>
</a>
</g>
</g>
<!-- Node17 -->
<g id="Node000017" class="node">
<title>Node17</title>
<g id="a_Node000017"><a xlink:href="classXCS.html#a71b21201e1a2aef16702a2c308eb6683" target="_top" xlink:title="Implements pickle file reading.">
<polygon fill="white" stroke="#666666" points="250.5,-93 160.5,-93 160.5,-74 250.5,-74 250.5,-93"/>
<text text-anchor="middle" x="205.5" y="-81" font-family="Helvetica,sans-Serif" font-size="10.00">XCS::deserialize</text>
</a>
</g>
</g>
<!-- Node16&#45;&gt;Node17 -->
<g id="edge19_Node000016_Node000017" class="edge">
<title>Node16&#45;&gt;Node17</title>
<g id="a_edge19_Node000016_Node000017"><a xlink:title=" ">
<path fill="none" stroke="#63b8ff" d="M311.11,-83.5C292.22,-83.5 269.89,-83.5 250.73,-83.5"/>
<polygon fill="#63b8ff" stroke="#63b8ff" points="311.21,-87 321.21,-83.5 311.21,-80 311.21,-87"/>
</a>
</g>
</g>
<!-- Node17&#45;&gt;Node9 -->
<g id="edge20_Node000017_Node000009" class="edge">
<title>Node17&#45;&gt;Node9</title>
<g id="a_edge20_Node000017_Node000009"><a xlink:title=" ">
<path fill="none" stroke="#63b8ff" d="M157.65,-95.61C137.17,-100.9 113.51,-107.02 94.33,-111.98"/>
<polygon fill="#63b8ff" stroke="#63b8ff" points="158.6,-98.98 167.41,-93.09 156.85,-92.2 158.6,-98.98"/>
</a>
</g>
</g>
<!-- Node19&#45;&gt;Node7 -->
<g id="edge23_Node000019_Node000007" class="edge">
<title>Node19&#45;&gt;Node7</title>
<g id="a_edge23_Node000019_Node000007"><a xlink:title=" ">
<path fill="none" stroke="#63b8ff" d="M835.04,-135.04C822.18,-135.85 809.07,-136.68 797.06,-137.44"/>
<polygon fill="#63b8ff" stroke="#63b8ff" points="835.51,-138.52 845.27,-134.39 835.07,-131.53 835.51,-138.52"/>
</a>
</g>
</g>
<!-- Node20&#45;&gt;Node7 -->
<g id="edge25_Node000020_Node000007" class="edge">
<title>Node20&#45;&gt;Node7</title>
<g id="a_edge25_Node000020_Node000007"><a xlink:title=" ">
<path fill="none" stroke="#63b8ff" d="M861.65,-105.75C853.75,-107.95 845.63,-110.26 838,-112.5 818.01,-118.38 795.63,-125.38 778.26,-130.91"/>
<polygon fill="#63b8ff" stroke="#63b8ff" points="862.77,-109.07 871.48,-103.03 860.91,-102.32 862.77,-109.07"/>
</a>
</g>
</g>
<!-- Node26 -->
<g id="Node000026" class="node">
<title>Node26</title>
<g id="a_Node000026"><a xlink:href="neural_8c.html#af2d255733445f37ec77b106a21215baf" target="_top" xlink:title="Removes the layer at the head of a neural network.">
<polygon fill="white" stroke="#666666" points="1104.5,-29 1040.5,-29 1040.5,-10 1104.5,-10 1104.5,-29"/>
<text text-anchor="middle" x="1072.5" y="-17" font-family="Helvetica,sans-Serif" font-size="10.00">neural_pop</text>
</a>
</g>
</g>
<!-- Node25&#45;&gt;Node26 -->
<g id="edge31_Node000025_Node000026" class="edge">
<title>Node25&#45;&gt;Node26</title>
<g id="a_edge31_Node000025_Node000026"><a xlink:title=" ">
<path fill="none" stroke="#63b8ff" d="M1183.64,-19.5C1157.86,-19.5 1127.1,-19.5 1104.65,-19.5"/>
<polygon fill="#63b8ff" stroke="#63b8ff" points="1183.98,-23 1193.98,-19.5 1183.98,-16 1183.98,-23"/>
</a>
</g>
</g>
<!-- Node27 -->
<g id="Node000027" class="node">
<title>Node27</title>
<g id="a_Node000027"><a xlink:href="pred__neural_8c.html#aa639a9130cac0c222bca241f86d6c135" target="_top" xlink:title="Removes prediction (decoder) layers and inserts softmax output layer.">
<polygon fill="white" stroke="#666666" points="978,-19 838,-19 838,0 978,0 978,-19"/>
<text text-anchor="middle" x="908" y="-7" font-family="Helvetica,sans-Serif" font-size="10.00">pred_neural_ae_to_classifier</text>
</a>
</g>
</g>
<!-- Node26&#45;&gt;Node27 -->
<g id="edge32_Node000026_Node000027" class="edge">
<title>Node26&#45;&gt;Node27</title>
<g id="a_edge32_Node000026_Node000027"><a xlink:title=" ">
<path fill="none" stroke="#63b8ff" d="M1029.76,-16.93C1014.07,-15.97 995.78,-14.84 978.25,-13.76"/>
<polygon fill="#63b8ff" stroke="#63b8ff" points="1029.97,-20.45 1040.17,-17.57 1030.4,-13.46 1029.97,-20.45"/>
</a>
</g>
</g>
<!-- Node28 -->
<g id="Node000028" class="node">
<title>Node28</title>
<g id="a_Node000028"><a xlink:href="xcsf_8c.html#ad77461184a11780681798ac593b090ab" target="_top" xlink:title="Switches from autoencoding to classification.">
<polygon fill="white" stroke="#666666" points="802,-19 693,-19 693,0 802,0 802,-19"/>
<text text-anchor="middle" x="747.5" y="-7" font-family="Helvetica,sans-Serif" font-size="10.00">xcsf_ae_to_classifier</text>
</a>
</g>
</g>
<!-- Node27&#45;&gt;Node28 -->
<g id="edge33_Node000027_Node000028" class="edge">
<title>Node27&#45;&gt;Node28</title>
<g id="a_edge33_Node000027_Node000028"><a xlink:title=" ">
<path fill="none" stroke="#63b8ff" d="M827.75,-9.5C819.06,-9.5 810.36,-9.5 802.08,-9.5"/>
<polygon fill="#63b8ff" stroke="#63b8ff" points="827.94,-13 837.94,-9.5 827.94,-6 827.94,-13"/>
</a>
</g>
</g>
<!-- Node29 -->
<g id="Node000029" class="node">
<title>Node29</title>
<g id="a_Node000029"><a xlink:href="classXCS.html#ad73009d926d395ee03bf7586f194fcbe" target="_top" xlink:title="Switches from autoencoding to classification.">
<polygon fill="white" stroke="#666666" points="410,-19 298,-19 298,0 410,0 410,-19"/>
<text text-anchor="middle" x="354" y="-7" font-family="Helvetica,sans-Serif" font-size="10.00">XCS::ae_to_classifier</text>
</a>
</g>
</g>
<!-- Node28&#45;&gt;Node29 -->
<g id="edge34_Node000028_Node000029" class="edge">
<title>Node28&#45;&gt;Node29</title>
<g id="a_edge34_Node000028_Node000029"><a xlink:title=" ">
<path fill="none" stroke="#63b8ff" d="M682.53,-9.5C606.78,-9.5 481.86,-9.5 410.17,-9.5"/>
<polygon fill="#63b8ff" stroke="#63b8ff" points="682.88,-13 692.88,-9.5 682.88,-6 682.88,-13"/>
</a>
</g>
</g>
<!-- Node29&#45;&gt;Node9 -->
<g id="edge35_Node000029_Node000009" class="edge">
<title>Node29&#45;&gt;Node9</title>
<g id="a_edge35_Node000029_Node000009"><a xlink:title=" ">
<path fill="none" stroke="#63b8ff" d="M291.37,-21.17C250.05,-30.17 194.99,-44.5 149,-64.5 118.97,-77.56 87.24,-99.4 70.16,-111.91"/>
<polygon fill="#63b8ff" stroke="#63b8ff" points="292.24,-24.56 301.29,-19.05 290.78,-17.71 292.24,-24.56"/>
</a>
</g>
</g>
</g>
</svg>
