<?xml version="1.0" encoding="UTF-8" standalone="no"?>
<!DOCTYPE svg PUBLIC "-//W3C//DTD SVG 1.1//EN"
 "http://www.w3.org/Graphics/SVG/1.1/DTD/svg11.dtd">
<!-- Generated by graphviz version 2.43.0 (0)
 -->
<!-- Title: layer_args_free Pages: 1 -->
<svg width="474pt" height="256pt"
 viewBox="0.00 0.00 474.00 256.00" xmlns="http://www.w3.org/2000/svg" xmlns:xlink="http://www.w3.org/1999/xlink">
<g id="graph0" class="graph" transform="scale(1 1) rotate(0) translate(4 252)">
<title>layer_args_free</title>
<!-- Node1 -->
<g id="node1" class="node">
<title>Node1</title>
<g id="a_node1"><a xlink:title="Frees memory used by a list of layer parameters and points to NULL.">
<polygon fill="#bfbfbf" stroke="black" points="383,-114.5 383,-133.5 466,-133.5 466,-114.5 383,-114.5"/>
<text text-anchor="middle" x="424.5" y="-121.5" font-family="Helvetica,sans-Serif" font-size="10.00">layer_args_free</text>
</a>
</g>
</g>
<!-- Node2 -->
<g id="node2" class="node">
<title>Node2</title>
<g id="a_node2"><a xlink:href="action_8h.html#acc202dbe3c6a1d3f745383aec209c780" target="_top" xlink:title="Frees action parameters.">
<polygon fill="none" stroke="black" points="232,-228.5 232,-247.5 329,-247.5 329,-228.5 232,-228.5"/>
<text text-anchor="middle" x="280.5" y="-235.5" font-family="Helvetica,sans-Serif" font-size="10.00">action_param_free</text>
</a>
</g>
</g>
<!-- Node1&#45;&gt;Node2 -->
<g id="edge1" class="edge">
<title>Node1&#45;&gt;Node2</title>
<path fill="none" stroke="midnightblue" d="M413.34,-142.55C400.61,-164.07 376.8,-199.15 347,-219 341.19,-222.87 334.57,-225.97 327.84,-228.44"/>
<polygon fill="midnightblue" stroke="midnightblue" points="416.47,-144.13 418.39,-133.71 410.39,-140.66 416.47,-144.13"/>
</g>
<!-- Node5 -->
<g id="node5" class="node">
<title>Node5</title>
<g id="a_node5"><a xlink:href="condition_8h.html#af22e6e5a357ef08e482555291cfc612b" target="_top" xlink:title="Frees condition parameters.">
<polygon fill="none" stroke="black" points="234.5,-190.5 234.5,-209.5 326.5,-209.5 326.5,-190.5 234.5,-190.5"/>
<text text-anchor="middle" x="280.5" y="-197.5" font-family="Helvetica,sans-Serif" font-size="10.00">cond_param_free</text>
</a>
</g>
</g>
<!-- Node1&#45;&gt;Node5 -->
<g id="edge4" class="edge">
<title>Node1&#45;&gt;Node5</title>
<path fill="none" stroke="midnightblue" d="M405.09,-140.71C390.33,-153.34 368.57,-170.28 347,-181 339.47,-184.74 331.08,-187.87 322.89,-190.44"/>
<polygon fill="midnightblue" stroke="midnightblue" points="407.71,-143.07 412.92,-133.85 403.1,-137.8 407.71,-143.07"/>
</g>
<!-- Node6 -->
<g id="node6" class="node">
<title>Node6</title>
<g id="a_node6"><a xlink:href="config_8h.html#a045a64a30d99a4bef2ebfd9b54aa9698" target="_top" xlink:title="Reads the specified configuration file.">
<polygon fill="none" stroke="black" points="247,-114.5 247,-133.5 314,-133.5 314,-114.5 247,-114.5"/>
<text text-anchor="middle" x="280.5" y="-121.5" font-family="Helvetica,sans-Serif" font-size="10.00">config_read</text>
</a>
</g>
</g>
<!-- Node1&#45;&gt;Node6 -->
<g id="edge6" class="edge">
<title>Node1&#45;&gt;Node6</title>
<path fill="none" stroke="midnightblue" d="M372.56,-124C353.08,-124 331.4,-124 314.09,-124"/>
<polygon fill="midnightblue" stroke="midnightblue" points="372.81,-127.5 382.81,-124 372.81,-120.5 372.81,-127.5"/>
</g>
<!-- Node8 -->
<g id="node8" class="node">
<title>Node8</title>
<g id="a_node8"><a xlink:href="prediction_8h.html#a05bc6d7f4f01d3891fe4af373f0b573d" target="_top" xlink:title="Frees prediction parameters.">
<polygon fill="none" stroke="black" points="236,-152.5 236,-171.5 325,-171.5 325,-152.5 236,-152.5"/>
<text text-anchor="middle" x="280.5" y="-159.5" font-family="Helvetica,sans-Serif" font-size="10.00">pred_param_free</text>
</a>
</g>
</g>
<!-- Node1&#45;&gt;Node8 -->
<g id="edge9" class="edge">
<title>Node1&#45;&gt;Node8</title>
<path fill="none" stroke="midnightblue" d="M378.01,-136.17C358.37,-141.43 335.73,-147.49 317.32,-152.41"/>
<polygon fill="midnightblue" stroke="midnightblue" points="378.91,-139.56 387.67,-133.59 377.1,-132.79 378.91,-139.56"/>
</g>
<!-- Node9 -->
<g id="node9" class="node">
<title>Node9</title>
<g id="a_node9"><a xlink:href="classXCS.html#ab2cbd5508c5e8c59db839695c9d0d539" target="_top" xlink:title="Sets parameters used by neural network actions.">
<polygon fill="none" stroke="black" points="218,-76.5 218,-95.5 343,-95.5 343,-76.5 218,-76.5"/>
<text text-anchor="middle" x="280.5" y="-83.5" font-family="Helvetica,sans-Serif" font-size="10.00">XCS::unpack_act_neural</text>
</a>
</g>
</g>
<!-- Node1&#45;&gt;Node9 -->
<g id="edge11" class="edge">
<title>Node1&#45;&gt;Node9</title>
<path fill="none" stroke="midnightblue" d="M378.01,-111.83C358.37,-106.57 335.73,-100.51 317.32,-95.59"/>
<polygon fill="midnightblue" stroke="midnightblue" points="377.1,-115.21 387.67,-114.41 378.91,-108.44 377.1,-115.21"/>
</g>
<!-- Node11 -->
<g id="node11" class="node">
<title>Node11</title>
<g id="a_node11"><a xlink:href="classXCS.html#a234d12eb3fb50d01dccff24a1515d74e" target="_top" xlink:title="Sets parameters used by neural network conditions.">
<polygon fill="none" stroke="black" points="214,-38.5 214,-57.5 347,-57.5 347,-38.5 214,-38.5"/>
<text text-anchor="middle" x="280.5" y="-45.5" font-family="Helvetica,sans-Serif" font-size="10.00">XCS::unpack_cond_neural</text>
</a>
</g>
</g>
<!-- Node1&#45;&gt;Node11 -->
<g id="edge13" class="edge">
<title>Node1&#45;&gt;Node11</title>
<path fill="none" stroke="midnightblue" d="M405.09,-107.29C390.33,-94.66 368.57,-77.72 347,-67 339.47,-63.26 331.08,-60.13 322.89,-57.56"/>
<polygon fill="midnightblue" stroke="midnightblue" points="403.1,-110.2 412.92,-114.15 407.71,-104.93 403.1,-110.2"/>
</g>
<!-- Node13 -->
<g id="node13" class="node">
<title>Node13</title>
<g id="a_node13"><a xlink:href="classXCS.html#a8755a66390db00ab31e3574a18a0aae1" target="_top" xlink:title="Sets parameters used by neural network predictions.">
<polygon fill="none" stroke="black" points="215,-0.5 215,-19.5 346,-19.5 346,-0.5 215,-0.5"/>
<text text-anchor="middle" x="280.5" y="-7.5" font-family="Helvetica,sans-Serif" font-size="10.00">XCS::unpack_pred_neural</text>
</a>
</g>
</g>
<!-- Node1&#45;&gt;Node13 -->
<g id="edge15" class="edge">
<title>Node1&#45;&gt;Node13</title>
<path fill="none" stroke="midnightblue" d="M413.34,-105.45C400.61,-83.93 376.8,-48.85 347,-29 341.19,-25.13 334.57,-22.03 327.84,-19.56"/>
<polygon fill="midnightblue" stroke="midnightblue" points="410.39,-107.34 418.39,-114.29 416.47,-103.87 410.39,-107.34"/>
</g>
<!-- Node3 -->
<g id="node3" class="node">
<title>Node3</title>
<g id="a_node3"><a xlink:href="param_8h.html#acde6664d083676244bfc1105b1712984" target="_top" xlink:title=" ">
<polygon fill="none" stroke="black" points="93.5,-190.5 93.5,-209.5 158.5,-209.5 158.5,-190.5 93.5,-190.5"/>
<text text-anchor="middle" x="126" y="-197.5" font-family="Helvetica,sans-Serif" font-size="10.00">param_free</text>
</a>
</g>
</g>
<!-- Node2&#45;&gt;Node3 -->
<g id="edge2" class="edge">
<title>Node2&#45;&gt;Node3</title>
<path fill="none" stroke="midnightblue" d="M231.17,-225.96C207.52,-220.06 179.72,-213.14 158.78,-207.92"/>
<polygon fill="midnightblue" stroke="midnightblue" points="230.47,-229.39 241.02,-228.41 232.16,-222.6 230.47,-229.39"/>
</g>
<!-- Node4 -->
<g id="node4" class="node">
<title>Node4</title>
<g id="a_node4"><a xlink:href="main_8c.html#a3c04138a5bfe5d72780bb7e82a18e627" target="_top" xlink:title=" ">
<polygon fill="none" stroke="black" points="0,-171.5 0,-190.5 38,-190.5 38,-171.5 0,-171.5"/>
<text text-anchor="middle" x="19" y="-178.5" font-family="Helvetica,sans-Serif" font-size="10.00">main</text>
</a>
</g>
</g>
<!-- Node3&#45;&gt;Node4 -->
<g id="edge3" class="edge">
<title>Node3&#45;&gt;Node4</title>
<path fill="none" stroke="midnightblue" d="M83.4,-192.47C67.65,-189.62 50.52,-186.52 38.05,-184.27"/>
<polygon fill="midnightblue" stroke="midnightblue" points="83.03,-195.96 93.5,-194.3 84.28,-189.07 83.03,-195.96"/>
</g>
<!-- Node5&#45;&gt;Node3 -->
<g id="edge5" class="edge">
<title>Node5&#45;&gt;Node3</title>
<path fill="none" stroke="midnightblue" d="M223.97,-200C202.07,-200 177.7,-200 158.87,-200"/>
<polygon fill="midnightblue" stroke="midnightblue" points="224.16,-203.5 234.16,-200 224.16,-196.5 224.16,-203.5"/>
</g>
<!-- Node6&#45;&gt;Node4 -->
<g id="edge7" class="edge">
<title>Node6&#45;&gt;Node4</title>
<path fill="none" stroke="midnightblue" d="M237,-133.34C179.35,-146 78.89,-168.07 38.04,-177.04"/>
<polygon fill="midnightblue" stroke="midnightblue" points="237.88,-136.73 246.9,-131.16 236.38,-129.89 237.88,-136.73"/>
</g>
<!-- Node7 -->
<g id="node7" class="node">
<title>Node7</title>
<g id="a_node7"><a xlink:href="classXCS.html#a81bb7e5f76e05ad983d70fe848b73393" target="_top" xlink:title="Constructor with a specified config.">
<polygon fill="none" stroke="black" points="93.5,-114.5 93.5,-133.5 158.5,-133.5 158.5,-114.5 93.5,-114.5"/>
<text text-anchor="middle" x="126" y="-121.5" font-family="Helvetica,sans-Serif" font-size="10.00">XCS::XCS</text>
</a>
</g>
</g>
<!-- Node6&#45;&gt;Node7 -->
<g id="edge8" class="edge">
<title>Node6&#45;&gt;Node7</title>
<path fill="none" stroke="midnightblue" d="M236.57,-124C211.79,-124 181.18,-124 158.62,-124"/>
<polygon fill="midnightblue" stroke="midnightblue" points="236.78,-127.5 246.78,-124 236.78,-120.5 236.78,-127.5"/>
</g>
<!-- Node8&#45;&gt;Node3 -->
<g id="edge10" class="edge">
<title>Node8&#45;&gt;Node3</title>
<path fill="none" stroke="midnightblue" d="M231.17,-174.04C207.52,-179.94 179.72,-186.86 158.78,-192.08"/>
<polygon fill="midnightblue" stroke="midnightblue" points="232.16,-177.4 241.02,-171.59 230.47,-170.61 232.16,-177.4"/>
</g>
<!-- Node10 -->
<g id="node10" class="node">
<title>Node10</title>
<g id="a_node10"><a xlink:href="classXCS.html#a87397ee045a1648cd9b1449518e217b2" target="_top" xlink:title="Sets the action type and initialisation arguments.">
<polygon fill="none" stroke="black" points="81.5,-76.5 81.5,-95.5 170.5,-95.5 170.5,-76.5 81.5,-76.5"/>
<text text-anchor="middle" x="126" y="-83.5" font-family="Helvetica,sans-Serif" font-size="10.00">XCS::set_action</text>
</a>
</g>
</g>
<!-- Node9&#45;&gt;Node10 -->
<g id="edge12" class="edge">
<title>Node9&#45;&gt;Node10</title>
<path fill="none" stroke="midnightblue" d="M207.78,-86C195.06,-86 182.18,-86 170.55,-86"/>
<polygon fill="midnightblue" stroke="midnightblue" points="207.91,-89.5 217.91,-86 207.91,-82.5 207.91,-89.5"/>
</g>
<!-- Node12 -->
<g id="node12" class="node">
<title>Node12</title>
<g id="a_node12"><a xlink:href="classXCS.html#a4eb6acf0a155d5e94fa843d7523df9b1" target="_top" xlink:title="Sets the condition type and initialisation arguments.">
<polygon fill="none" stroke="black" points="75.5,-38.5 75.5,-57.5 176.5,-57.5 176.5,-38.5 75.5,-38.5"/>
<text text-anchor="middle" x="126" y="-45.5" font-family="Helvetica,sans-Serif" font-size="10.00">XCS::set_condition</text>
</a>
</g>
</g>
<!-- Node11&#45;&gt;Node12 -->
<g id="edge14" class="edge">
<title>Node11&#45;&gt;Node12</title>
<path fill="none" stroke="midnightblue" d="M203.68,-48C194.57,-48 185.45,-48 176.84,-48"/>
<polygon fill="midnightblue" stroke="midnightblue" points="203.94,-51.5 213.94,-48 203.94,-44.5 203.94,-51.5"/>
</g>
<!-- Node14 -->
<g id="node14" class="node">
<title>Node14</title>
<g id="a_node14"><a xlink:href="classXCS.html#a28e9fae0bf2d470377b25e032b7080af" target="_top" xlink:title="Sets the prediction type and initialisation arguments.">
<polygon fill="none" stroke="black" points="74,-0.5 74,-19.5 178,-19.5 178,-0.5 74,-0.5"/>
<text text-anchor="middle" x="126" y="-7.5" font-family="Helvetica,sans-Serif" font-size="10.00">XCS::set_prediction</text>
</a>
</g>
</g>
<!-- Node13&#45;&gt;Node14 -->
<g id="edge16" class="edge">
<title>Node13&#45;&gt;Node14</title>
<path fill="none" stroke="midnightblue" d="M204.77,-10C195.84,-10 186.87,-10 178.37,-10"/>
<polygon fill="midnightblue" stroke="midnightblue" points="204.83,-13.5 214.83,-10 204.83,-6.5 204.83,-13.5"/>
</g>
</g>
</svg>
