<?xml version="1.0" encoding="UTF-8" standalone="no"?>
<!DOCTYPE svg PUBLIC "-//W3C//DTD SVG 1.1//EN"
 "http://www.w3.org/Graphics/SVG/1.1/DTD/svg11.dtd">
<!-- Generated by graphviz version 2.43.0 (0)
 -->
<!-- Title: neural_activation_as_int Pages: 1 -->
<svg width="937pt" height="161pt"
 viewBox="0.00 0.00 937.00 161.00" xmlns="http://www.w3.org/2000/svg" xmlns:xlink="http://www.w3.org/1999/xlink">
<g id="graph0" class="graph" transform="scale(1 1) rotate(0) translate(4 157)">
<title>neural_activation_as_int</title>
<!-- Node1 -->
<g id="node1" class="node">
<title>Node1</title>
<g id="a_node1"><a xlink:title="Returns the integer representation of an activation function.">
<polygon fill="#bfbfbf" stroke="black" points="807,-76.5 807,-95.5 929,-95.5 929,-76.5 807,-76.5"/>
<text text-anchor="middle" x="868" y="-83.5" font-family="Helvetica,sans-Serif" font-size="10.00">neural_activation_as_int</text>
</a>
</g>
</g>
<!-- Node2 -->
<g id="node2" class="node">
<title>Node2</title>
<g id="a_node2"><a xlink:href="config_8c.html#ad3fbc4d4643e901c4e894677fefc69ff" target="_top" xlink:title="Sets neural network layer parameters.">
<polygon fill="none" stroke="black" points="667,-104.5 667,-123.5 736,-123.5 736,-104.5 667,-104.5"/>
<text text-anchor="middle" x="701.5" y="-111.5" font-family="Helvetica,sans-Serif" font-size="10.00">config_layer</text>
</a>
</g>
</g>
<!-- Node1&#45;&gt;Node2 -->
<g id="edge1" class="edge">
<title>Node1&#45;&gt;Node2</title>
<path fill="none" stroke="midnightblue" d="M800.82,-97.26C778.7,-101.03 754.96,-105.07 736.36,-108.24"/>
<polygon fill="midnightblue" stroke="midnightblue" points="801.58,-100.69 810.85,-95.56 800.4,-93.79 801.58,-100.69"/>
</g>
<!-- Node9 -->
<g id="node9" class="node">
<title>Node9</title>
<g id="a_node9"><a xlink:href="classXCS.html#af09f858d1d3594b2eb806a24efc2c8f9" target="_top" xlink:title="Sets parameters used by a neural network layer.">
<polygon fill="none" stroke="black" points="632,-57.5 632,-76.5 771,-76.5 771,-57.5 632,-57.5"/>
<text text-anchor="middle" x="701.5" y="-64.5" font-family="Helvetica,sans-Serif" font-size="10.00">XCS::unpack_layer_params</text>
</a>
</g>
</g>
<!-- Node1&#45;&gt;Node9 -->
<g id="edge8" class="edge">
<title>Node1&#45;&gt;Node9</title>
<path fill="none" stroke="midnightblue" d="M796.53,-77.86C788.12,-76.89 779.54,-75.9 771.16,-74.93"/>
<polygon fill="midnightblue" stroke="midnightblue" points="796.34,-81.36 806.68,-79.03 797.15,-74.41 796.34,-81.36"/>
</g>
<!-- Node3 -->
<g id="node3" class="node">
<title>Node3</title>
<g id="a_node3"><a xlink:href="config_8c.html#a0f0fcad0b6090da01e5bd58b77d98787" target="_top" xlink:title="Sets specified parameter.">
<polygon fill="none" stroke="black" points="481.5,-114.5 481.5,-133.5 577.5,-133.5 577.5,-114.5 481.5,-114.5"/>
<text text-anchor="middle" x="529.5" y="-121.5" font-family="Helvetica,sans-Serif" font-size="10.00">config_add_param</text>
</a>
</g>
</g>
<!-- Node2&#45;&gt;Node3 -->
<g id="edge2" class="edge">
<title>Node2&#45;&gt;Node3</title>
<path fill="none" stroke="midnightblue" d="M656.9,-116.56C632.61,-117.99 602.35,-119.77 577.53,-121.23"/>
<polygon fill="midnightblue" stroke="midnightblue" points="657.14,-120.06 666.91,-115.98 656.73,-113.07 657.14,-120.06"/>
</g>
<!-- Node4 -->
<g id="node4" class="node">
<title>Node4</title>
<g id="a_node4"><a xlink:href="config_8c.html#a5b96815b9ebb26a8fc7bcc30a75ab36d" target="_top" xlink:title="Adds a parameter to the list.">
<polygon fill="none" stroke="black" points="329,-114.5 329,-133.5 421,-133.5 421,-114.5 329,-114.5"/>
<text text-anchor="middle" x="375" y="-121.5" font-family="Helvetica,sans-Serif" font-size="10.00">config_newnvpair</text>
</a>
</g>
</g>
<!-- Node3&#45;&gt;Node4 -->
<g id="edge3" class="edge">
<title>Node3&#45;&gt;Node4</title>
<path fill="none" stroke="midnightblue" d="M470.99,-124C454.47,-124 436.69,-124 421.04,-124"/>
<polygon fill="midnightblue" stroke="midnightblue" points="471.08,-127.5 481.08,-124 471.08,-120.5 471.08,-127.5"/>
</g>
<!-- Node5 -->
<g id="node5" class="node">
<title>Node5</title>
<g id="a_node5"><a xlink:href="config_8c.html#a01c178cc1587140f60ecf27291a2032a" target="_top" xlink:title="Parses a line of the config file and adds to the list.">
<polygon fill="none" stroke="black" points="204,-114.5 204,-133.5 287,-133.5 287,-114.5 204,-114.5"/>
<text text-anchor="middle" x="245.5" y="-121.5" font-family="Helvetica,sans-Serif" font-size="10.00">config_process</text>
</a>
</g>
</g>
<!-- Node4&#45;&gt;Node5 -->
<g id="edge4" class="edge">
<title>Node4&#45;&gt;Node5</title>
<path fill="none" stroke="midnightblue" d="M318.41,-124C308,-124 297.29,-124 287.42,-124"/>
<polygon fill="midnightblue" stroke="midnightblue" points="318.69,-127.5 328.69,-124 318.69,-120.5 318.69,-127.5"/>
</g>
<!-- Node6 -->
<g id="node6" class="node">
<title>Node6</title>
<g id="a_node6"><a xlink:href="config_8h.html#a045a64a30d99a4bef2ebfd9b54aa9698" target="_top" xlink:title="Reads the specified configuration file.">
<polygon fill="none" stroke="black" points="101,-114.5 101,-133.5 168,-133.5 168,-114.5 101,-114.5"/>
<text text-anchor="middle" x="134.5" y="-121.5" font-family="Helvetica,sans-Serif" font-size="10.00">config_read</text>
</a>
</g>
</g>
<!-- Node5&#45;&gt;Node6 -->
<g id="edge5" class="edge">
<title>Node5&#45;&gt;Node6</title>
<path fill="none" stroke="midnightblue" d="M193.84,-124C185.16,-124 176.35,-124 168.3,-124"/>
<polygon fill="midnightblue" stroke="midnightblue" points="193.91,-127.5 203.91,-124 193.91,-120.5 193.91,-127.5"/>
</g>
<!-- Node7 -->
<g id="node7" class="node">
<title>Node7</title>
<g id="a_node7"><a xlink:href="main_8c.html#a3c04138a5bfe5d72780bb7e82a18e627" target="_top" xlink:title=" ">
<polygon fill="none" stroke="black" points="13.5,-133.5 13.5,-152.5 51.5,-152.5 51.5,-133.5 13.5,-133.5"/>
<text text-anchor="middle" x="32.5" y="-140.5" font-family="Helvetica,sans-Serif" font-size="10.00">main</text>
</a>
</g>
</g>
<!-- Node6&#45;&gt;Node7 -->
<g id="edge6" class="edge">
<title>Node6&#45;&gt;Node7</title>
<path fill="none" stroke="midnightblue" d="M90.55,-132.16C76.94,-134.75 62.61,-137.47 51.72,-139.54"/>
<polygon fill="midnightblue" stroke="midnightblue" points="91.59,-135.53 100.76,-130.22 90.28,-128.65 91.59,-135.53"/>
</g>
<!-- Node8 -->
<g id="node8" class="node">
<title>Node8</title>
<g id="a_node8"><a xlink:href="classXCS.html#a81bb7e5f76e05ad983d70fe848b73393" target="_top" xlink:title="Constructor with a specified config.">
<polygon fill="none" stroke="black" points="0,-95.5 0,-114.5 65,-114.5 65,-95.5 0,-95.5"/>
<text text-anchor="middle" x="32.5" y="-102.5" font-family="Helvetica,sans-Serif" font-size="10.00">XCS::XCS</text>
</a>
</g>
</g>
<!-- Node6&#45;&gt;Node8 -->
<g id="edge7" class="edge">
<title>Node6&#45;&gt;Node8</title>
<path fill="none" stroke="midnightblue" d="M90.88,-115.9C82.3,-114.27 73.43,-112.59 65.3,-111.04"/>
<polygon fill="midnightblue" stroke="midnightblue" points="90.28,-119.35 100.76,-117.78 91.59,-112.47 90.28,-119.35"/>
</g>
<!-- Node10 -->
<g id="node10" class="node">
<title>Node10</title>
<g id="a_node10"><a xlink:href="classXCS.html#ab2cbd5508c5e8c59db839695c9d0d539" target="_top" xlink:title="Sets parameters used by neural network actions.">
<polygon fill="none" stroke="black" points="467,-76.5 467,-95.5 592,-95.5 592,-76.5 467,-76.5"/>
<text text-anchor="middle" x="529.5" y="-83.5" font-family="Helvetica,sans-Serif" font-size="10.00">XCS::unpack_act_neural</text>
</a>
</g>
</g>
<!-- Node9&#45;&gt;Node10 -->
<g id="edge9" class="edge">
<title>Node9&#45;&gt;Node10</title>
<path fill="none" stroke="midnightblue" d="M621.88,-75.79C611.86,-76.91 601.71,-78.04 592.01,-79.13"/>
<polygon fill="midnightblue" stroke="midnightblue" points="622.3,-79.26 631.84,-74.67 621.52,-72.31 622.3,-79.26"/>
</g>
<!-- Node12 -->
<g id="node12" class="node">
<title>Node12</title>
<g id="a_node12"><a xlink:href="classXCS.html#a234d12eb3fb50d01dccff24a1515d74e" target="_top" xlink:title="Sets parameters used by neural network conditions.">
<polygon fill="none" stroke="black" points="463,-38.5 463,-57.5 596,-57.5 596,-38.5 463,-38.5"/>
<text text-anchor="middle" x="529.5" y="-45.5" font-family="Helvetica,sans-Serif" font-size="10.00">XCS::unpack_cond_neural</text>
</a>
</g>
</g>
<!-- Node9&#45;&gt;Node12 -->
<g id="edge11" class="edge">
<title>Node9&#45;&gt;Node12</title>
<path fill="none" stroke="midnightblue" d="M621.81,-58.21C613.21,-57.24 604.52,-56.27 596.1,-55.33"/>
<polygon fill="midnightblue" stroke="midnightblue" points="621.52,-61.69 631.84,-59.33 622.3,-54.74 621.52,-61.69"/>
</g>
<!-- Node14 -->
<g id="node14" class="node">
<title>Node14</title>
<g id="a_node14"><a xlink:href="classXCS.html#a8755a66390db00ab31e3574a18a0aae1" target="_top" xlink:title="Sets parameters used by neural network predictions.">
<polygon fill="none" stroke="black" points="464,-0.5 464,-19.5 595,-19.5 595,-0.5 464,-0.5"/>
<text text-anchor="middle" x="529.5" y="-7.5" font-family="Helvetica,sans-Serif" font-size="10.00">XCS::unpack_pred_neural</text>
</a>
</g>
</g>
<!-- Node9&#45;&gt;Node14 -->
<g id="edge13" class="edge">
<title>Node9&#45;&gt;Node14</title>
<path fill="none" stroke="midnightblue" d="M666.3,-53.91C645.98,-46.3 619.66,-36.72 596,-29 585.98,-25.73 575.01,-22.44 564.97,-19.53"/>
<polygon fill="midnightblue" stroke="midnightblue" points="665.15,-57.22 675.75,-57.47 667.62,-50.67 665.15,-57.22"/>
</g>
<!-- Node11 -->
<g id="node11" class="node">
<title>Node11</title>
<g id="a_node11"><a xlink:href="classXCS.html#a87397ee045a1648cd9b1449518e217b2" target="_top" xlink:title="Sets the action type and initialisation arguments.">
<polygon fill="none" stroke="black" points="330.5,-76.5 330.5,-95.5 419.5,-95.5 419.5,-76.5 330.5,-76.5"/>
<text text-anchor="middle" x="375" y="-83.5" font-family="Helvetica,sans-Serif" font-size="10.00">XCS::set_action</text>
</a>
</g>
</g>
<!-- Node10&#45;&gt;Node11 -->
<g id="edge10" class="edge">
<title>Node10&#45;&gt;Node11</title>
<path fill="none" stroke="midnightblue" d="M456.78,-86C444.06,-86 431.18,-86 419.55,-86"/>
<polygon fill="midnightblue" stroke="midnightblue" points="456.91,-89.5 466.91,-86 456.91,-82.5 456.91,-89.5"/>
</g>
<!-- Node13 -->
<g id="node13" class="node">
<title>Node13</title>
<g id="a_node13"><a xlink:href="classXCS.html#a4eb6acf0a155d5e94fa843d7523df9b1" target="_top" xlink:title="Sets the condition type and initialisation arguments.">
<polygon fill="none" stroke="black" points="324.5,-38.5 324.5,-57.5 425.5,-57.5 425.5,-38.5 324.5,-38.5"/>
<text text-anchor="middle" x="375" y="-45.5" font-family="Helvetica,sans-Serif" font-size="10.00">XCS::set_condition</text>
</a>
</g>
</g>
<!-- Node12&#45;&gt;Node13 -->
<g id="edge12" class="edge">
<title>Node12&#45;&gt;Node13</title>
<path fill="none" stroke="midnightblue" d="M452.68,-48C443.57,-48 434.45,-48 425.84,-48"/>
<polygon fill="midnightblue" stroke="midnightblue" points="452.94,-51.5 462.94,-48 452.94,-44.5 452.94,-51.5"/>
</g>
<!-- Node15 -->
<g id="node15" class="node">
<title>Node15</title>
<g id="a_node15"><a xlink:href="classXCS.html#a28e9fae0bf2d470377b25e032b7080af" target="_top" xlink:title="Sets the prediction type and initialisation arguments.">
<polygon fill="none" stroke="black" points="323,-0.5 323,-19.5 427,-19.5 427,-0.5 323,-0.5"/>
<text text-anchor="middle" x="375" y="-7.5" font-family="Helvetica,sans-Serif" font-size="10.00">XCS::set_prediction</text>
</a>
</g>
</g>
<!-- Node14&#45;&gt;Node15 -->
<g id="edge14" class="edge">
<title>Node14&#45;&gt;Node15</title>
<path fill="none" stroke="midnightblue" d="M453.77,-10C444.84,-10 435.87,-10 427.37,-10"/>
<polygon fill="midnightblue" stroke="midnightblue" points="453.83,-13.5 463.83,-10 453.83,-6.5 453.83,-13.5"/>
</g>
</g>
</svg>
