<?xml version="1.0" encoding="UTF-8" standalone="no"?>
<!DOCTYPE svg PUBLIC "-//W3C//DTD SVG 1.1//EN"
 "http://www.w3.org/Graphics/SVG/1.1/DTD/svg11.dtd">
<!-- Generated by graphviz version 2.43.0 (0)
 -->
<!-- Title: neural_layer_maxpool_forward Pages: 1 -->
<svg width="314pt" height="53pt"
 viewBox="0.00 0.00 314.00 52.50" xmlns="http://www.w3.org/2000/svg" xmlns:xlink="http://www.w3.org/1999/xlink">
<g id="graph0" class="graph" transform="scale(1 1) rotate(0) translate(4 48.5)">
<title>neural_layer_maxpool_forward</title>
<!-- Node1 -->
<g id="node1" class="node">
<title>Node1</title>
<g id="a_node1"><a xlink:title="Forward propagates a maxpooling layer.">
<polygon fill="#bfbfbf" stroke="black" points="0,-14 0,-44 111,-44 111,-14 0,-14"/>
<text text-anchor="start" x="8" y="-32" font-family="Helvetica,sans-Serif" font-size="10.00">neural_layer_maxpool</text>
<text text-anchor="middle" x="55.5" y="-21" font-family="Helvetica,sans-Serif" font-size="10.00">_forward</text>
</a>
</g>
</g>
<!-- Node2 -->
<g id="node2" class="node">
<title>Node2</title>
<g id="a_node2"><a xlink:href="utils_8h.html#adc87687be632aa642e838b81a7404db1" target="_top" xlink:title="Returns the index of the largest element in vector X.">
<polygon fill="none" stroke="black" points="242,-19.5 242,-38.5 306,-38.5 306,-19.5 242,-19.5"/>
<text text-anchor="middle" x="274" y="-26.5" font-family="Helvetica,sans-Serif" font-size="10.00">max_index</text>
</a>
</g>
</g>
<!-- Node1&#45;&gt;Node2 -->
<g id="edge1" class="edge">
<title>Node1&#45;&gt;Node2</title>
<path fill="none" stroke="midnightblue" d="M111.13,-29C148.59,-29 197.52,-29 231.73,-29"/>
<polygon fill="midnightblue" stroke="midnightblue" points="231.85,-32.5 241.85,-29 231.85,-25.5 231.85,-32.5"/>
</g>
<!-- Node3 -->
<g id="node3" class="node">
<title>Node3</title>
<g id="a_node3"><a xlink:href="neural__layer__maxpool_8c.html#a03e721637071990d769895cac88b29a8" target="_top" xlink:title="Returns the index of the maximum value corresponding to a specified output height,...">
<polygon fill="none" stroke="black" points="147,-0.5 147,-19.5 206,-19.5 206,-0.5 147,-0.5"/>
<text text-anchor="middle" x="176.5" y="-7.5" font-family="Helvetica,sans-Serif" font-size="10.00">max_pool</text>
</a>
</g>
</g>
<!-- Node1&#45;&gt;Node3 -->
<g id="edge2" class="edge">
<title>Node1&#45;&gt;Node3</title>
<path fill="none" stroke="midnightblue" d="M111.12,-20.28C119.8,-18.89 128.62,-17.49 136.83,-16.17"/>
<polygon fill="midnightblue" stroke="midnightblue" points="137.53,-19.61 146.85,-14.57 136.43,-12.69 137.53,-19.61"/>
</g>
<!-- Node3&#45;&gt;Node2 -->
<g id="edge3" class="edge">
<title>Node3&#45;&gt;Node2</title>
<path fill="none" stroke="midnightblue" d="M206.15,-15.7C214.21,-17.3 223.13,-19.08 231.77,-20.8"/>
<polygon fill="midnightblue" stroke="midnightblue" points="231.21,-24.25 241.7,-22.77 232.58,-17.39 231.21,-24.25"/>
</g>
</g>
</svg>
