<?xml version="1.0" encoding="UTF-8" standalone="no"?>
<!DOCTYPE svg PUBLIC "-//W3C//DTD SVG 1.1//EN"
 "http://www.w3.org/Graphics/SVG/1.1/DTD/svg11.dtd">
<!-- Generated by graphviz version 2.43.0 (0)
 -->
<!-- Title: layer_args_copy Pages: 1 -->
<svg width="865pt" height="199pt"
 viewBox="0.00 0.00 865.00 199.00" xmlns="http://www.w3.org/2000/svg" xmlns:xlink="http://www.w3.org/1999/xlink">
<g id="graph0" class="graph" transform="scale(1 1) rotate(0) translate(4 195)">
<title>layer_args_copy</title>
<!-- Node1 -->
<g id="node1" class="node">
<title>Node1</title>
<g id="a_node1"><a xlink:title="Creates and returns a copy of specified layer parameters.">
<polygon fill="#bfbfbf" stroke="black" points="769,-76.5 769,-95.5 857,-95.5 857,-76.5 769,-76.5"/>
<text text-anchor="middle" x="813" y="-83.5" font-family="Helvetica,sans-Serif" font-size="10.00">layer_args_copy</text>
</a>
</g>
</g>
<!-- Node2 -->
<g id="node2" class="node">
<title>Node2</title>
<g id="a_node2"><a xlink:href="act__neural_8c.html#ae9c1117ca77c9dbe5b509c508483d56b" target="_top" xlink:title="Initialises default neural action parameters.">
<polygon fill="none" stroke="black" points="595.5,-152.5 595.5,-171.5 729.5,-171.5 729.5,-152.5 595.5,-152.5"/>
<text text-anchor="middle" x="662.5" y="-159.5" font-family="Helvetica,sans-Serif" font-size="10.00">act_neural_param_defaults</text>
</a>
</g>
</g>
<!-- Node1&#45;&gt;Node2 -->
<g id="edge1" class="edge">
<title>Node1&#45;&gt;Node2</title>
<path fill="none" stroke="midnightblue" d="M793.63,-102.2C778.35,-114.92 755.53,-132.23 733,-143 725.1,-146.78 716.32,-149.91 707.74,-152.47"/>
<polygon fill="midnightblue" stroke="midnightblue" points="795.95,-104.82 801.3,-95.67 791.41,-99.49 795.95,-104.82"/>
</g>
<!-- Node13 -->
<g id="node13" class="node">
<title>Node13</title>
<g id="a_node13"><a xlink:href="cond__neural_8c.html#a935ca37ecd32e1b791066e3bc0f7536e" target="_top" xlink:title="Initialises default neural condition parameters.">
<polygon fill="none" stroke="black" points="592,-114.5 592,-133.5 733,-133.5 733,-114.5 592,-114.5"/>
<text text-anchor="middle" x="662.5" y="-121.5" font-family="Helvetica,sans-Serif" font-size="10.00">cond_neural_param_defaults</text>
</a>
</g>
</g>
<!-- Node1&#45;&gt;Node13 -->
<g id="edge14" class="edge">
<title>Node1&#45;&gt;Node13</title>
<path fill="none" stroke="midnightblue" d="M764.67,-98.11C743.99,-103.4 720.08,-109.52 700.7,-114.48"/>
<polygon fill="midnightblue" stroke="midnightblue" points="765.71,-101.46 774.53,-95.59 763.97,-94.68 765.71,-101.46"/>
</g>
<!-- Node15 -->
<g id="node15" class="node">
<title>Node15</title>
<g id="a_node15"><a xlink:href="neural__layer__lstm_8c.html#ae10001d478d05d7503e4ce76e02cbf6b" target="_top" xlink:title="Initialises a long short&#45;term memory layer.">
<polygon fill="none" stroke="black" points="607,-76.5 607,-95.5 718,-95.5 718,-76.5 607,-76.5"/>
<text text-anchor="middle" x="662.5" y="-83.5" font-family="Helvetica,sans-Serif" font-size="10.00">neural_layer_lstm_init</text>
</a>
</g>
</g>
<!-- Node1&#45;&gt;Node15 -->
<g id="edge17" class="edge">
<title>Node1&#45;&gt;Node15</title>
<path fill="none" stroke="midnightblue" d="M758.36,-86C745.23,-86 731.17,-86 718,-86"/>
<polygon fill="midnightblue" stroke="midnightblue" points="758.65,-89.5 768.65,-86 758.65,-82.5 758.65,-89.5"/>
</g>
<!-- Node16 -->
<g id="node16" class="node">
<title>Node16</title>
<g id="a_node16"><a xlink:href="neural__layer__recurrent_8c.html#a74274033f3a8272fb8aae4366f93d74c" target="_top" xlink:title="Initialises a recurrent layer.">
<polygon fill="none" stroke="black" points="597,-38.5 597,-57.5 728,-57.5 728,-38.5 597,-38.5"/>
<text text-anchor="middle" x="662.5" y="-45.5" font-family="Helvetica,sans-Serif" font-size="10.00">neural_layer_recurrent_init</text>
</a>
</g>
</g>
<!-- Node1&#45;&gt;Node16 -->
<g id="edge18" class="edge">
<title>Node1&#45;&gt;Node16</title>
<path fill="none" stroke="midnightblue" d="M764.67,-73.89C743.99,-68.6 720.08,-62.48 700.7,-57.52"/>
<polygon fill="midnightblue" stroke="midnightblue" points="763.97,-77.32 774.53,-76.41 765.71,-70.54 763.97,-77.32"/>
</g>
<!-- Node17 -->
<g id="node17" class="node">
<title>Node17</title>
<g id="a_node17"><a xlink:href="pred__neural_8c.html#ad98412e2a2999778290478e22b868859" target="_top" xlink:title="Initialises default neural prediction parameters.">
<polygon fill="none" stroke="black" points="593,-0.5 593,-19.5 732,-19.5 732,-0.5 593,-0.5"/>
<text text-anchor="middle" x="662.5" y="-7.5" font-family="Helvetica,sans-Serif" font-size="10.00">pred_neural_param_defaults</text>
</a>
</g>
</g>
<!-- Node1&#45;&gt;Node17 -->
<g id="edge19" class="edge">
<title>Node1&#45;&gt;Node17</title>
<path fill="none" stroke="midnightblue" d="M793.63,-69.8C778.35,-57.08 755.53,-39.77 733,-29 725.1,-25.22 716.32,-22.09 707.74,-19.53"/>
<polygon fill="midnightblue" stroke="midnightblue" points="791.41,-72.51 801.3,-76.33 795.95,-67.18 791.41,-72.51"/>
</g>
<!-- Node3 -->
<g id="node3" class="node">
<title>Node3</title>
<g id="a_node3"><a xlink:href="action_8c.html#aa7e0cd00c920c30b15e0d1cc409cada5" target="_top" xlink:title="Initialises default action parameters.">
<polygon fill="none" stroke="black" points="441,-152.5 441,-171.5 556,-171.5 556,-152.5 441,-152.5"/>
<text text-anchor="middle" x="498.5" y="-159.5" font-family="Helvetica,sans-Serif" font-size="10.00">action_param_defaults</text>
</a>
</g>
</g>
<!-- Node2&#45;&gt;Node3 -->
<g id="edge2" class="edge">
<title>Node2&#45;&gt;Node3</title>
<path fill="none" stroke="midnightblue" d="M585.06,-162C575.33,-162 565.52,-162 556.18,-162"/>
<polygon fill="midnightblue" stroke="midnightblue" points="585.14,-165.5 595.14,-162 585.14,-158.5 585.14,-165.5"/>
</g>
<!-- Node4 -->
<g id="node4" class="node">
<title>Node4</title>
<g id="a_node4"><a xlink:href="param_8c.html#ac8218a170803be0bcd974764e7494b0e" target="_top" xlink:title="Initialises default XCSF parameters.">
<polygon fill="none" stroke="black" points="343,-114.5 343,-133.5 405,-133.5 405,-114.5 343,-114.5"/>
<text text-anchor="middle" x="374" y="-121.5" font-family="Helvetica,sans-Serif" font-size="10.00">param_init</text>
</a>
</g>
</g>
<!-- Node3&#45;&gt;Node4 -->
<g id="edge3" class="edge">
<title>Node3&#45;&gt;Node4</title>
<path fill="none" stroke="midnightblue" d="M456.94,-149.42C440.01,-144.17 420.68,-138.17 405.06,-133.32"/>
<polygon fill="midnightblue" stroke="midnightblue" points="456,-152.79 466.59,-152.41 458.07,-146.11 456,-152.79"/>
</g>
<!-- Node5 -->
<g id="node5" class="node">
<title>Node5</title>
<g id="a_node5"><a xlink:href="env__csv_8c.html#ab26a39a388f0ac83b9ac14726ad14b16" target="_top" xlink:title="Initialises a CSV input environment from a specified filename.">
<polygon fill="none" stroke="black" points="231.5,-171.5 231.5,-190.5 302.5,-190.5 302.5,-171.5 231.5,-171.5"/>
<text text-anchor="middle" x="267" y="-178.5" font-family="Helvetica,sans-Serif" font-size="10.00">env_csv_init</text>
</a>
</g>
</g>
<!-- Node4&#45;&gt;Node5 -->
<g id="edge4" class="edge">
<title>Node4&#45;&gt;Node5</title>
<path fill="none" stroke="midnightblue" d="M348.38,-138.71C336.07,-145.93 320.87,-154.64 307,-162 301.01,-165.18 294.41,-168.47 288.38,-171.4"/>
<polygon fill="midnightblue" stroke="midnightblue" points="350.34,-141.62 357.17,-133.53 346.78,-135.6 350.34,-141.62"/>
</g>
<!-- Node8 -->
<g id="node8" class="node">
<title>Node8</title>
<g id="a_node8"><a xlink:href="env__maze_8c.html#acad3cc6e9fe2b7e07e878f1f517ad3a6" target="_top" xlink:title="Initialises a maze environment from a specified file.">
<polygon fill="none" stroke="black" points="227,-133.5 227,-152.5 307,-152.5 307,-133.5 227,-133.5"/>
<text text-anchor="middle" x="267" y="-140.5" font-family="Helvetica,sans-Serif" font-size="10.00">env_maze_init</text>
</a>
</g>
</g>
<!-- Node4&#45;&gt;Node8 -->
<g id="edge7" class="edge">
<title>Node4&#45;&gt;Node8</title>
<path fill="none" stroke="midnightblue" d="M332.89,-131.26C324.44,-132.79 315.53,-134.4 307.11,-135.92"/>
<polygon fill="midnightblue" stroke="midnightblue" points="333.69,-134.67 342.91,-129.44 332.45,-127.78 333.69,-134.67"/>
</g>
<!-- Node9 -->
<g id="node9" class="node">
<title>Node9</title>
<g id="a_node9"><a xlink:href="env__mux_8c.html#aff3b81b4913d273ecfd62d7585480b15" target="_top" xlink:title="Initialises a real multiplexer environment of specified length.">
<polygon fill="none" stroke="black" points="230,-95.5 230,-114.5 304,-114.5 304,-95.5 230,-95.5"/>
<text text-anchor="middle" x="267" y="-102.5" font-family="Helvetica,sans-Serif" font-size="10.00">env_mux_init</text>
</a>
</g>
</g>
<!-- Node4&#45;&gt;Node9 -->
<g id="edge9" class="edge">
<title>Node4&#45;&gt;Node9</title>
<path fill="none" stroke="midnightblue" d="M332.9,-116.74C323.41,-115.03 313.35,-113.21 304.05,-111.52"/>
<polygon fill="midnightblue" stroke="midnightblue" points="332.45,-120.22 342.91,-118.56 333.69,-113.33 332.45,-120.22"/>
</g>
<!-- Node10 -->
<g id="node10" class="node">
<title>Node10</title>
<g id="a_node10"><a xlink:href="classXCS.html#a2e542f3f17c9c76d07045adf1f5c16f9" target="_top" xlink:title="Resets basic constructor variables.">
<polygon fill="none" stroke="black" points="234.5,-57.5 234.5,-76.5 299.5,-76.5 299.5,-57.5 234.5,-57.5"/>
<text text-anchor="middle" x="267" y="-64.5" font-family="Helvetica,sans-Serif" font-size="10.00">XCS::reset</text>
</a>
</g>
</g>
<!-- Node4&#45;&gt;Node10 -->
<g id="edge11" class="edge">
<title>Node4&#45;&gt;Node10</title>
<path fill="none" stroke="midnightblue" d="M348.38,-109.29C336.07,-102.07 320.87,-93.36 307,-86 301.01,-82.82 294.41,-79.53 288.38,-76.6"/>
<polygon fill="midnightblue" stroke="midnightblue" points="346.78,-112.4 357.17,-114.47 350.34,-106.38 346.78,-112.4"/>
</g>
<!-- Node6 -->
<g id="node6" class="node">
<title>Node6</title>
<g id="a_node6"><a xlink:href="env_8c.html#a9213fcf5fc422d6a77bce853b1d78dc9" target="_top" xlink:title="Initialises a built&#45;in problem environment.">
<polygon fill="none" stroke="black" points="133.5,-133.5 133.5,-152.5 183.5,-152.5 183.5,-133.5 133.5,-133.5"/>
<text text-anchor="middle" x="158.5" y="-140.5" font-family="Helvetica,sans-Serif" font-size="10.00">env_init</text>
</a>
</g>
</g>
<!-- Node5&#45;&gt;Node6 -->
<g id="edge5" class="edge">
<title>Node5&#45;&gt;Node6</title>
<path fill="none" stroke="midnightblue" d="M229.55,-167.99C214.45,-162.61 197.35,-156.5 183.82,-151.68"/>
<polygon fill="midnightblue" stroke="midnightblue" points="228.53,-171.35 239.13,-171.41 230.88,-164.75 228.53,-171.35"/>
</g>
<!-- Node7 -->
<g id="node7" class="node">
<title>Node7</title>
<g id="a_node7"><a xlink:href="main_8c.html#a3c04138a5bfe5d72780bb7e82a18e627" target="_top" xlink:title=" ">
<polygon fill="none" stroke="black" points="26,-133.5 26,-152.5 64,-152.5 64,-133.5 26,-133.5"/>
<text text-anchor="middle" x="45" y="-140.5" font-family="Helvetica,sans-Serif" font-size="10.00">main</text>
</a>
</g>
</g>
<!-- Node6&#45;&gt;Node7 -->
<g id="edge6" class="edge">
<title>Node6&#45;&gt;Node7</title>
<path fill="none" stroke="midnightblue" d="M123.28,-143C103.83,-143 80.24,-143 64.28,-143"/>
<polygon fill="midnightblue" stroke="midnightblue" points="123.31,-146.5 133.31,-143 123.31,-139.5 123.31,-146.5"/>
</g>
<!-- Node8&#45;&gt;Node6 -->
<g id="edge8" class="edge">
<title>Node8&#45;&gt;Node6</title>
<path fill="none" stroke="midnightblue" d="M216.92,-143C205.38,-143 193.57,-143 183.69,-143"/>
<polygon fill="midnightblue" stroke="midnightblue" points="216.95,-146.5 226.95,-143 216.95,-139.5 216.95,-146.5"/>
</g>
<!-- Node9&#45;&gt;Node6 -->
<g id="edge10" class="edge">
<title>Node9&#45;&gt;Node6</title>
<path fill="none" stroke="midnightblue" d="M229.55,-118.01C214.45,-123.39 197.35,-129.5 183.82,-134.32"/>
<polygon fill="midnightblue" stroke="midnightblue" points="230.88,-121.25 239.13,-114.59 228.53,-114.65 230.88,-121.25"/>
</g>
<!-- Node11 -->
<g id="node11" class="node">
<title>Node11</title>
<g id="a_node11"><a xlink:href="classXCS.html#a8a53a8df81152fbf73e6abcc6a6e56b4" target="_top" xlink:title="Default Constructor.">
<polygon fill="none" stroke="black" points="126,-57.5 126,-76.5 191,-76.5 191,-57.5 126,-57.5"/>
<text text-anchor="middle" x="158.5" y="-64.5" font-family="Helvetica,sans-Serif" font-size="10.00">XCS::XCS</text>
</a>
</g>
</g>
<!-- Node10&#45;&gt;Node11 -->
<g id="edge12" class="edge">
<title>Node10&#45;&gt;Node11</title>
<path fill="none" stroke="midnightblue" d="M224.11,-67C213.16,-67 201.55,-67 191.23,-67"/>
<polygon fill="midnightblue" stroke="midnightblue" points="224.33,-70.5 234.33,-67 224.33,-63.5 224.33,-70.5"/>
</g>
<!-- Node12 -->
<g id="node12" class="node">
<title>Node12</title>
<g id="a_node12"><a xlink:href="classXCS.html#a71b21201e1a2aef16702a2c308eb6683" target="_top" xlink:title="Implements pickle file reading.">
<polygon fill="none" stroke="black" points="0,-57.5 0,-76.5 90,-76.5 90,-57.5 0,-57.5"/>
<text text-anchor="middle" x="45" y="-64.5" font-family="Helvetica,sans-Serif" font-size="10.00">XCS::deserialize</text>
</a>
</g>
</g>
<!-- Node11&#45;&gt;Node12 -->
<g id="edge13" class="edge">
<title>Node11&#45;&gt;Node12</title>
<path fill="none" stroke="midnightblue" d="M115.63,-67C107.33,-67 98.59,-67 90.22,-67"/>
<polygon fill="midnightblue" stroke="midnightblue" points="115.85,-70.5 125.85,-67 115.85,-63.5 115.85,-70.5"/>
</g>
<!-- Node14 -->
<g id="node14" class="node">
<title>Node14</title>
<g id="a_node14"><a xlink:href="condition_8c.html#ac7f09d43efc7400318fe32c917a92292" target="_top" xlink:title="Initialises default condition parameters.">
<polygon fill="none" stroke="black" points="443.5,-114.5 443.5,-133.5 553.5,-133.5 553.5,-114.5 443.5,-114.5"/>
<text text-anchor="middle" x="498.5" y="-121.5" font-family="Helvetica,sans-Serif" font-size="10.00">cond_param_defaults</text>
</a>
</g>
</g>
<!-- Node13&#45;&gt;Node14 -->
<g id="edge15" class="edge">
<title>Node13&#45;&gt;Node14</title>
<path fill="none" stroke="midnightblue" d="M581.69,-124C572.28,-124 562.86,-124 553.92,-124"/>
<polygon fill="midnightblue" stroke="midnightblue" points="581.86,-127.5 591.86,-124 581.86,-120.5 581.86,-127.5"/>
</g>
<!-- Node14&#45;&gt;Node4 -->
<g id="edge16" class="edge">
<title>Node14&#45;&gt;Node4</title>
<path fill="none" stroke="midnightblue" d="M433.25,-124C423.5,-124 413.85,-124 405.29,-124"/>
<polygon fill="midnightblue" stroke="midnightblue" points="433.41,-127.5 443.41,-124 433.41,-120.5 433.41,-127.5"/>
</g>
<!-- Node18 -->
<g id="node18" class="node">
<title>Node18</title>
<g id="a_node18"><a xlink:href="prediction_8c.html#af2e3b26751cb8f9af4c608e534ee6894" target="_top" xlink:title="Initialises default prediction parameters.">
<polygon fill="none" stroke="black" points="445,-38.5 445,-57.5 552,-57.5 552,-38.5 445,-38.5"/>
<text text-anchor="middle" x="498.5" y="-45.5" font-family="Helvetica,sans-Serif" font-size="10.00">pred_param_defaults</text>
</a>
</g>
</g>
<!-- Node17&#45;&gt;Node18 -->
<g id="edge20" class="edge">
<title>Node17&#45;&gt;Node18</title>
<path fill="none" stroke="midnightblue" d="M610.79,-21.9C588.01,-27.24 561.51,-33.45 540.09,-38.48"/>
<polygon fill="midnightblue" stroke="midnightblue" points="611.68,-25.28 620.62,-19.59 610.09,-18.47 611.68,-25.28"/>
</g>
<!-- Node18&#45;&gt;Node4 -->
<g id="edge21" class="edge">
<title>Node18&#45;&gt;Node4</title>
<path fill="none" stroke="midnightblue" d="M473.23,-63.06C448.6,-78.34 411.22,-101.53 390.39,-114.45"/>
<polygon fill="midnightblue" stroke="midnightblue" points="475.33,-65.87 481.99,-57.63 471.64,-59.92 475.33,-65.87"/>
</g>
</g>
</svg>
