<?xml version="1.0" encoding="UTF-8" standalone="no"?>
<!DOCTYPE svg PUBLIC "-//W3C//DTD SVG 1.1//EN"
 "http://www.w3.org/Graphics/SVG/1.1/DTD/svg11.dtd">
<!-- Generated by graphviz version 2.43.0 (0)
 -->
<!-- Title: neural_layer.h Pages: 1 -->
<svg width="2408pt" height="140pt"
 viewBox="0.00 0.00 2408.00 140.00" xmlns="http://www.w3.org/2000/svg" xmlns:xlink="http://www.w3.org/1999/xlink">
<g id="graph0" class="graph" transform="scale(1 1) rotate(0) translate(4 136)">
<title>neural_layer.h</title>
<!-- Node1 -->
<g id="node1" class="node">
<title>Node1</title>
<g id="a_node1"><a xlink:title="Interface for neural network layers.">
<polygon fill="#bfbfbf" stroke="black" points="1041.5,-112.5 1041.5,-131.5 1118.5,-131.5 1118.5,-112.5 1041.5,-112.5"/>
<text text-anchor="middle" x="1080" y="-119.5" font-family="Helvetica,sans-Serif" font-size="10.00">neural_layer.h</text>
</a>
</g>
</g>
<!-- Node2 -->
<g id="node2" class="node">
<title>Node2</title>
<g id="a_node2"><a xlink:href="act__neural_8h.html" target="_top" xlink:title="Neural network action functions.">
<polygon fill="none" stroke="black" points="570,-56.5 570,-75.5 640,-75.5 640,-56.5 570,-56.5"/>
<text text-anchor="middle" x="605" y="-63.5" font-family="Helvetica,sans-Serif" font-size="10.00">act_neural.h</text>
</a>
</g>
</g>
<!-- Node1&#45;&gt;Node2 -->
<g id="edge1" class="edge">
<title>Node1&#45;&gt;Node2</title>
<path fill="none" stroke="midnightblue" d="M1031.23,-117.47C951.14,-111.32 786.87,-97.25 649,-76 646.07,-75.55 643.04,-75.03 640.01,-74.48"/>
<polygon fill="midnightblue" stroke="midnightblue" points="1031.26,-120.98 1041.5,-118.25 1031.79,-114 1031.26,-120.98"/>
</g>
<!-- Node5 -->
<g id="node5" class="node">
<title>Node5</title>
<g id="a_node5"><a xlink:href="cond__neural_8h.html" target="_top" xlink:title="Multi&#45;layer perceptron neural network condition functions.">
<polygon fill="none" stroke="black" points="151.5,-56.5 151.5,-75.5 228.5,-75.5 228.5,-56.5 151.5,-56.5"/>
<text text-anchor="middle" x="190" y="-63.5" font-family="Helvetica,sans-Serif" font-size="10.00">cond_neural.h</text>
</a>
</g>
</g>
<!-- Node1&#45;&gt;Node5 -->
<g id="edge4" class="edge">
<title>Node1&#45;&gt;Node5</title>
<path fill="none" stroke="midnightblue" d="M1031.16,-120.71C901.38,-119.43 537.3,-112.6 237,-76 234.28,-75.67 231.48,-75.27 228.66,-74.83"/>
<polygon fill="midnightblue" stroke="midnightblue" points="1031.15,-124.21 1041.19,-120.8 1031.22,-117.21 1031.15,-124.21"/>
</g>
<!-- Node10 -->
<g id="node10" class="node">
<title>Node10</title>
<g id="a_node10"><a xlink:href="neural__activations_8c.html" target="_top" xlink:title="Neural network activation functions.">
<polygon fill="none" stroke="black" points="448,-56.5 448,-75.5 552,-75.5 552,-56.5 448,-56.5"/>
<text text-anchor="middle" x="500" y="-63.5" font-family="Helvetica,sans-Serif" font-size="10.00">neural_activations.c</text>
</a>
</g>
</g>
<!-- Node1&#45;&gt;Node10 -->
<g id="edge9" class="edge">
<title>Node1&#45;&gt;Node10</title>
<path fill="none" stroke="midnightblue" d="M1031.04,-117.74C938.87,-111.38 733.34,-96.17 561,-76 558.13,-75.66 555.19,-75.3 552.22,-74.91"/>
<polygon fill="midnightblue" stroke="midnightblue" points="1030.96,-121.24 1041.18,-118.43 1031.44,-114.26 1030.96,-121.24"/>
</g>
<!-- Node11 -->
<g id="node11" class="node">
<title>Node11</title>
<g id="a_node11"><a xlink:href="neural__layer__avgpool_8h.html" target="_top" xlink:title="An implementation of an average pooling layer.">
<polygon fill="none" stroke="black" points="658,-56.5 658,-75.5 774,-75.5 774,-56.5 658,-56.5"/>
<text text-anchor="middle" x="716" y="-63.5" font-family="Helvetica,sans-Serif" font-size="10.00">neural_layer_avgpool.h</text>
</a>
</g>
</g>
<!-- Node1&#45;&gt;Node11 -->
<g id="edge10" class="edge">
<title>Node1&#45;&gt;Node11</title>
<path fill="none" stroke="midnightblue" d="M1031.14,-113.75C964.32,-103.84 844.64,-86.08 773.56,-75.54"/>
<polygon fill="midnightblue" stroke="midnightblue" points="1030.98,-117.27 1041.39,-115.27 1032.01,-110.34 1030.98,-117.27"/>
</g>
<!-- Node16 -->
<g id="node16" class="node">
<title>Node16</title>
<g id="a_node16"><a xlink:href="neural__layer__connected_8h.html" target="_top" xlink:title="An implementation of a fully&#45;connected layer of perceptrons.">
<polygon fill="none" stroke="black" points="1884,-56.5 1884,-75.5 2012,-75.5 2012,-56.5 1884,-56.5"/>
<text text-anchor="middle" x="1948" y="-63.5" font-family="Helvetica,sans-Serif" font-size="10.00">neural_layer_connected.h</text>
</a>
</g>
</g>
<!-- Node1&#45;&gt;Node16 -->
<g id="edge16" class="edge">
<title>Node1&#45;&gt;Node16</title>
<path fill="none" stroke="midnightblue" d="M1128.88,-119.36C1253.47,-114.93 1593.04,-101.33 1875,-76 1877.93,-75.74 1880.91,-75.45 1883.93,-75.14"/>
<polygon fill="midnightblue" stroke="midnightblue" points="1128.41,-115.87 1118.54,-119.72 1128.65,-122.87 1128.41,-115.87"/>
</g>
<!-- Node22 -->
<g id="node22" class="node">
<title>Node22</title>
<g id="a_node22"><a xlink:href="neural__layer__convolutional_8h.html" target="_top" xlink:title="An implementation of a 2D convolutional layer.">
<polygon fill="none" stroke="black" points="936,-56.5 936,-75.5 1076,-75.5 1076,-56.5 936,-56.5"/>
<text text-anchor="middle" x="1006" y="-63.5" font-family="Helvetica,sans-Serif" font-size="10.00">neural_layer_convolutional.h</text>
</a>
</g>
</g>
<!-- Node1&#45;&gt;Node22 -->
<g id="edge27" class="edge">
<title>Node1&#45;&gt;Node22</title>
<path fill="none" stroke="midnightblue" d="M1059.97,-106.38C1046.59,-96.62 1029.44,-84.11 1018.11,-75.83"/>
<polygon fill="midnightblue" stroke="midnightblue" points="1057.97,-109.26 1068.11,-112.32 1062.1,-103.6 1057.97,-109.26"/>
</g>
<!-- Node24 -->
<g id="node24" class="node">
<title>Node24</title>
<g id="a_node24"><a xlink:href="neural__layer__dropout_8h.html" target="_top" xlink:title="An implementation of a dropout layer.">
<polygon fill="none" stroke="black" points="1611.5,-56.5 1611.5,-75.5 1726.5,-75.5 1726.5,-56.5 1611.5,-56.5"/>
<text text-anchor="middle" x="1669" y="-63.5" font-family="Helvetica,sans-Serif" font-size="10.00">neural_layer_dropout.h</text>
</a>
</g>
</g>
<!-- Node1&#45;&gt;Node24 -->
<g id="edge34" class="edge">
<title>Node1&#45;&gt;Node24</title>
<path fill="none" stroke="midnightblue" d="M1128.97,-117.6C1221.65,-110.99 1429.01,-95.34 1603,-76 1605.76,-75.69 1608.58,-75.37 1611.43,-75.02"/>
<polygon fill="midnightblue" stroke="midnightblue" points="1128.5,-114.13 1118.78,-118.33 1129,-121.11 1128.5,-114.13"/>
</g>
<!-- Node26 -->
<g id="node26" class="node">
<title>Node26</title>
<g id="a_node26"><a xlink:href="neural__layer__lstm_8h.html" target="_top" xlink:title="An implementation of a long short&#45;term memory layer.">
<polygon fill="none" stroke="black" points="1492.5,-56.5 1492.5,-75.5 1593.5,-75.5 1593.5,-56.5 1492.5,-56.5"/>
<text text-anchor="middle" x="1543" y="-63.5" font-family="Helvetica,sans-Serif" font-size="10.00">neural_layer_lstm.h</text>
</a>
</g>
</g>
<!-- Node1&#45;&gt;Node26 -->
<g id="edge43" class="edge">
<title>Node1&#45;&gt;Node26</title>
<path fill="none" stroke="midnightblue" d="M1128.88,-116.14C1204.78,-108.46 1355.49,-92.68 1483,-76 1486.03,-75.6 1489.14,-75.18 1492.28,-74.75"/>
<polygon fill="midnightblue" stroke="midnightblue" points="1128.28,-112.69 1118.68,-117.17 1128.98,-119.65 1128.28,-112.69"/>
</g>
<!-- Node27 -->
<g id="node27" class="node">
<title>Node27</title>
<g id="a_node27"><a xlink:href="neural__layer__maxpool_8h.html" target="_top" xlink:title="An implementation of a 2D maxpooling layer.">
<polygon fill="none" stroke="black" points="1094.5,-56.5 1094.5,-75.5 1213.5,-75.5 1213.5,-56.5 1094.5,-56.5"/>
<text text-anchor="middle" x="1154" y="-63.5" font-family="Helvetica,sans-Serif" font-size="10.00">neural_layer_maxpool.h</text>
</a>
</g>
</g>
<!-- Node1&#45;&gt;Node27 -->
<g id="edge51" class="edge">
<title>Node1&#45;&gt;Node27</title>
<path fill="none" stroke="midnightblue" d="M1100.03,-106.38C1113.41,-96.62 1130.56,-84.11 1141.89,-75.83"/>
<polygon fill="midnightblue" stroke="midnightblue" points="1097.9,-103.6 1091.89,-112.32 1102.03,-109.26 1097.9,-103.6"/>
</g>
<!-- Node29 -->
<g id="node29" class="node">
<title>Node29</title>
<g id="a_node29"><a xlink:href="neural__layer__noise_8h.html" target="_top" xlink:title="An implementation of a Gaussian noise adding layer.">
<polygon fill="none" stroke="black" points="1232,-56.5 1232,-75.5 1338,-75.5 1338,-56.5 1232,-56.5"/>
<text text-anchor="middle" x="1285" y="-63.5" font-family="Helvetica,sans-Serif" font-size="10.00">neural_layer_noise.h</text>
</a>
</g>
</g>
<!-- Node1&#45;&gt;Node29 -->
<g id="edge58" class="edge">
<title>Node1&#45;&gt;Node29</title>
<path fill="none" stroke="midnightblue" d="M1122.41,-109.83C1161.11,-99.63 1217.49,-84.78 1252.67,-75.52"/>
<polygon fill="midnightblue" stroke="midnightblue" points="1121.26,-106.51 1112.48,-112.44 1123.04,-113.28 1121.26,-106.51"/>
</g>
<!-- Node31 -->
<g id="node31" class="node">
<title>Node31</title>
<g id="a_node31"><a xlink:href="neural__layer__recurrent_8h.html" target="_top" xlink:title="An implementation of a recurrent layer of perceptrons.">
<polygon fill="none" stroke="black" points="1744.5,-56.5 1744.5,-75.5 1865.5,-75.5 1865.5,-56.5 1744.5,-56.5"/>
<text text-anchor="middle" x="1805" y="-63.5" font-family="Helvetica,sans-Serif" font-size="10.00">neural_layer_recurrent.h</text>
</a>
</g>
</g>
<!-- Node1&#45;&gt;Node31 -->
<g id="edge66" class="edge">
<title>Node1&#45;&gt;Node31</title>
<path fill="none" stroke="midnightblue" d="M1128.54,-118.69C1237.4,-113.28 1509.3,-98.54 1736,-76 1738.76,-75.73 1741.59,-75.43 1744.44,-75.11"/>
<polygon fill="midnightblue" stroke="midnightblue" points="1128.33,-115.2 1118.52,-119.18 1128.68,-122.19 1128.33,-115.2"/>
</g>
<!-- Node32 -->
<g id="node32" class="node">
<title>Node32</title>
<g id="a_node32"><a xlink:href="neural__layer__softmax_8h.html" target="_top" xlink:title="An implementation of a softmax layer.">
<polygon fill="none" stroke="black" points="1356,-56.5 1356,-75.5 1474,-75.5 1474,-56.5 1356,-56.5"/>
<text text-anchor="middle" x="1415" y="-63.5" font-family="Helvetica,sans-Serif" font-size="10.00">neural_layer_softmax.h</text>
</a>
</g>
</g>
<!-- Node1&#45;&gt;Node32 -->
<g id="edge75" class="edge">
<title>Node1&#45;&gt;Node32</title>
<path fill="none" stroke="midnightblue" d="M1128.7,-113.15C1190.83,-103.13 1297.91,-85.87 1362.03,-75.54"/>
<polygon fill="midnightblue" stroke="midnightblue" points="1128.07,-109.71 1118.76,-114.75 1129.19,-116.62 1128.07,-109.71"/>
</g>
<!-- Node34 -->
<g id="node34" class="node">
<title>Node34</title>
<g id="a_node34"><a xlink:href="neural__layer__upsample_8h.html" target="_top" xlink:title="An implementation of a 2D upsampling layer.">
<polygon fill="none" stroke="black" points="792.5,-56.5 792.5,-75.5 917.5,-75.5 917.5,-56.5 792.5,-56.5"/>
<text text-anchor="middle" x="855" y="-63.5" font-family="Helvetica,sans-Serif" font-size="10.00">neural_layer_upsample.h</text>
</a>
</g>
</g>
<!-- Node1&#45;&gt;Node34 -->
<g id="edge83" class="edge">
<title>Node1&#45;&gt;Node34</title>
<path fill="none" stroke="midnightblue" d="M1034.53,-110.09C992.03,-99.89 929.42,-84.86 890.49,-75.52"/>
<polygon fill="midnightblue" stroke="midnightblue" points="1033.81,-113.51 1044.35,-112.44 1035.44,-106.71 1033.81,-113.51"/>
</g>
<!-- Node36 -->
<g id="node36" class="node">
<title>Node36</title>
<g id="a_node36"><a xlink:href="pred__neural_8h.html" target="_top" xlink:title="Multi&#45;layer perceptron neural network prediction functions.">
<polygon fill="none" stroke="black" points="246.5,-56.5 246.5,-75.5 321.5,-75.5 321.5,-56.5 246.5,-56.5"/>
<text text-anchor="middle" x="284" y="-63.5" font-family="Helvetica,sans-Serif" font-size="10.00">pred_neural.h</text>
</a>
</g>
</g>
<!-- Node1&#45;&gt;Node36 -->
<g id="edge89" class="edge">
<title>Node1&#45;&gt;Node36</title>
<path fill="none" stroke="midnightblue" d="M1031.31,-117.7C885.09,-107.78 451.84,-78.39 321.5,-69.54"/>
<polygon fill="midnightblue" stroke="midnightblue" points="1031.12,-121.19 1041.34,-118.38 1031.6,-114.21 1031.12,-121.19"/>
</g>
<!-- Node3 -->
<g id="node3" class="node">
<title>Node3</title>
<g id="a_node3"><a xlink:href="act__neural_8c.html" target="_top" xlink:title="Neural network action functions.">
<polygon fill="none" stroke="black" points="1062,-0.5 1062,-19.5 1132,-19.5 1132,-0.5 1062,-0.5"/>
<text text-anchor="middle" x="1097" y="-7.5" font-family="Helvetica,sans-Serif" font-size="10.00">act_neural.c</text>
</a>
</g>
</g>
<!-- Node2&#45;&gt;Node3 -->
<g id="edge2" class="edge">
<title>Node2&#45;&gt;Node3</title>
<path fill="none" stroke="midnightblue" d="M650.02,-56.02C829.12,-30.47 877.86,-45.63 1053,-20 1055.93,-19.57 1058.96,-19.07 1062,-18.53"/>
<polygon fill="midnightblue" stroke="midnightblue" points="649.4,-52.57 640,-57.47 650.4,-59.5 649.4,-52.57"/>
</g>
<!-- Node4 -->
<g id="node4" class="node">
<title>Node4</title>
<g id="a_node4"><a xlink:href="action_8c.html" target="_top" xlink:title="Interface for classifier actions.">
<polygon fill="none" stroke="black" points="325.5,-0.5 325.5,-19.5 376.5,-19.5 376.5,-0.5 325.5,-0.5"/>
<text text-anchor="middle" x="351" y="-7.5" font-family="Helvetica,sans-Serif" font-size="10.00">action.c</text>
</a>
</g>
</g>
<!-- Node2&#45;&gt;Node4 -->
<g id="edge3" class="edge">
<title>Node2&#45;&gt;Node4</title>
<path fill="none" stroke="midnightblue" d="M559.66,-55.71C496.77,-42.83 390.25,-20.98 386,-20 382.94,-19.29 379.75,-18.52 376.58,-17.73"/>
<polygon fill="midnightblue" stroke="midnightblue" points="559.23,-59.2 569.73,-57.78 560.64,-52.34 559.23,-59.2"/>
</g>
<!-- Node6 -->
<g id="node6" class="node">
<title>Node6</title>
<g id="a_node6"><a xlink:href="clset__neural_8c.html" target="_top" xlink:title="Functions operating on sets of neural classifiers.">
<polygon fill="none" stroke="black" points="82.5,-0.5 82.5,-19.5 159.5,-19.5 159.5,-0.5 82.5,-0.5"/>
<text text-anchor="middle" x="121" y="-7.5" font-family="Helvetica,sans-Serif" font-size="10.00">clset_neural.c</text>
</a>
</g>
</g>
<!-- Node5&#45;&gt;Node6 -->
<g id="edge5" class="edge">
<title>Node5&#45;&gt;Node6</title>
<path fill="none" stroke="midnightblue" d="M170.96,-50.1C158.54,-40.38 142.76,-28.03 132.29,-19.83"/>
<polygon fill="midnightblue" stroke="midnightblue" points="168.88,-52.92 178.91,-56.32 173.2,-47.4 168.88,-52.92"/>
</g>
<!-- Node7 -->
<g id="node7" class="node">
<title>Node7</title>
<g id="a_node7"><a xlink:href="cond__neural_8c.html" target="_top" xlink:title="Multi&#45;layer perceptron neural network condition functions.">
<polygon fill="none" stroke="black" points="1488.5,-0.5 1488.5,-19.5 1565.5,-19.5 1565.5,-0.5 1488.5,-0.5"/>
<text text-anchor="middle" x="1527" y="-7.5" font-family="Helvetica,sans-Serif" font-size="10.00">cond_neural.c</text>
</a>
</g>
</g>
<!-- Node5&#45;&gt;Node7 -->
<g id="edge6" class="edge">
<title>Node5&#45;&gt;Node7</title>
<path fill="none" stroke="midnightblue" d="M238.82,-55.98C788.17,3.14 933.96,-79.8 1480,-20 1482.73,-19.7 1485.53,-19.33 1488.35,-18.91"/>
<polygon fill="midnightblue" stroke="midnightblue" points="238.22,-52.53 228.65,-57.09 238.97,-59.49 238.22,-52.53"/>
</g>
<!-- Node8 -->
<g id="node8" class="node">
<title>Node8</title>
<g id="a_node8"><a xlink:href="condition_8c.html" target="_top" xlink:title="Interface for classifier conditions.">
<polygon fill="none" stroke="black" points="0,-0.5 0,-19.5 64,-19.5 64,-0.5 0,-0.5"/>
<text text-anchor="middle" x="32" y="-7.5" font-family="Helvetica,sans-Serif" font-size="10.00">condition.c</text>
</a>
</g>
</g>
<!-- Node5&#45;&gt;Node8 -->
<g id="edge7" class="edge">
<title>Node5&#45;&gt;Node8</title>
<path fill="none" stroke="midnightblue" d="M155.39,-53.17C125.64,-43 83.45,-28.59 56.92,-19.52"/>
<polygon fill="midnightblue" stroke="midnightblue" points="154.37,-56.52 164.96,-56.44 156.63,-49.9 154.37,-56.52"/>
</g>
<!-- Node9 -->
<g id="node9" class="node">
<title>Node9</title>
<g id="a_node9"><a xlink:href="xcsf_8c.html" target="_top" xlink:title="System&#45;level functions for initialising, saving, loading, etc.">
<polygon fill="none" stroke="black" points="178,-0.5 178,-19.5 222,-19.5 222,-0.5 178,-0.5"/>
<text text-anchor="middle" x="200" y="-7.5" font-family="Helvetica,sans-Serif" font-size="10.00">xcsf.c</text>
</a>
</g>
</g>
<!-- Node5&#45;&gt;Node9 -->
<g id="edge8" class="edge">
<title>Node5&#45;&gt;Node9</title>
<path fill="none" stroke="midnightblue" d="M193.5,-46.1C195.16,-37.14 197.06,-26.86 198.38,-19.75"/>
<polygon fill="midnightblue" stroke="midnightblue" points="190.03,-45.61 191.65,-56.08 196.91,-46.89 190.03,-45.61"/>
</g>
<!-- Node11&#45;&gt;Node3 -->
<g id="edge11" class="edge">
<title>Node11&#45;&gt;Node3</title>
<path fill="none" stroke="midnightblue" d="M783.99,-55.98C880.51,-43.17 1046.41,-21.11 1053,-20 1055.92,-19.51 1058.95,-18.96 1061.98,-18.39"/>
<polygon fill="midnightblue" stroke="midnightblue" points="783.46,-52.52 774.01,-57.31 784.38,-59.46 783.46,-52.52"/>
</g>
<!-- Node12 -->
<g id="node12" class="node">
<title>Node12</title>
<g id="a_node12"><a xlink:href="neural__layer_8c.html" target="_top" xlink:title="Interface for neural network layers.">
<polygon fill="none" stroke="black" points="1274.5,-0.5 1274.5,-19.5 1351.5,-19.5 1351.5,-0.5 1274.5,-0.5"/>
<text text-anchor="middle" x="1313" y="-7.5" font-family="Helvetica,sans-Serif" font-size="10.00">neural_layer.c</text>
</a>
</g>
</g>
<!-- Node11&#45;&gt;Node12 -->
<g id="edge12" class="edge">
<title>Node11&#45;&gt;Node12</title>
<path fill="none" stroke="midnightblue" d="M784.23,-56.05C998.94,-34.34 1055.65,-47.38 1265,-20 1268.03,-19.6 1271.15,-19.14 1274.29,-18.64"/>
<polygon fill="midnightblue" stroke="midnightblue" points="783.8,-52.57 774.21,-57.07 784.52,-59.54 783.8,-52.57"/>
</g>
<!-- Node13 -->
<g id="node13" class="node">
<title>Node13</title>
<g id="a_node13"><a xlink:href="neural__layer__args_8c.html" target="_top" xlink:title="Functions operating on neural network arguments/constants.">
<polygon fill="none" stroke="black" points="1369.5,-0.5 1369.5,-19.5 1470.5,-19.5 1470.5,-0.5 1369.5,-0.5"/>
<text text-anchor="middle" x="1420" y="-7.5" font-family="Helvetica,sans-Serif" font-size="10.00">neural_layer_args.c</text>
</a>
</g>
</g>
<!-- Node11&#45;&gt;Node13 -->
<g id="edge13" class="edge">
<title>Node11&#45;&gt;Node13</title>
<path fill="none" stroke="midnightblue" d="M784.23,-56.06C1041.44,-31.53 1108.77,-47.05 1361,-20 1363.68,-19.71 1366.42,-19.39 1369.19,-19.04"/>
<polygon fill="midnightblue" stroke="midnightblue" points="783.83,-52.58 774.21,-57.03 784.5,-59.55 783.83,-52.58"/>
</g>
<!-- Node14 -->
<g id="node14" class="node">
<title>Node14</title>
<g id="a_node14"><a xlink:href="neural__layer__avgpool_8c.html" target="_top" xlink:title="An implementation of an average pooling layer.">
<polygon fill="none" stroke="black" points="395,-0.5 395,-19.5 511,-19.5 511,-0.5 395,-0.5"/>
<text text-anchor="middle" x="453" y="-7.5" font-family="Helvetica,sans-Serif" font-size="10.00">neural_layer_avgpool.c</text>
</a>
</g>
</g>
<!-- Node11&#45;&gt;Node14 -->
<g id="edge14" class="edge">
<title>Node11&#45;&gt;Node14</title>
<path fill="none" stroke="midnightblue" d="M664.42,-54.41C614.72,-44.2 540.47,-28.96 494.48,-19.52"/>
<polygon fill="midnightblue" stroke="midnightblue" points="663.83,-57.86 674.33,-56.44 665.24,-51 663.83,-57.86"/>
</g>
<!-- Node15 -->
<g id="node15" class="node">
<title>Node15</title>
<g id="a_node15"><a xlink:href="pred__neural_8c.html" target="_top" xlink:title="Multi&#45;layer perceptron neural network prediction functions.">
<polygon fill="none" stroke="black" points="968.5,-0.5 968.5,-19.5 1043.5,-19.5 1043.5,-0.5 968.5,-0.5"/>
<text text-anchor="middle" x="1006" y="-7.5" font-family="Helvetica,sans-Serif" font-size="10.00">pred_neural.c</text>
</a>
</g>
</g>
<!-- Node11&#45;&gt;Node15 -->
<g id="edge15" class="edge">
<title>Node11&#45;&gt;Node15</title>
<path fill="none" stroke="midnightblue" d="M773.13,-54.64C822.6,-45.63 896.06,-32.15 960,-20 962.72,-19.48 965.53,-18.95 968.35,-18.4"/>
<polygon fill="midnightblue" stroke="midnightblue" points="772.47,-51.21 763.26,-56.44 773.73,-58.09 772.47,-51.21"/>
</g>
<!-- Node16&#45;&gt;Node3 -->
<g id="edge17" class="edge">
<title>Node16&#45;&gt;Node3</title>
<path fill="none" stroke="midnightblue" d="M1873.73,-55.96C1547.83,-28.66 1461.73,-60.43 1141,-20 1138.22,-19.65 1135.34,-19.22 1132.46,-18.74"/>
<polygon fill="midnightblue" stroke="midnightblue" points="1873.67,-59.47 1883.93,-56.83 1874.27,-52.5 1873.67,-59.47"/>
</g>
<!-- Node16&#45;&gt;Node7 -->
<g id="edge18" class="edge">
<title>Node16&#45;&gt;Node7</title>
<path fill="none" stroke="midnightblue" d="M1873.68,-55.85C1739.98,-39.8 1704.49,-39.89 1575,-20 1571.98,-19.54 1568.87,-19.03 1565.74,-18.49"/>
<polygon fill="midnightblue" stroke="midnightblue" points="1873.56,-59.36 1883.91,-57.09 1874.4,-52.41 1873.56,-59.36"/>
</g>
<!-- Node16&#45;&gt;Node12 -->
<g id="edge20" class="edge">
<title>Node16&#45;&gt;Node12</title>
<path fill="none" stroke="midnightblue" d="M1873.97,-55.96C1645.35,-34.4 1584.92,-48.74 1361,-20 1357.97,-19.61 1354.85,-19.15 1351.71,-18.66"/>
<polygon fill="midnightblue" stroke="midnightblue" points="1873.64,-59.44 1883.93,-56.91 1874.31,-52.47 1873.64,-59.44"/>
</g>
<!-- Node16&#45;&gt;Node13 -->
<g id="edge21" class="edge">
<title>Node16&#45;&gt;Node13</title>
<path fill="none" stroke="midnightblue" d="M1873.81,-55.91C1698.02,-37.35 1651.77,-40.69 1480,-20 1476.97,-19.63 1473.85,-19.24 1470.71,-18.82"/>
<polygon fill="midnightblue" stroke="midnightblue" points="1873.6,-59.4 1883.92,-56.98 1874.35,-52.44 1873.6,-59.4"/>
</g>
<!-- Node16&#45;&gt;Node15 -->
<g id="edge25" class="edge">
<title>Node16&#45;&gt;Node15</title>
<path fill="none" stroke="midnightblue" d="M1873.89,-55.98C1508.85,-26.26 1412.92,-62.12 1053,-20 1049.95,-19.64 1046.79,-19.2 1043.64,-18.71"/>
<polygon fill="midnightblue" stroke="midnightblue" points="1873.68,-59.48 1883.94,-56.81 1874.26,-52.5 1873.68,-59.48"/>
</g>
<!-- Node17 -->
<g id="node17" class="node">
<title>Node17</title>
<g id="a_node17"><a xlink:href="neural_8c.html" target="_top" xlink:title="An implementation of a multi&#45;layer perceptron neural network.">
<polygon fill="none" stroke="black" points="1853.5,-0.5 1853.5,-19.5 1904.5,-19.5 1904.5,-0.5 1853.5,-0.5"/>
<text text-anchor="middle" x="1879" y="-7.5" font-family="Helvetica,sans-Serif" font-size="10.00">neural.c</text>
</a>
</g>
</g>
<!-- Node16&#45;&gt;Node17 -->
<g id="edge19" class="edge">
<title>Node16&#45;&gt;Node17</title>
<path fill="none" stroke="midnightblue" d="M1928.96,-50.1C1916.54,-40.38 1900.76,-28.03 1890.29,-19.83"/>
<polygon fill="midnightblue" stroke="midnightblue" points="1926.88,-52.92 1936.91,-56.32 1931.2,-47.4 1926.88,-52.92"/>
</g>
<!-- Node18 -->
<g id="node18" class="node">
<title>Node18</title>
<g id="a_node18"><a xlink:href="neural__layer__connected_8c.html" target="_top" xlink:title="An implementation of a fully&#45;connected layer of perceptrons.">
<polygon fill="none" stroke="black" points="2272,-0.5 2272,-19.5 2400,-19.5 2400,-0.5 2272,-0.5"/>
<text text-anchor="middle" x="2336" y="-7.5" font-family="Helvetica,sans-Serif" font-size="10.00">neural_layer_connected.c</text>
</a>
</g>
</g>
<!-- Node16&#45;&gt;Node18 -->
<g id="edge22" class="edge">
<title>Node16&#45;&gt;Node18</title>
<path fill="none" stroke="midnightblue" d="M2019.55,-55.04C2092.83,-44.84 2205.54,-29.16 2274.81,-19.52"/>
<polygon fill="midnightblue" stroke="midnightblue" points="2018.9,-51.6 2009.48,-56.44 2019.87,-58.53 2018.9,-51.6"/>
</g>
<!-- Node19 -->
<g id="node19" class="node">
<title>Node19</title>
<g id="a_node19"><a xlink:href="neural__layer__lstm_8c.html" target="_top" xlink:title="An implementation of a long short&#45;term memory layer.">
<polygon fill="none" stroke="black" points="2013.5,-0.5 2013.5,-19.5 2114.5,-19.5 2114.5,-0.5 2013.5,-0.5"/>
<text text-anchor="middle" x="2064" y="-7.5" font-family="Helvetica,sans-Serif" font-size="10.00">neural_layer_lstm.c</text>
</a>
</g>
</g>
<!-- Node16&#45;&gt;Node19 -->
<g id="edge23" class="edge">
<title>Node16&#45;&gt;Node19</title>
<path fill="none" stroke="midnightblue" d="M1975.72,-52.1C1997.39,-42.01 2026.9,-28.27 2045.71,-19.52"/>
<polygon fill="midnightblue" stroke="midnightblue" points="1973.97,-49.05 1966.38,-56.44 1976.92,-55.4 1973.97,-49.05"/>
</g>
<!-- Node20 -->
<g id="node20" class="node">
<title>Node20</title>
<g id="a_node20"><a xlink:href="neural__layer__recurrent_8c.html" target="_top" xlink:title="An implementation of a recurrent layer of perceptrons.">
<polygon fill="none" stroke="black" points="2132.5,-0.5 2132.5,-19.5 2253.5,-19.5 2253.5,-0.5 2132.5,-0.5"/>
<text text-anchor="middle" x="2193" y="-7.5" font-family="Helvetica,sans-Serif" font-size="10.00">neural_layer_recurrent.c</text>
</a>
</g>
</g>
<!-- Node16&#45;&gt;Node20 -->
<g id="edge24" class="edge">
<title>Node16&#45;&gt;Node20</title>
<path fill="none" stroke="midnightblue" d="M1996.63,-54.28C2042.93,-44.08 2111.69,-28.92 2154.36,-19.52"/>
<polygon fill="midnightblue" stroke="midnightblue" points="1995.83,-50.87 1986.82,-56.44 1997.34,-57.71 1995.83,-50.87"/>
</g>
<!-- Node21 -->
<g id="node21" class="node">
<title>Node21</title>
<g id="a_node21"><a xlink:href="rule__neural_8c.html" target="_top" xlink:title="Neural network rule (condition + action) functions.">
<polygon fill="none" stroke="black" points="1923,-0.5 1923,-19.5 1995,-19.5 1995,-0.5 1923,-0.5"/>
<text text-anchor="middle" x="1959" y="-7.5" font-family="Helvetica,sans-Serif" font-size="10.00">rule_neural.c</text>
</a>
</g>
</g>
<!-- Node16&#45;&gt;Node21 -->
<g id="edge26" class="edge">
<title>Node16&#45;&gt;Node21</title>
<path fill="none" stroke="midnightblue" d="M1951.85,-46.1C1953.68,-37.14 1955.77,-26.86 1957.22,-19.75"/>
<polygon fill="midnightblue" stroke="midnightblue" points="1948.38,-45.59 1949.82,-56.08 1955.24,-46.98 1948.38,-45.59"/>
</g>
<!-- Node22&#45;&gt;Node3 -->
<g id="edge28" class="edge">
<title>Node22&#45;&gt;Node3</title>
<path fill="none" stroke="midnightblue" d="M1029.29,-51.18C1046.04,-41.24 1068.1,-28.15 1082.42,-19.65"/>
<polygon fill="midnightblue" stroke="midnightblue" points="1027.43,-48.21 1020.62,-56.32 1031.01,-54.23 1027.43,-48.21"/>
</g>
<!-- Node22&#45;&gt;Node7 -->
<g id="edge29" class="edge">
<title>Node22&#45;&gt;Node7</title>
<path fill="none" stroke="midnightblue" d="M1086.37,-55.99C1262.65,-38.4 1309.11,-44.11 1480,-20 1482.71,-19.62 1485.51,-19.18 1488.32,-18.72"/>
<polygon fill="midnightblue" stroke="midnightblue" points="1085.83,-52.53 1076.23,-57.01 1086.53,-59.49 1085.83,-52.53"/>
</g>
<!-- Node22&#45;&gt;Node12 -->
<g id="edge30" class="edge">
<title>Node22&#45;&gt;Node12</title>
<path fill="none" stroke="midnightblue" d="M1066.32,-54.75C1118.84,-45.78 1197,-32.28 1265,-20 1268.09,-19.44 1271.28,-18.86 1274.5,-18.27"/>
<polygon fill="midnightblue" stroke="midnightblue" points="1065.44,-51.35 1056.17,-56.49 1066.62,-58.25 1065.44,-51.35"/>
</g>
<!-- Node22&#45;&gt;Node13 -->
<g id="edge31" class="edge">
<title>Node22&#45;&gt;Node13</title>
<path fill="none" stroke="midnightblue" d="M1086.47,-55.39C1158.48,-46.65 1266.88,-33.14 1361,-20 1363.77,-19.61 1366.61,-19.21 1369.48,-18.79"/>
<polygon fill="midnightblue" stroke="midnightblue" points="1085.63,-51.96 1076.12,-56.64 1086.47,-58.91 1085.63,-51.96"/>
</g>
<!-- Node22&#45;&gt;Node15 -->
<g id="edge33" class="edge">
<title>Node22&#45;&gt;Node15</title>
<path fill="none" stroke="midnightblue" d="M1006,-45.8C1006,-36.91 1006,-26.78 1006,-19.75"/>
<polygon fill="midnightblue" stroke="midnightblue" points="1002.5,-46.08 1006,-56.08 1009.5,-46.08 1002.5,-46.08"/>
</g>
<!-- Node23 -->
<g id="node23" class="node">
<title>Node23</title>
<g id="a_node23"><a xlink:href="neural__layer__convolutional_8c.html" target="_top" xlink:title="An implementation of a 2D convolutional layer.">
<polygon fill="none" stroke="black" points="673,-0.5 673,-19.5 813,-19.5 813,-0.5 673,-0.5"/>
<text text-anchor="middle" x="743" y="-7.5" font-family="Helvetica,sans-Serif" font-size="10.00">neural_layer_convolutional.c</text>
</a>
</g>
</g>
<!-- Node22&#45;&gt;Node23 -->
<g id="edge32" class="edge">
<title>Node22&#45;&gt;Node23</title>
<path fill="none" stroke="midnightblue" d="M954.42,-54.41C904.72,-44.2 830.47,-28.96 784.48,-19.52"/>
<polygon fill="midnightblue" stroke="midnightblue" points="953.83,-57.86 964.33,-56.44 955.24,-51 953.83,-57.86"/>
</g>
<!-- Node24&#45;&gt;Node3 -->
<g id="edge35" class="edge">
<title>Node24&#45;&gt;Node3</title>
<path fill="none" stroke="midnightblue" d="M1601.25,-55.87C1396.46,-34.54 1341.66,-48.23 1141,-20 1138.22,-19.61 1135.35,-19.15 1132.48,-18.65"/>
<polygon fill="midnightblue" stroke="midnightblue" points="1601.12,-59.38 1611.43,-56.95 1601.85,-52.42 1601.12,-59.38"/>
</g>
<!-- Node24&#45;&gt;Node7 -->
<g id="edge36" class="edge">
<title>Node24&#45;&gt;Node7</title>
<path fill="none" stroke="midnightblue" d="M1636.84,-52.77C1610.17,-42.63 1572.93,-28.47 1549.4,-19.52"/>
<polygon fill="midnightblue" stroke="midnightblue" points="1635.91,-56.16 1646.5,-56.44 1638.4,-49.62 1635.91,-56.16"/>
</g>
<!-- Node24&#45;&gt;Node12 -->
<g id="edge38" class="edge">
<title>Node24&#45;&gt;Node12</title>
<path fill="none" stroke="midnightblue" d="M1601.31,-55.43C1525.05,-44.6 1405.89,-27.48 1361,-20 1357.99,-19.5 1354.88,-18.96 1351.75,-18.4"/>
<polygon fill="midnightblue" stroke="midnightblue" points="1600.91,-58.91 1611.31,-56.85 1601.9,-51.98 1600.91,-58.91"/>
</g>
<!-- Node24&#45;&gt;Node13 -->
<g id="edge39" class="edge">
<title>Node24&#45;&gt;Node13</title>
<path fill="none" stroke="midnightblue" d="M1619.58,-54.28C1572.52,-44.08 1502.63,-28.92 1459.27,-19.52"/>
<polygon fill="midnightblue" stroke="midnightblue" points="1619.03,-57.74 1629.55,-56.44 1620.51,-50.9 1619.03,-57.74"/>
</g>
<!-- Node24&#45;&gt;Node15 -->
<g id="edge41" class="edge">
<title>Node24&#45;&gt;Node15</title>
<path fill="none" stroke="midnightblue" d="M1601.2,-55.89C1357.5,-31.96 1292.66,-50.67 1053,-20 1049.95,-19.61 1046.8,-19.14 1043.64,-18.63"/>
<polygon fill="midnightblue" stroke="midnightblue" points="1601.14,-59.4 1611.44,-56.91 1601.83,-52.43 1601.14,-59.4"/>
</g>
<!-- Node24&#45;&gt;Node17 -->
<g id="edge37" class="edge">
<title>Node24&#45;&gt;Node17</title>
<path fill="none" stroke="midnightblue" d="M1712.82,-53.9C1748.45,-44.86 1800,-31.71 1845,-20 1847.72,-19.29 1850.56,-18.55 1853.39,-17.8"/>
<polygon fill="midnightblue" stroke="midnightblue" points="1711.59,-50.61 1702.76,-56.46 1713.32,-57.39 1711.59,-50.61"/>
</g>
<!-- Node24&#45;&gt;Node21 -->
<g id="edge42" class="edge">
<title>Node24&#45;&gt;Node21</title>
<path fill="none" stroke="midnightblue" d="M1726.84,-54.64C1776.52,-45.68 1850.03,-32.27 1914,-20 1916.82,-19.46 1919.73,-18.89 1922.66,-18.32"/>
<polygon fill="midnightblue" stroke="midnightblue" points="1726.15,-51.21 1716.93,-56.43 1727.39,-58.1 1726.15,-51.21"/>
</g>
<!-- Node25 -->
<g id="node25" class="node">
<title>Node25</title>
<g id="a_node25"><a xlink:href="neural__layer__dropout_8c.html" target="_top" xlink:title="An implementation of a dropout layer.">
<polygon fill="none" stroke="black" points="1720.5,-0.5 1720.5,-19.5 1835.5,-19.5 1835.5,-0.5 1720.5,-0.5"/>
<text text-anchor="middle" x="1778" y="-7.5" font-family="Helvetica,sans-Serif" font-size="10.00">neural_layer_dropout.c</text>
</a>
</g>
</g>
<!-- Node24&#45;&gt;Node25 -->
<g id="edge40" class="edge">
<title>Node24&#45;&gt;Node25</title>
<path fill="none" stroke="midnightblue" d="M1695.52,-51.86C1715.73,-41.85 1742.99,-28.35 1760.53,-19.65"/>
<polygon fill="midnightblue" stroke="midnightblue" points="1693.92,-48.75 1686.51,-56.32 1697.03,-55.02 1693.92,-48.75"/>
</g>
<!-- Node26&#45;&gt;Node3 -->
<g id="edge44" class="edge">
<title>Node26&#45;&gt;Node3</title>
<path fill="none" stroke="midnightblue" d="M1482.08,-55.94C1329.65,-36.93 1288.8,-42.84 1141,-20 1138.07,-19.55 1135.04,-19.03 1132.01,-18.48"/>
<polygon fill="midnightblue" stroke="midnightblue" points="1481.92,-59.45 1492.28,-57.23 1482.8,-52.51 1481.92,-59.45"/>
</g>
<!-- Node26&#45;&gt;Node7 -->
<g id="edge45" class="edge">
<title>Node26&#45;&gt;Node7</title>
<path fill="none" stroke="midnightblue" d="M1537.49,-46.4C1534.81,-37.36 1531.72,-26.94 1529.59,-19.75"/>
<polygon fill="midnightblue" stroke="midnightblue" points="1534.16,-47.49 1540.36,-56.08 1540.87,-45.5 1534.16,-47.49"/>
</g>
<!-- Node26&#45;&gt;Node12 -->
<g id="edge46" class="edge">
<title>Node26&#45;&gt;Node12</title>
<path fill="none" stroke="midnightblue" d="M1496.8,-54.15C1453.34,-43.95 1389.16,-28.88 1349.27,-19.52"/>
<polygon fill="midnightblue" stroke="midnightblue" points="1496.02,-57.57 1506.56,-56.44 1497.62,-50.75 1496.02,-57.57"/>
</g>
<!-- Node26&#45;&gt;Node13 -->
<g id="edge47" class="edge">
<title>Node26&#45;&gt;Node13</title>
<path fill="none" stroke="midnightblue" d="M1514.23,-52.37C1491.19,-42.26 1459.52,-28.35 1439.4,-19.52"/>
<polygon fill="midnightblue" stroke="midnightblue" points="1512.95,-55.63 1523.51,-56.44 1515.76,-49.22 1512.95,-55.63"/>
</g>
<!-- Node26&#45;&gt;Node15 -->
<g id="edge49" class="edge">
<title>Node26&#45;&gt;Node15</title>
<path fill="none" stroke="midnightblue" d="M1482.18,-55.99C1290.78,-34.17 1239.75,-45.63 1053,-20 1049.95,-19.58 1046.81,-19.1 1043.65,-18.57"/>
<polygon fill="midnightblue" stroke="midnightblue" points="1481.96,-59.48 1492.29,-57.16 1482.76,-52.53 1481.96,-59.48"/>
</g>
<!-- Node26&#45;&gt;Node19 -->
<g id="edge48" class="edge">
<title>Node26&#45;&gt;Node19</title>
<path fill="none" stroke="midnightblue" d="M1603.71,-55.99C1782.36,-34.95 1829.54,-40.9 2004,-20 2007.03,-19.64 2010.15,-19.24 2013.29,-18.82"/>
<polygon fill="midnightblue" stroke="midnightblue" points="1603.23,-52.52 1593.71,-57.18 1604.05,-59.47 1603.23,-52.52"/>
</g>
<!-- Node26&#45;&gt;Node21 -->
<g id="edge50" class="edge">
<title>Node26&#45;&gt;Node21</title>
<path fill="none" stroke="midnightblue" d="M1603.89,-55.93C1742.66,-37.85 1779.77,-41.15 1914,-20 1916.83,-19.55 1919.76,-19.05 1922.7,-18.53"/>
<polygon fill="midnightblue" stroke="midnightblue" points="1603.18,-52.49 1593.72,-57.27 1604.09,-59.43 1603.18,-52.49"/>
</g>
<!-- Node27&#45;&gt;Node3 -->
<g id="edge52" class="edge">
<title>Node27&#45;&gt;Node3</title>
<path fill="none" stroke="midnightblue" d="M1137.38,-49.25C1127.27,-39.67 1114.72,-27.79 1106.32,-19.83"/>
<polygon fill="midnightblue" stroke="midnightblue" points="1135.18,-51.99 1144.84,-56.32 1139.99,-46.91 1135.18,-51.99"/>
</g>
<!-- Node27&#45;&gt;Node7 -->
<g id="edge53" class="edge">
<title>Node27&#45;&gt;Node7</title>
<path fill="none" stroke="midnightblue" d="M1223.8,-55.8C1304.44,-45.09 1432.15,-27.88 1480,-20 1482.71,-19.55 1485.49,-19.07 1488.3,-18.58"/>
<polygon fill="midnightblue" stroke="midnightblue" points="1223.17,-52.35 1213.72,-57.14 1224.09,-59.29 1223.17,-52.35"/>
</g>
<!-- Node27&#45;&gt;Node12 -->
<g id="edge54" class="edge">
<title>Node27&#45;&gt;Node12</title>
<path fill="none" stroke="midnightblue" d="M1188.83,-53.17C1218.77,-43 1261.22,-28.59 1287.92,-19.52"/>
<polygon fill="midnightblue" stroke="midnightblue" points="1187.54,-49.91 1179.19,-56.44 1189.79,-56.54 1187.54,-49.91"/>
</g>
<!-- Node27&#45;&gt;Node13 -->
<g id="edge55" class="edge">
<title>Node27&#45;&gt;Node13</title>
<path fill="none" stroke="midnightblue" d="M1206.17,-54.41C1256.44,-44.2 1331.53,-28.96 1378.05,-19.52"/>
<polygon fill="midnightblue" stroke="midnightblue" points="1205.25,-51.02 1196.15,-56.44 1206.64,-57.88 1205.25,-51.02"/>
</g>
<!-- Node27&#45;&gt;Node15 -->
<g id="edge57" class="edge">
<title>Node27&#45;&gt;Node15</title>
<path fill="none" stroke="midnightblue" d="M1120.85,-52.91C1093.03,-42.75 1053.98,-28.51 1029.34,-19.52"/>
<polygon fill="midnightblue" stroke="midnightblue" points="1119.96,-56.3 1130.55,-56.44 1122.35,-49.73 1119.96,-56.3"/>
</g>
<!-- Node28 -->
<g id="node28" class="node">
<title>Node28</title>
<g id="a_node28"><a xlink:href="neural__layer__maxpool_8c.html" target="_top" xlink:title="An implementation of a 2D maxpooling layer.">
<polygon fill="none" stroke="black" points="831.5,-0.5 831.5,-19.5 950.5,-19.5 950.5,-0.5 831.5,-0.5"/>
<text text-anchor="middle" x="891" y="-7.5" font-family="Helvetica,sans-Serif" font-size="10.00">neural_layer_maxpool.c</text>
</a>
</g>
</g>
<!-- Node27&#45;&gt;Node28 -->
<g id="edge56" class="edge">
<title>Node27&#45;&gt;Node28</title>
<path fill="none" stroke="midnightblue" d="M1102.42,-54.41C1052.72,-44.2 978.47,-28.96 932.48,-19.52"/>
<polygon fill="midnightblue" stroke="midnightblue" points="1101.83,-57.86 1112.33,-56.44 1103.24,-51 1101.83,-57.86"/>
</g>
<!-- Node29&#45;&gt;Node3 -->
<g id="edge59" class="edge">
<title>Node29&#45;&gt;Node3</title>
<path fill="none" stroke="midnightblue" d="M1245.2,-53.57C1209.73,-43.38 1158.63,-28.7 1126.65,-19.52"/>
<polygon fill="midnightblue" stroke="midnightblue" points="1244.63,-57.05 1255.21,-56.44 1246.57,-50.32 1244.63,-57.05"/>
</g>
<!-- Node29&#45;&gt;Node7 -->
<g id="edge60" class="edge">
<title>Node29&#45;&gt;Node7</title>
<path fill="none" stroke="midnightblue" d="M1333.32,-54.22C1379.05,-44.01 1446.78,-28.9 1488.83,-19.52"/>
<polygon fill="midnightblue" stroke="midnightblue" points="1332.34,-50.85 1323.35,-56.44 1333.87,-57.68 1332.34,-50.85"/>
</g>
<!-- Node29&#45;&gt;Node12 -->
<g id="edge62" class="edge">
<title>Node29&#45;&gt;Node12</title>
<path fill="none" stroke="midnightblue" d="M1294.34,-46.98C1299.09,-37.82 1304.66,-27.09 1308.46,-19.75"/>
<polygon fill="midnightblue" stroke="midnightblue" points="1291.12,-45.59 1289.62,-56.08 1297.33,-48.82 1291.12,-45.59"/>
</g>
<!-- Node29&#45;&gt;Node13 -->
<g id="edge63" class="edge">
<title>Node29&#45;&gt;Node13</title>
<path fill="none" stroke="midnightblue" d="M1315.91,-52.64C1341.24,-42.5 1376.43,-28.43 1398.71,-19.52"/>
<polygon fill="midnightblue" stroke="midnightblue" points="1314.38,-49.48 1306.39,-56.44 1316.98,-55.98 1314.38,-49.48"/>
</g>
<!-- Node29&#45;&gt;Node15 -->
<g id="edge65" class="edge">
<title>Node29&#45;&gt;Node15</title>
<path fill="none" stroke="midnightblue" d="M1230.86,-54.52C1175.82,-43.87 1091.98,-27.64 1043.74,-18.3"/>
<polygon fill="midnightblue" stroke="midnightblue" points="1230.31,-57.98 1240.79,-56.44 1231.64,-51.11 1230.31,-57.98"/>
</g>
<!-- Node29&#45;&gt;Node17 -->
<g id="edge61" class="edge">
<title>Node29&#45;&gt;Node17</title>
<path fill="none" stroke="midnightblue" d="M1348.05,-55.97C1569.36,-32.75 1629.33,-56.02 1845,-20 1847.77,-19.54 1850.64,-18.95 1853.49,-18.3"/>
<polygon fill="midnightblue" stroke="midnightblue" points="1347.64,-52.5 1338.07,-57.04 1348.38,-59.46 1347.64,-52.5"/>
</g>
<!-- Node30 -->
<g id="node30" class="node">
<title>Node30</title>
<g id="a_node30"><a xlink:href="neural__layer__noise_8c.html" target="_top" xlink:title="An implementation of a Gaussian noise adding layer.">
<polygon fill="none" stroke="black" points="1150,-0.5 1150,-19.5 1256,-19.5 1256,-0.5 1150,-0.5"/>
<text text-anchor="middle" x="1203" y="-7.5" font-family="Helvetica,sans-Serif" font-size="10.00">neural_layer_noise.c</text>
</a>
</g>
</g>
<!-- Node29&#45;&gt;Node30 -->
<g id="edge64" class="edge">
<title>Node29&#45;&gt;Node30</title>
<path fill="none" stroke="midnightblue" d="M1263.17,-50.62C1248.19,-40.76 1228.8,-27.99 1216.14,-19.65"/>
<polygon fill="midnightblue" stroke="midnightblue" points="1261.55,-53.75 1271.83,-56.32 1265.4,-47.9 1261.55,-53.75"/>
</g>
<!-- Node31&#45;&gt;Node3 -->
<g id="edge67" class="edge">
<title>Node31&#45;&gt;Node3</title>
<path fill="none" stroke="midnightblue" d="M1734.18,-55.89C1470.49,-31.45 1400.32,-54.19 1141,-20 1138.22,-19.63 1135.35,-19.19 1132.47,-18.7"/>
<polygon fill="midnightblue" stroke="midnightblue" points="1734.16,-59.41 1744.44,-56.86 1734.82,-52.44 1734.16,-59.41"/>
</g>
<!-- Node31&#45;&gt;Node7 -->
<g id="edge68" class="edge">
<title>Node31&#45;&gt;Node7</title>
<path fill="none" stroke="midnightblue" d="M1750.81,-54.47C1696.45,-43.92 1614.1,-27.92 1565.91,-18.56"/>
<polygon fill="midnightblue" stroke="midnightblue" points="1750.47,-57.97 1760.95,-56.44 1751.8,-51.1 1750.47,-57.97"/>
</g>
<!-- Node31&#45;&gt;Node12 -->
<g id="edge70" class="edge">
<title>Node31&#45;&gt;Node12</title>
<path fill="none" stroke="midnightblue" d="M1734.34,-55.85C1567.91,-37.4 1523.54,-42.99 1361,-20 1357.98,-19.57 1354.86,-19.09 1351.72,-18.57"/>
<polygon fill="midnightblue" stroke="midnightblue" points="1734.1,-59.35 1744.43,-56.98 1734.88,-52.39 1734.1,-59.35"/>
</g>
<!-- Node31&#45;&gt;Node13 -->
<g id="edge71" class="edge">
<title>Node31&#45;&gt;Node13</title>
<path fill="none" stroke="midnightblue" d="M1734.21,-55.43C1668.35,-46.48 1567.5,-32.62 1480,-20 1476.98,-19.56 1473.87,-19.11 1470.73,-18.65"/>
<polygon fill="midnightblue" stroke="midnightblue" points="1734.09,-58.95 1744.47,-56.83 1735.04,-52.01 1734.09,-58.95"/>
</g>
<!-- Node31&#45;&gt;Node15 -->
<g id="edge73" class="edge">
<title>Node31&#45;&gt;Node15</title>
<path fill="none" stroke="midnightblue" d="M1734.05,-55.89C1431.49,-28.95 1351.37,-56.26 1053,-20 1049.95,-19.63 1046.8,-19.18 1043.64,-18.68"/>
<polygon fill="midnightblue" stroke="midnightblue" points="1734.17,-59.42 1744.45,-56.83 1734.8,-52.45 1734.17,-59.42"/>
</g>
<!-- Node31&#45;&gt;Node17 -->
<g id="edge69" class="edge">
<title>Node31&#45;&gt;Node17</title>
<path fill="none" stroke="midnightblue" d="M1825.03,-50.38C1838.41,-40.62 1855.56,-28.11 1866.89,-19.83"/>
<polygon fill="midnightblue" stroke="midnightblue" points="1822.9,-47.6 1816.89,-56.32 1827.03,-53.26 1822.9,-47.6"/>
</g>
<!-- Node31&#45;&gt;Node20 -->
<g id="edge72" class="edge">
<title>Node31&#45;&gt;Node20</title>
<path fill="none" stroke="midnightblue" d="M1875.72,-55.16C1949.21,-44.93 2063.01,-29.09 2132.48,-19.42"/>
<polygon fill="midnightblue" stroke="midnightblue" points="1875.05,-51.72 1865.62,-56.56 1876.01,-58.65 1875.05,-51.72"/>
</g>
<!-- Node31&#45;&gt;Node21 -->
<g id="edge74" class="edge">
<title>Node31&#45;&gt;Node21</title>
<path fill="none" stroke="midnightblue" d="M1839.11,-53.04C1868.09,-42.88 1908.96,-28.55 1934.71,-19.52"/>
<polygon fill="midnightblue" stroke="midnightblue" points="1837.68,-49.83 1829.4,-56.44 1840,-56.44 1837.68,-49.83"/>
</g>
<!-- Node32&#45;&gt;Node3 -->
<g id="edge76" class="edge">
<title>Node32&#45;&gt;Node3</title>
<path fill="none" stroke="midnightblue" d="M1349.2,-54.93C1293.61,-46.25 1211.96,-33.08 1141,-20 1138.09,-19.46 1135.07,-18.89 1132.04,-18.3"/>
<polygon fill="midnightblue" stroke="midnightblue" points="1348.84,-58.42 1359.26,-56.5 1349.92,-51.5 1348.84,-58.42"/>
</g>
<!-- Node32&#45;&gt;Node7 -->
<g id="edge77" class="edge">
<title>Node32&#45;&gt;Node7</title>
<path fill="none" stroke="midnightblue" d="M1442.25,-51.86C1463.02,-41.85 1491.02,-28.35 1509.05,-19.65"/>
<polygon fill="midnightblue" stroke="midnightblue" points="1440.48,-48.83 1432.99,-56.32 1443.52,-55.13 1440.48,-48.83"/>
</g>
<!-- Node32&#45;&gt;Node12 -->
<g id="edge79" class="edge">
<title>Node32&#45;&gt;Node12</title>
<path fill="none" stroke="midnightblue" d="M1389.67,-51.59C1370.81,-41.61 1345.62,-28.27 1329.35,-19.65"/>
<polygon fill="midnightblue" stroke="midnightblue" points="1388.14,-54.74 1398.61,-56.32 1391.41,-48.55 1388.14,-54.74"/>
</g>
<!-- Node32&#45;&gt;Node13 -->
<g id="edge80" class="edge">
<title>Node32&#45;&gt;Node13</title>
<path fill="none" stroke="midnightblue" d="M1416.75,-46.1C1417.58,-37.14 1418.53,-26.86 1419.19,-19.75"/>
<polygon fill="midnightblue" stroke="midnightblue" points="1413.26,-45.8 1415.83,-56.08 1420.23,-46.45 1413.26,-45.8"/>
</g>
<!-- Node32&#45;&gt;Node15 -->
<g id="edge82" class="edge">
<title>Node32&#45;&gt;Node15</title>
<path fill="none" stroke="midnightblue" d="M1345.65,-55.85C1214.73,-39.4 1179.88,-39.89 1053,-20 1049.96,-19.52 1046.82,-19 1043.67,-18.44"/>
<polygon fill="midnightblue" stroke="midnightblue" points="1345.31,-59.33 1355.67,-57.11 1346.18,-52.38 1345.31,-59.33"/>
</g>
<!-- Node32&#45;&gt;Node17 -->
<g id="edge78" class="edge">
<title>Node32&#45;&gt;Node17</title>
<path fill="none" stroke="midnightblue" d="M1484.39,-56.01C1645.96,-38.01 1689.59,-48.13 1845,-20 1847.76,-19.5 1850.63,-18.89 1853.48,-18.22"/>
<polygon fill="midnightblue" stroke="midnightblue" points="1483.62,-52.57 1474.08,-57.17 1484.41,-59.53 1483.62,-52.57"/>
</g>
<!-- Node33 -->
<g id="node33" class="node">
<title>Node33</title>
<g id="a_node33"><a xlink:href="neural__layer__softmax_8c.html" target="_top" xlink:title="An implementation of a softmax layer.">
<polygon fill="none" stroke="black" points="1584,-0.5 1584,-19.5 1702,-19.5 1702,-0.5 1584,-0.5"/>
<text text-anchor="middle" x="1643" y="-7.5" font-family="Helvetica,sans-Serif" font-size="10.00">neural_layer_softmax.c</text>
</a>
</g>
</g>
<!-- Node32&#45;&gt;Node33 -->
<g id="edge81" class="edge">
<title>Node32&#45;&gt;Node33</title>
<path fill="none" stroke="midnightblue" d="M1461.07,-54.09C1504.15,-43.89 1567.59,-28.86 1607.04,-19.52"/>
<polygon fill="midnightblue" stroke="midnightblue" points="1460.05,-50.73 1451.13,-56.44 1461.66,-57.54 1460.05,-50.73"/>
</g>
<!-- Node34&#45;&gt;Node3 -->
<g id="edge84" class="edge">
<title>Node34&#45;&gt;Node3</title>
<path fill="none" stroke="midnightblue" d="M903.27,-54.23C950.16,-43.77 1020.21,-28.14 1061.98,-18.82"/>
<polygon fill="midnightblue" stroke="midnightblue" points="902.34,-50.85 893.35,-56.44 903.87,-57.68 902.34,-50.85"/>
</g>
<!-- Node34&#45;&gt;Node12 -->
<g id="edge85" class="edge">
<title>Node34&#45;&gt;Node12</title>
<path fill="none" stroke="midnightblue" d="M927.92,-55.92C1078.77,-38.76 1118.74,-41.47 1265,-20 1268.02,-19.56 1271.14,-19.06 1274.27,-18.53"/>
<polygon fill="midnightblue" stroke="midnightblue" points="927.36,-52.46 917.82,-57.08 928.15,-59.42 927.36,-52.46"/>
</g>
<!-- Node34&#45;&gt;Node13 -->
<g id="edge86" class="edge">
<title>Node34&#45;&gt;Node13</title>
<path fill="none" stroke="midnightblue" d="M928.02,-55.94C1121.24,-36.21 1172.06,-42.22 1361,-20 1363.68,-19.69 1366.42,-19.34 1369.18,-18.98"/>
<polygon fill="midnightblue" stroke="midnightblue" points="927.4,-52.49 917.81,-56.99 928.12,-59.45 927.4,-52.49"/>
</g>
<!-- Node34&#45;&gt;Node15 -->
<g id="edge88" class="edge">
<title>Node34&#45;&gt;Node15</title>
<path fill="none" stroke="midnightblue" d="M888.45,-53.04C916.86,-42.88 956.94,-28.55 982.19,-19.52"/>
<polygon fill="midnightblue" stroke="midnightblue" points="887.16,-49.78 878.93,-56.44 889.52,-56.37 887.16,-49.78"/>
</g>
<!-- Node35 -->
<g id="node35" class="node">
<title>Node35</title>
<g id="a_node35"><a xlink:href="neural__layer__upsample_8c.html" target="_top" xlink:title="An implementation of a 2D upsampling layer.">
<polygon fill="none" stroke="black" points="529.5,-0.5 529.5,-19.5 654.5,-19.5 654.5,-0.5 529.5,-0.5"/>
<text text-anchor="middle" x="592" y="-7.5" font-family="Helvetica,sans-Serif" font-size="10.00">neural_layer_upsample.c</text>
</a>
</g>
</g>
<!-- Node34&#45;&gt;Node35 -->
<g id="edge87" class="edge">
<title>Node34&#45;&gt;Node35</title>
<path fill="none" stroke="midnightblue" d="M803.42,-54.41C753.72,-44.2 679.47,-28.96 633.48,-19.52"/>
<polygon fill="midnightblue" stroke="midnightblue" points="802.83,-57.86 813.33,-56.44 804.24,-51 802.83,-57.86"/>
</g>
<!-- Node36&#45;&gt;Node6 -->
<g id="edge90" class="edge">
<title>Node36&#45;&gt;Node6</title>
<path fill="none" stroke="midnightblue" d="M248.3,-53.17C217.6,-43 174.08,-28.59 146.71,-19.52"/>
<polygon fill="midnightblue" stroke="midnightblue" points="247.58,-56.62 258.17,-56.44 249.78,-49.98 247.58,-56.62"/>
</g>
<!-- Node36&#45;&gt;Node9 -->
<g id="edge93" class="edge">
<title>Node36&#45;&gt;Node9</title>
<path fill="none" stroke="midnightblue" d="M262.07,-50.9C246.66,-41 226.55,-28.07 213.46,-19.65"/>
<polygon fill="midnightblue" stroke="midnightblue" points="260.2,-53.86 270.5,-56.32 263.98,-47.97 260.2,-53.86"/>
</g>
<!-- Node36&#45;&gt;Node15 -->
<g id="edge91" class="edge">
<title>Node36&#45;&gt;Node15</title>
<path fill="none" stroke="midnightblue" d="M332.17,-62.15C476.34,-53.56 898.27,-28.06 960,-20 962.74,-19.64 965.57,-19.22 968.41,-18.76"/>
<polygon fill="midnightblue" stroke="midnightblue" points="331.66,-58.67 321.88,-62.76 332.07,-65.66 331.66,-58.67"/>
</g>
<!-- Node37 -->
<g id="node37" class="node">
<title>Node37</title>
<g id="a_node37"><a xlink:href="prediction_8c.html" target="_top" xlink:title="Interface for classifier predictions.">
<polygon fill="none" stroke="black" points="240.5,-0.5 240.5,-19.5 307.5,-19.5 307.5,-0.5 240.5,-0.5"/>
<text text-anchor="middle" x="274" y="-7.5" font-family="Helvetica,sans-Serif" font-size="10.00">prediction.c</text>
</a>
</g>
</g>
<!-- Node36&#45;&gt;Node37 -->
<g id="edge92" class="edge">
<title>Node36&#45;&gt;Node37</title>
<path fill="none" stroke="midnightblue" d="M280.5,-46.1C278.84,-37.14 276.94,-26.86 275.62,-19.75"/>
<polygon fill="midnightblue" stroke="midnightblue" points="277.09,-46.89 282.35,-56.08 283.97,-45.61 277.09,-46.89"/>
</g>
</g>
</svg>
