<?xml version="1.0" encoding="UTF-8" standalone="no"?>
<!DOCTYPE svg PUBLIC "-//W3C//DTD SVG 1.1//EN"
 "http://www.w3.org/Graphics/SVG/1.1/DTD/svg11.dtd">
<!-- Generated by graphviz version 2.43.0 (0)
 -->
<!-- Title: neural_layer_softmax.c Pages: 1 -->
<svg width="478pt" height="308pt"
 viewBox="0.00 0.00 478.00 308.00" xmlns="http://www.w3.org/2000/svg" xmlns:xlink="http://www.w3.org/1999/xlink">
<g id="graph0" class="graph" transform="scale(1 1) rotate(0) translate(4 304)">
<title>neural_layer_softmax.c</title>
<!-- Node1 -->
<g id="node1" class="node">
<title>Node1</title>
<g id="a_node1"><a xlink:title="An implementation of a softmax layer.">
<polygon fill="#bfbfbf" stroke="black" points="279,-280.5 279,-299.5 397,-299.5 397,-280.5 279,-280.5"/>
<text text-anchor="middle" x="338" y="-287.5" font-family="Helvetica,sans-Serif" font-size="10.00">neural_layer_softmax.c</text>
</a>
</g>
</g>
<!-- Node2 -->
<g id="node2" class="node">
<title>Node2</title>
<g id="a_node2"><a xlink:href="neural__layer__softmax_8h.html" target="_top" xlink:title="An implementation of a softmax layer.">
<polygon fill="none" stroke="black" points="192,-224.5 192,-243.5 310,-243.5 310,-224.5 192,-224.5"/>
<text text-anchor="middle" x="251" y="-231.5" font-family="Helvetica,sans-Serif" font-size="10.00">neural_layer_softmax.h</text>
</a>
</g>
</g>
<!-- Node1&#45;&gt;Node2 -->
<g id="edge1" class="edge">
<title>Node1&#45;&gt;Node2</title>
<path fill="none" stroke="midnightblue" d="M324.02,-280.32C310.45,-271.9 289.62,-258.97 273.68,-249.07"/>
<polygon fill="midnightblue" stroke="midnightblue" points="275.29,-245.95 264.94,-243.65 271.59,-251.9 275.29,-245.95"/>
</g>
<!-- Node5 -->
<g id="node5" class="node">
<title>Node5</title>
<g id="a_node5"><a xlink:href="utils_8h.html" target="_top" xlink:title="Utility functions for random number handling, etc.">
<polygon fill="none" stroke="black" points="297.5,-56.5 297.5,-75.5 340.5,-75.5 340.5,-56.5 297.5,-56.5"/>
<text text-anchor="middle" x="319" y="-63.5" font-family="Helvetica,sans-Serif" font-size="10.00">utils.h</text>
</a>
</g>
</g>
<!-- Node1&#45;&gt;Node5 -->
<g id="edge19" class="edge">
<title>Node1&#45;&gt;Node5</title>
<path fill="none" stroke="midnightblue" d="M337.26,-280.3C334.46,-247.63 324.55,-131.87 320.62,-85.96"/>
<polygon fill="midnightblue" stroke="midnightblue" points="324.1,-85.55 319.76,-75.88 317.13,-86.15 324.1,-85.55"/>
</g>
<!-- Node15 -->
<g id="node15" class="node">
<title>Node15</title>
<g id="a_node15"><a xlink:href="neural__activations_8h.html" target="_top" xlink:title="Neural network activation functions.">
<polygon fill="none" stroke="black" points="366,-168.5 366,-187.5 470,-187.5 470,-168.5 366,-168.5"/>
<text text-anchor="middle" x="418" y="-175.5" font-family="Helvetica,sans-Serif" font-size="10.00">neural_activations.h</text>
</a>
</g>
</g>
<!-- Node1&#45;&gt;Node15 -->
<g id="edge17" class="edge">
<title>Node1&#45;&gt;Node15</title>
<path fill="none" stroke="midnightblue" d="M344.28,-280.37C357.48,-262.22 388.33,-219.8 405.64,-195.99"/>
<polygon fill="midnightblue" stroke="midnightblue" points="408.7,-197.74 411.75,-187.59 403.04,-193.62 408.7,-197.74"/>
</g>
<!-- Node3 -->
<g id="node3" class="node">
<title>Node3</title>
<g id="a_node3"><a xlink:href="neural__layer_8h.html" target="_top" xlink:title="Interface for neural network layers.">
<polygon fill="none" stroke="black" points="212.5,-168.5 212.5,-187.5 289.5,-187.5 289.5,-168.5 212.5,-168.5"/>
<text text-anchor="middle" x="251" y="-175.5" font-family="Helvetica,sans-Serif" font-size="10.00">neural_layer.h</text>
</a>
</g>
</g>
<!-- Node2&#45;&gt;Node3 -->
<g id="edge2" class="edge">
<title>Node2&#45;&gt;Node3</title>
<path fill="none" stroke="midnightblue" d="M251,-224.08C251,-217.01 251,-206.86 251,-197.99"/>
<polygon fill="midnightblue" stroke="midnightblue" points="254.5,-197.75 251,-187.75 247.5,-197.75 254.5,-197.75"/>
</g>
<!-- Node4 -->
<g id="node4" class="node">
<title>Node4</title>
<g id="a_node4"><a xlink:href="neural_8h.html" target="_top" xlink:title="An implementation of a multi&#45;layer perceptron neural network.">
<polygon fill="none" stroke="black" points="139.5,-112.5 139.5,-131.5 190.5,-131.5 190.5,-112.5 139.5,-112.5"/>
<text text-anchor="middle" x="165" y="-119.5" font-family="Helvetica,sans-Serif" font-size="10.00">neural.h</text>
</a>
</g>
</g>
<!-- Node3&#45;&gt;Node4 -->
<g id="edge3" class="edge">
<title>Node3&#45;&gt;Node4</title>
<path fill="none" stroke="midnightblue" d="M237.18,-168.32C223.77,-159.9 203.18,-146.97 187.41,-137.07"/>
<polygon fill="midnightblue" stroke="midnightblue" points="189.11,-134.01 178.78,-131.65 185.39,-139.94 189.11,-134.01"/>
</g>
<!-- Node14 -->
<g id="node14" class="node">
<title>Node14</title>
<g id="a_node14"><a xlink:href="neural__layer__args_8h.html" target="_top" xlink:title="Functions operating on neural network arguments/constants.">
<polygon fill="none" stroke="black" points="208.5,-112.5 208.5,-131.5 309.5,-131.5 309.5,-112.5 208.5,-112.5"/>
<text text-anchor="middle" x="259" y="-119.5" font-family="Helvetica,sans-Serif" font-size="10.00">neural_layer_args.h</text>
</a>
</g>
</g>
<!-- Node3&#45;&gt;Node14 -->
<g id="edge15" class="edge">
<title>Node3&#45;&gt;Node14</title>
<path fill="none" stroke="midnightblue" d="M252.32,-168.08C253.38,-160.93 254.91,-150.64 256.23,-141.69"/>
<polygon fill="midnightblue" stroke="midnightblue" points="259.7,-142.16 257.7,-131.75 252.78,-141.13 259.7,-142.16"/>
</g>
<!-- Node4&#45;&gt;Node5 -->
<g id="edge4" class="edge">
<title>Node4&#45;&gt;Node5</title>
<path fill="none" stroke="midnightblue" d="M189.4,-112.44C215.96,-103.13 258.49,-88.22 287.54,-78.03"/>
<polygon fill="midnightblue" stroke="midnightblue" points="288.92,-81.26 297.2,-74.64 286.61,-74.65 288.92,-81.26"/>
</g>
<!-- Node9 -->
<g id="node9" class="node">
<title>Node9</title>
<g id="a_node9"><a xlink:title=" ">
<polygon fill="none" stroke="#bfbfbf" points="0,-0.5 0,-19.5 46,-19.5 46,-0.5 0,-0.5"/>
<text text-anchor="middle" x="23" y="-7.5" font-family="Helvetica,sans-Serif" font-size="10.00">stdio.h</text>
</a>
</g>
</g>
<!-- Node4&#45;&gt;Node9 -->
<g id="edge12" class="edge">
<title>Node4&#45;&gt;Node9</title>
<path fill="none" stroke="midnightblue" d="M139.13,-112.54C119.07,-105.1 91.36,-92.83 71,-76 54.83,-62.64 41.18,-42.72 32.62,-28.45"/>
<polygon fill="midnightblue" stroke="midnightblue" points="35.56,-26.55 27.53,-19.63 29.49,-30.04 35.56,-26.55"/>
</g>
<!-- Node10 -->
<g id="node10" class="node">
<title>Node10</title>
<g id="a_node10"><a xlink:title=" ">
<polygon fill="none" stroke="#bfbfbf" points="64,-0.5 64,-19.5 112,-19.5 112,-0.5 64,-0.5"/>
<text text-anchor="middle" x="88" y="-7.5" font-family="Helvetica,sans-Serif" font-size="10.00">stdlib.h</text>
</a>
</g>
</g>
<!-- Node4&#45;&gt;Node10 -->
<g id="edge13" class="edge">
<title>Node4&#45;&gt;Node10</title>
<path fill="none" stroke="midnightblue" d="M139.19,-115.03C119.16,-108.9 92.75,-97.17 80,-76 71.49,-61.87 75.19,-42.89 80,-29.09"/>
<polygon fill="midnightblue" stroke="midnightblue" points="83.29,-30.3 83.71,-19.71 76.78,-27.72 83.29,-30.3"/>
</g>
<!-- Node11 -->
<g id="node11" class="node">
<title>Node11</title>
<g id="a_node11"><a xlink:title=" ">
<polygon fill="none" stroke="#bfbfbf" points="89,-56.5 89,-75.5 145,-75.5 145,-56.5 89,-56.5"/>
<text text-anchor="middle" x="117" y="-63.5" font-family="Helvetica,sans-Serif" font-size="10.00">stdbool.h</text>
</a>
</g>
</g>
<!-- Node4&#45;&gt;Node11 -->
<g id="edge10" class="edge">
<title>Node4&#45;&gt;Node11</title>
<path fill="none" stroke="midnightblue" d="M157.07,-112.08C150.15,-104.3 139.93,-92.8 131.55,-83.37"/>
<polygon fill="midnightblue" stroke="midnightblue" points="134.04,-80.9 124.78,-75.75 128.81,-85.55 134.04,-80.9"/>
</g>
<!-- Node12 -->
<g id="node12" class="node">
<title>Node12</title>
<g id="a_node12"><a xlink:title=" ">
<polygon fill="none" stroke="#bfbfbf" points="163.5,-56.5 163.5,-75.5 212.5,-75.5 212.5,-56.5 163.5,-56.5"/>
<text text-anchor="middle" x="188" y="-63.5" font-family="Helvetica,sans-Serif" font-size="10.00">stdint.h</text>
</a>
</g>
</g>
<!-- Node4&#45;&gt;Node12 -->
<g id="edge11" class="edge">
<title>Node4&#45;&gt;Node12</title>
<path fill="none" stroke="midnightblue" d="M168.8,-112.08C171.91,-104.77 176.42,-94.18 180.29,-85.1"/>
<polygon fill="midnightblue" stroke="midnightblue" points="183.57,-86.32 184.27,-75.75 177.13,-83.58 183.57,-86.32"/>
</g>
<!-- Node13 -->
<g id="node13" class="node">
<title>Node13</title>
<g id="a_node13"><a xlink:title=" ">
<polygon fill="none" stroke="#bfbfbf" points="230.5,-56.5 230.5,-75.5 279.5,-75.5 279.5,-56.5 230.5,-56.5"/>
<text text-anchor="middle" x="255" y="-63.5" font-family="Helvetica,sans-Serif" font-size="10.00">string.h</text>
</a>
</g>
</g>
<!-- Node4&#45;&gt;Node13 -->
<g id="edge14" class="edge">
<title>Node4&#45;&gt;Node13</title>
<path fill="none" stroke="midnightblue" d="M179.46,-112.32C193.5,-103.9 215.05,-90.97 231.54,-81.07"/>
<polygon fill="midnightblue" stroke="midnightblue" points="233.8,-83.8 240.58,-75.65 230.2,-77.8 233.8,-83.8"/>
</g>
<!-- Node6 -->
<g id="node6" class="node">
<title>Node6</title>
<g id="a_node6"><a xlink:title=" ">
<polygon fill="none" stroke="#bfbfbf" points="262,-0.5 262,-19.5 376,-19.5 376,-0.5 262,-0.5"/>
<text text-anchor="middle" x="319" y="-7.5" font-family="Helvetica,sans-Serif" font-size="10.00">../lib/cJSON/cJSON.h</text>
</a>
</g>
</g>
<!-- Node5&#45;&gt;Node6 -->
<g id="edge5" class="edge">
<title>Node5&#45;&gt;Node6</title>
<path fill="none" stroke="midnightblue" d="M319,-56.08C319,-49.01 319,-38.86 319,-29.99"/>
<polygon fill="midnightblue" stroke="midnightblue" points="322.5,-29.75 319,-19.75 315.5,-29.75 322.5,-29.75"/>
</g>
<!-- Node7 -->
<g id="node7" class="node">
<title>Node7</title>
<g id="a_node7"><a xlink:title=" ">
<polygon fill="none" stroke="#bfbfbf" points="130.5,-0.5 130.5,-19.5 243.5,-19.5 243.5,-0.5 130.5,-0.5"/>
<text text-anchor="middle" x="187" y="-7.5" font-family="Helvetica,sans-Serif" font-size="10.00">../lib/dSFMT/dSFMT.h</text>
</a>
</g>
</g>
<!-- Node5&#45;&gt;Node7 -->
<g id="edge6" class="edge">
<title>Node5&#45;&gt;Node7</title>
<path fill="none" stroke="midnightblue" d="M298.08,-56.44C276.26,-47.52 241.85,-33.44 217.11,-23.32"/>
<polygon fill="midnightblue" stroke="midnightblue" points="218.4,-20.06 207.82,-19.52 215.75,-26.54 218.4,-20.06"/>
</g>
<!-- Node8 -->
<g id="node8" class="node">
<title>Node8</title>
<g id="a_node8"><a xlink:title=" ">
<polygon fill="none" stroke="#bfbfbf" points="394.5,-0.5 394.5,-19.5 441.5,-19.5 441.5,-0.5 394.5,-0.5"/>
<text text-anchor="middle" x="418" y="-7.5" font-family="Helvetica,sans-Serif" font-size="10.00">math.h</text>
</a>
</g>
</g>
<!-- Node5&#45;&gt;Node8 -->
<g id="edge7" class="edge">
<title>Node5&#45;&gt;Node8</title>
<path fill="none" stroke="midnightblue" d="M334.91,-56.32C350.64,-47.74 374.94,-34.49 393.21,-24.52"/>
<polygon fill="midnightblue" stroke="midnightblue" points="395.03,-27.52 402.13,-19.65 391.68,-21.37 395.03,-27.52"/>
</g>
<!-- Node5&#45;&gt;Node9 -->
<g id="edge8" class="edge">
<title>Node5&#45;&gt;Node9</title>
<path fill="none" stroke="midnightblue" d="M297.46,-58.15C294.63,-57.36 291.76,-56.62 289,-56 189.47,-33.53 159.63,-41.74 56.24,-20.04"/>
<polygon fill="midnightblue" stroke="midnightblue" points="56.85,-16.59 46.34,-17.92 55.38,-23.43 56.85,-16.59"/>
</g>
<!-- Node5&#45;&gt;Node10 -->
<g id="edge9" class="edge">
<title>Node5&#45;&gt;Node10</title>
<path fill="none" stroke="midnightblue" d="M297.43,-58.3C294.6,-57.49 291.74,-56.7 289,-56 218.07,-37.79 196.92,-38 122.02,-20.14"/>
<polygon fill="midnightblue" stroke="midnightblue" points="122.65,-16.69 112.11,-17.74 121.01,-23.49 122.65,-16.69"/>
</g>
<!-- Node14&#45;&gt;Node5 -->
<g id="edge16" class="edge">
<title>Node14&#45;&gt;Node5</title>
<path fill="none" stroke="midnightblue" d="M268.64,-112.32C277.51,-104.34 290.87,-92.31 301.61,-82.65"/>
<polygon fill="midnightblue" stroke="midnightblue" points="304.09,-85.13 309.18,-75.83 299.41,-79.92 304.09,-85.13"/>
</g>
<!-- Node15&#45;&gt;Node8 -->
<g id="edge18" class="edge">
<title>Node15&#45;&gt;Node8</title>
<path fill="none" stroke="midnightblue" d="M418,-168.08C418,-141.95 418,-65.21 418,-29.58"/>
<polygon fill="midnightblue" stroke="midnightblue" points="421.5,-29.57 418,-19.57 414.5,-29.57 421.5,-29.57"/>
</g>
</g>
</svg>
