<?xml version="1.0" encoding="UTF-8" standalone="no"?>
<!DOCTYPE svg PUBLIC "-//W3C//DTD SVG 1.1//EN"
 "http://www.w3.org/Graphics/SVG/1.1/DTD/svg11.dtd">
<!-- Generated by graphviz version 2.43.0 (0)
 -->
<!-- Title: neural_activation_string Pages: 1 -->
<svg width="942pt" height="253pt"
 viewBox="0.00 0.00 942.00 252.50" xmlns="http://www.w3.org/2000/svg" xmlns:xlink="http://www.w3.org/1999/xlink">
<g id="graph0" class="graph" transform="scale(1 1) rotate(0) translate(4 248.5)">
<title>neural_activation_string</title>
<!-- Node1 -->
<g id="node1" class="node">
<title>Node1</title>
<g id="a_node1"><a xlink:title="Returns the name of a specified activation function.">
<polygon fill="#bfbfbf" stroke="black" points="815,-94 815,-113 934,-113 934,-94 815,-94"/>
<text text-anchor="middle" x="874.5" y="-101" font-family="Helvetica,sans-Serif" font-size="10.00">neural_activation_string</text>
</a>
</g>
</g>
<!-- Node2 -->
<g id="node2" class="node">
<title>Node2</title>
<g id="a_node2"><a xlink:href="neural__layer__args_8c.html#a56dcbd4bdf90e80ef81c676df60ff8b3" target="_top" xlink:title="Prints layer activation function parameters.">
<polygon fill="none" stroke="black" points="646,-187 646,-206 779,-206 779,-187 646,-187"/>
<text text-anchor="middle" x="712.5" y="-194" font-family="Helvetica,sans-Serif" font-size="10.00">layer_args_print_activation</text>
</a>
</g>
</g>
<!-- Node1&#45;&gt;Node2 -->
<g id="edge1" class="edge">
<title>Node1&#45;&gt;Node2</title>
<path fill="none" stroke="midnightblue" d="M856.55,-120.1C838.65,-136.79 808.92,-162.18 779,-177.5 771.62,-181.28 763.38,-184.41 755.3,-186.97"/>
<polygon fill="midnightblue" stroke="midnightblue" points="859.07,-122.54 863.91,-113.11 854.25,-117.46 859.07,-122.54"/>
</g>
<!-- Node11 -->
<g id="node11" class="node">
<title>Node11</title>
<g id="a_node11"><a xlink:href="neural__layer__connected_8h.html#a24820ae41bc4e935996edadba071f3f3" target="_top" xlink:title="Prints a connected layer.">
<polygon fill="none" stroke="black" points="653,-137.5 653,-167.5 772,-167.5 772,-137.5 653,-137.5"/>
<text text-anchor="start" x="661" y="-155.5" font-family="Helvetica,sans-Serif" font-size="10.00">neural_layer_connected</text>
<text text-anchor="middle" x="712.5" y="-144.5" font-family="Helvetica,sans-Serif" font-size="10.00">_print</text>
</a>
</g>
</g>
<!-- Node1&#45;&gt;Node11 -->
<g id="edge12" class="edge">
<title>Node1&#45;&gt;Node11</title>
<path fill="none" stroke="midnightblue" d="M832.54,-116.04C811.22,-122.57 785,-130.6 762.6,-137.46"/>
<polygon fill="midnightblue" stroke="midnightblue" points="833.73,-119.34 842.27,-113.06 831.68,-112.65 833.73,-119.34"/>
</g>
<!-- Node12 -->
<g id="node12" class="node">
<title>Node12</title>
<g id="a_node12"><a xlink:href="neural__layer__convolutional_8h.html#a8f3884461f9f8e028e4bab4b0e7e84c7" target="_top" xlink:title="Prints a convolutional layer.">
<polygon fill="none" stroke="black" points="647,-88.5 647,-118.5 778,-118.5 778,-88.5 647,-88.5"/>
<text text-anchor="start" x="655" y="-106.5" font-family="Helvetica,sans-Serif" font-size="10.00">neural_layer_convolutional</text>
<text text-anchor="middle" x="712.5" y="-95.5" font-family="Helvetica,sans-Serif" font-size="10.00">_print</text>
</a>
</g>
</g>
<!-- Node1&#45;&gt;Node12 -->
<g id="edge13" class="edge">
<title>Node1&#45;&gt;Node12</title>
<path fill="none" stroke="midnightblue" d="M804.61,-103.5C795.81,-103.5 786.83,-103.5 778.1,-103.5"/>
<polygon fill="midnightblue" stroke="midnightblue" points="804.83,-107 814.83,-103.5 804.83,-100 804.83,-107"/>
</g>
<!-- Node13 -->
<g id="node13" class="node">
<title>Node13</title>
<g id="a_node13"><a xlink:href="neural__layer__lstm_8h.html#a95c799424033bc661eb8b9a5c432140b" target="_top" xlink:title="Prints an LSTM layer.">
<polygon fill="none" stroke="black" points="654,-50 654,-69 771,-69 771,-50 654,-50"/>
<text text-anchor="middle" x="712.5" y="-57" font-family="Helvetica,sans-Serif" font-size="10.00">neural_layer_lstm_print</text>
</a>
</g>
</g>
<!-- Node1&#45;&gt;Node13 -->
<g id="edge14" class="edge">
<title>Node1&#45;&gt;Node13</title>
<path fill="none" stroke="midnightblue" d="M828.96,-91.25C803.42,-84.23 771.83,-75.54 748.15,-69.03"/>
<polygon fill="midnightblue" stroke="midnightblue" points="828.21,-94.68 838.78,-93.95 830.07,-87.93 828.21,-94.68"/>
</g>
<!-- Node14 -->
<g id="node14" class="node">
<title>Node14</title>
<g id="a_node14"><a xlink:href="neural__layer__recurrent_8h.html#afef72d2b81445a07dc2b038190a2e742" target="_top" xlink:title="Prints a recurrent layer.">
<polygon fill="none" stroke="black" points="656,-0.5 656,-30.5 769,-30.5 769,-0.5 656,-0.5"/>
<text text-anchor="start" x="664" y="-18.5" font-family="Helvetica,sans-Serif" font-size="10.00">neural_layer_recurrent</text>
<text text-anchor="middle" x="712.5" y="-7.5" font-family="Helvetica,sans-Serif" font-size="10.00">_print</text>
</a>
</g>
</g>
<!-- Node1&#45;&gt;Node14 -->
<g id="edge15" class="edge">
<title>Node1&#45;&gt;Node14</title>
<path fill="none" stroke="midnightblue" d="M852.86,-87.78C834.25,-74.08 805.78,-54.31 779,-40.5 772.08,-36.93 764.52,-33.58 757.08,-30.57"/>
<polygon fill="midnightblue" stroke="midnightblue" points="850.81,-90.61 860.92,-93.78 854.99,-84.99 850.81,-90.61"/>
</g>
<!-- Node3 -->
<g id="node3" class="node">
<title>Node3</title>
<g id="a_node3"><a xlink:href="neural__layer__args_8h.html#a8d6f5c91f58e29ae70807de0d0b25d0e" target="_top" xlink:title="Prints layer parameters.">
<polygon fill="none" stroke="black" points="524,-187 524,-206 610,-206 610,-187 524,-187"/>
<text text-anchor="middle" x="567" y="-194" font-family="Helvetica,sans-Serif" font-size="10.00">layer_args_print</text>
</a>
</g>
</g>
<!-- Node2&#45;&gt;Node3 -->
<g id="edge2" class="edge">
<title>Node2&#45;&gt;Node3</title>
<path fill="none" stroke="midnightblue" d="M635.41,-196.5C626.72,-196.5 618.1,-196.5 610.09,-196.5"/>
<polygon fill="midnightblue" stroke="midnightblue" points="635.63,-200 645.63,-196.5 635.63,-193 635.63,-200"/>
</g>
<!-- Node4 -->
<g id="node4" class="node">
<title>Node4</title>
<g id="a_node4"><a xlink:href="action_8h.html#a1e6bb9a3116b23d3bb6b676607501923" target="_top" xlink:title="Prints action parameters.">
<polygon fill="none" stroke="black" points="389,-225 389,-244 488,-244 488,-225 389,-225"/>
<text text-anchor="middle" x="438.5" y="-232" font-family="Helvetica,sans-Serif" font-size="10.00">action_param_print</text>
</a>
</g>
</g>
<!-- Node3&#45;&gt;Node4 -->
<g id="edge3" class="edge">
<title>Node3&#45;&gt;Node4</title>
<path fill="none" stroke="midnightblue" d="M524.27,-209.04C507.06,-214.2 487.44,-220.1 471.41,-224.91"/>
<polygon fill="midnightblue" stroke="midnightblue" points="525.51,-212.32 534.08,-206.09 523.49,-205.61 525.51,-212.32"/>
</g>
<!-- Node9 -->
<g id="node9" class="node">
<title>Node9</title>
<g id="a_node9"><a xlink:href="condition_8h.html#adc81d1c6371eb0ef613ba3df5f2b1fb4" target="_top" xlink:title="Prints condition parameters.">
<polygon fill="none" stroke="black" points="391.5,-187 391.5,-206 485.5,-206 485.5,-187 391.5,-187"/>
<text text-anchor="middle" x="438.5" y="-194" font-family="Helvetica,sans-Serif" font-size="10.00">cond_param_print</text>
</a>
</g>
</g>
<!-- Node3&#45;&gt;Node9 -->
<g id="edge8" class="edge">
<title>Node3&#45;&gt;Node9</title>
<path fill="none" stroke="midnightblue" d="M513.63,-196.5C504.4,-196.5 494.85,-196.5 485.79,-196.5"/>
<polygon fill="midnightblue" stroke="midnightblue" points="513.88,-200 523.88,-196.5 513.88,-193 513.88,-200"/>
</g>
<!-- Node10 -->
<g id="node10" class="node">
<title>Node10</title>
<g id="a_node10"><a xlink:href="prediction_8h.html#a8358abee65ddd688514040ef8851d9f2" target="_top" xlink:title="Prints prediction parameters.">
<polygon fill="none" stroke="black" points="392.5,-149 392.5,-168 484.5,-168 484.5,-149 392.5,-149"/>
<text text-anchor="middle" x="438.5" y="-156" font-family="Helvetica,sans-Serif" font-size="10.00">pred_param_print</text>
</a>
</g>
</g>
<!-- Node3&#45;&gt;Node10 -->
<g id="edge10" class="edge">
<title>Node3&#45;&gt;Node10</title>
<path fill="none" stroke="midnightblue" d="M524.27,-183.96C507.06,-178.8 487.44,-172.9 471.41,-168.09"/>
<polygon fill="midnightblue" stroke="midnightblue" points="523.49,-187.39 534.08,-186.91 525.51,-180.68 523.49,-187.39"/>
</g>
<!-- Node5 -->
<g id="node5" class="node">
<title>Node5</title>
<g id="a_node5"><a xlink:href="param_8h.html#a1e92bde5285ed6ded96ba4af5fd27bd2" target="_top" xlink:title="Prints all XCSF parameters.">
<polygon fill="none" stroke="black" points="285,-187 285,-206 353,-206 353,-187 285,-187"/>
<text text-anchor="middle" x="319" y="-194" font-family="Helvetica,sans-Serif" font-size="10.00">param_print</text>
</a>
</g>
</g>
<!-- Node4&#45;&gt;Node5 -->
<g id="edge4" class="edge">
<title>Node4&#45;&gt;Node5</title>
<path fill="none" stroke="midnightblue" d="M398.29,-221.82C382.41,-216.69 364.39,-210.86 349.64,-206.09"/>
<polygon fill="midnightblue" stroke="midnightblue" points="397.26,-225.16 407.85,-224.91 399.41,-218.5 397.26,-225.16"/>
</g>
<!-- Node6 -->
<g id="node6" class="node">
<title>Node6</title>
<g id="a_node6"><a xlink:href="main_8c.html#a3c04138a5bfe5d72780bb7e82a18e627" target="_top" xlink:title=" ">
<polygon fill="none" stroke="black" points="180,-206 180,-225 218,-225 218,-206 180,-206"/>
<text text-anchor="middle" x="199" y="-213" font-family="Helvetica,sans-Serif" font-size="10.00">main</text>
</a>
</g>
</g>
<!-- Node5&#45;&gt;Node6 -->
<g id="edge5" class="edge">
<title>Node5&#45;&gt;Node6</title>
<path fill="none" stroke="midnightblue" d="M274.9,-203.44C255.39,-206.58 233.39,-210.12 218.3,-212.55"/>
<polygon fill="midnightblue" stroke="midnightblue" points="275.5,-206.89 284.82,-201.84 274.39,-199.98 275.5,-206.89"/>
</g>
<!-- Node7 -->
<g id="node7" class="node">
<title>Node7</title>
<g id="a_node7"><a xlink:href="classXCS.html#a7731d72fe05a86f0d9bc67939fd56182" target="_top" xlink:title="Prints the XCSF parameters and their current values.">
<polygon fill="none" stroke="black" points="149,-168 149,-187 249,-187 249,-168 149,-168"/>
<text text-anchor="middle" x="199" y="-175" font-family="Helvetica,sans-Serif" font-size="10.00">XCS::print_params</text>
</a>
</g>
</g>
<!-- Node5&#45;&gt;Node7 -->
<g id="edge6" class="edge">
<title>Node5&#45;&gt;Node7</title>
<path fill="none" stroke="midnightblue" d="M274.91,-189.56C266.57,-188.22 257.76,-186.8 249.23,-185.43"/>
<polygon fill="midnightblue" stroke="midnightblue" points="274.39,-193.02 284.82,-191.16 275.5,-186.11 274.39,-193.02"/>
</g>
<!-- Node8 -->
<g id="node8" class="node">
<title>Node8</title>
<g id="a_node8"><a xlink:href="pybind__wrapper_8cpp.html#a269acb618355873dacf057083f07eb58" target="_top" xlink:title=" ">
<polygon fill="none" stroke="black" points="0,-168 0,-187 113,-187 113,-168 0,-168"/>
<text text-anchor="middle" x="56.5" y="-175" font-family="Helvetica,sans-Serif" font-size="10.00">pybind11_init_wrapper</text>
</a>
</g>
</g>
<!-- Node7&#45;&gt;Node8 -->
<g id="edge7" class="edge">
<title>Node7&#45;&gt;Node8</title>
<path fill="none" stroke="midnightblue" d="M138.66,-177.5C130.19,-177.5 121.5,-177.5 113.1,-177.5"/>
<polygon fill="midnightblue" stroke="midnightblue" points="138.86,-181 148.86,-177.5 138.86,-174 138.86,-181"/>
</g>
<!-- Node9&#45;&gt;Node5 -->
<g id="edge9" class="edge">
<title>Node9&#45;&gt;Node5</title>
<path fill="none" stroke="midnightblue" d="M381.13,-196.5C371.58,-196.5 361.96,-196.5 353.26,-196.5"/>
<polygon fill="midnightblue" stroke="midnightblue" points="381.4,-200 391.4,-196.5 381.4,-193 381.4,-200"/>
</g>
<!-- Node10&#45;&gt;Node5 -->
<g id="edge11" class="edge">
<title>Node10&#45;&gt;Node5</title>
<path fill="none" stroke="midnightblue" d="M398.29,-171.18C382.41,-176.31 364.39,-182.14 349.64,-186.91"/>
<polygon fill="midnightblue" stroke="midnightblue" points="399.41,-174.5 407.85,-168.09 397.26,-167.84 399.41,-174.5"/>
</g>
</g>
</svg>
