<?xml version="1.0" encoding="UTF-8" standalone="no"?>
<!DOCTYPE svg PUBLIC "-//W3C//DTD SVG 1.1//EN"
 "http://www.w3.org/Graphics/SVG/1.1/DTD/svg11.dtd">
<!-- Generated by graphviz version 2.43.0 (0)
 -->
<!-- Title: neural_layer_recurrent_init Pages: 1 -->
<svg width="530pt" height="286pt"
 viewBox="0.00 0.00 530.00 286.00" xmlns="http://www.w3.org/2000/svg" xmlns:xlink="http://www.w3.org/1999/xlink">
<g id="graph0" class="graph" transform="scale(1 1) rotate(0) translate(4 282)">
<title>neural_layer_recurrent_init</title>
<!-- Node1 -->
<g id="Node000001" class="node">
<title>Node1</title>
<g id="a_Node000001"><a xlink:title="Initialises a recurrent layer.">
<polygon fill="#999999" stroke="#666666" points="131,-148 0,-148 0,-129 131,-129 131,-148"/>
<text text-anchor="middle" x="65.5" y="-136" font-family="Helvetica,sans-Serif" font-size="10.00">neural_layer_recurrent_init</text>
</a>
</g>
</g>
<!-- Node2 -->
<g id="Node000002" class="node">
<title>Node2</title>
<g id="a_Node000002"><a xlink:href="neural__layer__args_8c.html#afbc76691bfb760e903155e0e41ae97bd" target="_top" xlink:title="Creates and returns a copy of specified layer parameters.">
<polygon fill="white" stroke="#666666" points="264,-278 176,-278 176,-259 264,-259 264,-278"/>
<text text-anchor="middle" x="220" y="-266" font-family="Helvetica,sans-Serif" font-size="10.00">layer_args_copy</text>
</a>
</g>
</g>
<!-- Node1&#45;&gt;Node2 -->
<g id="edge1_Node000001_Node000002" class="edge">
<title>Node1&#45;&gt;Node2</title>
<g id="a_edge1_Node000001_Node000002"><a xlink:title=" ">
<path fill="none" stroke="#63b8ff" d="M72.58,-148.08C86.62,-169.49 123.48,-221.59 167,-250.5 169.27,-252.01 171.68,-253.41 174.18,-254.7"/>
<polygon fill="#63b8ff" stroke="#63b8ff" points="172.89,-257.96 183.45,-258.91 175.79,-251.59 172.89,-257.96"/>
</a>
</g>
</g>
<!-- Node3 -->
<g id="Node000003" class="node">
<title>Node3</title>
<g id="a_Node000003"><a xlink:href="neural__layer__args_8c.html#a4440b3fcacfd709042ae050958d757d6" target="_top" xlink:title="Returns a bitstring representing the permissions granted by a layer.">
<polygon fill="white" stroke="#666666" points="260,-241 180,-241 180,-222 260,-222 260,-241"/>
<text text-anchor="middle" x="220" y="-229" font-family="Helvetica,sans-Serif" font-size="10.00">layer_args_opt</text>
</a>
</g>
</g>
<!-- Node1&#45;&gt;Node3 -->
<g id="edge2_Node000001_Node000003" class="edge">
<title>Node1&#45;&gt;Node3</title>
<g id="a_edge2_Node000001_Node000003"><a xlink:title=" ">
<path fill="none" stroke="#63b8ff" d="M76.91,-148C94.38,-163.54 131.22,-194.54 167,-213.5 170.13,-215.16 173.45,-216.72 176.84,-218.17"/>
<polygon fill="#63b8ff" stroke="#63b8ff" points="175.86,-221.54 186.45,-221.96 178.43,-215.03 175.86,-221.54"/>
</a>
</g>
</g>
<!-- Node4 -->
<g id="Node000004" class="node">
<title>Node4</title>
<g id="a_Node000004"><a xlink:href="neural__layer_8h.html#aa969a46ce36513e683114c704f78a0b5" target="_top" xlink:title="Creates and initialises a new layer.">
<polygon fill="white" stroke="#666666" points="248,-204 192,-204 192,-185 248,-185 248,-204"/>
<text text-anchor="middle" x="220" y="-192" font-family="Helvetica,sans-Serif" font-size="10.00">layer_init</text>
</a>
</g>
</g>
<!-- Node1&#45;&gt;Node4 -->
<g id="edge3_Node000001_Node000004" class="edge">
<title>Node1&#45;&gt;Node4</title>
<g id="a_edge3_Node000001_Node000004"><a xlink:title=" ">
<path fill="none" stroke="#63b8ff" d="M91.21,-148.07C111.51,-155.87 141.04,-167.1 167,-176.5 171.93,-178.28 177.13,-180.13 182.26,-181.93"/>
<polygon fill="#63b8ff" stroke="#63b8ff" points="181.37,-185.32 191.96,-185.3 183.67,-178.71 181.37,-185.32"/>
</a>
</g>
</g>
<!-- Node7 -->
<g id="Node000007" class="node">
<title>Node7</title>
<g id="a_Node000007"><a xlink:href="neural__layer__recurrent_8c.html#a6e3344e46eea0817b14f3568ef81ff97" target="_top" xlink:title="Allocate memory used by a recurrent layer.">
<polygon fill="white" stroke="#666666" points="272,-167 168,-167 168,-148 272,-148 272,-167"/>
<text text-anchor="middle" x="220" y="-155" font-family="Helvetica,sans-Serif" font-size="10.00">malloc_layer_arrays</text>
</a>
</g>
</g>
<!-- Node1&#45;&gt;Node7 -->
<g id="edge6_Node000001_Node000007" class="edge">
<title>Node1&#45;&gt;Node7</title>
<g id="a_edge6_Node000001_Node000007"><a xlink:title=" ">
<path fill="none" stroke="#63b8ff" d="M131.17,-146.56C139.93,-147.65 148.89,-148.76 157.58,-149.85"/>
<polygon fill="#63b8ff" stroke="#63b8ff" points="157.28,-153.34 167.63,-151.1 158.14,-146.39 157.28,-153.34"/>
</a>
</g>
</g>
<!-- Node10 -->
<g id="Node000010" class="node">
<title>Node10</title>
<g id="a_Node000010"><a xlink:href="sam_8c.html#a7f7f30716900f06683a74486aca5f5a0" target="_top" xlink:title="Initialises self&#45;adaptive mutation rates.">
<polygon fill="white" stroke="#666666" points="246.5,-130 193.5,-130 193.5,-111 246.5,-111 246.5,-130"/>
<text text-anchor="middle" x="220" y="-118" font-family="Helvetica,sans-Serif" font-size="10.00">sam_init</text>
</a>
</g>
</g>
<!-- Node1&#45;&gt;Node10 -->
<g id="edge9_Node000001_Node000010" class="edge">
<title>Node1&#45;&gt;Node10</title>
<g id="a_edge9_Node000001_Node000010"><a xlink:title=" ">
<path fill="none" stroke="#63b8ff" d="M131.17,-130.87C148.98,-128.76 167.65,-126.56 183.18,-124.73"/>
<polygon fill="#63b8ff" stroke="#63b8ff" points="183.85,-128.17 193.38,-123.52 183.03,-121.22 183.85,-128.17"/>
</a>
</g>
</g>
<!-- Node13 -->
<g id="Node000013" class="node">
<title>Node13</title>
<g id="a_Node000013"><a xlink:href="neural__layer__recurrent_8c.html#a9cf6a4d407837c532b89f9f457072203" target="_top" xlink:title="Sets the number of active (non&#45;zero) weights in a recurrent layer.">
<polygon fill="white" stroke="#666666" points="269,-93 171,-93 171,-74 269,-74 269,-93"/>
<text text-anchor="middle" x="220" y="-81" font-family="Helvetica,sans-Serif" font-size="10.00">set_layer_n_active</text>
</a>
</g>
</g>
<!-- Node1&#45;&gt;Node13 -->
<g id="edge13_Node000001_Node000013" class="edge">
<title>Node1&#45;&gt;Node13</title>
<g id="a_edge13_Node000001_Node000013"><a xlink:title=" ">
<path fill="none" stroke="#63b8ff" d="M92.06,-128.93C112.34,-121.38 141.44,-110.63 167,-101.5 171.65,-99.84 176.54,-98.12 181.38,-96.42"/>
<polygon fill="#63b8ff" stroke="#63b8ff" points="182.87,-99.61 191.17,-93.02 180.57,-93 182.87,-99.61"/>
</a>
</g>
</g>
<!-- Node14 -->
<g id="Node000014" class="node">
<title>Node14</title>
<g id="a_Node000014"><a xlink:href="neural__layer__recurrent_8c.html#ab67b6e38da6db94e4735740f8521d5b1" target="_top" xlink:title="Sets the total number of biases in a recurrent layer.">
<polygon fill="white" stroke="#666666" points="270.5,-56 169.5,-56 169.5,-37 270.5,-37 270.5,-56"/>
<text text-anchor="middle" x="220" y="-44" font-family="Helvetica,sans-Serif" font-size="10.00">set_layer_n_biases</text>
</a>
</g>
</g>
<!-- Node1&#45;&gt;Node14 -->
<g id="edge14_Node000001_Node000014" class="edge">
<title>Node1&#45;&gt;Node14</title>
<g id="a_edge14_Node000001_Node000014"><a xlink:title=" ">
<path fill="none" stroke="#63b8ff" d="M77.22,-128.89C94.83,-113.49 131.52,-83.15 167,-64.5 170.14,-62.85 173.46,-61.3 176.85,-59.86"/>
<polygon fill="#63b8ff" stroke="#63b8ff" points="178.44,-62.99 186.46,-56.07 175.88,-56.48 178.44,-62.99"/>
</a>
</g>
</g>
<!-- Node15 -->
<g id="Node000015" class="node">
<title>Node15</title>
<g id="a_Node000015"><a xlink:href="neural__layer__recurrent_8c.html#a75386a5e5f7e81bf322e68e2c87ad374" target="_top" xlink:title="Sets the total number of weights in a recurrent layer.">
<polygon fill="white" stroke="#666666" points="273,-19 167,-19 167,0 273,0 273,-19"/>
<text text-anchor="middle" x="220" y="-7" font-family="Helvetica,sans-Serif" font-size="10.00">set_layer_n_weights</text>
</a>
</g>
</g>
<!-- Node1&#45;&gt;Node15 -->
<g id="edge15_Node000001_Node000015" class="edge">
<title>Node1&#45;&gt;Node15</title>
<g id="a_edge15_Node000001_Node000015"><a xlink:title=" ">
<path fill="none" stroke="#63b8ff" d="M72.81,-128.68C87.05,-107.28 123.85,-56.03 167,-27.5 169.28,-26 171.69,-24.6 174.18,-23.32"/>
<polygon fill="#63b8ff" stroke="#63b8ff" points="175.8,-26.43 183.46,-19.11 172.91,-20.05 175.8,-26.43"/>
</a>
</g>
</g>
<!-- Node5 -->
<g id="Node000005" class="node">
<title>Node5</title>
<g id="a_Node000005"><a xlink:href="neural__layer_8c.html#a21a8acbaa483c46984c4f5f20d4edf95" target="_top" xlink:title="Initialises a layer to default values.">
<polygon fill="white" stroke="#666666" points="399.5,-241 322.5,-241 322.5,-222 399.5,-222 399.5,-241"/>
<text text-anchor="middle" x="361" y="-229" font-family="Helvetica,sans-Serif" font-size="10.00">layer_defaults</text>
</a>
</g>
</g>
<!-- Node4&#45;&gt;Node5 -->
<g id="edge4_Node000004_Node000005" class="edge">
<title>Node4&#45;&gt;Node5</title>
<g id="a_edge4_Node000004_Node000005"><a xlink:title=" ">
<path fill="none" stroke="#63b8ff" d="M248.13,-201.72C266.97,-206.74 292.53,-213.54 314.46,-219.38"/>
<polygon fill="#63b8ff" stroke="#63b8ff" points="313.68,-222.79 324.25,-221.98 315.48,-216.03 313.68,-222.79"/>
</a>
</g>
</g>
<!-- Node6 -->
<g id="Node000006" class="node">
<title>Node6</title>
<g id="a_Node000006"><a xlink:href="neural__layer_8c.html#a786726dce503a14b3bdd88b1ab5c356f" target="_top" xlink:title="Sets a neural network layer&#39;s functions to the implementations.">
<polygon fill="white" stroke="#666666" points="400,-204 322,-204 322,-185 400,-185 400,-204"/>
<text text-anchor="middle" x="361" y="-192" font-family="Helvetica,sans-Serif" font-size="10.00">layer_set_vptr</text>
</a>
</g>
</g>
<!-- Node4&#45;&gt;Node6 -->
<g id="edge5_Node000004_Node000006" class="edge">
<title>Node4&#45;&gt;Node6</title>
<g id="a_edge5_Node000004_Node000006"><a xlink:title=" ">
<path fill="none" stroke="#63b8ff" d="M248.13,-194.5C266.19,-194.5 290.42,-194.5 311.72,-194.5"/>
<polygon fill="#63b8ff" stroke="#63b8ff" points="311.9,-198 321.9,-194.5 311.9,-191 311.9,-198"/>
</a>
</g>
</g>
<!-- Node8 -->
<g id="Node000008" class="node">
<title>Node8</title>
<g id="a_Node000008"><a xlink:href="neural__layer_8c.html#a99157f8bba089b8f6d617020cdc45d7b" target="_top" xlink:title="Check number of outputs is within bounds.">
<polygon fill="white" stroke="#666666" points="413,-167 309,-167 309,-148 413,-148 413,-167"/>
<text text-anchor="middle" x="361" y="-155" font-family="Helvetica,sans-Serif" font-size="10.00">layer_guard_outputs</text>
</a>
</g>
</g>
<!-- Node7&#45;&gt;Node8 -->
<g id="edge7_Node000007_Node000008" class="edge">
<title>Node7&#45;&gt;Node8</title>
<g id="a_edge7_Node000007_Node000008"><a xlink:title=" ">
<path fill="none" stroke="#63b8ff" d="M272.36,-157.5C280.92,-157.5 289.88,-157.5 298.66,-157.5"/>
<polygon fill="#63b8ff" stroke="#63b8ff" points="298.85,-161 308.85,-157.5 298.85,-154 298.85,-161"/>
</a>
</g>
</g>
<!-- Node9 -->
<g id="Node000009" class="node">
<title>Node9</title>
<g id="a_Node000009"><a xlink:href="neural__layer_8h.html#af3da4af94dd537080a072c07c66d955d" target="_top" xlink:title="Prints the layer.">
<polygon fill="white" stroke="#666666" points="516.5,-167 454.5,-167 454.5,-148 516.5,-148 516.5,-167"/>
<text text-anchor="middle" x="485.5" y="-155" font-family="Helvetica,sans-Serif" font-size="10.00">layer_print</text>
</a>
</g>
</g>
<!-- Node8&#45;&gt;Node9 -->
<g id="edge8_Node000008_Node000009" class="edge">
<title>Node8&#45;&gt;Node9</title>
<g id="a_edge8_Node000008_Node000009"><a xlink:title=" ">
<path fill="none" stroke="#63b8ff" d="M413.24,-157.5C423.65,-157.5 434.46,-157.5 444.42,-157.5"/>
<polygon fill="#63b8ff" stroke="#63b8ff" points="444.44,-161 454.44,-157.5 444.44,-154 444.44,-161"/>
</a>
</g>
</g>
<!-- Node11 -->
<g id="Node000011" class="node">
<title>Node11</title>
<g id="a_Node000011"><a xlink:href="utils_8c.html#a972761ba8f47a6c3e7396a7c685158fc" target="_top" xlink:title="Returns a uniform random float [min,max].">
<polygon fill="white" stroke="#666666" points="522,-110 449,-110 449,-91 522,-91 522,-110"/>
<text text-anchor="middle" x="485.5" y="-98" font-family="Helvetica,sans-Serif" font-size="10.00">rand_uniform</text>
</a>
</g>
</g>
<!-- Node10&#45;&gt;Node11 -->
<g id="edge10_Node000010_Node000011" class="edge">
<title>Node10&#45;&gt;Node11</title>
<g id="a_edge10_Node000010_Node000011"><a xlink:title=" ">
<path fill="none" stroke="#63b8ff" d="M246.75,-118.55C291.15,-115.18 382.72,-108.23 438.36,-104"/>
<polygon fill="#63b8ff" stroke="#63b8ff" points="438.94,-107.47 448.65,-103.22 438.41,-100.49 438.94,-107.47"/>
</a>
</g>
</g>
<!-- Node12 -->
<g id="Node000012" class="node">
<title>Node12</title>
<g id="a_Node000012"><a xlink:href="utils_8c.html#a5e6304fd9b177f36684d4bb00af49f91" target="_top" xlink:title="Returns a uniform random integer [min,max] not inclusive of max.">
<polygon fill="white" stroke="#666666" points="405.5,-91 316.5,-91 316.5,-72 405.5,-72 405.5,-91"/>
<text text-anchor="middle" x="361" y="-79" font-family="Helvetica,sans-Serif" font-size="10.00">rand_uniform_int</text>
</a>
</g>
</g>
<!-- Node10&#45;&gt;Node12 -->
<g id="edge11_Node000010_Node000012" class="edge">
<title>Node10&#45;&gt;Node12</title>
<g id="a_edge11_Node000010_Node000012"><a xlink:title=" ">
<path fill="none" stroke="#63b8ff" d="M246.82,-113.26C266.24,-107.81 293.32,-100.21 316.12,-93.81"/>
<polygon fill="#63b8ff" stroke="#63b8ff" points="317.24,-97.13 325.92,-91.06 315.35,-90.39 317.24,-97.13"/>
</a>
</g>
</g>
<!-- Node12&#45;&gt;Node11 -->
<g id="edge12_Node000012_Node000011" class="edge">
<title>Node12&#45;&gt;Node11</title>
<g id="a_edge12_Node000012_Node000011"><a xlink:title=" ">
<path fill="none" stroke="#63b8ff" d="M405.53,-88.25C416.27,-89.92 427.8,-91.71 438.64,-93.39"/>
<polygon fill="#63b8ff" stroke="#63b8ff" points="438.36,-96.89 448.78,-94.96 439.43,-89.97 438.36,-96.89"/>
</a>
</g>
</g>
</g>
</svg>
