<?xml version="1.0" encoding="UTF-8" standalone="no"?>
<!DOCTYPE svg PUBLIC "-//W3C//DTD SVG 1.1//EN"
 "http://www.w3.org/Graphics/SVG/1.1/DTD/svg11.dtd">
<!-- Generated by graphviz version 2.43.0 (0)
 -->
<!-- Title: free_layer_arrays Pages: 1 -->
<svg width="264pt" height="76pt"
 viewBox="0.00 0.00 264.00 75.50" xmlns="http://www.w3.org/2000/svg" xmlns:xlink="http://www.w3.org/1999/xlink">
<g id="graph0" class="graph" transform="scale(1 1) rotate(0) translate(4 71.5)">
<title>free_layer_arrays</title>
<!-- Node1 -->
<g id="Node000001" class="node">
<title>Node1</title>
<g id="a_Node000001"><a xlink:title="Free memory used by a dropout layer.">
<polygon fill="#999999" stroke="#666666" points="256,-45.5 164,-45.5 164,-26.5 256,-26.5 256,-45.5"/>
<text text-anchor="middle" x="210" y="-33.5" font-family="Helvetica,sans-Serif" font-size="10.00">free_layer_arrays</text>
</a>
</g>
</g>
<!-- Node2 -->
<g id="Node000002" class="node">
<title>Node2</title>
<g id="a_Node000002"><a xlink:href="neural__layer__dropout_8c.html#ab97d59680503404e3efe1fd2f3b4353c" target="_top" xlink:title="Free memory used by a dropout layer.">
<polygon fill="white" stroke="#666666" points="128,-67.5 0,-67.5 0,-48.5 128,-48.5 128,-67.5"/>
<text text-anchor="middle" x="64" y="-55.5" font-family="Helvetica,sans-Serif" font-size="10.00">neural_layer_dropout_free</text>
</a>
</g>
</g>
<!-- Node1&#45;&gt;Node2 -->
<g id="edge1_Node000001_Node000002" class="edge">
<title>Node1&#45;&gt;Node2</title>
<g id="a_edge1_Node000001_Node000002"><a xlink:title=" ">
<path fill="none" stroke="#63b8ff" d="M153.87,-44.42C145.22,-45.74 136.22,-47.12 127.42,-48.46"/>
<polygon fill="#63b8ff" stroke="#63b8ff" points="154.48,-47.87 163.83,-42.9 153.42,-40.95 154.48,-47.87"/>
</a>
</g>
</g>
<!-- Node3 -->
<g id="Node000003" class="node">
<title>Node3</title>
<g id="a_Node000003"><a xlink:href="neural__layer__dropout_8c.html#a41d440982cb69c9769ac696c731b4e17" target="_top" xlink:title="Resizes a dropout layer if the previous layer has changed size.">
<polygon fill="white" stroke="#666666" points="117.5,-30 10.5,-30 10.5,0 117.5,0 117.5,-30"/>
<text text-anchor="start" x="18.5" y="-18" font-family="Helvetica,sans-Serif" font-size="10.00">neural_layer_dropout</text>
<text text-anchor="middle" x="64" y="-7" font-family="Helvetica,sans-Serif" font-size="10.00">_resize</text>
</a>
</g>
</g>
<!-- Node1&#45;&gt;Node3 -->
<g id="edge2_Node000001_Node000003" class="edge">
<title>Node1&#45;&gt;Node3</title>
<g id="a_edge2_Node000001_Node000003"><a xlink:title=" ">
<path fill="none" stroke="#63b8ff" d="M153.62,-27.92C141.78,-26.2 129.29,-24.38 117.56,-22.66"/>
<polygon fill="#63b8ff" stroke="#63b8ff" points="153.43,-31.43 163.83,-29.41 154.44,-24.51 153.43,-31.43"/>
</a>
</g>
</g>
</g>
</svg>
