<?xml version="1.0" encoding="UTF-8" standalone="no"?>
<!DOCTYPE svg PUBLIC "-//W3C//DTD SVG 1.1//EN"
 "http://www.w3.org/Graphics/SVG/1.1/DTD/svg11.dtd">
<!-- Generated by graphviz version 2.43.0 (0)
 -->
<!-- Title: layer_weight_clamp Pages: 1 -->
<svg width="278pt" height="86pt"
 viewBox="0.00 0.00 278.00 86.00" xmlns="http://www.w3.org/2000/svg" xmlns:xlink="http://www.w3.org/1999/xlink">
<g id="graph0" class="graph" transform="scale(1 1) rotate(0) translate(4 82)">
<title>layer_weight_clamp</title>
<!-- Node1 -->
<g id="Node000001" class="node">
<title>Node1</title>
<g id="a_Node000001"><a xlink:title="Clamps a layer&#39;s weights and biases in range [WEIGHT_MIN, WEIGHT_MAX].">
<polygon fill="#999999" stroke="#666666" points="270,-48.5 167,-48.5 167,-29.5 270,-29.5 270,-48.5"/>
<text text-anchor="middle" x="218.5" y="-36.5" font-family="Helvetica,sans-Serif" font-size="10.00">layer_weight_clamp</text>
</a>
</g>
</g>
<!-- Node2 -->
<g id="Node000002" class="node">
<title>Node2</title>
<g id="a_Node000002"><a xlink:href="neural__layer__connected_8c.html#afb4c050b212b3a0dd87d66d86b57adb7" target="_top" xlink:title="Updates the weights and biases of a connected layer.">
<polygon fill="white" stroke="#666666" points="125,-78 6,-78 6,-48 125,-48 125,-78"/>
<text text-anchor="start" x="14" y="-66" font-family="Helvetica,sans-Serif" font-size="10.00">neural_layer_connected</text>
<text text-anchor="middle" x="65.5" y="-55" font-family="Helvetica,sans-Serif" font-size="10.00">_update</text>
</a>
</g>
</g>
<!-- Node1&#45;&gt;Node2 -->
<g id="edge1_Node000001_Node000002" class="edge">
<title>Node1&#45;&gt;Node2</title>
<g id="a_edge1_Node000001_Node000002"><a xlink:title=" ">
<path fill="none" stroke="#63b8ff" d="M156.91,-48.63C146.44,-50.29 135.57,-52.02 125.15,-53.68"/>
<polygon fill="#63b8ff" stroke="#63b8ff" points="157.47,-52.08 166.8,-47.06 156.37,-45.17 157.47,-52.08"/>
</a>
</g>
</g>
<!-- Node3 -->
<g id="Node000003" class="node">
<title>Node3</title>
<g id="a_Node000003"><a xlink:href="neural__layer__convolutional_8c.html#a3e2922534009f8942017c7621f3b42e8" target="_top" xlink:title="Updates the weights and biases of a convolutional layer.">
<polygon fill="white" stroke="#666666" points="131,-30 0,-30 0,0 131,0 131,-30"/>
<text text-anchor="start" x="8" y="-18" font-family="Helvetica,sans-Serif" font-size="10.00">neural_layer_convolutional</text>
<text text-anchor="middle" x="65.5" y="-7" font-family="Helvetica,sans-Serif" font-size="10.00">_update</text>
</a>
</g>
</g>
<!-- Node1&#45;&gt;Node3 -->
<g id="edge2_Node000001_Node000003" class="edge">
<title>Node1&#45;&gt;Node3</title>
<g id="a_edge2_Node000001_Node000003"><a xlink:title=" ">
<path fill="none" stroke="#63b8ff" d="M156.66,-29.33C148.21,-27.99 139.52,-26.61 131.01,-25.25"/>
<polygon fill="#63b8ff" stroke="#63b8ff" points="156.37,-32.83 166.8,-30.94 157.47,-25.92 156.37,-32.83"/>
</a>
</g>
</g>
</g>
</svg>
