<?xml version="1.0" encoding="UTF-8" standalone="no"?>
<!DOCTYPE svg PUBLIC "-//W3C//DTD SVG 1.1//EN"
 "http://www.w3.org/Graphics/SVG/1.1/DTD/svg11.dtd">
<!-- Generated by graphviz version 2.43.0 (0)
 -->
<!-- Title: layer_args_print_sgd Pages: 1 -->
<svg width="922pt" height="116pt"
 viewBox="0.00 0.00 922.00 115.50" xmlns="http://www.w3.org/2000/svg" xmlns:xlink="http://www.w3.org/1999/xlink">
<g id="graph0" class="graph" transform="scale(1 1) rotate(0) translate(4 111.5)">
<title>layer_args_print_sgd</title>
<!-- Node1 -->
<g id="node1" class="node">
<title>Node1</title>
<g id="a_node1"><a xlink:title="Prints layer gradient descent parameters.">
<polygon fill="#bfbfbf" stroke="black" points="807,-38.5 807,-57.5 914,-57.5 914,-38.5 807,-38.5"/>
<text text-anchor="middle" x="860.5" y="-45.5" font-family="Helvetica,sans-Serif" font-size="10.00">layer_args_print_sgd</text>
</a>
</g>
</g>
<!-- Node2 -->
<g id="node2" class="node">
<title>Node2</title>
<g id="a_node2"><a xlink:href="neural__layer_8h.html#ac64c412f799465a6ad7da6feadb6c76e" target="_top" xlink:title="Prints layer parameters.">
<polygon fill="none" stroke="black" points="685,-38.5 685,-57.5 771,-57.5 771,-38.5 685,-38.5"/>
<text text-anchor="middle" x="728" y="-45.5" font-family="Helvetica,sans-Serif" font-size="10.00">layer_args_print</text>
</a>
</g>
</g>
<!-- Node1&#45;&gt;Node2 -->
<g id="edge1" class="edge">
<title>Node1&#45;&gt;Node2</title>
<path fill="none" stroke="midnightblue" d="M796.67,-48C787.99,-48 779.25,-48 771.07,-48"/>
<polygon fill="midnightblue" stroke="midnightblue" points="796.8,-51.5 806.8,-48 796.8,-44.5 796.8,-51.5"/>
</g>
<!-- Node3 -->
<g id="node3" class="node">
<title>Node3</title>
<g id="a_node3"><a xlink:href="action_8c.html#a73b50a4bf8171c64d4c5bee3894398a0" target="_top" xlink:title="Prints neural network action parameters.">
<polygon fill="none" stroke="black" points="537,-77 537,-107 636,-107 636,-77 537,-77"/>
<text text-anchor="start" x="545" y="-95" font-family="Helvetica,sans-Serif" font-size="10.00">action_param_print</text>
<text text-anchor="middle" x="586.5" y="-84" font-family="Helvetica,sans-Serif" font-size="10.00">_neural</text>
</a>
</g>
</g>
<!-- Node2&#45;&gt;Node3 -->
<g id="edge2" class="edge">
<title>Node2&#45;&gt;Node3</title>
<path fill="none" stroke="midnightblue" d="M687.05,-60.6C670.9,-65.69 652.13,-71.62 635.26,-76.93"/>
<polygon fill="midnightblue" stroke="midnightblue" points="688.25,-63.89 696.73,-57.55 686.14,-57.22 688.25,-63.89"/>
</g>
<!-- Node9 -->
<g id="node9" class="node">
<title>Node9</title>
<g id="a_node9"><a xlink:href="condition_8c.html#a0767d3c6211bee598aec6b69ac497343" target="_top" xlink:title="Prints neural network condition parameters.">
<polygon fill="none" stroke="black" points="524,-38.5 524,-57.5 649,-57.5 649,-38.5 524,-38.5"/>
<text text-anchor="middle" x="586.5" y="-45.5" font-family="Helvetica,sans-Serif" font-size="10.00">cond_param_print_neural</text>
</a>
</g>
</g>
<!-- Node2&#45;&gt;Node9 -->
<g id="edge8" class="edge">
<title>Node2&#45;&gt;Node9</title>
<path fill="none" stroke="midnightblue" d="M674.51,-48C666.23,-48 657.61,-48 649.15,-48"/>
<polygon fill="midnightblue" stroke="midnightblue" points="674.77,-51.5 684.77,-48 674.77,-44.5 674.77,-51.5"/>
</g>
<!-- Node11 -->
<g id="node11" class="node">
<title>Node11</title>
<g id="a_node11"><a xlink:href="prediction_8c.html#ad6658ac4505ce10b153ead939ebcd4f5" target="_top" xlink:title="Prints neural network prediction parameters.">
<polygon fill="none" stroke="black" points="525,-0.5 525,-19.5 648,-19.5 648,-0.5 525,-0.5"/>
<text text-anchor="middle" x="586.5" y="-7.5" font-family="Helvetica,sans-Serif" font-size="10.00">pred_param_print_neural</text>
</a>
</g>
</g>
<!-- Node2&#45;&gt;Node11 -->
<g id="edge11" class="edge">
<title>Node2&#45;&gt;Node11</title>
<path fill="none" stroke="midnightblue" d="M682.04,-35.75C662.82,-30.52 640.7,-24.49 622.69,-19.59"/>
<polygon fill="midnightblue" stroke="midnightblue" points="681.23,-39.16 691.8,-38.41 683.07,-32.41 681.23,-39.16"/>
</g>
<!-- Node4 -->
<g id="node4" class="node">
<title>Node4</title>
<g id="a_node4"><a xlink:href="action_8h.html#a1e6bb9a3116b23d3bb6b676607501923" target="_top" xlink:title="Prints action parameters.">
<polygon fill="none" stroke="black" points="389,-79.5 389,-98.5 488,-98.5 488,-79.5 389,-79.5"/>
<text text-anchor="middle" x="438.5" y="-86.5" font-family="Helvetica,sans-Serif" font-size="10.00">action_param_print</text>
</a>
</g>
</g>
<!-- Node3&#45;&gt;Node4 -->
<g id="edge3" class="edge">
<title>Node3&#45;&gt;Node4</title>
<path fill="none" stroke="midnightblue" d="M526.82,-90.79C514.08,-90.53 500.72,-90.26 488.4,-90"/>
<polygon fill="midnightblue" stroke="midnightblue" points="526.81,-94.29 536.88,-91 526.96,-87.3 526.81,-94.29"/>
</g>
<!-- Node5 -->
<g id="node5" class="node">
<title>Node5</title>
<g id="a_node5"><a xlink:href="param_8h.html#a1e92bde5285ed6ded96ba4af5fd27bd2" target="_top" xlink:title="Prints all XCSF parameters.">
<polygon fill="none" stroke="black" points="285,-38.5 285,-57.5 353,-57.5 353,-38.5 285,-38.5"/>
<text text-anchor="middle" x="319" y="-45.5" font-family="Helvetica,sans-Serif" font-size="10.00">param_print</text>
</a>
</g>
</g>
<!-- Node4&#45;&gt;Node5 -->
<g id="edge4" class="edge">
<title>Node4&#45;&gt;Node5</title>
<path fill="none" stroke="midnightblue" d="M400.53,-76.1C383.37,-70.11 363.31,-63.11 347.51,-57.6"/>
<polygon fill="midnightblue" stroke="midnightblue" points="399.65,-79.5 410.25,-79.49 401.96,-72.89 399.65,-79.5"/>
</g>
<!-- Node6 -->
<g id="node6" class="node">
<title>Node6</title>
<g id="a_node6"><a xlink:href="main_8c.html#a3c04138a5bfe5d72780bb7e82a18e627" target="_top" xlink:title=" ">
<polygon fill="none" stroke="black" points="180,-57.5 180,-76.5 218,-76.5 218,-57.5 180,-57.5"/>
<text text-anchor="middle" x="199" y="-64.5" font-family="Helvetica,sans-Serif" font-size="10.00">main</text>
</a>
</g>
</g>
<!-- Node5&#45;&gt;Node6 -->
<g id="edge5" class="edge">
<title>Node5&#45;&gt;Node6</title>
<path fill="none" stroke="midnightblue" d="M274.9,-54.94C255.39,-58.08 233.39,-61.62 218.3,-64.05"/>
<polygon fill="midnightblue" stroke="midnightblue" points="275.5,-58.39 284.82,-53.34 274.39,-51.48 275.5,-58.39"/>
</g>
<!-- Node7 -->
<g id="node7" class="node">
<title>Node7</title>
<g id="a_node7"><a xlink:href="classXCS.html#a7731d72fe05a86f0d9bc67939fd56182" target="_top" xlink:title="Prints the XCSF parameters and their current values.">
<polygon fill="none" stroke="black" points="149,-19.5 149,-38.5 249,-38.5 249,-19.5 149,-19.5"/>
<text text-anchor="middle" x="199" y="-26.5" font-family="Helvetica,sans-Serif" font-size="10.00">XCS::print_params</text>
</a>
</g>
</g>
<!-- Node5&#45;&gt;Node7 -->
<g id="edge6" class="edge">
<title>Node5&#45;&gt;Node7</title>
<path fill="none" stroke="midnightblue" d="M274.91,-41.06C266.57,-39.72 257.76,-38.3 249.23,-36.93"/>
<polygon fill="midnightblue" stroke="midnightblue" points="274.39,-44.52 284.82,-42.66 275.5,-37.61 274.39,-44.52"/>
</g>
<!-- Node8 -->
<g id="node8" class="node">
<title>Node8</title>
<g id="a_node8"><a xlink:href="pybind__wrapper_8cpp.html#a269acb618355873dacf057083f07eb58" target="_top" xlink:title=" ">
<polygon fill="none" stroke="black" points="0,-19.5 0,-38.5 113,-38.5 113,-19.5 0,-19.5"/>
<text text-anchor="middle" x="56.5" y="-26.5" font-family="Helvetica,sans-Serif" font-size="10.00">pybind11_init_wrapper</text>
</a>
</g>
</g>
<!-- Node7&#45;&gt;Node8 -->
<g id="edge7" class="edge">
<title>Node7&#45;&gt;Node8</title>
<path fill="none" stroke="midnightblue" d="M138.66,-29C130.19,-29 121.5,-29 113.1,-29"/>
<polygon fill="midnightblue" stroke="midnightblue" points="138.86,-32.5 148.86,-29 138.86,-25.5 138.86,-32.5"/>
</g>
<!-- Node10 -->
<g id="node10" class="node">
<title>Node10</title>
<g id="a_node10"><a xlink:href="condition_8h.html#adc81d1c6371eb0ef613ba3df5f2b1fb4" target="_top" xlink:title="Prints condition parameters.">
<polygon fill="none" stroke="black" points="391.5,-38.5 391.5,-57.5 485.5,-57.5 485.5,-38.5 391.5,-38.5"/>
<text text-anchor="middle" x="438.5" y="-45.5" font-family="Helvetica,sans-Serif" font-size="10.00">cond_param_print</text>
</a>
</g>
</g>
<!-- Node9&#45;&gt;Node10 -->
<g id="edge9" class="edge">
<title>Node9&#45;&gt;Node10</title>
<path fill="none" stroke="midnightblue" d="M513.36,-48C503.9,-48 494.42,-48 485.56,-48"/>
<polygon fill="midnightblue" stroke="midnightblue" points="513.58,-51.5 523.58,-48 513.58,-44.5 513.58,-51.5"/>
</g>
<!-- Node10&#45;&gt;Node5 -->
<g id="edge10" class="edge">
<title>Node10&#45;&gt;Node5</title>
<path fill="none" stroke="midnightblue" d="M381.13,-48C371.58,-48 361.96,-48 353.26,-48"/>
<polygon fill="midnightblue" stroke="midnightblue" points="381.4,-51.5 391.4,-48 381.4,-44.5 381.4,-51.5"/>
</g>
<!-- Node12 -->
<g id="node12" class="node">
<title>Node12</title>
<g id="a_node12"><a xlink:href="prediction_8h.html#a8358abee65ddd688514040ef8851d9f2" target="_top" xlink:title="Prints prediction parameters.">
<polygon fill="none" stroke="black" points="392.5,-0.5 392.5,-19.5 484.5,-19.5 484.5,-0.5 392.5,-0.5"/>
<text text-anchor="middle" x="438.5" y="-7.5" font-family="Helvetica,sans-Serif" font-size="10.00">pred_param_print</text>
</a>
</g>
</g>
<!-- Node11&#45;&gt;Node12 -->
<g id="edge12" class="edge">
<title>Node11&#45;&gt;Node12</title>
<path fill="none" stroke="midnightblue" d="M514.67,-10C504.43,-10 494.14,-10 484.6,-10"/>
<polygon fill="midnightblue" stroke="midnightblue" points="514.85,-13.5 524.85,-10 514.85,-6.5 514.85,-13.5"/>
</g>
<!-- Node12&#45;&gt;Node5 -->
<g id="edge13" class="edge">
<title>Node12&#45;&gt;Node5</title>
<path fill="none" stroke="midnightblue" d="M398.29,-22.68C382.41,-27.81 364.39,-33.64 349.64,-38.41"/>
<polygon fill="midnightblue" stroke="midnightblue" points="399.41,-26 407.85,-19.59 397.26,-19.34 399.41,-26"/>
</g>
</g>
</svg>
