<?xml version="1.0" encoding="UTF-8" standalone="no"?>
<!DOCTYPE svg PUBLIC "-//W3C//DTD SVG 1.1//EN"
 "http://www.w3.org/Graphics/SVG/1.1/DTD/svg11.dtd">
<!-- Generated by graphviz version 2.43.0 (0)
 -->
<!-- Title: neural_layer_lstm.h Pages: 1 -->
<svg width="690pt" height="84pt"
 viewBox="0.00 0.00 690.00 84.00" xmlns="http://www.w3.org/2000/svg" xmlns:xlink="http://www.w3.org/1999/xlink">
<g id="graph0" class="graph" transform="scale(1 1) rotate(0) translate(4 80)">
<title>neural_layer_lstm.h</title>
<!-- Node1 -->
<g id="node1" class="node">
<title>Node1</title>
<g id="a_node1"><a xlink:title="An implementation of a long short&#45;term memory layer.">
<polygon fill="#bfbfbf" stroke="black" points="278.5,-56.5 278.5,-75.5 379.5,-75.5 379.5,-56.5 278.5,-56.5"/>
<text text-anchor="middle" x="329" y="-63.5" font-family="Helvetica,sans-Serif" font-size="10.00">neural_layer_lstm.h</text>
</a>
</g>
</g>
<!-- Node2 -->
<g id="node2" class="node">
<title>Node2</title>
<g id="a_node2"><a xlink:href="act__neural_8c.html" target="_top" xlink:title="Neural network action functions.">
<polygon fill="none" stroke="black" points="0,-0.5 0,-19.5 70,-19.5 70,-0.5 0,-0.5"/>
<text text-anchor="middle" x="35" y="-7.5" font-family="Helvetica,sans-Serif" font-size="10.00">act_neural.c</text>
</a>
</g>
</g>
<!-- Node1&#45;&gt;Node2 -->
<g id="edge1" class="edge">
<title>Node1&#45;&gt;Node2</title>
<path fill="none" stroke="midnightblue" d="M269.48,-54.69C218.78,-45.82 144.03,-32.5 79,-20 76.09,-19.44 73.08,-18.85 70.05,-18.25"/>
<polygon fill="midnightblue" stroke="midnightblue" points="269.15,-58.19 279.6,-56.46 270.36,-51.29 269.15,-58.19"/>
</g>
<!-- Node3 -->
<g id="node3" class="node">
<title>Node3</title>
<g id="a_node3"><a xlink:href="cond__neural_8c.html" target="_top" xlink:title="Multi&#45;layer perceptron neural network condition functions.">
<polygon fill="none" stroke="black" points="88.5,-0.5 88.5,-19.5 165.5,-19.5 165.5,-0.5 88.5,-0.5"/>
<text text-anchor="middle" x="127" y="-7.5" font-family="Helvetica,sans-Serif" font-size="10.00">cond_neural.c</text>
</a>
</g>
</g>
<!-- Node1&#45;&gt;Node3 -->
<g id="edge2" class="edge">
<title>Node1&#45;&gt;Node3</title>
<path fill="none" stroke="midnightblue" d="M287.21,-53.83C249.07,-43.63 193.52,-28.78 158.86,-19.52"/>
<polygon fill="midnightblue" stroke="midnightblue" points="286.43,-57.24 296.99,-56.44 288.24,-50.48 286.43,-57.24"/>
</g>
<!-- Node4 -->
<g id="node4" class="node">
<title>Node4</title>
<g id="a_node4"><a xlink:href="neural__layer_8c.html" target="_top" xlink:title="Interface for neural network layers.">
<polygon fill="none" stroke="black" points="183.5,-0.5 183.5,-19.5 260.5,-19.5 260.5,-0.5 183.5,-0.5"/>
<text text-anchor="middle" x="222" y="-7.5" font-family="Helvetica,sans-Serif" font-size="10.00">neural_layer.c</text>
</a>
</g>
</g>
<!-- Node1&#45;&gt;Node4 -->
<g id="edge3" class="edge">
<title>Node1&#45;&gt;Node4</title>
<path fill="none" stroke="midnightblue" d="M302.7,-51.73C282.89,-41.73 256.29,-28.31 239.15,-19.65"/>
<polygon fill="midnightblue" stroke="midnightblue" points="301.3,-54.94 311.81,-56.32 304.46,-48.69 301.3,-54.94"/>
</g>
<!-- Node5 -->
<g id="node5" class="node">
<title>Node5</title>
<g id="a_node5"><a xlink:href="neural__layer__args_8c.html" target="_top" xlink:title="Functions operating on neural network arguments/constants.">
<polygon fill="none" stroke="black" points="278.5,-0.5 278.5,-19.5 379.5,-19.5 379.5,-0.5 278.5,-0.5"/>
<text text-anchor="middle" x="329" y="-7.5" font-family="Helvetica,sans-Serif" font-size="10.00">neural_layer_args.c</text>
</a>
</g>
</g>
<!-- Node1&#45;&gt;Node5 -->
<g id="edge4" class="edge">
<title>Node1&#45;&gt;Node5</title>
<path fill="none" stroke="midnightblue" d="M329,-45.8C329,-36.91 329,-26.78 329,-19.75"/>
<polygon fill="midnightblue" stroke="midnightblue" points="325.5,-46.08 329,-56.08 332.5,-46.08 325.5,-46.08"/>
</g>
<!-- Node6 -->
<g id="node6" class="node">
<title>Node6</title>
<g id="a_node6"><a xlink:href="neural__layer__lstm_8c.html" target="_top" xlink:title="An implementation of a long short&#45;term memory layer.">
<polygon fill="none" stroke="black" points="397.5,-0.5 397.5,-19.5 498.5,-19.5 498.5,-0.5 397.5,-0.5"/>
<text text-anchor="middle" x="448" y="-7.5" font-family="Helvetica,sans-Serif" font-size="10.00">neural_layer_lstm.c</text>
</a>
</g>
</g>
<!-- Node1&#45;&gt;Node6 -->
<g id="edge5" class="edge">
<title>Node1&#45;&gt;Node6</title>
<path fill="none" stroke="midnightblue" d="M357.14,-52.23C379.4,-42.13 409.86,-28.31 429.23,-19.52"/>
<polygon fill="midnightblue" stroke="midnightblue" points="355.52,-49.12 347.86,-56.44 358.41,-55.5 355.52,-49.12"/>
</g>
<!-- Node7 -->
<g id="node7" class="node">
<title>Node7</title>
<g id="a_node7"><a xlink:href="pred__neural_8c.html" target="_top" xlink:title="Multi&#45;layer perceptron neural network prediction functions.">
<polygon fill="none" stroke="black" points="516.5,-0.5 516.5,-19.5 591.5,-19.5 591.5,-0.5 516.5,-0.5"/>
<text text-anchor="middle" x="554" y="-7.5" font-family="Helvetica,sans-Serif" font-size="10.00">pred_neural.c</text>
</a>
</g>
</g>
<!-- Node1&#45;&gt;Node7 -->
<g id="edge6" class="edge">
<title>Node1&#45;&gt;Node7</title>
<path fill="none" stroke="midnightblue" d="M374.47,-54.09C416.97,-43.89 479.58,-28.86 518.51,-19.52"/>
<polygon fill="midnightblue" stroke="midnightblue" points="373.56,-50.71 364.65,-56.44 375.19,-57.51 373.56,-50.71"/>
</g>
<!-- Node8 -->
<g id="node8" class="node">
<title>Node8</title>
<g id="a_node8"><a xlink:href="rule__neural_8c.html" target="_top" xlink:title="Neural network rule (condition + action) functions.">
<polygon fill="none" stroke="black" points="610,-0.5 610,-19.5 682,-19.5 682,-0.5 610,-0.5"/>
<text text-anchor="middle" x="646" y="-7.5" font-family="Helvetica,sans-Serif" font-size="10.00">rule_neural.c</text>
</a>
</g>
</g>
<!-- Node1&#45;&gt;Node8 -->
<g id="edge7" class="edge">
<title>Node1&#45;&gt;Node8</title>
<path fill="none" stroke="midnightblue" d="M389.68,-55.56C444.87,-46.83 528.53,-33.24 601,-20 603.82,-19.48 606.74,-18.94 609.67,-18.37"/>
<polygon fill="midnightblue" stroke="midnightblue" points="389.05,-52.11 379.72,-57.13 390.14,-59.03 389.05,-52.11"/>
</g>
</g>
</svg>
