<?xml version="1.0" encoding="UTF-8" standalone="no"?>
<!DOCTYPE svg PUBLIC "-//W3C//DTD SVG 1.1//EN"
 "http://www.w3.org/Graphics/SVG/1.1/DTD/svg11.dtd">
<!-- Generated by graphviz version 2.43.0 (0)
 -->
<!-- Title: mutate_functions Pages: 1 -->
<svg width="474pt" height="47pt"
 viewBox="0.00 0.00 474.00 47.00" xmlns="http://www.w3.org/2000/svg" xmlns:xlink="http://www.w3.org/1999/xlink">
<g id="graph0" class="graph" transform="scale(1 1) rotate(0) translate(4 43)">
<title>mutate_functions</title>
<!-- Node1 -->
<g id="node1" class="node">
<title>Node1</title>
<g id="a_node1"><a xlink:title=" ">
<polygon fill="#bfbfbf" stroke="black" points="0,-0.5 0,-19.5 92,-19.5 92,-0.5 0,-0.5"/>
<text text-anchor="middle" x="46" y="-7.5" font-family="Helvetica,sans-Serif" font-size="10.00">mutate_functions</text>
</a>
</g>
</g>
<!-- Node2 -->
<g id="node2" class="node">
<title>Node2</title>
<g id="a_node2"><a xlink:href="neural__layer_8c.html#a6ff3acadc5d7dcef68f1f0012ceb4020" target="_top" xlink:title="Mutates a layer&#39;s activation function by random selection.">
<polygon fill="none" stroke="black" points="128,-0.5 128,-19.5 246,-19.5 246,-0.5 128,-0.5"/>
<text text-anchor="middle" x="187" y="-7.5" font-family="Helvetica,sans-Serif" font-size="10.00">layer_mutate_functions</text>
</a>
</g>
</g>
<!-- Node1&#45;&gt;Node2 -->
<g id="edge1" class="edge">
<title>Node1&#45;&gt;Node2</title>
<path fill="none" stroke="midnightblue" d="M92.13,-10C100.33,-10 109.06,-10 117.75,-10"/>
<polygon fill="midnightblue" stroke="midnightblue" points="117.92,-13.5 127.92,-10 117.92,-6.5 117.92,-13.5"/>
</g>
<!-- Node3 -->
<g id="node3" class="node">
<title>Node3</title>
<g id="a_node3"><a xlink:href="utils_8c.html#a894e776eb1a127a7b31a52bd86327a2a" target="_top" xlink:title="Returns a uniform random integer [min,max] not inclusive of max.">
<polygon fill="none" stroke="black" points="282,-19.5 282,-38.5 357,-38.5 357,-19.5 282,-19.5"/>
<text text-anchor="middle" x="319.5" y="-26.5" font-family="Helvetica,sans-Serif" font-size="10.00">irand_uniform</text>
</a>
</g>
</g>
<!-- Node2&#45;&gt;Node3 -->
<g id="edge2" class="edge">
<title>Node2&#45;&gt;Node3</title>
<path fill="none" stroke="midnightblue" d="M246.38,-18.5C254.87,-19.74 263.52,-21 271.75,-22.19"/>
<polygon fill="midnightblue" stroke="midnightblue" points="271.49,-25.69 281.89,-23.67 272.5,-18.77 271.49,-25.69"/>
</g>
<!-- Node4 -->
<g id="node4" class="node">
<title>Node4</title>
<g id="a_node4"><a xlink:href="utils_8c.html#a972761ba8f47a6c3e7396a7c685158fc" target="_top" xlink:title="Returns a uniform random float [min,max].">
<polygon fill="none" stroke="black" points="393,-0.5 393,-19.5 466,-19.5 466,-0.5 393,-0.5"/>
<text text-anchor="middle" x="429.5" y="-7.5" font-family="Helvetica,sans-Serif" font-size="10.00">rand_uniform</text>
</a>
</g>
</g>
<!-- Node2&#45;&gt;Node4 -->
<g id="edge4" class="edge">
<title>Node2&#45;&gt;Node4</title>
<path fill="none" stroke="midnightblue" d="M246.22,-10C288.02,-10 343.61,-10 382.36,-10"/>
<polygon fill="midnightblue" stroke="midnightblue" points="382.82,-13.5 392.82,-10 382.82,-6.5 382.82,-13.5"/>
</g>
<!-- Node3&#45;&gt;Node4 -->
<g id="edge3" class="edge">
<title>Node3&#45;&gt;Node4</title>
<path fill="none" stroke="midnightblue" d="M357.06,-22.57C365.33,-21.11 374.21,-19.55 382.81,-18.04"/>
<polygon fill="midnightblue" stroke="midnightblue" points="383.46,-21.48 392.71,-16.3 382.25,-14.58 383.46,-21.48"/>
</g>
</g>
</svg>
