<?xml version="1.0" encoding="UTF-8" standalone="no"?>
<!DOCTYPE svg PUBLIC "-//W3C//DTD SVG 1.1//EN"
 "http://www.w3.org/Graphics/SVG/1.1/DTD/svg11.dtd">
<!-- Generated by graphviz version 2.43.0 (0)
 -->
<!-- Title: malloc_layer_arrays Pages: 1 -->
<svg width="291pt" height="104pt"
 viewBox="0.00 0.00 291.00 104.00" xmlns="http://www.w3.org/2000/svg" xmlns:xlink="http://www.w3.org/1999/xlink">
<g id="graph0" class="graph" transform="scale(1 1) rotate(0) translate(4 100)">
<title>malloc_layer_arrays</title>
<!-- Node1 -->
<g id="node1" class="node">
<title>Node1</title>
<g id="a_node1"><a xlink:title=" ">
<polygon fill="#bfbfbf" stroke="black" points="179,-38.5 179,-57.5 283,-57.5 283,-38.5 179,-38.5"/>
<text text-anchor="middle" x="231" y="-45.5" font-family="Helvetica,sans-Serif" font-size="10.00">malloc_layer_arrays</text>
</a>
</g>
</g>
<!-- Node2 -->
<g id="node2" class="node">
<title>Node2</title>
<g id="a_node2"><a xlink:href="neural__layer__upsample_8h.html#ae8009be76c1fce0c7e7b2378f0a7ba0a" target="_top" xlink:title=" ">
<polygon fill="none" stroke="black" points="0,-76.5 0,-95.5 143,-95.5 143,-76.5 0,-76.5"/>
<text text-anchor="middle" x="71.5" y="-83.5" font-family="Helvetica,sans-Serif" font-size="10.00">neural_layer_upsample_copy</text>
</a>
</g>
</g>
<!-- Node1&#45;&gt;Node2 -->
<g id="edge1" class="edge">
<title>Node1&#45;&gt;Node2</title>
<path fill="none" stroke="midnightblue" d="M180.4,-59.97C158.32,-65.29 132.7,-71.48 111.96,-76.48"/>
<polygon fill="midnightblue" stroke="midnightblue" points="181.36,-63.34 190.26,-57.59 179.71,-56.53 181.36,-63.34"/>
</g>
<!-- Node3 -->
<g id="node3" class="node">
<title>Node3</title>
<g id="a_node3"><a xlink:href="neural__layer__upsample_8h.html#ac41a2616ee6b2f9d5385018143ad16b7" target="_top" xlink:title="Creates and initialises a 2D upsampling layer.">
<polygon fill="none" stroke="black" points="4.5,-38.5 4.5,-57.5 138.5,-57.5 138.5,-38.5 4.5,-38.5"/>
<text text-anchor="middle" x="71.5" y="-45.5" font-family="Helvetica,sans-Serif" font-size="10.00">neural_layer_upsample_init</text>
</a>
</g>
</g>
<!-- Node1&#45;&gt;Node3 -->
<g id="edge2" class="edge">
<title>Node1&#45;&gt;Node3</title>
<path fill="none" stroke="midnightblue" d="M168.73,-48C158.85,-48 148.58,-48 138.59,-48"/>
<polygon fill="midnightblue" stroke="midnightblue" points="168.86,-51.5 178.86,-48 168.86,-44.5 168.86,-51.5"/>
</g>
<!-- Node4 -->
<g id="node4" class="node">
<title>Node4</title>
<g id="a_node4"><a xlink:href="neural__layer__upsample_8h.html#afe357a2b8710fce237fbcd9255024c27" target="_top" xlink:title=" ">
<polygon fill="none" stroke="black" points="1.5,-0.5 1.5,-19.5 141.5,-19.5 141.5,-0.5 1.5,-0.5"/>
<text text-anchor="middle" x="71.5" y="-7.5" font-family="Helvetica,sans-Serif" font-size="10.00">neural_layer_upsample_load</text>
</a>
</g>
</g>
<!-- Node1&#45;&gt;Node4 -->
<g id="edge3" class="edge">
<title>Node1&#45;&gt;Node4</title>
<path fill="none" stroke="midnightblue" d="M180.4,-36.03C158.32,-30.71 132.7,-24.52 111.96,-19.52"/>
<polygon fill="midnightblue" stroke="midnightblue" points="179.71,-39.47 190.26,-38.41 181.36,-32.66 179.71,-39.47"/>
</g>
</g>
</svg>
