<?xml version="1.0" encoding="UTF-8" standalone="no"?>
<!DOCTYPE svg PUBLIC "-//W3C//DTD SVG 1.1//EN"
 "http://www.w3.org/Graphics/SVG/1.1/DTD/svg11.dtd">
<!-- Generated by graphviz version 2.43.0 (0)
 -->
<!-- Title: layer_save Pages: 1 -->
<svg width="399pt" height="156pt"
 viewBox="0.00 0.00 399.00 156.00" xmlns="http://www.w3.org/2000/svg" xmlns:xlink="http://www.w3.org/1999/xlink">
<g id="graph0" class="graph" transform="scale(1 1) rotate(0) translate(4 152)">
<title>layer_save</title>
<!-- Node1 -->
<g id="Node000001" class="node">
<title>Node1</title>
<g id="a_Node000001"><a xlink:title="Writes the layer to a file.">
<polygon fill="#999999" stroke="#666666" points="391,-111 327,-111 327,-92 391,-92 391,-111"/>
<text text-anchor="middle" x="359" y="-99" font-family="Helvetica,sans-Serif" font-size="10.00">layer_save</text>
</a>
</g>
</g>
<!-- Node2 -->
<g id="Node000002" class="node">
<title>Node2</title>
<g id="a_Node000002"><a xlink:href="neural__layer__lstm_8c.html#aa2dbf2fb252518c4bbbf717e4a40e6f6" target="_top" xlink:title="Writes an LSTM layer to a file.">
<polygon fill="white" stroke="#666666" points="281,-148 162,-148 162,-129 281,-129 281,-148"/>
<text text-anchor="middle" x="221.5" y="-136" font-family="Helvetica,sans-Serif" font-size="10.00">neural_layer_lstm_save</text>
</a>
</g>
</g>
<!-- Node1&#45;&gt;Node2 -->
<g id="edge1_Node000001_Node000002" class="edge">
<title>Node1&#45;&gt;Node2</title>
<g id="a_edge1_Node000001_Node000002"><a xlink:title=" ">
<path fill="none" stroke="#63b8ff" d="M316.89,-113.29C308.34,-115.71 299.38,-118.21 291,-120.5 280.8,-123.29 269.72,-126.23 259.51,-128.92"/>
<polygon fill="#63b8ff" stroke="#63b8ff" points="318.01,-116.61 326.68,-110.52 316.1,-109.88 318.01,-116.61"/>
</a>
</g>
</g>
<!-- Node3 -->
<g id="Node000003" class="node">
<title>Node3</title>
<g id="a_Node000003"><a xlink:href="neural__layer__recurrent_8c.html#a1ad28a10b158bcbb98e95cce0ce36ba0" target="_top" xlink:title="Writes a recurrent layer to a file.">
<polygon fill="white" stroke="#666666" points="291,-111 152,-111 152,-92 291,-92 291,-111"/>
<text text-anchor="middle" x="221.5" y="-99" font-family="Helvetica,sans-Serif" font-size="10.00">neural_layer_recurrent_save</text>
</a>
</g>
</g>
<!-- Node1&#45;&gt;Node3 -->
<g id="edge2_Node000001_Node000003" class="edge">
<title>Node1&#45;&gt;Node3</title>
<g id="a_edge2_Node000001_Node000003"><a xlink:title=" ">
<path fill="none" stroke="#63b8ff" d="M316.69,-101.5C308.62,-101.5 299.95,-101.5 291.26,-101.5"/>
<polygon fill="#63b8ff" stroke="#63b8ff" points="316.91,-105 326.91,-101.5 316.91,-98 316.91,-105"/>
</a>
</g>
</g>
<!-- Node4 -->
<g id="Node000004" class="node">
<title>Node4</title>
<g id="a_Node000004"><a xlink:href="neural_8c.html#af4a09366d25068c50d42977482c4fc9e" target="_top" xlink:title="Writes a neural network to a file.">
<polygon fill="white" stroke="#666666" points="256,-74 187,-74 187,-55 256,-55 256,-74"/>
<text text-anchor="middle" x="221.5" y="-62" font-family="Helvetica,sans-Serif" font-size="10.00">neural_save</text>
</a>
</g>
</g>
<!-- Node1&#45;&gt;Node4 -->
<g id="edge3_Node000001_Node000004" class="edge">
<title>Node1&#45;&gt;Node4</title>
<g id="a_edge3_Node000001_Node000004"><a xlink:title=" ">
<path fill="none" stroke="#63b8ff" d="M317.11,-90.34C297.68,-85.03 274.72,-78.76 256.29,-73.73"/>
<polygon fill="#63b8ff" stroke="#63b8ff" points="316.34,-93.75 326.91,-93.01 318.19,-87 316.34,-93.75"/>
</a>
</g>
</g>
<!-- Node5 -->
<g id="Node000005" class="node">
<title>Node5</title>
<g id="a_Node000005"><a xlink:href="act__neural_8c.html#af726a520296e74a5e31fb6c6eb6006a6" target="_top" xlink:title="Writes a neural network action to a file.">
<polygon fill="white" stroke="#666666" points="102,-130 14,-130 14,-111 102,-111 102,-130"/>
<text text-anchor="middle" x="58" y="-118" font-family="Helvetica,sans-Serif" font-size="10.00">act_neural_save</text>
</a>
</g>
</g>
<!-- Node4&#45;&gt;Node5 -->
<g id="edge4_Node000004_Node000005" class="edge">
<title>Node4&#45;&gt;Node5</title>
<g id="a_edge4_Node000004_Node000005"><a xlink:title=" ">
<path fill="none" stroke="#63b8ff" d="M177.18,-74.99C168.72,-77.47 160,-80.32 152,-83.5 135.19,-90.18 132.69,-95.53 116,-102.5 108.63,-105.58 100.53,-108.44 92.82,-110.92"/>
<polygon fill="#63b8ff" stroke="#63b8ff" points="178.24,-78.33 186.93,-72.27 176.35,-71.59 178.24,-78.33"/>
</a>
</g>
</g>
<!-- Node6 -->
<g id="Node000006" class="node">
<title>Node6</title>
<g id="a_Node000006"><a xlink:href="cond__neural_8c.html#a3af6e916fb0d2a25b57d9d2535c76f3d" target="_top" xlink:title="Writes a neural network condition to a file.">
<polygon fill="white" stroke="#666666" points="105.5,-93 10.5,-93 10.5,-74 105.5,-74 105.5,-93"/>
<text text-anchor="middle" x="58" y="-81" font-family="Helvetica,sans-Serif" font-size="10.00">cond_neural_save</text>
</a>
</g>
</g>
<!-- Node4&#45;&gt;Node6 -->
<g id="edge5_Node000004_Node000006" class="edge">
<title>Node4&#45;&gt;Node6</title>
<g id="a_edge5_Node000004_Node000006"><a xlink:title=" ">
<path fill="none" stroke="#63b8ff" d="M176.59,-69.67C154.62,-72.25 128.01,-75.38 105.67,-78.01"/>
<polygon fill="#63b8ff" stroke="#63b8ff" points="177.12,-73.13 186.64,-68.48 176.3,-66.18 177.12,-73.13"/>
</a>
</g>
</g>
<!-- Node7 -->
<g id="Node000007" class="node">
<title>Node7</title>
<g id="a_Node000007"><a xlink:href="pred__neural_8c.html#a54585fad9ebe332fdcd02bf0042fc125" target="_top" xlink:title="Writes a neural network prediction to a file.">
<polygon fill="white" stroke="#666666" points="104.5,-56 11.5,-56 11.5,-37 104.5,-37 104.5,-56"/>
<text text-anchor="middle" x="58" y="-44" font-family="Helvetica,sans-Serif" font-size="10.00">pred_neural_save</text>
</a>
</g>
</g>
<!-- Node4&#45;&gt;Node7 -->
<g id="edge6_Node000004_Node000007" class="edge">
<title>Node4&#45;&gt;Node7</title>
<g id="a_edge6_Node000004_Node000007"><a xlink:title=" ">
<path fill="none" stroke="#63b8ff" d="M176.47,-59.59C154.22,-57.11 127.24,-54.11 104.76,-51.6"/>
<polygon fill="#63b8ff" stroke="#63b8ff" points="176.32,-63.1 186.64,-60.73 177.09,-56.14 176.32,-63.1"/>
</a>
</g>
</g>
<!-- Node8 -->
<g id="Node000008" class="node">
<title>Node8</title>
<g id="a_Node000008"><a xlink:href="rule__neural_8c.html#a184be7603b6dd1f4602fa0976b71d162" target="_top" xlink:title=" ">
<polygon fill="white" stroke="#666666" points="116,-19 0,-19 0,0 116,0 116,-19"/>
<text text-anchor="middle" x="58" y="-7" font-family="Helvetica,sans-Serif" font-size="10.00">rule_neural_cond_save</text>
</a>
</g>
</g>
<!-- Node4&#45;&gt;Node8 -->
<g id="edge7_Node000004_Node000008" class="edge">
<title>Node4&#45;&gt;Node8</title>
<g id="a_edge7_Node000004_Node000008"><a xlink:title=" ">
<path fill="none" stroke="#63b8ff" d="M183.38,-51.61C163.43,-44.71 138.39,-36.09 116,-28.5 106.81,-25.39 96.78,-22.03 87.72,-19.01"/>
<polygon fill="#63b8ff" stroke="#63b8ff" points="182.43,-54.99 193.02,-54.95 184.72,-48.37 182.43,-54.99"/>
</a>
</g>
</g>
</g>
</svg>
