<?xml version="1.0" encoding="UTF-8" standalone="no"?>
<!DOCTYPE svg PUBLIC "-//W3C//DTD SVG 1.1//EN"
 "http://www.w3.org/Graphics/SVG/1.1/DTD/svg11.dtd">
<!-- Generated by graphviz version 2.43.0 (0)
 -->
<!-- Title: layer_defaults Pages: 1 -->
<svg width="1360pt" height="655pt"
 viewBox="0.00 0.00 1360.00 655.00" xmlns="http://www.w3.org/2000/svg" xmlns:xlink="http://www.w3.org/1999/xlink">
<g id="graph0" class="graph" transform="scale(1 1) rotate(0) translate(4 651)">
<title>layer_defaults</title>
<!-- Node1 -->
<g id="node1" class="node">
<title>Node1</title>
<g id="a_node1"><a xlink:title="Initialises a layer to default values.">
<polygon fill="#bfbfbf" stroke="black" points="1275,-266.5 1275,-285.5 1352,-285.5 1352,-266.5 1275,-266.5"/>
<text text-anchor="middle" x="1313.5" y="-273.5" font-family="Helvetica,sans-Serif" font-size="10.00">layer_defaults</text>
</a>
</g>
</g>
<!-- Node2 -->
<g id="node2" class="node">
<title>Node2</title>
<g id="a_node2"><a xlink:href="neural__layer_8h.html#a33f40237cec8d79bf6325b78d1f955fe" target="_top" xlink:title="Creates and initialises a new layer.">
<polygon fill="none" stroke="black" points="1132,-475.5 1132,-494.5 1188,-494.5 1188,-475.5 1132,-475.5"/>
<text text-anchor="middle" x="1160" y="-482.5" font-family="Helvetica,sans-Serif" font-size="10.00">layer_init</text>
</a>
</g>
</g>
<!-- Node1&#45;&gt;Node2 -->
<g id="edge1" class="edge">
<title>Node1&#45;&gt;Node2</title>
<path fill="none" stroke="midnightblue" d="M1310.78,-295.61C1306.31,-334.28 1290.78,-420.56 1239,-466 1225.07,-478.23 1204.56,-482.88 1188.07,-484.52"/>
<polygon fill="midnightblue" stroke="midnightblue" points="1314.27,-295.94 1311.81,-285.63 1307.3,-295.22 1314.27,-295.94"/>
</g>
<!-- Node26 -->
<g id="node26" class="node">
<title>Node26</title>
<g id="a_node26"><a xlink:href="neural__layer__avgpool_8h.html#aac38c297b6ec2440be737791d86f0af6" target="_top" xlink:title="Initialises and copies one average pooling layer from another.">
<polygon fill="none" stroke="black" points="1093,-437.5 1093,-456.5 1227,-456.5 1227,-437.5 1093,-437.5"/>
<text text-anchor="middle" x="1160" y="-444.5" font-family="Helvetica,sans-Serif" font-size="10.00">neural_layer_avgpool_copy</text>
</a>
</g>
</g>
<!-- Node1&#45;&gt;Node26 -->
<g id="edge30" class="edge">
<title>Node1&#45;&gt;Node26</title>
<path fill="none" stroke="midnightblue" d="M1308.65,-295.69C1301.19,-328.35 1281.62,-393.56 1239,-428 1234.23,-431.85 1228.8,-434.95 1223.07,-437.42"/>
<polygon fill="midnightblue" stroke="midnightblue" points="1312.14,-296.11 1310.8,-285.6 1305.29,-294.65 1312.14,-296.11"/>
</g>
<!-- Node27 -->
<g id="node27" class="node">
<title>Node27</title>
<g id="a_node27"><a xlink:href="neural__layer__connected_8h.html#a1d4a072908a0df8dcc9ff31add3fdcad" target="_top" xlink:title="Initialises and creates a copy of one connected layer from another.">
<polygon fill="none" stroke="black" points="1087,-399.5 1087,-418.5 1233,-418.5 1233,-399.5 1087,-399.5"/>
<text text-anchor="middle" x="1160" y="-406.5" font-family="Helvetica,sans-Serif" font-size="10.00">neural_layer_connected_copy</text>
</a>
</g>
</g>
<!-- Node1&#45;&gt;Node27 -->
<g id="edge31" class="edge">
<title>Node1&#45;&gt;Node27</title>
<path fill="none" stroke="midnightblue" d="M1305.46,-295.11C1295.01,-320.76 1272.89,-365.88 1239,-390 1233.55,-393.88 1227.4,-396.97 1221.01,-399.44"/>
<polygon fill="midnightblue" stroke="midnightblue" points="1308.75,-296.31 1309.12,-285.72 1302.23,-293.77 1308.75,-296.31"/>
</g>
<!-- Node28 -->
<g id="node28" class="node">
<title>Node28</title>
<g id="a_node28"><a xlink:href="neural__layer__convolutional_8h.html#a8cf0bdb29cf5ba2d12d4884ecacf45c7" target="_top" xlink:title="Initialises and copies one convolutional layer from another.">
<polygon fill="none" stroke="black" points="1081,-361.5 1081,-380.5 1239,-380.5 1239,-361.5 1081,-361.5"/>
<text text-anchor="middle" x="1160" y="-368.5" font-family="Helvetica,sans-Serif" font-size="10.00">neural_layer_convolutional_copy</text>
</a>
</g>
</g>
<!-- Node1&#45;&gt;Node28 -->
<g id="edge32" class="edge">
<title>Node1&#45;&gt;Node28</title>
<path fill="none" stroke="midnightblue" d="M1300.02,-293.85C1286.85,-311.33 1264.49,-337.39 1239,-352 1232.23,-355.88 1224.69,-358.97 1217.04,-361.44"/>
<polygon fill="midnightblue" stroke="midnightblue" points="1302.97,-295.75 1306.03,-285.61 1297.31,-291.62 1302.97,-295.75"/>
</g>
<!-- Node29 -->
<g id="node29" class="node">
<title>Node29</title>
<g id="a_node29"><a xlink:href="neural__layer__dropout_8h.html#a53c6652e7bdcb412cd5173a34f994906" target="_top" xlink:title="Initialises and creates a copy of one dropout layer from another.">
<polygon fill="none" stroke="black" points="1093.5,-323.5 1093.5,-342.5 1226.5,-342.5 1226.5,-323.5 1093.5,-323.5"/>
<text text-anchor="middle" x="1160" y="-330.5" font-family="Helvetica,sans-Serif" font-size="10.00">neural_layer_dropout_copy</text>
</a>
</g>
</g>
<!-- Node1&#45;&gt;Node29 -->
<g id="edge33" class="edge">
<title>Node1&#45;&gt;Node29</title>
<path fill="none" stroke="midnightblue" d="M1287.71,-290.7C1273.77,-298.48 1255.83,-307.7 1239,-314 1229.21,-317.66 1218.46,-320.81 1208.16,-323.43"/>
<polygon fill="midnightblue" stroke="midnightblue" points="1289.71,-293.59 1296.66,-285.6 1286.24,-287.51 1289.71,-293.59"/>
</g>
<!-- Node30 -->
<g id="node30" class="node">
<title>Node30</title>
<g id="a_node30"><a xlink:href="neural__layer__lstm_8h.html#a6ec181dbf42f15b8c04c04005c399def" target="_top" xlink:title="Initialises and creates a copy of one LSTM layer from another.">
<polygon fill="none" stroke="black" points="1100.5,-285.5 1100.5,-304.5 1219.5,-304.5 1219.5,-285.5 1100.5,-285.5"/>
<text text-anchor="middle" x="1160" y="-292.5" font-family="Helvetica,sans-Serif" font-size="10.00">neural_layer_lstm_copy</text>
</a>
</g>
</g>
<!-- Node1&#45;&gt;Node30 -->
<g id="edge34" class="edge">
<title>Node1&#45;&gt;Node30</title>
<path fill="none" stroke="midnightblue" d="M1264.56,-282.01C1250.27,-283.8 1234.45,-285.79 1219.56,-287.66"/>
<polygon fill="midnightblue" stroke="midnightblue" points="1265.17,-285.46 1274.66,-280.75 1264.3,-278.52 1265.17,-285.46"/>
</g>
<!-- Node31 -->
<g id="node31" class="node">
<title>Node31</title>
<g id="a_node31"><a xlink:href="neural__layer__maxpool_8h.html#a6142b0ee7c8b1cdd97a5ea595e03204c" target="_top" xlink:title="Initialises and creates a copy of one maxpooling layer from another.">
<polygon fill="none" stroke="black" points="1091.5,-247.5 1091.5,-266.5 1228.5,-266.5 1228.5,-247.5 1091.5,-247.5"/>
<text text-anchor="middle" x="1160" y="-254.5" font-family="Helvetica,sans-Serif" font-size="10.00">neural_layer_maxpool_copy</text>
</a>
</g>
</g>
<!-- Node1&#45;&gt;Node31 -->
<g id="edge35" class="edge">
<title>Node1&#45;&gt;Node31</title>
<path fill="none" stroke="midnightblue" d="M1264.52,-269.98C1253.14,-268.56 1240.79,-267.01 1228.71,-265.49"/>
<polygon fill="midnightblue" stroke="midnightblue" points="1264.3,-273.48 1274.66,-271.25 1265.17,-266.54 1264.3,-273.48"/>
</g>
<!-- Node32 -->
<g id="node32" class="node">
<title>Node32</title>
<g id="a_node32"><a xlink:href="neural__layer__noise_8h.html#aa3f48c8d743c54f4934fea0597969200" target="_top" xlink:title="Initialises and creates a copy of one noise layer from another.">
<polygon fill="none" stroke="black" points="1098,-209.5 1098,-228.5 1222,-228.5 1222,-209.5 1098,-209.5"/>
<text text-anchor="middle" x="1160" y="-216.5" font-family="Helvetica,sans-Serif" font-size="10.00">neural_layer_noise_copy</text>
</a>
</g>
</g>
<!-- Node1&#45;&gt;Node32 -->
<g id="edge36" class="edge">
<title>Node1&#45;&gt;Node32</title>
<path fill="none" stroke="midnightblue" d="M1287.71,-261.3C1273.77,-253.52 1255.83,-244.3 1239,-238 1229.21,-234.34 1218.46,-231.19 1208.16,-228.57"/>
<polygon fill="midnightblue" stroke="midnightblue" points="1286.24,-264.49 1296.66,-266.4 1289.71,-258.41 1286.24,-264.49"/>
</g>
<!-- Node33 -->
<g id="node33" class="node">
<title>Node33</title>
<g id="a_node33"><a xlink:href="neural__layer__recurrent_8h.html#a5f01cc7e722e1426e5aba2a643e33036" target="_top" xlink:title="Initialises and creates a copy of one recurrent layer from another.">
<polygon fill="none" stroke="black" points="1090.5,-171.5 1090.5,-190.5 1229.5,-190.5 1229.5,-171.5 1090.5,-171.5"/>
<text text-anchor="middle" x="1160" y="-178.5" font-family="Helvetica,sans-Serif" font-size="10.00">neural_layer_recurrent_copy</text>
</a>
</g>
</g>
<!-- Node1&#45;&gt;Node33 -->
<g id="edge37" class="edge">
<title>Node1&#45;&gt;Node33</title>
<path fill="none" stroke="midnightblue" d="M1300.02,-258.15C1286.85,-240.67 1264.49,-214.61 1239,-200 1232.23,-196.12 1224.69,-193.03 1217.04,-190.56"/>
<polygon fill="midnightblue" stroke="midnightblue" points="1297.31,-260.38 1306.03,-266.39 1302.97,-256.25 1297.31,-260.38"/>
</g>
<!-- Node34 -->
<g id="node34" class="node">
<title>Node34</title>
<g id="a_node34"><a xlink:href="neural__layer__softmax_8h.html#a7511194d08647d475924e23c21da562a" target="_top" xlink:title="Initialises and creates a copy of one softmax layer from another.">
<polygon fill="none" stroke="black" points="1092,-133.5 1092,-152.5 1228,-152.5 1228,-133.5 1092,-133.5"/>
<text text-anchor="middle" x="1160" y="-140.5" font-family="Helvetica,sans-Serif" font-size="10.00">neural_layer_softmax_copy</text>
</a>
</g>
</g>
<!-- Node1&#45;&gt;Node34 -->
<g id="edge38" class="edge">
<title>Node1&#45;&gt;Node34</title>
<path fill="none" stroke="midnightblue" d="M1305.46,-256.89C1295.01,-231.24 1272.89,-186.12 1239,-162 1233.55,-158.12 1227.4,-155.03 1221.01,-152.56"/>
<polygon fill="midnightblue" stroke="midnightblue" points="1302.23,-258.23 1309.12,-266.28 1308.75,-255.69 1302.23,-258.23"/>
</g>
<!-- Node35 -->
<g id="node35" class="node">
<title>Node35</title>
<g id="a_node35"><a xlink:href="neural__layer__upsample_8h.html#adc112d2c9f2cbe584a47706d75d11ee9" target="_top" xlink:title="Initialises and copies one upsampling layer from another.">
<polygon fill="none" stroke="black" points="1088.5,-95.5 1088.5,-114.5 1231.5,-114.5 1231.5,-95.5 1088.5,-95.5"/>
<text text-anchor="middle" x="1160" y="-102.5" font-family="Helvetica,sans-Serif" font-size="10.00">neural_layer_upsample_copy</text>
</a>
</g>
</g>
<!-- Node1&#45;&gt;Node35 -->
<g id="edge39" class="edge">
<title>Node1&#45;&gt;Node35</title>
<path fill="none" stroke="midnightblue" d="M1308.65,-256.31C1301.19,-223.65 1281.62,-158.44 1239,-124 1234.23,-120.15 1228.8,-117.05 1223.07,-114.58"/>
<polygon fill="midnightblue" stroke="midnightblue" points="1305.29,-257.35 1310.8,-266.4 1312.14,-255.89 1305.29,-257.35"/>
</g>
<!-- Node36 -->
<g id="node36" class="node">
<title>Node36</title>
<g id="a_node36"><a xlink:href="neural_8h.html#a7cb2bd3f18f66f9ccd9512b9d35d6d08" target="_top" xlink:title="Reads a neural network from a file.">
<polygon fill="none" stroke="black" points="1127,-57.5 1127,-76.5 1193,-76.5 1193,-57.5 1127,-57.5"/>
<text text-anchor="middle" x="1160" y="-64.5" font-family="Helvetica,sans-Serif" font-size="10.00">neural_load</text>
</a>
</g>
</g>
<!-- Node1&#45;&gt;Node36 -->
<g id="edge40" class="edge">
<title>Node1&#45;&gt;Node36</title>
<path fill="none" stroke="midnightblue" d="M1310.78,-256.39C1306.31,-217.72 1290.78,-131.44 1239,-86 1226.43,-74.97 1208.51,-70.1 1193.01,-68.05"/>
<polygon fill="midnightblue" stroke="midnightblue" points="1307.3,-256.78 1311.81,-266.37 1314.27,-256.06 1307.3,-256.78"/>
</g>
<!-- Node3 -->
<g id="node3" class="node">
<title>Node3</title>
<g id="a_node3"><a xlink:href="neural_8h.html#a6466387dd7c533e0f15da4c2127bfd79" target="_top" xlink:title="Initialises and creates a new neural network from a parameter list.">
<polygon fill="none" stroke="black" points="937.5,-551.5 937.5,-570.5 1012.5,-570.5 1012.5,-551.5 937.5,-551.5"/>
<text text-anchor="middle" x="975" y="-558.5" font-family="Helvetica,sans-Serif" font-size="10.00">neural_create</text>
</a>
</g>
</g>
<!-- Node2&#45;&gt;Node3 -->
<g id="edge2" class="edge">
<title>Node2&#45;&gt;Node3</title>
<path fill="none" stroke="midnightblue" d="M1133.5,-499.55C1110.82,-512.06 1076.46,-529.94 1045,-542 1034.67,-545.96 1023.19,-549.46 1012.6,-552.35"/>
<polygon fill="midnightblue" stroke="midnightblue" points="1135.44,-502.48 1142.47,-494.55 1132.03,-496.37 1135.44,-502.48"/>
</g>
<!-- Node18 -->
<g id="node18" class="node">
<title>Node18</title>
<g id="a_node18"><a xlink:href="neural__layer__lstm_8h.html#ae10001d478d05d7503e4ce76e02cbf6b" target="_top" xlink:title="Initialises a long short&#45;term memory layer.">
<polygon fill="none" stroke="black" points="919.5,-513.5 919.5,-532.5 1030.5,-532.5 1030.5,-513.5 919.5,-513.5"/>
<text text-anchor="middle" x="975" y="-520.5" font-family="Helvetica,sans-Serif" font-size="10.00">neural_layer_lstm_init</text>
</a>
</g>
</g>
<!-- Node2&#45;&gt;Node18 -->
<g id="edge20" class="edge">
<title>Node2&#45;&gt;Node18</title>
<path fill="none" stroke="midnightblue" d="M1121.91,-492.7C1093.05,-498.69 1052.83,-507.05 1021.93,-513.46"/>
<polygon fill="midnightblue" stroke="midnightblue" points="1122.92,-496.07 1132,-490.61 1121.49,-489.21 1122.92,-496.07"/>
</g>
<!-- Node19 -->
<g id="node19" class="node">
<title>Node19</title>
<g id="a_node19"><a xlink:href="neural__layer__recurrent_8h.html#a74274033f3a8272fb8aae4366f93d74c" target="_top" xlink:title="Initialises a recurrent layer.">
<polygon fill="none" stroke="black" points="909.5,-475.5 909.5,-494.5 1040.5,-494.5 1040.5,-475.5 909.5,-475.5"/>
<text text-anchor="middle" x="975" y="-482.5" font-family="Helvetica,sans-Serif" font-size="10.00">neural_layer_recurrent_init</text>
</a>
</g>
</g>
<!-- Node2&#45;&gt;Node19 -->
<g id="edge21" class="edge">
<title>Node2&#45;&gt;Node19</title>
<path fill="none" stroke="midnightblue" d="M1121.85,-485C1098.56,-485 1067.9,-485 1040.71,-485"/>
<polygon fill="midnightblue" stroke="midnightblue" points="1122,-488.5 1132,-485 1122,-481.5 1122,-488.5"/>
</g>
<!-- Node20 -->
<g id="node20" class="node">
<title>Node20</title>
<g id="a_node20"><a xlink:href="pred__neural_8h.html#aa639a9130cac0c222bca241f86d6c135" target="_top" xlink:title="Removes prediction (decoder) layers and inserts softmax output layer.">
<polygon fill="none" stroke="black" points="905,-437.5 905,-456.5 1045,-456.5 1045,-437.5 905,-437.5"/>
<text text-anchor="middle" x="975" y="-444.5" font-family="Helvetica,sans-Serif" font-size="10.00">pred_neural_ae_to_classifier</text>
</a>
</g>
</g>
<!-- Node2&#45;&gt;Node20 -->
<g id="edge22" class="edge">
<title>Node2&#45;&gt;Node20</title>
<path fill="none" stroke="midnightblue" d="M1121.91,-477.3C1093.05,-471.31 1052.83,-462.95 1021.93,-456.54"/>
<polygon fill="midnightblue" stroke="midnightblue" points="1121.49,-480.79 1132,-479.39 1122.92,-473.93 1121.49,-480.79"/>
</g>
<!-- Node23 -->
<g id="node23" class="node">
<title>Node23</title>
<g id="a_node23"><a xlink:href="pred__neural_8h.html#ab573aaed6ff7623e99afe1d1f6e00919" target="_top" xlink:title="Creates and inserts a hidden layer before the prediction output layer.">
<polygon fill="none" stroke="black" points="923,-399.5 923,-418.5 1027,-418.5 1027,-399.5 923,-399.5"/>
<text text-anchor="middle" x="975" y="-406.5" font-family="Helvetica,sans-Serif" font-size="10.00">pred_neural_expand</text>
</a>
</g>
</g>
<!-- Node2&#45;&gt;Node23 -->
<g id="edge26" class="edge">
<title>Node2&#45;&gt;Node23</title>
<path fill="none" stroke="midnightblue" d="M1121.95,-480.46C1108.41,-477.67 1093.39,-473.19 1081,-466 1060.88,-454.33 1064.95,-439.97 1045,-428 1038.61,-424.16 1031.42,-421.08 1024.17,-418.61"/>
<polygon fill="midnightblue" stroke="midnightblue" points="1121.47,-483.93 1131.94,-482.27 1122.73,-477.04 1121.47,-483.93"/>
</g>
<!-- Node4 -->
<g id="node4" class="node">
<title>Node4</title>
<g id="a_node4"><a xlink:href="act__neural_8h.html#abbdbc4d92f139ccc9816289233dbf934" target="_top" xlink:title="Creates and initialises an action neural network.">
<polygon fill="none" stroke="black" points="770.5,-627.5 770.5,-646.5 850.5,-646.5 850.5,-627.5 770.5,-627.5"/>
<text text-anchor="middle" x="810.5" y="-634.5" font-family="Helvetica,sans-Serif" font-size="10.00">act_neural_init</text>
</a>
</g>
</g>
<!-- Node3&#45;&gt;Node4 -->
<g id="edge3" class="edge">
<title>Node3&#45;&gt;Node4</title>
<path fill="none" stroke="midnightblue" d="M949.6,-575.87C928.71,-588.2 897.56,-605.65 869,-618 860.99,-621.46 852.13,-624.68 843.81,-627.44"/>
<polygon fill="midnightblue" stroke="midnightblue" points="951.64,-578.73 958.43,-570.6 948.05,-572.71 951.64,-578.73"/>
</g>
<!-- Node5 -->
<g id="node5" class="node">
<title>Node5</title>
<g id="a_node5"><a xlink:href="cond__neural_8h.html#a16f80af76361587e6da53dd21fa05b7b" target="_top" xlink:title="Creates and initialises a neural network condition.">
<polygon fill="none" stroke="black" points="767,-589.5 767,-608.5 854,-608.5 854,-589.5 767,-589.5"/>
<text text-anchor="middle" x="810.5" y="-596.5" font-family="Helvetica,sans-Serif" font-size="10.00">cond_neural_init</text>
</a>
</g>
</g>
<!-- Node3&#45;&gt;Node5 -->
<g id="edge4" class="edge">
<title>Node3&#45;&gt;Node5</title>
<path fill="none" stroke="midnightblue" d="M927.29,-571.92C903.57,-577.47 875.03,-584.14 852.22,-589.48"/>
<polygon fill="midnightblue" stroke="midnightblue" points="928.19,-575.31 937.13,-569.62 926.59,-568.49 928.19,-575.31"/>
</g>
<!-- Node6 -->
<g id="node6" class="node">
<title>Node6</title>
<g id="a_node6"><a xlink:href="neural__layer__args_8h.html#a660f9e96fa6caf7aa200a6eead34501b" target="_top" xlink:title="Returns a json formatted string of the neural layer parameters.">
<polygon fill="none" stroke="black" points="752,-551.5 752,-570.5 869,-570.5 869,-551.5 752,-551.5"/>
<text text-anchor="middle" x="810.5" y="-558.5" font-family="Helvetica,sans-Serif" font-size="10.00">layer_args_json_export</text>
</a>
</g>
</g>
<!-- Node3&#45;&gt;Node6 -->
<g id="edge5" class="edge">
<title>Node3&#45;&gt;Node6</title>
<path fill="none" stroke="midnightblue" d="M926.88,-561C908.88,-561 888.15,-561 869.27,-561"/>
<polygon fill="midnightblue" stroke="midnightblue" points="927.13,-564.5 937.13,-561 927.13,-557.5 927.13,-564.5"/>
</g>
<!-- Node16 -->
<g id="node16" class="node">
<title>Node16</title>
<g id="a_node16"><a xlink:href="pred__neural_8h.html#a8ff454a2da61b52670f4b70b71da2fe8" target="_top" xlink:title="Creates and initialises a neural network prediction.">
<polygon fill="none" stroke="black" points="768,-513.5 768,-532.5 853,-532.5 853,-513.5 768,-513.5"/>
<text text-anchor="middle" x="810.5" y="-520.5" font-family="Helvetica,sans-Serif" font-size="10.00">pred_neural_init</text>
</a>
</g>
</g>
<!-- Node3&#45;&gt;Node16 -->
<g id="edge18" class="edge">
<title>Node3&#45;&gt;Node16</title>
<path fill="none" stroke="midnightblue" d="M927.29,-550.08C903.57,-544.53 875.03,-537.86 852.22,-532.52"/>
<polygon fill="midnightblue" stroke="midnightblue" points="926.59,-553.51 937.13,-552.38 928.19,-546.69 926.59,-553.51"/>
</g>
<!-- Node17 -->
<g id="node17" class="node">
<title>Node17</title>
<g id="a_node17"><a xlink:href="rule__neural_8h.html#accc0db627c6130e7c8680c008b47a2e2" target="_top" xlink:title=" ">
<polygon fill="none" stroke="black" points="756.5,-475.5 756.5,-494.5 864.5,-494.5 864.5,-475.5 756.5,-475.5"/>
<text text-anchor="middle" x="810.5" y="-482.5" font-family="Helvetica,sans-Serif" font-size="10.00">rule_neural_cond_init</text>
</a>
</g>
</g>
<!-- Node3&#45;&gt;Node17 -->
<g id="edge19" class="edge">
<title>Node3&#45;&gt;Node17</title>
<path fill="none" stroke="midnightblue" d="M927.54,-551.96C919.71,-549.4 911.89,-546.14 905,-542 885.05,-530.03 888.64,-516.47 869,-504 863.05,-500.22 856.28,-497.12 849.52,-494.6"/>
<polygon fill="midnightblue" stroke="midnightblue" points="926.82,-555.39 937.4,-554.84 928.78,-548.67 926.82,-555.39"/>
</g>
<!-- Node7 -->
<g id="node7" class="node">
<title>Node7</title>
<g id="a_node7"><a xlink:href="action_8h.html#abd5f8e0c76c65e3986e0c03a26a7ecdf" target="_top" xlink:title="Returns a json formatted string of the action parameters.">
<polygon fill="none" stroke="black" points="585,-589.5 585,-608.5 716,-608.5 716,-589.5 585,-589.5"/>
<text text-anchor="middle" x="650.5" y="-596.5" font-family="Helvetica,sans-Serif" font-size="10.00">action_param_json_export</text>
</a>
</g>
</g>
<!-- Node6&#45;&gt;Node7 -->
<g id="edge6" class="edge">
<title>Node6&#45;&gt;Node7</title>
<path fill="none" stroke="midnightblue" d="M759.74,-572.97C737.6,-578.29 711.89,-584.48 691.08,-589.48"/>
<polygon fill="midnightblue" stroke="midnightblue" points="760.73,-576.33 769.63,-570.59 759.09,-569.52 760.73,-576.33"/>
</g>
<!-- Node14 -->
<g id="node14" class="node">
<title>Node14</title>
<g id="a_node14"><a xlink:href="condition_8h.html#a0e0e347822daa85547f6369c239b4c87" target="_top" xlink:title="Returns a json formatted string of the condition parameters.">
<polygon fill="none" stroke="black" points="588,-551.5 588,-570.5 713,-570.5 713,-551.5 588,-551.5"/>
<text text-anchor="middle" x="650.5" y="-558.5" font-family="Helvetica,sans-Serif" font-size="10.00">cond_param_json_export</text>
</a>
</g>
</g>
<!-- Node6&#45;&gt;Node14 -->
<g id="edge14" class="edge">
<title>Node6&#45;&gt;Node14</title>
<path fill="none" stroke="midnightblue" d="M741.46,-561C732.05,-561 722.43,-561 713.15,-561"/>
<polygon fill="midnightblue" stroke="midnightblue" points="741.56,-564.5 751.56,-561 741.56,-557.5 741.56,-564.5"/>
</g>
<!-- Node15 -->
<g id="node15" class="node">
<title>Node15</title>
<g id="a_node15"><a xlink:href="prediction_8h.html#a4efc41175016bfdcf6eaa51ae07aaaf8" target="_top" xlink:title="Returns a json formatted string of the prediction parameters.">
<polygon fill="none" stroke="black" points="589,-513.5 589,-532.5 712,-532.5 712,-513.5 589,-513.5"/>
<text text-anchor="middle" x="650.5" y="-520.5" font-family="Helvetica,sans-Serif" font-size="10.00">pred_param_json_export</text>
</a>
</g>
</g>
<!-- Node6&#45;&gt;Node15 -->
<g id="edge16" class="edge">
<title>Node6&#45;&gt;Node15</title>
<path fill="none" stroke="midnightblue" d="M759.74,-549.03C737.6,-543.71 711.89,-537.52 691.08,-532.52"/>
<polygon fill="midnightblue" stroke="midnightblue" points="759.09,-552.48 769.63,-551.41 760.73,-545.67 759.09,-552.48"/>
</g>
<!-- Node8 -->
<g id="node8" class="node">
<title>Node8</title>
<g id="a_node8"><a xlink:href="param_8h.html#a631e4068e661e64840366188b60075dc" target="_top" xlink:title="Returns a json formatted string representation of the parameters.">
<polygon fill="none" stroke="black" points="443.5,-551.5 443.5,-570.5 542.5,-570.5 542.5,-551.5 443.5,-551.5"/>
<text text-anchor="middle" x="493" y="-558.5" font-family="Helvetica,sans-Serif" font-size="10.00">param_json_export</text>
</a>
</g>
</g>
<!-- Node7&#45;&gt;Node8 -->
<g id="edge7" class="edge">
<title>Node7&#45;&gt;Node8</title>
<path fill="none" stroke="midnightblue" d="M600.53,-587.03C578.73,-581.71 553.43,-575.52 532.96,-570.52"/>
<polygon fill="midnightblue" stroke="midnightblue" points="599.72,-590.44 610.26,-589.41 601.38,-583.64 599.72,-590.44"/>
</g>
<!-- Node9 -->
<g id="node9" class="node">
<title>Node9</title>
<g id="a_node9"><a xlink:href="classXCS.html#adb57289e76542083f52f422992e4ee13" target="_top" xlink:title="Returns a JSON formatted string representing the parameters.">
<polygon fill="none" stroke="black" points="285,-551.5 285,-570.5 401,-570.5 401,-551.5 285,-551.5"/>
<text text-anchor="middle" x="343" y="-558.5" font-family="Helvetica,sans-Serif" font-size="10.00">XCS::json_parameters</text>
</a>
</g>
</g>
<!-- Node8&#45;&gt;Node9 -->
<g id="edge8" class="edge">
<title>Node8&#45;&gt;Node9</title>
<path fill="none" stroke="midnightblue" d="M432.82,-561C422.34,-561 411.45,-561 401.04,-561"/>
<polygon fill="midnightblue" stroke="midnightblue" points="433.13,-564.5 443.13,-561 433.13,-557.5 433.13,-564.5"/>
</g>
<!-- Node11 -->
<g id="node11" class="node">
<title>Node11</title>
<g id="a_node11"><a xlink:href="param_8h.html#a1e92bde5285ed6ded96ba4af5fd27bd2" target="_top" xlink:title="Prints all XCSF parameters.">
<polygon fill="none" stroke="black" points="309,-513.5 309,-532.5 377,-532.5 377,-513.5 309,-513.5"/>
<text text-anchor="middle" x="343" y="-520.5" font-family="Helvetica,sans-Serif" font-size="10.00">param_print</text>
</a>
</g>
</g>
<!-- Node8&#45;&gt;Node11 -->
<g id="edge10" class="edge">
<title>Node8&#45;&gt;Node11</title>
<path fill="none" stroke="midnightblue" d="M444.84,-548.89C422.86,-543.25 397.22,-536.66 377.29,-531.55"/>
<polygon fill="midnightblue" stroke="midnightblue" points="444.1,-552.31 454.65,-551.41 445.84,-545.53 444.1,-552.31"/>
</g>
<!-- Node10 -->
<g id="node10" class="node">
<title>Node10</title>
<g id="a_node10"><a xlink:href="pybind__wrapper_8cpp.html#a269acb618355873dacf057083f07eb58" target="_top" xlink:title=" ">
<polygon fill="none" stroke="black" points="0,-456.5 0,-475.5 113,-475.5 113,-456.5 0,-456.5"/>
<text text-anchor="middle" x="56.5" y="-463.5" font-family="Helvetica,sans-Serif" font-size="10.00">pybind11_init_wrapper</text>
</a>
</g>
</g>
<!-- Node9&#45;&gt;Node10 -->
<g id="edge9" class="edge">
<title>Node9&#45;&gt;Node10</title>
<path fill="none" stroke="midnightblue" d="M274.96,-563.95C236.71,-563.33 188.64,-558.56 149,-542 112.79,-526.88 79.93,-492.34 65.39,-475.53"/>
<polygon fill="midnightblue" stroke="midnightblue" points="274.94,-567.45 284.97,-564.02 275,-560.45 274.94,-567.45"/>
</g>
<!-- Node12 -->
<g id="node12" class="node">
<title>Node12</title>
<g id="a_node12"><a xlink:href="main_8c.html#a3c04138a5bfe5d72780bb7e82a18e627" target="_top" xlink:title=" ">
<polygon fill="none" stroke="black" points="180,-513.5 180,-532.5 218,-532.5 218,-513.5 180,-513.5"/>
<text text-anchor="middle" x="199" y="-520.5" font-family="Helvetica,sans-Serif" font-size="10.00">main</text>
</a>
</g>
</g>
<!-- Node11&#45;&gt;Node12 -->
<g id="edge11" class="edge">
<title>Node11&#45;&gt;Node12</title>
<path fill="none" stroke="midnightblue" d="M298.38,-523C271.51,-523 238.46,-523 218.32,-523"/>
<polygon fill="midnightblue" stroke="midnightblue" points="298.71,-526.5 308.71,-523 298.71,-519.5 298.71,-526.5"/>
</g>
<!-- Node13 -->
<g id="node13" class="node">
<title>Node13</title>
<g id="a_node13"><a xlink:href="classXCS.html#a7731d72fe05a86f0d9bc67939fd56182" target="_top" xlink:title="Prints the XCSF parameters and their current values.">
<polygon fill="none" stroke="black" points="149,-475.5 149,-494.5 249,-494.5 249,-475.5 149,-475.5"/>
<text text-anchor="middle" x="199" y="-482.5" font-family="Helvetica,sans-Serif" font-size="10.00">XCS::print_params</text>
</a>
</g>
</g>
<!-- Node11&#45;&gt;Node13 -->
<g id="edge12" class="edge">
<title>Node11&#45;&gt;Node13</title>
<path fill="none" stroke="midnightblue" d="M298.8,-511.44C278.56,-506.02 254.74,-499.65 235.57,-494.52"/>
<polygon fill="midnightblue" stroke="midnightblue" points="298.14,-514.89 308.71,-514.09 299.95,-508.12 298.14,-514.89"/>
</g>
<!-- Node13&#45;&gt;Node10 -->
<g id="edge13" class="edge">
<title>Node13&#45;&gt;Node10</title>
<path fill="none" stroke="midnightblue" d="M138.94,-477.01C130.38,-475.86 121.59,-474.67 113.1,-473.52"/>
<polygon fill="midnightblue" stroke="midnightblue" points="138.48,-480.48 148.86,-478.35 139.42,-473.55 138.48,-480.48"/>
</g>
<!-- Node14&#45;&gt;Node8 -->
<g id="edge15" class="edge">
<title>Node14&#45;&gt;Node8</title>
<path fill="none" stroke="midnightblue" d="M577.37,-561C565.64,-561 553.75,-561 542.76,-561"/>
<polygon fill="midnightblue" stroke="midnightblue" points="577.6,-564.5 587.6,-561 577.6,-557.5 577.6,-564.5"/>
</g>
<!-- Node15&#45;&gt;Node8 -->
<g id="edge17" class="edge">
<title>Node15&#45;&gt;Node8</title>
<path fill="none" stroke="midnightblue" d="M600.53,-534.97C578.73,-540.29 553.43,-546.48 532.96,-551.48"/>
<polygon fill="midnightblue" stroke="midnightblue" points="601.38,-538.36 610.26,-532.59 599.72,-531.56 601.38,-538.36"/>
</g>
<!-- Node21 -->
<g id="node21" class="node">
<title>Node21</title>
<g id="a_node21"><a xlink:href="xcsf_8h.html#ad77461184a11780681798ac593b090ab" target="_top" xlink:title="Switches from autoencoding to classification.">
<polygon fill="none" stroke="black" points="756,-437.5 756,-456.5 865,-456.5 865,-437.5 756,-437.5"/>
<text text-anchor="middle" x="810.5" y="-444.5" font-family="Helvetica,sans-Serif" font-size="10.00">xcsf_ae_to_classifier</text>
</a>
</g>
</g>
<!-- Node20&#45;&gt;Node21 -->
<g id="edge23" class="edge">
<title>Node20&#45;&gt;Node21</title>
<path fill="none" stroke="midnightblue" d="M894.41,-447C884.59,-447 874.73,-447 865.42,-447"/>
<polygon fill="midnightblue" stroke="midnightblue" points="894.61,-450.5 904.61,-447 894.61,-443.5 894.61,-450.5"/>
</g>
<!-- Node22 -->
<g id="node22" class="node">
<title>Node22</title>
<g id="a_node22"><a xlink:href="classXCS.html#ad73009d926d395ee03bf7586f194fcbe" target="_top" xlink:title="Switches from autoencoding to classification.">
<polygon fill="none" stroke="black" points="437,-437.5 437,-456.5 549,-456.5 549,-437.5 437,-437.5"/>
<text text-anchor="middle" x="493" y="-444.5" font-family="Helvetica,sans-Serif" font-size="10.00">XCS::ae_to_classifier</text>
</a>
</g>
</g>
<!-- Node21&#45;&gt;Node22 -->
<g id="edge24" class="edge">
<title>Node21&#45;&gt;Node22</title>
<path fill="none" stroke="midnightblue" d="M745.89,-447C688.19,-447 604,-447 549.11,-447"/>
<polygon fill="midnightblue" stroke="midnightblue" points="745.98,-450.5 755.98,-447 745.98,-443.5 745.98,-450.5"/>
</g>
<!-- Node22&#45;&gt;Node10 -->
<g id="edge25" class="edge">
<title>Node22&#45;&gt;Node10</title>
<path fill="none" stroke="midnightblue" d="M426.89,-449.85C341.58,-453.58 193.42,-460.06 113.11,-463.57"/>
<polygon fill="midnightblue" stroke="midnightblue" points="427.13,-453.34 436.97,-449.41 426.83,-446.35 427.13,-453.34"/>
</g>
<!-- Node24 -->
<g id="node24" class="node">
<title>Node24</title>
<g id="a_node24"><a xlink:href="xcsf_8h.html#a6bb93a888da68d6397ce63fb58428237" target="_top" xlink:title="Inserts a new hidden layer before the output layer within all prediction neural networks in the popul...">
<polygon fill="none" stroke="black" points="762.5,-399.5 762.5,-418.5 858.5,-418.5 858.5,-399.5 762.5,-399.5"/>
<text text-anchor="middle" x="810.5" y="-406.5" font-family="Helvetica,sans-Serif" font-size="10.00">xcsf_pred_expand</text>
</a>
</g>
</g>
<!-- Node23&#45;&gt;Node24 -->
<g id="edge27" class="edge">
<title>Node23&#45;&gt;Node24</title>
<path fill="none" stroke="midnightblue" d="M912.31,-409C894.54,-409 875.46,-409 858.72,-409"/>
<polygon fill="midnightblue" stroke="midnightblue" points="912.58,-412.5 922.58,-409 912.58,-405.5 912.58,-412.5"/>
</g>
<!-- Node25 -->
<g id="node25" class="node">
<title>Node25</title>
<g id="a_node25"><a xlink:href="classXCS.html#aa4d00c1db4ef961055b74f231cbd39f0" target="_top" xlink:title="Inserts a new hidden layer before the output layer within all prediction neural networks in the popul...">
<polygon fill="none" stroke="black" points="443.5,-399.5 443.5,-418.5 542.5,-418.5 542.5,-399.5 443.5,-399.5"/>
<text text-anchor="middle" x="493" y="-406.5" font-family="Helvetica,sans-Serif" font-size="10.00">XCS::pred_expand</text>
</a>
</g>
</g>
<!-- Node24&#45;&gt;Node25 -->
<g id="edge28" class="edge">
<title>Node24&#45;&gt;Node25</title>
<path fill="none" stroke="midnightblue" d="M752.2,-409C692.23,-409 599.09,-409 542.59,-409"/>
<polygon fill="midnightblue" stroke="midnightblue" points="752.27,-412.5 762.27,-409 752.27,-405.5 752.27,-412.5"/>
</g>
<!-- Node25&#45;&gt;Node10 -->
<g id="edge29" class="edge">
<title>Node25&#45;&gt;Node10</title>
<path fill="none" stroke="midnightblue" d="M433.27,-416.29C364.94,-424.82 248.74,-439.52 149,-453 137.39,-454.57 124.97,-456.3 113.13,-457.97"/>
<polygon fill="midnightblue" stroke="midnightblue" points="433.92,-419.73 443.41,-415.02 433.05,-412.79 433.92,-419.73"/>
</g>
<!-- Node37 -->
<g id="node37" class="node">
<title>Node37</title>
<g id="a_node37"><a xlink:href="act__neural_8h.html#a241289b5c61dec98b854ee24fdf16d67" target="_top" xlink:title="Reads a neural network action from a file.">
<polygon fill="none" stroke="black" points="932.5,-114.5 932.5,-133.5 1017.5,-133.5 1017.5,-114.5 932.5,-114.5"/>
<text text-anchor="middle" x="975" y="-121.5" font-family="Helvetica,sans-Serif" font-size="10.00">act_neural_load</text>
</a>
</g>
</g>
<!-- Node36&#45;&gt;Node37 -->
<g id="edge41" class="edge">
<title>Node36&#45;&gt;Node37</title>
<path fill="none" stroke="midnightblue" d="M1116.89,-75.25C1105.09,-78.1 1092.39,-81.68 1081,-86 1064.08,-92.41 1061.82,-98.34 1045,-105 1035.87,-108.61 1025.81,-111.81 1016.26,-114.5"/>
<polygon fill="midnightblue" stroke="midnightblue" points="1118,-78.59 1126.96,-72.94 1116.43,-71.76 1118,-78.59"/>
</g>
<!-- Node38 -->
<g id="node38" class="node">
<title>Node38</title>
<g id="a_node38"><a xlink:href="cond__neural_8h.html#a8decac2646ea64aba95cd8522d295c83" target="_top" xlink:title="Reads a neural network condition from a file.">
<polygon fill="none" stroke="black" points="929,-76.5 929,-95.5 1021,-95.5 1021,-76.5 929,-76.5"/>
<text text-anchor="middle" x="975" y="-83.5" font-family="Helvetica,sans-Serif" font-size="10.00">cond_neural_load</text>
</a>
</g>
</g>
<!-- Node36&#45;&gt;Node38 -->
<g id="edge42" class="edge">
<title>Node36&#45;&gt;Node38</title>
<path fill="none" stroke="midnightblue" d="M1116.6,-71.4C1087.95,-74.38 1050.19,-78.3 1021.01,-81.33"/>
<polygon fill="midnightblue" stroke="midnightblue" points="1117.12,-74.87 1126.7,-70.35 1116.4,-67.9 1117.12,-74.87"/>
</g>
<!-- Node39 -->
<g id="node39" class="node">
<title>Node39</title>
<g id="a_node39"><a xlink:href="pred__neural_8h.html#aee98eff48767b879343983d0717952cc" target="_top" xlink:title="Reads a neural network prediction from a file.">
<polygon fill="none" stroke="black" points="930,-38.5 930,-57.5 1020,-57.5 1020,-38.5 930,-38.5"/>
<text text-anchor="middle" x="975" y="-45.5" font-family="Helvetica,sans-Serif" font-size="10.00">pred_neural_load</text>
</a>
</g>
</g>
<!-- Node36&#45;&gt;Node39 -->
<g id="edge43" class="edge">
<title>Node36&#45;&gt;Node39</title>
<path fill="none" stroke="midnightblue" d="M1116.52,-62.59C1087.66,-59.59 1049.57,-55.64 1020.33,-52.6"/>
<polygon fill="midnightblue" stroke="midnightblue" points="1116.4,-66.1 1126.7,-63.65 1117.12,-59.13 1116.4,-66.1"/>
</g>
<!-- Node40 -->
<g id="node40" class="node">
<title>Node40</title>
<g id="a_node40"><a xlink:href="rule__neural_8h.html#a0e1e69e3c01307e2423a9c3c05409d63" target="_top" xlink:title=" ">
<polygon fill="none" stroke="black" points="918.5,-0.5 918.5,-19.5 1031.5,-19.5 1031.5,-0.5 918.5,-0.5"/>
<text text-anchor="middle" x="975" y="-7.5" font-family="Helvetica,sans-Serif" font-size="10.00">rule_neural_cond_load</text>
</a>
</g>
</g>
<!-- Node36&#45;&gt;Node40 -->
<g id="edge44" class="edge">
<title>Node36&#45;&gt;Node40</title>
<path fill="none" stroke="midnightblue" d="M1121.79,-54.04C1099.59,-46.45 1070.79,-36.84 1045,-29 1034.3,-25.75 1022.6,-22.43 1011.92,-19.5"/>
<polygon fill="midnightblue" stroke="midnightblue" points="1120.89,-57.43 1131.49,-57.37 1123.17,-50.81 1120.89,-57.43"/>
</g>
</g>
</svg>
