<?xml version="1.0" encoding="UTF-8" standalone="no"?>
<!DOCTYPE svg PUBLIC "-//W3C//DTD SVG 1.1//EN"
 "http://www.w3.org/Graphics/SVG/1.1/DTD/svg11.dtd">
<!-- Generated by graphviz version 2.43.0 (0)
 -->
<!-- Title: neural_layer_connected_init Pages: 1 -->
<svg width="505pt" height="180pt"
 viewBox="0.00 0.00 505.00 180.00" xmlns="http://www.w3.org/2000/svg" xmlns:xlink="http://www.w3.org/1999/xlink">
<g id="graph0" class="graph" transform="scale(1 1) rotate(0) translate(4 176)">
<title>neural_layer_connected_init</title>
<!-- Node1 -->
<g id="node1" class="node">
<title>Node1</title>
<g id="a_node1"><a xlink:title="Creates and initialises a fully&#45;connected layer.">
<polygon fill="#bfbfbf" stroke="black" points="0,-76.5 0,-95.5 137,-95.5 137,-76.5 0,-76.5"/>
<text text-anchor="middle" x="68.5" y="-83.5" font-family="Helvetica,sans-Serif" font-size="10.00">neural_layer_connected_init</text>
</a>
</g>
</g>
<!-- Node2 -->
<g id="node2" class="node">
<title>Node2</title>
<g id="a_node2"><a xlink:href="neural__layer_8c.html#ab67d17f74ef104965ef77e9f3eb75043" target="_top" xlink:title="Initialises a layer to default values.">
<polygon fill="none" stroke="black" points="197,-152.5 197,-171.5 253,-171.5 253,-152.5 197,-152.5"/>
<text text-anchor="middle" x="225" y="-159.5" font-family="Helvetica,sans-Serif" font-size="10.00">layer_init</text>
</a>
</g>
</g>
<!-- Node1&#45;&gt;Node2 -->
<g id="edge1" class="edge">
<title>Node1&#45;&gt;Node2</title>
<path fill="none" stroke="midnightblue" d="M88.13,-95.54C108.79,-106.08 143.16,-123.49 173,-138 179.78,-141.3 187.09,-144.78 194,-148.04"/>
<polygon fill="midnightblue" stroke="midnightblue" points="192.56,-151.23 203.1,-152.31 195.53,-144.89 192.56,-151.23"/>
</g>
<!-- Node3 -->
<g id="node3" class="node">
<title>Node3</title>
<g id="a_node3"><a xlink:href="neural__layer_8c.html#a5fa3dd6606918df33d502735416e6434" target="_top" xlink:title="Initialises a layer&#39;s gradient descent rate.">
<polygon fill="none" stroke="black" points="313.5,-95.5 313.5,-114.5 387.5,-114.5 387.5,-95.5 313.5,-95.5"/>
<text text-anchor="middle" x="350.5" y="-102.5" font-family="Helvetica,sans-Serif" font-size="10.00">layer_init_eta</text>
</a>
</g>
</g>
<!-- Node1&#45;&gt;Node3 -->
<g id="edge2" class="edge">
<title>Node1&#45;&gt;Node3</title>
<path fill="none" stroke="midnightblue" d="M111.56,-95.51C130.27,-99.28 152.62,-103.15 173,-105 217.02,-109.01 267.48,-108.5 303.14,-107.29"/>
<polygon fill="midnightblue" stroke="midnightblue" points="303.38,-110.78 313.24,-106.92 303.12,-103.79 303.38,-110.78"/>
</g>
<!-- Node5 -->
<g id="node5" class="node">
<title>Node5</title>
<g id="a_node5"><a xlink:href="neural__layer__connected_8c.html#aafbaba8d834345793abe553e5624b09d" target="_top" xlink:title=" ">
<polygon fill="none" stroke="black" points="173,-76.5 173,-95.5 277,-95.5 277,-76.5 173,-76.5"/>
<text text-anchor="middle" x="225" y="-83.5" font-family="Helvetica,sans-Serif" font-size="10.00">malloc_layer_arrays</text>
</a>
</g>
</g>
<!-- Node1&#45;&gt;Node5 -->
<g id="edge4" class="edge">
<title>Node1&#45;&gt;Node5</title>
<path fill="none" stroke="midnightblue" d="M137.27,-86C145.59,-86 154.06,-86 162.29,-86"/>
<polygon fill="midnightblue" stroke="midnightblue" points="162.55,-89.5 172.55,-86 162.55,-82.5 162.55,-89.5"/>
</g>
<!-- Node6 -->
<g id="node6" class="node">
<title>Node6</title>
<g id="a_node6"><a xlink:href="utils_8c.html#a6a36d869b4a218a3f55cd19067f62c0f" target="_top" xlink:title="Returns a random Gaussian with specified mean and standard deviation.">
<polygon fill="none" stroke="black" points="190,-38.5 190,-57.5 260,-57.5 260,-38.5 190,-38.5"/>
<text text-anchor="middle" x="225" y="-45.5" font-family="Helvetica,sans-Serif" font-size="10.00">rand_normal</text>
</a>
</g>
</g>
<!-- Node1&#45;&gt;Node6 -->
<g id="edge5" class="edge">
<title>Node1&#45;&gt;Node6</title>
<path fill="none" stroke="midnightblue" d="M108.49,-76.41C130.19,-71.07 157.29,-64.41 179.78,-58.88"/>
<polygon fill="midnightblue" stroke="midnightblue" points="180.88,-62.21 189.76,-56.42 179.21,-55.41 180.88,-62.21"/>
</g>
<!-- Node7 -->
<g id="node7" class="node">
<title>Node7</title>
<g id="a_node7"><a xlink:href="sam_8c.html#a7f7f30716900f06683a74486aca5f5a0" target="_top" xlink:title="Initialises self&#45;adaptive mutation rates.">
<polygon fill="none" stroke="black" points="198.5,-0.5 198.5,-19.5 251.5,-19.5 251.5,-0.5 198.5,-0.5"/>
<text text-anchor="middle" x="225" y="-7.5" font-family="Helvetica,sans-Serif" font-size="10.00">sam_init</text>
</a>
</g>
</g>
<!-- Node1&#45;&gt;Node7 -->
<g id="edge6" class="edge">
<title>Node1&#45;&gt;Node7</title>
<path fill="none" stroke="midnightblue" d="M85.26,-76.37C105.23,-64.38 140.93,-43.71 173,-29 178.05,-26.69 183.46,-24.43 188.81,-22.34"/>
<polygon fill="midnightblue" stroke="midnightblue" points="190.17,-25.57 198.28,-18.75 187.69,-19.02 190.17,-25.57"/>
</g>
<!-- Node4 -->
<g id="node4" class="node">
<title>Node4</title>
<g id="a_node4"><a xlink:href="utils_8c.html#a972761ba8f47a6c3e7396a7c685158fc" target="_top" xlink:title="Returns a uniform random float [min,max].">
<polygon fill="none" stroke="black" points="424,-38.5 424,-57.5 497,-57.5 497,-38.5 424,-38.5"/>
<text text-anchor="middle" x="460.5" y="-45.5" font-family="Helvetica,sans-Serif" font-size="10.00">rand_uniform</text>
</a>
</g>
</g>
<!-- Node3&#45;&gt;Node4 -->
<g id="edge3" class="edge">
<title>Node3&#45;&gt;Node4</title>
<path fill="none" stroke="midnightblue" d="M369.82,-95.33C386.99,-86.27 412.87,-72.61 432.43,-62.29"/>
<polygon fill="midnightblue" stroke="midnightblue" points="434.24,-65.29 441.45,-57.53 430.97,-59.1 434.24,-65.29"/>
</g>
<!-- Node7&#45;&gt;Node4 -->
<g id="edge9" class="edge">
<title>Node7&#45;&gt;Node4</title>
<path fill="none" stroke="midnightblue" d="M251.77,-16.24C269.03,-20.26 292.28,-25.4 313,-29 346.53,-34.82 384.67,-39.72 413.62,-43.08"/>
<polygon fill="midnightblue" stroke="midnightblue" points="413.51,-46.59 423.85,-44.24 414.31,-39.63 413.51,-46.59"/>
</g>
<!-- Node8 -->
<g id="node8" class="node">
<title>Node8</title>
<g id="a_node8"><a xlink:href="utils_8c.html#a894e776eb1a127a7b31a52bd86327a2a" target="_top" xlink:title="Returns a uniform random integer [min,max] not inclusive of max.">
<polygon fill="none" stroke="black" points="313,-0.5 313,-19.5 388,-19.5 388,-0.5 313,-0.5"/>
<text text-anchor="middle" x="350.5" y="-7.5" font-family="Helvetica,sans-Serif" font-size="10.00">irand_uniform</text>
</a>
</g>
</g>
<!-- Node7&#45;&gt;Node8 -->
<g id="edge7" class="edge">
<title>Node7&#45;&gt;Node8</title>
<path fill="none" stroke="midnightblue" d="M251.59,-10C266.22,-10 285.02,-10 302.24,-10"/>
<polygon fill="midnightblue" stroke="midnightblue" points="302.7,-13.5 312.7,-10 302.7,-6.5 302.7,-13.5"/>
</g>
<!-- Node8&#45;&gt;Node4 -->
<g id="edge8" class="edge">
<title>Node8&#45;&gt;Node4</title>
<path fill="none" stroke="midnightblue" d="M378.75,-19.59C392.06,-24.27 408.25,-29.97 422.64,-35.03"/>
<polygon fill="midnightblue" stroke="midnightblue" points="421.66,-38.4 432.26,-38.41 423.98,-31.79 421.66,-38.4"/>
</g>
</g>
</svg>
