<?xml version="1.0" encoding="UTF-8" standalone="no"?>
<!DOCTYPE svg PUBLIC "-//W3C//DTD SVG 1.1//EN"
 "http://www.w3.org/Graphics/SVG/1.1/DTD/svg11.dtd">
<!-- Generated by graphviz version 2.43.0 (0)
 -->
<!-- Title: neural_layer_upsample.c Pages: 1 -->
<svg width="436pt" height="252pt"
 viewBox="0.00 0.00 436.00 252.00" xmlns="http://www.w3.org/2000/svg" xmlns:xlink="http://www.w3.org/1999/xlink">
<g id="graph0" class="graph" transform="scale(1 1) rotate(0) translate(4 248)">
<title>neural_layer_upsample.c</title>
<!-- Node1 -->
<g id="node1" class="node">
<title>Node1</title>
<g id="a_node1"><a xlink:title="An implementation of a 2D upsampling layer.">
<polygon fill="#bfbfbf" stroke="black" points="221.5,-224.5 221.5,-243.5 346.5,-243.5 346.5,-224.5 221.5,-224.5"/>
<text text-anchor="middle" x="284" y="-231.5" font-family="Helvetica,sans-Serif" font-size="10.00">neural_layer_upsample.c</text>
</a>
</g>
</g>
<!-- Node2 -->
<g id="node2" class="node">
<title>Node2</title>
<g id="a_node2"><a xlink:href="neural__layer__upsample_8h.html" target="_top" xlink:title="An implementation of a 2D upsampling layer.">
<polygon fill="none" stroke="black" points="119.5,-168.5 119.5,-187.5 244.5,-187.5 244.5,-168.5 119.5,-168.5"/>
<text text-anchor="middle" x="182" y="-175.5" font-family="Helvetica,sans-Serif" font-size="10.00">neural_layer_upsample.h</text>
</a>
</g>
</g>
<!-- Node1&#45;&gt;Node2 -->
<g id="edge1" class="edge">
<title>Node1&#45;&gt;Node2</title>
<path fill="none" stroke="midnightblue" d="M267.61,-224.32C251.33,-215.7 226.13,-202.36 207.28,-192.39"/>
<polygon fill="midnightblue" stroke="midnightblue" points="208.82,-189.24 198.35,-187.65 205.55,-195.43 208.82,-189.24"/>
</g>
<!-- Node11 -->
<g id="node11" class="node">
<title>Node11</title>
<g id="a_node11"><a xlink:href="neural__activations_8h.html" target="_top" xlink:title="Neural network activation functions.">
<polygon fill="none" stroke="black" points="324,-168.5 324,-187.5 428,-187.5 428,-168.5 324,-168.5"/>
<text text-anchor="middle" x="376" y="-175.5" font-family="Helvetica,sans-Serif" font-size="10.00">neural_activations.h</text>
</a>
</g>
</g>
<!-- Node1&#45;&gt;Node11 -->
<g id="edge10" class="edge">
<title>Node1&#45;&gt;Node11</title>
<path fill="none" stroke="midnightblue" d="M298.78,-224.32C313.27,-215.82 335.57,-202.73 352.49,-192.8"/>
<polygon fill="midnightblue" stroke="midnightblue" points="354.4,-195.74 361.26,-187.65 350.86,-189.7 354.4,-195.74"/>
</g>
<!-- Node13 -->
<g id="node13" class="node">
<title>Node13</title>
<g id="a_node13"><a xlink:href="utils_8h.html" target="_top" xlink:title="Utility functions for random number handling, etc.">
<polygon fill="none" stroke="black" points="262.5,-168.5 262.5,-187.5 305.5,-187.5 305.5,-168.5 262.5,-168.5"/>
<text text-anchor="middle" x="284" y="-175.5" font-family="Helvetica,sans-Serif" font-size="10.00">utils.h</text>
</a>
</g>
</g>
<!-- Node1&#45;&gt;Node13 -->
<g id="edge12" class="edge">
<title>Node1&#45;&gt;Node13</title>
<path fill="none" stroke="midnightblue" d="M284,-224.08C284,-217.01 284,-206.86 284,-197.99"/>
<polygon fill="midnightblue" stroke="midnightblue" points="287.5,-197.75 284,-187.75 280.5,-197.75 287.5,-197.75"/>
</g>
<!-- Node3 -->
<g id="node3" class="node">
<title>Node3</title>
<g id="a_node3"><a xlink:href="neural__layer_8h.html" target="_top" xlink:title="Interface for neural network layers.">
<polygon fill="none" stroke="black" points="143.5,-112.5 143.5,-131.5 220.5,-131.5 220.5,-112.5 143.5,-112.5"/>
<text text-anchor="middle" x="182" y="-119.5" font-family="Helvetica,sans-Serif" font-size="10.00">neural_layer.h</text>
</a>
</g>
</g>
<!-- Node2&#45;&gt;Node3 -->
<g id="edge2" class="edge">
<title>Node2&#45;&gt;Node3</title>
<path fill="none" stroke="midnightblue" d="M182,-168.08C182,-161.01 182,-150.86 182,-141.99"/>
<polygon fill="midnightblue" stroke="midnightblue" points="185.5,-141.75 182,-131.75 178.5,-141.75 185.5,-141.75"/>
</g>
<!-- Node4 -->
<g id="node4" class="node">
<title>Node4</title>
<g id="a_node4"><a xlink:href="neural_8h.html" target="_top" xlink:title="An implementation of a multi&#45;layer perceptron neural network.">
<polygon fill="none" stroke="black" points="73.5,-56.5 73.5,-75.5 124.5,-75.5 124.5,-56.5 73.5,-56.5"/>
<text text-anchor="middle" x="99" y="-63.5" font-family="Helvetica,sans-Serif" font-size="10.00">neural.h</text>
</a>
</g>
</g>
<!-- Node3&#45;&gt;Node4 -->
<g id="edge3" class="edge">
<title>Node3&#45;&gt;Node4</title>
<path fill="none" stroke="midnightblue" d="M168.66,-112.32C155.84,-103.98 136.22,-91.21 121.06,-81.35"/>
<polygon fill="midnightblue" stroke="midnightblue" points="122.59,-78.17 112.3,-75.65 118.78,-84.04 122.59,-78.17"/>
</g>
<!-- Node10 -->
<g id="node10" class="node">
<title>Node10</title>
<g id="a_node10"><a xlink:href="neural__layer__args_8h.html" target="_top" xlink:title="Functions operating on neural network arguments/constants.">
<polygon fill="none" stroke="black" points="142.5,-56.5 142.5,-75.5 243.5,-75.5 243.5,-56.5 142.5,-56.5"/>
<text text-anchor="middle" x="193" y="-63.5" font-family="Helvetica,sans-Serif" font-size="10.00">neural_layer_args.h</text>
</a>
</g>
</g>
<!-- Node3&#45;&gt;Node10 -->
<g id="edge9" class="edge">
<title>Node3&#45;&gt;Node10</title>
<path fill="none" stroke="midnightblue" d="M183.82,-112.08C185.27,-104.93 187.37,-94.64 189.19,-85.69"/>
<polygon fill="midnightblue" stroke="midnightblue" points="192.65,-86.25 191.22,-75.75 185.79,-84.85 192.65,-86.25"/>
</g>
<!-- Node5 -->
<g id="node5" class="node">
<title>Node5</title>
<g id="a_node5"><a xlink:title=" ">
<polygon fill="none" stroke="#bfbfbf" points="0,-0.5 0,-19.5 56,-19.5 56,-0.5 0,-0.5"/>
<text text-anchor="middle" x="28" y="-7.5" font-family="Helvetica,sans-Serif" font-size="10.00">stdbool.h</text>
</a>
</g>
</g>
<!-- Node4&#45;&gt;Node5 -->
<g id="edge4" class="edge">
<title>Node4&#45;&gt;Node5</title>
<path fill="none" stroke="midnightblue" d="M87.59,-56.32C76.89,-48.18 60.66,-35.84 47.84,-26.09"/>
<polygon fill="midnightblue" stroke="midnightblue" points="49.69,-23.1 39.61,-19.83 45.46,-28.67 49.69,-23.1"/>
</g>
<!-- Node6 -->
<g id="node6" class="node">
<title>Node6</title>
<g id="a_node6"><a xlink:title=" ">
<polygon fill="none" stroke="#bfbfbf" points="74.5,-0.5 74.5,-19.5 123.5,-19.5 123.5,-0.5 74.5,-0.5"/>
<text text-anchor="middle" x="99" y="-7.5" font-family="Helvetica,sans-Serif" font-size="10.00">stdint.h</text>
</a>
</g>
</g>
<!-- Node4&#45;&gt;Node6 -->
<g id="edge5" class="edge">
<title>Node4&#45;&gt;Node6</title>
<path fill="none" stroke="midnightblue" d="M99,-56.08C99,-49.01 99,-38.86 99,-29.99"/>
<polygon fill="midnightblue" stroke="midnightblue" points="102.5,-29.75 99,-19.75 95.5,-29.75 102.5,-29.75"/>
</g>
<!-- Node7 -->
<g id="node7" class="node">
<title>Node7</title>
<g id="a_node7"><a xlink:title=" ">
<polygon fill="none" stroke="#bfbfbf" points="213,-0.5 213,-19.5 259,-19.5 259,-0.5 213,-0.5"/>
<text text-anchor="middle" x="236" y="-7.5" font-family="Helvetica,sans-Serif" font-size="10.00">stdio.h</text>
</a>
</g>
</g>
<!-- Node4&#45;&gt;Node7 -->
<g id="edge6" class="edge">
<title>Node4&#45;&gt;Node7</title>
<path fill="none" stroke="midnightblue" d="M120.71,-56.44C143.35,-47.52 179.07,-33.44 204.75,-23.32"/>
<polygon fill="midnightblue" stroke="midnightblue" points="206.37,-26.44 214.39,-19.52 203.81,-19.93 206.37,-26.44"/>
</g>
<!-- Node8 -->
<g id="node8" class="node">
<title>Node8</title>
<g id="a_node8"><a xlink:title=" ">
<polygon fill="none" stroke="#bfbfbf" points="283,-0.5 283,-19.5 331,-19.5 331,-0.5 283,-0.5"/>
<text text-anchor="middle" x="307" y="-7.5" font-family="Helvetica,sans-Serif" font-size="10.00">stdlib.h</text>
</a>
</g>
</g>
<!-- Node4&#45;&gt;Node8 -->
<g id="edge7" class="edge">
<title>Node4&#45;&gt;Node8</title>
<path fill="none" stroke="midnightblue" d="M124.62,-58.2C127.44,-57.46 130.28,-56.71 133,-56 181.63,-43.28 237.96,-28.75 273.04,-19.72"/>
<polygon fill="midnightblue" stroke="midnightblue" points="273.97,-23.1 282.78,-17.22 272.22,-16.32 273.97,-23.1"/>
</g>
<!-- Node9 -->
<g id="node9" class="node">
<title>Node9</title>
<g id="a_node9"><a xlink:title=" ">
<polygon fill="none" stroke="#bfbfbf" points="141.5,-0.5 141.5,-19.5 190.5,-19.5 190.5,-0.5 141.5,-0.5"/>
<text text-anchor="middle" x="166" y="-7.5" font-family="Helvetica,sans-Serif" font-size="10.00">string.h</text>
</a>
</g>
</g>
<!-- Node4&#45;&gt;Node9 -->
<g id="edge8" class="edge">
<title>Node4&#45;&gt;Node9</title>
<path fill="none" stroke="midnightblue" d="M109.76,-56.32C119.77,-48.26 134.89,-36.08 146.93,-26.37"/>
<polygon fill="midnightblue" stroke="midnightblue" points="149.45,-28.83 155.04,-19.83 145.06,-23.38 149.45,-28.83"/>
</g>
<!-- Node12 -->
<g id="node12" class="node">
<title>Node12</title>
<g id="a_node12"><a xlink:title=" ">
<polygon fill="none" stroke="#bfbfbf" points="345.5,-112.5 345.5,-131.5 392.5,-131.5 392.5,-112.5 345.5,-112.5"/>
<text text-anchor="middle" x="369" y="-119.5" font-family="Helvetica,sans-Serif" font-size="10.00">math.h</text>
</a>
</g>
</g>
<!-- Node11&#45;&gt;Node12 -->
<g id="edge11" class="edge">
<title>Node11&#45;&gt;Node12</title>
<path fill="none" stroke="midnightblue" d="M374.84,-168.08C373.92,-160.93 372.58,-150.64 371.42,-141.69"/>
<polygon fill="midnightblue" stroke="midnightblue" points="374.89,-141.22 370.13,-131.75 367.95,-142.12 374.89,-141.22"/>
</g>
<!-- Node13&#45;&gt;Node7 -->
<g id="edge14" class="edge">
<title>Node13&#45;&gt;Node7</title>
<path fill="none" stroke="midnightblue" d="M281.99,-168.42C277.27,-148.52 264.91,-97.72 252,-56 249.24,-47.08 245.81,-37.29 242.84,-29.14"/>
<polygon fill="midnightblue" stroke="midnightblue" points="246.04,-27.71 239.28,-19.56 239.48,-30.15 246.04,-27.71"/>
</g>
<!-- Node13&#45;&gt;Node8 -->
<g id="edge15" class="edge">
<title>Node13&#45;&gt;Node8</title>
<path fill="none" stroke="midnightblue" d="M285.24,-168.08C288.86,-141.95 299.49,-65.21 304.43,-29.58"/>
<polygon fill="midnightblue" stroke="midnightblue" points="307.91,-29.95 305.81,-19.57 300.97,-28.99 307.91,-29.95"/>
</g>
<!-- Node13&#45;&gt;Node12 -->
<g id="edge13" class="edge">
<title>Node13&#45;&gt;Node12</title>
<path fill="none" stroke="midnightblue" d="M297.66,-168.32C310.92,-159.9 331.27,-146.97 346.85,-137.07"/>
<polygon fill="midnightblue" stroke="midnightblue" points="348.81,-139.97 355.38,-131.65 345.06,-134.06 348.81,-139.97"/>
</g>
</g>
</svg>
