<?xml version="1.0" encoding="UTF-8" standalone="no"?>
<!DOCTYPE svg PUBLIC "-//W3C//DTD SVG 1.1//EN"
 "http://www.w3.org/Graphics/SVG/1.1/DTD/svg11.dtd">
<!-- Generated by graphviz version 2.43.0 (0)
 -->
<!-- Title: neural_layer_lstm_init Pages: 1 -->
<svg width="510pt" height="323pt"
 viewBox="0.00 0.00 510.00 323.00" xmlns="http://www.w3.org/2000/svg" xmlns:xlink="http://www.w3.org/1999/xlink">
<g id="graph0" class="graph" transform="scale(1 1) rotate(0) translate(4 319)">
<title>neural_layer_lstm_init</title>
<!-- Node1 -->
<g id="Node000001" class="node">
<title>Node1</title>
<g id="a_Node000001"><a xlink:title="Initialises a long short&#45;term memory layer.">
<polygon fill="#999999" stroke="#666666" points="111,-167 0,-167 0,-148 111,-148 111,-167"/>
<text text-anchor="middle" x="55.5" y="-155" font-family="Helvetica,sans-Serif" font-size="10.00">neural_layer_lstm_init</text>
</a>
</g>
</g>
<!-- Node2 -->
<g id="Node000002" class="node">
<title>Node2</title>
<g id="a_Node000002"><a xlink:href="neural__layer__args_8c.html#afbc76691bfb760e903155e0e41ae97bd" target="_top" xlink:title="Creates and returns a copy of specified layer parameters.">
<polygon fill="white" stroke="#666666" points="244,-315 156,-315 156,-296 244,-296 244,-315"/>
<text text-anchor="middle" x="200" y="-303" font-family="Helvetica,sans-Serif" font-size="10.00">layer_args_copy</text>
</a>
</g>
</g>
<!-- Node1&#45;&gt;Node2 -->
<g id="edge1_Node000001_Node000002" class="edge">
<title>Node1&#45;&gt;Node2</title>
<g id="a_edge1_Node000001_Node000002"><a xlink:title=" ">
<path fill="none" stroke="#63b8ff" d="M60.65,-167.22C71.36,-191.19 102.27,-253.64 147,-287.5 148.83,-288.88 150.77,-290.16 152.78,-291.35"/>
<polygon fill="#63b8ff" stroke="#63b8ff" points="151.49,-294.62 162,-295.97 154.63,-288.36 151.49,-294.62"/>
</a>
</g>
</g>
<!-- Node3 -->
<g id="Node000003" class="node">
<title>Node3</title>
<g id="a_Node000003"><a xlink:href="neural__layer__args_8c.html#a4440b3fcacfd709042ae050958d757d6" target="_top" xlink:title="Returns a bitstring representing the permissions granted by a layer.">
<polygon fill="white" stroke="#666666" points="240,-278 160,-278 160,-259 240,-259 240,-278"/>
<text text-anchor="middle" x="200" y="-266" font-family="Helvetica,sans-Serif" font-size="10.00">layer_args_opt</text>
</a>
</g>
</g>
<!-- Node1&#45;&gt;Node3 -->
<g id="edge2_Node000001_Node000003" class="edge">
<title>Node1&#45;&gt;Node3</title>
<g id="a_edge2_Node000001_Node000003"><a xlink:title=" ">
<path fill="none" stroke="#63b8ff" d="M63.36,-167.1C77.16,-185.74 110.11,-227.06 147,-250.5 149.46,-252.06 152.07,-253.51 154.75,-254.84"/>
<polygon fill="#63b8ff" stroke="#63b8ff" points="153.54,-258.13 164.11,-258.95 156.36,-251.72 153.54,-258.13"/>
</a>
</g>
</g>
<!-- Node4 -->
<g id="Node000004" class="node">
<title>Node4</title>
<g id="a_Node000004"><a xlink:href="neural__layer_8h.html#aa969a46ce36513e683114c704f78a0b5" target="_top" xlink:title="Creates and initialises a new layer.">
<polygon fill="white" stroke="#666666" points="228,-241 172,-241 172,-222 228,-222 228,-241"/>
<text text-anchor="middle" x="200" y="-229" font-family="Helvetica,sans-Serif" font-size="10.00">layer_init</text>
</a>
</g>
</g>
<!-- Node1&#45;&gt;Node4 -->
<g id="edge3_Node000001_Node000004" class="edge">
<title>Node1&#45;&gt;Node4</title>
<g id="a_edge3_Node000001_Node000004"><a xlink:title=" ">
<path fill="none" stroke="#63b8ff" d="M69.77,-167.02C86.95,-179.03 118.13,-199.78 147,-213.5 151.78,-215.77 156.94,-217.91 162.07,-219.85"/>
<polygon fill="#63b8ff" stroke="#63b8ff" points="161.23,-223.27 171.83,-223.36 163.6,-216.68 161.23,-223.27"/>
</a>
</g>
</g>
<!-- Node7 -->
<g id="Node000007" class="node">
<title>Node7</title>
<g id="a_Node000007"><a xlink:href="neural__layer__lstm_8c.html#a6e3344e46eea0817b14f3568ef81ff97" target="_top" xlink:title="Allocate memory used by an LSTM layer.">
<polygon fill="white" stroke="#666666" points="252,-204 148,-204 148,-185 252,-185 252,-204"/>
<text text-anchor="middle" x="200" y="-192" font-family="Helvetica,sans-Serif" font-size="10.00">malloc_layer_arrays</text>
</a>
</g>
</g>
<!-- Node1&#45;&gt;Node7 -->
<g id="edge6_Node000001_Node000007" class="edge">
<title>Node1&#45;&gt;Node7</title>
<g id="a_edge6_Node000001_Node000007"><a xlink:title=" ">
<path fill="none" stroke="#63b8ff" d="M93.2,-167.03C111.17,-171.7 133.02,-177.37 152.19,-182.35"/>
<polygon fill="#63b8ff" stroke="#63b8ff" points="151.37,-185.75 161.93,-184.88 153.13,-178.97 151.37,-185.75"/>
</a>
</g>
</g>
<!-- Node10 -->
<g id="Node000010" class="node">
<title>Node10</title>
<g id="a_Node000010"><a xlink:href="sam_8c.html#a7f7f30716900f06683a74486aca5f5a0" target="_top" xlink:title="Initialises self&#45;adaptive mutation rates.">
<polygon fill="white" stroke="#666666" points="226.5,-167 173.5,-167 173.5,-148 226.5,-148 226.5,-167"/>
<text text-anchor="middle" x="200" y="-155" font-family="Helvetica,sans-Serif" font-size="10.00">sam_init</text>
</a>
</g>
</g>
<!-- Node1&#45;&gt;Node10 -->
<g id="edge9_Node000001_Node000010" class="edge">
<title>Node1&#45;&gt;Node10</title>
<g id="a_edge9_Node000001_Node000010"><a xlink:title=" ">
<path fill="none" stroke="#63b8ff" d="M111.19,-157.5C128.53,-157.5 147.26,-157.5 162.95,-157.5"/>
<polygon fill="#63b8ff" stroke="#63b8ff" points="163.28,-161 173.28,-157.5 163.28,-154 163.28,-161"/>
</a>
</g>
</g>
<!-- Node13 -->
<g id="Node000013" class="node">
<title>Node13</title>
<g id="a_Node000013"><a xlink:href="neural__layer__lstm_8c.html#af20f0144500b2e2b3e1301c2a9282ea7" target="_top" xlink:title="Sets the gradient descent rate used to update an LSTM layer.">
<polygon fill="white" stroke="#666666" points="224.5,-130 175.5,-130 175.5,-111 224.5,-111 224.5,-130"/>
<text text-anchor="middle" x="200" y="-118" font-family="Helvetica,sans-Serif" font-size="10.00">set_eta</text>
</a>
</g>
</g>
<!-- Node1&#45;&gt;Node13 -->
<g id="edge13_Node000001_Node000013" class="edge">
<title>Node1&#45;&gt;Node13</title>
<g id="a_edge13_Node000001_Node000013"><a xlink:title=" ">
<path fill="none" stroke="#63b8ff" d="M93.2,-147.97C115.55,-142.17 143.89,-134.81 165.61,-129.17"/>
<polygon fill="#63b8ff" stroke="#63b8ff" points="166.59,-132.53 175.39,-126.63 164.83,-125.76 166.59,-132.53"/>
</a>
</g>
</g>
<!-- Node14 -->
<g id="Node000014" class="node">
<title>Node14</title>
<g id="a_Node000014"><a xlink:href="neural__layer__lstm_8c.html#a9cf6a4d407837c532b89f9f457072203" target="_top" xlink:title="Sets the number of active (non&#45;zero) weights in an LSTM layer.">
<polygon fill="white" stroke="#666666" points="249,-93 151,-93 151,-74 249,-74 249,-93"/>
<text text-anchor="middle" x="200" y="-81" font-family="Helvetica,sans-Serif" font-size="10.00">set_layer_n_active</text>
</a>
</g>
</g>
<!-- Node1&#45;&gt;Node14 -->
<g id="edge14_Node000001_Node000014" class="edge">
<title>Node1&#45;&gt;Node14</title>
<g id="a_edge14_Node000001_Node000014"><a xlink:title=" ">
<path fill="none" stroke="#63b8ff" d="M69.77,-147.98C86.95,-135.97 118.13,-115.22 147,-101.5 150.59,-99.8 154.38,-98.17 158.22,-96.64"/>
<polygon fill="#63b8ff" stroke="#63b8ff" points="159.62,-99.85 167.75,-93.06 157.16,-93.3 159.62,-99.85"/>
</a>
</g>
</g>
<!-- Node15 -->
<g id="Node000015" class="node">
<title>Node15</title>
<g id="a_Node000015"><a xlink:href="neural__layer__lstm_8c.html#ab67b6e38da6db94e4735740f8521d5b1" target="_top" xlink:title="Sets the total number of biases in an LSTM layer.">
<polygon fill="white" stroke="#666666" points="250.5,-56 149.5,-56 149.5,-37 250.5,-37 250.5,-56"/>
<text text-anchor="middle" x="200" y="-44" font-family="Helvetica,sans-Serif" font-size="10.00">set_layer_n_biases</text>
</a>
</g>
</g>
<!-- Node1&#45;&gt;Node15 -->
<g id="edge15_Node000001_Node000015" class="edge">
<title>Node1&#45;&gt;Node15</title>
<g id="a_edge15_Node000001_Node000015"><a xlink:title=" ">
<path fill="none" stroke="#63b8ff" d="M63.36,-147.9C77.16,-129.26 110.11,-87.94 147,-64.5 149.46,-62.94 152.07,-61.49 154.75,-60.16"/>
<polygon fill="#63b8ff" stroke="#63b8ff" points="156.36,-63.28 164.11,-56.05 153.54,-56.87 156.36,-63.28"/>
</a>
</g>
</g>
<!-- Node16 -->
<g id="Node000016" class="node">
<title>Node16</title>
<g id="a_Node000016"><a xlink:href="neural__layer__lstm_8c.html#a75386a5e5f7e81bf322e68e2c87ad374" target="_top" xlink:title="Sets the total number of weights in an LSTM layer.">
<polygon fill="white" stroke="#666666" points="253,-19 147,-19 147,0 253,0 253,-19"/>
<text text-anchor="middle" x="200" y="-7" font-family="Helvetica,sans-Serif" font-size="10.00">set_layer_n_weights</text>
</a>
</g>
</g>
<!-- Node1&#45;&gt;Node16 -->
<g id="edge16_Node000001_Node000016" class="edge">
<title>Node1&#45;&gt;Node16</title>
<g id="a_edge16_Node000001_Node000016"><a xlink:title=" ">
<path fill="none" stroke="#63b8ff" d="M60.65,-147.78C71.36,-123.81 102.27,-61.36 147,-27.5 148.83,-26.12 150.77,-24.84 152.78,-23.65"/>
<polygon fill="#63b8ff" stroke="#63b8ff" points="154.63,-26.64 162,-19.03 151.49,-20.38 154.63,-26.64"/>
</a>
</g>
</g>
<!-- Node5 -->
<g id="Node000005" class="node">
<title>Node5</title>
<g id="a_Node000005"><a xlink:href="neural__layer_8c.html#a21a8acbaa483c46984c4f5f20d4edf95" target="_top" xlink:title="Initialises a layer to default values.">
<polygon fill="white" stroke="#666666" points="379.5,-278 302.5,-278 302.5,-259 379.5,-259 379.5,-278"/>
<text text-anchor="middle" x="341" y="-266" font-family="Helvetica,sans-Serif" font-size="10.00">layer_defaults</text>
</a>
</g>
</g>
<!-- Node4&#45;&gt;Node5 -->
<g id="edge4_Node000004_Node000005" class="edge">
<title>Node4&#45;&gt;Node5</title>
<g id="a_edge4_Node000004_Node000005"><a xlink:title=" ">
<path fill="none" stroke="#63b8ff" d="M228.13,-238.72C246.97,-243.74 272.53,-250.54 294.46,-256.38"/>
<polygon fill="#63b8ff" stroke="#63b8ff" points="293.68,-259.79 304.25,-258.98 295.48,-253.03 293.68,-259.79"/>
</a>
</g>
</g>
<!-- Node6 -->
<g id="Node000006" class="node">
<title>Node6</title>
<g id="a_Node000006"><a xlink:href="neural__layer_8c.html#a786726dce503a14b3bdd88b1ab5c356f" target="_top" xlink:title="Sets a neural network layer&#39;s functions to the implementations.">
<polygon fill="white" stroke="#666666" points="380,-241 302,-241 302,-222 380,-222 380,-241"/>
<text text-anchor="middle" x="341" y="-229" font-family="Helvetica,sans-Serif" font-size="10.00">layer_set_vptr</text>
</a>
</g>
</g>
<!-- Node4&#45;&gt;Node6 -->
<g id="edge5_Node000004_Node000006" class="edge">
<title>Node4&#45;&gt;Node6</title>
<g id="a_edge5_Node000004_Node000006"><a xlink:title=" ">
<path fill="none" stroke="#63b8ff" d="M228.13,-231.5C246.19,-231.5 270.42,-231.5 291.72,-231.5"/>
<polygon fill="#63b8ff" stroke="#63b8ff" points="291.9,-235 301.9,-231.5 291.9,-228 291.9,-235"/>
</a>
</g>
</g>
<!-- Node8 -->
<g id="Node000008" class="node">
<title>Node8</title>
<g id="a_Node000008"><a xlink:href="neural__layer_8c.html#a99157f8bba089b8f6d617020cdc45d7b" target="_top" xlink:title="Check number of outputs is within bounds.">
<polygon fill="white" stroke="#666666" points="393,-204 289,-204 289,-185 393,-185 393,-204"/>
<text text-anchor="middle" x="341" y="-192" font-family="Helvetica,sans-Serif" font-size="10.00">layer_guard_outputs</text>
</a>
</g>
</g>
<!-- Node7&#45;&gt;Node8 -->
<g id="edge7_Node000007_Node000008" class="edge">
<title>Node7&#45;&gt;Node8</title>
<g id="a_edge7_Node000007_Node000008"><a xlink:title=" ">
<path fill="none" stroke="#63b8ff" d="M252.36,-194.5C260.92,-194.5 269.88,-194.5 278.66,-194.5"/>
<polygon fill="#63b8ff" stroke="#63b8ff" points="278.85,-198 288.85,-194.5 278.85,-191 278.85,-198"/>
</a>
</g>
</g>
<!-- Node9 -->
<g id="Node000009" class="node">
<title>Node9</title>
<g id="a_Node000009"><a xlink:href="neural__layer_8h.html#af3da4af94dd537080a072c07c66d955d" target="_top" xlink:title="Prints the layer.">
<polygon fill="white" stroke="#666666" points="496.5,-204 434.5,-204 434.5,-185 496.5,-185 496.5,-204"/>
<text text-anchor="middle" x="465.5" y="-192" font-family="Helvetica,sans-Serif" font-size="10.00">layer_print</text>
</a>
</g>
</g>
<!-- Node8&#45;&gt;Node9 -->
<g id="edge8_Node000008_Node000009" class="edge">
<title>Node8&#45;&gt;Node9</title>
<g id="a_edge8_Node000008_Node000009"><a xlink:title=" ">
<path fill="none" stroke="#63b8ff" d="M393.24,-194.5C403.65,-194.5 414.46,-194.5 424.42,-194.5"/>
<polygon fill="#63b8ff" stroke="#63b8ff" points="424.44,-198 434.44,-194.5 424.44,-191 424.44,-198"/>
</a>
</g>
</g>
<!-- Node11 -->
<g id="Node000011" class="node">
<title>Node11</title>
<g id="a_Node000011"><a xlink:href="utils_8c.html#a972761ba8f47a6c3e7396a7c685158fc" target="_top" xlink:title="Returns a uniform random float [min,max].">
<polygon fill="white" stroke="#666666" points="502,-147 429,-147 429,-128 502,-128 502,-147"/>
<text text-anchor="middle" x="465.5" y="-135" font-family="Helvetica,sans-Serif" font-size="10.00">rand_uniform</text>
</a>
</g>
</g>
<!-- Node10&#45;&gt;Node11 -->
<g id="edge10_Node000010_Node000011" class="edge">
<title>Node10&#45;&gt;Node11</title>
<g id="a_edge10_Node000010_Node000011"><a xlink:title=" ">
<path fill="none" stroke="#63b8ff" d="M226.75,-155.55C271.15,-152.18 362.72,-145.23 418.36,-141"/>
<polygon fill="#63b8ff" stroke="#63b8ff" points="418.94,-144.47 428.65,-140.22 418.41,-137.49 418.94,-144.47"/>
</a>
</g>
</g>
<!-- Node12 -->
<g id="Node000012" class="node">
<title>Node12</title>
<g id="a_Node000012"><a xlink:href="utils_8c.html#a5e6304fd9b177f36684d4bb00af49f91" target="_top" xlink:title="Returns a uniform random integer [min,max] not inclusive of max.">
<polygon fill="white" stroke="#666666" points="385.5,-128 296.5,-128 296.5,-109 385.5,-109 385.5,-128"/>
<text text-anchor="middle" x="341" y="-116" font-family="Helvetica,sans-Serif" font-size="10.00">rand_uniform_int</text>
</a>
</g>
</g>
<!-- Node10&#45;&gt;Node12 -->
<g id="edge11_Node000010_Node000012" class="edge">
<title>Node10&#45;&gt;Node12</title>
<g id="a_edge11_Node000010_Node000012"><a xlink:title=" ">
<path fill="none" stroke="#63b8ff" d="M226.82,-150.26C246.24,-144.81 273.32,-137.21 296.12,-130.81"/>
<polygon fill="#63b8ff" stroke="#63b8ff" points="297.24,-134.13 305.92,-128.06 295.35,-127.39 297.24,-134.13"/>
</a>
</g>
</g>
<!-- Node12&#45;&gt;Node11 -->
<g id="edge12_Node000012_Node000011" class="edge">
<title>Node12&#45;&gt;Node11</title>
<g id="a_edge12_Node000012_Node000011"><a xlink:title=" ">
<path fill="none" stroke="#63b8ff" d="M385.53,-125.25C396.27,-126.92 407.8,-128.71 418.64,-130.39"/>
<polygon fill="#63b8ff" stroke="#63b8ff" points="418.36,-133.89 428.78,-131.96 419.43,-126.97 418.36,-133.89"/>
</a>
</g>
</g>
</g>
</svg>
