<?xml version="1.0" encoding="UTF-8" standalone="no"?>
<!DOCTYPE svg PUBLIC "-//W3C//DTD SVG 1.1//EN"
 "http://www.w3.org/Graphics/SVG/1.1/DTD/svg11.dtd">
<!-- Generated by graphviz version 2.43.0 (0)
 -->
<!-- Title: neural_layer_connected_print Pages: 1 -->
<svg width="282pt" height="66pt"
 viewBox="0.00 0.00 282.00 66.00" xmlns="http://www.w3.org/2000/svg" xmlns:xlink="http://www.w3.org/1999/xlink">
<g id="graph0" class="graph" transform="scale(1 1) rotate(0) translate(4 62)">
<title>neural_layer_connected_print</title>
<!-- Node1 -->
<g id="node1" class="node">
<title>Node1</title>
<g id="a_node1"><a xlink:title="Prints a connected layer.">
<polygon fill="#bfbfbf" stroke="black" points="0,-14 0,-44 119,-44 119,-14 0,-14"/>
<text text-anchor="start" x="8" y="-32" font-family="Helvetica,sans-Serif" font-size="10.00">neural_layer_connected</text>
<text text-anchor="middle" x="59.5" y="-21" font-family="Helvetica,sans-Serif" font-size="10.00">_print</text>
</a>
</g>
</g>
<!-- Node2 -->
<g id="node2" class="node">
<title>Node2</title>
<g id="a_node2"><a xlink:href="neural__layer_8c.html#a94a6a01b9870d1556ee15679b26f5774" target="_top" xlink:title="Prints a layer&#39;s weights and biases.">
<polygon fill="none" stroke="black" points="167,-38.5 167,-57.5 262,-57.5 262,-38.5 167,-38.5"/>
<text text-anchor="middle" x="214.5" y="-45.5" font-family="Helvetica,sans-Serif" font-size="10.00">layer_weight_print</text>
</a>
</g>
</g>
<!-- Node1&#45;&gt;Node2 -->
<g id="edge1" class="edge">
<title>Node1&#45;&gt;Node2</title>
<path fill="none" stroke="midnightblue" d="M119.22,-36.29C131.46,-37.81 144.35,-39.41 156.53,-40.93"/>
<polygon fill="midnightblue" stroke="midnightblue" points="156.21,-44.41 166.57,-42.17 157.08,-37.47 156.21,-44.41"/>
</g>
<!-- Node3 -->
<g id="node3" class="node">
<title>Node3</title>
<g id="a_node3"><a xlink:href="neural__activations_8c.html#a429f5b4427682cb174e3d4d56f181a22" target="_top" xlink:title="Returns the name of a specified activation function.">
<polygon fill="none" stroke="black" points="155,-0.5 155,-19.5 274,-19.5 274,-0.5 155,-0.5"/>
<text text-anchor="middle" x="214.5" y="-7.5" font-family="Helvetica,sans-Serif" font-size="10.00">neural_activation_string</text>
</a>
</g>
</g>
<!-- Node1&#45;&gt;Node3 -->
<g id="edge2" class="edge">
<title>Node1&#45;&gt;Node3</title>
<path fill="none" stroke="midnightblue" d="M119.22,-21.71C127.64,-20.66 136.36,-19.58 144.95,-18.51"/>
<polygon fill="midnightblue" stroke="midnightblue" points="145.45,-21.98 154.94,-17.27 144.59,-15.03 145.45,-21.98"/>
</g>
</g>
</svg>
