<?xml version="1.0" encoding="UTF-8" standalone="no"?>
<!DOCTYPE svg PUBLIC "-//W3C//DTD SVG 1.1//EN"
 "http://www.w3.org/Graphics/SVG/1.1/DTD/svg11.dtd">
<!-- Generated by graphviz version 2.43.0 (0)
 -->
<!-- Title: layer_mutate_functions Pages: 1 -->
<svg width="360pt" height="46pt"
 viewBox="0.00 0.00 360.00 46.00" xmlns="http://www.w3.org/2000/svg" xmlns:xlink="http://www.w3.org/1999/xlink">
<g id="graph0" class="graph" transform="scale(1 1) rotate(0) translate(4 42)">
<title>layer_mutate_functions</title>
<!-- Node1 -->
<g id="Node000001" class="node">
<title>Node1</title>
<g id="a_Node000001"><a xlink:title="Mutates a layer&#39;s activation function by random selection.">
<polygon fill="#999999" stroke="#666666" points="118,-38 0,-38 0,-19 118,-19 118,-38"/>
<text text-anchor="middle" x="59" y="-26" font-family="Helvetica,sans-Serif" font-size="10.00">layer_mutate_functions</text>
</a>
</g>
</g>
<!-- Node2 -->
<g id="Node000002" class="node">
<title>Node2</title>
<g id="a_Node000002"><a xlink:href="utils_8c.html#a972761ba8f47a6c3e7396a7c685158fc" target="_top" xlink:title="Returns a uniform random float [min,max].">
<polygon fill="white" stroke="#666666" points="352,-38 279,-38 279,-19 352,-19 352,-38"/>
<text text-anchor="middle" x="315.5" y="-26" font-family="Helvetica,sans-Serif" font-size="10.00">rand_uniform</text>
</a>
</g>
</g>
<!-- Node1&#45;&gt;Node2 -->
<g id="edge1_Node000001_Node000002" class="edge">
<title>Node1&#45;&gt;Node2</title>
<g id="a_edge1_Node000001_Node000002"><a xlink:title=" ">
<path fill="none" stroke="#63b8ff" d="M118.07,-28.5C163.65,-28.5 226.23,-28.5 268.41,-28.5"/>
<polygon fill="#63b8ff" stroke="#63b8ff" points="268.67,-32 278.67,-28.5 268.67,-25 268.67,-32"/>
</a>
</g>
</g>
<!-- Node3 -->
<g id="Node000003" class="node">
<title>Node3</title>
<g id="a_Node000003"><a xlink:href="utils_8c.html#a5e6304fd9b177f36684d4bb00af49f91" target="_top" xlink:title="Returns a uniform random integer [min,max] not inclusive of max.">
<polygon fill="white" stroke="#666666" points="243,-19 154,-19 154,0 243,0 243,-19"/>
<text text-anchor="middle" x="198.5" y="-7" font-family="Helvetica,sans-Serif" font-size="10.00">rand_uniform_int</text>
</a>
</g>
</g>
<!-- Node1&#45;&gt;Node3 -->
<g id="edge2_Node000001_Node000003" class="edge">
<title>Node1&#45;&gt;Node3</title>
<g id="a_edge2_Node000001_Node000003"><a xlink:title=" ">
<path fill="none" stroke="#63b8ff" d="M118.31,-20.44C126.74,-19.28 135.39,-18.08 143.72,-16.93"/>
<polygon fill="#63b8ff" stroke="#63b8ff" points="144.28,-20.39 153.7,-15.55 143.32,-13.45 144.28,-20.39"/>
</a>
</g>
</g>
<!-- Node3&#45;&gt;Node2 -->
<g id="edge3_Node000003_Node000002" class="edge">
<title>Node3&#45;&gt;Node2</title>
<g id="a_edge3_Node000003_Node000002"><a xlink:title=" ">
<path fill="none" stroke="#63b8ff" d="M243.3,-16.74C251.61,-18.11 260.32,-19.55 268.68,-20.93"/>
<polygon fill="#63b8ff" stroke="#63b8ff" points="268.22,-24.4 278.66,-22.58 269.36,-17.5 268.22,-24.4"/>
</a>
</g>
</g>
</g>
</svg>
