<?xml version="1.0" encoding="UTF-8" standalone="no"?>
<!DOCTYPE svg PUBLIC "-//W3C//DTD SVG 1.1//EN"
 "http://www.w3.org/Graphics/SVG/1.1/DTD/svg11.dtd">
<!-- Generated by graphviz version 2.43.0 (0)
 -->
<!-- Title: realloc_layer_arrays Pages: 1 -->
<svg width="494pt" height="129pt"
 viewBox="0.00 0.00 494.00 129.00" xmlns="http://www.w3.org/2000/svg" xmlns:xlink="http://www.w3.org/1999/xlink">
<g id="graph0" class="graph" transform="scale(1 1) rotate(0) translate(4 125)">
<title>realloc_layer_arrays</title>
<!-- Node1 -->
<g id="Node000001" class="node">
<title>Node1</title>
<g id="a_Node000001"><a xlink:title="Resize memory used by a convolutional layer.">
<polygon fill="#999999" stroke="#666666" points="104,-92 0,-92 0,-73 104,-73 104,-92"/>
<text text-anchor="middle" x="52" y="-80" font-family="Helvetica,sans-Serif" font-size="10.00">realloc_layer_arrays</text>
</a>
</g>
</g>
<!-- Node2 -->
<g id="Node000002" class="node">
<title>Node2</title>
<g id="a_Node000002"><a xlink:href="neural__layer__convolutional_8c.html#a9613e3f3c10a68cc7b9d5e8f084b137c" target="_top" xlink:title="Returns the memory workspace size for a convolutional layer.">
<polygon fill="white" stroke="#666666" points="246,-121 140,-121 140,-102 246,-102 246,-121"/>
<text text-anchor="middle" x="193" y="-109" font-family="Helvetica,sans-Serif" font-size="10.00">get_workspace_size</text>
</a>
</g>
</g>
<!-- Node1&#45;&gt;Node2 -->
<g id="edge1_Node000001_Node000002" class="edge">
<title>Node1&#45;&gt;Node2</title>
<g id="a_edge1_Node000001_Node000002"><a xlink:title=" ">
<path fill="none" stroke="#63b8ff" d="M98.9,-92.08C110.88,-94.58 123.92,-97.3 136.35,-99.89"/>
<polygon fill="#63b8ff" stroke="#63b8ff" points="135.65,-103.32 146.15,-101.93 137.07,-96.47 135.65,-103.32"/>
</a>
</g>
</g>
<!-- Node4 -->
<g id="Node000004" class="node">
<title>Node4</title>
<g id="a_Node000004"><a xlink:href="neural__layer__convolutional_8c.html#adf18759f7155da7757db6805774dbc73" target="_top" xlink:title="Check memory allocation is within bounds.">
<polygon fill="white" stroke="#666666" points="230,-74 156,-74 156,-55 230,-55 230,-74"/>
<text text-anchor="middle" x="193" y="-62" font-family="Helvetica,sans-Serif" font-size="10.00">guard_malloc</text>
</a>
</g>
</g>
<!-- Node1&#45;&gt;Node4 -->
<g id="edge3_Node000001_Node000004" class="edge">
<title>Node1&#45;&gt;Node4</title>
<g id="a_edge3_Node000001_Node000004"><a xlink:title=" ">
<path fill="none" stroke="#63b8ff" d="M104.36,-75.85C117.79,-74.11 132.18,-72.25 145.35,-70.54"/>
<polygon fill="#63b8ff" stroke="#63b8ff" points="146.13,-73.97 155.6,-69.21 145.23,-67.03 146.13,-73.97"/>
</a>
</g>
</g>
<!-- Node3 -->
<g id="Node000003" class="node">
<title>Node3</title>
<g id="a_Node000003"><a xlink:href="neural__layer_8h.html#af3da4af94dd537080a072c07c66d955d" target="_top" xlink:title="Prints the layer.">
<polygon fill="white" stroke="#666666" points="486,-74 424,-74 424,-55 486,-55 486,-74"/>
<text text-anchor="middle" x="455" y="-62" font-family="Helvetica,sans-Serif" font-size="10.00">layer_print</text>
</a>
</g>
</g>
<!-- Node2&#45;&gt;Node3 -->
<g id="edge2_Node000002_Node000003" class="edge">
<title>Node2&#45;&gt;Node3</title>
<g id="a_edge2_Node000002_Node000003"><a xlink:title=" ">
<path fill="none" stroke="#63b8ff" d="M246.15,-115.66C285.84,-117.27 341.4,-116.12 388,-102.5 404.34,-97.72 420.94,-88.14 433.4,-79.79"/>
<polygon fill="#63b8ff" stroke="#63b8ff" points="435.48,-82.61 441.68,-74.02 431.48,-76.87 435.48,-82.61"/>
</a>
</g>
</g>
<!-- Node5 -->
<g id="Node000005" class="node">
<title>Node5</title>
<g id="a_Node000005"><a xlink:href="neural__layer_8c.html#a01a12854b9685f32f76429d615e90c50" target="_top" xlink:title="Check number of biases is within bounds.">
<polygon fill="white" stroke="#666666" points="385.5,-93 284.5,-93 284.5,-74 385.5,-74 385.5,-93"/>
<text text-anchor="middle" x="335" y="-81" font-family="Helvetica,sans-Serif" font-size="10.00">layer_guard_biases</text>
</a>
</g>
</g>
<!-- Node4&#45;&gt;Node5 -->
<g id="edge4_Node000004_Node000005" class="edge">
<title>Node4&#45;&gt;Node5</title>
<g id="a_edge4_Node000004_Node000005"><a xlink:title=" ">
<path fill="none" stroke="#63b8ff" d="M230.05,-69.39C243.48,-71.22 259.11,-73.34 274.11,-75.37"/>
<polygon fill="#63b8ff" stroke="#63b8ff" points="273.97,-78.89 284.35,-76.76 274.91,-71.95 273.97,-78.89"/>
</a>
</g>
</g>
<!-- Node6 -->
<g id="Node000006" class="node">
<title>Node6</title>
<g id="a_Node000006"><a xlink:href="neural__layer_8c.html#a99157f8bba089b8f6d617020cdc45d7b" target="_top" xlink:title="Check number of outputs is within bounds.">
<polygon fill="white" stroke="#666666" points="387,-56 283,-56 283,-37 387,-37 387,-56"/>
<text text-anchor="middle" x="335" y="-44" font-family="Helvetica,sans-Serif" font-size="10.00">layer_guard_outputs</text>
</a>
</g>
</g>
<!-- Node4&#45;&gt;Node6 -->
<g id="edge6_Node000004_Node000006" class="edge">
<title>Node4&#45;&gt;Node6</title>
<g id="a_edge6_Node000004_Node000006"><a xlink:title=" ">
<path fill="none" stroke="#63b8ff" d="M230.05,-59.86C243.09,-58.19 258.19,-56.25 272.78,-54.37"/>
<polygon fill="#63b8ff" stroke="#63b8ff" points="273.29,-57.83 282.77,-53.09 272.4,-50.89 273.29,-57.83"/>
</a>
</g>
</g>
<!-- Node7 -->
<g id="Node000007" class="node">
<title>Node7</title>
<g id="a_Node000007"><a xlink:href="neural__layer_8c.html#afb8c6762568c65726b62ee12c816fb2b" target="_top" xlink:title="Check number of weights is within bounds.">
<polygon fill="white" stroke="#666666" points="388,-19 282,-19 282,0 388,0 388,-19"/>
<text text-anchor="middle" x="335" y="-7" font-family="Helvetica,sans-Serif" font-size="10.00">layer_guard_weights</text>
</a>
</g>
</g>
<!-- Node4&#45;&gt;Node7 -->
<g id="edge8_Node000004_Node000007" class="edge">
<title>Node4&#45;&gt;Node7</title>
<g id="a_edge8_Node000004_Node000007"><a xlink:title=" ">
<path fill="none" stroke="#63b8ff" d="M215.54,-54.98C233.26,-47.27 259.09,-36.27 282,-27.5 286.45,-25.8 291.14,-24.07 295.81,-22.4"/>
<polygon fill="#63b8ff" stroke="#63b8ff" points="297,-25.69 305.27,-19.07 294.68,-19.09 297,-25.69"/>
</a>
</g>
</g>
<!-- Node5&#45;&gt;Node3 -->
<g id="edge5_Node000005_Node000003" class="edge">
<title>Node5&#45;&gt;Node3</title>
<g id="a_edge5_Node000005_Node000003"><a xlink:title=" ">
<path fill="none" stroke="#63b8ff" d="M385.7,-75.5C395.13,-73.98 404.88,-72.41 413.96,-70.95"/>
<polygon fill="#63b8ff" stroke="#63b8ff" points="414.56,-74.4 423.88,-69.35 413.45,-67.48 414.56,-74.4"/>
</a>
</g>
</g>
<!-- Node6&#45;&gt;Node3 -->
<g id="edge7_Node000006_Node000003" class="edge">
<title>Node6&#45;&gt;Node3</title>
<g id="a_edge7_Node000006_Node000003"><a xlink:title=" ">
<path fill="none" stroke="#63b8ff" d="M387.07,-54.29C396.02,-55.65 405.21,-57.06 413.81,-58.37"/>
<polygon fill="#63b8ff" stroke="#63b8ff" points="413.53,-61.87 423.94,-59.91 414.58,-54.95 413.53,-61.87"/>
</a>
</g>
</g>
<!-- Node7&#45;&gt;Node3 -->
<g id="edge9_Node000007_Node000003" class="edge">
<title>Node7&#45;&gt;Node3</title>
<g id="a_edge9_Node000007_Node000003"><a xlink:title=" ">
<path fill="none" stroke="#63b8ff" d="M366.6,-19.08C373.72,-21.58 381.2,-24.45 388,-27.5 402.32,-33.93 417.66,-42.42 429.94,-49.65"/>
<polygon fill="#63b8ff" stroke="#63b8ff" points="428.29,-52.74 438.67,-54.87 431.89,-46.74 428.29,-52.74"/>
</a>
</g>
</g>
</g>
</svg>
