<?xml version="1.0" encoding="UTF-8" standalone="no"?>
<!DOCTYPE svg PUBLIC "-//W3C//DTD SVG 1.1//EN"
 "http://www.w3.org/Graphics/SVG/1.1/DTD/svg11.dtd">
<!-- Generated by graphviz version 2.43.0 (0)
 -->
<!-- Title: neural_layer_connected_rand Pages: 1 -->
<svg width="388pt" height="27pt"
 viewBox="0.00 0.00 388.00 27.00" xmlns="http://www.w3.org/2000/svg" xmlns:xlink="http://www.w3.org/1999/xlink">
<g id="graph0" class="graph" transform="scale(1 1) rotate(0) translate(4 23)">
<title>neural_layer_connected_rand</title>
<!-- Node1 -->
<g id="Node000001" class="node">
<title>Node1</title>
<g id="a_Node000001"><a xlink:title="Randomises a connected layer weights.">
<polygon fill="#999999" stroke="#666666" points="143,-19 0,-19 0,0 143,0 143,-19"/>
<text text-anchor="middle" x="71.5" y="-7" font-family="Helvetica,sans-Serif" font-size="10.00">neural_layer_connected_rand</text>
</a>
</g>
</g>
<!-- Node2 -->
<g id="Node000002" class="node">
<title>Node2</title>
<g id="a_Node000002"><a xlink:href="neural__layer_8c.html#a994d2e24681f8933e4a7e57b3930fcbc" target="_top" xlink:title="Randomises a layer&#39;s weights and biases.">
<polygon fill="white" stroke="#666666" points="274,-19 179,-19 179,0 274,0 274,-19"/>
<text text-anchor="middle" x="226.5" y="-7" font-family="Helvetica,sans-Serif" font-size="10.00">layer_weight_rand</text>
</a>
</g>
</g>
<!-- Node1&#45;&gt;Node2 -->
<g id="edge1_Node000001_Node000002" class="edge">
<title>Node1&#45;&gt;Node2</title>
<g id="a_edge1_Node000001_Node000002"><a xlink:title=" ">
<path fill="none" stroke="#63b8ff" d="M143.18,-9.5C151.66,-9.5 160.23,-9.5 168.48,-9.5"/>
<polygon fill="#63b8ff" stroke="#63b8ff" points="168.73,-13 178.73,-9.5 168.73,-6 168.73,-13"/>
</a>
</g>
</g>
<!-- Node3 -->
<g id="Node000003" class="node">
<title>Node3</title>
<g id="a_Node000003"><a xlink:href="utils_8c.html#a6a36d869b4a218a3f55cd19067f62c0f" target="_top" xlink:title="Returns a random Gaussian with specified mean and standard deviation.">
<polygon fill="white" stroke="#666666" points="380,-19 310,-19 310,0 380,0 380,-19"/>
<text text-anchor="middle" x="345" y="-7" font-family="Helvetica,sans-Serif" font-size="10.00">rand_normal</text>
</a>
</g>
</g>
<!-- Node2&#45;&gt;Node3 -->
<g id="edge2_Node000002_Node000003" class="edge">
<title>Node2&#45;&gt;Node3</title>
<g id="a_edge2_Node000002_Node000003"><a xlink:title=" ">
<path fill="none" stroke="#63b8ff" d="M274.21,-9.5C282.58,-9.5 291.28,-9.5 299.58,-9.5"/>
<polygon fill="#63b8ff" stroke="#63b8ff" points="299.83,-13 309.83,-9.5 299.83,-6 299.83,-13"/>
</a>
</g>
</g>
</g>
</svg>
