<?xml version="1.0" encoding="UTF-8" standalone="no"?>
<!DOCTYPE svg PUBLIC "-//W3C//DTD SVG 1.1//EN"
 "http://www.w3.org/Graphics/SVG/1.1/DTD/svg11.dtd">
<!-- Generated by graphviz version 2.43.0 (0)
 -->
<!-- Title: neural_copy Pages: 1 -->
<svg width="290pt" height="104pt"
 viewBox="0.00 0.00 290.00 104.00" xmlns="http://www.w3.org/2000/svg" xmlns:xlink="http://www.w3.org/1999/xlink">
<g id="graph0" class="graph" transform="scale(1 1) rotate(0) translate(4 100)">
<title>neural_copy</title>
<!-- Node1 -->
<g id="node1" class="node">
<title>Node1</title>
<g id="a_node1"><a xlink:title="Copies a neural network.">
<polygon fill="#bfbfbf" stroke="black" points="0,-38.5 0,-57.5 69,-57.5 69,-38.5 0,-38.5"/>
<text text-anchor="middle" x="34.5" y="-45.5" font-family="Helvetica,sans-Serif" font-size="10.00">neural_copy</text>
</a>
</g>
</g>
<!-- Node2 -->
<g id="node2" class="node">
<title>Node2</title>
<g id="a_node2"><a xlink:href="neural__layer_8h.html#a392e18d96d59f5739ebeec3b05d5b4ad" target="_top" xlink:title="Creates and returns a copy of a specified layer.">
<polygon fill="none" stroke="black" points="107.5,-76.5 107.5,-95.5 171.5,-95.5 171.5,-76.5 107.5,-76.5"/>
<text text-anchor="middle" x="139.5" y="-83.5" font-family="Helvetica,sans-Serif" font-size="10.00">layer_copy</text>
</a>
</g>
</g>
<!-- Node1&#45;&gt;Node2 -->
<g id="edge1" class="edge">
<title>Node1&#45;&gt;Node2</title>
<path fill="none" stroke="midnightblue" d="M61.49,-57.59C74.06,-62.22 89.33,-67.86 102.95,-72.89"/>
<polygon fill="midnightblue" stroke="midnightblue" points="101.92,-76.24 112.52,-76.41 104.35,-69.67 101.92,-76.24"/>
</g>
<!-- Node3 -->
<g id="node3" class="node">
<title>Node3</title>
<g id="a_node3"><a xlink:href="neural_8c.html#ad70aee7c40f698d4be45e3d419051c2f" target="_top" xlink:title="Initialises an empty neural network.">
<polygon fill="none" stroke="black" points="109,-38.5 109,-57.5 170,-57.5 170,-38.5 109,-38.5"/>
<text text-anchor="middle" x="139.5" y="-45.5" font-family="Helvetica,sans-Serif" font-size="10.00">neural_init</text>
</a>
</g>
</g>
<!-- Node1&#45;&gt;Node3 -->
<g id="edge2" class="edge">
<title>Node1&#45;&gt;Node3</title>
<path fill="none" stroke="midnightblue" d="M69.23,-48C78.62,-48 88.91,-48 98.62,-48"/>
<polygon fill="midnightblue" stroke="midnightblue" points="98.86,-51.5 108.86,-48 98.86,-44.5 98.86,-51.5"/>
</g>
<!-- Node4 -->
<g id="node4" class="node">
<title>Node4</title>
<g id="a_node4"><a xlink:href="neural_8c.html#a1c1c06446fc719b8293aade2ded8433c" target="_top" xlink:title="Inserts a layer at the head of a neural network.">
<polygon fill="none" stroke="black" points="105,-0.5 105,-19.5 174,-19.5 174,-0.5 105,-0.5"/>
<text text-anchor="middle" x="139.5" y="-7.5" font-family="Helvetica,sans-Serif" font-size="10.00">neural_push</text>
</a>
</g>
</g>
<!-- Node1&#45;&gt;Node4 -->
<g id="edge3" class="edge">
<title>Node1&#45;&gt;Node4</title>
<path fill="none" stroke="midnightblue" d="M61.49,-38.41C74.06,-33.78 89.33,-28.14 102.95,-23.11"/>
<polygon fill="midnightblue" stroke="midnightblue" points="104.35,-26.33 112.52,-19.59 101.92,-19.76 104.35,-26.33"/>
</g>
<!-- Node5 -->
<g id="node5" class="node">
<title>Node5</title>
<g id="a_node5"><a xlink:href="neural_8c.html#afab574137fbf9da9a286d020917c8295" target="_top" xlink:title="Inserts a layer into a neural network.">
<polygon fill="none" stroke="black" points="210,-0.5 210,-19.5 282,-19.5 282,-0.5 210,-0.5"/>
<text text-anchor="middle" x="246" y="-7.5" font-family="Helvetica,sans-Serif" font-size="10.00">neural_insert</text>
</a>
</g>
</g>
<!-- Node4&#45;&gt;Node5 -->
<g id="edge4" class="edge">
<title>Node4&#45;&gt;Node5</title>
<path fill="none" stroke="midnightblue" d="M174.14,-10C182.28,-10 191.12,-10 199.71,-10"/>
<polygon fill="midnightblue" stroke="midnightblue" points="199.99,-13.5 209.99,-10 199.98,-6.5 199.99,-13.5"/>
</g>
</g>
</svg>
