<?xml version="1.0" encoding="UTF-8" standalone="no"?>
<!DOCTYPE svg PUBLIC "-//W3C//DTD SVG 1.1//EN"
 "http://www.w3.org/Graphics/SVG/1.1/DTD/svg11.dtd">
<!-- Generated by graphviz version 2.43.0 (0)
 -->
<!-- Title: neural_layer_connected.c Pages: 1 -->
<svg width="885pt" height="308pt"
 viewBox="0.00 0.00 884.50 308.00" xmlns="http://www.w3.org/2000/svg" xmlns:xlink="http://www.w3.org/1999/xlink">
<g id="graph0" class="graph" transform="scale(1 1) rotate(0) translate(4 304)">
<title>neural_layer_connected.c</title>
<!-- Node1 -->
<g id="node1" class="node">
<title>Node1</title>
<g id="a_node1"><a xlink:title="An implementation of a fully&#45;connected layer of perceptrons.">
<polygon fill="#bfbfbf" stroke="black" points="419,-280.5 419,-299.5 547,-299.5 547,-280.5 419,-280.5"/>
<text text-anchor="middle" x="483" y="-287.5" font-family="Helvetica,sans-Serif" font-size="10.00">neural_layer_connected.c</text>
</a>
</g>
</g>
<!-- Node2 -->
<g id="node2" class="node">
<title>Node2</title>
<g id="a_node2"><a xlink:href="neural__layer__connected_8h.html" target="_top" xlink:title="An implementation of a fully&#45;connected layer of perceptrons.">
<polygon fill="none" stroke="black" points="278,-224.5 278,-243.5 406,-243.5 406,-224.5 278,-224.5"/>
<text text-anchor="middle" x="342" y="-231.5" font-family="Helvetica,sans-Serif" font-size="10.00">neural_layer_connected.h</text>
</a>
</g>
</g>
<!-- Node1&#45;&gt;Node2 -->
<g id="edge1" class="edge">
<title>Node1&#45;&gt;Node2</title>
<path fill="none" stroke="midnightblue" d="M460.66,-280.44C437.25,-271.48 400.26,-257.31 373.81,-247.18"/>
<polygon fill="midnightblue" stroke="midnightblue" points="374.83,-243.82 364.24,-243.52 372.32,-250.36 374.83,-243.82"/>
</g>
<!-- Node5 -->
<g id="node5" class="node">
<title>Node5</title>
<g id="a_node5"><a xlink:href="utils_8h.html" target="_top" xlink:title="Utility functions for random number handling, etc.">
<polygon fill="none" stroke="black" points="184.5,-56.5 184.5,-75.5 227.5,-75.5 227.5,-56.5 184.5,-56.5"/>
<text text-anchor="middle" x="206" y="-63.5" font-family="Helvetica,sans-Serif" font-size="10.00">utils.h</text>
</a>
</g>
</g>
<!-- Node1&#45;&gt;Node5 -->
<g id="edge34" class="edge">
<title>Node1&#45;&gt;Node5</title>
<path fill="none" stroke="midnightblue" d="M418.82,-286.08C374.21,-281.61 314.77,-270.64 269,-244 211.58,-210.58 193.52,-194.13 170,-132 163.34,-114.42 175.94,-95.79 188.02,-83"/>
<polygon fill="midnightblue" stroke="midnightblue" points="190.61,-85.36 195.3,-75.86 185.71,-80.36 190.61,-85.36"/>
</g>
<!-- Node15 -->
<g id="node15" class="node">
<title>Node15</title>
<g id="a_node15"><a xlink:href="blas_8h.html" target="_top" xlink:title="Basic linear algebra functions.">
<polygon fill="none" stroke="black" points="561.5,-224.5 561.5,-243.5 604.5,-243.5 604.5,-224.5 561.5,-224.5"/>
<text text-anchor="middle" x="583" y="-231.5" font-family="Helvetica,sans-Serif" font-size="10.00">blas.h</text>
</a>
</g>
</g>
<!-- Node1&#45;&gt;Node15 -->
<g id="edge18" class="edge">
<title>Node1&#45;&gt;Node15</title>
<path fill="none" stroke="midnightblue" d="M499.07,-280.32C514.96,-271.74 539.51,-258.49 557.96,-248.52"/>
<polygon fill="midnightblue" stroke="midnightblue" points="559.84,-251.49 566.97,-243.65 556.51,-245.33 559.84,-251.49"/>
</g>
<!-- Node16 -->
<g id="node16" class="node">
<title>Node16</title>
<g id="a_node16"><a xlink:href="neural__activations_8h.html" target="_top" xlink:title="Neural network activation functions.">
<polygon fill="none" stroke="black" points="681,-168.5 681,-187.5 785,-187.5 785,-168.5 681,-168.5"/>
<text text-anchor="middle" x="733" y="-175.5" font-family="Helvetica,sans-Serif" font-size="10.00">neural_activations.h</text>
</a>
</g>
</g>
<!-- Node1&#45;&gt;Node16 -->
<g id="edge19" class="edge">
<title>Node1&#45;&gt;Node16</title>
<path fill="none" stroke="midnightblue" d="M489.76,-280.37C501.22,-266.35 525.88,-238.7 553,-224 589.5,-204.22 634.87,-192.95 670.93,-186.63"/>
<polygon fill="midnightblue" stroke="midnightblue" points="671.55,-190.08 680.84,-184.98 670.4,-183.17 671.55,-190.08"/>
</g>
<!-- Node17 -->
<g id="node17" class="node">
<title>Node17</title>
<g id="a_node17"><a xlink:href="sam_8h.html" target="_top" xlink:title="Self&#45;adaptive mutation functions.">
<polygon fill="none" stroke="black" points="461,-224.5 461,-243.5 505,-243.5 505,-224.5 461,-224.5"/>
<text text-anchor="middle" x="483" y="-231.5" font-family="Helvetica,sans-Serif" font-size="10.00">sam.h</text>
</a>
</g>
</g>
<!-- Node1&#45;&gt;Node17 -->
<g id="edge21" class="edge">
<title>Node1&#45;&gt;Node17</title>
<path fill="none" stroke="midnightblue" d="M483,-280.08C483,-273.01 483,-262.86 483,-253.99"/>
<polygon fill="midnightblue" stroke="midnightblue" points="486.5,-253.75 483,-243.75 479.5,-253.75 486.5,-253.75"/>
</g>
<!-- Node3 -->
<g id="node3" class="node">
<title>Node3</title>
<g id="a_node3"><a xlink:href="neural__layer_8h.html" target="_top" xlink:title="Interface for neural network layers.">
<polygon fill="none" stroke="black" points="285.5,-168.5 285.5,-187.5 362.5,-187.5 362.5,-168.5 285.5,-168.5"/>
<text text-anchor="middle" x="324" y="-175.5" font-family="Helvetica,sans-Serif" font-size="10.00">neural_layer.h</text>
</a>
</g>
</g>
<!-- Node2&#45;&gt;Node3 -->
<g id="edge2" class="edge">
<title>Node2&#45;&gt;Node3</title>
<path fill="none" stroke="midnightblue" d="M339.03,-224.08C336.62,-216.85 333.14,-206.41 330.13,-197.4"/>
<polygon fill="midnightblue" stroke="midnightblue" points="333.4,-196.13 326.92,-187.75 326.76,-198.34 333.4,-196.13"/>
</g>
<!-- Node4 -->
<g id="node4" class="node">
<title>Node4</title>
<g id="a_node4"><a xlink:href="neural_8h.html" target="_top" xlink:title="An implementation of a multi&#45;layer perceptron neural network.">
<polygon fill="none" stroke="black" points="298.5,-112.5 298.5,-131.5 349.5,-131.5 349.5,-112.5 298.5,-112.5"/>
<text text-anchor="middle" x="324" y="-119.5" font-family="Helvetica,sans-Serif" font-size="10.00">neural.h</text>
</a>
</g>
</g>
<!-- Node3&#45;&gt;Node4 -->
<g id="edge3" class="edge">
<title>Node3&#45;&gt;Node4</title>
<path fill="none" stroke="midnightblue" d="M324,-168.08C324,-161.01 324,-150.86 324,-141.99"/>
<polygon fill="midnightblue" stroke="midnightblue" points="327.5,-141.75 324,-131.75 320.5,-141.75 327.5,-141.75"/>
</g>
<!-- Node14 -->
<g id="node14" class="node">
<title>Node14</title>
<g id="a_node14"><a xlink:href="neural__layer__args_8h.html" target="_top" xlink:title="Functions operating on neural network arguments/constants.">
<polygon fill="none" stroke="black" points="179.5,-112.5 179.5,-131.5 280.5,-131.5 280.5,-112.5 179.5,-112.5"/>
<text text-anchor="middle" x="230" y="-119.5" font-family="Helvetica,sans-Serif" font-size="10.00">neural_layer_args.h</text>
</a>
</g>
</g>
<!-- Node3&#45;&gt;Node14 -->
<g id="edge16" class="edge">
<title>Node3&#45;&gt;Node14</title>
<path fill="none" stroke="midnightblue" d="M308.9,-168.32C294.1,-159.82 271.31,-146.73 254.02,-136.8"/>
<polygon fill="midnightblue" stroke="midnightblue" points="255.48,-133.6 245.07,-131.65 251.99,-139.67 255.48,-133.6"/>
</g>
<!-- Node4&#45;&gt;Node5 -->
<g id="edge4" class="edge">
<title>Node4&#45;&gt;Node5</title>
<path fill="none" stroke="midnightblue" d="M305.3,-112.44C286.06,-103.64 255.85,-89.81 233.8,-79.72"/>
<polygon fill="midnightblue" stroke="midnightblue" points="235.16,-76.5 224.61,-75.52 232.25,-82.86 235.16,-76.5"/>
</g>
<!-- Node9 -->
<g id="node9" class="node">
<title>Node9</title>
<g id="a_node9"><a xlink:title=" ">
<polygon fill="none" stroke="#bfbfbf" points="394,-0.5 394,-19.5 450,-19.5 450,-0.5 394,-0.5"/>
<text text-anchor="middle" x="422" y="-7.5" font-family="Helvetica,sans-Serif" font-size="10.00">stdbool.h</text>
</a>
</g>
</g>
<!-- Node4&#45;&gt;Node9 -->
<g id="edge11" class="edge">
<title>Node4&#45;&gt;Node9</title>
<path fill="none" stroke="midnightblue" d="M319.09,-112.18C312.39,-98.85 302.47,-73.29 314,-56 322.23,-43.66 356.23,-30.75 383.91,-21.94"/>
<polygon fill="midnightblue" stroke="midnightblue" points="385.24,-25.19 393.76,-18.89 383.17,-18.5 385.24,-25.19"/>
</g>
<!-- Node10 -->
<g id="node10" class="node">
<title>Node10</title>
<g id="a_node10"><a xlink:title=" ">
<polygon fill="none" stroke="#bfbfbf" points="330,-0.5 330,-19.5 376,-19.5 376,-0.5 330,-0.5"/>
<text text-anchor="middle" x="353" y="-7.5" font-family="Helvetica,sans-Serif" font-size="10.00">stdio.h</text>
</a>
</g>
</g>
<!-- Node4&#45;&gt;Node10 -->
<g id="edge13" class="edge">
<title>Node4&#45;&gt;Node10</title>
<path fill="none" stroke="midnightblue" d="M310.94,-112.47C294.07,-100.33 268.18,-77.18 280,-56 288.71,-40.39 305.31,-29.52 320.49,-22.39"/>
<polygon fill="midnightblue" stroke="midnightblue" points="321.88,-25.6 329.66,-18.41 319.1,-19.17 321.88,-25.6"/>
</g>
<!-- Node11 -->
<g id="node11" class="node">
<title>Node11</title>
<g id="a_node11"><a xlink:title=" ">
<polygon fill="none" stroke="#bfbfbf" points="132,-0.5 132,-19.5 180,-19.5 180,-0.5 132,-0.5"/>
<text text-anchor="middle" x="156" y="-7.5" font-family="Helvetica,sans-Serif" font-size="10.00">stdlib.h</text>
</a>
</g>
</g>
<!-- Node4&#45;&gt;Node11 -->
<g id="edge14" class="edge">
<title>Node4&#45;&gt;Node11</title>
<path fill="none" stroke="midnightblue" d="M298.18,-113.83C256.96,-102.28 180.43,-80.42 176,-76 163.86,-63.9 159.06,-44.62 157.17,-30.19"/>
<polygon fill="midnightblue" stroke="midnightblue" points="160.63,-29.52 156.2,-19.89 153.66,-30.18 160.63,-29.52"/>
</g>
<!-- Node12 -->
<g id="node12" class="node">
<title>Node12</title>
<g id="a_node12"><a xlink:title=" ">
<polygon fill="none" stroke="#bfbfbf" points="322.5,-56.5 322.5,-75.5 371.5,-75.5 371.5,-56.5 322.5,-56.5"/>
<text text-anchor="middle" x="347" y="-63.5" font-family="Helvetica,sans-Serif" font-size="10.00">stdint.h</text>
</a>
</g>
</g>
<!-- Node4&#45;&gt;Node12 -->
<g id="edge12" class="edge">
<title>Node4&#45;&gt;Node12</title>
<path fill="none" stroke="midnightblue" d="M327.8,-112.08C330.91,-104.77 335.42,-94.18 339.29,-85.1"/>
<polygon fill="midnightblue" stroke="midnightblue" points="342.57,-86.32 343.27,-75.75 336.13,-83.58 342.57,-86.32"/>
</g>
<!-- Node13 -->
<g id="node13" class="node">
<title>Node13</title>
<g id="a_node13"><a xlink:title=" ">
<polygon fill="none" stroke="#bfbfbf" points="389.5,-56.5 389.5,-75.5 438.5,-75.5 438.5,-56.5 389.5,-56.5"/>
<text text-anchor="middle" x="414" y="-63.5" font-family="Helvetica,sans-Serif" font-size="10.00">string.h</text>
</a>
</g>
</g>
<!-- Node4&#45;&gt;Node13 -->
<g id="edge15" class="edge">
<title>Node4&#45;&gt;Node13</title>
<path fill="none" stroke="midnightblue" d="M338.46,-112.32C352.5,-103.9 374.05,-90.97 390.54,-81.07"/>
<polygon fill="midnightblue" stroke="midnightblue" points="392.8,-83.8 399.58,-75.65 389.2,-77.8 392.8,-83.8"/>
</g>
<!-- Node6 -->
<g id="node6" class="node">
<title>Node6</title>
<g id="a_node6"><a xlink:title=" ">
<polygon fill="none" stroke="#bfbfbf" points="0,-0.5 0,-19.5 114,-19.5 114,-0.5 0,-0.5"/>
<text text-anchor="middle" x="57" y="-7.5" font-family="Helvetica,sans-Serif" font-size="10.00">../lib/cJSON/cJSON.h</text>
</a>
</g>
</g>
<!-- Node5&#45;&gt;Node6 -->
<g id="edge5" class="edge">
<title>Node5&#45;&gt;Node6</title>
<path fill="none" stroke="midnightblue" d="M184.33,-57.15C159.64,-48.2 119,-33.47 90.28,-23.06"/>
<polygon fill="midnightblue" stroke="midnightblue" points="91.26,-19.69 80.66,-19.58 88.87,-26.27 91.26,-19.69"/>
</g>
<!-- Node7 -->
<g id="node7" class="node">
<title>Node7</title>
<g id="a_node7"><a xlink:title=" ">
<polygon fill="none" stroke="#bfbfbf" points="198.5,-0.5 198.5,-19.5 311.5,-19.5 311.5,-0.5 198.5,-0.5"/>
<text text-anchor="middle" x="255" y="-7.5" font-family="Helvetica,sans-Serif" font-size="10.00">../lib/dSFMT/dSFMT.h</text>
</a>
</g>
</g>
<!-- Node5&#45;&gt;Node7 -->
<g id="edge6" class="edge">
<title>Node5&#45;&gt;Node7</title>
<path fill="none" stroke="midnightblue" d="M214.09,-56.08C221.16,-48.3 231.59,-36.8 240.15,-27.37"/>
<polygon fill="midnightblue" stroke="midnightblue" points="242.93,-29.51 247.06,-19.75 237.75,-24.8 242.93,-29.51"/>
</g>
<!-- Node8 -->
<g id="node8" class="node">
<title>Node8</title>
<g id="a_node8"><a xlink:title=" ">
<polygon fill="none" stroke="#bfbfbf" points="829.5,-0.5 829.5,-19.5 876.5,-19.5 876.5,-0.5 829.5,-0.5"/>
<text text-anchor="middle" x="853" y="-7.5" font-family="Helvetica,sans-Serif" font-size="10.00">math.h</text>
</a>
</g>
</g>
<!-- Node5&#45;&gt;Node8 -->
<g id="edge7" class="edge">
<title>Node5&#45;&gt;Node8</title>
<path fill="none" stroke="midnightblue" d="M227.53,-63.2C322.36,-55.29 703.29,-23.5 819.3,-13.81"/>
<polygon fill="midnightblue" stroke="midnightblue" points="819.7,-17.29 829.37,-12.97 819.12,-10.32 819.7,-17.29"/>
</g>
<!-- Node5&#45;&gt;Node9 -->
<g id="edge8" class="edge">
<title>Node5&#45;&gt;Node9</title>
<path fill="none" stroke="midnightblue" d="M227.5,-59.62C264.01,-50.5 338.57,-31.86 384.03,-20.49"/>
<polygon fill="midnightblue" stroke="midnightblue" points="384.96,-23.87 393.82,-18.05 383.27,-17.08 384.96,-23.87"/>
</g>
<!-- Node5&#45;&gt;Node10 -->
<g id="edge9" class="edge">
<title>Node5&#45;&gt;Node10</title>
<path fill="none" stroke="midnightblue" d="M227.69,-57.03C252.12,-48.06 292.1,-33.37 320.32,-23.01"/>
<polygon fill="midnightblue" stroke="midnightblue" points="321.58,-26.27 329.76,-19.54 319.17,-19.7 321.58,-26.27"/>
</g>
<!-- Node5&#45;&gt;Node11 -->
<g id="edge10" class="edge">
<title>Node5&#45;&gt;Node11</title>
<path fill="none" stroke="midnightblue" d="M197.74,-56.08C190.54,-48.3 179.89,-36.8 171.15,-27.37"/>
<polygon fill="midnightblue" stroke="midnightblue" points="173.47,-24.71 164.1,-19.75 168.33,-29.47 173.47,-24.71"/>
</g>
<!-- Node14&#45;&gt;Node5 -->
<g id="edge17" class="edge">
<title>Node14&#45;&gt;Node5</title>
<path fill="none" stroke="midnightblue" d="M226.04,-112.08C222.79,-104.77 218.08,-94.18 214.05,-85.1"/>
<polygon fill="midnightblue" stroke="midnightblue" points="217.15,-83.47 209.89,-75.75 210.75,-86.31 217.15,-83.47"/>
</g>
<!-- Node16&#45;&gt;Node8 -->
<g id="edge20" class="edge">
<title>Node16&#45;&gt;Node8</title>
<path fill="none" stroke="midnightblue" d="M751.27,-168.35C779.49,-153.83 832.66,-121.6 854,-76 860.73,-61.62 859.76,-43.43 857.52,-29.95"/>
<polygon fill="midnightblue" stroke="midnightblue" points="860.91,-29.02 855.49,-19.92 854.05,-30.42 860.91,-29.02"/>
</g>
<!-- Node18 -->
<g id="node18" class="node">
<title>Node18</title>
<g id="a_node18"><a xlink:href="xcsf_8h.html" target="_top" xlink:title="XCSF data structures.">
<polygon fill="none" stroke="black" points="539,-112.5 539,-131.5 583,-131.5 583,-112.5 539,-112.5"/>
<text text-anchor="middle" x="561" y="-119.5" font-family="Helvetica,sans-Serif" font-size="10.00">xcsf.h</text>
</a>
</g>
</g>
<!-- Node17&#45;&gt;Node18 -->
<g id="edge22" class="edge">
<title>Node17&#45;&gt;Node18</title>
<path fill="none" stroke="midnightblue" d="M489.12,-224.37C501.99,-206.22 532.07,-163.8 548.95,-139.99"/>
<polygon fill="midnightblue" stroke="midnightblue" points="551.98,-141.77 554.91,-131.59 546.27,-137.72 551.98,-141.77"/>
</g>
<!-- Node18&#45;&gt;Node5 -->
<g id="edge23" class="edge">
<title>Node18&#45;&gt;Node5</title>
<path fill="none" stroke="midnightblue" d="M538.79,-117.62C478.01,-108.38 308.73,-82.63 237.85,-71.85"/>
<polygon fill="midnightblue" stroke="midnightblue" points="238.16,-68.35 227.75,-70.31 237.11,-75.27 238.16,-68.35"/>
</g>
<!-- Node18&#45;&gt;Node8 -->
<g id="edge28" class="edge">
<title>Node18&#45;&gt;Node8</title>
<path fill="none" stroke="midnightblue" d="M583.09,-120.31C641.26,-118.04 796.78,-108.96 834,-76 847.04,-64.45 851.35,-44.48 852.67,-29.72"/>
<polygon fill="midnightblue" stroke="midnightblue" points="856.17,-29.84 853.19,-19.67 849.18,-29.48 856.17,-29.84"/>
</g>
<!-- Node18&#45;&gt;Node9 -->
<g id="edge29" class="edge">
<title>Node18&#45;&gt;Node9</title>
<path fill="none" stroke="midnightblue" d="M583.22,-116.32C620.32,-107.52 688.42,-86.61 663,-56 637.68,-25.51 521.66,-15.57 460.31,-12.41"/>
<polygon fill="midnightblue" stroke="midnightblue" points="460.39,-8.91 450.23,-11.93 460.06,-15.9 460.39,-8.91"/>
</g>
<!-- Node18&#45;&gt;Node10 -->
<g id="edge31" class="edge">
<title>Node18&#45;&gt;Node10</title>
<path fill="none" stroke="midnightblue" d="M582.55,-112.35C609.22,-100.42 648.93,-77.92 630,-56 595.85,-16.47 454.28,-29.89 386.54,-19.77"/>
<polygon fill="midnightblue" stroke="midnightblue" points="386.79,-16.26 376.33,-17.94 385.55,-23.15 386.79,-16.26"/>
</g>
<!-- Node18&#45;&gt;Node11 -->
<g id="edge32" class="edge">
<title>Node18&#45;&gt;Node11</title>
<path fill="none" stroke="midnightblue" d="M546.59,-112.3C518.54,-95.42 458.44,-59.58 448,-56 338.48,-18.45 303.5,-42.85 190,-20 189.9,-19.98 189.8,-19.96 189.7,-19.94"/>
<polygon fill="midnightblue" stroke="midnightblue" points="190.59,-16.55 180.06,-17.75 189.04,-23.38 190.59,-16.55"/>
</g>
<!-- Node18&#45;&gt;Node12 -->
<g id="edge30" class="edge">
<title>Node18&#45;&gt;Node12</title>
<path fill="none" stroke="midnightblue" d="M538.81,-115.56C506.46,-107.6 444.24,-92.21 381.21,-76.03"/>
<polygon fill="midnightblue" stroke="midnightblue" points="382.06,-72.63 371.5,-73.53 380.32,-79.41 382.06,-72.63"/>
</g>
<!-- Node18&#45;&gt;Node13 -->
<g id="edge33" class="edge">
<title>Node18&#45;&gt;Node13</title>
<path fill="none" stroke="midnightblue" d="M538.99,-112.92C514.63,-103.97 475.11,-89.45 447.03,-79.13"/>
<polygon fill="midnightblue" stroke="midnightblue" points="448.21,-75.84 437.62,-75.68 445.8,-82.41 448.21,-75.84"/>
</g>
<!-- Node19 -->
<g id="node19" class="node">
<title>Node19</title>
<g id="a_node19"><a xlink:title=" ">
<polygon fill="none" stroke="#bfbfbf" points="715.5,-56.5 715.5,-75.5 762.5,-75.5 762.5,-56.5 715.5,-56.5"/>
<text text-anchor="middle" x="739" y="-63.5" font-family="Helvetica,sans-Serif" font-size="10.00">errno.h</text>
</a>
</g>
</g>
<!-- Node18&#45;&gt;Node19 -->
<g id="edge24" class="edge">
<title>Node18&#45;&gt;Node19</title>
<path fill="none" stroke="midnightblue" d="M583.18,-114.27C613.89,-104.95 669.6,-88.05 705.42,-77.19"/>
<polygon fill="midnightblue" stroke="midnightblue" points="706.85,-80.41 715.4,-74.16 704.82,-73.71 706.85,-80.41"/>
</g>
<!-- Node20 -->
<g id="node20" class="node">
<title>Node20</title>
<g id="a_node20"><a xlink:title=" ">
<polygon fill="none" stroke="#bfbfbf" points="781,-56.5 781,-75.5 825,-75.5 825,-56.5 781,-56.5"/>
<text text-anchor="middle" x="803" y="-63.5" font-family="Helvetica,sans-Serif" font-size="10.00">float.h</text>
</a>
</g>
</g>
<!-- Node18&#45;&gt;Node20 -->
<g id="edge25" class="edge">
<title>Node18&#45;&gt;Node20</title>
<path fill="none" stroke="midnightblue" d="M583.3,-116.8C620.27,-109.71 696.76,-94.55 770.75,-76.18"/>
<polygon fill="midnightblue" stroke="midnightblue" points="771.85,-79.51 780.7,-73.68 770.15,-72.72 771.85,-79.51"/>
</g>
<!-- Node21 -->
<g id="node21" class="node">
<title>Node21</title>
<g id="a_node21"><a xlink:title=" ">
<polygon fill="none" stroke="#bfbfbf" points="495.5,-56.5 495.5,-75.5 554.5,-75.5 554.5,-56.5 495.5,-56.5"/>
<text text-anchor="middle" x="525" y="-63.5" font-family="Helvetica,sans-Serif" font-size="10.00">inttypes.h</text>
</a>
</g>
</g>
<!-- Node18&#45;&gt;Node21 -->
<g id="edge26" class="edge">
<title>Node18&#45;&gt;Node21</title>
<path fill="none" stroke="midnightblue" d="M555.06,-112.08C550.02,-104.53 542.66,-93.49 536.49,-84.23"/>
<polygon fill="midnightblue" stroke="midnightblue" points="539.29,-82.13 530.83,-75.75 533.47,-86.01 539.29,-82.13"/>
</g>
<!-- Node22 -->
<g id="node22" class="node">
<title>Node22</title>
<g id="a_node22"><a xlink:title=" ">
<polygon fill="none" stroke="#bfbfbf" points="573,-56.5 573,-75.5 621,-75.5 621,-56.5 573,-56.5"/>
<text text-anchor="middle" x="597" y="-63.5" font-family="Helvetica,sans-Serif" font-size="10.00">limits.h</text>
</a>
</g>
</g>
<!-- Node18&#45;&gt;Node22 -->
<g id="edge27" class="edge">
<title>Node18&#45;&gt;Node22</title>
<path fill="none" stroke="midnightblue" d="M566.94,-112.08C571.98,-104.53 579.34,-93.49 585.51,-84.23"/>
<polygon fill="midnightblue" stroke="midnightblue" points="588.53,-86.01 591.17,-75.75 582.71,-82.13 588.53,-86.01"/>
</g>
</g>
</svg>
