<?xml version="1.0" encoding="UTF-8" standalone="no"?>
<!DOCTYPE svg PUBLIC "-//W3C//DTD SVG 1.1//EN"
 "http://www.w3.org/Graphics/SVG/1.1/DTD/svg11.dtd">
<!-- Generated by graphviz version 2.43.0 (0)
 -->
<!-- Title: layer_set_vptr Pages: 1 -->
<svg width="1077pt" height="408pt"
 viewBox="0.00 0.00 1077.00 408.00" xmlns="http://www.w3.org/2000/svg" xmlns:xlink="http://www.w3.org/1999/xlink">
<g id="graph0" class="graph" transform="scale(1 1) rotate(0) translate(4 404)">
<title>layer_set_vptr</title>
<!-- Node1 -->
<g id="node1" class="node">
<title>Node1</title>
<g id="a_node1"><a xlink:title="Sets a neural network layer&#39;s functions to the implementations.">
<polygon fill="#bfbfbf" stroke="black" points="991,-133.5 991,-152.5 1069,-152.5 1069,-133.5 991,-133.5"/>
<text text-anchor="middle" x="1030" y="-140.5" font-family="Helvetica,sans-Serif" font-size="10.00">layer_set_vptr</text>
</a>
</g>
</g>
<!-- Node2 -->
<g id="node2" class="node">
<title>Node2</title>
<g id="a_node2"><a xlink:href="neural__layer_8h.html#a33f40237cec8d79bf6325b78d1f955fe" target="_top" xlink:title="Creates and initialises a new layer.">
<polygon fill="none" stroke="black" points="894,-209.5 894,-228.5 950,-228.5 950,-209.5 894,-209.5"/>
<text text-anchor="middle" x="922" y="-216.5" font-family="Helvetica,sans-Serif" font-size="10.00">layer_init</text>
</a>
</g>
</g>
<!-- Node1&#45;&gt;Node2 -->
<g id="edge1" class="edge">
<title>Node1&#45;&gt;Node2</title>
<path fill="none" stroke="midnightblue" d="M1007.43,-158.46C986.12,-173.75 954.18,-196.64 936.32,-209.45"/>
<polygon fill="midnightblue" stroke="midnightblue" points="1009.49,-161.3 1015.58,-152.63 1005.41,-155.61 1009.49,-161.3"/>
</g>
<!-- Node24 -->
<g id="node24" class="node">
<title>Node24</title>
<g id="a_node24"><a xlink:href="neural_8h.html#a7cb2bd3f18f66f9ccd9512b9d35d6d08" target="_top" xlink:title="Reads a neural network from a file.">
<polygon fill="none" stroke="black" points="889,-76.5 889,-95.5 955,-95.5 955,-76.5 889,-76.5"/>
<text text-anchor="middle" x="922" y="-83.5" font-family="Helvetica,sans-Serif" font-size="10.00">neural_load</text>
</a>
</g>
</g>
<!-- Node1&#45;&gt;Node24 -->
<g id="edge27" class="edge">
<title>Node1&#45;&gt;Node24</title>
<path fill="none" stroke="midnightblue" d="M1002.12,-128.55C982.87,-118.19 957.48,-104.54 940.72,-95.53"/>
<polygon fill="midnightblue" stroke="midnightblue" points="1000.55,-131.68 1011.02,-133.33 1003.87,-125.51 1000.55,-131.68"/>
</g>
<!-- Node3 -->
<g id="node3" class="node">
<title>Node3</title>
<g id="a_node3"><a xlink:href="neural_8h.html#a6466387dd7c533e0f15da4c2127bfd79" target="_top" xlink:title="Initialises and creates a new neural network from a parameter list.">
<polygon fill="none" stroke="black" points="745.5,-304.5 745.5,-323.5 820.5,-323.5 820.5,-304.5 745.5,-304.5"/>
<text text-anchor="middle" x="783" y="-311.5" font-family="Helvetica,sans-Serif" font-size="10.00">neural_create</text>
</a>
</g>
</g>
<!-- Node2&#45;&gt;Node3 -->
<g id="edge2" class="edge">
<title>Node2&#45;&gt;Node3</title>
<path fill="none" stroke="midnightblue" d="M909.33,-237.2C897.27,-254.57 876.87,-280.21 853,-295 843.28,-301.02 831.64,-305.17 820.71,-308.01"/>
<polygon fill="midnightblue" stroke="midnightblue" points="912.48,-238.78 915.14,-228.53 906.67,-234.89 912.48,-238.78"/>
</g>
<!-- Node16 -->
<g id="node16" class="node">
<title>Node16</title>
<g id="a_node16"><a xlink:href="neural__layer__lstm_8h.html#ae10001d478d05d7503e4ce76e02cbf6b" target="_top" xlink:title="Initialises a long short&#45;term memory layer.">
<polygon fill="none" stroke="black" points="727.5,-266.5 727.5,-285.5 838.5,-285.5 838.5,-266.5 727.5,-266.5"/>
<text text-anchor="middle" x="783" y="-273.5" font-family="Helvetica,sans-Serif" font-size="10.00">neural_layer_lstm_init</text>
</a>
</g>
</g>
<!-- Node2&#45;&gt;Node16 -->
<g id="edge17" class="edge">
<title>Node2&#45;&gt;Node16</title>
<path fill="none" stroke="midnightblue" d="M897.76,-233.83C884.93,-241.53 868.51,-250.64 853,-257 844.15,-260.63 834.38,-263.79 825.04,-266.45"/>
<polygon fill="midnightblue" stroke="midnightblue" points="899.7,-236.74 906.39,-228.53 896.04,-230.78 899.7,-236.74"/>
</g>
<!-- Node17 -->
<g id="node17" class="node">
<title>Node17</title>
<g id="a_node17"><a xlink:href="neural__layer__recurrent_8h.html#a74274033f3a8272fb8aae4366f93d74c" target="_top" xlink:title="Initialises a recurrent layer.">
<polygon fill="none" stroke="black" points="717.5,-228.5 717.5,-247.5 848.5,-247.5 848.5,-228.5 717.5,-228.5"/>
<text text-anchor="middle" x="783" y="-235.5" font-family="Helvetica,sans-Serif" font-size="10.00">neural_layer_recurrent_init</text>
</a>
</g>
</g>
<!-- Node2&#45;&gt;Node17 -->
<g id="edge18" class="edge">
<title>Node2&#45;&gt;Node17</title>
<path fill="none" stroke="midnightblue" d="M883.96,-224.14C873.07,-225.65 860.82,-227.35 848.74,-229.02"/>
<polygon fill="midnightblue" stroke="midnightblue" points="884.51,-227.59 893.93,-222.75 883.55,-220.66 884.51,-227.59"/>
</g>
<!-- Node18 -->
<g id="node18" class="node">
<title>Node18</title>
<g id="a_node18"><a xlink:href="pred__neural_8h.html#aa639a9130cac0c222bca241f86d6c135" target="_top" xlink:title="Removes prediction (decoder) layers and inserts softmax output layer.">
<polygon fill="none" stroke="black" points="713,-190.5 713,-209.5 853,-209.5 853,-190.5 713,-190.5"/>
<text text-anchor="middle" x="783" y="-197.5" font-family="Helvetica,sans-Serif" font-size="10.00">pred_neural_ae_to_classifier</text>
</a>
</g>
</g>
<!-- Node2&#45;&gt;Node18 -->
<g id="edge19" class="edge">
<title>Node2&#45;&gt;Node18</title>
<path fill="none" stroke="midnightblue" d="M883.91,-213.86C874.24,-212.51 863.5,-211.03 852.75,-209.54"/>
<polygon fill="midnightblue" stroke="midnightblue" points="883.55,-217.34 893.93,-215.25 884.51,-210.41 883.55,-217.34"/>
</g>
<!-- Node21 -->
<g id="node21" class="node">
<title>Node21</title>
<g id="a_node21"><a xlink:href="pred__neural_8h.html#ab573aaed6ff7623e99afe1d1f6e00919" target="_top" xlink:title="Creates and inserts a hidden layer before the prediction output layer.">
<polygon fill="none" stroke="black" points="731,-152.5 731,-171.5 835,-171.5 835,-152.5 731,-152.5"/>
<text text-anchor="middle" x="783" y="-159.5" font-family="Helvetica,sans-Serif" font-size="10.00">pred_neural_expand</text>
</a>
</g>
</g>
<!-- Node2&#45;&gt;Node21 -->
<g id="edge23" class="edge">
<title>Node2&#45;&gt;Node21</title>
<path fill="none" stroke="midnightblue" d="M897.76,-204.17C884.93,-196.47 868.51,-187.36 853,-181 844.15,-177.37 834.38,-174.21 825.04,-171.55"/>
<polygon fill="midnightblue" stroke="midnightblue" points="896.04,-207.22 906.39,-209.47 899.7,-201.26 896.04,-207.22"/>
</g>
<!-- Node4 -->
<g id="node4" class="node">
<title>Node4</title>
<g id="a_node4"><a xlink:href="act__neural_8h.html#abbdbc4d92f139ccc9816289233dbf934" target="_top" xlink:title="Creates and initialises an action neural network.">
<polygon fill="none" stroke="black" points="582.5,-380.5 582.5,-399.5 662.5,-399.5 662.5,-380.5 582.5,-380.5"/>
<text text-anchor="middle" x="622.5" y="-387.5" font-family="Helvetica,sans-Serif" font-size="10.00">act_neural_init</text>
</a>
</g>
</g>
<!-- Node3&#45;&gt;Node4 -->
<g id="edge3" class="edge">
<title>Node3&#45;&gt;Node4</title>
<path fill="none" stroke="midnightblue" d="M757.16,-328.92C736.23,-341.14 705.26,-358.4 677,-371 669.35,-374.41 660.88,-377.65 652.98,-380.46"/>
<polygon fill="midnightblue" stroke="midnightblue" points="759.19,-331.78 766.03,-323.69 755.64,-325.75 759.19,-331.78"/>
</g>
<!-- Node5 -->
<g id="node5" class="node">
<title>Node5</title>
<g id="a_node5"><a xlink:href="cond__neural_8h.html#a16f80af76361587e6da53dd21fa05b7b" target="_top" xlink:title="Creates and initialises a neural network condition.">
<polygon fill="none" stroke="black" points="579,-342.5 579,-361.5 666,-361.5 666,-342.5 579,-342.5"/>
<text text-anchor="middle" x="622.5" y="-349.5" font-family="Helvetica,sans-Serif" font-size="10.00">cond_neural_init</text>
</a>
</g>
</g>
<!-- Node3&#45;&gt;Node5 -->
<g id="edge4" class="edge">
<title>Node3&#45;&gt;Node5</title>
<path fill="none" stroke="midnightblue" d="M735.41,-325.17C712.54,-330.65 685.28,-337.19 663.39,-342.44"/>
<polygon fill="midnightblue" stroke="midnightblue" points="736.33,-328.55 745.24,-322.81 734.7,-321.74 736.33,-328.55"/>
</g>
<!-- Node6 -->
<g id="node6" class="node">
<title>Node6</title>
<g id="a_node6"><a xlink:href="neural__layer__args_8h.html#a8d6f5c91f58e29ae70807de0d0b25d0e" target="_top" xlink:title="Prints layer parameters.">
<polygon fill="none" stroke="black" points="579.5,-304.5 579.5,-323.5 665.5,-323.5 665.5,-304.5 579.5,-304.5"/>
<text text-anchor="middle" x="622.5" y="-311.5" font-family="Helvetica,sans-Serif" font-size="10.00">layer_args_print</text>
</a>
</g>
</g>
<!-- Node3&#45;&gt;Node6 -->
<g id="edge5" class="edge">
<title>Node3&#45;&gt;Node6</title>
<path fill="none" stroke="midnightblue" d="M735.11,-314C713.1,-314 687.05,-314 665.66,-314"/>
<polygon fill="midnightblue" stroke="midnightblue" points="735.24,-317.5 745.24,-314 735.24,-310.5 735.24,-317.5"/>
</g>
<!-- Node14 -->
<g id="node14" class="node">
<title>Node14</title>
<g id="a_node14"><a xlink:href="pred__neural_8h.html#a8ff454a2da61b52670f4b70b71da2fe8" target="_top" xlink:title="Creates and initialises a neural network prediction.">
<polygon fill="none" stroke="black" points="580,-266.5 580,-285.5 665,-285.5 665,-266.5 580,-266.5"/>
<text text-anchor="middle" x="622.5" y="-273.5" font-family="Helvetica,sans-Serif" font-size="10.00">pred_neural_init</text>
</a>
</g>
</g>
<!-- Node3&#45;&gt;Node14 -->
<g id="edge15" class="edge">
<title>Node3&#45;&gt;Node14</title>
<path fill="none" stroke="midnightblue" d="M735.41,-302.83C712.54,-297.35 685.28,-290.81 663.39,-285.56"/>
<polygon fill="midnightblue" stroke="midnightblue" points="734.7,-306.26 745.24,-305.19 736.33,-299.45 734.7,-306.26"/>
</g>
<!-- Node15 -->
<g id="node15" class="node">
<title>Node15</title>
<g id="a_node15"><a xlink:href="rule__neural_8h.html#accc0db627c6130e7c8680c008b47a2e2" target="_top" xlink:title=" ">
<polygon fill="none" stroke="black" points="568.5,-228.5 568.5,-247.5 676.5,-247.5 676.5,-228.5 568.5,-228.5"/>
<text text-anchor="middle" x="622.5" y="-235.5" font-family="Helvetica,sans-Serif" font-size="10.00">rule_neural_cond_init</text>
</a>
</g>
</g>
<!-- Node3&#45;&gt;Node15 -->
<g id="edge16" class="edge">
<title>Node3&#45;&gt;Node15</title>
<path fill="none" stroke="midnightblue" d="M735.54,-304.96C727.71,-302.4 719.89,-299.14 713,-295 693.05,-283.03 696.5,-269.69 677,-257 671.22,-253.24 664.6,-250.11 658.03,-247.56"/>
<polygon fill="midnightblue" stroke="midnightblue" points="734.82,-308.39 745.4,-307.84 736.78,-301.67 734.82,-308.39"/>
</g>
<!-- Node7 -->
<g id="node7" class="node">
<title>Node7</title>
<g id="a_node7"><a xlink:href="action_8h.html#a1e6bb9a3116b23d3bb6b676607501923" target="_top" xlink:title="Prints action parameters.">
<polygon fill="none" stroke="black" points="433,-323.5 433,-342.5 532,-342.5 532,-323.5 433,-323.5"/>
<text text-anchor="middle" x="482.5" y="-330.5" font-family="Helvetica,sans-Serif" font-size="10.00">action_param_print</text>
</a>
</g>
</g>
<!-- Node6&#45;&gt;Node7 -->
<g id="edge6" class="edge">
<title>Node6&#45;&gt;Node7</title>
<path fill="none" stroke="midnightblue" d="M569.32,-321.18C557.13,-322.86 544.19,-324.64 532.17,-326.3"/>
<polygon fill="midnightblue" stroke="midnightblue" points="569.92,-324.64 579.35,-319.8 568.96,-317.7 569.92,-324.64"/>
</g>
<!-- Node12 -->
<g id="node12" class="node">
<title>Node12</title>
<g id="a_node12"><a xlink:href="condition_8h.html#adc81d1c6371eb0ef613ba3df5f2b1fb4" target="_top" xlink:title="Prints condition parameters.">
<polygon fill="none" stroke="black" points="435.5,-285.5 435.5,-304.5 529.5,-304.5 529.5,-285.5 435.5,-285.5"/>
<text text-anchor="middle" x="482.5" y="-292.5" font-family="Helvetica,sans-Serif" font-size="10.00">cond_param_print</text>
</a>
</g>
</g>
<!-- Node6&#45;&gt;Node12 -->
<g id="edge11" class="edge">
<title>Node6&#45;&gt;Node12</title>
<path fill="none" stroke="midnightblue" d="M569.16,-306.79C556.19,-305.01 542.38,-303.11 529.72,-301.36"/>
<polygon fill="midnightblue" stroke="midnightblue" points="568.96,-310.3 579.35,-308.2 569.92,-303.36 568.96,-310.3"/>
</g>
<!-- Node13 -->
<g id="node13" class="node">
<title>Node13</title>
<g id="a_node13"><a xlink:href="prediction_8h.html#a8358abee65ddd688514040ef8851d9f2" target="_top" xlink:title="Prints prediction parameters.">
<polygon fill="none" stroke="black" points="436.5,-247.5 436.5,-266.5 528.5,-266.5 528.5,-247.5 436.5,-247.5"/>
<text text-anchor="middle" x="482.5" y="-254.5" font-family="Helvetica,sans-Serif" font-size="10.00">pred_param_print</text>
</a>
</g>
</g>
<!-- Node6&#45;&gt;Node13 -->
<g id="edge13" class="edge">
<title>Node6&#45;&gt;Node13</title>
<path fill="none" stroke="midnightblue" d="M582.78,-301C577.77,-299.1 572.73,-297.08 568,-295 551.43,-287.73 548.45,-283.53 532,-276 524.76,-272.69 516.77,-269.41 509.4,-266.53"/>
<polygon fill="midnightblue" stroke="midnightblue" points="581.73,-304.34 592.33,-304.5 584.14,-297.77 581.73,-304.34"/>
</g>
<!-- Node8 -->
<g id="node8" class="node">
<title>Node8</title>
<g id="a_node8"><a xlink:href="param_8h.html#a1e92bde5285ed6ded96ba4af5fd27bd2" target="_top" xlink:title="Prints all XCSF parameters.">
<polygon fill="none" stroke="black" points="307,-266.5 307,-285.5 375,-285.5 375,-266.5 307,-266.5"/>
<text text-anchor="middle" x="341" y="-273.5" font-family="Helvetica,sans-Serif" font-size="10.00">param_print</text>
</a>
</g>
</g>
<!-- Node7&#45;&gt;Node8 -->
<g id="edge7" class="edge">
<title>Node7&#45;&gt;Node8</title>
<path fill="none" stroke="midnightblue" d="M447.18,-319.67C442.41,-317.78 437.58,-315.85 433,-314 409.51,-304.5 382.77,-293.28 364.38,-285.51"/>
<polygon fill="midnightblue" stroke="midnightblue" points="446.2,-323.04 456.78,-323.44 448.76,-316.52 446.2,-323.04"/>
</g>
<!-- Node9 -->
<g id="node9" class="node">
<title>Node9</title>
<g id="a_node9"><a xlink:href="main_8c.html#a3c04138a5bfe5d72780bb7e82a18e627" target="_top" xlink:title=" ">
<polygon fill="none" stroke="black" points="180,-266.5 180,-285.5 218,-285.5 218,-266.5 180,-266.5"/>
<text text-anchor="middle" x="199" y="-273.5" font-family="Helvetica,sans-Serif" font-size="10.00">main</text>
</a>
</g>
</g>
<!-- Node8&#45;&gt;Node9 -->
<g id="edge8" class="edge">
<title>Node8&#45;&gt;Node9</title>
<path fill="none" stroke="midnightblue" d="M296.7,-276C270.39,-276 238.17,-276 218.36,-276"/>
<polygon fill="midnightblue" stroke="midnightblue" points="296.82,-279.5 306.82,-276 296.82,-272.5 296.82,-279.5"/>
</g>
<!-- Node10 -->
<g id="node10" class="node">
<title>Node10</title>
<g id="a_node10"><a xlink:href="classXCS.html#a7731d72fe05a86f0d9bc67939fd56182" target="_top" xlink:title="Prints the XCSF parameters and their current values.">
<polygon fill="none" stroke="black" points="149,-228.5 149,-247.5 249,-247.5 249,-228.5 149,-228.5"/>
<text text-anchor="middle" x="199" y="-235.5" font-family="Helvetica,sans-Serif" font-size="10.00">XCS::print_params</text>
</a>
</g>
</g>
<!-- Node8&#45;&gt;Node10 -->
<g id="edge9" class="edge">
<title>Node8&#45;&gt;Node10</title>
<path fill="none" stroke="midnightblue" d="M297.13,-264.36C277.35,-258.99 254.15,-252.7 235.39,-247.61"/>
<polygon fill="midnightblue" stroke="midnightblue" points="296.25,-267.75 306.82,-266.99 298.09,-261 296.25,-267.75"/>
</g>
<!-- Node11 -->
<g id="node11" class="node">
<title>Node11</title>
<g id="a_node11"><a xlink:href="pybind__wrapper_8cpp.html#a269acb618355873dacf057083f07eb58" target="_top" xlink:title=" ">
<polygon fill="none" stroke="black" points="0,-190.5 0,-209.5 113,-209.5 113,-190.5 0,-190.5"/>
<text text-anchor="middle" x="56.5" y="-197.5" font-family="Helvetica,sans-Serif" font-size="10.00">pybind11_init_wrapper</text>
</a>
</g>
</g>
<!-- Node10&#45;&gt;Node11 -->
<g id="edge10" class="edge">
<title>Node10&#45;&gt;Node11</title>
<path fill="none" stroke="midnightblue" d="M152.72,-225.75C133.36,-220.52 111.08,-214.49 92.94,-209.59"/>
<polygon fill="midnightblue" stroke="midnightblue" points="151.98,-229.18 162.55,-228.41 153.81,-222.42 151.98,-229.18"/>
</g>
<!-- Node12&#45;&gt;Node8 -->
<g id="edge12" class="edge">
<title>Node12&#45;&gt;Node8</title>
<path fill="none" stroke="midnightblue" d="M425.07,-287.31C408.14,-285.01 390.12,-282.55 375.21,-280.52"/>
<polygon fill="midnightblue" stroke="midnightblue" points="425.05,-290.84 435.44,-288.73 426,-283.91 425.05,-290.84"/>
</g>
<!-- Node13&#45;&gt;Node8 -->
<g id="edge14" class="edge">
<title>Node13&#45;&gt;Node8</title>
<path fill="none" stroke="midnightblue" d="M426.21,-264.53C408.92,-266.89 390.4,-269.41 375.14,-271.49"/>
<polygon fill="midnightblue" stroke="midnightblue" points="426.77,-267.99 436.21,-263.17 425.83,-261.05 426.77,-267.99"/>
</g>
<!-- Node19 -->
<g id="node19" class="node">
<title>Node19</title>
<g id="a_node19"><a xlink:href="xcsf_8h.html#ad77461184a11780681798ac593b090ab" target="_top" xlink:title="Switches from autoencoding to classification.">
<polygon fill="none" stroke="black" points="568,-190.5 568,-209.5 677,-209.5 677,-190.5 568,-190.5"/>
<text text-anchor="middle" x="622.5" y="-197.5" font-family="Helvetica,sans-Serif" font-size="10.00">xcsf_ae_to_classifier</text>
</a>
</g>
</g>
<!-- Node18&#45;&gt;Node19 -->
<g id="edge20" class="edge">
<title>Node18&#45;&gt;Node19</title>
<path fill="none" stroke="midnightblue" d="M702.75,-200C694.06,-200 685.36,-200 677.08,-200"/>
<polygon fill="midnightblue" stroke="midnightblue" points="702.94,-203.5 712.94,-200 702.94,-196.5 702.94,-203.5"/>
</g>
<!-- Node20 -->
<g id="node20" class="node">
<title>Node20</title>
<g id="a_node20"><a xlink:href="classXCS.html#ad73009d926d395ee03bf7586f194fcbe" target="_top" xlink:title="Switches from autoencoding to classification.">
<polygon fill="none" stroke="black" points="285,-190.5 285,-209.5 397,-209.5 397,-190.5 285,-190.5"/>
<text text-anchor="middle" x="341" y="-197.5" font-family="Helvetica,sans-Serif" font-size="10.00">XCS::ae_to_classifier</text>
</a>
</g>
</g>
<!-- Node19&#45;&gt;Node20 -->
<g id="edge21" class="edge">
<title>Node19&#45;&gt;Node20</title>
<path fill="none" stroke="midnightblue" d="M557.89,-200C509.48,-200 443.52,-200 397.29,-200"/>
<polygon fill="midnightblue" stroke="midnightblue" points="557.94,-203.5 567.94,-200 557.94,-196.5 557.94,-203.5"/>
</g>
<!-- Node20&#45;&gt;Node11 -->
<g id="edge22" class="edge">
<title>Node20&#45;&gt;Node11</title>
<path fill="none" stroke="midnightblue" d="M274.72,-200C225.91,-200 159.87,-200 113.47,-200"/>
<polygon fill="midnightblue" stroke="midnightblue" points="274.86,-203.5 284.86,-200 274.86,-196.5 274.86,-203.5"/>
</g>
<!-- Node22 -->
<g id="node22" class="node">
<title>Node22</title>
<g id="a_node22"><a xlink:href="xcsf_8h.html#a6bb93a888da68d6397ce63fb58428237" target="_top" xlink:title="Inserts a new hidden layer before the output layer within all prediction neural networks in the popul...">
<polygon fill="none" stroke="black" points="574.5,-152.5 574.5,-171.5 670.5,-171.5 670.5,-152.5 574.5,-152.5"/>
<text text-anchor="middle" x="622.5" y="-159.5" font-family="Helvetica,sans-Serif" font-size="10.00">xcsf_pred_expand</text>
</a>
</g>
</g>
<!-- Node21&#45;&gt;Node22 -->
<g id="edge24" class="edge">
<title>Node21&#45;&gt;Node22</title>
<path fill="none" stroke="midnightblue" d="M720.79,-162C704.15,-162 686.39,-162 670.66,-162"/>
<polygon fill="midnightblue" stroke="midnightblue" points="720.98,-165.5 730.98,-162 720.98,-158.5 720.98,-165.5"/>
</g>
<!-- Node23 -->
<g id="node23" class="node">
<title>Node23</title>
<g id="a_node23"><a xlink:href="classXCS.html#aa4d00c1db4ef961055b74f231cbd39f0" target="_top" xlink:title="Inserts a new hidden layer before the output layer within all prediction neural networks in the popul...">
<polygon fill="none" stroke="black" points="291.5,-152.5 291.5,-171.5 390.5,-171.5 390.5,-152.5 291.5,-152.5"/>
<text text-anchor="middle" x="341" y="-159.5" font-family="Helvetica,sans-Serif" font-size="10.00">XCS::pred_expand</text>
</a>
</g>
</g>
<!-- Node22&#45;&gt;Node23 -->
<g id="edge25" class="edge">
<title>Node22&#45;&gt;Node23</title>
<path fill="none" stroke="midnightblue" d="M564.18,-162C513.05,-162 439.02,-162 390.7,-162"/>
<polygon fill="midnightblue" stroke="midnightblue" points="564.4,-165.5 574.4,-162 564.4,-158.5 564.4,-165.5"/>
</g>
<!-- Node23&#45;&gt;Node11 -->
<g id="edge26" class="edge">
<title>Node23&#45;&gt;Node11</title>
<path fill="none" stroke="midnightblue" d="M281.22,-169.91C231.82,-176.55 161.69,-185.99 113.17,-192.51"/>
<polygon fill="midnightblue" stroke="midnightblue" points="281.99,-173.33 291.44,-168.53 281.06,-166.4 281.99,-173.33"/>
</g>
<!-- Node25 -->
<g id="node25" class="node">
<title>Node25</title>
<g id="a_node25"><a xlink:href="act__neural_8h.html#a241289b5c61dec98b854ee24fdf16d67" target="_top" xlink:title="Reads a neural network action from a file.">
<polygon fill="none" stroke="black" points="740.5,-114.5 740.5,-133.5 825.5,-133.5 825.5,-114.5 740.5,-114.5"/>
<text text-anchor="middle" x="783" y="-121.5" font-family="Helvetica,sans-Serif" font-size="10.00">act_neural_load</text>
</a>
</g>
</g>
<!-- Node24&#45;&gt;Node25 -->
<g id="edge28" class="edge">
<title>Node24&#45;&gt;Node25</title>
<path fill="none" stroke="midnightblue" d="M878.99,-97.77C870.39,-100.17 861.4,-102.67 853,-105 841.87,-108.09 829.71,-111.44 818.76,-114.46"/>
<polygon fill="midnightblue" stroke="midnightblue" points="880.15,-101.08 888.84,-95.01 878.26,-94.33 880.15,-101.08"/>
</g>
<!-- Node26 -->
<g id="node26" class="node">
<title>Node26</title>
<g id="a_node26"><a xlink:href="cond__neural_8h.html#a8decac2646ea64aba95cd8522d295c83" target="_top" xlink:title="Reads a neural network condition from a file.">
<polygon fill="none" stroke="black" points="737,-76.5 737,-95.5 829,-95.5 829,-76.5 737,-76.5"/>
<text text-anchor="middle" x="783" y="-83.5" font-family="Helvetica,sans-Serif" font-size="10.00">cond_neural_load</text>
</a>
</g>
</g>
<!-- Node24&#45;&gt;Node26 -->
<g id="edge29" class="edge">
<title>Node24&#45;&gt;Node26</title>
<path fill="none" stroke="midnightblue" d="M878.43,-86C862.78,-86 845.01,-86 829.14,-86"/>
<polygon fill="midnightblue" stroke="midnightblue" points="878.88,-89.5 888.88,-86 878.88,-82.5 878.88,-89.5"/>
</g>
<!-- Node27 -->
<g id="node27" class="node">
<title>Node27</title>
<g id="a_node27"><a xlink:href="pred__neural_8h.html#aee98eff48767b879343983d0717952cc" target="_top" xlink:title="Reads a neural network prediction from a file.">
<polygon fill="none" stroke="black" points="738,-38.5 738,-57.5 828,-57.5 828,-38.5 738,-38.5"/>
<text text-anchor="middle" x="783" y="-45.5" font-family="Helvetica,sans-Serif" font-size="10.00">pred_neural_load</text>
</a>
</g>
</g>
<!-- Node24&#45;&gt;Node27 -->
<g id="edge30" class="edge">
<title>Node24&#45;&gt;Node27</title>
<path fill="none" stroke="midnightblue" d="M878.99,-74.23C870.39,-71.83 861.4,-69.33 853,-67 841.87,-63.91 829.71,-60.56 818.76,-57.54"/>
<polygon fill="midnightblue" stroke="midnightblue" points="878.26,-77.67 888.84,-76.99 880.15,-70.92 878.26,-77.67"/>
</g>
<!-- Node28 -->
<g id="node28" class="node">
<title>Node28</title>
<g id="a_node28"><a xlink:href="rule__neural_8h.html#a0e1e69e3c01307e2423a9c3c05409d63" target="_top" xlink:title=" ">
<polygon fill="none" stroke="black" points="726.5,-0.5 726.5,-19.5 839.5,-19.5 839.5,-0.5 726.5,-0.5"/>
<text text-anchor="middle" x="783" y="-7.5" font-family="Helvetica,sans-Serif" font-size="10.00">rule_neural_cond_load</text>
</a>
</g>
</g>
<!-- Node24&#45;&gt;Node28 -->
<g id="edge31" class="edge">
<title>Node24&#45;&gt;Node28</title>
<path fill="none" stroke="midnightblue" d="M905.09,-69.19C892.17,-56.46 872.88,-39.43 853,-29 845.74,-25.19 837.63,-22.08 829.61,-19.57"/>
<polygon fill="midnightblue" stroke="midnightblue" points="902.75,-71.81 912.26,-76.47 907.73,-66.89 902.75,-71.81"/>
</g>
</g>
</svg>
