<?xml version="1.0" encoding="UTF-8" standalone="no"?>
<!DOCTYPE svg PUBLIC "-//W3C//DTD SVG 1.1//EN"
 "http://www.w3.org/Graphics/SVG/1.1/DTD/svg11.dtd">
<!-- Generated by graphviz version 2.43.0 (0)
 -->
<!-- Title: neural_mutate Pages: 1 -->
<svg width="195pt" height="66pt"
 viewBox="0.00 0.00 195.00 66.00" xmlns="http://www.w3.org/2000/svg" xmlns:xlink="http://www.w3.org/1999/xlink">
<g id="graph0" class="graph" transform="scale(1 1) rotate(0) translate(4 62)">
<title>neural_mutate</title>
<!-- Node1 -->
<g id="node1" class="node">
<title>Node1</title>
<g id="a_node1"><a xlink:title="Mutates a neural network.">
<polygon fill="#bfbfbf" stroke="black" points="0,-19.5 0,-38.5 78,-38.5 78,-19.5 0,-19.5"/>
<text text-anchor="middle" x="39" y="-26.5" font-family="Helvetica,sans-Serif" font-size="10.00">neural_mutate</text>
</a>
</g>
</g>
<!-- Node2 -->
<g id="node2" class="node">
<title>Node2</title>
<g id="a_node2"><a xlink:href="neural__layer_8h.html#afd243208228433217751dd11cd9c5f0a" target="_top" xlink:title="Performs layer mutation.">
<polygon fill="none" stroke="black" points="114,-38.5 114,-57.5 187,-57.5 187,-38.5 114,-38.5"/>
<text text-anchor="middle" x="150.5" y="-45.5" font-family="Helvetica,sans-Serif" font-size="10.00">layer_mutate</text>
</a>
</g>
</g>
<!-- Node1&#45;&gt;Node2 -->
<g id="edge1" class="edge">
<title>Node1&#45;&gt;Node2</title>
<path fill="none" stroke="midnightblue" d="M78.3,-35.65C86.63,-37.09 95.53,-38.63 104.1,-40.12"/>
<polygon fill="midnightblue" stroke="midnightblue" points="103.53,-43.57 113.98,-41.84 104.72,-36.68 103.53,-43.57"/>
</g>
<!-- Node3 -->
<g id="node3" class="node">
<title>Node3</title>
<g id="a_node3"><a xlink:href="neural__layer_8h.html#a7916662e52ccbd1ac34446ab20249d0d" target="_top" xlink:title="Resizes a layer using the previous layer&#39;s inputs.">
<polygon fill="none" stroke="black" points="116,-0.5 116,-19.5 185,-19.5 185,-0.5 116,-0.5"/>
<text text-anchor="middle" x="150.5" y="-7.5" font-family="Helvetica,sans-Serif" font-size="10.00">layer_resize</text>
</a>
</g>
</g>
<!-- Node1&#45;&gt;Node3 -->
<g id="edge2" class="edge">
<title>Node1&#45;&gt;Node3</title>
<path fill="none" stroke="midnightblue" d="M78.3,-22.35C87.17,-20.82 96.68,-19.17 105.76,-17.59"/>
<polygon fill="midnightblue" stroke="midnightblue" points="106.53,-21.01 115.79,-15.85 105.33,-14.11 106.53,-21.01"/>
</g>
</g>
</svg>
