<?xml version="1.0" encoding="UTF-8" standalone="no"?>
<!DOCTYPE svg PUBLIC "-//W3C//DTD SVG 1.1//EN"
 "http://www.w3.org/Graphics/SVG/1.1/DTD/svg11.dtd">
<!-- Generated by graphviz version 2.43.0 (0)
 -->
<!-- Title: neural_layer_recurrent_copy Pages: 1 -->
<svg width="525pt" height="104pt"
 viewBox="0.00 0.00 525.00 104.00" xmlns="http://www.w3.org/2000/svg" xmlns:xlink="http://www.w3.org/1999/xlink">
<g id="graph0" class="graph" transform="scale(1 1) rotate(0) translate(4 100)">
<title>neural_layer_recurrent_copy</title>
<!-- Node1 -->
<g id="node1" class="node">
<title>Node1</title>
<g id="a_node1"><a xlink:title="Initialises and creates a copy of one recurrent layer from another.">
<polygon fill="#bfbfbf" stroke="black" points="0,-38.5 0,-57.5 139,-57.5 139,-38.5 0,-38.5"/>
<text text-anchor="middle" x="69.5" y="-45.5" font-family="Helvetica,sans-Serif" font-size="10.00">neural_layer_recurrent_copy</text>
</a>
</g>
</g>
<!-- Node2 -->
<g id="node2" class="node">
<title>Node2</title>
<g id="a_node2"><a xlink:href="neural__layer_8h.html#a392e18d96d59f5739ebeec3b05d5b4ad" target="_top" xlink:title="Creates and returns a copy of a specified layer.">
<polygon fill="none" stroke="black" points="195,-76.5 195,-95.5 259,-95.5 259,-76.5 195,-76.5"/>
<text text-anchor="middle" x="227" y="-83.5" font-family="Helvetica,sans-Serif" font-size="10.00">layer_copy</text>
</a>
</g>
</g>
<!-- Node1&#45;&gt;Node2 -->
<g id="edge1" class="edge">
<title>Node1&#45;&gt;Node2</title>
<path fill="none" stroke="midnightblue" d="M109.74,-57.59C132.7,-63.2 161.66,-70.28 184.93,-75.96"/>
<polygon fill="midnightblue" stroke="midnightblue" points="184.31,-79.41 194.85,-78.39 185.97,-72.61 184.31,-79.41"/>
</g>
<!-- Node3 -->
<g id="node3" class="node">
<title>Node3</title>
<g id="a_node3"><a xlink:href="neural__layer_8c.html#a21a8acbaa483c46984c4f5f20d4edf95" target="_top" xlink:title="Initialises a layer to default values.">
<polygon fill="none" stroke="black" points="188.5,-38.5 188.5,-57.5 265.5,-57.5 265.5,-38.5 188.5,-38.5"/>
<text text-anchor="middle" x="227" y="-45.5" font-family="Helvetica,sans-Serif" font-size="10.00">layer_defaults</text>
</a>
</g>
</g>
<!-- Node1&#45;&gt;Node3 -->
<g id="edge2" class="edge">
<title>Node1&#45;&gt;Node3</title>
<path fill="none" stroke="midnightblue" d="M139.16,-48C152.38,-48 165.95,-48 178.33,-48"/>
<polygon fill="midnightblue" stroke="midnightblue" points="178.41,-51.5 188.41,-48 178.41,-44.5 178.41,-51.5"/>
</g>
<!-- Node4 -->
<g id="node4" class="node">
<title>Node4</title>
<g id="a_node4"><a xlink:href="neural__layer__recurrent_8c.html#a6e3344e46eea0817b14f3568ef81ff97" target="_top" xlink:title="Allocate memory used by a recurrent layer.">
<polygon fill="none" stroke="black" points="175,-0.5 175,-19.5 279,-19.5 279,-0.5 175,-0.5"/>
<text text-anchor="middle" x="227" y="-7.5" font-family="Helvetica,sans-Serif" font-size="10.00">malloc_layer_arrays</text>
</a>
</g>
</g>
<!-- Node1&#45;&gt;Node4 -->
<g id="edge3" class="edge">
<title>Node1&#45;&gt;Node4</title>
<path fill="none" stroke="midnightblue" d="M109.74,-38.41C130.26,-33.4 155.57,-27.21 177.33,-21.89"/>
<polygon fill="midnightblue" stroke="midnightblue" points="178.16,-25.29 187.04,-19.52 176.5,-18.49 178.16,-25.29"/>
</g>
<!-- Node5 -->
<g id="node5" class="node">
<title>Node5</title>
<g id="a_node5"><a xlink:href="neural__layer_8c.html#a99157f8bba089b8f6d617020cdc45d7b" target="_top" xlink:title="Check number of outputs is within bounds.">
<polygon fill="none" stroke="black" points="315,-0.5 315,-19.5 419,-19.5 419,-0.5 315,-0.5"/>
<text text-anchor="middle" x="367" y="-7.5" font-family="Helvetica,sans-Serif" font-size="10.00">layer_guard_outputs</text>
</a>
</g>
</g>
<!-- Node4&#45;&gt;Node5 -->
<g id="edge4" class="edge">
<title>Node4&#45;&gt;Node5</title>
<path fill="none" stroke="midnightblue" d="M279.39,-10C287.56,-10 296.08,-10 304.46,-10"/>
<polygon fill="midnightblue" stroke="midnightblue" points="304.57,-13.5 314.57,-10 304.57,-6.5 304.57,-13.5"/>
</g>
<!-- Node6 -->
<g id="node6" class="node">
<title>Node6</title>
<g id="a_node6"><a xlink:href="neural__layer_8h.html#af3da4af94dd537080a072c07c66d955d" target="_top" xlink:title="Prints the layer.">
<polygon fill="none" stroke="black" points="455,-0.5 455,-19.5 517,-19.5 517,-0.5 455,-0.5"/>
<text text-anchor="middle" x="486" y="-7.5" font-family="Helvetica,sans-Serif" font-size="10.00">layer_print</text>
</a>
</g>
</g>
<!-- Node5&#45;&gt;Node6 -->
<g id="edge5" class="edge">
<title>Node5&#45;&gt;Node6</title>
<path fill="none" stroke="midnightblue" d="M419.32,-10C427.87,-10 436.62,-10 444.84,-10"/>
<polygon fill="midnightblue" stroke="midnightblue" points="444.91,-13.5 454.91,-10 444.91,-6.5 444.91,-13.5"/>
</g>
</g>
</svg>
