<?xml version="1.0" encoding="UTF-8" standalone="no"?>
<!DOCTYPE svg PUBLIC "-//W3C//DTD SVG 1.1//EN"
 "http://www.w3.org/Graphics/SVG/1.1/DTD/svg11.dtd">
<!-- Generated by graphviz version 2.43.0 (0)
 -->
<!-- Title: layer_calc_n_active Pages: 1 -->
<svg width="609pt" height="198pt"
 viewBox="0.00 0.00 609.00 197.50" xmlns="http://www.w3.org/2000/svg" xmlns:xlink="http://www.w3.org/1999/xlink">
<g id="graph0" class="graph" transform="scale(1 1) rotate(0) translate(4 193.5)">
<title>layer_calc_n_active</title>
<!-- Node1 -->
<g id="node1" class="node">
<title>Node1</title>
<g id="a_node1"><a xlink:title="Recalculates the number of active connections within a layer.">
<polygon fill="#bfbfbf" stroke="black" points="498,-79 498,-98 601,-98 601,-79 498,-79"/>
<text text-anchor="middle" x="549.5" y="-86" font-family="Helvetica,sans-Serif" font-size="10.00">layer_calc_n_active</text>
</a>
</g>
</g>
<!-- Node2 -->
<g id="node2" class="node">
<title>Node2</title>
<g id="a_node2"><a xlink:href="neural__layer_8c.html#a9bdb16a2c9164cf5895c9a7af9adc051" target="_top" xlink:title="Adds N neurons to a layer. Negative N removes neurons.">
<polygon fill="none" stroke="black" points="347.5,-148 347.5,-167 445.5,-167 445.5,-148 347.5,-148"/>
<text text-anchor="middle" x="396.5" y="-155" font-family="Helvetica,sans-Serif" font-size="10.00">layer_add_neurons</text>
</a>
</g>
</g>
<!-- Node1&#45;&gt;Node2 -->
<g id="edge1" class="edge">
<title>Node1&#45;&gt;Node2</title>
<path fill="none" stroke="midnightblue" d="M525.31,-103.46C508.28,-113.98 484.32,-127.85 462,-137.5 452.85,-141.45 442.67,-144.99 433.15,-147.94"/>
<polygon fill="midnightblue" stroke="midnightblue" points="527.39,-106.28 534,-98 523.67,-100.35 527.39,-106.28"/>
</g>
<!-- Node6 -->
<g id="node6" class="node">
<title>Node6</title>
<g id="a_node6"><a xlink:href="neural__layer__connected_8c.html#a59fadd69e4cf947b9c23f10e6a30e6dc" target="_top" xlink:title="Resizes a connected layer if the previous layer has changed size.">
<polygon fill="none" stroke="black" points="337,-98.5 337,-128.5 456,-128.5 456,-98.5 337,-98.5"/>
<text text-anchor="start" x="345" y="-116.5" font-family="Helvetica,sans-Serif" font-size="10.00">neural_layer_connected</text>
<text text-anchor="middle" x="396.5" y="-105.5" font-family="Helvetica,sans-Serif" font-size="10.00">_resize</text>
</a>
</g>
</g>
<!-- Node1&#45;&gt;Node6 -->
<g id="edge5" class="edge">
<title>Node1&#45;&gt;Node6</title>
<path fill="none" stroke="midnightblue" d="M487.91,-98.53C477.44,-100.26 466.57,-102.06 456.15,-103.79"/>
<polygon fill="midnightblue" stroke="midnightblue" points="488.51,-101.98 497.8,-96.89 487.36,-95.07 488.51,-101.98"/>
</g>
<!-- Node7 -->
<g id="node7" class="node">
<title>Node7</title>
<g id="a_node7"><a xlink:href="neural__layer__convolutional_8c.html#ac1583df380d50d47c53b64a3e7614269" target="_top" xlink:title="Adds N filters to a layer. Negative N removes filters.">
<polygon fill="none" stroke="black" points="331,-49.5 331,-79.5 462,-79.5 462,-49.5 331,-49.5"/>
<text text-anchor="start" x="339" y="-67.5" font-family="Helvetica,sans-Serif" font-size="10.00">neural_layer_convolutional</text>
<text text-anchor="middle" x="396.5" y="-56.5" font-family="Helvetica,sans-Serif" font-size="10.00">_add_filters</text>
</a>
</g>
</g>
<!-- Node1&#45;&gt;Node7 -->
<g id="edge6" class="edge">
<title>Node1&#45;&gt;Node7</title>
<path fill="none" stroke="midnightblue" d="M487.66,-78.83C479.21,-77.49 470.52,-76.11 462.01,-74.75"/>
<polygon fill="midnightblue" stroke="midnightblue" points="487.37,-82.33 497.8,-80.44 488.47,-75.42 487.37,-82.33"/>
</g>
<!-- Node9 -->
<g id="node9" class="node">
<title>Node9</title>
<g id="a_node9"><a xlink:href="neural__layer__convolutional_8c.html#a6c9ca01e07720bcdade79e664bed4c05" target="_top" xlink:title="Resizes a convolutional layer if the previous layer has changed size.">
<polygon fill="none" stroke="black" points="331,-0.5 331,-30.5 462,-30.5 462,-0.5 331,-0.5"/>
<text text-anchor="start" x="339" y="-18.5" font-family="Helvetica,sans-Serif" font-size="10.00">neural_layer_convolutional</text>
<text text-anchor="middle" x="396.5" y="-7.5" font-family="Helvetica,sans-Serif" font-size="10.00">_resize</text>
</a>
</g>
</g>
<!-- Node1&#45;&gt;Node9 -->
<g id="edge8" class="edge">
<title>Node1&#45;&gt;Node9</title>
<path fill="none" stroke="midnightblue" d="M524.52,-73.55C507.46,-63.25 483.78,-49.64 462,-39.5 455.28,-36.37 448.04,-33.35 440.91,-30.57"/>
<polygon fill="midnightblue" stroke="midnightblue" points="522.91,-76.66 533.27,-78.88 526.55,-70.69 522.91,-76.66"/>
</g>
<!-- Node3 -->
<g id="node3" class="node">
<title>Node3</title>
<g id="a_node3"><a xlink:href="neural__layer__lstm_8c.html#a804cc1f15baeb4bb507dc449b8e3dcfd" target="_top" xlink:title="Mutates the number of neurons in an LSTM layer.">
<polygon fill="none" stroke="black" points="186.5,-170 186.5,-189 272.5,-189 272.5,-170 186.5,-170"/>
<text text-anchor="middle" x="229.5" y="-177" font-family="Helvetica,sans-Serif" font-size="10.00">mutate_neurons</text>
</a>
</g>
</g>
<!-- Node2&#45;&gt;Node3 -->
<g id="edge2" class="edge">
<title>Node2&#45;&gt;Node3</title>
<path fill="none" stroke="midnightblue" d="M337.39,-165.25C316.02,-168.1 292.25,-171.27 272.56,-173.89"/>
<polygon fill="midnightblue" stroke="midnightblue" points="337.88,-168.71 347.33,-163.92 336.96,-161.77 337.88,-168.71"/>
</g>
<!-- Node5 -->
<g id="node5" class="node">
<title>Node5</title>
<g id="a_node5"><a xlink:href="neural__layer__connected_8c.html#abfd38ab832a6f70d7b61065fe3dc25c3" target="_top" xlink:title="Mutates a connected layer.">
<polygon fill="none" stroke="black" points="170,-120.5 170,-150.5 289,-150.5 289,-120.5 170,-120.5"/>
<text text-anchor="start" x="178" y="-138.5" font-family="Helvetica,sans-Serif" font-size="10.00">neural_layer_connected</text>
<text text-anchor="middle" x="229.5" y="-127.5" font-family="Helvetica,sans-Serif" font-size="10.00">_mutate</text>
</a>
</g>
</g>
<!-- Node2&#45;&gt;Node5 -->
<g id="edge4" class="edge">
<title>Node2&#45;&gt;Node5</title>
<path fill="none" stroke="midnightblue" d="M337.3,-149.74C321.72,-147.66 304.87,-145.42 289.26,-143.33"/>
<polygon fill="midnightblue" stroke="midnightblue" points="336.96,-153.23 347.33,-151.08 337.88,-146.29 336.96,-153.23"/>
</g>
<!-- Node4 -->
<g id="node4" class="node">
<title>Node4</title>
<g id="a_node4"><a xlink:href="neural__layer__lstm_8c.html#a4324dc3fbf9a44f60c956a467a5ff73b" target="_top" xlink:title="Mutates an LSTM layer.">
<polygon fill="none" stroke="black" points="0,-170 0,-189 128,-189 128,-170 0,-170"/>
<text text-anchor="middle" x="64" y="-177" font-family="Helvetica,sans-Serif" font-size="10.00">neural_layer_lstm_mutate</text>
</a>
</g>
</g>
<!-- Node3&#45;&gt;Node4 -->
<g id="edge3" class="edge">
<title>Node3&#45;&gt;Node4</title>
<path fill="none" stroke="midnightblue" d="M176.13,-179.5C160.89,-179.5 144.09,-179.5 128.26,-179.5"/>
<polygon fill="midnightblue" stroke="midnightblue" points="176.39,-183 186.39,-179.5 176.39,-176 176.39,-183"/>
</g>
<!-- Node8 -->
<g id="node8" class="node">
<title>Node8</title>
<g id="a_node8"><a xlink:href="neural__layer__convolutional_8c.html#a9e4f5fb82855910a5a4fecad093033db" target="_top" xlink:title="Mutates a convolutional layer.">
<polygon fill="none" stroke="black" points="164,-49.5 164,-79.5 295,-79.5 295,-49.5 164,-49.5"/>
<text text-anchor="start" x="172" y="-67.5" font-family="Helvetica,sans-Serif" font-size="10.00">neural_layer_convolutional</text>
<text text-anchor="middle" x="229.5" y="-56.5" font-family="Helvetica,sans-Serif" font-size="10.00">_mutate</text>
</a>
</g>
</g>
<!-- Node7&#45;&gt;Node8 -->
<g id="edge7" class="edge">
<title>Node7&#45;&gt;Node8</title>
<path fill="none" stroke="midnightblue" d="M320.76,-64.5C312.18,-64.5 303.48,-64.5 295.05,-64.5"/>
<polygon fill="midnightblue" stroke="midnightblue" points="320.76,-68 330.76,-64.5 320.76,-61 320.76,-68"/>
</g>
</g>
</svg>
