<?xml version="1.0" encoding="UTF-8" standalone="no"?>
<!DOCTYPE svg PUBLIC "-//W3C//DTD SVG 1.1//EN"
 "http://www.w3.org/Graphics/SVG/1.1/DTD/svg11.dtd">
<!-- Generated by graphviz version 2.43.0 (0)
 -->
<!-- Title: layer_ensure_input_represention Pages: 1 -->
<svg width="261pt" height="88pt"
 viewBox="0.00 0.00 261.00 88.00" xmlns="http://www.w3.org/2000/svg" xmlns:xlink="http://www.w3.org/1999/xlink">
<g id="graph0" class="graph" transform="scale(1 1) rotate(0) translate(4 84)">
<title>layer_ensure_input_represention</title>
<!-- Node1 -->
<g id="node1" class="node">
<title>Node1</title>
<g id="a_node1"><a xlink:title="Ensures that each neuron is connected to at least one input and each input is connected to at least o...">
<polygon fill="#bfbfbf" stroke="black" points="155,-24.5 155,-54.5 253,-54.5 253,-24.5 155,-24.5"/>
<text text-anchor="start" x="163" y="-42.5" font-family="Helvetica,sans-Serif" font-size="10.00">layer_ensure_input</text>
<text text-anchor="middle" x="204" y="-31.5" font-family="Helvetica,sans-Serif" font-size="10.00">_represention</text>
</a>
</g>
</g>
<!-- Node2 -->
<g id="node2" class="node">
<title>Node2</title>
<g id="a_node2"><a xlink:href="neural__layer__connected_8h.html#ab59f3e8b771bc16a96229f1fe22c840a" target="_top" xlink:title=" ">
<polygon fill="none" stroke="black" points="0,-49.5 0,-79.5 119,-79.5 119,-49.5 0,-49.5"/>
<text text-anchor="start" x="8" y="-67.5" font-family="Helvetica,sans-Serif" font-size="10.00">neural_layer_connected</text>
<text text-anchor="middle" x="59.5" y="-56.5" font-family="Helvetica,sans-Serif" font-size="10.00">_mutate</text>
</a>
</g>
</g>
<!-- Node1&#45;&gt;Node2 -->
<g id="edge1" class="edge">
<title>Node1&#45;&gt;Node2</title>
<path fill="none" stroke="midnightblue" d="M144.9,-49.69C136.38,-51.19 127.6,-52.73 119.06,-54.23"/>
<polygon fill="midnightblue" stroke="midnightblue" points="145.51,-53.14 154.76,-47.96 144.3,-46.24 145.51,-53.14"/>
</g>
<!-- Node3 -->
<g id="node3" class="node">
<title>Node3</title>
<g id="a_node3"><a xlink:href="neural__layer__connected_8h.html#ac688a7b816df0b7ae0cf77a4d075ef3d" target="_top" xlink:title=" ">
<polygon fill="none" stroke="black" points="0,-0.5 0,-30.5 119,-30.5 119,-0.5 0,-0.5"/>
<text text-anchor="start" x="8" y="-18.5" font-family="Helvetica,sans-Serif" font-size="10.00">neural_layer_connected</text>
<text text-anchor="middle" x="59.5" y="-7.5" font-family="Helvetica,sans-Serif" font-size="10.00">_resize</text>
</a>
</g>
</g>
<!-- Node1&#45;&gt;Node3 -->
<g id="edge2" class="edge">
<title>Node1&#45;&gt;Node3</title>
<path fill="none" stroke="midnightblue" d="M144.62,-29.67C136.19,-28.25 127.5,-26.78 119.06,-25.36"/>
<polygon fill="midnightblue" stroke="midnightblue" points="144.31,-33.17 154.76,-31.37 145.48,-26.26 144.31,-33.17"/>
</g>
</g>
</svg>
