<?xml version="1.0" encoding="UTF-8" standalone="no"?>
<!DOCTYPE svg PUBLIC "-//W3C//DTD SVG 1.1//EN"
 "http://www.w3.org/Graphics/SVG/1.1/DTD/svg11.dtd">
<!-- Generated by graphviz version 2.43.0 (0)
 -->
<!-- Title: neural_activations.c Pages: 1 -->
<svg width="551pt" height="252pt"
 viewBox="0.00 0.00 550.50 252.00" xmlns="http://www.w3.org/2000/svg" xmlns:xlink="http://www.w3.org/1999/xlink">
<g id="graph0" class="graph" transform="scale(1 1) rotate(0) translate(4 248)">
<title>neural_activations.c</title>
<!-- Node1 -->
<g id="node1" class="node">
<title>Node1</title>
<g id="a_node1"><a xlink:title="Neural network activation functions.">
<polygon fill="#bfbfbf" stroke="black" points="145.5,-224.5 145.5,-243.5 249.5,-243.5 249.5,-224.5 145.5,-224.5"/>
<text text-anchor="middle" x="197.5" y="-231.5" font-family="Helvetica,sans-Serif" font-size="10.00">neural_activations.c</text>
</a>
</g>
</g>
<!-- Node2 -->
<g id="node2" class="node">
<title>Node2</title>
<g id="a_node2"><a xlink:href="neural__activations_8h.html" target="_top" xlink:title="Neural network activation functions.">
<polygon fill="none" stroke="black" points="47.5,-168.5 47.5,-187.5 151.5,-187.5 151.5,-168.5 47.5,-168.5"/>
<text text-anchor="middle" x="99.5" y="-175.5" font-family="Helvetica,sans-Serif" font-size="10.00">neural_activations.h</text>
</a>
</g>
</g>
<!-- Node1&#45;&gt;Node2 -->
<g id="edge1" class="edge">
<title>Node1&#45;&gt;Node2</title>
<path fill="none" stroke="midnightblue" d="M181.75,-224.32C166.18,-215.74 142.12,-202.49 124.04,-192.52"/>
<polygon fill="midnightblue" stroke="midnightblue" points="125.65,-189.42 115.21,-187.65 122.28,-195.55 125.65,-189.42"/>
</g>
<!-- Node4 -->
<g id="node4" class="node">
<title>Node4</title>
<g id="a_node4"><a xlink:href="neural__layer_8h.html" target="_top" xlink:title="Interface for neural network layers.">
<polygon fill="none" stroke="black" points="238,-168.5 238,-187.5 315,-187.5 315,-168.5 238,-168.5"/>
<text text-anchor="middle" x="276.5" y="-175.5" font-family="Helvetica,sans-Serif" font-size="10.00">neural_layer.h</text>
</a>
</g>
</g>
<!-- Node1&#45;&gt;Node4 -->
<g id="edge3" class="edge">
<title>Node1&#45;&gt;Node4</title>
<path fill="none" stroke="midnightblue" d="M210.19,-224.32C222.4,-215.98 241.08,-203.21 255.5,-193.35"/>
<polygon fill="midnightblue" stroke="midnightblue" points="257.56,-196.19 263.84,-187.65 253.61,-190.41 257.56,-196.19"/>
</g>
<!-- Node6 -->
<g id="node6" class="node">
<title>Node6</title>
<g id="a_node6"><a xlink:href="utils_8h.html" target="_top" xlink:title="Utility functions for random number handling, etc.">
<polygon fill="none" stroke="black" points="255,-56.5 255,-75.5 298,-75.5 298,-56.5 255,-56.5"/>
<text text-anchor="middle" x="276.5" y="-63.5" font-family="Helvetica,sans-Serif" font-size="10.00">utils.h</text>
</a>
</g>
</g>
<!-- Node1&#45;&gt;Node6 -->
<g id="edge19" class="edge">
<title>Node1&#45;&gt;Node6</title>
<path fill="none" stroke="midnightblue" d="M196.85,-224.35C195.7,-203.42 195.22,-149.04 217.5,-112 225.33,-98.98 238.47,-88.41 250.36,-80.79"/>
<polygon fill="midnightblue" stroke="midnightblue" points="252.33,-83.69 259.1,-75.55 248.73,-77.69 252.33,-83.69"/>
</g>
<!-- Node3 -->
<g id="node3" class="node">
<title>Node3</title>
<g id="a_node3"><a xlink:title=" ">
<polygon fill="none" stroke="#bfbfbf" points="0,-0.5 0,-19.5 47,-19.5 47,-0.5 0,-0.5"/>
<text text-anchor="middle" x="23.5" y="-7.5" font-family="Helvetica,sans-Serif" font-size="10.00">math.h</text>
</a>
</g>
</g>
<!-- Node2&#45;&gt;Node3 -->
<g id="edge2" class="edge">
<title>Node2&#45;&gt;Node3</title>
<path fill="none" stroke="midnightblue" d="M95.41,-168.08C83.35,-141.72 47.71,-63.88 31.59,-28.66"/>
<polygon fill="midnightblue" stroke="midnightblue" points="34.77,-27.2 27.42,-19.57 28.4,-30.12 34.77,-27.2"/>
</g>
<!-- Node5 -->
<g id="node5" class="node">
<title>Node5</title>
<g id="a_node5"><a xlink:href="neural_8h.html" target="_top" xlink:title="An implementation of a multi&#45;layer perceptron neural network.">
<polygon fill="none" stroke="black" points="345,-112.5 345,-131.5 396,-131.5 396,-112.5 345,-112.5"/>
<text text-anchor="middle" x="370.5" y="-119.5" font-family="Helvetica,sans-Serif" font-size="10.00">neural.h</text>
</a>
</g>
</g>
<!-- Node4&#45;&gt;Node5 -->
<g id="edge4" class="edge">
<title>Node4&#45;&gt;Node5</title>
<path fill="none" stroke="midnightblue" d="M291.6,-168.32C306.4,-159.82 329.19,-146.73 346.48,-136.8"/>
<polygon fill="midnightblue" stroke="midnightblue" points="348.51,-139.67 355.43,-131.65 345.02,-133.6 348.51,-139.67"/>
</g>
<!-- Node14 -->
<g id="node14" class="node">
<title>Node14</title>
<g id="a_node14"><a xlink:href="neural__layer__args_8h.html" target="_top" xlink:title="Functions operating on neural network arguments/constants.">
<polygon fill="none" stroke="black" points="226,-112.5 226,-131.5 327,-131.5 327,-112.5 226,-112.5"/>
<text text-anchor="middle" x="276.5" y="-119.5" font-family="Helvetica,sans-Serif" font-size="10.00">neural_layer_args.h</text>
</a>
</g>
</g>
<!-- Node4&#45;&gt;Node14 -->
<g id="edge17" class="edge">
<title>Node4&#45;&gt;Node14</title>
<path fill="none" stroke="midnightblue" d="M276.5,-168.08C276.5,-161.01 276.5,-150.86 276.5,-141.99"/>
<polygon fill="midnightblue" stroke="midnightblue" points="280,-141.75 276.5,-131.75 273,-141.75 280,-141.75"/>
</g>
<!-- Node5&#45;&gt;Node6 -->
<g id="edge5" class="edge">
<title>Node5&#45;&gt;Node6</title>
<path fill="none" stroke="midnightblue" d="M355.4,-112.32C340.6,-103.82 317.81,-90.73 300.52,-80.8"/>
<polygon fill="midnightblue" stroke="midnightblue" points="301.98,-77.6 291.57,-75.65 298.49,-83.67 301.98,-77.6"/>
</g>
<!-- Node9 -->
<g id="node9" class="node">
<title>Node9</title>
<g id="a_node9"><a xlink:title=" ">
<polygon fill="none" stroke="#bfbfbf" points="486.5,-0.5 486.5,-19.5 542.5,-19.5 542.5,-0.5 486.5,-0.5"/>
<text text-anchor="middle" x="514.5" y="-7.5" font-family="Helvetica,sans-Serif" font-size="10.00">stdbool.h</text>
</a>
</g>
</g>
<!-- Node5&#45;&gt;Node9 -->
<g id="edge12" class="edge">
<title>Node5&#45;&gt;Node9</title>
<path fill="none" stroke="midnightblue" d="M396.2,-121.88C431.11,-121.51 492.48,-114.93 521.5,-76 531.45,-62.66 527.7,-43.28 522.69,-29.15"/>
<polygon fill="midnightblue" stroke="midnightblue" points="525.8,-27.52 518.81,-19.56 519.31,-30.14 525.8,-27.52"/>
</g>
<!-- Node10 -->
<g id="node10" class="node">
<title>Node10</title>
<g id="a_node10"><a xlink:title=" ">
<polygon fill="none" stroke="#bfbfbf" points="329.5,-0.5 329.5,-19.5 375.5,-19.5 375.5,-0.5 329.5,-0.5"/>
<text text-anchor="middle" x="352.5" y="-7.5" font-family="Helvetica,sans-Serif" font-size="10.00">stdio.h</text>
</a>
</g>
</g>
<!-- Node5&#45;&gt;Node10 -->
<g id="edge14" class="edge">
<title>Node5&#45;&gt;Node10</title>
<path fill="none" stroke="midnightblue" d="M366.18,-112.3C362.02,-103.42 356,-89.13 353.5,-76 350.56,-60.57 350.52,-42.69 351.1,-29.6"/>
<polygon fill="midnightblue" stroke="midnightblue" points="354.6,-29.7 351.71,-19.51 347.61,-29.28 354.6,-29.7"/>
</g>
<!-- Node11 -->
<g id="node11" class="node">
<title>Node11</title>
<g id="a_node11"><a xlink:title=" ">
<polygon fill="none" stroke="#bfbfbf" points="393.5,-0.5 393.5,-19.5 441.5,-19.5 441.5,-0.5 393.5,-0.5"/>
<text text-anchor="middle" x="417.5" y="-7.5" font-family="Helvetica,sans-Serif" font-size="10.00">stdlib.h</text>
</a>
</g>
</g>
<!-- Node5&#45;&gt;Node11 -->
<g id="edge15" class="edge">
<title>Node5&#45;&gt;Node11</title>
<path fill="none" stroke="midnightblue" d="M371.83,-112.28C373.99,-99.51 378.9,-75.15 387.5,-56 391.91,-46.17 398.4,-36.1 404.22,-27.99"/>
<polygon fill="midnightblue" stroke="midnightblue" points="407.17,-29.89 410.35,-19.78 401.56,-25.7 407.17,-29.89"/>
</g>
<!-- Node12 -->
<g id="node12" class="node">
<title>Node12</title>
<g id="a_node12"><a xlink:title=" ">
<polygon fill="none" stroke="#bfbfbf" points="396,-56.5 396,-75.5 445,-75.5 445,-56.5 396,-56.5"/>
<text text-anchor="middle" x="420.5" y="-63.5" font-family="Helvetica,sans-Serif" font-size="10.00">stdint.h</text>
</a>
</g>
</g>
<!-- Node5&#45;&gt;Node12 -->
<g id="edge13" class="edge">
<title>Node5&#45;&gt;Node12</title>
<path fill="none" stroke="midnightblue" d="M378.76,-112.08C385.96,-104.3 396.61,-92.8 405.35,-83.37"/>
<polygon fill="midnightblue" stroke="midnightblue" points="408.17,-85.47 412.4,-75.75 403.03,-80.71 408.17,-85.47"/>
</g>
<!-- Node13 -->
<g id="node13" class="node">
<title>Node13</title>
<g id="a_node13"><a xlink:title=" ">
<polygon fill="none" stroke="#bfbfbf" points="463,-56.5 463,-75.5 512,-75.5 512,-56.5 463,-56.5"/>
<text text-anchor="middle" x="487.5" y="-63.5" font-family="Helvetica,sans-Serif" font-size="10.00">string.h</text>
</a>
</g>
</g>
<!-- Node5&#45;&gt;Node13 -->
<g id="edge16" class="edge">
<title>Node5&#45;&gt;Node13</title>
<path fill="none" stroke="midnightblue" d="M389.04,-112.44C408.12,-103.64 438.07,-89.81 459.94,-79.72"/>
<polygon fill="midnightblue" stroke="midnightblue" points="461.43,-82.88 469.05,-75.52 458.5,-76.53 461.43,-82.88"/>
</g>
<!-- Node6&#45;&gt;Node3 -->
<g id="edge8" class="edge">
<title>Node6&#45;&gt;Node3</title>
<path fill="none" stroke="midnightblue" d="M254.85,-61.05C216.91,-54.03 135.76,-38.56 57.3,-20.06"/>
<polygon fill="midnightblue" stroke="midnightblue" points="57.78,-16.58 47.25,-17.67 56.17,-23.39 57.78,-16.58"/>
</g>
<!-- Node7 -->
<g id="node7" class="node">
<title>Node7</title>
<g id="a_node7"><a xlink:title=" ">
<polygon fill="none" stroke="#bfbfbf" points="65.5,-0.5 65.5,-19.5 179.5,-19.5 179.5,-0.5 65.5,-0.5"/>
<text text-anchor="middle" x="122.5" y="-7.5" font-family="Helvetica,sans-Serif" font-size="10.00">../lib/cJSON/cJSON.h</text>
</a>
</g>
</g>
<!-- Node6&#45;&gt;Node7 -->
<g id="edge6" class="edge">
<title>Node6&#45;&gt;Node7</title>
<path fill="none" stroke="midnightblue" d="M254.76,-57.38C229.21,-48.42 186.5,-33.44 156.55,-22.94"/>
<polygon fill="midnightblue" stroke="midnightblue" points="157.52,-19.57 146.92,-19.56 155.2,-26.18 157.52,-19.57"/>
</g>
<!-- Node8 -->
<g id="node8" class="node">
<title>Node8</title>
<g id="a_node8"><a xlink:title=" ">
<polygon fill="none" stroke="#bfbfbf" points="198,-0.5 198,-19.5 311,-19.5 311,-0.5 198,-0.5"/>
<text text-anchor="middle" x="254.5" y="-7.5" font-family="Helvetica,sans-Serif" font-size="10.00">../lib/dSFMT/dSFMT.h</text>
</a>
</g>
</g>
<!-- Node6&#45;&gt;Node8 -->
<g id="edge7" class="edge">
<title>Node6&#45;&gt;Node8</title>
<path fill="none" stroke="midnightblue" d="M272.87,-56.08C269.89,-48.77 265.57,-38.18 261.88,-29.1"/>
<polygon fill="midnightblue" stroke="midnightblue" points="265.08,-27.69 258.07,-19.75 258.6,-30.33 265.08,-27.69"/>
</g>
<!-- Node6&#45;&gt;Node9 -->
<g id="edge9" class="edge">
<title>Node6&#45;&gt;Node9</title>
<path fill="none" stroke="midnightblue" d="M298.04,-60.11C338.4,-50.96 425.87,-31.11 476.4,-19.65"/>
<polygon fill="midnightblue" stroke="midnightblue" points="477.31,-23.03 486.29,-17.4 475.76,-16.2 477.31,-23.03"/>
</g>
<!-- Node6&#45;&gt;Node10 -->
<g id="edge10" class="edge">
<title>Node6&#45;&gt;Node10</title>
<path fill="none" stroke="midnightblue" d="M288.71,-56.32C300.28,-48.11 317.88,-35.6 331.66,-25.81"/>
<polygon fill="midnightblue" stroke="midnightblue" points="333.94,-28.48 340.07,-19.83 329.89,-22.77 333.94,-28.48"/>
</g>
<!-- Node6&#45;&gt;Node11 -->
<g id="edge11" class="edge">
<title>Node6&#45;&gt;Node11</title>
<path fill="none" stroke="midnightblue" d="M298.22,-56.68C321.51,-47.76 358.73,-33.51 385.4,-23.29"/>
<polygon fill="midnightblue" stroke="midnightblue" points="386.97,-26.44 395.05,-19.6 384.46,-19.9 386.97,-26.44"/>
</g>
<!-- Node14&#45;&gt;Node6 -->
<g id="edge18" class="edge">
<title>Node14&#45;&gt;Node6</title>
<path fill="none" stroke="midnightblue" d="M276.5,-112.08C276.5,-105.01 276.5,-94.86 276.5,-85.99"/>
<polygon fill="midnightblue" stroke="midnightblue" points="280,-85.75 276.5,-75.75 273,-85.75 280,-85.75"/>
</g>
</g>
</svg>
