<?xml version="1.0" encoding="UTF-8" standalone="no"?>
<!DOCTYPE svg PUBLIC "-//W3C//DTD SVG 1.1//EN"
 "http://www.w3.org/Graphics/SVG/1.1/DTD/svg11.dtd">
<!-- Generated by graphviz version 2.43.0 (0)
 -->
<!-- Title: neural_layer_connected_update Pages: 1 -->
<svg width="345pt" height="101pt"
 viewBox="0.00 0.00 345.00 101.00" xmlns="http://www.w3.org/2000/svg" xmlns:xlink="http://www.w3.org/1999/xlink">
<g id="graph0" class="graph" transform="scale(1 1) rotate(0) translate(4 97)">
<title>neural_layer_connected_update</title>
<!-- Node1 -->
<g id="Node000001" class="node">
<title>Node1</title>
<g id="a_Node000001"><a xlink:title="Updates the weights and biases of a connected layer.">
<polygon fill="#999999" stroke="#666666" points="119,-61.5 0,-61.5 0,-31.5 119,-31.5 119,-61.5"/>
<text text-anchor="start" x="8" y="-49.5" font-family="Helvetica,sans-Serif" font-size="10.00">neural_layer_connected</text>
<text text-anchor="middle" x="59.5" y="-38.5" font-family="Helvetica,sans-Serif" font-size="10.00">_update</text>
</a>
</g>
</g>
<!-- Node2 -->
<g id="Node000002" class="node">
<title>Node2</title>
<g id="a_Node000002"><a xlink:href="blas_8c.html#ad4fa7c98f973bedeaf96fa3757229876" target="_top" xlink:title="Multiplies vector X by the scalar ALPHA and adds it to the vector Y.">
<polygon fill="white" stroke="#666666" points="237,-93 176,-93 176,-74 237,-74 237,-93"/>
<text text-anchor="middle" x="206.5" y="-81" font-family="Helvetica,sans-Serif" font-size="10.00">blas_axpy</text>
</a>
</g>
</g>
<!-- Node1&#45;&gt;Node2 -->
<g id="edge1_Node000001_Node000002" class="edge">
<title>Node1&#45;&gt;Node2</title>
<g id="a_edge1_Node000001_Node000002"><a xlink:title=" ">
<path fill="none" stroke="#63b8ff" d="M119.06,-61.44C134.74,-65.45 151.33,-69.68 165.74,-73.35"/>
<polygon fill="#63b8ff" stroke="#63b8ff" points="165.25,-76.84 175.8,-75.92 166.98,-70.06 165.25,-76.84"/>
</a>
</g>
</g>
<!-- Node3 -->
<g id="Node000003" class="node">
<title>Node3</title>
<g id="a_Node000003"><a xlink:href="blas_8c.html#a59634a37fd370ffc05eb458503c5ab53" target="_top" xlink:title="Scales vector X by the scalar ALPHA and overwrites it with the result.">
<polygon fill="white" stroke="#666666" points="235.5,-56 177.5,-56 177.5,-37 235.5,-37 235.5,-56"/>
<text text-anchor="middle" x="206.5" y="-44" font-family="Helvetica,sans-Serif" font-size="10.00">blas_scal</text>
</a>
</g>
</g>
<!-- Node1&#45;&gt;Node3 -->
<g id="edge2_Node000001_Node000003" class="edge">
<title>Node1&#45;&gt;Node3</title>
<g id="a_edge2_Node000001_Node000003"><a xlink:title=" ">
<path fill="none" stroke="#63b8ff" d="M119.06,-46.5C135.25,-46.5 152.41,-46.5 167.13,-46.5"/>
<polygon fill="#63b8ff" stroke="#63b8ff" points="167.37,-50 177.37,-46.5 167.37,-43 167.37,-50"/>
</a>
</g>
</g>
<!-- Node4 -->
<g id="Node000004" class="node">
<title>Node4</title>
<g id="a_Node000004"><a xlink:href="neural__layer_8c.html#a80e54e8cdbe0776d6cc739f1a50ffd26" target="_top" xlink:title="Clamps a layer&#39;s weights and biases in range [WEIGHT_MIN, WEIGHT_MAX].">
<polygon fill="white" stroke="#666666" points="258,-19 155,-19 155,0 258,0 258,-19"/>
<text text-anchor="middle" x="206.5" y="-7" font-family="Helvetica,sans-Serif" font-size="10.00">layer_weight_clamp</text>
</a>
</g>
</g>
<!-- Node1&#45;&gt;Node4 -->
<g id="edge3_Node000001_Node000004" class="edge">
<title>Node1&#45;&gt;Node4</title>
<g id="a_edge3_Node000001_Node000004"><a xlink:title=" ">
<path fill="none" stroke="#63b8ff" d="M119.06,-31.56C132.08,-28.23 145.73,-24.75 158.23,-21.56"/>
<polygon fill="#63b8ff" stroke="#63b8ff" points="159.16,-24.94 167.98,-19.07 157.43,-18.15 159.16,-24.94"/>
</a>
</g>
</g>
<!-- Node5 -->
<g id="Node000005" class="node">
<title>Node5</title>
<g id="a_Node000005"><a xlink:href="utils_8h.html#a234dd9ca33bcf1fba3e675bc900abc88" target="_top" xlink:title="Returns a float clamped within the specified range.">
<polygon fill="white" stroke="#666666" points="337,-19 294,-19 294,0 337,0 337,-19"/>
<text text-anchor="middle" x="315.5" y="-7" font-family="Helvetica,sans-Serif" font-size="10.00">clamp</text>
</a>
</g>
</g>
<!-- Node4&#45;&gt;Node5 -->
<g id="edge4_Node000004_Node000005" class="edge">
<title>Node4&#45;&gt;Node5</title>
<g id="a_edge4_Node000004_Node000005"><a xlink:title=" ">
<path fill="none" stroke="#63b8ff" d="M258.18,-9.5C266.87,-9.5 275.66,-9.5 283.63,-9.5"/>
<polygon fill="#63b8ff" stroke="#63b8ff" points="283.9,-13 293.9,-9.5 283.9,-6 283.9,-13"/>
</a>
</g>
</g>
</g>
</svg>
