<?xml version="1.0" encoding="UTF-8" standalone="no"?>
<!DOCTYPE svg PUBLIC "-//W3C//DTD SVG 1.1//EN"
 "http://www.w3.org/Graphics/SVG/1.1/DTD/svg11.dtd">
<!-- Generated by graphviz version 2.43.0 (0)
 -->
<!-- Title: neural_create Pages: 1 -->
<svg width="826pt" height="180pt"
 viewBox="0.00 0.00 826.00 180.00" xmlns="http://www.w3.org/2000/svg" xmlns:xlink="http://www.w3.org/1999/xlink">
<g id="graph0" class="graph" transform="scale(1 1) rotate(0) translate(4 176)">
<title>neural_create</title>
<!-- Node1 -->
<g id="node1" class="node">
<title>Node1</title>
<g id="a_node1"><a xlink:title="Initialises and creates a new neural network from a parameter list.">
<polygon fill="#bfbfbf" stroke="black" points="743,-76.5 743,-95.5 818,-95.5 818,-76.5 743,-76.5"/>
<text text-anchor="middle" x="780.5" y="-83.5" font-family="Helvetica,sans-Serif" font-size="10.00">neural_create</text>
</a>
</g>
</g>
<!-- Node2 -->
<g id="node2" class="node">
<title>Node2</title>
<g id="a_node2"><a xlink:href="act__neural_8c.html#abbdbc4d92f139ccc9816289233dbf934" target="_top" xlink:title="Creates and initialises an action neural network.">
<polygon fill="none" stroke="black" points="608.5,-152.5 608.5,-171.5 688.5,-171.5 688.5,-152.5 608.5,-152.5"/>
<text text-anchor="middle" x="648.5" y="-159.5" font-family="Helvetica,sans-Serif" font-size="10.00">act_neural_init</text>
</a>
</g>
</g>
<!-- Node1&#45;&gt;Node2 -->
<g id="edge1" class="edge">
<title>Node1&#45;&gt;Node2</title>
<path fill="none" stroke="midnightblue" d="M762.1,-102.54C748.13,-115.09 727.52,-131.98 707,-143 700.15,-146.68 692.45,-149.82 684.97,-152.42"/>
<polygon fill="midnightblue" stroke="midnightblue" points="764.51,-105.08 769.5,-95.74 759.77,-99.93 764.51,-105.08"/>
</g>
<!-- Node3 -->
<g id="node3" class="node">
<title>Node3</title>
<g id="a_node3"><a xlink:href="cond__neural_8c.html#a16f80af76361587e6da53dd21fa05b7b" target="_top" xlink:title="Creates and initialises a neural network condition.">
<polygon fill="none" stroke="black" points="605,-114.5 605,-133.5 692,-133.5 692,-114.5 605,-114.5"/>
<text text-anchor="middle" x="648.5" y="-121.5" font-family="Helvetica,sans-Serif" font-size="10.00">cond_neural_init</text>
</a>
</g>
</g>
<!-- Node1&#45;&gt;Node3 -->
<g id="edge2" class="edge">
<title>Node1&#45;&gt;Node3</title>
<path fill="none" stroke="midnightblue" d="M736.62,-98.54C718.93,-103.7 698.77,-109.6 682.29,-114.41"/>
<polygon fill="midnightblue" stroke="midnightblue" points="738.08,-101.75 746.7,-95.59 736.12,-95.04 738.08,-101.75"/>
</g>
<!-- Node4 -->
<g id="node4" class="node">
<title>Node4</title>
<g id="a_node4"><a xlink:href="neural__layer__args_8c.html#a390bf97769999138966232a530c705e8" target="_top" xlink:title="Returns a json formatted string of the neural layer parameters.">
<polygon fill="none" stroke="black" points="590,-76.5 590,-95.5 707,-95.5 707,-76.5 590,-76.5"/>
<text text-anchor="middle" x="648.5" y="-83.5" font-family="Helvetica,sans-Serif" font-size="10.00">layer_args_json_export</text>
</a>
</g>
</g>
<!-- Node1&#45;&gt;Node4 -->
<g id="edge3" class="edge">
<title>Node1&#45;&gt;Node4</title>
<path fill="none" stroke="midnightblue" d="M732.72,-86C724.44,-86 715.72,-86 707.18,-86"/>
<polygon fill="midnightblue" stroke="midnightblue" points="732.94,-89.5 742.94,-86 732.94,-82.5 732.94,-89.5"/>
</g>
<!-- Node13 -->
<g id="node13" class="node">
<title>Node13</title>
<g id="a_node13"><a xlink:href="pred__neural_8c.html#a8ff454a2da61b52670f4b70b71da2fe8" target="_top" xlink:title="Creates and initialises a neural network prediction.">
<polygon fill="none" stroke="black" points="606,-38.5 606,-57.5 691,-57.5 691,-38.5 606,-38.5"/>
<text text-anchor="middle" x="648.5" y="-45.5" font-family="Helvetica,sans-Serif" font-size="10.00">pred_neural_init</text>
</a>
</g>
</g>
<!-- Node1&#45;&gt;Node13 -->
<g id="edge14" class="edge">
<title>Node1&#45;&gt;Node13</title>
<path fill="none" stroke="midnightblue" d="M736.62,-73.46C718.93,-68.3 698.77,-62.4 682.29,-57.59"/>
<polygon fill="midnightblue" stroke="midnightblue" points="736.12,-76.96 746.7,-76.41 738.08,-70.25 736.12,-76.96"/>
</g>
<!-- Node14 -->
<g id="node14" class="node">
<title>Node14</title>
<g id="a_node14"><a xlink:href="rule__neural_8c.html#accc0db627c6130e7c8680c008b47a2e2" target="_top" xlink:title=" ">
<polygon fill="none" stroke="black" points="594.5,-0.5 594.5,-19.5 702.5,-19.5 702.5,-0.5 594.5,-0.5"/>
<text text-anchor="middle" x="648.5" y="-7.5" font-family="Helvetica,sans-Serif" font-size="10.00">rule_neural_cond_init</text>
</a>
</g>
</g>
<!-- Node1&#45;&gt;Node14 -->
<g id="edge15" class="edge">
<title>Node1&#45;&gt;Node14</title>
<path fill="none" stroke="midnightblue" d="M762.1,-69.46C748.13,-56.91 727.52,-40.02 707,-29 700.15,-25.32 692.45,-22.18 684.97,-19.58"/>
<polygon fill="midnightblue" stroke="midnightblue" points="759.77,-72.07 769.5,-76.26 764.51,-66.92 759.77,-72.07"/>
</g>
<!-- Node5 -->
<g id="node5" class="node">
<title>Node5</title>
<g id="a_node5"><a xlink:href="action_8c.html#ae4c75dacfa854514efe71cc00515d6c0" target="_top" xlink:title="Returns a json formatted string of the action parameters.">
<polygon fill="none" stroke="black" points="423,-114.5 423,-133.5 554,-133.5 554,-114.5 423,-114.5"/>
<text text-anchor="middle" x="488.5" y="-121.5" font-family="Helvetica,sans-Serif" font-size="10.00">action_param_json_export</text>
</a>
</g>
</g>
<!-- Node4&#45;&gt;Node5 -->
<g id="edge4" class="edge">
<title>Node4&#45;&gt;Node5</title>
<path fill="none" stroke="midnightblue" d="M597.74,-97.97C575.6,-103.29 549.89,-109.48 529.08,-114.48"/>
<polygon fill="midnightblue" stroke="midnightblue" points="598.73,-101.33 607.63,-95.59 597.09,-94.52 598.73,-101.33"/>
</g>
<!-- Node11 -->
<g id="node11" class="node">
<title>Node11</title>
<g id="a_node11"><a xlink:href="condition_8c.html#ac3384a0731c16bed95c104111873c6e2" target="_top" xlink:title="Returns a json formatted string of the condition parameters.">
<polygon fill="none" stroke="black" points="426,-76.5 426,-95.5 551,-95.5 551,-76.5 426,-76.5"/>
<text text-anchor="middle" x="488.5" y="-83.5" font-family="Helvetica,sans-Serif" font-size="10.00">cond_param_json_export</text>
</a>
</g>
</g>
<!-- Node4&#45;&gt;Node11 -->
<g id="edge10" class="edge">
<title>Node4&#45;&gt;Node11</title>
<path fill="none" stroke="midnightblue" d="M579.46,-86C570.05,-86 560.43,-86 551.15,-86"/>
<polygon fill="midnightblue" stroke="midnightblue" points="579.56,-89.5 589.56,-86 579.56,-82.5 579.56,-89.5"/>
</g>
<!-- Node12 -->
<g id="node12" class="node">
<title>Node12</title>
<g id="a_node12"><a xlink:href="prediction_8c.html#afb4c9f7647df17c3b4ab748f01b5e301" target="_top" xlink:title="Returns a json formatted string of the prediction parameters.">
<polygon fill="none" stroke="black" points="427,-38.5 427,-57.5 550,-57.5 550,-38.5 427,-38.5"/>
<text text-anchor="middle" x="488.5" y="-45.5" font-family="Helvetica,sans-Serif" font-size="10.00">pred_param_json_export</text>
</a>
</g>
</g>
<!-- Node4&#45;&gt;Node12 -->
<g id="edge12" class="edge">
<title>Node4&#45;&gt;Node12</title>
<path fill="none" stroke="midnightblue" d="M597.74,-74.03C575.6,-68.71 549.89,-62.52 529.08,-57.52"/>
<polygon fill="midnightblue" stroke="midnightblue" points="597.09,-77.48 607.63,-76.41 598.73,-70.67 597.09,-77.48"/>
</g>
<!-- Node6 -->
<g id="node6" class="node">
<title>Node6</title>
<g id="a_node6"><a xlink:href="param_8c.html#a92d92fc270b6ed2e2637ccb590eb15d5" target="_top" xlink:title="Returns a json formatted string representation of the parameters.">
<polygon fill="none" stroke="black" points="288,-76.5 288,-95.5 387,-95.5 387,-76.5 288,-76.5"/>
<text text-anchor="middle" x="337.5" y="-83.5" font-family="Helvetica,sans-Serif" font-size="10.00">param_json_export</text>
</a>
</g>
</g>
<!-- Node5&#45;&gt;Node6 -->
<g id="edge5" class="edge">
<title>Node5&#45;&gt;Node6</title>
<path fill="none" stroke="midnightblue" d="M440.01,-111.89C419.26,-106.6 395.27,-100.48 375.83,-95.52"/>
<polygon fill="midnightblue" stroke="midnightblue" points="439.35,-115.33 449.9,-114.41 441.08,-108.55 439.35,-115.33"/>
</g>
<!-- Node7 -->
<g id="node7" class="node">
<title>Node7</title>
<g id="a_node7"><a xlink:href="classXCS.html#adb57289e76542083f52f422992e4ee13" target="_top" xlink:title="Returns a JSON formatted string representing the parameters.">
<polygon fill="none" stroke="black" points="136,-95.5 136,-114.5 252,-114.5 252,-95.5 136,-95.5"/>
<text text-anchor="middle" x="194" y="-102.5" font-family="Helvetica,sans-Serif" font-size="10.00">XCS::json_parameters</text>
</a>
</g>
</g>
<!-- Node6&#45;&gt;Node7 -->
<g id="edge6" class="edge">
<title>Node6&#45;&gt;Node7</title>
<path fill="none" stroke="midnightblue" d="M277.64,-93.9C269.18,-95.04 260.49,-96.21 252.07,-97.34"/>
<polygon fill="midnightblue" stroke="midnightblue" points="278.36,-97.34 287.8,-92.54 277.43,-90.4 278.36,-97.34"/>
</g>
<!-- Node8 -->
<g id="node8" class="node">
<title>Node8</title>
<g id="a_node8"><a xlink:href="param_8c.html#a1e92bde5285ed6ded96ba4af5fd27bd2" target="_top" xlink:title="Prints all XCSF parameters.">
<polygon fill="none" stroke="black" points="160,-57.5 160,-76.5 228,-76.5 228,-57.5 160,-57.5"/>
<text text-anchor="middle" x="194" y="-64.5" font-family="Helvetica,sans-Serif" font-size="10.00">param_print</text>
</a>
</g>
</g>
<!-- Node6&#45;&gt;Node8 -->
<g id="edge7" class="edge">
<title>Node6&#45;&gt;Node8</title>
<path fill="none" stroke="midnightblue" d="M277.47,-78.07C260.64,-75.81 242.89,-73.43 228.2,-71.46"/>
<polygon fill="midnightblue" stroke="midnightblue" points="277.43,-81.6 287.8,-79.46 278.36,-74.66 277.43,-81.6"/>
</g>
<!-- Node9 -->
<g id="node9" class="node">
<title>Node9</title>
<g id="a_node9"><a xlink:href="main_8c.html#a3c04138a5bfe5d72780bb7e82a18e627" target="_top" xlink:title=" ">
<polygon fill="none" stroke="black" points="31,-76.5 31,-95.5 69,-95.5 69,-76.5 31,-76.5"/>
<text text-anchor="middle" x="50" y="-83.5" font-family="Helvetica,sans-Serif" font-size="10.00">main</text>
</a>
</g>
</g>
<!-- Node8&#45;&gt;Node9 -->
<g id="edge8" class="edge">
<title>Node8&#45;&gt;Node9</title>
<path fill="none" stroke="midnightblue" d="M149.73,-72.79C122.8,-76.39 89.55,-80.84 69.32,-83.55"/>
<polygon fill="midnightblue" stroke="midnightblue" points="150.26,-76.25 159.71,-71.45 149.33,-69.31 150.26,-76.25"/>
</g>
<!-- Node10 -->
<g id="node10" class="node">
<title>Node10</title>
<g id="a_node10"><a xlink:href="classXCS.html#a7731d72fe05a86f0d9bc67939fd56182" target="_top" xlink:title="Prints the XCSF parameters and their current values.">
<polygon fill="none" stroke="black" points="0,-38.5 0,-57.5 100,-57.5 100,-38.5 0,-38.5"/>
<text text-anchor="middle" x="50" y="-45.5" font-family="Helvetica,sans-Serif" font-size="10.00">XCS::print_params</text>
</a>
</g>
</g>
<!-- Node8&#45;&gt;Node10 -->
<g id="edge9" class="edge">
<title>Node8&#45;&gt;Node10</title>
<path fill="none" stroke="midnightblue" d="M149.78,-61.22C134.13,-59.12 116.36,-56.74 100.24,-54.59"/>
<polygon fill="midnightblue" stroke="midnightblue" points="149.33,-64.69 159.71,-62.55 150.26,-57.75 149.33,-64.69"/>
</g>
<!-- Node11&#45;&gt;Node6 -->
<g id="edge11" class="edge">
<title>Node11&#45;&gt;Node6</title>
<path fill="none" stroke="midnightblue" d="M415.33,-86C405.82,-86 396.26,-86 387.26,-86"/>
<polygon fill="midnightblue" stroke="midnightblue" points="415.61,-89.5 425.61,-86 415.6,-82.5 415.61,-89.5"/>
</g>
<!-- Node12&#45;&gt;Node6 -->
<g id="edge13" class="edge">
<title>Node12&#45;&gt;Node6</title>
<path fill="none" stroke="midnightblue" d="M440.01,-60.11C419.26,-65.4 395.27,-71.52 375.83,-76.48"/>
<polygon fill="midnightblue" stroke="midnightblue" points="441.08,-63.45 449.9,-57.59 439.35,-56.67 441.08,-63.45"/>
</g>
</g>
</svg>
