<?xml version="1.0" encoding="UTF-8" standalone="no"?>
<!DOCTYPE svg PUBLIC "-//W3C//DTD SVG 1.1//EN"
 "http://www.w3.org/Graphics/SVG/1.1/DTD/svg11.dtd">
<!-- Generated by graphviz version 2.43.0 (0)
 -->
<!-- Title: layer_output Pages: 1 -->
<svg width="514pt" height="180pt"
 viewBox="0.00 0.00 514.00 180.00" xmlns="http://www.w3.org/2000/svg" xmlns:xlink="http://www.w3.org/1999/xlink">
<g id="graph0" class="graph" transform="scale(1 1) rotate(0) translate(4 176)">
<title>layer_output</title>
<!-- Node1 -->
<g id="node1" class="node">
<title>Node1</title>
<g id="a_node1"><a xlink:title="Returns the outputs of a layer.">
<polygon fill="#bfbfbf" stroke="black" points="436,-38.5 436,-57.5 506,-57.5 506,-38.5 436,-38.5"/>
<text text-anchor="middle" x="471" y="-45.5" font-family="Helvetica,sans-Serif" font-size="10.00">layer_output</text>
</a>
</g>
</g>
<!-- Node2 -->
<g id="node2" class="node">
<title>Node2</title>
<g id="a_node2"><a xlink:href="neural_8c.html#a700dd0e8ee581681b32f1ffe5c7c709b" target="_top" xlink:title="Returns the output of a specified neuron in the output layer of a neural network.">
<polygon fill="none" stroke="black" points="317,-76.5 317,-95.5 392,-95.5 392,-76.5 317,-76.5"/>
<text text-anchor="middle" x="354.5" y="-83.5" font-family="Helvetica,sans-Serif" font-size="10.00">neural_output</text>
</a>
</g>
</g>
<!-- Node1&#45;&gt;Node2 -->
<g id="edge1" class="edge">
<title>Node1&#45;&gt;Node2</title>
<path fill="none" stroke="midnightblue" d="M431.35,-60.83C415.99,-65.92 398.62,-71.69 384.38,-76.41"/>
<polygon fill="midnightblue" stroke="midnightblue" points="432.72,-64.06 441.11,-57.59 430.51,-57.42 432.72,-64.06"/>
</g>
<!-- Node9 -->
<g id="node9" class="node">
<title>Node9</title>
<g id="a_node9"><a xlink:href="neural_8c.html#a1054bccbeafce6e26cc5a8bffed9f575" target="_top" xlink:title="Returns the outputs from the output layer of a neural network.">
<polygon fill="none" stroke="black" points="314.5,-0.5 314.5,-19.5 394.5,-19.5 394.5,-0.5 314.5,-0.5"/>
<text text-anchor="middle" x="354.5" y="-7.5" font-family="Helvetica,sans-Serif" font-size="10.00">neural_outputs</text>
</a>
</g>
</g>
<!-- Node1&#45;&gt;Node9 -->
<g id="edge9" class="edge">
<title>Node1&#45;&gt;Node9</title>
<path fill="none" stroke="midnightblue" d="M431.35,-35.17C415.99,-30.08 398.62,-24.31 384.38,-19.59"/>
<polygon fill="midnightblue" stroke="midnightblue" points="430.51,-38.58 441.11,-38.41 432.72,-31.94 430.51,-38.58"/>
</g>
<!-- Node12 -->
<g id="node12" class="node">
<title>Node12</title>
<g id="a_node12"><a xlink:href="neural_8c.html#ae52d35ca06ded1387949731e1ad3d751" target="_top" xlink:title="Forward propagates a neural network.">
<polygon fill="none" stroke="black" points="309,-38.5 309,-57.5 400,-57.5 400,-38.5 309,-38.5"/>
<text text-anchor="middle" x="354.5" y="-45.5" font-family="Helvetica,sans-Serif" font-size="10.00">neural_propagate</text>
</a>
</g>
</g>
<!-- Node1&#45;&gt;Node12 -->
<g id="edge12" class="edge">
<title>Node1&#45;&gt;Node12</title>
<path fill="none" stroke="midnightblue" d="M425.93,-48C417.51,-48 408.68,-48 400.24,-48"/>
<polygon fill="midnightblue" stroke="midnightblue" points="425.96,-51.5 435.96,-48 425.96,-44.5 425.96,-51.5"/>
</g>
<!-- Node3 -->
<g id="node3" class="node">
<title>Node3</title>
<g id="a_node3"><a xlink:href="cond__neural_8c.html#a431867aa5e420b58fde321b23762987c" target="_top" xlink:title="Generates a neural network that matches the current input.">
<polygon fill="none" stroke="black" points="160,-38.5 160,-57.5 261,-57.5 261,-38.5 160,-38.5"/>
<text text-anchor="middle" x="210.5" y="-45.5" font-family="Helvetica,sans-Serif" font-size="10.00">cond_neural_match</text>
</a>
</g>
</g>
<!-- Node2&#45;&gt;Node3 -->
<g id="edge2" class="edge">
<title>Node2&#45;&gt;Node3</title>
<path fill="none" stroke="midnightblue" d="M308.01,-73.83C288.37,-68.57 265.73,-62.51 247.32,-57.59"/>
<polygon fill="midnightblue" stroke="midnightblue" points="307.1,-77.21 317.67,-76.41 308.91,-70.44 307.1,-77.21"/>
</g>
<!-- Node5 -->
<g id="node5" class="node">
<title>Node5</title>
<g id="a_node5"><a xlink:href="pred__neural_8c.html#a620fbeb95758715776b84ee1628a637d" target="_top" xlink:title="Forward propagates a neural network prediction with a provided input.">
<polygon fill="none" stroke="black" points="155.5,-114.5 155.5,-133.5 265.5,-133.5 265.5,-114.5 155.5,-114.5"/>
<text text-anchor="middle" x="210.5" y="-121.5" font-family="Helvetica,sans-Serif" font-size="10.00">pred_neural_compute</text>
</a>
</g>
</g>
<!-- Node2&#45;&gt;Node5 -->
<g id="edge4" class="edge">
<title>Node2&#45;&gt;Node5</title>
<path fill="none" stroke="midnightblue" d="M308.01,-98.17C288.37,-103.43 265.73,-109.49 247.32,-114.41"/>
<polygon fill="midnightblue" stroke="midnightblue" points="308.91,-101.56 317.67,-95.59 307.1,-94.79 308.91,-101.56"/>
</g>
<!-- Node6 -->
<g id="node6" class="node">
<title>Node6</title>
<g id="a_node6"><a xlink:href="rule__neural_8c.html#ad1efaff17fedd6badb97970589715d8f" target="_top" xlink:title=" ">
<polygon fill="none" stroke="black" points="148,-152.5 148,-171.5 273,-171.5 273,-152.5 148,-152.5"/>
<text text-anchor="middle" x="210.5" y="-159.5" font-family="Helvetica,sans-Serif" font-size="10.00">rule_neural_act_compute</text>
</a>
</g>
</g>
<!-- Node2&#45;&gt;Node6 -->
<g id="edge5" class="edge">
<title>Node2&#45;&gt;Node6</title>
<path fill="none" stroke="midnightblue" d="M334.64,-101.98C318.98,-114.58 295.68,-131.82 273,-143 265.48,-146.7 257.09,-149.87 248.98,-152.49"/>
<polygon fill="midnightblue" stroke="midnightblue" points="336.99,-104.58 342.5,-95.53 332.55,-99.17 336.99,-104.58"/>
</g>
<!-- Node8 -->
<g id="node8" class="node">
<title>Node8</title>
<g id="a_node8"><a xlink:href="rule__neural_8c.html#a0adc732972d73bff35c7eac3f7cc243d" target="_top" xlink:title=" ">
<polygon fill="none" stroke="black" points="149.5,-76.5 149.5,-95.5 271.5,-95.5 271.5,-76.5 149.5,-76.5"/>
<text text-anchor="middle" x="210.5" y="-83.5" font-family="Helvetica,sans-Serif" font-size="10.00">rule_neural_cond_match</text>
</a>
</g>
</g>
<!-- Node2&#45;&gt;Node8 -->
<g id="edge7" class="edge">
<title>Node2&#45;&gt;Node8</title>
<path fill="none" stroke="midnightblue" d="M306.89,-86C295.62,-86 283.42,-86 271.63,-86"/>
<polygon fill="midnightblue" stroke="midnightblue" points="306.93,-89.5 316.93,-86 306.93,-82.5 306.93,-89.5"/>
</g>
<!-- Node4 -->
<g id="node4" class="node">
<title>Node4</title>
<g id="a_node4"><a xlink:href="cond__neural_8c.html#abfc93f53d30caf9deccddb96705b632e" target="_top" xlink:title="Generates a neural network that matches the current input.">
<polygon fill="none" stroke="black" points="7,-38.5 7,-57.5 105,-57.5 105,-38.5 7,-38.5"/>
<text text-anchor="middle" x="56" y="-45.5" font-family="Helvetica,sans-Serif" font-size="10.00">cond_neural_cover</text>
</a>
</g>
</g>
<!-- Node3&#45;&gt;Node4 -->
<g id="edge3" class="edge">
<title>Node3&#45;&gt;Node4</title>
<path fill="none" stroke="midnightblue" d="M149.91,-48C135.1,-48 119.41,-48 105.22,-48"/>
<polygon fill="midnightblue" stroke="midnightblue" points="149.99,-51.5 159.99,-48 149.99,-44.5 149.99,-51.5"/>
</g>
<!-- Node7 -->
<g id="node7" class="node">
<title>Node7</title>
<g id="a_node7"><a xlink:href="rule__neural_8c.html#aea01f5493b0dbc37383421cae4f873ca" target="_top" xlink:title=" ">
<polygon fill="none" stroke="black" points="0,-114.5 0,-133.5 112,-133.5 112,-114.5 0,-114.5"/>
<text text-anchor="middle" x="56" y="-121.5" font-family="Helvetica,sans-Serif" font-size="10.00">rule_neural_act_cover</text>
</a>
</g>
</g>
<!-- Node6&#45;&gt;Node7 -->
<g id="edge6" class="edge">
<title>Node6&#45;&gt;Node7</title>
<path fill="none" stroke="midnightblue" d="M161.18,-149.96C139.88,-144.65 115.2,-138.5 95.21,-133.52"/>
<polygon fill="midnightblue" stroke="midnightblue" points="160.47,-153.39 171.02,-152.41 162.16,-146.6 160.47,-153.39"/>
</g>
<!-- Node8&#45;&gt;Node7 -->
<g id="edge8" class="edge">
<title>Node8&#45;&gt;Node7</title>
<path fill="none" stroke="midnightblue" d="M161.18,-98.04C139.88,-103.35 115.2,-109.5 95.21,-114.48"/>
<polygon fill="midnightblue" stroke="midnightblue" points="162.16,-101.4 171.02,-95.59 160.47,-94.61 162.16,-101.4"/>
</g>
<!-- Node10 -->
<g id="node10" class="node">
<title>Node10</title>
<g id="a_node10"><a xlink:href="act__neural_8c.html#aa4616932ee69561f2324af10da2865de" target="_top" xlink:title="Computes the current neural network action using the input.">
<polygon fill="none" stroke="black" points="158.5,-0.5 158.5,-19.5 262.5,-19.5 262.5,-0.5 158.5,-0.5"/>
<text text-anchor="middle" x="210.5" y="-7.5" font-family="Helvetica,sans-Serif" font-size="10.00">act_neural_compute</text>
</a>
</g>
</g>
<!-- Node9&#45;&gt;Node10 -->
<g id="edge10" class="edge">
<title>Node9&#45;&gt;Node10</title>
<path fill="none" stroke="midnightblue" d="M304.27,-10C290.77,-10 276.12,-10 262.53,-10"/>
<polygon fill="midnightblue" stroke="midnightblue" points="304.32,-13.5 314.32,-10 304.32,-6.5 304.32,-13.5"/>
</g>
<!-- Node11 -->
<g id="node11" class="node">
<title>Node11</title>
<g id="a_node11"><a xlink:href="act__neural_8c.html#aa8b1494c14b289da3f86f4e8a2db5de7" target="_top" xlink:title="Generates a neural network that covers the specified input:action.">
<polygon fill="none" stroke="black" points="10.5,-0.5 10.5,-19.5 101.5,-19.5 101.5,-0.5 10.5,-0.5"/>
<text text-anchor="middle" x="56" y="-7.5" font-family="Helvetica,sans-Serif" font-size="10.00">act_neural_cover</text>
</a>
</g>
</g>
<!-- Node10&#45;&gt;Node11 -->
<g id="edge11" class="edge">
<title>Node10&#45;&gt;Node11</title>
<path fill="none" stroke="midnightblue" d="M148.22,-10C132.67,-10 116.24,-10 101.68,-10"/>
<polygon fill="midnightblue" stroke="midnightblue" points="148.3,-13.5 158.3,-10 148.3,-6.5 148.3,-13.5"/>
</g>
<!-- Node12&#45;&gt;Node3 -->
<g id="edge14" class="edge">
<title>Node12&#45;&gt;Node3</title>
<path fill="none" stroke="midnightblue" d="M298.8,-48C286.47,-48 273.44,-48 261.32,-48"/>
<polygon fill="midnightblue" stroke="midnightblue" points="298.96,-51.5 308.96,-48 298.96,-44.5 298.96,-51.5"/>
</g>
<!-- Node12&#45;&gt;Node5 -->
<g id="edge15" class="edge">
<title>Node12&#45;&gt;Node5</title>
<path fill="none" stroke="midnightblue" d="M317.08,-62.05C314.27,-63.58 311.54,-65.23 309,-67 289.9,-80.29 292.76,-92.72 273,-105 266.83,-108.83 259.83,-111.95 252.82,-114.46"/>
<polygon fill="midnightblue" stroke="midnightblue" points="318.78,-65.11 326.21,-57.56 315.69,-58.83 318.78,-65.11"/>
</g>
<!-- Node12&#45;&gt;Node8 -->
<g id="edge16" class="edge">
<title>Node12&#45;&gt;Node8</title>
<path fill="none" stroke="midnightblue" d="M308.01,-60.17C288.37,-65.43 265.73,-71.49 247.32,-76.41"/>
<polygon fill="midnightblue" stroke="midnightblue" points="308.91,-63.56 317.67,-57.59 307.1,-56.79 308.91,-63.56"/>
</g>
<!-- Node12&#45;&gt;Node10 -->
<g id="edge13" class="edge">
<title>Node12&#45;&gt;Node10</title>
<path fill="none" stroke="midnightblue" d="M308.01,-35.83C288.37,-30.57 265.73,-24.51 247.32,-19.59"/>
<polygon fill="midnightblue" stroke="midnightblue" points="307.1,-39.21 317.67,-38.41 308.91,-32.44 307.1,-39.21"/>
</g>
</g>
</svg>
