<?xml version="1.0" encoding="UTF-8" standalone="no"?>
<!DOCTYPE svg PUBLIC "-//W3C//DTD SVG 1.1//EN"
 "http://www.w3.org/Graphics/SVG/1.1/DTD/svg11.dtd">
<!-- Generated by graphviz version 2.43.0 (0)
 -->
<!-- Title: neural_mutate Pages: 1 -->
<svg width="247pt" height="138pt"
 viewBox="0.00 0.00 247.00 138.00" xmlns="http://www.w3.org/2000/svg" xmlns:xlink="http://www.w3.org/1999/xlink">
<g id="graph0" class="graph" transform="scale(1 1) rotate(0) translate(4 134)">
<title>neural_mutate</title>
<!-- Node1 -->
<g id="Node000001" class="node">
<title>Node1</title>
<g id="a_Node000001"><a xlink:title="Mutates a neural network.">
<polygon fill="#999999" stroke="#666666" points="239,-74 161,-74 161,-55 239,-55 239,-74"/>
<text text-anchor="middle" x="200" y="-62" font-family="Helvetica,sans-Serif" font-size="10.00">neural_mutate</text>
</a>
</g>
</g>
<!-- Node2 -->
<g id="Node000002" class="node">
<title>Node2</title>
<g id="a_Node000002"><a xlink:href="act__neural_8c.html#af4f2ea0a36b3c72e3c80b7d5903458a8" target="_top" xlink:title="Mutates a neural network action.">
<polygon fill="white" stroke="#666666" points="111,-130 14,-130 14,-111 111,-111 111,-130"/>
<text text-anchor="middle" x="62.5" y="-118" font-family="Helvetica,sans-Serif" font-size="10.00">act_neural_mutate</text>
</a>
</g>
</g>
<!-- Node1&#45;&gt;Node2 -->
<g id="edge1_Node000001_Node000002" class="edge">
<title>Node1&#45;&gt;Node2</title>
<g id="a_edge1_Node000001_Node000002"><a xlink:title=" ">
<path fill="none" stroke="#63b8ff" d="M173.64,-79.04C159.61,-86.7 141.68,-95.85 125,-102.5 117.15,-105.63 108.54,-108.49 100.31,-110.96"/>
<polygon fill="#63b8ff" stroke="#63b8ff" points="175.62,-81.94 182.67,-74.03 172.23,-75.82 175.62,-81.94"/>
</a>
</g>
</g>
<!-- Node3 -->
<g id="Node000003" class="node">
<title>Node3</title>
<g id="a_Node000003"><a xlink:href="cond__neural_8c.html#aaf16e02a92526865dc7a972b60e252a3" target="_top" xlink:title="Mutates a neural network condition with the self&#45;adaptive rates.">
<polygon fill="white" stroke="#666666" points="114.5,-93 10.5,-93 10.5,-74 114.5,-74 114.5,-93"/>
<text text-anchor="middle" x="62.5" y="-81" font-family="Helvetica,sans-Serif" font-size="10.00">cond_neural_mutate</text>
</a>
</g>
</g>
<!-- Node1&#45;&gt;Node3 -->
<g id="edge2_Node000001_Node000003" class="edge">
<title>Node1&#45;&gt;Node3</title>
<g id="a_edge2_Node000001_Node000003"><a xlink:title=" ">
<path fill="none" stroke="#63b8ff" d="M150.86,-71.25C139.14,-72.89 126.57,-74.66 114.72,-76.32"/>
<polygon fill="#63b8ff" stroke="#63b8ff" points="151.48,-74.7 160.9,-69.84 150.51,-67.77 151.48,-74.7"/>
</a>
</g>
</g>
<!-- Node4 -->
<g id="Node000004" class="node">
<title>Node4</title>
<g id="a_Node000004"><a xlink:href="pred__neural_8c.html#a1c13604a74857eb73ac249bfe40aab2e" target="_top" xlink:title="Mutates a neural network prediction.">
<polygon fill="white" stroke="#666666" points="113.5,-56 11.5,-56 11.5,-37 113.5,-37 113.5,-56"/>
<text text-anchor="middle" x="62.5" y="-44" font-family="Helvetica,sans-Serif" font-size="10.00">pred_neural_mutate</text>
</a>
</g>
</g>
<!-- Node1&#45;&gt;Node4 -->
<g id="edge3_Node000001_Node000004" class="edge">
<title>Node1&#45;&gt;Node4</title>
<g id="a_edge3_Node000001_Node000004"><a xlink:title=" ">
<path fill="none" stroke="#63b8ff" d="M150.63,-58.08C138.65,-56.48 125.78,-54.77 113.72,-53.17"/>
<polygon fill="#63b8ff" stroke="#63b8ff" points="150.52,-61.59 160.9,-59.44 151.44,-54.65 150.52,-61.59"/>
</a>
</g>
</g>
<!-- Node5 -->
<g id="Node000005" class="node">
<title>Node5</title>
<g id="a_Node000005"><a xlink:href="rule__neural_8c.html#a5e91babdd828570f097aefc06c1af4c7" target="_top" xlink:title=" ">
<polygon fill="white" stroke="#666666" points="125,-19 0,-19 0,0 125,0 125,-19"/>
<text text-anchor="middle" x="62.5" y="-7" font-family="Helvetica,sans-Serif" font-size="10.00">rule_neural_cond_mutate</text>
</a>
</g>
</g>
<!-- Node1&#45;&gt;Node5 -->
<g id="edge4_Node000001_Node000005" class="edge">
<title>Node1&#45;&gt;Node5</title>
<g id="a_edge4_Node000001_Node000005"><a xlink:title=" ">
<path fill="none" stroke="#63b8ff" d="M172.4,-50.33C158.51,-43.25 141.09,-34.85 125,-28.5 116.27,-25.05 106.65,-21.82 97.66,-19.04"/>
<polygon fill="#63b8ff" stroke="#63b8ff" points="170.91,-53.5 181.4,-54.99 174.13,-47.29 170.91,-53.5"/>
</a>
</g>
</g>
</g>
</svg>
