<?xml version="1.0" encoding="UTF-8" standalone="no"?>
<!DOCTYPE svg PUBLIC "-//W3C//DTD SVG 1.1//EN"
 "http://www.w3.org/Graphics/SVG/1.1/DTD/svg11.dtd">
<!-- Generated by graphviz version 2.43.0 (0)
 -->
<!-- Title: free_layer_arrays Pages: 1 -->
<svg width="255pt" height="76pt"
 viewBox="0.00 0.00 255.00 75.50" xmlns="http://www.w3.org/2000/svg" xmlns:xlink="http://www.w3.org/1999/xlink">
<g id="graph0" class="graph" transform="scale(1 1) rotate(0) translate(4 71.5)">
<title>free_layer_arrays</title>
<!-- Node1 -->
<g id="Node000001" class="node">
<title>Node1</title>
<g id="a_Node000001"><a xlink:title="Free memory used by a noise layer.">
<polygon fill="#999999" stroke="#666666" points="247,-45.5 155,-45.5 155,-26.5 247,-26.5 247,-45.5"/>
<text text-anchor="middle" x="201" y="-33.5" font-family="Helvetica,sans-Serif" font-size="10.00">free_layer_arrays</text>
</a>
</g>
</g>
<!-- Node2 -->
<g id="Node000002" class="node">
<title>Node2</title>
<g id="a_Node000002"><a xlink:href="neural__layer__noise_8c.html#a09a6ea6471765a98984abd35b081a78f" target="_top" xlink:title="Free memory used by a noise layer.">
<polygon fill="white" stroke="#666666" points="119,-67.5 0,-67.5 0,-48.5 119,-48.5 119,-67.5"/>
<text text-anchor="middle" x="59.5" y="-55.5" font-family="Helvetica,sans-Serif" font-size="10.00">neural_layer_noise_free</text>
</a>
</g>
</g>
<!-- Node1&#45;&gt;Node2 -->
<g id="edge1_Node000001_Node000002" class="edge">
<title>Node1&#45;&gt;Node2</title>
<g id="a_edge1_Node000001_Node000002"><a xlink:title=" ">
<path fill="none" stroke="#63b8ff" d="M144.63,-44.73C136.22,-46.06 127.51,-47.43 119.04,-48.77"/>
<polygon fill="#63b8ff" stroke="#63b8ff" points="145.38,-48.16 154.71,-43.14 144.29,-41.24 145.38,-48.16"/>
</a>
</g>
</g>
<!-- Node3 -->
<g id="Node000003" class="node">
<title>Node3</title>
<g id="a_Node000003"><a xlink:href="neural__layer__noise_8c.html#a2464187d100209519f41aa1c4c640bca" target="_top" xlink:title="Resizes a noise layer if the previous layer has changed size.">
<polygon fill="white" stroke="#666666" points="108.5,-30 10.5,-30 10.5,0 108.5,0 108.5,-30"/>
<text text-anchor="start" x="18.5" y="-18" font-family="Helvetica,sans-Serif" font-size="10.00">neural_layer_noise</text>
<text text-anchor="middle" x="59.5" y="-7" font-family="Helvetica,sans-Serif" font-size="10.00">_resize</text>
</a>
</g>
</g>
<!-- Node1&#45;&gt;Node3 -->
<g id="edge2_Node000001_Node000003" class="edge">
<title>Node1&#45;&gt;Node3</title>
<g id="a_edge2_Node000001_Node000003"><a xlink:title=" ">
<path fill="none" stroke="#63b8ff" d="M144.54,-27.65C132.76,-25.88 120.42,-24.02 108.93,-22.29"/>
<polygon fill="#63b8ff" stroke="#63b8ff" points="144.3,-31.15 154.71,-29.18 145.34,-24.23 144.3,-31.15"/>
</a>
</g>
</g>
</g>
</svg>
