<?xml version="1.0" encoding="UTF-8" standalone="no"?>
<!DOCTYPE svg PUBLIC "-//W3C//DTD SVG 1.1//EN"
 "http://www.w3.org/Graphics/SVG/1.1/DTD/svg11.dtd">
<!-- Generated by graphviz version 2.43.0 (0)
 -->
<!-- Title: layer_args_json_import Pages: 1 -->
<svg width="1020pt" height="140pt"
 viewBox="0.00 0.00 1020.00 139.50" xmlns="http://www.w3.org/2000/svg" xmlns:xlink="http://www.w3.org/1999/xlink">
<g id="graph0" class="graph" transform="scale(1 1) rotate(0) translate(4 135.5)">
<title>layer_args_json_import</title>
<!-- Node1 -->
<g id="node1" class="node">
<title>Node1</title>
<g id="a_node1"><a xlink:title="Sets the layer parameters from a cJSON object.">
<polygon fill="#bfbfbf" stroke="black" points="895,-57.5 895,-76.5 1012,-76.5 1012,-57.5 895,-57.5"/>
<text text-anchor="middle" x="953.5" y="-64.5" font-family="Helvetica,sans-Serif" font-size="10.00">layer_args_json_import</text>
</a>
</g>
</g>
<!-- Node2 -->
<g id="node2" class="node">
<title>Node2</title>
<g id="a_node2"><a xlink:href="act__neural_8c.html#af2696c8b843a0a6a9c09df4b988df39a" target="_top" xlink:title="Sets the neural network parameters from a cJSON object.">
<polygon fill="none" stroke="black" points="738,-101 738,-131 855,-131 855,-101 738,-101"/>
<text text-anchor="start" x="746" y="-119" font-family="Helvetica,sans-Serif" font-size="10.00">act_neural_param_json</text>
<text text-anchor="middle" x="796.5" y="-108" font-family="Helvetica,sans-Serif" font-size="10.00">_import</text>
</a>
</g>
</g>
<!-- Node1&#45;&gt;Node2 -->
<g id="edge1" class="edge">
<title>Node1&#45;&gt;Node2</title>
<path fill="none" stroke="midnightblue" d="M912.54,-79.63C891.94,-86.14 866.67,-94.13 845.07,-100.96"/>
<polygon fill="midnightblue" stroke="midnightblue" points="913.77,-82.92 922.25,-76.56 911.66,-76.24 913.77,-82.92"/>
</g>
<!-- Node11 -->
<g id="node11" class="node">
<title>Node11</title>
<g id="a_node11"><a xlink:href="cond__neural_8c.html#a9255c78753af68c08b204d56737f3586" target="_top" xlink:title="Sets the neural network parameters from a cJSON object.">
<polygon fill="none" stroke="black" points="734,-52 734,-82 859,-82 859,-52 734,-52"/>
<text text-anchor="start" x="742" y="-70" font-family="Helvetica,sans-Serif" font-size="10.00">cond_neural_param_json</text>
<text text-anchor="middle" x="796.5" y="-59" font-family="Helvetica,sans-Serif" font-size="10.00">_import</text>
</a>
</g>
</g>
<!-- Node1&#45;&gt;Node11 -->
<g id="edge10" class="edge">
<title>Node1&#45;&gt;Node11</title>
<path fill="none" stroke="midnightblue" d="M884.58,-67C876.12,-67 867.51,-67 859.16,-67"/>
<polygon fill="midnightblue" stroke="midnightblue" points="884.78,-70.5 894.78,-67 884.78,-63.5 884.78,-70.5"/>
</g>
<!-- Node14 -->
<g id="node14" class="node">
<title>Node14</title>
<g id="a_node14"><a xlink:href="pred__neural_8c.html#a913efbfb988539a1c6f7de2cf43cea5c" target="_top" xlink:title="Sets the neural network parameters from a cJSON object.">
<polygon fill="none" stroke="black" points="735.5,-3 735.5,-33 857.5,-33 857.5,-3 735.5,-3"/>
<text text-anchor="start" x="743.5" y="-21" font-family="Helvetica,sans-Serif" font-size="10.00">pred_neural_param_json</text>
<text text-anchor="middle" x="796.5" y="-10" font-family="Helvetica,sans-Serif" font-size="10.00">_import</text>
</a>
</g>
</g>
<!-- Node1&#45;&gt;Node14 -->
<g id="edge14" class="edge">
<title>Node1&#45;&gt;Node14</title>
<path fill="none" stroke="midnightblue" d="M912.54,-54.37C891.94,-47.86 866.67,-39.87 845.07,-33.04"/>
<polygon fill="midnightblue" stroke="midnightblue" points="911.66,-57.76 922.25,-57.44 913.77,-51.08 911.66,-57.76"/>
</g>
<!-- Node3 -->
<g id="node3" class="node">
<title>Node3</title>
<g id="a_node3"><a xlink:href="action_8c.html#a39f808f6b04ccbc2a2c2a2857e5b845e" target="_top" xlink:title="Sets the action parameters from a cJSON object.">
<polygon fill="none" stroke="black" points="567,-100.5 567,-119.5 698,-119.5 698,-100.5 567,-100.5"/>
<text text-anchor="middle" x="632.5" y="-107.5" font-family="Helvetica,sans-Serif" font-size="10.00">action_param_json_import</text>
</a>
</g>
</g>
<!-- Node2&#45;&gt;Node3 -->
<g id="edge2" class="edge">
<title>Node2&#45;&gt;Node3</title>
<path fill="none" stroke="midnightblue" d="M727.79,-113.49C717.95,-113.13 707.83,-112.75 698.05,-112.39"/>
<polygon fill="midnightblue" stroke="midnightblue" points="727.81,-117 737.93,-113.87 728.07,-110 727.81,-117"/>
</g>
<!-- Node4 -->
<g id="node4" class="node">
<title>Node4</title>
<g id="a_node4"><a xlink:href="param_8c.html#a86522321fabfe9b21b98617befc4ffa6" target="_top" xlink:title="Sets the action parameters from a json formatted string.">
<polygon fill="none" stroke="black" points="392.5,-98.5 392.5,-117.5 523.5,-117.5 523.5,-98.5 392.5,-98.5"/>
<text text-anchor="middle" x="458" y="-105.5" font-family="Helvetica,sans-Serif" font-size="10.00">param_json_import_action</text>
</a>
</g>
</g>
<!-- Node3&#45;&gt;Node4 -->
<g id="edge3" class="edge">
<title>Node3&#45;&gt;Node4</title>
<path fill="none" stroke="midnightblue" d="M556.71,-109.13C545.65,-109 534.34,-108.87 523.51,-108.75"/>
<polygon fill="midnightblue" stroke="midnightblue" points="556.74,-112.63 566.78,-109.25 556.82,-105.63 556.74,-112.63"/>
</g>
<!-- Node5 -->
<g id="node5" class="node">
<title>Node5</title>
<g id="a_node5"><a xlink:href="param_8c.html#a130260988988535419aee8abe51986c1" target="_top" xlink:title="Sets the parameters from a json formatted string.">
<polygon fill="none" stroke="black" points="250,-57.5 250,-76.5 349,-76.5 349,-57.5 250,-57.5"/>
<text text-anchor="middle" x="299.5" y="-64.5" font-family="Helvetica,sans-Serif" font-size="10.00">param_json_import</text>
</a>
</g>
</g>
<!-- Node4&#45;&gt;Node5 -->
<g id="edge4" class="edge">
<title>Node4&#45;&gt;Node5</title>
<path fill="none" stroke="midnightblue" d="M410.9,-95.92C387.28,-89.73 358.93,-82.31 336.87,-76.53"/>
<polygon fill="midnightblue" stroke="midnightblue" points="410.14,-99.34 420.7,-98.49 411.92,-92.57 410.14,-99.34"/>
</g>
<!-- Node6 -->
<g id="node6" class="node">
<title>Node6</title>
<g id="a_node6"><a xlink:href="config_8c.html#a045a64a30d99a4bef2ebfd9b54aa9698" target="_top" xlink:title="Reads the specified configuration file.">
<polygon fill="none" stroke="black" points="133,-76.5 133,-95.5 200,-95.5 200,-76.5 133,-76.5"/>
<text text-anchor="middle" x="166.5" y="-83.5" font-family="Helvetica,sans-Serif" font-size="10.00">config_read</text>
</a>
</g>
</g>
<!-- Node5&#45;&gt;Node6 -->
<g id="edge5" class="edge">
<title>Node5&#45;&gt;Node6</title>
<path fill="none" stroke="midnightblue" d="M239.46,-75.56C225.9,-77.53 211.97,-79.55 200.02,-81.28"/>
<polygon fill="midnightblue" stroke="midnightblue" points="240.33,-78.97 249.72,-74.07 239.32,-72.05 240.33,-78.97"/>
</g>
<!-- Node8 -->
<g id="node8" class="node">
<title>Node8</title>
<g id="a_node8"><a xlink:href="classXCS.html#ad8780630d80d4bf5b76d9bf2f6c91f25" target="_top" xlink:title="Sets parameter values.">
<polygon fill="none" stroke="black" points="119,-38.5 119,-57.5 214,-57.5 214,-38.5 119,-38.5"/>
<text text-anchor="middle" x="166.5" y="-45.5" font-family="Helvetica,sans-Serif" font-size="10.00">XCS::set_params</text>
</a>
</g>
</g>
<!-- Node5&#45;&gt;Node8 -->
<g id="edge7" class="edge">
<title>Node5&#45;&gt;Node8</title>
<path fill="none" stroke="midnightblue" d="M239.76,-58.48C231.18,-57.24 222.44,-55.97 214.15,-54.77"/>
<polygon fill="midnightblue" stroke="midnightblue" points="239.32,-61.95 249.72,-59.93 240.33,-55.03 239.32,-61.95"/>
</g>
<!-- Node7 -->
<g id="node7" class="node">
<title>Node7</title>
<g id="a_node7"><a xlink:href="main_8c.html#a3c04138a5bfe5d72780bb7e82a18e627" target="_top" xlink:title=" ">
<polygon fill="none" stroke="black" points="22.5,-76.5 22.5,-95.5 60.5,-95.5 60.5,-76.5 22.5,-76.5"/>
<text text-anchor="middle" x="41.5" y="-83.5" font-family="Helvetica,sans-Serif" font-size="10.00">main</text>
</a>
</g>
</g>
<!-- Node6&#45;&gt;Node7 -->
<g id="edge6" class="edge">
<title>Node6&#45;&gt;Node7</title>
<path fill="none" stroke="midnightblue" d="M122.77,-86C101.57,-86 77.07,-86 60.78,-86"/>
<polygon fill="midnightblue" stroke="midnightblue" points="122.86,-89.5 132.86,-86 122.86,-82.5 122.86,-89.5"/>
</g>
<!-- Node9 -->
<g id="node9" class="node">
<title>Node9</title>
<g id="a_node9"><a xlink:href="classXCS.html#a0c600c37d5e5160d553b52b6d5c179b4" target="_top" xlink:title="Sets XCSF input and output dimensions.">
<polygon fill="none" stroke="black" points="0,-38.5 0,-57.5 83,-57.5 83,-38.5 0,-38.5"/>
<text text-anchor="middle" x="41.5" y="-45.5" font-family="Helvetica,sans-Serif" font-size="10.00">XCS::set_dims</text>
</a>
</g>
</g>
<!-- Node8&#45;&gt;Node9 -->
<g id="edge8" class="edge">
<title>Node8&#45;&gt;Node9</title>
<path fill="none" stroke="midnightblue" d="M108.87,-48C100.15,-48 91.3,-48 83.02,-48"/>
<polygon fill="midnightblue" stroke="midnightblue" points="109,-51.5 119,-48 109,-44.5 109,-51.5"/>
</g>
<!-- Node10 -->
<g id="node10" class="node">
<title>Node10</title>
<g id="a_node10"><a xlink:href="classXCS.html#a608a50f998819369d28ef9966d6812ca" target="_top" xlink:title="Constructor.">
<polygon fill="none" stroke="black" points="9,-0.5 9,-19.5 74,-19.5 74,-0.5 9,-0.5"/>
<text text-anchor="middle" x="41.5" y="-7.5" font-family="Helvetica,sans-Serif" font-size="10.00">XCS::XCS</text>
</a>
</g>
</g>
<!-- Node8&#45;&gt;Node10 -->
<g id="edge9" class="edge">
<title>Node8&#45;&gt;Node10</title>
<path fill="none" stroke="midnightblue" d="M124.46,-35.32C107.84,-30.19 88.97,-24.36 73.53,-19.59"/>
<polygon fill="midnightblue" stroke="midnightblue" points="123.87,-38.8 134.46,-38.41 125.94,-32.12 123.87,-38.8"/>
</g>
<!-- Node12 -->
<g id="node12" class="node">
<title>Node12</title>
<g id="a_node12"><a xlink:href="condition_8c.html#a05cc17fed48d042eaefd1e22582b24c6" target="_top" xlink:title="Sets the condition parameters from a cJSON object.">
<polygon fill="none" stroke="black" points="570,-57.5 570,-76.5 695,-76.5 695,-57.5 570,-57.5"/>
<text text-anchor="middle" x="632.5" y="-64.5" font-family="Helvetica,sans-Serif" font-size="10.00">cond_param_json_import</text>
</a>
</g>
</g>
<!-- Node11&#45;&gt;Node12 -->
<g id="edge11" class="edge">
<title>Node11&#45;&gt;Node12</title>
<path fill="none" stroke="midnightblue" d="M723.56,-67C714.04,-67 704.36,-67 695.04,-67"/>
<polygon fill="midnightblue" stroke="midnightblue" points="723.79,-70.5 733.79,-67 723.79,-63.5 723.79,-70.5"/>
</g>
<!-- Node13 -->
<g id="node13" class="node">
<title>Node13</title>
<g id="a_node13"><a xlink:href="param_8c.html#a94f5495282a36944cade334e52c3c5cd" target="_top" xlink:title="Sets the condition parameters from a json formatted string.">
<polygon fill="none" stroke="black" points="386.5,-57.5 386.5,-76.5 529.5,-76.5 529.5,-57.5 386.5,-57.5"/>
<text text-anchor="middle" x="458" y="-64.5" font-family="Helvetica,sans-Serif" font-size="10.00">param_json_import_condition</text>
</a>
</g>
</g>
<!-- Node12&#45;&gt;Node13 -->
<g id="edge12" class="edge">
<title>Node12&#45;&gt;Node13</title>
<path fill="none" stroke="midnightblue" d="M559.55,-67C549.7,-67 539.58,-67 529.75,-67"/>
<polygon fill="midnightblue" stroke="midnightblue" points="559.71,-70.5 569.71,-67 559.71,-63.5 559.71,-70.5"/>
</g>
<!-- Node13&#45;&gt;Node5 -->
<g id="edge13" class="edge">
<title>Node13&#45;&gt;Node5</title>
<path fill="none" stroke="midnightblue" d="M375.83,-67C366.75,-67 357.72,-67 349.24,-67"/>
<polygon fill="midnightblue" stroke="midnightblue" points="376.08,-70.5 386.08,-67 376.08,-63.5 376.08,-70.5"/>
</g>
<!-- Node15 -->
<g id="node15" class="node">
<title>Node15</title>
<g id="a_node15"><a xlink:href="prediction_8c.html#a7f976ef5c24c68e48493bdec31567021" target="_top" xlink:title="Sets the prediction parameters from a cJSON object.">
<polygon fill="none" stroke="black" points="571,-11.5 571,-30.5 694,-30.5 694,-11.5 571,-11.5"/>
<text text-anchor="middle" x="632.5" y="-18.5" font-family="Helvetica,sans-Serif" font-size="10.00">pred_param_json_import</text>
</a>
</g>
</g>
<!-- Node14&#45;&gt;Node15 -->
<g id="edge15" class="edge">
<title>Node14&#45;&gt;Node15</title>
<path fill="none" stroke="midnightblue" d="M725,-19.31C714.72,-19.5 704.21,-19.69 694.14,-19.88"/>
<polygon fill="midnightblue" stroke="midnightblue" points="725.24,-22.8 735.18,-19.12 725.11,-15.8 725.24,-22.8"/>
</g>
<!-- Node16 -->
<g id="node16" class="node">
<title>Node16</title>
<g id="a_node16"><a xlink:href="param_8c.html#ab62861b770fc9aea05efcc26279ee9e5" target="_top" xlink:title="Sets the prediction parameters from a json formatted string.">
<polygon fill="none" stroke="black" points="385,-16.5 385,-35.5 531,-35.5 531,-16.5 385,-16.5"/>
<text text-anchor="middle" x="458" y="-23.5" font-family="Helvetica,sans-Serif" font-size="10.00">param_json_import_prediction</text>
</a>
</g>
</g>
<!-- Node15&#45;&gt;Node16 -->
<g id="edge16" class="edge">
<title>Node15&#45;&gt;Node16</title>
<path fill="none" stroke="midnightblue" d="M560.64,-23.05C550.88,-23.34 540.86,-23.63 531.08,-23.91"/>
<polygon fill="midnightblue" stroke="midnightblue" points="560.79,-26.55 570.68,-22.76 560.59,-19.55 560.79,-26.55"/>
</g>
<!-- Node16&#45;&gt;Node5 -->
<g id="edge17" class="edge">
<title>Node16&#45;&gt;Node5</title>
<path fill="none" stroke="midnightblue" d="M410.9,-38.08C387.28,-44.27 358.93,-51.69 336.87,-57.47"/>
<polygon fill="midnightblue" stroke="midnightblue" points="411.92,-41.43 420.7,-35.51 410.14,-34.66 411.92,-41.43"/>
</g>
</g>
</svg>
