<?xml version="1.0" encoding="UTF-8" standalone="no"?>
<!DOCTYPE svg PUBLIC "-//W3C//DTD SVG 1.1//EN"
 "http://www.w3.org/Graphics/SVG/1.1/DTD/svg11.dtd">
<!-- Generated by graphviz version 2.43.0 (0)
 -->
<!-- Title: set_layer_n_active Pages: 1 -->
<svg width="422pt" height="101pt"
 viewBox="0.00 0.00 422.00 101.00" xmlns="http://www.w3.org/2000/svg" xmlns:xlink="http://www.w3.org/1999/xlink">
<g id="graph0" class="graph" transform="scale(1 1) rotate(0) translate(4 97)">
<title>set_layer_n_active</title>
<!-- Node1 -->
<g id="Node000001" class="node">
<title>Node1</title>
<g id="a_Node000001"><a xlink:title="Sets the number of active (non&#45;zero) weights in a recurrent layer.">
<polygon fill="#999999" stroke="#666666" points="414,-56 316,-56 316,-37 414,-37 414,-56"/>
<text text-anchor="middle" x="365" y="-44" font-family="Helvetica,sans-Serif" font-size="10.00">set_layer_n_active</text>
</a>
</g>
</g>
<!-- Node2 -->
<g id="Node000002" class="node">
<title>Node2</title>
<g id="a_Node000002"><a xlink:href="neural__layer__recurrent_8c.html#af1574ac1aaa2948e0e159e07e7c4d24a" target="_top" xlink:title="Mutates the number of active weights in a recurrent layer.">
<polygon fill="white" stroke="#666666" points="266.5,-93 162.5,-93 162.5,-74 266.5,-74 266.5,-93"/>
<text text-anchor="middle" x="214.5" y="-81" font-family="Helvetica,sans-Serif" font-size="10.00">mutate_connectivity</text>
</a>
</g>
</g>
<!-- Node1&#45;&gt;Node2 -->
<g id="edge1_Node000001_Node000002" class="edge">
<title>Node1&#45;&gt;Node2</title>
<g id="a_edge1_Node000001_Node000002"><a xlink:title=" ">
<path fill="none" stroke="#63b8ff" d="M315.86,-58.49C295.78,-63.5 272.78,-69.23 253.87,-73.94"/>
<polygon fill="#63b8ff" stroke="#63b8ff" points="316.9,-61.84 325.76,-56.03 315.21,-55.05 316.9,-61.84"/>
</a>
</g>
</g>
<!-- Node4 -->
<g id="Node000004" class="node">
<title>Node4</title>
<g id="a_Node000004"><a xlink:href="neural__layer__recurrent_8c.html#a804cc1f15baeb4bb507dc449b8e3dcfd" target="_top" xlink:title="Mutates the number of neurons in a recurrent layer.">
<polygon fill="white" stroke="#666666" points="257.5,-56 171.5,-56 171.5,-37 257.5,-37 257.5,-56"/>
<text text-anchor="middle" x="214.5" y="-44" font-family="Helvetica,sans-Serif" font-size="10.00">mutate_neurons</text>
</a>
</g>
</g>
<!-- Node1&#45;&gt;Node4 -->
<g id="edge3_Node000001_Node000004" class="edge">
<title>Node1&#45;&gt;Node4</title>
<g id="a_edge3_Node000001_Node000004"><a xlink:title=" ">
<path fill="none" stroke="#63b8ff" d="M305.53,-46.5C289.66,-46.5 272.78,-46.5 257.97,-46.5"/>
<polygon fill="#63b8ff" stroke="#63b8ff" points="305.79,-50 315.79,-46.5 305.79,-43 305.79,-50"/>
</a>
</g>
</g>
<!-- Node5 -->
<g id="Node000005" class="node">
<title>Node5</title>
<g id="a_Node000005"><a xlink:href="neural__layer__recurrent_8c.html#a74274033f3a8272fb8aae4366f93d74c" target="_top" xlink:title="Initialises a recurrent layer.">
<polygon fill="white" stroke="#666666" points="280,-19 149,-19 149,0 280,0 280,-19"/>
<text text-anchor="middle" x="214.5" y="-7" font-family="Helvetica,sans-Serif" font-size="10.00">neural_layer_recurrent_init</text>
</a>
</g>
</g>
<!-- Node1&#45;&gt;Node5 -->
<g id="edge5_Node000001_Node000005" class="edge">
<title>Node1&#45;&gt;Node5</title>
<g id="a_edge5_Node000001_Node000005"><a xlink:title=" ">
<path fill="none" stroke="#63b8ff" d="M315.86,-34.51C295.78,-29.5 272.78,-23.77 253.87,-19.06"/>
<polygon fill="#63b8ff" stroke="#63b8ff" points="315.21,-37.95 325.76,-36.97 316.9,-31.16 315.21,-37.95"/>
</a>
</g>
</g>
<!-- Node3 -->
<g id="Node000003" class="node">
<title>Node3</title>
<g id="a_Node000003"><a xlink:href="neural__layer__recurrent_8c.html#a5f6793ef0a2d69438a499632e360f9e6" target="_top" xlink:title="Mutates a recurrent layer.">
<polygon fill="white" stroke="#666666" points="113,-79.5 0,-79.5 0,-49.5 113,-49.5 113,-79.5"/>
<text text-anchor="start" x="8" y="-67.5" font-family="Helvetica,sans-Serif" font-size="10.00">neural_layer_recurrent</text>
<text text-anchor="middle" x="56.5" y="-56.5" font-family="Helvetica,sans-Serif" font-size="10.00">_mutate</text>
</a>
</g>
</g>
<!-- Node2&#45;&gt;Node3 -->
<g id="edge2_Node000002_Node000003" class="edge">
<title>Node2&#45;&gt;Node3</title>
<g id="a_edge2_Node000002_Node000003"><a xlink:title=" ">
<path fill="none" stroke="#63b8ff" d="M152.21,-76.04C139.28,-74.46 125.71,-72.81 113,-71.26"/>
<polygon fill="#63b8ff" stroke="#63b8ff" points="152.07,-79.54 162.42,-77.28 152.92,-72.6 152.07,-79.54"/>
</a>
</g>
</g>
<!-- Node4&#45;&gt;Node3 -->
<g id="edge4_Node000004_Node000003" class="edge">
<title>Node4&#45;&gt;Node3</title>
<g id="a_edge4_Node000004_Node000003"><a xlink:title=" ">
<path fill="none" stroke="#63b8ff" d="M160.93,-52.57C145.59,-54.34 128.77,-56.28 113.24,-58.07"/>
<polygon fill="#63b8ff" stroke="#63b8ff" points="161.75,-55.99 171.28,-51.37 160.95,-49.04 161.75,-55.99"/>
</a>
</g>
</g>
</g>
</svg>
