<?xml version="1.0" encoding="UTF-8" standalone="no"?>
<!DOCTYPE svg PUBLIC "-//W3C//DTD SVG 1.1//EN"
 "http://www.w3.org/Graphics/SVG/1.1/DTD/svg11.dtd">
<!-- Generated by graphviz version 2.43.0 (0)
 -->
<!-- Title: layer_add_neurons Pages: 1 -->
<svg width="346pt" height="175pt"
 viewBox="0.00 0.00 346.00 175.00" xmlns="http://www.w3.org/2000/svg" xmlns:xlink="http://www.w3.org/1999/xlink">
<g id="graph0" class="graph" transform="scale(1 1) rotate(0) translate(4 171)">
<title>layer_add_neurons</title>
<!-- Node1 -->
<g id="Node000001" class="node">
<title>Node1</title>
<g id="a_Node000001"><a xlink:title="Adds N neurons to a layer. Negative N removes neurons.">
<polygon fill="#999999" stroke="#666666" points="98,-93 0,-93 0,-74 98,-74 98,-93"/>
<text text-anchor="middle" x="49" y="-81" font-family="Helvetica,sans-Serif" font-size="10.00">layer_add_neurons</text>
</a>
</g>
</g>
<!-- Node2 -->
<g id="Node000002" class="node">
<title>Node2</title>
<g id="a_Node000002"><a xlink:href="neural__layer_8c.html#abb27e5ed20353f12ec393c83e30372fe" target="_top" xlink:title="Recalculates the number of active connections within a layer.">
<polygon fill="white" stroke="#666666" points="238.5,-167 135.5,-167 135.5,-148 238.5,-148 238.5,-167"/>
<text text-anchor="middle" x="187" y="-155" font-family="Helvetica,sans-Serif" font-size="10.00">layer_calc_n_active</text>
</a>
</g>
</g>
<!-- Node1&#45;&gt;Node2 -->
<g id="edge1_Node000001_Node000002" class="edge">
<title>Node1&#45;&gt;Node2</title>
<g id="a_edge1_Node000001_Node000002"><a xlink:title=" ">
<path fill="none" stroke="#63b8ff" d="M62.2,-93.09C78.03,-105.19 106.84,-126.02 134,-139.5 137.36,-141.17 140.92,-142.75 144.53,-144.23"/>
<polygon fill="#63b8ff" stroke="#63b8ff" points="143.53,-147.6 154.13,-147.91 146.04,-141.06 143.53,-147.6"/>
</a>
</g>
</g>
<!-- Node3 -->
<g id="Node000003" class="node">
<title>Node3</title>
<g id="a_Node000003"><a xlink:href="neural__layer_8c.html#a99157f8bba089b8f6d617020cdc45d7b" target="_top" xlink:title="Check number of outputs is within bounds.">
<polygon fill="white" stroke="#666666" points="239,-130 135,-130 135,-111 239,-111 239,-130"/>
<text text-anchor="middle" x="187" y="-118" font-family="Helvetica,sans-Serif" font-size="10.00">layer_guard_outputs</text>
</a>
</g>
</g>
<!-- Node1&#45;&gt;Node3 -->
<g id="edge2_Node000001_Node000003" class="edge">
<title>Node1&#45;&gt;Node3</title>
<g id="a_edge2_Node000001_Node000003"><a xlink:title=" ">
<path fill="none" stroke="#63b8ff" d="M85.02,-93.03C102.02,-97.65 122.65,-103.27 140.82,-108.21"/>
<polygon fill="#63b8ff" stroke="#63b8ff" points="140.05,-111.63 150.62,-110.88 141.89,-104.87 140.05,-111.63"/>
</a>
</g>
</g>
<!-- Node5 -->
<g id="Node000005" class="node">
<title>Node5</title>
<g id="a_Node000005"><a xlink:href="neural__layer_8c.html#afb8c6762568c65726b62ee12c816fb2b" target="_top" xlink:title="Check number of weights is within bounds.">
<polygon fill="white" stroke="#666666" points="240,-93 134,-93 134,-74 240,-74 240,-93"/>
<text text-anchor="middle" x="187" y="-81" font-family="Helvetica,sans-Serif" font-size="10.00">layer_guard_weights</text>
</a>
</g>
</g>
<!-- Node1&#45;&gt;Node5 -->
<g id="edge4_Node000001_Node000005" class="edge">
<title>Node1&#45;&gt;Node5</title>
<g id="a_edge4_Node000001_Node000005"><a xlink:title=" ">
<path fill="none" stroke="#63b8ff" d="M98.33,-83.5C106.47,-83.5 115.03,-83.5 123.47,-83.5"/>
<polygon fill="#63b8ff" stroke="#63b8ff" points="123.67,-87 133.67,-83.5 123.67,-80 123.67,-87"/>
</a>
</g>
</g>
<!-- Node6 -->
<g id="Node000006" class="node">
<title>Node6</title>
<g id="a_Node000006"><a xlink:href="utils_8c.html#a6a36d869b4a218a3f55cd19067f62c0f" target="_top" xlink:title="Returns a random Gaussian with specified mean and standard deviation.">
<polygon fill="white" stroke="#666666" points="222,-56 152,-56 152,-37 222,-37 222,-56"/>
<text text-anchor="middle" x="187" y="-44" font-family="Helvetica,sans-Serif" font-size="10.00">rand_normal</text>
</a>
</g>
</g>
<!-- Node1&#45;&gt;Node6 -->
<g id="edge6_Node000001_Node000006" class="edge">
<title>Node1&#45;&gt;Node6</title>
<g id="a_edge6_Node000001_Node000006"><a xlink:title=" ">
<path fill="none" stroke="#63b8ff" d="M85.02,-73.97C102.29,-69.27 123.3,-63.56 141.67,-58.56"/>
<polygon fill="#63b8ff" stroke="#63b8ff" points="142.84,-61.87 151.57,-55.87 141,-55.12 142.84,-61.87"/>
</a>
</g>
</g>
<!-- Node7 -->
<g id="Node000007" class="node">
<title>Node7</title>
<g id="a_Node000007"><a xlink:href="utils_8c.html#a972761ba8f47a6c3e7396a7c685158fc" target="_top" xlink:title="Returns a uniform random float [min,max].">
<polygon fill="white" stroke="#666666" points="223.5,-19 150.5,-19 150.5,0 223.5,0 223.5,-19"/>
<text text-anchor="middle" x="187" y="-7" font-family="Helvetica,sans-Serif" font-size="10.00">rand_uniform</text>
</a>
</g>
</g>
<!-- Node1&#45;&gt;Node7 -->
<g id="edge7_Node000001_Node000007" class="edge">
<title>Node1&#45;&gt;Node7</title>
<g id="a_edge7_Node000001_Node000007"><a xlink:title=" ">
<path fill="none" stroke="#63b8ff" d="M62.54,-73.96C78.49,-62.15 107.2,-41.94 134,-28.5 138.07,-26.46 142.42,-24.52 146.8,-22.72"/>
<polygon fill="#63b8ff" stroke="#63b8ff" points="148.3,-25.89 156.35,-19 145.76,-19.37 148.3,-25.89"/>
</a>
</g>
</g>
<!-- Node4 -->
<g id="Node000004" class="node">
<title>Node4</title>
<g id="a_Node000004"><a xlink:href="neural__layer_8h.html#af3da4af94dd537080a072c07c66d955d" target="_top" xlink:title="Prints the layer.">
<polygon fill="white" stroke="#666666" points="338,-111 276,-111 276,-92 338,-92 338,-111"/>
<text text-anchor="middle" x="307" y="-99" font-family="Helvetica,sans-Serif" font-size="10.00">layer_print</text>
</a>
</g>
</g>
<!-- Node3&#45;&gt;Node4 -->
<g id="edge3_Node000003_Node000004" class="edge">
<title>Node3&#45;&gt;Node4</title>
<g id="a_edge3_Node000003_Node000004"><a xlink:title=" ">
<path fill="none" stroke="#63b8ff" d="M239.07,-112.28C248.02,-110.84 257.21,-109.36 265.81,-107.97"/>
<polygon fill="#63b8ff" stroke="#63b8ff" points="266.62,-111.39 275.94,-106.34 265.51,-104.47 266.62,-111.39"/>
</a>
</g>
</g>
<!-- Node5&#45;&gt;Node4 -->
<g id="edge5_Node000005_Node000004" class="edge">
<title>Node5&#45;&gt;Node4</title>
<g id="a_edge5_Node000005_Node000004"><a xlink:title=" ">
<path fill="none" stroke="#63b8ff" d="M240.1,-91.45C248.7,-92.76 257.49,-94.1 265.74,-95.36"/>
<polygon fill="#63b8ff" stroke="#63b8ff" points="265.42,-98.85 275.84,-96.9 266.48,-91.93 265.42,-98.85"/>
</a>
</g>
</g>
</g>
</svg>
