<?xml version="1.0" encoding="UTF-8" standalone="no"?>
<!DOCTYPE svg PUBLIC "-//W3C//DTD SVG 1.1//EN"
 "http://www.w3.org/Graphics/SVG/1.1/DTD/svg11.dtd">
<!-- Generated by graphviz version 2.43.0 (0)
 -->
<!-- Title: neural_layer_lstm_print Pages: 1 -->
<svg width="432pt" height="66pt"
 viewBox="0.00 0.00 432.00 66.00" xmlns="http://www.w3.org/2000/svg" xmlns:xlink="http://www.w3.org/1999/xlink">
<g id="graph0" class="graph" transform="scale(1 1) rotate(0) translate(4 62)">
<title>neural_layer_lstm_print</title>
<!-- Node1 -->
<g id="node1" class="node">
<title>Node1</title>
<g id="a_node1"><a xlink:title="Prints an LSTM layer.">
<polygon fill="#bfbfbf" stroke="black" points="0,-19.5 0,-38.5 117,-38.5 117,-19.5 0,-19.5"/>
<text text-anchor="middle" x="58.5" y="-26.5" font-family="Helvetica,sans-Serif" font-size="10.00">neural_layer_lstm_print</text>
</a>
</g>
</g>
<!-- Node2 -->
<g id="node2" class="node">
<title>Node2</title>
<g id="a_node2"><a xlink:href="neural__layer__lstm_8c.html#aef595b2b531e5ef7e064c7fa312a176f" target="_top" xlink:title="Returns a json formatted string representation of an LSTM layer.">
<polygon fill="none" stroke="black" points="153,-14 153,-44 269,-44 269,-14 153,-14"/>
<text text-anchor="start" x="161" y="-32" font-family="Helvetica,sans-Serif" font-size="10.00">neural_layer_lstm_json</text>
<text text-anchor="middle" x="211" y="-21" font-family="Helvetica,sans-Serif" font-size="10.00">_export</text>
</a>
</g>
</g>
<!-- Node1&#45;&gt;Node2 -->
<g id="edge1" class="edge">
<title>Node1&#45;&gt;Node2</title>
<path fill="none" stroke="midnightblue" d="M117.26,-29C125.51,-29 134.05,-29 142.47,-29"/>
<polygon fill="midnightblue" stroke="midnightblue" points="142.65,-32.5 152.65,-29 142.65,-25.5 142.65,-32.5"/>
</g>
<!-- Node3 -->
<g id="node3" class="node">
<title>Node3</title>
<g id="a_node3"><a xlink:href="neural__layer_8c.html#a76be9c80bef04ba1a799825d96526d6d" target="_top" xlink:title="Returns a json formatted string representation of a layer&#39;s weights.">
<polygon fill="none" stroke="black" points="317,-38.5 317,-57.5 412,-57.5 412,-38.5 317,-38.5"/>
<text text-anchor="middle" x="364.5" y="-45.5" font-family="Helvetica,sans-Serif" font-size="10.00">layer_weight_json</text>
</a>
</g>
</g>
<!-- Node2&#45;&gt;Node3 -->
<g id="edge2" class="edge">
<title>Node2&#45;&gt;Node3</title>
<path fill="none" stroke="midnightblue" d="M269.28,-36.18C281.58,-37.73 294.58,-39.36 306.87,-40.9"/>
<polygon fill="midnightblue" stroke="midnightblue" points="306.63,-44.39 316.98,-42.17 307.5,-37.45 306.63,-44.39"/>
</g>
<!-- Node4 -->
<g id="node4" class="node">
<title>Node4</title>
<g id="a_node4"><a xlink:href="neural__activations_8c.html#a429f5b4427682cb174e3d4d56f181a22" target="_top" xlink:title="Returns the name of a specified activation function.">
<polygon fill="none" stroke="black" points="305,-0.5 305,-19.5 424,-19.5 424,-0.5 305,-0.5"/>
<text text-anchor="middle" x="364.5" y="-7.5" font-family="Helvetica,sans-Serif" font-size="10.00">neural_activation_string</text>
</a>
</g>
</g>
<!-- Node2&#45;&gt;Node4 -->
<g id="edge3" class="edge">
<title>Node2&#45;&gt;Node4</title>
<path fill="none" stroke="midnightblue" d="M269.28,-21.82C277.65,-20.77 286.34,-19.68 294.91,-18.6"/>
<polygon fill="midnightblue" stroke="midnightblue" points="295.4,-22.07 304.88,-17.35 294.53,-15.12 295.4,-22.07"/>
</g>
</g>
</svg>
