<?xml version="1.0" encoding="UTF-8" standalone="no"?>
<!DOCTYPE svg PUBLIC "-//W3C//DTD SVG 1.1//EN"
 "http://www.w3.org/Graphics/SVG/1.1/DTD/svg11.dtd">
<!-- Generated by graphviz version 2.43.0 (0)
 -->
<!-- Title: malloc_layer_arrays Pages: 1 -->
<svg width="281pt" height="150pt"
 viewBox="0.00 0.00 281.00 149.50" xmlns="http://www.w3.org/2000/svg" xmlns:xlink="http://www.w3.org/1999/xlink">
<g id="graph0" class="graph" transform="scale(1 1) rotate(0) translate(4 145.5)">
<title>malloc_layer_arrays</title>
<!-- Node1 -->
<g id="Node000001" class="node">
<title>Node1</title>
<g id="a_Node000001"><a xlink:title="Allocate memory used by a dropout layer.">
<polygon fill="#999999" stroke="#666666" points="273,-85.5 169,-85.5 169,-66.5 273,-66.5 273,-85.5"/>
<text text-anchor="middle" x="221" y="-73.5" font-family="Helvetica,sans-Serif" font-size="10.00">malloc_layer_arrays</text>
</a>
</g>
</g>
<!-- Node2 -->
<g id="Node000002" class="node">
<title>Node2</title>
<g id="a_Node000002"><a xlink:href="neural__layer__dropout_8c.html#a18092e986e5ed7f9084f416a153c5ba1" target="_top" xlink:title="Initialises and creates a copy of one dropout layer from another.">
<polygon fill="white" stroke="#666666" points="133,-141.5 0,-141.5 0,-122.5 133,-122.5 133,-141.5"/>
<text text-anchor="middle" x="66.5" y="-129.5" font-family="Helvetica,sans-Serif" font-size="10.00">neural_layer_dropout_copy</text>
</a>
</g>
</g>
<!-- Node1&#45;&gt;Node2 -->
<g id="edge1_Node000001_Node000002" class="edge">
<title>Node1&#45;&gt;Node2</title>
<g id="a_edge1_Node000001_Node000002"><a xlink:title=" ">
<path fill="none" stroke="#63b8ff" d="M191.05,-89.89C174.32,-97.6 152.74,-107.02 133,-114 124.33,-117.07 114.86,-119.94 105.89,-122.44"/>
<polygon fill="#63b8ff" stroke="#63b8ff" points="192.7,-92.98 200.28,-85.58 189.74,-86.64 192.7,-92.98"/>
</a>
</g>
</g>
<!-- Node3 -->
<g id="Node000003" class="node">
<title>Node3</title>
<g id="a_Node000003"><a xlink:href="neural__layer__dropout_8c.html#aa96fffc3ae2e176c86142debc8faf512" target="_top" xlink:title="Initialises a dropout layer.">
<polygon fill="white" stroke="#666666" points="129,-104.5 4,-104.5 4,-85.5 129,-85.5 129,-104.5"/>
<text text-anchor="middle" x="66.5" y="-92.5" font-family="Helvetica,sans-Serif" font-size="10.00">neural_layer_dropout_init</text>
</a>
</g>
</g>
<!-- Node1&#45;&gt;Node3 -->
<g id="edge2_Node000001_Node000003" class="edge">
<title>Node1&#45;&gt;Node3</title>
<g id="a_edge2_Node000001_Node000003"><a xlink:title=" ">
<path fill="none" stroke="#63b8ff" d="M158.78,-83.63C149.02,-84.84 138.92,-86.1 129.15,-87.32"/>
<polygon fill="#63b8ff" stroke="#63b8ff" points="159.3,-87.09 168.8,-82.38 158.44,-80.14 159.3,-87.09"/>
</a>
</g>
</g>
<!-- Node4 -->
<g id="Node000004" class="node">
<title>Node4</title>
<g id="a_Node000004"><a xlink:href="neural__layer__dropout_8c.html#ad6efd45d8c8f564208504cc5f71e47f4" target="_top" xlink:title="Reads a dropout layer from a file.">
<polygon fill="white" stroke="#666666" points="131.5,-67.5 1.5,-67.5 1.5,-48.5 131.5,-48.5 131.5,-67.5"/>
<text text-anchor="middle" x="66.5" y="-55.5" font-family="Helvetica,sans-Serif" font-size="10.00">neural_layer_dropout_load</text>
</a>
</g>
</g>
<!-- Node1&#45;&gt;Node4 -->
<g id="edge3_Node000001_Node000004" class="edge">
<title>Node1&#45;&gt;Node4</title>
<g id="a_edge3_Node000001_Node000004"><a xlink:title=" ">
<path fill="none" stroke="#63b8ff" d="M158.82,-68.78C149.85,-67.72 140.6,-66.63 131.57,-65.56"/>
<polygon fill="#63b8ff" stroke="#63b8ff" points="158.45,-72.26 168.8,-69.96 159.27,-65.31 158.45,-72.26"/>
</a>
</g>
</g>
<!-- Node5 -->
<g id="Node000005" class="node">
<title>Node5</title>
<g id="a_Node000005"><a xlink:href="neural__layer__dropout_8c.html#a41d440982cb69c9769ac696c731b4e17" target="_top" xlink:title="Resizes a dropout layer if the previous layer has changed size.">
<polygon fill="white" stroke="#666666" points="120,-30 13,-30 13,0 120,0 120,-30"/>
<text text-anchor="start" x="21" y="-18" font-family="Helvetica,sans-Serif" font-size="10.00">neural_layer_dropout</text>
<text text-anchor="middle" x="66.5" y="-7" font-family="Helvetica,sans-Serif" font-size="10.00">_resize</text>
</a>
</g>
</g>
<!-- Node1&#45;&gt;Node5 -->
<g id="edge4_Node000001_Node000005" class="edge">
<title>Node1&#45;&gt;Node5</title>
<g id="a_edge4_Node000001_Node000005"><a xlink:title=" ">
<path fill="none" stroke="#63b8ff" d="M187.55,-62.32C171.23,-55.51 151.11,-47.2 133,-40 124.74,-36.72 115.87,-33.27 107.4,-30.03"/>
<polygon fill="#63b8ff" stroke="#63b8ff" points="186.6,-65.72 197.17,-66.35 189.3,-59.26 186.6,-65.72"/>
</a>
</g>
</g>
</g>
</svg>
