<?xml version="1.0" encoding="UTF-8" standalone="no"?>
<!DOCTYPE svg PUBLIC "-//W3C//DTD SVG 1.1//EN"
 "http://www.w3.org/Graphics/SVG/1.1/DTD/svg11.dtd">
<!-- Generated by graphviz version 2.43.0 (0)
 -->
<!-- Title: neural_remove Pages: 1 -->
<svg width="806pt" height="28pt"
 viewBox="0.00 0.00 806.00 28.00" xmlns="http://www.w3.org/2000/svg" xmlns:xlink="http://www.w3.org/1999/xlink">
<g id="graph0" class="graph" transform="scale(1 1) rotate(0) translate(4 24)">
<title>neural_remove</title>
<!-- Node1 -->
<g id="node1" class="node">
<title>Node1</title>
<g id="a_node1"><a xlink:title="Removes a layer from a neural network.">
<polygon fill="#bfbfbf" stroke="black" points="718,-0.5 718,-19.5 798,-19.5 798,-0.5 718,-0.5"/>
<text text-anchor="middle" x="758" y="-7.5" font-family="Helvetica,sans-Serif" font-size="10.00">neural_remove</text>
</a>
</g>
</g>
<!-- Node2 -->
<g id="node2" class="node">
<title>Node2</title>
<g id="a_node2"><a xlink:href="neural_8h.html#af2d255733445f37ec77b106a21215baf" target="_top" xlink:title="Removes the layer at the head of a neural network.">
<polygon fill="none" stroke="black" points="618,-0.5 618,-19.5 682,-19.5 682,-0.5 618,-0.5"/>
<text text-anchor="middle" x="650" y="-7.5" font-family="Helvetica,sans-Serif" font-size="10.00">neural_pop</text>
</a>
</g>
</g>
<!-- Node1&#45;&gt;Node2 -->
<g id="edge1" class="edge">
<title>Node1&#45;&gt;Node2</title>
<path fill="none" stroke="midnightblue" d="M707.7,-10C698.97,-10 690.11,-10 682.06,-10"/>
<polygon fill="midnightblue" stroke="midnightblue" points="707.83,-13.5 717.83,-10 707.83,-6.5 707.83,-13.5"/>
</g>
<!-- Node3 -->
<g id="node3" class="node">
<title>Node3</title>
<g id="a_node3"><a xlink:href="pred__neural_8h.html#aa639a9130cac0c222bca241f86d6c135" target="_top" xlink:title="Removes prediction (decoder) layers and inserts softmax output layer.">
<polygon fill="none" stroke="black" points="442,-0.5 442,-19.5 582,-19.5 582,-0.5 442,-0.5"/>
<text text-anchor="middle" x="512" y="-7.5" font-family="Helvetica,sans-Serif" font-size="10.00">pred_neural_ae_to_classifier</text>
</a>
</g>
</g>
<!-- Node2&#45;&gt;Node3 -->
<g id="edge2" class="edge">
<title>Node2&#45;&gt;Node3</title>
<path fill="none" stroke="midnightblue" d="M607.54,-10C599.44,-10 590.74,-10 582.01,-10"/>
<polygon fill="midnightblue" stroke="midnightblue" points="607.8,-13.5 617.8,-10 607.8,-6.5 607.8,-13.5"/>
</g>
<!-- Node4 -->
<g id="node4" class="node">
<title>Node4</title>
<g id="a_node4"><a xlink:href="xcsf_8h.html#ad77461184a11780681798ac593b090ab" target="_top" xlink:title="Switches from autoencoding to classification.">
<polygon fill="none" stroke="black" points="297,-0.5 297,-19.5 406,-19.5 406,-0.5 297,-0.5"/>
<text text-anchor="middle" x="351.5" y="-7.5" font-family="Helvetica,sans-Serif" font-size="10.00">xcsf_ae_to_classifier</text>
</a>
</g>
</g>
<!-- Node3&#45;&gt;Node4 -->
<g id="edge3" class="edge">
<title>Node3&#45;&gt;Node4</title>
<path fill="none" stroke="midnightblue" d="M431.75,-10C423.06,-10 414.36,-10 406.08,-10"/>
<polygon fill="midnightblue" stroke="midnightblue" points="431.94,-13.5 441.94,-10 431.94,-6.5 431.94,-13.5"/>
</g>
<!-- Node5 -->
<g id="node5" class="node">
<title>Node5</title>
<g id="a_node5"><a xlink:href="classXCS.html#ad73009d926d395ee03bf7586f194fcbe" target="_top" xlink:title="Switches from autoencoding to classification.">
<polygon fill="none" stroke="black" points="149,-0.5 149,-19.5 261,-19.5 261,-0.5 149,-0.5"/>
<text text-anchor="middle" x="205" y="-7.5" font-family="Helvetica,sans-Serif" font-size="10.00">XCS::ae_to_classifier</text>
</a>
</g>
</g>
<!-- Node4&#45;&gt;Node5 -->
<g id="edge4" class="edge">
<title>Node4&#45;&gt;Node5</title>
<path fill="none" stroke="midnightblue" d="M286.54,-10C278.12,-10 269.55,-10 261.3,-10"/>
<polygon fill="midnightblue" stroke="midnightblue" points="286.69,-13.5 296.69,-10 286.69,-6.5 286.69,-13.5"/>
</g>
<!-- Node6 -->
<g id="node6" class="node">
<title>Node6</title>
<g id="a_node6"><a xlink:href="pybind__wrapper_8cpp.html#a172daba0778fe2bd38d723d5f52a23d5" target="_top" xlink:title=" ">
<polygon fill="none" stroke="black" points="0,-0.5 0,-19.5 113,-19.5 113,-0.5 0,-0.5"/>
<text text-anchor="middle" x="56.5" y="-7.5" font-family="Helvetica,sans-Serif" font-size="10.00">PYBIND11_MODULE</text>
</a>
</g>
</g>
<!-- Node5&#45;&gt;Node6 -->
<g id="edge5" class="edge">
<title>Node5&#45;&gt;Node6</title>
<path fill="none" stroke="midnightblue" d="M138.51,-10C130.15,-10 121.64,-10 113.45,-10"/>
<polygon fill="midnightblue" stroke="midnightblue" points="138.61,-13.5 148.61,-10 138.61,-6.5 138.61,-13.5"/>
</g>
</g>
</svg>
