<?xml version="1.0" encoding="UTF-8" standalone="no"?>
<!DOCTYPE svg PUBLIC "-//W3C//DTD SVG 1.1//EN"
 "http://www.w3.org/Graphics/SVG/1.1/DTD/svg11.dtd">
<!-- Generated by graphviz version 2.43.0 (0)
 -->
<!-- Title: neural_layer_recurrent_forward Pages: 1 -->
<svg width="232pt" height="64pt"
 viewBox="0.00 0.00 232.00 64.00" xmlns="http://www.w3.org/2000/svg" xmlns:xlink="http://www.w3.org/1999/xlink">
<g id="graph0" class="graph" transform="scale(1 1) rotate(0) translate(4 60)">
<title>neural_layer_recurrent_forward</title>
<!-- Node1 -->
<g id="Node000001" class="node">
<title>Node1</title>
<g id="a_Node000001"><a xlink:title="Forward propagates a recurrent layer.">
<polygon fill="#999999" stroke="#666666" points="113,-42.5 0,-42.5 0,-12.5 113,-12.5 113,-42.5"/>
<text text-anchor="start" x="8" y="-30.5" font-family="Helvetica,sans-Serif" font-size="10.00">neural_layer_recurrent</text>
<text text-anchor="middle" x="56.5" y="-19.5" font-family="Helvetica,sans-Serif" font-size="10.00">_forward</text>
</a>
</g>
</g>
<!-- Node2 -->
<g id="Node000002" class="node">
<title>Node2</title>
<g id="a_Node000002"><a xlink:href="blas_8c.html#ad4fa7c98f973bedeaf96fa3757229876" target="_top" xlink:title="Multiplies vector X by the scalar ALPHA and adds it to the vector Y.">
<polygon fill="white" stroke="#666666" points="217,-56 156,-56 156,-37 217,-37 217,-56"/>
<text text-anchor="middle" x="186.5" y="-44" font-family="Helvetica,sans-Serif" font-size="10.00">blas_axpy</text>
</a>
</g>
</g>
<!-- Node1&#45;&gt;Node2 -->
<g id="edge1_Node000001_Node000002" class="edge">
<title>Node1&#45;&gt;Node2</title>
<g id="a_edge1_Node000001_Node000002"><a xlink:title=" ">
<path fill="none" stroke="#63b8ff" d="M113.27,-35.78C124.29,-37.41 135.63,-39.1 145.97,-40.63"/>
<polygon fill="#63b8ff" stroke="#63b8ff" points="145.53,-44.1 155.93,-42.11 146.55,-37.18 145.53,-44.1"/>
</a>
</g>
</g>
<!-- Node3 -->
<g id="Node000003" class="node">
<title>Node3</title>
<g id="a_Node000003"><a xlink:href="neural__layer_8h.html#aabfac5227c61181614f84ebf5e00e462" target="_top" xlink:title="Forward propagates an input through the layer.">
<polygon fill="white" stroke="#666666" points="224,-19 149,-19 149,0 224,0 224,-19"/>
<text text-anchor="middle" x="186.5" y="-7" font-family="Helvetica,sans-Serif" font-size="10.00">layer_forward</text>
</a>
</g>
</g>
<!-- Node1&#45;&gt;Node3 -->
<g id="edge2_Node000001_Node000003" class="edge">
<title>Node1&#45;&gt;Node3</title>
<g id="a_edge2_Node000001_Node000003"><a xlink:title=" ">
<path fill="none" stroke="#63b8ff" d="M113.27,-19.66C121.7,-18.47 130.33,-17.26 138.55,-16.1"/>
<polygon fill="#63b8ff" stroke="#63b8ff" points="139.28,-19.53 148.7,-14.68 138.31,-12.6 139.28,-19.53"/>
</a>
</g>
</g>
</g>
</svg>
