<?xml version="1.0" encoding="UTF-8" standalone="no"?>
<!DOCTYPE svg PUBLIC "-//W3C//DTD SVG 1.1//EN"
 "http://www.w3.org/Graphics/SVG/1.1/DTD/svg11.dtd">
<!-- Generated by graphviz version 2.43.0 (0)
 -->
<!-- Title: neural_json_import Pages: 1 -->
<svg width="267pt" height="150pt"
 viewBox="0.00 0.00 267.00 149.50" xmlns="http://www.w3.org/2000/svg" xmlns:xlink="http://www.w3.org/1999/xlink">
<g id="graph0" class="graph" transform="scale(1 1) rotate(0) translate(4 145.5)">
<title>neural_json_import</title>
<!-- Node1 -->
<g id="Node000001" class="node">
<title>Node1</title>
<g id="a_Node000001"><a xlink:title="Creates a neural network from a cJSON object.">
<polygon fill="#999999" stroke="#666666" points="259,-85.5 161,-85.5 161,-66.5 259,-66.5 259,-85.5"/>
<text text-anchor="middle" x="210" y="-73.5" font-family="Helvetica,sans-Serif" font-size="10.00">neural_json_import</text>
</a>
</g>
</g>
<!-- Node2 -->
<g id="Node000002" class="node">
<title>Node2</title>
<g id="a_Node000002"><a xlink:href="act__neural_8c.html#a29fd2f475f9ca50e0d1a1f79429c8563" target="_top" xlink:title="Creates a neural action from a cJSON object.">
<polygon fill="white" stroke="#666666" points="121,-141.5 4,-141.5 4,-122.5 121,-122.5 121,-141.5"/>
<text text-anchor="middle" x="62.5" y="-129.5" font-family="Helvetica,sans-Serif" font-size="10.00">act_neural_json_import</text>
</a>
</g>
</g>
<!-- Node1&#45;&gt;Node2 -->
<g id="edge1_Node000001_Node000002" class="edge">
<title>Node1&#45;&gt;Node2</title>
<g id="a_edge1_Node000001_Node000002"><a xlink:title=" ">
<path fill="none" stroke="#63b8ff" d="M180.6,-90.05C164.52,-97.7 143.89,-107 125,-114 116.76,-117.05 107.75,-119.94 99.23,-122.46"/>
<polygon fill="#63b8ff" stroke="#63b8ff" points="182.48,-93.03 189.97,-85.53 179.44,-86.72 182.48,-93.03"/>
</a>
</g>
</g>
<!-- Node3 -->
<g id="Node000003" class="node">
<title>Node3</title>
<g id="a_Node000003"><a xlink:href="cond__neural_8c.html#a1155b7cd5115107052590dc619f54324" target="_top" xlink:title="Creates a neural condition from a cJSON object.">
<polygon fill="white" stroke="#666666" points="125,-104.5 0,-104.5 0,-85.5 125,-85.5 125,-104.5"/>
<text text-anchor="middle" x="62.5" y="-92.5" font-family="Helvetica,sans-Serif" font-size="10.00">cond_neural_json_import</text>
</a>
</g>
</g>
<!-- Node1&#45;&gt;Node3 -->
<g id="edge2_Node000001_Node000003" class="edge">
<title>Node1&#45;&gt;Node3</title>
<g id="a_edge2_Node000001_Node000003"><a xlink:title=" ">
<path fill="none" stroke="#63b8ff" d="M150.85,-83.59C142.43,-84.69 133.74,-85.83 125.25,-86.94"/>
<polygon fill="#63b8ff" stroke="#63b8ff" points="151.49,-87.04 160.95,-82.27 150.59,-80.1 151.49,-87.04"/>
</a>
</g>
</g>
<!-- Node4 -->
<g id="Node000004" class="node">
<title>Node4</title>
<g id="a_Node000004"><a xlink:href="pred__neural_8c.html#aa67c3c14a64f4903873c2c4d30938458" target="_top" xlink:title="Creates a neural prediction from a cJSON object.">
<polygon fill="white" stroke="#666666" points="123.5,-67.5 1.5,-67.5 1.5,-48.5 123.5,-48.5 123.5,-67.5"/>
<text text-anchor="middle" x="62.5" y="-55.5" font-family="Helvetica,sans-Serif" font-size="10.00">pred_neural_json_import</text>
</a>
</g>
</g>
<!-- Node1&#45;&gt;Node4 -->
<g id="edge3_Node000001_Node000004" class="edge">
<title>Node1&#45;&gt;Node4</title>
<g id="a_edge3_Node000001_Node000004"><a xlink:title=" ">
<path fill="none" stroke="#63b8ff" d="M150.98,-68.82C142.01,-67.71 132.72,-66.56 123.69,-65.45"/>
<polygon fill="#63b8ff" stroke="#63b8ff" points="150.6,-72.3 160.95,-70.06 151.46,-65.35 150.6,-72.3"/>
</a>
</g>
</g>
<!-- Node5 -->
<g id="Node000005" class="node">
<title>Node5</title>
<g id="a_Node000005"><a xlink:href="rule__neural_8c.html#a68b347d2f7c7252116d66758039935b9" target="_top" xlink:title=" ">
<polygon fill="white" stroke="#666666" points="119,-30 6,-30 6,0 119,0 119,-30"/>
<text text-anchor="start" x="14" y="-18" font-family="Helvetica,sans-Serif" font-size="10.00">rule_neural_cond_json</text>
<text text-anchor="middle" x="62.5" y="-7" font-family="Helvetica,sans-Serif" font-size="10.00">_import</text>
</a>
</g>
</g>
<!-- Node1&#45;&gt;Node5 -->
<g id="edge4_Node000001_Node000005" class="edge">
<title>Node1&#45;&gt;Node5</title>
<g id="a_edge4_Node000001_Node000005"><a xlink:title=" ">
<path fill="none" stroke="#63b8ff" d="M177.65,-62.4C161.88,-55.6 142.46,-47.29 125,-40 117.24,-36.76 108.9,-33.33 100.95,-30.09"/>
<polygon fill="#63b8ff" stroke="#63b8ff" points="176.37,-65.66 186.94,-66.41 179.15,-59.23 176.37,-65.66"/>
</a>
</g>
</g>
</g>
</svg>
