<?xml version="1.0" encoding="UTF-8" standalone="no"?>
<!DOCTYPE svg PUBLIC "-//W3C//DTD SVG 1.1//EN"
 "http://www.w3.org/Graphics/SVG/1.1/DTD/svg11.dtd">
<!-- Generated by graphviz version 2.43.0 (0)
 -->
<!-- Title: malloc_layer_arrays Pages: 1 -->
<svg width="287pt" height="104pt"
 viewBox="0.00 0.00 287.00 104.00" xmlns="http://www.w3.org/2000/svg" xmlns:xlink="http://www.w3.org/1999/xlink">
<g id="graph0" class="graph" transform="scale(1 1) rotate(0) translate(4 100)">
<title>malloc_layer_arrays</title>
<!-- Node1 -->
<g id="node1" class="node">
<title>Node1</title>
<g id="a_node1"><a xlink:title="Allocate memory used by a recurrent layer.">
<polygon fill="#bfbfbf" stroke="black" points="175,-38.5 175,-57.5 279,-57.5 279,-38.5 175,-38.5"/>
<text text-anchor="middle" x="227" y="-45.5" font-family="Helvetica,sans-Serif" font-size="10.00">malloc_layer_arrays</text>
</a>
</g>
</g>
<!-- Node2 -->
<g id="node2" class="node">
<title>Node2</title>
<g id="a_node2"><a xlink:href="neural__layer__recurrent_8c.html#a5f01cc7e722e1426e5aba2a643e33036" target="_top" xlink:title="Initialises and creates a copy of one recurrent layer from another.">
<polygon fill="none" stroke="black" points="0,-76.5 0,-95.5 139,-95.5 139,-76.5 0,-76.5"/>
<text text-anchor="middle" x="69.5" y="-83.5" font-family="Helvetica,sans-Serif" font-size="10.00">neural_layer_recurrent_copy</text>
</a>
</g>
</g>
<!-- Node1&#45;&gt;Node2 -->
<g id="edge1" class="edge">
<title>Node1&#45;&gt;Node2</title>
<path fill="none" stroke="midnightblue" d="M177.03,-59.97C155.23,-65.29 129.93,-71.48 109.46,-76.48"/>
<polygon fill="midnightblue" stroke="midnightblue" points="177.88,-63.36 186.76,-57.59 176.22,-56.56 177.88,-63.36"/>
</g>
<!-- Node3 -->
<g id="node3" class="node">
<title>Node3</title>
<g id="a_node3"><a xlink:href="neural__layer__recurrent_8c.html#a74274033f3a8272fb8aae4366f93d74c" target="_top" xlink:title="Initialises a recurrent layer.">
<polygon fill="none" stroke="black" points="4,-38.5 4,-57.5 135,-57.5 135,-38.5 4,-38.5"/>
<text text-anchor="middle" x="69.5" y="-45.5" font-family="Helvetica,sans-Serif" font-size="10.00">neural_layer_recurrent_init</text>
</a>
</g>
</g>
<!-- Node1&#45;&gt;Node3 -->
<g id="edge2" class="edge">
<title>Node1&#45;&gt;Node3</title>
<path fill="none" stroke="midnightblue" d="M164.38,-48C154.76,-48 144.79,-48 135.1,-48"/>
<polygon fill="midnightblue" stroke="midnightblue" points="164.65,-51.5 174.65,-48 164.65,-44.5 164.65,-51.5"/>
</g>
<!-- Node4 -->
<g id="node4" class="node">
<title>Node4</title>
<g id="a_node4"><a xlink:href="neural__layer__recurrent_8c.html#a2492453a3912b4d17ecd3edf142069de" target="_top" xlink:title="Reads a recurrent layer from a file.">
<polygon fill="none" stroke="black" points="1.5,-0.5 1.5,-19.5 137.5,-19.5 137.5,-0.5 1.5,-0.5"/>
<text text-anchor="middle" x="69.5" y="-7.5" font-family="Helvetica,sans-Serif" font-size="10.00">neural_layer_recurrent_load</text>
</a>
</g>
</g>
<!-- Node1&#45;&gt;Node4 -->
<g id="edge3" class="edge">
<title>Node1&#45;&gt;Node4</title>
<path fill="none" stroke="midnightblue" d="M177.03,-36.03C155.23,-30.71 129.93,-24.52 109.46,-19.52"/>
<polygon fill="midnightblue" stroke="midnightblue" points="176.22,-39.44 186.76,-38.41 177.88,-32.64 176.22,-39.44"/>
</g>
</g>
</svg>
