<?xml version="1.0" encoding="UTF-8" standalone="no"?>
<!DOCTYPE svg PUBLIC "-//W3C//DTD SVG 1.1//EN"
 "http://www.w3.org/Graphics/SVG/1.1/DTD/svg11.dtd">
<!-- Generated by graphviz version 2.43.0 (0)
 -->
<!-- Title: neural_layer_convolutional_mutate Pages: 1 -->
<svg width="828pt" height="412pt"
 viewBox="0.00 0.00 828.00 411.50" xmlns="http://www.w3.org/2000/svg" xmlns:xlink="http://www.w3.org/1999/xlink">
<g id="graph0" class="graph" transform="scale(1 1) rotate(0) translate(4 407.5)">
<title>neural_layer_convolutional_mutate</title>
<!-- Node1 -->
<g id="Node000001" class="node">
<title>Node1</title>
<g id="a_Node000001"><a xlink:title="Mutates a convolutional layer.">
<polygon fill="#999999" stroke="#666666" points="131,-286.5 0,-286.5 0,-256.5 131,-256.5 131,-286.5"/>
<text text-anchor="start" x="8" y="-274.5" font-family="Helvetica,sans-Serif" font-size="10.00">neural_layer_convolutional</text>
<text text-anchor="middle" x="65.5" y="-263.5" font-family="Helvetica,sans-Serif" font-size="10.00">_mutate</text>
</a>
</g>
</g>
<!-- Node2 -->
<g id="Node000002" class="node">
<title>Node2</title>
<g id="a_Node000002"><a xlink:href="neural__layer_8c.html#a0540e1d6748c9b53c1114d869147340f" target="_top" xlink:title="Mutates a layer&#39;s connectivity by zeroing weights.">
<polygon fill="white" stroke="#666666" points="298,-244 167,-244 167,-225 298,-225 298,-244"/>
<text text-anchor="middle" x="232.5" y="-232" font-family="Helvetica,sans-Serif" font-size="10.00">layer_mutate_connectivity</text>
</a>
</g>
</g>
<!-- Node1&#45;&gt;Node2 -->
<g id="edge1_Node000001_Node000002" class="edge">
<title>Node1&#45;&gt;Node2</title>
<g id="a_edge1_Node000001_Node000002"><a xlink:title=" ">
<path fill="none" stroke="#63b8ff" d="M131.24,-256.98C146.94,-253.46 163.54,-249.74 178.61,-246.36"/>
<polygon fill="#63b8ff" stroke="#63b8ff" points="179.79,-249.68 188.78,-244.08 178.26,-242.85 179.79,-249.68"/>
</a>
</g>
</g>
<!-- Node5 -->
<g id="Node000005" class="node">
<title>Node5</title>
<g id="a_Node000005"><a xlink:href="neural__layer_8c.html#ae0694e66ecd389f10d1d3857b699a561" target="_top" xlink:title="Mutates the gradient descent rate of a neural layer.">
<polygon fill="white" stroke="#666666" points="278.5,-355 186.5,-355 186.5,-336 278.5,-336 278.5,-355"/>
<text text-anchor="middle" x="232.5" y="-343" font-family="Helvetica,sans-Serif" font-size="10.00">layer_mutate_eta</text>
</a>
</g>
</g>
<!-- Node1&#45;&gt;Node5 -->
<g id="edge4_Node000001_Node000005" class="edge">
<title>Node1&#45;&gt;Node5</title>
<g id="a_edge4_Node000001_Node000005"><a xlink:title=" ">
<path fill="none" stroke="#63b8ff" d="M90.07,-286.74C109.95,-299.07 139.48,-316.18 167,-327.5 171.72,-329.44 176.71,-331.24 181.75,-332.9"/>
<polygon fill="#63b8ff" stroke="#63b8ff" points="180.85,-336.29 191.43,-335.91 182.92,-329.6 180.85,-336.29"/>
</a>
</g>
</g>
<!-- Node7 -->
<g id="Node000007" class="node">
<title>Node7</title>
<g id="a_Node000007"><a xlink:href="neural__layer_8c.html#a50025a1c69fa89d1ee28171be85d8f7a" target="_top" xlink:title="Mutates a layer&#39;s activation function by random selection.">
<polygon fill="white" stroke="#666666" points="291.5,-206 173.5,-206 173.5,-187 291.5,-187 291.5,-206"/>
<text text-anchor="middle" x="232.5" y="-194" font-family="Helvetica,sans-Serif" font-size="10.00">layer_mutate_functions</text>
</a>
</g>
</g>
<!-- Node1&#45;&gt;Node7 -->
<g id="edge7_Node000001_Node000007" class="edge">
<title>Node1&#45;&gt;Node7</title>
<g id="a_edge7_Node000001_Node000007"><a xlink:title=" ">
<path fill="none" stroke="#63b8ff" d="M91,-256.28C110.94,-244.35 140.08,-227.9 167,-216.5 173.24,-213.86 179.95,-211.39 186.59,-209.15"/>
<polygon fill="#63b8ff" stroke="#63b8ff" points="187.79,-212.44 196.23,-206.04 185.64,-205.78 187.79,-212.44"/>
</a>
</g>
</g>
<!-- Node9 -->
<g id="Node000009" class="node">
<title>Node9</title>
<g id="a_Node000009"><a xlink:href="neural__layer_8c.html#af6edb9466e46b6cd7bc1e8556e86d8ed" target="_top" xlink:title="Mutates a layer&#39;s weights and biases by adding random numbers from a Gaussian normal distribution wit...">
<polygon fill="white" stroke="#666666" points="288.5,-318 176.5,-318 176.5,-299 288.5,-299 288.5,-318"/>
<text text-anchor="middle" x="232.5" y="-306" font-family="Helvetica,sans-Serif" font-size="10.00">layer_mutate_weights</text>
</a>
</g>
</g>
<!-- Node1&#45;&gt;Node9 -->
<g id="edge11_Node000001_Node000009" class="edge">
<title>Node1&#45;&gt;Node9</title>
<g id="a_edge11_Node000001_Node000009"><a xlink:title=" ">
<path fill="none" stroke="#63b8ff" d="M131.24,-286.02C146.94,-289.54 163.54,-293.26 178.61,-296.64"/>
<polygon fill="#63b8ff" stroke="#63b8ff" points="178.26,-300.15 188.78,-298.92 179.79,-293.32 178.26,-300.15"/>
</a>
</g>
</g>
<!-- Node10 -->
<g id="Node000010" class="node">
<title>Node10</title>
<g id="a_Node000010"><a xlink:href="neural__layer__convolutional_8c.html#ac1583df380d50d47c53b64a3e7614269" target="_top" xlink:title="Adds N filters to a layer. Negative N removes filters.">
<polygon fill="white" stroke="#666666" points="298,-152.5 167,-152.5 167,-122.5 298,-122.5 298,-152.5"/>
<text text-anchor="start" x="175" y="-140.5" font-family="Helvetica,sans-Serif" font-size="10.00">neural_layer_convolutional</text>
<text text-anchor="middle" x="232.5" y="-129.5" font-family="Helvetica,sans-Serif" font-size="10.00">_add_filters</text>
</a>
</g>
</g>
<!-- Node1&#45;&gt;Node10 -->
<g id="edge14_Node000001_Node000010" class="edge">
<title>Node1&#45;&gt;Node10</title>
<g id="a_edge14_Node000001_Node000010"><a xlink:title=" ">
<path fill="none" stroke="#63b8ff" d="M81.07,-256.43C99.98,-237.25 134.42,-203.6 167,-178.5 176.25,-171.37 186.77,-164.29 196.59,-158.08"/>
<polygon fill="#63b8ff" stroke="#63b8ff" points="198.71,-160.89 205.35,-152.64 195.01,-154.94 198.71,-160.89"/>
</a>
</g>
</g>
<!-- Node19 -->
<g id="Node000019" class="node">
<title>Node19</title>
<g id="a_Node000019"><a xlink:href="neural__layer__convolutional_8c.html#ad54f1b4b3e465667caa810288f0d1ced" target="_top" xlink:title="Returns the number of kernel filters to add or remove from a layer.">
<polygon fill="white" stroke="#666666" points="298,-403.5 167,-403.5 167,-373.5 298,-373.5 298,-403.5"/>
<text text-anchor="start" x="175" y="-391.5" font-family="Helvetica,sans-Serif" font-size="10.00">neural_layer_convolutional</text>
<text text-anchor="middle" x="232.5" y="-380.5" font-family="Helvetica,sans-Serif" font-size="10.00">_mutate_filter</text>
</a>
</g>
</g>
<!-- Node1&#45;&gt;Node19 -->
<g id="edge27_Node000001_Node000019" class="edge">
<title>Node1&#45;&gt;Node19</title>
<g id="a_edge27_Node000001_Node000019"><a xlink:title=" ">
<path fill="none" stroke="#63b8ff" d="M79.37,-286.65C97.22,-306.84 131.36,-342.58 167,-364.5 169.61,-366.11 172.35,-367.63 175.16,-369.08"/>
<polygon fill="#63b8ff" stroke="#63b8ff" points="173.79,-372.3 184.32,-373.42 176.78,-365.97 173.79,-372.3"/>
</a>
</g>
</g>
<!-- Node20 -->
<g id="Node000020" class="node">
<title>Node20</title>
<g id="a_Node000020"><a xlink:href="sam_8c.html#a8dfbd425ab3513d47726620e94fc861c" target="_top" xlink:title="Self&#45;adapts mutation rates.">
<polygon fill="white" stroke="#666666" points="265,-281 200,-281 200,-262 265,-262 265,-281"/>
<text text-anchor="middle" x="232.5" y="-269" font-family="Helvetica,sans-Serif" font-size="10.00">sam_adapt</text>
</a>
</g>
</g>
<!-- Node1&#45;&gt;Node20 -->
<g id="edge31_Node000001_Node000020" class="edge">
<title>Node1&#45;&gt;Node20</title>
<g id="a_edge31_Node000001_Node000020"><a xlink:title=" ">
<path fill="none" stroke="#63b8ff" d="M131.24,-271.5C150.86,-271.5 171.89,-271.5 189.6,-271.5"/>
<polygon fill="#63b8ff" stroke="#63b8ff" points="189.6,-275 199.6,-271.5 189.6,-268 189.6,-275"/>
</a>
</g>
</g>
<!-- Node3 -->
<g id="Node000003" class="node">
<title>Node3</title>
<g id="a_Node000003"><a xlink:href="utils_8c.html#a6a36d869b4a218a3f55cd19067f62c0f" target="_top" xlink:title="Returns a random Gaussian with specified mean and standard deviation.">
<polygon fill="white" stroke="#666666" points="421,-320 351,-320 351,-301 421,-301 421,-320"/>
<text text-anchor="middle" x="386" y="-308" font-family="Helvetica,sans-Serif" font-size="10.00">rand_normal</text>
</a>
</g>
</g>
<!-- Node2&#45;&gt;Node3 -->
<g id="edge2_Node000002_Node000003" class="edge">
<title>Node2&#45;&gt;Node3</title>
<g id="a_edge2_Node000002_Node000003"><a xlink:title=" ">
<path fill="none" stroke="#63b8ff" d="M272.72,-244.05C281.23,-246.67 290.05,-249.82 298,-253.5 322.42,-264.8 347.89,-282.26 364.92,-294.88"/>
<polygon fill="#63b8ff" stroke="#63b8ff" points="362.91,-297.74 373,-300.98 367.12,-292.16 362.91,-297.74"/>
</a>
</g>
</g>
<!-- Node4 -->
<g id="Node000004" class="node">
<title>Node4</title>
<g id="a_Node000004"><a xlink:href="utils_8c.html#a972761ba8f47a6c3e7396a7c685158fc" target="_top" xlink:title="Returns a uniform random float [min,max].">
<polygon fill="white" stroke="#666666" points="563.5,-244 490.5,-244 490.5,-225 563.5,-225 563.5,-244"/>
<text text-anchor="middle" x="527" y="-232" font-family="Helvetica,sans-Serif" font-size="10.00">rand_uniform</text>
</a>
</g>
</g>
<!-- Node2&#45;&gt;Node4 -->
<g id="edge3_Node000002_Node000004" class="edge">
<title>Node2&#45;&gt;Node4</title>
<g id="a_edge3_Node000002_Node000004"><a xlink:title=" ">
<path fill="none" stroke="#63b8ff" d="M298.05,-234.5C353.22,-234.5 431.23,-234.5 480.19,-234.5"/>
<polygon fill="#63b8ff" stroke="#63b8ff" points="480.48,-238 490.48,-234.5 480.48,-231 480.48,-238"/>
</a>
</g>
</g>
<!-- Node5&#45;&gt;Node3 -->
<g id="edge6_Node000005_Node000003" class="edge">
<title>Node5&#45;&gt;Node3</title>
<g id="a_edge6_Node000005_Node000003"><a xlink:title=" ">
<path fill="none" stroke="#63b8ff" d="M274.9,-335.94C295.38,-331.21 320.11,-325.49 340.94,-320.68"/>
<polygon fill="#63b8ff" stroke="#63b8ff" points="341.86,-324.06 350.81,-318.4 340.28,-317.24 341.86,-324.06"/>
</a>
</g>
</g>
<!-- Node6 -->
<g id="Node000006" class="node">
<title>Node6</title>
<g id="a_Node000006"><a xlink:href="utils_8h.html#a234dd9ca33bcf1fba3e675bc900abc88" target="_top" xlink:title="Returns a float clamped within the specified range.">
<polygon fill="white" stroke="#666666" points="407.5,-357 364.5,-357 364.5,-338 407.5,-338 407.5,-357"/>
<text text-anchor="middle" x="386" y="-345" font-family="Helvetica,sans-Serif" font-size="10.00">clamp</text>
</a>
</g>
</g>
<!-- Node5&#45;&gt;Node6 -->
<g id="edge5_Node000005_Node000006" class="edge">
<title>Node5&#45;&gt;Node6</title>
<g id="a_edge5_Node000005_Node000006"><a xlink:title=" ">
<path fill="none" stroke="#63b8ff" d="M278.54,-346.09C302.98,-346.42 332.55,-346.81 354.32,-347.09"/>
<polygon fill="#63b8ff" stroke="#63b8ff" points="354.27,-350.59 364.32,-347.23 354.36,-343.6 354.27,-350.59"/>
</a>
</g>
</g>
<!-- Node7&#45;&gt;Node4 -->
<g id="edge8_Node000007_Node000004" class="edge">
<title>Node7&#45;&gt;Node4</title>
<g id="a_edge8_Node000007_Node000004"><a xlink:title=" ">
<path fill="none" stroke="#63b8ff" d="M263.98,-187C304.54,-175.88 378.12,-161.06 438,-178.5 464.5,-186.22 490.64,-204.6 507.46,-218.21"/>
<polygon fill="#63b8ff" stroke="#63b8ff" points="505.44,-221.08 515.35,-224.81 509.92,-215.71 505.44,-221.08"/>
</a>
</g>
</g>
<!-- Node8 -->
<g id="Node000008" class="node">
<title>Node8</title>
<g id="a_Node000008"><a xlink:href="utils_8c.html#a5e6304fd9b177f36684d4bb00af49f91" target="_top" xlink:title="Returns a uniform random integer [min,max] not inclusive of max.">
<polygon fill="white" stroke="#666666" points="430.5,-206 341.5,-206 341.5,-187 430.5,-187 430.5,-206"/>
<text text-anchor="middle" x="386" y="-194" font-family="Helvetica,sans-Serif" font-size="10.00">rand_uniform_int</text>
</a>
</g>
</g>
<!-- Node7&#45;&gt;Node8 -->
<g id="edge9_Node000007_Node000008" class="edge">
<title>Node7&#45;&gt;Node8</title>
<g id="a_edge9_Node000007_Node000008"><a xlink:title=" ">
<path fill="none" stroke="#63b8ff" d="M291.64,-196.5C304.68,-196.5 318.45,-196.5 331.3,-196.5"/>
<polygon fill="#63b8ff" stroke="#63b8ff" points="331.37,-200 341.37,-196.5 331.37,-193 331.37,-200"/>
</a>
</g>
</g>
<!-- Node8&#45;&gt;Node4 -->
<g id="edge10_Node000008_Node000004" class="edge">
<title>Node8&#45;&gt;Node4</title>
<g id="a_edge10_Node000008_Node000004"><a xlink:title=" ">
<path fill="none" stroke="#63b8ff" d="M422.08,-206.09C440.02,-210.99 462.06,-217.02 481.22,-222.26"/>
<polygon fill="#63b8ff" stroke="#63b8ff" points="480.37,-225.65 490.94,-224.91 482.21,-218.9 480.37,-225.65"/>
</a>
</g>
</g>
<!-- Node9&#45;&gt;Node3 -->
<g id="edge13_Node000009_Node000003" class="edge">
<title>Node9&#45;&gt;Node3</title>
<g id="a_edge13_Node000009_Node000003"><a xlink:title=" ">
<path fill="none" stroke="#63b8ff" d="M288.62,-309.23C305.7,-309.45 324.28,-309.7 340.54,-309.91"/>
<polygon fill="#63b8ff" stroke="#63b8ff" points="340.8,-313.42 350.84,-310.05 340.89,-306.42 340.8,-313.42"/>
</a>
</g>
</g>
<!-- Node9&#45;&gt;Node6 -->
<g id="edge12_Node000009_Node000006" class="edge">
<title>Node9&#45;&gt;Node6</title>
<g id="a_edge12_Node000009_Node000006"><a xlink:title=" ">
<path fill="none" stroke="#63b8ff" d="M270.56,-318.04C296.32,-324.67 330.23,-333.4 354.43,-339.63"/>
<polygon fill="#63b8ff" stroke="#63b8ff" points="353.61,-343.03 364.16,-342.14 355.35,-336.25 353.61,-343.03"/>
</a>
</g>
</g>
<!-- Node10&#45;&gt;Node3 -->
<g id="edge16_Node000010_Node000003" class="edge">
<title>Node10&#45;&gt;Node3</title>
<g id="a_edge16_Node000010_Node000003"><a xlink:title=" ">
<path fill="none" stroke="#63b8ff" d="M263,-152.69C274.71,-159.58 287.78,-168.45 298,-178.5 333.22,-213.14 361.93,-264.33 375.86,-291.67"/>
<polygon fill="#63b8ff" stroke="#63b8ff" points="372.87,-293.51 380.46,-300.89 379.13,-290.38 372.87,-293.51"/>
</a>
</g>
</g>
<!-- Node11 -->
<g id="Node000011" class="node">
<title>Node11</title>
<g id="a_Node000011"><a xlink:href="neural__layer_8c.html#abb27e5ed20353f12ec393c83e30372fe" target="_top" xlink:title="Recalculates the number of active connections within a layer.">
<polygon fill="white" stroke="#666666" points="437.5,-130 334.5,-130 334.5,-111 437.5,-111 437.5,-130"/>
<text text-anchor="middle" x="386" y="-118" font-family="Helvetica,sans-Serif" font-size="10.00">layer_calc_n_active</text>
</a>
</g>
</g>
<!-- Node10&#45;&gt;Node11 -->
<g id="edge15_Node000010_Node000011" class="edge">
<title>Node10&#45;&gt;Node11</title>
<g id="a_edge15_Node000010_Node000011"><a xlink:title=" ">
<path fill="none" stroke="#63b8ff" d="M298.19,-130.24C306.86,-129.27 315.73,-128.27 324.33,-127.31"/>
<polygon fill="#63b8ff" stroke="#63b8ff" points="324.72,-130.79 334.27,-126.19 323.94,-123.83 324.72,-130.79"/>
</a>
</g>
</g>
<!-- Node12 -->
<g id="Node000012" class="node">
<title>Node12</title>
<g id="a_Node000012"><a xlink:href="neural__layer__convolutional_8c.html#a7575ee8d3534af2a6dcc865e02e5351f" target="_top" xlink:title="Resize memory used by a convolutional layer.">
<polygon fill="white" stroke="#666666" points="438,-93 334,-93 334,-74 438,-74 438,-93"/>
<text text-anchor="middle" x="386" y="-81" font-family="Helvetica,sans-Serif" font-size="10.00">realloc_layer_arrays</text>
</a>
</g>
</g>
<!-- Node10&#45;&gt;Node12 -->
<g id="edge17_Node000010_Node000012" class="edge">
<title>Node10&#45;&gt;Node12</title>
<g id="a_edge17_Node000010_Node000012"><a xlink:title=" ">
<path fill="none" stroke="#63b8ff" d="M275.7,-122.46C298.63,-114.29 326.7,-104.28 348.65,-96.46"/>
<polygon fill="#63b8ff" stroke="#63b8ff" points="350.02,-99.68 358.27,-93.03 347.67,-93.09 350.02,-99.68"/>
</a>
</g>
</g>
<!-- Node13 -->
<g id="Node000013" class="node">
<title>Node13</title>
<g id="a_Node000013"><a xlink:href="neural__layer__convolutional_8c.html#a9613e3f3c10a68cc7b9d5e8f084b137c" target="_top" xlink:title="Returns the memory workspace size for a convolutional layer.">
<polygon fill="white" stroke="#666666" points="580,-112 474,-112 474,-93 580,-93 580,-112"/>
<text text-anchor="middle" x="527" y="-100" font-family="Helvetica,sans-Serif" font-size="10.00">get_workspace_size</text>
</a>
</g>
</g>
<!-- Node12&#45;&gt;Node13 -->
<g id="edge18_Node000012_Node000013" class="edge">
<title>Node12&#45;&gt;Node13</title>
<g id="a_edge18_Node000012_Node000013"><a xlink:title=" ">
<path fill="none" stroke="#63b8ff" d="M438.36,-90.52C446.7,-91.66 455.41,-92.85 463.97,-94.02"/>
<polygon fill="#63b8ff" stroke="#63b8ff" points="463.54,-97.49 473.92,-95.38 464.48,-90.56 463.54,-97.49"/>
</a>
</g>
</g>
<!-- Node15 -->
<g id="Node000015" class="node">
<title>Node15</title>
<g id="a_Node000015"><a xlink:href="neural__layer__convolutional_8c.html#adf18759f7155da7757db6805774dbc73" target="_top" xlink:title="Check memory allocation is within bounds.">
<polygon fill="white" stroke="#666666" points="564,-65 490,-65 490,-46 564,-46 564,-65"/>
<text text-anchor="middle" x="527" y="-53" font-family="Helvetica,sans-Serif" font-size="10.00">guard_malloc</text>
</a>
</g>
</g>
<!-- Node12&#45;&gt;Node15 -->
<g id="edge20_Node000012_Node000015" class="edge">
<title>Node12&#45;&gt;Node15</title>
<g id="a_edge20_Node000012_Node000015"><a xlink:title=" ">
<path fill="none" stroke="#63b8ff" d="M434.45,-73.94C449.14,-70.98 465.31,-67.73 479.91,-64.78"/>
<polygon fill="#63b8ff" stroke="#63b8ff" points="480.62,-68.21 489.74,-62.8 479.24,-61.35 480.62,-68.21"/>
</a>
</g>
</g>
<!-- Node14 -->
<g id="Node000014" class="node">
<title>Node14</title>
<g id="a_Node000014"><a xlink:href="neural__layer_8h.html#af3da4af94dd537080a072c07c66d955d" target="_top" xlink:title="Prints the layer.">
<polygon fill="white" stroke="#666666" points="820,-74 758,-74 758,-55 820,-55 820,-74"/>
<text text-anchor="middle" x="789" y="-62" font-family="Helvetica,sans-Serif" font-size="10.00">layer_print</text>
</a>
</g>
</g>
<!-- Node13&#45;&gt;Node14 -->
<g id="edge19_Node000013_Node000014" class="edge">
<title>Node13&#45;&gt;Node14</title>
<g id="a_edge19_Node000013_Node000014"><a xlink:title=" ">
<path fill="none" stroke="#63b8ff" d="M580,-109.69C619.62,-113.46 675.15,-115.02 722,-102.5 738.45,-98.1 755.04,-88.52 767.48,-80.07"/>
<polygon fill="#63b8ff" stroke="#63b8ff" points="769.61,-82.86 775.74,-74.22 765.56,-77.15 769.61,-82.86"/>
</a>
</g>
</g>
<!-- Node16 -->
<g id="Node000016" class="node">
<title>Node16</title>
<g id="a_Node000016"><a xlink:href="neural__layer_8c.html#a01a12854b9685f32f76429d615e90c50" target="_top" xlink:title="Check number of biases is within bounds.">
<polygon fill="white" stroke="#666666" points="719.5,-56 618.5,-56 618.5,-37 719.5,-37 719.5,-56"/>
<text text-anchor="middle" x="669" y="-44" font-family="Helvetica,sans-Serif" font-size="10.00">layer_guard_biases</text>
</a>
</g>
</g>
<!-- Node15&#45;&gt;Node16 -->
<g id="edge21_Node000015_Node000016" class="edge">
<title>Node15&#45;&gt;Node16</title>
<g id="a_edge21_Node000015_Node000016"><a xlink:title=" ">
<path fill="none" stroke="#63b8ff" d="M564.05,-53.18C577.48,-52.32 593.11,-51.31 608.11,-50.35"/>
<polygon fill="#63b8ff" stroke="#63b8ff" points="608.6,-53.83 618.35,-49.69 608.15,-46.84 608.6,-53.83"/>
</a>
</g>
</g>
<!-- Node17 -->
<g id="Node000017" class="node">
<title>Node17</title>
<g id="a_Node000017"><a xlink:href="neural__layer_8c.html#a99157f8bba089b8f6d617020cdc45d7b" target="_top" xlink:title="Check number of outputs is within bounds.">
<polygon fill="white" stroke="#666666" points="721,-19 617,-19 617,0 721,0 721,-19"/>
<text text-anchor="middle" x="669" y="-7" font-family="Helvetica,sans-Serif" font-size="10.00">layer_guard_outputs</text>
</a>
</g>
</g>
<!-- Node15&#45;&gt;Node17 -->
<g id="edge23_Node000015_Node000017" class="edge">
<title>Node15&#45;&gt;Node17</title>
<g id="a_edge23_Node000015_Node000017"><a xlink:title=" ">
<path fill="none" stroke="#63b8ff" d="M557.01,-45.97C577.94,-39.09 606.42,-29.73 629.29,-22.22"/>
<polygon fill="#63b8ff" stroke="#63b8ff" points="630.62,-25.47 639.03,-19.02 628.44,-18.82 630.62,-25.47"/>
</a>
</g>
</g>
<!-- Node18 -->
<g id="Node000018" class="node">
<title>Node18</title>
<g id="a_Node000018"><a xlink:href="neural__layer_8c.html#afb8c6762568c65726b62ee12c816fb2b" target="_top" xlink:title="Check number of weights is within bounds.">
<polygon fill="white" stroke="#666666" points="722,-93 616,-93 616,-74 722,-74 722,-93"/>
<text text-anchor="middle" x="669" y="-81" font-family="Helvetica,sans-Serif" font-size="10.00">layer_guard_weights</text>
</a>
</g>
</g>
<!-- Node15&#45;&gt;Node18 -->
<g id="edge25_Node000015_Node000018" class="edge">
<title>Node15&#45;&gt;Node18</title>
<g id="a_edge25_Node000015_Node000018"><a xlink:title=" ">
<path fill="none" stroke="#63b8ff" d="M564.05,-62.71C578.14,-65.53 594.65,-68.83 610.31,-71.96"/>
<polygon fill="#63b8ff" stroke="#63b8ff" points="609.96,-75.46 620.45,-73.99 611.33,-68.6 609.96,-75.46"/>
</a>
</g>
</g>
<!-- Node16&#45;&gt;Node14 -->
<g id="edge22_Node000016_Node000014" class="edge">
<title>Node16&#45;&gt;Node14</title>
<g id="a_edge22_Node000016_Node000014"><a xlink:title=" ">
<path fill="none" stroke="#63b8ff" d="M719.7,-54.08C729.13,-55.52 738.88,-57.01 747.96,-58.39"/>
<polygon fill="#63b8ff" stroke="#63b8ff" points="747.46,-61.86 757.88,-59.9 748.52,-54.94 747.46,-61.86"/>
</a>
</g>
</g>
<!-- Node17&#45;&gt;Node14 -->
<g id="edge24_Node000017_Node000014" class="edge">
<title>Node17&#45;&gt;Node14</title>
<g id="a_edge24_Node000017_Node000014"><a xlink:title=" ">
<path fill="none" stroke="#63b8ff" d="M700.6,-19.08C707.72,-21.58 715.2,-24.45 722,-27.5 736.32,-33.93 751.66,-42.42 763.94,-49.65"/>
<polygon fill="#63b8ff" stroke="#63b8ff" points="762.29,-52.74 772.67,-54.87 765.89,-46.74 762.29,-52.74"/>
</a>
</g>
</g>
<!-- Node18&#45;&gt;Node14 -->
<g id="edge26_Node000018_Node000014" class="edge">
<title>Node18&#45;&gt;Node14</title>
<g id="a_edge26_Node000018_Node000014"><a xlink:title=" ">
<path fill="none" stroke="#63b8ff" d="M722.1,-75.11C730.7,-73.73 739.49,-72.31 747.74,-70.98"/>
<polygon fill="#63b8ff" stroke="#63b8ff" points="748.52,-74.4 757.84,-69.36 747.41,-67.49 748.52,-74.4"/>
</a>
</g>
</g>
<!-- Node19&#45;&gt;Node3 -->
<g id="edge29_Node000019_Node000003" class="edge">
<title>Node19&#45;&gt;Node3</title>
<g id="a_edge29_Node000019_Node000003"><a xlink:title=" ">
<path fill="none" stroke="#63b8ff" d="M281.09,-373.39C286.97,-370.78 292.75,-367.82 298,-364.5 316.86,-352.58 315.14,-341.43 334,-329.5 337.1,-327.54 340.43,-325.74 343.85,-324.09"/>
<polygon fill="#63b8ff" stroke="#63b8ff" points="345.25,-327.3 353.01,-320.09 342.45,-320.88 345.25,-327.3"/>
</a>
</g>
</g>
<!-- Node19&#45;&gt;Node4 -->
<g id="edge30_Node000019_Node000004" class="edge">
<title>Node19&#45;&gt;Node4</title>
<g id="a_edge30_Node000019_Node000004"><a xlink:title=" ">
<path fill="none" stroke="#63b8ff" d="M298.33,-395.11C340.95,-396.34 396.32,-391.77 438,-366.5 481.21,-340.3 507.68,-283.86 519.22,-253.98"/>
<polygon fill="#63b8ff" stroke="#63b8ff" points="522.62,-254.87 522.79,-244.27 516.05,-252.45 522.62,-254.87"/>
</a>
</g>
</g>
<!-- Node19&#45;&gt;Node6 -->
<g id="edge28_Node000019_Node000006" class="edge">
<title>Node19&#45;&gt;Node6</title>
<g id="a_edge28_Node000019_Node000006"><a xlink:title=" ">
<path fill="none" stroke="#63b8ff" d="M289.05,-373.47C311.14,-367.49 335.7,-360.84 354.44,-355.77"/>
<polygon fill="#63b8ff" stroke="#63b8ff" points="355.47,-359.12 364.21,-353.13 353.64,-352.36 355.47,-359.12"/>
</a>
</g>
</g>
<!-- Node20&#45;&gt;Node3 -->
<g id="edge33_Node000020_Node000003" class="edge">
<title>Node20&#45;&gt;Node3</title>
<g id="a_edge33_Node000020_Node000003"><a xlink:title=" ">
<path fill="none" stroke="#63b8ff" d="M265.26,-279.68C287.3,-285.35 316.94,-292.98 341.22,-299.23"/>
<polygon fill="#63b8ff" stroke="#63b8ff" points="340.36,-302.62 350.91,-301.73 342.1,-295.84 340.36,-302.62"/>
</a>
</g>
</g>
<!-- Node20&#45;&gt;Node4 -->
<g id="edge34_Node000020_Node000004" class="edge">
<title>Node20&#45;&gt;Node4</title>
<g id="a_edge34_Node000020_Node000004"><a xlink:title=" ">
<path fill="none" stroke="#63b8ff" d="M265.09,-268.4C305.31,-264.35 376.93,-256.79 438,-248.5 451.68,-246.64 466.52,-244.38 480.04,-242.22"/>
<polygon fill="#63b8ff" stroke="#63b8ff" points="480.78,-245.65 490.09,-240.59 479.66,-238.74 480.78,-245.65"/>
</a>
</g>
</g>
<!-- Node20&#45;&gt;Node6 -->
<g id="edge32_Node000020_Node000006" class="edge">
<title>Node20&#45;&gt;Node6</title>
<g id="a_edge32_Node000020_Node000006"><a xlink:title=" ">
<path fill="none" stroke="#63b8ff" d="M265.12,-277.2C276.07,-280.09 288.08,-284.34 298,-290.5 318.04,-302.95 314.3,-316.53 334,-329.5 340.11,-333.52 347.23,-336.77 354.17,-339.33"/>
<polygon fill="#63b8ff" stroke="#63b8ff" points="353.49,-342.79 364.09,-342.61 355.69,-336.15 353.49,-342.79"/>
</a>
</g>
</g>
<!-- Node20&#45;&gt;Node8 -->
<g id="edge35_Node000020_Node000008" class="edge">
<title>Node20&#45;&gt;Node8</title>
<g id="a_edge35_Node000020_Node000008"><a xlink:title=" ">
<path fill="none" stroke="#63b8ff" d="M265.02,-264.77C275.74,-261.95 287.63,-258.21 298,-253.5 322.5,-242.38 347.96,-224.89 364.96,-212.22"/>
<polygon fill="#63b8ff" stroke="#63b8ff" points="367.18,-214.92 373.02,-206.09 362.94,-209.35 367.18,-214.92"/>
</a>
</g>
</g>
</g>
</svg>
