<?xml version="1.0" encoding="UTF-8" standalone="no"?>
<!DOCTYPE svg PUBLIC "-//W3C//DTD SVG 1.1//EN"
 "http://www.w3.org/Graphics/SVG/1.1/DTD/svg11.dtd">
<!-- Generated by graphviz version 2.43.0 (0)
 -->
<!-- Title: neural_layer_convolutional_backward Pages: 1 -->
<svg width="545pt" height="434pt"
 viewBox="0.00 0.00 545.00 434.00" xmlns="http://www.w3.org/2000/svg" xmlns:xlink="http://www.w3.org/1999/xlink">
<g id="graph0" class="graph" transform="scale(1 1) rotate(0) translate(4 430)">
<title>neural_layer_convolutional_backward</title>
<!-- Node1 -->
<g id="Node000001" class="node">
<title>Node1</title>
<g id="a_Node000001"><a xlink:title="Backward propagates a convolutional layer.">
<polygon fill="#999999" stroke="#666666" points="131,-283.5 0,-283.5 0,-253.5 131,-253.5 131,-283.5"/>
<text text-anchor="start" x="8" y="-271.5" font-family="Helvetica,sans-Serif" font-size="10.00">neural_layer_convolutional</text>
<text text-anchor="middle" x="65.5" y="-260.5" font-family="Helvetica,sans-Serif" font-size="10.00">_backward</text>
</a>
</g>
</g>
<!-- Node2 -->
<g id="Node000002" class="node">
<title>Node2</title>
<g id="a_Node000002"><a xlink:href="blas_8c.html#af641b4337bf32be77f094e40817a55b7" target="_top" xlink:title="Performs the matrix&#45;matrix multiplication: .">
<polygon fill="white" stroke="#666666" points="255.5,-352 188.5,-352 188.5,-333 255.5,-333 255.5,-352"/>
<text text-anchor="middle" x="222" y="-340" font-family="Helvetica,sans-Serif" font-size="10.00">blas_gemm</text>
</a>
</g>
</g>
<!-- Node1&#45;&gt;Node2 -->
<g id="edge1_Node000001_Node000002" class="edge">
<title>Node1&#45;&gt;Node2</title>
<g id="a_edge1_Node000001_Node000002"><a xlink:title=" ">
<path fill="none" stroke="#63b8ff" d="M90.62,-283.63C110.59,-295.73 139.95,-312.58 167,-324.5 170.92,-326.23 175.05,-327.88 179.22,-329.45"/>
<polygon fill="#63b8ff" stroke="#63b8ff" points="178.34,-332.84 188.93,-332.91 180.69,-326.25 178.34,-332.84"/>
</a>
</g>
</g>
<!-- Node7 -->
<g id="Node000007" class="node">
<title>Node7</title>
<g id="a_Node000007"><a xlink:href="blas_8c.html#a6d1b69849f919a3ea1f8657418a7fdbb" target="_top" xlink:title="Returns the sum of the vector X.">
<polygon fill="white" stroke="#666666" points="251.5,-315 192.5,-315 192.5,-296 251.5,-296 251.5,-315"/>
<text text-anchor="middle" x="222" y="-303" font-family="Helvetica,sans-Serif" font-size="10.00">blas_sum</text>
</a>
</g>
</g>
<!-- Node1&#45;&gt;Node7 -->
<g id="edge6_Node000001_Node000007" class="edge">
<title>Node1&#45;&gt;Node7</title>
<g id="a_edge6_Node000001_Node000007"><a xlink:title=" ">
<path fill="none" stroke="#63b8ff" d="M129.34,-283.55C147.3,-287.85 166.33,-292.41 182.37,-296.25"/>
<polygon fill="#63b8ff" stroke="#63b8ff" points="181.9,-299.73 192.44,-298.66 183.53,-292.93 181.9,-299.73"/>
</a>
</g>
</g>
<!-- Node8 -->
<g id="Node000008" class="node">
<title>Node8</title>
<g id="a_Node000008"><a xlink:href="image_8c.html#ad8cb701532dbd28770e4f90cab4f7073" target="_top" xlink:title="Transforms a column vector to an image vector.">
<polygon fill="white" stroke="#666666" points="244.5,-278 199.5,-278 199.5,-259 244.5,-259 244.5,-278"/>
<text text-anchor="middle" x="222" y="-266" font-family="Helvetica,sans-Serif" font-size="10.00">col2im</text>
</a>
</g>
</g>
<!-- Node1&#45;&gt;Node8 -->
<g id="edge7_Node000001_Node000008" class="edge">
<title>Node1&#45;&gt;Node8</title>
<g id="a_edge7_Node000001_Node000008"><a xlink:title=" ">
<path fill="none" stroke="#63b8ff" d="M131.13,-268.5C151.07,-268.5 172.17,-268.5 188.9,-268.5"/>
<polygon fill="#63b8ff" stroke="#63b8ff" points="189.22,-272 199.22,-268.5 189.22,-265 189.22,-272"/>
</a>
</g>
</g>
<!-- Node10 -->
<g id="Node000010" class="node">
<title>Node10</title>
<g id="a_Node000010"><a xlink:href="image_8c.html#a33557bb05f10824eef9cc5775ac17c0d" target="_top" xlink:title="Transforms an image vector to a column vector.">
<polygon fill="white" stroke="#666666" points="244.5,-241 199.5,-241 199.5,-222 244.5,-222 244.5,-241"/>
<text text-anchor="middle" x="222" y="-229" font-family="Helvetica,sans-Serif" font-size="10.00">im2col</text>
</a>
</g>
</g>
<!-- Node1&#45;&gt;Node10 -->
<g id="edge9_Node000001_Node000010" class="edge">
<title>Node1&#45;&gt;Node10</title>
<g id="a_edge9_Node000001_Node000010"><a xlink:title=" ">
<path fill="none" stroke="#63b8ff" d="M129.34,-253.45C149.96,-248.51 171.99,-243.24 189.29,-239.09"/>
<polygon fill="#63b8ff" stroke="#63b8ff" points="190.49,-242.41 199.4,-236.67 188.86,-235.6 190.49,-242.41"/>
</a>
</g>
</g>
<!-- Node12 -->
<g id="Node000012" class="node">
<title>Node12</title>
<g id="a_Node000012"><a xlink:href="neural__activations_8c.html#a5ccdc55bfed79e093028c3670f3009fd" target="_top" xlink:title="Applies a gradient function to a vector of neuron states.">
<polygon fill="white" stroke="#666666" points="277,-204 167,-204 167,-185 277,-185 277,-204"/>
<text text-anchor="middle" x="222" y="-192" font-family="Helvetica,sans-Serif" font-size="10.00">neural_gradient_array</text>
</a>
</g>
</g>
<!-- Node1&#45;&gt;Node12 -->
<g id="edge11_Node000001_Node000012" class="edge">
<title>Node1&#45;&gt;Node12</title>
<g id="a_edge11_Node000001_Node000012"><a xlink:title=" ">
<path fill="none" stroke="#63b8ff" d="M91.53,-253.31C111.52,-241.55 140.48,-225.33 167,-213.5 171.7,-211.4 176.71,-209.38 181.71,-207.48"/>
<polygon fill="#63b8ff" stroke="#63b8ff" points="183.04,-210.72 191.23,-204 180.64,-204.14 183.04,-210.72"/>
</a>
</g>
</g>
<!-- Node3 -->
<g id="Node000003" class="node">
<title>Node3</title>
<g id="a_Node000003"><a xlink:href="blas_8c.html#a2a960e3645ec841778e7b85e7bb96e3d" target="_top" xlink:title=" ">
<polygon fill="white" stroke="#666666" points="388.5,-426 329.5,-426 329.5,-407 388.5,-407 388.5,-426"/>
<text text-anchor="middle" x="359" y="-414" font-family="Helvetica,sans-Serif" font-size="10.00">gemm_nn</text>
</a>
</g>
</g>
<!-- Node2&#45;&gt;Node3 -->
<g id="edge2_Node000002_Node000003" class="edge">
<title>Node2&#45;&gt;Node3</title>
<g id="a_edge2_Node000002_Node000003"><a xlink:title=" ">
<path fill="none" stroke="#63b8ff" d="M236.59,-352.01C253.84,-363.84 284.76,-384.21 313,-398.5 316.1,-400.07 319.36,-401.6 322.67,-403.06"/>
<polygon fill="#63b8ff" stroke="#63b8ff" points="321.38,-406.32 331.95,-406.99 324.1,-399.87 321.38,-406.32"/>
</a>
</g>
</g>
<!-- Node4 -->
<g id="Node000004" class="node">
<title>Node4</title>
<g id="a_Node000004"><a xlink:href="blas_8c.html#aa57c04fbd7b97c802c920578b88b658e" target="_top" xlink:title=" ">
<polygon fill="white" stroke="#666666" points="387.5,-389 330.5,-389 330.5,-370 387.5,-370 387.5,-389"/>
<text text-anchor="middle" x="359" y="-377" font-family="Helvetica,sans-Serif" font-size="10.00">gemm_nt</text>
</a>
</g>
</g>
<!-- Node2&#45;&gt;Node4 -->
<g id="edge3_Node000002_Node000004" class="edge">
<title>Node2&#45;&gt;Node4</title>
<g id="a_edge3_Node000002_Node000004"><a xlink:title=" ">
<path fill="none" stroke="#63b8ff" d="M255.68,-351.46C275.17,-356.8 300,-363.6 320.32,-369.17"/>
<polygon fill="#63b8ff" stroke="#63b8ff" points="319.61,-372.61 330.18,-371.88 321.46,-365.86 319.61,-372.61"/>
</a>
</g>
</g>
<!-- Node5 -->
<g id="Node000005" class="node">
<title>Node5</title>
<g id="a_Node000005"><a xlink:href="blas_8c.html#a515bbd20d69faf17bfdbc9387a83779a" target="_top" xlink:title=" ">
<polygon fill="white" stroke="#666666" points="387.5,-352 330.5,-352 330.5,-333 387.5,-333 387.5,-352"/>
<text text-anchor="middle" x="359" y="-340" font-family="Helvetica,sans-Serif" font-size="10.00">gemm_tn</text>
</a>
</g>
</g>
<!-- Node2&#45;&gt;Node5 -->
<g id="edge4_Node000002_Node000005" class="edge">
<title>Node2&#45;&gt;Node5</title>
<g id="a_edge4_Node000002_Node000005"><a xlink:title=" ">
<path fill="none" stroke="#63b8ff" d="M255.68,-342.5C275.08,-342.5 299.77,-342.5 320.04,-342.5"/>
<polygon fill="#63b8ff" stroke="#63b8ff" points="320.18,-346 330.18,-342.5 320.18,-339 320.18,-346"/>
</a>
</g>
</g>
<!-- Node6 -->
<g id="Node000006" class="node">
<title>Node6</title>
<g id="a_Node000006"><a xlink:href="blas_8c.html#abd0602933738dc1c44f69f27786bc603" target="_top" xlink:title=" ">
<polygon fill="white" stroke="#666666" points="386.5,-315 331.5,-315 331.5,-296 386.5,-296 386.5,-315"/>
<text text-anchor="middle" x="359" y="-303" font-family="Helvetica,sans-Serif" font-size="10.00">gemm_tt</text>
</a>
</g>
</g>
<!-- Node2&#45;&gt;Node6 -->
<g id="edge5_Node000002_Node000006" class="edge">
<title>Node2&#45;&gt;Node6</title>
<g id="a_edge5_Node000002_Node000006"><a xlink:title=" ">
<path fill="none" stroke="#63b8ff" d="M255.68,-333.54C275.44,-328.13 300.68,-321.21 321.15,-315.6"/>
<polygon fill="#63b8ff" stroke="#63b8ff" points="322.35,-318.9 331.07,-312.88 320.5,-312.15 322.35,-318.9"/>
</a>
</g>
</g>
<!-- Node9 -->
<g id="Node000009" class="node">
<title>Node9</title>
<g id="a_Node000009"><a xlink:href="image_8c.html#aad5873f6590465834413dd198919808c" target="_top" xlink:title=" ">
<polygon fill="white" stroke="#666666" points="405,-278 313,-278 313,-259 405,-259 405,-278"/>
<text text-anchor="middle" x="359" y="-266" font-family="Helvetica,sans-Serif" font-size="10.00">col2im_add_pixel</text>
</a>
</g>
</g>
<!-- Node8&#45;&gt;Node9 -->
<g id="edge8_Node000008_Node000009" class="edge">
<title>Node8&#45;&gt;Node9</title>
<g id="a_edge8_Node000008_Node000009"><a xlink:title=" ">
<path fill="none" stroke="#63b8ff" d="M244.69,-268.5C260.38,-268.5 282.31,-268.5 302.71,-268.5"/>
<polygon fill="#63b8ff" stroke="#63b8ff" points="302.87,-272 312.87,-268.5 302.87,-265 302.87,-272"/>
</a>
</g>
</g>
<!-- Node11 -->
<g id="Node000011" class="node">
<title>Node11</title>
<g id="a_Node000011"><a xlink:href="image_8c.html#a35b83d0e813d0341ce6e237a42412cda" target="_top" xlink:title=" ">
<polygon fill="white" stroke="#666666" points="403.5,-241 314.5,-241 314.5,-222 403.5,-222 403.5,-241"/>
<text text-anchor="middle" x="359" y="-229" font-family="Helvetica,sans-Serif" font-size="10.00">im2col_get_pixel</text>
</a>
</g>
</g>
<!-- Node10&#45;&gt;Node11 -->
<g id="edge10_Node000010_Node000011" class="edge">
<title>Node10&#45;&gt;Node11</title>
<g id="a_edge10_Node000010_Node000011"><a xlink:title=" ">
<path fill="none" stroke="#63b8ff" d="M244.69,-231.5C260.77,-231.5 283.41,-231.5 304.23,-231.5"/>
<polygon fill="#63b8ff" stroke="#63b8ff" points="304.27,-235 314.27,-231.5 304.27,-228 304.27,-235"/>
</a>
</g>
</g>
<!-- Node13 -->
<g id="Node000013" class="node">
<title>Node13</title>
<g id="a_Node000013"><a xlink:href="neural__activations_8c.html#af1e6b151408fad2e90b248ff314da5b2" target="_top" xlink:title="Returns the derivative from applying a specified activation function.">
<polygon fill="white" stroke="#666666" points="400.5,-204 317.5,-204 317.5,-185 400.5,-185 400.5,-204"/>
<text text-anchor="middle" x="359" y="-192" font-family="Helvetica,sans-Serif" font-size="10.00">neural_gradient</text>
</a>
</g>
</g>
<!-- Node12&#45;&gt;Node13 -->
<g id="edge12_Node000012_Node000013" class="edge">
<title>Node12&#45;&gt;Node13</title>
<g id="a_edge12_Node000012_Node000013"><a xlink:title=" ">
<path fill="none" stroke="#63b8ff" d="M277.13,-194.5C287.04,-194.5 297.35,-194.5 307.16,-194.5"/>
<polygon fill="#63b8ff" stroke="#63b8ff" points="307.16,-198 317.16,-194.5 307.16,-191 307.16,-198"/>
</a>
</g>
</g>
<!-- Node14 -->
<g id="Node000014" class="node">
<title>Node14</title>
<g id="a_Node000014"><a xlink:href="neural__activations_8h.html#a8b35bc0fcd0779795f27b6b83a02466b" target="_top" xlink:title=" ">
<polygon fill="white" stroke="#666666" points="525,-389 453,-389 453,-370 525,-370 525,-389"/>
<text text-anchor="middle" x="489" y="-377" font-family="Helvetica,sans-Serif" font-size="10.00">cos_gradient</text>
</a>
</g>
</g>
<!-- Node13&#45;&gt;Node14 -->
<g id="edge13_Node000013_Node000014" class="edge">
<title>Node13&#45;&gt;Node14</title>
<g id="a_edge13_Node000013_Node000014"><a xlink:title=" ">
<path fill="none" stroke="#63b8ff" d="M392.94,-204.04C397.48,-206.52 401.7,-209.62 405,-213.5 448.87,-265.06 396.27,-310.69 441,-361.5 442.01,-362.65 443.1,-363.72 444.26,-364.73"/>
<polygon fill="#63b8ff" stroke="#63b8ff" points="442.44,-367.72 452.68,-370.43 446.36,-361.93 442.44,-367.72"/>
</a>
</g>
</g>
<!-- Node15 -->
<g id="Node000015" class="node">
<title>Node15</title>
<g id="a_Node000015"><a xlink:href="neural__activations_8h.html#a591192fa5d068adbb7ebcf8aa6fde0ea" target="_top" xlink:title=" ">
<polygon fill="white" stroke="#666666" points="536.5,-352 441.5,-352 441.5,-333 536.5,-333 536.5,-352"/>
<text text-anchor="middle" x="489" y="-340" font-family="Helvetica,sans-Serif" font-size="10.00">gaussian_gradient</text>
</a>
</g>
</g>
<!-- Node13&#45;&gt;Node15 -->
<g id="edge14_Node000013_Node000015" class="edge">
<title>Node13&#45;&gt;Node15</title>
<g id="a_edge14_Node000013_Node000015"><a xlink:title=" ">
<path fill="none" stroke="#63b8ff" d="M392.24,-204.02C396.97,-206.51 401.45,-209.63 405,-213.5 440.06,-251.71 405.3,-286.88 441,-324.5 441.91,-325.46 442.88,-326.37 443.9,-327.24"/>
<polygon fill="#63b8ff" stroke="#63b8ff" points="442.2,-330.31 452.46,-332.96 446.09,-324.49 442.2,-330.31"/>
</a>
</g>
</g>
<!-- Node16 -->
<g id="Node000016" class="node">
<title>Node16</title>
<g id="a_Node000016"><a xlink:href="neural__activations_8h.html#a54fca7a19218547112acfd5a782ec69d" target="_top" xlink:title=" ">
<polygon fill="white" stroke="#666666" points="529,-315 449,-315 449,-296 529,-296 529,-315"/>
<text text-anchor="middle" x="489" y="-303" font-family="Helvetica,sans-Serif" font-size="10.00">leaky_gradient</text>
</a>
</g>
</g>
<!-- Node13&#45;&gt;Node16 -->
<g id="edge15_Node000013_Node000016" class="edge">
<title>Node13&#45;&gt;Node16</title>
<g id="a_edge15_Node000013_Node000016"><a xlink:title=" ">
<path fill="none" stroke="#63b8ff" d="M391.32,-204.23C396.28,-206.71 401.06,-209.77 405,-213.5 431.54,-238.66 414.04,-262.79 441,-287.5 442.28,-288.68 443.65,-289.78 445.09,-290.81"/>
<polygon fill="#63b8ff" stroke="#63b8ff" points="443.46,-293.92 453.85,-296 447.03,-287.89 443.46,-293.92"/>
</a>
</g>
</g>
<!-- Node17 -->
<g id="Node000017" class="node">
<title>Node17</title>
<g id="a_Node000017"><a xlink:href="neural__activations_8h.html#a5403577088ebf10e5c05c7ab42243138" target="_top" xlink:title=" ">
<polygon fill="white" stroke="#666666" points="529,-278 449,-278 449,-259 529,-259 529,-278"/>
<text text-anchor="middle" x="489" y="-266" font-family="Helvetica,sans-Serif" font-size="10.00">linear_gradient</text>
</a>
</g>
</g>
<!-- Node13&#45;&gt;Node17 -->
<g id="edge16_Node000013_Node000017" class="edge">
<title>Node13&#45;&gt;Node17</title>
<g id="a_edge16_Node000013_Node000017"><a xlink:title=" ">
<path fill="none" stroke="#63b8ff" d="M387.56,-204.08C393.55,-206.71 399.68,-209.86 405,-213.5 423.95,-226.44 421.84,-237.88 441,-250.5 443.25,-251.98 445.64,-253.37 448.1,-254.66"/>
<polygon fill="#63b8ff" stroke="#63b8ff" points="446.67,-257.85 457.21,-258.92 449.64,-251.51 446.67,-257.85"/>
</a>
</g>
</g>
<!-- Node18 -->
<g id="Node000018" class="node">
<title>Node18</title>
<g id="a_Node000018"><a xlink:href="neural__activations_8h.html#a7098b000d894f53d2e61fbbcf02daeaa" target="_top" xlink:title=" ">
<polygon fill="white" stroke="#666666" points="529,-241 449,-241 449,-222 529,-222 529,-241"/>
<text text-anchor="middle" x="489" y="-229" font-family="Helvetica,sans-Serif" font-size="10.00">loggy_gradient</text>
</a>
</g>
</g>
<!-- Node13&#45;&gt;Node18 -->
<g id="edge17_Node000013_Node000018" class="edge">
<title>Node13&#45;&gt;Node18</title>
<g id="a_edge17_Node000013_Node000018"><a xlink:title=" ">
<path fill="none" stroke="#63b8ff" d="M392.96,-204.03C408.81,-208.61 428.02,-214.16 445,-219.07"/>
<polygon fill="#63b8ff" stroke="#63b8ff" points="444.12,-222.46 454.7,-221.88 446.07,-215.74 444.12,-222.46"/>
</a>
</g>
</g>
<!-- Node19 -->
<g id="Node000019" class="node">
<title>Node19</title>
<g id="a_Node000019"><a xlink:href="neural__activations_8h.html#acd860c96bee8c36d8b046c9165676798" target="_top" xlink:title=" ">
<polygon fill="white" stroke="#666666" points="532.5,-204 445.5,-204 445.5,-185 532.5,-185 532.5,-204"/>
<text text-anchor="middle" x="489" y="-192" font-family="Helvetica,sans-Serif" font-size="10.00">logistic_gradient</text>
</a>
</g>
</g>
<!-- Node13&#45;&gt;Node19 -->
<g id="edge18_Node000013_Node000019" class="edge">
<title>Node13&#45;&gt;Node19</title>
<g id="a_edge18_Node000013_Node000019"><a xlink:title=" ">
<path fill="none" stroke="#63b8ff" d="M400.85,-194.5C411.72,-194.5 423.62,-194.5 435.03,-194.5"/>
<polygon fill="#63b8ff" stroke="#63b8ff" points="435.33,-198 445.33,-194.5 435.33,-191 435.33,-198"/>
</a>
</g>
</g>
<!-- Node20 -->
<g id="Node000020" class="node">
<title>Node20</title>
<g id="a_Node000020"><a xlink:href="neural__activations_8h.html#adc18deff50ba0c7fe05232548817ba82" target="_top" xlink:title=" ">
<polygon fill="white" stroke="#666666" points="525,-167 453,-167 453,-148 525,-148 525,-167"/>
<text text-anchor="middle" x="489" y="-155" font-family="Helvetica,sans-Serif" font-size="10.00">relu_gradient</text>
</a>
</g>
</g>
<!-- Node13&#45;&gt;Node20 -->
<g id="edge19_Node000013_Node000020" class="edge">
<title>Node13&#45;&gt;Node20</title>
<g id="a_edge19_Node000013_Node000020"><a xlink:title=" ">
<path fill="none" stroke="#63b8ff" d="M392.96,-184.97C408.81,-180.39 428.02,-174.84 445,-169.93"/>
<polygon fill="#63b8ff" stroke="#63b8ff" points="446.07,-173.26 454.7,-167.12 444.12,-166.54 446.07,-173.26"/>
</a>
</g>
</g>
<!-- Node21 -->
<g id="Node000021" class="node">
<title>Node21</title>
<g id="a_Node000021"><a xlink:href="neural__activations_8h.html#a2d7841732c797d9ae6fb4bee542e7093" target="_top" xlink:title=" ">
<polygon fill="white" stroke="#666666" points="526,-130 452,-130 452,-111 526,-111 526,-130"/>
<text text-anchor="middle" x="489" y="-118" font-family="Helvetica,sans-Serif" font-size="10.00">selu_gradient</text>
</a>
</g>
</g>
<!-- Node13&#45;&gt;Node21 -->
<g id="edge20_Node000013_Node000021" class="edge">
<title>Node13&#45;&gt;Node21</title>
<g id="a_edge20_Node000013_Node000021"><a xlink:title=" ">
<path fill="none" stroke="#63b8ff" d="M372.38,-184.86C387.83,-173.13 415.36,-153.19 441,-139.5 444.48,-137.64 448.19,-135.85 451.93,-134.16"/>
<polygon fill="#63b8ff" stroke="#63b8ff" points="453.39,-137.34 461.2,-130.19 450.63,-130.91 453.39,-137.34"/>
</a>
</g>
</g>
<!-- Node22 -->
<g id="Node000022" class="node">
<title>Node22</title>
<g id="a_Node000022"><a xlink:href="neural__activations_8h.html#ac34a770e7c1caa4e7b52b22049c713e5" target="_top" xlink:title=" ">
<polygon fill="white" stroke="#666666" points="523.5,-93 454.5,-93 454.5,-74 523.5,-74 523.5,-93"/>
<text text-anchor="middle" x="489" y="-81" font-family="Helvetica,sans-Serif" font-size="10.00">sin_gradient</text>
</a>
</g>
</g>
<!-- Node13&#45;&gt;Node22 -->
<g id="edge21_Node000013_Node000022" class="edge">
<title>Node13&#45;&gt;Node22</title>
<g id="a_edge21_Node000013_Node000022"><a xlink:title=" ">
<path fill="none" stroke="#63b8ff" d="M366.21,-184.84C378.47,-166.48 407.49,-126.25 441,-102.5 443.5,-100.73 446.2,-99.08 448.98,-97.57"/>
<polygon fill="#63b8ff" stroke="#63b8ff" points="450.6,-100.67 458.07,-93.16 447.55,-94.37 450.6,-100.67"/>
</a>
</g>
</g>
<!-- Node23 -->
<g id="Node000023" class="node">
<title>Node23</title>
<g id="a_Node000023"><a xlink:href="neural__activations_8h.html#a3d5aa96a76605eb0dcdd30a62a363b69" target="_top" xlink:title=" ">
<polygon fill="white" stroke="#666666" points="537,-56 441,-56 441,-37 537,-37 537,-56"/>
<text text-anchor="middle" x="489" y="-44" font-family="Helvetica,sans-Serif" font-size="10.00">soft_plus_gradient</text>
</a>
</g>
</g>
<!-- Node13&#45;&gt;Node23 -->
<g id="edge22_Node000013_Node000023" class="edge">
<title>Node13&#45;&gt;Node23</title>
<g id="a_edge22_Node000013_Node000023"><a xlink:title=" ">
<path fill="none" stroke="#63b8ff" d="M363.55,-184.98C372.76,-161.49 399.64,-100.14 441,-65.5 442.95,-63.87 445.06,-62.36 447.26,-60.98"/>
<polygon fill="#63b8ff" stroke="#63b8ff" points="448.98,-64.03 456.12,-56.2 445.66,-57.86 448.98,-64.03"/>
</a>
</g>
</g>
<!-- Node24 -->
<g id="Node000024" class="node">
<title>Node24</title>
<g id="a_Node000024"><a xlink:href="neural__activations_8h.html#adbc5cccd0f30d4b526fd3759a9a26f69" target="_top" xlink:title=" ">
<polygon fill="white" stroke="#666666" points="526.5,-19 451.5,-19 451.5,0 526.5,0 526.5,-19"/>
<text text-anchor="middle" x="489" y="-7" font-family="Helvetica,sans-Serif" font-size="10.00">tanh_gradient</text>
</a>
</g>
</g>
<!-- Node13&#45;&gt;Node24 -->
<g id="edge23_Node000013_Node000024" class="edge">
<title>Node13&#45;&gt;Node24</title>
<g id="a_edge23_Node000013_Node000024"><a xlink:title=" ">
<path fill="none" stroke="#63b8ff" d="M362.14,-184.8C368.79,-156.71 391.75,-74.43 441,-28.5 442.67,-26.94 444.49,-25.5 446.41,-24.17"/>
<polygon fill="#63b8ff" stroke="#63b8ff" points="448.38,-27.08 455.3,-19.05 444.88,-21.01 448.38,-27.08"/>
</a>
</g>
</g>
</g>
</svg>
