<?xml version="1.0" encoding="UTF-8" standalone="no"?>
<!DOCTYPE svg PUBLIC "-//W3C//DTD SVG 1.1//EN"
 "http://www.w3.org/Graphics/SVG/1.1/DTD/svg11.dtd">
<!-- Generated by graphviz version 2.43.0 (0)
 -->
<!-- Title: layer_mutate_connectivity Pages: 1 -->
<svg width="470pt" height="165pt"
 viewBox="0.00 0.00 470.00 164.50" xmlns="http://www.w3.org/2000/svg" xmlns:xlink="http://www.w3.org/1999/xlink">
<g id="graph0" class="graph" transform="scale(1 1) rotate(0) translate(4 160.5)">
<title>layer_mutate_connectivity</title>
<!-- Node1 -->
<g id="Node000001" class="node">
<title>Node1</title>
<g id="a_Node000001"><a xlink:title="Mutates a layer&#39;s connectivity by zeroing weights.">
<polygon fill="#999999" stroke="#666666" points="462,-93.5 331,-93.5 331,-74.5 462,-74.5 462,-93.5"/>
<text text-anchor="middle" x="396.5" y="-81.5" font-family="Helvetica,sans-Serif" font-size="10.00">layer_mutate_connectivity</text>
</a>
</g>
</g>
<!-- Node2 -->
<g id="Node000002" class="node">
<title>Node2</title>
<g id="a_Node000002"><a xlink:href="neural__layer__lstm_8c.html#af1574ac1aaa2948e0e159e07e7c4d24a" target="_top" xlink:title="Mutates the number of active weights in an LSTM layer.">
<polygon fill="white" stroke="#666666" points="281.5,-155.5 177.5,-155.5 177.5,-136.5 281.5,-136.5 281.5,-155.5"/>
<text text-anchor="middle" x="229.5" y="-143.5" font-family="Helvetica,sans-Serif" font-size="10.00">mutate_connectivity</text>
</a>
</g>
</g>
<!-- Node1&#45;&gt;Node2 -->
<g id="edge1_Node000001_Node000002" class="edge">
<title>Node1&#45;&gt;Node2</title>
<g id="a_edge1_Node000001_Node000002"><a xlink:title=" ">
<path fill="none" stroke="#63b8ff" d="M363.09,-97.38C343.47,-105.36 317.91,-115.54 295,-124 283.46,-128.26 270.65,-132.69 259.51,-136.45"/>
<polygon fill="#63b8ff" stroke="#63b8ff" points="364.54,-100.57 372.47,-93.55 361.89,-94.09 364.54,-100.57"/>
</a>
</g>
</g>
<!-- Node4 -->
<g id="Node000004" class="node">
<title>Node4</title>
<g id="a_Node000004"><a xlink:href="neural__layer__recurrent_8c.html#af1574ac1aaa2948e0e159e07e7c4d24a" target="_top" xlink:title="Mutates the number of active weights in a recurrent layer.">
<polygon fill="white" stroke="#666666" points="281.5,-115.5 177.5,-115.5 177.5,-96.5 281.5,-96.5 281.5,-115.5"/>
<text text-anchor="middle" x="229.5" y="-103.5" font-family="Helvetica,sans-Serif" font-size="10.00">mutate_connectivity</text>
</a>
</g>
</g>
<!-- Node1&#45;&gt;Node4 -->
<g id="edge3_Node000001_Node000004" class="edge">
<title>Node1&#45;&gt;Node4</title>
<g id="a_edge3_Node000001_Node000004"><a xlink:title=" ">
<path fill="none" stroke="#63b8ff" d="M320.71,-93.97C307.46,-95.74 293.94,-97.54 281.54,-99.19"/>
<polygon fill="#63b8ff" stroke="#63b8ff" points="321.31,-97.42 330.76,-92.63 320.39,-90.48 321.31,-97.42"/>
</a>
</g>
</g>
<!-- Node6 -->
<g id="Node000006" class="node">
<title>Node6</title>
<g id="a_Node000006"><a xlink:href="neural__layer__connected_8c.html#abfd38ab832a6f70d7b61065fe3dc25c3" target="_top" xlink:title="Mutates a connected layer.">
<polygon fill="white" stroke="#666666" points="289,-78 170,-78 170,-48 289,-48 289,-78"/>
<text text-anchor="start" x="178" y="-66" font-family="Helvetica,sans-Serif" font-size="10.00">neural_layer_connected</text>
<text text-anchor="middle" x="229.5" y="-55" font-family="Helvetica,sans-Serif" font-size="10.00">_mutate</text>
</a>
</g>
</g>
<!-- Node1&#45;&gt;Node6 -->
<g id="edge5_Node000001_Node000006" class="edge">
<title>Node1&#45;&gt;Node6</title>
<g id="a_edge5_Node000001_Node000006"><a xlink:title=" ">
<path fill="none" stroke="#63b8ff" d="M320.69,-74.48C310.11,-73.13 299.36,-71.76 289.14,-70.46"/>
<polygon fill="#63b8ff" stroke="#63b8ff" points="320.4,-77.97 330.76,-75.76 321.28,-71.03 320.4,-77.97"/>
</a>
</g>
</g>
<!-- Node7 -->
<g id="Node000007" class="node">
<title>Node7</title>
<g id="a_Node000007"><a xlink:href="neural__layer__convolutional_8c.html#a9e4f5fb82855910a5a4fecad093033db" target="_top" xlink:title="Mutates a convolutional layer.">
<polygon fill="white" stroke="#666666" points="295,-30 164,-30 164,0 295,0 295,-30"/>
<text text-anchor="start" x="172" y="-18" font-family="Helvetica,sans-Serif" font-size="10.00">neural_layer_convolutional</text>
<text text-anchor="middle" x="229.5" y="-7" font-family="Helvetica,sans-Serif" font-size="10.00">_mutate</text>
</a>
</g>
</g>
<!-- Node1&#45;&gt;Node7 -->
<g id="edge6_Node000001_Node000007" class="edge">
<title>Node1&#45;&gt;Node7</title>
<g id="a_edge6_Node000001_Node000007"><a xlink:title=" ">
<path fill="none" stroke="#63b8ff" d="M366.1,-70.23C346.17,-61.05 319.17,-48.9 295,-39 287.7,-36.01 279.88,-32.97 272.29,-30.1"/>
<polygon fill="#63b8ff" stroke="#63b8ff" points="364.72,-73.45 375.26,-74.47 367.66,-67.1 364.72,-73.45"/>
</a>
</g>
</g>
<!-- Node3 -->
<g id="Node000003" class="node">
<title>Node3</title>
<g id="a_Node000003"><a xlink:href="neural__layer__lstm_8c.html#a4324dc3fbf9a44f60c956a467a5ff73b" target="_top" xlink:title="Mutates an LSTM layer.">
<polygon fill="white" stroke="#666666" points="128,-156.5 0,-156.5 0,-137.5 128,-137.5 128,-156.5"/>
<text text-anchor="middle" x="64" y="-144.5" font-family="Helvetica,sans-Serif" font-size="10.00">neural_layer_lstm_mutate</text>
</a>
</g>
</g>
<!-- Node2&#45;&gt;Node3 -->
<g id="edge2_Node000002_Node000003" class="edge">
<title>Node2&#45;&gt;Node3</title>
<g id="a_edge2_Node000002_Node000003"><a xlink:title=" ">
<path fill="none" stroke="#63b8ff" d="M167.18,-146.38C154.43,-146.45 140.99,-146.54 128.18,-146.61"/>
<polygon fill="#63b8ff" stroke="#63b8ff" points="167.24,-149.87 177.22,-146.31 167.19,-142.87 167.24,-149.87"/>
</a>
</g>
</g>
<!-- Node5 -->
<g id="Node000005" class="node">
<title>Node5</title>
<g id="a_Node000005"><a xlink:href="neural__layer__recurrent_8c.html#a5f6793ef0a2d69438a499632e360f9e6" target="_top" xlink:title="Mutates a recurrent layer.">
<polygon fill="white" stroke="#666666" points="120.5,-119 7.5,-119 7.5,-89 120.5,-89 120.5,-119"/>
<text text-anchor="start" x="15.5" y="-107" font-family="Helvetica,sans-Serif" font-size="10.00">neural_layer_recurrent</text>
<text text-anchor="middle" x="64" y="-96" font-family="Helvetica,sans-Serif" font-size="10.00">_mutate</text>
</a>
</g>
</g>
<!-- Node4&#45;&gt;Node5 -->
<g id="edge4_Node000004_Node000005" class="edge">
<title>Node4&#45;&gt;Node5</title>
<g id="a_edge4_Node000004_Node000005"><a xlink:title=" ">
<path fill="none" stroke="#63b8ff" d="M166.89,-105.25C151.7,-105.06 135.52,-104.86 120.64,-104.68"/>
<polygon fill="#63b8ff" stroke="#63b8ff" points="167.17,-108.75 177.22,-105.37 167.26,-101.75 167.17,-108.75"/>
</a>
</g>
</g>
</g>
</svg>
