<?xml version="1.0" encoding="UTF-8" standalone="no"?>
<!DOCTYPE svg PUBLIC "-//W3C//DTD SVG 1.1//EN"
 "http://www.w3.org/Graphics/SVG/1.1/DTD/svg11.dtd">
<!-- Generated by graphviz version 2.43.0 (0)
 -->
<!-- Title: pa.h Pages: 1 -->
<svg width="350pt" height="82pt"
 viewBox="0.00 0.00 350.00 82.00" xmlns="http://www.w3.org/2000/svg" xmlns:xlink="http://www.w3.org/1999/xlink">
<g id="graph0" class="graph" transform="scale(1 1) rotate(0) translate(4 78)">
<title>pa.h</title>
<!-- Node1 -->
<g id="Node000001" class="node">
<title>Node1</title>
<g id="a_Node000001"><a xlink:title="Prediction array functions.">
<polygon fill="#999999" stroke="#666666" points="160.5,-74 125.5,-74 125.5,-55 160.5,-55 160.5,-74"/>
<text text-anchor="middle" x="143" y="-62" font-family="Helvetica,sans-Serif" font-size="10.00">pa.h</text>
</a>
</g>
</g>
<!-- Node2 -->
<g id="Node000002" class="node">
<title>Node2</title>
<g id="a_Node000002"><a xlink:href="main_8c.html" target="_top" xlink:title="Main function for stand&#45;alone binary execution.">
<polygon fill="white" stroke="#666666" points="46,-19 0,-19 0,0 46,0 46,-19"/>
<text text-anchor="middle" x="23" y="-7" font-family="Helvetica,sans-Serif" font-size="10.00">main.c</text>
</a>
</g>
</g>
<!-- Node1&#45;&gt;Node2 -->
<g id="edge1_Node000001_Node000002" class="edge">
<title>Node1&#45;&gt;Node2</title>
<g id="a_edge1_Node000001_Node000002"><a xlink:title=" ">
<path fill="none" stroke="#63b8ff" d="M116.01,-51.58C93.62,-41.69 62.34,-27.87 42.37,-19.06"/>
<polygon fill="#63b8ff" stroke="#63b8ff" points="114.73,-54.84 125.29,-55.68 117.56,-48.44 114.73,-54.84"/>
</a>
</g>
</g>
<!-- Node3 -->
<g id="Node000003" class="node">
<title>Node3</title>
<g id="a_Node000003"><a xlink:href="pa_8c.html" target="_top" xlink:title="Prediction array functions.">
<polygon fill="white" stroke="#666666" points="99.5,-19 64.5,-19 64.5,0 99.5,0 99.5,-19"/>
<text text-anchor="middle" x="82" y="-7" font-family="Helvetica,sans-Serif" font-size="10.00">pa.c</text>
</a>
</g>
</g>
<!-- Node1&#45;&gt;Node3 -->
<g id="edge2_Node000001_Node000003" class="edge">
<title>Node1&#45;&gt;Node3</title>
<g id="a_edge2_Node000001_Node000003"><a xlink:title=" ">
<path fill="none" stroke="#63b8ff" d="M125.53,-48.32C114.66,-38.87 101.06,-27.06 91.98,-19.17"/>
<polygon fill="#63b8ff" stroke="#63b8ff" points="123.35,-51.07 133.2,-54.98 127.95,-45.78 123.35,-51.07"/>
</a>
</g>
</g>
<!-- Node4 -->
<g id="Node000004" class="node">
<title>Node4</title>
<g id="a_Node000004"><a xlink:href="xcs__rl_8c.html" target="_top" xlink:title="Reinforcement learning functions.">
<polygon fill="white" stroke="#666666" points="168.5,-19 117.5,-19 117.5,0 168.5,0 168.5,-19"/>
<text text-anchor="middle" x="143" y="-7" font-family="Helvetica,sans-Serif" font-size="10.00">xcs_rl.c</text>
</a>
</g>
</g>
<!-- Node1&#45;&gt;Node4 -->
<g id="edge3_Node000001_Node000004" class="edge">
<title>Node1&#45;&gt;Node4</title>
<g id="a_edge3_Node000001_Node000004"><a xlink:title=" ">
<path fill="none" stroke="#63b8ff" d="M143,-44.66C143,-35.93 143,-25.99 143,-19.09"/>
<polygon fill="#63b8ff" stroke="#63b8ff" points="139.5,-44.75 143,-54.75 146.5,-44.75 139.5,-44.75"/>
</a>
</g>
</g>
<!-- Node5 -->
<g id="Node000005" class="node">
<title>Node5</title>
<g id="a_Node000005"><a xlink:href="xcs__supervised_8c.html" target="_top" xlink:title="Supervised regression learning functions.">
<polygon fill="white" stroke="#666666" points="279.5,-19 186.5,-19 186.5,0 279.5,0 279.5,-19"/>
<text text-anchor="middle" x="233" y="-7" font-family="Helvetica,sans-Serif" font-size="10.00">xcs_supervised.c</text>
</a>
</g>
</g>
<!-- Node1&#45;&gt;Node5 -->
<g id="edge4_Node000001_Node000005" class="edge">
<title>Node1&#45;&gt;Node5</title>
<g id="a_edge4_Node000001_Node000005"><a xlink:title=" ">
<path fill="none" stroke="#63b8ff" d="M166.44,-49.7C182.84,-40.04 204.23,-27.44 218.28,-19.17"/>
<polygon fill="#63b8ff" stroke="#63b8ff" points="164.3,-46.89 157.46,-54.98 167.85,-52.93 164.3,-46.89"/>
</a>
</g>
</g>
<!-- Node6 -->
<g id="Node000006" class="node">
<title>Node6</title>
<g id="a_Node000006"><a xlink:href="xcsf_8c.html" target="_top" xlink:title="System&#45;level functions for initialising, saving, loading, etc.">
<polygon fill="white" stroke="#666666" points="342,-19 298,-19 298,0 342,0 342,-19"/>
<text text-anchor="middle" x="320" y="-7" font-family="Helvetica,sans-Serif" font-size="10.00">xcsf.c</text>
</a>
</g>
</g>
<!-- Node1&#45;&gt;Node6 -->
<g id="edge5_Node000001_Node000006" class="edge">
<title>Node1&#45;&gt;Node6</title>
<g id="a_edge5_Node000001_Node000006"><a xlink:title=" ">
<path fill="none" stroke="#63b8ff" d="M170.2,-55.36C205.21,-44.87 265.37,-26.86 297.78,-17.15"/>
<polygon fill="#63b8ff" stroke="#63b8ff" points="169.19,-52 160.62,-58.22 171.2,-58.71 169.19,-52"/>
</a>
</g>
</g>
</g>
</svg>
