<?xml version="1.0" encoding="UTF-8" standalone="no"?>
<!DOCTYPE svg PUBLIC "-//W3C//DTD SVG 1.1//EN"
 "http://www.w3.org/Graphics/SVG/1.1/DTD/svg11.dtd">
<!-- Generated by graphviz version 2.43.0 (0)
 -->
<!-- Title: pa_build Pages: 1 -->
<svg width="745pt" height="256pt"
 viewBox="0.00 0.00 745.00 256.00" xmlns="http://www.w3.org/2000/svg" xmlns:xlink="http://www.w3.org/1999/xlink">
<g id="graph0" class="graph" transform="scale(1 1) rotate(0) translate(4 252)">
<title>pa_build</title>
<!-- Node1 -->
<g id="node1" class="node">
<title>Node1</title>
<g id="a_node1"><a xlink:title="Builds the prediction array for the specified input.">
<polygon fill="#bfbfbf" stroke="black" points="684,-152.5 684,-171.5 737,-171.5 737,-152.5 684,-152.5"/>
<text text-anchor="middle" x="710.5" y="-159.5" font-family="Helvetica,sans-Serif" font-size="10.00">pa_build</text>
</a>
</g>
</g>
<!-- Node2 -->
<g id="node2" class="node">
<title>Node2</title>
<g id="a_node2"><a xlink:href="xcs__rl_8c.html#a6501735ba3cba5c77c1b8ad0aad0b26a" target="_top" xlink:title="Selects an action to perform in a reinforcement learning problem.">
<polygon fill="none" stroke="black" points="553,-190.5 553,-209.5 637,-209.5 637,-190.5 553,-190.5"/>
<text text-anchor="middle" x="595" y="-197.5" font-family="Helvetica,sans-Serif" font-size="10.00">xcs_rl_decision</text>
</a>
</g>
</g>
<!-- Node1&#45;&gt;Node2 -->
<g id="edge1" class="edge">
<title>Node1&#45;&gt;Node2</title>
<path fill="none" stroke="midnightblue" d="M674.18,-173.82C658.18,-179.18 639.52,-185.43 624.44,-190.48"/>
<polygon fill="midnightblue" stroke="midnightblue" points="675.37,-177.12 683.75,-170.62 673.15,-170.48 675.37,-177.12"/>
</g>
<!-- Node7 -->
<g id="node7" class="node">
<title>Node7</title>
<g id="a_node7"><a xlink:href="xcs__rl_8c.html#a391abf9bd2540ff284f822b30899c438" target="_top" xlink:title="Creates and updates an action set for a given (state, action, reward).">
<polygon fill="none" stroke="black" points="567,-152.5 567,-171.5 623,-171.5 623,-152.5 567,-152.5"/>
<text text-anchor="middle" x="595" y="-159.5" font-family="Helvetica,sans-Serif" font-size="10.00">xcs_rl_fit</text>
</a>
</g>
</g>
<!-- Node1&#45;&gt;Node7 -->
<g id="edge6" class="edge">
<title>Node1&#45;&gt;Node7</title>
<path fill="none" stroke="midnightblue" d="M673.5,-162C657.22,-162 638.31,-162 623.24,-162"/>
<polygon fill="midnightblue" stroke="midnightblue" points="673.75,-165.5 683.75,-162 673.75,-158.5 673.75,-165.5"/>
</g>
<!-- Node9 -->
<g id="node9" class="node">
<title>Node9</title>
<g id="a_node9"><a xlink:href="xcs__supervised_8c.html#a8e376723db7b6786507d5ea6add9f650" target="_top" xlink:title="Executes a single XCSF trial.">
<polygon fill="none" stroke="black" points="542,-76.5 542,-95.5 648,-95.5 648,-76.5 542,-76.5"/>
<text text-anchor="middle" x="595" y="-83.5" font-family="Helvetica,sans-Serif" font-size="10.00">xcs_supervised_trial</text>
</a>
</g>
</g>
<!-- Node1&#45;&gt;Node9 -->
<g id="edge8" class="edge">
<title>Node1&#45;&gt;Node9</title>
<path fill="none" stroke="midnightblue" d="M686.71,-146.74C663.89,-131.46 629.47,-108.41 610.26,-95.55"/>
<polygon fill="midnightblue" stroke="midnightblue" points="684.87,-149.72 695.13,-152.37 688.76,-143.9 684.87,-149.72"/>
</g>
<!-- Node3 -->
<g id="node3" class="node">
<title>Node3</title>
<g id="a_node3"><a xlink:href="classXCS.html#ac6003941812bd2c70ea443dd63bd59d0" target="_top" xlink:title="Selects an action to perform in a reinforcement learning problem.">
<polygon fill="none" stroke="black" points="406.5,-228.5 406.5,-247.5 486.5,-247.5 486.5,-228.5 406.5,-228.5"/>
<text text-anchor="middle" x="446.5" y="-235.5" font-family="Helvetica,sans-Serif" font-size="10.00">XCS::decision</text>
</a>
</g>
</g>
<!-- Node2&#45;&gt;Node3 -->
<g id="edge2" class="edge">
<title>Node2&#45;&gt;Node3</title>
<path fill="none" stroke="midnightblue" d="M547.3,-212.11C526.9,-217.4 503.32,-223.52 484.2,-228.48"/>
<polygon fill="midnightblue" stroke="midnightblue" points="548.23,-215.49 557.03,-209.59 546.47,-208.71 548.23,-215.49"/>
</g>
<!-- Node4 -->
<g id="node4" class="node">
<title>Node4</title>
<g id="a_node4"><a xlink:href="xcs__rl_8c.html#a8171cd945b56ed0a4563f9dcd89438e3" target="_top" xlink:title="Executes a reinforcement learning trial using a built&#45;in environment.">
<polygon fill="none" stroke="black" points="414.5,-190.5 414.5,-209.5 478.5,-209.5 478.5,-190.5 414.5,-190.5"/>
<text text-anchor="middle" x="446.5" y="-197.5" font-family="Helvetica,sans-Serif" font-size="10.00">xcs_rl_trial</text>
</a>
</g>
</g>
<!-- Node2&#45;&gt;Node4 -->
<g id="edge3" class="edge">
<title>Node2&#45;&gt;Node4</title>
<path fill="none" stroke="midnightblue" d="M542.59,-200C521.26,-200 497.21,-200 478.64,-200"/>
<polygon fill="midnightblue" stroke="midnightblue" points="542.8,-203.5 552.8,-200 542.8,-196.5 542.8,-203.5"/>
</g>
<!-- Node5 -->
<g id="node5" class="node">
<title>Node5</title>
<g id="a_node5"><a xlink:href="xcs__rl_8c.html#adb4c284d19eeaed2b4a629f9b939ed20" target="_top" xlink:title="Executes a reinforcement learning experiment.">
<polygon fill="none" stroke="black" points="256.5,-190.5 256.5,-209.5 320.5,-209.5 320.5,-190.5 256.5,-190.5"/>
<text text-anchor="middle" x="288.5" y="-197.5" font-family="Helvetica,sans-Serif" font-size="10.00">xcs_rl_exp</text>
</a>
</g>
</g>
<!-- Node4&#45;&gt;Node5 -->
<g id="edge4" class="edge">
<title>Node4&#45;&gt;Node5</title>
<path fill="none" stroke="midnightblue" d="M404.28,-200C378.06,-200 344.65,-200 320.64,-200"/>
<polygon fill="midnightblue" stroke="midnightblue" points="404.31,-203.5 414.31,-200 404.31,-196.5 404.31,-203.5"/>
</g>
<!-- Node6 -->
<g id="node6" class="node">
<title>Node6</title>
<g id="a_node6"><a xlink:href="main_8c.html#a3c04138a5bfe5d72780bb7e82a18e627" target="_top" xlink:title=" ">
<polygon fill="none" stroke="black" points="128,-171.5 128,-190.5 166,-190.5 166,-171.5 128,-171.5"/>
<text text-anchor="middle" x="147" y="-178.5" font-family="Helvetica,sans-Serif" font-size="10.00">main</text>
</a>
</g>
</g>
<!-- Node5&#45;&gt;Node6 -->
<g id="edge5" class="edge">
<title>Node5&#45;&gt;Node6</title>
<path fill="none" stroke="midnightblue" d="M246.04,-194.35C219.57,-190.75 186.54,-186.25 166.38,-183.5"/>
<polygon fill="midnightblue" stroke="midnightblue" points="245.81,-197.85 256.19,-195.74 246.76,-190.92 245.81,-197.85"/>
</g>
<!-- Node8 -->
<g id="node8" class="node">
<title>Node8</title>
<g id="a_node8"><a xlink:href="classXCS.html#ac12768292958a714a726b1c029e9616a" target="_top" xlink:title="Creates/updates an action set for a given (state, action, reward).">
<polygon fill="none" stroke="black" points="420.5,-152.5 420.5,-171.5 472.5,-171.5 472.5,-152.5 420.5,-152.5"/>
<text text-anchor="middle" x="446.5" y="-159.5" font-family="Helvetica,sans-Serif" font-size="10.00">XCS::fit</text>
</a>
</g>
</g>
<!-- Node7&#45;&gt;Node8 -->
<g id="edge7" class="edge">
<title>Node7&#45;&gt;Node8</title>
<path fill="none" stroke="midnightblue" d="M556.77,-162C530.41,-162 495.76,-162 472.61,-162"/>
<polygon fill="midnightblue" stroke="midnightblue" points="556.79,-165.5 566.79,-162 556.79,-158.5 556.79,-165.5"/>
</g>
<!-- Node10 -->
<g id="node10" class="node">
<title>Node10</title>
<g id="a_node10"><a xlink:href="xcs__supervised_8c.html#aac1347b7b83576d581a1b725b4c84e56" target="_top" xlink:title="Executes MAX_TRIALS number of XCSF learning iterations using the training data and test iterations us...">
<polygon fill="none" stroke="black" points="397.5,-114.5 397.5,-133.5 495.5,-133.5 495.5,-114.5 397.5,-114.5"/>
<text text-anchor="middle" x="446.5" y="-121.5" font-family="Helvetica,sans-Serif" font-size="10.00">xcs_supervised_fit</text>
</a>
</g>
</g>
<!-- Node9&#45;&gt;Node10 -->
<g id="edge9" class="edge">
<title>Node9&#45;&gt;Node10</title>
<path fill="none" stroke="midnightblue" d="M547.3,-98.11C526.9,-103.4 503.32,-109.52 484.2,-114.48"/>
<polygon fill="midnightblue" stroke="midnightblue" points="548.23,-101.49 557.03,-95.59 546.47,-94.71 548.23,-101.49"/>
</g>
<!-- Node12 -->
<g id="node12" class="node">
<title>Node12</title>
<g id="a_node12"><a xlink:href="xcs__supervised_8c.html#ae4791c1daf0baaa6615f70332657aadb" target="_top" xlink:title="Calculates the XCSF predictions for the provided input.">
<polygon fill="none" stroke="black" points="387,-76.5 387,-95.5 506,-95.5 506,-76.5 387,-76.5"/>
<text text-anchor="middle" x="446.5" y="-83.5" font-family="Helvetica,sans-Serif" font-size="10.00">xcs_supervised_predict</text>
</a>
</g>
</g>
<!-- Node9&#45;&gt;Node12 -->
<g id="edge12" class="edge">
<title>Node9&#45;&gt;Node12</title>
<path fill="none" stroke="midnightblue" d="M531.72,-86C523.23,-86 514.55,-86 506.13,-86"/>
<polygon fill="midnightblue" stroke="midnightblue" points="531.94,-89.5 541.94,-86 531.94,-82.5 531.94,-89.5"/>
</g>
<!-- Node15 -->
<g id="node15" class="node">
<title>Node15</title>
<g id="a_node15"><a xlink:href="xcs__supervised_8c.html#a535e3dbbf0f80e64a4e9b1c700e51f40" target="_top" xlink:title="Calculates the XCSF error for the input data.">
<polygon fill="none" stroke="black" points="389.5,-38.5 389.5,-57.5 503.5,-57.5 503.5,-38.5 389.5,-38.5"/>
<text text-anchor="middle" x="446.5" y="-45.5" font-family="Helvetica,sans-Serif" font-size="10.00">xcs_supervised_score</text>
</a>
</g>
</g>
<!-- Node9&#45;&gt;Node15 -->
<g id="edge15" class="edge">
<title>Node9&#45;&gt;Node15</title>
<path fill="none" stroke="midnightblue" d="M547.3,-73.89C526.9,-68.6 503.32,-62.48 484.2,-57.52"/>
<polygon fill="midnightblue" stroke="midnightblue" points="546.47,-77.29 557.03,-76.41 548.23,-70.51 546.47,-77.29"/>
</g>
<!-- Node18 -->
<g id="node18" class="node">
<title>Node18</title>
<g id="a_node18"><a xlink:href="xcs__supervised_8c.html#a9ab2bb39625aea84c716901a95a4326e" target="_top" xlink:title="Calculates the XCSF error for a subsample of the input data.">
<polygon fill="none" stroke="black" points="226,-0.5 226,-19.5 351,-19.5 351,-0.5 226,-0.5"/>
<text text-anchor="middle" x="288.5" y="-7.5" font-family="Helvetica,sans-Serif" font-size="10.00">xcs_supervised_score_n</text>
</a>
</g>
</g>
<!-- Node9&#45;&gt;Node18 -->
<g id="edge20" class="edge">
<title>Node9&#45;&gt;Node18</title>
<path fill="none" stroke="midnightblue" d="M575.04,-69.76C558.14,-56.3 532.09,-37.97 506,-29 455.87,-11.76 395.55,-7.72 351.33,-7.59"/>
<polygon fill="midnightblue" stroke="midnightblue" points="573.05,-72.65 583,-76.28 577.49,-67.24 573.05,-72.65"/>
</g>
<!-- Node10&#45;&gt;Node6 -->
<g id="edge11" class="edge">
<title>Node10&#45;&gt;Node6</title>
<path fill="none" stroke="midnightblue" d="M388.27,-135.63C375.98,-138.1 363.06,-140.66 351,-143 282.89,-156.22 201.77,-171.17 166.21,-177.68"/>
<polygon fill="midnightblue" stroke="midnightblue" points="389.3,-139 398.42,-133.59 387.92,-132.13 389.3,-139"/>
</g>
<!-- Node11 -->
<g id="node11" class="node">
<title>Node11</title>
<g id="a_node11"><a xlink:href="classXCS.html#a3f8168ffade2d933d0971625200f1d92" target="_top" xlink:title="Executes MAX_TRIALS number of XCSF learning iterations using the provided training data.">
<polygon fill="none" stroke="black" points="262.5,-114.5 262.5,-133.5 314.5,-133.5 314.5,-114.5 262.5,-114.5"/>
<text text-anchor="middle" x="288.5" y="-121.5" font-family="Helvetica,sans-Serif" font-size="10.00">XCS::fit</text>
</a>
</g>
</g>
<!-- Node10&#45;&gt;Node11 -->
<g id="edge10" class="edge">
<title>Node10&#45;&gt;Node11</title>
<path fill="none" stroke="midnightblue" d="M387.24,-124C362.15,-124 334.13,-124 314.55,-124"/>
<polygon fill="midnightblue" stroke="midnightblue" points="387.42,-127.5 397.42,-124 387.42,-120.5 387.42,-127.5"/>
</g>
<!-- Node13 -->
<g id="node13" class="node">
<title>Node13</title>
<g id="a_node13"><a xlink:href="classXCS.html#a213bbab8324b5a60482e87f18a9ceaee" target="_top" xlink:title="Returns the XCSF prediction array for the provided input.">
<polygon fill="none" stroke="black" points="233.5,-76.5 233.5,-95.5 343.5,-95.5 343.5,-76.5 233.5,-76.5"/>
<text text-anchor="middle" x="288.5" y="-83.5" font-family="Helvetica,sans-Serif" font-size="10.00">XCS::get_predictions</text>
</a>
</g>
</g>
<!-- Node12&#45;&gt;Node13 -->
<g id="edge13" class="edge">
<title>Node12&#45;&gt;Node13</title>
<path fill="none" stroke="midnightblue" d="M376.87,-86C365.77,-86 354.42,-86 343.72,-86"/>
<polygon fill="midnightblue" stroke="midnightblue" points="376.97,-89.5 386.97,-86 376.97,-82.5 376.97,-89.5"/>
</g>
<!-- Node14 -->
<g id="node14" class="node">
<title>Node14</title>
<g id="a_node14"><a xlink:href="classXCS.html#aa29ac60a35ac4874b65bb22deca6df0c" target="_top" xlink:title="Returns the XCSF prediction array for the provided input.">
<polygon fill="none" stroke="black" points="110.5,-76.5 110.5,-95.5 183.5,-95.5 183.5,-76.5 110.5,-76.5"/>
<text text-anchor="middle" x="147" y="-83.5" font-family="Helvetica,sans-Serif" font-size="10.00">XCS::predict</text>
</a>
</g>
</g>
<!-- Node13&#45;&gt;Node14 -->
<g id="edge14" class="edge">
<title>Node13&#45;&gt;Node14</title>
<path fill="none" stroke="midnightblue" d="M222.98,-86C209.55,-86 195.86,-86 183.91,-86"/>
<polygon fill="midnightblue" stroke="midnightblue" points="223.17,-89.5 233.17,-86 223.17,-82.5 223.17,-89.5"/>
</g>
<!-- Node16 -->
<g id="node16" class="node">
<title>Node16</title>
<g id="a_node16"><a xlink:href="classXCS.html#abe2ecac1d31f36659f70eb3ff9665bef" target="_top" xlink:title="Returns the error using N random samples from the provided data.">
<polygon fill="none" stroke="black" points="104,-19.5 104,-38.5 190,-38.5 190,-19.5 104,-19.5"/>
<text text-anchor="middle" x="147" y="-26.5" font-family="Helvetica,sans-Serif" font-size="10.00">XCS::get_score</text>
</a>
</g>
</g>
<!-- Node15&#45;&gt;Node16 -->
<g id="edge16" class="edge">
<title>Node15&#45;&gt;Node16</title>
<path fill="none" stroke="midnightblue" d="M379.06,-43.76C321.29,-40.07 239.33,-34.83 190.15,-31.69"/>
<polygon fill="midnightblue" stroke="midnightblue" points="378.99,-47.26 389.19,-44.4 379.44,-40.27 378.99,-47.26"/>
</g>
<!-- Node15&#45;&gt;Node18 -->
<g id="edge18" class="edge">
<title>Node15&#45;&gt;Node18</title>
<path fill="none" stroke="midnightblue" d="M396.37,-36.03C374.51,-30.71 349.12,-24.52 328.58,-19.52"/>
<polygon fill="midnightblue" stroke="midnightblue" points="395.59,-39.44 406.13,-38.41 397.25,-32.64 395.59,-39.44"/>
</g>
<!-- Node17 -->
<g id="node17" class="node">
<title>Node17</title>
<g id="a_node17"><a xlink:href="classXCS.html#a4bb9f3f8613abf7ba95837a03bbb931d" target="_top" xlink:title="Returns the error using N random samples from the provided data.">
<polygon fill="none" stroke="black" points="0,-19.5 0,-38.5 68,-38.5 68,-19.5 0,-19.5"/>
<text text-anchor="middle" x="34" y="-26.5" font-family="Helvetica,sans-Serif" font-size="10.00">XCS::score</text>
</a>
</g>
</g>
<!-- Node16&#45;&gt;Node17 -->
<g id="edge17" class="edge">
<title>Node16&#45;&gt;Node17</title>
<path fill="none" stroke="midnightblue" d="M93.65,-29C84.98,-29 76.21,-29 68.19,-29"/>
<polygon fill="midnightblue" stroke="midnightblue" points="93.72,-32.5 103.72,-29 93.72,-25.5 93.72,-32.5"/>
</g>
<!-- Node18&#45;&gt;Node16 -->
<g id="edge19" class="edge">
<title>Node18&#45;&gt;Node16</title>
<path fill="none" stroke="midnightblue" d="M215.92,-19.75C207.07,-20.95 198.25,-22.16 190.05,-23.27"/>
<polygon fill="midnightblue" stroke="midnightblue" points="216.47,-23.21 225.91,-18.39 215.53,-16.27 216.47,-23.21"/>
</g>
</g>
</svg>
