<?xml version="1.0" encoding="UTF-8" standalone="no"?>
<!DOCTYPE svg PUBLIC "-//W3C//DTD SVG 1.1//EN"
 "http://www.w3.org/Graphics/SVG/1.1/DTD/svg11.dtd">
<!-- Generated by graphviz version 2.43.0 (0)
 -->
<!-- Title: param_set_max_neuron_grow Pages: 1 -->
<svg width="963pt" height="180pt"
 viewBox="0.00 0.00 963.00 180.00" xmlns="http://www.w3.org/2000/svg" xmlns:xlink="http://www.w3.org/1999/xlink">
<g id="graph0" class="graph" transform="scale(1 1) rotate(0) translate(4 176)">
<title>param_set_max_neuron_grow</title>
<!-- Node1 -->
<g id="node1" class="node">
<title>Node1</title>
<g id="a_node1"><a xlink:title=" ">
<polygon fill="#bfbfbf" stroke="black" points="808,-76.5 808,-95.5 955,-95.5 955,-76.5 808,-76.5"/>
<text text-anchor="middle" x="881.5" y="-83.5" font-family="Helvetica,sans-Serif" font-size="10.00">param_set_max_neuron_grow</text>
</a>
</g>
</g>
<!-- Node2 -->
<g id="node2" class="node">
<title>Node2</title>
<g id="a_node2"><a xlink:href="config_8c.html#a667717993ff6faaad894ad8fc315234b" target="_top" xlink:title="Sets classifier condition parameters.">
<polygon fill="none" stroke="black" points="664.5,-152.5 664.5,-171.5 746.5,-171.5 746.5,-152.5 664.5,-152.5"/>
<text text-anchor="middle" x="705.5" y="-159.5" font-family="Helvetica,sans-Serif" font-size="10.00">config_cl_cond</text>
</a>
</g>
</g>
<!-- Node1&#45;&gt;Node2 -->
<g id="edge1" class="edge">
<title>Node1&#45;&gt;Node2</title>
<path fill="none" stroke="midnightblue" d="M852.95,-100.11C831.21,-111.01 800,-126.19 772,-138 759.84,-143.13 746.16,-148.24 734.46,-152.42"/>
<polygon fill="midnightblue" stroke="midnightblue" points="854.58,-103.2 861.93,-95.57 851.43,-96.95 854.58,-103.2"/>
</g>
<!-- Node9 -->
<g id="node9" class="node">
<title>Node9</title>
<g id="a_node9"><a xlink:href="param_8c.html#a88eafe1c1ad9f5a87aee6ad422126e33" target="_top" xlink:title="Initialises default classifier condition parameters.">
<polygon fill="none" stroke="black" points="323,-114.5 323,-133.5 463,-133.5 463,-114.5 323,-114.5"/>
<text text-anchor="middle" x="393" y="-121.5" font-family="Helvetica,sans-Serif" font-size="10.00">param_defaults_cl_condition</text>
</a>
</g>
</g>
<!-- Node1&#45;&gt;Node9 -->
<g id="edge8" class="edge">
<title>Node1&#45;&gt;Node9</title>
<path fill="none" stroke="midnightblue" d="M823.36,-97.36C806.85,-100.28 788.76,-103.12 772,-105 664.59,-117.06 539.14,-121.46 463.18,-123.07"/>
<polygon fill="midnightblue" stroke="midnightblue" points="824.2,-100.77 833.42,-95.55 822.95,-93.88 824.2,-100.77"/>
</g>
<!-- Node11 -->
<g id="node11" class="node">
<title>Node11</title>
<g id="a_node11"><a xlink:href="classXCS.html#aea930ef16731a87eec08c4056e964534" target="_top" xlink:title="Sets parameters used by dynamical GP graph conditions.">
<polygon fill="none" stroke="black" points="644.5,-76.5 644.5,-95.5 766.5,-95.5 766.5,-76.5 644.5,-76.5"/>
<text text-anchor="middle" x="705.5" y="-83.5" font-family="Helvetica,sans-Serif" font-size="10.00">XCS::unpack_cond_dgp</text>
</a>
</g>
</g>
<!-- Node1&#45;&gt;Node11 -->
<g id="edge12" class="edge">
<title>Node1&#45;&gt;Node11</title>
<path fill="none" stroke="midnightblue" d="M797.87,-86C787.3,-86 776.63,-86 766.51,-86"/>
<polygon fill="midnightblue" stroke="midnightblue" points="797.97,-89.5 807.97,-86 797.97,-82.5 797.97,-89.5"/>
</g>
<!-- Node13 -->
<g id="node13" class="node">
<title>Node13</title>
<g id="a_node13"><a xlink:href="classXCS.html#a234d12eb3fb50d01dccff24a1515d74e" target="_top" xlink:title="Sets parameters used by neural network conditions.">
<polygon fill="none" stroke="black" points="639,-38.5 639,-57.5 772,-57.5 772,-38.5 639,-38.5"/>
<text text-anchor="middle" x="705.5" y="-45.5" font-family="Helvetica,sans-Serif" font-size="10.00">XCS::unpack_cond_neural</text>
</a>
</g>
</g>
<!-- Node1&#45;&gt;Node13 -->
<g id="edge14" class="edge">
<title>Node1&#45;&gt;Node13</title>
<path fill="none" stroke="midnightblue" d="M826.69,-74.25C802.08,-68.87 773.31,-62.59 750.09,-57.52"/>
<polygon fill="midnightblue" stroke="midnightblue" points="826.08,-77.7 836.59,-76.41 827.57,-70.86 826.08,-77.7"/>
</g>
<!-- Node15 -->
<g id="node15" class="node">
<title>Node15</title>
<g id="a_node15"><a xlink:href="classXCS.html#a8755a66390db00ab31e3574a18a0aae1" target="_top" xlink:title="Sets parameters used by neural network predictions.">
<polygon fill="none" stroke="black" points="640,-0.5 640,-19.5 771,-19.5 771,-0.5 640,-0.5"/>
<text text-anchor="middle" x="705.5" y="-7.5" font-family="Helvetica,sans-Serif" font-size="10.00">XCS::unpack_pred_neural</text>
</a>
</g>
</g>
<!-- Node1&#45;&gt;Node15 -->
<g id="edge17" class="edge">
<title>Node1&#45;&gt;Node15</title>
<path fill="none" stroke="midnightblue" d="M856,-71.3C834.44,-58.81 801.91,-41.05 772,-29 763.21,-25.46 753.52,-22.28 744.35,-19.57"/>
<polygon fill="midnightblue" stroke="midnightblue" points="854.41,-74.42 864.81,-76.46 857.95,-68.39 854.41,-74.42"/>
</g>
<!-- Node3 -->
<g id="node3" class="node">
<title>Node3</title>
<g id="a_node3"><a xlink:href="config_8c.html#a695f5f085aa119586feb23e5a81a739c" target="_top" xlink:title="Sets specified parameter.">
<polygon fill="none" stroke="black" points="503,-152.5 503,-171.5 599,-171.5 599,-152.5 503,-152.5"/>
<text text-anchor="middle" x="551" y="-159.5" font-family="Helvetica,sans-Serif" font-size="10.00">config_add_param</text>
</a>
</g>
</g>
<!-- Node2&#45;&gt;Node3 -->
<g id="edge2" class="edge">
<title>Node2&#45;&gt;Node3</title>
<path fill="none" stroke="midnightblue" d="M654.26,-162C636.5,-162 616.6,-162 599.11,-162"/>
<polygon fill="midnightblue" stroke="midnightblue" points="654.43,-165.5 664.43,-162 654.43,-158.5 654.43,-165.5"/>
</g>
<!-- Node4 -->
<g id="node4" class="node">
<title>Node4</title>
<g id="a_node4"><a xlink:href="config_8c.html#a5b96815b9ebb26a8fc7bcc30a75ab36d" target="_top" xlink:title="Adds a parameter to the list.">
<polygon fill="none" stroke="black" points="347,-152.5 347,-171.5 439,-171.5 439,-152.5 347,-152.5"/>
<text text-anchor="middle" x="393" y="-159.5" font-family="Helvetica,sans-Serif" font-size="10.00">config_newnvpair</text>
</a>
</g>
</g>
<!-- Node3&#45;&gt;Node4 -->
<g id="edge3" class="edge">
<title>Node3&#45;&gt;Node4</title>
<path fill="none" stroke="midnightblue" d="M492.61,-162C474.99,-162 455.87,-162 439.2,-162"/>
<polygon fill="midnightblue" stroke="midnightblue" points="492.77,-165.5 502.77,-162 492.77,-158.5 492.77,-165.5"/>
</g>
<!-- Node5 -->
<g id="node5" class="node">
<title>Node5</title>
<g id="a_node5"><a xlink:href="config_8c.html#a01c178cc1587140f60ecf27291a2032a" target="_top" xlink:title="Parses a line of the config file and adds to the list.">
<polygon fill="none" stroke="black" points="204,-152.5 204,-171.5 287,-171.5 287,-152.5 204,-152.5"/>
<text text-anchor="middle" x="245.5" y="-159.5" font-family="Helvetica,sans-Serif" font-size="10.00">config_process</text>
</a>
</g>
</g>
<!-- Node4&#45;&gt;Node5 -->
<g id="edge4" class="edge">
<title>Node4&#45;&gt;Node5</title>
<path fill="none" stroke="midnightblue" d="M336.72,-162C320.29,-162 302.6,-162 287.27,-162"/>
<polygon fill="midnightblue" stroke="midnightblue" points="336.76,-165.5 346.76,-162 336.76,-158.5 336.76,-165.5"/>
</g>
<!-- Node6 -->
<g id="node6" class="node">
<title>Node6</title>
<g id="a_node6"><a xlink:href="config_8h.html#a045a64a30d99a4bef2ebfd9b54aa9698" target="_top" xlink:title="Reads the specified configuration file.">
<polygon fill="none" stroke="black" points="101,-152.5 101,-171.5 168,-171.5 168,-152.5 101,-152.5"/>
<text text-anchor="middle" x="134.5" y="-159.5" font-family="Helvetica,sans-Serif" font-size="10.00">config_read</text>
</a>
</g>
</g>
<!-- Node5&#45;&gt;Node6 -->
<g id="edge5" class="edge">
<title>Node5&#45;&gt;Node6</title>
<path fill="none" stroke="midnightblue" d="M193.84,-162C185.16,-162 176.35,-162 168.3,-162"/>
<polygon fill="midnightblue" stroke="midnightblue" points="193.91,-165.5 203.91,-162 193.91,-158.5 193.91,-165.5"/>
</g>
<!-- Node7 -->
<g id="node7" class="node">
<title>Node7</title>
<g id="a_node7"><a xlink:href="main_8c.html#a3c04138a5bfe5d72780bb7e82a18e627" target="_top" xlink:title=" ">
<polygon fill="none" stroke="black" points="13.5,-152.5 13.5,-171.5 51.5,-171.5 51.5,-152.5 13.5,-152.5"/>
<text text-anchor="middle" x="32.5" y="-159.5" font-family="Helvetica,sans-Serif" font-size="10.00">main</text>
</a>
</g>
</g>
<!-- Node6&#45;&gt;Node7 -->
<g id="edge6" class="edge">
<title>Node6&#45;&gt;Node7</title>
<path fill="none" stroke="midnightblue" d="M90.55,-162C76.94,-162 62.61,-162 51.72,-162"/>
<polygon fill="midnightblue" stroke="midnightblue" points="90.76,-165.5 100.76,-162 90.76,-158.5 90.76,-165.5"/>
</g>
<!-- Node8 -->
<g id="node8" class="node">
<title>Node8</title>
<g id="a_node8"><a xlink:href="classXCS.html#a81bb7e5f76e05ad983d70fe848b73393" target="_top" xlink:title="Constructor with a specified config.">
<polygon fill="none" stroke="black" points="0,-114.5 0,-133.5 65,-133.5 65,-114.5 0,-114.5"/>
<text text-anchor="middle" x="32.5" y="-121.5" font-family="Helvetica,sans-Serif" font-size="10.00">XCS::XCS</text>
</a>
</g>
</g>
<!-- Node6&#45;&gt;Node8 -->
<g id="edge7" class="edge">
<title>Node6&#45;&gt;Node8</title>
<path fill="none" stroke="midnightblue" d="M98.59,-148.74C85.47,-143.75 70.81,-138.18 58.73,-133.59"/>
<polygon fill="midnightblue" stroke="midnightblue" points="97.67,-152.13 108.27,-152.41 100.16,-145.59 97.67,-152.13"/>
</g>
<!-- Node10 -->
<g id="node10" class="node">
<title>Node10</title>
<g id="a_node10"><a xlink:href="param_8h.html#a4f8540c63eec02eb3a86e12a5d370de9" target="_top" xlink:title="Initialises default XCSF parameters.">
<polygon fill="none" stroke="black" points="103.5,-114.5 103.5,-133.5 165.5,-133.5 165.5,-114.5 103.5,-114.5"/>
<text text-anchor="middle" x="134.5" y="-121.5" font-family="Helvetica,sans-Serif" font-size="10.00">param_init</text>
</a>
</g>
</g>
<!-- Node9&#45;&gt;Node10 -->
<g id="edge9" class="edge">
<title>Node9&#45;&gt;Node10</title>
<path fill="none" stroke="midnightblue" d="M312.81,-124C263,-124 201.57,-124 165.64,-124"/>
<polygon fill="midnightblue" stroke="midnightblue" points="312.93,-127.5 322.93,-124 312.93,-120.5 312.93,-127.5"/>
</g>
<!-- Node10&#45;&gt;Node7 -->
<g id="edge10" class="edge">
<title>Node10&#45;&gt;Node7</title>
<path fill="none" stroke="midnightblue" d="M98.78,-137.2C82.96,-143.2 64.9,-150.07 51.78,-155.05"/>
<polygon fill="midnightblue" stroke="midnightblue" points="100.16,-140.41 108.27,-133.59 97.67,-133.87 100.16,-140.41"/>
</g>
<!-- Node10&#45;&gt;Node8 -->
<g id="edge11" class="edge">
<title>Node10&#45;&gt;Node8</title>
<path fill="none" stroke="midnightblue" d="M93.24,-124C83.92,-124 74.12,-124 65.22,-124"/>
<polygon fill="midnightblue" stroke="midnightblue" points="93.5,-127.5 103.5,-124 93.5,-120.5 93.5,-127.5"/>
</g>
<!-- Node12 -->
<g id="node12" class="node">
<title>Node12</title>
<g id="a_node12"><a xlink:href="classXCS.html#ac953982d033e8f62d30585f5b344fcd9" target="_top" xlink:title="Sets the condition type and initialisation arguments.">
<polygon fill="none" stroke="black" points="500.5,-76.5 500.5,-95.5 601.5,-95.5 601.5,-76.5 500.5,-76.5"/>
<text text-anchor="middle" x="551" y="-83.5" font-family="Helvetica,sans-Serif" font-size="10.00">XCS::set_condition</text>
</a>
</g>
</g>
<!-- Node11&#45;&gt;Node12 -->
<g id="edge13" class="edge">
<title>Node11&#45;&gt;Node12</title>
<path fill="none" stroke="midnightblue" d="M634.18,-86C623.15,-86 611.96,-86 601.53,-86"/>
<polygon fill="midnightblue" stroke="midnightblue" points="634.23,-89.5 644.23,-86 634.23,-82.5 634.23,-89.5"/>
</g>
<!-- Node13&#45;&gt;Node12 -->
<g id="edge16" class="edge">
<title>Node13&#45;&gt;Node12</title>
<path fill="none" stroke="midnightblue" d="M656.18,-60.04C634.88,-65.35 610.2,-71.5 590.21,-76.48"/>
<polygon fill="midnightblue" stroke="midnightblue" points="657.16,-63.4 666.02,-57.59 655.47,-56.61 657.16,-63.4"/>
</g>
<!-- Node14 -->
<g id="node14" class="node">
<title>Node14</title>
<g id="a_node14"><a xlink:href="classXCS.html#a784301f07fb19857ed245361cc8badb3" target="_top" xlink:title="Sets the action type and initialisation arguments.">
<polygon fill="none" stroke="black" points="506.5,-38.5 506.5,-57.5 595.5,-57.5 595.5,-38.5 506.5,-38.5"/>
<text text-anchor="middle" x="551" y="-45.5" font-family="Helvetica,sans-Serif" font-size="10.00">XCS::set_action</text>
</a>
</g>
</g>
<!-- Node13&#45;&gt;Node14 -->
<g id="edge15" class="edge">
<title>Node13&#45;&gt;Node14</title>
<path fill="none" stroke="midnightblue" d="M628.66,-48C617.44,-48 606.21,-48 595.93,-48"/>
<polygon fill="midnightblue" stroke="midnightblue" points="628.94,-51.5 638.94,-48 628.94,-44.5 628.94,-51.5"/>
</g>
<!-- Node16 -->
<g id="node16" class="node">
<title>Node16</title>
<g id="a_node16"><a xlink:href="classXCS.html#a21265d32d6735e044caad64a2d1ed7db" target="_top" xlink:title="Sets the prediction type and initialisation arguments.">
<polygon fill="none" stroke="black" points="499,-0.5 499,-19.5 603,-19.5 603,-0.5 499,-0.5"/>
<text text-anchor="middle" x="551" y="-7.5" font-family="Helvetica,sans-Serif" font-size="10.00">XCS::set_prediction</text>
</a>
</g>
</g>
<!-- Node15&#45;&gt;Node16 -->
<g id="edge18" class="edge">
<title>Node15&#45;&gt;Node16</title>
<path fill="none" stroke="midnightblue" d="M629.77,-10C620.84,-10 611.87,-10 603.37,-10"/>
<polygon fill="midnightblue" stroke="midnightblue" points="629.83,-13.5 639.83,-10 629.83,-6.5 629.83,-13.5"/>
</g>
</g>
</svg>
