<?xml version="1.0" encoding="UTF-8" standalone="no"?>
<!DOCTYPE svg PUBLIC "-//W3C//DTD SVG 1.1//EN"
 "http://www.w3.org/Graphics/SVG/1.1/DTD/svg11.dtd">
<!-- Generated by graphviz version 2.43.0 (0)
 -->
<!-- Title: param_set_loss_func_string Pages: 1 -->
<svg width="459pt" height="256pt"
 viewBox="0.00 0.00 459.00 256.00" xmlns="http://www.w3.org/2000/svg" xmlns:xlink="http://www.w3.org/1999/xlink">
<g id="graph0" class="graph" transform="scale(1 1) rotate(0) translate(4 252)">
<title>param_set_loss_func_string</title>
<!-- Node1 -->
<g id="node1" class="node">
<title>Node1</title>
<g id="a_node1"><a xlink:title=" ">
<polygon fill="#bfbfbf" stroke="black" points="0,-90 0,-120 110,-120 110,-90 0,-90"/>
<text text-anchor="start" x="8" y="-108" font-family="Helvetica,sans-Serif" font-size="10.00">param_set_loss_func</text>
<text text-anchor="middle" x="55" y="-97" font-family="Helvetica,sans-Serif" font-size="10.00">_string</text>
</a>
</g>
</g>
<!-- Node2 -->
<g id="node2" class="node">
<title>Node2</title>
<g id="a_node2"><a xlink:href="loss_8c.html#a440b847b0f4edd503b919d3bebecd66c" target="_top" xlink:title="Sets the XCSF error function to the implemented function.">
<polygon fill="none" stroke="black" points="152.5,-114.5 152.5,-133.5 229.5,-133.5 229.5,-114.5 152.5,-114.5"/>
<text text-anchor="middle" x="191" y="-121.5" font-family="Helvetica,sans-Serif" font-size="10.00">loss_set_func</text>
</a>
</g>
</g>
<!-- Node1&#45;&gt;Node2 -->
<g id="edge1" class="edge">
<title>Node1&#45;&gt;Node2</title>
<path fill="none" stroke="midnightblue" d="M110.12,-112.67C120.69,-114.17 131.7,-115.73 142.05,-117.2"/>
<polygon fill="midnightblue" stroke="midnightblue" points="141.75,-120.69 152.14,-118.63 142.73,-113.76 141.75,-120.69"/>
</g>
<!-- Node11 -->
<g id="node11" class="node">
<title>Node11</title>
<g id="a_node11"><a xlink:href="loss_8c.html#a6b76e413b2123f456c6656f0555208e1" target="_top" xlink:title="Returns the integer representation of a loss type given a name.">
<polygon fill="none" stroke="black" points="146,-76.5 146,-95.5 236,-95.5 236,-76.5 146,-76.5"/>
<text text-anchor="middle" x="191" y="-83.5" font-family="Helvetica,sans-Serif" font-size="10.00">loss_type_as_int</text>
</a>
</g>
</g>
<!-- Node1&#45;&gt;Node11 -->
<g id="edge11" class="edge">
<title>Node1&#45;&gt;Node11</title>
<path fill="none" stroke="midnightblue" d="M110.12,-97.33C118.59,-96.13 127.34,-94.88 135.81,-93.68"/>
<polygon fill="midnightblue" stroke="midnightblue" points="136.55,-97.11 145.96,-92.24 135.57,-90.18 136.55,-97.11"/>
</g>
<!-- Node3 -->
<g id="node3" class="node">
<title>Node3</title>
<g id="a_node3"><a xlink:href="loss_8c.html#a2687b111bc407194c64e07e2b933bb3c" target="_top" xlink:title="Binary logistic log loss for binary&#45;class classification.">
<polygon fill="none" stroke="black" points="272,-228.5 272,-247.5 356,-247.5 356,-228.5 272,-228.5"/>
<text text-anchor="middle" x="314" y="-235.5" font-family="Helvetica,sans-Serif" font-size="10.00">loss_binary_log</text>
</a>
</g>
</g>
<!-- Node2&#45;&gt;Node3 -->
<g id="edge2" class="edge">
<title>Node2&#45;&gt;Node3</title>
<path fill="none" stroke="midnightblue" d="M197.96,-133.55C209.96,-152.14 238.76,-193.6 272,-219 274.07,-220.58 276.3,-222.08 278.6,-223.48"/>
<polygon fill="midnightblue" stroke="midnightblue" points="277.26,-226.73 287.72,-228.4 280.59,-220.57 277.26,-226.73"/>
</g>
<!-- Node4 -->
<g id="node4" class="node">
<title>Node4</title>
<g id="a_node4"><a xlink:href="loss_8c.html#adf5bc1e947369774d48b0355dbdbcc30" target="_top" xlink:title="Huber loss function.">
<polygon fill="none" stroke="black" points="282,-190.5 282,-209.5 346,-209.5 346,-190.5 282,-190.5"/>
<text text-anchor="middle" x="314" y="-197.5" font-family="Helvetica,sans-Serif" font-size="10.00">loss_huber</text>
</a>
</g>
</g>
<!-- Node2&#45;&gt;Node4 -->
<g id="edge3" class="edge">
<title>Node2&#45;&gt;Node4</title>
<path fill="none" stroke="midnightblue" d="M204,-133.62C219.24,-145.6 246.64,-166.26 272,-181 275.01,-182.75 278.2,-184.46 281.43,-186.1"/>
<polygon fill="midnightblue" stroke="midnightblue" points="279.96,-189.27 290.49,-190.48 283.01,-182.97 279.96,-189.27"/>
</g>
<!-- Node5 -->
<g id="node5" class="node">
<title>Node5</title>
<g id="a_node5"><a xlink:href="loss_8c.html#a5b0fc07896aaa302b61213c450874d49" target="_top" xlink:title="Logistic log loss for multi&#45;class classification.">
<polygon fill="none" stroke="black" points="287.5,-152.5 287.5,-171.5 340.5,-171.5 340.5,-152.5 287.5,-152.5"/>
<text text-anchor="middle" x="314" y="-159.5" font-family="Helvetica,sans-Serif" font-size="10.00">loss_log</text>
</a>
</g>
</g>
<!-- Node2&#45;&gt;Node5 -->
<g id="edge4" class="edge">
<title>Node2&#45;&gt;Node5</title>
<path fill="none" stroke="midnightblue" d="M222.53,-133.59C239.27,-138.85 260.1,-145.39 277.56,-150.87"/>
<polygon fill="midnightblue" stroke="midnightblue" points="276.8,-154.3 287.39,-153.96 278.89,-147.62 276.8,-154.3"/>
</g>
<!-- Node6 -->
<g id="node6" class="node">
<title>Node6</title>
<g id="a_node6"><a xlink:href="loss_8c.html#a7f1e236d219a5f551408639674b4a24a" target="_top" xlink:title="Mean absolute error loss function.">
<polygon fill="none" stroke="black" points="284.5,-114.5 284.5,-133.5 343.5,-133.5 343.5,-114.5 284.5,-114.5"/>
<text text-anchor="middle" x="314" y="-121.5" font-family="Helvetica,sans-Serif" font-size="10.00">loss_mae</text>
</a>
</g>
</g>
<!-- Node2&#45;&gt;Node6 -->
<g id="edge5" class="edge">
<title>Node2&#45;&gt;Node6</title>
<path fill="none" stroke="midnightblue" d="M229.62,-124C243.8,-124 259.95,-124 274.23,-124"/>
<polygon fill="midnightblue" stroke="midnightblue" points="274.25,-127.5 284.25,-124 274.25,-120.5 274.25,-127.5"/>
</g>
<!-- Node7 -->
<g id="node7" class="node">
<title>Node7</title>
<g id="a_node7"><a xlink:href="loss_8c.html#aaeed4518371c4e75de20532e3a6aa601" target="_top" xlink:title="Mean squared error loss function.">
<polygon fill="none" stroke="black" points="392,-57.5 392,-76.5 451,-76.5 451,-57.5 392,-57.5"/>
<text text-anchor="middle" x="421.5" y="-64.5" font-family="Helvetica,sans-Serif" font-size="10.00">loss_mse</text>
</a>
</g>
</g>
<!-- Node2&#45;&gt;Node7 -->
<g id="edge6" class="edge">
<title>Node2&#45;&gt;Node7</title>
<path fill="none" stroke="midnightblue" d="M229.73,-114.59C271.77,-104.1 339.39,-87.23 381.82,-76.65"/>
<polygon fill="midnightblue" stroke="midnightblue" points="382.91,-79.98 391.77,-74.17 381.22,-73.19 382.91,-79.98"/>
</g>
<!-- Node8 -->
<g id="node8" class="node">
<title>Node8</title>
<g id="a_node8"><a xlink:href="loss_8c.html#a38e786a5c46be2519aae23287c92cc23" target="_top" xlink:title="One&#45;hot classification error.">
<polygon fill="none" stroke="black" points="279.5,-0.5 279.5,-19.5 348.5,-19.5 348.5,-0.5 279.5,-0.5"/>
<text text-anchor="middle" x="314" y="-7.5" font-family="Helvetica,sans-Serif" font-size="10.00">loss_onehot</text>
</a>
</g>
</g>
<!-- Node2&#45;&gt;Node8 -->
<g id="edge7" class="edge">
<title>Node2&#45;&gt;Node8</title>
<path fill="none" stroke="midnightblue" d="M222.21,-114.44C227.21,-111.93 232.05,-108.82 236,-105 262.88,-79.03 245.46,-55.32 272,-29 273.42,-27.59 274.96,-26.27 276.59,-25.05"/>
<polygon fill="midnightblue" stroke="midnightblue" points="278.65,-27.89 285.27,-19.61 274.94,-21.95 278.65,-27.89"/>
</g>
<!-- Node10 -->
<g id="node10" class="node">
<title>Node10</title>
<g id="a_node10"><a xlink:href="loss_8c.html#a3278a1ba45bd0ccbf39e25bde1562f8f" target="_top" xlink:title="Root mean squared error loss function.">
<polygon fill="none" stroke="black" points="283,-38.5 283,-57.5 345,-57.5 345,-38.5 283,-38.5"/>
<text text-anchor="middle" x="314" y="-45.5" font-family="Helvetica,sans-Serif" font-size="10.00">loss_rmse</text>
</a>
</g>
</g>
<!-- Node2&#45;&gt;Node10 -->
<g id="edge9" class="edge">
<title>Node2&#45;&gt;Node10</title>
<path fill="none" stroke="midnightblue" d="M218.33,-114.33C224.34,-111.67 230.55,-108.53 236,-105 254.22,-93.2 254.54,-84.89 272,-72 276.29,-68.84 281.02,-65.74 285.7,-62.88"/>
<polygon fill="midnightblue" stroke="midnightblue" points="287.66,-65.79 294.51,-57.72 284.12,-59.76 287.66,-65.79"/>
</g>
<!-- Node9 -->
<g id="node9" class="node">
<title>Node9</title>
<g id="a_node9"><a xlink:href="utils_8h.html#ae85373ce85c9be81cf1456fb58478274" target="_top" xlink:title="Returns the index of the largest element in vector X.">
<polygon fill="none" stroke="black" points="397,-0.5 397,-19.5 446,-19.5 446,-0.5 397,-0.5"/>
<text text-anchor="middle" x="421.5" y="-7.5" font-family="Helvetica,sans-Serif" font-size="10.00">argmax</text>
</a>
</g>
</g>
<!-- Node8&#45;&gt;Node9 -->
<g id="edge8" class="edge">
<title>Node8&#45;&gt;Node9</title>
<path fill="none" stroke="midnightblue" d="M348.67,-10C360.8,-10 374.48,-10 386.62,-10"/>
<polygon fill="midnightblue" stroke="midnightblue" points="386.82,-13.5 396.82,-10 386.82,-6.5 386.82,-13.5"/>
</g>
<!-- Node10&#45;&gt;Node7 -->
<g id="edge10" class="edge">
<title>Node10&#45;&gt;Node7</title>
<path fill="none" stroke="midnightblue" d="M345.23,-53.44C356.53,-55.48 369.53,-57.82 381.52,-59.98"/>
<polygon fill="midnightblue" stroke="midnightblue" points="381.25,-63.49 391.72,-61.82 382.49,-56.6 381.25,-63.49"/>
</g>
</g>
</svg>
