<?xml version="1.0" encoding="UTF-8" standalone="no"?>
<!DOCTYPE svg PUBLIC "-//W3C//DTD SVG 1.1//EN"
 "http://www.w3.org/Graphics/SVG/1.1/DTD/svg11.dtd">
<!-- Generated by graphviz version 2.43.0 (0)
 -->
<!-- Title: param_set_pred_reset Pages: 1 -->
<svg width="916pt" height="104pt"
 viewBox="0.00 0.00 916.00 104.00" xmlns="http://www.w3.org/2000/svg" xmlns:xlink="http://www.w3.org/1999/xlink">
<g id="graph0" class="graph" transform="scale(1 1) rotate(0) translate(4 100)">
<title>param_set_pred_reset</title>
<!-- Node1 -->
<g id="node1" class="node">
<title>Node1</title>
<g id="a_node1"><a xlink:title=" ">
<polygon fill="#bfbfbf" stroke="black" points="795,-38.5 795,-57.5 908,-57.5 908,-38.5 795,-38.5"/>
<text text-anchor="middle" x="851.5" y="-45.5" font-family="Helvetica,sans-Serif" font-size="10.00">param_set_pred_reset</text>
</a>
</g>
</g>
<!-- Node2 -->
<g id="node2" class="node">
<title>Node2</title>
<g id="a_node2"><a xlink:href="config_8c.html#a09619cf9f3baf61a82edc0d8e04f4a3b" target="_top" xlink:title="Sets classifier prediction parameters.">
<polygon fill="none" stroke="black" points="665,-76.5 665,-95.5 745,-95.5 745,-76.5 665,-76.5"/>
<text text-anchor="middle" x="705" y="-83.5" font-family="Helvetica,sans-Serif" font-size="10.00">config_cl_pred</text>
</a>
</g>
</g>
<!-- Node1&#45;&gt;Node2 -->
<g id="edge1" class="edge">
<title>Node1&#45;&gt;Node2</title>
<path fill="none" stroke="midnightblue" d="M804.17,-60.18C784.11,-65.46 760.97,-71.54 742.2,-76.48"/>
<polygon fill="midnightblue" stroke="midnightblue" points="805.26,-63.52 814.04,-57.59 803.48,-56.75 805.26,-63.52"/>
</g>
<!-- Node9 -->
<g id="node9" class="node">
<title>Node9</title>
<g id="a_node9"><a xlink:href="param_8c.html#a5de507d2da0f88d37c5f92f4fb1e9cb2" target="_top" xlink:title="Initialises default classifier prediction parameters.">
<polygon fill="none" stroke="black" points="323,-38.5 323,-57.5 466,-57.5 466,-38.5 323,-38.5"/>
<text text-anchor="middle" x="394.5" y="-45.5" font-family="Helvetica,sans-Serif" font-size="10.00">param_defaults_cl_prediction</text>
</a>
</g>
</g>
<!-- Node1&#45;&gt;Node9 -->
<g id="edge8" class="edge">
<title>Node1&#45;&gt;Node9</title>
<path fill="none" stroke="midnightblue" d="M784.69,-48C699.99,-48 553.4,-48 466.33,-48"/>
<polygon fill="midnightblue" stroke="midnightblue" points="784.71,-51.5 794.71,-48 784.71,-44.5 784.71,-51.5"/>
</g>
<!-- Node11 -->
<g id="node11" class="node">
<title>Node11</title>
<g id="a_node11"><a xlink:href="classXCS.html#ab4cee58aa4491188997baeba05fe908e" target="_top" xlink:title=" ">
<polygon fill="none" stroke="black" points="651,-0.5 651,-19.5 759,-19.5 759,-0.5 651,-0.5"/>
<text text-anchor="middle" x="705" y="-7.5" font-family="Helvetica,sans-Serif" font-size="10.00">XCS::set_pred_reset</text>
</a>
</g>
</g>
<!-- Node1&#45;&gt;Node11 -->
<g id="edge12" class="edge">
<title>Node1&#45;&gt;Node11</title>
<path fill="none" stroke="midnightblue" d="M804.17,-35.82C784.11,-30.54 760.97,-24.46 742.2,-19.52"/>
<polygon fill="midnightblue" stroke="midnightblue" points="803.48,-39.25 814.04,-38.41 805.26,-32.48 803.48,-39.25"/>
</g>
<!-- Node3 -->
<g id="node3" class="node">
<title>Node3</title>
<g id="a_node3"><a xlink:href="config_8c.html#a695f5f085aa119586feb23e5a81a739c" target="_top" xlink:title="Sets specified parameter.">
<polygon fill="none" stroke="black" points="510.5,-76.5 510.5,-95.5 606.5,-95.5 606.5,-76.5 510.5,-76.5"/>
<text text-anchor="middle" x="558.5" y="-83.5" font-family="Helvetica,sans-Serif" font-size="10.00">config_add_param</text>
</a>
</g>
</g>
<!-- Node2&#45;&gt;Node3 -->
<g id="edge2" class="edge">
<title>Node2&#45;&gt;Node3</title>
<path fill="none" stroke="midnightblue" d="M654.46,-86C638.97,-86 621.93,-86 606.61,-86"/>
<polygon fill="midnightblue" stroke="midnightblue" points="654.9,-89.5 664.9,-86 654.9,-82.5 654.9,-89.5"/>
</g>
<!-- Node4 -->
<g id="node4" class="node">
<title>Node4</title>
<g id="a_node4"><a xlink:href="config_8c.html#a5b96815b9ebb26a8fc7bcc30a75ab36d" target="_top" xlink:title="Adds a parameter to the list.">
<polygon fill="none" stroke="black" points="348.5,-76.5 348.5,-95.5 440.5,-95.5 440.5,-76.5 348.5,-76.5"/>
<text text-anchor="middle" x="394.5" y="-83.5" font-family="Helvetica,sans-Serif" font-size="10.00">config_newnvpair</text>
</a>
</g>
</g>
<!-- Node3&#45;&gt;Node4 -->
<g id="edge3" class="edge">
<title>Node3&#45;&gt;Node4</title>
<path fill="none" stroke="midnightblue" d="M500.2,-86C480.65,-86 459.08,-86 440.62,-86"/>
<polygon fill="midnightblue" stroke="midnightblue" points="500.21,-89.5 510.21,-86 500.21,-82.5 500.21,-89.5"/>
</g>
<!-- Node5 -->
<g id="node5" class="node">
<title>Node5</title>
<g id="a_node5"><a xlink:href="config_8c.html#a01c178cc1587140f60ecf27291a2032a" target="_top" xlink:title="Parses a line of the config file and adds to the list.">
<polygon fill="none" stroke="black" points="204,-76.5 204,-95.5 287,-95.5 287,-76.5 204,-76.5"/>
<text text-anchor="middle" x="245.5" y="-83.5" font-family="Helvetica,sans-Serif" font-size="10.00">config_process</text>
</a>
</g>
</g>
<!-- Node4&#45;&gt;Node5 -->
<g id="edge4" class="edge">
<title>Node4&#45;&gt;Node5</title>
<path fill="none" stroke="midnightblue" d="M337.95,-86C321.17,-86 303.05,-86 287.41,-86"/>
<polygon fill="midnightblue" stroke="midnightblue" points="338.2,-89.5 348.2,-86 338.2,-82.5 338.2,-89.5"/>
</g>
<!-- Node6 -->
<g id="node6" class="node">
<title>Node6</title>
<g id="a_node6"><a xlink:href="config_8h.html#a045a64a30d99a4bef2ebfd9b54aa9698" target="_top" xlink:title="Reads the specified configuration file.">
<polygon fill="none" stroke="black" points="101,-76.5 101,-95.5 168,-95.5 168,-76.5 101,-76.5"/>
<text text-anchor="middle" x="134.5" y="-83.5" font-family="Helvetica,sans-Serif" font-size="10.00">config_read</text>
</a>
</g>
</g>
<!-- Node5&#45;&gt;Node6 -->
<g id="edge5" class="edge">
<title>Node5&#45;&gt;Node6</title>
<path fill="none" stroke="midnightblue" d="M193.84,-86C185.16,-86 176.35,-86 168.3,-86"/>
<polygon fill="midnightblue" stroke="midnightblue" points="193.91,-89.5 203.91,-86 193.91,-82.5 193.91,-89.5"/>
</g>
<!-- Node7 -->
<g id="node7" class="node">
<title>Node7</title>
<g id="a_node7"><a xlink:href="main_8c.html#a3c04138a5bfe5d72780bb7e82a18e627" target="_top" xlink:title=" ">
<polygon fill="none" stroke="black" points="13.5,-76.5 13.5,-95.5 51.5,-95.5 51.5,-76.5 13.5,-76.5"/>
<text text-anchor="middle" x="32.5" y="-83.5" font-family="Helvetica,sans-Serif" font-size="10.00">main</text>
</a>
</g>
</g>
<!-- Node6&#45;&gt;Node7 -->
<g id="edge6" class="edge">
<title>Node6&#45;&gt;Node7</title>
<path fill="none" stroke="midnightblue" d="M90.55,-86C76.94,-86 62.61,-86 51.72,-86"/>
<polygon fill="midnightblue" stroke="midnightblue" points="90.76,-89.5 100.76,-86 90.76,-82.5 90.76,-89.5"/>
</g>
<!-- Node8 -->
<g id="node8" class="node">
<title>Node8</title>
<g id="a_node8"><a xlink:href="classXCS.html#a81bb7e5f76e05ad983d70fe848b73393" target="_top" xlink:title="Constructor with a specified config.">
<polygon fill="none" stroke="black" points="0,-38.5 0,-57.5 65,-57.5 65,-38.5 0,-38.5"/>
<text text-anchor="middle" x="32.5" y="-45.5" font-family="Helvetica,sans-Serif" font-size="10.00">XCS::XCS</text>
</a>
</g>
</g>
<!-- Node6&#45;&gt;Node8 -->
<g id="edge7" class="edge">
<title>Node6&#45;&gt;Node8</title>
<path fill="none" stroke="midnightblue" d="M98.59,-72.74C85.47,-67.75 70.81,-62.18 58.73,-57.59"/>
<polygon fill="midnightblue" stroke="midnightblue" points="97.67,-76.13 108.27,-76.41 100.16,-69.59 97.67,-76.13"/>
</g>
<!-- Node10 -->
<g id="node10" class="node">
<title>Node10</title>
<g id="a_node10"><a xlink:href="param_8h.html#a4f8540c63eec02eb3a86e12a5d370de9" target="_top" xlink:title="Initialises default XCSF parameters.">
<polygon fill="none" stroke="black" points="103.5,-38.5 103.5,-57.5 165.5,-57.5 165.5,-38.5 103.5,-38.5"/>
<text text-anchor="middle" x="134.5" y="-45.5" font-family="Helvetica,sans-Serif" font-size="10.00">param_init</text>
</a>
</g>
</g>
<!-- Node9&#45;&gt;Node10 -->
<g id="edge9" class="edge">
<title>Node9&#45;&gt;Node10</title>
<path fill="none" stroke="midnightblue" d="M312.52,-48C262.67,-48 201.64,-48 165.82,-48"/>
<polygon fill="midnightblue" stroke="midnightblue" points="312.66,-51.5 322.66,-48 312.66,-44.5 312.66,-51.5"/>
</g>
<!-- Node10&#45;&gt;Node7 -->
<g id="edge10" class="edge">
<title>Node10&#45;&gt;Node7</title>
<path fill="none" stroke="midnightblue" d="M98.78,-61.2C82.96,-67.2 64.9,-74.07 51.78,-79.05"/>
<polygon fill="midnightblue" stroke="midnightblue" points="100.16,-64.41 108.27,-57.59 97.67,-57.87 100.16,-64.41"/>
</g>
<!-- Node10&#45;&gt;Node8 -->
<g id="edge11" class="edge">
<title>Node10&#45;&gt;Node8</title>
<path fill="none" stroke="midnightblue" d="M93.24,-48C83.92,-48 74.12,-48 65.22,-48"/>
<polygon fill="midnightblue" stroke="midnightblue" points="93.5,-51.5 103.5,-48 93.5,-44.5 93.5,-51.5"/>
</g>
<!-- Node12 -->
<g id="node12" class="node">
<title>Node12</title>
<g id="a_node12"><a xlink:href="pybind__wrapper_8cpp.html#a269acb618355873dacf057083f07eb58" target="_top" xlink:title=" ">
<polygon fill="none" stroke="black" points="502,-0.5 502,-19.5 615,-19.5 615,-0.5 502,-0.5"/>
<text text-anchor="middle" x="558.5" y="-7.5" font-family="Helvetica,sans-Serif" font-size="10.00">pybind11_init_wrapper</text>
</a>
</g>
</g>
<!-- Node11&#45;&gt;Node12 -->
<g id="edge13" class="edge">
<title>Node11&#45;&gt;Node12</title>
<path fill="none" stroke="midnightblue" d="M640.42,-10C631.98,-10 623.39,-10 615.1,-10"/>
<polygon fill="midnightblue" stroke="midnightblue" points="640.6,-13.5 650.6,-10 640.6,-6.5 640.6,-13.5"/>
</g>
</g>
</svg>
