<?xml version="1.0" encoding="UTF-8" standalone="no"?>
<!DOCTYPE svg PUBLIC "-//W3C//DTD SVG 1.1//EN"
 "http://www.w3.org/Graphics/SVG/1.1/DTD/svg11.dtd">
<!-- Generated by graphviz version 2.43.0 (0)
 -->
<!-- Title: param_set_omp_num_threads Pages: 1 -->
<svg width="647pt" height="199pt"
 viewBox="0.00 0.00 647.00 199.00" xmlns="http://www.w3.org/2000/svg" xmlns:xlink="http://www.w3.org/1999/xlink">
<g id="graph0" class="graph" transform="scale(1 1) rotate(0) translate(4 195)">
<title>param_set_omp_num_threads</title>
<!-- Node1 -->
<g id="node1" class="node">
<title>Node1</title>
<g id="a_node1"><a xlink:title="Sets the number of OMP threads.">
<polygon fill="#bfbfbf" stroke="black" points="491,-38.5 491,-57.5 639,-57.5 639,-38.5 491,-38.5"/>
<text text-anchor="middle" x="565" y="-45.5" font-family="Helvetica,sans-Serif" font-size="10.00">param_set_omp_num_threads</text>
</a>
</g>
</g>
<!-- Node2 -->
<g id="node2" class="node">
<title>Node2</title>
<g id="a_node2"><a xlink:href="param_8c.html#ac8218a170803be0bcd974764e7494b0e" target="_top" xlink:title="Initialises default XCSF parameters.">
<polygon fill="none" stroke="black" points="352.5,-95.5 352.5,-114.5 414.5,-114.5 414.5,-95.5 352.5,-95.5"/>
<text text-anchor="middle" x="383.5" y="-102.5" font-family="Helvetica,sans-Serif" font-size="10.00">param_init</text>
</a>
</g>
</g>
<!-- Node1&#45;&gt;Node2 -->
<g id="edge1" class="edge">
<title>Node1&#45;&gt;Node2</title>
<path fill="none" stroke="midnightblue" d="M524.15,-60.66C491.06,-71.16 444.71,-85.88 414.64,-95.43"/>
<polygon fill="midnightblue" stroke="midnightblue" points="525.48,-63.9 533.96,-57.54 523.37,-57.23 525.48,-63.9"/>
</g>
<!-- Node9 -->
<g id="node9" class="node">
<title>Node9</title>
<g id="a_node9"><a xlink:href="param_8c.html#ad7d3421611d8020079446a6a190df8f8" target="_top" xlink:title="Sets the general parameters from a cJSON object.">
<polygon fill="none" stroke="black" points="315.5,-38.5 315.5,-57.5 451.5,-57.5 451.5,-38.5 315.5,-38.5"/>
<text text-anchor="middle" x="383.5" y="-45.5" font-family="Helvetica,sans-Serif" font-size="10.00">param_json_import_general</text>
</a>
</g>
</g>
<!-- Node1&#45;&gt;Node9 -->
<g id="edge10" class="edge">
<title>Node1&#45;&gt;Node9</title>
<path fill="none" stroke="midnightblue" d="M480.85,-48C471.07,-48 461.18,-48 451.66,-48"/>
<polygon fill="midnightblue" stroke="midnightblue" points="480.99,-51.5 490.99,-48 480.99,-44.5 480.99,-51.5"/>
</g>
<!-- Node12 -->
<g id="node12" class="node">
<title>Node12</title>
<g id="a_node12"><a xlink:href="classXCS.html#ac0743fc173959a78ff834c1f330fec31" target="_top" xlink:title=" ">
<polygon fill="none" stroke="black" points="312,-0.5 312,-19.5 455,-19.5 455,-0.5 312,-0.5"/>
<text text-anchor="middle" x="383.5" y="-7.5" font-family="Helvetica,sans-Serif" font-size="10.00">XCS::set_omp_num_threads</text>
</a>
</g>
</g>
<!-- Node1&#45;&gt;Node12 -->
<g id="edge14" class="edge">
<title>Node1&#45;&gt;Node12</title>
<path fill="none" stroke="midnightblue" d="M508.82,-36.32C483.37,-30.93 453.53,-24.61 429.47,-19.52"/>
<polygon fill="midnightblue" stroke="midnightblue" points="508.2,-39.76 518.7,-38.41 509.65,-32.92 508.2,-39.76"/>
</g>
<!-- Node3 -->
<g id="node3" class="node">
<title>Node3</title>
<g id="a_node3"><a xlink:href="env__csv_8c.html#ab26a39a388f0ac83b9ac14726ad14b16" target="_top" xlink:title="Initialises a CSV input environment from a specified filename.">
<polygon fill="none" stroke="black" points="191,-171.5 191,-190.5 262,-190.5 262,-171.5 191,-171.5"/>
<text text-anchor="middle" x="226.5" y="-178.5" font-family="Helvetica,sans-Serif" font-size="10.00">env_csv_init</text>
</a>
</g>
</g>
<!-- Node2&#45;&gt;Node3 -->
<g id="edge2" class="edge">
<title>Node2&#45;&gt;Node3</title>
<path fill="none" stroke="midnightblue" d="M357.46,-119.49C336.14,-131.55 304.53,-148.83 276,-162 268.86,-165.3 260.97,-168.55 253.66,-171.4"/>
<polygon fill="midnightblue" stroke="midnightblue" points="359.25,-122.49 366.2,-114.5 355.78,-116.41 359.25,-122.49"/>
</g>
<!-- Node6 -->
<g id="node6" class="node">
<title>Node6</title>
<g id="a_node6"><a xlink:href="env__maze_8c.html#acad3cc6e9fe2b7e07e878f1f517ad3a6" target="_top" xlink:title="Initialises a maze environment from a specified file.">
<polygon fill="none" stroke="black" points="186.5,-133.5 186.5,-152.5 266.5,-152.5 266.5,-133.5 186.5,-133.5"/>
<text text-anchor="middle" x="226.5" y="-140.5" font-family="Helvetica,sans-Serif" font-size="10.00">env_maze_init</text>
</a>
</g>
</g>
<!-- Node2&#45;&gt;Node6 -->
<g id="edge5" class="edge">
<title>Node2&#45;&gt;Node6</title>
<path fill="none" stroke="midnightblue" d="M342.31,-114.85C318.95,-120.58 289.66,-127.76 266.51,-133.44"/>
<polygon fill="midnightblue" stroke="midnightblue" points="343.37,-118.2 352.25,-112.42 341.7,-111.4 343.37,-118.2"/>
</g>
<!-- Node7 -->
<g id="node7" class="node">
<title>Node7</title>
<g id="a_node7"><a xlink:href="env__mux_8c.html#aff3b81b4913d273ecfd62d7585480b15" target="_top" xlink:title="Initialises a real multiplexer environment of specified length.">
<polygon fill="none" stroke="black" points="189.5,-95.5 189.5,-114.5 263.5,-114.5 263.5,-95.5 189.5,-95.5"/>
<text text-anchor="middle" x="226.5" y="-102.5" font-family="Helvetica,sans-Serif" font-size="10.00">env_mux_init</text>
</a>
</g>
</g>
<!-- Node2&#45;&gt;Node7 -->
<g id="edge7" class="edge">
<title>Node2&#45;&gt;Node7</title>
<path fill="none" stroke="midnightblue" d="M341.93,-105C317.67,-105 287.11,-105 263.67,-105"/>
<polygon fill="midnightblue" stroke="midnightblue" points="342.25,-108.5 352.25,-105 342.25,-101.5 342.25,-108.5"/>
</g>
<!-- Node8 -->
<g id="node8" class="node">
<title>Node8</title>
<g id="a_node8"><a xlink:href="classXCS.html#af1010afd63843f86ad1dd81fade9bd72" target="_top" xlink:title="Constructor.">
<polygon fill="none" stroke="black" points="194,-57.5 194,-76.5 259,-76.5 259,-57.5 194,-57.5"/>
<text text-anchor="middle" x="226.5" y="-64.5" font-family="Helvetica,sans-Serif" font-size="10.00">XCS::XCS</text>
</a>
</g>
</g>
<!-- Node2&#45;&gt;Node8 -->
<g id="edge9" class="edge">
<title>Node2&#45;&gt;Node8</title>
<path fill="none" stroke="midnightblue" d="M342.33,-95.15C316.37,-88.79 283.06,-80.62 259.01,-74.72"/>
<polygon fill="midnightblue" stroke="midnightblue" points="341.7,-98.6 352.25,-97.58 343.37,-91.8 341.7,-98.6"/>
</g>
<!-- Node4 -->
<g id="node4" class="node">
<title>Node4</title>
<g id="a_node4"><a xlink:href="env_8c.html#a9213fcf5fc422d6a77bce853b1d78dc9" target="_top" xlink:title="Initialises a built&#45;in problem environment.">
<polygon fill="none" stroke="black" points="82.5,-114.5 82.5,-133.5 132.5,-133.5 132.5,-114.5 82.5,-114.5"/>
<text text-anchor="middle" x="107.5" y="-121.5" font-family="Helvetica,sans-Serif" font-size="10.00">env_init</text>
</a>
</g>
</g>
<!-- Node3&#45;&gt;Node4 -->
<g id="edge3" class="edge">
<title>Node3&#45;&gt;Node4</title>
<path fill="none" stroke="midnightblue" d="M189.85,-167.66C185.49,-165.85 181.12,-163.94 177,-162 158.42,-153.25 137.93,-141.61 124.24,-133.52"/>
<polygon fill="midnightblue" stroke="midnightblue" points="188.72,-170.98 199.3,-171.47 191.34,-164.49 188.72,-170.98"/>
</g>
<!-- Node5 -->
<g id="node5" class="node">
<title>Node5</title>
<g id="a_node5"><a xlink:href="main_8c.html#a3c04138a5bfe5d72780bb7e82a18e627" target="_top" xlink:title=" ">
<polygon fill="none" stroke="black" points="0,-90.5 0,-109.5 38,-109.5 38,-90.5 0,-90.5"/>
<text text-anchor="middle" x="19" y="-97.5" font-family="Helvetica,sans-Serif" font-size="10.00">main</text>
</a>
</g>
</g>
<!-- Node4&#45;&gt;Node5 -->
<g id="edge4" class="edge">
<title>Node4&#45;&gt;Node5</title>
<path fill="none" stroke="midnightblue" d="M72.47,-114.56C60.78,-111.31 48.14,-107.81 38.21,-105.05"/>
<polygon fill="midnightblue" stroke="midnightblue" points="71.83,-118.01 82.4,-117.31 73.7,-111.27 71.83,-118.01"/>
</g>
<!-- Node6&#45;&gt;Node4 -->
<g id="edge6" class="edge">
<title>Node6&#45;&gt;Node4</title>
<path fill="none" stroke="midnightblue" d="M175.98,-134.96C160.93,-132.51 145.07,-129.94 132.51,-127.9"/>
<polygon fill="midnightblue" stroke="midnightblue" points="175.78,-138.47 186.22,-136.62 176.91,-131.56 175.78,-138.47"/>
</g>
<!-- Node7&#45;&gt;Node4 -->
<g id="edge8" class="edge">
<title>Node7&#45;&gt;Node4</title>
<path fill="none" stroke="midnightblue" d="M179.24,-112.51C163.36,-115.09 146.21,-117.88 132.78,-120.06"/>
<polygon fill="midnightblue" stroke="midnightblue" points="180.13,-115.91 189.44,-110.86 179.01,-109 180.13,-115.91"/>
</g>
<!-- Node10 -->
<g id="node10" class="node">
<title>Node10</title>
<g id="a_node10"><a xlink:href="param_8c.html#a130260988988535419aee8abe51986c1" target="_top" xlink:title="Sets the parameters from a json formatted string.">
<polygon fill="none" stroke="black" points="177,-19.5 177,-38.5 276,-38.5 276,-19.5 177,-19.5"/>
<text text-anchor="middle" x="226.5" y="-26.5" font-family="Helvetica,sans-Serif" font-size="10.00">param_json_import</text>
</a>
</g>
</g>
<!-- Node9&#45;&gt;Node10 -->
<g id="edge11" class="edge">
<title>Node9&#45;&gt;Node10</title>
<path fill="none" stroke="midnightblue" d="M305.24,-38.53C295.44,-37.33 285.64,-36.13 276.46,-35"/>
<polygon fill="midnightblue" stroke="midnightblue" points="305.06,-42.03 315.42,-39.78 305.92,-35.09 305.06,-42.03"/>
</g>
<!-- Node11 -->
<g id="node11" class="node">
<title>Node11</title>
<g id="a_node11"><a xlink:href="config_8c.html#a045a64a30d99a4bef2ebfd9b54aa9698" target="_top" xlink:title="Reads the specified configuration file.">
<polygon fill="none" stroke="black" points="74,-43.5 74,-62.5 141,-62.5 141,-43.5 74,-43.5"/>
<text text-anchor="middle" x="107.5" y="-50.5" font-family="Helvetica,sans-Serif" font-size="10.00">config_read</text>
</a>
</g>
</g>
<!-- Node10&#45;&gt;Node11 -->
<g id="edge12" class="edge">
<title>Node10&#45;&gt;Node11</title>
<path fill="none" stroke="midnightblue" d="M169.05,-40.58C159.51,-42.54 149.9,-44.51 141.24,-46.28"/>
<polygon fill="midnightblue" stroke="midnightblue" points="169.83,-43.99 178.92,-38.55 168.42,-37.14 169.83,-43.99"/>
</g>
<!-- Node11&#45;&gt;Node5 -->
<g id="edge13" class="edge">
<title>Node11&#45;&gt;Node5</title>
<path fill="none" stroke="midnightblue" d="M80.02,-67.39C66.31,-74.84 49.95,-83.73 37.78,-90.34"/>
<polygon fill="midnightblue" stroke="midnightblue" points="81.88,-70.36 89,-62.51 78.54,-64.21 81.88,-70.36"/>
</g>
</g>
</svg>
