<?xml version="1.0" encoding="UTF-8" standalone="no"?>
<!DOCTYPE svg PUBLIC "-//W3C//DTD SVG 1.1//EN"
 "http://www.w3.org/Graphics/SVG/1.1/DTD/svg11.dtd">
<!-- Generated by graphviz version 2.43.0 (0)
 -->
<!-- Title: param_set_cond_evolve_connectivity Pages: 1 -->
<svg width="556pt" height="97pt"
 viewBox="0.00 0.00 556.00 96.50" xmlns="http://www.w3.org/2000/svg" xmlns:xlink="http://www.w3.org/1999/xlink">
<g id="graph0" class="graph" transform="scale(1 1) rotate(0) translate(4 92.5)">
<title>param_set_cond_evolve_connectivity</title>
<!-- Node1 -->
<g id="node1" class="node">
<title>Node1</title>
<g id="a_node1"><a xlink:title=" ">
<polygon fill="#bfbfbf" stroke="black" points="426,-22.5 426,-52.5 548,-52.5 548,-22.5 426,-22.5"/>
<text text-anchor="start" x="434" y="-40.5" font-family="Helvetica,sans-Serif" font-size="10.00">param_set_cond_evolve</text>
<text text-anchor="middle" x="487" y="-29.5" font-family="Helvetica,sans-Serif" font-size="10.00">_connectivity</text>
</a>
</g>
</g>
<!-- Node2 -->
<g id="node2" class="node">
<title>Node2</title>
<g id="a_node2"><a xlink:href="param_8c.html#a88eafe1c1ad9f5a87aee6ad422126e33" target="_top" xlink:title="Initialises default classifier condition parameters.">
<polygon fill="none" stroke="black" points="250,-50 250,-69 390,-69 390,-50 250,-50"/>
<text text-anchor="middle" x="320" y="-57" font-family="Helvetica,sans-Serif" font-size="10.00">param_defaults_cl_condition</text>
</a>
</g>
</g>
<!-- Node1&#45;&gt;Node2 -->
<g id="edge1" class="edge">
<title>Node1&#45;&gt;Node2</title>
<path fill="none" stroke="midnightblue" d="M416.04,-46.83C407.49,-47.97 398.76,-49.13 390.23,-50.27"/>
<polygon fill="midnightblue" stroke="midnightblue" points="416.51,-50.3 425.96,-45.5 415.59,-43.36 416.51,-50.3"/>
</g>
<!-- Node6 -->
<g id="node6" class="node">
<title>Node6</title>
<g id="a_node6"><a xlink:href="classXCS.html#a6644a9dda5ab046462f4899656e58b5f" target="_top" xlink:title=" ">
<polygon fill="none" stroke="black" points="261.5,-0.5 261.5,-30.5 378.5,-30.5 378.5,-0.5 261.5,-0.5"/>
<text text-anchor="start" x="269.5" y="-18.5" font-family="Helvetica,sans-Serif" font-size="10.00">XCS::set_cond_evolve</text>
<text text-anchor="middle" x="320" y="-7.5" font-family="Helvetica,sans-Serif" font-size="10.00">_connectivity</text>
</a>
</g>
</g>
<!-- Node1&#45;&gt;Node6 -->
<g id="edge5" class="edge">
<title>Node1&#45;&gt;Node6</title>
<path fill="none" stroke="midnightblue" d="M416.04,-28.17C403.53,-26.5 390.62,-24.78 378.51,-23.17"/>
<polygon fill="midnightblue" stroke="midnightblue" points="415.59,-31.64 425.96,-29.5 416.51,-24.7 415.59,-31.64"/>
</g>
<!-- Node3 -->
<g id="node3" class="node">
<title>Node3</title>
<g id="a_node3"><a xlink:href="param_8h.html#a4f8540c63eec02eb3a86e12a5d370de9" target="_top" xlink:title="Initialises default XCSF parameters.">
<polygon fill="none" stroke="black" points="126.5,-50 126.5,-69 188.5,-69 188.5,-50 126.5,-50"/>
<text text-anchor="middle" x="157.5" y="-57" font-family="Helvetica,sans-Serif" font-size="10.00">param_init</text>
</a>
</g>
</g>
<!-- Node2&#45;&gt;Node3 -->
<g id="edge2" class="edge">
<title>Node2&#45;&gt;Node3</title>
<path fill="none" stroke="midnightblue" d="M239.48,-59.5C221.32,-59.5 203.11,-59.5 188.57,-59.5"/>
<polygon fill="midnightblue" stroke="midnightblue" points="239.54,-63 249.54,-59.5 239.54,-56 239.54,-63"/>
</g>
<!-- Node4 -->
<g id="node4" class="node">
<title>Node4</title>
<g id="a_node4"><a xlink:href="main_8c.html#a3c04138a5bfe5d72780bb7e82a18e627" target="_top" xlink:title=" ">
<polygon fill="none" stroke="black" points="13.5,-69 13.5,-88 51.5,-88 51.5,-69 13.5,-69"/>
<text text-anchor="middle" x="32.5" y="-76" font-family="Helvetica,sans-Serif" font-size="10.00">main</text>
</a>
</g>
</g>
<!-- Node3&#45;&gt;Node4 -->
<g id="edge3" class="edge">
<title>Node3&#45;&gt;Node4</title>
<path fill="none" stroke="midnightblue" d="M116.43,-65.69C94.67,-69.05 68.82,-73.04 51.84,-75.67"/>
<polygon fill="midnightblue" stroke="midnightblue" points="117.06,-69.13 126.41,-64.15 115.99,-62.22 117.06,-69.13"/>
</g>
<!-- Node5 -->
<g id="node5" class="node">
<title>Node5</title>
<g id="a_node5"><a xlink:href="classXCS.html#a81bb7e5f76e05ad983d70fe848b73393" target="_top" xlink:title="Constructor with a specified config.">
<polygon fill="none" stroke="black" points="0,-31 0,-50 65,-50 65,-31 0,-31"/>
<text text-anchor="middle" x="32.5" y="-38" font-family="Helvetica,sans-Serif" font-size="10.00">XCS::XCS</text>
</a>
</g>
</g>
<!-- Node3&#45;&gt;Node5 -->
<g id="edge4" class="edge">
<title>Node3&#45;&gt;Node5</title>
<path fill="none" stroke="midnightblue" d="M116.47,-53.32C99.93,-50.76 81.01,-47.84 65.43,-45.43"/>
<polygon fill="midnightblue" stroke="midnightblue" points="115.99,-56.78 126.41,-54.85 117.06,-49.87 115.99,-56.78"/>
</g>
<!-- Node7 -->
<g id="node7" class="node">
<title>Node7</title>
<g id="a_node7"><a xlink:href="pybind__wrapper_8cpp.html#a269acb618355873dacf057083f07eb58" target="_top" xlink:title=" ">
<polygon fill="none" stroke="black" points="101,-6 101,-25 214,-25 214,-6 101,-6"/>
<text text-anchor="middle" x="157.5" y="-13" font-family="Helvetica,sans-Serif" font-size="10.00">pybind11_init_wrapper</text>
</a>
</g>
</g>
<!-- Node6&#45;&gt;Node7 -->
<g id="edge6" class="edge">
<title>Node6&#45;&gt;Node7</title>
<path fill="none" stroke="midnightblue" d="M250.9,-15.5C238.66,-15.5 226.04,-15.5 214.21,-15.5"/>
<polygon fill="midnightblue" stroke="midnightblue" points="251.06,-19 261.06,-15.5 251.06,-12 251.06,-19"/>
</g>
</g>
</svg>
