<?xml version="1.0" encoding="UTF-8" standalone="no"?>
<!DOCTYPE svg PUBLIC "-//W3C//DTD SVG 1.1//EN"
 "http://www.w3.org/Graphics/SVG/1.1/DTD/svg11.dtd">
<!-- Generated by graphviz version 2.43.0 (0)
 -->
<!-- Title: param_save Pages: 1 -->
<svg width="471pt" height="161pt"
 viewBox="0.00 0.00 471.00 161.00" xmlns="http://www.w3.org/2000/svg" xmlns:xlink="http://www.w3.org/1999/xlink">
<g id="graph0" class="graph" transform="scale(1 1) rotate(0) translate(4 157)">
<title>param_save</title>
<!-- Node1 -->
<g id="node1" class="node">
<title>Node1</title>
<g id="a_node1"><a xlink:title="Writes the XCSF data structure to a file.">
<polygon fill="#bfbfbf" stroke="black" points="0,-76.5 0,-95.5 70,-95.5 70,-76.5 0,-76.5"/>
<text text-anchor="middle" x="35" y="-83.5" font-family="Helvetica,sans-Serif" font-size="10.00">param_save</text>
</a>
</g>
</g>
<!-- Node2 -->
<g id="node2" class="node">
<title>Node2</title>
<g id="a_node2"><a xlink:href="action_8c.html#a95fbb463d8e044d1dadc5fdb1b6b1e05" target="_top" xlink:title="Saves action parameters.">
<polygon fill="none" stroke="black" points="106,-133.5 106,-152.5 207,-152.5 207,-133.5 106,-133.5"/>
<text text-anchor="middle" x="156.5" y="-140.5" font-family="Helvetica,sans-Serif" font-size="10.00">action_param_save</text>
</a>
</g>
</g>
<!-- Node1&#45;&gt;Node2 -->
<g id="edge1" class="edge">
<title>Node1&#45;&gt;Node2</title>
<path fill="none" stroke="midnightblue" d="M52.1,-95.52C66.09,-103.61 87.04,-115.26 106,-124 110.2,-125.94 114.67,-127.85 119.13,-129.67"/>
<polygon fill="midnightblue" stroke="midnightblue" points="118.19,-133.06 128.77,-133.47 120.76,-126.55 118.19,-133.06"/>
</g>
<!-- Node5 -->
<g id="node5" class="node">
<title>Node5</title>
<g id="a_node5"><a xlink:href="condition_8c.html#a8f670b7aa04f9e43ec146e1a7b3917a5" target="_top" xlink:title="Saves condition parameters.">
<polygon fill="none" stroke="black" points="108.5,-19.5 108.5,-38.5 204.5,-38.5 204.5,-19.5 108.5,-19.5"/>
<text text-anchor="middle" x="156.5" y="-26.5" font-family="Helvetica,sans-Serif" font-size="10.00">cond_param_save</text>
</a>
</g>
</g>
<!-- Node1&#45;&gt;Node5 -->
<g id="edge4" class="edge">
<title>Node1&#45;&gt;Node5</title>
<path fill="none" stroke="midnightblue" d="M52.1,-76.48C66.09,-68.39 87.04,-56.74 106,-48 110.2,-46.06 114.67,-44.15 119.13,-42.33"/>
<polygon fill="midnightblue" stroke="midnightblue" points="120.76,-45.45 128.77,-38.53 118.19,-38.94 120.76,-45.45"/>
</g>
<!-- Node8 -->
<g id="node8" class="node">
<title>Node8</title>
<g id="a_node8"><a xlink:href="ea_8c.html#ac604379821374a521040a1495e8752ad" target="_top" xlink:title="Saves evolutionary algorithm parameters.">
<polygon fill="none" stroke="black" points="113.5,-57.5 113.5,-76.5 199.5,-76.5 199.5,-57.5 113.5,-57.5"/>
<text text-anchor="middle" x="156.5" y="-64.5" font-family="Helvetica,sans-Serif" font-size="10.00">ea_param_save</text>
</a>
</g>
</g>
<!-- Node1&#45;&gt;Node8 -->
<g id="edge8" class="edge">
<title>Node1&#45;&gt;Node8</title>
<path fill="none" stroke="midnightblue" d="M70.24,-80.56C80.49,-78.93 91.96,-77.1 103.09,-75.33"/>
<polygon fill="midnightblue" stroke="midnightblue" points="103.85,-78.76 113.17,-73.73 102.75,-71.84 103.85,-78.76"/>
</g>
<!-- Node9 -->
<g id="node9" class="node">
<title>Node9</title>
<g id="a_node9"><a xlink:href="prediction_8c.html#a5c3b578b46347ad8abb67366d741e61c" target="_top" xlink:title="Saves prediction parameters.">
<polygon fill="none" stroke="black" points="109.5,-95.5 109.5,-114.5 203.5,-114.5 203.5,-95.5 109.5,-95.5"/>
<text text-anchor="middle" x="156.5" y="-102.5" font-family="Helvetica,sans-Serif" font-size="10.00">pred_param_save</text>
</a>
</g>
</g>
<!-- Node1&#45;&gt;Node9 -->
<g id="edge9" class="edge">
<title>Node1&#45;&gt;Node9</title>
<path fill="none" stroke="midnightblue" d="M70.24,-91.44C79.25,-92.88 89.21,-94.46 99.06,-96.03"/>
<polygon fill="midnightblue" stroke="midnightblue" points="98.8,-99.53 109.22,-97.64 99.9,-92.62 98.8,-99.53"/>
</g>
<!-- Node3 -->
<g id="node3" class="node">
<title>Node3</title>
<g id="a_node3"><a xlink:href="neural__layer__args_8c.html#a48c9d23bdc9f7694e2ef4c0a5dd2f59a" target="_top" xlink:title="Saves neural network layer parameters.">
<polygon fill="none" stroke="black" points="244.5,-95.5 244.5,-114.5 332.5,-114.5 332.5,-95.5 244.5,-95.5"/>
<text text-anchor="middle" x="288.5" y="-102.5" font-family="Helvetica,sans-Serif" font-size="10.00">layer_args_save</text>
</a>
</g>
</g>
<!-- Node2&#45;&gt;Node3 -->
<g id="edge2" class="edge">
<title>Node2&#45;&gt;Node3</title>
<path fill="none" stroke="midnightblue" d="M190.3,-133.41C206.78,-128.6 226.94,-122.7 244.63,-117.53"/>
<polygon fill="midnightblue" stroke="midnightblue" points="246.09,-120.75 254.71,-114.59 244.13,-114.03 246.09,-120.75"/>
</g>
<!-- Node4 -->
<g id="node4" class="node">
<title>Node4</title>
<g id="a_node4"><a xlink:href="neural__layer__args_8c.html#af686286fbe62a7bcbf3ab9f4e8dcaa17" target="_top" xlink:title="Returns the length of the neural network layer parameter list.">
<polygon fill="none" stroke="black" points="370,-95.5 370,-114.5 463,-114.5 463,-95.5 370,-95.5"/>
<text text-anchor="middle" x="416.5" y="-102.5" font-family="Helvetica,sans-Serif" font-size="10.00">layer_args_length</text>
</a>
</g>
</g>
<!-- Node3&#45;&gt;Node4 -->
<g id="edge3" class="edge">
<title>Node3&#45;&gt;Node4</title>
<path fill="none" stroke="midnightblue" d="M332.51,-105C341.21,-105 350.48,-105 359.55,-105"/>
<polygon fill="midnightblue" stroke="midnightblue" points="359.67,-108.5 369.67,-105 359.67,-101.5 359.67,-108.5"/>
</g>
<!-- Node5&#45;&gt;Node3 -->
<g id="edge6" class="edge">
<title>Node5&#45;&gt;Node3</title>
<path fill="none" stroke="midnightblue" d="M186.05,-38.57C193.06,-41.29 200.43,-44.48 207,-48 229.04,-59.79 252.12,-76.67 267.88,-89"/>
<polygon fill="midnightblue" stroke="midnightblue" points="265.83,-91.84 275.84,-95.32 270.19,-86.36 265.83,-91.84"/>
</g>
<!-- Node6 -->
<g id="node6" class="node">
<title>Node6</title>
<g id="a_node6"><a xlink:href="dgp_8c.html#a0a55dcba4f8e944721e7dad5c03fcaa7" target="_top" xlink:title="Saves DGP parameters.">
<polygon fill="none" stroke="black" points="243,-38.5 243,-57.5 334,-57.5 334,-38.5 243,-38.5"/>
<text text-anchor="middle" x="288.5" y="-45.5" font-family="Helvetica,sans-Serif" font-size="10.00">graph_args_save</text>
</a>
</g>
</g>
<!-- Node5&#45;&gt;Node6 -->
<g id="edge5" class="edge">
<title>Node5&#45;&gt;Node6</title>
<path fill="none" stroke="midnightblue" d="M204.8,-35.91C213.86,-37.24 223.42,-38.64 232.7,-39.99"/>
<polygon fill="midnightblue" stroke="midnightblue" points="232.22,-43.46 242.62,-41.44 233.23,-36.53 232.22,-43.46"/>
</g>
<!-- Node7 -->
<g id="node7" class="node">
<title>Node7</title>
<g id="a_node7"><a xlink:href="gp_8c.html#afeae0667e724564d74d36c9fe6ad9682" target="_top" xlink:title="Saves Tree GP parameters.">
<polygon fill="none" stroke="black" points="247,-0.5 247,-19.5 330,-19.5 330,-0.5 247,-0.5"/>
<text text-anchor="middle" x="288.5" y="-7.5" font-family="Helvetica,sans-Serif" font-size="10.00">tree_args_save</text>
</a>
</g>
</g>
<!-- Node5&#45;&gt;Node7 -->
<g id="edge7" class="edge">
<title>Node5&#45;&gt;Node7</title>
<path fill="none" stroke="midnightblue" d="M204.8,-22.09C215.25,-20.56 226.37,-18.93 236.94,-17.39"/>
<polygon fill="midnightblue" stroke="midnightblue" points="237.49,-20.85 246.88,-15.94 236.48,-13.92 237.49,-20.85"/>
</g>
<!-- Node9&#45;&gt;Node3 -->
<g id="edge10" class="edge">
<title>Node9&#45;&gt;Node3</title>
<path fill="none" stroke="midnightblue" d="M203.7,-105C213.66,-105 224.27,-105 234.47,-105"/>
<polygon fill="midnightblue" stroke="midnightblue" points="234.49,-108.5 244.49,-105 234.49,-101.5 234.49,-108.5"/>
</g>
</g>
</svg>
