<?xml version="1.0" encoding="UTF-8" standalone="no"?>
<!DOCTYPE svg PUBLIC "-//W3C//DTD SVG 1.1//EN"
 "http://www.w3.org/Graphics/SVG/1.1/DTD/svg11.dtd">
<!-- Generated by graphviz version 2.43.0 (0)
 -->
<!-- Title: param_set_y_dim Pages: 1 -->
<svg width="679pt" height="218pt"
 viewBox="0.00 0.00 679.00 218.00" xmlns="http://www.w3.org/2000/svg" xmlns:xlink="http://www.w3.org/1999/xlink">
<g id="graph0" class="graph" transform="scale(1 1) rotate(0) translate(4 214)">
<title>param_set_y_dim</title>
<!-- Node1 -->
<g id="node1" class="node">
<title>Node1</title>
<g id="a_node1"><a xlink:title=" ">
<polygon fill="#bfbfbf" stroke="black" points="577,-38.5 577,-57.5 671,-57.5 671,-38.5 577,-38.5"/>
<text text-anchor="middle" x="624" y="-45.5" font-family="Helvetica,sans-Serif" font-size="10.00">param_set_y_dim</text>
</a>
</g>
</g>
<!-- Node2 -->
<g id="node2" class="node">
<title>Node2</title>
<g id="a_node2"><a xlink:href="param_8c.html#ac8218a170803be0bcd974764e7494b0e" target="_top" xlink:title="Initialises default XCSF parameters.">
<polygon fill="none" stroke="black" points="442,-114.5 442,-133.5 504,-133.5 504,-114.5 442,-114.5"/>
<text text-anchor="middle" x="473" y="-121.5" font-family="Helvetica,sans-Serif" font-size="10.00">param_init</text>
</a>
</g>
</g>
<!-- Node1&#45;&gt;Node2 -->
<g id="edge1" class="edge">
<title>Node1&#45;&gt;Node2</title>
<path fill="none" stroke="midnightblue" d="M595.05,-62.26C565.13,-77.52 518.5,-101.3 492.72,-114.45"/>
<polygon fill="midnightblue" stroke="midnightblue" points="596.81,-65.29 604.13,-57.63 593.63,-59.05 596.81,-65.29"/>
</g>
<!-- Node11 -->
<g id="node11" class="node">
<title>Node11</title>
<g id="a_node11"><a xlink:href="param_8c.html#ad7d3421611d8020079446a6a190df8f8" target="_top" xlink:title="Sets the general parameters from a cJSON object.">
<polygon fill="none" stroke="black" points="405,-38.5 405,-57.5 541,-57.5 541,-38.5 405,-38.5"/>
<text text-anchor="middle" x="473" y="-45.5" font-family="Helvetica,sans-Serif" font-size="10.00">param_json_import_general</text>
</a>
</g>
</g>
<!-- Node1&#45;&gt;Node11 -->
<g id="edge12" class="edge">
<title>Node1&#45;&gt;Node11</title>
<path fill="none" stroke="midnightblue" d="M566.67,-48C558.31,-48 549.63,-48 541.08,-48"/>
<polygon fill="midnightblue" stroke="midnightblue" points="566.67,-51.5 576.67,-48 566.67,-44.5 566.67,-51.5"/>
</g>
<!-- Node17 -->
<g id="node17" class="node">
<title>Node17</title>
<g id="a_node17"><a xlink:href="xcsf_8c.html#ad77461184a11780681798ac593b090ab" target="_top" xlink:title="Switches from autoencoding to classification.">
<polygon fill="none" stroke="black" points="418.5,-0.5 418.5,-19.5 527.5,-19.5 527.5,-0.5 418.5,-0.5"/>
<text text-anchor="middle" x="473" y="-7.5" font-family="Helvetica,sans-Serif" font-size="10.00">xcsf_ae_to_classifier</text>
</a>
</g>
</g>
<!-- Node1&#45;&gt;Node17 -->
<g id="edge19" class="edge">
<title>Node1&#45;&gt;Node17</title>
<path fill="none" stroke="midnightblue" d="M575.51,-35.89C554.76,-30.6 530.77,-24.48 511.33,-19.52"/>
<polygon fill="midnightblue" stroke="midnightblue" points="574.85,-39.33 585.4,-38.41 576.58,-32.55 574.85,-39.33"/>
</g>
<!-- Node3 -->
<g id="node3" class="node">
<title>Node3</title>
<g id="a_node3"><a xlink:href="env__csv_8c.html#ab26a39a388f0ac83b9ac14726ad14b16" target="_top" xlink:title="Initialises a CSV input environment from a specified filename.">
<polygon fill="none" stroke="black" points="277.5,-114.5 277.5,-133.5 348.5,-133.5 348.5,-114.5 277.5,-114.5"/>
<text text-anchor="middle" x="313" y="-121.5" font-family="Helvetica,sans-Serif" font-size="10.00">env_csv_init</text>
</a>
</g>
</g>
<!-- Node2&#45;&gt;Node3 -->
<g id="edge2" class="edge">
<title>Node2&#45;&gt;Node3</title>
<path fill="none" stroke="midnightblue" d="M431.75,-124C406.08,-124 373.16,-124 348.65,-124"/>
<polygon fill="midnightblue" stroke="midnightblue" points="431.91,-127.5 441.91,-124 431.91,-120.5 431.91,-127.5"/>
</g>
<!-- Node6 -->
<g id="node6" class="node">
<title>Node6</title>
<g id="a_node6"><a xlink:href="env__maze_8c.html#acad3cc6e9fe2b7e07e878f1f517ad3a6" target="_top" xlink:title="Initialises a maze environment from a specified file.">
<polygon fill="none" stroke="black" points="273,-76.5 273,-95.5 353,-95.5 353,-76.5 273,-76.5"/>
<text text-anchor="middle" x="313" y="-83.5" font-family="Helvetica,sans-Serif" font-size="10.00">env_maze_init</text>
</a>
</g>
</g>
<!-- Node2&#45;&gt;Node6 -->
<g id="edge5" class="edge">
<title>Node2&#45;&gt;Node6</title>
<path fill="none" stroke="midnightblue" d="M432,-114.38C407.87,-108.58 377.25,-101.21 353.25,-95.44"/>
<polygon fill="midnightblue" stroke="midnightblue" points="431.37,-117.83 441.91,-116.76 433.01,-111.02 431.37,-117.83"/>
</g>
<!-- Node7 -->
<g id="node7" class="node">
<title>Node7</title>
<g id="a_node7"><a xlink:href="env__mux_8c.html#aff3b81b4913d273ecfd62d7585480b15" target="_top" xlink:title="Initialises a real multiplexer environment of specified length.">
<polygon fill="none" stroke="black" points="276,-152.5 276,-171.5 350,-171.5 350,-152.5 276,-152.5"/>
<text text-anchor="middle" x="313" y="-159.5" font-family="Helvetica,sans-Serif" font-size="10.00">env_mux_init</text>
</a>
</g>
</g>
<!-- Node2&#45;&gt;Node7 -->
<g id="edge7" class="edge">
<title>Node2&#45;&gt;Node7</title>
<path fill="none" stroke="midnightblue" d="M431.93,-133.64C406.73,-139.7 374.48,-147.46 350.07,-153.32"/>
<polygon fill="midnightblue" stroke="midnightblue" points="433.01,-136.98 441.91,-131.24 431.37,-130.17 433.01,-136.98"/>
</g>
<!-- Node8 -->
<g id="node8" class="node">
<title>Node8</title>
<g id="a_node8"><a xlink:href="classXCS.html#a2e542f3f17c9c76d07045adf1f5c16f9" target="_top" xlink:title="Resets basic constructor variables.">
<polygon fill="none" stroke="black" points="280.5,-190.5 280.5,-209.5 345.5,-209.5 345.5,-190.5 280.5,-190.5"/>
<text text-anchor="middle" x="313" y="-197.5" font-family="Helvetica,sans-Serif" font-size="10.00">XCS::reset</text>
</a>
</g>
</g>
<!-- Node2&#45;&gt;Node8 -->
<g id="edge9" class="edge">
<title>Node2&#45;&gt;Node8</title>
<path fill="none" stroke="midnightblue" d="M448.06,-138.8C427.56,-151.1 397.01,-168.52 369,-181 361.25,-184.45 352.66,-187.69 344.62,-190.47"/>
<polygon fill="midnightblue" stroke="midnightblue" points="449.99,-141.73 456.72,-133.55 446.36,-135.74 449.99,-141.73"/>
</g>
<!-- Node4 -->
<g id="node4" class="node">
<title>Node4</title>
<g id="a_node4"><a xlink:href="env_8c.html#a9213fcf5fc422d6a77bce853b1d78dc9" target="_top" xlink:title="Initialises a built&#45;in problem environment.">
<polygon fill="none" stroke="black" points="148.5,-114.5 148.5,-133.5 198.5,-133.5 198.5,-114.5 148.5,-114.5"/>
<text text-anchor="middle" x="173.5" y="-121.5" font-family="Helvetica,sans-Serif" font-size="10.00">env_init</text>
</a>
</g>
</g>
<!-- Node3&#45;&gt;Node4 -->
<g id="edge3" class="edge">
<title>Node3&#45;&gt;Node4</title>
<path fill="none" stroke="midnightblue" d="M267.17,-124C244.42,-124 217.68,-124 198.79,-124"/>
<polygon fill="midnightblue" stroke="midnightblue" points="267.3,-127.5 277.3,-124 267.3,-120.5 267.3,-127.5"/>
</g>
<!-- Node5 -->
<g id="node5" class="node">
<title>Node5</title>
<g id="a_node5"><a xlink:href="main_8c.html#a3c04138a5bfe5d72780bb7e82a18e627" target="_top" xlink:title=" ">
<polygon fill="none" stroke="black" points="26,-105.5 26,-124.5 64,-124.5 64,-105.5 26,-105.5"/>
<text text-anchor="middle" x="45" y="-112.5" font-family="Helvetica,sans-Serif" font-size="10.00">main</text>
</a>
</g>
</g>
<!-- Node4&#45;&gt;Node5 -->
<g id="edge4" class="edge">
<title>Node4&#45;&gt;Node5</title>
<path fill="none" stroke="midnightblue" d="M138.34,-121.57C114.49,-119.87 83.58,-117.67 64.26,-116.3"/>
<polygon fill="midnightblue" stroke="midnightblue" points="138.19,-125.07 148.41,-122.29 138.68,-118.09 138.19,-125.07"/>
</g>
<!-- Node6&#45;&gt;Node4 -->
<g id="edge6" class="edge">
<title>Node6&#45;&gt;Node4</title>
<path fill="none" stroke="midnightblue" d="M267.48,-98.3C244.66,-104.61 217.77,-112.04 198.79,-117.29"/>
<polygon fill="midnightblue" stroke="midnightblue" points="268.6,-101.63 277.3,-95.59 266.73,-94.88 268.6,-101.63"/>
</g>
<!-- Node7&#45;&gt;Node4 -->
<g id="edge8" class="edge">
<title>Node7&#45;&gt;Node4</title>
<path fill="none" stroke="midnightblue" d="M267.48,-149.7C244.66,-143.39 217.77,-135.96 198.79,-130.71"/>
<polygon fill="midnightblue" stroke="midnightblue" points="266.73,-153.12 277.3,-152.41 268.6,-146.37 266.73,-153.12"/>
</g>
<!-- Node9 -->
<g id="node9" class="node">
<title>Node9</title>
<g id="a_node9"><a xlink:href="classXCS.html#a8a53a8df81152fbf73e6abcc6a6e56b4" target="_top" xlink:title="Default Constructor.">
<polygon fill="none" stroke="black" points="141,-190.5 141,-209.5 206,-209.5 206,-190.5 141,-190.5"/>
<text text-anchor="middle" x="173.5" y="-197.5" font-family="Helvetica,sans-Serif" font-size="10.00">XCS::XCS</text>
</a>
</g>
</g>
<!-- Node8&#45;&gt;Node9 -->
<g id="edge10" class="edge">
<title>Node8&#45;&gt;Node9</title>
<path fill="none" stroke="midnightblue" d="M270.41,-200C249.85,-200 225.43,-200 206.37,-200"/>
<polygon fill="midnightblue" stroke="midnightblue" points="270.45,-203.5 280.45,-200 270.45,-196.5 270.45,-203.5"/>
</g>
<!-- Node10 -->
<g id="node10" class="node">
<title>Node10</title>
<g id="a_node10"><a xlink:href="classXCS.html#a71b21201e1a2aef16702a2c308eb6683" target="_top" xlink:title="Implements pickle file reading.">
<polygon fill="none" stroke="black" points="0,-190.5 0,-209.5 90,-209.5 90,-190.5 0,-190.5"/>
<text text-anchor="middle" x="45" y="-197.5" font-family="Helvetica,sans-Serif" font-size="10.00">XCS::deserialize</text>
</a>
</g>
</g>
<!-- Node9&#45;&gt;Node10 -->
<g id="edge11" class="edge">
<title>Node9&#45;&gt;Node10</title>
<path fill="none" stroke="midnightblue" d="M130.78,-200C117.72,-200 103.28,-200 90.06,-200"/>
<polygon fill="midnightblue" stroke="midnightblue" points="130.91,-203.5 140.91,-200 130.9,-196.5 130.91,-203.5"/>
</g>
<!-- Node12 -->
<g id="node12" class="node">
<title>Node12</title>
<g id="a_node12"><a xlink:href="param_8c.html#a130260988988535419aee8abe51986c1" target="_top" xlink:title="Sets the parameters from a json formatted string.">
<polygon fill="none" stroke="black" points="263.5,-38.5 263.5,-57.5 362.5,-57.5 362.5,-38.5 263.5,-38.5"/>
<text text-anchor="middle" x="313" y="-45.5" font-family="Helvetica,sans-Serif" font-size="10.00">param_json_import</text>
</a>
</g>
</g>
<!-- Node11&#45;&gt;Node12 -->
<g id="edge13" class="edge">
<title>Node11&#45;&gt;Node12</title>
<path fill="none" stroke="midnightblue" d="M394.66,-48C383.84,-48 372.99,-48 362.9,-48"/>
<polygon fill="midnightblue" stroke="midnightblue" points="394.99,-51.5 404.99,-48 394.99,-44.5 394.99,-51.5"/>
</g>
<!-- Node13 -->
<g id="node13" class="node">
<title>Node13</title>
<g id="a_node13"><a xlink:href="config_8c.html#a045a64a30d99a4bef2ebfd9b54aa9698" target="_top" xlink:title="Reads the specified configuration file.">
<polygon fill="none" stroke="black" points="140,-76.5 140,-95.5 207,-95.5 207,-76.5 140,-76.5"/>
<text text-anchor="middle" x="173.5" y="-83.5" font-family="Helvetica,sans-Serif" font-size="10.00">config_read</text>
</a>
</g>
</g>
<!-- Node12&#45;&gt;Node13 -->
<g id="edge14" class="edge">
<title>Node12&#45;&gt;Node13</title>
<path fill="none" stroke="midnightblue" d="M267.65,-60.26C248.03,-65.68 225.36,-71.95 207.29,-76.94"/>
<polygon fill="midnightblue" stroke="midnightblue" points="268.6,-63.63 277.3,-57.59 266.73,-56.88 268.6,-63.63"/>
</g>
<!-- Node14 -->
<g id="node14" class="node">
<title>Node14</title>
<g id="a_node14"><a xlink:href="classXCS.html#ad8780630d80d4bf5b76d9bf2f6c91f25" target="_top" xlink:title="Sets parameter values.">
<polygon fill="none" stroke="black" points="126,-38.5 126,-57.5 221,-57.5 221,-38.5 126,-38.5"/>
<text text-anchor="middle" x="173.5" y="-45.5" font-family="Helvetica,sans-Serif" font-size="10.00">XCS::set_params</text>
</a>
</g>
</g>
<!-- Node12&#45;&gt;Node14 -->
<g id="edge16" class="edge">
<title>Node12&#45;&gt;Node14</title>
<path fill="none" stroke="midnightblue" d="M253.1,-48C242.49,-48 231.57,-48 221.36,-48"/>
<polygon fill="midnightblue" stroke="midnightblue" points="253.14,-51.5 263.14,-48 253.14,-44.5 253.14,-51.5"/>
</g>
<!-- Node13&#45;&gt;Node5 -->
<g id="edge15" class="edge">
<title>Node13&#45;&gt;Node5</title>
<path fill="none" stroke="midnightblue" d="M129.93,-95.76C107.47,-100.91 81.11,-106.95 64.01,-110.87"/>
<polygon fill="midnightblue" stroke="midnightblue" points="130.96,-99.11 139.92,-93.47 129.39,-92.29 130.96,-99.11"/>
</g>
<!-- Node15 -->
<g id="node15" class="node">
<title>Node15</title>
<g id="a_node15"><a xlink:href="classXCS.html#a0c600c37d5e5160d553b52b6d5c179b4" target="_top" xlink:title="Sets XCSF input and output dimensions.">
<polygon fill="none" stroke="black" points="3.5,-57.5 3.5,-76.5 86.5,-76.5 86.5,-57.5 3.5,-57.5"/>
<text text-anchor="middle" x="45" y="-64.5" font-family="Helvetica,sans-Serif" font-size="10.00">XCS::set_dims</text>
</a>
</g>
</g>
<!-- Node14&#45;&gt;Node15 -->
<g id="edge17" class="edge">
<title>Node14&#45;&gt;Node15</title>
<path fill="none" stroke="midnightblue" d="M115.69,-56.53C105.93,-58 95.96,-59.5 86.72,-60.88"/>
<polygon fill="midnightblue" stroke="midnightblue" points="116.39,-59.97 125.76,-55.02 115.35,-53.05 116.39,-59.97"/>
</g>
<!-- Node16 -->
<g id="node16" class="node">
<title>Node16</title>
<g id="a_node16"><a xlink:href="classXCS.html#a608a50f998819369d28ef9966d6812ca" target="_top" xlink:title="Constructor.">
<polygon fill="none" stroke="black" points="12.5,-19.5 12.5,-38.5 77.5,-38.5 77.5,-19.5 12.5,-19.5"/>
<text text-anchor="middle" x="45" y="-26.5" font-family="Helvetica,sans-Serif" font-size="10.00">XCS::XCS</text>
</a>
</g>
</g>
<!-- Node14&#45;&gt;Node16 -->
<g id="edge18" class="edge">
<title>Node14&#45;&gt;Node16</title>
<path fill="none" stroke="midnightblue" d="M115.83,-39.49C102.69,-37.52 89.18,-35.49 77.58,-33.74"/>
<polygon fill="midnightblue" stroke="midnightblue" points="115.35,-42.95 125.76,-40.98 116.39,-36.03 115.35,-42.95"/>
</g>
<!-- Node18 -->
<g id="node18" class="node">
<title>Node18</title>
<g id="a_node18"><a xlink:href="classXCS.html#ad73009d926d395ee03bf7586f194fcbe" target="_top" xlink:title="Switches from autoencoding to classification.">
<polygon fill="none" stroke="black" points="257,-0.5 257,-19.5 369,-19.5 369,-0.5 257,-0.5"/>
<text text-anchor="middle" x="313" y="-7.5" font-family="Helvetica,sans-Serif" font-size="10.00">XCS::ae_to_classifier</text>
</a>
</g>
</g>
<!-- Node17&#45;&gt;Node18 -->
<g id="edge20" class="edge">
<title>Node17&#45;&gt;Node18</title>
<path fill="none" stroke="midnightblue" d="M407.88,-10C395,-10 381.57,-10 369.03,-10"/>
<polygon fill="midnightblue" stroke="midnightblue" points="408.07,-13.5 418.07,-10 408.07,-6.5 408.07,-13.5"/>
</g>
</g>
</svg>
