<?xml version="1.0" encoding="UTF-8" standalone="no"?>
<!DOCTYPE svg PUBLIC "-//W3C//DTD SVG 1.1//EN"
 "http://www.w3.org/Graphics/SVG/1.1/DTD/svg11.dtd">
<!-- Generated by graphviz version 2.43.0 (0)
 -->
<!-- Title: param_set_explore Pages: 1 -->
<svg width="649pt" height="256pt"
 viewBox="0.00 0.00 649.00 256.00" xmlns="http://www.w3.org/2000/svg" xmlns:xlink="http://www.w3.org/1999/xlink">
<g id="graph0" class="graph" transform="scale(1 1) rotate(0) translate(4 252)">
<title>param_set_explore</title>
<!-- Node1 -->
<g id="node1" class="node">
<title>Node1</title>
<g id="a_node1"><a xlink:title=" ">
<polygon fill="#bfbfbf" stroke="black" points="542,-114.5 542,-133.5 641,-133.5 641,-114.5 542,-114.5"/>
<text text-anchor="middle" x="591.5" y="-121.5" font-family="Helvetica,sans-Serif" font-size="10.00">param_set_explore</text>
</a>
</g>
</g>
<!-- Node2 -->
<g id="node2" class="node">
<title>Node2</title>
<g id="a_node2"><a xlink:href="classXCS.html#ac6003941812bd2c70ea443dd63bd59d0" target="_top" xlink:title="Selects an action to perform in a reinforcement learning problem.">
<polygon fill="none" stroke="black" points="406.5,-228.5 406.5,-247.5 486.5,-247.5 486.5,-228.5 406.5,-228.5"/>
<text text-anchor="middle" x="446.5" y="-235.5" font-family="Helvetica,sans-Serif" font-size="10.00">XCS::decision</text>
</a>
</g>
</g>
<!-- Node1&#45;&gt;Node2 -->
<g id="edge1" class="edge">
<title>Node1&#45;&gt;Node2</title>
<path fill="none" stroke="midnightblue" d="M578.9,-142.06C564.32,-163.37 537.38,-198.49 506,-219 500.1,-222.86 493.35,-225.99 486.59,-228.51"/>
<polygon fill="midnightblue" stroke="midnightblue" points="581.9,-143.86 584.53,-133.6 576.08,-139.98 581.9,-143.86"/>
</g>
<!-- Node3 -->
<g id="node3" class="node">
<title>Node3</title>
<g id="a_node3"><a xlink:href="xcs__rl_8c.html#a391abf9bd2540ff284f822b30899c438" target="_top" xlink:title="Creates and updates an action set for a given (state, action, reward).">
<polygon fill="none" stroke="black" points="418.5,-190.5 418.5,-209.5 474.5,-209.5 474.5,-190.5 418.5,-190.5"/>
<text text-anchor="middle" x="446.5" y="-197.5" font-family="Helvetica,sans-Serif" font-size="10.00">xcs_rl_fit</text>
</a>
</g>
</g>
<!-- Node1&#45;&gt;Node3 -->
<g id="edge2" class="edge">
<title>Node1&#45;&gt;Node3</title>
<path fill="none" stroke="midnightblue" d="M570.24,-140.05C553.71,-152.54 529.35,-169.61 506,-181 496.11,-185.82 484.71,-189.84 474.62,-192.92"/>
<polygon fill="midnightblue" stroke="midnightblue" points="572.77,-142.52 578.56,-133.64 568.5,-136.97 572.77,-142.52"/>
</g>
<!-- Node5 -->
<g id="node5" class="node">
<title>Node5</title>
<g id="a_node5"><a xlink:href="xcs__rl_8c.html#a8171cd945b56ed0a4563f9dcd89438e3" target="_top" xlink:title="Executes a reinforcement learning trial using a built&#45;in environment.">
<polygon fill="none" stroke="black" points="414.5,-152.5 414.5,-171.5 478.5,-171.5 478.5,-152.5 414.5,-152.5"/>
<text text-anchor="middle" x="446.5" y="-159.5" font-family="Helvetica,sans-Serif" font-size="10.00">xcs_rl_trial</text>
</a>
</g>
</g>
<!-- Node1&#45;&gt;Node5 -->
<g id="edge4" class="edge">
<title>Node1&#45;&gt;Node5</title>
<path fill="none" stroke="midnightblue" d="M544.5,-136.22C523.01,-141.94 497.97,-148.59 478.72,-153.7"/>
<polygon fill="midnightblue" stroke="midnightblue" points="545.65,-139.54 554.42,-133.59 543.85,-132.77 545.65,-139.54"/>
</g>
<!-- Node8 -->
<g id="node8" class="node">
<title>Node8</title>
<g id="a_node8"><a xlink:href="xcs__supervised_8c.html#aac1347b7b83576d581a1b725b4c84e56" target="_top" xlink:title="Executes MAX_TRIALS number of XCSF learning iterations using the training data and test iterations us...">
<polygon fill="none" stroke="black" points="397.5,-114.5 397.5,-133.5 495.5,-133.5 495.5,-114.5 397.5,-114.5"/>
<text text-anchor="middle" x="446.5" y="-121.5" font-family="Helvetica,sans-Serif" font-size="10.00">xcs_supervised_fit</text>
</a>
</g>
</g>
<!-- Node1&#45;&gt;Node8 -->
<g id="edge7" class="edge">
<title>Node1&#45;&gt;Node8</title>
<path fill="none" stroke="midnightblue" d="M531.38,-124C519.47,-124 507.09,-124 495.61,-124"/>
<polygon fill="midnightblue" stroke="midnightblue" points="531.69,-127.5 541.69,-124 531.69,-120.5 531.69,-127.5"/>
</g>
<!-- Node10 -->
<g id="node10" class="node">
<title>Node10</title>
<g id="a_node10"><a xlink:href="xcs__supervised_8c.html#ae4791c1daf0baaa6615f70332657aadb" target="_top" xlink:title="Calculates the XCSF predictions for the provided input.">
<polygon fill="none" stroke="black" points="387,-76.5 387,-95.5 506,-95.5 506,-76.5 387,-76.5"/>
<text text-anchor="middle" x="446.5" y="-83.5" font-family="Helvetica,sans-Serif" font-size="10.00">xcs_supervised_predict</text>
</a>
</g>
</g>
<!-- Node1&#45;&gt;Node10 -->
<g id="edge10" class="edge">
<title>Node1&#45;&gt;Node10</title>
<path fill="none" stroke="midnightblue" d="M544.69,-111.83C524.91,-106.57 502.12,-100.51 483.57,-95.59"/>
<polygon fill="midnightblue" stroke="midnightblue" points="543.85,-115.23 554.42,-114.41 545.65,-108.46 543.85,-115.23"/>
</g>
<!-- Node13 -->
<g id="node13" class="node">
<title>Node13</title>
<g id="a_node13"><a xlink:href="xcs__supervised_8c.html#a535e3dbbf0f80e64a4e9b1c700e51f40" target="_top" xlink:title="Calculates the XCSF error for the input data.">
<polygon fill="none" stroke="black" points="389.5,-38.5 389.5,-57.5 503.5,-57.5 503.5,-38.5 389.5,-38.5"/>
<text text-anchor="middle" x="446.5" y="-45.5" font-family="Helvetica,sans-Serif" font-size="10.00">xcs_supervised_score</text>
</a>
</g>
</g>
<!-- Node1&#45;&gt;Node13 -->
<g id="edge13" class="edge">
<title>Node1&#45;&gt;Node13</title>
<path fill="none" stroke="midnightblue" d="M570.24,-107.95C553.71,-95.46 529.35,-78.39 506,-67 498.61,-63.4 490.37,-60.24 482.47,-57.59"/>
<polygon fill="midnightblue" stroke="midnightblue" points="568.5,-111.03 578.56,-114.36 572.77,-105.48 568.5,-111.03"/>
</g>
<!-- Node16 -->
<g id="node16" class="node">
<title>Node16</title>
<g id="a_node16"><a xlink:href="xcs__supervised_8c.html#a9ab2bb39625aea84c716901a95a4326e" target="_top" xlink:title="Calculates the XCSF error for a subsample of the input data.">
<polygon fill="none" stroke="black" points="226,-0.5 226,-19.5 351,-19.5 351,-0.5 226,-0.5"/>
<text text-anchor="middle" x="288.5" y="-7.5" font-family="Helvetica,sans-Serif" font-size="10.00">xcs_supervised_score_n</text>
</a>
</g>
</g>
<!-- Node1&#45;&gt;Node16 -->
<g id="edge18" class="edge">
<title>Node1&#45;&gt;Node16</title>
<path fill="none" stroke="midnightblue" d="M580.04,-105.38C566.29,-82.9 539.85,-46.01 506,-29 457.96,-4.86 396.32,-1.7 351.1,-3.66"/>
<polygon fill="midnightblue" stroke="midnightblue" points="577.2,-107.46 585.3,-114.3 583.23,-103.91 577.2,-107.46"/>
</g>
<!-- Node4 -->
<g id="node4" class="node">
<title>Node4</title>
<g id="a_node4"><a xlink:href="classXCS.html#ac12768292958a714a726b1c029e9616a" target="_top" xlink:title="Creates/updates an action set for a given (state, action, reward).">
<polygon fill="none" stroke="black" points="262.5,-228.5 262.5,-247.5 314.5,-247.5 314.5,-228.5 262.5,-228.5"/>
<text text-anchor="middle" x="288.5" y="-235.5" font-family="Helvetica,sans-Serif" font-size="10.00">XCS::fit</text>
</a>
</g>
</g>
<!-- Node3&#45;&gt;Node4 -->
<g id="edge3" class="edge">
<title>Node3&#45;&gt;Node4</title>
<path fill="none" stroke="midnightblue" d="M408.55,-209C379.55,-216.06 339.96,-225.71 314.56,-231.9"/>
<polygon fill="midnightblue" stroke="midnightblue" points="409.44,-212.39 418.33,-206.62 407.78,-205.59 409.44,-212.39"/>
</g>
<!-- Node6 -->
<g id="node6" class="node">
<title>Node6</title>
<g id="a_node6"><a xlink:href="xcs__rl_8c.html#adb4c284d19eeaed2b4a629f9b939ed20" target="_top" xlink:title="Executes a reinforcement learning experiment.">
<polygon fill="none" stroke="black" points="256.5,-190.5 256.5,-209.5 320.5,-209.5 320.5,-190.5 256.5,-190.5"/>
<text text-anchor="middle" x="288.5" y="-197.5" font-family="Helvetica,sans-Serif" font-size="10.00">xcs_rl_exp</text>
</a>
</g>
</g>
<!-- Node5&#45;&gt;Node6 -->
<g id="edge5" class="edge">
<title>Node5&#45;&gt;Node6</title>
<path fill="none" stroke="midnightblue" d="M404.28,-172.04C378.06,-178.43 344.65,-186.57 320.64,-192.41"/>
<polygon fill="midnightblue" stroke="midnightblue" points="405.42,-175.37 414.31,-169.6 403.76,-168.56 405.42,-175.37"/>
</g>
<!-- Node7 -->
<g id="node7" class="node">
<title>Node7</title>
<g id="a_node7"><a xlink:href="main_8c.html#a3c04138a5bfe5d72780bb7e82a18e627" target="_top" xlink:title=" ">
<polygon fill="none" stroke="black" points="128,-171.5 128,-190.5 166,-190.5 166,-171.5 128,-171.5"/>
<text text-anchor="middle" x="147" y="-178.5" font-family="Helvetica,sans-Serif" font-size="10.00">main</text>
</a>
</g>
</g>
<!-- Node6&#45;&gt;Node7 -->
<g id="edge6" class="edge">
<title>Node6&#45;&gt;Node7</title>
<path fill="none" stroke="midnightblue" d="M246.04,-194.35C219.57,-190.75 186.54,-186.25 166.38,-183.5"/>
<polygon fill="midnightblue" stroke="midnightblue" points="245.81,-197.85 256.19,-195.74 246.76,-190.92 245.81,-197.85"/>
</g>
<!-- Node8&#45;&gt;Node7 -->
<g id="edge9" class="edge">
<title>Node8&#45;&gt;Node7</title>
<path fill="none" stroke="midnightblue" d="M388.27,-135.63C375.98,-138.1 363.06,-140.66 351,-143 282.89,-156.22 201.77,-171.17 166.21,-177.68"/>
<polygon fill="midnightblue" stroke="midnightblue" points="389.3,-139 398.42,-133.59 387.92,-132.13 389.3,-139"/>
</g>
<!-- Node9 -->
<g id="node9" class="node">
<title>Node9</title>
<g id="a_node9"><a xlink:href="classXCS.html#a3f8168ffade2d933d0971625200f1d92" target="_top" xlink:title="Executes MAX_TRIALS number of XCSF learning iterations using the provided training data.">
<polygon fill="none" stroke="black" points="262.5,-114.5 262.5,-133.5 314.5,-133.5 314.5,-114.5 262.5,-114.5"/>
<text text-anchor="middle" x="288.5" y="-121.5" font-family="Helvetica,sans-Serif" font-size="10.00">XCS::fit</text>
</a>
</g>
</g>
<!-- Node8&#45;&gt;Node9 -->
<g id="edge8" class="edge">
<title>Node8&#45;&gt;Node9</title>
<path fill="none" stroke="midnightblue" d="M387.24,-124C362.15,-124 334.13,-124 314.55,-124"/>
<polygon fill="midnightblue" stroke="midnightblue" points="387.42,-127.5 397.42,-124 387.42,-120.5 387.42,-127.5"/>
</g>
<!-- Node11 -->
<g id="node11" class="node">
<title>Node11</title>
<g id="a_node11"><a xlink:href="classXCS.html#a213bbab8324b5a60482e87f18a9ceaee" target="_top" xlink:title="Returns the XCSF prediction array for the provided input.">
<polygon fill="none" stroke="black" points="233.5,-76.5 233.5,-95.5 343.5,-95.5 343.5,-76.5 233.5,-76.5"/>
<text text-anchor="middle" x="288.5" y="-83.5" font-family="Helvetica,sans-Serif" font-size="10.00">XCS::get_predictions</text>
</a>
</g>
</g>
<!-- Node10&#45;&gt;Node11 -->
<g id="edge11" class="edge">
<title>Node10&#45;&gt;Node11</title>
<path fill="none" stroke="midnightblue" d="M376.87,-86C365.77,-86 354.42,-86 343.72,-86"/>
<polygon fill="midnightblue" stroke="midnightblue" points="376.97,-89.5 386.97,-86 376.97,-82.5 376.97,-89.5"/>
</g>
<!-- Node12 -->
<g id="node12" class="node">
<title>Node12</title>
<g id="a_node12"><a xlink:href="classXCS.html#aa29ac60a35ac4874b65bb22deca6df0c" target="_top" xlink:title="Returns the XCSF prediction array for the provided input.">
<polygon fill="none" stroke="black" points="110.5,-76.5 110.5,-95.5 183.5,-95.5 183.5,-76.5 110.5,-76.5"/>
<text text-anchor="middle" x="147" y="-83.5" font-family="Helvetica,sans-Serif" font-size="10.00">XCS::predict</text>
</a>
</g>
</g>
<!-- Node11&#45;&gt;Node12 -->
<g id="edge12" class="edge">
<title>Node11&#45;&gt;Node12</title>
<path fill="none" stroke="midnightblue" d="M222.98,-86C209.55,-86 195.86,-86 183.91,-86"/>
<polygon fill="midnightblue" stroke="midnightblue" points="223.17,-89.5 233.17,-86 223.17,-82.5 223.17,-89.5"/>
</g>
<!-- Node14 -->
<g id="node14" class="node">
<title>Node14</title>
<g id="a_node14"><a xlink:href="classXCS.html#abe2ecac1d31f36659f70eb3ff9665bef" target="_top" xlink:title="Returns the error using N random samples from the provided data.">
<polygon fill="none" stroke="black" points="104,-19.5 104,-38.5 190,-38.5 190,-19.5 104,-19.5"/>
<text text-anchor="middle" x="147" y="-26.5" font-family="Helvetica,sans-Serif" font-size="10.00">XCS::get_score</text>
</a>
</g>
</g>
<!-- Node13&#45;&gt;Node14 -->
<g id="edge14" class="edge">
<title>Node13&#45;&gt;Node14</title>
<path fill="none" stroke="midnightblue" d="M379.06,-43.76C321.29,-40.07 239.33,-34.83 190.15,-31.69"/>
<polygon fill="midnightblue" stroke="midnightblue" points="378.99,-47.26 389.19,-44.4 379.44,-40.27 378.99,-47.26"/>
</g>
<!-- Node13&#45;&gt;Node16 -->
<g id="edge16" class="edge">
<title>Node13&#45;&gt;Node16</title>
<path fill="none" stroke="midnightblue" d="M396.37,-36.03C374.51,-30.71 349.12,-24.52 328.58,-19.52"/>
<polygon fill="midnightblue" stroke="midnightblue" points="395.59,-39.44 406.13,-38.41 397.25,-32.64 395.59,-39.44"/>
</g>
<!-- Node15 -->
<g id="node15" class="node">
<title>Node15</title>
<g id="a_node15"><a xlink:href="classXCS.html#a4bb9f3f8613abf7ba95837a03bbb931d" target="_top" xlink:title="Returns the error using N random samples from the provided data.">
<polygon fill="none" stroke="black" points="0,-19.5 0,-38.5 68,-38.5 68,-19.5 0,-19.5"/>
<text text-anchor="middle" x="34" y="-26.5" font-family="Helvetica,sans-Serif" font-size="10.00">XCS::score</text>
</a>
</g>
</g>
<!-- Node14&#45;&gt;Node15 -->
<g id="edge15" class="edge">
<title>Node14&#45;&gt;Node15</title>
<path fill="none" stroke="midnightblue" d="M93.65,-29C84.98,-29 76.21,-29 68.19,-29"/>
<polygon fill="midnightblue" stroke="midnightblue" points="93.72,-32.5 103.72,-29 93.72,-25.5 93.72,-32.5"/>
</g>
<!-- Node16&#45;&gt;Node14 -->
<g id="edge17" class="edge">
<title>Node16&#45;&gt;Node14</title>
<path fill="none" stroke="midnightblue" d="M215.92,-19.75C207.07,-20.95 198.25,-22.16 190.05,-23.27"/>
<polygon fill="midnightblue" stroke="midnightblue" points="216.47,-23.21 225.91,-18.39 215.53,-16.27 216.47,-23.21"/>
</g>
</g>
</svg>
