<?xml version="1.0" encoding="UTF-8" standalone="no"?>
<!DOCTYPE svg PUBLIC "-//W3C//DTD SVG 1.1//EN"
 "http://www.w3.org/Graphics/SVG/1.1/DTD/svg11.dtd">
<!-- Generated by graphviz version 2.43.0 (0)
 -->
<!-- Title: param_load Pages: 1 -->
<svg width="452pt" height="370pt"
 viewBox="0.00 0.00 452.00 370.00" xmlns="http://www.w3.org/2000/svg" xmlns:xlink="http://www.w3.org/1999/xlink">
<g id="graph0" class="graph" transform="scale(1 1) rotate(0) translate(4 366)">
<title>param_load</title>
<!-- Node1 -->
<g id="node1" class="node">
<title>Node1</title>
<g id="a_node1"><a xlink:title="Reads the XCSF data structure from a file.">
<polygon fill="#bfbfbf" stroke="black" points="0,-228.5 0,-247.5 67,-247.5 67,-228.5 0,-228.5"/>
<text text-anchor="middle" x="33.5" y="-235.5" font-family="Helvetica,sans-Serif" font-size="10.00">param_load</text>
</a>
</g>
</g>
<!-- Node2 -->
<g id="node2" class="node">
<title>Node2</title>
<g id="a_node2"><a xlink:href="action_8c.html#a08b64f3c3cc1e112d0859880ea767c53" target="_top" xlink:title="Loads action parameters.">
<polygon fill="none" stroke="black" points="103,-190.5 103,-209.5 201,-209.5 201,-190.5 103,-190.5"/>
<text text-anchor="middle" x="152" y="-197.5" font-family="Helvetica,sans-Serif" font-size="10.00">action_param_load</text>
</a>
</g>
</g>
<!-- Node1&#45;&gt;Node2 -->
<g id="edge1" class="edge">
<title>Node1&#45;&gt;Node2</title>
<path fill="none" stroke="midnightblue" d="M63.9,-228.41C78.39,-223.69 96.06,-217.92 111.69,-212.82"/>
<polygon fill="midnightblue" stroke="midnightblue" points="113.19,-216.01 121.61,-209.59 111.02,-209.36 113.19,-216.01"/>
</g>
<!-- Node6 -->
<g id="node6" class="node">
<title>Node6</title>
<g id="a_node6"><a xlink:href="condition_8c.html#a529394a6a6f7f5a7aa596e14b2eb1ec2" target="_top" xlink:title="Loads condition parameters.">
<polygon fill="none" stroke="black" points="105.5,-304.5 105.5,-323.5 198.5,-323.5 198.5,-304.5 105.5,-304.5"/>
<text text-anchor="middle" x="152" y="-311.5" font-family="Helvetica,sans-Serif" font-size="10.00">cond_param_load</text>
</a>
</g>
</g>
<!-- Node1&#45;&gt;Node6 -->
<g id="edge5" class="edge">
<title>Node1&#45;&gt;Node6</title>
<path fill="none" stroke="midnightblue" d="M43.96,-247.57C56.52,-259.87 79.85,-281.26 103,-295 106.23,-296.92 109.7,-298.72 113.23,-300.39"/>
<polygon fill="midnightblue" stroke="midnightblue" points="112.06,-303.7 122.62,-304.49 114.86,-297.28 112.06,-303.7"/>
</g>
<!-- Node9 -->
<g id="node9" class="node">
<title>Node9</title>
<g id="a_node9"><a xlink:href="ea_8c.html#a98847959ab2371b435176a89306207c5" target="_top" xlink:title="Loads evolutionary algorithm parameters.">
<polygon fill="none" stroke="black" points="110.5,-228.5 110.5,-247.5 193.5,-247.5 193.5,-228.5 110.5,-228.5"/>
<text text-anchor="middle" x="152" y="-235.5" font-family="Helvetica,sans-Serif" font-size="10.00">ea_param_load</text>
</a>
</g>
</g>
<!-- Node1&#45;&gt;Node9 -->
<g id="edge9" class="edge">
<title>Node1&#45;&gt;Node9</title>
<path fill="none" stroke="midnightblue" d="M67.26,-238C77.46,-238 88.97,-238 100.1,-238"/>
<polygon fill="midnightblue" stroke="midnightblue" points="100.18,-241.5 110.18,-238 100.18,-234.5 100.18,-241.5"/>
</g>
<!-- Node10 -->
<g id="node10" class="node">
<title>Node10</title>
<g id="a_node10"><a xlink:href="loss_8c.html#a440b847b0f4edd503b919d3bebecd66c" target="_top" xlink:title="Sets the XCSF error function to the implemented function.">
<polygon fill="none" stroke="black" points="113.5,-133.5 113.5,-152.5 190.5,-152.5 190.5,-133.5 113.5,-133.5"/>
<text text-anchor="middle" x="152" y="-140.5" font-family="Helvetica,sans-Serif" font-size="10.00">loss_set_func</text>
</a>
</g>
</g>
<!-- Node1&#45;&gt;Node10 -->
<g id="edge10" class="edge">
<title>Node1&#45;&gt;Node10</title>
<path fill="none" stroke="midnightblue" d="M46.06,-228.23C59.63,-216.81 82.82,-197.38 103,-181 112.04,-173.67 122.12,-165.65 130.71,-158.88"/>
<polygon fill="midnightblue" stroke="midnightblue" points="133,-161.53 138.7,-152.6 128.68,-156.03 133,-161.53"/>
</g>
<!-- Node19 -->
<g id="node19" class="node">
<title>Node19</title>
<g id="a_node19"><a xlink:href="prediction_8c.html#a022e1e3dabeddd6cc051aa63a9af5924" target="_top" xlink:title="Loads prediction parameters.">
<polygon fill="none" stroke="black" points="106.5,-266.5 106.5,-285.5 197.5,-285.5 197.5,-266.5 106.5,-266.5"/>
<text text-anchor="middle" x="152" y="-273.5" font-family="Helvetica,sans-Serif" font-size="10.00">pred_param_load</text>
</a>
</g>
</g>
<!-- Node1&#45;&gt;Node19 -->
<g id="edge20" class="edge">
<title>Node1&#45;&gt;Node19</title>
<path fill="none" stroke="midnightblue" d="M63.9,-247.59C78.39,-252.31 96.06,-258.08 111.69,-263.18"/>
<polygon fill="midnightblue" stroke="midnightblue" points="111.02,-266.64 121.61,-266.41 113.19,-259.99 111.02,-266.64"/>
</g>
<!-- Node3 -->
<g id="node3" class="node">
<title>Node3</title>
<g id="a_node3"><a xlink:href="neural__layer__args_8c.html#a398a06830ed5cc20b78e7e04121897fd" target="_top" xlink:title="Loads neural network layer parameters.">
<polygon fill="none" stroke="black" points="238.5,-266.5 238.5,-285.5 323.5,-285.5 323.5,-266.5 238.5,-266.5"/>
<text text-anchor="middle" x="281" y="-273.5" font-family="Helvetica,sans-Serif" font-size="10.00">layer_args_load</text>
</a>
</g>
</g>
<!-- Node2&#45;&gt;Node3 -->
<g id="edge2" class="edge">
<title>Node2&#45;&gt;Node3</title>
<path fill="none" stroke="midnightblue" d="M182.01,-209.51C188.48,-212.16 195.15,-215.34 201,-219 219.4,-230.52 219.4,-239.29 237,-252 241.59,-255.32 246.69,-258.52 251.72,-261.46"/>
<polygon fill="midnightblue" stroke="midnightblue" points="250.14,-264.58 260.58,-266.4 253.55,-258.47 250.14,-264.58"/>
</g>
<!-- Node4 -->
<g id="node4" class="node">
<title>Node4</title>
<g id="a_node4"><a xlink:href="neural__layer__args_8c.html#a477d2c5cf9da9413c6dba66b5d7f7aff" target="_top" xlink:title="Frees memory used by a list of layer parameters and points to NULL.">
<polygon fill="none" stroke="black" points="361,-294.5 361,-313.5 444,-313.5 444,-294.5 361,-294.5"/>
<text text-anchor="middle" x="402.5" y="-301.5" font-family="Helvetica,sans-Serif" font-size="10.00">layer_args_free</text>
</a>
</g>
</g>
<!-- Node3&#45;&gt;Node4 -->
<g id="edge3" class="edge">
<title>Node3&#45;&gt;Node4</title>
<path fill="none" stroke="midnightblue" d="M322.79,-285.56C331.83,-287.68 341.51,-289.94 350.89,-292.14"/>
<polygon fill="midnightblue" stroke="midnightblue" points="350.36,-295.61 360.89,-294.49 351.96,-288.8 350.36,-295.61"/>
</g>
<!-- Node5 -->
<g id="node5" class="node">
<title>Node5</title>
<g id="a_node5"><a xlink:href="neural__layer__args_8c.html#a3b06e82bed7fc9a8915d6187ce08d33e" target="_top" xlink:title="Sets layer parameters to default values.">
<polygon fill="none" stroke="black" points="362.5,-256.5 362.5,-275.5 442.5,-275.5 442.5,-256.5 362.5,-256.5"/>
<text text-anchor="middle" x="402.5" y="-263.5" font-family="Helvetica,sans-Serif" font-size="10.00">layer_args_init</text>
</a>
</g>
</g>
<!-- Node3&#45;&gt;Node5 -->
<g id="edge4" class="edge">
<title>Node3&#45;&gt;Node5</title>
<path fill="none" stroke="midnightblue" d="M323.8,-272.5C332.99,-271.73 342.81,-270.91 352.26,-270.12"/>
<polygon fill="midnightblue" stroke="midnightblue" points="352.66,-273.6 362.34,-269.28 352.08,-266.62 352.66,-273.6"/>
</g>
<!-- Node6&#45;&gt;Node3 -->
<g id="edge7" class="edge">
<title>Node6&#45;&gt;Node3</title>
<path fill="none" stroke="midnightblue" d="M185.05,-304.41C201.14,-299.6 220.84,-293.7 238.12,-288.53"/>
<polygon fill="midnightblue" stroke="midnightblue" points="239.39,-291.81 247.96,-285.59 237.38,-285.1 239.39,-291.81"/>
</g>
<!-- Node7 -->
<g id="node7" class="node">
<title>Node7</title>
<g id="a_node7"><a xlink:href="dgp_8c.html#a4e160f3ae49e0876bd5d9d03cff31a79" target="_top" xlink:title="Loads DGP parameters.">
<polygon fill="none" stroke="black" points="237,-304.5 237,-323.5 325,-323.5 325,-304.5 237,-304.5"/>
<text text-anchor="middle" x="281" y="-311.5" font-family="Helvetica,sans-Serif" font-size="10.00">graph_args_load</text>
</a>
</g>
</g>
<!-- Node6&#45;&gt;Node7 -->
<g id="edge6" class="edge">
<title>Node6&#45;&gt;Node7</title>
<path fill="none" stroke="midnightblue" d="M198.85,-314C207.83,-314 217.33,-314 226.53,-314"/>
<polygon fill="midnightblue" stroke="midnightblue" points="226.76,-317.5 236.76,-314 226.76,-310.5 226.76,-317.5"/>
</g>
<!-- Node8 -->
<g id="node8" class="node">
<title>Node8</title>
<g id="a_node8"><a xlink:href="gp_8c.html#ace6f12ff809357296578e8aa1d1b0b47" target="_top" xlink:title="Loads Tree GP parameters.">
<polygon fill="none" stroke="black" points="241,-342.5 241,-361.5 321,-361.5 321,-342.5 241,-342.5"/>
<text text-anchor="middle" x="281" y="-349.5" font-family="Helvetica,sans-Serif" font-size="10.00">tree_args_load</text>
</a>
</g>
</g>
<!-- Node6&#45;&gt;Node8 -->
<g id="edge8" class="edge">
<title>Node6&#45;&gt;Node8</title>
<path fill="none" stroke="midnightblue" d="M185.05,-323.59C201.14,-328.4 220.84,-334.3 238.12,-339.47"/>
<polygon fill="midnightblue" stroke="midnightblue" points="237.38,-342.9 247.96,-342.41 239.39,-336.19 237.38,-342.9"/>
</g>
<!-- Node11 -->
<g id="node11" class="node">
<title>Node11</title>
<g id="a_node11"><a xlink:href="loss_8c.html#a2687b111bc407194c64e07e2b933bb3c" target="_top" xlink:title="Binary logistic log loss for binary&#45;class classification.">
<polygon fill="none" stroke="black" points="239,-114.5 239,-133.5 323,-133.5 323,-114.5 239,-114.5"/>
<text text-anchor="middle" x="281" y="-121.5" font-family="Helvetica,sans-Serif" font-size="10.00">loss_binary_log</text>
</a>
</g>
</g>
<!-- Node10&#45;&gt;Node11 -->
<g id="edge11" class="edge">
<title>Node10&#45;&gt;Node11</title>
<path fill="none" stroke="midnightblue" d="M190.76,-137.35C202.65,-135.57 215.98,-133.58 228.64,-131.68"/>
<polygon fill="midnightblue" stroke="midnightblue" points="229.24,-135.13 238.61,-130.19 228.21,-128.21 229.24,-135.13"/>
</g>
<!-- Node12 -->
<g id="node12" class="node">
<title>Node12</title>
<g id="a_node12"><a xlink:href="loss_8c.html#adf5bc1e947369774d48b0355dbdbcc30" target="_top" xlink:title="Huber loss function.">
<polygon fill="none" stroke="black" points="249,-76.5 249,-95.5 313,-95.5 313,-76.5 249,-76.5"/>
<text text-anchor="middle" x="281" y="-83.5" font-family="Helvetica,sans-Serif" font-size="10.00">loss_huber</text>
</a>
</g>
</g>
<!-- Node10&#45;&gt;Node12 -->
<g id="edge12" class="edge">
<title>Node10&#45;&gt;Node12</title>
<path fill="none" stroke="midnightblue" d="M174.03,-133.42C191.01,-125.71 215.52,-114.6 237,-105 240.86,-103.28 244.91,-101.47 248.92,-99.69"/>
<polygon fill="midnightblue" stroke="midnightblue" points="250.38,-102.88 258.11,-95.63 247.55,-96.47 250.38,-102.88"/>
</g>
<!-- Node13 -->
<g id="node13" class="node">
<title>Node13</title>
<g id="a_node13"><a xlink:href="loss_8c.html#a5b0fc07896aaa302b61213c450874d49" target="_top" xlink:title="Logistic log loss for multi&#45;class classification.">
<polygon fill="none" stroke="black" points="254.5,-38.5 254.5,-57.5 307.5,-57.5 307.5,-38.5 254.5,-38.5"/>
<text text-anchor="middle" x="281" y="-45.5" font-family="Helvetica,sans-Serif" font-size="10.00">loss_log</text>
</a>
</g>
</g>
<!-- Node10&#45;&gt;Node13 -->
<g id="edge13" class="edge">
<title>Node10&#45;&gt;Node13</title>
<path fill="none" stroke="midnightblue" d="M161.99,-133.02C176.53,-117.34 206.65,-86.7 237,-67 239.74,-65.22 242.67,-63.54 245.67,-61.96"/>
<polygon fill="midnightblue" stroke="midnightblue" points="247.27,-65.07 254.74,-57.55 244.21,-58.77 247.27,-65.07"/>
</g>
<!-- Node14 -->
<g id="node14" class="node">
<title>Node14</title>
<g id="a_node14"><a xlink:href="loss_8c.html#a7f1e236d219a5f551408639674b4a24a" target="_top" xlink:title="Mean absolute error loss function.">
<polygon fill="none" stroke="black" points="251.5,-0.5 251.5,-19.5 310.5,-19.5 310.5,-0.5 251.5,-0.5"/>
<text text-anchor="middle" x="281" y="-7.5" font-family="Helvetica,sans-Serif" font-size="10.00">loss_mae</text>
</a>
</g>
</g>
<!-- Node10&#45;&gt;Node14 -->
<g id="edge14" class="edge">
<title>Node10&#45;&gt;Node14</title>
<path fill="none" stroke="midnightblue" d="M157.79,-133.44C168.95,-112.04 198.64,-59.76 237,-29 239.01,-27.39 241.17,-25.89 243.42,-24.5"/>
<polygon fill="midnightblue" stroke="midnightblue" points="245.27,-27.48 252.4,-19.64 241.94,-21.32 245.27,-27.48"/>
</g>
<!-- Node15 -->
<g id="node15" class="node">
<title>Node15</title>
<g id="a_node15"><a xlink:href="loss_8c.html#aaeed4518371c4e75de20532e3a6aa601" target="_top" xlink:title="Mean squared error loss function.">
<polygon fill="none" stroke="black" points="373,-209.5 373,-228.5 432,-228.5 432,-209.5 373,-209.5"/>
<text text-anchor="middle" x="402.5" y="-216.5" font-family="Helvetica,sans-Serif" font-size="10.00">loss_mse</text>
</a>
</g>
</g>
<!-- Node10&#45;&gt;Node15 -->
<g id="edge15" class="edge">
<title>Node10&#45;&gt;Node15</title>
<path fill="none" stroke="midnightblue" d="M166.04,-152.52C175.93,-159.94 189.71,-170.67 201,-181 218.16,-196.7 215.63,-209.81 237,-219 277.18,-236.28 328.16,-232.89 362.64,-227.37"/>
<polygon fill="midnightblue" stroke="midnightblue" points="363.53,-230.77 372.78,-225.61 362.33,-223.87 363.53,-230.77"/>
</g>
<!-- Node16 -->
<g id="node16" class="node">
<title>Node16</title>
<g id="a_node16"><a xlink:href="loss_8c.html#a38e786a5c46be2519aae23287c92cc23" target="_top" xlink:title="One&#45;hot classification error.">
<polygon fill="none" stroke="black" points="246.5,-152.5 246.5,-171.5 315.5,-171.5 315.5,-152.5 246.5,-152.5"/>
<text text-anchor="middle" x="281" y="-159.5" font-family="Helvetica,sans-Serif" font-size="10.00">loss_onehot</text>
</a>
</g>
</g>
<!-- Node10&#45;&gt;Node16 -->
<g id="edge16" class="edge">
<title>Node10&#45;&gt;Node16</title>
<path fill="none" stroke="midnightblue" d="M190.76,-148.65C205.14,-150.8 221.63,-153.27 236.5,-155.49"/>
<polygon fill="midnightblue" stroke="midnightblue" points="236.08,-158.97 246.49,-156.99 237.11,-152.04 236.08,-158.97"/>
</g>
<!-- Node18 -->
<g id="node18" class="node">
<title>Node18</title>
<g id="a_node18"><a xlink:href="loss_8c.html#a3278a1ba45bd0ccbf39e25bde1562f8f" target="_top" xlink:title="Root mean squared error loss function.">
<polygon fill="none" stroke="black" points="250,-190.5 250,-209.5 312,-209.5 312,-190.5 250,-190.5"/>
<text text-anchor="middle" x="281" y="-197.5" font-family="Helvetica,sans-Serif" font-size="10.00">loss_rmse</text>
</a>
</g>
</g>
<!-- Node10&#45;&gt;Node18 -->
<g id="edge18" class="edge">
<title>Node10&#45;&gt;Node18</title>
<path fill="none" stroke="midnightblue" d="M174.03,-152.58C191.01,-160.29 215.52,-171.4 237,-181 240.86,-182.72 244.91,-184.53 248.92,-186.31"/>
<polygon fill="midnightblue" stroke="midnightblue" points="247.55,-189.53 258.11,-190.37 250.38,-183.12 247.55,-189.53"/>
</g>
<!-- Node17 -->
<g id="node17" class="node">
<title>Node17</title>
<g id="a_node17"><a xlink:href="utils_8h.html#adc87687be632aa642e838b81a7404db1" target="_top" xlink:title="Returns the index of the largest element in vector X.">
<polygon fill="none" stroke="black" points="370.5,-152.5 370.5,-171.5 434.5,-171.5 434.5,-152.5 370.5,-152.5"/>
<text text-anchor="middle" x="402.5" y="-159.5" font-family="Helvetica,sans-Serif" font-size="10.00">max_index</text>
</a>
</g>
</g>
<!-- Node16&#45;&gt;Node17 -->
<g id="edge17" class="edge">
<title>Node16&#45;&gt;Node17</title>
<path fill="none" stroke="midnightblue" d="M315.61,-162C329.38,-162 345.47,-162 359.97,-162"/>
<polygon fill="midnightblue" stroke="midnightblue" points="360.2,-165.5 370.2,-162 360.2,-158.5 360.2,-165.5"/>
</g>
<!-- Node18&#45;&gt;Node15 -->
<g id="edge19" class="edge">
<title>Node18&#45;&gt;Node15</title>
<path fill="none" stroke="midnightblue" d="M312.15,-204.79C327.36,-207.21 345.97,-210.17 362.27,-212.76"/>
<polygon fill="midnightblue" stroke="midnightblue" points="362.17,-216.29 372.59,-214.4 363.27,-209.38 362.17,-216.29"/>
</g>
<!-- Node19&#45;&gt;Node3 -->
<g id="edge21" class="edge">
<title>Node19&#45;&gt;Node3</title>
<path fill="none" stroke="midnightblue" d="M197.78,-276C207.53,-276 217.93,-276 227.94,-276"/>
<polygon fill="midnightblue" stroke="midnightblue" points="228.18,-279.5 238.18,-276 228.18,-272.5 228.18,-279.5"/>
</g>
</g>
</svg>
