<?xml version="1.0" encoding="UTF-8" standalone="no"?>
<!DOCTYPE svg PUBLIC "-//W3C//DTD SVG 1.1//EN"
 "http://www.w3.org/Graphics/SVG/1.1/DTD/svg11.dtd">
<!-- Generated by graphviz version 2.43.0 (0)
 -->
<!-- Title: param_set_stateful Pages: 1 -->
<svg width="568pt" height="208pt"
 viewBox="0.00 0.00 568.00 208.00" xmlns="http://www.w3.org/2000/svg" xmlns:xlink="http://www.w3.org/1999/xlink">
<g id="graph0" class="graph" transform="scale(1 1) rotate(0) translate(4 204)">
<title>param_set_stateful</title>
<!-- Node1 -->
<g id="node1" class="node">
<title>Node1</title>
<g id="a_node1"><a xlink:title=" ">
<polygon fill="#bfbfbf" stroke="black" points="460,-44.5 460,-63.5 560,-63.5 560,-44.5 460,-44.5"/>
<text text-anchor="middle" x="510" y="-51.5" font-family="Helvetica,sans-Serif" font-size="10.00">param_set_stateful</text>
</a>
</g>
</g>
<!-- Node2 -->
<g id="node2" class="node">
<title>Node2</title>
<g id="a_node2"><a xlink:href="param_8c.html#ac8218a170803be0bcd974764e7494b0e" target="_top" xlink:title="Initialises default XCSF parameters.">
<polygon fill="none" stroke="black" points="337,-104.5 337,-123.5 399,-123.5 399,-104.5 337,-104.5"/>
<text text-anchor="middle" x="368" y="-111.5" font-family="Helvetica,sans-Serif" font-size="10.00">param_init</text>
</a>
</g>
</g>
<!-- Node1&#45;&gt;Node2 -->
<g id="edge1" class="edge">
<title>Node1&#45;&gt;Node2</title>
<path fill="none" stroke="midnightblue" d="M477.36,-67.56C451.23,-78.76 414.79,-94.38 391.54,-104.34"/>
<polygon fill="midnightblue" stroke="midnightblue" points="479,-70.66 486.82,-63.51 476.25,-64.23 479,-70.66"/>
</g>
<!-- Node9 -->
<g id="node9" class="node">
<title>Node9</title>
<g id="a_node9"><a xlink:href="param_8c.html#a97aa83082509d7fe3de540e1f6137318" target="_top" xlink:title="Sets the general classifier parameters from a cJSON object.">
<polygon fill="none" stroke="black" points="312,-39 312,-69 424,-69 424,-39 312,-39"/>
<text text-anchor="start" x="320" y="-57" font-family="Helvetica,sans-Serif" font-size="10.00">param_json_import_cl</text>
<text text-anchor="middle" x="368" y="-46" font-family="Helvetica,sans-Serif" font-size="10.00">_general</text>
</a>
</g>
</g>
<!-- Node1&#45;&gt;Node9 -->
<g id="edge10" class="edge">
<title>Node1&#45;&gt;Node9</title>
<path fill="none" stroke="midnightblue" d="M449.5,-54C441.08,-54 432.45,-54 424.11,-54"/>
<polygon fill="midnightblue" stroke="midnightblue" points="449.64,-57.5 459.64,-54 449.64,-50.5 449.64,-57.5"/>
</g>
<!-- Node12 -->
<g id="node12" class="node">
<title>Node12</title>
<g id="a_node12"><a xlink:href="classXCS.html#a4bcd1a4f0650c98a13dc35409566179f" target="_top" xlink:title=" ">
<polygon fill="none" stroke="black" points="320.5,-0.5 320.5,-19.5 415.5,-19.5 415.5,-0.5 320.5,-0.5"/>
<text text-anchor="middle" x="368" y="-7.5" font-family="Helvetica,sans-Serif" font-size="10.00">XCS::set_stateful</text>
</a>
</g>
</g>
<!-- Node1&#45;&gt;Node12 -->
<g id="edge14" class="edge">
<title>Node1&#45;&gt;Node12</title>
<path fill="none" stroke="midnightblue" d="M468.84,-41.38C446.7,-34.42 419.67,-25.92 399.32,-19.53"/>
<polygon fill="midnightblue" stroke="midnightblue" points="468.03,-44.79 478.62,-44.45 470.13,-38.12 468.03,-44.79"/>
</g>
<!-- Node3 -->
<g id="node3" class="node">
<title>Node3</title>
<g id="a_node3"><a xlink:href="env__csv_8c.html#ab26a39a388f0ac83b9ac14726ad14b16" target="_top" xlink:title="Initialises a CSV input environment from a specified filename.">
<polygon fill="none" stroke="black" points="191,-180.5 191,-199.5 262,-199.5 262,-180.5 191,-180.5"/>
<text text-anchor="middle" x="226.5" y="-187.5" font-family="Helvetica,sans-Serif" font-size="10.00">env_csv_init</text>
</a>
</g>
</g>
<!-- Node2&#45;&gt;Node3 -->
<g id="edge2" class="edge">
<title>Node2&#45;&gt;Node3</title>
<path fill="none" stroke="midnightblue" d="M344.99,-129.42C326.96,-141.64 300.53,-158.65 276,-171 269.22,-174.42 261.66,-177.64 254.57,-180.42"/>
<polygon fill="midnightblue" stroke="midnightblue" points="347.32,-132.06 353.59,-123.52 343.36,-126.29 347.32,-132.06"/>
</g>
<!-- Node6 -->
<g id="node6" class="node">
<title>Node6</title>
<g id="a_node6"><a xlink:href="env__maze_8c.html#acad3cc6e9fe2b7e07e878f1f517ad3a6" target="_top" xlink:title="Initialises a maze environment from a specified file.">
<polygon fill="none" stroke="black" points="186.5,-142.5 186.5,-161.5 266.5,-161.5 266.5,-142.5 186.5,-142.5"/>
<text text-anchor="middle" x="226.5" y="-149.5" font-family="Helvetica,sans-Serif" font-size="10.00">env_maze_init</text>
</a>
</g>
</g>
<!-- Node2&#45;&gt;Node6 -->
<g id="edge5" class="edge">
<title>Node2&#45;&gt;Node6</title>
<path fill="none" stroke="midnightblue" d="M326.8,-124.95C306.44,-130.5 281.95,-137.17 262.38,-142.5"/>
<polygon fill="midnightblue" stroke="midnightblue" points="328,-128.25 336.73,-122.25 326.16,-121.5 328,-128.25"/>
</g>
<!-- Node7 -->
<g id="node7" class="node">
<title>Node7</title>
<g id="a_node7"><a xlink:href="env__mux_8c.html#aff3b81b4913d273ecfd62d7585480b15" target="_top" xlink:title="Initialises a real multiplexer environment of specified length.">
<polygon fill="none" stroke="black" points="189.5,-104.5 189.5,-123.5 263.5,-123.5 263.5,-104.5 189.5,-104.5"/>
<text text-anchor="middle" x="226.5" y="-111.5" font-family="Helvetica,sans-Serif" font-size="10.00">env_mux_init</text>
</a>
</g>
</g>
<!-- Node2&#45;&gt;Node7 -->
<g id="edge7" class="edge">
<title>Node2&#45;&gt;Node7</title>
<path fill="none" stroke="midnightblue" d="M326.72,-114C306.81,-114 282.97,-114 263.65,-114"/>
<polygon fill="midnightblue" stroke="midnightblue" points="326.73,-117.5 336.73,-114 326.73,-110.5 326.73,-117.5"/>
</g>
<!-- Node8 -->
<g id="node8" class="node">
<title>Node8</title>
<g id="a_node8"><a xlink:href="classXCS.html#af1010afd63843f86ad1dd81fade9bd72" target="_top" xlink:title="Constructor.">
<polygon fill="none" stroke="black" points="194,-66.5 194,-85.5 259,-85.5 259,-66.5 194,-66.5"/>
<text text-anchor="middle" x="226.5" y="-73.5" font-family="Helvetica,sans-Serif" font-size="10.00">XCS::XCS</text>
</a>
</g>
</g>
<!-- Node2&#45;&gt;Node8 -->
<g id="edge9" class="edge">
<title>Node2&#45;&gt;Node8</title>
<path fill="none" stroke="midnightblue" d="M326.9,-103.08C305.38,-97.21 279.24,-90.09 259.16,-84.63"/>
<polygon fill="midnightblue" stroke="midnightblue" points="326.16,-106.5 336.73,-105.75 328,-99.75 326.16,-106.5"/>
</g>
<!-- Node4 -->
<g id="node4" class="node">
<title>Node4</title>
<g id="a_node4"><a xlink:href="env_8c.html#a9213fcf5fc422d6a77bce853b1d78dc9" target="_top" xlink:title="Initialises a built&#45;in problem environment.">
<polygon fill="none" stroke="black" points="82.5,-123.5 82.5,-142.5 132.5,-142.5 132.5,-123.5 82.5,-123.5"/>
<text text-anchor="middle" x="107.5" y="-130.5" font-family="Helvetica,sans-Serif" font-size="10.00">env_init</text>
</a>
</g>
</g>
<!-- Node3&#45;&gt;Node4 -->
<g id="edge3" class="edge">
<title>Node3&#45;&gt;Node4</title>
<path fill="none" stroke="midnightblue" d="M189.85,-176.66C185.49,-174.85 181.12,-172.94 177,-171 158.42,-162.25 137.93,-150.61 124.24,-142.52"/>
<polygon fill="midnightblue" stroke="midnightblue" points="188.72,-179.98 199.3,-180.47 191.34,-173.49 188.72,-179.98"/>
</g>
<!-- Node5 -->
<g id="node5" class="node">
<title>Node5</title>
<g id="a_node5"><a xlink:href="main_8c.html#a3c04138a5bfe5d72780bb7e82a18e627" target="_top" xlink:title=" ">
<polygon fill="none" stroke="black" points="0,-85.5 0,-104.5 38,-104.5 38,-85.5 0,-85.5"/>
<text text-anchor="middle" x="19" y="-92.5" font-family="Helvetica,sans-Serif" font-size="10.00">main</text>
</a>
</g>
</g>
<!-- Node4&#45;&gt;Node5 -->
<g id="edge4" class="edge">
<title>Node4&#45;&gt;Node5</title>
<path fill="none" stroke="midnightblue" d="M75.44,-119.36C62.89,-113.84 48.84,-107.67 38.03,-102.92"/>
<polygon fill="midnightblue" stroke="midnightblue" points="74.11,-122.59 84.67,-123.41 76.92,-116.18 74.11,-122.59"/>
</g>
<!-- Node6&#45;&gt;Node4 -->
<g id="edge6" class="edge">
<title>Node6&#45;&gt;Node4</title>
<path fill="none" stroke="midnightblue" d="M175.98,-143.96C160.93,-141.51 145.07,-138.94 132.51,-136.9"/>
<polygon fill="midnightblue" stroke="midnightblue" points="175.78,-147.47 186.22,-145.62 176.91,-140.56 175.78,-147.47"/>
</g>
<!-- Node7&#45;&gt;Node4 -->
<g id="edge8" class="edge">
<title>Node7&#45;&gt;Node4</title>
<path fill="none" stroke="midnightblue" d="M179.24,-121.51C163.36,-124.09 146.21,-126.88 132.78,-129.06"/>
<polygon fill="midnightblue" stroke="midnightblue" points="180.13,-124.91 189.44,-119.86 179.01,-118 180.13,-124.91"/>
</g>
<!-- Node10 -->
<g id="node10" class="node">
<title>Node10</title>
<g id="a_node10"><a xlink:href="param_8c.html#a130260988988535419aee8abe51986c1" target="_top" xlink:title="Sets the parameters from a json formatted string.">
<polygon fill="none" stroke="black" points="177,-28.5 177,-47.5 276,-47.5 276,-28.5 177,-28.5"/>
<text text-anchor="middle" x="226.5" y="-35.5" font-family="Helvetica,sans-Serif" font-size="10.00">param_json_import</text>
</a>
</g>
</g>
<!-- Node9&#45;&gt;Node10 -->
<g id="edge11" class="edge">
<title>Node9&#45;&gt;Node10</title>
<path fill="none" stroke="midnightblue" d="M301.86,-46.53C293.28,-45.54 284.6,-44.55 276.36,-43.6"/>
<polygon fill="midnightblue" stroke="midnightblue" points="301.53,-50.01 311.87,-47.68 302.33,-43.06 301.53,-50.01"/>
</g>
<!-- Node11 -->
<g id="node11" class="node">
<title>Node11</title>
<g id="a_node11"><a xlink:href="config_8c.html#a045a64a30d99a4bef2ebfd9b54aa9698" target="_top" xlink:title="Reads the specified configuration file.">
<polygon fill="none" stroke="black" points="74,-66.5 74,-85.5 141,-85.5 141,-66.5 74,-66.5"/>
<text text-anchor="middle" x="107.5" y="-73.5" font-family="Helvetica,sans-Serif" font-size="10.00">config_read</text>
</a>
</g>
</g>
<!-- Node10&#45;&gt;Node11 -->
<g id="edge12" class="edge">
<title>Node10&#45;&gt;Node11</title>
<path fill="none" stroke="midnightblue" d="M186.46,-50.68C170.65,-55.81 152.7,-61.64 138.01,-66.41"/>
<polygon fill="midnightblue" stroke="midnightblue" points="187.55,-54.01 195.98,-47.59 185.38,-47.35 187.55,-54.01"/>
</g>
<!-- Node11&#45;&gt;Node5 -->
<g id="edge13" class="edge">
<title>Node11&#45;&gt;Node5</title>
<path fill="none" stroke="midnightblue" d="M64.02,-85.33C54.92,-87.33 45.78,-89.34 38.2,-91"/>
<polygon fill="midnightblue" stroke="midnightblue" points="64.78,-88.75 73.8,-83.18 63.28,-81.91 64.78,-88.75"/>
</g>
</g>
</svg>
