<?xml version="1.0" encoding="UTF-8" standalone="no"?>
<!DOCTYPE svg PUBLIC "-//W3C//DTD SVG 1.1//EN"
 "http://www.w3.org/Graphics/SVG/1.1/DTD/svg11.dtd">
<!-- Generated by graphviz version 2.43.0 (0)
 -->
<!-- Title: param_print Pages: 1 -->
<svg width="854pt" height="603pt"
 viewBox="0.00 0.00 854.00 603.00" xmlns="http://www.w3.org/2000/svg" xmlns:xlink="http://www.w3.org/1999/xlink">
<g id="graph0" class="graph" transform="scale(1 1) rotate(0) translate(4 599)">
<title>param_print</title>
<!-- Node1 -->
<g id="node1" class="node">
<title>Node1</title>
<g id="a_node1"><a xlink:title="Prints all XCSF parameters.">
<polygon fill="#bfbfbf" stroke="black" points="0,-133.5 0,-152.5 68,-152.5 68,-133.5 0,-133.5"/>
<text text-anchor="middle" x="34" y="-140.5" font-family="Helvetica,sans-Serif" font-size="10.00">param_print</text>
</a>
</g>
</g>
<!-- Node2 -->
<g id="node2" class="node">
<title>Node2</title>
<g id="a_node2"><a xlink:href="action_8c.html#a1e6bb9a3116b23d3bb6b676607501923" target="_top" xlink:title="Prints action parameters.">
<polygon fill="none" stroke="black" points="118.5,-493.5 118.5,-512.5 217.5,-512.5 217.5,-493.5 118.5,-493.5"/>
<text text-anchor="middle" x="168" y="-500.5" font-family="Helvetica,sans-Serif" font-size="10.00">action_param_print</text>
</a>
</g>
</g>
<!-- Node1&#45;&gt;Node2 -->
<g id="edge1" class="edge">
<title>Node1&#45;&gt;Node2</title>
<path fill="none" stroke="midnightblue" d="M36.52,-152.75C42.19,-187.67 63.84,-309.35 104,-402 117.41,-432.94 139.32,-465.47 153.44,-484.99"/>
<polygon fill="midnightblue" stroke="midnightblue" points="150.76,-487.25 159.51,-493.23 156.4,-483.1 150.76,-487.25"/>
</g>
<!-- Node13 -->
<g id="node13" class="node">
<title>Node13</title>
<g id="a_node13"><a xlink:href="condition_8c.html#adc81d1c6371eb0ef613ba3df5f2b1fb4" target="_top" xlink:title="Prints condition parameters.">
<polygon fill="none" stroke="black" points="121,-373.5 121,-392.5 215,-392.5 215,-373.5 121,-373.5"/>
<text text-anchor="middle" x="168" y="-380.5" font-family="Helvetica,sans-Serif" font-size="10.00">cond_param_print</text>
</a>
</g>
</g>
<!-- Node1&#45;&gt;Node13 -->
<g id="edge12" class="edge">
<title>Node1&#45;&gt;Node13</title>
<path fill="none" stroke="midnightblue" d="M40.34,-152.71C60.24,-188.89 130.34,-316.34 156.79,-364.44"/>
<polygon fill="midnightblue" stroke="midnightblue" points="153.85,-366.36 161.74,-373.44 159.99,-362.99 153.85,-366.36"/>
</g>
<!-- Node22 -->
<g id="node22" class="node">
<title>Node22</title>
<g id="a_node22"><a xlink:href="ea_8c.html#aea6039b7f2371ccd97dfc0e43d97609b" target="_top" xlink:title="Prints evolutionary algorithm parameters.">
<polygon fill="none" stroke="black" points="126.5,-152.5 126.5,-171.5 209.5,-171.5 209.5,-152.5 126.5,-152.5"/>
<text text-anchor="middle" x="168" y="-159.5" font-family="Helvetica,sans-Serif" font-size="10.00">ea_param_print</text>
</a>
</g>
</g>
<!-- Node1&#45;&gt;Node22 -->
<g id="edge22" class="edge">
<title>Node1&#45;&gt;Node22</title>
<path fill="none" stroke="midnightblue" d="M68.31,-147.79C82.72,-149.87 99.91,-152.34 115.88,-154.64"/>
<polygon fill="midnightblue" stroke="midnightblue" points="115.75,-158.16 126.15,-156.12 116.75,-151.23 115.75,-158.16"/>
</g>
<!-- Node24 -->
<g id="node24" class="node">
<title>Node24</title>
<g id="a_node24"><a xlink:href="param_8c.html#aef06f6d66df8f476741cc59dcf9d6df4" target="_top" xlink:title="Prints XCSF general classifier parameters.">
<polygon fill="none" stroke="black" points="109.5,-114.5 109.5,-133.5 226.5,-133.5 226.5,-114.5 109.5,-114.5"/>
<text text-anchor="middle" x="168" y="-121.5" font-family="Helvetica,sans-Serif" font-size="10.00">param_print_cl_general</text>
</a>
</g>
</g>
<!-- Node1&#45;&gt;Node24 -->
<g id="edge24" class="edge">
<title>Node1&#45;&gt;Node24</title>
<path fill="none" stroke="midnightblue" d="M68.31,-138.21C77.84,-136.83 88.59,-135.29 99.39,-133.73"/>
<polygon fill="midnightblue" stroke="midnightblue" points="99.9,-137.19 109.3,-132.31 98.9,-130.27 99.9,-137.19"/>
</g>
<!-- Node25 -->
<g id="node25" class="node">
<title>Node25</title>
<g id="a_node25"><a xlink:href="param_8c.html#ab96d6372dcf880becf434214f899cd8c" target="_top" xlink:title="Prints XCSF general parameters.">
<polygon fill="none" stroke="black" points="116,-76.5 116,-95.5 220,-95.5 220,-76.5 116,-76.5"/>
<text text-anchor="middle" x="168" y="-83.5" font-family="Helvetica,sans-Serif" font-size="10.00">param_print_general</text>
</a>
</g>
</g>
<!-- Node1&#45;&gt;Node25 -->
<g id="edge25" class="edge">
<title>Node1&#45;&gt;Node25</title>
<path fill="none" stroke="midnightblue" d="M50.15,-133.44C63.83,-125.1 84.71,-113.11 104,-105 109.4,-102.73 115.16,-100.61 120.92,-98.66"/>
<polygon fill="midnightblue" stroke="midnightblue" points="122.11,-101.96 130.56,-95.57 119.97,-95.29 122.11,-101.96"/>
</g>
<!-- Node27 -->
<g id="node27" class="node">
<title>Node27</title>
<g id="a_node27"><a xlink:href="param_8c.html#a7343044b05554a193686262c8921dc0c" target="_top" xlink:title="Prints XCSF multistep parameters.">
<polygon fill="none" stroke="black" points="111.5,-38.5 111.5,-57.5 224.5,-57.5 224.5,-38.5 111.5,-38.5"/>
<text text-anchor="middle" x="168" y="-45.5" font-family="Helvetica,sans-Serif" font-size="10.00">param_print_multistep</text>
</a>
</g>
</g>
<!-- Node1&#45;&gt;Node27 -->
<g id="edge27" class="edge">
<title>Node1&#45;&gt;Node27</title>
<path fill="none" stroke="midnightblue" d="M41.19,-133.29C51.99,-117.14 75.82,-84.79 104,-67 107.33,-64.9 110.9,-63.02 114.59,-61.34"/>
<polygon fill="midnightblue" stroke="midnightblue" points="115.98,-64.55 123.94,-57.56 113.36,-58.06 115.98,-64.55"/>
</g>
<!-- Node28 -->
<g id="node28" class="node">
<title>Node28</title>
<g id="a_node28"><a xlink:href="param_8c.html#a7c848a8875211a0a5dd7bcd3a1c39724" target="_top" xlink:title="Prints XCSF subsumption parameters.">
<polygon fill="none" stroke="black" points="104,-0.5 104,-19.5 232,-19.5 232,-0.5 104,-0.5"/>
<text text-anchor="middle" x="168" y="-7.5" font-family="Helvetica,sans-Serif" font-size="10.00">param_print_subsumption</text>
</a>
</g>
</g>
<!-- Node1&#45;&gt;Node28 -->
<g id="edge28" class="edge">
<title>Node1&#45;&gt;Node28</title>
<path fill="none" stroke="midnightblue" d="M38.1,-133.42C45.68,-111.52 67.26,-57.5 104,-29 106.33,-27.19 108.82,-25.56 111.43,-24.08"/>
<polygon fill="midnightblue" stroke="midnightblue" points="113.18,-27.13 120.66,-19.62 110.13,-20.82 113.18,-27.13"/>
</g>
<!-- Node29 -->
<g id="node29" class="node">
<title>Node29</title>
<g id="a_node29"><a xlink:href="prediction_8c.html#a8358abee65ddd688514040ef8851d9f2" target="_top" xlink:title="Prints prediction parameters.">
<polygon fill="none" stroke="black" points="122,-190.5 122,-209.5 214,-209.5 214,-190.5 122,-190.5"/>
<text text-anchor="middle" x="168" y="-197.5" font-family="Helvetica,sans-Serif" font-size="10.00">pred_param_print</text>
</a>
</g>
</g>
<!-- Node1&#45;&gt;Node29 -->
<g id="edge29" class="edge">
<title>Node1&#45;&gt;Node29</title>
<path fill="none" stroke="midnightblue" d="M50.15,-152.56C63.83,-160.9 84.71,-172.89 104,-181 109.4,-183.27 115.16,-185.39 120.92,-187.34"/>
<polygon fill="midnightblue" stroke="midnightblue" points="119.97,-190.71 130.56,-190.43 122.11,-184.04 119.97,-190.71"/>
</g>
<!-- Node3 -->
<g id="node3" class="node">
<title>Node3</title>
<g id="a_node3"><a xlink:href="action_8c.html#a73b50a4bf8171c64d4c5bee3894398a0" target="_top" xlink:title="Prints neural network action parameters.">
<polygon fill="none" stroke="black" points="283,-488 283,-518 382,-518 382,-488 283,-488"/>
<text text-anchor="start" x="291" y="-506" font-family="Helvetica,sans-Serif" font-size="10.00">action_param_print</text>
<text text-anchor="middle" x="332.5" y="-495" font-family="Helvetica,sans-Serif" font-size="10.00">_neural</text>
</a>
</g>
</g>
<!-- Node2&#45;&gt;Node3 -->
<g id="edge2" class="edge">
<title>Node2&#45;&gt;Node3</title>
<path fill="none" stroke="midnightblue" d="M217.76,-503C235.03,-503 254.65,-503 272.67,-503"/>
<polygon fill="midnightblue" stroke="midnightblue" points="272.78,-506.5 282.78,-503 272.78,-499.5 272.78,-506.5"/>
</g>
<!-- Node12 -->
<g id="node12" class="node">
<title>Node12</title>
<g id="a_node12"><a xlink:href="action_8c.html#a92f612de02989e82ef6c52bc7384f24f" target="_top" xlink:title="Returns a string representation of an action type from an integer.">
<polygon fill="none" stroke="black" points="276.5,-575.5 276.5,-594.5 388.5,-594.5 388.5,-575.5 276.5,-575.5"/>
<text text-anchor="middle" x="332.5" y="-582.5" font-family="Helvetica,sans-Serif" font-size="10.00">action_type_as_string</text>
</a>
</g>
</g>
<!-- Node2&#45;&gt;Node12 -->
<g id="edge11" class="edge">
<title>Node2&#45;&gt;Node12</title>
<path fill="none" stroke="midnightblue" d="M181.48,-512.56C199.65,-526.08 234.83,-550.84 268,-566 272.97,-568.27 278.28,-570.36 283.64,-572.24"/>
<polygon fill="midnightblue" stroke="midnightblue" points="282.67,-575.61 293.26,-575.42 284.87,-568.96 282.67,-575.61"/>
</g>
<!-- Node4 -->
<g id="node4" class="node">
<title>Node4</title>
<g id="a_node4"><a xlink:href="neural__layer__args_8c.html#af08dab51e0e2d6380af376bb33708f17" target="_top" xlink:title="Prints layer parameters.">
<polygon fill="none" stroke="black" points="434.5,-335.5 434.5,-354.5 520.5,-354.5 520.5,-335.5 434.5,-335.5"/>
<text text-anchor="middle" x="477.5" y="-342.5" font-family="Helvetica,sans-Serif" font-size="10.00">layer_args_print</text>
</a>
</g>
</g>
<!-- Node3&#45;&gt;Node4 -->
<g id="edge3" class="edge">
<title>Node3&#45;&gt;Node4</title>
<path fill="none" stroke="midnightblue" d="M381.9,-487.93C387.31,-485.12 392.48,-481.83 397,-478 434.11,-446.52 458.47,-393.12 469.57,-364.5"/>
<polygon fill="midnightblue" stroke="midnightblue" points="472.96,-365.43 473.17,-354.84 466.4,-362.98 472.96,-365.43"/>
</g>
<!-- Node5 -->
<g id="node5" class="node">
<title>Node5</title>
<g id="a_node5"><a xlink:href="neural__layer__args_8c.html#a56dcbd4bdf90e80ef81c676df60ff8b3" target="_top" xlink:title="Prints layer activation function parameters.">
<polygon fill="none" stroke="black" points="558,-411.5 558,-430.5 691,-430.5 691,-411.5 558,-411.5"/>
<text text-anchor="middle" x="624.5" y="-418.5" font-family="Helvetica,sans-Serif" font-size="10.00">layer_args_print_activation</text>
</a>
</g>
</g>
<!-- Node4&#45;&gt;Node5 -->
<g id="edge4" class="edge">
<title>Node4&#45;&gt;Node5</title>
<path fill="none" stroke="midnightblue" d="M489.31,-354.61C503.93,-367.15 531.27,-389.01 558,-402 562.67,-404.27 567.67,-406.32 572.74,-408.16"/>
<polygon fill="midnightblue" stroke="midnightblue" points="571.92,-411.58 582.51,-411.44 574.14,-404.94 571.92,-411.58"/>
</g>
<!-- Node7 -->
<g id="node7" class="node">
<title>Node7</title>
<g id="a_node7"><a xlink:href="neural__layer__args_8c.html#ac617200b2ee8792381b8297d45fee174" target="_top" xlink:title="Prints layer evolutionary operator parameters.">
<polygon fill="none" stroke="black" points="571,-373.5 571,-392.5 678,-392.5 678,-373.5 571,-373.5"/>
<text text-anchor="middle" x="624.5" y="-380.5" font-family="Helvetica,sans-Serif" font-size="10.00">layer_args_print_evo</text>
</a>
</g>
</g>
<!-- Node4&#45;&gt;Node7 -->
<g id="edge6" class="edge">
<title>Node4&#45;&gt;Node7</title>
<path fill="none" stroke="midnightblue" d="M515.09,-354.59C533.97,-359.54 557.19,-365.62 577.29,-370.89"/>
<polygon fill="midnightblue" stroke="midnightblue" points="576.61,-374.33 587.17,-373.48 578.39,-367.56 576.61,-374.33"/>
</g>
<!-- Node8 -->
<g id="node8" class="node">
<title>Node8</title>
<g id="a_node8"><a xlink:href="neural__layer__args_8c.html#acead84ca91e1c410f24bc8b60517415b" target="_top" xlink:title="Prints layer input parameters.">
<polygon fill="none" stroke="black" points="566,-335.5 566,-354.5 683,-354.5 683,-335.5 566,-335.5"/>
<text text-anchor="middle" x="624.5" y="-342.5" font-family="Helvetica,sans-Serif" font-size="10.00">layer_args_print_inputs</text>
</a>
</g>
</g>
<!-- Node4&#45;&gt;Node8 -->
<g id="edge7" class="edge">
<title>Node4&#45;&gt;Node8</title>
<path fill="none" stroke="midnightblue" d="M520.83,-345C531.69,-345 543.65,-345 555.46,-345"/>
<polygon fill="midnightblue" stroke="midnightblue" points="555.76,-348.5 565.76,-345 555.76,-341.5 555.76,-348.5"/>
</g>
<!-- Node10 -->
<g id="node10" class="node">
<title>Node10</title>
<g id="a_node10"><a xlink:href="neural__layer__args_8c.html#add3ff102fe13b879aa177e001e65a86c" target="_top" xlink:title="Prints layer gradient descent parameters.">
<polygon fill="none" stroke="black" points="571,-297.5 571,-316.5 678,-316.5 678,-297.5 571,-297.5"/>
<text text-anchor="middle" x="624.5" y="-304.5" font-family="Helvetica,sans-Serif" font-size="10.00">layer_args_print_sgd</text>
</a>
</g>
</g>
<!-- Node4&#45;&gt;Node10 -->
<g id="edge9" class="edge">
<title>Node4&#45;&gt;Node10</title>
<path fill="none" stroke="midnightblue" d="M515.09,-335.41C533.97,-330.46 557.19,-324.38 577.29,-319.11"/>
<polygon fill="midnightblue" stroke="midnightblue" points="578.39,-322.44 587.17,-316.52 576.61,-315.67 578.39,-322.44"/>
</g>
<!-- Node11 -->
<g id="node11" class="node">
<title>Node11</title>
<g id="a_node11"><a xlink:href="neural__layer_8c.html#a0e2222a263f09abb981bc7273cd88d7e" target="_top" xlink:title="Returns a string representation of a layer type from an integer.">
<polygon fill="none" stroke="black" points="571,-259.5 571,-278.5 678,-278.5 678,-259.5 571,-259.5"/>
<text text-anchor="middle" x="624.5" y="-266.5" font-family="Helvetica,sans-Serif" font-size="10.00">layer_type_as_string</text>
</a>
</g>
</g>
<!-- Node4&#45;&gt;Node11 -->
<g id="edge10" class="edge">
<title>Node4&#45;&gt;Node11</title>
<path fill="none" stroke="midnightblue" d="M489.31,-335.39C503.93,-322.85 531.27,-300.99 558,-288 562.67,-285.73 567.67,-283.68 572.74,-281.84"/>
<polygon fill="midnightblue" stroke="midnightblue" points="574.14,-285.06 582.51,-278.56 571.92,-278.42 574.14,-285.06"/>
</g>
<!-- Node6 -->
<g id="node6" class="node">
<title>Node6</title>
<g id="a_node6"><a xlink:href="neural__activations_8c.html#a429f5b4427682cb174e3d4d56f181a22" target="_top" xlink:title="Returns the name of a specified activation function.">
<polygon fill="none" stroke="black" points="727,-411.5 727,-430.5 846,-430.5 846,-411.5 727,-411.5"/>
<text text-anchor="middle" x="786.5" y="-418.5" font-family="Helvetica,sans-Serif" font-size="10.00">neural_activation_string</text>
</a>
</g>
</g>
<!-- Node5&#45;&gt;Node6 -->
<g id="edge5" class="edge">
<title>Node5&#45;&gt;Node6</title>
<path fill="none" stroke="midnightblue" d="M691.04,-421C699.51,-421 708.2,-421 716.71,-421"/>
<polygon fill="midnightblue" stroke="midnightblue" points="716.99,-424.5 726.99,-421 716.99,-417.5 716.99,-424.5"/>
</g>
<!-- Node9 -->
<g id="node9" class="node">
<title>Node9</title>
<g id="a_node9"><a xlink:href="neural__layer_8c.html#ad1b7188119d0d96791ee0d87c105896a" target="_top" xlink:title="Returns a whether a layer type expects images as input.">
<polygon fill="none" stroke="black" points="728.5,-335.5 728.5,-354.5 844.5,-354.5 844.5,-335.5 728.5,-335.5"/>
<text text-anchor="middle" x="786.5" y="-342.5" font-family="Helvetica,sans-Serif" font-size="10.00">layer_receives_images</text>
</a>
</g>
</g>
<!-- Node8&#45;&gt;Node9 -->
<g id="edge8" class="edge">
<title>Node8&#45;&gt;Node9</title>
<path fill="none" stroke="midnightblue" d="M683.26,-345C694.62,-345 706.62,-345 718.25,-345"/>
<polygon fill="midnightblue" stroke="midnightblue" points="718.36,-348.5 728.36,-345 718.36,-341.5 718.36,-348.5"/>
</g>
<!-- Node14 -->
<g id="node14" class="node">
<title>Node14</title>
<g id="a_node14"><a xlink:href="condition_8c.html#aea377b513c7f68361082e1fcedd2a07f" target="_top" xlink:title="Prints center&#45;spread representation condition parameters.">
<polygon fill="none" stroke="black" points="276,-373.5 276,-392.5 389,-392.5 389,-373.5 276,-373.5"/>
<text text-anchor="middle" x="332.5" y="-380.5" font-family="Helvetica,sans-Serif" font-size="10.00">cond_param_print_csr</text>
</a>
</g>
</g>
<!-- Node13&#45;&gt;Node14 -->
<g id="edge13" class="edge">
<title>Node13&#45;&gt;Node14</title>
<path fill="none" stroke="midnightblue" d="M215.13,-383C230.75,-383 248.51,-383 265.37,-383"/>
<polygon fill="midnightblue" stroke="midnightblue" points="265.73,-386.5 275.73,-383 265.73,-379.5 265.73,-386.5"/>
</g>
<!-- Node15 -->
<g id="node15" class="node">
<title>Node15</title>
<g id="a_node15"><a xlink:href="condition_8c.html#a6e026ed762c0d77fa9ba14999f37200c" target="_top" xlink:title="Prints DGP graph condition parameters.">
<polygon fill="none" stroke="black" points="275,-537.5 275,-556.5 390,-556.5 390,-537.5 275,-537.5"/>
<text text-anchor="middle" x="332.5" y="-544.5" font-family="Helvetica,sans-Serif" font-size="10.00">cond_param_print_dgp</text>
</a>
</g>
</g>
<!-- Node13&#45;&gt;Node15 -->
<g id="edge14" class="edge">
<title>Node13&#45;&gt;Node15</title>
<path fill="none" stroke="midnightblue" d="M175.06,-392.65C194.5,-423.52 254.83,-518.38 268,-528 270.65,-529.94 273.49,-531.68 276.46,-533.24"/>
<polygon fill="midnightblue" stroke="midnightblue" points="275.09,-536.46 285.64,-537.42 277.99,-530.09 275.09,-536.46"/>
</g>
<!-- Node17 -->
<g id="node17" class="node">
<title>Node17</title>
<g id="a_node17"><a xlink:href="condition_8c.html#af803f36b261ce6a5bac8ccbf35d95d0b" target="_top" xlink:title="Prints Tree GP condition parameters.">
<polygon fill="none" stroke="black" points="277.5,-449.5 277.5,-468.5 387.5,-468.5 387.5,-449.5 277.5,-449.5"/>
<text text-anchor="middle" x="332.5" y="-456.5" font-family="Helvetica,sans-Serif" font-size="10.00">cond_param_print_gp</text>
</a>
</g>
</g>
<!-- Node13&#45;&gt;Node17 -->
<g id="edge16" class="edge">
<title>Node13&#45;&gt;Node17</title>
<path fill="none" stroke="midnightblue" d="M183.21,-392.6C201.96,-404.92 236.3,-426.35 268,-440 273.35,-442.3 279.06,-444.44 284.79,-446.38"/>
<polygon fill="midnightblue" stroke="midnightblue" points="283.79,-449.74 294.38,-449.47 285.94,-443.07 283.79,-449.74"/>
</g>
<!-- Node19 -->
<g id="node19" class="node">
<title>Node19</title>
<g id="a_node19"><a xlink:href="condition_8c.html#a0767d3c6211bee598aec6b69ac497343" target="_top" xlink:title="Prints neural network condition parameters.">
<polygon fill="none" stroke="black" points="270,-335.5 270,-354.5 395,-354.5 395,-335.5 270,-335.5"/>
<text text-anchor="middle" x="332.5" y="-342.5" font-family="Helvetica,sans-Serif" font-size="10.00">cond_param_print_neural</text>
</a>
</g>
</g>
<!-- Node13&#45;&gt;Node19 -->
<g id="edge18" class="edge">
<title>Node13&#45;&gt;Node19</title>
<path fill="none" stroke="midnightblue" d="M210.01,-373.41C231.55,-368.37 258.13,-362.16 280.94,-356.82"/>
<polygon fill="midnightblue" stroke="midnightblue" points="281.85,-360.21 290.79,-354.52 280.25,-353.39 281.85,-360.21"/>
</g>
<!-- Node20 -->
<g id="node20" class="node">
<title>Node20</title>
<g id="a_node20"><a xlink:href="condition_8c.html#a4014fbd185aa14dace6d42b3c6986285" target="_top" xlink:title="Prints ternary condition parameters.">
<polygon fill="none" stroke="black" points="268,-297.5 268,-316.5 397,-316.5 397,-297.5 268,-297.5"/>
<text text-anchor="middle" x="332.5" y="-304.5" font-family="Helvetica,sans-Serif" font-size="10.00">cond_param_print_ternary</text>
</a>
</g>
</g>
<!-- Node13&#45;&gt;Node20 -->
<g id="edge20" class="edge">
<title>Node13&#45;&gt;Node20</title>
<path fill="none" stroke="midnightblue" d="M183.21,-373.4C201.96,-361.08 236.3,-339.65 268,-326 273.35,-323.7 279.06,-321.56 284.79,-319.62"/>
<polygon fill="midnightblue" stroke="midnightblue" points="285.94,-322.93 294.38,-316.53 283.79,-316.26 285.94,-322.93"/>
</g>
<!-- Node21 -->
<g id="node21" class="node">
<title>Node21</title>
<g id="a_node21"><a xlink:href="condition_8c.html#af5a052e347755190271b32d8b09ec026" target="_top" xlink:title="Returns a string representation of a condition type from an integer.">
<polygon fill="none" stroke="black" points="270,-411.5 270,-430.5 395,-430.5 395,-411.5 270,-411.5"/>
<text text-anchor="middle" x="332.5" y="-418.5" font-family="Helvetica,sans-Serif" font-size="10.00">condition_type_as_string</text>
</a>
</g>
</g>
<!-- Node13&#45;&gt;Node21 -->
<g id="edge21" class="edge">
<title>Node13&#45;&gt;Node21</title>
<path fill="none" stroke="midnightblue" d="M210.01,-392.59C231.55,-397.63 258.13,-403.84 280.94,-409.18"/>
<polygon fill="midnightblue" stroke="midnightblue" points="280.25,-412.61 290.79,-411.48 281.85,-405.79 280.25,-412.61"/>
</g>
<!-- Node16 -->
<g id="node16" class="node">
<title>Node16</title>
<g id="a_node16"><a xlink:href="dgp_8c.html#a82bf94151f10f27b38b15beb14d86888" target="_top" xlink:title="Prints DGP parameters.">
<polygon fill="none" stroke="black" points="433,-537.5 433,-556.5 522,-556.5 522,-537.5 433,-537.5"/>
<text text-anchor="middle" x="477.5" y="-544.5" font-family="Helvetica,sans-Serif" font-size="10.00">graph_args_print</text>
</a>
</g>
</g>
<!-- Node15&#45;&gt;Node16 -->
<g id="edge15" class="edge">
<title>Node15&#45;&gt;Node16</title>
<path fill="none" stroke="midnightblue" d="M390.02,-547C400.78,-547 412.03,-547 422.71,-547"/>
<polygon fill="midnightblue" stroke="midnightblue" points="422.74,-550.5 432.74,-547 422.74,-543.5 422.74,-550.5"/>
</g>
<!-- Node18 -->
<g id="node18" class="node">
<title>Node18</title>
<g id="a_node18"><a xlink:href="gp_8c.html#a3a8ed73923e43a072adc4d92e17b594b" target="_top" xlink:title="Prints Tree GP parameters.">
<polygon fill="none" stroke="black" points="437,-449.5 437,-468.5 518,-468.5 518,-449.5 437,-449.5"/>
<text text-anchor="middle" x="477.5" y="-456.5" font-family="Helvetica,sans-Serif" font-size="10.00">tree_args_print</text>
</a>
</g>
</g>
<!-- Node17&#45;&gt;Node18 -->
<g id="edge17" class="edge">
<title>Node17&#45;&gt;Node18</title>
<path fill="none" stroke="midnightblue" d="M387.56,-459C400.29,-459 413.81,-459 426.35,-459"/>
<polygon fill="midnightblue" stroke="midnightblue" points="426.63,-462.5 436.63,-459 426.63,-455.5 426.63,-462.5"/>
</g>
<!-- Node19&#45;&gt;Node4 -->
<g id="edge19" class="edge">
<title>Node19&#45;&gt;Node4</title>
<path fill="none" stroke="midnightblue" d="M395.39,-345C404.93,-345 414.71,-345 424.02,-345"/>
<polygon fill="midnightblue" stroke="midnightblue" points="424.3,-348.5 434.3,-345 424.3,-341.5 424.3,-348.5"/>
</g>
<!-- Node23 -->
<g id="node23" class="node">
<title>Node23</title>
<g id="a_node23"><a xlink:href="ea_8c.html#a53acdbcd7a77faf6d38068559ae03b8b" target="_top" xlink:title="Returns a string representation of an EA select type from an integer.">
<polygon fill="none" stroke="black" points="284.5,-95.5 284.5,-114.5 380.5,-114.5 380.5,-95.5 284.5,-95.5"/>
<text text-anchor="middle" x="332.5" y="-102.5" font-family="Helvetica,sans-Serif" font-size="10.00">ea_type_as_string</text>
</a>
</g>
</g>
<!-- Node22&#45;&gt;Node23 -->
<g id="edge23" class="edge">
<title>Node22&#45;&gt;Node23</title>
<path fill="none" stroke="midnightblue" d="M205.07,-152.43C213.99,-149.7 223.44,-146.51 232,-143 248.74,-136.13 251.25,-130.85 268,-124 273.53,-121.74 279.42,-119.62 285.31,-117.66"/>
<polygon fill="midnightblue" stroke="midnightblue" points="286.67,-120.91 295.14,-114.55 284.55,-114.23 286.67,-120.91"/>
</g>
<!-- Node26 -->
<g id="node26" class="node">
<title>Node26</title>
<g id="a_node26"><a xlink:href="loss_8c.html#ae2f30fcd2fb24ac4698c87b4d6b08cfe" target="_top" xlink:title="Returns a string representation of a loss type from the integer.">
<polygon fill="none" stroke="black" points="280.5,-57.5 280.5,-76.5 384.5,-76.5 384.5,-57.5 280.5,-57.5"/>
<text text-anchor="middle" x="332.5" y="-64.5" font-family="Helvetica,sans-Serif" font-size="10.00">loss_type_as_string</text>
</a>
</g>
</g>
<!-- Node25&#45;&gt;Node26 -->
<g id="edge26" class="edge">
<title>Node25&#45;&gt;Node26</title>
<path fill="none" stroke="midnightblue" d="M220.42,-79.99C236.28,-78.13 253.9,-76.07 270.35,-74.15"/>
<polygon fill="midnightblue" stroke="midnightblue" points="270.89,-77.61 280.42,-72.97 270.08,-70.66 270.89,-77.61"/>
</g>
<!-- Node30 -->
<g id="node30" class="node">
<title>Node30</title>
<g id="a_node30"><a xlink:href="prediction_8c.html#ad6658ac4505ce10b153ead939ebcd4f5" target="_top" xlink:title="Prints neural network prediction parameters.">
<polygon fill="none" stroke="black" points="271,-133.5 271,-152.5 394,-152.5 394,-133.5 271,-133.5"/>
<text text-anchor="middle" x="332.5" y="-140.5" font-family="Helvetica,sans-Serif" font-size="10.00">pred_param_print_neural</text>
</a>
</g>
</g>
<!-- Node29&#45;&gt;Node30 -->
<g id="edge30" class="edge">
<title>Node29&#45;&gt;Node30</title>
<path fill="none" stroke="midnightblue" d="M205.07,-190.43C213.99,-187.7 223.44,-184.51 232,-181 248.74,-174.13 251.25,-168.85 268,-162 273.53,-159.74 279.42,-157.62 285.31,-155.66"/>
<polygon fill="midnightblue" stroke="midnightblue" points="286.67,-158.91 295.14,-152.55 284.55,-152.23 286.67,-158.91"/>
</g>
<!-- Node31 -->
<g id="node31" class="node">
<title>Node31</title>
<g id="a_node31"><a xlink:href="prediction_8c.html#ab4e885c4aea369642e1f9ab827157366" target="_top" xlink:title="Prints least mean squres prediction parameters.">
<polygon fill="none" stroke="black" points="273.5,-209.5 273.5,-228.5 391.5,-228.5 391.5,-209.5 273.5,-209.5"/>
<text text-anchor="middle" x="332.5" y="-216.5" font-family="Helvetica,sans-Serif" font-size="10.00">pred_param_print_nlms</text>
</a>
</g>
</g>
<!-- Node29&#45;&gt;Node31 -->
<g id="edge32" class="edge">
<title>Node29&#45;&gt;Node31</title>
<path fill="none" stroke="midnightblue" d="M214.27,-205.29C229.43,-207.07 246.69,-209.08 263.22,-211.02"/>
<polygon fill="midnightblue" stroke="midnightblue" points="263.05,-214.52 273.39,-212.21 263.86,-207.57 263.05,-214.52"/>
</g>
<!-- Node32 -->
<g id="node32" class="node">
<title>Node32</title>
<g id="a_node32"><a xlink:href="prediction_8c.html#a727103c799ce0fd0e50e018c10802839" target="_top" xlink:title="Prints recursive least mean squres prediction parameters.">
<polygon fill="none" stroke="black" points="279,-171.5 279,-190.5 386,-190.5 386,-171.5 279,-171.5"/>
<text text-anchor="middle" x="332.5" y="-178.5" font-family="Helvetica,sans-Serif" font-size="10.00">pred_param_print_rls</text>
</a>
</g>
</g>
<!-- Node29&#45;&gt;Node32 -->
<g id="edge33" class="edge">
<title>Node29&#45;&gt;Node32</title>
<path fill="none" stroke="midnightblue" d="M214.27,-194.71C231.14,-192.73 250.62,-190.46 268.78,-188.33"/>
<polygon fill="midnightblue" stroke="midnightblue" points="269.19,-191.81 278.72,-187.17 268.38,-184.86 269.19,-191.81"/>
</g>
<!-- Node33 -->
<g id="node33" class="node">
<title>Node33</title>
<g id="a_node33"><a xlink:href="prediction_8c.html#a085a8402296bdeab95f54299040e6e0e" target="_top" xlink:title="Returns a string representation of a prediction type from the integer.">
<polygon fill="none" stroke="black" points="283.5,-248 283.5,-278 381.5,-278 381.5,-248 283.5,-248"/>
<text text-anchor="start" x="291.5" y="-266" font-family="Helvetica,sans-Serif" font-size="10.00">prediction_type_as</text>
<text text-anchor="middle" x="332.5" y="-255" font-family="Helvetica,sans-Serif" font-size="10.00">_string</text>
</a>
</g>
</g>
<!-- Node29&#45;&gt;Node33 -->
<g id="edge34" class="edge">
<title>Node29&#45;&gt;Node33</title>
<path fill="none" stroke="midnightblue" d="M193.68,-209.57C217.29,-218.72 253.56,-232.78 282.96,-244.18"/>
<polygon fill="midnightblue" stroke="midnightblue" points="282.05,-247.58 292.64,-247.93 284.58,-241.06 282.05,-247.58"/>
</g>
<!-- Node30&#45;&gt;Node4 -->
<g id="edge31" class="edge">
<title>Node30&#45;&gt;Node4</title>
<path fill="none" stroke="midnightblue" d="M382,-152.54C387.45,-155.01 392.61,-158.1 397,-162 447.01,-206.38 466.8,-287.88 473.51,-325.29"/>
<polygon fill="midnightblue" stroke="midnightblue" points="470.1,-326.1 475.2,-335.39 477.01,-324.95 470.1,-326.1"/>
</g>
</g>
</svg>
