<?xml version="1.0" encoding="UTF-8" standalone="no"?>
<!DOCTYPE svg PUBLIC "-//W3C//DTD SVG 1.1//EN"
 "http://www.w3.org/Graphics/SVG/1.1/DTD/svg11.dtd">
<!-- Generated by graphviz version 2.43.0 (0)
 -->
<!-- Title: param_free Pages: 1 -->
<svg width="325pt" height="104pt"
 viewBox="0.00 0.00 325.00 104.00" xmlns="http://www.w3.org/2000/svg" xmlns:xlink="http://www.w3.org/1999/xlink">
<g id="graph0" class="graph" transform="scale(1 1) rotate(0) translate(4 100)">
<title>param_free</title>
<!-- Node1 -->
<g id="node1" class="node">
<title>Node1</title>
<g id="a_node1"><a xlink:title=" ">
<polygon fill="#bfbfbf" stroke="black" points="0,-38.5 0,-57.5 65,-57.5 65,-38.5 0,-38.5"/>
<text text-anchor="middle" x="32.5" y="-45.5" font-family="Helvetica,sans-Serif" font-size="10.00">param_free</text>
</a>
</g>
</g>
<!-- Node2 -->
<g id="node2" class="node">
<title>Node2</title>
<g id="a_node2"><a xlink:href="action_8c.html#acc202dbe3c6a1d3f745383aec209c780" target="_top" xlink:title="Frees action parameters.">
<polygon fill="none" stroke="black" points="101,-76.5 101,-95.5 198,-95.5 198,-76.5 101,-76.5"/>
<text text-anchor="middle" x="149.5" y="-83.5" font-family="Helvetica,sans-Serif" font-size="10.00">action_param_free</text>
</a>
</g>
</g>
<!-- Node1&#45;&gt;Node2 -->
<g id="edge1" class="edge">
<title>Node1&#45;&gt;Node2</title>
<path fill="none" stroke="midnightblue" d="M62.52,-57.59C76.82,-62.31 94.26,-68.08 109.69,-73.18"/>
<polygon fill="midnightblue" stroke="midnightblue" points="108.9,-76.6 119.49,-76.41 111.09,-69.95 108.9,-76.6"/>
</g>
<!-- Node4 -->
<g id="node4" class="node">
<title>Node4</title>
<g id="a_node4"><a xlink:href="condition_8c.html#af22e6e5a357ef08e482555291cfc612b" target="_top" xlink:title="Frees condition parameters.">
<polygon fill="none" stroke="black" points="103.5,-0.5 103.5,-19.5 195.5,-19.5 195.5,-0.5 103.5,-0.5"/>
<text text-anchor="middle" x="149.5" y="-7.5" font-family="Helvetica,sans-Serif" font-size="10.00">cond_param_free</text>
</a>
</g>
</g>
<!-- Node1&#45;&gt;Node4 -->
<g id="edge3" class="edge">
<title>Node1&#45;&gt;Node4</title>
<path fill="none" stroke="midnightblue" d="M62.52,-38.41C76.82,-33.69 94.26,-27.92 109.69,-22.82"/>
<polygon fill="midnightblue" stroke="midnightblue" points="111.09,-26.05 119.49,-19.59 108.9,-19.4 111.09,-26.05"/>
</g>
<!-- Node6 -->
<g id="node6" class="node">
<title>Node6</title>
<g id="a_node6"><a xlink:href="prediction_8c.html#a05bc6d7f4f01d3891fe4af373f0b573d" target="_top" xlink:title="Frees prediction parameters.">
<polygon fill="none" stroke="black" points="105,-38.5 105,-57.5 194,-57.5 194,-38.5 105,-38.5"/>
<text text-anchor="middle" x="149.5" y="-45.5" font-family="Helvetica,sans-Serif" font-size="10.00">pred_param_free</text>
</a>
</g>
</g>
<!-- Node1&#45;&gt;Node6 -->
<g id="edge6" class="edge">
<title>Node1&#45;&gt;Node6</title>
<path fill="none" stroke="midnightblue" d="M65.23,-48C74.4,-48 84.68,-48 94.8,-48"/>
<polygon fill="midnightblue" stroke="midnightblue" points="94.82,-51.5 104.82,-48 94.82,-44.5 94.82,-51.5"/>
</g>
<!-- Node3 -->
<g id="node3" class="node">
<title>Node3</title>
<g id="a_node3"><a xlink:href="neural__layer__args_8c.html#a477d2c5cf9da9413c6dba66b5d7f7aff" target="_top" xlink:title="Frees memory used by a list of layer parameters and points to NULL.">
<polygon fill="none" stroke="black" points="234,-38.5 234,-57.5 317,-57.5 317,-38.5 234,-38.5"/>
<text text-anchor="middle" x="275.5" y="-45.5" font-family="Helvetica,sans-Serif" font-size="10.00">layer_args_free</text>
</a>
</g>
</g>
<!-- Node2&#45;&gt;Node3 -->
<g id="edge2" class="edge">
<title>Node2&#45;&gt;Node3</title>
<path fill="none" stroke="midnightblue" d="M181.79,-76.41C197.5,-71.6 216.74,-65.7 233.61,-60.53"/>
<polygon fill="midnightblue" stroke="midnightblue" points="234.68,-63.86 243.22,-57.59 232.63,-57.17 234.68,-63.86"/>
</g>
<!-- Node4&#45;&gt;Node3 -->
<g id="edge4" class="edge">
<title>Node4&#45;&gt;Node3</title>
<path fill="none" stroke="midnightblue" d="M181.79,-19.59C197.5,-24.4 216.74,-30.3 233.61,-35.47"/>
<polygon fill="midnightblue" stroke="midnightblue" points="232.63,-38.83 243.22,-38.41 234.68,-32.14 232.63,-38.83"/>
</g>
<!-- Node5 -->
<g id="node5" class="node">
<title>Node5</title>
<g id="a_node5"><a xlink:href="gp_8c.html#a1756fddb02ca93b4891d0a672ac72fc8" target="_top" xlink:title="Frees memory used by GP tree parameters.">
<polygon fill="none" stroke="black" points="236,-0.5 236,-19.5 315,-19.5 315,-0.5 236,-0.5"/>
<text text-anchor="middle" x="275.5" y="-7.5" font-family="Helvetica,sans-Serif" font-size="10.00">tree_args_free</text>
</a>
</g>
</g>
<!-- Node4&#45;&gt;Node5 -->
<g id="edge5" class="edge">
<title>Node4&#45;&gt;Node5</title>
<path fill="none" stroke="midnightblue" d="M195.62,-10C205.38,-10 215.75,-10 225.65,-10"/>
<polygon fill="midnightblue" stroke="midnightblue" points="225.76,-13.5 235.76,-10 225.76,-6.5 225.76,-13.5"/>
</g>
<!-- Node6&#45;&gt;Node3 -->
<g id="edge7" class="edge">
<title>Node6&#45;&gt;Node3</title>
<path fill="none" stroke="midnightblue" d="M194.22,-48C203.74,-48 213.89,-48 223.67,-48"/>
<polygon fill="midnightblue" stroke="midnightblue" points="223.67,-51.5 233.67,-48 223.67,-44.5 223.67,-51.5"/>
</g>
</g>
</svg>
