<?xml version="1.0" encoding="UTF-8" standalone="no"?>
<!DOCTYPE svg PUBLIC "-//W3C//DTD SVG 1.1//EN"
 "http://www.w3.org/Graphics/SVG/1.1/DTD/svg11.dtd">
<!-- Generated by graphviz version 2.43.0 (0)
 -->
<!-- Title: param_json_import_multi Pages: 1 -->
<svg width="312pt" height="104pt"
 viewBox="0.00 0.00 312.00 104.00" xmlns="http://www.w3.org/2000/svg" xmlns:xlink="http://www.w3.org/1999/xlink">
<g id="graph0" class="graph" transform="scale(1 1) rotate(0) translate(4 100)">
<title>param_json_import_multi</title>
<!-- Node1 -->
<g id="node1" class="node">
<title>Node1</title>
<g id="a_node1"><a xlink:title="Sets the multi&#45;step parameters from a cJSON object.">
<polygon fill="#bfbfbf" stroke="black" points="0,-38.5 0,-57.5 125,-57.5 125,-38.5 0,-38.5"/>
<text text-anchor="middle" x="62.5" y="-45.5" font-family="Helvetica,sans-Serif" font-size="10.00">param_json_import_multi</text>
</a>
</g>
</g>
<!-- Node2 -->
<g id="node2" class="node">
<title>Node2</title>
<g id="a_node2"><a xlink:href="param_8c.html#ae4926a3ec09cbe9dc1feace3a2e87376" target="_top" xlink:title=" ">
<polygon fill="none" stroke="black" points="182.5,-76.5 182.5,-95.5 282.5,-95.5 282.5,-76.5 182.5,-76.5"/>
<text text-anchor="middle" x="232.5" y="-83.5" font-family="Helvetica,sans-Serif" font-size="10.00">param_set_gamma</text>
</a>
</g>
</g>
<!-- Node1&#45;&gt;Node2 -->
<g id="edge1" class="edge">
<title>Node1&#45;&gt;Node2</title>
<path fill="none" stroke="midnightblue" d="M105.89,-57.59C128.26,-62.65 155.9,-68.9 179.55,-74.25"/>
<polygon fill="midnightblue" stroke="midnightblue" points="178.89,-77.69 189.41,-76.48 180.43,-70.86 178.89,-77.69"/>
</g>
<!-- Node3 -->
<g id="node3" class="node">
<title>Node3</title>
<g id="a_node3"><a xlink:href="param_8c.html#a2d623cf9e14e6a9a450f6f2f7f20376e" target="_top" xlink:title=" ">
<polygon fill="none" stroke="black" points="177.5,-38.5 177.5,-57.5 287.5,-57.5 287.5,-38.5 177.5,-38.5"/>
<text text-anchor="middle" x="232.5" y="-45.5" font-family="Helvetica,sans-Serif" font-size="10.00">param_set_p_explore</text>
</a>
</g>
</g>
<!-- Node1&#45;&gt;Node3 -->
<g id="edge2" class="edge">
<title>Node1&#45;&gt;Node3</title>
<path fill="none" stroke="midnightblue" d="M125.1,-48C138.76,-48 153.27,-48 167.03,-48"/>
<polygon fill="midnightblue" stroke="midnightblue" points="167.39,-51.5 177.39,-48 167.39,-44.5 167.39,-51.5"/>
</g>
<!-- Node4 -->
<g id="node4" class="node">
<title>Node4</title>
<g id="a_node4"><a xlink:href="param_8c.html#abe3e53803e5cdb2d9c812a0025c68449" target="_top" xlink:title=" ">
<polygon fill="none" stroke="black" points="161,-0.5 161,-19.5 304,-19.5 304,-0.5 161,-0.5"/>
<text text-anchor="middle" x="232.5" y="-7.5" font-family="Helvetica,sans-Serif" font-size="10.00">param_set_teletransportation</text>
</a>
</g>
</g>
<!-- Node1&#45;&gt;Node4 -->
<g id="edge3" class="edge">
<title>Node1&#45;&gt;Node4</title>
<path fill="none" stroke="midnightblue" d="M105.89,-38.41C128.26,-33.35 155.9,-27.1 179.55,-21.75"/>
<polygon fill="midnightblue" stroke="midnightblue" points="180.43,-25.14 189.41,-19.52 178.89,-18.31 180.43,-25.14"/>
</g>
</g>
</svg>
