<?xml version="1.0" encoding="UTF-8" standalone="no"?>
<!DOCTYPE svg PUBLIC "-//W3C//DTD SVG 1.1//EN"
 "http://www.w3.org/Graphics/SVG/1.1/DTD/svg11.dtd">
<!-- Generated by graphviz version 2.43.0 (0)
 -->
<!-- Title: param_json_import_condition Pages: 1 -->
<svg width="1009pt" height="792pt"
 viewBox="0.00 0.00 1009.00 791.50" xmlns="http://www.w3.org/2000/svg" xmlns:xlink="http://www.w3.org/1999/xlink">
<g id="graph0" class="graph" transform="scale(1 1) rotate(0) translate(4 787.5)">
<title>param_json_import_condition</title>
<!-- Node1 -->
<g id="node1" class="node">
<title>Node1</title>
<g id="a_node1"><a xlink:title="Sets the condition parameters from a json formatted string.">
<polygon fill="#bfbfbf" stroke="black" points="0,-165.5 0,-184.5 143,-184.5 143,-165.5 0,-165.5"/>
<text text-anchor="middle" x="71.5" y="-172.5" font-family="Helvetica,sans-Serif" font-size="10.00">param_json_import_condition</text>
</a>
</g>
</g>
<!-- Node2 -->
<g id="node2" class="node">
<title>Node2</title>
<g id="a_node2"><a xlink:href="condition_8c.html#a05cc17fed48d042eaefd1e22582b24c6" target="_top" xlink:title="Sets the condition parameters from a cJSON object.">
<polygon fill="none" stroke="black" points="179,-209.5 179,-228.5 304,-228.5 304,-209.5 179,-209.5"/>
<text text-anchor="middle" x="241.5" y="-216.5" font-family="Helvetica,sans-Serif" font-size="10.00">cond_param_json_import</text>
</a>
</g>
</g>
<!-- Node1&#45;&gt;Node2 -->
<g id="edge1" class="edge">
<title>Node1&#45;&gt;Node2</title>
<path fill="none" stroke="midnightblue" d="M108.95,-184.55C133.94,-191.09 167.3,-199.83 194.17,-206.87"/>
<polygon fill="midnightblue" stroke="midnightblue" points="193.56,-210.32 204.12,-209.47 195.33,-203.55 193.56,-210.32"/>
</g>
<!-- Node40 -->
<g id="node40" class="node">
<title>Node40</title>
<g id="a_node40"><a xlink:href="condition_8c.html#aab417c59d2fd802e55463b7f928c9c09" target="_top" xlink:title=" ">
<polygon fill="none" stroke="black" points="185,-138 185,-168 298,-168 298,-138 185,-138"/>
<text text-anchor="start" x="193" y="-156" font-family="Helvetica,sans-Serif" font-size="10.00">cond_param_set_type</text>
<text text-anchor="middle" x="241.5" y="-145" font-family="Helvetica,sans-Serif" font-size="10.00">_string</text>
</a>
</g>
</g>
<!-- Node1&#45;&gt;Node40 -->
<g id="edge39" class="edge">
<title>Node1&#45;&gt;Node40</title>
<path fill="none" stroke="midnightblue" d="M143.26,-165.73C153.68,-164.37 164.39,-162.97 174.71,-161.62"/>
<polygon fill="midnightblue" stroke="midnightblue" points="175.41,-165.05 184.87,-160.28 174.5,-158.11 175.41,-165.05"/>
</g>
<!-- Node3 -->
<g id="node3" class="node">
<title>Node3</title>
<g id="a_node3"><a xlink:href="cond__dgp_8c.html#ad79eb421a4ca47cbad5eaf194b9c2a4e" target="_top" xlink:title="Sets the DGP parameters from a cJSON object.">
<polygon fill="none" stroke="black" points="355,-594 355,-624 469,-624 469,-594 355,-594"/>
<text text-anchor="start" x="363" y="-612" font-family="Helvetica,sans-Serif" font-size="10.00">cond_dgp_param_json</text>
<text text-anchor="middle" x="412" y="-601" font-family="Helvetica,sans-Serif" font-size="10.00">_import</text>
</a>
</g>
</g>
<!-- Node2&#45;&gt;Node3 -->
<g id="edge2" class="edge">
<title>Node2&#45;&gt;Node3</title>
<path fill="none" stroke="midnightblue" d="M244.66,-228.67C253.24,-266.17 287.11,-405.1 340,-509 354.39,-537.26 376.07,-566.49 391.69,-585.99"/>
<polygon fill="midnightblue" stroke="midnightblue" points="389.15,-588.43 398.18,-593.98 394.59,-584.01 389.15,-588.43"/>
</g>
<!-- Node9 -->
<g id="node9" class="node">
<title>Node9</title>
<g id="a_node9"><a xlink:href="cond__gp_8c.html#a98843961b5ca747608752353a5d0edae" target="_top" xlink:title="Sets the tree GP parameters from a cJSON object.">
<polygon fill="none" stroke="black" points="357.5,-469 357.5,-499 466.5,-499 466.5,-469 357.5,-469"/>
<text text-anchor="start" x="365.5" y="-487" font-family="Helvetica,sans-Serif" font-size="10.00">cond_gp_param_json</text>
<text text-anchor="middle" x="412" y="-476" font-family="Helvetica,sans-Serif" font-size="10.00">_import</text>
</a>
</g>
</g>
<!-- Node2&#45;&gt;Node9 -->
<g id="edge8" class="edge">
<title>Node2&#45;&gt;Node9</title>
<path fill="none" stroke="midnightblue" d="M248.7,-228.75C272.77,-266.6 360.49,-404.56 395.96,-460.35"/>
<polygon fill="midnightblue" stroke="midnightblue" points="393.06,-462.31 401.38,-468.87 398.97,-458.55 393.06,-462.31"/>
</g>
<!-- Node18 -->
<g id="node18" class="node">
<title>Node18</title>
<g id="a_node18"><a xlink:href="cond__neural_8c.html#a9255c78753af68c08b204d56737f3586" target="_top" xlink:title="Sets the neural network parameters from a cJSON object.">
<polygon fill="none" stroke="black" points="349.5,-261 349.5,-291 474.5,-291 474.5,-261 349.5,-261"/>
<text text-anchor="start" x="357.5" y="-279" font-family="Helvetica,sans-Serif" font-size="10.00">cond_neural_param_json</text>
<text text-anchor="middle" x="412" y="-268" font-family="Helvetica,sans-Serif" font-size="10.00">_import</text>
</a>
</g>
</g>
<!-- Node2&#45;&gt;Node18 -->
<g id="edge17" class="edge">
<title>Node2&#45;&gt;Node18</title>
<path fill="none" stroke="midnightblue" d="M270.7,-228.54C294.19,-236.48 328.3,-248.03 357.01,-257.74"/>
<polygon fill="midnightblue" stroke="midnightblue" points="355.93,-261.06 366.52,-260.95 358.17,-254.43 355.93,-261.06"/>
</g>
<!-- Node32 -->
<g id="node32" class="node">
<title>Node32</title>
<g id="a_node32"><a xlink:href="condition_8c.html#a720cc103a0bb61677a3e918bddc4e6a4" target="_top" xlink:title="Sets the center&#45;spread parameters from a cJSON object.">
<polygon fill="none" stroke="black" points="340,-152.5 340,-171.5 484,-171.5 484,-152.5 340,-152.5"/>
<text text-anchor="middle" x="412" y="-159.5" font-family="Helvetica,sans-Serif" font-size="10.00">cond_param_json_import_csr</text>
</a>
</g>
</g>
<!-- Node2&#45;&gt;Node32 -->
<g id="edge31" class="edge">
<title>Node2&#45;&gt;Node32</title>
<path fill="none" stroke="midnightblue" d="M270.7,-209.46C298.77,-199.97 342.02,-185.33 373.08,-174.83"/>
<polygon fill="midnightblue" stroke="midnightblue" points="374.35,-178.09 382.7,-171.57 372.11,-171.46 374.35,-178.09"/>
</g>
<!-- Node37 -->
<g id="node37" class="node">
<title>Node37</title>
<g id="a_node37"><a xlink:href="cond__ternary_8c.html#a767df473e45580612c5682c90b48b737" target="_top" xlink:title="Sets the ternary parameters from a cJSON object.">
<polygon fill="none" stroke="black" points="359.5,-68 359.5,-98 464.5,-98 464.5,-68 359.5,-68"/>
<text text-anchor="start" x="367.5" y="-86" font-family="Helvetica,sans-Serif" font-size="10.00">cond_ternary_param</text>
<text text-anchor="middle" x="412" y="-75" font-family="Helvetica,sans-Serif" font-size="10.00">_json_import</text>
</a>
</g>
</g>
<!-- Node2&#45;&gt;Node37 -->
<g id="edge36" class="edge">
<title>Node2&#45;&gt;Node37</title>
<path fill="none" stroke="midnightblue" d="M258.47,-209.48C271.23,-201.62 289.33,-189.86 304,-178 321.36,-163.97 323.47,-157.99 340,-143 354.36,-129.98 370.87,-115.98 384.35,-104.77"/>
<polygon fill="midnightblue" stroke="midnightblue" points="386.83,-107.26 392.31,-98.19 382.37,-101.87 386.83,-107.26"/>
</g>
<!-- Node4 -->
<g id="node4" class="node">
<title>Node4</title>
<g id="a_node4"><a xlink:href="dgp_8c.html#ae834119f454807d1ce8864535b907f53" target="_top" xlink:title="Sets the DGP graph parameters from a cJSON object.">
<polygon fill="none" stroke="black" points="532,-676.5 532,-695.5 652,-695.5 652,-676.5 532,-676.5"/>
<text text-anchor="middle" x="592" y="-683.5" font-family="Helvetica,sans-Serif" font-size="10.00">graph_args_json_import</text>
</a>
</g>
</g>
<!-- Node3&#45;&gt;Node4 -->
<g id="edge3" class="edge">
<title>Node3&#45;&gt;Node4</title>
<path fill="none" stroke="midnightblue" d="M447.74,-624.03C480.15,-638.05 528.08,-658.78 559.43,-672.34"/>
<polygon fill="midnightblue" stroke="midnightblue" points="558.41,-675.72 568.98,-676.48 561.19,-669.29 558.41,-675.72"/>
</g>
<!-- Node5 -->
<g id="node5" class="node">
<title>Node5</title>
<g id="a_node5"><a xlink:href="dgp_8c.html#aed1478bc3f88ad1f133a130dca8609d6" target="_top" xlink:title=" ">
<polygon fill="none" stroke="black" points="709,-753 709,-783 834,-783 834,-753 709,-753"/>
<text text-anchor="start" x="717" y="-771" font-family="Helvetica,sans-Serif" font-size="10.00">graph_param_set_evolve</text>
<text text-anchor="middle" x="771.5" y="-760" font-family="Helvetica,sans-Serif" font-size="10.00">_cycles</text>
</a>
</g>
</g>
<!-- Node4&#45;&gt;Node5 -->
<g id="edge4" class="edge">
<title>Node4&#45;&gt;Node5</title>
<path fill="none" stroke="midnightblue" d="M609.3,-695.67C629.96,-707.69 666.87,-728.4 700,-743 704.98,-745.19 710.21,-747.34 715.49,-749.39"/>
<polygon fill="midnightblue" stroke="midnightblue" points="714.39,-752.72 724.98,-752.98 716.86,-746.17 714.39,-752.72"/>
</g>
<!-- Node6 -->
<g id="node6" class="node">
<title>Node6</title>
<g id="a_node6"><a xlink:href="dgp_8c.html#ad00d04d5a1aa9f62c635775765099ca7" target="_top" xlink:title=" ">
<polygon fill="none" stroke="black" points="708.5,-714.5 708.5,-733.5 834.5,-733.5 834.5,-714.5 708.5,-714.5"/>
<text text-anchor="middle" x="771.5" y="-721.5" font-family="Helvetica,sans-Serif" font-size="10.00">graph_param_set_max_k</text>
</a>
</g>
</g>
<!-- Node4&#45;&gt;Node6 -->
<g id="edge5" class="edge">
<title>Node4&#45;&gt;Node6</title>
<path fill="none" stroke="midnightblue" d="M637.79,-695.59C661.53,-700.67 690.88,-706.96 715.94,-712.32"/>
<polygon fill="midnightblue" stroke="midnightblue" points="715.52,-715.81 726.03,-714.48 716.99,-708.96 715.52,-715.81"/>
</g>
<!-- Node7 -->
<g id="node7" class="node">
<title>Node7</title>
<g id="a_node7"><a xlink:href="dgp_8c.html#a2032837921a137ebe4c7704c47fd420f" target="_top" xlink:title=" ">
<polygon fill="none" stroke="black" points="709.5,-676.5 709.5,-695.5 833.5,-695.5 833.5,-676.5 709.5,-676.5"/>
<text text-anchor="middle" x="771.5" y="-683.5" font-family="Helvetica,sans-Serif" font-size="10.00">graph_param_set_max_t</text>
</a>
</g>
</g>
<!-- Node4&#45;&gt;Node7 -->
<g id="edge6" class="edge">
<title>Node4&#45;&gt;Node7</title>
<path fill="none" stroke="midnightblue" d="M652.1,-686C667.16,-686 683.5,-686 699.1,-686"/>
<polygon fill="midnightblue" stroke="midnightblue" points="699.22,-689.5 709.22,-686 699.22,-682.5 699.22,-689.5"/>
</g>
<!-- Node8 -->
<g id="node8" class="node">
<title>Node8</title>
<g id="a_node8"><a xlink:href="dgp_8c.html#a5fae5c843dd7b47d4a7a136122efd24b" target="_top" xlink:title=" ">
<polygon fill="none" stroke="black" points="720.5,-638.5 720.5,-657.5 822.5,-657.5 822.5,-638.5 720.5,-638.5"/>
<text text-anchor="middle" x="771.5" y="-645.5" font-family="Helvetica,sans-Serif" font-size="10.00">graph_param_set_n</text>
</a>
</g>
</g>
<!-- Node4&#45;&gt;Node8 -->
<g id="edge7" class="edge">
<title>Node4&#45;&gt;Node8</title>
<path fill="none" stroke="midnightblue" d="M637.79,-676.41C661.53,-671.33 690.88,-665.04 715.94,-659.68"/>
<polygon fill="midnightblue" stroke="midnightblue" points="716.99,-663.04 726.03,-657.52 715.52,-656.19 716.99,-663.04"/>
</g>
<!-- Node10 -->
<g id="node10" class="node">
<title>Node10</title>
<g id="a_node10"><a xlink:href="gp_8c.html#ab1a2a5d4c1921eeb8d76a3fae68b2d13" target="_top" xlink:title="Builds global constants used by GP trees.">
<polygon fill="none" stroke="black" points="530.5,-556.5 530.5,-575.5 653.5,-575.5 653.5,-556.5 530.5,-556.5"/>
<text text-anchor="middle" x="592" y="-563.5" font-family="Helvetica,sans-Serif" font-size="10.00">tree_args_init_constants</text>
</a>
</g>
</g>
<!-- Node9&#45;&gt;Node10 -->
<g id="edge9" class="edge">
<title>Node9&#45;&gt;Node10</title>
<path fill="none" stroke="midnightblue" d="M445.65,-499.04C478.57,-514.21 528.98,-537.43 560.95,-552.16"/>
<polygon fill="midnightblue" stroke="midnightblue" points="559.69,-555.43 570.24,-556.44 562.62,-549.07 559.69,-555.43"/>
</g>
<!-- Node12 -->
<g id="node12" class="node">
<title>Node12</title>
<g id="a_node12"><a xlink:href="gp_8c.html#a7ee1efc093c4c4d9d52dd962c9d00595" target="_top" xlink:title="Sets the GP tree parameters from a cJSON object.">
<polygon fill="none" stroke="black" points="535.5,-474.5 535.5,-493.5 648.5,-493.5 648.5,-474.5 535.5,-474.5"/>
<text text-anchor="middle" x="592" y="-481.5" font-family="Helvetica,sans-Serif" font-size="10.00">tree_args_json_import</text>
</a>
</g>
</g>
<!-- Node9&#45;&gt;Node12 -->
<g id="edge11" class="edge">
<title>Node9&#45;&gt;Node12</title>
<path fill="none" stroke="midnightblue" d="M466.89,-484C485.28,-484 506.05,-484 525.26,-484"/>
<polygon fill="midnightblue" stroke="midnightblue" points="525.45,-487.5 535.45,-484 525.45,-480.5 525.45,-487.5"/>
</g>
<!-- Node11 -->
<g id="node11" class="node">
<title>Node11</title>
<g id="a_node11"><a xlink:href="utils_8c.html#a972761ba8f47a6c3e7396a7c685158fc" target="_top" xlink:title="Returns a uniform random float [min,max].">
<polygon fill="none" stroke="black" points="735,-600.5 735,-619.5 808,-619.5 808,-600.5 735,-600.5"/>
<text text-anchor="middle" x="771.5" y="-607.5" font-family="Helvetica,sans-Serif" font-size="10.00">rand_uniform</text>
</a>
</g>
</g>
<!-- Node10&#45;&gt;Node11 -->
<g id="edge10" class="edge">
<title>Node10&#45;&gt;Node11</title>
<path fill="none" stroke="midnightblue" d="M631.51,-575.55C658.97,-582.35 695.98,-591.53 724.91,-598.7"/>
<polygon fill="midnightblue" stroke="midnightblue" points="724.23,-602.14 734.78,-601.15 725.91,-595.34 724.23,-602.14"/>
</g>
<!-- Node13 -->
<g id="node13" class="node">
<title>Node13</title>
<g id="a_node13"><a xlink:href="gp_8c.html#ab912e7b472f6fdc6bf9a7565bac8f063" target="_top" xlink:title=" ">
<polygon fill="none" stroke="black" points="720.5,-551 720.5,-581 822.5,-581 822.5,-551 720.5,-551"/>
<text text-anchor="start" x="728.5" y="-569" font-family="Helvetica,sans-Serif" font-size="10.00">tree_param_set_init</text>
<text text-anchor="middle" x="771.5" y="-558" font-family="Helvetica,sans-Serif" font-size="10.00">_depth</text>
</a>
</g>
</g>
<!-- Node12&#45;&gt;Node13 -->
<g id="edge12" class="edge">
<title>Node12&#45;&gt;Node13</title>
<path fill="none" stroke="midnightblue" d="M609.3,-493.67C629.96,-505.69 666.87,-526.4 700,-541 704.98,-543.19 710.21,-545.34 715.49,-547.39"/>
<polygon fill="midnightblue" stroke="midnightblue" points="714.39,-550.72 724.98,-550.98 716.86,-544.17 714.39,-550.72"/>
</g>
<!-- Node14 -->
<g id="node14" class="node">
<title>Node14</title>
<g id="a_node14"><a xlink:href="gp_8c.html#a7ce902011f75d08acceed528c688a3d0" target="_top" xlink:title=" ">
<polygon fill="none" stroke="black" points="717.5,-512.5 717.5,-531.5 825.5,-531.5 825.5,-512.5 717.5,-512.5"/>
<text text-anchor="middle" x="771.5" y="-519.5" font-family="Helvetica,sans-Serif" font-size="10.00">tree_param_set_max</text>
</a>
</g>
</g>
<!-- Node12&#45;&gt;Node14 -->
<g id="edge13" class="edge">
<title>Node12&#45;&gt;Node14</title>
<path fill="none" stroke="midnightblue" d="M637.79,-493.59C661.53,-498.67 690.88,-504.96 715.94,-510.32"/>
<polygon fill="midnightblue" stroke="midnightblue" points="715.52,-513.81 726.03,-512.48 716.99,-506.96 715.52,-513.81"/>
</g>
<!-- Node15 -->
<g id="node15" class="node">
<title>Node15</title>
<g id="a_node15"><a xlink:href="gp_8c.html#a31aa4c7ee72dd3c66fa9fb093d3d8519" target="_top" xlink:title=" ">
<polygon fill="none" stroke="black" points="708.5,-474.5 708.5,-493.5 834.5,-493.5 834.5,-474.5 708.5,-474.5"/>
<text text-anchor="middle" x="771.5" y="-481.5" font-family="Helvetica,sans-Serif" font-size="10.00">tree_param_set_max_len</text>
</a>
</g>
</g>
<!-- Node12&#45;&gt;Node15 -->
<g id="edge14" class="edge">
<title>Node12&#45;&gt;Node15</title>
<path fill="none" stroke="midnightblue" d="M648.68,-484C664.34,-484 681.6,-484 698.08,-484"/>
<polygon fill="midnightblue" stroke="midnightblue" points="698.23,-487.5 708.23,-484 698.23,-480.5 698.23,-487.5"/>
</g>
<!-- Node16 -->
<g id="node16" class="node">
<title>Node16</title>
<g id="a_node16"><a xlink:href="gp_8c.html#ace8b76bf8fcb4b48723dd94efae893c9" target="_top" xlink:title=" ">
<polygon fill="none" stroke="black" points="719,-436.5 719,-455.5 824,-455.5 824,-436.5 719,-436.5"/>
<text text-anchor="middle" x="771.5" y="-443.5" font-family="Helvetica,sans-Serif" font-size="10.00">tree_param_set_min</text>
</a>
</g>
</g>
<!-- Node12&#45;&gt;Node16 -->
<g id="edge15" class="edge">
<title>Node12&#45;&gt;Node16</title>
<path fill="none" stroke="midnightblue" d="M637.79,-474.41C661.53,-469.33 690.88,-463.04 715.94,-457.68"/>
<polygon fill="midnightblue" stroke="midnightblue" points="716.99,-461.04 726.03,-455.52 715.52,-454.19 716.99,-461.04"/>
</g>
<!-- Node17 -->
<g id="node17" class="node">
<title>Node17</title>
<g id="a_node17"><a xlink:href="gp_8c.html#a9a12da4c3d6254d01924a949478bcc01" target="_top" xlink:title=" ">
<polygon fill="none" stroke="black" points="700,-398.5 700,-417.5 843,-417.5 843,-398.5 700,-398.5"/>
<text text-anchor="middle" x="771.5" y="-405.5" font-family="Helvetica,sans-Serif" font-size="10.00">tree_param_set_n_constants</text>
</a>
</g>
</g>
<!-- Node12&#45;&gt;Node17 -->
<g id="edge16" class="edge">
<title>Node12&#45;&gt;Node17</title>
<path fill="none" stroke="midnightblue" d="M608.42,-474.35C628.75,-461.96 665.94,-440.46 700,-427 706.18,-424.56 712.78,-422.32 719.38,-420.3"/>
<polygon fill="midnightblue" stroke="midnightblue" points="720.36,-423.66 728.98,-417.51 718.4,-416.94 720.36,-423.66"/>
</g>
<!-- Node19 -->
<g id="node19" class="node">
<title>Node19</title>
<g id="a_node19"><a xlink:href="neural__layer__args_8c.html#a477d2c5cf9da9413c6dba66b5d7f7aff" target="_top" xlink:title="Frees memory used by a list of layer parameters and points to NULL.">
<polygon fill="none" stroke="black" points="550.5,-342.5 550.5,-361.5 633.5,-361.5 633.5,-342.5 550.5,-342.5"/>
<text text-anchor="middle" x="592" y="-349.5" font-family="Helvetica,sans-Serif" font-size="10.00">layer_args_free</text>
</a>
</g>
</g>
<!-- Node18&#45;&gt;Node19 -->
<g id="edge18" class="edge">
<title>Node18&#45;&gt;Node19</title>
<path fill="none" stroke="midnightblue" d="M437.31,-291.02C458.52,-303.61 490.43,-321.35 520,-333 526.46,-335.55 533.38,-337.87 540.28,-339.95"/>
<polygon fill="midnightblue" stroke="midnightblue" points="539.73,-343.43 550.31,-342.82 541.65,-336.7 539.73,-343.43"/>
</g>
<!-- Node20 -->
<g id="node20" class="node">
<title>Node20</title>
<g id="a_node20"><a xlink:href="neural__layer__args_8c.html#a3b06e82bed7fc9a8915d6187ce08d33e" target="_top" xlink:title="Sets layer parameters to default values.">
<polygon fill="none" stroke="black" points="552,-304.5 552,-323.5 632,-323.5 632,-304.5 552,-304.5"/>
<text text-anchor="middle" x="592" y="-311.5" font-family="Helvetica,sans-Serif" font-size="10.00">layer_args_init</text>
</a>
</g>
</g>
<!-- Node18&#45;&gt;Node20 -->
<g id="edge19" class="edge">
<title>Node18&#45;&gt;Node20</title>
<path fill="none" stroke="midnightblue" d="M474.76,-289.18C496.76,-293.88 521.22,-299.1 542.01,-303.54"/>
<polygon fill="midnightblue" stroke="midnightblue" points="541.38,-306.99 551.89,-305.65 542.84,-300.14 541.38,-306.99"/>
</g>
<!-- Node21 -->
<g id="node21" class="node">
<title>Node21</title>
<g id="a_node21"><a xlink:href="neural__layer__args_8c.html#a3b9aa19f760cc83a0a56abd6264e314e" target="_top" xlink:title="Sets the layer parameters from a cJSON object.">
<polygon fill="none" stroke="black" points="533.5,-266.5 533.5,-285.5 650.5,-285.5 650.5,-266.5 533.5,-266.5"/>
<text text-anchor="middle" x="592" y="-273.5" font-family="Helvetica,sans-Serif" font-size="10.00">layer_args_json_import</text>
</a>
</g>
</g>
<!-- Node18&#45;&gt;Node21 -->
<g id="edge20" class="edge">
<title>Node18&#45;&gt;Node21</title>
<path fill="none" stroke="midnightblue" d="M474.76,-276C490.32,-276 507.12,-276 522.98,-276"/>
<polygon fill="midnightblue" stroke="midnightblue" points="523.24,-279.5 533.24,-276 523.24,-272.5 523.24,-279.5"/>
</g>
<!-- Node29 -->
<g id="node29" class="node">
<title>Node29</title>
<g id="a_node29"><a xlink:href="neural__layer__args_8c.html#a492de2de029ff6124f8fe466ad6b0d80" target="_top" xlink:title="Checks network layer arguments are valid.">
<polygon fill="none" stroke="black" points="541.5,-228.5 541.5,-247.5 642.5,-247.5 642.5,-228.5 541.5,-228.5"/>
<text text-anchor="middle" x="592" y="-235.5" font-family="Helvetica,sans-Serif" font-size="10.00">layer_args_validate</text>
</a>
</g>
</g>
<!-- Node18&#45;&gt;Node29 -->
<g id="edge28" class="edge">
<title>Node18&#45;&gt;Node29</title>
<path fill="none" stroke="midnightblue" d="M474.76,-262.82C494.85,-258.53 516.99,-253.8 536.52,-249.63"/>
<polygon fill="midnightblue" stroke="midnightblue" points="537.41,-253.02 546.46,-247.51 535.95,-246.17 537.41,-253.02"/>
</g>
<!-- Node22 -->
<g id="node22" class="node">
<title>Node22</title>
<g id="a_node22"><a xlink:href="neural__layer__args_8c.html#af7388e196c27ab190bb7bb6848a7a456" target="_top" xlink:title="Sets the layer activation from a cJSON object.">
<polygon fill="none" stroke="black" points="713,-349 713,-379 830,-379 830,-349 713,-349"/>
<text text-anchor="start" x="721" y="-367" font-family="Helvetica,sans-Serif" font-size="10.00">layer_args_json_import</text>
<text text-anchor="middle" x="771.5" y="-356" font-family="Helvetica,sans-Serif" font-size="10.00">_activation</text>
</a>
</g>
</g>
<!-- Node21&#45;&gt;Node22 -->
<g id="edge21" class="edge">
<title>Node21&#45;&gt;Node22</title>
<path fill="none" stroke="midnightblue" d="M644.3,-285.57C651.22,-288.04 658,-291.12 664,-295 685.23,-308.7 679.33,-324.46 700,-339 702.71,-340.9 705.58,-342.68 708.55,-344.33"/>
<polygon fill="midnightblue" stroke="midnightblue" points="707.19,-347.56 717.7,-348.91 710.33,-341.3 707.19,-347.56"/>
</g>
<!-- Node24 -->
<g id="node24" class="node">
<title>Node24</title>
<g id="a_node24"><a xlink:href="neural__layer__args_8c.html#a511a92070d5a53700d9650c1705b96ab" target="_top" xlink:title="Sets the layer evolutionary parameters from a cJSON object.">
<polygon fill="none" stroke="black" points="702.5,-310.5 702.5,-329.5 840.5,-329.5 840.5,-310.5 702.5,-310.5"/>
<text text-anchor="middle" x="771.5" y="-317.5" font-family="Helvetica,sans-Serif" font-size="10.00">layer_args_json_import_evo</text>
</a>
</g>
</g>
<!-- Node21&#45;&gt;Node24 -->
<g id="edge23" class="edge">
<title>Node21&#45;&gt;Node24</title>
<path fill="none" stroke="midnightblue" d="M631.51,-285.55C658.15,-292.15 693.78,-300.98 722.3,-308.05"/>
<polygon fill="midnightblue" stroke="midnightblue" points="721.51,-311.46 732.06,-310.47 723.2,-304.67 721.51,-311.46"/>
</g>
<!-- Node25 -->
<g id="node25" class="node">
<title>Node25</title>
<g id="a_node25"><a xlink:href="neural__layer__args_8c.html#a22a018ccf2e332aafeaa450968b96ed1" target="_top" xlink:title="Sets the layer input parameters from a cJSON object.">
<polygon fill="none" stroke="black" points="713,-261 713,-291 830,-291 830,-261 713,-261"/>
<text text-anchor="start" x="721" y="-279" font-family="Helvetica,sans-Serif" font-size="10.00">layer_args_json_import</text>
<text text-anchor="middle" x="771.5" y="-268" font-family="Helvetica,sans-Serif" font-size="10.00">_inputs</text>
</a>
</g>
</g>
<!-- Node21&#45;&gt;Node25 -->
<g id="edge24" class="edge">
<title>Node21&#45;&gt;Node25</title>
<path fill="none" stroke="midnightblue" d="M650.63,-276C667.14,-276 685.3,-276 702.39,-276"/>
<polygon fill="midnightblue" stroke="midnightblue" points="702.86,-279.5 712.86,-276 702.86,-272.5 702.86,-279.5"/>
</g>
<!-- Node26 -->
<g id="node26" class="node">
<title>Node26</title>
<g id="a_node26"><a xlink:href="neural__layer__args_8c.html#ab5d03fe4bb8549b5321c9bda9c514161" target="_top" xlink:title="Sets the layer scaling parameters from a cJSON object.">
<polygon fill="none" stroke="black" points="713,-212 713,-242 830,-242 830,-212 713,-212"/>
<text text-anchor="start" x="721" y="-230" font-family="Helvetica,sans-Serif" font-size="10.00">layer_args_json_import</text>
<text text-anchor="middle" x="771.5" y="-219" font-family="Helvetica,sans-Serif" font-size="10.00">_scale</text>
</a>
</g>
</g>
<!-- Node21&#45;&gt;Node26 -->
<g id="edge25" class="edge">
<title>Node21&#45;&gt;Node26</title>
<path fill="none" stroke="midnightblue" d="M629.14,-266.43C640.33,-263.44 652.68,-260.11 664,-257 678.22,-253.09 693.49,-248.83 707.91,-244.78"/>
<polygon fill="midnightblue" stroke="midnightblue" points="709.05,-248.09 717.72,-242.01 707.15,-241.36 709.05,-248.09"/>
</g>
<!-- Node27 -->
<g id="node27" class="node">
<title>Node27</title>
<g id="a_node27"><a xlink:href="neural__layer__args_8c.html#a9a07261fd04326ccbae66c152f8f6de2" target="_top" xlink:title="Sets the layer SGD parameters from a cJSON object.">
<polygon fill="none" stroke="black" points="702.5,-173.5 702.5,-192.5 840.5,-192.5 840.5,-173.5 702.5,-173.5"/>
<text text-anchor="middle" x="771.5" y="-180.5" font-family="Helvetica,sans-Serif" font-size="10.00">layer_args_json_import_sgd</text>
</a>
</g>
</g>
<!-- Node21&#45;&gt;Node27 -->
<g id="edge26" class="edge">
<title>Node21&#45;&gt;Node27</title>
<path fill="none" stroke="midnightblue" d="M646.13,-266.4C652.48,-263.95 658.61,-260.87 664,-257 687.44,-240.19 676.69,-219.98 700,-203 703.26,-200.62 706.8,-198.53 710.49,-196.68"/>
<polygon fill="midnightblue" stroke="midnightblue" points="712.14,-199.78 719.92,-192.59 709.35,-193.36 712.14,-199.78"/>
</g>
<!-- Node28 -->
<g id="node28" class="node">
<title>Node28</title>
<g id="a_node28"><a xlink:href="neural__layer_8c.html#a5a8bc3e92587742c0bd1ee27780b1128" target="_top" xlink:title="Returns the integer representation of a layer type given a name.">
<polygon fill="none" stroke="black" points="725,-135.5 725,-154.5 818,-154.5 818,-135.5 725,-135.5"/>
<text text-anchor="middle" x="771.5" y="-142.5" font-family="Helvetica,sans-Serif" font-size="10.00">layer_type_as_int</text>
</a>
</g>
</g>
<!-- Node21&#45;&gt;Node28 -->
<g id="edge27" class="edge">
<title>Node21&#45;&gt;Node28</title>
<path fill="none" stroke="midnightblue" d="M649.48,-266.37C654.76,-263.91 659.73,-260.84 664,-257 696.98,-227.39 667.04,-193.63 700,-164 704.47,-159.98 709.7,-156.8 715.26,-154.28"/>
<polygon fill="midnightblue" stroke="midnightblue" points="716.74,-157.47 724.84,-150.64 714.25,-150.92 716.74,-157.47"/>
</g>
<!-- Node23 -->
<g id="node23" class="node">
<title>Node23</title>
<g id="a_node23"><a xlink:href="neural__activations_8c.html#aaba6ef52952c92bb15f6231b6b42fa73" target="_top" xlink:title="Returns the integer representation of an activation function.">
<polygon fill="none" stroke="black" points="879,-354.5 879,-373.5 1001,-373.5 1001,-354.5 879,-354.5"/>
<text text-anchor="middle" x="940" y="-361.5" font-family="Helvetica,sans-Serif" font-size="10.00">neural_activation_as_int</text>
</a>
</g>
</g>
<!-- Node22&#45;&gt;Node23 -->
<g id="edge22" class="edge">
<title>Node22&#45;&gt;Node23</title>
<path fill="none" stroke="midnightblue" d="M830.27,-364C842.64,-364 855.85,-364 868.64,-364"/>
<polygon fill="midnightblue" stroke="midnightblue" points="868.79,-367.5 878.79,-364 868.79,-360.5 868.79,-367.5"/>
</g>
<!-- Node30 -->
<g id="node30" class="node">
<title>Node30</title>
<g id="a_node30"><a xlink:href="neural__layer__args_8c.html#a8e1a02c60d1cbe0baba8f2c6ff0b5266" target="_top" xlink:title="Checks input layer arguments are valid.">
<polygon fill="none" stroke="black" points="721,-86 721,-116 822,-116 822,-86 721,-86"/>
<text text-anchor="start" x="729" y="-104" font-family="Helvetica,sans-Serif" font-size="10.00">layer_args_validate</text>
<text text-anchor="middle" x="771.5" y="-93" font-family="Helvetica,sans-Serif" font-size="10.00">_inputs</text>
</a>
</g>
</g>
<!-- Node29&#45;&gt;Node30 -->
<g id="edge29" class="edge">
<title>Node29&#45;&gt;Node30</title>
<path fill="none" stroke="midnightblue" d="M642.65,-231.17C650.45,-228.37 657.92,-224.45 664,-219 696.98,-189.39 668.22,-156.89 700,-126 703.48,-122.61 707.45,-119.68 711.7,-117.15"/>
<polygon fill="midnightblue" stroke="midnightblue" points="713.44,-120.19 720.71,-112.48 710.22,-113.97 713.44,-120.19"/>
</g>
<!-- Node31 -->
<g id="node31" class="node">
<title>Node31</title>
<g id="a_node31"><a xlink:href="neural__layer_8c.html#ad1b7188119d0d96791ee0d87c105896a" target="_top" xlink:title="Returns a whether a layer type expects images as input.">
<polygon fill="none" stroke="black" points="882,-91.5 882,-110.5 998,-110.5 998,-91.5 882,-91.5"/>
<text text-anchor="middle" x="940" y="-98.5" font-family="Helvetica,sans-Serif" font-size="10.00">layer_receives_images</text>
</a>
</g>
</g>
<!-- Node30&#45;&gt;Node31 -->
<g id="edge30" class="edge">
<title>Node30&#45;&gt;Node31</title>
<path fill="none" stroke="midnightblue" d="M822,-101C837.56,-101 855.02,-101 871.6,-101"/>
<polygon fill="midnightblue" stroke="midnightblue" points="871.78,-104.5 881.78,-101 871.78,-97.5 871.78,-104.5"/>
</g>
<!-- Node33 -->
<g id="node33" class="node">
<title>Node33</title>
<g id="a_node33"><a xlink:href="condition_8c.html#afba6bf151b5efdac267a5acea6ec6f98" target="_top" xlink:title=" ">
<polygon fill="none" stroke="black" points="538.5,-190.5 538.5,-209.5 645.5,-209.5 645.5,-190.5 538.5,-190.5"/>
<text text-anchor="middle" x="592" y="-197.5" font-family="Helvetica,sans-Serif" font-size="10.00">cond_param_set_eta</text>
</a>
</g>
</g>
<!-- Node32&#45;&gt;Node33 -->
<g id="edge32" class="edge">
<title>Node32&#45;&gt;Node33</title>
<path fill="none" stroke="midnightblue" d="M457.92,-171.59C481.83,-176.69 511.42,-183.01 536.62,-188.39"/>
<polygon fill="midnightblue" stroke="midnightblue" points="535.9,-191.81 546.41,-190.48 537.36,-184.97 535.9,-191.81"/>
</g>
<!-- Node34 -->
<g id="node34" class="node">
<title>Node34</title>
<g id="a_node34"><a xlink:href="condition_8c.html#a96145ee4b72dff5896f1d441501f788b" target="_top" xlink:title=" ">
<polygon fill="none" stroke="black" points="535.5,-152.5 535.5,-171.5 648.5,-171.5 648.5,-152.5 535.5,-152.5"/>
<text text-anchor="middle" x="592" y="-159.5" font-family="Helvetica,sans-Serif" font-size="10.00">cond_param_set_max</text>
</a>
</g>
</g>
<!-- Node32&#45;&gt;Node34 -->
<g id="edge33" class="edge">
<title>Node32&#45;&gt;Node34</title>
<path fill="none" stroke="midnightblue" d="M484.12,-162C497.7,-162 511.86,-162 525.26,-162"/>
<polygon fill="midnightblue" stroke="midnightblue" points="525.34,-165.5 535.34,-162 525.34,-158.5 525.34,-165.5"/>
</g>
<!-- Node35 -->
<g id="node35" class="node">
<title>Node35</title>
<g id="a_node35"><a xlink:href="condition_8c.html#a76bc79f6e7f0ad3c034ef9c66b987dfd" target="_top" xlink:title=" ">
<polygon fill="none" stroke="black" points="537,-114.5 537,-133.5 647,-133.5 647,-114.5 537,-114.5"/>
<text text-anchor="middle" x="592" y="-121.5" font-family="Helvetica,sans-Serif" font-size="10.00">cond_param_set_min</text>
</a>
</g>
</g>
<!-- Node32&#45;&gt;Node35 -->
<g id="edge34" class="edge">
<title>Node32&#45;&gt;Node35</title>
<path fill="none" stroke="midnightblue" d="M457.92,-152.41C481.83,-147.31 511.42,-140.99 536.62,-135.61"/>
<polygon fill="midnightblue" stroke="midnightblue" points="537.36,-139.03 546.41,-133.52 535.9,-132.19 537.36,-139.03"/>
</g>
<!-- Node36 -->
<g id="node36" class="node">
<title>Node36</title>
<g id="a_node36"><a xlink:href="condition_8c.html#a508893aeed24ea2c0eab380f49b05f8b" target="_top" xlink:title=" ">
<polygon fill="none" stroke="black" points="520,-76.5 520,-95.5 664,-95.5 664,-76.5 520,-76.5"/>
<text text-anchor="middle" x="592" y="-83.5" font-family="Helvetica,sans-Serif" font-size="10.00">cond_param_set_spread_min</text>
</a>
</g>
</g>
<!-- Node32&#45;&gt;Node36 -->
<g id="edge35" class="edge">
<title>Node32&#45;&gt;Node36</title>
<path fill="none" stroke="midnightblue" d="M428.41,-152.34C448.74,-139.94 485.93,-118.43 520,-105 526,-102.64 532.4,-100.46 538.8,-98.5"/>
<polygon fill="midnightblue" stroke="midnightblue" points="540.19,-101.74 548.81,-95.59 538.23,-95.02 540.19,-101.74"/>
</g>
<!-- Node38 -->
<g id="node38" class="node">
<title>Node38</title>
<g id="a_node38"><a xlink:href="condition_8c.html#a6d08714de7bb2d395de2a8171635afac" target="_top" xlink:title=" ">
<polygon fill="none" stroke="black" points="537,-38.5 537,-57.5 647,-57.5 647,-38.5 537,-38.5"/>
<text text-anchor="middle" x="592" y="-45.5" font-family="Helvetica,sans-Serif" font-size="10.00">cond_param_set_bits</text>
</a>
</g>
</g>
<!-- Node37&#45;&gt;Node38 -->
<g id="edge37" class="edge">
<title>Node37&#45;&gt;Node38</title>
<path fill="none" stroke="midnightblue" d="M464.96,-72.78C486.23,-68.6 510.93,-63.74 532.8,-59.44"/>
<polygon fill="midnightblue" stroke="midnightblue" points="533.49,-62.87 542.63,-57.51 532.14,-56.01 533.49,-62.87"/>
</g>
<!-- Node39 -->
<g id="node39" class="node">
<title>Node39</title>
<g id="a_node39"><a xlink:href="condition_8c.html#a95e3f93f8f4d82e7a6f5ef3b7a6a71ef" target="_top" xlink:title=" ">
<polygon fill="none" stroke="black" points="521,-0.5 521,-19.5 663,-19.5 663,-0.5 521,-0.5"/>
<text text-anchor="middle" x="592" y="-7.5" font-family="Helvetica,sans-Serif" font-size="10.00">cond_param_set_p_dontcare</text>
</a>
</g>
</g>
<!-- Node37&#45;&gt;Node39 -->
<g id="edge38" class="edge">
<title>Node37&#45;&gt;Node39</title>
<path fill="none" stroke="midnightblue" d="M462.84,-67.89C470.11,-64.99 477.38,-61.69 484,-58 501.95,-48 501.68,-38.3 520,-29 524.58,-26.68 529.47,-24.61 534.46,-22.79"/>
<polygon fill="midnightblue" stroke="midnightblue" points="535.75,-26.05 544.13,-19.56 533.54,-19.41 535.75,-26.05"/>
</g>
<!-- Node41 -->
<g id="node41" class="node">
<title>Node41</title>
<g id="a_node41"><a xlink:href="condition_8c.html#a654e570bc807e2c15a6d963b31d3caf2" target="_top" xlink:title="Returns the integer representation of a condition type given a name.">
<polygon fill="none" stroke="black" points="356.5,-29.5 356.5,-48.5 467.5,-48.5 467.5,-29.5 356.5,-29.5"/>
<text text-anchor="middle" x="412" y="-36.5" font-family="Helvetica,sans-Serif" font-size="10.00">condition_type_as_int</text>
</a>
</g>
</g>
<!-- Node40&#45;&gt;Node41 -->
<g id="edge40" class="edge">
<title>Node40&#45;&gt;Node41</title>
<path fill="none" stroke="midnightblue" d="M254.03,-137.94C270.74,-117.14 303.7,-79.83 340,-59 344.72,-56.29 349.83,-53.93 355.07,-51.88"/>
<polygon fill="midnightblue" stroke="midnightblue" points="356.33,-55.14 364.59,-48.51 353.99,-48.55 356.33,-55.14"/>
</g>
</g>
</svg>
