<?xml version="1.0" encoding="UTF-8" standalone="no"?>
<!DOCTYPE svg PUBLIC "-//W3C//DTD SVG 1.1//EN"
 "http://www.w3.org/Graphics/SVG/1.1/DTD/svg11.dtd">
<!-- Generated by graphviz version 2.43.0 (0)
 -->
<!-- Title: param_json_export Pages: 1 -->
<svg width="897pt" height="626pt"
 viewBox="0.00 0.00 897.00 626.00" xmlns="http://www.w3.org/2000/svg" xmlns:xlink="http://www.w3.org/1999/xlink">
<g id="graph0" class="graph" transform="scale(1 1) rotate(0) translate(4 622)">
<title>param_json_export</title>
<!-- Node1 -->
<g id="Node000001" class="node">
<title>Node1</title>
<g id="a_Node000001"><a xlink:title="Returns a json formatted string representation of the parameters.">
<polygon fill="#999999" stroke="#666666" points="99,-158 0,-158 0,-139 99,-139 99,-158"/>
<text text-anchor="middle" x="49.5" y="-146" font-family="Helvetica,sans-Serif" font-size="10.00">param_json_export</text>
</a>
</g>
</g>
<!-- Node2 -->
<g id="Node000002" class="node">
<title>Node2</title>
<g id="a_Node000002"><a xlink:href="action_8c.html#abc3d337a565dc94c88faa33472505c3e" target="_top" xlink:title="Returns a json formatted string of the action parameters.">
<polygon fill="white" stroke="#666666" points="266,-383 135,-383 135,-364 266,-364 266,-383"/>
<text text-anchor="middle" x="200.5" y="-371" font-family="Helvetica,sans-Serif" font-size="10.00">action_param_json_export</text>
</a>
</g>
</g>
<!-- Node1&#45;&gt;Node2 -->
<g id="edge1_Node000001_Node000002" class="edge">
<title>Node1&#45;&gt;Node2</title>
<g id="a_edge1_Node000001_Node000002"><a xlink:title=" ">
<path fill="none" stroke="#63b8ff" d="M54.6,-158.3C65.56,-183.95 97.31,-254.67 135,-306.5 148.65,-325.28 167.32,-344.1 181.05,-356.99"/>
<polygon fill="#63b8ff" stroke="#63b8ff" points="178.77,-359.65 188.5,-363.85 183.52,-354.5 178.77,-359.65"/>
</a>
</g>
</g>
<!-- Node22 -->
<g id="Node000022" class="node">
<title>Node22</title>
<g id="a_Node000022"><a xlink:href="condition_8c.html#ab1e3bf6514986d3bce77a73ce910047e" target="_top" xlink:title="Returns a json formatted string of the condition parameters.">
<polygon fill="white" stroke="#666666" points="263,-297 138,-297 138,-278 263,-278 263,-297"/>
<text text-anchor="middle" x="200.5" y="-285" font-family="Helvetica,sans-Serif" font-size="10.00">cond_param_json_export</text>
</a>
</g>
</g>
<!-- Node1&#45;&gt;Node22 -->
<g id="edge22_Node000001_Node000022" class="edge">
<title>Node1&#45;&gt;Node22</title>
<g id="a_edge22_Node000001_Node000022"><a xlink:title=" ">
<path fill="none" stroke="#63b8ff" d="M60.74,-158.05C85.73,-181.36 150.07,-241.39 181.58,-270.78"/>
<polygon fill="#63b8ff" stroke="#63b8ff" points="179.49,-273.62 189.19,-277.88 184.26,-268.5 179.49,-273.62"/>
</a>
</g>
</g>
<!-- Node30 -->
<g id="Node000030" class="node">
<title>Node30</title>
<g id="a_Node000030"><a xlink:href="ea_8c.html#a18fa82805c33fc10cdcc5965d903c4ae" target="_top" xlink:title="Returns a json formatted string representation of the EA parameters.">
<polygon fill="white" stroke="#666666" points="258,-121 143,-121 143,-102 258,-102 258,-121"/>
<text text-anchor="middle" x="200.5" y="-109" font-family="Helvetica,sans-Serif" font-size="10.00">ea_param_json_export</text>
</a>
</g>
</g>
<!-- Node1&#45;&gt;Node30 -->
<g id="edge31_Node000001_Node000030" class="edge">
<title>Node1&#45;&gt;Node30</title>
<g id="a_edge31_Node000001_Node000030"><a xlink:title=" ">
<path fill="none" stroke="#63b8ff" d="M88.87,-138.97C107.83,-134.26 130.9,-128.53 151.06,-123.53"/>
<polygon fill="#63b8ff" stroke="#63b8ff" points="152.14,-126.87 161,-121.06 150.45,-120.07 152.14,-126.87"/>
</a>
</g>
</g>
<!-- Node32 -->
<g id="Node000032" class="node">
<title>Node32</title>
<g id="a_Node000032"><a xlink:href="loss_8c.html#a272f6c1c9b24a6171865c855b231d560" target="_top" xlink:title="Returns a string representation of a loss type from the integer.">
<polygon fill="white" stroke="#666666" points="252.5,-84 148.5,-84 148.5,-65 252.5,-65 252.5,-84"/>
<text text-anchor="middle" x="200.5" y="-72" font-family="Helvetica,sans-Serif" font-size="10.00">loss_type_as_string</text>
</a>
</g>
</g>
<!-- Node1&#45;&gt;Node32 -->
<g id="edge33_Node000001_Node000032" class="edge">
<title>Node1&#45;&gt;Node32</title>
<g id="a_edge33_Node000001_Node000032"><a xlink:title=" ">
<path fill="none" stroke="#63b8ff" d="M62.71,-138.9C78.58,-126.83 107.5,-106.17 135,-93.5 139.97,-91.21 145.28,-89.12 150.65,-87.24"/>
<polygon fill="#63b8ff" stroke="#63b8ff" points="151.88,-90.52 160.29,-84.07 149.7,-83.87 151.88,-90.52"/>
</a>
</g>
</g>
<!-- Node33 -->
<g id="Node000033" class="node">
<title>Node33</title>
<g id="a_Node000033"><a xlink:href="prediction_8c.html#ac363177fac13104615104df74c5dcac4" target="_top" xlink:title="Returns a json formatted string of the prediction parameters.">
<polygon fill="white" stroke="#666666" points="262,-158 139,-158 139,-139 262,-139 262,-158"/>
<text text-anchor="middle" x="200.5" y="-146" font-family="Helvetica,sans-Serif" font-size="10.00">pred_param_json_export</text>
</a>
</g>
</g>
<!-- Node1&#45;&gt;Node33 -->
<g id="edge34_Node000001_Node000033" class="edge">
<title>Node1&#45;&gt;Node33</title>
<g id="a_edge34_Node000001_Node000033"><a xlink:title=" ">
<path fill="none" stroke="#63b8ff" d="M99.29,-148.5C108.67,-148.5 118.68,-148.5 128.6,-148.5"/>
<polygon fill="#63b8ff" stroke="#63b8ff" points="128.88,-152 138.88,-148.5 128.88,-145 128.88,-152"/>
</a>
</g>
</g>
<!-- Node3 -->
<g id="Node000003" class="node">
<title>Node3</title>
<g id="a_Node000003"><a xlink:href="action_8c.html#ad546aad49d253d6d0e72a6eddb237d01" target="_top" xlink:title="Returns a string representation of an action type from an integer.">
<polygon fill="white" stroke="#666666" points="430,-457 318,-457 318,-438 430,-438 430,-457"/>
<text text-anchor="middle" x="374" y="-445" font-family="Helvetica,sans-Serif" font-size="10.00">action_type_as_string</text>
</a>
</g>
</g>
<!-- Node2&#45;&gt;Node3 -->
<g id="edge2_Node000002_Node000003" class="edge">
<title>Node2&#45;&gt;Node3</title>
<g id="a_edge2_Node000002_Node000003"><a xlink:title=" ">
<path fill="none" stroke="#63b8ff" d="M215.89,-383.1C234.88,-395.41 269.7,-416.66 302,-429.5 307.1,-431.53 312.49,-433.38 317.94,-435.06"/>
<polygon fill="#63b8ff" stroke="#63b8ff" points="317.17,-438.48 327.75,-437.91 319.12,-431.76 317.17,-438.48"/>
</a>
</g>
</g>
<!-- Node4 -->
<g id="Node000004" class="node">
<title>Node4</title>
<g id="a_Node000004"><a xlink:href="neural__layer__args_8c.html#a91be60f1596b4940ddfe3aa08a72ea9d" target="_top" xlink:title="Returns a json formatted string of the neural layer parameters.">
<polygon fill="white" stroke="#666666" points="432.5,-383 315.5,-383 315.5,-364 432.5,-364 432.5,-383"/>
<text text-anchor="middle" x="374" y="-371" font-family="Helvetica,sans-Serif" font-size="10.00">layer_args_json_export</text>
</a>
</g>
</g>
<!-- Node2&#45;&gt;Node4 -->
<g id="edge3_Node000002_Node000004" class="edge">
<title>Node2&#45;&gt;Node4</title>
<g id="a_edge3_Node000002_Node000004"><a xlink:title=" ">
<path fill="none" stroke="#63b8ff" d="M266.34,-373.5C279.06,-373.5 292.44,-373.5 305.26,-373.5"/>
<polygon fill="#63b8ff" stroke="#63b8ff" points="305.39,-377 315.39,-373.5 305.39,-370 305.39,-377"/>
</a>
</g>
</g>
<!-- Node5 -->
<g id="Node000005" class="node">
<title>Node5</title>
<g id="a_Node000005"><a xlink:href="neural__layer__args_8c.html#a0d29d99487e5afd1746e7ac70fadf68f" target="_top" xlink:title="Adds layer activation function to a json object.">
<polygon fill="white" stroke="#666666" points="609.5,-431.5 492.5,-431.5 492.5,-401.5 609.5,-401.5 609.5,-431.5"/>
<text text-anchor="start" x="500.5" y="-419.5" font-family="Helvetica,sans-Serif" font-size="10.00">layer_args_json_export</text>
<text text-anchor="middle" x="551" y="-408.5" font-family="Helvetica,sans-Serif" font-size="10.00">_activation</text>
</a>
</g>
</g>
<!-- Node4&#45;&gt;Node5 -->
<g id="edge4_Node000004_Node000005" class="edge">
<title>Node4&#45;&gt;Node5</title>
<g id="a_edge4_Node000004_Node000005"><a xlink:title=" ">
<path fill="none" stroke="#63b8ff" d="M413.84,-383.04C434.02,-388 459.25,-394.2 482.5,-399.91"/>
<polygon fill="#63b8ff" stroke="#63b8ff" points="481.78,-403.34 492.32,-402.33 483.45,-396.54 481.78,-403.34"/>
</a>
</g>
</g>
<!-- Node7 -->
<g id="Node000007" class="node">
<title>Node7</title>
<g id="a_Node000007"><a xlink:href="neural__layer__args_8c.html#aba8bd68ce834099ac6558a3b2560963a" target="_top" xlink:title="Adds layer evolutionary parameters to a json object.">
<polygon fill="white" stroke="#666666" points="620,-383 482,-383 482,-364 620,-364 620,-383"/>
<text text-anchor="middle" x="551" y="-371" font-family="Helvetica,sans-Serif" font-size="10.00">layer_args_json_export_evo</text>
</a>
</g>
</g>
<!-- Node4&#45;&gt;Node7 -->
<g id="edge6_Node000004_Node000007" class="edge">
<title>Node4&#45;&gt;Node7</title>
<g id="a_edge6_Node000004_Node000007"><a xlink:title=" ">
<path fill="none" stroke="#63b8ff" d="M432.79,-373.5C445.2,-373.5 458.52,-373.5 471.56,-373.5"/>
<polygon fill="#63b8ff" stroke="#63b8ff" points="471.94,-377 481.94,-373.5 471.94,-370 471.94,-377"/>
</a>
</g>
</g>
<!-- Node8 -->
<g id="Node000008" class="node">
<title>Node8</title>
<g id="a_Node000008"><a xlink:href="neural__layer__args_8c.html#a7b6e5027adbd710fc3653c7056c22fa2" target="_top" xlink:title="Adds layer input parameters to a json object.">
<polygon fill="white" stroke="#666666" points="609.5,-345.5 492.5,-345.5 492.5,-315.5 609.5,-315.5 609.5,-345.5"/>
<text text-anchor="start" x="500.5" y="-333.5" font-family="Helvetica,sans-Serif" font-size="10.00">layer_args_json_export</text>
<text text-anchor="middle" x="551" y="-322.5" font-family="Helvetica,sans-Serif" font-size="10.00">_inputs</text>
</a>
</g>
</g>
<!-- Node4&#45;&gt;Node8 -->
<g id="edge7_Node000004_Node000008" class="edge">
<title>Node4&#45;&gt;Node8</title>
<g id="a_edge7_Node000004_Node000008"><a xlink:title=" ">
<path fill="none" stroke="#63b8ff" d="M413.84,-363.96C434.02,-359 459.25,-352.8 482.5,-347.09"/>
<polygon fill="#63b8ff" stroke="#63b8ff" points="483.45,-350.46 492.32,-344.67 481.78,-343.66 483.45,-350.46"/>
</a>
</g>
</g>
<!-- Node10 -->
<g id="Node000010" class="node">
<title>Node10</title>
<g id="a_Node000010"><a xlink:href="neural__layer__args_8c.html#a1130173f486e5e1b647a65ff0822aebc" target="_top" xlink:title="Adds layer scaling parameters to a json object.">
<polygon fill="white" stroke="#666666" points="609.5,-297.5 492.5,-297.5 492.5,-267.5 609.5,-267.5 609.5,-297.5"/>
<text text-anchor="start" x="500.5" y="-285.5" font-family="Helvetica,sans-Serif" font-size="10.00">layer_args_json_export</text>
<text text-anchor="middle" x="551" y="-274.5" font-family="Helvetica,sans-Serif" font-size="10.00">_scale</text>
</a>
</g>
</g>
<!-- Node4&#45;&gt;Node10 -->
<g id="edge9_Node000004_Node000010" class="edge">
<title>Node4&#45;&gt;Node10</title>
<g id="a_edge9_Node000004_Node000010"><a xlink:title=" ">
<path fill="none" stroke="#63b8ff" d="M427.19,-363.89C433.83,-361.43 440.29,-358.36 446,-354.5 468.09,-339.57 460.5,-322.28 482,-306.5 483.89,-305.12 485.86,-303.81 487.9,-302.57"/>
<polygon fill="#63b8ff" stroke="#63b8ff" points="490.02,-305.4 497.17,-297.57 486.7,-299.23 490.02,-305.4"/>
</a>
</g>
</g>
<!-- Node11 -->
<g id="Node000011" class="node">
<title>Node11</title>
<g id="a_Node000011"><a xlink:href="neural__layer__args_8c.html#a686e3f11eb7bb524effd5ddb75bdbd34" target="_top" xlink:title="Adds layer gradient descent parameters to a json object.">
<polygon fill="white" stroke="#666666" points="620,-249 482,-249 482,-230 620,-230 620,-249"/>
<text text-anchor="middle" x="551" y="-237" font-family="Helvetica,sans-Serif" font-size="10.00">layer_args_json_export_sgd</text>
</a>
</g>
</g>
<!-- Node4&#45;&gt;Node11 -->
<g id="edge10_Node000004_Node000011" class="edge">
<title>Node4&#45;&gt;Node11</title>
<g id="a_edge10_Node000004_Node000011"><a xlink:title=" ">
<path fill="none" stroke="#63b8ff" d="M431.52,-363.92C436.8,-361.45 441.75,-358.36 446,-354.5 479.75,-323.88 448.42,-289.3 482,-258.5 483.72,-256.92 485.57,-255.47 487.51,-254.13"/>
<polygon fill="#63b8ff" stroke="#63b8ff" points="489.55,-257 496.52,-249.03 486.1,-250.91 489.55,-257"/>
</a>
</g>
</g>
<!-- Node12 -->
<g id="Node000012" class="node">
<title>Node12</title>
<g id="a_Node000012"><a xlink:href="neural__layer_8c.html#ac79a38e3a8b17f929de92ba8ee9adf68" target="_top" xlink:title="Returns a string representation of a layer type from an integer.">
<polygon fill="white" stroke="#666666" points="604.5,-582 497.5,-582 497.5,-563 604.5,-563 604.5,-582"/>
<text text-anchor="middle" x="551" y="-570" font-family="Helvetica,sans-Serif" font-size="10.00">layer_type_as_string</text>
</a>
</g>
</g>
<!-- Node4&#45;&gt;Node12 -->
<g id="edge11_Node000004_Node000012" class="edge">
<title>Node4&#45;&gt;Node12</title>
<g id="a_edge11_Node000004_Node000012"><a xlink:title=" ">
<path fill="none" stroke="#63b8ff" d="M432.78,-382.84C437.68,-385.37 442.2,-388.54 446,-392.5 497.03,-445.76 430.9,-501.31 482,-554.5 483.89,-556.46 485.96,-558.22 488.18,-559.8"/>
<polygon fill="#63b8ff" stroke="#63b8ff" points="486.9,-563.1 497.32,-565 490.36,-557.01 486.9,-563.1"/>
</a>
</g>
</g>
<!-- Node13 -->
<g id="Node000013" class="node">
<title>Node13</title>
<g id="a_Node000013"><a xlink:href="neural_8c.html#a6466387dd7c533e0f15da4c2127bfd79" target="_top" xlink:title="Initialises and creates a new neural network from a parameter list.">
<polygon fill="white" stroke="#666666" points="588.5,-545 513.5,-545 513.5,-526 588.5,-526 588.5,-545"/>
<text text-anchor="middle" x="551" y="-533" font-family="Helvetica,sans-Serif" font-size="10.00">neural_create</text>
</a>
</g>
</g>
<!-- Node4&#45;&gt;Node13 -->
<g id="edge12_Node000004_Node000013" class="edge">
<title>Node4&#45;&gt;Node13</title>
<g id="a_edge12_Node000004_Node000013"><a xlink:title=" ">
<path fill="none" stroke="#63b8ff" d="M432.48,-383.15C437.44,-385.61 442.06,-388.68 446,-392.5 485.7,-430.94 443.83,-471.55 482,-511.5 487.97,-517.75 495.66,-522.37 503.71,-525.79"/>
<polygon fill="#63b8ff" stroke="#63b8ff" points="502.65,-529.13 513.25,-529.28 505.06,-522.55 502.65,-529.13"/>
</a>
</g>
</g>
<!-- Node17 -->
<g id="Node000017" class="node">
<title>Node17</title>
<g id="a_Node000017"><a xlink:href="neural_8c.html#ad70aee7c40f698d4be45e3d419051c2f" target="_top" xlink:title="Initialises an empty neural network.">
<polygon fill="white" stroke="#666666" points="746,-507 685,-507 685,-488 746,-488 746,-507"/>
<text text-anchor="middle" x="715.5" y="-495" font-family="Helvetica,sans-Serif" font-size="10.00">neural_init</text>
</a>
</g>
</g>
<!-- Node4&#45;&gt;Node17 -->
<g id="edge21_Node000004_Node000017" class="edge">
<title>Node4&#45;&gt;Node17</title>
<g id="a_edge21_Node000004_Node000017"><a xlink:title=" ">
<path fill="none" stroke="#63b8ff" d="M431.02,-383.09C436.45,-385.55 441.58,-388.64 446,-392.5 477.21,-419.76 448.47,-454.16 482,-478.5 538.6,-519.59 624.66,-513.89 674.66,-505.82"/>
<polygon fill="#63b8ff" stroke="#63b8ff" points="675.5,-509.23 684.76,-504.08 674.31,-502.33 675.5,-509.23"/>
</a>
</g>
</g>
<!-- Node20 -->
<g id="Node000020" class="node">
<title>Node20</title>
<g id="a_Node000020"><a xlink:href="neural_8c.html#a9c3e1da0425d0fc17daa12c21e4799ca" target="_top" xlink:title="Frees a neural network.">
<polygon fill="white" stroke="#666666" points="583.5,-469 518.5,-469 518.5,-450 583.5,-450 583.5,-469"/>
<text text-anchor="middle" x="551" y="-457" font-family="Helvetica,sans-Serif" font-size="10.00">neural_free</text>
</a>
</g>
</g>
<!-- Node4&#45;&gt;Node20 -->
<g id="edge19_Node000004_Node000020" class="edge">
<title>Node4&#45;&gt;Node20</title>
<g id="a_edge19_Node000004_Node000020"><a xlink:title=" ">
<path fill="none" stroke="#63b8ff" d="M427.19,-383.11C433.83,-385.57 440.29,-388.64 446,-392.5 468.09,-407.43 459.99,-425.45 482,-440.5 489.88,-445.89 499.25,-449.75 508.48,-452.53"/>
<polygon fill="#63b8ff" stroke="#63b8ff" points="507.81,-455.97 518.37,-455.13 509.59,-449.2 507.81,-455.97"/>
</a>
</g>
</g>
<!-- Node6 -->
<g id="Node000006" class="node">
<title>Node6</title>
<g id="a_Node000006"><a xlink:href="neural__activations_8c.html#a434ca6390662d569b5e002a9e2d82c1d" target="_top" xlink:title="Returns the name of a specified activation function.">
<polygon fill="white" stroke="#666666" points="775,-426 656,-426 656,-407 775,-407 775,-426"/>
<text text-anchor="middle" x="715.5" y="-414" font-family="Helvetica,sans-Serif" font-size="10.00">neural_activation_string</text>
</a>
</g>
</g>
<!-- Node5&#45;&gt;Node6 -->
<g id="edge5_Node000005_Node000006" class="edge">
<title>Node5&#45;&gt;Node6</title>
<g id="a_edge5_Node000005_Node000006"><a xlink:title=" ">
<path fill="none" stroke="#63b8ff" d="M609.75,-416.5C621.32,-416.5 633.59,-416.5 645.5,-416.5"/>
<polygon fill="#63b8ff" stroke="#63b8ff" points="645.84,-420 655.84,-416.5 645.84,-413 645.84,-420"/>
</a>
</g>
</g>
<!-- Node9 -->
<g id="Node000009" class="node">
<title>Node9</title>
<g id="a_Node000009"><a xlink:href="neural__layer_8c.html#ad1b7188119d0d96791ee0d87c105896a" target="_top" xlink:title="Returns a whether a layer type expects images as input.">
<polygon fill="white" stroke="#666666" points="773.5,-340 657.5,-340 657.5,-321 773.5,-321 773.5,-340"/>
<text text-anchor="middle" x="715.5" y="-328" font-family="Helvetica,sans-Serif" font-size="10.00">layer_receives_images</text>
</a>
</g>
</g>
<!-- Node8&#45;&gt;Node9 -->
<g id="edge8_Node000008_Node000009" class="edge">
<title>Node8&#45;&gt;Node9</title>
<g id="a_edge8_Node000008_Node000009"><a xlink:title=" ">
<path fill="none" stroke="#63b8ff" d="M609.75,-330.5C621.86,-330.5 634.74,-330.5 647.17,-330.5"/>
<polygon fill="#63b8ff" stroke="#63b8ff" points="647.48,-334 657.48,-330.5 647.48,-327 647.48,-334"/>
</a>
</g>
</g>
<!-- Node14 -->
<g id="Node000014" class="node">
<title>Node14</title>
<g id="a_Node000014"><a xlink:href="neural__layer_8h.html#aa969a46ce36513e683114c704f78a0b5" target="_top" xlink:title="Creates and initialises a new layer.">
<polygon fill="white" stroke="#666666" points="743.5,-581 687.5,-581 687.5,-562 743.5,-562 743.5,-581"/>
<text text-anchor="middle" x="715.5" y="-569" font-family="Helvetica,sans-Serif" font-size="10.00">layer_init</text>
</a>
</g>
</g>
<!-- Node13&#45;&gt;Node14 -->
<g id="edge13_Node000013_Node000014" class="edge">
<title>Node13&#45;&gt;Node14</title>
<g id="a_edge13_Node000013_Node000014"><a xlink:title=" ">
<path fill="none" stroke="#63b8ff" d="M588.87,-543.67C615.33,-549.53 650.83,-557.4 677.35,-563.27"/>
<polygon fill="#63b8ff" stroke="#63b8ff" points="676.87,-566.75 687.39,-565.49 678.39,-559.91 676.87,-566.75"/>
</a>
</g>
</g>
<!-- Node13&#45;&gt;Node17 -->
<g id="edge16_Node000013_Node000017" class="edge">
<title>Node13&#45;&gt;Node17</title>
<g id="a_edge16_Node000013_Node000017"><a xlink:title=" ">
<path fill="none" stroke="#63b8ff" d="M588.87,-526.88C614.5,-520.88 648.62,-512.9 674.84,-506.77"/>
<polygon fill="#63b8ff" stroke="#63b8ff" points="675.88,-510.13 684.82,-504.44 674.29,-503.31 675.88,-510.13"/>
</a>
</g>
</g>
<!-- Node18 -->
<g id="Node000018" class="node">
<title>Node18</title>
<g id="a_Node000018"><a xlink:href="neural_8c.html#a1c1c06446fc719b8293aade2ded8433c" target="_top" xlink:title="Inserts a layer at the head of a neural network.">
<polygon fill="white" stroke="#666666" points="750,-544 681,-544 681,-525 750,-525 750,-544"/>
<text text-anchor="middle" x="715.5" y="-532" font-family="Helvetica,sans-Serif" font-size="10.00">neural_push</text>
</a>
</g>
</g>
<!-- Node13&#45;&gt;Node18 -->
<g id="edge17_Node000013_Node000018" class="edge">
<title>Node13&#45;&gt;Node18</title>
<g id="a_edge17_Node000013_Node000018"><a xlink:title=" ">
<path fill="none" stroke="#63b8ff" d="M588.87,-535.27C613.15,-535.12 645.06,-534.93 670.64,-534.77"/>
<polygon fill="#63b8ff" stroke="#63b8ff" points="670.84,-538.27 680.82,-534.71 670.79,-531.27 670.84,-538.27"/>
</a>
</g>
</g>
<!-- Node15 -->
<g id="Node000015" class="node">
<title>Node15</title>
<g id="a_Node000015"><a xlink:href="neural__layer_8c.html#a21a8acbaa483c46984c4f5f20d4edf95" target="_top" xlink:title="Initialises a layer to default values.">
<polygon fill="white" stroke="#666666" points="888.5,-581 811.5,-581 811.5,-562 888.5,-562 888.5,-581"/>
<text text-anchor="middle" x="850" y="-569" font-family="Helvetica,sans-Serif" font-size="10.00">layer_defaults</text>
</a>
</g>
</g>
<!-- Node14&#45;&gt;Node15 -->
<g id="edge14_Node000014_Node000015" class="edge">
<title>Node14&#45;&gt;Node15</title>
<g id="a_edge14_Node000014_Node000015"><a xlink:title=" ">
<path fill="none" stroke="#63b8ff" d="M743.63,-571.5C760.19,-571.5 781.83,-571.5 801.18,-571.5"/>
<polygon fill="#63b8ff" stroke="#63b8ff" points="801.36,-575 811.36,-571.5 801.36,-568 801.36,-575"/>
</a>
</g>
</g>
<!-- Node16 -->
<g id="Node000016" class="node">
<title>Node16</title>
<g id="a_Node000016"><a xlink:href="neural__layer_8c.html#a786726dce503a14b3bdd88b1ab5c356f" target="_top" xlink:title="Sets a neural network layer&#39;s functions to the implementations.">
<polygon fill="white" stroke="#666666" points="889,-618 811,-618 811,-599 889,-599 889,-618"/>
<text text-anchor="middle" x="850" y="-606" font-family="Helvetica,sans-Serif" font-size="10.00">layer_set_vptr</text>
</a>
</g>
</g>
<!-- Node14&#45;&gt;Node16 -->
<g id="edge15_Node000014_Node000016" class="edge">
<title>Node14&#45;&gt;Node16</title>
<g id="a_edge15_Node000014_Node000016"><a xlink:title=" ">
<path fill="none" stroke="#63b8ff" d="M743.63,-579.08C761.33,-584.02 784.83,-590.58 805.15,-596.25"/>
<polygon fill="#63b8ff" stroke="#63b8ff" points="804.25,-599.64 814.82,-598.96 806.13,-592.9 804.25,-599.64"/>
</a>
</g>
</g>
<!-- Node19 -->
<g id="Node000019" class="node">
<title>Node19</title>
<g id="a_Node000019"><a xlink:href="neural_8c.html#afab574137fbf9da9a286d020917c8295" target="_top" xlink:title="Inserts a layer into a neural network.">
<polygon fill="white" stroke="#666666" points="886,-544 814,-544 814,-525 886,-525 886,-544"/>
<text text-anchor="middle" x="850" y="-532" font-family="Helvetica,sans-Serif" font-size="10.00">neural_insert</text>
</a>
</g>
</g>
<!-- Node18&#45;&gt;Node19 -->
<g id="edge18_Node000018_Node000019" class="edge">
<title>Node18&#45;&gt;Node19</title>
<g id="a_edge18_Node000018_Node000019"><a xlink:title=" ">
<path fill="none" stroke="#63b8ff" d="M750.28,-534.5C766.56,-534.5 786.31,-534.5 803.86,-534.5"/>
<polygon fill="#63b8ff" stroke="#63b8ff" points="803.9,-538 813.9,-534.5 803.9,-531 803.9,-538"/>
</a>
</g>
</g>
<!-- Node21 -->
<g id="Node000021" class="node">
<title>Node21</title>
<g id="a_Node000021"><a xlink:href="neural__layer_8h.html#a5ea2541eb1936ed851001c4a8b99b08f" target="_top" xlink:title="Frees the memory used by the layer.">
<polygon fill="white" stroke="#666666" points="745,-469 686,-469 686,-450 745,-450 745,-469"/>
<text text-anchor="middle" x="715.5" y="-457" font-family="Helvetica,sans-Serif" font-size="10.00">layer_free</text>
</a>
</g>
</g>
<!-- Node20&#45;&gt;Node21 -->
<g id="edge20_Node000020_Node000021" class="edge">
<title>Node20&#45;&gt;Node21</title>
<g id="a_edge20_Node000020_Node000021"><a xlink:title=" ">
<path fill="none" stroke="#63b8ff" d="M583.72,-459.5C610.01,-459.5 647.49,-459.5 675.59,-459.5"/>
<polygon fill="#63b8ff" stroke="#63b8ff" points="675.86,-463 685.86,-459.5 675.86,-456 675.86,-463"/>
</a>
</g>
</g>
<!-- Node22&#45;&gt;Node4 -->
<g id="edge30_Node000022_Node000004" class="edge">
<title>Node22&#45;&gt;Node4</title>
<g id="a_edge30_Node000022_Node000004"><a xlink:title=" ">
<path fill="none" stroke="#63b8ff" d="M213.12,-297.12C231.1,-311.54 267.23,-338.77 302,-354.5 307.29,-356.89 312.94,-359.03 318.66,-360.94"/>
<polygon fill="#63b8ff" stroke="#63b8ff" points="317.7,-364.31 328.29,-363.92 319.77,-357.62 317.7,-364.31"/>
</a>
</g>
</g>
<!-- Node23 -->
<g id="Node000023" class="node">
<title>Node23</title>
<g id="a_Node000023"><a xlink:href="cond__dgp_8c.html#a7e13c4942516df44b1f351caa8596804" target="_top" xlink:title="Returns a json formatted string of the DGP parameters.">
<polygon fill="white" stroke="#666666" points="431,-259.5 317,-259.5 317,-229.5 431,-229.5 431,-259.5"/>
<text text-anchor="start" x="325" y="-247.5" font-family="Helvetica,sans-Serif" font-size="10.00">cond_dgp_param_json</text>
<text text-anchor="middle" x="374" y="-236.5" font-family="Helvetica,sans-Serif" font-size="10.00">_export</text>
</a>
</g>
</g>
<!-- Node22&#45;&gt;Node23 -->
<g id="edge23_Node000022_Node000023" class="edge">
<title>Node22&#45;&gt;Node23</title>
<g id="a_edge23_Node000022_Node000023"><a xlink:title=" ">
<path fill="none" stroke="#63b8ff" d="M239.56,-277.96C259.33,-273 284.06,-266.8 306.84,-261.09"/>
<polygon fill="#63b8ff" stroke="#63b8ff" points="307.96,-264.42 316.81,-258.59 306.26,-257.63 307.96,-264.42"/>
</a>
</g>
</g>
<!-- Node25 -->
<g id="Node000025" class="node">
<title>Node25</title>
<g id="a_Node000025"><a xlink:href="cond__gp_8c.html#accc2f071ae6f822e0e5f220b6013be5a" target="_top" xlink:title="Returns a json formatted string of the tree GP parameters.">
<polygon fill="white" stroke="#666666" points="428.5,-211.5 319.5,-211.5 319.5,-181.5 428.5,-181.5 428.5,-211.5"/>
<text text-anchor="start" x="327.5" y="-199.5" font-family="Helvetica,sans-Serif" font-size="10.00">cond_gp_param_json</text>
<text text-anchor="middle" x="374" y="-188.5" font-family="Helvetica,sans-Serif" font-size="10.00">_export</text>
</a>
</g>
</g>
<!-- Node22&#45;&gt;Node25 -->
<g id="edge25_Node000022_Node000025" class="edge">
<title>Node22&#45;&gt;Node25</title>
<g id="a_edge25_Node000022_Node000025"><a xlink:title=" ">
<path fill="none" stroke="#63b8ff" d="M213.55,-277.93C231.8,-263.81 267.94,-237.25 302,-220.5 305.74,-218.66 309.66,-216.9 313.66,-215.24"/>
<polygon fill="#63b8ff" stroke="#63b8ff" points="315.04,-218.46 323.06,-211.53 312.47,-211.94 315.04,-218.46"/>
</a>
</g>
</g>
<!-- Node27 -->
<g id="Node000027" class="node">
<title>Node27</title>
<g id="a_Node000027"><a xlink:href="condition_8c.html#aa6c965be1f21dfe31ddcff8e737c156b" target="_top" xlink:title="Returns a json formatted string of the center&#45;spread parameters.">
<polygon fill="white" stroke="#666666" points="446,-420 302,-420 302,-401 446,-401 446,-420"/>
<text text-anchor="middle" x="374" y="-408" font-family="Helvetica,sans-Serif" font-size="10.00">cond_param_json_export_csr</text>
</a>
</g>
</g>
<!-- Node22&#45;&gt;Node27 -->
<g id="edge27_Node000022_Node000027" class="edge">
<title>Node22&#45;&gt;Node27</title>
<g id="a_edge27_Node000022_Node000027"><a xlink:title=" ">
<path fill="none" stroke="#63b8ff" d="M210.63,-297.1C235.12,-322.87 300.58,-391.67 302,-392.5 305,-394.25 308.17,-395.83 311.44,-397.26"/>
<polygon fill="#63b8ff" stroke="#63b8ff" points="310.26,-400.56 320.85,-400.9 312.79,-394.03 310.26,-400.56"/>
</a>
</g>
</g>
<!-- Node28 -->
<g id="Node000028" class="node">
<title>Node28</title>
<g id="a_Node000028"><a xlink:href="cond__ternary_8c.html#acc1e571360e4a0844afcad8077d134ba" target="_top" xlink:title="Returns a json formatted string of the ternary parameters.">
<polygon fill="white" stroke="#666666" points="426.5,-345.5 321.5,-345.5 321.5,-315.5 426.5,-315.5 426.5,-345.5"/>
<text text-anchor="start" x="329.5" y="-333.5" font-family="Helvetica,sans-Serif" font-size="10.00">cond_ternary_param</text>
<text text-anchor="middle" x="374" y="-322.5" font-family="Helvetica,sans-Serif" font-size="10.00">_json_export</text>
</a>
</g>
</g>
<!-- Node22&#45;&gt;Node28 -->
<g id="edge28_Node000022_Node000028" class="edge">
<title>Node22&#45;&gt;Node28</title>
<g id="a_edge28_Node000022_Node000028"><a xlink:title=" ">
<path fill="none" stroke="#63b8ff" d="M239.56,-297.04C260.72,-302.35 287.57,-309.08 311.62,-315.11"/>
<polygon fill="#63b8ff" stroke="#63b8ff" points="310.83,-318.52 321.38,-317.56 312.54,-311.73 310.83,-318.52"/>
</a>
</g>
</g>
<!-- Node29 -->
<g id="Node000029" class="node">
<title>Node29</title>
<g id="a_Node000029"><a xlink:href="condition_8c.html#aec601fad80ae7881897793c49d4d87cc" target="_top" xlink:title="Returns a string representation of a condition type from an integer.">
<polygon fill="white" stroke="#666666" points="436.5,-297 311.5,-297 311.5,-278 436.5,-278 436.5,-297"/>
<text text-anchor="middle" x="374" y="-285" font-family="Helvetica,sans-Serif" font-size="10.00">condition_type_as_string</text>
</a>
</g>
</g>
<!-- Node22&#45;&gt;Node29 -->
<g id="edge29_Node000022_Node000029" class="edge">
<title>Node22&#45;&gt;Node29</title>
<g id="a_edge29_Node000022_Node000029"><a xlink:title=" ">
<path fill="none" stroke="#63b8ff" d="M263.42,-287.5C275.76,-287.5 288.81,-287.5 301.44,-287.5"/>
<polygon fill="#63b8ff" stroke="#63b8ff" points="301.46,-291 311.46,-287.5 301.46,-284 301.46,-291"/>
</a>
</g>
</g>
<!-- Node24 -->
<g id="Node000024" class="node">
<title>Node24</title>
<g id="a_Node000024"><a xlink:href="dgp_8c.html#aa8a506a744d852413eb4392398019dc7" target="_top" xlink:title="Returns a json formatted string of the DGP parameters.">
<polygon fill="white" stroke="#666666" points="611,-212 491,-212 491,-193 611,-193 611,-212"/>
<text text-anchor="middle" x="551" y="-200" font-family="Helvetica,sans-Serif" font-size="10.00">graph_args_json_export</text>
</a>
</g>
</g>
<!-- Node23&#45;&gt;Node24 -->
<g id="edge24_Node000023_Node000024" class="edge">
<title>Node23&#45;&gt;Node24</title>
<g id="a_edge24_Node000023_Node000024"><a xlink:title=" ">
<path fill="none" stroke="#63b8ff" d="M431.33,-230.98C453.59,-225.64 478.94,-219.56 500.48,-214.39"/>
<polygon fill="#63b8ff" stroke="#63b8ff" points="501.49,-217.74 510.4,-212.01 499.86,-210.94 501.49,-217.74"/>
</a>
</g>
</g>
<!-- Node26 -->
<g id="Node000026" class="node">
<title>Node26</title>
<g id="a_Node000026"><a xlink:href="gp_8c.html#a02b9cab70165d2e0a4a376932cc2d2ed" target="_top" xlink:title="Returns a json formatted string of the GP tree parameters.">
<polygon fill="white" stroke="#666666" points="607.5,-175 494.5,-175 494.5,-156 607.5,-156 607.5,-175"/>
<text text-anchor="middle" x="551" y="-163" font-family="Helvetica,sans-Serif" font-size="10.00">tree_args_json_export</text>
</a>
</g>
</g>
<!-- Node25&#45;&gt;Node26 -->
<g id="edge26_Node000025_Node000026" class="edge">
<title>Node25&#45;&gt;Node26</title>
<g id="a_edge26_Node000025_Node000026"><a xlink:title=" ">
<path fill="none" stroke="#63b8ff" d="M428.93,-186.95C447.07,-183.73 467.47,-180.12 486.28,-176.79"/>
<polygon fill="#63b8ff" stroke="#63b8ff" points="487.01,-180.21 496.24,-175.02 485.79,-173.32 487.01,-180.21"/>
</a>
</g>
</g>
<!-- Node31 -->
<g id="Node000031" class="node">
<title>Node31</title>
<g id="a_Node000031"><a xlink:href="ea_8c.html#af6093a84bc749f8a81a716f91f300028" target="_top" xlink:title="Returns a string representation of an EA select type from an integer.">
<polygon fill="white" stroke="#666666" points="422,-19 326,-19 326,0 422,0 422,-19"/>
<text text-anchor="middle" x="374" y="-7" font-family="Helvetica,sans-Serif" font-size="10.00">ea_type_as_string</text>
</a>
</g>
</g>
<!-- Node30&#45;&gt;Node31 -->
<g id="edge32_Node000030_Node000031" class="edge">
<title>Node30&#45;&gt;Node31</title>
<g id="a_edge32_Node000030_Node000031"><a xlink:title=" ">
<path fill="none" stroke="#63b8ff" d="M251.7,-101.87C256.82,-99.64 261.71,-96.89 266,-93.5 291.91,-73.03 275.98,-48.83 302,-28.5 306.34,-25.11 311.23,-22.33 316.36,-20.04"/>
<polygon fill="#63b8ff" stroke="#63b8ff" points="317.71,-23.27 325.8,-16.43 315.21,-16.73 317.71,-23.27"/>
</a>
</g>
</g>
<!-- Node33&#45;&gt;Node4 -->
<g id="edge35_Node000033_Node000004" class="edge">
<title>Node33&#45;&gt;Node4</title>
<g id="a_edge35_Node000033_Node000004"><a xlink:title=" ">
<path fill="none" stroke="#63b8ff" d="M206.98,-158.07C218.5,-178.34 245.81,-227.17 266,-269.5 283.67,-306.53 271.04,-327.58 302,-354.5 303.94,-356.19 306.01,-357.72 308.18,-359.13"/>
<polygon fill="#63b8ff" stroke="#63b8ff" points="306.53,-362.21 316.99,-363.9 309.87,-356.06 306.53,-362.21"/>
</a>
</g>
</g>
<!-- Node34 -->
<g id="Node000034" class="node">
<title>Node34</title>
<g id="a_Node000034"><a xlink:href="pred__nlms_8c.html#a17c4c63005d55fcd9a34b4e854950fb9" target="_top" xlink:title="Returns a json formatted string of the NLMS parameters.">
<polygon fill="white" stroke="#666666" points="432.5,-163.5 315.5,-163.5 315.5,-133.5 432.5,-133.5 432.5,-163.5"/>
<text text-anchor="start" x="323.5" y="-151.5" font-family="Helvetica,sans-Serif" font-size="10.00">pred_nlms_param_json</text>
<text text-anchor="middle" x="374" y="-140.5" font-family="Helvetica,sans-Serif" font-size="10.00">_export</text>
</a>
</g>
</g>
<!-- Node33&#45;&gt;Node34 -->
<g id="edge36_Node000033_Node000034" class="edge">
<title>Node33&#45;&gt;Node34</title>
<g id="a_edge36_Node000033_Node000034"><a xlink:title=" ">
<path fill="none" stroke="#63b8ff" d="M262.45,-148.5C276.32,-148.5 291.13,-148.5 305.26,-148.5"/>
<polygon fill="#63b8ff" stroke="#63b8ff" points="305.41,-152 315.41,-148.5 305.41,-145 305.41,-152"/>
</a>
</g>
</g>
<!-- Node35 -->
<g id="Node000035" class="node">
<title>Node35</title>
<g id="a_Node000035"><a xlink:href="pred__rls_8c.html#ab12685383e9295a53ec47c7d66559844" target="_top" xlink:title="Returns a json formatted string of the RLS parameters.">
<polygon fill="white" stroke="#666666" points="427.5,-115.5 320.5,-115.5 320.5,-85.5 427.5,-85.5 427.5,-115.5"/>
<text text-anchor="start" x="328.5" y="-103.5" font-family="Helvetica,sans-Serif" font-size="10.00">pred_rls_param_json</text>
<text text-anchor="middle" x="374" y="-92.5" font-family="Helvetica,sans-Serif" font-size="10.00">_export</text>
</a>
</g>
</g>
<!-- Node33&#45;&gt;Node35 -->
<g id="edge37_Node000033_Node000035" class="edge">
<title>Node33&#45;&gt;Node35</title>
<g id="a_edge37_Node000033_Node000035"><a xlink:title=" ">
<path fill="none" stroke="#63b8ff" d="M235.65,-138.98C245.45,-136.24 256.15,-133.26 266,-130.5 280.42,-126.47 295.92,-122.12 310.54,-118.03"/>
<polygon fill="#63b8ff" stroke="#63b8ff" points="311.8,-121.31 320.49,-115.24 309.91,-114.57 311.8,-121.31"/>
</a>
</g>
</g>
<!-- Node36 -->
<g id="Node000036" class="node">
<title>Node36</title>
<g id="a_Node000036"><a xlink:href="prediction_8c.html#aef1e7511eb94c9d099a764fa6b1a78d6" target="_top" xlink:title="Returns a string representation of a prediction type from the integer.">
<polygon fill="white" stroke="#666666" points="423,-67.5 325,-67.5 325,-37.5 423,-37.5 423,-67.5"/>
<text text-anchor="start" x="333" y="-55.5" font-family="Helvetica,sans-Serif" font-size="10.00">prediction_type_as</text>
<text text-anchor="middle" x="374" y="-44.5" font-family="Helvetica,sans-Serif" font-size="10.00">_string</text>
</a>
</g>
</g>
<!-- Node33&#45;&gt;Node36 -->
<g id="edge38_Node000033_Node000036" class="edge">
<title>Node33&#45;&gt;Node36</title>
<g id="a_edge38_Node000033_Node000036"><a xlink:title=" ">
<path fill="none" stroke="#63b8ff" d="M250.44,-138.92C255.97,-136.68 261.29,-133.91 266,-130.5 289.35,-113.57 279.11,-94.06 302,-76.5 306.15,-73.31 310.75,-70.54 315.56,-68.12"/>
<polygon fill="#63b8ff" stroke="#63b8ff" points="317.29,-71.18 324.98,-63.9 314.43,-64.79 317.29,-71.18"/>
</a>
</g>
</g>
</g>
</svg>
