<?xml version="1.0" encoding="UTF-8" standalone="no"?>
<!DOCTYPE svg PUBLIC "-//W3C//DTD SVG 1.1//EN"
 "http://www.w3.org/Graphics/SVG/1.1/DTD/svg11.dtd">
<!-- Generated by graphviz version 2.43.0 (0)
 -->
<!-- Title: param_set_loss_func Pages: 1 -->
<svg width="446pt" height="256pt"
 viewBox="0.00 0.00 446.00 256.00" xmlns="http://www.w3.org/2000/svg" xmlns:xlink="http://www.w3.org/1999/xlink">
<g id="graph0" class="graph" transform="scale(1 1) rotate(0) translate(4 252)">
<title>param_set_loss_func</title>
<!-- Node1 -->
<g id="node1" class="node">
<title>Node1</title>
<g id="a_node1"><a xlink:title=" ">
<polygon fill="#bfbfbf" stroke="black" points="0,-114.5 0,-133.5 110,-133.5 110,-114.5 0,-114.5"/>
<text text-anchor="middle" x="55" y="-121.5" font-family="Helvetica,sans-Serif" font-size="10.00">param_set_loss_func</text>
</a>
</g>
</g>
<!-- Node2 -->
<g id="node2" class="node">
<title>Node2</title>
<g id="a_node2"><a xlink:href="loss_8c.html#a440b847b0f4edd503b919d3bebecd66c" target="_top" xlink:title="Sets the XCSF error function to the implemented function.">
<polygon fill="none" stroke="black" points="146,-114.5 146,-133.5 223,-133.5 223,-114.5 146,-114.5"/>
<text text-anchor="middle" x="184.5" y="-121.5" font-family="Helvetica,sans-Serif" font-size="10.00">loss_set_func</text>
</a>
</g>
</g>
<!-- Node1&#45;&gt;Node2 -->
<g id="edge1" class="edge">
<title>Node1&#45;&gt;Node2</title>
<path fill="none" stroke="midnightblue" d="M110.07,-124C118.66,-124 127.49,-124 135.91,-124"/>
<polygon fill="midnightblue" stroke="midnightblue" points="135.95,-127.5 145.95,-124 135.95,-120.5 135.95,-127.5"/>
</g>
<!-- Node3 -->
<g id="node3" class="node">
<title>Node3</title>
<g id="a_node3"><a xlink:href="loss_8c.html#a2687b111bc407194c64e07e2b933bb3c" target="_top" xlink:title="Binary logistic log loss for binary&#45;class classification.">
<polygon fill="none" stroke="black" points="259,-228.5 259,-247.5 343,-247.5 343,-228.5 259,-228.5"/>
<text text-anchor="middle" x="301" y="-235.5" font-family="Helvetica,sans-Serif" font-size="10.00">loss_binary_log</text>
</a>
</g>
</g>
<!-- Node2&#45;&gt;Node3 -->
<g id="edge2" class="edge">
<title>Node2&#45;&gt;Node3</title>
<path fill="none" stroke="midnightblue" d="M190.78,-133.58C201.47,-152.23 227.37,-193.78 259,-219 260.99,-220.58 263.13,-222.07 265.35,-223.46"/>
<polygon fill="midnightblue" stroke="midnightblue" points="263.73,-226.57 274.18,-228.33 267.11,-220.44 263.73,-226.57"/>
</g>
<!-- Node4 -->
<g id="node4" class="node">
<title>Node4</title>
<g id="a_node4"><a xlink:href="loss_8c.html#adf5bc1e947369774d48b0355dbdbcc30" target="_top" xlink:title="Huber loss function.">
<polygon fill="none" stroke="black" points="269,-190.5 269,-209.5 333,-209.5 333,-190.5 269,-190.5"/>
<text text-anchor="middle" x="301" y="-197.5" font-family="Helvetica,sans-Serif" font-size="10.00">loss_huber</text>
</a>
</g>
</g>
<!-- Node2&#45;&gt;Node4 -->
<g id="edge3" class="edge">
<title>Node2&#45;&gt;Node4</title>
<path fill="none" stroke="midnightblue" d="M196.38,-133.72C210.25,-145.79 235.28,-166.56 259,-181 261.81,-182.71 264.81,-184.38 267.85,-185.96"/>
<polygon fill="midnightblue" stroke="midnightblue" points="266.45,-189.17 276.97,-190.43 269.53,-182.89 266.45,-189.17"/>
</g>
<!-- Node5 -->
<g id="node5" class="node">
<title>Node5</title>
<g id="a_node5"><a xlink:href="loss_8c.html#a5b0fc07896aaa302b61213c450874d49" target="_top" xlink:title="Logistic log loss for multi&#45;class classification.">
<polygon fill="none" stroke="black" points="274.5,-152.5 274.5,-171.5 327.5,-171.5 327.5,-152.5 274.5,-152.5"/>
<text text-anchor="middle" x="301" y="-159.5" font-family="Helvetica,sans-Serif" font-size="10.00">loss_log</text>
</a>
</g>
</g>
<!-- Node2&#45;&gt;Node5 -->
<g id="edge4" class="edge">
<title>Node2&#45;&gt;Node5</title>
<path fill="none" stroke="midnightblue" d="M214.39,-133.59C229.65,-138.65 248.49,-144.9 264.61,-150.26"/>
<polygon fill="midnightblue" stroke="midnightblue" points="263.65,-153.62 274.24,-153.45 265.85,-146.98 263.65,-153.62"/>
</g>
<!-- Node6 -->
<g id="node6" class="node">
<title>Node6</title>
<g id="a_node6"><a xlink:href="loss_8c.html#a7f1e236d219a5f551408639674b4a24a" target="_top" xlink:title="Mean absolute error loss function.">
<polygon fill="none" stroke="black" points="271.5,-114.5 271.5,-133.5 330.5,-133.5 330.5,-114.5 271.5,-114.5"/>
<text text-anchor="middle" x="301" y="-121.5" font-family="Helvetica,sans-Serif" font-size="10.00">loss_mae</text>
</a>
</g>
</g>
<!-- Node2&#45;&gt;Node6 -->
<g id="edge5" class="edge">
<title>Node2&#45;&gt;Node6</title>
<path fill="none" stroke="midnightblue" d="M223.31,-124C235.4,-124 248.8,-124 260.98,-124"/>
<polygon fill="midnightblue" stroke="midnightblue" points="261.3,-127.5 271.3,-124 261.3,-120.5 261.3,-127.5"/>
</g>
<!-- Node7 -->
<g id="node7" class="node">
<title>Node7</title>
<g id="a_node7"><a xlink:href="loss_8c.html#aaeed4518371c4e75de20532e3a6aa601" target="_top" xlink:title="Mean squared error loss function.">
<polygon fill="none" stroke="black" points="379,-57.5 379,-76.5 438,-76.5 438,-57.5 379,-57.5"/>
<text text-anchor="middle" x="408.5" y="-64.5" font-family="Helvetica,sans-Serif" font-size="10.00">loss_mse</text>
</a>
</g>
</g>
<!-- Node2&#45;&gt;Node7 -->
<g id="edge6" class="edge">
<title>Node2&#45;&gt;Node7</title>
<path fill="none" stroke="midnightblue" d="M222.51,-114.41C234.18,-111.4 247.13,-108.05 259,-105 296.23,-95.42 338.74,-84.55 368.7,-76.9"/>
<polygon fill="midnightblue" stroke="midnightblue" points="369.93,-80.2 378.75,-74.33 368.19,-73.42 369.93,-80.2"/>
</g>
<!-- Node8 -->
<g id="node8" class="node">
<title>Node8</title>
<g id="a_node8"><a xlink:href="loss_8c.html#a38e786a5c46be2519aae23287c92cc23" target="_top" xlink:title="One&#45;hot classification error.">
<polygon fill="none" stroke="black" points="266.5,-0.5 266.5,-19.5 335.5,-19.5 335.5,-0.5 266.5,-0.5"/>
<text text-anchor="middle" x="301" y="-7.5" font-family="Helvetica,sans-Serif" font-size="10.00">loss_onehot</text>
</a>
</g>
</g>
<!-- Node2&#45;&gt;Node8 -->
<g id="edge7" class="edge">
<title>Node2&#45;&gt;Node8</title>
<path fill="none" stroke="midnightblue" d="M190.78,-114.42C201.47,-95.77 227.37,-54.22 259,-29 260.99,-27.42 263.13,-25.93 265.35,-24.54"/>
<polygon fill="midnightblue" stroke="midnightblue" points="267.11,-27.56 274.18,-19.67 263.73,-21.43 267.11,-27.56"/>
</g>
<!-- Node10 -->
<g id="node10" class="node">
<title>Node10</title>
<g id="a_node10"><a xlink:href="loss_8c.html#a3278a1ba45bd0ccbf39e25bde1562f8f" target="_top" xlink:title="Root mean squared error loss function.">
<polygon fill="none" stroke="black" points="270,-38.5 270,-57.5 332,-57.5 332,-38.5 270,-38.5"/>
<text text-anchor="middle" x="301" y="-45.5" font-family="Helvetica,sans-Serif" font-size="10.00">loss_rmse</text>
</a>
</g>
</g>
<!-- Node2&#45;&gt;Node10 -->
<g id="edge9" class="edge">
<title>Node2&#45;&gt;Node10</title>
<path fill="none" stroke="midnightblue" d="M198.28,-114.45C212.76,-103.75 237.19,-86.06 259,-72 263.77,-68.93 268.93,-65.77 273.93,-62.81"/>
<polygon fill="midnightblue" stroke="midnightblue" points="275.77,-65.78 282.64,-57.72 272.24,-59.74 275.77,-65.78"/>
</g>
<!-- Node9 -->
<g id="node9" class="node">
<title>Node9</title>
<g id="a_node9"><a xlink:href="utils_8h.html#ae85373ce85c9be81cf1456fb58478274" target="_top" xlink:title="Returns the index of the largest element in vector X.">
<polygon fill="none" stroke="black" points="384,-0.5 384,-19.5 433,-19.5 433,-0.5 384,-0.5"/>
<text text-anchor="middle" x="408.5" y="-7.5" font-family="Helvetica,sans-Serif" font-size="10.00">argmax</text>
</a>
</g>
</g>
<!-- Node8&#45;&gt;Node9 -->
<g id="edge8" class="edge">
<title>Node8&#45;&gt;Node9</title>
<path fill="none" stroke="midnightblue" d="M335.67,-10C347.8,-10 361.48,-10 373.62,-10"/>
<polygon fill="midnightblue" stroke="midnightblue" points="373.82,-13.5 383.82,-10 373.82,-6.5 373.82,-13.5"/>
</g>
<!-- Node10&#45;&gt;Node7 -->
<g id="edge10" class="edge">
<title>Node10&#45;&gt;Node7</title>
<path fill="none" stroke="midnightblue" d="M332.23,-53.44C343.53,-55.48 356.53,-57.82 368.52,-59.98"/>
<polygon fill="midnightblue" stroke="midnightblue" points="368.25,-63.49 378.72,-61.82 369.49,-56.6 368.25,-63.49"/>
</g>
</g>
</svg>
