<?xml version="1.0" encoding="UTF-8" standalone="no"?>
<!DOCTYPE svg PUBLIC "-//W3C//DTD SVG 1.1//EN"
 "http://www.w3.org/Graphics/SVG/1.1/DTD/svg11.dtd">
<!-- Generated by graphviz version 2.43.0 (0)
 -->
<!-- Title: param_set_beta Pages: 1 -->
<svg width="784pt" height="218pt"
 viewBox="0.00 0.00 784.00 218.00" xmlns="http://www.w3.org/2000/svg" xmlns:xlink="http://www.w3.org/1999/xlink">
<g id="graph0" class="graph" transform="scale(1 1) rotate(0) translate(4 214)">
<title>param_set_beta</title>
<!-- Node1 -->
<g id="node1" class="node">
<title>Node1</title>
<g id="a_node1"><a xlink:title=" ">
<polygon fill="#bfbfbf" stroke="black" points="690,-95.5 690,-114.5 776,-114.5 776,-95.5 690,-95.5"/>
<text text-anchor="middle" x="733" y="-102.5" font-family="Helvetica,sans-Serif" font-size="10.00">param_set_beta</text>
</a>
</g>
</g>
<!-- Node2 -->
<g id="node2" class="node">
<title>Node2</title>
<g id="a_node2"><a xlink:href="config_8c.html#a901348ae6930989b225a6e1bdfa8a865" target="_top" xlink:title="Sets general classifier parameters.">
<polygon fill="none" stroke="black" points="575,-161.5 575,-180.5 652,-180.5 652,-161.5 575,-161.5"/>
<text text-anchor="middle" x="613.5" y="-168.5" font-family="Helvetica,sans-Serif" font-size="10.00">config_cl_gen</text>
</a>
</g>
</g>
<!-- Node1&#45;&gt;Node2 -->
<g id="edge1" class="edge">
<title>Node1&#45;&gt;Node2</title>
<path fill="none" stroke="midnightblue" d="M706.16,-119.52C683.5,-132.25 651.19,-150.39 631.61,-161.39"/>
<polygon fill="midnightblue" stroke="midnightblue" points="707.91,-122.55 714.91,-114.6 704.48,-116.44 707.91,-122.55"/>
</g>
<!-- Node8 -->
<g id="node8" class="node">
<title>Node8</title>
<g id="a_node8"><a xlink:href="param_8h.html#ac8218a170803be0bcd974764e7494b0e" target="_top" xlink:title="Initialises default XCSF parameters.">
<polygon fill="none" stroke="black" points="582.5,-95.5 582.5,-114.5 644.5,-114.5 644.5,-95.5 582.5,-95.5"/>
<text text-anchor="middle" x="613.5" y="-102.5" font-family="Helvetica,sans-Serif" font-size="10.00">param_init</text>
</a>
</g>
</g>
<!-- Node1&#45;&gt;Node8 -->
<g id="edge7" class="edge">
<title>Node1&#45;&gt;Node8</title>
<path fill="none" stroke="midnightblue" d="M679.88,-105C667.77,-105 655.28,-105 644.51,-105"/>
<polygon fill="midnightblue" stroke="midnightblue" points="679.91,-108.5 689.91,-105 679.91,-101.5 679.91,-108.5"/>
</g>
<!-- Node14 -->
<g id="node14" class="node">
<title>Node14</title>
<g id="a_node14"><a xlink:href="classXCS.html#af41c1ed2dfa947ed08cb6a516288ff17" target="_top" xlink:title=" ">
<polygon fill="none" stroke="black" points="573,-38.5 573,-57.5 654,-57.5 654,-38.5 573,-38.5"/>
<text text-anchor="middle" x="613.5" y="-45.5" font-family="Helvetica,sans-Serif" font-size="10.00">XCS::set_beta</text>
</a>
</g>
</g>
<!-- Node1&#45;&gt;Node14 -->
<g id="edge16" class="edge">
<title>Node1&#45;&gt;Node14</title>
<path fill="none" stroke="midnightblue" d="M703.06,-90.96C681.66,-80.58 653.06,-66.71 634.23,-57.57"/>
<polygon fill="midnightblue" stroke="midnightblue" points="701.81,-94.24 712.33,-95.46 704.86,-87.95 701.81,-94.24"/>
</g>
<!-- Node3 -->
<g id="node3" class="node">
<title>Node3</title>
<g id="a_node3"><a xlink:href="config_8c.html#a0f0fcad0b6090da01e5bd58b77d98787" target="_top" xlink:title="Sets specified parameter.">
<polygon fill="none" stroke="black" points="432.5,-190.5 432.5,-209.5 528.5,-209.5 528.5,-190.5 432.5,-190.5"/>
<text text-anchor="middle" x="480.5" y="-197.5" font-family="Helvetica,sans-Serif" font-size="10.00">config_add_param</text>
</a>
</g>
</g>
<!-- Node2&#45;&gt;Node3 -->
<g id="edge2" class="edge">
<title>Node2&#45;&gt;Node3</title>
<path fill="none" stroke="midnightblue" d="M565.09,-181.5C551.86,-184.42 537.56,-187.59 524.59,-190.46"/>
<polygon fill="midnightblue" stroke="midnightblue" points="565.95,-184.89 574.96,-179.31 564.44,-178.05 565.95,-184.89"/>
</g>
<!-- Node4 -->
<g id="node4" class="node">
<title>Node4</title>
<g id="a_node4"><a xlink:href="config_8c.html#a5b96815b9ebb26a8fc7bcc30a75ab36d" target="_top" xlink:title="Adds a parameter to the list.">
<polygon fill="none" stroke="black" points="296,-188.5 296,-207.5 388,-207.5 388,-188.5 296,-188.5"/>
<text text-anchor="middle" x="342" y="-195.5" font-family="Helvetica,sans-Serif" font-size="10.00">config_newnvpair</text>
</a>
</g>
</g>
<!-- Node3&#45;&gt;Node4 -->
<g id="edge3" class="edge">
<title>Node3&#45;&gt;Node4</title>
<path fill="none" stroke="midnightblue" d="M422,-199.16C410.79,-198.99 399.19,-198.82 388.43,-198.67"/>
<polygon fill="midnightblue" stroke="midnightblue" points="422.09,-202.66 432.14,-199.31 422.19,-195.66 422.09,-202.66"/>
</g>
<!-- Node5 -->
<g id="node5" class="node">
<title>Node5</title>
<g id="a_node5"><a xlink:href="config_8c.html#a01c178cc1587140f60ecf27291a2032a" target="_top" xlink:title="Parses a line of the config file and adds to the list.">
<polygon fill="none" stroke="black" points="177,-186.5 177,-205.5 260,-205.5 260,-186.5 177,-186.5"/>
<text text-anchor="middle" x="218.5" y="-193.5" font-family="Helvetica,sans-Serif" font-size="10.00">config_process</text>
</a>
</g>
</g>
<!-- Node4&#45;&gt;Node5 -->
<g id="edge4" class="edge">
<title>Node4&#45;&gt;Node5</title>
<path fill="none" stroke="midnightblue" d="M285.54,-197.09C277.06,-196.95 268.45,-196.81 260.37,-196.67"/>
<polygon fill="midnightblue" stroke="midnightblue" points="285.7,-200.59 295.76,-197.26 285.82,-193.59 285.7,-200.59"/>
</g>
<!-- Node6 -->
<g id="node6" class="node">
<title>Node6</title>
<g id="a_node6"><a xlink:href="config_8h.html#a045a64a30d99a4bef2ebfd9b54aa9698" target="_top" xlink:title="Reads the specified configuration file.">
<polygon fill="none" stroke="black" points="74,-181.5 74,-200.5 141,-200.5 141,-181.5 74,-181.5"/>
<text text-anchor="middle" x="107.5" y="-188.5" font-family="Helvetica,sans-Serif" font-size="10.00">config_read</text>
</a>
</g>
</g>
<!-- Node5&#45;&gt;Node6 -->
<g id="edge5" class="edge">
<title>Node5&#45;&gt;Node6</title>
<path fill="none" stroke="midnightblue" d="M166.84,-193.68C158.16,-193.28 149.35,-192.87 141.3,-192.5"/>
<polygon fill="midnightblue" stroke="midnightblue" points="166.76,-197.18 176.91,-194.14 167.08,-190.18 166.76,-197.18"/>
</g>
<!-- Node7 -->
<g id="node7" class="node">
<title>Node7</title>
<g id="a_node7"><a xlink:href="main_8c.html#a3c04138a5bfe5d72780bb7e82a18e627" target="_top" xlink:title=" ">
<polygon fill="none" stroke="black" points="0,-153.5 0,-172.5 38,-172.5 38,-153.5 0,-153.5"/>
<text text-anchor="middle" x="19" y="-160.5" font-family="Helvetica,sans-Serif" font-size="10.00">main</text>
</a>
</g>
</g>
<!-- Node6&#45;&gt;Node7 -->
<g id="edge6" class="edge">
<title>Node6&#45;&gt;Node7</title>
<path fill="none" stroke="midnightblue" d="M67.19,-178.28C57.08,-175 46.67,-171.63 38.21,-168.89"/>
<polygon fill="midnightblue" stroke="midnightblue" points="66.14,-181.61 76.73,-181.36 68.3,-174.95 66.14,-181.61"/>
</g>
<!-- Node9 -->
<g id="node9" class="node">
<title>Node9</title>
<g id="a_node9"><a xlink:href="env__csv_8h.html#ab26a39a388f0ac83b9ac14726ad14b16" target="_top" xlink:title="Initialises a CSV input environment from a specified filename.">
<polygon fill="none" stroke="black" points="445,-152.5 445,-171.5 516,-171.5 516,-152.5 445,-152.5"/>
<text text-anchor="middle" x="480.5" y="-159.5" font-family="Helvetica,sans-Serif" font-size="10.00">env_csv_init</text>
</a>
</g>
</g>
<!-- Node8&#45;&gt;Node9 -->
<g id="edge8" class="edge">
<title>Node8&#45;&gt;Node9</title>
<path fill="none" stroke="midnightblue" d="M585.9,-119.5C571.63,-127 553.6,-136.02 537,-143 528.93,-146.4 520.01,-149.65 511.74,-152.48"/>
<polygon fill="midnightblue" stroke="midnightblue" points="587.94,-122.39 595.12,-114.6 584.65,-116.21 587.94,-122.39"/>
</g>
<!-- Node11 -->
<g id="node11" class="node">
<title>Node11</title>
<g id="a_node11"><a xlink:href="env__maze_8h.html#acad3cc6e9fe2b7e07e878f1f517ad3a6" target="_top" xlink:title="Initialises a maze environment from a specified file.">
<polygon fill="none" stroke="black" points="440.5,-114.5 440.5,-133.5 520.5,-133.5 520.5,-114.5 440.5,-114.5"/>
<text text-anchor="middle" x="480.5" y="-121.5" font-family="Helvetica,sans-Serif" font-size="10.00">env_maze_init</text>
</a>
</g>
</g>
<!-- Node8&#45;&gt;Node11 -->
<g id="edge11" class="edge">
<title>Node8&#45;&gt;Node11</title>
<path fill="none" stroke="midnightblue" d="M572.13,-110.85C555.82,-113.22 537.06,-115.94 520.86,-118.29"/>
<polygon fill="midnightblue" stroke="midnightblue" points="573.05,-114.26 582.45,-109.36 572.05,-107.33 573.05,-114.26"/>
</g>
<!-- Node12 -->
<g id="node12" class="node">
<title>Node12</title>
<g id="a_node12"><a xlink:href="env__mux_8h.html#acc5dab817235c6910ba43b9dc4158ccd" target="_top" xlink:title="Initialises a real multiplexer environment of specified length.">
<polygon fill="none" stroke="black" points="443.5,-76.5 443.5,-95.5 517.5,-95.5 517.5,-76.5 443.5,-76.5"/>
<text text-anchor="middle" x="480.5" y="-83.5" font-family="Helvetica,sans-Serif" font-size="10.00">env_mux_init</text>
</a>
</g>
</g>
<!-- Node8&#45;&gt;Node12 -->
<g id="edge13" class="edge">
<title>Node8&#45;&gt;Node12</title>
<path fill="none" stroke="midnightblue" d="M572.09,-99.14C554.81,-96.63 534.77,-93.73 517.95,-91.29"/>
<polygon fill="midnightblue" stroke="midnightblue" points="572.05,-102.67 582.45,-100.64 573.05,-95.74 572.05,-102.67"/>
</g>
<!-- Node13 -->
<g id="node13" class="node">
<title>Node13</title>
<g id="a_node13"><a xlink:href="classXCS.html#af1010afd63843f86ad1dd81fade9bd72" target="_top" xlink:title="Constructor.">
<polygon fill="none" stroke="black" points="448,-38.5 448,-57.5 513,-57.5 513,-38.5 448,-38.5"/>
<text text-anchor="middle" x="480.5" y="-45.5" font-family="Helvetica,sans-Serif" font-size="10.00">XCS::XCS</text>
</a>
</g>
</g>
<!-- Node8&#45;&gt;Node13 -->
<g id="edge15" class="edge">
<title>Node8&#45;&gt;Node13</title>
<path fill="none" stroke="midnightblue" d="M585.9,-90.5C571.63,-83 553.6,-73.98 537,-67 528.93,-63.6 520.01,-60.35 511.74,-57.52"/>
<polygon fill="midnightblue" stroke="midnightblue" points="584.65,-93.79 595.12,-95.4 587.94,-87.61 584.65,-93.79"/>
</g>
<!-- Node10 -->
<g id="node10" class="node">
<title>Node10</title>
<g id="a_node10"><a xlink:href="env_8h.html#a9213fcf5fc422d6a77bce853b1d78dc9" target="_top" xlink:title="Initialises a built&#45;in problem environment.">
<polygon fill="none" stroke="black" points="317,-115.5 317,-134.5 367,-134.5 367,-115.5 317,-115.5"/>
<text text-anchor="middle" x="342" y="-122.5" font-family="Helvetica,sans-Serif" font-size="10.00">env_init</text>
</a>
</g>
</g>
<!-- Node9&#45;&gt;Node10 -->
<g id="edge9" class="edge">
<title>Node9&#45;&gt;Node10</title>
<path fill="none" stroke="midnightblue" d="M435.02,-149.94C412.55,-143.85 386.15,-136.7 367.4,-131.62"/>
<polygon fill="midnightblue" stroke="midnightblue" points="434.13,-153.33 444.7,-152.57 435.97,-146.57 434.13,-153.33"/>
</g>
<!-- Node10&#45;&gt;Node7 -->
<g id="edge10" class="edge">
<title>Node10&#45;&gt;Node7</title>
<path fill="none" stroke="midnightblue" d="M306.73,-129.06C238.98,-137.08 90.02,-154.71 38.2,-160.85"/>
<polygon fill="midnightblue" stroke="midnightblue" points="307.35,-132.51 316.87,-127.86 306.53,-125.56 307.35,-132.51"/>
</g>
<!-- Node11&#45;&gt;Node10 -->
<g id="edge12" class="edge">
<title>Node11&#45;&gt;Node10</title>
<path fill="none" stroke="midnightblue" d="M430.11,-124.36C408.67,-124.52 384.53,-124.7 367.11,-124.82"/>
<polygon fill="midnightblue" stroke="midnightblue" points="430.41,-127.86 440.38,-124.29 430.36,-120.86 430.41,-127.86"/>
</g>
<!-- Node12&#45;&gt;Node10 -->
<g id="edge14" class="edge">
<title>Node12&#45;&gt;Node10</title>
<path fill="none" stroke="midnightblue" d="M436.28,-98.35C413.4,-104.88 386.17,-112.66 367.06,-118.13"/>
<polygon fill="midnightblue" stroke="midnightblue" points="437.45,-101.65 446.11,-95.54 435.53,-94.92 437.45,-101.65"/>
</g>
<!-- Node15 -->
<g id="node15" class="node">
<title>Node15</title>
<g id="a_node15"><a xlink:href="pybind__wrapper_8cpp.html#a269acb618355873dacf057083f07eb58" target="_top" xlink:title=" ">
<polygon fill="none" stroke="black" points="424,-0.5 424,-19.5 537,-19.5 537,-0.5 424,-0.5"/>
<text text-anchor="middle" x="480.5" y="-7.5" font-family="Helvetica,sans-Serif" font-size="10.00">pybind11_init_wrapper</text>
</a>
</g>
</g>
<!-- Node14&#45;&gt;Node15 -->
<g id="edge17" class="edge">
<title>Node14&#45;&gt;Node15</title>
<path fill="none" stroke="midnightblue" d="M569.79,-35.61C551.85,-30.41 531.3,-24.45 514.55,-19.59"/>
<polygon fill="midnightblue" stroke="midnightblue" points="568.86,-38.99 579.44,-38.41 570.81,-32.26 568.86,-38.99"/>
</g>
</g>
</svg>
