<?xml version="1.0" encoding="UTF-8" standalone="no"?>
<!DOCTYPE svg PUBLIC "-//W3C//DTD SVG 1.1//EN"
 "http://www.w3.org/Graphics/SVG/1.1/DTD/svg11.dtd">
<!-- Generated by graphviz version 2.43.0 (0)
 -->
<!-- Title: param_set_explore Pages: 1 -->
<svg width="688pt" height="293pt"
 viewBox="0.00 0.00 688.00 293.00" xmlns="http://www.w3.org/2000/svg" xmlns:xlink="http://www.w3.org/1999/xlink">
<g id="graph0" class="graph" transform="scale(1 1) rotate(0) translate(4 289)">
<title>param_set_explore</title>
<!-- Node1 -->
<g id="Node000001" class="node">
<title>Node1</title>
<g id="a_Node000001"><a xlink:title=" ">
<polygon fill="#999999" stroke="#666666" points="680,-133 581,-133 581,-114 680,-114 680,-133"/>
<text text-anchor="middle" x="630.5" y="-121" font-family="Helvetica,sans-Serif" font-size="10.00">param_set_explore</text>
</a>
</g>
</g>
<!-- Node2 -->
<g id="Node000002" class="node">
<title>Node2</title>
<g id="a_Node000002"><a xlink:href="classXCS.html#ac6003941812bd2c70ea443dd63bd59d0" target="_top" xlink:title="Selects an action to perform in a reinforcement learning problem.">
<polygon fill="white" stroke="#666666" points="229,-95 149,-95 149,-76 229,-76 229,-95"/>
<text text-anchor="middle" x="189" y="-83" font-family="Helvetica,sans-Serif" font-size="10.00">XCS::decision</text>
</a>
</g>
</g>
<!-- Node1&#45;&gt;Node2 -->
<g id="edge1_Node000001_Node000002" class="edge">
<title>Node1&#45;&gt;Node2</title>
<g id="a_edge1_Node000001_Node000002"><a xlink:title=" ">
<path fill="none" stroke="#63b8ff" d="M583.09,-111.6C570.78,-108.84 557.45,-106.22 545,-104.5 430.98,-88.74 294.68,-85.86 229.08,-85.46"/>
<polygon fill="#63b8ff" stroke="#63b8ff" points="582.61,-115.08 593.14,-113.92 584.19,-108.26 582.61,-115.08"/>
</a>
</g>
</g>
<!-- Node4 -->
<g id="Node000004" class="node">
<title>Node4</title>
<g id="a_Node000004"><a xlink:href="xcs__rl_8c.html#a391abf9bd2540ff284f822b30899c438" target="_top" xlink:title="Creates and updates an action set for a given (state, action, reward).">
<polygon fill="white" stroke="#666666" points="513.5,-57 457.5,-57 457.5,-38 513.5,-38 513.5,-57"/>
<text text-anchor="middle" x="485.5" y="-45" font-family="Helvetica,sans-Serif" font-size="10.00">xcs_rl_fit</text>
</a>
</g>
</g>
<!-- Node1&#45;&gt;Node4 -->
<g id="edge3_Node000001_Node000004" class="edge">
<title>Node1&#45;&gt;Node4</title>
<g id="a_edge3_Node000001_Node000004"><a xlink:title=" ">
<path fill="none" stroke="#63b8ff" d="M607.04,-108.29C590.33,-97.32 566.76,-82.57 545,-71.5 534.53,-66.18 522.59,-61.11 512.24,-57.02"/>
<polygon fill="#63b8ff" stroke="#63b8ff" points="605.29,-111.33 615.55,-113.94 609.16,-105.49 605.29,-111.33"/>
</a>
</g>
</g>
<!-- Node6 -->
<g id="Node000006" class="node">
<title>Node6</title>
<g id="a_Node000006"><a xlink:href="xcs__rl_8c.html#a8171cd945b56ed0a4563f9dcd89438e3" target="_top" xlink:title="Executes a reinforcement learning trial using a built&#45;in environment.">
<polygon fill="white" stroke="#666666" points="517.5,-133 453.5,-133 453.5,-114 517.5,-114 517.5,-133"/>
<text text-anchor="middle" x="485.5" y="-121" font-family="Helvetica,sans-Serif" font-size="10.00">xcs_rl_trial</text>
</a>
</g>
</g>
<!-- Node1&#45;&gt;Node6 -->
<g id="edge6_Node000001_Node000006" class="edge">
<title>Node1&#45;&gt;Node6</title>
<g id="a_edge6_Node000001_Node000006"><a xlink:title=" ">
<path fill="none" stroke="#63b8ff" d="M570.47,-123.5C552.34,-123.5 533.11,-123.5 517.63,-123.5"/>
<polygon fill="#63b8ff" stroke="#63b8ff" points="570.69,-127 580.69,-123.5 570.69,-120 570.69,-127"/>
</a>
</g>
</g>
<!-- Node9 -->
<g id="Node000009" class="node">
<title>Node9</title>
<g id="a_Node000009"><a xlink:href="xcs__supervised_8c.html#a4b67d2351436bfb520f5707260420f8c" target="_top" xlink:title="Executes MAX_TRIALS number of XCSF learning iterations using the training data and test iterations us...">
<polygon fill="white" stroke="#666666" points="534.5,-171 436.5,-171 436.5,-152 534.5,-152 534.5,-171"/>
<text text-anchor="middle" x="485.5" y="-159" font-family="Helvetica,sans-Serif" font-size="10.00">xcs_supervised_fit</text>
</a>
</g>
</g>
<!-- Node1&#45;&gt;Node9 -->
<g id="edge9_Node000001_Node000009" class="edge">
<title>Node1&#45;&gt;Node9</title>
<g id="a_edge9_Node000001_Node000009"><a xlink:title=" ">
<path fill="none" stroke="#63b8ff" d="M583.69,-135.67C563.91,-140.93 541.12,-146.99 522.57,-151.91"/>
<polygon fill="#63b8ff" stroke="#63b8ff" points="584.65,-139.04 593.42,-133.09 582.85,-132.27 584.65,-139.04"/>
</a>
</g>
</g>
<!-- Node11 -->
<g id="Node000011" class="node">
<title>Node11</title>
<g id="a_Node000011"><a xlink:href="xcs__supervised_8c.html#ae4791c1daf0baaa6615f70332657aadb" target="_top" xlink:title="Calculates the XCSF predictions for the provided input.">
<polygon fill="white" stroke="#666666" points="545,-20 426,-20 426,-1 545,-1 545,-20"/>
<text text-anchor="middle" x="485.5" y="-8" font-family="Helvetica,sans-Serif" font-size="10.00">xcs_supervised_predict</text>
</a>
</g>
</g>
<!-- Node1&#45;&gt;Node11 -->
<g id="edge12_Node000001_Node000011" class="edge">
<title>Node1&#45;&gt;Node11</title>
<g id="a_edge12_Node000001_Node000011"><a xlink:title=" ">
<path fill="none" stroke="#63b8ff" d="M617.95,-105.36C603.43,-83.97 576.54,-48.77 545,-28.5 539.73,-25.11 533.78,-22.33 527.74,-20.05"/>
<polygon fill="#63b8ff" stroke="#63b8ff" points="615.13,-107.44 623.56,-113.85 620.97,-103.58 615.13,-107.44"/>
</a>
</g>
</g>
<!-- Node13 -->
<g id="Node000013" class="node">
<title>Node13</title>
<g id="a_Node000013"><a xlink:href="xcs__supervised_8c.html#a535e3dbbf0f80e64a4e9b1c700e51f40" target="_top" xlink:title="Calculates the XCSF error for the input data.">
<polygon fill="white" stroke="#666666" points="542.5,-218 428.5,-218 428.5,-199 542.5,-199 542.5,-218"/>
<text text-anchor="middle" x="485.5" y="-206" font-family="Helvetica,sans-Serif" font-size="10.00">xcs_supervised_score</text>
</a>
</g>
</g>
<!-- Node1&#45;&gt;Node13 -->
<g id="edge15_Node000001_Node000013" class="edge">
<title>Node1&#45;&gt;Node13</title>
<g id="a_edge15_Node000001_Node000013"><a xlink:title=" ">
<path fill="none" stroke="#63b8ff" d="M607.54,-139.15C590.76,-150.84 566.87,-166.9 545,-179.5 532.82,-186.52 518.72,-193.54 507.41,-198.92"/>
<polygon fill="#63b8ff" stroke="#63b8ff" points="609.9,-141.77 616.08,-133.16 605.88,-136.04 609.9,-141.77"/>
</a>
</g>
</g>
<!-- Node15 -->
<g id="Node000015" class="node">
<title>Node15</title>
<g id="a_Node000015"><a xlink:href="xcs__supervised_8c.html#a9ab2bb39625aea84c716901a95a4326e" target="_top" xlink:title="Calculates the XCSF error for a subsample of the input data.">
<polygon fill="white" stroke="#666666" points="390,-285 265,-285 265,-266 390,-266 390,-285"/>
<text text-anchor="middle" x="327.5" y="-273" font-family="Helvetica,sans-Serif" font-size="10.00">xcs_supervised_score_n</text>
</a>
</g>
</g>
<!-- Node1&#45;&gt;Node15 -->
<g id="edge21_Node000001_Node000015" class="edge">
<title>Node1&#45;&gt;Node15</title>
<g id="a_edge21_Node000001_Node000015"><a xlink:title=" ">
<path fill="none" stroke="#63b8ff" d="M619.67,-142.08C606.14,-165.77 579.46,-206.21 545,-227.5 498.16,-256.43 436.1,-268.02 390.43,-272.61"/>
<polygon fill="#63b8ff" stroke="#63b8ff" points="622.89,-143.5 624.66,-133.05 616.76,-140.12 622.89,-143.5"/>
</a>
</g>
</g>
<!-- Node3 -->
<g id="Node000003" class="node">
<title>Node3</title>
<g id="a_Node000003"><a xlink:href="pybind__wrapper_8cpp.html#a172daba0778fe2bd38d723d5f52a23d5" target="_top" xlink:title=" ">
<polygon fill="white" stroke="#666666" points="113,-76 0,-76 0,-57 113,-57 113,-76"/>
<text text-anchor="middle" x="56.5" y="-64" font-family="Helvetica,sans-Serif" font-size="10.00">PYBIND11_MODULE</text>
</a>
</g>
</g>
<!-- Node2&#45;&gt;Node3 -->
<g id="edge2_Node000002_Node000003" class="edge">
<title>Node2&#45;&gt;Node3</title>
<g id="a_edge2_Node000002_Node000003"><a xlink:title=" ">
<path fill="none" stroke="#63b8ff" d="M138.81,-78.34C130.39,-77.11 121.6,-75.83 113.03,-74.58"/>
<polygon fill="#63b8ff" stroke="#63b8ff" points="138.45,-81.82 148.85,-79.8 139.45,-74.9 138.45,-81.82"/>
</a>
</g>
</g>
<!-- Node5 -->
<g id="Node000005" class="node">
<title>Node5</title>
<g id="a_Node000005"><a xlink:href="classXCS.html#ac12768292958a714a726b1c029e9616a" target="_top" xlink:title="Creates/updates an action set for a given (state, action, reward).">
<polygon fill="white" stroke="#666666" points="215,-58 163,-58 163,-39 215,-39 215,-58"/>
<text text-anchor="middle" x="189" y="-46" font-family="Helvetica,sans-Serif" font-size="10.00">XCS::fit</text>
</a>
</g>
</g>
<!-- Node4&#45;&gt;Node5 -->
<g id="edge4_Node000004_Node000005" class="edge">
<title>Node4&#45;&gt;Node5</title>
<g id="a_edge4_Node000004_Node000005"><a xlink:title=" ">
<path fill="none" stroke="#63b8ff" d="M446.98,-47.63C385.95,-47.83 266.79,-48.24 215.01,-48.42"/>
<polygon fill="#63b8ff" stroke="#63b8ff" points="447.33,-51.13 457.32,-47.59 447.31,-44.13 447.33,-51.13"/>
</a>
</g>
</g>
<!-- Node5&#45;&gt;Node3 -->
<g id="edge5_Node000005_Node000003" class="edge">
<title>Node5&#45;&gt;Node3</title>
<g id="a_edge5_Node000005_Node000003"><a xlink:title=" ">
<path fill="none" stroke="#63b8ff" d="M152.65,-53.38C140.47,-55.06 126.52,-56.98 113.12,-58.83"/>
<polygon fill="#63b8ff" stroke="#63b8ff" points="153.41,-56.8 162.84,-51.97 152.45,-49.87 153.41,-56.8"/>
</a>
</g>
</g>
<!-- Node7 -->
<g id="Node000007" class="node">
<title>Node7</title>
<g id="a_Node000007"><a xlink:href="xcs__rl_8c.html#adb4c284d19eeaed2b4a629f9b939ed20" target="_top" xlink:title="Executes a reinforcement learning experiment.">
<polygon fill="white" stroke="#666666" points="359.5,-133 295.5,-133 295.5,-114 359.5,-114 359.5,-133"/>
<text text-anchor="middle" x="327.5" y="-121" font-family="Helvetica,sans-Serif" font-size="10.00">xcs_rl_exp</text>
</a>
</g>
</g>
<!-- Node6&#45;&gt;Node7 -->
<g id="edge7_Node000006_Node000007" class="edge">
<title>Node6&#45;&gt;Node7</title>
<g id="a_edge7_Node000006_Node000007"><a xlink:title=" ">
<path fill="none" stroke="#63b8ff" d="M443.28,-123.5C417.06,-123.5 383.65,-123.5 359.64,-123.5"/>
<polygon fill="#63b8ff" stroke="#63b8ff" points="443.31,-127 453.31,-123.5 443.31,-120 443.31,-127"/>
</a>
</g>
</g>
<!-- Node8 -->
<g id="Node000008" class="node">
<title>Node8</title>
<g id="a_Node000008"><a xlink:href="main_8c.html#a3c04138a5bfe5d72780bb7e82a18e627" target="_top" xlink:title=" ">
<polygon fill="white" stroke="#666666" points="208,-152 170,-152 170,-133 208,-133 208,-152"/>
<text text-anchor="middle" x="189" y="-140" font-family="Helvetica,sans-Serif" font-size="10.00">main</text>
</a>
</g>
</g>
<!-- Node7&#45;&gt;Node8 -->
<g id="edge8_Node000007_Node000008" class="edge">
<title>Node7&#45;&gt;Node8</title>
<g id="a_edge8_Node000007_Node000008"><a xlink:title=" ">
<path fill="none" stroke="#63b8ff" d="M284.97,-129.28C259.32,-132.85 227.69,-137.25 208.18,-139.97"/>
<polygon fill="#63b8ff" stroke="#63b8ff" points="285.76,-132.7 295.18,-127.86 284.8,-125.77 285.76,-132.7"/>
</a>
</g>
</g>
<!-- Node9&#45;&gt;Node8 -->
<g id="edge11_Node000009_Node000008" class="edge">
<title>Node9&#45;&gt;Node8</title>
<g id="a_edge11_Node000009_Node000008"><a xlink:title=" ">
<path fill="none" stroke="#63b8ff" d="M426.1,-157.73C358.39,-153.36 250.63,-146.41 208.11,-143.67"/>
<polygon fill="#63b8ff" stroke="#63b8ff" points="425.99,-161.23 436.2,-158.38 426.45,-154.25 425.99,-161.23"/>
</a>
</g>
</g>
<!-- Node10 -->
<g id="Node000010" class="node">
<title>Node10</title>
<g id="a_Node000010"><a xlink:href="classXCS.html#ae71d09f1e1346353163fc9d8ffb430af" target="_top" xlink:title="Executes MAX_TRIALS number of XCSF learning iterations using the provided training data.">
<polygon fill="white" stroke="#666666" points="353.5,-209 301.5,-209 301.5,-190 353.5,-190 353.5,-209"/>
<text text-anchor="middle" x="327.5" y="-197" font-family="Helvetica,sans-Serif" font-size="10.00">XCS::fit</text>
</a>
</g>
</g>
<!-- Node9&#45;&gt;Node10 -->
<g id="edge10_Node000009_Node000010" class="edge">
<title>Node9&#45;&gt;Node10</title>
<g id="a_edge10_Node000009_Node000010"><a xlink:title=" ">
<path fill="none" stroke="#63b8ff" d="M435.41,-173.46C408.27,-180.07 375.69,-188.01 353.68,-193.37"/>
<polygon fill="#63b8ff" stroke="#63b8ff" points="436.25,-176.86 445.13,-171.09 434.59,-170.06 436.25,-176.86"/>
</a>
</g>
</g>
<!-- Node12 -->
<g id="Node000012" class="node">
<title>Node12</title>
<g id="a_Node000012"><a xlink:href="classXCS.html#a562cb81d9627e7dbcfdb0dc05ec2e3f0" target="_top" xlink:title="Returns the XCSF prediction array for the provided input.">
<polygon fill="white" stroke="#666666" points="364,-19 291,-19 291,0 364,0 364,-19"/>
<text text-anchor="middle" x="327.5" y="-7" font-family="Helvetica,sans-Serif" font-size="10.00">XCS::predict</text>
</a>
</g>
</g>
<!-- Node11&#45;&gt;Node12 -->
<g id="edge13_Node000011_Node000012" class="edge">
<title>Node11&#45;&gt;Node12</title>
<g id="a_edge13_Node000011_Node000012"><a xlink:title=" ">
<path fill="none" stroke="#63b8ff" d="M415.62,-10.06C397.88,-9.94 379.51,-9.83 364.23,-9.73"/>
<polygon fill="#63b8ff" stroke="#63b8ff" points="415.95,-13.56 425.97,-10.12 415.99,-6.56 415.95,-13.56"/>
</a>
</g>
</g>
<!-- Node12&#45;&gt;Node3 -->
<g id="edge14_Node000012_Node000003" class="edge">
<title>Node12&#45;&gt;Node3</title>
<g id="a_edge14_Node000012_Node000003"><a xlink:title=" ">
<path fill="none" stroke="#63b8ff" d="M280.72,-11.24C244.51,-13.43 192.91,-18.37 149,-29.5 123.09,-36.07 94.78,-48.37 76.62,-56.98"/>
<polygon fill="#63b8ff" stroke="#63b8ff" points="281.18,-14.72 290.97,-10.67 280.79,-7.73 281.18,-14.72"/>
</a>
</g>
</g>
<!-- Node13&#45;&gt;Node10 -->
<g id="edge16_Node000013_Node000010" class="edge">
<title>Node13&#45;&gt;Node10</title>
<g id="a_edge16_Node000013_Node000010"><a xlink:title=" ">
<path fill="none" stroke="#63b8ff" d="M418.18,-204.67C395.41,-203.36 371.27,-201.97 353.78,-200.96"/>
<polygon fill="#63b8ff" stroke="#63b8ff" points="418,-208.17 428.18,-205.25 418.4,-201.18 418,-208.17"/>
</a>
</g>
</g>
<!-- Node14 -->
<g id="Node000014" class="node">
<title>Node14</title>
<g id="a_Node000014"><a xlink:href="classXCS.html#a2aeb9df5550b79ea97a725e83ef64005" target="_top" xlink:title="Returns the error using N random samples from the provided data.">
<polygon fill="white" stroke="#666666" points="223,-247 155,-247 155,-228 223,-228 223,-247"/>
<text text-anchor="middle" x="189" y="-235" font-family="Helvetica,sans-Serif" font-size="10.00">XCS::score</text>
</a>
</g>
</g>
<!-- Node13&#45;&gt;Node14 -->
<g id="edge17_Node000013_Node000014" class="edge">
<title>Node13&#45;&gt;Node14</title>
<g id="a_edge17_Node000013_Node000014"><a xlink:title=" ">
<path fill="none" stroke="#63b8ff" d="M418.14,-215.61C408.69,-216.6 399.1,-217.59 390,-218.5 331.35,-224.39 262.98,-230.78 223.28,-234.45"/>
<polygon fill="#63b8ff" stroke="#63b8ff" points="418.71,-219.07 428.29,-214.55 417.98,-212.11 418.71,-219.07"/>
</a>
</g>
</g>
<!-- Node13&#45;&gt;Node15 -->
<g id="edge19_Node000013_Node000015" class="edge">
<title>Node13&#45;&gt;Node15</title>
<g id="a_edge19_Node000013_Node000015"><a xlink:title=" ">
<path fill="none" stroke="#63b8ff" d="M455.25,-222.31C436.67,-230.96 412.06,-242.19 390,-251.5 378.28,-256.45 365.16,-261.62 354.06,-265.89"/>
<polygon fill="#63b8ff" stroke="#63b8ff" points="456.79,-225.46 464.36,-218.05 453.82,-219.11 456.79,-225.46"/>
</a>
</g>
</g>
<!-- Node14&#45;&gt;Node3 -->
<g id="edge18_Node000014_Node000003" class="edge">
<title>Node14&#45;&gt;Node3</title>
<g id="a_edge18_Node000014_Node000003"><a xlink:title=" ">
<path fill="none" stroke="#63b8ff" d="M174.41,-219.69C146.99,-183.77 85.88,-103.69 64.81,-76.08"/>
<polygon fill="#63b8ff" stroke="#63b8ff" points="171.76,-221.99 180.61,-227.82 177.33,-217.74 171.76,-221.99"/>
</a>
</g>
</g>
<!-- Node15&#45;&gt;Node14 -->
<g id="edge20_Node000015_Node000014" class="edge">
<title>Node15&#45;&gt;Node14</title>
<g id="a_edge20_Node000015_Node000014"><a xlink:title=" ">
<path fill="none" stroke="#63b8ff" d="M282.28,-263.19C263.02,-257.83 240.82,-251.65 223.02,-246.69"/>
<polygon fill="#63b8ff" stroke="#63b8ff" points="281.48,-266.6 292.06,-265.91 283.36,-259.86 281.48,-266.6"/>
</a>
</g>
</g>
</g>
</svg>
