<?xml version="1.0" encoding="UTF-8" standalone="no"?>
<!DOCTYPE svg PUBLIC "-//W3C//DTD SVG 1.1//EN"
 "http://www.w3.org/Graphics/SVG/1.1/DTD/svg11.dtd">
<!-- Generated by graphviz version 2.43.0 (0)
 -->
<!-- Title: param_set_pred_momentum Pages: 1 -->
<svg width="957pt" height="104pt"
 viewBox="0.00 0.00 957.00 104.00" xmlns="http://www.w3.org/2000/svg" xmlns:xlink="http://www.w3.org/1999/xlink">
<g id="graph0" class="graph" transform="scale(1 1) rotate(0) translate(4 100)">
<title>param_set_pred_momentum</title>
<!-- Node1 -->
<g id="node1" class="node">
<title>Node1</title>
<g id="a_node1"><a xlink:title=" ">
<polygon fill="#bfbfbf" stroke="black" points="809,-38.5 809,-57.5 949,-57.5 949,-38.5 809,-38.5"/>
<text text-anchor="middle" x="879" y="-45.5" font-family="Helvetica,sans-Serif" font-size="10.00">param_set_pred_momentum</text>
</a>
</g>
</g>
<!-- Node2 -->
<g id="node2" class="node">
<title>Node2</title>
<g id="a_node2"><a xlink:href="config_8c.html#a09619cf9f3baf61a82edc0d8e04f4a3b" target="_top" xlink:title="Sets classifier prediction parameters.">
<polygon fill="none" stroke="black" points="667.5,-76.5 667.5,-95.5 747.5,-95.5 747.5,-76.5 667.5,-76.5"/>
<text text-anchor="middle" x="707.5" y="-83.5" font-family="Helvetica,sans-Serif" font-size="10.00">config_cl_pred</text>
</a>
</g>
</g>
<!-- Node1&#45;&gt;Node2 -->
<g id="edge1" class="edge">
<title>Node1&#45;&gt;Node2</title>
<path fill="none" stroke="midnightblue" d="M825.16,-59.85C800.14,-65.45 770.78,-72.04 747.77,-77.2"/>
<polygon fill="midnightblue" stroke="midnightblue" points="826.24,-63.19 835.23,-57.59 824.7,-56.36 826.24,-63.19"/>
</g>
<!-- Node9 -->
<g id="node9" class="node">
<title>Node9</title>
<g id="a_node9"><a xlink:href="param_8c.html#a5de507d2da0f88d37c5f92f4fb1e9cb2" target="_top" xlink:title="Initialises default classifier prediction parameters.">
<polygon fill="none" stroke="black" points="323,-38.5 323,-57.5 466,-57.5 466,-38.5 323,-38.5"/>
<text text-anchor="middle" x="394.5" y="-45.5" font-family="Helvetica,sans-Serif" font-size="10.00">param_defaults_cl_prediction</text>
</a>
</g>
</g>
<!-- Node1&#45;&gt;Node9 -->
<g id="edge8" class="edge">
<title>Node1&#45;&gt;Node9</title>
<path fill="none" stroke="midnightblue" d="M798.72,-48C706.22,-48 554.67,-48 466.07,-48"/>
<polygon fill="midnightblue" stroke="midnightblue" points="798.87,-51.5 808.87,-48 798.87,-44.5 798.87,-51.5"/>
</g>
<!-- Node11 -->
<g id="node11" class="node">
<title>Node11</title>
<g id="a_node11"><a xlink:href="classXCS.html#a8755a66390db00ab31e3574a18a0aae1" target="_top" xlink:title="Sets parameters used by neural network predictions.">
<polygon fill="none" stroke="black" points="642,-0.5 642,-19.5 773,-19.5 773,-0.5 642,-0.5"/>
<text text-anchor="middle" x="707.5" y="-7.5" font-family="Helvetica,sans-Serif" font-size="10.00">XCS::unpack_pred_neural</text>
</a>
</g>
</g>
<!-- Node1&#45;&gt;Node11 -->
<g id="edge12" class="edge">
<title>Node1&#45;&gt;Node11</title>
<path fill="none" stroke="midnightblue" d="M825.26,-36.18C801.36,-30.82 773.48,-24.57 750.96,-19.52"/>
<polygon fill="midnightblue" stroke="midnightblue" points="824.7,-39.64 835.23,-38.41 826.24,-32.81 824.7,-39.64"/>
</g>
<!-- Node3 -->
<g id="node3" class="node">
<title>Node3</title>
<g id="a_node3"><a xlink:href="config_8c.html#a695f5f085aa119586feb23e5a81a739c" target="_top" xlink:title="Sets specified parameter.">
<polygon fill="none" stroke="black" points="506,-76.5 506,-95.5 602,-95.5 602,-76.5 506,-76.5"/>
<text text-anchor="middle" x="554" y="-83.5" font-family="Helvetica,sans-Serif" font-size="10.00">config_add_param</text>
</a>
</g>
</g>
<!-- Node2&#45;&gt;Node3 -->
<g id="edge2" class="edge">
<title>Node2&#45;&gt;Node3</title>
<path fill="none" stroke="midnightblue" d="M657.36,-86C639.68,-86 619.78,-86 602.26,-86"/>
<polygon fill="midnightblue" stroke="midnightblue" points="657.49,-89.5 667.48,-86 657.48,-82.5 657.49,-89.5"/>
</g>
<!-- Node4 -->
<g id="node4" class="node">
<title>Node4</title>
<g id="a_node4"><a xlink:href="config_8c.html#a5b96815b9ebb26a8fc7bcc30a75ab36d" target="_top" xlink:title="Adds a parameter to the list.">
<polygon fill="none" stroke="black" points="348.5,-76.5 348.5,-95.5 440.5,-95.5 440.5,-76.5 348.5,-76.5"/>
<text text-anchor="middle" x="394.5" y="-83.5" font-family="Helvetica,sans-Serif" font-size="10.00">config_newnvpair</text>
</a>
</g>
</g>
<!-- Node3&#45;&gt;Node4 -->
<g id="edge3" class="edge">
<title>Node3&#45;&gt;Node4</title>
<path fill="none" stroke="midnightblue" d="M495.58,-86C477.45,-86 457.7,-86 440.56,-86"/>
<polygon fill="midnightblue" stroke="midnightblue" points="495.74,-89.5 505.74,-86 495.74,-82.5 495.74,-89.5"/>
</g>
<!-- Node5 -->
<g id="node5" class="node">
<title>Node5</title>
<g id="a_node5"><a xlink:href="config_8c.html#a01c178cc1587140f60ecf27291a2032a" target="_top" xlink:title="Parses a line of the config file and adds to the list.">
<polygon fill="none" stroke="black" points="204,-76.5 204,-95.5 287,-95.5 287,-76.5 204,-76.5"/>
<text text-anchor="middle" x="245.5" y="-83.5" font-family="Helvetica,sans-Serif" font-size="10.00">config_process</text>
</a>
</g>
</g>
<!-- Node4&#45;&gt;Node5 -->
<g id="edge4" class="edge">
<title>Node4&#45;&gt;Node5</title>
<path fill="none" stroke="midnightblue" d="M337.95,-86C321.17,-86 303.05,-86 287.41,-86"/>
<polygon fill="midnightblue" stroke="midnightblue" points="338.2,-89.5 348.2,-86 338.2,-82.5 338.2,-89.5"/>
</g>
<!-- Node6 -->
<g id="node6" class="node">
<title>Node6</title>
<g id="a_node6"><a xlink:href="config_8h.html#a045a64a30d99a4bef2ebfd9b54aa9698" target="_top" xlink:title="Reads the specified configuration file.">
<polygon fill="none" stroke="black" points="101,-76.5 101,-95.5 168,-95.5 168,-76.5 101,-76.5"/>
<text text-anchor="middle" x="134.5" y="-83.5" font-family="Helvetica,sans-Serif" font-size="10.00">config_read</text>
</a>
</g>
</g>
<!-- Node5&#45;&gt;Node6 -->
<g id="edge5" class="edge">
<title>Node5&#45;&gt;Node6</title>
<path fill="none" stroke="midnightblue" d="M193.84,-86C185.16,-86 176.35,-86 168.3,-86"/>
<polygon fill="midnightblue" stroke="midnightblue" points="193.91,-89.5 203.91,-86 193.91,-82.5 193.91,-89.5"/>
</g>
<!-- Node7 -->
<g id="node7" class="node">
<title>Node7</title>
<g id="a_node7"><a xlink:href="main_8c.html#a3c04138a5bfe5d72780bb7e82a18e627" target="_top" xlink:title=" ">
<polygon fill="none" stroke="black" points="13.5,-76.5 13.5,-95.5 51.5,-95.5 51.5,-76.5 13.5,-76.5"/>
<text text-anchor="middle" x="32.5" y="-83.5" font-family="Helvetica,sans-Serif" font-size="10.00">main</text>
</a>
</g>
</g>
<!-- Node6&#45;&gt;Node7 -->
<g id="edge6" class="edge">
<title>Node6&#45;&gt;Node7</title>
<path fill="none" stroke="midnightblue" d="M90.55,-86C76.94,-86 62.61,-86 51.72,-86"/>
<polygon fill="midnightblue" stroke="midnightblue" points="90.76,-89.5 100.76,-86 90.76,-82.5 90.76,-89.5"/>
</g>
<!-- Node8 -->
<g id="node8" class="node">
<title>Node8</title>
<g id="a_node8"><a xlink:href="classXCS.html#a81bb7e5f76e05ad983d70fe848b73393" target="_top" xlink:title="Constructor with a specified config.">
<polygon fill="none" stroke="black" points="0,-38.5 0,-57.5 65,-57.5 65,-38.5 0,-38.5"/>
<text text-anchor="middle" x="32.5" y="-45.5" font-family="Helvetica,sans-Serif" font-size="10.00">XCS::XCS</text>
</a>
</g>
</g>
<!-- Node6&#45;&gt;Node8 -->
<g id="edge7" class="edge">
<title>Node6&#45;&gt;Node8</title>
<path fill="none" stroke="midnightblue" d="M98.59,-72.74C85.47,-67.75 70.81,-62.18 58.73,-57.59"/>
<polygon fill="midnightblue" stroke="midnightblue" points="97.67,-76.13 108.27,-76.41 100.16,-69.59 97.67,-76.13"/>
</g>
<!-- Node10 -->
<g id="node10" class="node">
<title>Node10</title>
<g id="a_node10"><a xlink:href="param_8h.html#a4f8540c63eec02eb3a86e12a5d370de9" target="_top" xlink:title="Initialises default XCSF parameters.">
<polygon fill="none" stroke="black" points="103.5,-38.5 103.5,-57.5 165.5,-57.5 165.5,-38.5 103.5,-38.5"/>
<text text-anchor="middle" x="134.5" y="-45.5" font-family="Helvetica,sans-Serif" font-size="10.00">param_init</text>
</a>
</g>
</g>
<!-- Node9&#45;&gt;Node10 -->
<g id="edge9" class="edge">
<title>Node9&#45;&gt;Node10</title>
<path fill="none" stroke="midnightblue" d="M312.52,-48C262.67,-48 201.64,-48 165.82,-48"/>
<polygon fill="midnightblue" stroke="midnightblue" points="312.66,-51.5 322.66,-48 312.66,-44.5 312.66,-51.5"/>
</g>
<!-- Node10&#45;&gt;Node7 -->
<g id="edge10" class="edge">
<title>Node10&#45;&gt;Node7</title>
<path fill="none" stroke="midnightblue" d="M98.78,-61.2C82.96,-67.2 64.9,-74.07 51.78,-79.05"/>
<polygon fill="midnightblue" stroke="midnightblue" points="100.16,-64.41 108.27,-57.59 97.67,-57.87 100.16,-64.41"/>
</g>
<!-- Node10&#45;&gt;Node8 -->
<g id="edge11" class="edge">
<title>Node10&#45;&gt;Node8</title>
<path fill="none" stroke="midnightblue" d="M93.24,-48C83.92,-48 74.12,-48 65.22,-48"/>
<polygon fill="midnightblue" stroke="midnightblue" points="93.5,-51.5 103.5,-48 93.5,-44.5 93.5,-51.5"/>
</g>
<!-- Node12 -->
<g id="node12" class="node">
<title>Node12</title>
<g id="a_node12"><a xlink:href="classXCS.html#a21265d32d6735e044caad64a2d1ed7db" target="_top" xlink:title="Sets the prediction type and initialisation arguments.">
<polygon fill="none" stroke="black" points="502,-0.5 502,-19.5 606,-19.5 606,-0.5 502,-0.5"/>
<text text-anchor="middle" x="554" y="-7.5" font-family="Helvetica,sans-Serif" font-size="10.00">XCS::set_prediction</text>
</a>
</g>
</g>
<!-- Node11&#45;&gt;Node12 -->
<g id="edge13" class="edge">
<title>Node11&#45;&gt;Node12</title>
<path fill="none" stroke="midnightblue" d="M631.71,-10C623.07,-10 614.42,-10 606.2,-10"/>
<polygon fill="midnightblue" stroke="midnightblue" points="631.81,-13.5 641.81,-10 631.81,-6.5 631.81,-13.5"/>
</g>
</g>
</svg>
