<?xml version="1.0" encoding="UTF-8" standalone="no"?>
<!DOCTYPE svg PUBLIC "-//W3C//DTD SVG 1.1//EN"
 "http://www.w3.org/Graphics/SVG/1.1/DTD/svg11.dtd">
<!-- Generated by graphviz version 2.43.0 (0)
 -->
<!-- Title: param_set_random_state Pages: 1 -->
<svg width="251pt" height="64pt"
 viewBox="0.00 0.00 251.00 64.00" xmlns="http://www.w3.org/2000/svg" xmlns:xlink="http://www.w3.org/1999/xlink">
<g id="graph0" class="graph" transform="scale(1 1) rotate(0) translate(4 60)">
<title>param_set_random_state</title>
<!-- Node1 -->
<g id="Node000001" class="node">
<title>Node1</title>
<g id="a_Node000001"><a xlink:title=" ">
<polygon fill="#999999" stroke="#666666" points="127,-37 0,-37 0,-18 127,-18 127,-37"/>
<text text-anchor="middle" x="63.5" y="-25" font-family="Helvetica,sans-Serif" font-size="10.00">param_set_random_state</text>
</a>
</g>
</g>
<!-- Node2 -->
<g id="Node000002" class="node">
<title>Node2</title>
<g id="a_Node000002"><a xlink:href="utils_8c.html#ab74192959d5c945feaf0a630b58fd123" target="_top" xlink:title="Initialises the pseudo&#45;random number generator.">
<polygon fill="white" stroke="#666666" points="229.5,-56 176.5,-56 176.5,-37 229.5,-37 229.5,-56"/>
<text text-anchor="middle" x="203" y="-44" font-family="Helvetica,sans-Serif" font-size="10.00">rand_init</text>
</a>
</g>
</g>
<!-- Node1&#45;&gt;Node2 -->
<g id="edge1_Node000001_Node000002" class="edge">
<title>Node1&#45;&gt;Node2</title>
<g id="a_edge1_Node000001_Node000002"><a xlink:title=" ">
<path fill="none" stroke="#63b8ff" d="M127.21,-36.17C140.58,-38.01 154.25,-39.9 166.19,-41.55"/>
<polygon fill="#63b8ff" stroke="#63b8ff" points="165.8,-45.03 176.19,-42.93 166.76,-38.1 165.8,-45.03"/>
</a>
</g>
</g>
<!-- Node3 -->
<g id="Node000003" class="node">
<title>Node3</title>
<g id="a_Node000003"><a xlink:href="utils_8c.html#ad163bbefbbb9754feb94f468cab51b3a" target="_top" xlink:title="Initialises the pseudo&#45;random number generator with a fixed seed.">
<polygon fill="white" stroke="#666666" points="243,-19 163,-19 163,0 243,0 243,-19"/>
<text text-anchor="middle" x="203" y="-7" font-family="Helvetica,sans-Serif" font-size="10.00">rand_init_seed</text>
</a>
</g>
</g>
<!-- Node1&#45;&gt;Node3 -->
<g id="edge2_Node000001_Node000003" class="edge">
<title>Node1&#45;&gt;Node3</title>
<g id="a_edge2_Node000001_Node000003"><a xlink:title=" ">
<path fill="none" stroke="#63b8ff" d="M127.21,-19.29C135.88,-18.16 144.67,-17.01 153.03,-15.91"/>
<polygon fill="#63b8ff" stroke="#63b8ff" points="153.52,-19.38 162.98,-14.61 152.61,-12.44 153.52,-19.38"/>
</a>
</g>
</g>
</g>
</svg>
