<?xml version="1.0" encoding="UTF-8" standalone="no"?>
<!DOCTYPE svg PUBLIC "-//W3C//DTD SVG 1.1//EN"
 "http://www.w3.org/Graphics/SVG/1.1/DTD/svg11.dtd">
<!-- Generated by graphviz version 2.43.0 (0)
 -->
<!-- Title: param_set_loss_func_string Pages: 1 -->
<svg width="858pt" height="85pt"
 viewBox="0.00 0.00 858.00 85.00" xmlns="http://www.w3.org/2000/svg" xmlns:xlink="http://www.w3.org/1999/xlink">
<g id="graph0" class="graph" transform="scale(1 1) rotate(0) translate(4 81)">
<title>param_set_loss_func_string</title>
<!-- Node1 -->
<g id="node1" class="node">
<title>Node1</title>
<g id="a_node1"><a xlink:title=" ">
<polygon fill="#bfbfbf" stroke="black" points="740,-14 740,-44 850,-44 850,-14 740,-14"/>
<text text-anchor="start" x="748" y="-32" font-family="Helvetica,sans-Serif" font-size="10.00">param_set_loss_func</text>
<text text-anchor="middle" x="795" y="-21" font-family="Helvetica,sans-Serif" font-size="10.00">_string</text>
</a>
</g>
</g>
<!-- Node2 -->
<g id="node2" class="node">
<title>Node2</title>
<g id="a_node2"><a xlink:href="config_8c.html#a75d4810fb584c4e983fb8b972f1b1654" target="_top" xlink:title="Sets general XCSF parameters.">
<polygon fill="none" stroke="black" points="612,-38.5 612,-57.5 692,-57.5 692,-38.5 612,-38.5"/>
<text text-anchor="middle" x="652" y="-45.5" font-family="Helvetica,sans-Serif" font-size="10.00">config_general</text>
</a>
</g>
</g>
<!-- Node1&#45;&gt;Node2 -->
<g id="edge1" class="edge">
<title>Node1&#45;&gt;Node2</title>
<path fill="none" stroke="midnightblue" d="M729.74,-37.66C716.97,-39.38 703.93,-41.14 692.3,-42.7"/>
<polygon fill="midnightblue" stroke="midnightblue" points="730.45,-41.1 739.89,-36.29 729.51,-34.16 730.45,-41.1"/>
</g>
<!-- Node9 -->
<g id="node9" class="node">
<title>Node9</title>
<g id="a_node9"><a xlink:href="classXCS.html#a049260ddd3681d8f475d4102d3a93cb4" target="_top" xlink:title=" ">
<polygon fill="none" stroke="black" points="600,-0.5 600,-19.5 704,-19.5 704,-0.5 600,-0.5"/>
<text text-anchor="middle" x="652" y="-7.5" font-family="Helvetica,sans-Serif" font-size="10.00">XCS::set_loss_func</text>
</a>
</g>
</g>
<!-- Node1&#45;&gt;Node9 -->
<g id="edge8" class="edge">
<title>Node1&#45;&gt;Node9</title>
<path fill="none" stroke="midnightblue" d="M729.94,-20.37C721.39,-19.22 712.71,-18.05 704.42,-16.93"/>
<polygon fill="midnightblue" stroke="midnightblue" points="729.51,-23.84 739.89,-21.71 730.45,-16.9 729.51,-23.84"/>
</g>
<!-- Node3 -->
<g id="node3" class="node">
<title>Node3</title>
<g id="a_node3"><a xlink:href="config_8c.html#a0f0fcad0b6090da01e5bd58b77d98787" target="_top" xlink:title="Sets specified parameter.">
<polygon fill="none" stroke="black" points="459.5,-38.5 459.5,-57.5 555.5,-57.5 555.5,-38.5 459.5,-38.5"/>
<text text-anchor="middle" x="507.5" y="-45.5" font-family="Helvetica,sans-Serif" font-size="10.00">config_add_param</text>
</a>
</g>
</g>
<!-- Node2&#45;&gt;Node3 -->
<g id="edge2" class="edge">
<title>Node2&#45;&gt;Node3</title>
<path fill="none" stroke="midnightblue" d="M601.61,-48C586.67,-48 570.31,-48 555.53,-48"/>
<polygon fill="midnightblue" stroke="midnightblue" points="601.68,-51.5 611.68,-48 601.68,-44.5 601.68,-51.5"/>
</g>
<!-- Node4 -->
<g id="node4" class="node">
<title>Node4</title>
<g id="a_node4"><a xlink:href="config_8c.html#a5b96815b9ebb26a8fc7bcc30a75ab36d" target="_top" xlink:title="Adds a parameter to the list.">
<polygon fill="none" stroke="black" points="323,-38.5 323,-57.5 415,-57.5 415,-38.5 323,-38.5"/>
<text text-anchor="middle" x="369" y="-45.5" font-family="Helvetica,sans-Serif" font-size="10.00">config_newnvpair</text>
</a>
</g>
</g>
<!-- Node3&#45;&gt;Node4 -->
<g id="edge3" class="edge">
<title>Node3&#45;&gt;Node4</title>
<path fill="none" stroke="midnightblue" d="M449,-48C437.79,-48 426.19,-48 415.43,-48"/>
<polygon fill="midnightblue" stroke="midnightblue" points="449.14,-51.5 459.14,-48 449.14,-44.5 449.14,-51.5"/>
</g>
<!-- Node5 -->
<g id="node5" class="node">
<title>Node5</title>
<g id="a_node5"><a xlink:href="config_8c.html#a01c178cc1587140f60ecf27291a2032a" target="_top" xlink:title="Parses a line of the config file and adds to the list.">
<polygon fill="none" stroke="black" points="204,-38.5 204,-57.5 287,-57.5 287,-38.5 204,-38.5"/>
<text text-anchor="middle" x="245.5" y="-45.5" font-family="Helvetica,sans-Serif" font-size="10.00">config_process</text>
</a>
</g>
</g>
<!-- Node4&#45;&gt;Node5 -->
<g id="edge4" class="edge">
<title>Node4&#45;&gt;Node5</title>
<path fill="none" stroke="midnightblue" d="M312.54,-48C304.06,-48 295.45,-48 287.37,-48"/>
<polygon fill="midnightblue" stroke="midnightblue" points="312.76,-51.5 322.76,-48 312.76,-44.5 312.76,-51.5"/>
</g>
<!-- Node6 -->
<g id="node6" class="node">
<title>Node6</title>
<g id="a_node6"><a xlink:href="config_8h.html#a045a64a30d99a4bef2ebfd9b54aa9698" target="_top" xlink:title="Reads the specified configuration file.">
<polygon fill="none" stroke="black" points="101,-38.5 101,-57.5 168,-57.5 168,-38.5 101,-38.5"/>
<text text-anchor="middle" x="134.5" y="-45.5" font-family="Helvetica,sans-Serif" font-size="10.00">config_read</text>
</a>
</g>
</g>
<!-- Node5&#45;&gt;Node6 -->
<g id="edge5" class="edge">
<title>Node5&#45;&gt;Node6</title>
<path fill="none" stroke="midnightblue" d="M193.84,-48C185.16,-48 176.35,-48 168.3,-48"/>
<polygon fill="midnightblue" stroke="midnightblue" points="193.91,-51.5 203.91,-48 193.91,-44.5 193.91,-51.5"/>
</g>
<!-- Node7 -->
<g id="node7" class="node">
<title>Node7</title>
<g id="a_node7"><a xlink:href="main_8c.html#a3c04138a5bfe5d72780bb7e82a18e627" target="_top" xlink:title=" ">
<polygon fill="none" stroke="black" points="13.5,-57.5 13.5,-76.5 51.5,-76.5 51.5,-57.5 13.5,-57.5"/>
<text text-anchor="middle" x="32.5" y="-64.5" font-family="Helvetica,sans-Serif" font-size="10.00">main</text>
</a>
</g>
</g>
<!-- Node6&#45;&gt;Node7 -->
<g id="edge6" class="edge">
<title>Node6&#45;&gt;Node7</title>
<path fill="none" stroke="midnightblue" d="M90.55,-56.16C76.94,-58.75 62.61,-61.47 51.72,-63.54"/>
<polygon fill="midnightblue" stroke="midnightblue" points="91.59,-59.53 100.76,-54.22 90.28,-52.65 91.59,-59.53"/>
</g>
<!-- Node8 -->
<g id="node8" class="node">
<title>Node8</title>
<g id="a_node8"><a xlink:href="classXCS.html#a81bb7e5f76e05ad983d70fe848b73393" target="_top" xlink:title="Constructor with a specified config.">
<polygon fill="none" stroke="black" points="0,-19.5 0,-38.5 65,-38.5 65,-19.5 0,-19.5"/>
<text text-anchor="middle" x="32.5" y="-26.5" font-family="Helvetica,sans-Serif" font-size="10.00">XCS::XCS</text>
</a>
</g>
</g>
<!-- Node6&#45;&gt;Node8 -->
<g id="edge7" class="edge">
<title>Node6&#45;&gt;Node8</title>
<path fill="none" stroke="midnightblue" d="M90.88,-39.9C82.3,-38.27 73.43,-36.59 65.3,-35.04"/>
<polygon fill="midnightblue" stroke="midnightblue" points="90.28,-43.35 100.76,-41.78 91.59,-36.47 90.28,-43.35"/>
</g>
<!-- Node10 -->
<g id="node10" class="node">
<title>Node10</title>
<g id="a_node10"><a xlink:href="pybind__wrapper_8cpp.html#a269acb618355873dacf057083f07eb58" target="_top" xlink:title=" ">
<polygon fill="none" stroke="black" points="451,-0.5 451,-19.5 564,-19.5 564,-0.5 451,-0.5"/>
<text text-anchor="middle" x="507.5" y="-7.5" font-family="Helvetica,sans-Serif" font-size="10.00">pybind11_init_wrapper</text>
</a>
</g>
</g>
<!-- Node9&#45;&gt;Node10 -->
<g id="edge9" class="edge">
<title>Node9&#45;&gt;Node10</title>
<path fill="none" stroke="midnightblue" d="M589.68,-10C581.15,-10 572.43,-10 564.01,-10"/>
<polygon fill="midnightblue" stroke="midnightblue" points="589.96,-13.5 599.96,-10 589.96,-6.5 589.96,-13.5"/>
</g>
</g>
</svg>
