<?xml version="1.0" encoding="UTF-8" standalone="no"?>
<!DOCTYPE svg PUBLIC "-//W3C//DTD SVG 1.1//EN"
 "http://www.w3.org/Graphics/SVG/1.1/DTD/svg11.dtd">
<!-- Generated by graphviz version 2.43.0 (0)
 -->
<!-- Title: param_set_pred_evolve_weights Pages: 1 -->
<svg width="930pt" height="116pt"
 viewBox="0.00 0.00 930.00 115.50" xmlns="http://www.w3.org/2000/svg" xmlns:xlink="http://www.w3.org/1999/xlink">
<g id="graph0" class="graph" transform="scale(1 1) rotate(0) translate(4 111.5)">
<title>param_set_pred_evolve_weights</title>
<!-- Node1 -->
<g id="node1" class="node">
<title>Node1</title>
<g id="a_node1"><a xlink:title=" ">
<polygon fill="#bfbfbf" stroke="black" points="802,-44.5 802,-74.5 922,-74.5 922,-44.5 802,-44.5"/>
<text text-anchor="start" x="810" y="-62.5" font-family="Helvetica,sans-Serif" font-size="10.00">param_set_pred_evolve</text>
<text text-anchor="middle" x="862" y="-51.5" font-family="Helvetica,sans-Serif" font-size="10.00">_weights</text>
</a>
</g>
</g>
<!-- Node2 -->
<g id="node2" class="node">
<title>Node2</title>
<g id="a_node2"><a xlink:href="config_8c.html#a09619cf9f3baf61a82edc0d8e04f4a3b" target="_top" xlink:title="Sets classifier prediction parameters.">
<polygon fill="none" stroke="black" points="668.5,-88 668.5,-107 748.5,-107 748.5,-88 668.5,-88"/>
<text text-anchor="middle" x="708.5" y="-95" font-family="Helvetica,sans-Serif" font-size="10.00">config_cl_pred</text>
</a>
</g>
</g>
<!-- Node1&#45;&gt;Node2 -->
<g id="edge1" class="edge">
<title>Node1&#45;&gt;Node2</title>
<path fill="none" stroke="midnightblue" d="M792.03,-76.8C776.76,-80.63 761.11,-84.56 747.6,-87.94"/>
<polygon fill="midnightblue" stroke="midnightblue" points="793.14,-80.13 801.99,-74.3 791.44,-73.34 793.14,-80.13"/>
</g>
<!-- Node9 -->
<g id="node9" class="node">
<title>Node9</title>
<g id="a_node9"><a xlink:href="param_8c.html#a5de507d2da0f88d37c5f92f4fb1e9cb2" target="_top" xlink:title="Initialises default classifier prediction parameters.">
<polygon fill="none" stroke="black" points="323,-50 323,-69 466,-69 466,-50 323,-50"/>
<text text-anchor="middle" x="394.5" y="-57" font-family="Helvetica,sans-Serif" font-size="10.00">param_defaults_cl_prediction</text>
</a>
</g>
</g>
<!-- Node1&#45;&gt;Node9 -->
<g id="edge8" class="edge">
<title>Node1&#45;&gt;Node9</title>
<path fill="none" stroke="midnightblue" d="M791.48,-59.5C703.97,-59.5 554.49,-59.5 466.36,-59.5"/>
<polygon fill="midnightblue" stroke="midnightblue" points="791.57,-63 801.57,-59.5 791.57,-56 791.57,-63"/>
</g>
<!-- Node11 -->
<g id="node11" class="node">
<title>Node11</title>
<g id="a_node11"><a xlink:href="classXCS.html#a98b4ea1a0e1623525a16acbe51fcc681" target="_top" xlink:title=" ">
<polygon fill="none" stroke="black" points="651,-0.5 651,-30.5 766,-30.5 766,-0.5 651,-0.5"/>
<text text-anchor="start" x="659" y="-18.5" font-family="Helvetica,sans-Serif" font-size="10.00">XCS::set_pred_evolve</text>
<text text-anchor="middle" x="708.5" y="-7.5" font-family="Helvetica,sans-Serif" font-size="10.00">_weights</text>
</a>
</g>
</g>
<!-- Node1&#45;&gt;Node11 -->
<g id="edge12" class="edge">
<title>Node1&#45;&gt;Node11</title>
<path fill="none" stroke="midnightblue" d="M799.67,-41.69C786.92,-37.98 773.6,-34.12 761.24,-30.53"/>
<polygon fill="midnightblue" stroke="midnightblue" points="798.71,-45.05 809.29,-44.48 800.66,-38.33 798.71,-45.05"/>
</g>
<!-- Node3 -->
<g id="node3" class="node">
<title>Node3</title>
<g id="a_node3"><a xlink:href="config_8c.html#a695f5f085aa119586feb23e5a81a739c" target="_top" xlink:title="Sets specified parameter.">
<polygon fill="none" stroke="black" points="510.5,-88 510.5,-107 606.5,-107 606.5,-88 510.5,-88"/>
<text text-anchor="middle" x="558.5" y="-95" font-family="Helvetica,sans-Serif" font-size="10.00">config_add_param</text>
</a>
</g>
</g>
<!-- Node2&#45;&gt;Node3 -->
<g id="edge2" class="edge">
<title>Node2&#45;&gt;Node3</title>
<path fill="none" stroke="midnightblue" d="M658.16,-97.5C641.54,-97.5 623.04,-97.5 606.6,-97.5"/>
<polygon fill="midnightblue" stroke="midnightblue" points="658.23,-101 668.23,-97.5 658.23,-94 658.23,-101"/>
</g>
<!-- Node4 -->
<g id="node4" class="node">
<title>Node4</title>
<g id="a_node4"><a xlink:href="config_8c.html#a5b96815b9ebb26a8fc7bcc30a75ab36d" target="_top" xlink:title="Adds a parameter to the list.">
<polygon fill="none" stroke="black" points="348.5,-88 348.5,-107 440.5,-107 440.5,-88 348.5,-88"/>
<text text-anchor="middle" x="394.5" y="-95" font-family="Helvetica,sans-Serif" font-size="10.00">config_newnvpair</text>
</a>
</g>
</g>
<!-- Node3&#45;&gt;Node4 -->
<g id="edge3" class="edge">
<title>Node3&#45;&gt;Node4</title>
<path fill="none" stroke="midnightblue" d="M500.2,-97.5C480.65,-97.5 459.08,-97.5 440.62,-97.5"/>
<polygon fill="midnightblue" stroke="midnightblue" points="500.21,-101 510.21,-97.5 500.21,-94 500.21,-101"/>
</g>
<!-- Node5 -->
<g id="node5" class="node">
<title>Node5</title>
<g id="a_node5"><a xlink:href="config_8c.html#a01c178cc1587140f60ecf27291a2032a" target="_top" xlink:title="Parses a line of the config file and adds to the list.">
<polygon fill="none" stroke="black" points="204,-88 204,-107 287,-107 287,-88 204,-88"/>
<text text-anchor="middle" x="245.5" y="-95" font-family="Helvetica,sans-Serif" font-size="10.00">config_process</text>
</a>
</g>
</g>
<!-- Node4&#45;&gt;Node5 -->
<g id="edge4" class="edge">
<title>Node4&#45;&gt;Node5</title>
<path fill="none" stroke="midnightblue" d="M337.95,-97.5C321.17,-97.5 303.05,-97.5 287.41,-97.5"/>
<polygon fill="midnightblue" stroke="midnightblue" points="338.2,-101 348.2,-97.5 338.2,-94 338.2,-101"/>
</g>
<!-- Node6 -->
<g id="node6" class="node">
<title>Node6</title>
<g id="a_node6"><a xlink:href="config_8h.html#a045a64a30d99a4bef2ebfd9b54aa9698" target="_top" xlink:title="Reads the specified configuration file.">
<polygon fill="none" stroke="black" points="101,-88 101,-107 168,-107 168,-88 101,-88"/>
<text text-anchor="middle" x="134.5" y="-95" font-family="Helvetica,sans-Serif" font-size="10.00">config_read</text>
</a>
</g>
</g>
<!-- Node5&#45;&gt;Node6 -->
<g id="edge5" class="edge">
<title>Node5&#45;&gt;Node6</title>
<path fill="none" stroke="midnightblue" d="M193.84,-97.5C185.16,-97.5 176.35,-97.5 168.3,-97.5"/>
<polygon fill="midnightblue" stroke="midnightblue" points="193.91,-101 203.91,-97.5 193.91,-94 193.91,-101"/>
</g>
<!-- Node7 -->
<g id="node7" class="node">
<title>Node7</title>
<g id="a_node7"><a xlink:href="main_8c.html#a3c04138a5bfe5d72780bb7e82a18e627" target="_top" xlink:title=" ">
<polygon fill="none" stroke="black" points="13.5,-88 13.5,-107 51.5,-107 51.5,-88 13.5,-88"/>
<text text-anchor="middle" x="32.5" y="-95" font-family="Helvetica,sans-Serif" font-size="10.00">main</text>
</a>
</g>
</g>
<!-- Node6&#45;&gt;Node7 -->
<g id="edge6" class="edge">
<title>Node6&#45;&gt;Node7</title>
<path fill="none" stroke="midnightblue" d="M90.55,-97.5C76.94,-97.5 62.61,-97.5 51.72,-97.5"/>
<polygon fill="midnightblue" stroke="midnightblue" points="90.76,-101 100.76,-97.5 90.76,-94 90.76,-101"/>
</g>
<!-- Node8 -->
<g id="node8" class="node">
<title>Node8</title>
<g id="a_node8"><a xlink:href="classXCS.html#a81bb7e5f76e05ad983d70fe848b73393" target="_top" xlink:title="Constructor with a specified config.">
<polygon fill="none" stroke="black" points="0,-50 0,-69 65,-69 65,-50 0,-50"/>
<text text-anchor="middle" x="32.5" y="-57" font-family="Helvetica,sans-Serif" font-size="10.00">XCS::XCS</text>
</a>
</g>
</g>
<!-- Node6&#45;&gt;Node8 -->
<g id="edge7" class="edge">
<title>Node6&#45;&gt;Node8</title>
<path fill="none" stroke="midnightblue" d="M98.59,-84.24C85.47,-79.25 70.81,-73.68 58.73,-69.09"/>
<polygon fill="midnightblue" stroke="midnightblue" points="97.67,-87.63 108.27,-87.91 100.16,-81.09 97.67,-87.63"/>
</g>
<!-- Node10 -->
<g id="node10" class="node">
<title>Node10</title>
<g id="a_node10"><a xlink:href="param_8h.html#a4f8540c63eec02eb3a86e12a5d370de9" target="_top" xlink:title="Initialises default XCSF parameters.">
<polygon fill="none" stroke="black" points="103.5,-50 103.5,-69 165.5,-69 165.5,-50 103.5,-50"/>
<text text-anchor="middle" x="134.5" y="-57" font-family="Helvetica,sans-Serif" font-size="10.00">param_init</text>
</a>
</g>
</g>
<!-- Node9&#45;&gt;Node10 -->
<g id="edge9" class="edge">
<title>Node9&#45;&gt;Node10</title>
<path fill="none" stroke="midnightblue" d="M312.52,-59.5C262.67,-59.5 201.64,-59.5 165.82,-59.5"/>
<polygon fill="midnightblue" stroke="midnightblue" points="312.66,-63 322.66,-59.5 312.66,-56 312.66,-63"/>
</g>
<!-- Node10&#45;&gt;Node7 -->
<g id="edge10" class="edge">
<title>Node10&#45;&gt;Node7</title>
<path fill="none" stroke="midnightblue" d="M98.78,-72.7C82.96,-78.7 64.9,-85.57 51.78,-90.55"/>
<polygon fill="midnightblue" stroke="midnightblue" points="100.16,-75.91 108.27,-69.09 97.67,-69.37 100.16,-75.91"/>
</g>
<!-- Node10&#45;&gt;Node8 -->
<g id="edge11" class="edge">
<title>Node10&#45;&gt;Node8</title>
<path fill="none" stroke="midnightblue" d="M93.24,-59.5C83.92,-59.5 74.12,-59.5 65.22,-59.5"/>
<polygon fill="midnightblue" stroke="midnightblue" points="93.5,-63 103.5,-59.5 93.5,-56 93.5,-63"/>
</g>
<!-- Node12 -->
<g id="node12" class="node">
<title>Node12</title>
<g id="a_node12"><a xlink:href="pybind__wrapper_8cpp.html#a269acb618355873dacf057083f07eb58" target="_top" xlink:title=" ">
<polygon fill="none" stroke="black" points="502,-6 502,-25 615,-25 615,-6 502,-6"/>
<text text-anchor="middle" x="558.5" y="-13" font-family="Helvetica,sans-Serif" font-size="10.00">pybind11_init_wrapper</text>
</a>
</g>
</g>
<!-- Node11&#45;&gt;Node12 -->
<g id="edge13" class="edge">
<title>Node11&#45;&gt;Node12</title>
<path fill="none" stroke="midnightblue" d="M640.54,-15.5C632.14,-15.5 623.62,-15.5 615.41,-15.5"/>
<polygon fill="midnightblue" stroke="midnightblue" points="640.7,-19 650.7,-15.5 640.7,-12 640.7,-19"/>
</g>
</g>
</svg>
