<?xml version="1.0" encoding="UTF-8" standalone="no"?>
<!DOCTYPE svg PUBLIC "-//W3C//DTD SVG 1.1//EN"
 "http://www.w3.org/Graphics/SVG/1.1/DTD/svg11.dtd">
<!-- Generated by graphviz version 2.43.0 (0)
 -->
<!-- Title: param_print Pages: 1 -->
<svg width="843pt" height="693pt"
 viewBox="0.00 0.00 843.00 693.00" xmlns="http://www.w3.org/2000/svg" xmlns:xlink="http://www.w3.org/1999/xlink">
<g id="graph0" class="graph" transform="scale(1 1) rotate(0) translate(4 689)">
<title>param_print</title>
<!-- Node1 -->
<g id="node1" class="node">
<title>Node1</title>
<g id="a_node1"><a xlink:title="Prints all XCSF parameters.">
<polygon fill="#bfbfbf" stroke="black" points="0,-133.5 0,-152.5 68,-152.5 68,-133.5 0,-133.5"/>
<text text-anchor="middle" x="34" y="-140.5" font-family="Helvetica,sans-Serif" font-size="10.00">param_print</text>
</a>
</g>
</g>
<!-- Node2 -->
<g id="node2" class="node">
<title>Node2</title>
<g id="a_node2"><a xlink:href="action_8c.html#a1e6bb9a3116b23d3bb6b676607501923" target="_top" xlink:title="Prints action parameters.">
<polygon fill="none" stroke="black" points="118.5,-437.5 118.5,-456.5 217.5,-456.5 217.5,-437.5 118.5,-437.5"/>
<text text-anchor="middle" x="168" y="-444.5" font-family="Helvetica,sans-Serif" font-size="10.00">action_param_print</text>
</a>
</g>
</g>
<!-- Node1&#45;&gt;Node2 -->
<g id="edge1" class="edge">
<title>Node1&#45;&gt;Node2</title>
<path fill="none" stroke="midnightblue" d="M37.18,-152.51C44.29,-182.72 68.44,-278.79 104,-352 117.9,-380.61 139.17,-410.73 153.09,-429.2"/>
<polygon fill="midnightblue" stroke="midnightblue" points="150.41,-431.46 159.26,-437.27 155.96,-427.2 150.41,-431.46"/>
</g>
<!-- Node22 -->
<g id="node22" class="node">
<title>Node22</title>
<g id="a_node22"><a xlink:href="condition_8c.html#adc81d1c6371eb0ef613ba3df5f2b1fb4" target="_top" xlink:title="Prints condition parameters.">
<polygon fill="none" stroke="black" points="121,-323.5 121,-342.5 215,-342.5 215,-323.5 121,-323.5"/>
<text text-anchor="middle" x="168" y="-330.5" font-family="Helvetica,sans-Serif" font-size="10.00">cond_param_print</text>
</a>
</g>
</g>
<!-- Node1&#45;&gt;Node22 -->
<g id="edge22" class="edge">
<title>Node1&#45;&gt;Node22</title>
<path fill="none" stroke="midnightblue" d="M41.73,-152.68C62.64,-182.79 126.76,-275.08 154.26,-314.66"/>
<polygon fill="midnightblue" stroke="midnightblue" points="151.55,-316.89 160.13,-323.11 157.3,-312.9 151.55,-316.89"/>
</g>
<!-- Node30 -->
<g id="node30" class="node">
<title>Node30</title>
<g id="a_node30"><a xlink:href="ea_8c.html#aea6039b7f2371ccd97dfc0e43d97609b" target="_top" xlink:title="Prints evolutionary algorithm parameters.">
<polygon fill="none" stroke="black" points="126.5,-152.5 126.5,-171.5 209.5,-171.5 209.5,-152.5 126.5,-152.5"/>
<text text-anchor="middle" x="168" y="-159.5" font-family="Helvetica,sans-Serif" font-size="10.00">ea_param_print</text>
</a>
</g>
</g>
<!-- Node1&#45;&gt;Node30 -->
<g id="edge31" class="edge">
<title>Node1&#45;&gt;Node30</title>
<path fill="none" stroke="midnightblue" d="M68.31,-147.79C82.72,-149.87 99.91,-152.34 115.88,-154.64"/>
<polygon fill="midnightblue" stroke="midnightblue" points="115.75,-158.16 126.15,-156.12 116.75,-151.23 115.75,-158.16"/>
</g>
<!-- Node32 -->
<g id="node32" class="node">
<title>Node32</title>
<g id="a_node32"><a xlink:href="param_8c.html#aef06f6d66df8f476741cc59dcf9d6df4" target="_top" xlink:title="Prints XCSF general classifier parameters.">
<polygon fill="none" stroke="black" points="109.5,-114.5 109.5,-133.5 226.5,-133.5 226.5,-114.5 109.5,-114.5"/>
<text text-anchor="middle" x="168" y="-121.5" font-family="Helvetica,sans-Serif" font-size="10.00">param_print_cl_general</text>
</a>
</g>
</g>
<!-- Node1&#45;&gt;Node32 -->
<g id="edge33" class="edge">
<title>Node1&#45;&gt;Node32</title>
<path fill="none" stroke="midnightblue" d="M68.31,-138.21C77.84,-136.83 88.59,-135.29 99.39,-133.73"/>
<polygon fill="midnightblue" stroke="midnightblue" points="99.9,-137.19 109.3,-132.31 98.9,-130.27 99.9,-137.19"/>
</g>
<!-- Node33 -->
<g id="node33" class="node">
<title>Node33</title>
<g id="a_node33"><a xlink:href="param_8c.html#ab96d6372dcf880becf434214f899cd8c" target="_top" xlink:title="Prints XCSF general parameters.">
<polygon fill="none" stroke="black" points="116,-76.5 116,-95.5 220,-95.5 220,-76.5 116,-76.5"/>
<text text-anchor="middle" x="168" y="-83.5" font-family="Helvetica,sans-Serif" font-size="10.00">param_print_general</text>
</a>
</g>
</g>
<!-- Node1&#45;&gt;Node33 -->
<g id="edge34" class="edge">
<title>Node1&#45;&gt;Node33</title>
<path fill="none" stroke="midnightblue" d="M50.15,-133.44C63.83,-125.1 84.71,-113.11 104,-105 109.4,-102.73 115.16,-100.61 120.92,-98.66"/>
<polygon fill="midnightblue" stroke="midnightblue" points="122.11,-101.96 130.56,-95.57 119.97,-95.29 122.11,-101.96"/>
</g>
<!-- Node35 -->
<g id="node35" class="node">
<title>Node35</title>
<g id="a_node35"><a xlink:href="param_8c.html#a7343044b05554a193686262c8921dc0c" target="_top" xlink:title="Prints XCSF multistep parameters.">
<polygon fill="none" stroke="black" points="111.5,-38.5 111.5,-57.5 224.5,-57.5 224.5,-38.5 111.5,-38.5"/>
<text text-anchor="middle" x="168" y="-45.5" font-family="Helvetica,sans-Serif" font-size="10.00">param_print_multistep</text>
</a>
</g>
</g>
<!-- Node1&#45;&gt;Node35 -->
<g id="edge36" class="edge">
<title>Node1&#45;&gt;Node35</title>
<path fill="none" stroke="midnightblue" d="M41.19,-133.29C51.99,-117.14 75.82,-84.79 104,-67 107.33,-64.9 110.9,-63.02 114.59,-61.34"/>
<polygon fill="midnightblue" stroke="midnightblue" points="115.98,-64.55 123.94,-57.56 113.36,-58.06 115.98,-64.55"/>
</g>
<!-- Node36 -->
<g id="node36" class="node">
<title>Node36</title>
<g id="a_node36"><a xlink:href="param_8c.html#a7c848a8875211a0a5dd7bcd3a1c39724" target="_top" xlink:title="Prints XCSF subsumption parameters.">
<polygon fill="none" stroke="black" points="104,-0.5 104,-19.5 232,-19.5 232,-0.5 104,-0.5"/>
<text text-anchor="middle" x="168" y="-7.5" font-family="Helvetica,sans-Serif" font-size="10.00">param_print_subsumption</text>
</a>
</g>
</g>
<!-- Node1&#45;&gt;Node36 -->
<g id="edge37" class="edge">
<title>Node1&#45;&gt;Node36</title>
<path fill="none" stroke="midnightblue" d="M38.1,-133.42C45.68,-111.52 67.26,-57.5 104,-29 106.33,-27.19 108.82,-25.56 111.43,-24.08"/>
<polygon fill="midnightblue" stroke="midnightblue" points="113.18,-27.13 120.66,-19.62 110.13,-20.82 113.18,-27.13"/>
</g>
<!-- Node37 -->
<g id="node37" class="node">
<title>Node37</title>
<g id="a_node37"><a xlink:href="prediction_8c.html#a8358abee65ddd688514040ef8851d9f2" target="_top" xlink:title="Prints prediction parameters.">
<polygon fill="none" stroke="black" points="122,-190.5 122,-209.5 214,-209.5 214,-190.5 122,-190.5"/>
<text text-anchor="middle" x="168" y="-197.5" font-family="Helvetica,sans-Serif" font-size="10.00">pred_param_print</text>
</a>
</g>
</g>
<!-- Node1&#45;&gt;Node37 -->
<g id="edge38" class="edge">
<title>Node1&#45;&gt;Node37</title>
<path fill="none" stroke="midnightblue" d="M50.15,-152.56C63.83,-160.9 84.71,-172.89 104,-181 109.4,-183.27 115.16,-185.39 120.92,-187.34"/>
<polygon fill="midnightblue" stroke="midnightblue" points="119.97,-190.71 130.56,-190.43 122.11,-184.04 119.97,-190.71"/>
</g>
<!-- Node3 -->
<g id="node3" class="node">
<title>Node3</title>
<g id="a_node3"><a xlink:href="action_8c.html#a92f612de02989e82ef6c52bc7384f24f" target="_top" xlink:title="Returns a string representation of an action type from an integer.">
<polygon fill="none" stroke="black" points="276.5,-475.5 276.5,-494.5 388.5,-494.5 388.5,-475.5 276.5,-475.5"/>
<text text-anchor="middle" x="332.5" y="-482.5" font-family="Helvetica,sans-Serif" font-size="10.00">action_type_as_string</text>
</a>
</g>
</g>
<!-- Node2&#45;&gt;Node3 -->
<g id="edge2" class="edge">
<title>Node2&#45;&gt;Node3</title>
<path fill="none" stroke="midnightblue" d="M210.01,-456.59C231.55,-461.63 258.13,-467.84 280.94,-473.18"/>
<polygon fill="midnightblue" stroke="midnightblue" points="280.25,-476.61 290.79,-475.48 281.85,-469.79 280.25,-476.61"/>
</g>
<!-- Node4 -->
<g id="node4" class="node">
<title>Node4</title>
<g id="a_node4"><a xlink:href="neural__layer__args_8c.html#a8d6f5c91f58e29ae70807de0d0b25d0e" target="_top" xlink:title="Prints layer parameters.">
<polygon fill="none" stroke="black" points="289.5,-437.5 289.5,-456.5 375.5,-456.5 375.5,-437.5 289.5,-437.5"/>
<text text-anchor="middle" x="332.5" y="-444.5" font-family="Helvetica,sans-Serif" font-size="10.00">layer_args_print</text>
</a>
</g>
</g>
<!-- Node2&#45;&gt;Node4 -->
<g id="edge3" class="edge">
<title>Node2&#45;&gt;Node4</title>
<path fill="none" stroke="midnightblue" d="M217.76,-447C237.18,-447 259.57,-447 279.32,-447"/>
<polygon fill="midnightblue" stroke="midnightblue" points="279.38,-450.5 289.38,-447 279.38,-443.5 279.38,-450.5"/>
</g>
<!-- Node5 -->
<g id="node5" class="node">
<title>Node5</title>
<g id="a_node5"><a xlink:href="neural__layer__args_8c.html#a56dcbd4bdf90e80ef81c676df60ff8b3" target="_top" xlink:title="Prints layer activation function parameters.">
<polygon fill="none" stroke="black" points="433,-475.5 433,-494.5 566,-494.5 566,-475.5 433,-475.5"/>
<text text-anchor="middle" x="499.5" y="-482.5" font-family="Helvetica,sans-Serif" font-size="10.00">layer_args_print_activation</text>
</a>
</g>
</g>
<!-- Node4&#45;&gt;Node5 -->
<g id="edge4" class="edge">
<title>Node4&#45;&gt;Node5</title>
<path fill="none" stroke="midnightblue" d="M375.14,-456.59C397.01,-461.63 424.01,-467.84 447.16,-473.18"/>
<polygon fill="midnightblue" stroke="midnightblue" points="446.63,-476.65 457.16,-475.48 448.2,-469.82 446.63,-476.65"/>
</g>
<!-- Node7 -->
<g id="node7" class="node">
<title>Node7</title>
<g id="a_node7"><a xlink:href="neural__layer__args_8c.html#ac617200b2ee8792381b8297d45fee174" target="_top" xlink:title="Prints layer evolutionary operator parameters.">
<polygon fill="none" stroke="black" points="446,-437.5 446,-456.5 553,-456.5 553,-437.5 446,-437.5"/>
<text text-anchor="middle" x="499.5" y="-444.5" font-family="Helvetica,sans-Serif" font-size="10.00">layer_args_print_evo</text>
</a>
</g>
</g>
<!-- Node4&#45;&gt;Node7 -->
<g id="edge6" class="edge">
<title>Node4&#45;&gt;Node7</title>
<path fill="none" stroke="midnightblue" d="M375.56,-447C393.86,-447 415.68,-447 435.83,-447"/>
<polygon fill="midnightblue" stroke="midnightblue" points="435.87,-450.5 445.87,-447 435.87,-443.5 435.87,-450.5"/>
</g>
<!-- Node8 -->
<g id="node8" class="node">
<title>Node8</title>
<g id="a_node8"><a xlink:href="neural__layer__args_8c.html#acead84ca91e1c410f24bc8b60517415b" target="_top" xlink:title="Prints layer input parameters.">
<polygon fill="none" stroke="black" points="441,-399.5 441,-418.5 558,-418.5 558,-399.5 441,-399.5"/>
<text text-anchor="middle" x="499.5" y="-406.5" font-family="Helvetica,sans-Serif" font-size="10.00">layer_args_print_inputs</text>
</a>
</g>
</g>
<!-- Node4&#45;&gt;Node8 -->
<g id="edge7" class="edge">
<title>Node4&#45;&gt;Node8</title>
<path fill="none" stroke="midnightblue" d="M375.14,-437.41C397.01,-432.37 424.01,-426.16 447.16,-420.82"/>
<polygon fill="midnightblue" stroke="midnightblue" points="448.2,-424.18 457.16,-418.52 446.63,-417.35 448.2,-424.18"/>
</g>
<!-- Node10 -->
<g id="node10" class="node">
<title>Node10</title>
<g id="a_node10"><a xlink:href="neural__layer__args_8c.html#a78d120a156a1991d06ee0297f0beb0c7" target="_top" xlink:title="Prints layer.">
<polygon fill="none" stroke="black" points="442.5,-361.5 442.5,-380.5 556.5,-380.5 556.5,-361.5 442.5,-361.5"/>
<text text-anchor="middle" x="499.5" y="-368.5" font-family="Helvetica,sans-Serif" font-size="10.00">layer_args_print_scale</text>
</a>
</g>
</g>
<!-- Node4&#45;&gt;Node10 -->
<g id="edge9" class="edge">
<title>Node4&#45;&gt;Node10</title>
<path fill="none" stroke="midnightblue" d="M375.82,-437.71C383.18,-435.17 390.53,-431.98 397,-428 416.81,-415.81 413.13,-402.11 433,-390 436.43,-387.91 440.1,-386.04 443.88,-384.37"/>
<polygon fill="midnightblue" stroke="midnightblue" points="445.43,-387.52 453.46,-380.61 442.88,-381.01 445.43,-387.52"/>
</g>
<!-- Node11 -->
<g id="node11" class="node">
<title>Node11</title>
<g id="a_node11"><a xlink:href="neural__layer__args_8c.html#add3ff102fe13b879aa177e001e65a86c" target="_top" xlink:title="Prints layer gradient descent parameters.">
<polygon fill="none" stroke="black" points="446,-323.5 446,-342.5 553,-342.5 553,-323.5 446,-323.5"/>
<text text-anchor="middle" x="499.5" y="-330.5" font-family="Helvetica,sans-Serif" font-size="10.00">layer_args_print_sgd</text>
</a>
</g>
</g>
<!-- Node4&#45;&gt;Node11 -->
<g id="edge10" class="edge">
<title>Node4&#45;&gt;Node11</title>
<path fill="none" stroke="midnightblue" d="M375.68,-439.8C383.37,-437.05 390.89,-433.25 397,-428 425.35,-403.65 404.54,-376.23 433,-352 435.01,-350.29 437.17,-348.73 439.43,-347.31"/>
<polygon fill="midnightblue" stroke="midnightblue" points="441.37,-350.25 448.61,-342.51 438.12,-344.05 441.37,-350.25"/>
</g>
<!-- Node12 -->
<g id="node12" class="node">
<title>Node12</title>
<g id="a_node12"><a xlink:href="neural__layer_8c.html#a0e2222a263f09abb981bc7273cd88d7e" target="_top" xlink:title="Returns a string representation of a layer type from an integer.">
<polygon fill="none" stroke="black" points="446,-627.5 446,-646.5 553,-646.5 553,-627.5 446,-627.5"/>
<text text-anchor="middle" x="499.5" y="-634.5" font-family="Helvetica,sans-Serif" font-size="10.00">layer_type_as_string</text>
</a>
</g>
</g>
<!-- Node4&#45;&gt;Node12 -->
<g id="edge11" class="edge">
<title>Node4&#45;&gt;Node12</title>
<path fill="none" stroke="midnightblue" d="M375.62,-452.88C383.59,-455.72 391.24,-459.89 397,-466 444.64,-516.5 385.15,-567.7 433,-618 434.38,-619.45 435.86,-620.79 437.42,-622.03"/>
<polygon fill="midnightblue" stroke="midnightblue" points="435.54,-624.98 445.85,-627.42 439.31,-619.08 435.54,-624.98"/>
</g>
<!-- Node13 -->
<g id="node13" class="node">
<title>Node13</title>
<g id="a_node13"><a xlink:href="neural_8c.html#a6466387dd7c533e0f15da4c2127bfd79" target="_top" xlink:title="Initialises and creates a new neural network from a parameter list.">
<polygon fill="none" stroke="black" points="462,-589.5 462,-608.5 537,-608.5 537,-589.5 462,-589.5"/>
<text text-anchor="middle" x="499.5" y="-596.5" font-family="Helvetica,sans-Serif" font-size="10.00">neural_create</text>
</a>
</g>
</g>
<!-- Node4&#45;&gt;Node13 -->
<g id="edge12" class="edge">
<title>Node4&#45;&gt;Node13</title>
<path fill="none" stroke="midnightblue" d="M375.55,-453.39C383.44,-456.2 391.06,-460.22 397,-466 433.58,-501.56 397.51,-538.35 433,-575 438.33,-580.5 445.02,-584.75 452.08,-588.03"/>
<polygon fill="midnightblue" stroke="midnightblue" points="451.26,-591.47 461.84,-591.93 453.85,-584.97 451.26,-591.47"/>
</g>
<!-- Node17 -->
<g id="node17" class="node">
<title>Node17</title>
<g id="a_node17"><a xlink:href="neural_8c.html#ad70aee7c40f698d4be45e3d419051c2f" target="_top" xlink:title="Initialises an empty neural network.">
<polygon fill="none" stroke="black" points="631,-551.5 631,-570.5 692,-570.5 692,-551.5 631,-551.5"/>
<text text-anchor="middle" x="661.5" y="-558.5" font-family="Helvetica,sans-Serif" font-size="10.00">neural_init</text>
</a>
</g>
</g>
<!-- Node4&#45;&gt;Node17 -->
<g id="edge21" class="edge">
<title>Node4&#45;&gt;Node17</title>
<path fill="none" stroke="midnightblue" d="M375.68,-454.2C383.37,-456.95 390.89,-460.75 397,-466 425.35,-490.35 402.28,-520.72 433,-542 488.85,-580.69 571.91,-576.09 620.7,-568.82"/>
<polygon fill="midnightblue" stroke="midnightblue" points="621.54,-572.23 630.86,-567.19 620.43,-565.32 621.54,-572.23"/>
</g>
<!-- Node20 -->
<g id="node20" class="node">
<title>Node20</title>
<g id="a_node20"><a xlink:href="neural_8c.html#a9c3e1da0425d0fc17daa12c21e4799ca" target="_top" xlink:title="Frees a neural network.">
<polygon fill="none" stroke="black" points="467,-513.5 467,-532.5 532,-532.5 532,-513.5 467,-513.5"/>
<text text-anchor="middle" x="499.5" y="-520.5" font-family="Helvetica,sans-Serif" font-size="10.00">neural_free</text>
</a>
</g>
</g>
<!-- Node4&#45;&gt;Node20 -->
<g id="edge19" class="edge">
<title>Node4&#45;&gt;Node20</title>
<path fill="none" stroke="midnightblue" d="M375.82,-456.29C383.18,-458.83 390.53,-462.02 397,-466 416.81,-478.19 413.13,-491.89 433,-504 440.34,-508.47 448.78,-511.94 457.12,-514.61"/>
<polygon fill="midnightblue" stroke="midnightblue" points="456.19,-517.98 466.77,-517.38 458.13,-511.25 456.19,-517.98"/>
</g>
<!-- Node6 -->
<g id="node6" class="node">
<title>Node6</title>
<g id="a_node6"><a xlink:href="neural__activations_8c.html#a429f5b4427682cb174e3d4d56f181a22" target="_top" xlink:title="Returns the name of a specified activation function.">
<polygon fill="none" stroke="black" points="602,-475.5 602,-494.5 721,-494.5 721,-475.5 602,-475.5"/>
<text text-anchor="middle" x="661.5" y="-482.5" font-family="Helvetica,sans-Serif" font-size="10.00">neural_activation_string</text>
</a>
</g>
</g>
<!-- Node5&#45;&gt;Node6 -->
<g id="edge5" class="edge">
<title>Node5&#45;&gt;Node6</title>
<path fill="none" stroke="midnightblue" d="M566.04,-485C574.51,-485 583.2,-485 591.71,-485"/>
<polygon fill="midnightblue" stroke="midnightblue" points="591.99,-488.5 601.99,-485 591.99,-481.5 591.99,-488.5"/>
</g>
<!-- Node9 -->
<g id="node9" class="node">
<title>Node9</title>
<g id="a_node9"><a xlink:href="neural__layer_8c.html#ad1b7188119d0d96791ee0d87c105896a" target="_top" xlink:title="Returns a whether a layer type expects images as input.">
<polygon fill="none" stroke="black" points="603.5,-399.5 603.5,-418.5 719.5,-418.5 719.5,-399.5 603.5,-399.5"/>
<text text-anchor="middle" x="661.5" y="-406.5" font-family="Helvetica,sans-Serif" font-size="10.00">layer_receives_images</text>
</a>
</g>
</g>
<!-- Node8&#45;&gt;Node9 -->
<g id="edge8" class="edge">
<title>Node8&#45;&gt;Node9</title>
<path fill="none" stroke="midnightblue" d="M558.26,-409C569.62,-409 581.62,-409 593.25,-409"/>
<polygon fill="midnightblue" stroke="midnightblue" points="593.36,-412.5 603.36,-409 593.36,-405.5 593.36,-412.5"/>
</g>
<!-- Node14 -->
<g id="node14" class="node">
<title>Node14</title>
<g id="a_node14"><a xlink:href="neural__layer_8h.html#a33f40237cec8d79bf6325b78d1f955fe" target="_top" xlink:title="Creates and initialises a new layer.">
<polygon fill="none" stroke="black" points="633.5,-627.5 633.5,-646.5 689.5,-646.5 689.5,-627.5 633.5,-627.5"/>
<text text-anchor="middle" x="661.5" y="-634.5" font-family="Helvetica,sans-Serif" font-size="10.00">layer_init</text>
</a>
</g>
</g>
<!-- Node13&#45;&gt;Node14 -->
<g id="edge13" class="edge">
<title>Node13&#45;&gt;Node14</title>
<path fill="none" stroke="midnightblue" d="M537.21,-607.72C563.11,-613.87 597.67,-622.08 623.61,-628.24"/>
<polygon fill="midnightblue" stroke="midnightblue" points="622.91,-631.67 633.45,-630.57 624.53,-624.86 622.91,-631.67"/>
</g>
<!-- Node13&#45;&gt;Node17 -->
<g id="edge16" class="edge">
<title>Node13&#45;&gt;Node17</title>
<path fill="none" stroke="midnightblue" d="M537.21,-590.28C562.29,-584.32 595.51,-576.44 621.14,-570.35"/>
<polygon fill="midnightblue" stroke="midnightblue" points="621.99,-573.74 630.91,-568.03 620.37,-566.93 621.99,-573.74"/>
</g>
<!-- Node18 -->
<g id="node18" class="node">
<title>Node18</title>
<g id="a_node18"><a xlink:href="neural_8c.html#a1c1c06446fc719b8293aade2ded8433c" target="_top" xlink:title="Inserts a layer at the head of a neural network.">
<polygon fill="none" stroke="black" points="627,-589.5 627,-608.5 696,-608.5 696,-589.5 627,-589.5"/>
<text text-anchor="middle" x="661.5" y="-596.5" font-family="Helvetica,sans-Serif" font-size="10.00">neural_push</text>
</a>
</g>
</g>
<!-- Node13&#45;&gt;Node18 -->
<g id="edge17" class="edge">
<title>Node13&#45;&gt;Node18</title>
<path fill="none" stroke="midnightblue" d="M537.21,-599C560.86,-599 591.74,-599 616.68,-599"/>
<polygon fill="midnightblue" stroke="midnightblue" points="616.96,-602.5 626.96,-599 616.96,-595.5 616.96,-602.5"/>
</g>
<!-- Node15 -->
<g id="node15" class="node">
<title>Node15</title>
<g id="a_node15"><a xlink:href="neural__layer_8h.html#a21a8acbaa483c46984c4f5f20d4edf95" target="_top" xlink:title="Initialises a layer to default values.">
<polygon fill="none" stroke="black" points="757.5,-665.5 757.5,-684.5 834.5,-684.5 834.5,-665.5 757.5,-665.5"/>
<text text-anchor="middle" x="796" y="-672.5" font-family="Helvetica,sans-Serif" font-size="10.00">layer_defaults</text>
</a>
</g>
</g>
<!-- Node14&#45;&gt;Node15 -->
<g id="edge14" class="edge">
<title>Node14&#45;&gt;Node15</title>
<path fill="none" stroke="midnightblue" d="M689.63,-644.78C707.59,-649.93 731.52,-656.8 752.04,-662.68"/>
<polygon fill="midnightblue" stroke="midnightblue" points="751.22,-666.09 761.8,-665.48 753.15,-659.36 751.22,-666.09"/>
</g>
<!-- Node16 -->
<g id="node16" class="node">
<title>Node16</title>
<g id="a_node16"><a xlink:href="neural__layer_8h.html#a786726dce503a14b3bdd88b1ab5c356f" target="_top" xlink:title="Sets a neural network layer&#39;s functions to the implementations.">
<polygon fill="none" stroke="black" points="757,-627.5 757,-646.5 835,-646.5 835,-627.5 757,-627.5"/>
<text text-anchor="middle" x="796" y="-634.5" font-family="Helvetica,sans-Serif" font-size="10.00">layer_set_vptr</text>
</a>
</g>
</g>
<!-- Node14&#45;&gt;Node16 -->
<g id="edge15" class="edge">
<title>Node14&#45;&gt;Node16</title>
<path fill="none" stroke="midnightblue" d="M689.63,-637C706.06,-637 727.49,-637 746.73,-637"/>
<polygon fill="midnightblue" stroke="midnightblue" points="746.85,-640.5 756.85,-637 746.85,-633.5 746.85,-640.5"/>
</g>
<!-- Node19 -->
<g id="node19" class="node">
<title>Node19</title>
<g id="a_node19"><a xlink:href="neural_8c.html#afab574137fbf9da9a286d020917c8295" target="_top" xlink:title="Inserts a layer into a neural network.">
<polygon fill="none" stroke="black" points="760,-589.5 760,-608.5 832,-608.5 832,-589.5 760,-589.5"/>
<text text-anchor="middle" x="796" y="-596.5" font-family="Helvetica,sans-Serif" font-size="10.00">neural_insert</text>
</a>
</g>
</g>
<!-- Node18&#45;&gt;Node19 -->
<g id="edge18" class="edge">
<title>Node18&#45;&gt;Node19</title>
<path fill="none" stroke="midnightblue" d="M696.28,-599C712.56,-599 732.31,-599 749.86,-599"/>
<polygon fill="midnightblue" stroke="midnightblue" points="749.9,-602.5 759.9,-599 749.9,-595.5 749.9,-602.5"/>
</g>
<!-- Node21 -->
<g id="node21" class="node">
<title>Node21</title>
<g id="a_node21"><a xlink:href="neural__layer_8h.html#a5ea2541eb1936ed851001c4a8b99b08f" target="_top" xlink:title="Frees the memory used by the layer.">
<polygon fill="none" stroke="black" points="632,-513.5 632,-532.5 691,-532.5 691,-513.5 632,-513.5"/>
<text text-anchor="middle" x="661.5" y="-520.5" font-family="Helvetica,sans-Serif" font-size="10.00">layer_free</text>
</a>
</g>
</g>
<!-- Node20&#45;&gt;Node21 -->
<g id="edge20" class="edge">
<title>Node20&#45;&gt;Node21</title>
<path fill="none" stroke="midnightblue" d="M532.11,-523C557.87,-523 594.36,-523 621.85,-523"/>
<polygon fill="midnightblue" stroke="midnightblue" points="621.91,-526.5 631.91,-523 621.91,-519.5 621.91,-526.5"/>
</g>
<!-- Node22&#45;&gt;Node4 -->
<g id="edge30" class="edge">
<title>Node22&#45;&gt;Node4</title>
<path fill="none" stroke="midnightblue" d="M176.35,-342.63C191.43,-361.73 227.87,-404.61 268,-428 271.69,-430.15 275.65,-432.08 279.71,-433.8"/>
<polygon fill="midnightblue" stroke="midnightblue" points="278.74,-437.17 289.33,-437.46 281.23,-430.63 278.74,-437.17"/>
</g>
<!-- Node23 -->
<g id="node23" class="node">
<title>Node23</title>
<g id="a_node23"><a xlink:href="condition_8c.html#aea377b513c7f68361082e1fcedd2a07f" target="_top" xlink:title="Prints center&#45;spread representation condition parameters.">
<polygon fill="none" stroke="black" points="276,-399.5 276,-418.5 389,-418.5 389,-399.5 276,-399.5"/>
<text text-anchor="middle" x="332.5" y="-406.5" font-family="Helvetica,sans-Serif" font-size="10.00">cond_param_print_csr</text>
</a>
</g>
</g>
<!-- Node22&#45;&gt;Node23 -->
<g id="edge23" class="edge">
<title>Node22&#45;&gt;Node23</title>
<path fill="none" stroke="midnightblue" d="M183.21,-342.6C201.96,-354.92 236.3,-376.35 268,-390 273.35,-392.3 279.06,-394.44 284.79,-396.38"/>
<polygon fill="midnightblue" stroke="midnightblue" points="283.79,-399.74 294.38,-399.47 285.94,-393.07 283.79,-399.74"/>
</g>
<!-- Node24 -->
<g id="node24" class="node">
<title>Node24</title>
<g id="a_node24"><a xlink:href="condition_8c.html#a6e026ed762c0d77fa9ba14999f37200c" target="_top" xlink:title="Prints DGP graph condition parameters.">
<polygon fill="none" stroke="black" points="275,-361.5 275,-380.5 390,-380.5 390,-361.5 275,-361.5"/>
<text text-anchor="middle" x="332.5" y="-368.5" font-family="Helvetica,sans-Serif" font-size="10.00">cond_param_print_dgp</text>
</a>
</g>
</g>
<!-- Node22&#45;&gt;Node24 -->
<g id="edge24" class="edge">
<title>Node22&#45;&gt;Node24</title>
<path fill="none" stroke="midnightblue" d="M210.01,-342.59C231.55,-347.63 258.13,-353.84 280.94,-359.18"/>
<polygon fill="midnightblue" stroke="midnightblue" points="280.25,-362.61 290.79,-361.48 281.85,-355.79 280.25,-362.61"/>
</g>
<!-- Node26 -->
<g id="node26" class="node">
<title>Node26</title>
<g id="a_node26"><a xlink:href="condition_8c.html#af803f36b261ce6a5bac8ccbf35d95d0b" target="_top" xlink:title="Prints Tree GP condition parameters.">
<polygon fill="none" stroke="black" points="277.5,-323.5 277.5,-342.5 387.5,-342.5 387.5,-323.5 277.5,-323.5"/>
<text text-anchor="middle" x="332.5" y="-330.5" font-family="Helvetica,sans-Serif" font-size="10.00">cond_param_print_gp</text>
</a>
</g>
</g>
<!-- Node22&#45;&gt;Node26 -->
<g id="edge26" class="edge">
<title>Node22&#45;&gt;Node26</title>
<path fill="none" stroke="midnightblue" d="M215.13,-333C231.37,-333 249.92,-333 267.37,-333"/>
<polygon fill="midnightblue" stroke="midnightblue" points="267.49,-336.5 277.49,-333 267.49,-329.5 267.49,-336.5"/>
</g>
<!-- Node28 -->
<g id="node28" class="node">
<title>Node28</title>
<g id="a_node28"><a xlink:href="condition_8c.html#a4014fbd185aa14dace6d42b3c6986285" target="_top" xlink:title="Prints ternary condition parameters.">
<polygon fill="none" stroke="black" points="268,-285.5 268,-304.5 397,-304.5 397,-285.5 268,-285.5"/>
<text text-anchor="middle" x="332.5" y="-292.5" font-family="Helvetica,sans-Serif" font-size="10.00">cond_param_print_ternary</text>
</a>
</g>
</g>
<!-- Node22&#45;&gt;Node28 -->
<g id="edge28" class="edge">
<title>Node22&#45;&gt;Node28</title>
<path fill="none" stroke="midnightblue" d="M210.01,-323.41C231.55,-318.37 258.13,-312.16 280.94,-306.82"/>
<polygon fill="midnightblue" stroke="midnightblue" points="281.85,-310.21 290.79,-304.52 280.25,-303.39 281.85,-310.21"/>
</g>
<!-- Node29 -->
<g id="node29" class="node">
<title>Node29</title>
<g id="a_node29"><a xlink:href="condition_8c.html#af5a052e347755190271b32d8b09ec026" target="_top" xlink:title="Returns a string representation of a condition type from an integer.">
<polygon fill="none" stroke="black" points="270,-247.5 270,-266.5 395,-266.5 395,-247.5 270,-247.5"/>
<text text-anchor="middle" x="332.5" y="-254.5" font-family="Helvetica,sans-Serif" font-size="10.00">condition_type_as_string</text>
</a>
</g>
</g>
<!-- Node22&#45;&gt;Node29 -->
<g id="edge29" class="edge">
<title>Node22&#45;&gt;Node29</title>
<path fill="none" stroke="midnightblue" d="M183.21,-323.4C201.96,-311.08 236.3,-289.65 268,-276 273.35,-273.7 279.06,-271.56 284.79,-269.62"/>
<polygon fill="midnightblue" stroke="midnightblue" points="285.94,-272.93 294.38,-266.53 283.79,-266.26 285.94,-272.93"/>
</g>
<!-- Node25 -->
<g id="node25" class="node">
<title>Node25</title>
<g id="a_node25"><a xlink:href="dgp_8c.html#a82bf94151f10f27b38b15beb14d86888" target="_top" xlink:title="Prints DGP parameters.">
<polygon fill="none" stroke="black" points="455,-285.5 455,-304.5 544,-304.5 544,-285.5 455,-285.5"/>
<text text-anchor="middle" x="499.5" y="-292.5" font-family="Helvetica,sans-Serif" font-size="10.00">graph_args_print</text>
</a>
</g>
</g>
<!-- Node24&#45;&gt;Node25 -->
<g id="edge25" class="edge">
<title>Node24&#45;&gt;Node25</title>
<path fill="none" stroke="midnightblue" d="M376.49,-361.48C383.62,-358.98 390.73,-355.86 397,-352 416.81,-339.81 413.13,-326.11 433,-314 436.86,-311.65 441.02,-309.58 445.31,-307.75"/>
<polygon fill="midnightblue" stroke="midnightblue" points="446.73,-310.96 454.84,-304.14 444.25,-304.41 446.73,-310.96"/>
</g>
<!-- Node27 -->
<g id="node27" class="node">
<title>Node27</title>
<g id="a_node27"><a xlink:href="gp_8c.html#a3a8ed73923e43a072adc4d92e17b594b" target="_top" xlink:title="Prints Tree GP parameters.">
<polygon fill="none" stroke="black" points="459,-247.5 459,-266.5 540,-266.5 540,-247.5 459,-247.5"/>
<text text-anchor="middle" x="499.5" y="-254.5" font-family="Helvetica,sans-Serif" font-size="10.00">tree_args_print</text>
</a>
</g>
</g>
<!-- Node26&#45;&gt;Node27 -->
<g id="edge27" class="edge">
<title>Node26&#45;&gt;Node27</title>
<path fill="none" stroke="midnightblue" d="M376.49,-323.48C383.62,-320.98 390.73,-317.86 397,-314 416.81,-301.81 413.13,-288.11 433,-276 438.05,-272.92 443.63,-270.32 449.33,-268.13"/>
<polygon fill="midnightblue" stroke="midnightblue" points="450.66,-271.37 458.97,-264.81 448.38,-264.75 450.66,-271.37"/>
</g>
<!-- Node31 -->
<g id="node31" class="node">
<title>Node31</title>
<g id="a_node31"><a xlink:href="ea_8c.html#a53acdbcd7a77faf6d38068559ae03b8b" target="_top" xlink:title="Returns a string representation of an EA select type from an integer.">
<polygon fill="none" stroke="black" points="284.5,-83.5 284.5,-102.5 380.5,-102.5 380.5,-83.5 284.5,-83.5"/>
<text text-anchor="middle" x="332.5" y="-90.5" font-family="Helvetica,sans-Serif" font-size="10.00">ea_type_as_string</text>
</a>
</g>
</g>
<!-- Node30&#45;&gt;Node31 -->
<g id="edge32" class="edge">
<title>Node30&#45;&gt;Node31</title>
<path fill="none" stroke="midnightblue" d="M209.29,-152.49C217.06,-149.93 224.96,-146.79 232,-143 250.34,-133.13 249.72,-122.98 268,-113 272.82,-110.37 278.03,-108.02 283.34,-105.95"/>
<polygon fill="midnightblue" stroke="midnightblue" points="284.67,-109.19 292.9,-102.51 282.31,-102.6 284.67,-109.19"/>
</g>
<!-- Node34 -->
<g id="node34" class="node">
<title>Node34</title>
<g id="a_node34"><a xlink:href="loss_8c.html#ae2f30fcd2fb24ac4698c87b4d6b08cfe" target="_top" xlink:title="Returns a string representation of a loss type from the integer.">
<polygon fill="none" stroke="black" points="280.5,-45.5 280.5,-64.5 384.5,-64.5 384.5,-45.5 280.5,-45.5"/>
<text text-anchor="middle" x="332.5" y="-52.5" font-family="Helvetica,sans-Serif" font-size="10.00">loss_type_as_string</text>
</a>
</g>
</g>
<!-- Node33&#45;&gt;Node34 -->
<g id="edge35" class="edge">
<title>Node33&#45;&gt;Node34</title>
<path fill="none" stroke="midnightblue" d="M219.08,-76.45C235.69,-73.28 254.34,-69.72 271.6,-66.43"/>
<polygon fill="midnightblue" stroke="midnightblue" points="272.42,-69.83 281.58,-64.52 271.11,-62.96 272.42,-69.83"/>
</g>
<!-- Node37&#45;&gt;Node4 -->
<g id="edge39" class="edge">
<title>Node37&#45;&gt;Node4</title>
<path fill="none" stroke="midnightblue" d="M175.25,-209.73C187.44,-229.01 214.7,-273.69 232,-314 252.95,-362.83 230.15,-390.71 268,-428 271.5,-431.45 275.61,-434.28 280.02,-436.6"/>
<polygon fill="midnightblue" stroke="midnightblue" points="278.83,-439.9 289.39,-440.67 281.62,-433.48 278.83,-439.9"/>
</g>
<!-- Node38 -->
<g id="node38" class="node">
<title>Node38</title>
<g id="a_node38"><a xlink:href="prediction_8c.html#ab4e885c4aea369642e1f9ab827157366" target="_top" xlink:title="Prints least mean squres prediction parameters.">
<polygon fill="none" stroke="black" points="273.5,-209.5 273.5,-228.5 391.5,-228.5 391.5,-209.5 273.5,-209.5"/>
<text text-anchor="middle" x="332.5" y="-216.5" font-family="Helvetica,sans-Serif" font-size="10.00">pred_param_print_nlms</text>
</a>
</g>
</g>
<!-- Node37&#45;&gt;Node38 -->
<g id="edge40" class="edge">
<title>Node37&#45;&gt;Node38</title>
<path fill="none" stroke="midnightblue" d="M214.27,-205.29C229.43,-207.07 246.69,-209.08 263.22,-211.02"/>
<polygon fill="midnightblue" stroke="midnightblue" points="263.05,-214.52 273.39,-212.21 263.86,-207.57 263.05,-214.52"/>
</g>
<!-- Node39 -->
<g id="node39" class="node">
<title>Node39</title>
<g id="a_node39"><a xlink:href="prediction_8c.html#a727103c799ce0fd0e50e018c10802839" target="_top" xlink:title="Prints recursive least mean squres prediction parameters.">
<polygon fill="none" stroke="black" points="279,-171.5 279,-190.5 386,-190.5 386,-171.5 279,-171.5"/>
<text text-anchor="middle" x="332.5" y="-178.5" font-family="Helvetica,sans-Serif" font-size="10.00">pred_param_print_rls</text>
</a>
</g>
</g>
<!-- Node37&#45;&gt;Node39 -->
<g id="edge41" class="edge">
<title>Node37&#45;&gt;Node39</title>
<path fill="none" stroke="midnightblue" d="M214.27,-194.71C231.14,-192.73 250.62,-190.46 268.78,-188.33"/>
<polygon fill="midnightblue" stroke="midnightblue" points="269.19,-191.81 278.72,-187.17 268.38,-184.86 269.19,-191.81"/>
</g>
<!-- Node40 -->
<g id="node40" class="node">
<title>Node40</title>
<g id="a_node40"><a xlink:href="prediction_8c.html#a085a8402296bdeab95f54299040e6e0e" target="_top" xlink:title="Returns a string representation of a prediction type from the integer.">
<polygon fill="none" stroke="black" points="283.5,-122 283.5,-152 381.5,-152 381.5,-122 283.5,-122"/>
<text text-anchor="start" x="291.5" y="-140" font-family="Helvetica,sans-Serif" font-size="10.00">prediction_type_as</text>
<text text-anchor="middle" x="332.5" y="-129" font-family="Helvetica,sans-Serif" font-size="10.00">_string</text>
</a>
</g>
</g>
<!-- Node37&#45;&gt;Node40 -->
<g id="edge42" class="edge">
<title>Node37&#45;&gt;Node40</title>
<path fill="none" stroke="midnightblue" d="M205.07,-190.43C213.99,-187.7 223.44,-184.51 232,-181 248.74,-174.13 251.56,-169.55 268,-162 272.41,-159.98 277.04,-157.96 281.7,-156"/>
<polygon fill="midnightblue" stroke="midnightblue" points="283.33,-159.11 291.25,-152.07 280.67,-152.64 283.33,-159.11"/>
</g>
</g>
</svg>
