<?xml version="1.0" encoding="UTF-8" standalone="no"?>
<!DOCTYPE svg PUBLIC "-//W3C//DTD SVG 1.1//EN"
 "http://www.w3.org/Graphics/SVG/1.1/DTD/svg11.dtd">
<!-- Generated by graphviz version 2.43.0 (0)
 -->
<!-- Title: param_set_teletransportation Pages: 1 -->
<svg width="650pt" height="218pt"
 viewBox="0.00 0.00 650.00 218.00" xmlns="http://www.w3.org/2000/svg" xmlns:xlink="http://www.w3.org/1999/xlink">
<g id="graph0" class="graph" transform="scale(1 1) rotate(0) translate(4 214)">
<title>param_set_teletransportation</title>
<!-- Node1 -->
<g id="node1" class="node">
<title>Node1</title>
<g id="a_node1"><a xlink:title=" ">
<polygon fill="#bfbfbf" stroke="black" points="499,-38.5 499,-57.5 642,-57.5 642,-38.5 499,-38.5"/>
<text text-anchor="middle" x="570.5" y="-45.5" font-family="Helvetica,sans-Serif" font-size="10.00">param_set_teletransportation</text>
</a>
</g>
</g>
<!-- Node2 -->
<g id="node2" class="node">
<title>Node2</title>
<g id="a_node2"><a xlink:href="param_8h.html#ac8218a170803be0bcd974764e7494b0e" target="_top" xlink:title="Initialises default XCSF parameters.">
<polygon fill="none" stroke="black" points="363.5,-114.5 363.5,-133.5 425.5,-133.5 425.5,-114.5 363.5,-114.5"/>
<text text-anchor="middle" x="394.5" y="-121.5" font-family="Helvetica,sans-Serif" font-size="10.00">param_init</text>
</a>
</g>
</g>
<!-- Node1&#45;&gt;Node2 -->
<g id="edge1" class="edge">
<title>Node1&#45;&gt;Node2</title>
<path fill="none" stroke="midnightblue" d="M538.21,-61.67C503.34,-76.9 447.85,-101.13 417.36,-114.45"/>
<polygon fill="midnightblue" stroke="midnightblue" points="539.7,-64.84 547.46,-57.63 536.9,-58.42 539.7,-64.84"/>
</g>
<!-- Node9 -->
<g id="node9" class="node">
<title>Node9</title>
<g id="a_node9"><a xlink:href="param_8c.html#a7d152ab74c6a8c9096303ae3331eb015" target="_top" xlink:title="Sets the multi&#45;step parameters from a cJSON object.">
<polygon fill="none" stroke="black" points="332,-38.5 332,-57.5 457,-57.5 457,-38.5 332,-38.5"/>
<text text-anchor="middle" x="394.5" y="-45.5" font-family="Helvetica,sans-Serif" font-size="10.00">param_json_import_multi</text>
</a>
</g>
</g>
<!-- Node1&#45;&gt;Node9 -->
<g id="edge10" class="edge">
<title>Node1&#45;&gt;Node9</title>
<path fill="none" stroke="midnightblue" d="M488.84,-48C478.2,-48 467.43,-48 457.17,-48"/>
<polygon fill="midnightblue" stroke="midnightblue" points="488.98,-51.5 498.98,-48 488.98,-44.5 488.98,-51.5"/>
</g>
<!-- Node12 -->
<g id="node12" class="node">
<title>Node12</title>
<g id="a_node12"><a xlink:href="classXCS.html#a41366ede3a4fe4325f2f902b19f327d9" target="_top" xlink:title=" ">
<polygon fill="none" stroke="black" points="326,-0.5 326,-19.5 463,-19.5 463,-0.5 326,-0.5"/>
<text text-anchor="middle" x="394.5" y="-7.5" font-family="Helvetica,sans-Serif" font-size="10.00">XCS::set_teletransportation</text>
</a>
</g>
</g>
<!-- Node1&#45;&gt;Node12 -->
<g id="edge14" class="edge">
<title>Node1&#45;&gt;Node12</title>
<path fill="none" stroke="midnightblue" d="M515.69,-36.25C491.08,-30.87 462.31,-24.59 439.09,-19.52"/>
<polygon fill="midnightblue" stroke="midnightblue" points="515.08,-39.7 525.59,-38.41 516.57,-32.86 515.08,-39.7"/>
</g>
<!-- Node3 -->
<g id="node3" class="node">
<title>Node3</title>
<g id="a_node3"><a xlink:href="env__csv_8h.html#ab26a39a388f0ac83b9ac14726ad14b16" target="_top" xlink:title="Initialises a CSV input environment from a specified filename.">
<polygon fill="none" stroke="black" points="198,-190.5 198,-209.5 269,-209.5 269,-190.5 198,-190.5"/>
<text text-anchor="middle" x="233.5" y="-197.5" font-family="Helvetica,sans-Serif" font-size="10.00">env_csv_init</text>
</a>
</g>
</g>
<!-- Node2&#45;&gt;Node3 -->
<g id="edge2" class="edge">
<title>Node2&#45;&gt;Node3</title>
<path fill="none" stroke="midnightblue" d="M369.44,-138.81C348.85,-151.11 318.14,-168.55 290,-181 282.18,-184.46 273.51,-187.7 265.4,-190.48"/>
<polygon fill="midnightblue" stroke="midnightblue" points="371.4,-141.72 378.15,-133.56 367.78,-135.73 371.4,-141.72"/>
</g>
<!-- Node6 -->
<g id="node6" class="node">
<title>Node6</title>
<g id="a_node6"><a xlink:href="env__maze_8h.html#acad3cc6e9fe2b7e07e878f1f517ad3a6" target="_top" xlink:title="Initialises a maze environment from a specified file.">
<polygon fill="none" stroke="black" points="193.5,-152.5 193.5,-171.5 273.5,-171.5 273.5,-152.5 193.5,-152.5"/>
<text text-anchor="middle" x="233.5" y="-159.5" font-family="Helvetica,sans-Serif" font-size="10.00">env_maze_init</text>
</a>
</g>
</g>
<!-- Node2&#45;&gt;Node6 -->
<g id="edge5" class="edge">
<title>Node2&#45;&gt;Node6</title>
<path fill="none" stroke="midnightblue" d="M353.21,-133.63C328.83,-139.46 297.89,-146.85 273.71,-152.63"/>
<polygon fill="midnightblue" stroke="midnightblue" points="354.31,-136.97 363.22,-131.24 352.68,-130.16 354.31,-136.97"/>
</g>
<!-- Node7 -->
<g id="node7" class="node">
<title>Node7</title>
<g id="a_node7"><a xlink:href="env__mux_8h.html#acc5dab817235c6910ba43b9dc4158ccd" target="_top" xlink:title="Initialises a real multiplexer environment of specified length.">
<polygon fill="none" stroke="black" points="196.5,-114.5 196.5,-133.5 270.5,-133.5 270.5,-114.5 196.5,-114.5"/>
<text text-anchor="middle" x="233.5" y="-121.5" font-family="Helvetica,sans-Serif" font-size="10.00">env_mux_init</text>
</a>
</g>
</g>
<!-- Node2&#45;&gt;Node7 -->
<g id="edge7" class="edge">
<title>Node2&#45;&gt;Node7</title>
<path fill="none" stroke="midnightblue" d="M353.14,-124C327.69,-124 295.09,-124 270.51,-124"/>
<polygon fill="midnightblue" stroke="midnightblue" points="353.22,-127.5 363.22,-124 353.22,-120.5 353.22,-127.5"/>
</g>
<!-- Node8 -->
<g id="node8" class="node">
<title>Node8</title>
<g id="a_node8"><a xlink:href="classXCS.html#af1010afd63843f86ad1dd81fade9bd72" target="_top" xlink:title="Constructor.">
<polygon fill="none" stroke="black" points="201,-76.5 201,-95.5 266,-95.5 266,-76.5 201,-76.5"/>
<text text-anchor="middle" x="233.5" y="-83.5" font-family="Helvetica,sans-Serif" font-size="10.00">XCS::XCS</text>
</a>
</g>
</g>
<!-- Node2&#45;&gt;Node8 -->
<g id="edge9" class="edge">
<title>Node2&#45;&gt;Node8</title>
<path fill="none" stroke="midnightblue" d="M353.28,-114.39C326.23,-107.92 291.06,-99.52 266.03,-93.54"/>
<polygon fill="midnightblue" stroke="midnightblue" points="352.68,-117.84 363.22,-116.76 354.31,-111.03 352.68,-117.84"/>
</g>
<!-- Node4 -->
<g id="node4" class="node">
<title>Node4</title>
<g id="a_node4"><a xlink:href="env_8h.html#a9213fcf5fc422d6a77bce853b1d78dc9" target="_top" xlink:title="Initialises a built&#45;in problem environment.">
<polygon fill="none" stroke="black" points="82.5,-133.5 82.5,-152.5 132.5,-152.5 132.5,-133.5 82.5,-133.5"/>
<text text-anchor="middle" x="107.5" y="-140.5" font-family="Helvetica,sans-Serif" font-size="10.00">env_init</text>
</a>
</g>
</g>
<!-- Node3&#45;&gt;Node4 -->
<g id="edge3" class="edge">
<title>Node3&#45;&gt;Node4</title>
<path fill="none" stroke="midnightblue" d="M191.92,-187.04C186.84,-185.15 181.76,-183.12 177,-181 158.11,-172.61 137.5,-160.78 123.88,-152.56"/>
<polygon fill="midnightblue" stroke="midnightblue" points="191,-190.43 201.59,-190.5 193.35,-183.84 191,-190.43"/>
</g>
<!-- Node5 -->
<g id="node5" class="node">
<title>Node5</title>
<g id="a_node5"><a xlink:href="main_8c.html#a3c04138a5bfe5d72780bb7e82a18e627" target="_top" xlink:title=" ">
<polygon fill="none" stroke="black" points="0,-109.5 0,-128.5 38,-128.5 38,-109.5 0,-109.5"/>
<text text-anchor="middle" x="19" y="-116.5" font-family="Helvetica,sans-Serif" font-size="10.00">main</text>
</a>
</g>
</g>
<!-- Node4&#45;&gt;Node5 -->
<g id="edge4" class="edge">
<title>Node4&#45;&gt;Node5</title>
<path fill="none" stroke="midnightblue" d="M72.47,-133.56C60.78,-130.31 48.14,-126.81 38.21,-124.05"/>
<polygon fill="midnightblue" stroke="midnightblue" points="71.83,-137.01 82.4,-136.31 73.7,-130.27 71.83,-137.01"/>
</g>
<!-- Node6&#45;&gt;Node4 -->
<g id="edge6" class="edge">
<title>Node6&#45;&gt;Node4</title>
<path fill="none" stroke="midnightblue" d="M183.24,-154.45C165.86,-151.79 147.09,-148.91 132.7,-146.71"/>
<polygon fill="midnightblue" stroke="midnightblue" points="182.85,-157.93 193.27,-155.99 183.91,-151.01 182.85,-157.93"/>
</g>
<!-- Node7&#45;&gt;Node4 -->
<g id="edge8" class="edge">
<title>Node7&#45;&gt;Node4</title>
<path fill="none" stroke="midnightblue" d="M186.17,-131.1C168.03,-133.88 147.96,-136.95 132.77,-139.28"/>
<polygon fill="midnightblue" stroke="midnightblue" points="186.95,-134.52 196.3,-129.55 185.89,-127.6 186.95,-134.52"/>
</g>
<!-- Node10 -->
<g id="node10" class="node">
<title>Node10</title>
<g id="a_node10"><a xlink:href="param_8h.html#a130260988988535419aee8abe51986c1" target="_top" xlink:title="Sets the parameters from a json formatted string.">
<polygon fill="none" stroke="black" points="184,-38.5 184,-57.5 283,-57.5 283,-38.5 184,-38.5"/>
<text text-anchor="middle" x="233.5" y="-45.5" font-family="Helvetica,sans-Serif" font-size="10.00">param_json_import</text>
</a>
</g>
</g>
<!-- Node9&#45;&gt;Node10 -->
<g id="edge11" class="edge">
<title>Node9&#45;&gt;Node10</title>
<path fill="none" stroke="midnightblue" d="M321.31,-48C308.41,-48 295.26,-48 283.22,-48"/>
<polygon fill="midnightblue" stroke="midnightblue" points="321.57,-51.5 331.57,-48 321.57,-44.5 321.57,-51.5"/>
</g>
<!-- Node11 -->
<g id="node11" class="node">
<title>Node11</title>
<g id="a_node11"><a xlink:href="config_8h.html#a045a64a30d99a4bef2ebfd9b54aa9698" target="_top" xlink:title="Reads the specified configuration file.">
<polygon fill="none" stroke="black" points="74,-62.5 74,-81.5 141,-81.5 141,-62.5 74,-62.5"/>
<text text-anchor="middle" x="107.5" y="-69.5" font-family="Helvetica,sans-Serif" font-size="10.00">config_read</text>
</a>
</g>
</g>
<!-- Node10&#45;&gt;Node11 -->
<g id="edge12" class="edge">
<title>Node10&#45;&gt;Node11</title>
<path fill="none" stroke="midnightblue" d="M173.71,-59.38C162.58,-61.53 151.31,-63.71 141.35,-65.64"/>
<polygon fill="midnightblue" stroke="midnightblue" points="174.7,-62.75 183.85,-57.42 173.36,-55.88 174.7,-62.75"/>
</g>
<!-- Node11&#45;&gt;Node5 -->
<g id="edge13" class="edge">
<title>Node11&#45;&gt;Node5</title>
<path fill="none" stroke="midnightblue" d="M80.02,-86.39C66.31,-93.84 49.95,-102.73 37.78,-109.34"/>
<polygon fill="midnightblue" stroke="midnightblue" points="81.88,-89.36 89,-81.51 78.54,-83.21 81.88,-89.36"/>
</g>
<!-- Node13 -->
<g id="node13" class="node">
<title>Node13</title>
<g id="a_node13"><a xlink:href="pybind__wrapper_8cpp.html#a172daba0778fe2bd38d723d5f52a23d5" target="_top" xlink:title=" ">
<polygon fill="none" stroke="black" points="177,-0.5 177,-19.5 290,-19.5 290,-0.5 177,-0.5"/>
<text text-anchor="middle" x="233.5" y="-7.5" font-family="Helvetica,sans-Serif" font-size="10.00">PYBIND11_MODULE</text>
</a>
</g>
</g>
<!-- Node12&#45;&gt;Node13 -->
<g id="edge15" class="edge">
<title>Node12&#45;&gt;Node13</title>
<path fill="none" stroke="midnightblue" d="M315.58,-10C307.01,-10 298.41,-10 290.18,-10"/>
<polygon fill="midnightblue" stroke="midnightblue" points="315.61,-13.5 325.61,-10 315.61,-6.5 315.61,-13.5"/>
</g>
</g>
</svg>
