<?xml version="1.0" encoding="UTF-8" standalone="no"?>
<!DOCTYPE svg PUBLIC "-//W3C//DTD SVG 1.1//EN"
 "http://www.w3.org/Graphics/SVG/1.1/DTD/svg11.dtd">
<!-- Generated by graphviz version 2.43.0 (0)
 -->
<!-- Title: param_json_import_prediction Pages: 1 -->
<svg width="978pt" height="437pt"
 viewBox="0.00 0.00 978.00 437.00" xmlns="http://www.w3.org/2000/svg" xmlns:xlink="http://www.w3.org/1999/xlink">
<g id="graph0" class="graph" transform="scale(1 1) rotate(0) translate(4 433)">
<title>param_json_import_prediction</title>
<!-- Node1 -->
<g id="Node000001" class="node">
<title>Node1</title>
<g id="a_Node000001"><a xlink:title="Sets the prediction parameters from a json formatted string.">
<polygon fill="#999999" stroke="#666666" points="146,-100.5 0,-100.5 0,-81.5 146,-81.5 146,-100.5"/>
<text text-anchor="middle" x="73" y="-88.5" font-family="Helvetica,sans-Serif" font-size="10.00">param_json_import_prediction</text>
</a>
</g>
</g>
<!-- Node2 -->
<g id="Node000002" class="node">
<title>Node2</title>
<g id="a_Node000002"><a xlink:href="prediction_8c.html#a02d5fe32b322c046697ad815ca52757d" target="_top" xlink:title="Sets the prediction parameters from a cJSON object.">
<polygon fill="white" stroke="#666666" points="305,-122.5 182,-122.5 182,-103.5 305,-103.5 305,-122.5"/>
<text text-anchor="middle" x="243.5" y="-110.5" font-family="Helvetica,sans-Serif" font-size="10.00">pred_param_json_import</text>
</a>
</g>
</g>
<!-- Node1&#45;&gt;Node2 -->
<g id="edge1_Node000001_Node000002" class="edge">
<title>Node1&#45;&gt;Node2</title>
<g id="a_edge1_Node000001_Node000002"><a xlink:title=" ">
<path fill="none" stroke="#63b8ff" d="M146.44,-100.46C154.81,-101.55 163.34,-102.66 171.69,-103.75"/>
<polygon fill="#63b8ff" stroke="#63b8ff" points="171.39,-107.24 181.76,-105.07 172.29,-100.3 171.39,-107.24"/>
</a>
</g>
</g>
<!-- Node25 -->
<g id="Node000025" class="node">
<title>Node25</title>
<g id="a_Node000025"><a xlink:href="prediction_8c.html#a7b02fcc0ce8541afd47d014eba280570" target="_top" xlink:title=" ">
<polygon fill="white" stroke="#666666" points="298.5,-85 188.5,-85 188.5,-55 298.5,-55 298.5,-85"/>
<text text-anchor="start" x="196.5" y="-73" font-family="Helvetica,sans-Serif" font-size="10.00">pred_param_set_type</text>
<text text-anchor="middle" x="243.5" y="-62" font-family="Helvetica,sans-Serif" font-size="10.00">_string</text>
</a>
</g>
</g>
<!-- Node1&#45;&gt;Node25 -->
<g id="edge25_Node000001_Node000025" class="edge">
<title>Node1&#45;&gt;Node25</title>
<g id="a_edge25_Node000001_Node000025"><a xlink:title=" ">
<path fill="none" stroke="#63b8ff" d="M146.44,-81.97C157.01,-80.65 167.83,-79.31 178.22,-78.01"/>
<polygon fill="#63b8ff" stroke="#63b8ff" points="178.96,-81.45 188.45,-76.74 178.09,-74.5 178.96,-81.45"/>
</a>
</g>
</g>
<!-- Node3 -->
<g id="Node000003" class="node">
<title>Node3</title>
<g id="a_Node000003"><a xlink:href="pred__neural_8c.html#a01c3889098d77c65408b18171f08ee65" target="_top" xlink:title="Sets the neural network parameters from a cJSON object.">
<polygon fill="white" stroke="#666666" points="463,-295 341,-295 341,-265 463,-265 463,-295"/>
<text text-anchor="start" x="349" y="-283" font-family="Helvetica,sans-Serif" font-size="10.00">pred_neural_param_json</text>
<text text-anchor="middle" x="402" y="-272" font-family="Helvetica,sans-Serif" font-size="10.00">_import</text>
</a>
</g>
</g>
<!-- Node2&#45;&gt;Node3 -->
<g id="edge2_Node000002_Node000003" class="edge">
<title>Node2&#45;&gt;Node3</title>
<g id="a_edge2_Node000002_Node000003"><a xlink:title=" ">
<path fill="none" stroke="#63b8ff" d="M253.82,-122.95C278.29,-149.06 344.86,-220.09 379.46,-257.02"/>
<polygon fill="#63b8ff" stroke="#63b8ff" points="377.34,-259.87 386.73,-264.77 382.45,-255.08 377.34,-259.87"/>
</a>
</g>
</g>
<!-- Node17 -->
<g id="Node000017" class="node">
<title>Node17</title>
<g id="a_Node000017"><a xlink:href="pred__nlms_8c.html#aceabb2574d5a8523b79b70996a043b10" target="_top" xlink:title="Sets the NLMS parameters from a cJSON object.">
<polygon fill="white" stroke="#666666" points="460.5,-152 343.5,-152 343.5,-122 460.5,-122 460.5,-152"/>
<text text-anchor="start" x="351.5" y="-140" font-family="Helvetica,sans-Serif" font-size="10.00">pred_nlms_param_json</text>
<text text-anchor="middle" x="402" y="-129" font-family="Helvetica,sans-Serif" font-size="10.00">_import</text>
</a>
</g>
</g>
<!-- Node2&#45;&gt;Node17 -->
<g id="edge16_Node000002_Node000017" class="edge">
<title>Node2&#45;&gt;Node17</title>
<g id="a_edge16_Node000002_Node000017"><a xlink:title=" ">
<path fill="none" stroke="#63b8ff" d="M305.01,-122.28C314.29,-123.7 323.93,-125.18 333.36,-126.63"/>
<polygon fill="#63b8ff" stroke="#63b8ff" points="333.06,-130.12 343.48,-128.18 334.13,-123.2 333.06,-130.12"/>
</a>
</g>
</g>
<!-- Node22 -->
<g id="Node000022" class="node">
<title>Node22</title>
<g id="a_Node000022"><a xlink:href="pred__rls_8c.html#a8231066f6e9cdbc8bbe3d94f46ff88fc" target="_top" xlink:title="Sets the RLS parameters from a cJSON object.">
<polygon fill="white" stroke="#666666" points="455.5,-104 348.5,-104 348.5,-74 455.5,-74 455.5,-104"/>
<text text-anchor="start" x="356.5" y="-92" font-family="Helvetica,sans-Serif" font-size="10.00">pred_rls_param_json</text>
<text text-anchor="middle" x="402" y="-81" font-family="Helvetica,sans-Serif" font-size="10.00">_import</text>
</a>
</g>
</g>
<!-- Node2&#45;&gt;Node22 -->
<g id="edge21_Node000002_Node000022" class="edge">
<title>Node2&#45;&gt;Node22</title>
<g id="a_edge21_Node000002_Node000022"><a xlink:title=" ">
<path fill="none" stroke="#63b8ff" d="M305.01,-103.72C315.94,-102.04 327.36,-100.29 338.35,-98.61"/>
<polygon fill="#63b8ff" stroke="#63b8ff" points="338.94,-102.06 348.3,-97.08 337.88,-95.14 338.94,-102.06"/>
</a>
</g>
</g>
<!-- Node4 -->
<g id="Node000004" class="node">
<title>Node4</title>
<g id="a_Node000004"><a xlink:href="neural__layer__args_8c.html#a477d2c5cf9da9413c6dba66b5d7f7aff" target="_top" xlink:title="Frees memory used by a list of layer parameters and points to NULL.">
<polygon fill="white" stroke="#666666" points="610,-363.5 527,-363.5 527,-344.5 610,-344.5 610,-363.5"/>
<text text-anchor="middle" x="568.5" y="-351.5" font-family="Helvetica,sans-Serif" font-size="10.00">layer_args_free</text>
</a>
</g>
</g>
<!-- Node3&#45;&gt;Node4 -->
<g id="edge3_Node000003_Node000004" class="edge">
<title>Node3&#45;&gt;Node4</title>
<g id="a_edge3_Node000003_Node000004"><a xlink:title=" ">
<path fill="none" stroke="#63b8ff" d="M424.99,-295.16C443.9,-307.61 472.26,-324.93 499,-336 504.74,-338.38 510.88,-340.52 517.05,-342.42"/>
<polygon fill="#63b8ff" stroke="#63b8ff" points="516.12,-345.79 526.69,-345.22 518.06,-339.07 516.12,-345.79"/>
</a>
</g>
</g>
<!-- Node5 -->
<g id="Node000005" class="node">
<title>Node5</title>
<g id="a_Node000005"><a xlink:href="neural__layer__args_8c.html#a3b06e82bed7fc9a8915d6187ce08d33e" target="_top" xlink:title="Sets layer parameters to default values.">
<polygon fill="white" stroke="#666666" points="608.5,-326.5 528.5,-326.5 528.5,-307.5 608.5,-307.5 608.5,-326.5"/>
<text text-anchor="middle" x="568.5" y="-314.5" font-family="Helvetica,sans-Serif" font-size="10.00">layer_args_init</text>
</a>
</g>
</g>
<!-- Node3&#45;&gt;Node5 -->
<g id="edge4_Node000003_Node000005" class="edge">
<title>Node3&#45;&gt;Node5</title>
<g id="a_edge4_Node000003_Node000005"><a xlink:title=" ">
<path fill="none" stroke="#63b8ff" d="M463.32,-293.57C481.41,-297.64 501.03,-302.05 518.31,-305.94"/>
<polygon fill="#63b8ff" stroke="#63b8ff" points="517.66,-309.38 528.18,-308.16 519.19,-302.55 517.66,-309.38"/>
</a>
</g>
</g>
<!-- Node6 -->
<g id="Node000006" class="node">
<title>Node6</title>
<g id="a_Node000006"><a xlink:href="neural__layer__args_8c.html#aa75a852a1179d08e50341fc45ebc7435" target="_top" xlink:title="Sets the layer parameters from a cJSON object.">
<polygon fill="white" stroke="#666666" points="627,-289.5 510,-289.5 510,-270.5 627,-270.5 627,-289.5"/>
<text text-anchor="middle" x="568.5" y="-277.5" font-family="Helvetica,sans-Serif" font-size="10.00">layer_args_json_import</text>
</a>
</g>
</g>
<!-- Node3&#45;&gt;Node6 -->
<g id="edge5_Node000003_Node000006" class="edge">
<title>Node3&#45;&gt;Node6</title>
<g id="a_edge5_Node000003_Node000006"><a xlink:title=" ">
<path fill="none" stroke="#63b8ff" d="M463.32,-280C475.21,-280 487.76,-280 499.88,-280"/>
<polygon fill="#63b8ff" stroke="#63b8ff" points="499.93,-283.5 509.93,-280 499.93,-276.5 499.93,-283.5"/>
</a>
</g>
</g>
<!-- Node14 -->
<g id="Node000014" class="node">
<title>Node14</title>
<g id="a_Node000014"><a xlink:href="neural__layer__args_8c.html#a492de2de029ff6124f8fe466ad6b0d80" target="_top" xlink:title="Checks network layer arguments are valid.">
<polygon fill="white" stroke="#666666" points="619,-252.5 518,-252.5 518,-233.5 619,-233.5 619,-252.5"/>
<text text-anchor="middle" x="568.5" y="-240.5" font-family="Helvetica,sans-Serif" font-size="10.00">layer_args_validate</text>
</a>
</g>
</g>
<!-- Node3&#45;&gt;Node14 -->
<g id="edge13_Node000003_Node000014" class="edge">
<title>Node3&#45;&gt;Node14</title>
<g id="a_edge13_Node000003_Node000014"><a xlink:title=" ">
<path fill="none" stroke="#63b8ff" d="M463.32,-266.43C480.33,-262.61 498.69,-258.48 515.19,-254.77"/>
<polygon fill="#63b8ff" stroke="#63b8ff" points="516.2,-258.13 525.19,-252.52 514.67,-251.3 516.2,-258.13"/>
</a>
</g>
</g>
<!-- Node7 -->
<g id="Node000007" class="node">
<title>Node7</title>
<g id="a_Node000007"><a xlink:href="neural__layer__args_8c.html#af7388e196c27ab190bb7bb6848a7a456" target="_top" xlink:title="Sets the layer activation from a cJSON object.">
<polygon fill="white" stroke="#666666" points="801.5,-429 684.5,-429 684.5,-399 801.5,-399 801.5,-429"/>
<text text-anchor="start" x="692.5" y="-417" font-family="Helvetica,sans-Serif" font-size="10.00">layer_args_json_import</text>
<text text-anchor="middle" x="743" y="-406" font-family="Helvetica,sans-Serif" font-size="10.00">_activation</text>
</a>
</g>
</g>
<!-- Node6&#45;&gt;Node7 -->
<g id="edge6_Node000006_Node000007" class="edge">
<title>Node6&#45;&gt;Node7</title>
<g id="a_edge6_Node000006_Node000007"><a xlink:title=" ">
<path fill="none" stroke="#63b8ff" d="M623.3,-289.56C628.65,-292.03 633.69,-295.12 638,-299 670.34,-328.08 642.67,-359.83 674,-390 675.13,-391.09 676.31,-392.12 677.53,-393.11"/>
<polygon fill="#63b8ff" stroke="#63b8ff" points="675.93,-396.26 686.16,-398.99 679.87,-390.47 675.93,-396.26"/>
</a>
</g>
</g>
<!-- Node9 -->
<g id="Node000009" class="node">
<title>Node9</title>
<g id="a_Node000009"><a xlink:href="neural__layer__args_8c.html#a511a92070d5a53700d9650c1705b96ab" target="_top" xlink:title="Sets the layer evolutionary parameters from a cJSON object.">
<polygon fill="white" stroke="#666666" points="812,-380.5 674,-380.5 674,-361.5 812,-361.5 812,-380.5"/>
<text text-anchor="middle" x="743" y="-368.5" font-family="Helvetica,sans-Serif" font-size="10.00">layer_args_json_import_evo</text>
</a>
</g>
</g>
<!-- Node6&#45;&gt;Node9 -->
<g id="edge8_Node000006_Node000009" class="edge">
<title>Node6&#45;&gt;Node9</title>
<g id="a_edge8_Node000006_Node000009"><a xlink:title=" ">
<path fill="none" stroke="#63b8ff" d="M620.03,-289.56C626.41,-292.02 632.59,-295.12 638,-299 661.14,-315.6 650.88,-335.38 674,-352 676.69,-353.93 679.56,-355.67 682.56,-357.23"/>
<polygon fill="#63b8ff" stroke="#63b8ff" points="681.28,-360.49 691.84,-361.4 684.15,-354.11 681.28,-360.49"/>
</a>
</g>
</g>
<!-- Node10 -->
<g id="Node000010" class="node">
<title>Node10</title>
<g id="a_Node000010"><a xlink:href="neural__layer__args_8c.html#a22a018ccf2e332aafeaa450968b96ed1" target="_top" xlink:title="Sets the layer input parameters from a cJSON object.">
<polygon fill="white" stroke="#666666" points="801.5,-343 684.5,-343 684.5,-313 801.5,-313 801.5,-343"/>
<text text-anchor="start" x="692.5" y="-331" font-family="Helvetica,sans-Serif" font-size="10.00">layer_args_json_import</text>
<text text-anchor="middle" x="743" y="-320" font-family="Helvetica,sans-Serif" font-size="10.00">_inputs</text>
</a>
</g>
</g>
<!-- Node6&#45;&gt;Node10 -->
<g id="edge9_Node000006_Node000010" class="edge">
<title>Node6&#45;&gt;Node10</title>
<g id="a_edge9_Node000006_Node000010"><a xlink:title=" ">
<path fill="none" stroke="#63b8ff" d="M604,-289.56C614.88,-292.58 626.94,-295.92 638,-299 650.95,-302.6 664.81,-306.46 678.05,-310.15"/>
<polygon fill="#63b8ff" stroke="#63b8ff" points="677.45,-313.62 688.03,-312.93 679.33,-306.88 677.45,-313.62"/>
</a>
</g>
</g>
<!-- Node11 -->
<g id="Node000011" class="node">
<title>Node11</title>
<g id="a_Node000011"><a xlink:href="neural__layer__args_8c.html#ab5d03fe4bb8549b5321c9bda9c514161" target="_top" xlink:title="Sets the layer scaling parameters from a cJSON object.">
<polygon fill="white" stroke="#666666" points="801.5,-295 684.5,-295 684.5,-265 801.5,-265 801.5,-295"/>
<text text-anchor="start" x="692.5" y="-283" font-family="Helvetica,sans-Serif" font-size="10.00">layer_args_json_import</text>
<text text-anchor="middle" x="743" y="-272" font-family="Helvetica,sans-Serif" font-size="10.00">_scale</text>
</a>
</g>
</g>
<!-- Node6&#45;&gt;Node11 -->
<g id="edge10_Node000006_Node000011" class="edge">
<title>Node6&#45;&gt;Node11</title>
<g id="a_edge10_Node000006_Node000011"><a xlink:title=" ">
<path fill="none" stroke="#63b8ff" d="M627.42,-280C642.43,-280 658.74,-280 674.21,-280"/>
<polygon fill="#63b8ff" stroke="#63b8ff" points="674.23,-283.5 684.23,-280 674.23,-276.5 674.23,-283.5"/>
</a>
</g>
</g>
<!-- Node12 -->
<g id="Node000012" class="node">
<title>Node12</title>
<g id="a_Node000012"><a xlink:href="neural__layer__args_8c.html#a9a07261fd04326ccbae66c152f8f6de2" target="_top" xlink:title="Sets the layer SGD parameters from a cJSON object.">
<polygon fill="white" stroke="#666666" points="812,-246.5 674,-246.5 674,-227.5 812,-227.5 812,-246.5"/>
<text text-anchor="middle" x="743" y="-234.5" font-family="Helvetica,sans-Serif" font-size="10.00">layer_args_json_import_sgd</text>
</a>
</g>
</g>
<!-- Node6&#45;&gt;Node12 -->
<g id="edge11_Node000006_Node000012" class="edge">
<title>Node6&#45;&gt;Node12</title>
<g id="a_edge11_Node000006_Node000012"><a xlink:title=" ">
<path fill="none" stroke="#63b8ff" d="M607.78,-270.46C633.24,-264.11 666.88,-255.73 694.11,-248.94"/>
<polygon fill="#63b8ff" stroke="#63b8ff" points="694.97,-252.33 703.82,-246.52 693.27,-245.54 694.97,-252.33"/>
</a>
</g>
</g>
<!-- Node13 -->
<g id="Node000013" class="node">
<title>Node13</title>
<g id="a_Node000013"><a xlink:href="neural__layer_8c.html#a5a8bc3e92587742c0bd1ee27780b1128" target="_top" xlink:title="Returns the integer representation of a layer type given a name.">
<polygon fill="white" stroke="#666666" points="789.5,-209.5 696.5,-209.5 696.5,-190.5 789.5,-190.5 789.5,-209.5"/>
<text text-anchor="middle" x="743" y="-197.5" font-family="Helvetica,sans-Serif" font-size="10.00">layer_type_as_int</text>
</a>
</g>
</g>
<!-- Node6&#45;&gt;Node13 -->
<g id="edge12_Node000006_Node000013" class="edge">
<title>Node6&#45;&gt;Node13</title>
<g id="a_edge12_Node000006_Node000013"><a xlink:title=" ">
<path fill="none" stroke="#63b8ff" d="M620.38,-270.45C626.57,-268.2 632.6,-265.43 638,-262 659.05,-248.65 653.06,-232.52 674,-219 678.04,-216.4 682.43,-214.14 686.98,-212.2"/>
<polygon fill="#63b8ff" stroke="#63b8ff" points="688.34,-215.42 696.46,-208.61 685.87,-208.87 688.34,-215.42"/>
</a>
</g>
</g>
<!-- Node8 -->
<g id="Node000008" class="node">
<title>Node8</title>
<g id="a_Node000008"><a xlink:href="neural__activations_8c.html#aaba6ef52952c92bb15f6231b6b42fa73" target="_top" xlink:title="Returns the integer representation of an activation function.">
<polygon fill="white" stroke="#666666" points="970,-423.5 848,-423.5 848,-404.5 970,-404.5 970,-423.5"/>
<text text-anchor="middle" x="909" y="-411.5" font-family="Helvetica,sans-Serif" font-size="10.00">neural_activation_as_int</text>
</a>
</g>
</g>
<!-- Node7&#45;&gt;Node8 -->
<g id="edge7_Node000007_Node000008" class="edge">
<title>Node7&#45;&gt;Node8</title>
<g id="a_edge7_Node000007_Node000008"><a xlink:title=" ">
<path fill="none" stroke="#63b8ff" d="M801.82,-414C813.49,-414 825.88,-414 837.92,-414"/>
<polygon fill="#63b8ff" stroke="#63b8ff" points="837.93,-417.5 847.93,-414 837.93,-410.5 837.93,-417.5"/>
</a>
</g>
</g>
<!-- Node15 -->
<g id="Node000015" class="node">
<title>Node15</title>
<g id="a_Node000015"><a xlink:href="neural__layer__args_8c.html#a8e1a02c60d1cbe0baba8f2c6ff0b5266" target="_top" xlink:title="Checks input layer arguments are valid.">
<polygon fill="white" stroke="#666666" points="793.5,-172 692.5,-172 692.5,-142 793.5,-142 793.5,-172"/>
<text text-anchor="start" x="700.5" y="-160" font-family="Helvetica,sans-Serif" font-size="10.00">layer_args_validate</text>
<text text-anchor="middle" x="743" y="-149" font-family="Helvetica,sans-Serif" font-size="10.00">_inputs</text>
</a>
</g>
</g>
<!-- Node14&#45;&gt;Node15 -->
<g id="edge14_Node000014_Node000015" class="edge">
<title>Node14&#45;&gt;Node15</title>
<g id="a_edge14_Node000014_Node000015"><a xlink:title=" ">
<path fill="none" stroke="#63b8ff" d="M619.31,-233.84C625.87,-231.52 632.29,-228.62 638,-225 659.05,-211.65 653.61,-196.34 674,-182 676.86,-179.98 679.91,-178.11 683.06,-176.38"/>
<polygon fill="#63b8ff" stroke="#63b8ff" points="684.79,-179.43 692.18,-171.83 681.67,-173.16 684.79,-179.43"/>
</a>
</g>
</g>
<!-- Node16 -->
<g id="Node000016" class="node">
<title>Node16</title>
<g id="a_Node000016"><a xlink:href="neural__layer_8c.html#ad1b7188119d0d96791ee0d87c105896a" target="_top" xlink:title="Returns a whether a layer type expects images as input.">
<polygon fill="white" stroke="#666666" points="967,-166.5 851,-166.5 851,-147.5 967,-147.5 967,-166.5"/>
<text text-anchor="middle" x="909" y="-154.5" font-family="Helvetica,sans-Serif" font-size="10.00">layer_receives_images</text>
</a>
</g>
</g>
<!-- Node15&#45;&gt;Node16 -->
<g id="edge15_Node000015_Node000016" class="edge">
<title>Node15&#45;&gt;Node16</title>
<g id="a_edge15_Node000015_Node000016"><a xlink:title=" ">
<path fill="none" stroke="#63b8ff" d="M793.65,-157C808.42,-157 824.86,-157 840.56,-157"/>
<polygon fill="#63b8ff" stroke="#63b8ff" points="840.75,-160.5 850.75,-157 840.75,-153.5 840.75,-160.5"/>
</a>
</g>
</g>
<!-- Node18 -->
<g id="Node000018" class="node">
<title>Node18</title>
<g id="a_Node000018"><a xlink:href="prediction_8c.html#abf258a7e5dec62efd980dcd56bdc9e5d" target="_top" xlink:title=" ">
<polygon fill="white" stroke="#666666" points="621,-215.5 516,-215.5 516,-196.5 621,-196.5 621,-215.5"/>
<text text-anchor="middle" x="568.5" y="-203.5" font-family="Helvetica,sans-Serif" font-size="10.00">pred_param_set_eta</text>
</a>
</g>
</g>
<!-- Node17&#45;&gt;Node18 -->
<g id="edge17_Node000017_Node000018" class="edge">
<title>Node17&#45;&gt;Node18</title>
<g id="a_edge17_Node000017_Node000018"><a xlink:title=" ">
<path fill="none" stroke="#63b8ff" d="M427.51,-152.06C446.48,-163.21 473.69,-178.11 499,-188 504.15,-190.01 509.61,-191.88 515.11,-193.58"/>
<polygon fill="#63b8ff" stroke="#63b8ff" points="514.41,-197.02 524.99,-196.47 516.37,-190.3 514.41,-197.02"/>
</a>
</g>
</g>
<!-- Node19 -->
<g id="Node000019" class="node">
<title>Node19</title>
<g id="a_Node000019"><a xlink:href="prediction_8c.html#ab59b2b572c1ff05157b89759ab7162f5" target="_top" xlink:title=" ">
<polygon fill="white" stroke="#666666" points="631.5,-178.5 505.5,-178.5 505.5,-159.5 631.5,-159.5 631.5,-178.5"/>
<text text-anchor="middle" x="568.5" y="-166.5" font-family="Helvetica,sans-Serif" font-size="10.00">pred_param_set_eta_min</text>
</a>
</g>
</g>
<!-- Node17&#45;&gt;Node19 -->
<g id="edge18_Node000017_Node000019" class="edge">
<title>Node17&#45;&gt;Node19</title>
<g id="a_edge18_Node000017_Node000019"><a xlink:title=" ">
<path fill="none" stroke="#63b8ff" d="M460.53,-148.19C476.04,-151.21 492.83,-154.48 508.42,-157.51"/>
<polygon fill="#63b8ff" stroke="#63b8ff" points="507.98,-160.99 518.46,-159.46 509.32,-154.12 507.98,-160.99"/>
</a>
</g>
</g>
<!-- Node20 -->
<g id="Node000020" class="node">
<title>Node20</title>
<g id="a_Node000020"><a xlink:href="prediction_8c.html#ab9fb871ffa65568f7b2039d5c8e62512" target="_top" xlink:title=" ">
<polygon fill="white" stroke="#666666" points="638,-141.5 499,-141.5 499,-122.5 638,-122.5 638,-141.5"/>
<text text-anchor="middle" x="568.5" y="-129.5" font-family="Helvetica,sans-Serif" font-size="10.00">pred_param_set_evolve_eta</text>
</a>
</g>
</g>
<!-- Node17&#45;&gt;Node20 -->
<g id="edge19_Node000017_Node000020" class="edge">
<title>Node17&#45;&gt;Node20</title>
<g id="a_edge19_Node000017_Node000020"><a xlink:title=" ">
<path fill="none" stroke="#63b8ff" d="M460.53,-135.25C469.65,-134.97 479.22,-134.68 488.72,-134.39"/>
<polygon fill="#63b8ff" stroke="#63b8ff" points="489.09,-137.88 498.98,-134.08 488.88,-130.89 489.09,-137.88"/>
</a>
</g>
</g>
<!-- Node21 -->
<g id="Node000021" class="node">
<title>Node21</title>
<g id="a_Node000021"><a xlink:href="prediction_8c.html#a618accb7ec3239f16fc794f9efa8f89c" target="_top" xlink:title=" ">
<polygon fill="white" stroke="#666666" points="619.5,-104.5 517.5,-104.5 517.5,-85.5 619.5,-85.5 619.5,-104.5"/>
<text text-anchor="middle" x="568.5" y="-92.5" font-family="Helvetica,sans-Serif" font-size="10.00">pred_param_set_x0</text>
</a>
</g>
</g>
<!-- Node17&#45;&gt;Node21 -->
<g id="edge20_Node000017_Node000021" class="edge">
<title>Node17&#45;&gt;Node21</title>
<g id="a_edge20_Node000017_Node000021"><a xlink:title=" ">
<path fill="none" stroke="#63b8ff" d="M460.53,-122.31C480.01,-117.34 501.53,-111.84 520.12,-107.1"/>
<polygon fill="#63b8ff" stroke="#63b8ff" points="521.01,-110.48 529.84,-104.62 519.28,-103.7 521.01,-110.48"/>
</a>
</g>
</g>
<!-- Node22&#45;&gt;Node21 -->
<g id="edge24_Node000022_Node000021" class="edge">
<title>Node22&#45;&gt;Node21</title>
<g id="a_edge24_Node000022_Node000021"><a xlink:title=" ">
<path fill="none" stroke="#63b8ff" d="M455.5,-90.91C471.93,-91.51 490.19,-92.18 507.12,-92.8"/>
<polygon fill="#63b8ff" stroke="#63b8ff" points="507.34,-96.31 517.46,-93.17 507.59,-89.31 507.34,-96.31"/>
</a>
</g>
</g>
<!-- Node23 -->
<g id="Node000023" class="node">
<title>Node23</title>
<g id="a_Node000023"><a xlink:href="prediction_8c.html#a7b4efcc30beb6a0721140f10f67861da" target="_top" xlink:title=" ">
<polygon fill="white" stroke="#666666" points="630,-67.5 507,-67.5 507,-48.5 630,-48.5 630,-67.5"/>
<text text-anchor="middle" x="568.5" y="-55.5" font-family="Helvetica,sans-Serif" font-size="10.00">pred_param_set_lambda</text>
</a>
</g>
</g>
<!-- Node22&#45;&gt;Node23 -->
<g id="edge22_Node000022_Node000023" class="edge">
<title>Node22&#45;&gt;Node23</title>
<g id="a_edge22_Node000022_Node000023"><a xlink:title=" ">
<path fill="none" stroke="#63b8ff" d="M455.5,-79.11C471.78,-76.04 489.85,-72.63 506.64,-69.47"/>
<polygon fill="#63b8ff" stroke="#63b8ff" points="507.72,-72.83 516.9,-67.54 506.42,-65.95 507.72,-72.83"/>
</a>
</g>
</g>
<!-- Node24 -->
<g id="Node000024" class="node">
<title>Node24</title>
<g id="a_Node000024"><a xlink:href="prediction_8c.html#acb71e8f11fe64ba35150417afa4c9441" target="_top" xlink:title=" ">
<polygon fill="white" stroke="#666666" points="626,-30 511,-30 511,0 626,0 626,-30"/>
<text text-anchor="start" x="519" y="-18" font-family="Helvetica,sans-Serif" font-size="10.00">pred_param_set_scale</text>
<text text-anchor="middle" x="568.5" y="-7" font-family="Helvetica,sans-Serif" font-size="10.00">_factor</text>
</a>
</g>
</g>
<!-- Node22&#45;&gt;Node24 -->
<g id="edge23_Node000022_Node000024" class="edge">
<title>Node22&#45;&gt;Node24</title>
<g id="a_edge23_Node000022_Node000024"><a xlink:title=" ">
<path fill="none" stroke="#63b8ff" d="M444.61,-73.91C450.89,-71.19 457.2,-68.19 463,-65 480.29,-55.49 481.51,-48.14 499,-39 502.32,-37.26 505.8,-35.61 509.35,-34.04"/>
<polygon fill="#63b8ff" stroke="#63b8ff" points="510.97,-37.15 518.85,-30.08 508.28,-30.69 510.97,-37.15"/>
</a>
</g>
</g>
<!-- Node26 -->
<g id="Node000026" class="node">
<title>Node26</title>
<g id="a_Node000026"><a xlink:href="prediction_8c.html#a5f5a019c886d5bdf8bf9a3876a5a95bd" target="_top" xlink:title="Returns the integer representation of a prediction type given a name.">
<polygon fill="white" stroke="#666666" points="459,-55.5 345,-55.5 345,-36.5 459,-36.5 459,-55.5"/>
<text text-anchor="middle" x="402" y="-43.5" font-family="Helvetica,sans-Serif" font-size="10.00">prediction_type_as_int</text>
</a>
</g>
</g>
<!-- Node25&#45;&gt;Node26 -->
<g id="edge26_Node000025_Node000026" class="edge">
<title>Node25&#45;&gt;Node26</title>
<g id="a_edge26_Node000025_Node000026"><a xlink:title=" ">
<path fill="none" stroke="#63b8ff" d="M298.8,-61.67C310.45,-59.89 322.89,-57.98 334.94,-56.13"/>
<polygon fill="#63b8ff" stroke="#63b8ff" points="335.59,-59.57 344.94,-54.6 334.52,-52.65 335.59,-59.57"/>
</a>
</g>
</g>
</g>
</svg>
