<?xml version="1.0" encoding="UTF-8" standalone="no"?>
<!DOCTYPE svg PUBLIC "-//W3C//DTD SVG 1.1//EN"
 "http://www.w3.org/Graphics/SVG/1.1/DTD/svg11.dtd">
<!-- Generated by graphviz version 2.43.0 (0)
 -->
<!-- Title: param_print Pages: 1 -->
<svg width="1001pt" height="640pt"
 viewBox="0.00 0.00 1001.00 640.00" xmlns="http://www.w3.org/2000/svg" xmlns:xlink="http://www.w3.org/1999/xlink">
<g id="graph0" class="graph" transform="scale(1 1) rotate(0) translate(4 636)">
<title>param_print</title>
<!-- Node1 -->
<g id="node1" class="node">
<title>Node1</title>
<g id="a_node1"><a xlink:title="Prints all XCSF parameters.">
<polygon fill="#bfbfbf" stroke="black" points="0,-142.5 0,-161.5 68,-161.5 68,-142.5 0,-142.5"/>
<text text-anchor="middle" x="34" y="-149.5" font-family="Helvetica,sans-Serif" font-size="10.00">param_print</text>
</a>
</g>
</g>
<!-- Node2 -->
<g id="node2" class="node">
<title>Node2</title>
<g id="a_node2"><a xlink:href="param_8c.html#a92d92fc270b6ed2e2637ccb590eb15d5" target="_top" xlink:title="Returns a json formatted string representation of the parameters.">
<polygon fill="none" stroke="black" points="104,-142.5 104,-161.5 203,-161.5 203,-142.5 104,-142.5"/>
<text text-anchor="middle" x="153.5" y="-149.5" font-family="Helvetica,sans-Serif" font-size="10.00">param_json_export</text>
</a>
</g>
</g>
<!-- Node1&#45;&gt;Node2 -->
<g id="edge1" class="edge">
<title>Node1&#45;&gt;Node2</title>
<path fill="none" stroke="midnightblue" d="M68.04,-152C76.04,-152 84.84,-152 93.63,-152"/>
<polygon fill="midnightblue" stroke="midnightblue" points="93.92,-155.5 103.92,-152 93.92,-148.5 93.92,-155.5"/>
</g>
<!-- Node3 -->
<g id="node3" class="node">
<title>Node3</title>
<g id="a_node3"><a xlink:href="action_8c.html#ae4c75dacfa854514efe71cc00515d6c0" target="_top" xlink:title="Returns a json formatted string of the action parameters.">
<polygon fill="none" stroke="black" points="239,-372.5 239,-391.5 370,-391.5 370,-372.5 239,-372.5"/>
<text text-anchor="middle" x="304.5" y="-379.5" font-family="Helvetica,sans-Serif" font-size="10.00">action_param_json_export</text>
</a>
</g>
</g>
<!-- Node2&#45;&gt;Node3 -->
<g id="edge2" class="edge">
<title>Node2&#45;&gt;Node3</title>
<path fill="none" stroke="midnightblue" d="M158.44,-161.58C169.27,-187.34 201.17,-259.72 239,-313 252.81,-332.45 271.75,-352.07 285.53,-365.39"/>
<polygon fill="midnightblue" stroke="midnightblue" points="283.31,-368.11 292.97,-372.46 288.13,-363.03 283.31,-368.11"/>
</g>
<!-- Node23 -->
<g id="node23" class="node">
<title>Node23</title>
<g id="a_node23"><a xlink:href="condition_8c.html#ac3384a0731c16bed95c104111873c6e2" target="_top" xlink:title="Returns a json formatted string of the condition parameters.">
<polygon fill="none" stroke="black" points="242,-284.5 242,-303.5 367,-303.5 367,-284.5 242,-284.5"/>
<text text-anchor="middle" x="304.5" y="-291.5" font-family="Helvetica,sans-Serif" font-size="10.00">cond_param_json_export</text>
</a>
</g>
</g>
<!-- Node2&#45;&gt;Node23 -->
<g id="edge23" class="edge">
<title>Node2&#45;&gt;Node23</title>
<path fill="none" stroke="midnightblue" d="M164.74,-161.76C189.73,-185.57 254.07,-246.89 285.58,-276.92"/>
<polygon fill="midnightblue" stroke="midnightblue" points="283.53,-279.81 293.19,-284.17 288.36,-274.74 283.53,-279.81"/>
</g>
<!-- Node31 -->
<g id="node31" class="node">
<title>Node31</title>
<g id="a_node31"><a xlink:href="ea_8c.html#a5a9251875e8fbefb5dc08774cb7edc8e" target="_top" xlink:title="Returns a json formatted string representation of the EA parameters.">
<polygon fill="none" stroke="black" points="247,-104.5 247,-123.5 362,-123.5 362,-104.5 247,-104.5"/>
<text text-anchor="middle" x="304.5" y="-111.5" font-family="Helvetica,sans-Serif" font-size="10.00">ea_param_json_export</text>
</a>
</g>
</g>
<!-- Node2&#45;&gt;Node31 -->
<g id="edge32" class="edge">
<title>Node2&#45;&gt;Node31</title>
<path fill="none" stroke="midnightblue" d="M192.1,-142.41C211.58,-137.44 235.57,-131.32 256.3,-126.04"/>
<polygon fill="midnightblue" stroke="midnightblue" points="257.35,-129.38 266.17,-123.52 255.62,-122.6 257.35,-129.38"/>
</g>
<!-- Node33 -->
<g id="node33" class="node">
<title>Node33</title>
<g id="a_node33"><a xlink:href="loss_8c.html#ae2f30fcd2fb24ac4698c87b4d6b08cfe" target="_top" xlink:title="Returns a string representation of a loss type from the integer.">
<polygon fill="none" stroke="black" points="252.5,-66.5 252.5,-85.5 356.5,-85.5 356.5,-66.5 252.5,-66.5"/>
<text text-anchor="middle" x="304.5" y="-73.5" font-family="Helvetica,sans-Serif" font-size="10.00">loss_type_as_string</text>
</a>
</g>
</g>
<!-- Node2&#45;&gt;Node33 -->
<g id="edge34" class="edge">
<title>Node2&#45;&gt;Node33</title>
<path fill="none" stroke="midnightblue" d="M166.11,-142.45C181.78,-129.98 210.98,-108.19 239,-95 243.88,-92.7 249.11,-90.61 254.39,-88.73"/>
<polygon fill="midnightblue" stroke="midnightblue" points="255.52,-92.05 263.9,-85.58 253.31,-85.4 255.52,-92.05"/>
</g>
<!-- Node34 -->
<g id="node34" class="node">
<title>Node34</title>
<g id="a_node34"><a xlink:href="prediction_8c.html#afb4c9f7647df17c3b4ab748f01b5e301" target="_top" xlink:title="Returns a json formatted string of the prediction parameters.">
<polygon fill="none" stroke="black" points="243,-142.5 243,-161.5 366,-161.5 366,-142.5 243,-142.5"/>
<text text-anchor="middle" x="304.5" y="-149.5" font-family="Helvetica,sans-Serif" font-size="10.00">pred_param_json_export</text>
</a>
</g>
</g>
<!-- Node2&#45;&gt;Node34 -->
<g id="edge35" class="edge">
<title>Node2&#45;&gt;Node34</title>
<path fill="none" stroke="midnightblue" d="M203.29,-152C212.67,-152 222.68,-152 232.6,-152"/>
<polygon fill="midnightblue" stroke="midnightblue" points="232.88,-155.5 242.88,-152 232.88,-148.5 232.88,-155.5"/>
</g>
<!-- Node4 -->
<g id="node4" class="node">
<title>Node4</title>
<g id="a_node4"><a xlink:href="action_8c.html#a92f612de02989e82ef6c52bc7384f24f" target="_top" xlink:title="Returns a string representation of an action type from an integer.">
<polygon fill="none" stroke="black" points="422,-448.5 422,-467.5 534,-467.5 534,-448.5 422,-448.5"/>
<text text-anchor="middle" x="478" y="-455.5" font-family="Helvetica,sans-Serif" font-size="10.00">action_type_as_string</text>
</a>
</g>
</g>
<!-- Node3&#45;&gt;Node4 -->
<g id="edge3" class="edge">
<title>Node3&#45;&gt;Node4</title>
<path fill="none" stroke="midnightblue" d="M319.56,-391.51C338.48,-403.95 373.52,-425.7 406,-439 411.89,-441.41 418.18,-443.61 424.49,-445.57"/>
<polygon fill="midnightblue" stroke="midnightblue" points="423.79,-449.02 434.37,-448.48 425.76,-442.3 423.79,-449.02"/>
</g>
<!-- Node5 -->
<g id="node5" class="node">
<title>Node5</title>
<g id="a_node5"><a xlink:href="neural__layer__args_8c.html#a390bf97769999138966232a530c705e8" target="_top" xlink:title="Returns a json formatted string of the neural layer parameters.">
<polygon fill="none" stroke="black" points="419.5,-372.5 419.5,-391.5 536.5,-391.5 536.5,-372.5 419.5,-372.5"/>
<text text-anchor="middle" x="478" y="-379.5" font-family="Helvetica,sans-Serif" font-size="10.00">layer_args_json_export</text>
</a>
</g>
</g>
<!-- Node3&#45;&gt;Node5 -->
<g id="edge4" class="edge">
<title>Node3&#45;&gt;Node5</title>
<path fill="none" stroke="midnightblue" d="M370.34,-382C383.06,-382 396.44,-382 409.26,-382"/>
<polygon fill="midnightblue" stroke="midnightblue" points="409.39,-385.5 419.39,-382 409.39,-378.5 409.39,-385.5"/>
</g>
<!-- Node6 -->
<g id="node6" class="node">
<title>Node6</title>
<g id="a_node6"><a xlink:href="neural__layer__args_8c.html#a0d29d99487e5afd1746e7ac70fadf68f" target="_top" xlink:title="Adds layer activation function to a json object.">
<polygon fill="none" stroke="black" points="596.5,-411 596.5,-441 713.5,-441 713.5,-411 596.5,-411"/>
<text text-anchor="start" x="604.5" y="-429" font-family="Helvetica,sans-Serif" font-size="10.00">layer_args_json_export</text>
<text text-anchor="middle" x="655" y="-418" font-family="Helvetica,sans-Serif" font-size="10.00">_activation</text>
</a>
</g>
</g>
<!-- Node5&#45;&gt;Node6 -->
<g id="edge5" class="edge">
<title>Node5&#45;&gt;Node6</title>
<path fill="none" stroke="midnightblue" d="M516.97,-391.55C537.29,-396.66 562.92,-403.1 586.51,-409.03"/>
<polygon fill="midnightblue" stroke="midnightblue" points="585.91,-412.49 596.47,-411.53 587.62,-405.7 585.91,-412.49"/>
</g>
<!-- Node8 -->
<g id="node8" class="node">
<title>Node8</title>
<g id="a_node8"><a xlink:href="neural__layer__args_8c.html#aba8bd68ce834099ac6558a3b2560963a" target="_top" xlink:title="Adds layer evolutionary parameters to a json object.">
<polygon fill="none" stroke="black" points="586,-372.5 586,-391.5 724,-391.5 724,-372.5 586,-372.5"/>
<text text-anchor="middle" x="655" y="-379.5" font-family="Helvetica,sans-Serif" font-size="10.00">layer_args_json_export_evo</text>
</a>
</g>
</g>
<!-- Node5&#45;&gt;Node8 -->
<g id="edge7" class="edge">
<title>Node5&#45;&gt;Node8</title>
<path fill="none" stroke="midnightblue" d="M536.79,-382C549.2,-382 562.52,-382 575.56,-382"/>
<polygon fill="midnightblue" stroke="midnightblue" points="575.94,-385.5 585.94,-382 575.94,-378.5 575.94,-385.5"/>
</g>
<!-- Node9 -->
<g id="node9" class="node">
<title>Node9</title>
<g id="a_node9"><a xlink:href="neural__layer__args_8c.html#a7b6e5027adbd710fc3653c7056c22fa2" target="_top" xlink:title="Adds layer input parameters to a json object.">
<polygon fill="none" stroke="black" points="596.5,-323 596.5,-353 713.5,-353 713.5,-323 596.5,-323"/>
<text text-anchor="start" x="604.5" y="-341" font-family="Helvetica,sans-Serif" font-size="10.00">layer_args_json_export</text>
<text text-anchor="middle" x="655" y="-330" font-family="Helvetica,sans-Serif" font-size="10.00">_inputs</text>
</a>
</g>
</g>
<!-- Node5&#45;&gt;Node9 -->
<g id="edge8" class="edge">
<title>Node5&#45;&gt;Node9</title>
<path fill="none" stroke="midnightblue" d="M516.97,-372.45C537.29,-367.34 562.92,-360.9 586.51,-354.97"/>
<polygon fill="midnightblue" stroke="midnightblue" points="587.62,-358.3 596.47,-352.47 585.91,-351.51 587.62,-358.3"/>
</g>
<!-- Node11 -->
<g id="node11" class="node">
<title>Node11</title>
<g id="a_node11"><a xlink:href="neural__layer__args_8c.html#a1130173f486e5e1b647a65ff0822aebc" target="_top" xlink:title="Adds layer scaling parameters to a json object.">
<polygon fill="none" stroke="black" points="596.5,-274 596.5,-304 713.5,-304 713.5,-274 596.5,-274"/>
<text text-anchor="start" x="604.5" y="-292" font-family="Helvetica,sans-Serif" font-size="10.00">layer_args_json_export</text>
<text text-anchor="middle" x="655" y="-281" font-family="Helvetica,sans-Serif" font-size="10.00">_scale</text>
</a>
</g>
</g>
<!-- Node5&#45;&gt;Node11 -->
<g id="edge10" class="edge">
<title>Node5&#45;&gt;Node11</title>
<path fill="none" stroke="midnightblue" d="M531.23,-372.44C537.86,-369.98 544.31,-366.89 550,-363 572.31,-347.76 564.4,-330.24 586,-314 588.48,-312.13 591.12,-310.39 593.86,-308.77"/>
<polygon fill="midnightblue" stroke="midnightblue" points="595.68,-311.77 602.88,-304 592.41,-305.58 595.68,-311.77"/>
</g>
<!-- Node12 -->
<g id="node12" class="node">
<title>Node12</title>
<g id="a_node12"><a xlink:href="neural__layer__args_8c.html#a686e3f11eb7bb524effd5ddb75bdbd34" target="_top" xlink:title="Adds layer gradient descent parameters to a json object.">
<polygon fill="none" stroke="black" points="586,-235.5 586,-254.5 724,-254.5 724,-235.5 586,-235.5"/>
<text text-anchor="middle" x="655" y="-242.5" font-family="Helvetica,sans-Serif" font-size="10.00">layer_args_json_export_sgd</text>
</a>
</g>
</g>
<!-- Node5&#45;&gt;Node12 -->
<g id="edge11" class="edge">
<title>Node5&#45;&gt;Node12</title>
<path fill="none" stroke="midnightblue" d="M535.55,-372.45C540.82,-369.97 545.76,-366.87 550,-363 584.26,-331.71 552.12,-296.71 586,-265 588.26,-262.88 590.74,-260.99 593.36,-259.29"/>
<polygon fill="midnightblue" stroke="midnightblue" points="595.04,-262.36 602.18,-254.53 591.71,-256.2 595.04,-262.36"/>
</g>
<!-- Node13 -->
<g id="node13" class="node">
<title>Node13</title>
<g id="a_node13"><a xlink:href="neural__layer_8c.html#a0e2222a263f09abb981bc7273cd88d7e" target="_top" xlink:title="Returns a string representation of a layer type from an integer.">
<polygon fill="none" stroke="black" points="601.5,-574.5 601.5,-593.5 708.5,-593.5 708.5,-574.5 601.5,-574.5"/>
<text text-anchor="middle" x="655" y="-581.5" font-family="Helvetica,sans-Serif" font-size="10.00">layer_type_as_string</text>
</a>
</g>
</g>
<!-- Node5&#45;&gt;Node13 -->
<g id="edge12" class="edge">
<title>Node5&#45;&gt;Node13</title>
<path fill="none" stroke="midnightblue" d="M536.79,-391.33C541.69,-393.86 546.21,-397.03 550,-401 601.56,-454.95 534.74,-510.77 586,-565 587.88,-566.99 589.95,-568.77 592.16,-570.38"/>
<polygon fill="midnightblue" stroke="midnightblue" points="590.88,-573.68 601.28,-575.7 594.41,-567.64 590.88,-573.68"/>
</g>
<!-- Node14 -->
<g id="node14" class="node">
<title>Node14</title>
<g id="a_node14"><a xlink:href="neural_8c.html#a6466387dd7c533e0f15da4c2127bfd79" target="_top" xlink:title="Initialises and creates a new neural network from a parameter list.">
<polygon fill="none" stroke="black" points="617.5,-536.5 617.5,-555.5 692.5,-555.5 692.5,-536.5 617.5,-536.5"/>
<text text-anchor="middle" x="655" y="-543.5" font-family="Helvetica,sans-Serif" font-size="10.00">neural_create</text>
</a>
</g>
</g>
<!-- Node5&#45;&gt;Node14 -->
<g id="edge13" class="edge">
<title>Node5&#45;&gt;Node14</title>
<path fill="none" stroke="midnightblue" d="M536.49,-391.63C541.45,-394.1 546.07,-397.17 550,-401 590.22,-440.12 547.33,-481.34 586,-522 591.95,-528.26 599.64,-532.89 607.69,-536.31"/>
<polygon fill="midnightblue" stroke="midnightblue" points="606.63,-539.65 617.22,-539.8 609.03,-533.08 606.63,-539.65"/>
</g>
<!-- Node18 -->
<g id="node18" class="node">
<title>Node18</title>
<g id="a_node18"><a xlink:href="neural_8c.html#ad70aee7c40f698d4be45e3d419051c2f" target="_top" xlink:title="Initialises an empty neural network.">
<polygon fill="none" stroke="black" points="789,-498.5 789,-517.5 850,-517.5 850,-498.5 789,-498.5"/>
<text text-anchor="middle" x="819.5" y="-505.5" font-family="Helvetica,sans-Serif" font-size="10.00">neural_init</text>
</a>
</g>
</g>
<!-- Node5&#45;&gt;Node18 -->
<g id="edge22" class="edge">
<title>Node5&#45;&gt;Node18</title>
<path fill="none" stroke="midnightblue" d="M535.05,-391.55C540.48,-394.02 545.59,-397.12 550,-401 581.71,-428.93 551.91,-464.04 586,-489 642.44,-530.32 728.55,-524.54 778.61,-516.4"/>
<polygon fill="midnightblue" stroke="midnightblue" points="779.46,-519.8 788.72,-514.64 778.27,-512.9 779.46,-519.8"/>
</g>
<!-- Node21 -->
<g id="node21" class="node">
<title>Node21</title>
<g id="a_node21"><a xlink:href="neural_8c.html#a9c3e1da0425d0fc17daa12c21e4799ca" target="_top" xlink:title="Frees a neural network.">
<polygon fill="none" stroke="black" points="622.5,-460.5 622.5,-479.5 687.5,-479.5 687.5,-460.5 622.5,-460.5"/>
<text text-anchor="middle" x="655" y="-467.5" font-family="Helvetica,sans-Serif" font-size="10.00">neural_free</text>
</a>
</g>
</g>
<!-- Node5&#45;&gt;Node21 -->
<g id="edge20" class="edge">
<title>Node5&#45;&gt;Node21</title>
<path fill="none" stroke="midnightblue" d="M531.26,-391.51C537.89,-393.98 544.33,-397.09 550,-401 572.54,-416.55 563.55,-435.32 586,-451 593.82,-456.46 603.18,-460.36 612.41,-463.14"/>
<polygon fill="midnightblue" stroke="midnightblue" points="611.73,-466.58 622.29,-465.74 613.51,-459.81 611.73,-466.58"/>
</g>
<!-- Node7 -->
<g id="node7" class="node">
<title>Node7</title>
<g id="a_node7"><a xlink:href="neural__activations_8c.html#a429f5b4427682cb174e3d4d56f181a22" target="_top" xlink:title="Returns the name of a specified activation function.">
<polygon fill="none" stroke="black" points="760,-416.5 760,-435.5 879,-435.5 879,-416.5 760,-416.5"/>
<text text-anchor="middle" x="819.5" y="-423.5" font-family="Helvetica,sans-Serif" font-size="10.00">neural_activation_string</text>
</a>
</g>
</g>
<!-- Node6&#45;&gt;Node7 -->
<g id="edge6" class="edge">
<title>Node6&#45;&gt;Node7</title>
<path fill="none" stroke="midnightblue" d="M713.75,-426C725.32,-426 737.59,-426 749.5,-426"/>
<polygon fill="midnightblue" stroke="midnightblue" points="749.84,-429.5 759.84,-426 749.84,-422.5 749.84,-429.5"/>
</g>
<!-- Node10 -->
<g id="node10" class="node">
<title>Node10</title>
<g id="a_node10"><a xlink:href="neural__layer_8c.html#ad1b7188119d0d96791ee0d87c105896a" target="_top" xlink:title="Returns a whether a layer type expects images as input.">
<polygon fill="none" stroke="black" points="761.5,-328.5 761.5,-347.5 877.5,-347.5 877.5,-328.5 761.5,-328.5"/>
<text text-anchor="middle" x="819.5" y="-335.5" font-family="Helvetica,sans-Serif" font-size="10.00">layer_receives_images</text>
</a>
</g>
</g>
<!-- Node9&#45;&gt;Node10 -->
<g id="edge9" class="edge">
<title>Node9&#45;&gt;Node10</title>
<path fill="none" stroke="midnightblue" d="M713.75,-338C725.86,-338 738.74,-338 751.17,-338"/>
<polygon fill="midnightblue" stroke="midnightblue" points="751.48,-341.5 761.48,-338 751.48,-334.5 751.48,-341.5"/>
</g>
<!-- Node15 -->
<g id="node15" class="node">
<title>Node15</title>
<g id="a_node15"><a xlink:href="neural__layer_8h.html#a33f40237cec8d79bf6325b78d1f955fe" target="_top" xlink:title="Creates and initialises a new layer.">
<polygon fill="none" stroke="black" points="791.5,-574.5 791.5,-593.5 847.5,-593.5 847.5,-574.5 791.5,-574.5"/>
<text text-anchor="middle" x="819.5" y="-581.5" font-family="Helvetica,sans-Serif" font-size="10.00">layer_init</text>
</a>
</g>
</g>
<!-- Node14&#45;&gt;Node15 -->
<g id="edge14" class="edge">
<title>Node14&#45;&gt;Node15</title>
<path fill="none" stroke="midnightblue" d="M692.87,-554.62C719.33,-560.81 754.83,-569.11 781.35,-575.31"/>
<polygon fill="midnightblue" stroke="midnightblue" points="780.86,-578.79 791.39,-577.66 782.45,-571.98 780.86,-578.79"/>
</g>
<!-- Node14&#45;&gt;Node18 -->
<g id="edge17" class="edge">
<title>Node14&#45;&gt;Node18</title>
<path fill="none" stroke="midnightblue" d="M692.87,-537.38C718.5,-531.38 752.62,-523.4 778.84,-517.27"/>
<polygon fill="midnightblue" stroke="midnightblue" points="779.88,-520.63 788.82,-514.94 778.29,-513.81 779.88,-520.63"/>
</g>
<!-- Node19 -->
<g id="node19" class="node">
<title>Node19</title>
<g id="a_node19"><a xlink:href="neural_8c.html#a1c1c06446fc719b8293aade2ded8433c" target="_top" xlink:title="Inserts a layer at the head of a neural network.">
<polygon fill="none" stroke="black" points="785,-536.5 785,-555.5 854,-555.5 854,-536.5 785,-536.5"/>
<text text-anchor="middle" x="819.5" y="-543.5" font-family="Helvetica,sans-Serif" font-size="10.00">neural_push</text>
</a>
</g>
</g>
<!-- Node14&#45;&gt;Node19 -->
<g id="edge18" class="edge">
<title>Node14&#45;&gt;Node19</title>
<path fill="none" stroke="midnightblue" d="M692.87,-546C717.15,-546 749.06,-546 774.64,-546"/>
<polygon fill="midnightblue" stroke="midnightblue" points="774.82,-549.5 784.82,-546 774.82,-542.5 774.82,-549.5"/>
</g>
<!-- Node16 -->
<g id="node16" class="node">
<title>Node16</title>
<g id="a_node16"><a xlink:href="neural__layer_8h.html#a21a8acbaa483c46984c4f5f20d4edf95" target="_top" xlink:title="Initialises a layer to default values.">
<polygon fill="none" stroke="black" points="915.5,-574.5 915.5,-593.5 992.5,-593.5 992.5,-574.5 915.5,-574.5"/>
<text text-anchor="middle" x="954" y="-581.5" font-family="Helvetica,sans-Serif" font-size="10.00">layer_defaults</text>
</a>
</g>
</g>
<!-- Node15&#45;&gt;Node16 -->
<g id="edge15" class="edge">
<title>Node15&#45;&gt;Node16</title>
<path fill="none" stroke="midnightblue" d="M847.63,-584C864.19,-584 885.83,-584 905.18,-584"/>
<polygon fill="midnightblue" stroke="midnightblue" points="905.36,-587.5 915.36,-584 905.36,-580.5 905.36,-587.5"/>
</g>
<!-- Node17 -->
<g id="node17" class="node">
<title>Node17</title>
<g id="a_node17"><a xlink:href="neural__layer_8h.html#a786726dce503a14b3bdd88b1ab5c356f" target="_top" xlink:title="Sets a neural network layer&#39;s functions to the implementations.">
<polygon fill="none" stroke="black" points="915,-612.5 915,-631.5 993,-631.5 993,-612.5 915,-612.5"/>
<text text-anchor="middle" x="954" y="-619.5" font-family="Helvetica,sans-Serif" font-size="10.00">layer_set_vptr</text>
</a>
</g>
</g>
<!-- Node15&#45;&gt;Node17 -->
<g id="edge16" class="edge">
<title>Node15&#45;&gt;Node17</title>
<path fill="none" stroke="midnightblue" d="M847.63,-591.78C865.59,-596.93 889.52,-603.8 910.04,-609.68"/>
<polygon fill="midnightblue" stroke="midnightblue" points="909.22,-613.09 919.8,-612.48 911.15,-606.36 909.22,-613.09"/>
</g>
<!-- Node20 -->
<g id="node20" class="node">
<title>Node20</title>
<g id="a_node20"><a xlink:href="neural_8c.html#afab574137fbf9da9a286d020917c8295" target="_top" xlink:title="Inserts a layer into a neural network.">
<polygon fill="none" stroke="black" points="918,-536.5 918,-555.5 990,-555.5 990,-536.5 918,-536.5"/>
<text text-anchor="middle" x="954" y="-543.5" font-family="Helvetica,sans-Serif" font-size="10.00">neural_insert</text>
</a>
</g>
</g>
<!-- Node19&#45;&gt;Node20 -->
<g id="edge19" class="edge">
<title>Node19&#45;&gt;Node20</title>
<path fill="none" stroke="midnightblue" d="M854.28,-546C870.56,-546 890.31,-546 907.86,-546"/>
<polygon fill="midnightblue" stroke="midnightblue" points="907.9,-549.5 917.9,-546 907.9,-542.5 907.9,-549.5"/>
</g>
<!-- Node22 -->
<g id="node22" class="node">
<title>Node22</title>
<g id="a_node22"><a xlink:href="neural__layer_8h.html#a5ea2541eb1936ed851001c4a8b99b08f" target="_top" xlink:title="Frees the memory used by the layer.">
<polygon fill="none" stroke="black" points="790,-460.5 790,-479.5 849,-479.5 849,-460.5 790,-460.5"/>
<text text-anchor="middle" x="819.5" y="-467.5" font-family="Helvetica,sans-Serif" font-size="10.00">layer_free</text>
</a>
</g>
</g>
<!-- Node21&#45;&gt;Node22 -->
<g id="edge21" class="edge">
<title>Node21&#45;&gt;Node22</title>
<path fill="none" stroke="midnightblue" d="M687.72,-470C714.01,-470 751.49,-470 779.59,-470"/>
<polygon fill="midnightblue" stroke="midnightblue" points="779.86,-473.5 789.86,-470 779.86,-466.5 779.86,-473.5"/>
</g>
<!-- Node23&#45;&gt;Node5 -->
<g id="edge31" class="edge">
<title>Node23&#45;&gt;Node5</title>
<path fill="none" stroke="midnightblue" d="M316.77,-303.68C334.58,-318.5 370.82,-346.8 406,-363 411.07,-365.34 416.48,-367.43 421.97,-369.29"/>
<polygon fill="midnightblue" stroke="midnightblue" points="421.28,-372.74 431.87,-372.4 423.38,-366.07 421.28,-372.74"/>
</g>
<!-- Node24 -->
<g id="node24" class="node">
<title>Node24</title>
<g id="a_node24"><a xlink:href="cond__dgp_8c.html#a8cca6a8bfdd85934854a2b57fafcdcad" target="_top" xlink:title="Returns a json formatted string of the DGP parameters.">
<polygon fill="none" stroke="black" points="421,-235 421,-265 535,-265 535,-235 421,-235"/>
<text text-anchor="start" x="429" y="-253" font-family="Helvetica,sans-Serif" font-size="10.00">cond_dgp_param_json</text>
<text text-anchor="middle" x="478" y="-242" font-family="Helvetica,sans-Serif" font-size="10.00">_export</text>
</a>
</g>
</g>
<!-- Node23&#45;&gt;Node24 -->
<g id="edge24" class="edge">
<title>Node23&#45;&gt;Node24</title>
<path fill="none" stroke="midnightblue" d="M342.71,-284.45C362.71,-279.32 387.96,-272.84 411.16,-266.89"/>
<polygon fill="midnightblue" stroke="midnightblue" points="412.13,-270.26 420.95,-264.38 410.39,-263.48 412.13,-270.26"/>
</g>
<!-- Node26 -->
<g id="node26" class="node">
<title>Node26</title>
<g id="a_node26"><a xlink:href="cond__gp_8c.html#ac5fd198ed7de7e41a1b68ac4167f443e" target="_top" xlink:title="Returns a json formatted string of the tree GP parameters.">
<polygon fill="none" stroke="black" points="423.5,-186 423.5,-216 532.5,-216 532.5,-186 423.5,-186"/>
<text text-anchor="start" x="431.5" y="-204" font-family="Helvetica,sans-Serif" font-size="10.00">cond_gp_param_json</text>
<text text-anchor="middle" x="478" y="-193" font-family="Helvetica,sans-Serif" font-size="10.00">_export</text>
</a>
</g>
</g>
<!-- Node23&#45;&gt;Node26 -->
<g id="edge26" class="edge">
<title>Node23&#45;&gt;Node26</title>
<path fill="none" stroke="midnightblue" d="M317.56,-284.33C335.81,-270.05 371.95,-243.16 406,-226 410.3,-223.84 414.83,-221.78 419.43,-219.84"/>
<polygon fill="midnightblue" stroke="midnightblue" points="420.96,-223 428.94,-216.03 418.36,-216.5 420.96,-223"/>
</g>
<!-- Node28 -->
<g id="node28" class="node">
<title>Node28</title>
<g id="a_node28"><a xlink:href="condition_8c.html#a2c6bd28191ba3318455d46004e9e845a" target="_top" xlink:title="Returns a json formatted string of the center&#45;spread parameters.">
<polygon fill="none" stroke="black" points="406,-410.5 406,-429.5 550,-429.5 550,-410.5 406,-410.5"/>
<text text-anchor="middle" x="478" y="-417.5" font-family="Helvetica,sans-Serif" font-size="10.00">cond_param_json_export_csr</text>
</a>
</g>
</g>
<!-- Node23&#45;&gt;Node28 -->
<g id="edge28" class="edge">
<title>Node23&#45;&gt;Node28</title>
<path fill="none" stroke="midnightblue" d="M314.62,-303.78C339.12,-330.04 404.58,-400.15 406,-401 409.63,-403.17 413.52,-405.1 417.53,-406.82"/>
<polygon fill="midnightblue" stroke="midnightblue" points="416.46,-410.15 427.05,-410.43 418.94,-403.61 416.46,-410.15"/>
</g>
<!-- Node29 -->
<g id="node29" class="node">
<title>Node29</title>
<g id="a_node29"><a xlink:href="cond__ternary_8c.html#a3e242bc5b35ada8f04d551d9c0a5062f" target="_top" xlink:title="Returns a json formatted string of the ternary parameters.">
<polygon fill="none" stroke="black" points="425.5,-323 425.5,-353 530.5,-353 530.5,-323 425.5,-323"/>
<text text-anchor="start" x="433.5" y="-341" font-family="Helvetica,sans-Serif" font-size="10.00">cond_ternary_param</text>
<text text-anchor="middle" x="478" y="-330" font-family="Helvetica,sans-Serif" font-size="10.00">_json_export</text>
</a>
</g>
</g>
<!-- Node23&#45;&gt;Node29 -->
<g id="edge29" class="edge">
<title>Node23&#45;&gt;Node29</title>
<path fill="none" stroke="midnightblue" d="M342.71,-303.55C363.93,-308.99 391.05,-315.95 415.36,-322.19"/>
<polygon fill="midnightblue" stroke="midnightblue" points="414.67,-325.62 425.22,-324.72 416.41,-318.84 414.67,-325.62"/>
</g>
<!-- Node30 -->
<g id="node30" class="node">
<title>Node30</title>
<g id="a_node30"><a xlink:href="condition_8c.html#af5a052e347755190271b32d8b09ec026" target="_top" xlink:title="Returns a string representation of a condition type from an integer.">
<polygon fill="none" stroke="black" points="415.5,-284.5 415.5,-303.5 540.5,-303.5 540.5,-284.5 415.5,-284.5"/>
<text text-anchor="middle" x="478" y="-291.5" font-family="Helvetica,sans-Serif" font-size="10.00">condition_type_as_string</text>
</a>
</g>
</g>
<!-- Node23&#45;&gt;Node30 -->
<g id="edge30" class="edge">
<title>Node23&#45;&gt;Node30</title>
<path fill="none" stroke="midnightblue" d="M367.42,-294C379.76,-294 392.81,-294 405.44,-294"/>
<polygon fill="midnightblue" stroke="midnightblue" points="405.46,-297.5 415.46,-294 405.46,-290.5 405.46,-297.5"/>
</g>
<!-- Node25 -->
<g id="node25" class="node">
<title>Node25</title>
<g id="a_node25"><a xlink:href="dgp_8c.html#a198a40a55adefa4b97666309231694c3" target="_top" xlink:title="Returns a json formatted string of the DGP parameters.">
<polygon fill="none" stroke="black" points="595,-197.5 595,-216.5 715,-216.5 715,-197.5 595,-197.5"/>
<text text-anchor="middle" x="655" y="-204.5" font-family="Helvetica,sans-Serif" font-size="10.00">graph_args_json_export</text>
</a>
</g>
</g>
<!-- Node24&#45;&gt;Node25 -->
<g id="edge25" class="edge">
<title>Node24&#45;&gt;Node25</title>
<path fill="none" stroke="midnightblue" d="M535.33,-236.16C557.85,-230.63 583.53,-224.32 605.23,-218.98"/>
<polygon fill="midnightblue" stroke="midnightblue" points="606.33,-222.32 615.21,-216.53 604.66,-215.52 606.33,-222.32"/>
</g>
<!-- Node27 -->
<g id="node27" class="node">
<title>Node27</title>
<g id="a_node27"><a xlink:href="gp_8c.html#acedba2c1610ffd5e67effc0f0f482652" target="_top" xlink:title="Returns a json formatted string of the GP tree parameters.">
<polygon fill="none" stroke="black" points="598.5,-159.5 598.5,-178.5 711.5,-178.5 711.5,-159.5 598.5,-159.5"/>
<text text-anchor="middle" x="655" y="-166.5" font-family="Helvetica,sans-Serif" font-size="10.00">tree_args_json_export</text>
</a>
</g>
</g>
<!-- Node26&#45;&gt;Node27 -->
<g id="edge27" class="edge">
<title>Node26&#45;&gt;Node27</title>
<path fill="none" stroke="midnightblue" d="M532.93,-191.14C551.66,-187.71 572.81,-183.85 592.13,-180.31"/>
<polygon fill="midnightblue" stroke="midnightblue" points="592.84,-183.74 602.04,-178.5 591.58,-176.86 592.84,-183.74"/>
</g>
<!-- Node32 -->
<g id="node32" class="node">
<title>Node32</title>
<g id="a_node32"><a xlink:href="ea_8c.html#a53acdbcd7a77faf6d38068559ae03b8b" target="_top" xlink:title="Returns a string representation of an EA select type from an integer.">
<polygon fill="none" stroke="black" points="430,-0.5 430,-19.5 526,-19.5 526,-0.5 430,-0.5"/>
<text text-anchor="middle" x="478" y="-7.5" font-family="Helvetica,sans-Serif" font-size="10.00">ea_type_as_string</text>
</a>
</g>
</g>
<!-- Node31&#45;&gt;Node32 -->
<g id="edge33" class="edge">
<title>Node31&#45;&gt;Node32</title>
<path fill="none" stroke="midnightblue" d="M353.77,-104.44C359.6,-101.98 365.19,-98.89 370,-95 396,-74.02 379.74,-49.66 406,-29 410.33,-25.6 415.21,-22.8 420.34,-20.51"/>
<polygon fill="midnightblue" stroke="midnightblue" points="421.69,-23.74 429.77,-16.89 419.18,-17.2 421.69,-23.74"/>
</g>
<!-- Node34&#45;&gt;Node5 -->
<g id="edge36" class="edge">
<title>Node34&#45;&gt;Node5</title>
<path fill="none" stroke="midnightblue" d="M311,-161.73C322.56,-182.31 349.95,-231.94 370,-275 387.83,-313.31 374.29,-335.07 406,-363 407.93,-364.7 409.99,-366.24 412.16,-367.66"/>
<polygon fill="midnightblue" stroke="midnightblue" points="410.49,-370.73 420.95,-372.45 413.84,-364.59 410.49,-370.73"/>
</g>
<!-- Node35 -->
<g id="node35" class="node">
<title>Node35</title>
<g id="a_node35"><a xlink:href="pred__nlms_8c.html#a3ed879edc5785d8f0c208e83ff62382a" target="_top" xlink:title="Returns a json formatted string of the NLMS parameters.">
<polygon fill="none" stroke="black" points="419.5,-137 419.5,-167 536.5,-167 536.5,-137 419.5,-137"/>
<text text-anchor="start" x="427.5" y="-155" font-family="Helvetica,sans-Serif" font-size="10.00">pred_nlms_param_json</text>
<text text-anchor="middle" x="478" y="-144" font-family="Helvetica,sans-Serif" font-size="10.00">_export</text>
</a>
</g>
</g>
<!-- Node34&#45;&gt;Node35 -->
<g id="edge37" class="edge">
<title>Node34&#45;&gt;Node35</title>
<path fill="none" stroke="midnightblue" d="M366.45,-152C380.32,-152 395.13,-152 409.26,-152"/>
<polygon fill="midnightblue" stroke="midnightblue" points="409.41,-155.5 419.41,-152 409.41,-148.5 409.41,-155.5"/>
</g>
<!-- Node36 -->
<g id="node36" class="node">
<title>Node36</title>
<g id="a_node36"><a xlink:href="pred__rls_8c.html#aa75d18939833eb602a768c5bfbd7d75b" target="_top" xlink:title="Returns a json formatted string of the RLS parameters.">
<polygon fill="none" stroke="black" points="424.5,-88 424.5,-118 531.5,-118 531.5,-88 424.5,-88"/>
<text text-anchor="start" x="432.5" y="-106" font-family="Helvetica,sans-Serif" font-size="10.00">pred_rls_param_json</text>
<text text-anchor="middle" x="478" y="-95" font-family="Helvetica,sans-Serif" font-size="10.00">_export</text>
</a>
</g>
</g>
<!-- Node34&#45;&gt;Node36 -->
<g id="edge38" class="edge">
<title>Node34&#45;&gt;Node36</title>
<path fill="none" stroke="midnightblue" d="M338.97,-142.44C360.5,-136.29 389.12,-128.11 414.73,-120.79"/>
<polygon fill="midnightblue" stroke="midnightblue" points="415.72,-124.15 424.37,-118.04 413.79,-117.42 415.72,-124.15"/>
</g>
<!-- Node37 -->
<g id="node37" class="node">
<title>Node37</title>
<g id="a_node37"><a xlink:href="prediction_8c.html#a085a8402296bdeab95f54299040e6e0e" target="_top" xlink:title="Returns a string representation of a prediction type from the integer.">
<polygon fill="none" stroke="black" points="429,-39 429,-69 527,-69 527,-39 429,-39"/>
<text text-anchor="start" x="437" y="-57" font-family="Helvetica,sans-Serif" font-size="10.00">prediction_type_as</text>
<text text-anchor="middle" x="478" y="-46" font-family="Helvetica,sans-Serif" font-size="10.00">_string</text>
</a>
</g>
</g>
<!-- Node34&#45;&gt;Node37 -->
<g id="edge39" class="edge">
<title>Node34&#45;&gt;Node37</title>
<path fill="none" stroke="midnightblue" d="M352.45,-142.43C358.69,-139.97 364.74,-136.88 370,-133 393.23,-115.9 383.23,-96.7 406,-79 410.15,-75.77 414.75,-72.95 419.55,-70.47"/>
<polygon fill="midnightblue" stroke="midnightblue" points="421.36,-73.49 428.98,-66.13 418.43,-67.13 421.36,-73.49"/>
</g>
</g>
</svg>
