<?xml version="1.0" encoding="UTF-8" standalone="no"?>
<!DOCTYPE svg PUBLIC "-//W3C//DTD SVG 1.1//EN"
 "http://www.w3.org/Graphics/SVG/1.1/DTD/svg11.dtd">
<!-- Generated by graphviz version 2.43.0 (0)
 -->
<!-- Title: pred_param_set_x0 Pages: 1 -->
<svg width="739pt" height="218pt"
 viewBox="0.00 0.00 739.00 218.00" xmlns="http://www.w3.org/2000/svg" xmlns:xlink="http://www.w3.org/1999/xlink">
<g id="graph0" class="graph" transform="scale(1 1) rotate(0) translate(4 214)">
<title>pred_param_set_x0</title>
<!-- Node1 -->
<g id="node1" class="node">
<title>Node1</title>
<g id="a_node1"><a xlink:title=" ">
<polygon fill="#bfbfbf" stroke="black" points="629,-112.5 629,-131.5 731,-131.5 731,-112.5 629,-112.5"/>
<text text-anchor="middle" x="680" y="-119.5" font-family="Helvetica,sans-Serif" font-size="10.00">pred_param_set_x0</text>
</a>
</g>
</g>
<!-- Node2 -->
<g id="node2" class="node">
<title>Node2</title>
<g id="a_node2"><a xlink:href="pred__nlms_8h.html#a8964c1670f4fb4a398a842d154aab033" target="_top" xlink:title="Sets the NLMS parameters from a cJSON object.">
<polygon fill="none" stroke="black" points="476,-156 476,-186 593,-186 593,-156 476,-156"/>
<text text-anchor="start" x="484" y="-174" font-family="Helvetica,sans-Serif" font-size="10.00">pred_nlms_param_json</text>
<text text-anchor="middle" x="534.5" y="-163" font-family="Helvetica,sans-Serif" font-size="10.00">_import</text>
</a>
</g>
</g>
<!-- Node1&#45;&gt;Node2 -->
<g id="edge1" class="edge">
<title>Node1&#45;&gt;Node2</title>
<path fill="none" stroke="midnightblue" d="M641.49,-134.81C622.51,-141.29 599.36,-149.2 579.54,-155.96"/>
<polygon fill="midnightblue" stroke="midnightblue" points="642.66,-138.11 650.99,-131.56 640.4,-131.48 642.66,-138.11"/>
</g>
<!-- Node8 -->
<g id="node8" class="node">
<title>Node8</title>
<g id="a_node8"><a xlink:href="prediction_8h.html#af2e3b26751cb8f9af4c608e534ee6894" target="_top" xlink:title="Initialises default prediction parameters.">
<polygon fill="none" stroke="black" points="481,-68.5 481,-87.5 588,-87.5 588,-68.5 481,-68.5"/>
<text text-anchor="middle" x="534.5" y="-75.5" font-family="Helvetica,sans-Serif" font-size="10.00">pred_param_defaults</text>
</a>
</g>
</g>
<!-- Node1&#45;&gt;Node8 -->
<g id="edge7" class="edge">
<title>Node1&#45;&gt;Node8</title>
<path fill="none" stroke="midnightblue" d="M638.14,-109.47C615.39,-102.5 587.53,-93.95 566.58,-87.53"/>
<polygon fill="midnightblue" stroke="midnightblue" points="637.28,-112.87 647.86,-112.45 639.33,-106.17 637.28,-112.87"/>
</g>
<!-- Node15 -->
<g id="node15" class="node">
<title>Node15</title>
<g id="a_node15"><a xlink:href="pred__rls_8h.html#a4756fe786b86ecce9a4a9040daff97da" target="_top" xlink:title="Sets the RLS parameters from a cJSON object.">
<polygon fill="none" stroke="black" points="481,-107 481,-137 588,-137 588,-107 481,-107"/>
<text text-anchor="start" x="489" y="-125" font-family="Helvetica,sans-Serif" font-size="10.00">pred_rls_param_json</text>
<text text-anchor="middle" x="534.5" y="-114" font-family="Helvetica,sans-Serif" font-size="10.00">_import</text>
</a>
</g>
</g>
<!-- Node1&#45;&gt;Node15 -->
<g id="edge17" class="edge">
<title>Node1&#45;&gt;Node15</title>
<path fill="none" stroke="midnightblue" d="M618.51,-122C608.48,-122 598.16,-122 588.34,-122"/>
<polygon fill="midnightblue" stroke="midnightblue" points="618.81,-125.5 628.81,-122 618.81,-118.5 618.81,-125.5"/>
</g>
<!-- Node3 -->
<g id="node3" class="node">
<title>Node3</title>
<g id="a_node3"><a xlink:href="prediction_8h.html#a3da29e38981e8b98ec136766a79d074a" target="_top" xlink:title="Sets the prediction parameters from a cJSON object.">
<polygon fill="none" stroke="black" points="317,-156.5 317,-175.5 440,-175.5 440,-156.5 317,-156.5"/>
<text text-anchor="middle" x="378.5" y="-163.5" font-family="Helvetica,sans-Serif" font-size="10.00">pred_param_json_import</text>
</a>
</g>
</g>
<!-- Node2&#45;&gt;Node3 -->
<g id="edge2" class="edge">
<title>Node2&#45;&gt;Node3</title>
<path fill="none" stroke="midnightblue" d="M465.52,-168.79C457.08,-168.52 448.5,-168.24 440.18,-167.97"/>
<polygon fill="midnightblue" stroke="midnightblue" points="465.61,-172.3 475.72,-169.12 465.84,-165.3 465.61,-172.3"/>
</g>
<!-- Node4 -->
<g id="node4" class="node">
<title>Node4</title>
<g id="a_node4"><a xlink:href="param_8h.html#a130260988988535419aee8abe51986c1" target="_top" xlink:title="Sets the parameters from a json formatted string.">
<polygon fill="none" stroke="black" points="179.5,-190.5 179.5,-209.5 278.5,-209.5 278.5,-190.5 179.5,-190.5"/>
<text text-anchor="middle" x="229" y="-197.5" font-family="Helvetica,sans-Serif" font-size="10.00">param_json_import</text>
</a>
</g>
</g>
<!-- Node3&#45;&gt;Node4 -->
<g id="edge3" class="edge">
<title>Node3&#45;&gt;Node4</title>
<path fill="none" stroke="midnightblue" d="M325.79,-177.92C307.99,-182.02 288.3,-186.56 271.42,-190.45"/>
<polygon fill="midnightblue" stroke="midnightblue" points="327.06,-181.22 336.02,-175.56 325.49,-174.4 327.06,-181.22"/>
</g>
<!-- Node7 -->
<g id="node7" class="node">
<title>Node7</title>
<g id="a_node7"><a xlink:href="classXCS.html#a76f72805cdd38df46ecbc8bd8a592376" target="_top" xlink:title="Sets the prediction type and initialisation arguments.">
<polygon fill="none" stroke="black" points="177,-152.5 177,-171.5 281,-171.5 281,-152.5 177,-152.5"/>
<text text-anchor="middle" x="229" y="-159.5" font-family="Helvetica,sans-Serif" font-size="10.00">XCS::set_prediction</text>
</a>
</g>
</g>
<!-- Node3&#45;&gt;Node7 -->
<g id="edge6" class="edge">
<title>Node3&#45;&gt;Node7</title>
<path fill="none" stroke="midnightblue" d="M306.39,-164.07C297.93,-163.84 289.42,-163.61 281.31,-163.39"/>
<polygon fill="midnightblue" stroke="midnightblue" points="306.56,-167.58 316.65,-164.35 306.75,-160.58 306.56,-167.58"/>
</g>
<!-- Node5 -->
<g id="node5" class="node">
<title>Node5</title>
<g id="a_node5"><a xlink:href="config_8h.html#a045a64a30d99a4bef2ebfd9b54aa9698" target="_top" xlink:title="Reads the specified configuration file.">
<polygon fill="none" stroke="black" points="74,-161.5 74,-180.5 141,-180.5 141,-161.5 74,-161.5"/>
<text text-anchor="middle" x="107.5" y="-168.5" font-family="Helvetica,sans-Serif" font-size="10.00">config_read</text>
</a>
</g>
</g>
<!-- Node4&#45;&gt;Node5 -->
<g id="edge4" class="edge">
<title>Node4&#45;&gt;Node5</title>
<path fill="none" stroke="midnightblue" d="M178.59,-188.01C165.96,-184.94 152.69,-181.72 141.14,-178.92"/>
<polygon fill="midnightblue" stroke="midnightblue" points="178,-191.47 188.54,-190.42 179.65,-184.66 178,-191.47"/>
</g>
<!-- Node6 -->
<g id="node6" class="node">
<title>Node6</title>
<g id="a_node6"><a xlink:href="main_8c.html#a3c04138a5bfe5d72780bb7e82a18e627" target="_top" xlink:title=" ">
<polygon fill="none" stroke="black" points="0,-114.5 0,-133.5 38,-133.5 38,-114.5 0,-114.5"/>
<text text-anchor="middle" x="19" y="-121.5" font-family="Helvetica,sans-Serif" font-size="10.00">main</text>
</a>
</g>
</g>
<!-- Node5&#45;&gt;Node6 -->
<g id="edge5" class="edge">
<title>Node5&#45;&gt;Node6</title>
<path fill="none" stroke="midnightblue" d="M80.02,-156.61C66.31,-149.16 49.95,-140.27 37.78,-133.66"/>
<polygon fill="midnightblue" stroke="midnightblue" points="78.54,-159.79 89,-161.49 81.88,-153.64 78.54,-159.79"/>
</g>
<!-- Node9 -->
<g id="node9" class="node">
<title>Node9</title>
<g id="a_node9"><a xlink:href="param_8h.html#ac8218a170803be0bcd974764e7494b0e" target="_top" xlink:title="Initialises default XCSF parameters.">
<polygon fill="none" stroke="black" points="347.5,-68.5 347.5,-87.5 409.5,-87.5 409.5,-68.5 347.5,-68.5"/>
<text text-anchor="middle" x="378.5" y="-75.5" font-family="Helvetica,sans-Serif" font-size="10.00">param_init</text>
</a>
</g>
</g>
<!-- Node8&#45;&gt;Node9 -->
<g id="edge8" class="edge">
<title>Node8&#45;&gt;Node9</title>
<path fill="none" stroke="midnightblue" d="M470.76,-78C449.73,-78 427.24,-78 409.85,-78"/>
<polygon fill="midnightblue" stroke="midnightblue" points="470.93,-81.5 480.93,-78 470.93,-74.5 470.93,-81.5"/>
</g>
<!-- Node10 -->
<g id="node10" class="node">
<title>Node10</title>
<g id="a_node10"><a xlink:href="env__csv_8h.html#ab26a39a388f0ac83b9ac14726ad14b16" target="_top" xlink:title="Initialises a CSV input environment from a specified filename.">
<polygon fill="none" stroke="black" points="193.5,-114.5 193.5,-133.5 264.5,-133.5 264.5,-114.5 193.5,-114.5"/>
<text text-anchor="middle" x="229" y="-121.5" font-family="Helvetica,sans-Serif" font-size="10.00">env_csv_init</text>
</a>
</g>
</g>
<!-- Node9&#45;&gt;Node10 -->
<g id="edge9" class="edge">
<title>Node9&#45;&gt;Node10</title>
<path fill="none" stroke="midnightblue" d="M337.68,-90.42C313.46,-97.97 283.01,-107.47 260.67,-114.43"/>
<polygon fill="midnightblue" stroke="midnightblue" points="338.79,-93.74 347.3,-87.42 336.71,-87.06 338.79,-93.74"/>
</g>
<!-- Node12 -->
<g id="node12" class="node">
<title>Node12</title>
<g id="a_node12"><a xlink:href="env__maze_8h.html#acad3cc6e9fe2b7e07e878f1f517ad3a6" target="_top" xlink:title="Initialises a maze environment from a specified file.">
<polygon fill="none" stroke="black" points="189,-76.5 189,-95.5 269,-95.5 269,-76.5 189,-76.5"/>
<text text-anchor="middle" x="229" y="-83.5" font-family="Helvetica,sans-Serif" font-size="10.00">env_maze_init</text>
</a>
</g>
</g>
<!-- Node9&#45;&gt;Node12 -->
<g id="edge12" class="edge">
<title>Node9&#45;&gt;Node12</title>
<path fill="none" stroke="midnightblue" d="M337.3,-80.18C316.1,-81.33 290.18,-82.74 269.14,-83.88"/>
<polygon fill="midnightblue" stroke="midnightblue" points="337.5,-83.67 347.3,-79.64 337.12,-76.69 337.5,-83.67"/>
</g>
<!-- Node13 -->
<g id="node13" class="node">
<title>Node13</title>
<g id="a_node13"><a xlink:href="env__mux_8h.html#acc5dab817235c6910ba43b9dc4158ccd" target="_top" xlink:title="Initialises a real multiplexer environment of specified length.">
<polygon fill="none" stroke="black" points="192,-38.5 192,-57.5 266,-57.5 266,-38.5 192,-38.5"/>
<text text-anchor="middle" x="229" y="-45.5" font-family="Helvetica,sans-Serif" font-size="10.00">env_mux_init</text>
</a>
</g>
</g>
<!-- Node9&#45;&gt;Node13 -->
<g id="edge14" class="edge">
<title>Node9&#45;&gt;Node13</title>
<path fill="none" stroke="midnightblue" d="M337.48,-69.86C315.23,-65.33 287.76,-59.75 266.16,-55.35"/>
<polygon fill="midnightblue" stroke="midnightblue" points="336.8,-73.29 347.3,-71.86 338.19,-66.43 336.8,-73.29"/>
</g>
<!-- Node14 -->
<g id="node14" class="node">
<title>Node14</title>
<g id="a_node14"><a xlink:href="classXCS.html#af1010afd63843f86ad1dd81fade9bd72" target="_top" xlink:title="Constructor.">
<polygon fill="none" stroke="black" points="196.5,-0.5 196.5,-19.5 261.5,-19.5 261.5,-0.5 196.5,-0.5"/>
<text text-anchor="middle" x="229" y="-7.5" font-family="Helvetica,sans-Serif" font-size="10.00">XCS::XCS</text>
</a>
</g>
</g>
<!-- Node9&#45;&gt;Node14 -->
<g id="edge16" class="edge">
<title>Node9&#45;&gt;Node14</title>
<path fill="none" stroke="midnightblue" d="M350.98,-63.51C331.81,-53.29 305.14,-39.59 281,-29 273.47,-25.7 265.17,-22.45 257.49,-19.59"/>
<polygon fill="midnightblue" stroke="midnightblue" points="349.54,-66.71 360,-68.36 352.85,-60.54 349.54,-66.71"/>
</g>
<!-- Node11 -->
<g id="node11" class="node">
<title>Node11</title>
<g id="a_node11"><a xlink:href="env_8h.html#a9213fcf5fc422d6a77bce853b1d78dc9" target="_top" xlink:title="Initialises a built&#45;in problem environment.">
<polygon fill="none" stroke="black" points="82.5,-95.5 82.5,-114.5 132.5,-114.5 132.5,-95.5 82.5,-95.5"/>
<text text-anchor="middle" x="107.5" y="-102.5" font-family="Helvetica,sans-Serif" font-size="10.00">env_init</text>
</a>
</g>
</g>
<!-- Node10&#45;&gt;Node11 -->
<g id="edge10" class="edge">
<title>Node10&#45;&gt;Node11</title>
<path fill="none" stroke="midnightblue" d="M183.08,-116.86C166.01,-114.14 147.21,-111.15 132.75,-108.86"/>
<polygon fill="midnightblue" stroke="midnightblue" points="183.01,-120.39 193.44,-118.5 184.11,-113.48 183.01,-120.39"/>
</g>
<!-- Node11&#45;&gt;Node6 -->
<g id="edge11" class="edge">
<title>Node11&#45;&gt;Node6</title>
<path fill="none" stroke="midnightblue" d="M72.47,-112.48C60.78,-115.04 48.14,-117.82 38.21,-120"/>
<polygon fill="midnightblue" stroke="midnightblue" points="73.39,-115.86 82.4,-110.29 71.89,-109.02 73.39,-115.86"/>
</g>
<!-- Node12&#45;&gt;Node11 -->
<g id="edge13" class="edge">
<title>Node12&#45;&gt;Node11</title>
<path fill="none" stroke="midnightblue" d="M178.65,-93.85C162.8,-96.37 145.94,-99.05 132.72,-101.15"/>
<polygon fill="midnightblue" stroke="midnightblue" points="179.54,-97.25 188.87,-92.22 178.45,-90.34 179.54,-97.25"/>
</g>
<!-- Node13&#45;&gt;Node11 -->
<g id="edge15" class="edge">
<title>Node13&#45;&gt;Node11</title>
<path fill="none" stroke="midnightblue" d="M190.7,-61.15C186.05,-63.01 181.38,-64.98 177,-67 158.35,-75.59 137.87,-87.27 124.2,-95.4"/>
<polygon fill="midnightblue" stroke="midnightblue" points="192.09,-64.37 200.16,-57.51 189.57,-57.84 192.09,-64.37"/>
</g>
<!-- Node15&#45;&gt;Node3 -->
<g id="edge18" class="edge">
<title>Node15&#45;&gt;Node3</title>
<path fill="none" stroke="midnightblue" d="M471.29,-139.77C451.37,-145.47 430.08,-151.55 413.02,-156.42"/>
<polygon fill="midnightblue" stroke="midnightblue" points="472.28,-143.13 480.93,-137.02 470.36,-136.4 472.28,-143.13"/>
</g>
</g>
</svg>
