<?xml version="1.0" encoding="UTF-8" standalone="no"?>
<!DOCTYPE svg PUBLIC "-//W3C//DTD SVG 1.1//EN"
 "http://www.w3.org/Graphics/SVG/1.1/DTD/svg11.dtd">
<!-- Generated by graphviz version 2.43.0 (0)
 -->
<!-- Title: prediction.h Pages: 1 -->
<svg width="772pt" height="140pt"
 viewBox="0.00 0.00 772.00 140.00" xmlns="http://www.w3.org/2000/svg" xmlns:xlink="http://www.w3.org/1999/xlink">
<g id="graph0" class="graph" transform="scale(1 1) rotate(0) translate(4 136)">
<title>prediction.h</title>
<!-- Node1 -->
<g id="node1" class="node">
<title>Node1</title>
<g id="a_node1"><a xlink:title="Interface for classifier predictions.">
<polygon fill="#bfbfbf" stroke="black" points="357,-112.5 357,-131.5 424,-131.5 424,-112.5 357,-112.5"/>
<text text-anchor="middle" x="390.5" y="-119.5" font-family="Helvetica,sans-Serif" font-size="10.00">prediction.h</text>
</a>
</g>
</g>
<!-- Node2 -->
<g id="node2" class="node">
<title>Node2</title>
<g id="a_node2"><a xlink:href="cl_8c.html" target="_top" xlink:title="Functions operating on classifiers.">
<polygon fill="none" stroke="black" points="69.5,-56.5 69.5,-75.5 101.5,-75.5 101.5,-56.5 69.5,-56.5"/>
<text text-anchor="middle" x="85.5" y="-63.5" font-family="Helvetica,sans-Serif" font-size="10.00">cl.c</text>
</a>
</g>
</g>
<!-- Node1&#45;&gt;Node2 -->
<g id="edge1" class="edge">
<title>Node1&#45;&gt;Node2</title>
<path fill="none" stroke="midnightblue" d="M346.77,-115.62C292.23,-108.51 196.32,-94.65 115.5,-76 110.94,-74.95 106.06,-73.59 101.59,-72.24"/>
<polygon fill="midnightblue" stroke="midnightblue" points="346.42,-119.1 356.78,-116.91 347.31,-112.16 346.42,-119.1"/>
</g>
<!-- Node3 -->
<g id="node3" class="node">
<title>Node3</title>
<g id="a_node3"><a xlink:href="pred__neural_8h.html" target="_top" xlink:title="Multi&#45;layer perceptron neural network prediction functions.">
<polygon fill="none" stroke="black" points="158,-56.5 158,-75.5 233,-75.5 233,-56.5 158,-56.5"/>
<text text-anchor="middle" x="195.5" y="-63.5" font-family="Helvetica,sans-Serif" font-size="10.00">pred_neural.h</text>
</a>
</g>
</g>
<!-- Node1&#45;&gt;Node3 -->
<g id="edge2" class="edge">
<title>Node1&#45;&gt;Node3</title>
<path fill="none" stroke="midnightblue" d="M349.69,-109.7C312.89,-99.51 259.57,-84.74 226.25,-75.52"/>
<polygon fill="midnightblue" stroke="midnightblue" points="349.03,-113.15 359.6,-112.44 350.9,-106.4 349.03,-113.15"/>
</g>
<!-- Node4 -->
<g id="node4" class="node">
<title>Node4</title>
<g id="a_node4"><a xlink:href="clset__neural_8c.html" target="_top" xlink:title="Functions operating on sets of neural classifiers.">
<polygon fill="none" stroke="black" points="0,-0.5 0,-19.5 77,-19.5 77,-0.5 0,-0.5"/>
<text text-anchor="middle" x="38.5" y="-7.5" font-family="Helvetica,sans-Serif" font-size="10.00">clset_neural.c</text>
</a>
</g>
</g>
<!-- Node1&#45;&gt;Node4 -->
<g id="edge7" class="edge">
<title>Node1&#45;&gt;Node4</title>
<path fill="none" stroke="midnightblue" d="M346.59,-117.48C297.13,-112.46 214.99,-100.94 148.5,-76 138.37,-72.2 79.85,-36.48 52.54,-19.67"/>
<polygon fill="midnightblue" stroke="midnightblue" points="346.34,-120.97 356.63,-118.45 347.01,-114 346.34,-120.97"/>
</g>
<!-- Node8 -->
<g id="node8" class="node">
<title>Node8</title>
<g id="a_node8"><a xlink:href="config_8c.html" target="_top" xlink:title="Configuration file handling functions.">
<polygon fill="none" stroke="black" points="521,-56.5 521,-75.5 572,-75.5 572,-56.5 521,-56.5"/>
<text text-anchor="middle" x="546.5" y="-63.5" font-family="Helvetica,sans-Serif" font-size="10.00">config.c</text>
</a>
</g>
</g>
<!-- Node1&#45;&gt;Node8 -->
<g id="edge8" class="edge">
<title>Node1&#45;&gt;Node8</title>
<path fill="none" stroke="midnightblue" d="M424.67,-109.17C454.04,-99 495.7,-84.59 521.9,-75.52"/>
<polygon fill="midnightblue" stroke="midnightblue" points="423.52,-105.86 415.22,-112.44 425.81,-112.48 423.52,-105.86"/>
</g>
<!-- Node9 -->
<g id="node9" class="node">
<title>Node9</title>
<g id="a_node9"><a xlink:href="param_8c.html" target="_top" xlink:title="Functions for setting and printing parameters.">
<polygon fill="none" stroke="black" points="590.5,-56.5 590.5,-75.5 642.5,-75.5 642.5,-56.5 590.5,-56.5"/>
<text text-anchor="middle" x="616.5" y="-63.5" font-family="Helvetica,sans-Serif" font-size="10.00">param.c</text>
</a>
</g>
</g>
<!-- Node1&#45;&gt;Node9 -->
<g id="edge9" class="edge">
<title>Node1&#45;&gt;Node9</title>
<path fill="none" stroke="midnightblue" d="M433.92,-111.03C472.67,-102.08 530.94,-88.45 581.5,-76 584.3,-75.31 587.23,-74.58 590.14,-73.84"/>
<polygon fill="midnightblue" stroke="midnightblue" points="432.97,-107.66 424.02,-113.32 434.55,-114.48 432.97,-107.66"/>
</g>
<!-- Node10 -->
<g id="node10" class="node">
<title>Node10</title>
<g id="a_node10"><a xlink:href="pred__constant_8h.html" target="_top" xlink:title="Piece&#45;wise constant prediction functions.">
<polygon fill="none" stroke="black" points="251.5,-56.5 251.5,-75.5 337.5,-75.5 337.5,-56.5 251.5,-56.5"/>
<text text-anchor="middle" x="294.5" y="-63.5" font-family="Helvetica,sans-Serif" font-size="10.00">pred_constant.h</text>
</a>
</g>
</g>
<!-- Node1&#45;&gt;Node10 -->
<g id="edge10" class="edge">
<title>Node1&#45;&gt;Node10</title>
<path fill="none" stroke="midnightblue" d="M365.93,-107.18C348.26,-97.24 324.99,-84.15 309.89,-75.65"/>
<polygon fill="midnightblue" stroke="midnightblue" points="364.64,-110.47 375.08,-112.32 368.08,-104.37 364.64,-110.47"/>
</g>
<!-- Node12 -->
<g id="node12" class="node">
<title>Node12</title>
<g id="a_node12"><a xlink:href="pred__nlms_8h.html" target="_top" xlink:title="Normalised least mean squares prediction functions.">
<polygon fill="none" stroke="black" points="355.5,-56.5 355.5,-75.5 425.5,-75.5 425.5,-56.5 355.5,-56.5"/>
<text text-anchor="middle" x="390.5" y="-63.5" font-family="Helvetica,sans-Serif" font-size="10.00">pred_nlms.h</text>
</a>
</g>
</g>
<!-- Node1&#45;&gt;Node12 -->
<g id="edge13" class="edge">
<title>Node1&#45;&gt;Node12</title>
<path fill="none" stroke="midnightblue" d="M390.5,-101.8C390.5,-92.91 390.5,-82.78 390.5,-75.75"/>
<polygon fill="midnightblue" stroke="midnightblue" points="387,-102.08 390.5,-112.08 394,-102.08 387,-102.08"/>
</g>
<!-- Node14 -->
<g id="node14" class="node">
<title>Node14</title>
<g id="a_node14"><a xlink:href="pred__rls_8h.html" target="_top" xlink:title="Recursive least mean squares prediction functions.">
<polygon fill="none" stroke="black" points="444,-56.5 444,-75.5 503,-75.5 503,-56.5 444,-56.5"/>
<text text-anchor="middle" x="473.5" y="-63.5" font-family="Helvetica,sans-Serif" font-size="10.00">pred_rls.h</text>
</a>
</g>
</g>
<!-- Node1&#45;&gt;Node14 -->
<g id="edge16" class="edge">
<title>Node1&#45;&gt;Node14</title>
<path fill="none" stroke="midnightblue" d="M412.6,-106.62C427.76,-96.76 447.38,-83.99 460.2,-75.65"/>
<polygon fill="midnightblue" stroke="midnightblue" points="410.31,-103.94 403.84,-112.32 414.13,-109.8 410.31,-103.94"/>
</g>
<!-- Node16 -->
<g id="node16" class="node">
<title>Node16</title>
<g id="a_node16"><a xlink:href="pybind__wrapper_8cpp.html" target="_top" xlink:title="Python library wrapper functions.">
<polygon fill="none" stroke="black" points="661,-56.5 661,-75.5 764,-75.5 764,-56.5 661,-56.5"/>
<text text-anchor="middle" x="712.5" y="-63.5" font-family="Helvetica,sans-Serif" font-size="10.00">pybind_wrapper.cpp</text>
</a>
</g>
</g>
<!-- Node1&#45;&gt;Node16 -->
<g id="edge19" class="edge">
<title>Node1&#45;&gt;Node16</title>
<path fill="none" stroke="midnightblue" d="M434.19,-113.67C493.41,-103.74 598.94,-86.04 661.64,-75.53"/>
<polygon fill="midnightblue" stroke="midnightblue" points="433.33,-110.27 424.05,-115.37 434.49,-117.17 433.33,-110.27"/>
</g>
<!-- Node3&#45;&gt;Node4 -->
<g id="edge3" class="edge">
<title>Node3&#45;&gt;Node4</title>
<path fill="none" stroke="midnightblue" d="M161.11,-53.17C131.55,-43 89.63,-28.59 63.26,-19.52"/>
<polygon fill="midnightblue" stroke="midnightblue" points="160.03,-56.5 170.62,-56.44 162.3,-49.88 160.03,-56.5"/>
</g>
<!-- Node5 -->
<g id="node5" class="node">
<title>Node5</title>
<g id="a_node5"><a xlink:href="pred__neural_8c.html" target="_top" xlink:title="Multi&#45;layer perceptron neural network prediction functions.">
<polygon fill="none" stroke="black" points="158,-0.5 158,-19.5 233,-19.5 233,-0.5 158,-0.5"/>
<text text-anchor="middle" x="195.5" y="-7.5" font-family="Helvetica,sans-Serif" font-size="10.00">pred_neural.c</text>
</a>
</g>
</g>
<!-- Node3&#45;&gt;Node5 -->
<g id="edge4" class="edge">
<title>Node3&#45;&gt;Node5</title>
<path fill="none" stroke="midnightblue" d="M195.5,-45.8C195.5,-36.91 195.5,-26.78 195.5,-19.75"/>
<polygon fill="midnightblue" stroke="midnightblue" points="192,-46.08 195.5,-56.08 199,-46.08 192,-46.08"/>
</g>
<!-- Node6 -->
<g id="node6" class="node">
<title>Node6</title>
<g id="a_node6"><a xlink:href="prediction_8c.html" target="_top" xlink:title="Interface for classifier predictions.">
<polygon fill="none" stroke="black" points="356,-0.5 356,-19.5 423,-19.5 423,-0.5 356,-0.5"/>
<text text-anchor="middle" x="389.5" y="-7.5" font-family="Helvetica,sans-Serif" font-size="10.00">prediction.c</text>
</a>
</g>
</g>
<!-- Node3&#45;&gt;Node6 -->
<g id="edge5" class="edge">
<title>Node3&#45;&gt;Node6</title>
<path fill="none" stroke="midnightblue" d="M236.1,-53.7C272.72,-43.51 325.76,-28.74 358.9,-19.52"/>
<polygon fill="midnightblue" stroke="midnightblue" points="234.94,-50.39 226.24,-56.44 236.81,-57.13 234.94,-50.39"/>
</g>
<!-- Node7 -->
<g id="node7" class="node">
<title>Node7</title>
<g id="a_node7"><a xlink:href="xcsf_8c.html" target="_top" xlink:title="System&#45;level functions for initialising, saving, loading, etc.">
<polygon fill="none" stroke="black" points="95.5,-0.5 95.5,-19.5 139.5,-19.5 139.5,-0.5 95.5,-0.5"/>
<text text-anchor="middle" x="117.5" y="-7.5" font-family="Helvetica,sans-Serif" font-size="10.00">xcsf.c</text>
</a>
</g>
</g>
<!-- Node3&#45;&gt;Node7 -->
<g id="edge6" class="edge">
<title>Node3&#45;&gt;Node7</title>
<path fill="none" stroke="midnightblue" d="M174.73,-50.62C160.48,-40.76 142.04,-27.99 130,-19.65"/>
<polygon fill="midnightblue" stroke="midnightblue" points="172.75,-53.51 182.97,-56.32 176.74,-47.75 172.75,-53.51"/>
</g>
<!-- Node10&#45;&gt;Node6 -->
<g id="edge12" class="edge">
<title>Node10&#45;&gt;Node6</title>
<path fill="none" stroke="midnightblue" d="M318.82,-51.18C336.3,-41.24 359.33,-28.15 374.27,-19.65"/>
<polygon fill="midnightblue" stroke="midnightblue" points="316.73,-48.34 309.76,-56.32 320.19,-54.43 316.73,-48.34"/>
</g>
<!-- Node11 -->
<g id="node11" class="node">
<title>Node11</title>
<g id="a_node11"><a xlink:href="pred__constant_8c.html" target="_top" xlink:title="Piece&#45;wise constant prediction functions.">
<polygon fill="none" stroke="black" points="251.5,-0.5 251.5,-19.5 337.5,-19.5 337.5,-0.5 251.5,-0.5"/>
<text text-anchor="middle" x="294.5" y="-7.5" font-family="Helvetica,sans-Serif" font-size="10.00">pred_constant.c</text>
</a>
</g>
</g>
<!-- Node10&#45;&gt;Node11 -->
<g id="edge11" class="edge">
<title>Node10&#45;&gt;Node11</title>
<path fill="none" stroke="midnightblue" d="M294.5,-45.8C294.5,-36.91 294.5,-26.78 294.5,-19.75"/>
<polygon fill="midnightblue" stroke="midnightblue" points="291,-46.08 294.5,-56.08 298,-46.08 291,-46.08"/>
</g>
<!-- Node12&#45;&gt;Node6 -->
<g id="edge15" class="edge">
<title>Node12&#45;&gt;Node6</title>
<path fill="none" stroke="midnightblue" d="M390.14,-45.8C389.98,-36.91 389.79,-26.78 389.66,-19.75"/>
<polygon fill="midnightblue" stroke="midnightblue" points="386.65,-46.15 390.33,-56.08 393.65,-46.02 386.65,-46.15"/>
</g>
<!-- Node13 -->
<g id="node13" class="node">
<title>Node13</title>
<g id="a_node13"><a xlink:href="pred__nlms_8c.html" target="_top" xlink:title="Normalised least mean squares prediction functions.">
<polygon fill="none" stroke="black" points="441.5,-0.5 441.5,-19.5 511.5,-19.5 511.5,-0.5 441.5,-0.5"/>
<text text-anchor="middle" x="476.5" y="-7.5" font-family="Helvetica,sans-Serif" font-size="10.00">pred_nlms.c</text>
</a>
</g>
</g>
<!-- Node12&#45;&gt;Node13 -->
<g id="edge14" class="edge">
<title>Node12&#45;&gt;Node13</title>
<path fill="none" stroke="midnightblue" d="M412.95,-50.9C428.72,-41 449.31,-28.07 462.72,-19.65"/>
<polygon fill="midnightblue" stroke="midnightblue" points="410.93,-48.04 404.32,-56.32 414.65,-53.97 410.93,-48.04"/>
</g>
<!-- Node14&#45;&gt;Node6 -->
<g id="edge18" class="edge">
<title>Node14&#45;&gt;Node6</title>
<path fill="none" stroke="midnightblue" d="M451.57,-50.9C436.16,-41 416.05,-28.07 402.96,-19.65"/>
<polygon fill="midnightblue" stroke="midnightblue" points="449.7,-53.86 460,-56.32 453.48,-47.97 449.7,-53.86"/>
</g>
<!-- Node15 -->
<g id="node15" class="node">
<title>Node15</title>
<g id="a_node15"><a xlink:href="pred__rls_8c.html" target="_top" xlink:title="Recursive least mean squares prediction functions.">
<polygon fill="none" stroke="black" points="530,-0.5 530,-19.5 589,-19.5 589,-0.5 530,-0.5"/>
<text text-anchor="middle" x="559.5" y="-7.5" font-family="Helvetica,sans-Serif" font-size="10.00">pred_rls.c</text>
</a>
</g>
</g>
<!-- Node14&#45;&gt;Node15 -->
<g id="edge17" class="edge">
<title>Node14&#45;&gt;Node15</title>
<path fill="none" stroke="midnightblue" d="M495.95,-50.9C511.72,-41 532.31,-28.07 545.72,-19.65"/>
<polygon fill="midnightblue" stroke="midnightblue" points="493.93,-48.04 487.32,-56.32 497.65,-53.97 493.93,-48.04"/>
</g>
</g>
</svg>
