<?xml version="1.0" encoding="UTF-8" standalone="no"?>
<!DOCTYPE svg PUBLIC "-//W3C//DTD SVG 1.1//EN"
 "http://www.w3.org/Graphics/SVG/1.1/DTD/svg11.dtd">
<!-- Generated by graphviz version 2.43.0 (0)
 -->
<!-- Title: pred_nlms.h Pages: 1 -->
<svg width="164pt" height="82pt"
 viewBox="0.00 0.00 163.50 82.00" xmlns="http://www.w3.org/2000/svg" xmlns:xlink="http://www.w3.org/1999/xlink">
<g id="graph0" class="graph" transform="scale(1 1) rotate(0) translate(4 78)">
<title>pred_nlms.h</title>
<!-- Node1 -->
<g id="Node000001" class="node">
<title>Node1</title>
<g id="a_Node000001"><a xlink:title="Normalised least mean squares prediction functions.">
<polygon fill="#999999" stroke="#666666" points="113,-74 43,-74 43,-55 113,-55 113,-74"/>
<text text-anchor="middle" x="78" y="-62" font-family="Helvetica,sans-Serif" font-size="10.00">pred_nlms.h</text>
</a>
</g>
</g>
<!-- Node2 -->
<g id="Node000002" class="node">
<title>Node2</title>
<g id="a_Node000002"><a xlink:href="pred__nlms_8c.html" target="_top" xlink:title="Normalised least mean squares prediction functions.">
<polygon fill="white" stroke="#666666" points="70,-19 0,-19 0,0 70,0 70,-19"/>
<text text-anchor="middle" x="35" y="-7" font-family="Helvetica,sans-Serif" font-size="10.00">pred_nlms.c</text>
</a>
</g>
</g>
<!-- Node1&#45;&gt;Node2 -->
<g id="edge1_Node000001_Node000002" class="edge">
<title>Node1&#45;&gt;Node2</title>
<g id="a_edge1_Node000001_Node000002"><a xlink:title=" ">
<path fill="none" stroke="#63b8ff" d="M64.58,-46.96C57.09,-37.72 48.06,-26.6 41.97,-19.09"/>
<polygon fill="#63b8ff" stroke="#63b8ff" points="61.88,-49.19 70.9,-54.75 67.32,-44.78 61.88,-49.19"/>
</a>
</g>
</g>
<!-- Node3 -->
<g id="Node000003" class="node">
<title>Node3</title>
<g id="a_Node000003"><a xlink:href="prediction_8c.html" target="_top" xlink:title="Interface for classifier predictions.">
<polygon fill="white" stroke="#666666" points="155.5,-19 88.5,-19 88.5,0 155.5,0 155.5,-19"/>
<text text-anchor="middle" x="122" y="-7" font-family="Helvetica,sans-Serif" font-size="10.00">prediction.c</text>
</a>
</g>
</g>
<!-- Node1&#45;&gt;Node3 -->
<g id="edge2_Node000001_Node000003" class="edge">
<title>Node1&#45;&gt;Node3</title>
<g id="a_edge2_Node000001_Node000003"><a xlink:title=" ">
<path fill="none" stroke="#63b8ff" d="M91.73,-46.96C99.4,-37.72 108.63,-26.6 114.87,-19.09"/>
<polygon fill="#63b8ff" stroke="#63b8ff" points="88.96,-44.82 85.27,-54.75 94.35,-49.29 88.96,-44.82"/>
</a>
</g>
</g>
</g>
</svg>
