<?xml version="1.0" encoding="UTF-8" standalone="no"?>
<!DOCTYPE svg PUBLIC "-//W3C//DTD SVG 1.1//EN"
 "http://www.w3.org/Graphics/SVG/1.1/DTD/svg11.dtd">
<!-- Generated by graphviz version 2.43.0 (0)
 -->
<!-- Title: pred_constant.h Pages: 1 -->
<svg width="873pt" height="247pt"
 viewBox="0.00 0.00 873.00 247.00" xmlns="http://www.w3.org/2000/svg" xmlns:xlink="http://www.w3.org/1999/xlink">
<g id="graph0" class="graph" transform="scale(1 1) rotate(0) translate(4 243)">
<title>pred_constant.h</title>
<!-- Node1 -->
<g id="Node000001" class="node">
<title>Node1</title>
<g id="a_Node000001"><a xlink:title="Piece&#45;wise constant prediction functions.">
<polygon fill="#999999" stroke="#666666" points="543.5,-239 457.5,-239 457.5,-220 543.5,-220 543.5,-239"/>
<text text-anchor="middle" x="500.5" y="-227" font-family="Helvetica,sans-Serif" font-size="10.00">pred_constant.h</text>
</a>
</g>
</g>
<!-- Node2 -->
<g id="Node000002" class="node">
<title>Node2</title>
<g id="a_Node000002"><a xlink:href="prediction_8h.html" target="_top" xlink:title="Interface for classifier predictions.">
<polygon fill="white" stroke="#666666" points="565,-184 498,-184 498,-165 565,-165 565,-184"/>
<text text-anchor="middle" x="531.5" y="-172" font-family="Helvetica,sans-Serif" font-size="10.00">prediction.h</text>
</a>
</g>
</g>
<!-- Node1&#45;&gt;Node2 -->
<g id="edge1_Node000001_Node000002" class="edge">
<title>Node1&#45;&gt;Node2</title>
<g id="a_edge1_Node000001_Node000002"><a xlink:title=" ">
<path fill="none" stroke="#63b8ff" d="M505.62,-219.75C509.86,-212.49 516.03,-201.95 521.28,-192.98"/>
<polygon fill="#63b8ff" stroke="#63b8ff" points="524.45,-194.49 526.48,-184.09 518.41,-190.95 524.45,-194.49"/>
</a>
</g>
</g>
<!-- Node3 -->
<g id="Node000003" class="node">
<title>Node3</title>
<g id="a_Node000003"><a xlink:href="xcsf_8h.html" target="_top" xlink:title="XCSF data structures.">
<polygon fill="white" stroke="#666666" points="522.5,-129 478.5,-129 478.5,-110 522.5,-110 522.5,-129"/>
<text text-anchor="middle" x="500.5" y="-117" font-family="Helvetica,sans-Serif" font-size="10.00">xcsf.h</text>
</a>
</g>
</g>
<!-- Node1&#45;&gt;Node3 -->
<g id="edge20_Node000001_Node000003" class="edge">
<title>Node1&#45;&gt;Node3</title>
<g id="a_edge20_Node000001_Node000003"><a xlink:title=" ">
<path fill="none" stroke="#63b8ff" d="M497.41,-219.77C494.45,-210.9 490.18,-196.69 488.5,-184 486.47,-168.69 490.1,-151.48 493.88,-138.84"/>
<polygon fill="#63b8ff" stroke="#63b8ff" points="497.29,-139.67 497.11,-129.08 490.64,-137.48 497.29,-139.67"/>
</a>
</g>
</g>
<!-- Node2&#45;&gt;Node3 -->
<g id="edge2_Node000002_Node000003" class="edge">
<title>Node2&#45;&gt;Node3</title>
<g id="a_edge2_Node000002_Node000003"><a xlink:title=" ">
<path fill="none" stroke="#63b8ff" d="M526.38,-164.75C522.14,-157.49 515.97,-146.95 510.72,-137.98"/>
<polygon fill="#63b8ff" stroke="#63b8ff" points="513.59,-135.95 505.52,-129.09 507.55,-139.49 513.59,-135.95"/>
</a>
</g>
</g>
<!-- Node4 -->
<g id="Node000004" class="node">
<title>Node4</title>
<g id="a_Node000004"><a xlink:href="utils_8h.html" target="_top" xlink:title="Utility functions for random number handling, etc.">
<polygon fill="white" stroke="#666666" points="344,-74 301,-74 301,-55 344,-55 344,-74"/>
<text text-anchor="middle" x="322.5" y="-62" font-family="Helvetica,sans-Serif" font-size="10.00">utils.h</text>
</a>
</g>
</g>
<!-- Node3&#45;&gt;Node4 -->
<g id="edge3_Node000003_Node000004" class="edge">
<title>Node3&#45;&gt;Node4</title>
<g id="a_edge3_Node000003_Node000004"><a xlink:title=" ">
<path fill="none" stroke="#63b8ff" d="M478.32,-111.89C447.02,-102.58 389.74,-85.52 354.03,-74.89"/>
<polygon fill="#63b8ff" stroke="#63b8ff" points="354.71,-71.44 344.13,-71.94 352.71,-78.15 354.71,-71.44"/>
</a>
</g>
</g>
<!-- Node7 -->
<g id="Node000007" class="node">
<title>Node7</title>
<g id="a_Node000007"><a xlink:title=" ">
<polygon fill="#e0e0e0" stroke="#999999" points="47,-19 0,-19 0,0 47,0 47,-19"/>
<text text-anchor="middle" x="23.5" y="-7" font-family="Helvetica,sans-Serif" font-size="10.00">math.h</text>
</a>
</g>
</g>
<!-- Node3&#45;&gt;Node7 -->
<g id="edge14_Node000003_Node000007" class="edge">
<title>Node3&#45;&gt;Node7</title>
<g id="a_edge14_Node000003_Node000007"><a xlink:title=" ">
<path fill="none" stroke="#63b8ff" d="M478.2,-113.91C439.95,-105.99 359.38,-89.17 291.5,-74 189.88,-51.29 162.27,-44.97 57.02,-19.09"/>
<polygon fill="#63b8ff" stroke="#63b8ff" points="57.82,-15.68 47.28,-16.69 56.15,-22.48 57.82,-15.68"/>
</a>
</g>
</g>
<!-- Node8 -->
<g id="Node000008" class="node">
<title>Node8</title>
<g id="a_Node000008"><a xlink:title=" ">
<polygon fill="#e0e0e0" stroke="#999999" points="385.5,-19 329.5,-19 329.5,0 385.5,0 385.5,-19"/>
<text text-anchor="middle" x="357.5" y="-7" font-family="Helvetica,sans-Serif" font-size="10.00">stdbool.h</text>
</a>
</g>
</g>
<!-- Node3&#45;&gt;Node8 -->
<g id="edge15_Node000003_Node000008" class="edge">
<title>Node3&#45;&gt;Node8</title>
<g id="a_edge15_Node000003_Node000008"><a xlink:title=" ">
<path fill="none" stroke="#63b8ff" d="M488.8,-109.66C464.27,-91.14 407.25,-48.08 377.06,-25.28"/>
<polygon fill="#63b8ff" stroke="#63b8ff" points="379.05,-22.39 368.96,-19.16 374.83,-27.98 379.05,-22.39"/>
</a>
</g>
</g>
<!-- Node9 -->
<g id="Node000009" class="node">
<title>Node9</title>
<g id="a_Node000009"><a xlink:title=" ">
<polygon fill="#e0e0e0" stroke="#999999" points="449.5,-19 403.5,-19 403.5,0 449.5,0 449.5,-19"/>
<text text-anchor="middle" x="426.5" y="-7" font-family="Helvetica,sans-Serif" font-size="10.00">stdio.h</text>
</a>
</g>
</g>
<!-- Node3&#45;&gt;Node9 -->
<g id="edge17_Node000003_Node000009" class="edge">
<title>Node3&#45;&gt;Node9</title>
<g id="a_edge17_Node000003_Node000009"><a xlink:title=" ">
<path fill="none" stroke="#63b8ff" d="M492.11,-109.71C484.03,-101.02 471.71,-87.15 462.5,-74 452.17,-59.26 442.22,-41.33 435.41,-28.29"/>
<polygon fill="#63b8ff" stroke="#63b8ff" points="438.34,-26.34 430.67,-19.03 432.11,-29.52 438.34,-26.34"/>
</a>
</g>
</g>
<!-- Node10 -->
<g id="Node000010" class="node">
<title>Node10</title>
<g id="a_Node000010"><a xlink:title=" ">
<polygon fill="#e0e0e0" stroke="#999999" points="515.5,-19 467.5,-19 467.5,0 515.5,0 515.5,-19"/>
<text text-anchor="middle" x="491.5" y="-7" font-family="Helvetica,sans-Serif" font-size="10.00">stdlib.h</text>
</a>
</g>
</g>
<!-- Node3&#45;&gt;Node10 -->
<g id="edge18_Node000003_Node000010" class="edge">
<title>Node3&#45;&gt;Node10</title>
<g id="a_edge18_Node000003_Node000010"><a xlink:title=" ">
<path fill="none" stroke="#63b8ff" d="M491.48,-109.96C483.43,-101.66 472.21,-88.25 467.5,-74 462.21,-57.97 470.35,-40 478.55,-27.28"/>
<polygon fill="#63b8ff" stroke="#63b8ff" points="481.45,-29.24 484.34,-19.05 475.73,-25.21 481.45,-29.24"/>
</a>
</g>
</g>
<!-- Node11 -->
<g id="Node000011" class="node">
<title>Node11</title>
<g id="a_Node000011"><a xlink:title=" ">
<polygon fill="#e0e0e0" stroke="#999999" points="524,-74 477,-74 477,-55 524,-55 524,-74"/>
<text text-anchor="middle" x="500.5" y="-62" font-family="Helvetica,sans-Serif" font-size="10.00">errno.h</text>
</a>
</g>
</g>
<!-- Node3&#45;&gt;Node11 -->
<g id="edge10_Node000003_Node000011" class="edge">
<title>Node3&#45;&gt;Node11</title>
<g id="a_edge10_Node000003_Node000011"><a xlink:title=" ">
<path fill="none" stroke="#63b8ff" d="M500.5,-109.75C500.5,-102.8 500.5,-92.85 500.5,-84.13"/>
<polygon fill="#63b8ff" stroke="#63b8ff" points="504,-84.09 500.5,-74.09 497,-84.09 504,-84.09"/>
</a>
</g>
</g>
<!-- Node12 -->
<g id="Node000012" class="node">
<title>Node12</title>
<g id="a_Node000012"><a xlink:title=" ">
<polygon fill="#e0e0e0" stroke="#999999" points="586.5,-74 542.5,-74 542.5,-55 586.5,-55 586.5,-74"/>
<text text-anchor="middle" x="564.5" y="-62" font-family="Helvetica,sans-Serif" font-size="10.00">float.h</text>
</a>
</g>
</g>
<!-- Node3&#45;&gt;Node12 -->
<g id="edge11_Node000003_Node000012" class="edge">
<title>Node3&#45;&gt;Node12</title>
<g id="a_edge11_Node000003_Node000012"><a xlink:title=" ">
<path fill="none" stroke="#63b8ff" d="M510.78,-109.98C520.34,-102.07 534.78,-90.11 546.28,-80.58"/>
<polygon fill="#63b8ff" stroke="#63b8ff" points="548.56,-83.24 554.03,-74.17 544.1,-77.85 548.56,-83.24"/>
</a>
</g>
</g>
<!-- Node13 -->
<g id="Node000013" class="node">
<title>Node13</title>
<g id="a_Node000013"><a xlink:title=" ">
<polygon fill="#e0e0e0" stroke="#999999" points="664,-74 605,-74 605,-55 664,-55 664,-74"/>
<text text-anchor="middle" x="634.5" y="-62" font-family="Helvetica,sans-Serif" font-size="10.00">inttypes.h</text>
</a>
</g>
</g>
<!-- Node3&#45;&gt;Node13 -->
<g id="edge12_Node000003_Node000013" class="edge">
<title>Node3&#45;&gt;Node13</title>
<g id="a_edge12_Node000003_Node000013"><a xlink:title=" ">
<path fill="none" stroke="#63b8ff" d="M522.03,-109.98C543.97,-101.3 578.24,-87.75 603.19,-77.88"/>
<polygon fill="#63b8ff" stroke="#63b8ff" points="604.57,-81.1 612.58,-74.17 601.99,-74.59 604.57,-81.1"/>
</a>
</g>
</g>
<!-- Node14 -->
<g id="Node000014" class="node">
<title>Node14</title>
<g id="a_Node000014"><a xlink:title=" ">
<polygon fill="#e0e0e0" stroke="#999999" points="730.5,-74 682.5,-74 682.5,-55 730.5,-55 730.5,-74"/>
<text text-anchor="middle" x="706.5" y="-62" font-family="Helvetica,sans-Serif" font-size="10.00">limits.h</text>
</a>
</g>
</g>
<!-- Node3&#45;&gt;Node14 -->
<g id="edge13_Node000003_Node000014" class="edge">
<title>Node3&#45;&gt;Node14</title>
<g id="a_edge13_Node000003_Node000014"><a xlink:title=" ">
<path fill="none" stroke="#63b8ff" d="M522.62,-112.81C553.79,-104.8 612.65,-89.66 672.37,-74.29"/>
<polygon fill="#63b8ff" stroke="#63b8ff" points="673.54,-77.6 682.35,-71.72 671.79,-70.82 673.54,-77.6"/>
</a>
</g>
</g>
<!-- Node15 -->
<g id="Node000015" class="node">
<title>Node15</title>
<g id="a_Node000015"><a xlink:title=" ">
<polygon fill="#e0e0e0" stroke="#999999" points="798,-74 749,-74 749,-55 798,-55 798,-74"/>
<text text-anchor="middle" x="773.5" y="-62" font-family="Helvetica,sans-Serif" font-size="10.00">stdint.h</text>
</a>
</g>
</g>
<!-- Node3&#45;&gt;Node15 -->
<g id="edge16_Node000003_Node000015" class="edge">
<title>Node3&#45;&gt;Node15</title>
<g id="a_edge16_Node000003_Node000015"><a xlink:title=" ">
<path fill="none" stroke="#63b8ff" d="M522.67,-114.84C563.41,-108.01 653.13,-92.5 738.78,-74.04"/>
<polygon fill="#63b8ff" stroke="#63b8ff" points="739.63,-77.44 748.66,-71.9 738.14,-70.6 739.63,-77.44"/>
</a>
</g>
</g>
<!-- Node16 -->
<g id="Node000016" class="node">
<title>Node16</title>
<g id="a_Node000016"><a xlink:title=" ">
<polygon fill="#e0e0e0" stroke="#999999" points="865,-74 816,-74 816,-55 865,-55 865,-74"/>
<text text-anchor="middle" x="840.5" y="-62" font-family="Helvetica,sans-Serif" font-size="10.00">string.h</text>
</a>
</g>
</g>
<!-- Node3&#45;&gt;Node16 -->
<g id="edge19_Node000003_Node000016" class="edge">
<title>Node3&#45;&gt;Node16</title>
<g id="a_edge19_Node000003_Node000016"><a xlink:title=" ">
<path fill="none" stroke="#63b8ff" d="M522.6,-116.13C571.79,-110.67 694.18,-96.13 805.64,-74.2"/>
<polygon fill="#63b8ff" stroke="#63b8ff" points="806.58,-77.58 815.7,-72.19 805.21,-70.72 806.58,-77.58"/>
</a>
</g>
</g>
<!-- Node5 -->
<g id="Node000005" class="node">
<title>Node5</title>
<g id="a_Node000005"><a xlink:title=" ">
<polygon fill="#e0e0e0" stroke="#999999" points="179.5,-19 65.5,-19 65.5,0 179.5,0 179.5,-19"/>
<text text-anchor="middle" x="122.5" y="-7" font-family="Helvetica,sans-Serif" font-size="10.00">../lib/cJSON/cJSON.h</text>
</a>
</g>
</g>
<!-- Node4&#45;&gt;Node5 -->
<g id="edge4_Node000004_Node000005" class="edge">
<title>Node4&#45;&gt;Node5</title>
<g id="a_edge4_Node000004_Node000005"><a xlink:title=" ">
<path fill="none" stroke="#63b8ff" d="M300.72,-57.73C268.17,-49.1 206.23,-32.69 164.64,-21.67"/>
<polygon fill="#63b8ff" stroke="#63b8ff" points="165.36,-18.24 154.8,-19.06 163.57,-25 165.36,-18.24"/>
</a>
</g>
</g>
<!-- Node6 -->
<g id="Node000006" class="node">
<title>Node6</title>
<g id="a_Node000006"><a xlink:title=" ">
<polygon fill="#e0e0e0" stroke="#999999" points="311,-19 198,-19 198,0 311,0 311,-19"/>
<text text-anchor="middle" x="254.5" y="-7" font-family="Helvetica,sans-Serif" font-size="10.00">../lib/dSFMT/dSFMT.h</text>
</a>
</g>
</g>
<!-- Node4&#45;&gt;Node6 -->
<g id="edge5_Node000004_Node000006" class="edge">
<title>Node4&#45;&gt;Node6</title>
<g id="a_edge5_Node000004_Node000006"><a xlink:title=" ">
<path fill="none" stroke="#63b8ff" d="M311.57,-54.98C301.42,-47.07 286.08,-35.11 273.85,-25.58"/>
<polygon fill="#63b8ff" stroke="#63b8ff" points="275.66,-22.56 265.62,-19.17 271.36,-28.08 275.66,-22.56"/>
</a>
</g>
</g>
<!-- Node4&#45;&gt;Node7 -->
<g id="edge6_Node000004_Node000007" class="edge">
<title>Node4&#45;&gt;Node7</title>
<g id="a_edge6_Node000004_Node000007"><a xlink:title=" ">
<path fill="none" stroke="#63b8ff" d="M300.66,-60.5C256.57,-54.3 153.64,-39.14 57.15,-18.97"/>
<polygon fill="#63b8ff" stroke="#63b8ff" points="57.74,-15.52 47.24,-16.87 56.3,-22.37 57.74,-15.52"/>
</a>
</g>
</g>
<!-- Node4&#45;&gt;Node8 -->
<g id="edge7_Node000004_Node000008" class="edge">
<title>Node4&#45;&gt;Node8</title>
<g id="a_edge7_Node000004_Node000008"><a xlink:title=" ">
<path fill="none" stroke="#63b8ff" d="M328.28,-54.75C333.12,-47.42 340.18,-36.73 346.14,-27.7"/>
<polygon fill="#63b8ff" stroke="#63b8ff" points="349.24,-29.36 351.83,-19.09 343.4,-25.5 349.24,-29.36"/>
</a>
</g>
</g>
<!-- Node4&#45;&gt;Node9 -->
<g id="edge8_Node000004_Node000009" class="edge">
<title>Node4&#45;&gt;Node9</title>
<g id="a_edge8_Node000004_Node000009"><a xlink:title=" ">
<path fill="none" stroke="#63b8ff" d="M339.21,-54.98C355.71,-46.57 381.2,-33.59 400.38,-23.81"/>
<polygon fill="#63b8ff" stroke="#63b8ff" points="402.17,-26.83 409.49,-19.17 398.99,-20.59 402.17,-26.83"/>
</a>
</g>
</g>
<!-- Node4&#45;&gt;Node10 -->
<g id="edge9_Node000004_Node000010" class="edge">
<title>Node4&#45;&gt;Node10</title>
<g id="a_edge9_Node000004_Node000010"><a xlink:title=" ">
<path fill="none" stroke="#63b8ff" d="M344.25,-56.68C372.93,-47.69 423.71,-31.76 457.49,-21.17"/>
<polygon fill="#63b8ff" stroke="#63b8ff" points="458.89,-24.4 467.38,-18.06 456.79,-17.72 458.89,-24.4"/>
</a>
</g>
</g>
</g>
</svg>
