<?xml version="1.0" encoding="UTF-8" standalone="no"?>
<!DOCTYPE svg PUBLIC "-//W3C//DTD SVG 1.1//EN"
 "http://www.w3.org/Graphics/SVG/1.1/DTD/svg11.dtd">
<!-- Generated by graphviz version 2.43.0 (0)
 -->
<!-- Title: pred_neural_load Pages: 1 -->
<svg width="422pt" height="180pt"
 viewBox="0.00 0.00 422.00 180.00" xmlns="http://www.w3.org/2000/svg" xmlns:xlink="http://www.w3.org/1999/xlink">
<g id="graph0" class="graph" transform="scale(1 1) rotate(0) translate(4 176)">
<title>pred_neural_load</title>
<!-- Node1 -->
<g id="node1" class="node">
<title>Node1</title>
<g id="a_node1"><a xlink:title="Reads a neural network prediction from a file.">
<polygon fill="#bfbfbf" stroke="black" points="0,-76.5 0,-95.5 90,-95.5 90,-76.5 0,-76.5"/>
<text text-anchor="middle" x="45" y="-83.5" font-family="Helvetica,sans-Serif" font-size="10.00">pred_neural_load</text>
</a>
</g>
</g>
<!-- Node2 -->
<g id="node2" class="node">
<title>Node2</title>
<g id="a_node2"><a xlink:href="neural_8c.html#a7cb2bd3f18f66f9ccd9512b9d35d6d08" target="_top" xlink:title="Reads a neural network from a file.">
<polygon fill="none" stroke="black" points="126,-76.5 126,-95.5 192,-95.5 192,-76.5 126,-76.5"/>
<text text-anchor="middle" x="159" y="-83.5" font-family="Helvetica,sans-Serif" font-size="10.00">neural_load</text>
</a>
</g>
</g>
<!-- Node1&#45;&gt;Node2 -->
<g id="edge1" class="edge">
<title>Node1&#45;&gt;Node2</title>
<path fill="none" stroke="midnightblue" d="M90.27,-86C98.61,-86 107.31,-86 115.59,-86"/>
<polygon fill="midnightblue" stroke="midnightblue" points="115.8,-89.5 125.8,-86 115.8,-82.5 115.8,-89.5"/>
</g>
<!-- Node3 -->
<g id="node3" class="node">
<title>Node3</title>
<g id="a_node3"><a xlink:href="neural__layer_8c.html#a21a8acbaa483c46984c4f5f20d4edf95" target="_top" xlink:title="Initialises a layer to default values.">
<polygon fill="none" stroke="black" points="228.5,-152.5 228.5,-171.5 305.5,-171.5 305.5,-152.5 228.5,-152.5"/>
<text text-anchor="middle" x="267" y="-159.5" font-family="Helvetica,sans-Serif" font-size="10.00">layer_defaults</text>
</a>
</g>
</g>
<!-- Node2&#45;&gt;Node3 -->
<g id="edge2" class="edge">
<title>Node2&#45;&gt;Node3</title>
<path fill="none" stroke="midnightblue" d="M170,-95.69C182.77,-107.73 205.85,-128.47 228,-143 230.43,-144.59 233.01,-146.15 235.64,-147.63"/>
<polygon fill="midnightblue" stroke="midnightblue" points="234.13,-150.8 244.6,-152.4 237.42,-144.61 234.13,-150.8"/>
</g>
<!-- Node4 -->
<g id="node4" class="node">
<title>Node4</title>
<g id="a_node4"><a xlink:href="neural__layer_8h.html#a69ce571bb41dc2df362e3987fe595b63" target="_top" xlink:title="Reads the layer from a file.">
<polygon fill="none" stroke="black" points="236.5,-114.5 236.5,-133.5 297.5,-133.5 297.5,-114.5 236.5,-114.5"/>
<text text-anchor="middle" x="267" y="-121.5" font-family="Helvetica,sans-Serif" font-size="10.00">layer_load</text>
</a>
</g>
</g>
<!-- Node2&#45;&gt;Node4 -->
<g id="edge3" class="edge">
<title>Node2&#45;&gt;Node4</title>
<path fill="none" stroke="midnightblue" d="M186.75,-95.59C199.8,-100.27 215.7,-105.97 229.82,-111.03"/>
<polygon fill="midnightblue" stroke="midnightblue" points="228.67,-114.33 239.26,-114.41 231.03,-107.74 228.67,-114.33"/>
</g>
<!-- Node5 -->
<g id="node5" class="node">
<title>Node5</title>
<g id="a_node5"><a xlink:href="neural__layer_8c.html#a786726dce503a14b3bdd88b1ab5c356f" target="_top" xlink:title="Sets a neural network layer&#39;s functions to the implementations.">
<polygon fill="none" stroke="black" points="228,-76.5 228,-95.5 306,-95.5 306,-76.5 228,-76.5"/>
<text text-anchor="middle" x="267" y="-83.5" font-family="Helvetica,sans-Serif" font-size="10.00">layer_set_vptr</text>
</a>
</g>
</g>
<!-- Node2&#45;&gt;Node5 -->
<g id="edge4" class="edge">
<title>Node2&#45;&gt;Node5</title>
<path fill="none" stroke="midnightblue" d="M192.09,-86C200.15,-86 208.98,-86 217.64,-86"/>
<polygon fill="midnightblue" stroke="midnightblue" points="217.67,-89.5 227.67,-86 217.67,-82.5 217.67,-89.5"/>
</g>
<!-- Node6 -->
<g id="node6" class="node">
<title>Node6</title>
<g id="a_node6"><a xlink:href="neural_8c.html#ad70aee7c40f698d4be45e3d419051c2f" target="_top" xlink:title="Initialises an empty neural network.">
<polygon fill="none" stroke="black" points="236.5,-38.5 236.5,-57.5 297.5,-57.5 297.5,-38.5 236.5,-38.5"/>
<text text-anchor="middle" x="267" y="-45.5" font-family="Helvetica,sans-Serif" font-size="10.00">neural_init</text>
</a>
</g>
</g>
<!-- Node2&#45;&gt;Node6 -->
<g id="edge5" class="edge">
<title>Node2&#45;&gt;Node6</title>
<path fill="none" stroke="midnightblue" d="M186.75,-76.41C199.8,-71.73 215.7,-66.03 229.82,-60.97"/>
<polygon fill="midnightblue" stroke="midnightblue" points="231.03,-64.26 239.26,-57.59 228.67,-57.67 231.03,-64.26"/>
</g>
<!-- Node7 -->
<g id="node7" class="node">
<title>Node7</title>
<g id="a_node7"><a xlink:href="neural_8c.html#a1c1c06446fc719b8293aade2ded8433c" target="_top" xlink:title="Inserts a layer at the head of a neural network.">
<polygon fill="none" stroke="black" points="232.5,-0.5 232.5,-19.5 301.5,-19.5 301.5,-0.5 232.5,-0.5"/>
<text text-anchor="middle" x="267" y="-7.5" font-family="Helvetica,sans-Serif" font-size="10.00">neural_push</text>
</a>
</g>
</g>
<!-- Node2&#45;&gt;Node7 -->
<g id="edge6" class="edge">
<title>Node2&#45;&gt;Node7</title>
<path fill="none" stroke="midnightblue" d="M170,-76.31C182.77,-64.27 205.85,-43.53 228,-29 230.43,-27.41 233.01,-25.85 235.64,-24.37"/>
<polygon fill="midnightblue" stroke="midnightblue" points="237.42,-27.39 244.6,-19.6 234.13,-21.2 237.42,-27.39"/>
</g>
<!-- Node8 -->
<g id="node8" class="node">
<title>Node8</title>
<g id="a_node8"><a xlink:href="neural_8c.html#afab574137fbf9da9a286d020917c8295" target="_top" xlink:title="Inserts a layer into a neural network.">
<polygon fill="none" stroke="black" points="342,-0.5 342,-19.5 414,-19.5 414,-0.5 342,-0.5"/>
<text text-anchor="middle" x="378" y="-7.5" font-family="Helvetica,sans-Serif" font-size="10.00">neural_insert</text>
</a>
</g>
</g>
<!-- Node7&#45;&gt;Node8 -->
<g id="edge7" class="edge">
<title>Node7&#45;&gt;Node8</title>
<path fill="none" stroke="midnightblue" d="M301.59,-10C311.06,-10 321.53,-10 331.57,-10"/>
<polygon fill="midnightblue" stroke="midnightblue" points="331.82,-13.5 341.82,-10 331.82,-6.5 331.82,-13.5"/>
</g>
</g>
</svg>
