<?xml version="1.0" encoding="UTF-8" standalone="no"?>
<!DOCTYPE svg PUBLIC "-//W3C//DTD SVG 1.1//EN"
 "http://www.w3.org/Graphics/SVG/1.1/DTD/svg11.dtd">
<!-- Generated by graphviz version 2.43.0 (0)
 -->
<!-- Title: pred_param_json_export Pages: 1 -->
<svg width="759pt" height="367pt"
 viewBox="0.00 0.00 759.00 366.50" xmlns="http://www.w3.org/2000/svg" xmlns:xlink="http://www.w3.org/1999/xlink">
<g id="graph0" class="graph" transform="scale(1 1) rotate(0) translate(4 362.5)">
<title>pred_param_json_export</title>
<!-- Node1 -->
<g id="node1" class="node">
<title>Node1</title>
<g id="a_node1"><a xlink:title="Returns a json formatted string of the prediction parameters.">
<polygon fill="#bfbfbf" stroke="black" points="0,-95.5 0,-114.5 123,-114.5 123,-95.5 0,-95.5"/>
<text text-anchor="middle" x="61.5" y="-102.5" font-family="Helvetica,sans-Serif" font-size="10.00">pred_param_json_export</text>
</a>
</g>
</g>
<!-- Node2 -->
<g id="node2" class="node">
<title>Node2</title>
<g id="a_node2"><a xlink:href="neural__layer__args_8c.html#a660f9e96fa6caf7aa200a6eead34501b" target="_top" xlink:title="Returns a json formatted string of the neural layer parameters.">
<polygon fill="none" stroke="black" points="175,-152.5 175,-171.5 292,-171.5 292,-152.5 175,-152.5"/>
<text text-anchor="middle" x="233.5" y="-159.5" font-family="Helvetica,sans-Serif" font-size="10.00">layer_args_json_export</text>
</a>
</g>
</g>
<!-- Node1&#45;&gt;Node2 -->
<g id="edge1" class="edge">
<title>Node1&#45;&gt;Node2</title>
<path fill="none" stroke="midnightblue" d="M84.45,-114.53C103.83,-122.73 132.97,-134.55 159,-143 166.4,-145.4 174.3,-147.71 182.08,-149.84"/>
<polygon fill="midnightblue" stroke="midnightblue" points="181.24,-153.24 191.81,-152.43 183.04,-146.47 181.24,-153.24"/>
</g>
<!-- Node20 -->
<g id="node20" class="node">
<title>Node20</title>
<g id="a_node20"><a xlink:href="prediction_8c.html#a8c10e8e3bb923a105e3eee1968a3f110" target="_top" xlink:title="Returns a json formatted string of the NLMS parameters.">
<polygon fill="none" stroke="black" points="159,-114.5 159,-133.5 308,-133.5 308,-114.5 159,-114.5"/>
<text text-anchor="middle" x="233.5" y="-121.5" font-family="Helvetica,sans-Serif" font-size="10.00">pred_param_json_export_nlms</text>
</a>
</g>
</g>
<!-- Node1&#45;&gt;Node20 -->
<g id="edge20" class="edge">
<title>Node1&#45;&gt;Node20</title>
<path fill="none" stroke="midnightblue" d="M123.39,-111.81C131.68,-112.73 140.3,-113.7 148.9,-114.66"/>
<polygon fill="midnightblue" stroke="midnightblue" points="148.64,-118.15 158.96,-115.78 149.41,-111.19 148.64,-118.15"/>
</g>
<!-- Node21 -->
<g id="node21" class="node">
<title>Node21</title>
<g id="a_node21"><a xlink:href="prediction_8c.html#a3005d643c0bcca62b878f9d6efdfa8dc" target="_top" xlink:title="Returns a json formatted string of the RLS parameters.">
<polygon fill="none" stroke="black" points="164,-76.5 164,-95.5 303,-95.5 303,-76.5 164,-76.5"/>
<text text-anchor="middle" x="233.5" y="-83.5" font-family="Helvetica,sans-Serif" font-size="10.00">pred_param_json_export_rls</text>
</a>
</g>
</g>
<!-- Node1&#45;&gt;Node21 -->
<g id="edge21" class="edge">
<title>Node1&#45;&gt;Node21</title>
<path fill="none" stroke="midnightblue" d="M123.39,-98.19C133.25,-97.09 143.59,-95.94 153.8,-94.8"/>
<polygon fill="midnightblue" stroke="midnightblue" points="154.4,-98.25 163.95,-93.66 153.62,-91.29 154.4,-98.25"/>
</g>
<!-- Node22 -->
<g id="node22" class="node">
<title>Node22</title>
<g id="a_node22"><a xlink:href="prediction_8c.html#a085a8402296bdeab95f54299040e6e0e" target="_top" xlink:title="Returns a string representation of a prediction type from the integer.">
<polygon fill="none" stroke="black" points="184.5,-27 184.5,-57 282.5,-57 282.5,-27 184.5,-27"/>
<text text-anchor="start" x="192.5" y="-45" font-family="Helvetica,sans-Serif" font-size="10.00">prediction_type_as</text>
<text text-anchor="middle" x="233.5" y="-34" font-family="Helvetica,sans-Serif" font-size="10.00">_string</text>
</a>
</g>
</g>
<!-- Node1&#45;&gt;Node22 -->
<g id="edge22" class="edge">
<title>Node1&#45;&gt;Node22</title>
<path fill="none" stroke="midnightblue" d="M85.78,-95.47C105.25,-87.59 133.81,-76.24 159,-67 164.98,-64.81 171.26,-62.57 177.51,-60.39"/>
<polygon fill="midnightblue" stroke="midnightblue" points="178.99,-63.58 187.29,-57 176.7,-56.96 178.99,-63.58"/>
</g>
<!-- Node3 -->
<g id="node3" class="node">
<title>Node3</title>
<g id="a_node3"><a xlink:href="neural__layer__args_8c.html#a0d29d99487e5afd1746e7ac70fadf68f" target="_top" xlink:title="Adds layer activation function to a json object.">
<polygon fill="none" stroke="black" points="354.5,-328 354.5,-358 471.5,-358 471.5,-328 354.5,-328"/>
<text text-anchor="start" x="362.5" y="-346" font-family="Helvetica,sans-Serif" font-size="10.00">layer_args_json_export</text>
<text text-anchor="middle" x="413" y="-335" font-family="Helvetica,sans-Serif" font-size="10.00">_activation</text>
</a>
</g>
</g>
<!-- Node2&#45;&gt;Node3 -->
<g id="edge2" class="edge">
<title>Node2&#45;&gt;Node3</title>
<path fill="none" stroke="midnightblue" d="M238.67,-171.58C250.89,-198.54 289.18,-275.84 344,-318 346.34,-319.8 348.82,-321.47 351.39,-323.04"/>
<polygon fill="midnightblue" stroke="midnightblue" points="349.99,-326.26 360.45,-327.94 353.32,-320.1 349.99,-326.26"/>
</g>
<!-- Node5 -->
<g id="node5" class="node">
<title>Node5</title>
<g id="a_node5"><a xlink:href="neural__layer__args_8c.html#aba8bd68ce834099ac6558a3b2560963a" target="_top" xlink:title="Adds layer evolutionary parameters to a json object.">
<polygon fill="none" stroke="black" points="344,-289.5 344,-308.5 482,-308.5 482,-289.5 344,-289.5"/>
<text text-anchor="middle" x="413" y="-296.5" font-family="Helvetica,sans-Serif" font-size="10.00">layer_args_json_export_evo</text>
</a>
</g>
</g>
<!-- Node2&#45;&gt;Node5 -->
<g id="edge4" class="edge">
<title>Node2&#45;&gt;Node5</title>
<path fill="none" stroke="midnightblue" d="M240.63,-171.61C255.49,-194.13 295.8,-250.61 344,-280 347.59,-282.19 351.44,-284.13 355.42,-285.86"/>
<polygon fill="midnightblue" stroke="midnightblue" points="354.27,-289.17 364.85,-289.5 356.78,-282.64 354.27,-289.17"/>
</g>
<!-- Node6 -->
<g id="node6" class="node">
<title>Node6</title>
<g id="a_node6"><a xlink:href="neural__layer__args_8c.html#a7b6e5027adbd710fc3653c7056c22fa2" target="_top" xlink:title="Adds layer input parameters to a json object.">
<polygon fill="none" stroke="black" points="354.5,-240 354.5,-270 471.5,-270 471.5,-240 354.5,-240"/>
<text text-anchor="start" x="362.5" y="-258" font-family="Helvetica,sans-Serif" font-size="10.00">layer_args_json_export</text>
<text text-anchor="middle" x="413" y="-247" font-family="Helvetica,sans-Serif" font-size="10.00">_inputs</text>
</a>
</g>
</g>
<!-- Node2&#45;&gt;Node6 -->
<g id="edge5" class="edge">
<title>Node2&#45;&gt;Node6</title>
<path fill="none" stroke="midnightblue" d="M247.76,-171.73C267.81,-186.13 307.39,-213.28 344,-231 347.74,-232.81 351.65,-234.55 355.63,-236.22"/>
<polygon fill="midnightblue" stroke="midnightblue" points="354.4,-239.5 364.98,-239.95 356.99,-232.99 354.4,-239.5"/>
</g>
<!-- Node8 -->
<g id="node8" class="node">
<title>Node8</title>
<g id="a_node8"><a xlink:href="neural__layer__args_8c.html#a1130173f486e5e1b647a65ff0822aebc" target="_top" xlink:title="Adds layer scaling parameters to a json object.">
<polygon fill="none" stroke="black" points="354.5,-191 354.5,-221 471.5,-221 471.5,-191 354.5,-191"/>
<text text-anchor="start" x="362.5" y="-209" font-family="Helvetica,sans-Serif" font-size="10.00">layer_args_json_export</text>
<text text-anchor="middle" x="413" y="-198" font-family="Helvetica,sans-Serif" font-size="10.00">_scale</text>
</a>
</g>
</g>
<!-- Node2&#45;&gt;Node8 -->
<g id="edge7" class="edge">
<title>Node2&#45;&gt;Node8</title>
<path fill="none" stroke="midnightblue" d="M273.01,-171.55C293.9,-176.72 320.31,-183.27 344.48,-189.26"/>
<polygon fill="midnightblue" stroke="midnightblue" points="343.78,-192.7 354.33,-191.7 345.47,-185.9 343.78,-192.7"/>
</g>
<!-- Node9 -->
<g id="node9" class="node">
<title>Node9</title>
<g id="a_node9"><a xlink:href="neural__layer__args_8c.html#a686e3f11eb7bb524effd5ddb75bdbd34" target="_top" xlink:title="Adds layer gradient descent parameters to a json object.">
<polygon fill="none" stroke="black" points="344,-152.5 344,-171.5 482,-171.5 482,-152.5 344,-152.5"/>
<text text-anchor="middle" x="413" y="-159.5" font-family="Helvetica,sans-Serif" font-size="10.00">layer_args_json_export_sgd</text>
</a>
</g>
</g>
<!-- Node2&#45;&gt;Node9 -->
<g id="edge8" class="edge">
<title>Node2&#45;&gt;Node9</title>
<path fill="none" stroke="midnightblue" d="M292.13,-162C305.41,-162 319.75,-162 333.74,-162"/>
<polygon fill="midnightblue" stroke="midnightblue" points="333.84,-165.5 343.84,-162 333.84,-158.5 333.84,-165.5"/>
</g>
<!-- Node10 -->
<g id="node10" class="node">
<title>Node10</title>
<g id="a_node10"><a xlink:href="neural__layer_8c.html#a0e2222a263f09abb981bc7273cd88d7e" target="_top" xlink:title="Returns a string representation of a layer type from an integer.">
<polygon fill="none" stroke="black" points="359.5,-114.5 359.5,-133.5 466.5,-133.5 466.5,-114.5 359.5,-114.5"/>
<text text-anchor="middle" x="413" y="-121.5" font-family="Helvetica,sans-Serif" font-size="10.00">layer_type_as_string</text>
</a>
</g>
</g>
<!-- Node2&#45;&gt;Node10 -->
<g id="edge9" class="edge">
<title>Node2&#45;&gt;Node10</title>
<path fill="none" stroke="midnightblue" d="M279.29,-152.41C303.03,-147.33 332.38,-141.04 357.44,-135.68"/>
<polygon fill="midnightblue" stroke="midnightblue" points="358.49,-139.04 367.53,-133.52 357.02,-132.19 358.49,-139.04"/>
</g>
<!-- Node11 -->
<g id="node11" class="node">
<title>Node11</title>
<g id="a_node11"><a xlink:href="neural_8c.html#a6466387dd7c533e0f15da4c2127bfd79" target="_top" xlink:title="Initialises and creates a new neural network from a parameter list.">
<polygon fill="none" stroke="black" points="375.5,-76.5 375.5,-95.5 450.5,-95.5 450.5,-76.5 375.5,-76.5"/>
<text text-anchor="middle" x="413" y="-83.5" font-family="Helvetica,sans-Serif" font-size="10.00">neural_create</text>
</a>
</g>
</g>
<!-- Node2&#45;&gt;Node11 -->
<g id="edge10" class="edge">
<title>Node2&#45;&gt;Node11</title>
<path fill="none" stroke="midnightblue" d="M286.57,-152.45C294.04,-149.98 301.41,-146.88 308,-143 328.04,-131.19 324.08,-117.01 344,-105 350.57,-101.04 357.99,-97.88 365.45,-95.37"/>
<polygon fill="midnightblue" stroke="midnightblue" points="366.66,-98.66 375.22,-92.42 364.64,-91.96 366.66,-98.66"/>
</g>
<!-- Node15 -->
<g id="node15" class="node">
<title>Node15</title>
<g id="a_node15"><a xlink:href="neural_8c.html#ad70aee7c40f698d4be45e3d419051c2f" target="_top" xlink:title="Initialises an empty neural network.">
<polygon fill="none" stroke="black" points="547,-38.5 547,-57.5 608,-57.5 608,-38.5 547,-38.5"/>
<text text-anchor="middle" x="577.5" y="-45.5" font-family="Helvetica,sans-Serif" font-size="10.00">neural_init</text>
</a>
</g>
</g>
<!-- Node2&#45;&gt;Node15 -->
<g id="edge19" class="edge">
<title>Node2&#45;&gt;Node15</title>
<path fill="none" stroke="midnightblue" d="M292.3,-152.42C297.96,-149.95 303.33,-146.86 308,-143 336.81,-119.19 313.26,-88.26 344,-67 401.53,-27.22 487.26,-32.47 536.96,-40.09"/>
<polygon fill="midnightblue" stroke="midnightblue" points="536.55,-43.57 546.99,-41.74 537.69,-36.67 536.55,-43.57"/>
</g>
<!-- Node18 -->
<g id="node18" class="node">
<title>Node18</title>
<g id="a_node18"><a xlink:href="neural_8c.html#a9c3e1da0425d0fc17daa12c21e4799ca" target="_top" xlink:title="Frees a neural network.">
<polygon fill="none" stroke="black" points="380.5,-0.5 380.5,-19.5 445.5,-19.5 445.5,-0.5 380.5,-0.5"/>
<text text-anchor="middle" x="413" y="-7.5" font-family="Helvetica,sans-Serif" font-size="10.00">neural_free</text>
</a>
</g>
</g>
<!-- Node2&#45;&gt;Node18 -->
<g id="edge17" class="edge">
<title>Node2&#45;&gt;Node18</title>
<path fill="none" stroke="midnightblue" d="M292.07,-153.32C297.91,-150.69 303.38,-147.32 308,-143 345.25,-108.14 308.29,-70.44 344,-34 351.23,-26.62 360.86,-21.51 370.6,-17.96"/>
<polygon fill="midnightblue" stroke="midnightblue" points="371.79,-21.26 380.28,-14.92 369.69,-14.58 371.79,-21.26"/>
</g>
<!-- Node4 -->
<g id="node4" class="node">
<title>Node4</title>
<g id="a_node4"><a xlink:href="neural__activations_8c.html#a429f5b4427682cb174e3d4d56f181a22" target="_top" xlink:title="Returns the name of a specified activation function.">
<polygon fill="none" stroke="black" points="518,-333.5 518,-352.5 637,-352.5 637,-333.5 518,-333.5"/>
<text text-anchor="middle" x="577.5" y="-340.5" font-family="Helvetica,sans-Serif" font-size="10.00">neural_activation_string</text>
</a>
</g>
</g>
<!-- Node3&#45;&gt;Node4 -->
<g id="edge3" class="edge">
<title>Node3&#45;&gt;Node4</title>
<path fill="none" stroke="midnightblue" d="M471.75,-343C483.32,-343 495.59,-343 507.5,-343"/>
<polygon fill="midnightblue" stroke="midnightblue" points="507.84,-346.5 517.84,-343 507.84,-339.5 507.84,-346.5"/>
</g>
<!-- Node7 -->
<g id="node7" class="node">
<title>Node7</title>
<g id="a_node7"><a xlink:href="neural__layer_8c.html#ad1b7188119d0d96791ee0d87c105896a" target="_top" xlink:title="Returns a whether a layer type expects images as input.">
<polygon fill="none" stroke="black" points="519.5,-245.5 519.5,-264.5 635.5,-264.5 635.5,-245.5 519.5,-245.5"/>
<text text-anchor="middle" x="577.5" y="-252.5" font-family="Helvetica,sans-Serif" font-size="10.00">layer_receives_images</text>
</a>
</g>
</g>
<!-- Node6&#45;&gt;Node7 -->
<g id="edge6" class="edge">
<title>Node6&#45;&gt;Node7</title>
<path fill="none" stroke="midnightblue" d="M471.75,-255C483.86,-255 496.74,-255 509.17,-255"/>
<polygon fill="midnightblue" stroke="midnightblue" points="509.48,-258.5 519.48,-255 509.48,-251.5 509.48,-258.5"/>
</g>
<!-- Node12 -->
<g id="node12" class="node">
<title>Node12</title>
<g id="a_node12"><a xlink:href="neural__layer_8h.html#a33f40237cec8d79bf6325b78d1f955fe" target="_top" xlink:title="Creates and initialises a new layer.">
<polygon fill="none" stroke="black" points="549.5,-114.5 549.5,-133.5 605.5,-133.5 605.5,-114.5 549.5,-114.5"/>
<text text-anchor="middle" x="577.5" y="-121.5" font-family="Helvetica,sans-Serif" font-size="10.00">layer_init</text>
</a>
</g>
</g>
<!-- Node11&#45;&gt;Node12 -->
<g id="edge11" class="edge">
<title>Node11&#45;&gt;Node12</title>
<path fill="none" stroke="midnightblue" d="M450.87,-94.62C477.33,-100.81 512.83,-109.11 539.35,-115.31"/>
<polygon fill="midnightblue" stroke="midnightblue" points="538.86,-118.79 549.39,-117.66 540.45,-111.98 538.86,-118.79"/>
</g>
<!-- Node11&#45;&gt;Node15 -->
<g id="edge14" class="edge">
<title>Node11&#45;&gt;Node15</title>
<path fill="none" stroke="midnightblue" d="M450.87,-77.38C476.5,-71.38 510.62,-63.4 536.84,-57.27"/>
<polygon fill="midnightblue" stroke="midnightblue" points="537.88,-60.63 546.82,-54.94 536.29,-53.81 537.88,-60.63"/>
</g>
<!-- Node16 -->
<g id="node16" class="node">
<title>Node16</title>
<g id="a_node16"><a xlink:href="neural_8c.html#a1c1c06446fc719b8293aade2ded8433c" target="_top" xlink:title="Inserts a layer at the head of a neural network.">
<polygon fill="none" stroke="black" points="543,-76.5 543,-95.5 612,-95.5 612,-76.5 543,-76.5"/>
<text text-anchor="middle" x="577.5" y="-83.5" font-family="Helvetica,sans-Serif" font-size="10.00">neural_push</text>
</a>
</g>
</g>
<!-- Node11&#45;&gt;Node16 -->
<g id="edge15" class="edge">
<title>Node11&#45;&gt;Node16</title>
<path fill="none" stroke="midnightblue" d="M450.87,-86C475.15,-86 507.06,-86 532.64,-86"/>
<polygon fill="midnightblue" stroke="midnightblue" points="532.82,-89.5 542.82,-86 532.82,-82.5 532.82,-89.5"/>
</g>
<!-- Node13 -->
<g id="node13" class="node">
<title>Node13</title>
<g id="a_node13"><a xlink:href="neural__layer_8h.html#a21a8acbaa483c46984c4f5f20d4edf95" target="_top" xlink:title="Initialises a layer to default values.">
<polygon fill="none" stroke="black" points="673.5,-152.5 673.5,-171.5 750.5,-171.5 750.5,-152.5 673.5,-152.5"/>
<text text-anchor="middle" x="712" y="-159.5" font-family="Helvetica,sans-Serif" font-size="10.00">layer_defaults</text>
</a>
</g>
</g>
<!-- Node12&#45;&gt;Node13 -->
<g id="edge12" class="edge">
<title>Node12&#45;&gt;Node13</title>
<path fill="none" stroke="midnightblue" d="M605.63,-131.78C623.59,-136.93 647.52,-143.8 668.04,-149.68"/>
<polygon fill="midnightblue" stroke="midnightblue" points="667.22,-153.09 677.8,-152.48 669.15,-146.36 667.22,-153.09"/>
</g>
<!-- Node14 -->
<g id="node14" class="node">
<title>Node14</title>
<g id="a_node14"><a xlink:href="neural__layer_8h.html#a786726dce503a14b3bdd88b1ab5c356f" target="_top" xlink:title="Sets a neural network layer&#39;s functions to the implementations.">
<polygon fill="none" stroke="black" points="673,-114.5 673,-133.5 751,-133.5 751,-114.5 673,-114.5"/>
<text text-anchor="middle" x="712" y="-121.5" font-family="Helvetica,sans-Serif" font-size="10.00">layer_set_vptr</text>
</a>
</g>
</g>
<!-- Node12&#45;&gt;Node14 -->
<g id="edge13" class="edge">
<title>Node12&#45;&gt;Node14</title>
<path fill="none" stroke="midnightblue" d="M605.63,-124C622.06,-124 643.49,-124 662.73,-124"/>
<polygon fill="midnightblue" stroke="midnightblue" points="662.85,-127.5 672.85,-124 662.85,-120.5 662.85,-127.5"/>
</g>
<!-- Node17 -->
<g id="node17" class="node">
<title>Node17</title>
<g id="a_node17"><a xlink:href="neural_8c.html#afab574137fbf9da9a286d020917c8295" target="_top" xlink:title="Inserts a layer into a neural network.">
<polygon fill="none" stroke="black" points="676,-76.5 676,-95.5 748,-95.5 748,-76.5 676,-76.5"/>
<text text-anchor="middle" x="712" y="-83.5" font-family="Helvetica,sans-Serif" font-size="10.00">neural_insert</text>
</a>
</g>
</g>
<!-- Node16&#45;&gt;Node17 -->
<g id="edge16" class="edge">
<title>Node16&#45;&gt;Node17</title>
<path fill="none" stroke="midnightblue" d="M612.28,-86C628.56,-86 648.31,-86 665.86,-86"/>
<polygon fill="midnightblue" stroke="midnightblue" points="665.9,-89.5 675.9,-86 665.9,-82.5 665.9,-89.5"/>
</g>
<!-- Node19 -->
<g id="node19" class="node">
<title>Node19</title>
<g id="a_node19"><a xlink:href="neural__layer_8h.html#a5ea2541eb1936ed851001c4a8b99b08f" target="_top" xlink:title="Frees the memory used by the layer.">
<polygon fill="none" stroke="black" points="548,-0.5 548,-19.5 607,-19.5 607,-0.5 548,-0.5"/>
<text text-anchor="middle" x="577.5" y="-7.5" font-family="Helvetica,sans-Serif" font-size="10.00">layer_free</text>
</a>
</g>
</g>
<!-- Node18&#45;&gt;Node19 -->
<g id="edge18" class="edge">
<title>Node18&#45;&gt;Node19</title>
<path fill="none" stroke="midnightblue" d="M445.72,-10C472.01,-10 509.49,-10 537.59,-10"/>
<polygon fill="midnightblue" stroke="midnightblue" points="537.86,-13.5 547.86,-10 537.86,-6.5 537.86,-13.5"/>
</g>
</g>
</svg>
