<?xml version="1.0" encoding="UTF-8" standalone="no"?>
<!DOCTYPE svg PUBLIC "-//W3C//DTD SVG 1.1//EN"
 "http://www.w3.org/Graphics/SVG/1.1/DTD/svg11.dtd">
<!-- Generated by graphviz version 2.43.0 (0)
 -->
<!-- Title: pred_neural_lopt Pages: 1 -->
<svg width="714pt" height="104pt"
 viewBox="0.00 0.00 714.00 104.00" xmlns="http://www.w3.org/2000/svg" xmlns:xlink="http://www.w3.org/1999/xlink">
<g id="graph0" class="graph" transform="scale(1 1) rotate(0) translate(4 100)">
<title>pred_neural_lopt</title>
<!-- Node1 -->
<g id="node1" class="node">
<title>Node1</title>
<g id="a_node1"><a xlink:title=" ">
<polygon fill="#bfbfbf" stroke="black" points="618,-38.5 618,-57.5 706,-57.5 706,-38.5 618,-38.5"/>
<text text-anchor="middle" x="662" y="-45.5" font-family="Helvetica,sans-Serif" font-size="10.00">pred_neural_lopt</text>
</a>
</g>
</g>
<!-- Node2 -->
<g id="node2" class="node">
<title>Node2</title>
<g id="a_node2"><a xlink:href="pred__neural_8h.html#a610669174ae845912b814e159f49b4af" target="_top" xlink:title=" ">
<polygon fill="none" stroke="black" points="442,-76.5 442,-95.5 582,-95.5 582,-76.5 442,-76.5"/>
<text text-anchor="middle" x="512" y="-83.5" font-family="Helvetica,sans-Serif" font-size="10.00">pred_neural_ae_to_classifier</text>
</a>
</g>
</g>
<!-- Node1&#45;&gt;Node2 -->
<g id="edge1" class="edge">
<title>Node1&#45;&gt;Node2</title>
<path fill="none" stroke="midnightblue" d="M613.83,-60.11C593.21,-65.4 569.39,-71.52 550.08,-76.48"/>
<polygon fill="midnightblue" stroke="midnightblue" points="614.84,-63.47 623.65,-57.59 613.1,-56.69 614.84,-63.47"/>
</g>
<!-- Node6 -->
<g id="node6" class="node">
<title>Node6</title>
<g id="a_node6"><a xlink:href="pred__neural_8h.html#ae2da77d32d851a83ba0222b7fa61a2a0" target="_top" xlink:title=" ">
<polygon fill="none" stroke="black" points="460,-38.5 460,-57.5 564,-57.5 564,-38.5 460,-38.5"/>
<text text-anchor="middle" x="512" y="-45.5" font-family="Helvetica,sans-Serif" font-size="10.00">pred_neural_expand</text>
</a>
</g>
</g>
<!-- Node1&#45;&gt;Node6 -->
<g id="edge5" class="edge">
<title>Node1&#45;&gt;Node6</title>
<path fill="none" stroke="midnightblue" d="M607.68,-48C593.49,-48 578.18,-48 564.1,-48"/>
<polygon fill="midnightblue" stroke="midnightblue" points="607.79,-51.5 617.79,-48 607.79,-44.5 607.79,-51.5"/>
</g>
<!-- Node9 -->
<g id="node9" class="node">
<title>Node9</title>
<g id="a_node9"><a xlink:href="pred__neural_8h.html#a9c2524ec57f3b27c521264edc1be74ad" target="_top" xlink:title="Creates and initialises a neural network prediction.">
<polygon fill="none" stroke="black" points="469.5,-0.5 469.5,-19.5 554.5,-19.5 554.5,-0.5 469.5,-0.5"/>
<text text-anchor="middle" x="512" y="-7.5" font-family="Helvetica,sans-Serif" font-size="10.00">pred_neural_init</text>
</a>
</g>
</g>
<!-- Node1&#45;&gt;Node9 -->
<g id="edge9" class="edge">
<title>Node1&#45;&gt;Node9</title>
<path fill="none" stroke="midnightblue" d="M613.83,-35.89C593.21,-30.6 569.39,-24.48 550.08,-19.52"/>
<polygon fill="midnightblue" stroke="midnightblue" points="613.1,-39.31 623.65,-38.41 614.84,-32.53 613.1,-39.31"/>
</g>
<!-- Node3 -->
<g id="node3" class="node">
<title>Node3</title>
<g id="a_node3"><a xlink:href="xcsf_8h.html#ad77461184a11780681798ac593b090ab" target="_top" xlink:title="Switches from autoencoding to classification.">
<polygon fill="none" stroke="black" points="297,-76.5 297,-95.5 406,-95.5 406,-76.5 297,-76.5"/>
<text text-anchor="middle" x="351.5" y="-83.5" font-family="Helvetica,sans-Serif" font-size="10.00">xcsf_ae_to_classifier</text>
</a>
</g>
</g>
<!-- Node2&#45;&gt;Node3 -->
<g id="edge2" class="edge">
<title>Node2&#45;&gt;Node3</title>
<path fill="none" stroke="midnightblue" d="M431.75,-86C423.06,-86 414.36,-86 406.08,-86"/>
<polygon fill="midnightblue" stroke="midnightblue" points="431.94,-89.5 441.94,-86 431.94,-82.5 431.94,-89.5"/>
</g>
<!-- Node4 -->
<g id="node4" class="node">
<title>Node4</title>
<g id="a_node4"><a xlink:href="classXCS.html#ad73009d926d395ee03bf7586f194fcbe" target="_top" xlink:title="Switches from autoencoding to classification.">
<polygon fill="none" stroke="black" points="149,-76.5 149,-95.5 261,-95.5 261,-76.5 149,-76.5"/>
<text text-anchor="middle" x="205" y="-83.5" font-family="Helvetica,sans-Serif" font-size="10.00">XCS::ae_to_classifier</text>
</a>
</g>
</g>
<!-- Node3&#45;&gt;Node4 -->
<g id="edge3" class="edge">
<title>Node3&#45;&gt;Node4</title>
<path fill="none" stroke="midnightblue" d="M286.54,-86C278.12,-86 269.55,-86 261.3,-86"/>
<polygon fill="midnightblue" stroke="midnightblue" points="286.69,-89.5 296.69,-86 286.69,-82.5 286.69,-89.5"/>
</g>
<!-- Node5 -->
<g id="node5" class="node">
<title>Node5</title>
<g id="a_node5"><a xlink:href="pybind__wrapper_8cpp.html#a269acb618355873dacf057083f07eb58" target="_top" xlink:title=" ">
<polygon fill="none" stroke="black" points="0,-57.5 0,-76.5 113,-76.5 113,-57.5 0,-57.5"/>
<text text-anchor="middle" x="56.5" y="-64.5" font-family="Helvetica,sans-Serif" font-size="10.00">pybind11_init_wrapper</text>
</a>
</g>
</g>
<!-- Node4&#45;&gt;Node5 -->
<g id="edge4" class="edge">
<title>Node4&#45;&gt;Node5</title>
<path fill="none" stroke="midnightblue" d="M138.51,-77.51C130.15,-76.42 121.64,-75.32 113.45,-74.26"/>
<polygon fill="midnightblue" stroke="midnightblue" points="138.25,-81 148.61,-78.82 139.15,-74.06 138.25,-81"/>
</g>
<!-- Node7 -->
<g id="node7" class="node">
<title>Node7</title>
<g id="a_node7"><a xlink:href="xcsf_8h.html#a6bb93a888da68d6397ce63fb58428237" target="_top" xlink:title="Inserts a new hidden layer before the output layer within all prediction neural networks in the popul...">
<polygon fill="none" stroke="black" points="303.5,-38.5 303.5,-57.5 399.5,-57.5 399.5,-38.5 303.5,-38.5"/>
<text text-anchor="middle" x="351.5" y="-45.5" font-family="Helvetica,sans-Serif" font-size="10.00">xcsf_pred_expand</text>
</a>
</g>
</g>
<!-- Node6&#45;&gt;Node7 -->
<g id="edge6" class="edge">
<title>Node6&#45;&gt;Node7</title>
<path fill="none" stroke="midnightblue" d="M449.79,-48C433.15,-48 415.39,-48 399.66,-48"/>
<polygon fill="midnightblue" stroke="midnightblue" points="449.98,-51.5 459.98,-48 449.98,-44.5 449.98,-51.5"/>
</g>
<!-- Node8 -->
<g id="node8" class="node">
<title>Node8</title>
<g id="a_node8"><a xlink:href="classXCS.html#aa4d00c1db4ef961055b74f231cbd39f0" target="_top" xlink:title="Inserts a new hidden layer before the output layer within all prediction neural networks in the popul...">
<polygon fill="none" stroke="black" points="155.5,-38.5 155.5,-57.5 254.5,-57.5 254.5,-38.5 155.5,-38.5"/>
<text text-anchor="middle" x="205" y="-45.5" font-family="Helvetica,sans-Serif" font-size="10.00">XCS::pred_expand</text>
</a>
</g>
</g>
<!-- Node7&#45;&gt;Node8 -->
<g id="edge7" class="edge">
<title>Node7&#45;&gt;Node8</title>
<path fill="none" stroke="midnightblue" d="M292.82,-48C280.26,-48 267.09,-48 254.91,-48"/>
<polygon fill="midnightblue" stroke="midnightblue" points="293.19,-51.5 303.19,-48 293.19,-44.5 293.19,-51.5"/>
</g>
<!-- Node8&#45;&gt;Node5 -->
<g id="edge8" class="edge">
<title>Node8&#45;&gt;Node5</title>
<path fill="none" stroke="midnightblue" d="M145.23,-55.62C134.65,-56.99 123.65,-58.42 113.16,-59.78"/>
<polygon fill="midnightblue" stroke="midnightblue" points="145.75,-59.08 155.22,-54.33 144.85,-52.14 145.75,-59.08"/>
</g>
</g>
</svg>
