<?xml version="1.0" encoding="UTF-8" standalone="no"?>
<!DOCTYPE svg PUBLIC "-//W3C//DTD SVG 1.1//EN"
 "http://www.w3.org/Graphics/SVG/1.1/DTD/svg11.dtd">
<!-- Generated by graphviz version 2.43.0 (0)
 -->
<!-- Title: pred_neural_compute Pages: 1 -->
<svg width="356pt" height="66pt"
 viewBox="0.00 0.00 356.00 66.00" xmlns="http://www.w3.org/2000/svg" xmlns:xlink="http://www.w3.org/1999/xlink">
<g id="graph0" class="graph" transform="scale(1 1) rotate(0) translate(4 62)">
<title>pred_neural_compute</title>
<!-- Node1 -->
<g id="node1" class="node">
<title>Node1</title>
<g id="a_node1"><a xlink:title="Forward propagates a neural network prediction with a provided input.">
<polygon fill="#bfbfbf" stroke="black" points="0,-19.5 0,-38.5 110,-38.5 110,-19.5 0,-19.5"/>
<text text-anchor="middle" x="55" y="-26.5" font-family="Helvetica,sans-Serif" font-size="10.00">pred_neural_compute</text>
</a>
</g>
</g>
<!-- Node2 -->
<g id="node2" class="node">
<title>Node2</title>
<g id="a_node2"><a xlink:href="neural_8c.html#a700dd0e8ee581681b32f1ffe5c7c709b" target="_top" xlink:title="Returns the output of a specified neuron in the output layer of a neural network.">
<polygon fill="none" stroke="black" points="154,-38.5 154,-57.5 229,-57.5 229,-38.5 154,-38.5"/>
<text text-anchor="middle" x="191.5" y="-45.5" font-family="Helvetica,sans-Serif" font-size="10.00">neural_output</text>
</a>
</g>
</g>
<!-- Node1&#45;&gt;Node2 -->
<g id="edge1" class="edge">
<title>Node1&#45;&gt;Node2</title>
<path fill="none" stroke="midnightblue" d="M110.32,-36.67C121.37,-38.23 132.9,-39.86 143.67,-41.38"/>
<polygon fill="midnightblue" stroke="midnightblue" points="143.32,-44.87 153.71,-42.8 144.3,-37.94 143.32,-44.87"/>
</g>
<!-- Node4 -->
<g id="node4" class="node">
<title>Node4</title>
<g id="a_node4"><a xlink:href="neural_8c.html#ae52d35ca06ded1387949731e1ad3d751" target="_top" xlink:title="Forward propagates a neural network.">
<polygon fill="none" stroke="black" points="146,-0.5 146,-19.5 237,-19.5 237,-0.5 146,-0.5"/>
<text text-anchor="middle" x="191.5" y="-7.5" font-family="Helvetica,sans-Serif" font-size="10.00">neural_propagate</text>
</a>
</g>
</g>
<!-- Node1&#45;&gt;Node4 -->
<g id="edge3" class="edge">
<title>Node1&#45;&gt;Node4</title>
<path fill="none" stroke="midnightblue" d="M110.32,-21.33C118.72,-20.14 127.39,-18.91 135.8,-17.73"/>
<polygon fill="midnightblue" stroke="midnightblue" points="136.47,-21.17 145.88,-16.3 135.49,-14.24 136.47,-21.17"/>
</g>
<!-- Node3 -->
<g id="node3" class="node">
<title>Node3</title>
<g id="a_node3"><a xlink:href="neural__layer_8h.html#a2ba51f939c19b5a2d9be3d219bbe3115" target="_top" xlink:title="Returns the outputs of a layer.">
<polygon fill="none" stroke="black" points="275.5,-38.5 275.5,-57.5 345.5,-57.5 345.5,-38.5 275.5,-38.5"/>
<text text-anchor="middle" x="310.5" y="-45.5" font-family="Helvetica,sans-Serif" font-size="10.00">layer_output</text>
</a>
</g>
</g>
<!-- Node2&#45;&gt;Node3 -->
<g id="edge2" class="edge">
<title>Node2&#45;&gt;Node3</title>
<path fill="none" stroke="midnightblue" d="M229.2,-48C240.6,-48 253.29,-48 265.16,-48"/>
<polygon fill="midnightblue" stroke="midnightblue" points="265.32,-51.5 275.32,-48 265.32,-44.5 265.32,-51.5"/>
</g>
<!-- Node4&#45;&gt;Node3 -->
<g id="edge5" class="edge">
<title>Node4&#45;&gt;Node3</title>
<path fill="none" stroke="midnightblue" d="M222.02,-19.59C236.71,-24.36 254.66,-30.19 270.47,-35.32"/>
<polygon fill="midnightblue" stroke="midnightblue" points="269.39,-38.65 279.99,-38.41 271.56,-32 269.39,-38.65"/>
</g>
<!-- Node5 -->
<g id="node5" class="node">
<title>Node5</title>
<g id="a_node5"><a xlink:href="neural__layer_8h.html#aabfac5227c61181614f84ebf5e00e462" target="_top" xlink:title="Forward propagates an input through the layer.">
<polygon fill="none" stroke="black" points="273,-0.5 273,-19.5 348,-19.5 348,-0.5 273,-0.5"/>
<text text-anchor="middle" x="310.5" y="-7.5" font-family="Helvetica,sans-Serif" font-size="10.00">layer_forward</text>
</a>
</g>
</g>
<!-- Node4&#45;&gt;Node5 -->
<g id="edge4" class="edge">
<title>Node4&#45;&gt;Node5</title>
<path fill="none" stroke="midnightblue" d="M237.07,-10C245.42,-10 254.18,-10 262.6,-10"/>
<polygon fill="midnightblue" stroke="midnightblue" points="262.66,-13.5 272.66,-10 262.66,-6.5 262.66,-13.5"/>
</g>
</g>
</svg>
