<?xml version="1.0" encoding="UTF-8" standalone="no"?>
<!DOCTYPE svg PUBLIC "-//W3C//DTD SVG 1.1//EN"
 "http://www.w3.org/Graphics/SVG/1.1/DTD/svg11.dtd">
<!-- Generated by graphviz version 2.43.0 (0)
 -->
<!-- Title: pred_neural.c Pages: 1 -->
<svg width="1549pt" height="302pt"
 viewBox="0.00 0.00 1549.25 302.00" xmlns="http://www.w3.org/2000/svg" xmlns:xlink="http://www.w3.org/1999/xlink">
<g id="graph0" class="graph" transform="scale(1 1) rotate(0) translate(4 298)">
<title>pred_neural.c</title>
<!-- Node1 -->
<g id="Node000001" class="node">
<title>Node1</title>
<g id="a_Node000001"><a xlink:title="Multi&#45;layer perceptron neural network prediction functions.">
<polygon fill="#999999" stroke="#666666" points="816.75,-294 741.75,-294 741.75,-275 816.75,-275 816.75,-294"/>
<text text-anchor="middle" x="779.25" y="-282" font-family="Helvetica,sans-Serif" font-size="10.00">pred_neural.c</text>
</a>
</g>
</g>
<!-- Node2 -->
<g id="Node000002" class="node">
<title>Node2</title>
<g id="a_Node000002"><a xlink:href="pred__neural_8h.html" target="_top" xlink:title="Multi&#45;layer perceptron neural network prediction functions.">
<polygon fill="white" stroke="#666666" points="1460.75,-239 1385.75,-239 1385.75,-220 1460.75,-220 1460.75,-239"/>
<text text-anchor="middle" x="1423.25" y="-227" font-family="Helvetica,sans-Serif" font-size="10.00">pred_neural.h</text>
</a>
</g>
</g>
<!-- Node1&#45;&gt;Node2 -->
<g id="edge1_Node000001_Node000002" class="edge">
<title>Node1&#45;&gt;Node2</title>
<g id="a_edge1_Node000001_Node000002"><a xlink:title=" ">
<path fill="none" stroke="#63b8ff" d="M816.76,-282.07C909.65,-278.23 1157.99,-266.19 1375.58,-238.94"/>
<polygon fill="#63b8ff" stroke="#63b8ff" points="1376.11,-242.4 1385.59,-237.67 1375.23,-235.45 1376.11,-242.4"/>
</a>
</g>
</g>
<!-- Node4 -->
<g id="Node000004" class="node">
<title>Node4</title>
<g id="a_Node000004"><a xlink:href="utils_8h.html" target="_top" xlink:title="Utility functions for random number handling, etc.">
<polygon fill="white" stroke="#666666" points="856.75,-74 813.75,-74 813.75,-55 856.75,-55 856.75,-74"/>
<text text-anchor="middle" x="835.25" y="-62" font-family="Helvetica,sans-Serif" font-size="10.00">utils.h</text>
</a>
</g>
</g>
<!-- Node1&#45;&gt;Node4 -->
<g id="edge56_Node000001_Node000004" class="edge">
<title>Node1&#45;&gt;Node4</title>
<g id="a_edge56_Node000001_Node000004"><a xlink:title=" ">
<path fill="none" stroke="#63b8ff" d="M741.7,-282.76C590.07,-279.6 29.84,-266.1 4.25,-239 -1.55,-232.86 -1.15,-226.49 4.25,-220 109.04,-93.93 663.91,-70.23 803.4,-66.24"/>
<polygon fill="#63b8ff" stroke="#63b8ff" points="803.55,-69.74 813.45,-65.97 803.35,-62.74 803.55,-69.74"/>
</a>
</g>
</g>
<!-- Node13 -->
<g id="Node000013" class="node">
<title>Node13</title>
<g id="a_Node000013"><a xlink:href="neural__activations_8h.html" target="_top" xlink:title="Neural network activation functions.">
<polygon fill="white" stroke="#666666" points="1541.25,-184 1437.25,-184 1437.25,-165 1541.25,-165 1541.25,-184"/>
<text text-anchor="middle" x="1489.25" y="-172" font-family="Helvetica,sans-Serif" font-size="10.00">neural_activations.h</text>
</a>
</g>
</g>
<!-- Node1&#45;&gt;Node13 -->
<g id="edge35_Node000001_Node000013" class="edge">
<title>Node1&#45;&gt;Node13</title>
<g id="a_edge35_Node000001_Node000013"><a xlink:title=" ">
<path fill="none" stroke="#63b8ff" d="M817.02,-283.55C953.94,-283.38 1418.98,-279.8 1470.25,-239 1483.46,-228.48 1487.77,-209.15 1489.04,-194.57"/>
<polygon fill="#63b8ff" stroke="#63b8ff" points="1492.56,-194.31 1489.52,-184.16 1485.56,-193.99 1492.56,-194.31"/>
</a>
</g>
</g>
<!-- Node22 -->
<g id="Node000022" class="node">
<title>Node22</title>
<g id="a_Node000022"><a xlink:href="neural__layer__avgpool_8h.html" target="_top" xlink:title="An implementation of an average pooling layer.">
<polygon fill="white" stroke="#666666" points="273.25,-239 157.25,-239 157.25,-220 273.25,-220 273.25,-239"/>
<text text-anchor="middle" x="215.25" y="-227" font-family="Helvetica,sans-Serif" font-size="10.00">neural_layer_avgpool.h</text>
</a>
</g>
</g>
<!-- Node1&#45;&gt;Node22 -->
<g id="edge36_Node000001_Node000022" class="edge">
<title>Node1&#45;&gt;Node22</title>
<g id="a_edge36_Node000001_Node000022"><a xlink:title=" ">
<path fill="none" stroke="#63b8ff" d="M741.48,-280.6C659.92,-274.22 460.99,-258.13 283.39,-239.09"/>
<polygon fill="#63b8ff" stroke="#63b8ff" points="283.65,-235.59 273.34,-238 282.9,-242.55 283.65,-235.59"/>
</a>
</g>
</g>
<!-- Node23 -->
<g id="Node000023" class="node">
<title>Node23</title>
<g id="a_Node000023"><a xlink:href="neural__layer__connected_8h.html" target="_top" xlink:title="An implementation of a fully&#45;connected layer of perceptrons.">
<polygon fill="white" stroke="#666666" points="419.25,-239 291.25,-239 291.25,-220 419.25,-220 419.25,-239"/>
<text text-anchor="middle" x="355.25" y="-227" font-family="Helvetica,sans-Serif" font-size="10.00">neural_layer_connected.h</text>
</a>
</g>
</g>
<!-- Node1&#45;&gt;Node23 -->
<g id="edge38_Node000001_Node000023" class="edge">
<title>Node1&#45;&gt;Node23</title>
<g id="a_edge38_Node000001_Node000023"><a xlink:title=" ">
<path fill="none" stroke="#63b8ff" d="M741.62,-278.8C671.69,-270.05 520.52,-251.16 429.38,-239.77"/>
<polygon fill="#63b8ff" stroke="#63b8ff" points="429.75,-236.29 419.39,-238.52 428.88,-243.23 429.75,-236.29"/>
</a>
</g>
</g>
<!-- Node24 -->
<g id="Node000024" class="node">
<title>Node24</title>
<g id="a_Node000024"><a xlink:href="neural__layer__convolutional_8h.html" target="_top" xlink:title="An implementation of a 2D convolutional layer.">
<polygon fill="white" stroke="#666666" points="577.25,-239 437.25,-239 437.25,-220 577.25,-220 577.25,-239"/>
<text text-anchor="middle" x="507.25" y="-227" font-family="Helvetica,sans-Serif" font-size="10.00">neural_layer_convolutional.h</text>
</a>
</g>
</g>
<!-- Node1&#45;&gt;Node24 -->
<g id="edge40_Node000001_Node000024" class="edge">
<title>Node1&#45;&gt;Node24</title>
<g id="a_edge40_Node000001_Node000024"><a xlink:title=" ">
<path fill="none" stroke="#63b8ff" d="M741.71,-276.19C694.89,-267.06 614.5,-251.4 561.11,-241"/>
<polygon fill="#63b8ff" stroke="#63b8ff" points="561.63,-237.53 551.14,-239.05 560.29,-244.4 561.63,-237.53"/>
</a>
</g>
</g>
<!-- Node25 -->
<g id="Node000025" class="node">
<title>Node25</title>
<g id="a_Node000025"><a xlink:href="neural__layer__dropout_8h.html" target="_top" xlink:title="An implementation of a dropout layer.">
<polygon fill="white" stroke="#666666" points="710.75,-239 595.75,-239 595.75,-220 710.75,-220 710.75,-239"/>
<text text-anchor="middle" x="653.25" y="-227" font-family="Helvetica,sans-Serif" font-size="10.00">neural_layer_dropout.h</text>
</a>
</g>
</g>
<!-- Node1&#45;&gt;Node25 -->
<g id="edge42_Node000001_Node000025" class="edge">
<title>Node1&#45;&gt;Node25</title>
<g id="a_edge42_Node000001_Node000025"><a xlink:title=" ">
<path fill="none" stroke="#63b8ff" d="M759,-274.98C738.55,-266.38 706.72,-252.99 683.32,-243.15"/>
<polygon fill="#63b8ff" stroke="#63b8ff" points="684.44,-239.82 673.86,-239.17 681.72,-246.27 684.44,-239.82"/>
</a>
</g>
</g>
<!-- Node26 -->
<g id="Node000026" class="node">
<title>Node26</title>
<g id="a_Node000026"><a xlink:href="neural__layer__lstm_8h.html" target="_top" xlink:title="An implementation of a long short&#45;term memory layer.">
<polygon fill="white" stroke="#666666" points="829.75,-239 728.75,-239 728.75,-220 829.75,-220 829.75,-239"/>
<text text-anchor="middle" x="779.25" y="-227" font-family="Helvetica,sans-Serif" font-size="10.00">neural_layer_lstm.h</text>
</a>
</g>
</g>
<!-- Node1&#45;&gt;Node26 -->
<g id="edge44_Node000001_Node000026" class="edge">
<title>Node1&#45;&gt;Node26</title>
<g id="a_edge44_Node000001_Node000026"><a xlink:title=" ">
<path fill="none" stroke="#63b8ff" d="M779.25,-274.75C779.25,-267.8 779.25,-257.85 779.25,-249.13"/>
<polygon fill="#63b8ff" stroke="#63b8ff" points="782.75,-249.09 779.25,-239.09 775.75,-249.09 782.75,-249.09"/>
</a>
</g>
</g>
<!-- Node27 -->
<g id="Node000027" class="node">
<title>Node27</title>
<g id="a_Node000027"><a xlink:href="neural__layer__maxpool_8h.html" target="_top" xlink:title="An implementation of a 2D maxpooling layer.">
<polygon fill="white" stroke="#666666" points="966.75,-239 847.75,-239 847.75,-220 966.75,-220 966.75,-239"/>
<text text-anchor="middle" x="907.25" y="-227" font-family="Helvetica,sans-Serif" font-size="10.00">neural_layer_maxpool.h</text>
</a>
</g>
</g>
<!-- Node1&#45;&gt;Node27 -->
<g id="edge46_Node000001_Node000027" class="edge">
<title>Node1&#45;&gt;Node27</title>
<g id="a_edge46_Node000001_Node000027"><a xlink:title=" ">
<path fill="none" stroke="#63b8ff" d="M799.81,-274.98C820.68,-266.34 853.22,-252.87 877.02,-243.02"/>
<polygon fill="#63b8ff" stroke="#63b8ff" points="878.41,-246.23 886.31,-239.17 875.73,-239.76 878.41,-246.23"/>
</a>
</g>
</g>
<!-- Node28 -->
<g id="Node000028" class="node">
<title>Node28</title>
<g id="a_Node000028"><a xlink:href="neural__layer__noise_8h.html" target="_top" xlink:title="An implementation of a Gaussian noise adding layer.">
<polygon fill="white" stroke="#666666" points="1091.25,-239 985.25,-239 985.25,-220 1091.25,-220 1091.25,-239"/>
<text text-anchor="middle" x="1038.25" y="-227" font-family="Helvetica,sans-Serif" font-size="10.00">neural_layer_noise.h</text>
</a>
</g>
</g>
<!-- Node1&#45;&gt;Node28 -->
<g id="edge48_Node000001_Node000028" class="edge">
<title>Node1&#45;&gt;Node28</title>
<g id="a_edge48_Node000001_Node000028"><a xlink:title=" ">
<path fill="none" stroke="#63b8ff" d="M816.91,-275.79C861.67,-266.63 936.58,-251.3 986.7,-241.05"/>
<polygon fill="#63b8ff" stroke="#63b8ff" points="987.59,-244.44 996.68,-239.01 986.18,-237.58 987.59,-244.44"/>
</a>
</g>
</g>
<!-- Node29 -->
<g id="Node000029" class="node">
<title>Node29</title>
<g id="a_Node000029"><a xlink:href="neural__layer__recurrent_8h.html" target="_top" xlink:title="An implementation of a recurrent layer of perceptrons.">
<polygon fill="white" stroke="#666666" points="1230.75,-239 1109.75,-239 1109.75,-220 1230.75,-220 1230.75,-239"/>
<text text-anchor="middle" x="1170.25" y="-227" font-family="Helvetica,sans-Serif" font-size="10.00">neural_layer_recurrent.h</text>
</a>
</g>
</g>
<!-- Node1&#45;&gt;Node29 -->
<g id="edge50_Node000001_Node000029" class="edge">
<title>Node1&#45;&gt;Node29</title>
<g id="a_edge50_Node000001_Node000029"><a xlink:title=" ">
<path fill="none" stroke="#63b8ff" d="M817.09,-278.37C882.22,-269.54 1016.47,-251.34 1099.4,-240.1"/>
<polygon fill="#63b8ff" stroke="#63b8ff" points="1100.06,-243.55 1109.49,-238.74 1099.12,-236.61 1100.06,-243.55"/>
</a>
</g>
</g>
<!-- Node30 -->
<g id="Node000030" class="node">
<title>Node30</title>
<g id="a_Node000030"><a xlink:href="neural__layer__softmax_8h.html" target="_top" xlink:title="An implementation of a softmax layer.">
<polygon fill="white" stroke="#666666" points="1367.25,-239 1249.25,-239 1249.25,-220 1367.25,-220 1367.25,-239"/>
<text text-anchor="middle" x="1308.25" y="-227" font-family="Helvetica,sans-Serif" font-size="10.00">neural_layer_softmax.h</text>
</a>
</g>
</g>
<!-- Node1&#45;&gt;Node30 -->
<g id="edge52_Node000001_Node000030" class="edge">
<title>Node1&#45;&gt;Node30</title>
<g id="a_edge52_Node000001_Node000030"><a xlink:title=" ">
<path fill="none" stroke="#63b8ff" d="M816.93,-280.22C894.03,-273.44 1075.56,-257.08 1238.7,-239.14"/>
<polygon fill="#63b8ff" stroke="#63b8ff" points="1239.37,-242.59 1248.92,-238.02 1238.6,-235.63 1239.37,-242.59"/>
</a>
</g>
</g>
<!-- Node31 -->
<g id="Node000031" class="node">
<title>Node31</title>
<g id="a_Node000031"><a xlink:href="neural__layer__upsample_8h.html" target="_top" xlink:title="An implementation of a 2D upsampling layer.">
<polygon fill="white" stroke="#666666" points="138.75,-239 13.75,-239 13.75,-220 138.75,-220 138.75,-239"/>
<text text-anchor="middle" x="76.25" y="-227" font-family="Helvetica,sans-Serif" font-size="10.00">neural_layer_upsample.h</text>
</a>
</g>
</g>
<!-- Node1&#45;&gt;Node31 -->
<g id="edge54_Node000001_Node000031" class="edge">
<title>Node1&#45;&gt;Node31</title>
<g id="a_edge54_Node000001_Node000031"><a xlink:title=" ">
<path fill="none" stroke="#63b8ff" d="M741.5,-281.46C644.89,-276.11 380.56,-260.62 149.01,-239.03"/>
<polygon fill="#63b8ff" stroke="#63b8ff" points="149.34,-235.54 139.06,-238.09 148.69,-242.51 149.34,-235.54"/>
</a>
</g>
</g>
<!-- Node3 -->
<g id="Node000003" class="node">
<title>Node3</title>
<g id="a_Node000003"><a xlink:href="neural_8h.html" target="_top" xlink:title="An implementation of a multi&#45;layer perceptron neural network.">
<polygon fill="white" stroke="#666666" points="948.75,-129 897.75,-129 897.75,-110 948.75,-110 948.75,-129"/>
<text text-anchor="middle" x="923.25" y="-117" font-family="Helvetica,sans-Serif" font-size="10.00">neural.h</text>
</a>
</g>
</g>
<!-- Node2&#45;&gt;Node3 -->
<g id="edge2_Node000002_Node000003" class="edge">
<title>Node2&#45;&gt;Node3</title>
<g id="a_edge2_Node000002_Node000003"><a xlink:title=" ">
<path fill="none" stroke="#63b8ff" d="M1385.67,-220.38C1292.18,-200.19 1050.12,-147.9 958.81,-128.18"/>
<polygon fill="#63b8ff" stroke="#63b8ff" points="959.46,-124.74 948.94,-126.05 957.98,-131.58 959.46,-124.74"/>
</a>
</g>
</g>
<!-- Node2&#45;&gt;Node13 -->
<g id="edge15_Node000002_Node000013" class="edge">
<title>Node2&#45;&gt;Node13</title>
<g id="a_edge15_Node000002_Node000013"><a xlink:title=" ">
<path fill="none" stroke="#63b8ff" d="M1433.85,-219.98C1443.7,-212.07 1458.6,-200.11 1470.46,-190.58"/>
<polygon fill="#63b8ff" stroke="#63b8ff" points="1472.85,-193.16 1478.45,-184.17 1468.46,-187.7 1472.85,-193.16"/>
</a>
</g>
</g>
<!-- Node14 -->
<g id="Node000014" class="node">
<title>Node14</title>
<g id="a_Node000014"><a xlink:href="neural__layer_8h.html" target="_top" xlink:title="Interface for neural network layers.">
<polygon fill="white" stroke="#666666" points="867.75,-184 790.75,-184 790.75,-165 867.75,-165 867.75,-184"/>
<text text-anchor="middle" x="829.25" y="-172" font-family="Helvetica,sans-Serif" font-size="10.00">neural_layer.h</text>
</a>
</g>
</g>
<!-- Node2&#45;&gt;Node14 -->
<g id="edge17_Node000002_Node000014" class="edge">
<title>Node2&#45;&gt;Node14</title>
<g id="a_edge17_Node000002_Node000014"><a xlink:title=" ">
<path fill="none" stroke="#63b8ff" d="M1385.59,-221.35C1382.43,-220.86 1379.29,-220.4 1376.25,-220 1193.22,-196.06 973.94,-182.87 878.1,-177.87"/>
<polygon fill="#63b8ff" stroke="#63b8ff" points="878.02,-174.36 867.85,-177.34 877.66,-181.35 878.02,-174.36"/>
</a>
</g>
</g>
<!-- Node16 -->
<g id="Node000016" class="node">
<title>Node16</title>
<g id="a_Node000016"><a xlink:href="prediction_8h.html" target="_top" xlink:title="Interface for classifier predictions.">
<polygon fill="white" stroke="#666666" points="1356.75,-184 1289.75,-184 1289.75,-165 1356.75,-165 1356.75,-184"/>
<text text-anchor="middle" x="1323.25" y="-172" font-family="Helvetica,sans-Serif" font-size="10.00">prediction.h</text>
</a>
</g>
</g>
<!-- Node2&#45;&gt;Node16 -->
<g id="edge21_Node000002_Node000016" class="edge">
<title>Node2&#45;&gt;Node16</title>
<g id="a_edge21_Node000002_Node000016"><a xlink:title=" ">
<path fill="none" stroke="#63b8ff" d="M1407.18,-219.98C1391.38,-211.61 1367.03,-198.7 1348.62,-188.95"/>
<polygon fill="#63b8ff" stroke="#63b8ff" points="1350.08,-185.76 1339.61,-184.17 1346.8,-191.95 1350.08,-185.76"/>
</a>
</g>
</g>
<!-- Node17 -->
<g id="Node000017" class="node">
<title>Node17</title>
<g id="a_Node000017"><a xlink:href="xcsf_8h.html" target="_top" xlink:title="XCSF data structures.">
<polygon fill="white" stroke="#666666" points="1252.25,-129 1208.25,-129 1208.25,-110 1252.25,-110 1252.25,-129"/>
<text text-anchor="middle" x="1230.25" y="-117" font-family="Helvetica,sans-Serif" font-size="10.00">xcsf.h</text>
</a>
</g>
</g>
<!-- Node2&#45;&gt;Node17 -->
<g id="edge34_Node000002_Node000017" class="edge">
<title>Node2&#45;&gt;Node17</title>
<g id="a_edge34_Node000002_Node000017"><a xlink:title=" ">
<path fill="none" stroke="#63b8ff" d="M1387.86,-219.93C1351.78,-210.76 1298.69,-195.91 1281.25,-184 1263.79,-172.08 1249.33,-152.43 1240.32,-138.14"/>
<polygon fill="#63b8ff" stroke="#63b8ff" points="1243.13,-136.03 1234.98,-129.26 1237.14,-139.64 1243.13,-136.03"/>
</a>
</g>
</g>
<!-- Node3&#45;&gt;Node4 -->
<g id="edge3_Node000003_Node000004" class="edge">
<title>Node3&#45;&gt;Node4</title>
<g id="a_edge3_Node000003_Node000004"><a xlink:title=" ">
<path fill="none" stroke="#63b8ff" d="M909.11,-109.98C895.46,-101.77 874.56,-89.18 858.47,-79.49"/>
<polygon fill="#63b8ff" stroke="#63b8ff" points="860.02,-76.33 849.64,-74.17 856.4,-82.33 860.02,-76.33"/>
</a>
</g>
</g>
<!-- Node8 -->
<g id="Node000008" class="node">
<title>Node8</title>
<g id="a_Node000008"><a xlink:title=" ">
<polygon fill="#e0e0e0" stroke="#999999" points="1014.25,-19 958.25,-19 958.25,0 1014.25,0 1014.25,-19"/>
<text text-anchor="middle" x="986.25" y="-7" font-family="Helvetica,sans-Serif" font-size="10.00">stdbool.h</text>
</a>
</g>
</g>
<!-- Node3&#45;&gt;Node8 -->
<g id="edge10_Node000003_Node000008" class="edge">
<title>Node3&#45;&gt;Node8</title>
<g id="a_edge10_Node000003_Node000008"><a xlink:title=" ">
<path fill="none" stroke="#63b8ff" d="M917.59,-109.69C910.14,-96.84 899.09,-72.6 909.25,-55 917.79,-40.19 933.36,-29.87 948.26,-22.92"/>
<polygon fill="#63b8ff" stroke="#63b8ff" points="950.05,-25.96 957.89,-18.83 947.31,-19.52 950.05,-25.96"/>
</a>
</g>
</g>
<!-- Node9 -->
<g id="Node000009" class="node">
<title>Node9</title>
<g id="a_Node000009"><a xlink:title=" ">
<polygon fill="#e0e0e0" stroke="#999999" points="808.25,-19 762.25,-19 762.25,0 808.25,0 808.25,-19"/>
<text text-anchor="middle" x="785.25" y="-7" font-family="Helvetica,sans-Serif" font-size="10.00">stdio.h</text>
</a>
</g>
</g>
<!-- Node3&#45;&gt;Node9 -->
<g id="edge12_Node000003_Node000009" class="edge">
<title>Node3&#45;&gt;Node9</title>
<g id="a_edge12_Node000003_Node000009"><a xlink:title=" ">
<path fill="none" stroke="#63b8ff" d="M897.65,-111.69C867.01,-103.06 818.19,-87.68 805.25,-74 793.72,-61.81 788.83,-43.02 786.76,-29.04"/>
<polygon fill="#63b8ff" stroke="#63b8ff" points="790.24,-28.62 785.64,-19.08 783.28,-29.41 790.24,-28.62"/>
</a>
</g>
</g>
<!-- Node10 -->
<g id="Node000010" class="node">
<title>Node10</title>
<g id="a_Node000010"><a xlink:title=" ">
<polygon fill="#e0e0e0" stroke="#999999" points="1080.25,-19 1032.25,-19 1032.25,0 1080.25,0 1080.25,-19"/>
<text text-anchor="middle" x="1056.25" y="-7" font-family="Helvetica,sans-Serif" font-size="10.00">stdlib.h</text>
</a>
</g>
</g>
<!-- Node3&#45;&gt;Node10 -->
<g id="edge13_Node000003_Node000010" class="edge">
<title>Node3&#45;&gt;Node10</title>
<g id="a_edge13_Node000003_Node000010"><a xlink:title=" ">
<path fill="none" stroke="#63b8ff" d="M923.66,-109.95C924.76,-96.55 928.75,-70.56 943.25,-55 954.37,-43.07 993.34,-29.3 1022.42,-20.28"/>
<polygon fill="#63b8ff" stroke="#63b8ff" points="1023.69,-23.55 1032.24,-17.29 1021.65,-16.85 1023.69,-23.55"/>
</a>
</g>
</g>
<!-- Node11 -->
<g id="Node000011" class="node">
<title>Node11</title>
<g id="a_Node000011"><a xlink:title=" ">
<polygon fill="#e0e0e0" stroke="#999999" points="1067.75,-74 1018.75,-74 1018.75,-55 1067.75,-55 1067.75,-74"/>
<text text-anchor="middle" x="1043.25" y="-62" font-family="Helvetica,sans-Serif" font-size="10.00">stdint.h</text>
</a>
</g>
</g>
<!-- Node3&#45;&gt;Node11 -->
<g id="edge11_Node000003_Node000011" class="edge">
<title>Node3&#45;&gt;Node11</title>
<g id="a_edge11_Node000003_Node000011"><a xlink:title=" ">
<path fill="none" stroke="#63b8ff" d="M942.53,-109.98C961.92,-101.42 992.05,-88.11 1014.31,-78.28"/>
<polygon fill="#63b8ff" stroke="#63b8ff" points="1015.88,-81.41 1023.62,-74.17 1013.06,-75.01 1015.88,-81.41"/>
</a>
</g>
</g>
<!-- Node12 -->
<g id="Node000012" class="node">
<title>Node12</title>
<g id="a_Node000012"><a xlink:title=" ">
<polygon fill="#e0e0e0" stroke="#999999" points="1000.75,-74 951.75,-74 951.75,-55 1000.75,-55 1000.75,-74"/>
<text text-anchor="middle" x="976.25" y="-62" font-family="Helvetica,sans-Serif" font-size="10.00">string.h</text>
</a>
</g>
</g>
<!-- Node3&#45;&gt;Node12 -->
<g id="edge14_Node000003_Node000012" class="edge">
<title>Node3&#45;&gt;Node12</title>
<g id="a_edge14_Node000003_Node000012"><a xlink:title=" ">
<path fill="none" stroke="#63b8ff" d="M932,-109.75C939.72,-102.03 951.15,-90.6 960.46,-81.28"/>
<polygon fill="#63b8ff" stroke="#63b8ff" points="963.06,-83.64 967.66,-74.09 958.11,-78.69 963.06,-83.64"/>
</a>
</g>
</g>
<!-- Node5 -->
<g id="Node000005" class="node">
<title>Node5</title>
<g id="a_Node000005"><a xlink:title=" ">
<polygon fill="#e0e0e0" stroke="#999999" points="940.25,-19 826.25,-19 826.25,0 940.25,0 940.25,-19"/>
<text text-anchor="middle" x="883.25" y="-7" font-family="Helvetica,sans-Serif" font-size="10.00">../lib/cJSON/cJSON.h</text>
</a>
</g>
</g>
<!-- Node4&#45;&gt;Node5 -->
<g id="edge4_Node000004_Node000005" class="edge">
<title>Node4&#45;&gt;Node5</title>
<g id="a_edge4_Node000004_Node000005"><a xlink:title=" ">
<path fill="none" stroke="#63b8ff" d="M843.17,-54.75C850.09,-47.11 860.31,-35.82 868.7,-26.56"/>
<polygon fill="#63b8ff" stroke="#63b8ff" points="871.35,-28.85 875.47,-19.09 866.16,-24.15 871.35,-28.85"/>
</a>
</g>
</g>
<!-- Node6 -->
<g id="Node000006" class="node">
<title>Node6</title>
<g id="a_Node000006"><a xlink:title=" ">
<polygon fill="#e0e0e0" stroke="#999999" points="743.75,-19 630.75,-19 630.75,0 743.75,0 743.75,-19"/>
<text text-anchor="middle" x="687.25" y="-7" font-family="Helvetica,sans-Serif" font-size="10.00">../lib/dSFMT/dSFMT.h</text>
</a>
</g>
</g>
<!-- Node4&#45;&gt;Node6 -->
<g id="edge5_Node000004_Node000006" class="edge">
<title>Node4&#45;&gt;Node6</title>
<g id="a_edge5_Node000004_Node000006"><a xlink:title=" ">
<path fill="none" stroke="#63b8ff" d="M813.73,-55.79C789.34,-47.06 749.3,-32.72 720.8,-22.52"/>
<polygon fill="#63b8ff" stroke="#63b8ff" points="721.85,-19.17 711.25,-19.1 719.49,-25.76 721.85,-19.17"/>
</a>
</g>
</g>
<!-- Node7 -->
<g id="Node000007" class="node">
<title>Node7</title>
<g id="a_Node000007"><a xlink:title=" ">
<polygon fill="#e0e0e0" stroke="#999999" points="1505.75,-19 1458.75,-19 1458.75,0 1505.75,0 1505.75,-19"/>
<text text-anchor="middle" x="1482.25" y="-7" font-family="Helvetica,sans-Serif" font-size="10.00">math.h</text>
</a>
</g>
</g>
<!-- Node4&#45;&gt;Node7 -->
<g id="edge6_Node000004_Node000007" class="edge">
<title>Node4&#45;&gt;Node7</title>
<g id="a_edge6_Node000004_Node000007"><a xlink:title=" ">
<path fill="none" stroke="#63b8ff" d="M856.78,-61.74C951.61,-53.97 1332.54,-22.76 1448.55,-13.26"/>
<polygon fill="#63b8ff" stroke="#63b8ff" points="1448.94,-16.74 1458.62,-12.44 1448.37,-9.76 1448.94,-16.74"/>
</a>
</g>
</g>
<!-- Node4&#45;&gt;Node8 -->
<g id="edge7_Node000004_Node000008" class="edge">
<title>Node4&#45;&gt;Node8</title>
<g id="a_edge7_Node000004_Node000008"><a xlink:title=" ">
<path fill="none" stroke="#63b8ff" d="M856.88,-55.91C881.76,-47.18 922.91,-32.73 952.12,-22.48"/>
<polygon fill="#63b8ff" stroke="#63b8ff" points="953.63,-25.66 961.9,-19.05 951.31,-19.05 953.63,-25.66"/>
</a>
</g>
</g>
<!-- Node4&#45;&gt;Node9 -->
<g id="edge8_Node000004_Node000009" class="edge">
<title>Node4&#45;&gt;Node9</title>
<g id="a_edge8_Node000004_Node000009"><a xlink:title=" ">
<path fill="none" stroke="#63b8ff" d="M826.99,-54.75C819.78,-47.11 809.14,-35.82 800.4,-26.56"/>
<polygon fill="#63b8ff" stroke="#63b8ff" points="802.76,-23.96 793.35,-19.09 797.67,-28.76 802.76,-23.96"/>
</a>
</g>
</g>
<!-- Node4&#45;&gt;Node10 -->
<g id="edge9_Node000004_Node000010" class="edge">
<title>Node4&#45;&gt;Node10</title>
<g id="a_edge9_Node000004_Node000010"><a xlink:title=" ">
<path fill="none" stroke="#63b8ff" d="M856.99,-58.5C890.33,-50.8 956.31,-35.44 1022,-19.27"/>
<polygon fill="#63b8ff" stroke="#63b8ff" points="1023.24,-22.57 1032.11,-16.78 1021.56,-15.77 1023.24,-22.57"/>
</a>
</g>
</g>
<!-- Node13&#45;&gt;Node7 -->
<g id="edge16_Node000013_Node000007" class="edge">
<title>Node13&#45;&gt;Node7</title>
<g id="a_edge16_Node000013_Node000007"><a xlink:title=" ">
<path fill="none" stroke="#63b8ff" d="M1488.87,-164.74C1487.78,-139.31 1484.59,-65.08 1483.07,-29.69"/>
<polygon fill="#63b8ff" stroke="#63b8ff" points="1486.55,-29.15 1482.63,-19.31 1479.56,-29.45 1486.55,-29.15"/>
</a>
</g>
</g>
<!-- Node14&#45;&gt;Node3 -->
<g id="edge18_Node000014_Node000003" class="edge">
<title>Node14&#45;&gt;Node3</title>
<g id="a_edge18_Node000014_Node000003"><a xlink:title=" ">
<path fill="none" stroke="#63b8ff" d="M844.35,-164.98C859.06,-156.69 881.67,-143.94 898.92,-134.22"/>
<polygon fill="#63b8ff" stroke="#63b8ff" points="900.88,-137.13 907.87,-129.17 897.44,-131.03 900.88,-137.13"/>
</a>
</g>
</g>
<!-- Node15 -->
<g id="Node000015" class="node">
<title>Node15</title>
<g id="a_Node000015"><a xlink:href="neural__layer__args_8h.html" target="_top" xlink:title="Functions operating on neural network arguments/constants.">
<polygon fill="white" stroke="#666666" points="879.75,-129 778.75,-129 778.75,-110 879.75,-110 879.75,-129"/>
<text text-anchor="middle" x="829.25" y="-117" font-family="Helvetica,sans-Serif" font-size="10.00">neural_layer_args.h</text>
</a>
</g>
</g>
<!-- Node14&#45;&gt;Node15 -->
<g id="edge19_Node000014_Node000015" class="edge">
<title>Node14&#45;&gt;Node15</title>
<g id="a_edge19_Node000014_Node000015"><a xlink:title=" ">
<path fill="none" stroke="#63b8ff" d="M829.25,-164.75C829.25,-157.8 829.25,-147.85 829.25,-139.13"/>
<polygon fill="#63b8ff" stroke="#63b8ff" points="832.75,-139.09 829.25,-129.09 825.75,-139.09 832.75,-139.09"/>
</a>
</g>
</g>
<!-- Node15&#45;&gt;Node4 -->
<g id="edge20_Node000015_Node000004" class="edge">
<title>Node15&#45;&gt;Node4</title>
<g id="a_edge20_Node000015_Node000004"><a xlink:title=" ">
<path fill="none" stroke="#63b8ff" d="M830.24,-109.75C831.03,-102.8 832.15,-92.85 833.14,-84.13"/>
<polygon fill="#63b8ff" stroke="#63b8ff" points="836.63,-84.42 834.28,-74.09 829.67,-83.63 836.63,-84.42"/>
</a>
</g>
</g>
<!-- Node16&#45;&gt;Node17 -->
<g id="edge22_Node000016_Node000017" class="edge">
<title>Node16&#45;&gt;Node17</title>
<g id="a_edge22_Node000016_Node000017"><a xlink:title=" ">
<path fill="none" stroke="#63b8ff" d="M1308.31,-164.98C1293.75,-156.69 1271.38,-143.94 1254.31,-134.22"/>
<polygon fill="#63b8ff" stroke="#63b8ff" points="1255.88,-131.08 1245.46,-129.17 1252.42,-137.16 1255.88,-131.08"/>
</a>
</g>
</g>
<!-- Node17&#45;&gt;Node4 -->
<g id="edge23_Node000017_Node000004" class="edge">
<title>Node17&#45;&gt;Node4</title>
<g id="a_edge23_Node000017_Node000004"><a xlink:title=" ">
<path fill="none" stroke="#63b8ff" d="M1208.16,-115.54C1141.91,-106.65 944.61,-80.17 867.06,-69.77"/>
<polygon fill="#63b8ff" stroke="#63b8ff" points="867.31,-66.27 856.93,-68.41 866.38,-73.21 867.31,-66.27"/>
</a>
</g>
</g>
<!-- Node17&#45;&gt;Node7 -->
<g id="edge28_Node000017_Node000007" class="edge">
<title>Node17&#45;&gt;Node7</title>
<g id="a_edge28_Node000017_Node000007"><a xlink:title=" ">
<path fill="none" stroke="#63b8ff" d="M1252.47,-117.14C1304.52,-113.52 1432.3,-101.94 1463.25,-74 1475.65,-62.8 1480.1,-43.88 1481.62,-29.6"/>
<polygon fill="#63b8ff" stroke="#63b8ff" points="1485.13,-29.59 1482.31,-19.38 1478.15,-29.12 1485.13,-29.59"/>
</a>
</g>
</g>
<!-- Node17&#45;&gt;Node8 -->
<g id="edge29_Node000017_Node000008" class="edge">
<title>Node17&#45;&gt;Node8</title>
<g id="a_edge29_Node000017_Node000008"><a xlink:title=" ">
<path fill="none" stroke="#63b8ff" d="M1214.52,-109.82C1186.91,-94.64 1130.73,-64.04 1110.25,-55 1081.74,-42.42 1048.46,-30.63 1023.56,-22.35"/>
<polygon fill="#63b8ff" stroke="#63b8ff" points="1024.37,-18.93 1013.78,-19.13 1022.18,-25.58 1024.37,-18.93"/>
</a>
</g>
</g>
<!-- Node17&#45;&gt;Node9 -->
<g id="edge31_Node000017_Node000009" class="edge">
<title>Node17&#45;&gt;Node9</title>
<g id="a_edge31_Node000017_Node000009"><a xlink:title=" ">
<path fill="none" stroke="#63b8ff" d="M1208.12,-111.53C1183.69,-103.56 1143.44,-89.57 1110.25,-74 1094.93,-66.81 1093.26,-60.48 1077.25,-55 969.9,-18.23 933.6,-40.71 818.49,-18.99"/>
<polygon fill="#63b8ff" stroke="#63b8ff" points="819.08,-15.54 808.59,-17.05 817.73,-22.41 819.08,-15.54"/>
</a>
</g>
</g>
<!-- Node17&#45;&gt;Node10 -->
<g id="edge32_Node000017_Node000010" class="edge">
<title>Node17&#45;&gt;Node10</title>
<g id="a_edge32_Node000017_Node000010"><a xlink:title=" ">
<path fill="none" stroke="#63b8ff" d="M1220.64,-109.98C1205.8,-97.07 1176.1,-72.26 1148.25,-55 1128.43,-42.72 1104.72,-31.33 1086.34,-23.14"/>
<polygon fill="#63b8ff" stroke="#63b8ff" points="1087.56,-19.85 1076.99,-19.05 1084.75,-26.27 1087.56,-19.85"/>
</a>
</g>
</g>
<!-- Node17&#45;&gt;Node11 -->
<g id="edge30_Node000017_Node000011" class="edge">
<title>Node17&#45;&gt;Node11</title>
<g id="a_edge30_Node000017_Node000011"><a xlink:title=" ">
<path fill="none" stroke="#63b8ff" d="M1208.06,-112.21C1175.87,-103.09 1115.92,-86.1 1077.88,-75.32"/>
<polygon fill="#63b8ff" stroke="#63b8ff" points="1078.35,-71.81 1067.77,-72.45 1076.44,-78.55 1078.35,-71.81"/>
</a>
</g>
</g>
<!-- Node17&#45;&gt;Node12 -->
<g id="edge33_Node000017_Node000012" class="edge">
<title>Node17&#45;&gt;Node12</title>
<g id="a_edge33_Node000017_Node000012"><a xlink:title=" ">
<path fill="none" stroke="#63b8ff" d="M1208.01,-114.35C1169.85,-107.15 1089.25,-91.62 1011.11,-74.11"/>
<polygon fill="#63b8ff" stroke="#63b8ff" points="1011.62,-70.64 1001.1,-71.85 1010.08,-77.47 1011.62,-70.64"/>
</a>
</g>
</g>
<!-- Node18 -->
<g id="Node000018" class="node">
<title>Node18</title>
<g id="a_Node000018"><a xlink:title=" ">
<polygon fill="#e0e0e0" stroke="#999999" points="1391.75,-74 1344.75,-74 1344.75,-55 1391.75,-55 1391.75,-74"/>
<text text-anchor="middle" x="1368.25" y="-62" font-family="Helvetica,sans-Serif" font-size="10.00">errno.h</text>
</a>
</g>
</g>
<!-- Node17&#45;&gt;Node18 -->
<g id="edge24_Node000017_Node000018" class="edge">
<title>Node17&#45;&gt;Node18</title>
<g id="a_edge24_Node000017_Node000018"><a xlink:title=" ">
<path fill="none" stroke="#63b8ff" d="M1252.42,-109.98C1275.02,-101.3 1310.31,-87.75 1336,-77.88"/>
<polygon fill="#63b8ff" stroke="#63b8ff" points="1337.59,-81.02 1345.67,-74.17 1335.08,-74.49 1337.59,-81.02"/>
</a>
</g>
</g>
<!-- Node19 -->
<g id="Node000019" class="node">
<title>Node19</title>
<g id="a_Node000019"><a xlink:title=" ">
<polygon fill="#e0e0e0" stroke="#999999" points="1454.25,-74 1410.25,-74 1410.25,-55 1454.25,-55 1454.25,-74"/>
<text text-anchor="middle" x="1432.25" y="-62" font-family="Helvetica,sans-Serif" font-size="10.00">float.h</text>
</a>
</g>
</g>
<!-- Node17&#45;&gt;Node19 -->
<g id="edge25_Node000017_Node000019" class="edge">
<title>Node17&#45;&gt;Node19</title>
<g id="a_edge25_Node000017_Node000019"><a xlink:title=" ">
<path fill="none" stroke="#63b8ff" d="M1252.41,-112.83C1283.31,-104.9 1341.36,-89.94 1400.38,-74.21"/>
<polygon fill="#63b8ff" stroke="#63b8ff" points="1401.48,-77.53 1410.24,-71.57 1399.68,-70.77 1401.48,-77.53"/>
</a>
</g>
</g>
<!-- Node20 -->
<g id="Node000020" class="node">
<title>Node20</title>
<g id="a_Node000020"><a xlink:title=" ">
<polygon fill="#e0e0e0" stroke="#999999" points="1259.75,-74 1200.75,-74 1200.75,-55 1259.75,-55 1259.75,-74"/>
<text text-anchor="middle" x="1230.25" y="-62" font-family="Helvetica,sans-Serif" font-size="10.00">inttypes.h</text>
</a>
</g>
</g>
<!-- Node17&#45;&gt;Node20 -->
<g id="edge26_Node000017_Node000020" class="edge">
<title>Node17&#45;&gt;Node20</title>
<g id="a_edge26_Node000017_Node000020"><a xlink:title=" ">
<path fill="none" stroke="#63b8ff" d="M1230.25,-109.75C1230.25,-102.8 1230.25,-92.85 1230.25,-84.13"/>
<polygon fill="#63b8ff" stroke="#63b8ff" points="1233.75,-84.09 1230.25,-74.09 1226.75,-84.09 1233.75,-84.09"/>
</a>
</g>
</g>
<!-- Node21 -->
<g id="Node000021" class="node">
<title>Node21</title>
<g id="a_Node000021"><a xlink:title=" ">
<polygon fill="#e0e0e0" stroke="#999999" points="1326.25,-74 1278.25,-74 1278.25,-55 1326.25,-55 1326.25,-74"/>
<text text-anchor="middle" x="1302.25" y="-62" font-family="Helvetica,sans-Serif" font-size="10.00">limits.h</text>
</a>
</g>
</g>
<!-- Node17&#45;&gt;Node21 -->
<g id="edge27_Node000017_Node000021" class="edge">
<title>Node17&#45;&gt;Node21</title>
<g id="a_edge27_Node000017_Node000021"><a xlink:title=" ">
<path fill="none" stroke="#63b8ff" d="M1241.82,-109.98C1252.67,-102 1269.13,-89.88 1282.13,-80.31"/>
<polygon fill="#63b8ff" stroke="#63b8ff" points="1284.49,-82.92 1290.47,-74.17 1280.34,-77.28 1284.49,-82.92"/>
</a>
</g>
</g>
<!-- Node22&#45;&gt;Node14 -->
<g id="edge37_Node000022_Node000014" class="edge">
<title>Node22&#45;&gt;Node14</title>
<g id="a_edge37_Node000022_Node000014"><a xlink:title=" ">
<path fill="none" stroke="#63b8ff" d="M273.33,-220.97C276.35,-220.63 279.33,-220.3 282.25,-220 465.85,-200.9 684.84,-185.22 780.5,-178.73"/>
<polygon fill="#63b8ff" stroke="#63b8ff" points="780.99,-182.2 790.73,-178.03 780.52,-175.22 780.99,-182.2"/>
</a>
</g>
</g>
<!-- Node23&#45;&gt;Node14 -->
<g id="edge39_Node000023_Node000014" class="edge">
<title>Node23&#45;&gt;Node14</title>
<g id="a_edge39_Node000023_Node000014"><a xlink:title=" ">
<path fill="none" stroke="#63b8ff" d="M419.34,-221.02C422.35,-220.67 425.33,-220.33 428.25,-220 555.21,-205.56 704.84,-189.11 780.37,-180.84"/>
<polygon fill="#63b8ff" stroke="#63b8ff" points="780.97,-184.29 790.53,-179.73 780.21,-177.34 780.97,-184.29"/>
</a>
</g>
</g>
<!-- Node24&#45;&gt;Node14 -->
<g id="edge41_Node000024_Node000014" class="edge">
<title>Node24&#45;&gt;Node14</title>
<g id="a_edge41_Node000024_Node000014"><a xlink:title=" ">
<path fill="none" stroke="#63b8ff" d="M558.98,-219.98C619.99,-209.94 720.62,-193.38 780.36,-183.55"/>
<polygon fill="#63b8ff" stroke="#63b8ff" points="781,-186.99 790.3,-181.91 779.86,-180.08 781,-186.99"/>
</a>
</g>
</g>
<!-- Node25&#45;&gt;Node14 -->
<g id="edge43_Node000025_Node000014" class="edge">
<title>Node25&#45;&gt;Node14</title>
<g id="a_edge43_Node000025_Node000014"><a xlink:title=" ">
<path fill="none" stroke="#63b8ff" d="M681.53,-219.98C711.2,-211.05 758.04,-196.94 791,-187.02"/>
<polygon fill="#63b8ff" stroke="#63b8ff" points="792.18,-190.32 800.75,-184.08 790.16,-183.61 792.18,-190.32"/>
</a>
</g>
</g>
<!-- Node26&#45;&gt;Node14 -->
<g id="edge45_Node000026_Node000014" class="edge">
<title>Node26&#45;&gt;Node14</title>
<g id="a_edge45_Node000026_Node000014"><a xlink:title=" ">
<path fill="none" stroke="#63b8ff" d="M787.5,-219.75C794.71,-212.11 805.36,-200.82 814.09,-191.56"/>
<polygon fill="#63b8ff" stroke="#63b8ff" points="816.83,-193.76 821.15,-184.09 811.74,-188.96 816.83,-193.76"/>
</a>
</g>
</g>
<!-- Node27&#45;&gt;Node14 -->
<g id="edge47_Node000027_Node000014" class="edge">
<title>Node27&#45;&gt;Node14</title>
<g id="a_edge47_Node000027_Node000014"><a xlink:title=" ">
<path fill="none" stroke="#63b8ff" d="M894.72,-219.98C882.85,-211.92 864.78,-199.65 850.64,-190.03"/>
<polygon fill="#63b8ff" stroke="#63b8ff" points="852.25,-186.9 842.01,-184.17 848.31,-192.69 852.25,-186.9"/>
</a>
</g>
</g>
<!-- Node28&#45;&gt;Node14 -->
<g id="edge49_Node000028_Node000014" class="edge">
<title>Node28&#45;&gt;Node14</title>
<g id="a_edge49_Node000028_Node000014"><a xlink:title=" ">
<path fill="none" stroke="#63b8ff" d="M1004.67,-219.98C968.9,-210.91 912.13,-196.52 872.91,-186.57"/>
<polygon fill="#63b8ff" stroke="#63b8ff" points="873.64,-183.15 863.09,-184.08 871.92,-189.93 873.64,-183.15"/>
</a>
</g>
</g>
<!-- Node29&#45;&gt;Node14 -->
<g id="edge51_Node000029_Node000014" class="edge">
<title>Node29&#45;&gt;Node14</title>
<g id="a_edge51_Node000029_Node000014"><a xlink:title=" ">
<path fill="none" stroke="#63b8ff" d="M1115.46,-219.98C1049.83,-209.78 940.89,-192.85 878.04,-183.08"/>
<polygon fill="#63b8ff" stroke="#63b8ff" points="878.41,-179.6 867.99,-181.52 877.34,-186.52 878.41,-179.6"/>
</a>
</g>
</g>
<!-- Node30&#45;&gt;Node14 -->
<g id="edge53_Node000030_Node000014" class="edge">
<title>Node30&#45;&gt;Node14</title>
<g id="a_edge53_Node000030_Node000014"><a xlink:title=" ">
<path fill="none" stroke="#63b8ff" d="M1248.92,-221.03C1245.99,-220.67 1243.08,-220.33 1240.25,-220 1109.52,-204.75 955.19,-188.52 878.15,-180.53"/>
<polygon fill="#63b8ff" stroke="#63b8ff" points="878.11,-177.01 867.8,-179.46 877.39,-183.97 878.11,-177.01"/>
</a>
</g>
</g>
<!-- Node31&#45;&gt;Node14 -->
<g id="edge55_Node000031_Node000014" class="edge">
<title>Node31&#45;&gt;Node14</title>
<g id="a_edge55_Node000031_Node000014"><a xlink:title=" ">
<path fill="none" stroke="#63b8ff" d="M139.06,-220.89C142.16,-220.57 145.24,-220.28 148.25,-220 384.56,-198.34 667.95,-183.34 780.11,-177.83"/>
<polygon fill="#63b8ff" stroke="#63b8ff" points="780.6,-181.31 790.42,-177.33 780.26,-174.32 780.6,-181.31"/>
</a>
</g>
</g>
</g>
</svg>
