<?xml version="1.0" encoding="UTF-8" standalone="no"?>
<!DOCTYPE svg PUBLIC "-//W3C//DTD SVG 1.1//EN"
 "http://www.w3.org/Graphics/SVG/1.1/DTD/svg11.dtd">
<!-- Generated by graphviz version 2.43.0 (0)
 -->
<!-- Title: pred_param_save Pages: 1 -->
<svg width="355pt" height="27pt"
 viewBox="0.00 0.00 355.00 27.00" xmlns="http://www.w3.org/2000/svg" xmlns:xlink="http://www.w3.org/1999/xlink">
<g id="graph0" class="graph" transform="scale(1 1) rotate(0) translate(4 23)">
<title>pred_param_save</title>
<!-- Node1 -->
<g id="Node000001" class="node">
<title>Node1</title>
<g id="a_Node000001"><a xlink:title="Saves prediction parameters.">
<polygon fill="#999999" stroke="#666666" points="94,-19 0,-19 0,0 94,0 94,-19"/>
<text text-anchor="middle" x="47" y="-7" font-family="Helvetica,sans-Serif" font-size="10.00">pred_param_save</text>
</a>
</g>
</g>
<!-- Node2 -->
<g id="Node000002" class="node">
<title>Node2</title>
<g id="a_Node000002"><a xlink:href="neural__layer__args_8c.html#a48c9d23bdc9f7694e2ef4c0a5dd2f59a" target="_top" xlink:title="Saves neural network layer parameters.">
<polygon fill="white" stroke="#666666" points="218,-19 130,-19 130,0 218,0 218,-19"/>
<text text-anchor="middle" x="174" y="-7" font-family="Helvetica,sans-Serif" font-size="10.00">layer_args_save</text>
</a>
</g>
</g>
<!-- Node1&#45;&gt;Node2 -->
<g id="edge1_Node000001_Node000002" class="edge">
<title>Node1&#45;&gt;Node2</title>
<g id="a_edge1_Node000001_Node000002"><a xlink:title=" ">
<path fill="none" stroke="#63b8ff" d="M94.19,-9.5C102.5,-9.5 111.22,-9.5 119.7,-9.5"/>
<polygon fill="#63b8ff" stroke="#63b8ff" points="119.9,-13 129.9,-9.5 119.9,-6 119.9,-13"/>
</a>
</g>
</g>
<!-- Node3 -->
<g id="Node000003" class="node">
<title>Node3</title>
<g id="a_Node000003"><a xlink:href="neural__layer__args_8c.html#af686286fbe62a7bcbf3ab9f4e8dcaa17" target="_top" xlink:title="Returns the length of the neural network layer parameter list.">
<polygon fill="white" stroke="#666666" points="347,-19 254,-19 254,0 347,0 347,-19"/>
<text text-anchor="middle" x="300.5" y="-7" font-family="Helvetica,sans-Serif" font-size="10.00">layer_args_length</text>
</a>
</g>
</g>
<!-- Node2&#45;&gt;Node3 -->
<g id="edge2_Node000002_Node000003" class="edge">
<title>Node2&#45;&gt;Node3</title>
<g id="a_edge2_Node000002_Node000003"><a xlink:title=" ">
<path fill="none" stroke="#63b8ff" d="M218.19,-9.5C226.38,-9.5 235.06,-9.5 243.57,-9.5"/>
<polygon fill="#63b8ff" stroke="#63b8ff" points="243.84,-13 253.84,-9.5 243.84,-6 243.84,-13"/>
</a>
</g>
</g>
</g>
</svg>
