<?xml version="1.0" encoding="UTF-8" standalone="no"?>
<!DOCTYPE svg PUBLIC "-//W3C//DTD SVG 1.1//EN"
 "http://www.w3.org/Graphics/SVG/1.1/DTD/svg11.dtd">
<!-- Generated by graphviz version 2.43.0 (0)
 -->
<!-- Title: pred_param_set_eta_min Pages: 1 -->
<svg width="940pt" height="218pt"
 viewBox="0.00 0.00 940.00 218.00" xmlns="http://www.w3.org/2000/svg" xmlns:xlink="http://www.w3.org/1999/xlink">
<g id="graph0" class="graph" transform="scale(1 1) rotate(0) translate(4 214)">
<title>pred_param_set_eta_min</title>
<!-- Node1 -->
<g id="node1" class="node">
<title>Node1</title>
<g id="a_node1"><a xlink:title=" ">
<polygon fill="#bfbfbf" stroke="black" points="806,-106.5 806,-125.5 932,-125.5 932,-106.5 806,-106.5"/>
<text text-anchor="middle" x="869" y="-113.5" font-family="Helvetica,sans-Serif" font-size="10.00">pred_param_set_eta_min</text>
</a>
</g>
</g>
<!-- Node2 -->
<g id="node2" class="node">
<title>Node2</title>
<g id="a_node2"><a xlink:href="pred__nlms_8c.html#ad710d595ff04564a4925d0d83129853d" target="_top" xlink:title="Sets the NLMS parameters from a cJSON object.">
<polygon fill="none" stroke="black" points="653,-139 653,-169 770,-169 770,-139 653,-139"/>
<text text-anchor="start" x="661" y="-157" font-family="Helvetica,sans-Serif" font-size="10.00">pred_nlms_param_json</text>
<text text-anchor="middle" x="711.5" y="-146" font-family="Helvetica,sans-Serif" font-size="10.00">_import</text>
</a>
</g>
</g>
<!-- Node1&#45;&gt;Node2 -->
<g id="edge1" class="edge">
<title>Node1&#45;&gt;Node2</title>
<path fill="none" stroke="midnightblue" d="M818.89,-128C803.44,-131.78 786.24,-135.98 770.24,-139.89"/>
<polygon fill="midnightblue" stroke="midnightblue" points="819.88,-131.36 828.76,-125.59 818.22,-124.56 819.88,-131.36"/>
</g>
<!-- Node9 -->
<g id="node9" class="node">
<title>Node9</title>
<g id="a_node9"><a xlink:href="prediction_8c.html#af2e3b26751cb8f9af4c608e534ee6894" target="_top" xlink:title="Initialises default prediction parameters.">
<polygon fill="none" stroke="black" points="658,-84.5 658,-103.5 765,-103.5 765,-84.5 658,-84.5"/>
<text text-anchor="middle" x="711.5" y="-91.5" font-family="Helvetica,sans-Serif" font-size="10.00">pred_param_defaults</text>
</a>
</g>
</g>
<!-- Node1&#45;&gt;Node9 -->
<g id="edge8" class="edge">
<title>Node1&#45;&gt;Node9</title>
<path fill="none" stroke="midnightblue" d="M795.54,-105.75C785.37,-104.31 775.08,-102.85 765.37,-101.48"/>
<polygon fill="midnightblue" stroke="midnightblue" points="795.26,-109.24 805.65,-107.18 796.24,-102.31 795.26,-109.24"/>
</g>
<!-- Node3 -->
<g id="node3" class="node">
<title>Node3</title>
<g id="a_node3"><a xlink:href="prediction_8c.html#a7f976ef5c24c68e48493bdec31567021" target="_top" xlink:title="Sets the prediction parameters from a cJSON object.">
<polygon fill="none" stroke="black" points="494,-152.5 494,-171.5 617,-171.5 617,-152.5 494,-152.5"/>
<text text-anchor="middle" x="555.5" y="-159.5" font-family="Helvetica,sans-Serif" font-size="10.00">pred_param_json_import</text>
</a>
</g>
</g>
<!-- Node2&#45;&gt;Node3 -->
<g id="edge2" class="edge">
<title>Node2&#45;&gt;Node3</title>
<path fill="none" stroke="midnightblue" d="M642.52,-157.53C634.08,-157.97 625.5,-158.42 617.18,-158.85"/>
<polygon fill="midnightblue" stroke="midnightblue" points="642.91,-161.02 652.72,-157 642.55,-154.03 642.91,-161.02"/>
</g>
<!-- Node4 -->
<g id="node4" class="node">
<title>Node4</title>
<g id="a_node4"><a xlink:href="param_8c.html#ab62861b770fc9aea05efcc26279ee9e5" target="_top" xlink:title="Sets the prediction parameters from a json formatted string.">
<polygon fill="none" stroke="black" points="312,-190.5 312,-209.5 458,-209.5 458,-190.5 312,-190.5"/>
<text text-anchor="middle" x="385" y="-197.5" font-family="Helvetica,sans-Serif" font-size="10.00">param_json_import_prediction</text>
</a>
</g>
</g>
<!-- Node3&#45;&gt;Node4 -->
<g id="edge3" class="edge">
<title>Node3&#45;&gt;Node4</title>
<path fill="none" stroke="midnightblue" d="M502.07,-173.82C478.31,-179.18 450.6,-185.43 428.21,-190.48"/>
<polygon fill="midnightblue" stroke="midnightblue" points="503,-177.2 511.98,-171.59 501.46,-170.37 503,-177.2"/>
</g>
<!-- Node8 -->
<g id="node8" class="node">
<title>Node8</title>
<g id="a_node8"><a xlink:href="classXCS.html#a76f72805cdd38df46ecbc8bd8a592376" target="_top" xlink:title="Sets the prediction type and initialisation arguments.">
<polygon fill="none" stroke="black" points="333,-152.5 333,-171.5 437,-171.5 437,-152.5 333,-152.5"/>
<text text-anchor="middle" x="385" y="-159.5" font-family="Helvetica,sans-Serif" font-size="10.00">XCS::set_prediction</text>
</a>
</g>
</g>
<!-- Node3&#45;&gt;Node8 -->
<g id="edge7" class="edge">
<title>Node3&#45;&gt;Node8</title>
<path fill="none" stroke="midnightblue" d="M483.52,-162C467.91,-162 451.67,-162 437.03,-162"/>
<polygon fill="midnightblue" stroke="midnightblue" points="483.67,-165.5 493.67,-162 483.67,-158.5 483.67,-165.5"/>
</g>
<!-- Node5 -->
<g id="node5" class="node">
<title>Node5</title>
<g id="a_node5"><a xlink:href="param_8c.html#a130260988988535419aee8abe51986c1" target="_top" xlink:title="Sets the parameters from a json formatted string.">
<polygon fill="none" stroke="black" points="177,-185.5 177,-204.5 276,-204.5 276,-185.5 177,-185.5"/>
<text text-anchor="middle" x="226.5" y="-192.5" font-family="Helvetica,sans-Serif" font-size="10.00">param_json_import</text>
</a>
</g>
</g>
<!-- Node4&#45;&gt;Node5 -->
<g id="edge4" class="edge">
<title>Node4&#45;&gt;Node5</title>
<path fill="none" stroke="midnightblue" d="M301.55,-197.37C292.9,-197.09 284.33,-196.82 276.24,-196.56"/>
<polygon fill="midnightblue" stroke="midnightblue" points="301.6,-200.87 311.71,-197.69 301.82,-193.87 301.6,-200.87"/>
</g>
<!-- Node6 -->
<g id="node6" class="node">
<title>Node6</title>
<g id="a_node6"><a xlink:href="config_8c.html#a045a64a30d99a4bef2ebfd9b54aa9698" target="_top" xlink:title="Reads the specified configuration file.">
<polygon fill="none" stroke="black" points="74,-180.5 74,-199.5 141,-199.5 141,-180.5 74,-180.5"/>
<text text-anchor="middle" x="107.5" y="-187.5" font-family="Helvetica,sans-Serif" font-size="10.00">config_read</text>
</a>
</g>
</g>
<!-- Node5&#45;&gt;Node6 -->
<g id="edge5" class="edge">
<title>Node5&#45;&gt;Node6</title>
<path fill="none" stroke="midnightblue" d="M166.64,-192.48C157.86,-192.11 149.09,-191.73 141.13,-191.39"/>
<polygon fill="midnightblue" stroke="midnightblue" points="166.76,-195.99 176.9,-192.92 167.06,-189 166.76,-195.99"/>
</g>
<!-- Node7 -->
<g id="node7" class="node">
<title>Node7</title>
<g id="a_node7"><a xlink:href="main_8c.html#a3c04138a5bfe5d72780bb7e82a18e627" target="_top" xlink:title=" ">
<polygon fill="none" stroke="black" points="0,-142.5 0,-161.5 38,-161.5 38,-142.5 0,-142.5"/>
<text text-anchor="middle" x="19" y="-149.5" font-family="Helvetica,sans-Serif" font-size="10.00">main</text>
</a>
</g>
</g>
<!-- Node6&#45;&gt;Node7 -->
<g id="edge6" class="edge">
<title>Node6&#45;&gt;Node7</title>
<path fill="none" stroke="midnightblue" d="M75.44,-176.36C62.89,-170.84 48.84,-164.67 38.03,-159.92"/>
<polygon fill="midnightblue" stroke="midnightblue" points="74.11,-179.59 84.67,-180.41 76.92,-173.18 74.11,-179.59"/>
</g>
<!-- Node10 -->
<g id="node10" class="node">
<title>Node10</title>
<g id="a_node10"><a xlink:href="param_8c.html#ac8218a170803be0bcd974764e7494b0e" target="_top" xlink:title="Initialises default XCSF parameters.">
<polygon fill="none" stroke="black" points="524.5,-76.5 524.5,-95.5 586.5,-95.5 586.5,-76.5 524.5,-76.5"/>
<text text-anchor="middle" x="555.5" y="-83.5" font-family="Helvetica,sans-Serif" font-size="10.00">param_init</text>
</a>
</g>
</g>
<!-- Node9&#45;&gt;Node10 -->
<g id="edge9" class="edge">
<title>Node9&#45;&gt;Node10</title>
<path fill="none" stroke="midnightblue" d="M647.76,-90.74C626.73,-89.65 604.24,-88.48 586.85,-87.58"/>
<polygon fill="midnightblue" stroke="midnightblue" points="647.76,-94.25 657.93,-91.27 648.13,-87.26 647.76,-94.25"/>
</g>
<!-- Node11 -->
<g id="node11" class="node">
<title>Node11</title>
<g id="a_node11"><a xlink:href="env__csv_8c.html#ab26a39a388f0ac83b9ac14726ad14b16" target="_top" xlink:title="Initialises a CSV input environment from a specified filename.">
<polygon fill="none" stroke="black" points="349.5,-114.5 349.5,-133.5 420.5,-133.5 420.5,-114.5 349.5,-114.5"/>
<text text-anchor="middle" x="385" y="-121.5" font-family="Helvetica,sans-Serif" font-size="10.00">env_csv_init</text>
</a>
</g>
</g>
<!-- Node10&#45;&gt;Node11 -->
<g id="edge10" class="edge">
<title>Node10&#45;&gt;Node11</title>
<path fill="none" stroke="midnightblue" d="M514.31,-95.06C485.72,-101.51 447.73,-110.08 420.51,-116.22"/>
<polygon fill="midnightblue" stroke="midnightblue" points="515.39,-98.41 524.38,-92.79 513.85,-91.58 515.39,-98.41"/>
</g>
<!-- Node13 -->
<g id="node13" class="node">
<title>Node13</title>
<g id="a_node13"><a xlink:href="env__maze_8c.html#acad3cc6e9fe2b7e07e878f1f517ad3a6" target="_top" xlink:title="Initialises a maze environment from a specified file.">
<polygon fill="none" stroke="black" points="345,-76.5 345,-95.5 425,-95.5 425,-76.5 345,-76.5"/>
<text text-anchor="middle" x="385" y="-83.5" font-family="Helvetica,sans-Serif" font-size="10.00">env_maze_init</text>
</a>
</g>
</g>
<!-- Node10&#45;&gt;Node13 -->
<g id="edge13" class="edge">
<title>Node10&#45;&gt;Node13</title>
<path fill="none" stroke="midnightblue" d="M514.11,-86C487.11,-86 451.79,-86 425.07,-86"/>
<polygon fill="midnightblue" stroke="midnightblue" points="514.38,-89.5 524.38,-86 514.38,-82.5 514.38,-89.5"/>
</g>
<!-- Node14 -->
<g id="node14" class="node">
<title>Node14</title>
<g id="a_node14"><a xlink:href="env__mux_8c.html#aff3b81b4913d273ecfd62d7585480b15" target="_top" xlink:title="Initialises a real multiplexer environment of specified length.">
<polygon fill="none" stroke="black" points="348,-38.5 348,-57.5 422,-57.5 422,-38.5 348,-38.5"/>
<text text-anchor="middle" x="385" y="-45.5" font-family="Helvetica,sans-Serif" font-size="10.00">env_mux_init</text>
</a>
</g>
</g>
<!-- Node10&#45;&gt;Node14 -->
<g id="edge15" class="edge">
<title>Node10&#45;&gt;Node14</title>
<path fill="none" stroke="midnightblue" d="M514.48,-76.97C486.4,-70.64 449.16,-62.24 422.01,-56.12"/>
<polygon fill="midnightblue" stroke="midnightblue" points="513.85,-80.42 524.38,-79.21 515.39,-73.59 513.85,-80.42"/>
</g>
<!-- Node15 -->
<g id="node15" class="node">
<title>Node15</title>
<g id="a_node15"><a xlink:href="classXCS.html#af1010afd63843f86ad1dd81fade9bd72" target="_top" xlink:title="Constructor.">
<polygon fill="none" stroke="black" points="352.5,-0.5 352.5,-19.5 417.5,-19.5 417.5,-0.5 352.5,-0.5"/>
<text text-anchor="middle" x="385" y="-7.5" font-family="Helvetica,sans-Serif" font-size="10.00">XCS::XCS</text>
</a>
</g>
</g>
<!-- Node10&#45;&gt;Node15 -->
<g id="edge17" class="edge">
<title>Node10&#45;&gt;Node15</title>
<path fill="none" stroke="midnightblue" d="M532.57,-70.66C513.58,-57.98 485,-40.28 458,-29 445.24,-23.67 430.56,-19.47 417.81,-16.4"/>
<polygon fill="midnightblue" stroke="midnightblue" points="530.83,-73.71 541.07,-76.43 534.76,-67.92 530.83,-73.71"/>
</g>
<!-- Node12 -->
<g id="node12" class="node">
<title>Node12</title>
<g id="a_node12"><a xlink:href="env_8c.html#a9213fcf5fc422d6a77bce853b1d78dc9" target="_top" xlink:title="Initialises a built&#45;in problem environment.">
<polygon fill="none" stroke="black" points="201.5,-85.5 201.5,-104.5 251.5,-104.5 251.5,-85.5 201.5,-85.5"/>
<text text-anchor="middle" x="226.5" y="-92.5" font-family="Helvetica,sans-Serif" font-size="10.00">env_init</text>
</a>
</g>
</g>
<!-- Node11&#45;&gt;Node12 -->
<g id="edge11" class="edge">
<title>Node11&#45;&gt;Node12</title>
<path fill="none" stroke="midnightblue" d="M339.18,-115.69C310.8,-110.44 275.21,-103.84 251.93,-99.53"/>
<polygon fill="midnightblue" stroke="midnightblue" points="338.8,-119.18 349.27,-117.56 340.07,-112.3 338.8,-119.18"/>
</g>
<!-- Node12&#45;&gt;Node7 -->
<g id="edge12" class="edge">
<title>Node12&#45;&gt;Node7</title>
<path fill="none" stroke="midnightblue" d="M191.43,-104.45C147.39,-116.66 72.32,-137.49 38.03,-147"/>
<polygon fill="midnightblue" stroke="midnightblue" points="192.42,-107.81 201.12,-101.76 190.55,-101.06 192.42,-107.81"/>
</g>
<!-- Node13&#45;&gt;Node12 -->
<g id="edge14" class="edge">
<title>Node13&#45;&gt;Node12</title>
<path fill="none" stroke="midnightblue" d="M334.6,-88.84C306.88,-90.44 273.54,-92.35 251.5,-93.62"/>
<polygon fill="midnightblue" stroke="midnightblue" points="335.13,-92.32 344.91,-88.25 334.73,-85.33 335.13,-92.32"/>
</g>
<!-- Node14&#45;&gt;Node12 -->
<g id="edge16" class="edge">
<title>Node14&#45;&gt;Node12</title>
<path fill="none" stroke="midnightblue" d="M338.29,-59.61C329.54,-61.96 320.46,-64.48 312,-67 291.56,-73.08 268.6,-80.74 251.78,-86.51"/>
<polygon fill="midnightblue" stroke="midnightblue" points="339.22,-62.98 347.99,-57.04 337.42,-56.21 339.22,-62.98"/>
</g>
</g>
</svg>
