<?xml version="1.0" encoding="UTF-8" standalone="no"?>
<!DOCTYPE svg PUBLIC "-//W3C//DTD SVG 1.1//EN"
 "http://www.w3.org/Graphics/SVG/1.1/DTD/svg11.dtd">
<!-- Generated by graphviz version 2.43.0 (0)
 -->
<!-- Title: pred_nlms.c Pages: 1 -->
<svg width="797pt" height="252pt"
 viewBox="0.00 0.00 797.00 252.00" xmlns="http://www.w3.org/2000/svg" xmlns:xlink="http://www.w3.org/1999/xlink">
<g id="graph0" class="graph" transform="scale(1 1) rotate(0) translate(4 248)">
<title>pred_nlms.c</title>
<!-- Node1 -->
<g id="node1" class="node">
<title>Node1</title>
<g id="a_node1"><a xlink:title="Normalised least mean squares prediction functions.">
<polygon fill="#bfbfbf" stroke="black" points="441.5,-224.5 441.5,-243.5 511.5,-243.5 511.5,-224.5 441.5,-224.5"/>
<text text-anchor="middle" x="476.5" y="-231.5" font-family="Helvetica,sans-Serif" font-size="10.00">pred_nlms.c</text>
</a>
</g>
</g>
<!-- Node2 -->
<g id="node2" class="node">
<title>Node2</title>
<g id="a_node2"><a xlink:href="pred__nlms_8h.html" target="_top" xlink:title="Normalised least mean squares prediction functions.">
<polygon fill="none" stroke="black" points="359.5,-168.5 359.5,-187.5 429.5,-187.5 429.5,-168.5 359.5,-168.5"/>
<text text-anchor="middle" x="394.5" y="-175.5" font-family="Helvetica,sans-Serif" font-size="10.00">pred_nlms.h</text>
</a>
</g>
</g>
<!-- Node1&#45;&gt;Node2 -->
<g id="edge1" class="edge">
<title>Node1&#45;&gt;Node2</title>
<path fill="none" stroke="midnightblue" d="M463.33,-224.32C450.65,-215.98 431.27,-203.21 416.29,-193.35"/>
<polygon fill="midnightblue" stroke="midnightblue" points="417.92,-190.23 407.64,-187.65 414.07,-196.08 417.92,-190.23"/>
</g>
<!-- Node15 -->
<g id="node15" class="node">
<title>Node15</title>
<g id="a_node15"><a xlink:href="blas_8h.html" target="_top" xlink:title="Basic linear algebra functions.">
<polygon fill="none" stroke="black" points="524,-168.5 524,-187.5 567,-187.5 567,-168.5 524,-168.5"/>
<text text-anchor="middle" x="545.5" y="-175.5" font-family="Helvetica,sans-Serif" font-size="10.00">blas.h</text>
</a>
</g>
</g>
<!-- Node1&#45;&gt;Node15 -->
<g id="edge15" class="edge">
<title>Node1&#45;&gt;Node15</title>
<path fill="none" stroke="midnightblue" d="M487.59,-224.32C497.99,-216.18 513.76,-203.84 526.22,-194.09"/>
<polygon fill="midnightblue" stroke="midnightblue" points="528.49,-196.75 534.21,-187.83 524.18,-191.24 528.49,-196.75"/>
</g>
<!-- Node16 -->
<g id="node16" class="node">
<title>Node16</title>
<g id="a_node16"><a xlink:href="sam_8h.html" target="_top" xlink:title="Self&#45;adaptive mutation functions.">
<polygon fill="none" stroke="black" points="423.5,-112.5 423.5,-131.5 467.5,-131.5 467.5,-112.5 423.5,-112.5"/>
<text text-anchor="middle" x="445.5" y="-119.5" font-family="Helvetica,sans-Serif" font-size="10.00">sam.h</text>
</a>
</g>
</g>
<!-- Node1&#45;&gt;Node16 -->
<g id="edge16" class="edge">
<title>Node1&#45;&gt;Node16</title>
<path fill="none" stroke="midnightblue" d="M474.07,-224.37C469.04,-206.54 457.42,-165.3 450.65,-141.27"/>
<polygon fill="midnightblue" stroke="midnightblue" points="454,-140.27 447.92,-131.59 447.27,-142.17 454,-140.27"/>
</g>
<!-- Node17 -->
<g id="node17" class="node">
<title>Node17</title>
<g id="a_node17"><a xlink:href="utils_8h.html" target="_top" xlink:title="Utility functions for random number handling, etc.">
<polygon fill="none" stroke="black" points="547,-56.5 547,-75.5 590,-75.5 590,-56.5 547,-56.5"/>
<text text-anchor="middle" x="568.5" y="-63.5" font-family="Helvetica,sans-Serif" font-size="10.00">utils.h</text>
</a>
</g>
</g>
<!-- Node1&#45;&gt;Node17 -->
<g id="edge18" class="edge">
<title>Node1&#45;&gt;Node17</title>
<path fill="none" stroke="midnightblue" d="M481.45,-224.08C496.05,-197.72 539.19,-119.88 558.71,-84.66"/>
<polygon fill="midnightblue" stroke="midnightblue" points="561.97,-86.01 563.75,-75.57 555.84,-82.62 561.97,-86.01"/>
</g>
<!-- Node3 -->
<g id="node3" class="node">
<title>Node3</title>
<g id="a_node3"><a xlink:href="prediction_8h.html" target="_top" xlink:title="Interface for classifier predictions.">
<polygon fill="none" stroke="black" points="299,-112.5 299,-131.5 366,-131.5 366,-112.5 299,-112.5"/>
<text text-anchor="middle" x="332.5" y="-119.5" font-family="Helvetica,sans-Serif" font-size="10.00">prediction.h</text>
</a>
</g>
</g>
<!-- Node2&#45;&gt;Node3 -->
<g id="edge2" class="edge">
<title>Node2&#45;&gt;Node3</title>
<path fill="none" stroke="midnightblue" d="M384.54,-168.32C375.37,-160.34 361.56,-148.31 350.47,-138.65"/>
<polygon fill="midnightblue" stroke="midnightblue" points="352.48,-135.76 342.64,-131.83 347.88,-141.04 352.48,-135.76"/>
</g>
<!-- Node4 -->
<g id="node4" class="node">
<title>Node4</title>
<g id="a_node4"><a xlink:href="xcsf_8h.html" target="_top" xlink:title="XCSF data structures.">
<polygon fill="none" stroke="black" points="341.5,-56.5 341.5,-75.5 385.5,-75.5 385.5,-56.5 341.5,-56.5"/>
<text text-anchor="middle" x="363.5" y="-63.5" font-family="Helvetica,sans-Serif" font-size="10.00">xcsf.h</text>
</a>
</g>
</g>
<!-- Node2&#45;&gt;Node4 -->
<g id="edge14" class="edge">
<title>Node2&#45;&gt;Node4</title>
<path fill="none" stroke="midnightblue" d="M392.07,-168.37C387.04,-150.54 375.42,-109.3 368.65,-85.27"/>
<polygon fill="midnightblue" stroke="midnightblue" points="372,-84.27 365.92,-75.59 365.27,-86.17 372,-84.27"/>
</g>
<!-- Node3&#45;&gt;Node4 -->
<g id="edge3" class="edge">
<title>Node3&#45;&gt;Node4</title>
<path fill="none" stroke="midnightblue" d="M337.62,-112.08C341.91,-104.61 348.16,-93.72 353.44,-84.52"/>
<polygon fill="midnightblue" stroke="midnightblue" points="356.53,-86.17 358.48,-75.75 350.46,-82.68 356.53,-86.17"/>
</g>
<!-- Node5 -->
<g id="node5" class="node">
<title>Node5</title>
<g id="a_node5"><a xlink:title=" ">
<polygon fill="none" stroke="#bfbfbf" points="134,-0.5 134,-19.5 181,-19.5 181,-0.5 134,-0.5"/>
<text text-anchor="middle" x="157.5" y="-7.5" font-family="Helvetica,sans-Serif" font-size="10.00">errno.h</text>
</a>
</g>
</g>
<!-- Node4&#45;&gt;Node5 -->
<g id="edge4" class="edge">
<title>Node4&#45;&gt;Node5</title>
<path fill="none" stroke="midnightblue" d="M341.36,-59.33C310.17,-51.32 251.27,-36.13 191.3,-20.19"/>
<polygon fill="midnightblue" stroke="midnightblue" points="191.85,-16.71 181.28,-17.52 190.05,-23.48 191.85,-16.71"/>
</g>
<!-- Node6 -->
<g id="node6" class="node">
<title>Node6</title>
<g id="a_node6"><a xlink:title=" ">
<polygon fill="none" stroke="#bfbfbf" points="199.5,-0.5 199.5,-19.5 243.5,-19.5 243.5,-0.5 199.5,-0.5"/>
<text text-anchor="middle" x="221.5" y="-7.5" font-family="Helvetica,sans-Serif" font-size="10.00">float.h</text>
</a>
</g>
</g>
<!-- Node4&#45;&gt;Node6 -->
<g id="edge5" class="edge">
<title>Node4&#45;&gt;Node6</title>
<path fill="none" stroke="midnightblue" d="M341.31,-56.56C317.66,-47.57 279.99,-33.24 253.21,-23.06"/>
<polygon fill="midnightblue" stroke="midnightblue" points="254.12,-19.66 243.53,-19.38 251.63,-26.2 254.12,-19.66"/>
</g>
<!-- Node7 -->
<g id="node7" class="node">
<title>Node7</title>
<g id="a_node7"><a xlink:title=" ">
<polygon fill="none" stroke="#bfbfbf" points="262,-0.5 262,-19.5 321,-19.5 321,-0.5 262,-0.5"/>
<text text-anchor="middle" x="291.5" y="-7.5" font-family="Helvetica,sans-Serif" font-size="10.00">inttypes.h</text>
</a>
</g>
</g>
<!-- Node4&#45;&gt;Node7 -->
<g id="edge6" class="edge">
<title>Node4&#45;&gt;Node7</title>
<path fill="none" stroke="midnightblue" d="M351.93,-56.32C341.08,-48.18 324.62,-35.84 311.62,-26.09"/>
<polygon fill="midnightblue" stroke="midnightblue" points="313.38,-23.03 303.28,-19.83 309.18,-28.63 313.38,-23.03"/>
</g>
<!-- Node8 -->
<g id="node8" class="node">
<title>Node8</title>
<g id="a_node8"><a xlink:title=" ">
<polygon fill="none" stroke="#bfbfbf" points="339.5,-0.5 339.5,-19.5 387.5,-19.5 387.5,-0.5 339.5,-0.5"/>
<text text-anchor="middle" x="363.5" y="-7.5" font-family="Helvetica,sans-Serif" font-size="10.00">limits.h</text>
</a>
</g>
</g>
<!-- Node4&#45;&gt;Node8 -->
<g id="edge7" class="edge">
<title>Node4&#45;&gt;Node8</title>
<path fill="none" stroke="midnightblue" d="M363.5,-56.08C363.5,-49.01 363.5,-38.86 363.5,-29.99"/>
<polygon fill="midnightblue" stroke="midnightblue" points="367,-29.75 363.5,-19.75 360,-29.75 367,-29.75"/>
</g>
<!-- Node9 -->
<g id="node9" class="node">
<title>Node9</title>
<g id="a_node9"><a xlink:title=" ">
<polygon fill="none" stroke="#bfbfbf" points="480,-0.5 480,-19.5 527,-19.5 527,-0.5 480,-0.5"/>
<text text-anchor="middle" x="503.5" y="-7.5" font-family="Helvetica,sans-Serif" font-size="10.00">math.h</text>
</a>
</g>
</g>
<!-- Node4&#45;&gt;Node9 -->
<g id="edge8" class="edge">
<title>Node4&#45;&gt;Node9</title>
<path fill="none" stroke="midnightblue" d="M385.68,-56.44C408.93,-47.48 445.65,-33.31 471.92,-23.18"/>
<polygon fill="midnightblue" stroke="midnightblue" points="473.35,-26.38 481.42,-19.52 470.83,-19.85 473.35,-26.38"/>
</g>
<!-- Node10 -->
<g id="node10" class="node">
<title>Node10</title>
<g id="a_node10"><a xlink:title=" ">
<polygon fill="none" stroke="#bfbfbf" points="405.5,-0.5 405.5,-19.5 461.5,-19.5 461.5,-0.5 405.5,-0.5"/>
<text text-anchor="middle" x="433.5" y="-7.5" font-family="Helvetica,sans-Serif" font-size="10.00">stdbool.h</text>
</a>
</g>
</g>
<!-- Node4&#45;&gt;Node10 -->
<g id="edge9" class="edge">
<title>Node4&#45;&gt;Node10</title>
<path fill="none" stroke="midnightblue" d="M374.75,-56.32C385.3,-48.18 401.3,-35.84 413.94,-26.09"/>
<polygon fill="midnightblue" stroke="midnightblue" points="416.27,-28.71 422.05,-19.83 411.99,-23.17 416.27,-28.71"/>
</g>
<!-- Node11 -->
<g id="node11" class="node">
<title>Node11</title>
<g id="a_node11"><a xlink:title=" ">
<polygon fill="none" stroke="#bfbfbf" points="0,-0.5 0,-19.5 49,-19.5 49,-0.5 0,-0.5"/>
<text text-anchor="middle" x="24.5" y="-7.5" font-family="Helvetica,sans-Serif" font-size="10.00">stdint.h</text>
</a>
</g>
</g>
<!-- Node4&#45;&gt;Node11 -->
<g id="edge10" class="edge">
<title>Node4&#45;&gt;Node11</title>
<path fill="none" stroke="midnightblue" d="M341.45,-62.68C292.38,-57.32 170.32,-42.91 59.31,-20.18"/>
<polygon fill="midnightblue" stroke="midnightblue" points="59.79,-16.71 49.29,-18.1 58.37,-23.56 59.79,-16.71"/>
</g>
<!-- Node12 -->
<g id="node12" class="node">
<title>Node12</title>
<g id="a_node12"><a xlink:title=" ">
<polygon fill="none" stroke="#bfbfbf" points="545.5,-0.5 545.5,-19.5 591.5,-19.5 591.5,-0.5 545.5,-0.5"/>
<text text-anchor="middle" x="568.5" y="-7.5" font-family="Helvetica,sans-Serif" font-size="10.00">stdio.h</text>
</a>
</g>
</g>
<!-- Node4&#45;&gt;Node12 -->
<g id="edge11" class="edge">
<title>Node4&#45;&gt;Node12</title>
<path fill="none" stroke="midnightblue" d="M385.66,-59.39C416.86,-51.45 475.78,-36.34 535.47,-20.24"/>
<polygon fill="midnightblue" stroke="midnightblue" points="536.7,-23.53 545.44,-17.54 534.88,-16.78 536.7,-23.53"/>
</g>
<!-- Node13 -->
<g id="node13" class="node">
<title>Node13</title>
<g id="a_node13"><a xlink:title=" ">
<polygon fill="none" stroke="#bfbfbf" points="609.5,-0.5 609.5,-19.5 657.5,-19.5 657.5,-0.5 609.5,-0.5"/>
<text text-anchor="middle" x="633.5" y="-7.5" font-family="Helvetica,sans-Serif" font-size="10.00">stdlib.h</text>
</a>
</g>
</g>
<!-- Node4&#45;&gt;Node13 -->
<g id="edge12" class="edge">
<title>Node4&#45;&gt;Node13</title>
<path fill="none" stroke="midnightblue" d="M385.51,-61.42C425.96,-54.7 515.01,-39.34 599.64,-20.05"/>
<polygon fill="midnightblue" stroke="midnightblue" points="600.44,-23.46 609.4,-17.81 598.87,-16.64 600.44,-23.46"/>
</g>
<!-- Node14 -->
<g id="node14" class="node">
<title>Node14</title>
<g id="a_node14"><a xlink:title=" ">
<polygon fill="none" stroke="#bfbfbf" points="67,-0.5 67,-19.5 116,-19.5 116,-0.5 67,-0.5"/>
<text text-anchor="middle" x="91.5" y="-7.5" font-family="Helvetica,sans-Serif" font-size="10.00">string.h</text>
</a>
</g>
</g>
<!-- Node4&#45;&gt;Node14 -->
<g id="edge13" class="edge">
<title>Node4&#45;&gt;Node14</title>
<path fill="none" stroke="midnightblue" d="M341.3,-61.43C300.51,-54.74 210.7,-39.42 126.07,-20.23"/>
<polygon fill="midnightblue" stroke="midnightblue" points="126.84,-16.82 116.31,-18 125.28,-23.64 126.84,-16.82"/>
</g>
<!-- Node16&#45;&gt;Node4 -->
<g id="edge17" class="edge">
<title>Node16&#45;&gt;Node4</title>
<path fill="none" stroke="midnightblue" d="M432.33,-112.32C419.65,-103.98 400.27,-91.21 385.29,-81.35"/>
<polygon fill="midnightblue" stroke="midnightblue" points="386.92,-78.23 376.64,-75.65 383.07,-84.08 386.92,-78.23"/>
</g>
<!-- Node17&#45;&gt;Node9 -->
<g id="edge20" class="edge">
<title>Node17&#45;&gt;Node9</title>
<path fill="none" stroke="midnightblue" d="M558.06,-56.32C548.35,-48.26 533.68,-36.08 522,-26.37"/>
<polygon fill="midnightblue" stroke="midnightblue" points="524.06,-23.53 514.13,-19.83 519.59,-28.92 524.06,-23.53"/>
</g>
<!-- Node17&#45;&gt;Node12 -->
<g id="edge21" class="edge">
<title>Node17&#45;&gt;Node12</title>
<path fill="none" stroke="midnightblue" d="M568.5,-56.08C568.5,-49.01 568.5,-38.86 568.5,-29.99"/>
<polygon fill="midnightblue" stroke="midnightblue" points="572,-29.75 568.5,-19.75 565,-29.75 572,-29.75"/>
</g>
<!-- Node17&#45;&gt;Node13 -->
<g id="edge22" class="edge">
<title>Node17&#45;&gt;Node13</title>
<path fill="none" stroke="midnightblue" d="M578.94,-56.32C588.65,-48.26 603.32,-36.08 615,-26.37"/>
<polygon fill="midnightblue" stroke="midnightblue" points="617.41,-28.92 622.87,-19.83 612.94,-23.53 617.41,-28.92"/>
</g>
<!-- Node18 -->
<g id="node18" class="node">
<title>Node18</title>
<g id="a_node18"><a xlink:title=" ">
<polygon fill="none" stroke="#bfbfbf" points="676,-0.5 676,-19.5 789,-19.5 789,-0.5 676,-0.5"/>
<text text-anchor="middle" x="732.5" y="-7.5" font-family="Helvetica,sans-Serif" font-size="10.00">../lib/dSFMT/dSFMT.h</text>
</a>
</g>
</g>
<!-- Node17&#45;&gt;Node18 -->
<g id="edge19" class="edge">
<title>Node17&#45;&gt;Node18</title>
<path fill="none" stroke="midnightblue" d="M590.28,-57.83C617.52,-48.86 664.53,-33.38 697,-22.69"/>
<polygon fill="midnightblue" stroke="midnightblue" points="698.17,-25.99 706.57,-19.54 695.98,-19.34 698.17,-25.99"/>
</g>
</g>
</svg>
