<?xml version="1.0" encoding="UTF-8" standalone="no"?>
<!DOCTYPE svg PUBLIC "-//W3C//DTD SVG 1.1//EN"
 "http://www.w3.org/Graphics/SVG/1.1/DTD/svg11.dtd">
<!-- Generated by graphviz version 2.43.0 (0)
 -->
<!-- Title: pred_nlms_init Pages: 1 -->
<svg width="397pt" height="142pt"
 viewBox="0.00 0.00 397.00 142.00" xmlns="http://www.w3.org/2000/svg" xmlns:xlink="http://www.w3.org/1999/xlink">
<g id="graph0" class="graph" transform="scale(1 1) rotate(0) translate(4 138)">
<title>pred_nlms_init</title>
<!-- Node1 -->
<g id="node1" class="node">
<title>Node1</title>
<g id="a_node1"><a xlink:title=" ">
<polygon fill="#bfbfbf" stroke="black" points="0,-76.5 0,-95.5 80,-95.5 80,-76.5 0,-76.5"/>
<text text-anchor="middle" x="40" y="-83.5" font-family="Helvetica,sans-Serif" font-size="10.00">pred_nlms_init</text>
</a>
</g>
</g>
<!-- Node2 -->
<g id="node2" class="node">
<title>Node2</title>
<g id="a_node2"><a xlink:href="blas_8c.html#a5241e53bd01ced11592a718674fc4932" target="_top" xlink:title="Fills the vector X with the value ALPHA.">
<polygon fill="none" stroke="black" points="117.5,-114.5 117.5,-133.5 167.5,-133.5 167.5,-114.5 117.5,-114.5"/>
<text text-anchor="middle" x="142.5" y="-121.5" font-family="Helvetica,sans-Serif" font-size="10.00">blas_fill</text>
</a>
</g>
</g>
<!-- Node1&#45;&gt;Node2 -->
<g id="edge1" class="edge">
<title>Node1&#45;&gt;Node2</title>
<path fill="none" stroke="midnightblue" d="M66.36,-95.59C78.9,-100.33 94.21,-106.12 107.73,-111.23"/>
<polygon fill="midnightblue" stroke="midnightblue" points="106.6,-114.54 117.19,-114.81 109.07,-108 106.6,-114.54"/>
</g>
<!-- Node3 -->
<g id="node3" class="node">
<title>Node3</title>
<g id="a_node3"><a xlink:href="utils_8c.html#a972761ba8f47a6c3e7396a7c685158fc" target="_top" xlink:title="Returns a uniform random float [min,max].">
<polygon fill="none" stroke="black" points="316,-38.5 316,-57.5 389,-57.5 389,-38.5 316,-38.5"/>
<text text-anchor="middle" x="352.5" y="-45.5" font-family="Helvetica,sans-Serif" font-size="10.00">rand_uniform</text>
</a>
</g>
</g>
<!-- Node1&#45;&gt;Node3 -->
<g id="edge2" class="edge">
<title>Node1&#45;&gt;Node3</title>
<path fill="none" stroke="midnightblue" d="M80.05,-83.2C127.49,-79.55 209.87,-72.36 280,-62 288.45,-60.75 297.43,-59.19 306.05,-57.56"/>
<polygon fill="midnightblue" stroke="midnightblue" points="306.82,-60.98 315.97,-55.64 305.49,-54.1 306.82,-60.98"/>
</g>
<!-- Node4 -->
<g id="node4" class="node">
<title>Node4</title>
<g id="a_node4"><a xlink:href="sam_8c.html#a7f7f30716900f06683a74486aca5f5a0" target="_top" xlink:title="Initialises self&#45;adaptive mutation rates.">
<polygon fill="none" stroke="black" points="116,-38.5 116,-57.5 169,-57.5 169,-38.5 116,-38.5"/>
<text text-anchor="middle" x="142.5" y="-45.5" font-family="Helvetica,sans-Serif" font-size="10.00">sam_init</text>
</a>
</g>
</g>
<!-- Node1&#45;&gt;Node4 -->
<g id="edge3" class="edge">
<title>Node1&#45;&gt;Node4</title>
<path fill="none" stroke="midnightblue" d="M66.36,-76.41C78.5,-71.82 93.23,-66.25 106.43,-61.26"/>
<polygon fill="midnightblue" stroke="midnightblue" points="108.03,-64.4 116.15,-57.59 105.56,-57.85 108.03,-64.4"/>
</g>
<!-- Node4&#45;&gt;Node3 -->
<g id="edge6" class="edge">
<title>Node4&#45;&gt;Node3</title>
<path fill="none" stroke="midnightblue" d="M169,-48C202.91,-48 263.41,-48 305.42,-48"/>
<polygon fill="midnightblue" stroke="midnightblue" points="305.67,-51.5 315.67,-48 305.67,-44.5 305.67,-51.5"/>
</g>
<!-- Node5 -->
<g id="node5" class="node">
<title>Node5</title>
<g id="a_node5"><a xlink:href="utils_8c.html#a894e776eb1a127a7b31a52bd86327a2a" target="_top" xlink:title="Returns a uniform random integer [min,max] not inclusive of max.">
<polygon fill="none" stroke="black" points="205,-0.5 205,-19.5 280,-19.5 280,-0.5 205,-0.5"/>
<text text-anchor="middle" x="242.5" y="-7.5" font-family="Helvetica,sans-Serif" font-size="10.00">irand_uniform</text>
</a>
</g>
</g>
<!-- Node4&#45;&gt;Node5 -->
<g id="edge4" class="edge">
<title>Node4&#45;&gt;Node5</title>
<path fill="none" stroke="midnightblue" d="M168.23,-38.41C180.07,-33.82 194.44,-28.25 207.3,-23.26"/>
<polygon fill="midnightblue" stroke="midnightblue" points="208.72,-26.46 216.78,-19.59 206.19,-19.94 208.72,-26.46"/>
</g>
<!-- Node5&#45;&gt;Node3 -->
<g id="edge5" class="edge">
<title>Node5&#45;&gt;Node3</title>
<path fill="none" stroke="midnightblue" d="M270.75,-19.59C284.06,-24.27 300.25,-29.97 314.64,-35.03"/>
<polygon fill="midnightblue" stroke="midnightblue" points="313.66,-38.4 324.26,-38.41 315.98,-31.79 313.66,-38.4"/>
</g>
</g>
</svg>
