<?xml version="1.0" encoding="UTF-8" standalone="no"?>
<!DOCTYPE svg PUBLIC "-//W3C//DTD SVG 1.1//EN"
 "http://www.w3.org/Graphics/SVG/1.1/DTD/svg11.dtd">
<!-- Generated by graphviz version 2.43.0 (0)
 -->
<!-- Title: prediction_type_as_int Pages: 1 -->
<svg width="852pt" height="143pt"
 viewBox="0.00 0.00 852.00 143.00" xmlns="http://www.w3.org/2000/svg" xmlns:xlink="http://www.w3.org/1999/xlink">
<g id="graph0" class="graph" transform="scale(1 1) rotate(0) translate(4 139)">
<title>prediction_type_as_int</title>
<!-- Node1 -->
<g id="node1" class="node">
<title>Node1</title>
<g id="a_node1"><a xlink:title="Returns the integer representation of a prediction type given a name.">
<polygon fill="#bfbfbf" stroke="black" points="730,-57.5 730,-76.5 844,-76.5 844,-57.5 730,-57.5"/>
<text text-anchor="middle" x="787" y="-64.5" font-family="Helvetica,sans-Serif" font-size="10.00">prediction_type_as_int</text>
</a>
</g>
</g>
<!-- Node2 -->
<g id="node2" class="node">
<title>Node2</title>
<g id="a_node2"><a xlink:href="prediction_8h.html#a2e189fd3243b2e77d73b7fac5b52a9eb" target="_top" xlink:title="Creates a prediction from a cJSON object.">
<polygon fill="none" stroke="black" points="593.5,-79.5 593.5,-98.5 684.5,-98.5 684.5,-79.5 593.5,-79.5"/>
<text text-anchor="middle" x="639" y="-86.5" font-family="Helvetica,sans-Serif" font-size="10.00">pred_json_import</text>
</a>
</g>
</g>
<!-- Node1&#45;&gt;Node2 -->
<g id="edge1" class="edge">
<title>Node1&#45;&gt;Node2</title>
<path fill="none" stroke="midnightblue" d="M720.04,-76.94C708.11,-78.74 695.93,-80.57 684.78,-82.25"/>
<polygon fill="midnightblue" stroke="midnightblue" points="720.6,-80.39 729.97,-75.44 719.56,-73.47 720.6,-80.39"/>
</g>
<!-- Node8 -->
<g id="node8" class="node">
<title>Node8</title>
<g id="a_node8"><a xlink:href="prediction_8c.html#a7b02fcc0ce8541afd47d014eba280570" target="_top" xlink:title=" ">
<polygon fill="none" stroke="black" points="584,-30 584,-60 694,-60 694,-30 584,-30"/>
<text text-anchor="start" x="592" y="-48" font-family="Helvetica,sans-Serif" font-size="10.00">pred_param_set_type</text>
<text text-anchor="middle" x="639" y="-37" font-family="Helvetica,sans-Serif" font-size="10.00">_string</text>
</a>
</g>
</g>
<!-- Node1&#45;&gt;Node8 -->
<g id="edge7" class="edge">
<title>Node1&#45;&gt;Node8</title>
<path fill="none" stroke="midnightblue" d="M719.95,-57.05C711.33,-55.75 702.59,-54.43 694.2,-53.17"/>
<polygon fill="midnightblue" stroke="midnightblue" points="719.56,-60.53 729.97,-58.56 720.6,-53.61 719.56,-60.53"/>
</g>
<!-- Node3 -->
<g id="node3" class="node">
<title>Node3</title>
<g id="a_node3"><a xlink:href="cl_8c.html#ada9e7ce4c9c81af8ea0d1fd0dda59e3c" target="_top" xlink:title="Creates a classifier from a cJSON object.">
<polygon fill="none" stroke="black" points="435,-79.5 435,-98.5 515,-98.5 515,-79.5 435,-79.5"/>
<text text-anchor="middle" x="475" y="-86.5" font-family="Helvetica,sans-Serif" font-size="10.00">cl_json_import</text>
</a>
</g>
</g>
<!-- Node2&#45;&gt;Node3 -->
<g id="edge2" class="edge">
<title>Node2&#45;&gt;Node3</title>
<path fill="none" stroke="midnightblue" d="M583.26,-89C560.88,-89 535.49,-89 515.04,-89"/>
<polygon fill="midnightblue" stroke="midnightblue" points="583.3,-92.5 593.3,-89 583.3,-85.5 583.3,-92.5"/>
</g>
<!-- Node4 -->
<g id="node4" class="node">
<title>Node4</title>
<g id="a_node4"><a xlink:href="clset_8c.html#a9f71f62cb4c5216fb3a3e76a6b3df82f" target="_top" xlink:title="Creates a classifier from cJSON and inserts in the population set.">
<polygon fill="none" stroke="black" points="269,-79.5 269,-98.5 359,-98.5 359,-79.5 269,-79.5"/>
<text text-anchor="middle" x="314" y="-86.5" font-family="Helvetica,sans-Serif" font-size="10.00">clset_json_insert</text>
</a>
</g>
</g>
<!-- Node3&#45;&gt;Node4 -->
<g id="edge3" class="edge">
<title>Node3&#45;&gt;Node4</title>
<path fill="none" stroke="midnightblue" d="M424.42,-89C403.54,-89 379.44,-89 359.18,-89"/>
<polygon fill="midnightblue" stroke="midnightblue" points="424.7,-92.5 434.7,-89 424.7,-85.5 424.7,-92.5"/>
</g>
<!-- Node5 -->
<g id="node5" class="node">
<title>Node5</title>
<g id="a_node5"><a xlink:href="classXCS.html#af888b891afb66fbe06ba4919ef16adf9" target="_top" xlink:title="Creates classifiers from JSON and inserts into the population.">
<polygon fill="none" stroke="black" points="128.5,-115.5 128.5,-134.5 219.5,-134.5 219.5,-115.5 128.5,-115.5"/>
<text text-anchor="middle" x="174" y="-122.5" font-family="Helvetica,sans-Serif" font-size="10.00">XCS::json_insert</text>
</a>
</g>
</g>
<!-- Node4&#45;&gt;Node5 -->
<g id="edge4" class="edge">
<title>Node4&#45;&gt;Node5</title>
<path fill="none" stroke="midnightblue" d="M266.22,-101.2C248.46,-105.84 228.5,-111.04 211.79,-115.4"/>
<polygon fill="midnightblue" stroke="midnightblue" points="267.59,-104.46 276.38,-98.55 265.82,-97.69 267.59,-104.46"/>
</g>
<!-- Node7 -->
<g id="node7" class="node">
<title>Node7</title>
<g id="a_node7"><a xlink:href="classXCS.html#a61361120dbba1dba3ca49b53ded91edb" target="_top" xlink:title="Creates a classifier from JSON and inserts into the population.">
<polygon fill="none" stroke="black" points="122,-77.5 122,-96.5 226,-96.5 226,-77.5 122,-77.5"/>
<text text-anchor="middle" x="174" y="-84.5" font-family="Helvetica,sans-Serif" font-size="10.00">XCS::json_insert_cl</text>
</a>
</g>
</g>
<!-- Node4&#45;&gt;Node7 -->
<g id="edge6" class="edge">
<title>Node4&#45;&gt;Node7</title>
<path fill="none" stroke="midnightblue" d="M258.87,-88.22C248.16,-88.06 236.94,-87.9 226.32,-87.74"/>
<polygon fill="midnightblue" stroke="midnightblue" points="258.91,-91.72 268.96,-88.36 259.01,-84.72 258.91,-91.72"/>
</g>
<!-- Node6 -->
<g id="node6" class="node">
<title>Node6</title>
<g id="a_node6"><a xlink:href="classXCS.html#a1a882e28a64c4e2b92ae234d79f327de" target="_top" xlink:title="Reads classifiers from a JSON file and adds to the population.">
<polygon fill="none" stroke="black" points="0,-115.5 0,-134.5 86,-134.5 86,-115.5 0,-115.5"/>
<text text-anchor="middle" x="43" y="-122.5" font-family="Helvetica,sans-Serif" font-size="10.00">XCS::json_read</text>
</a>
</g>
</g>
<!-- Node5&#45;&gt;Node6 -->
<g id="edge5" class="edge">
<title>Node5&#45;&gt;Node6</title>
<path fill="none" stroke="midnightblue" d="M118.11,-125C107.39,-125 96.3,-125 86.07,-125"/>
<polygon fill="midnightblue" stroke="midnightblue" points="118.24,-128.5 128.24,-125 118.24,-121.5 118.24,-128.5"/>
</g>
<!-- Node9 -->
<g id="node9" class="node">
<title>Node9</title>
<g id="a_node9"><a xlink:href="param_8c.html#ab62861b770fc9aea05efcc26279ee9e5" target="_top" xlink:title="Sets the prediction parameters from a json formatted string.">
<polygon fill="none" stroke="black" points="402,-38.5 402,-57.5 548,-57.5 548,-38.5 402,-38.5"/>
<text text-anchor="middle" x="475" y="-45.5" font-family="Helvetica,sans-Serif" font-size="10.00">param_json_import_prediction</text>
</a>
</g>
</g>
<!-- Node8&#45;&gt;Node9 -->
<g id="edge8" class="edge">
<title>Node8&#45;&gt;Node9</title>
<path fill="none" stroke="midnightblue" d="M573.55,-46.19C565.18,-46.35 556.57,-46.51 548.09,-46.66"/>
<polygon fill="midnightblue" stroke="midnightblue" points="573.67,-49.69 583.61,-46.01 573.54,-42.69 573.67,-49.69"/>
</g>
<!-- Node13 -->
<g id="node13" class="node">
<title>Node13</title>
<g id="a_node13"><a xlink:href="classXCS.html#a6659e0b11f57ef97da5d5b91226338a5" target="_top" xlink:title="Sets the prediction type.">
<polygon fill="none" stroke="black" points="423,-0.5 423,-19.5 527,-19.5 527,-0.5 423,-0.5"/>
<text text-anchor="middle" x="475" y="-7.5" font-family="Helvetica,sans-Serif" font-size="10.00">XCS::set_prediction</text>
</a>
</g>
</g>
<!-- Node8&#45;&gt;Node13 -->
<g id="edge12" class="edge">
<title>Node8&#45;&gt;Node13</title>
<path fill="none" stroke="midnightblue" d="M573.74,-31.12C555.74,-27.23 536.58,-23.09 520.03,-19.51"/>
<polygon fill="midnightblue" stroke="midnightblue" points="573.09,-34.56 583.61,-33.25 574.57,-27.72 573.09,-34.56"/>
</g>
<!-- Node10 -->
<g id="node10" class="node">
<title>Node10</title>
<g id="a_node10"><a xlink:href="param_8c.html#a130260988988535419aee8abe51986c1" target="_top" xlink:title="Sets the parameters from a json formatted string.">
<polygon fill="none" stroke="black" points="264.5,-38.5 264.5,-57.5 363.5,-57.5 363.5,-38.5 264.5,-38.5"/>
<text text-anchor="middle" x="314" y="-45.5" font-family="Helvetica,sans-Serif" font-size="10.00">param_json_import</text>
</a>
</g>
</g>
<!-- Node9&#45;&gt;Node10 -->
<g id="edge9" class="edge">
<title>Node9&#45;&gt;Node10</title>
<path fill="none" stroke="midnightblue" d="M391.87,-48C382.2,-48 372.59,-48 363.6,-48"/>
<polygon fill="midnightblue" stroke="midnightblue" points="391.94,-51.5 401.94,-48 391.94,-44.5 391.94,-51.5"/>
</g>
<!-- Node11 -->
<g id="node11" class="node">
<title>Node11</title>
<g id="a_node11"><a xlink:href="config_8c.html#a045a64a30d99a4bef2ebfd9b54aa9698" target="_top" xlink:title="Reads the specified configuration file.">
<polygon fill="none" stroke="black" points="140.5,-38.5 140.5,-57.5 207.5,-57.5 207.5,-38.5 140.5,-38.5"/>
<text text-anchor="middle" x="174" y="-45.5" font-family="Helvetica,sans-Serif" font-size="10.00">config_read</text>
</a>
</g>
</g>
<!-- Node10&#45;&gt;Node11 -->
<g id="edge10" class="edge">
<title>Node10&#45;&gt;Node11</title>
<path fill="none" stroke="midnightblue" d="M254.05,-48C238.16,-48 221.54,-48 207.67,-48"/>
<polygon fill="midnightblue" stroke="midnightblue" points="254.35,-51.5 264.35,-48 254.35,-44.5 254.35,-51.5"/>
</g>
<!-- Node12 -->
<g id="node12" class="node">
<title>Node12</title>
<g id="a_node12"><a xlink:href="main_8c.html#a3c04138a5bfe5d72780bb7e82a18e627" target="_top" xlink:title=" ">
<polygon fill="none" stroke="black" points="24,-38.5 24,-57.5 62,-57.5 62,-38.5 24,-38.5"/>
<text text-anchor="middle" x="43" y="-45.5" font-family="Helvetica,sans-Serif" font-size="10.00">main</text>
</a>
</g>
</g>
<!-- Node11&#45;&gt;Node12 -->
<g id="edge11" class="edge">
<title>Node11&#45;&gt;Node12</title>
<path fill="none" stroke="midnightblue" d="M130.18,-48C107.08,-48 79.78,-48 62.19,-48"/>
<polygon fill="midnightblue" stroke="midnightblue" points="130.45,-51.5 140.45,-48 130.45,-44.5 130.45,-51.5"/>
</g>
<!-- Node14 -->
<g id="node14" class="node">
<title>Node14</title>
<g id="a_node14"><a xlink:href="classXCS.html#a76f72805cdd38df46ecbc8bd8a592376" target="_top" xlink:title="Sets the prediction type and initialisation arguments.">
<polygon fill="none" stroke="black" points="262,-0.5 262,-19.5 366,-19.5 366,-0.5 262,-0.5"/>
<text text-anchor="middle" x="314" y="-7.5" font-family="Helvetica,sans-Serif" font-size="10.00">XCS::set_prediction</text>
</a>
</g>
</g>
<!-- Node13&#45;&gt;Node14 -->
<g id="edge13" class="edge">
<title>Node13&#45;&gt;Node14</title>
<path fill="none" stroke="midnightblue" d="M412.39,-10C397.08,-10 380.83,-10 366.09,-10"/>
<polygon fill="midnightblue" stroke="midnightblue" points="412.82,-13.5 422.82,-10 412.82,-6.5 412.82,-13.5"/>
</g>
</g>
</svg>
