<?xml version="1.0" encoding="UTF-8" standalone="no"?>
<!DOCTYPE svg PUBLIC "-//W3C//DTD SVG 1.1//EN"
 "http://www.w3.org/Graphics/SVG/1.1/DTD/svg11.dtd">
<!-- Generated by graphviz version 2.43.0 (0)
 -->
<!-- Title: pred_neural_eta Pages: 1 -->
<svg width="386pt" height="39pt"
 viewBox="0.00 0.00 386.00 39.00" xmlns="http://www.w3.org/2000/svg" xmlns:xlink="http://www.w3.org/1999/xlink">
<g id="graph0" class="graph" transform="scale(1 1) rotate(0) translate(4 35)">
<title>pred_neural_eta</title>
<!-- Node1 -->
<g id="node1" class="node">
<title>Node1</title>
<g id="a_node1"><a xlink:title="Returns the gradient descent rate of a neural prediction layer.">
<polygon fill="#bfbfbf" stroke="black" points="292,-6 292,-25 378,-25 378,-6 292,-6"/>
<text text-anchor="middle" x="335" y="-13" font-family="Helvetica,sans-Serif" font-size="10.00">pred_neural_eta</text>
</a>
</g>
</g>
<!-- Node2 -->
<g id="node2" class="node">
<title>Node2</title>
<g id="a_node2"><a xlink:href="clset__neural_8c.html#a584c4d47a112fc4dab6e9b118a685e5e" target="_top" xlink:title="Calculates the mean prediction layer ETA of classifiers in the set.">
<polygon fill="none" stroke="black" points="146,-6 146,-25 256,-25 256,-6 146,-6"/>
<text text-anchor="middle" x="201" y="-13" font-family="Helvetica,sans-Serif" font-size="10.00">clset_mean_pred_eta</text>
</a>
</g>
</g>
<!-- Node1&#45;&gt;Node2 -->
<g id="edge1" class="edge">
<title>Node1&#45;&gt;Node2</title>
<path fill="none" stroke="midnightblue" d="M281.82,-15.5C273.43,-15.5 264.72,-15.5 256.28,-15.5"/>
<polygon fill="midnightblue" stroke="midnightblue" points="281.87,-19 291.87,-15.5 281.87,-12 281.87,-19"/>
</g>
<!-- Node3 -->
<g id="node3" class="node">
<title>Node3</title>
<g id="a_node3"><a xlink:href="classXCS.html#a4b58ad095103bedca3a73671a856504f" target="_top" xlink:title=" ">
<polygon fill="none" stroke="black" points="0,-0.5 0,-30.5 110,-30.5 110,-0.5 0,-0.5"/>
<text text-anchor="start" x="8" y="-18.5" font-family="Helvetica,sans-Serif" font-size="10.00">XCS::get_pset_mean</text>
<text text-anchor="middle" x="55" y="-7.5" font-family="Helvetica,sans-Serif" font-size="10.00">_pred_eta</text>
</a>
</g>
</g>
<!-- Node2&#45;&gt;Node3 -->
<g id="edge2" class="edge">
<title>Node2&#45;&gt;Node3</title>
<path fill="none" stroke="midnightblue" d="M135.73,-15.5C127.25,-15.5 118.62,-15.5 110.33,-15.5"/>
<polygon fill="midnightblue" stroke="midnightblue" points="135.97,-19 145.97,-15.5 135.97,-12 135.97,-19"/>
</g>
</g>
</svg>
