<?xml version="1.0" encoding="UTF-8" standalone="no"?>
<!DOCTYPE svg PUBLIC "-//W3C//DTD SVG 1.1//EN"
 "http://www.w3.org/Graphics/SVG/1.1/DTD/svg11.dtd">
<!-- Generated by graphviz version 2.43.0 (0)
 -->
<!-- Title: pred_param_set_type_string Pages: 1 -->
<svg width="617pt" height="66pt"
 viewBox="0.00 0.00 617.00 66.00" xmlns="http://www.w3.org/2000/svg" xmlns:xlink="http://www.w3.org/1999/xlink">
<g id="graph0" class="graph" transform="scale(1 1) rotate(0) translate(4 62)">
<title>pred_param_set_type_string</title>
<!-- Node1 -->
<g id="node1" class="node">
<title>Node1</title>
<g id="a_node1"><a xlink:title=" ">
<polygon fill="#bfbfbf" stroke="black" points="499,-14 499,-44 609,-44 609,-14 499,-14"/>
<text text-anchor="start" x="507" y="-32" font-family="Helvetica,sans-Serif" font-size="10.00">pred_param_set_type</text>
<text text-anchor="middle" x="554" y="-21" font-family="Helvetica,sans-Serif" font-size="10.00">_string</text>
</a>
</g>
</g>
<!-- Node2 -->
<g id="node2" class="node">
<title>Node2</title>
<g id="a_node2"><a xlink:href="param_8c.html#ab62861b770fc9aea05efcc26279ee9e5" target="_top" xlink:title="Sets the prediction parameters from a json formatted string.">
<polygon fill="none" stroke="black" points="317,-38.5 317,-57.5 463,-57.5 463,-38.5 317,-38.5"/>
<text text-anchor="middle" x="390" y="-45.5" font-family="Helvetica,sans-Serif" font-size="10.00">param_json_import_prediction</text>
</a>
</g>
</g>
<!-- Node1&#45;&gt;Node2 -->
<g id="edge1" class="edge">
<title>Node1&#45;&gt;Node2</title>
<path fill="none" stroke="midnightblue" d="M488.55,-36.56C480.18,-37.54 471.57,-38.55 463.09,-39.54"/>
<polygon fill="midnightblue" stroke="midnightblue" points="489.08,-40.02 498.61,-35.38 488.27,-33.07 489.08,-40.02"/>
</g>
<!-- Node6 -->
<g id="node6" class="node">
<title>Node6</title>
<g id="a_node6"><a xlink:href="classXCS.html#a6659e0b11f57ef97da5d5b91226338a5" target="_top" xlink:title="Sets the prediction type.">
<polygon fill="none" stroke="black" points="338,-0.5 338,-19.5 442,-19.5 442,-0.5 338,-0.5"/>
<text text-anchor="middle" x="390" y="-7.5" font-family="Helvetica,sans-Serif" font-size="10.00">XCS::set_prediction</text>
</a>
</g>
</g>
<!-- Node1&#45;&gt;Node6 -->
<g id="edge5" class="edge">
<title>Node1&#45;&gt;Node6</title>
<path fill="none" stroke="midnightblue" d="M488.62,-21.45C473.21,-19.64 456.96,-17.74 442.24,-16.01"/>
<polygon fill="midnightblue" stroke="midnightblue" points="488.27,-24.93 498.61,-22.62 489.08,-17.98 488.27,-24.93"/>
</g>
<!-- Node3 -->
<g id="node3" class="node">
<title>Node3</title>
<g id="a_node3"><a xlink:href="param_8c.html#a130260988988535419aee8abe51986c1" target="_top" xlink:title="Sets the parameters from a json formatted string.">
<polygon fill="none" stroke="black" points="179.5,-38.5 179.5,-57.5 278.5,-57.5 278.5,-38.5 179.5,-38.5"/>
<text text-anchor="middle" x="229" y="-45.5" font-family="Helvetica,sans-Serif" font-size="10.00">param_json_import</text>
</a>
</g>
</g>
<!-- Node2&#45;&gt;Node3 -->
<g id="edge2" class="edge">
<title>Node2&#45;&gt;Node3</title>
<path fill="none" stroke="midnightblue" d="M306.87,-48C297.2,-48 287.59,-48 278.6,-48"/>
<polygon fill="midnightblue" stroke="midnightblue" points="306.94,-51.5 316.94,-48 306.94,-44.5 306.94,-51.5"/>
</g>
<!-- Node4 -->
<g id="node4" class="node">
<title>Node4</title>
<g id="a_node4"><a xlink:href="config_8c.html#a045a64a30d99a4bef2ebfd9b54aa9698" target="_top" xlink:title="Reads the specified configuration file.">
<polygon fill="none" stroke="black" points="74,-38.5 74,-57.5 141,-57.5 141,-38.5 74,-38.5"/>
<text text-anchor="middle" x="107.5" y="-45.5" font-family="Helvetica,sans-Serif" font-size="10.00">config_read</text>
</a>
</g>
</g>
<!-- Node3&#45;&gt;Node4 -->
<g id="edge3" class="edge">
<title>Node3&#45;&gt;Node4</title>
<path fill="none" stroke="midnightblue" d="M169.1,-48C159.55,-48 149.98,-48 141.35,-48"/>
<polygon fill="midnightblue" stroke="midnightblue" points="169.39,-51.5 179.39,-48 169.39,-44.5 169.39,-51.5"/>
</g>
<!-- Node5 -->
<g id="node5" class="node">
<title>Node5</title>
<g id="a_node5"><a xlink:href="main_8c.html#a3c04138a5bfe5d72780bb7e82a18e627" target="_top" xlink:title=" ">
<polygon fill="none" stroke="black" points="0,-38.5 0,-57.5 38,-57.5 38,-38.5 0,-38.5"/>
<text text-anchor="middle" x="19" y="-45.5" font-family="Helvetica,sans-Serif" font-size="10.00">main</text>
</a>
</g>
</g>
<!-- Node4&#45;&gt;Node5 -->
<g id="edge4" class="edge">
<title>Node4&#45;&gt;Node5</title>
<path fill="none" stroke="midnightblue" d="M63.73,-48C54.73,-48 45.7,-48 38.2,-48"/>
<polygon fill="midnightblue" stroke="midnightblue" points="63.8,-51.5 73.8,-48 63.8,-44.5 63.8,-51.5"/>
</g>
<!-- Node7 -->
<g id="node7" class="node">
<title>Node7</title>
<g id="a_node7"><a xlink:href="classXCS.html#a76f72805cdd38df46ecbc8bd8a592376" target="_top" xlink:title="Sets the prediction type and initialisation arguments.">
<polygon fill="none" stroke="black" points="177,-0.5 177,-19.5 281,-19.5 281,-0.5 177,-0.5"/>
<text text-anchor="middle" x="229" y="-7.5" font-family="Helvetica,sans-Serif" font-size="10.00">XCS::set_prediction</text>
</a>
</g>
</g>
<!-- Node6&#45;&gt;Node7 -->
<g id="edge6" class="edge">
<title>Node6&#45;&gt;Node7</title>
<path fill="none" stroke="midnightblue" d="M327.39,-10C312.08,-10 295.83,-10 281.09,-10"/>
<polygon fill="midnightblue" stroke="midnightblue" points="327.82,-13.5 337.82,-10 327.82,-6.5 327.82,-13.5"/>
</g>
</g>
</svg>
