<?xml version="1.0" encoding="UTF-8" standalone="no"?>
<!DOCTYPE svg PUBLIC "-//W3C//DTD SVG 1.1//EN"
 "http://www.w3.org/Graphics/SVG/1.1/DTD/svg11.dtd">
<!-- Generated by graphviz version 2.43.0 (0)
 -->
<!-- Title: pred_nlms.c Pages: 1 -->
<svg width="857pt" height="308pt"
 viewBox="0.00 0.00 856.88 308.00" xmlns="http://www.w3.org/2000/svg" xmlns:xlink="http://www.w3.org/1999/xlink">
<g id="graph0" class="graph" transform="scale(1 1) rotate(0) translate(4 304)">
<title>pred_nlms.c</title>
<!-- Node1 -->
<g id="node1" class="node">
<title>Node1</title>
<g id="a_node1"><a xlink:title="Normalised least mean squares prediction functions.">
<polygon fill="#bfbfbf" stroke="black" points="454.88,-280.5 454.88,-299.5 524.88,-299.5 524.88,-280.5 454.88,-280.5"/>
<text text-anchor="middle" x="489.88" y="-287.5" font-family="Helvetica,sans-Serif" font-size="10.00">pred_nlms.c</text>
</a>
</g>
</g>
<!-- Node2 -->
<g id="node2" class="node">
<title>Node2</title>
<g id="a_node2"><a xlink:href="pred__nlms_8h.html" target="_top" xlink:title="Normalised least mean squares prediction functions.">
<polygon fill="none" stroke="black" points="349.88,-224.5 349.88,-243.5 419.88,-243.5 419.88,-224.5 349.88,-224.5"/>
<text text-anchor="middle" x="384.88" y="-231.5" font-family="Helvetica,sans-Serif" font-size="10.00">pred_nlms.h</text>
</a>
</g>
</g>
<!-- Node1&#45;&gt;Node2 -->
<g id="edge1" class="edge">
<title>Node1&#45;&gt;Node2</title>
<path fill="none" stroke="midnightblue" d="M473.01,-280.32C456.18,-271.66 430.08,-258.24 410.65,-248.25"/>
<polygon fill="midnightblue" stroke="midnightblue" points="412.21,-245.12 401.71,-243.65 409,-251.34 412.21,-245.12"/>
</g>
<!-- Node5 -->
<g id="node5" class="node">
<title>Node5</title>
<g id="a_node5"><a xlink:href="utils_8h.html" target="_top" xlink:title="Utility functions for random number handling, etc.">
<polygon fill="none" stroke="black" points="576.38,-56.5 576.38,-75.5 619.38,-75.5 619.38,-56.5 576.38,-56.5"/>
<text text-anchor="middle" x="597.88" y="-63.5" font-family="Helvetica,sans-Serif" font-size="10.00">utils.h</text>
</a>
</g>
</g>
<!-- Node1&#45;&gt;Node5 -->
<g id="edge24" class="edge">
<title>Node1&#45;&gt;Node5</title>
<path fill="none" stroke="midnightblue" d="M494.12,-280.3C510.11,-247.42 567.05,-130.39 589.08,-85.09"/>
<polygon fill="midnightblue" stroke="midnightblue" points="592.34,-86.41 593.56,-75.88 586.04,-83.34 592.34,-86.41"/>
</g>
<!-- Node18 -->
<g id="node18" class="node">
<title>Node18</title>
<g id="a_node18"><a xlink:href="blas_8h.html" target="_top" xlink:title="Basic linear algebra functions.">
<polygon fill="none" stroke="black" points="537.38,-224.5 537.38,-243.5 580.38,-243.5 580.38,-224.5 537.38,-224.5"/>
<text text-anchor="middle" x="558.88" y="-231.5" font-family="Helvetica,sans-Serif" font-size="10.00">blas.h</text>
</a>
</g>
</g>
<!-- Node1&#45;&gt;Node18 -->
<g id="edge21" class="edge">
<title>Node1&#45;&gt;Node18</title>
<path fill="none" stroke="midnightblue" d="M500.97,-280.32C511.37,-272.18 527.14,-259.84 539.61,-250.09"/>
<polygon fill="midnightblue" stroke="midnightblue" points="541.88,-252.75 547.6,-243.83 537.56,-247.24 541.88,-252.75"/>
</g>
<!-- Node19 -->
<g id="node19" class="node">
<title>Node19</title>
<g id="a_node19"><a xlink:href="sam_8h.html" target="_top" xlink:title="Self&#45;adaptive mutation functions.">
<polygon fill="none" stroke="black" points="436.88,-168.5 436.88,-187.5 480.88,-187.5 480.88,-168.5 436.88,-168.5"/>
<text text-anchor="middle" x="458.88" y="-175.5" font-family="Helvetica,sans-Serif" font-size="10.00">sam.h</text>
</a>
</g>
</g>
<!-- Node1&#45;&gt;Node19 -->
<g id="edge22" class="edge">
<title>Node1&#45;&gt;Node19</title>
<path fill="none" stroke="midnightblue" d="M487.45,-280.37C482.43,-262.54 470.8,-221.3 464.03,-197.27"/>
<polygon fill="midnightblue" stroke="midnightblue" points="467.39,-196.27 461.31,-187.59 460.65,-198.17 467.39,-196.27"/>
</g>
<!-- Node3 -->
<g id="node3" class="node">
<title>Node3</title>
<g id="a_node3"><a xlink:href="prediction_8h.html" target="_top" xlink:title="Interface for classifier predictions.">
<polygon fill="none" stroke="black" points="351.38,-168.5 351.38,-187.5 418.38,-187.5 418.38,-168.5 351.38,-168.5"/>
<text text-anchor="middle" x="384.88" y="-175.5" font-family="Helvetica,sans-Serif" font-size="10.00">prediction.h</text>
</a>
</g>
</g>
<!-- Node2&#45;&gt;Node3 -->
<g id="edge2" class="edge">
<title>Node2&#45;&gt;Node3</title>
<path fill="none" stroke="midnightblue" d="M384.88,-224.08C384.88,-217.01 384.88,-206.86 384.88,-197.99"/>
<polygon fill="midnightblue" stroke="midnightblue" points="388.38,-197.75 384.88,-187.75 381.38,-197.75 388.38,-197.75"/>
</g>
<!-- Node4 -->
<g id="node4" class="node">
<title>Node4</title>
<g id="a_node4"><a xlink:href="xcsf_8h.html" target="_top" xlink:title="XCSF data structures.">
<polygon fill="none" stroke="black" points="331.88,-112.5 331.88,-131.5 375.88,-131.5 375.88,-112.5 331.88,-112.5"/>
<text text-anchor="middle" x="353.88" y="-119.5" font-family="Helvetica,sans-Serif" font-size="10.00">xcsf.h</text>
</a>
</g>
</g>
<!-- Node2&#45;&gt;Node4 -->
<g id="edge20" class="edge">
<title>Node2&#45;&gt;Node4</title>
<path fill="none" stroke="midnightblue" d="M372.39,-224.3C362.01,-216.25 348,-203.24 341.88,-188 335.82,-172.87 340.18,-154.52 345.26,-141.18"/>
<polygon fill="midnightblue" stroke="midnightblue" points="348.59,-142.29 349.31,-131.72 342.16,-139.54 348.59,-142.29"/>
</g>
<!-- Node3&#45;&gt;Node4 -->
<g id="edge3" class="edge">
<title>Node3&#45;&gt;Node4</title>
<path fill="none" stroke="midnightblue" d="M379.77,-168.08C375.48,-160.61 369.23,-149.72 363.94,-140.52"/>
<polygon fill="midnightblue" stroke="midnightblue" points="366.92,-138.68 358.91,-131.75 360.85,-142.17 366.92,-138.68"/>
</g>
<!-- Node4&#45;&gt;Node5 -->
<g id="edge4" class="edge">
<title>Node4&#45;&gt;Node5</title>
<path fill="none" stroke="midnightblue" d="M376.1,-116.44C414.2,-108.56 494.42,-91.73 561.88,-76 563.34,-75.66 564.82,-75.31 566.31,-74.95"/>
<polygon fill="midnightblue" stroke="midnightblue" points="567.32,-78.31 576.21,-72.54 565.66,-71.51 567.32,-78.31"/>
</g>
<!-- Node8 -->
<g id="node8" class="node">
<title>Node8</title>
<g id="a_node8"><a xlink:title=" ">
<polygon fill="none" stroke="#bfbfbf" points="194.38,-0.5 194.38,-19.5 241.38,-19.5 241.38,-0.5 194.38,-0.5"/>
<text text-anchor="middle" x="217.88" y="-7.5" font-family="Helvetica,sans-Serif" font-size="10.00">math.h</text>
</a>
</g>
</g>
<!-- Node4&#45;&gt;Node8 -->
<g id="edge14" class="edge">
<title>Node4&#45;&gt;Node8</title>
<path fill="none" stroke="midnightblue" d="M331.88,-119.78C259.36,-115.53 31.24,-100.33 9.88,-76 -39.73,-19.47 113.14,-11.54 183.94,-10.82"/>
<polygon fill="midnightblue" stroke="midnightblue" points="184.17,-14.32 194.15,-10.76 184.13,-7.32 184.17,-14.32"/>
</g>
<!-- Node9 -->
<g id="node9" class="node">
<title>Node9</title>
<g id="a_node9"><a xlink:title=" ">
<polygon fill="none" stroke="#bfbfbf" points="472.88,-0.5 472.88,-19.5 518.88,-19.5 518.88,-0.5 472.88,-0.5"/>
<text text-anchor="middle" x="495.88" y="-7.5" font-family="Helvetica,sans-Serif" font-size="10.00">stdio.h</text>
</a>
</g>
</g>
<!-- Node4&#45;&gt;Node9 -->
<g id="edge17" class="edge">
<title>Node4&#45;&gt;Node9</title>
<path fill="none" stroke="midnightblue" d="M376.11,-120.81C407.27,-119.21 463.23,-111.26 490.88,-76 501.03,-63.07 501.27,-43.9 499.59,-29.73"/>
<polygon fill="midnightblue" stroke="midnightblue" points="503.01,-28.96 497.97,-19.64 496.1,-30.07 503.01,-28.96"/>
</g>
<!-- Node10 -->
<g id="node10" class="node">
<title>Node10</title>
<g id="a_node10"><a xlink:title=" ">
<polygon fill="none" stroke="#bfbfbf" points="536.88,-0.5 536.88,-19.5 584.88,-19.5 584.88,-0.5 536.88,-0.5"/>
<text text-anchor="middle" x="560.88" y="-7.5" font-family="Helvetica,sans-Serif" font-size="10.00">stdlib.h</text>
</a>
</g>
</g>
<!-- Node4&#45;&gt;Node10 -->
<g id="edge18" class="edge">
<title>Node4&#45;&gt;Node10</title>
<path fill="none" stroke="midnightblue" d="M375.93,-118.84C407.69,-114.83 467.07,-103.95 508.88,-76 527.21,-63.75 542.17,-43.01 551.26,-28.25"/>
<polygon fill="midnightblue" stroke="midnightblue" points="554.31,-29.97 556.36,-19.57 548.27,-26.42 554.31,-29.97"/>
</g>
<!-- Node11 -->
<g id="node11" class="node">
<title>Node11</title>
<g id="a_node11"><a xlink:title=" ">
<polygon fill="none" stroke="#bfbfbf" points="19.38,-56.5 19.38,-75.5 66.38,-75.5 66.38,-56.5 19.38,-56.5"/>
<text text-anchor="middle" x="42.88" y="-63.5" font-family="Helvetica,sans-Serif" font-size="10.00">errno.h</text>
</a>
</g>
</g>
<!-- Node4&#45;&gt;Node11 -->
<g id="edge10" class="edge">
<title>Node4&#45;&gt;Node11</title>
<path fill="none" stroke="midnightblue" d="M331.75,-118.23C286,-112.32 177.55,-97.45 76.65,-75.96"/>
<polygon fill="midnightblue" stroke="midnightblue" points="77.12,-72.48 66.6,-73.79 75.64,-79.32 77.12,-72.48"/>
</g>
<!-- Node12 -->
<g id="node12" class="node">
<title>Node12</title>
<g id="a_node12"><a xlink:title=" ">
<polygon fill="none" stroke="#bfbfbf" points="84.88,-56.5 84.88,-75.5 128.88,-75.5 128.88,-56.5 84.88,-56.5"/>
<text text-anchor="middle" x="106.88" y="-63.5" font-family="Helvetica,sans-Serif" font-size="10.00">float.h</text>
</a>
</g>
</g>
<!-- Node4&#45;&gt;Node12 -->
<g id="edge11" class="edge">
<title>Node4&#45;&gt;Node12</title>
<path fill="none" stroke="midnightblue" d="M331.68,-116.96C294,-109.98 214.97,-94.8 138.92,-76.11"/>
<polygon fill="midnightblue" stroke="midnightblue" points="139.73,-72.71 129.18,-73.7 138.04,-79.5 139.73,-72.71"/>
</g>
<!-- Node13 -->
<g id="node13" class="node">
<title>Node13</title>
<g id="a_node13"><a xlink:title=" ">
<polygon fill="none" stroke="#bfbfbf" points="147.38,-56.5 147.38,-75.5 206.38,-75.5 206.38,-56.5 147.38,-56.5"/>
<text text-anchor="middle" x="176.88" y="-63.5" font-family="Helvetica,sans-Serif" font-size="10.00">inttypes.h</text>
</a>
</g>
</g>
<!-- Node4&#45;&gt;Node13 -->
<g id="edge12" class="edge">
<title>Node4&#45;&gt;Node13</title>
<path fill="none" stroke="midnightblue" d="M331.83,-114.27C302.43,-105.3 249.99,-89.3 214.34,-78.43"/>
<polygon fill="midnightblue" stroke="midnightblue" points="215.35,-75.08 204.77,-75.51 213.31,-81.77 215.35,-75.08"/>
</g>
<!-- Node14 -->
<g id="node14" class="node">
<title>Node14</title>
<g id="a_node14"><a xlink:title=" ">
<polygon fill="none" stroke="#bfbfbf" points="224.88,-56.5 224.88,-75.5 272.88,-75.5 272.88,-56.5 224.88,-56.5"/>
<text text-anchor="middle" x="248.88" y="-63.5" font-family="Helvetica,sans-Serif" font-size="10.00">limits.h</text>
</a>
</g>
</g>
<!-- Node4&#45;&gt;Node14 -->
<g id="edge13" class="edge">
<title>Node4&#45;&gt;Node14</title>
<path fill="none" stroke="midnightblue" d="M337.01,-112.32C320.18,-103.66 294.08,-90.24 274.65,-80.25"/>
<polygon fill="midnightblue" stroke="midnightblue" points="276.21,-77.12 265.71,-75.65 273,-83.34 276.21,-77.12"/>
</g>
<!-- Node15 -->
<g id="node15" class="node">
<title>Node15</title>
<g id="a_node15"><a xlink:title=" ">
<polygon fill="none" stroke="#bfbfbf" points="290.88,-56.5 290.88,-75.5 346.88,-75.5 346.88,-56.5 290.88,-56.5"/>
<text text-anchor="middle" x="318.88" y="-63.5" font-family="Helvetica,sans-Serif" font-size="10.00">stdbool.h</text>
</a>
</g>
</g>
<!-- Node4&#45;&gt;Node15 -->
<g id="edge15" class="edge">
<title>Node4&#45;&gt;Node15</title>
<path fill="none" stroke="midnightblue" d="M348.1,-112.08C343.21,-104.53 336.06,-93.49 330.05,-84.23"/>
<polygon fill="midnightblue" stroke="midnightblue" points="332.93,-82.24 324.56,-75.75 327.06,-86.05 332.93,-82.24"/>
</g>
<!-- Node16 -->
<g id="node16" class="node">
<title>Node16</title>
<g id="a_node16"><a xlink:title=" ">
<polygon fill="none" stroke="#bfbfbf" points="365.38,-56.5 365.38,-75.5 414.38,-75.5 414.38,-56.5 365.38,-56.5"/>
<text text-anchor="middle" x="389.88" y="-63.5" font-family="Helvetica,sans-Serif" font-size="10.00">stdint.h</text>
</a>
</g>
</g>
<!-- Node4&#45;&gt;Node16 -->
<g id="edge16" class="edge">
<title>Node4&#45;&gt;Node16</title>
<path fill="none" stroke="midnightblue" d="M359.83,-112.08C364.86,-104.53 372.22,-93.49 378.4,-84.23"/>
<polygon fill="midnightblue" stroke="midnightblue" points="381.42,-86.01 384.05,-75.75 375.59,-82.13 381.42,-86.01"/>
</g>
<!-- Node17 -->
<g id="node17" class="node">
<title>Node17</title>
<g id="a_node17"><a xlink:title=" ">
<polygon fill="none" stroke="#bfbfbf" points="432.38,-56.5 432.38,-75.5 481.38,-75.5 481.38,-56.5 432.38,-56.5"/>
<text text-anchor="middle" x="456.88" y="-63.5" font-family="Helvetica,sans-Serif" font-size="10.00">string.h</text>
</a>
</g>
</g>
<!-- Node4&#45;&gt;Node17 -->
<g id="edge19" class="edge">
<title>Node4&#45;&gt;Node17</title>
<path fill="none" stroke="midnightblue" d="M370.43,-112.32C386.88,-103.7 412.32,-90.36 431.35,-80.39"/>
<polygon fill="midnightblue" stroke="midnightblue" points="433.15,-83.4 440.38,-75.65 429.89,-77.2 433.15,-83.4"/>
</g>
<!-- Node6 -->
<g id="node6" class="node">
<title>Node6</title>
<g id="a_node6"><a xlink:title=" ">
<polygon fill="none" stroke="#bfbfbf" points="734.88,-0.5 734.88,-19.5 848.88,-19.5 848.88,-0.5 734.88,-0.5"/>
<text text-anchor="middle" x="791.88" y="-7.5" font-family="Helvetica,sans-Serif" font-size="10.00">../lib/cJSON/cJSON.h</text>
</a>
</g>
</g>
<!-- Node5&#45;&gt;Node6 -->
<g id="edge5" class="edge">
<title>Node5&#45;&gt;Node6</title>
<path fill="none" stroke="midnightblue" d="M619.39,-59.01C651.13,-50.18 711.09,-33.49 751.27,-22.3"/>
<polygon fill="midnightblue" stroke="midnightblue" points="752.34,-25.64 761.04,-19.59 750.46,-18.9 752.34,-25.64"/>
</g>
<!-- Node7 -->
<g id="node7" class="node">
<title>Node7</title>
<g id="a_node7"><a xlink:title=" ">
<polygon fill="none" stroke="#bfbfbf" points="603.38,-0.5 603.38,-19.5 716.38,-19.5 716.38,-0.5 603.38,-0.5"/>
<text text-anchor="middle" x="659.88" y="-7.5" font-family="Helvetica,sans-Serif" font-size="10.00">../lib/dSFMT/dSFMT.h</text>
</a>
</g>
</g>
<!-- Node5&#45;&gt;Node7 -->
<g id="edge6" class="edge">
<title>Node5&#45;&gt;Node7</title>
<path fill="none" stroke="midnightblue" d="M607.85,-56.32C617.01,-48.34 630.82,-36.31 641.91,-26.65"/>
<polygon fill="midnightblue" stroke="midnightblue" points="644.5,-29.04 649.74,-19.83 639.9,-23.76 644.5,-29.04"/>
</g>
<!-- Node5&#45;&gt;Node8 -->
<g id="edge7" class="edge">
<title>Node5&#45;&gt;Node8</title>
<path fill="none" stroke="midnightblue" d="M576.37,-61.94C513.24,-52.97 328.17,-26.67 251.62,-15.79"/>
<polygon fill="midnightblue" stroke="midnightblue" points="251.96,-12.31 241.57,-14.37 250.98,-19.24 251.96,-12.31"/>
</g>
<!-- Node5&#45;&gt;Node9 -->
<g id="edge8" class="edge">
<title>Node5&#45;&gt;Node9</title>
<path fill="none" stroke="midnightblue" d="M581.5,-56.32C565.21,-47.7 540.02,-34.36 521.17,-24.39"/>
<polygon fill="midnightblue" stroke="midnightblue" points="522.71,-21.24 512.23,-19.65 519.43,-27.43 522.71,-21.24"/>
</g>
<!-- Node5&#45;&gt;Node10 -->
<g id="edge9" class="edge">
<title>Node5&#45;&gt;Node10</title>
<path fill="none" stroke="midnightblue" d="M591.77,-56.08C586.6,-48.53 579.04,-37.49 572.69,-28.23"/>
<polygon fill="midnightblue" stroke="midnightblue" points="575.42,-26.02 566.88,-19.75 569.65,-29.98 575.42,-26.02"/>
</g>
<!-- Node19&#45;&gt;Node4 -->
<g id="edge23" class="edge">
<title>Node19&#45;&gt;Node4</title>
<path fill="none" stroke="midnightblue" d="M442.01,-168.32C425.18,-159.66 399.08,-146.24 379.65,-136.25"/>
<polygon fill="midnightblue" stroke="midnightblue" points="381.21,-133.12 370.71,-131.65 378,-139.34 381.21,-133.12"/>
</g>
</g>
</svg>
