<?xml version="1.0" encoding="UTF-8" standalone="no"?>
<!DOCTYPE svg PUBLIC "-//W3C//DTD SVG 1.1//EN"
 "http://www.w3.org/Graphics/SVG/1.1/DTD/svg11.dtd">
<!-- Generated by graphviz version 2.43.0 (0)
 -->
<!-- Title: pred_param_set_x0 Pages: 1 -->
<svg width="971pt" height="212pt"
 viewBox="0.00 0.00 971.00 212.00" xmlns="http://www.w3.org/2000/svg" xmlns:xlink="http://www.w3.org/1999/xlink">
<g id="graph0" class="graph" transform="scale(1 1) rotate(0) translate(4 208)">
<title>pred_param_set_x0</title>
<!-- Node1 -->
<g id="node1" class="node">
<title>Node1</title>
<g id="a_node1"><a xlink:title=" ">
<polygon fill="#bfbfbf" stroke="black" points="861,-112.5 861,-131.5 963,-131.5 963,-112.5 861,-112.5"/>
<text text-anchor="middle" x="912" y="-119.5" font-family="Helvetica,sans-Serif" font-size="10.00">pred_param_set_x0</text>
</a>
</g>
</g>
<!-- Node2 -->
<g id="node2" class="node">
<title>Node2</title>
<g id="a_node2"><a xlink:href="pred__nlms_8c.html#ad710d595ff04564a4925d0d83129853d" target="_top" xlink:title="Sets the NLMS parameters from a cJSON object.">
<polygon fill="none" stroke="black" points="708,-156 708,-186 825,-186 825,-156 708,-156"/>
<text text-anchor="start" x="716" y="-174" font-family="Helvetica,sans-Serif" font-size="10.00">pred_nlms_param_json</text>
<text text-anchor="middle" x="766.5" y="-163" font-family="Helvetica,sans-Serif" font-size="10.00">_import</text>
</a>
</g>
</g>
<!-- Node1&#45;&gt;Node2 -->
<g id="edge1" class="edge">
<title>Node1&#45;&gt;Node2</title>
<path fill="none" stroke="midnightblue" d="M873.49,-134.81C854.51,-141.29 831.36,-149.2 811.54,-155.96"/>
<polygon fill="midnightblue" stroke="midnightblue" points="874.66,-138.11 882.99,-131.56 872.4,-131.48 874.66,-138.11"/>
</g>
<!-- Node10 -->
<g id="node10" class="node">
<title>Node10</title>
<g id="a_node10"><a xlink:href="prediction_8c.html#af2e3b26751cb8f9af4c608e534ee6894" target="_top" xlink:title="Initialises default prediction parameters.">
<polygon fill="none" stroke="black" points="713,-68.5 713,-87.5 820,-87.5 820,-68.5 713,-68.5"/>
<text text-anchor="middle" x="766.5" y="-75.5" font-family="Helvetica,sans-Serif" font-size="10.00">pred_param_defaults</text>
</a>
</g>
</g>
<!-- Node1&#45;&gt;Node10 -->
<g id="edge9" class="edge">
<title>Node1&#45;&gt;Node10</title>
<path fill="none" stroke="midnightblue" d="M870.14,-109.47C847.39,-102.5 819.53,-93.95 798.58,-87.53"/>
<polygon fill="midnightblue" stroke="midnightblue" points="869.28,-112.87 879.86,-112.45 871.33,-106.17 869.28,-112.87"/>
</g>
<!-- Node19 -->
<g id="node19" class="node">
<title>Node19</title>
<g id="a_node19"><a xlink:href="pred__rls_8c.html#addc89af1656f21fec298ad5f04d2573d" target="_top" xlink:title="Sets the RLS parameters from a cJSON object.">
<polygon fill="none" stroke="black" points="713,-107 713,-137 820,-137 820,-107 713,-107"/>
<text text-anchor="start" x="721" y="-125" font-family="Helvetica,sans-Serif" font-size="10.00">pred_rls_param_json</text>
<text text-anchor="middle" x="766.5" y="-114" font-family="Helvetica,sans-Serif" font-size="10.00">_import</text>
</a>
</g>
</g>
<!-- Node1&#45;&gt;Node19 -->
<g id="edge21" class="edge">
<title>Node1&#45;&gt;Node19</title>
<path fill="none" stroke="midnightblue" d="M850.51,-122C840.48,-122 830.16,-122 820.34,-122"/>
<polygon fill="midnightblue" stroke="midnightblue" points="850.81,-125.5 860.81,-122 850.81,-118.5 850.81,-125.5"/>
</g>
<!-- Node3 -->
<g id="node3" class="node">
<title>Node3</title>
<g id="a_node3"><a xlink:href="prediction_8c.html#a7f976ef5c24c68e48493bdec31567021" target="_top" xlink:title="Sets the prediction parameters from a cJSON object.">
<polygon fill="none" stroke="black" points="549,-154.5 549,-173.5 672,-173.5 672,-154.5 549,-154.5"/>
<text text-anchor="middle" x="610.5" y="-161.5" font-family="Helvetica,sans-Serif" font-size="10.00">pred_param_json_import</text>
</a>
</g>
</g>
<!-- Node2&#45;&gt;Node3 -->
<g id="edge2" class="edge">
<title>Node2&#45;&gt;Node3</title>
<path fill="none" stroke="midnightblue" d="M697.52,-167.91C689.08,-167.53 680.5,-167.14 672.18,-166.76"/>
<polygon fill="midnightblue" stroke="midnightblue" points="697.57,-171.42 707.72,-168.37 697.89,-164.42 697.57,-171.42"/>
</g>
<!-- Node4 -->
<g id="node4" class="node">
<title>Node4</title>
<g id="a_node4"><a xlink:href="param_8c.html#ab62861b770fc9aea05efcc26279ee9e5" target="_top" xlink:title="Sets the prediction parameters from a json formatted string.">
<polygon fill="none" stroke="black" points="367,-154.5 367,-173.5 513,-173.5 513,-154.5 367,-154.5"/>
<text text-anchor="middle" x="440" y="-161.5" font-family="Helvetica,sans-Serif" font-size="10.00">param_json_import_prediction</text>
</a>
</g>
</g>
<!-- Node3&#45;&gt;Node4 -->
<g id="edge3" class="edge">
<title>Node3&#45;&gt;Node4</title>
<path fill="none" stroke="midnightblue" d="M538.56,-164C530.18,-164 521.62,-164 513.22,-164"/>
<polygon fill="midnightblue" stroke="midnightblue" points="538.67,-167.5 548.67,-164 538.67,-160.5 538.67,-167.5"/>
</g>
<!-- Node5 -->
<g id="node5" class="node">
<title>Node5</title>
<g id="a_node5"><a xlink:href="param_8c.html#a130260988988535419aee8abe51986c1" target="_top" xlink:title="Sets the parameters from a json formatted string.">
<polygon fill="none" stroke="black" points="232,-154.5 232,-173.5 331,-173.5 331,-154.5 232,-154.5"/>
<text text-anchor="middle" x="281.5" y="-161.5" font-family="Helvetica,sans-Serif" font-size="10.00">param_json_import</text>
</a>
</g>
</g>
<!-- Node4&#45;&gt;Node5 -->
<g id="edge4" class="edge">
<title>Node4&#45;&gt;Node5</title>
<path fill="none" stroke="midnightblue" d="M356.55,-164C347.9,-164 339.33,-164 331.24,-164"/>
<polygon fill="midnightblue" stroke="midnightblue" points="356.71,-167.5 366.71,-164 356.71,-160.5 356.71,-167.5"/>
</g>
<!-- Node6 -->
<g id="node6" class="node">
<title>Node6</title>
<g id="a_node6"><a xlink:href="config_8c.html#a045a64a30d99a4bef2ebfd9b54aa9698" target="_top" xlink:title="Reads the specified configuration file.">
<polygon fill="none" stroke="black" points="115,-146.5 115,-165.5 182,-165.5 182,-146.5 115,-146.5"/>
<text text-anchor="middle" x="148.5" y="-153.5" font-family="Helvetica,sans-Serif" font-size="10.00">config_read</text>
</a>
</g>
</g>
<!-- Node5&#45;&gt;Node6 -->
<g id="edge5" class="edge">
<title>Node5&#45;&gt;Node6</title>
<path fill="none" stroke="midnightblue" d="M221.46,-160.39C207.9,-159.57 193.97,-158.72 182.02,-157.99"/>
<polygon fill="midnightblue" stroke="midnightblue" points="221.53,-163.9 231.72,-161.02 221.95,-156.92 221.53,-163.9"/>
</g>
<!-- Node8 -->
<g id="node8" class="node">
<title>Node8</title>
<g id="a_node8"><a xlink:href="classXCS.html#ad8780630d80d4bf5b76d9bf2f6c91f25" target="_top" xlink:title="Sets parameter values.">
<polygon fill="none" stroke="black" points="101,-184.5 101,-203.5 196,-203.5 196,-184.5 101,-184.5"/>
<text text-anchor="middle" x="148.5" y="-191.5" font-family="Helvetica,sans-Serif" font-size="10.00">XCS::set_params</text>
</a>
</g>
</g>
<!-- Node5&#45;&gt;Node8 -->
<g id="edge7" class="edge">
<title>Node5&#45;&gt;Node8</title>
<path fill="none" stroke="midnightblue" d="M228.9,-175.82C216.45,-178.67 203.3,-181.68 191.36,-184.41"/>
<polygon fill="midnightblue" stroke="midnightblue" points="229.72,-179.22 238.69,-173.57 228.16,-172.4 229.72,-179.22"/>
</g>
<!-- Node7 -->
<g id="node7" class="node">
<title>Node7</title>
<g id="a_node7"><a xlink:href="main_8c.html#a3c04138a5bfe5d72780bb7e82a18e627" target="_top" xlink:title=" ">
<polygon fill="none" stroke="black" points="13.5,-108.5 13.5,-127.5 51.5,-127.5 51.5,-108.5 13.5,-108.5"/>
<text text-anchor="middle" x="32.5" y="-115.5" font-family="Helvetica,sans-Serif" font-size="10.00">main</text>
</a>
</g>
</g>
<!-- Node6&#45;&gt;Node7 -->
<g id="edge6" class="edge">
<title>Node6&#45;&gt;Node7</title>
<path fill="none" stroke="midnightblue" d="M109.2,-143.23C89.74,-136.75 67,-129.17 51.56,-124.02"/>
<polygon fill="midnightblue" stroke="midnightblue" points="108.14,-146.57 118.73,-146.41 110.35,-139.93 108.14,-146.57"/>
</g>
<!-- Node9 -->
<g id="node9" class="node">
<title>Node9</title>
<g id="a_node9"><a xlink:href="classXCS.html#a608a50f998819369d28ef9966d6812ca" target="_top" xlink:title="Constructor.">
<polygon fill="none" stroke="black" points="0,-184.5 0,-203.5 65,-203.5 65,-184.5 0,-184.5"/>
<text text-anchor="middle" x="32.5" y="-191.5" font-family="Helvetica,sans-Serif" font-size="10.00">XCS::XCS</text>
</a>
</g>
</g>
<!-- Node8&#45;&gt;Node9 -->
<g id="edge8" class="edge">
<title>Node8&#45;&gt;Node9</title>
<path fill="none" stroke="midnightblue" d="M90.64,-194C81.94,-194 73.23,-194 65.33,-194"/>
<polygon fill="midnightblue" stroke="midnightblue" points="90.8,-197.5 100.8,-194 90.8,-190.5 90.8,-197.5"/>
</g>
<!-- Node11 -->
<g id="node11" class="node">
<title>Node11</title>
<g id="a_node11"><a xlink:href="param_8c.html#ac8218a170803be0bcd974764e7494b0e" target="_top" xlink:title="Initialises default XCSF parameters.">
<polygon fill="none" stroke="black" points="579.5,-68.5 579.5,-87.5 641.5,-87.5 641.5,-68.5 579.5,-68.5"/>
<text text-anchor="middle" x="610.5" y="-75.5" font-family="Helvetica,sans-Serif" font-size="10.00">param_init</text>
</a>
</g>
</g>
<!-- Node10&#45;&gt;Node11 -->
<g id="edge10" class="edge">
<title>Node10&#45;&gt;Node11</title>
<path fill="none" stroke="midnightblue" d="M702.76,-78C681.73,-78 659.24,-78 641.85,-78"/>
<polygon fill="midnightblue" stroke="midnightblue" points="702.93,-81.5 712.93,-78 702.93,-74.5 702.93,-81.5"/>
</g>
<!-- Node12 -->
<g id="node12" class="node">
<title>Node12</title>
<g id="a_node12"><a xlink:href="env__csv_8c.html#ab26a39a388f0ac83b9ac14726ad14b16" target="_top" xlink:title="Initialises a CSV input environment from a specified filename.">
<polygon fill="none" stroke="black" points="404.5,-76.5 404.5,-95.5 475.5,-95.5 475.5,-76.5 404.5,-76.5"/>
<text text-anchor="middle" x="440" y="-83.5" font-family="Helvetica,sans-Serif" font-size="10.00">env_csv_init</text>
</a>
</g>
</g>
<!-- Node11&#45;&gt;Node12 -->
<g id="edge11" class="edge">
<title>Node11&#45;&gt;Node12</title>
<path fill="none" stroke="midnightblue" d="M569.31,-79.91C540.72,-81.27 502.73,-83.07 475.51,-84.36"/>
<polygon fill="midnightblue" stroke="midnightblue" points="569.55,-83.4 579.38,-79.43 569.22,-76.41 569.55,-83.4"/>
</g>
<!-- Node14 -->
<g id="node14" class="node">
<title>Node14</title>
<g id="a_node14"><a xlink:href="env__maze_8c.html#acad3cc6e9fe2b7e07e878f1f517ad3a6" target="_top" xlink:title="Initialises a maze environment from a specified file.">
<polygon fill="none" stroke="black" points="400,-38.5 400,-57.5 480,-57.5 480,-38.5 400,-38.5"/>
<text text-anchor="middle" x="440" y="-45.5" font-family="Helvetica,sans-Serif" font-size="10.00">env_maze_init</text>
</a>
</g>
</g>
<!-- Node11&#45;&gt;Node14 -->
<g id="edge14" class="edge">
<title>Node11&#45;&gt;Node14</title>
<path fill="none" stroke="midnightblue" d="M569.46,-70.87C542.42,-66.06 506.9,-59.73 480.07,-54.96"/>
<polygon fill="midnightblue" stroke="midnightblue" points="568.92,-74.33 579.38,-72.64 570.14,-67.44 568.92,-74.33"/>
</g>
<!-- Node15 -->
<g id="node15" class="node">
<title>Node15</title>
<g id="a_node15"><a xlink:href="env__mux_8c.html#aff3b81b4913d273ecfd62d7585480b15" target="_top" xlink:title="Initialises a real multiplexer environment of specified length.">
<polygon fill="none" stroke="black" points="403,-0.5 403,-19.5 477,-19.5 477,-0.5 403,-0.5"/>
<text text-anchor="middle" x="440" y="-7.5" font-family="Helvetica,sans-Serif" font-size="10.00">env_mux_init</text>
</a>
</g>
</g>
<!-- Node11&#45;&gt;Node15 -->
<g id="edge16" class="edge">
<title>Node11&#45;&gt;Node15</title>
<path fill="none" stroke="midnightblue" d="M584.31,-63.35C565.23,-52.71 538.09,-38.55 513,-29 501.64,-24.67 488.92,-20.96 477.36,-18"/>
<polygon fill="midnightblue" stroke="midnightblue" points="582.82,-66.52 593.25,-68.4 586.27,-60.43 582.82,-66.52"/>
</g>
<!-- Node16 -->
<g id="node16" class="node">
<title>Node16</title>
<g id="a_node16"><a xlink:href="classXCS.html#a2e542f3f17c9c76d07045adf1f5c16f9" target="_top" xlink:title="Resets basic constructor variables.">
<polygon fill="none" stroke="black" points="407.5,-114.5 407.5,-133.5 472.5,-133.5 472.5,-114.5 407.5,-114.5"/>
<text text-anchor="middle" x="440" y="-121.5" font-family="Helvetica,sans-Serif" font-size="10.00">XCS::reset</text>
</a>
</g>
</g>
<!-- Node11&#45;&gt;Node16 -->
<g id="edge18" class="edge">
<title>Node11&#45;&gt;Node16</title>
<path fill="none" stroke="midnightblue" d="M569.32,-89.39C552.01,-94.25 531.52,-99.96 513,-105 499.78,-108.59 485.16,-112.47 472.57,-115.78"/>
<polygon fill="midnightblue" stroke="midnightblue" points="570.43,-92.71 579.11,-86.63 568.53,-85.97 570.43,-92.71"/>
</g>
<!-- Node13 -->
<g id="node13" class="node">
<title>Node13</title>
<g id="a_node13"><a xlink:href="env_8c.html#a9213fcf5fc422d6a77bce853b1d78dc9" target="_top" xlink:title="Initialises a built&#45;in problem environment.">
<polygon fill="none" stroke="black" points="256.5,-47.5 256.5,-66.5 306.5,-66.5 306.5,-47.5 256.5,-47.5"/>
<text text-anchor="middle" x="281.5" y="-54.5" font-family="Helvetica,sans-Serif" font-size="10.00">env_init</text>
</a>
</g>
</g>
<!-- Node12&#45;&gt;Node13 -->
<g id="edge12" class="edge">
<title>Node12&#45;&gt;Node13</title>
<path fill="none" stroke="midnightblue" d="M394.18,-77.69C365.8,-72.44 330.21,-65.84 306.93,-61.53"/>
<polygon fill="midnightblue" stroke="midnightblue" points="393.8,-81.18 404.27,-79.56 395.07,-74.3 393.8,-81.18"/>
</g>
<!-- Node13&#45;&gt;Node7 -->
<g id="edge13" class="edge">
<title>Node13&#45;&gt;Node7</title>
<path fill="none" stroke="midnightblue" d="M246.29,-64.53C210.09,-72.61 151.35,-86.03 101,-99 84.26,-103.31 65.32,-108.69 51.78,-112.62"/>
<polygon fill="midnightblue" stroke="midnightblue" points="247.32,-67.89 256.32,-62.3 245.8,-61.05 247.32,-67.89"/>
</g>
<!-- Node14&#45;&gt;Node13 -->
<g id="edge15" class="edge">
<title>Node14&#45;&gt;Node13</title>
<path fill="none" stroke="midnightblue" d="M389.6,-50.84C361.88,-52.44 328.54,-54.35 306.5,-55.62"/>
<polygon fill="midnightblue" stroke="midnightblue" points="390.13,-54.32 399.91,-50.25 389.73,-47.33 390.13,-54.32"/>
</g>
<!-- Node15&#45;&gt;Node13 -->
<g id="edge17" class="edge">
<title>Node15&#45;&gt;Node13</title>
<path fill="none" stroke="midnightblue" d="M393.29,-21.61C384.54,-23.96 375.46,-26.48 367,-29 346.56,-35.08 323.6,-42.74 306.78,-48.51"/>
<polygon fill="midnightblue" stroke="midnightblue" points="394.22,-24.98 402.99,-19.04 392.42,-18.21 394.22,-24.98"/>
</g>
<!-- Node17 -->
<g id="node17" class="node">
<title>Node17</title>
<g id="a_node17"><a xlink:href="classXCS.html#a8a53a8df81152fbf73e6abcc6a6e56b4" target="_top" xlink:title="Default Constructor.">
<polygon fill="none" stroke="black" points="249,-111.5 249,-130.5 314,-130.5 314,-111.5 249,-111.5"/>
<text text-anchor="middle" x="281.5" y="-118.5" font-family="Helvetica,sans-Serif" font-size="10.00">XCS::XCS</text>
</a>
</g>
</g>
<!-- Node16&#45;&gt;Node17 -->
<g id="edge19" class="edge">
<title>Node16&#45;&gt;Node17</title>
<path fill="none" stroke="midnightblue" d="M396.99,-123.19C370.93,-122.7 337.98,-122.06 314.12,-121.61"/>
<polygon fill="midnightblue" stroke="midnightblue" points="397.26,-126.7 407.33,-123.39 397.4,-119.7 397.26,-126.7"/>
</g>
<!-- Node18 -->
<g id="node18" class="node">
<title>Node18</title>
<g id="a_node18"><a xlink:href="classXCS.html#a71b21201e1a2aef16702a2c308eb6683" target="_top" xlink:title="Implements pickle file reading.">
<polygon fill="none" stroke="black" points="103.5,-108.5 103.5,-127.5 193.5,-127.5 193.5,-108.5 103.5,-108.5"/>
<text text-anchor="middle" x="148.5" y="-115.5" font-family="Helvetica,sans-Serif" font-size="10.00">XCS::deserialize</text>
</a>
</g>
</g>
<!-- Node17&#45;&gt;Node18 -->
<g id="edge20" class="edge">
<title>Node17&#45;&gt;Node18</title>
<path fill="none" stroke="midnightblue" d="M238.71,-120.04C224.38,-119.71 208.31,-119.35 193.79,-119.01"/>
<polygon fill="midnightblue" stroke="midnightblue" points="238.71,-123.54 248.79,-120.27 238.87,-116.55 238.71,-123.54"/>
</g>
<!-- Node19&#45;&gt;Node3 -->
<g id="edge22" class="edge">
<title>Node19&#45;&gt;Node3</title>
<path fill="none" stroke="midnightblue" d="M703.25,-138.98C683.88,-144.26 663.22,-149.89 646.42,-154.48"/>
<polygon fill="midnightblue" stroke="midnightblue" points="704.21,-142.34 712.93,-136.34 702.36,-135.59 704.21,-142.34"/>
</g>
</g>
</svg>
