<?xml version="1.0" encoding="UTF-8" standalone="no"?>
<!DOCTYPE svg PUBLIC "-//W3C//DTD SVG 1.1//EN"
 "http://www.w3.org/Graphics/SVG/1.1/DTD/svg11.dtd">
<!-- Generated by graphviz version 2.43.0 (0)
 -->
<!-- Title: pred_param_save Pages: 1 -->
<svg width="407pt" height="28pt"
 viewBox="0.00 0.00 407.00 28.00" xmlns="http://www.w3.org/2000/svg" xmlns:xlink="http://www.w3.org/1999/xlink">
<g id="graph0" class="graph" transform="scale(1 1) rotate(0) translate(4 24)">
<title>pred_param_save</title>
<!-- Node1 -->
<g id="node1" class="node">
<title>Node1</title>
<g id="a_node1"><a xlink:title="Saves prediction parameters.">
<polygon fill="#bfbfbf" stroke="black" points="305,-0.5 305,-19.5 399,-19.5 399,-0.5 305,-0.5"/>
<text text-anchor="middle" x="352" y="-7.5" font-family="Helvetica,sans-Serif" font-size="10.00">pred_param_save</text>
</a>
</g>
</g>
<!-- Node2 -->
<g id="node2" class="node">
<title>Node2</title>
<g id="a_node2"><a xlink:href="param_8c.html#aeee8da56faaeace4ed44adc45a42d359" target="_top" xlink:title="Writes the XCSF data structure to a file.">
<polygon fill="none" stroke="black" points="199,-0.5 199,-19.5 269,-19.5 269,-0.5 199,-0.5"/>
<text text-anchor="middle" x="234" y="-7.5" font-family="Helvetica,sans-Serif" font-size="10.00">param_save</text>
</a>
</g>
</g>
<!-- Node1&#45;&gt;Node2 -->
<g id="edge1" class="edge">
<title>Node1&#45;&gt;Node2</title>
<path fill="none" stroke="midnightblue" d="M294.68,-10C285.98,-10 277.24,-10 269.22,-10"/>
<polygon fill="midnightblue" stroke="midnightblue" points="294.82,-13.5 304.82,-10 294.82,-6.5 294.82,-13.5"/>
</g>
<!-- Node3 -->
<g id="node3" class="node">
<title>Node3</title>
<g id="a_node3"><a xlink:href="xcsf_8c.html#a2dd24ee181640aa90ec5d109aa717966" target="_top" xlink:title="Writes the current state of XCSF to a file.">
<polygon fill="none" stroke="black" points="101,-0.5 101,-19.5 163,-19.5 163,-0.5 101,-0.5"/>
<text text-anchor="middle" x="132" y="-7.5" font-family="Helvetica,sans-Serif" font-size="10.00">xcsf_save</text>
</a>
</g>
</g>
<!-- Node2&#45;&gt;Node3 -->
<g id="edge2" class="edge">
<title>Node2&#45;&gt;Node3</title>
<path fill="none" stroke="midnightblue" d="M188.61,-10C180.05,-10 171.28,-10 163.3,-10"/>
<polygon fill="midnightblue" stroke="midnightblue" points="188.87,-13.5 198.87,-10 188.87,-6.5 188.87,-13.5"/>
</g>
<!-- Node4 -->
<g id="node4" class="node">
<title>Node4</title>
<g id="a_node4"><a xlink:href="classXCS.html#a8501483f2f168c56448892cfbb5285ea" target="_top" xlink:title="Writes the entire current state of XCSF to a file.">
<polygon fill="none" stroke="black" points="0,-0.5 0,-19.5 65,-19.5 65,-0.5 0,-0.5"/>
<text text-anchor="middle" x="32.5" y="-7.5" font-family="Helvetica,sans-Serif" font-size="10.00">XCS::save</text>
</a>
</g>
</g>
<!-- Node3&#45;&gt;Node4 -->
<g id="edge3" class="edge">
<title>Node3&#45;&gt;Node4</title>
<path fill="none" stroke="midnightblue" d="M90.83,-10C82.32,-10 73.45,-10 65.31,-10"/>
<polygon fill="midnightblue" stroke="midnightblue" points="90.95,-13.5 100.95,-10 90.95,-6.5 90.95,-13.5"/>
</g>
</g>
</svg>
