<?xml version="1.0" encoding="UTF-8" standalone="no"?>
<!DOCTYPE svg PUBLIC "-//W3C//DTD SVG 1.1//EN"
 "http://www.w3.org/Graphics/SVG/1.1/DTD/svg11.dtd">
<!-- Generated by graphviz version 2.43.0 (0)
 -->
<!-- Title: pred_neural_expand Pages: 1 -->
<svg width="528pt" height="27pt"
 viewBox="0.00 0.00 528.00 27.00" xmlns="http://www.w3.org/2000/svg" xmlns:xlink="http://www.w3.org/1999/xlink">
<g id="graph0" class="graph" transform="scale(1 1) rotate(0) translate(4 23)">
<title>pred_neural_expand</title>
<!-- Node1 -->
<g id="Node000001" class="node">
<title>Node1</title>
<g id="a_Node000001"><a xlink:title="Creates and inserts a hidden layer before the prediction output layer.">
<polygon fill="#999999" stroke="#666666" points="520,-19 416,-19 416,0 520,0 520,-19"/>
<text text-anchor="middle" x="468" y="-7" font-family="Helvetica,sans-Serif" font-size="10.00">pred_neural_expand</text>
</a>
</g>
</g>
<!-- Node2 -->
<g id="Node000002" class="node">
<title>Node2</title>
<g id="a_Node000002"><a xlink:href="xcsf_8c.html#a6bb93a888da68d6397ce63fb58428237" target="_top" xlink:title="Inserts a new hidden layer before the output layer within all prediction neural networks in the popul...">
<polygon fill="white" stroke="#666666" points="380,-19 284,-19 284,0 380,0 380,-19"/>
<text text-anchor="middle" x="332" y="-7" font-family="Helvetica,sans-Serif" font-size="10.00">xcsf_pred_expand</text>
</a>
</g>
</g>
<!-- Node1&#45;&gt;Node2 -->
<g id="edge1_Node000001_Node000002" class="edge">
<title>Node1&#45;&gt;Node2</title>
<g id="a_edge1_Node000001_Node000002"><a xlink:title=" ">
<path fill="none" stroke="#63b8ff" d="M405.69,-9.5C397.19,-9.5 388.57,-9.5 380.37,-9.5"/>
<polygon fill="#63b8ff" stroke="#63b8ff" points="405.96,-13 415.96,-9.5 405.96,-6 405.96,-13"/>
</a>
</g>
</g>
<!-- Node3 -->
<g id="Node000003" class="node">
<title>Node3</title>
<g id="a_Node000003"><a xlink:href="classXCS.html#aa4d00c1db4ef961055b74f231cbd39f0" target="_top" xlink:title="Inserts a new hidden layer before the output layer within all prediction neural networks in the popul...">
<polygon fill="white" stroke="#666666" points="248,-19 149,-19 149,0 248,0 248,-19"/>
<text text-anchor="middle" x="198.5" y="-7" font-family="Helvetica,sans-Serif" font-size="10.00">XCS::pred_expand</text>
</a>
</g>
</g>
<!-- Node2&#45;&gt;Node3 -->
<g id="edge2_Node000002_Node000003" class="edge">
<title>Node2&#45;&gt;Node3</title>
<g id="a_edge2_Node000002_Node000003"><a xlink:title=" ">
<path fill="none" stroke="#63b8ff" d="M273.63,-9.5C265.09,-9.5 256.37,-9.5 248.05,-9.5"/>
<polygon fill="#63b8ff" stroke="#63b8ff" points="273.9,-13 283.9,-9.5 273.9,-6 273.9,-13"/>
</a>
</g>
</g>
<!-- Node4 -->
<g id="Node000004" class="node">
<title>Node4</title>
<g id="a_Node000004"><a xlink:href="pybind__wrapper_8cpp.html#a172daba0778fe2bd38d723d5f52a23d5" target="_top" xlink:title=" ">
<polygon fill="white" stroke="#666666" points="113,-19 0,-19 0,0 113,0 113,-19"/>
<text text-anchor="middle" x="56.5" y="-7" font-family="Helvetica,sans-Serif" font-size="10.00">PYBIND11_MODULE</text>
</a>
</g>
</g>
<!-- Node3&#45;&gt;Node4 -->
<g id="edge3_Node000003_Node000004" class="edge">
<title>Node3&#45;&gt;Node4</title>
<g id="a_edge3_Node000003_Node000004"><a xlink:title=" ">
<path fill="none" stroke="#63b8ff" d="M138.75,-9.5C130.28,-9.5 121.59,-9.5 113.19,-9.5"/>
<polygon fill="#63b8ff" stroke="#63b8ff" points="138.93,-13 148.93,-9.5 138.93,-6 138.93,-13"/>
</a>
</g>
</g>
</g>
</svg>
