<?xml version="1.0" encoding="UTF-8" standalone="no"?>
<!DOCTYPE svg PUBLIC "-//W3C//DTD SVG 1.1//EN"
 "http://www.w3.org/Graphics/SVG/1.1/DTD/svg11.dtd">
<!-- Generated by graphviz version 2.43.0 (0)
 -->
<!-- Title: pred_rls.h Pages: 1 -->
<svg width="152pt" height="82pt"
 viewBox="0.00 0.00 152.00 82.00" xmlns="http://www.w3.org/2000/svg" xmlns:xlink="http://www.w3.org/1999/xlink">
<g id="graph0" class="graph" transform="scale(1 1) rotate(0) translate(4 78)">
<title>pred_rls.h</title>
<!-- Node1 -->
<g id="Node000001" class="node">
<title>Node1</title>
<g id="a_Node000001"><a xlink:title="Recursive least mean squares prediction functions.">
<polygon fill="#999999" stroke="#666666" points="99,-74 40,-74 40,-55 99,-55 99,-74"/>
<text text-anchor="middle" x="69.5" y="-62" font-family="Helvetica,sans-Serif" font-size="10.00">pred_rls.h</text>
</a>
</g>
</g>
<!-- Node2 -->
<g id="Node000002" class="node">
<title>Node2</title>
<g id="a_Node000002"><a xlink:href="pred__rls_8c.html" target="_top" xlink:title="Recursive least mean squares prediction functions.">
<polygon fill="white" stroke="#666666" points="59,-19 0,-19 0,0 59,0 59,-19"/>
<text text-anchor="middle" x="29.5" y="-7" font-family="Helvetica,sans-Serif" font-size="10.00">pred_rls.c</text>
</a>
</g>
</g>
<!-- Node1&#45;&gt;Node2 -->
<g id="edge1_Node000001_Node000002" class="edge">
<title>Node1&#45;&gt;Node2</title>
<g id="a_edge1_Node000001_Node000002"><a xlink:title=" ">
<path fill="none" stroke="#63b8ff" d="M56.8,-46.67C49.87,-37.5 41.59,-26.52 35.98,-19.09"/>
<polygon fill="#63b8ff" stroke="#63b8ff" points="54.08,-48.87 62.89,-54.75 59.66,-44.66 54.08,-48.87"/>
</a>
</g>
</g>
<!-- Node3 -->
<g id="Node000003" class="node">
<title>Node3</title>
<g id="a_Node000003"><a xlink:href="prediction_8c.html" target="_top" xlink:title="Interface for classifier predictions.">
<polygon fill="white" stroke="#666666" points="144,-19 77,-19 77,0 144,0 144,-19"/>
<text text-anchor="middle" x="110.5" y="-7" font-family="Helvetica,sans-Serif" font-size="10.00">prediction.c</text>
</a>
</g>
</g>
<!-- Node1&#45;&gt;Node3 -->
<g id="edge2_Node000001_Node000003" class="edge">
<title>Node1&#45;&gt;Node3</title>
<g id="a_edge2_Node000001_Node000003"><a xlink:title=" ">
<path fill="none" stroke="#63b8ff" d="M82.52,-46.67C89.62,-37.5 98.1,-26.52 103.86,-19.09"/>
<polygon fill="#63b8ff" stroke="#63b8ff" points="79.62,-44.7 76.27,-54.75 85.16,-48.98 79.62,-44.7"/>
</a>
</g>
</g>
</g>
</svg>
