<?xml version="1.0" encoding="UTF-8" standalone="no"?>
<!DOCTYPE svg PUBLIC "-//W3C//DTD SVG 1.1//EN"
 "http://www.w3.org/Graphics/SVG/1.1/DTD/svg11.dtd">
<!-- Generated by graphviz version 2.43.0 (0)
 -->
<!-- Title: pred_neural_mutate Pages: 1 -->
<svg width="333pt" height="64pt"
 viewBox="0.00 0.00 333.00 64.00" xmlns="http://www.w3.org/2000/svg" xmlns:xlink="http://www.w3.org/1999/xlink">
<g id="graph0" class="graph" transform="scale(1 1) rotate(0) translate(4 60)">
<title>pred_neural_mutate</title>
<!-- Node1 -->
<g id="Node000001" class="node">
<title>Node1</title>
<g id="a_Node000001"><a xlink:title="Mutates a neural network prediction.">
<polygon fill="#999999" stroke="#666666" points="102,-37 0,-37 0,-18 102,-18 102,-37"/>
<text text-anchor="middle" x="51" y="-25" font-family="Helvetica,sans-Serif" font-size="10.00">pred_neural_mutate</text>
</a>
</g>
</g>
<!-- Node2 -->
<g id="Node000002" class="node">
<title>Node2</title>
<g id="a_Node000002"><a xlink:href="neural_8c.html#a462b490af8481803fd34af3c728f057d" target="_top" xlink:title="Mutates a neural network.">
<polygon fill="white" stroke="#666666" points="216,-37 138,-37 138,-18 216,-18 216,-37"/>
<text text-anchor="middle" x="177" y="-25" font-family="Helvetica,sans-Serif" font-size="10.00">neural_mutate</text>
</a>
</g>
</g>
<!-- Node1&#45;&gt;Node2 -->
<g id="edge1_Node000001_Node000002" class="edge">
<title>Node1&#45;&gt;Node2</title>
<g id="a_edge1_Node000001_Node000002"><a xlink:title=" ">
<path fill="none" stroke="#63b8ff" d="M102.08,-27.5C110.58,-27.5 119.4,-27.5 127.86,-27.5"/>
<polygon fill="#63b8ff" stroke="#63b8ff" points="127.94,-31 137.94,-27.5 127.94,-24 127.94,-31"/>
</a>
</g>
</g>
<!-- Node3 -->
<g id="Node000003" class="node">
<title>Node3</title>
<g id="a_Node000003"><a xlink:href="neural__layer_8h.html#ad3229854f8e7c4c0eed64b22a8cd1cfa" target="_top" xlink:title="Performs layer mutation.">
<polygon fill="white" stroke="#666666" points="325,-56 252,-56 252,-37 325,-37 325,-56"/>
<text text-anchor="middle" x="288.5" y="-44" font-family="Helvetica,sans-Serif" font-size="10.00">layer_mutate</text>
</a>
</g>
</g>
<!-- Node2&#45;&gt;Node3 -->
<g id="edge2_Node000002_Node000003" class="edge">
<title>Node2&#45;&gt;Node3</title>
<g id="a_edge2_Node000002_Node000003"><a xlink:title=" ">
<path fill="none" stroke="#63b8ff" d="M216.3,-34.15C224.63,-35.59 233.53,-37.13 242.1,-38.62"/>
<polygon fill="#63b8ff" stroke="#63b8ff" points="241.53,-42.07 251.98,-40.34 242.72,-35.18 241.53,-42.07"/>
</a>
</g>
</g>
<!-- Node4 -->
<g id="Node000004" class="node">
<title>Node4</title>
<g id="a_Node000004"><a xlink:href="neural__layer_8h.html#a28fed9ac2d12fe1bad08b4540f3f0455" target="_top" xlink:title="Resizes a layer using the previous layer&#39;s inputs.">
<polygon fill="white" stroke="#666666" points="323,-19 254,-19 254,0 323,0 323,-19"/>
<text text-anchor="middle" x="288.5" y="-7" font-family="Helvetica,sans-Serif" font-size="10.00">layer_resize</text>
</a>
</g>
</g>
<!-- Node2&#45;&gt;Node4 -->
<g id="edge3_Node000002_Node000004" class="edge">
<title>Node2&#45;&gt;Node4</title>
<g id="a_edge3_Node000002_Node000004"><a xlink:title=" ">
<path fill="none" stroke="#63b8ff" d="M216.3,-21.2C225.17,-19.75 234.68,-18.18 243.76,-16.69"/>
<polygon fill="#63b8ff" stroke="#63b8ff" points="244.49,-20.12 253.79,-15.04 243.35,-13.21 244.49,-20.12"/>
</a>
</g>
</g>
</g>
</svg>
