<?xml version="1.0" encoding="UTF-8" standalone="no"?>
<!DOCTYPE svg PUBLIC "-//W3C//DTD SVG 1.1//EN"
 "http://www.w3.org/Graphics/SVG/1.1/DTD/svg11.dtd">
<!-- Generated by graphviz version 2.43.0 (0)
 -->
<!-- Title: pred_neural_connections Pages: 1 -->
<svg width="464pt" height="39pt"
 viewBox="0.00 0.00 464.00 39.00" xmlns="http://www.w3.org/2000/svg" xmlns:xlink="http://www.w3.org/1999/xlink">
<g id="graph0" class="graph" transform="scale(1 1) rotate(0) translate(4 35)">
<title>pred_neural_connections</title>
<!-- Node1 -->
<g id="node1" class="node">
<title>Node1</title>
<g id="a_node1"><a xlink:title="Returns the number of active connections in a neural prediction layer.">
<polygon fill="#bfbfbf" stroke="black" points="331,-6 331,-25 456,-25 456,-6 331,-6"/>
<text text-anchor="middle" x="393.5" y="-13" font-family="Helvetica,sans-Serif" font-size="10.00">pred_neural_connections</text>
</a>
</g>
</g>
<!-- Node2 -->
<g id="node2" class="node">
<title>Node2</title>
<g id="a_node2"><a xlink:href="clset__neural_8c.html#a90680514a75d5513c5dfe1b0ccc2594b" target="_top" xlink:title="Calculates the mean number of prediction connections in the set.">
<polygon fill="none" stroke="black" points="146,-6 146,-25 295,-25 295,-6 146,-6"/>
<text text-anchor="middle" x="220.5" y="-13" font-family="Helvetica,sans-Serif" font-size="10.00">clset_mean_pred_connections</text>
</a>
</g>
</g>
<!-- Node1&#45;&gt;Node2 -->
<g id="edge1" class="edge">
<title>Node1&#45;&gt;Node2</title>
<path fill="none" stroke="midnightblue" d="M320.59,-15.5C312.16,-15.5 303.54,-15.5 295.09,-15.5"/>
<polygon fill="midnightblue" stroke="midnightblue" points="320.77,-19 330.77,-15.5 320.77,-12 320.77,-19"/>
</g>
<!-- Node3 -->
<g id="node3" class="node">
<title>Node3</title>
<g id="a_node3"><a xlink:href="classXCS.html#a6e25bac5882fc79fe55109291daafde0" target="_top" xlink:title=" ">
<polygon fill="none" stroke="black" points="0,-0.5 0,-30.5 110,-30.5 110,-0.5 0,-0.5"/>
<text text-anchor="start" x="8" y="-18.5" font-family="Helvetica,sans-Serif" font-size="10.00">XCS::get_pset_mean</text>
<text text-anchor="middle" x="55" y="-7.5" font-family="Helvetica,sans-Serif" font-size="10.00">_pred_connections</text>
</a>
</g>
</g>
<!-- Node2&#45;&gt;Node3 -->
<g id="edge2" class="edge">
<title>Node2&#45;&gt;Node3</title>
<path fill="none" stroke="midnightblue" d="M135.69,-15.5C127.01,-15.5 118.35,-15.5 110.12,-15.5"/>
<polygon fill="midnightblue" stroke="midnightblue" points="135.88,-19 145.88,-15.5 135.88,-12 135.88,-19"/>
</g>
</g>
</svg>
