<?xml version="1.0" encoding="UTF-8" standalone="no"?>
<!DOCTYPE svg PUBLIC "-//W3C//DTD SVG 1.1//EN"
 "http://www.w3.org/Graphics/SVG/1.1/DTD/svg11.dtd">
<!-- Generated by graphviz version 2.43.0 (0)
 -->
<!-- Title: pred_neural_eta Pages: 1 -->
<svg width="575pt" height="28pt"
 viewBox="0.00 0.00 575.00 28.00" xmlns="http://www.w3.org/2000/svg" xmlns:xlink="http://www.w3.org/1999/xlink">
<g id="graph0" class="graph" transform="scale(1 1) rotate(0) translate(4 24)">
<title>pred_neural_eta</title>
<!-- Node1 -->
<g id="node1" class="node">
<title>Node1</title>
<g id="a_node1"><a xlink:title=" ">
<polygon fill="#bfbfbf" stroke="black" points="481,-0.5 481,-19.5 567,-19.5 567,-0.5 481,-0.5"/>
<text text-anchor="middle" x="524" y="-7.5" font-family="Helvetica,sans-Serif" font-size="10.00">pred_neural_eta</text>
</a>
</g>
</g>
<!-- Node2 -->
<g id="node2" class="node">
<title>Node2</title>
<g id="a_node2"><a xlink:href="clset__neural_8h.html#adb5aa66abd7938d0eb43a80362e372f6" target="_top" xlink:title="Calculates the mean prediction layer ETA of classifiers in the set.">
<polygon fill="none" stroke="black" points="335,-0.5 335,-19.5 445,-19.5 445,-0.5 335,-0.5"/>
<text text-anchor="middle" x="390" y="-7.5" font-family="Helvetica,sans-Serif" font-size="10.00">clset_mean_pred_eta</text>
</a>
</g>
</g>
<!-- Node1&#45;&gt;Node2 -->
<g id="edge1" class="edge">
<title>Node1&#45;&gt;Node2</title>
<path fill="none" stroke="midnightblue" d="M470.82,-10C462.43,-10 453.72,-10 445.28,-10"/>
<polygon fill="midnightblue" stroke="midnightblue" points="470.87,-13.5 480.87,-10 470.87,-6.5 470.87,-13.5"/>
</g>
<!-- Node3 -->
<g id="node3" class="node">
<title>Node3</title>
<g id="a_node3"><a xlink:href="classXCS.html#a445f93ee7cf4b0011d2656bd785d59eb" target="_top" xlink:title=" ">
<polygon fill="none" stroke="black" points="149,-0.5 149,-19.5 299,-19.5 299,-0.5 149,-0.5"/>
<text text-anchor="middle" x="224" y="-7.5" font-family="Helvetica,sans-Serif" font-size="10.00">XCS::get_pop_mean_pred_eta</text>
</a>
</g>
</g>
<!-- Node2&#45;&gt;Node3 -->
<g id="edge2" class="edge">
<title>Node2&#45;&gt;Node3</title>
<path fill="none" stroke="midnightblue" d="M324.71,-10C316.28,-10 307.58,-10 299,-10"/>
<polygon fill="midnightblue" stroke="midnightblue" points="324.85,-13.5 334.85,-10 324.85,-6.5 324.85,-13.5"/>
</g>
<!-- Node4 -->
<g id="node4" class="node">
<title>Node4</title>
<g id="a_node4"><a xlink:href="pybind__wrapper_8cpp.html#a269acb618355873dacf057083f07eb58" target="_top" xlink:title=" ">
<polygon fill="none" stroke="black" points="0,-0.5 0,-19.5 113,-19.5 113,-0.5 0,-0.5"/>
<text text-anchor="middle" x="56.5" y="-7.5" font-family="Helvetica,sans-Serif" font-size="10.00">pybind11_init_wrapper</text>
</a>
</g>
</g>
<!-- Node3&#45;&gt;Node4 -->
<g id="edge3" class="edge">
<title>Node3&#45;&gt;Node4</title>
<path fill="none" stroke="midnightblue" d="M138.76,-10C130.06,-10 121.38,-10 113.11,-10"/>
<polygon fill="midnightblue" stroke="midnightblue" points="138.96,-13.5 148.96,-10 138.96,-6.5 138.96,-13.5"/>
</g>
</g>
</svg>
