<?xml version="1.0" encoding="UTF-8" standalone="no"?>
<!DOCTYPE svg PUBLIC "-//W3C//DTD SVG 1.1//EN"
 "http://www.w3.org/Graphics/SVG/1.1/DTD/svg11.dtd">
<!-- Generated by graphviz version 2.43.0 (0)
 -->
<!-- Title: pred_neural_update Pages: 1 -->
<svg width="335pt" height="64pt"
 viewBox="0.00 0.00 335.00 64.00" xmlns="http://www.w3.org/2000/svg" xmlns:xlink="http://www.w3.org/1999/xlink">
<g id="graph0" class="graph" transform="scale(1 1) rotate(0) translate(4 60)">
<title>pred_neural_update</title>
<!-- Node1 -->
<g id="Node000001" class="node">
<title>Node1</title>
<g id="a_Node000001"><a xlink:title="Backward propagates and updates a neural network prediction.">
<polygon fill="#999999" stroke="#666666" points="101,-37 0,-37 0,-18 101,-18 101,-37"/>
<text text-anchor="middle" x="50.5" y="-25" font-family="Helvetica,sans-Serif" font-size="10.00">pred_neural_update</text>
</a>
</g>
</g>
<!-- Node2 -->
<g id="Node000002" class="node">
<title>Node2</title>
<g id="a_Node000002"><a xlink:href="neural_8c.html#a9226c300b9de597334244bf57e9b53f6" target="_top" xlink:title="Performs a gradient descent update on a neural network.">
<polygon fill="white" stroke="#666666" points="206,-37 137,-37 137,-18 206,-18 206,-37"/>
<text text-anchor="middle" x="171.5" y="-25" font-family="Helvetica,sans-Serif" font-size="10.00">neural_learn</text>
</a>
</g>
</g>
<!-- Node1&#45;&gt;Node2 -->
<g id="edge1_Node000001_Node000002" class="edge">
<title>Node1&#45;&gt;Node2</title>
<g id="a_edge1_Node000001_Node000002"><a xlink:title=" ">
<path fill="none" stroke="#63b8ff" d="M101.28,-27.5C109.7,-27.5 118.38,-27.5 126.64,-27.5"/>
<polygon fill="#63b8ff" stroke="#63b8ff" points="126.81,-31 136.81,-27.5 126.81,-24 126.81,-31"/>
</a>
</g>
</g>
<!-- Node3 -->
<g id="Node000003" class="node">
<title>Node3</title>
<g id="a_Node000003"><a xlink:href="neural__layer_8h.html#a65e55ed68e7035874ae32b5fc1f04302" target="_top" xlink:title="Backward propagates the error through a layer.">
<polygon fill="white" stroke="#666666" points="327,-56 242,-56 242,-37 327,-37 327,-56"/>
<text text-anchor="middle" x="284.5" y="-44" font-family="Helvetica,sans-Serif" font-size="10.00">layer_backward</text>
</a>
</g>
</g>
<!-- Node2&#45;&gt;Node3 -->
<g id="edge2_Node000002_Node000003" class="edge">
<title>Node2&#45;&gt;Node3</title>
<g id="a_edge2_Node000002_Node000003"><a xlink:title=" ">
<path fill="none" stroke="#63b8ff" d="M206.1,-33.25C214.18,-34.63 222.98,-36.14 231.67,-37.63"/>
<polygon fill="#63b8ff" stroke="#63b8ff" points="231.32,-41.12 241.76,-39.36 232.5,-34.22 231.32,-41.12"/>
</a>
</g>
</g>
<!-- Node4 -->
<g id="Node000004" class="node">
<title>Node4</title>
<g id="a_Node000004"><a xlink:href="neural__layer_8h.html#aa414f62704c1469ac851c78425b2b1ba" target="_top" xlink:title="Updates the weights and biases of a layer.">
<polygon fill="white" stroke="#666666" points="320.5,-19 248.5,-19 248.5,0 320.5,0 320.5,-19"/>
<text text-anchor="middle" x="284.5" y="-7" font-family="Helvetica,sans-Serif" font-size="10.00">layer_update</text>
</a>
</g>
</g>
<!-- Node2&#45;&gt;Node4 -->
<g id="edge3_Node000002_Node000004" class="edge">
<title>Node2&#45;&gt;Node4</title>
<g id="a_edge3_Node000002_Node000004"><a xlink:title=" ">
<path fill="none" stroke="#63b8ff" d="M206.1,-22.05C216.26,-20.4 227.58,-18.57 238.36,-16.82"/>
<polygon fill="#63b8ff" stroke="#63b8ff" points="239.16,-20.24 248.47,-15.18 238.04,-13.33 239.16,-20.24"/>
</a>
</g>
</g>
</g>
</svg>
