<?xml version="1.0" encoding="UTF-8" standalone="no"?>
<!DOCTYPE svg PUBLIC "-//W3C//DTD SVG 1.1//EN"
 "http://www.w3.org/Graphics/SVG/1.1/DTD/svg11.dtd">
<!-- Generated by graphviz version 2.43.0 (0)
 -->
<!-- Title: pred_rls_param_json_import Pages: 1 -->
<svg width="274pt" height="113pt"
 viewBox="0.00 0.00 274.00 113.00" xmlns="http://www.w3.org/2000/svg" xmlns:xlink="http://www.w3.org/1999/xlink">
<g id="graph0" class="graph" transform="scale(1 1) rotate(0) translate(4 109)">
<title>pred_rls_param_json_import</title>
<!-- Node1 -->
<g id="Node000001" class="node">
<title>Node1</title>
<g id="a_Node000001"><a xlink:title="Sets the RLS parameters from a cJSON object.">
<polygon fill="#999999" stroke="#666666" points="107,-67.5 0,-67.5 0,-37.5 107,-37.5 107,-67.5"/>
<text text-anchor="start" x="8" y="-55.5" font-family="Helvetica,sans-Serif" font-size="10.00">pred_rls_param_json</text>
<text text-anchor="middle" x="53.5" y="-44.5" font-family="Helvetica,sans-Serif" font-size="10.00">_import</text>
</a>
</g>
</g>
<!-- Node2 -->
<g id="Node000002" class="node">
<title>Node2</title>
<g id="a_Node000002"><a xlink:href="prediction_8c.html#a7b4efcc30beb6a0721140f10f67861da" target="_top" xlink:title=" ">
<polygon fill="white" stroke="#666666" points="266,-105 143,-105 143,-86 266,-86 266,-105"/>
<text text-anchor="middle" x="204.5" y="-93" font-family="Helvetica,sans-Serif" font-size="10.00">pred_param_set_lambda</text>
</a>
</g>
</g>
<!-- Node1&#45;&gt;Node2 -->
<g id="edge1_Node000001_Node000002" class="edge">
<title>Node1&#45;&gt;Node2</title>
<g id="a_edge1_Node000001_Node000002"><a xlink:title=" ">
<path fill="none" stroke="#63b8ff" d="M106.61,-67.54C124.13,-72.59 143.46,-78.17 160.22,-83.01"/>
<polygon fill="#63b8ff" stroke="#63b8ff" points="159.7,-86.5 170.28,-85.91 161.64,-79.78 159.7,-86.5"/>
</a>
</g>
</g>
<!-- Node3 -->
<g id="Node000003" class="node">
<title>Node3</title>
<g id="a_Node000003"><a xlink:href="prediction_8c.html#acb71e8f11fe64ba35150417afa4c9441" target="_top" xlink:title=" ">
<polygon fill="white" stroke="#666666" points="262,-67.5 147,-67.5 147,-37.5 262,-37.5 262,-67.5"/>
<text text-anchor="start" x="155" y="-55.5" font-family="Helvetica,sans-Serif" font-size="10.00">pred_param_set_scale</text>
<text text-anchor="middle" x="204.5" y="-44.5" font-family="Helvetica,sans-Serif" font-size="10.00">_factor</text>
</a>
</g>
</g>
<!-- Node1&#45;&gt;Node3 -->
<g id="edge2_Node000001_Node000003" class="edge">
<title>Node1&#45;&gt;Node3</title>
<g id="a_edge2_Node000001_Node000003"><a xlink:title=" ">
<path fill="none" stroke="#63b8ff" d="M107.03,-52.5C116.61,-52.5 126.72,-52.5 136.64,-52.5"/>
<polygon fill="#63b8ff" stroke="#63b8ff" points="136.89,-56 146.89,-52.5 136.89,-49 136.89,-56"/>
</a>
</g>
</g>
<!-- Node4 -->
<g id="Node000004" class="node">
<title>Node4</title>
<g id="a_Node000004"><a xlink:href="prediction_8c.html#a618accb7ec3239f16fc794f9efa8f89c" target="_top" xlink:title=" ">
<polygon fill="white" stroke="#666666" points="255.5,-19 153.5,-19 153.5,0 255.5,0 255.5,-19"/>
<text text-anchor="middle" x="204.5" y="-7" font-family="Helvetica,sans-Serif" font-size="10.00">pred_param_set_x0</text>
</a>
</g>
</g>
<!-- Node1&#45;&gt;Node4 -->
<g id="edge3_Node000001_Node000004" class="edge">
<title>Node1&#45;&gt;Node4</title>
<g id="a_edge3_Node000001_Node000004"><a xlink:title=" ">
<path fill="none" stroke="#63b8ff" d="M106.61,-37.46C124.13,-32.41 143.46,-26.83 160.22,-21.99"/>
<polygon fill="#63b8ff" stroke="#63b8ff" points="161.64,-25.22 170.28,-19.09 159.7,-18.5 161.64,-25.22"/>
</a>
</g>
</g>
</g>
</svg>
