<?xml version="1.0" encoding="UTF-8" standalone="no"?>
<!DOCTYPE svg PUBLIC "-//W3C//DTD SVG 1.1//EN"
 "http://www.w3.org/Graphics/SVG/1.1/DTD/svg11.dtd">
<!-- Generated by graphviz version 2.43.0 (0)
 -->
<!-- Title: pred_copy Pages: 1 -->
<svg width="1038pt" height="364pt"
 viewBox="0.00 0.00 1038.00 364.06" xmlns="http://www.w3.org/2000/svg" xmlns:xlink="http://www.w3.org/1999/xlink">
<g id="graph0" class="graph" transform="scale(1 1) rotate(0) translate(4 360.06)">
<title>pred_copy</title>
<!-- Node1 -->
<g id="Node000001" class="node">
<title>Node1</title>
<g id="a_Node000001"><a xlink:title="Copies the prediction from one classifier to another.">
<polygon fill="#999999" stroke="#666666" points="1030,-104.5 968,-104.5 968,-85.5 1030,-85.5 1030,-104.5"/>
<text text-anchor="middle" x="999" y="-92.5" font-family="Helvetica,sans-Serif" font-size="10.00">pred_copy</text>
</a>
</g>
</g>
<!-- Node2 -->
<g id="Node000002" class="node">
<title>Node2</title>
<g id="a_Node000002"><a xlink:href="cl_8c.html#a9ee3a0eeed6f36bba89250b27df8ae02" target="_top" xlink:title="Copies condition, action, and prediction structures.">
<polygon fill="white" stroke="#666666" points="923,-133.5 873,-133.5 873,-114.5 923,-114.5 923,-133.5"/>
<text text-anchor="middle" x="898" y="-121.5" font-family="Helvetica,sans-Serif" font-size="10.00">cl_copy</text>
</a>
</g>
</g>
<!-- Node1&#45;&gt;Node2 -->
<g id="edge1_Node000001_Node000002" class="edge">
<title>Node1&#45;&gt;Node2</title>
<g id="a_edge1_Node000001_Node000002"><a xlink:title=" ">
<path fill="none" stroke="#63b8ff" d="M958.05,-106.7C946.21,-110.17 933.61,-113.86 923.1,-116.94"/>
<polygon fill="#63b8ff" stroke="#63b8ff" points="959.15,-110.03 967.76,-103.86 957.18,-103.31 959.15,-110.03"/>
</a>
</g>
</g>
<!-- Node20 -->
<g id="Node000020" class="node">
<title>Node20</title>
<g id="a_Node000020"><a xlink:href="cl_8c.html#a70aceb2c4039333d36ee71f954fb9d79" target="_top" xlink:title="Initialises and creates a copy of one classifier from another.">
<polygon fill="white" stroke="#666666" points="932,-86.5 864,-86.5 864,-67.5 932,-67.5 932,-86.5"/>
<text text-anchor="middle" x="898" y="-74.5" font-family="Helvetica,sans-Serif" font-size="10.00">cl_init_copy</text>
</a>
</g>
</g>
<!-- Node1&#45;&gt;Node20 -->
<g id="edge26_Node000001_Node000020" class="edge">
<title>Node1&#45;&gt;Node20</title>
<g id="a_edge26_Node000001_Node000020"><a xlink:title=" ">
<path fill="none" stroke="#63b8ff" d="M957.67,-87.67C949.19,-86.13 940.34,-84.52 932.16,-83.03"/>
<polygon fill="#63b8ff" stroke="#63b8ff" points="957.29,-91.16 967.76,-89.5 958.55,-84.27 957.29,-91.16"/>
</a>
</g>
</g>
<!-- Node3 -->
<g id="Node000003" class="node">
<title>Node3</title>
<g id="a_Node000003"><a xlink:href="ea_8c.html#a295cd56f77428d1fa2555df1ce363cdd" target="_top" xlink:title="Executes the evolutionary algorithm (EA).">
<polygon fill="white" stroke="#666666" points="799.5,-162.5 770.5,-162.5 770.5,-143.5 799.5,-143.5 799.5,-162.5"/>
<text text-anchor="middle" x="785" y="-150.5" font-family="Helvetica,sans-Serif" font-size="10.00">ea</text>
</a>
</g>
</g>
<!-- Node2&#45;&gt;Node3 -->
<g id="edge2_Node000002_Node000003" class="edge">
<title>Node2&#45;&gt;Node3</title>
<g id="a_edge2_Node000002_Node000003"><a xlink:title=" ">
<path fill="none" stroke="#63b8ff" d="M863.2,-132.83C841.81,-138.42 815.31,-145.34 799.58,-149.45"/>
<polygon fill="#63b8ff" stroke="#63b8ff" points="864.12,-136.21 872.91,-130.29 862.35,-129.43 864.12,-136.21"/>
</a>
</g>
</g>
<!-- Node4 -->
<g id="Node000004" class="node">
<title>Node4</title>
<g id="a_Node000004"><a xlink:href="xcs__rl_8c.html#a5e5ba8c28646690f0b1c51aae7f6aa78" target="_top" xlink:title="Provides reinforcement to the sets.">
<polygon fill="white" stroke="#666666" points="686.5,-313.5 609.5,-313.5 609.5,-294.5 686.5,-294.5 686.5,-313.5"/>
<text text-anchor="middle" x="648" y="-301.5" font-family="Helvetica,sans-Serif" font-size="10.00">xcs_rl_update</text>
</a>
</g>
</g>
<!-- Node3&#45;&gt;Node4 -->
<g id="edge3_Node000003_Node000004" class="edge">
<title>Node3&#45;&gt;Node4</title>
<g id="a_edge3_Node000003_Node000004"><a xlink:title=" ">
<path fill="none" stroke="#63b8ff" d="M768.27,-170.6C739.67,-202.58 680.07,-269.25 657.71,-294.25"/>
<polygon fill="#63b8ff" stroke="#63b8ff" points="771.09,-172.7 775.14,-162.91 765.87,-168.03 771.09,-172.7"/>
</a>
</g>
</g>
<!-- Node12 -->
<g id="Node000012" class="node">
<title>Node12</title>
<g id="a_Node000012"><a xlink:href="xcs__supervised_8c.html#a8e376723db7b6786507d5ea6add9f650" target="_top" xlink:title="Executes a single XCSF trial.">
<polygon fill="white" stroke="#666666" points="701,-162.5 595,-162.5 595,-143.5 701,-143.5 701,-162.5"/>
<text text-anchor="middle" x="648" y="-150.5" font-family="Helvetica,sans-Serif" font-size="10.00">xcs_supervised_trial</text>
</a>
</g>
</g>
<!-- Node3&#45;&gt;Node12 -->
<g id="edge12_Node000003_Node000012" class="edge">
<title>Node3&#45;&gt;Node12</title>
<g id="a_edge12_Node000003_Node000012"><a xlink:title=" ">
<path fill="none" stroke="#63b8ff" d="M760.04,-153C743.7,-153 721.41,-153 701.09,-153"/>
<polygon fill="#63b8ff" stroke="#63b8ff" points="760.31,-156.5 770.31,-153 760.31,-149.5 760.31,-156.5"/>
</a>
</g>
</g>
<!-- Node5 -->
<g id="Node000005" class="node">
<title>Node5</title>
<g id="a_Node000005"><a xlink:href="classXCS.html#af8970ba52403714439fda0d4383a390b" target="_top" xlink:title="Creates the action set using the previously selected action, updates the classifiers,...">
<polygon fill="white" stroke="#666666" points="222,-350.5 149,-350.5 149,-331.5 222,-331.5 222,-350.5"/>
<text text-anchor="middle" x="185.5" y="-338.5" font-family="Helvetica,sans-Serif" font-size="10.00">XCS::update</text>
</a>
</g>
</g>
<!-- Node4&#45;&gt;Node5 -->
<g id="edge4_Node000004_Node000005" class="edge">
<title>Node4&#45;&gt;Node5</title>
<g id="a_edge4_Node000004_Node000005"><a xlink:title=" ">
<path fill="none" stroke="#63b8ff" d="M620.13,-318.24C602.01,-327.01 577.25,-337.43 554,-342 434.27,-365.52 288.32,-353.34 222.16,-345.67"/>
<polygon fill="#63b8ff" stroke="#63b8ff" points="622.08,-321.18 629.47,-313.58 618.96,-314.91 622.08,-321.18"/>
</a>
</g>
</g>
<!-- Node7 -->
<g id="Node000007" class="node">
<title>Node7</title>
<g id="a_Node000007"><a xlink:href="xcs__rl_8c.html#a391abf9bd2540ff284f822b30899c438" target="_top" xlink:title="Creates and updates an action set for a given (state, action, reward).">
<polygon fill="white" stroke="#666666" points="514.5,-294.5 458.5,-294.5 458.5,-275.5 514.5,-275.5 514.5,-294.5"/>
<text text-anchor="middle" x="486.5" y="-282.5" font-family="Helvetica,sans-Serif" font-size="10.00">xcs_rl_fit</text>
</a>
</g>
</g>
<!-- Node4&#45;&gt;Node7 -->
<g id="edge6_Node000004_Node000007" class="edge">
<title>Node4&#45;&gt;Node7</title>
<g id="a_edge6_Node000004_Node000007"><a xlink:title=" ">
<path fill="none" stroke="#63b8ff" d="M598.94,-298.28C571.31,-294.98 537.61,-290.97 514.55,-288.22"/>
<polygon fill="#63b8ff" stroke="#63b8ff" points="598.86,-301.79 609.2,-299.5 599.68,-294.84 598.86,-301.79"/>
</a>
</g>
</g>
<!-- Node9 -->
<g id="Node000009" class="node">
<title>Node9</title>
<g id="a_Node000009"><a xlink:href="xcs__rl_8c.html#a8171cd945b56ed0a4563f9dcd89438e3" target="_top" xlink:title="Executes a reinforcement learning trial using a built&#45;in environment.">
<polygon fill="white" stroke="#666666" points="518.5,-332.5 454.5,-332.5 454.5,-313.5 518.5,-313.5 518.5,-332.5"/>
<text text-anchor="middle" x="486.5" y="-320.5" font-family="Helvetica,sans-Serif" font-size="10.00">xcs_rl_trial</text>
</a>
</g>
</g>
<!-- Node4&#45;&gt;Node9 -->
<g id="edge9_Node000004_Node000009" class="edge">
<title>Node4&#45;&gt;Node9</title>
<g id="a_edge9_Node000004_Node000009"><a xlink:title=" ">
<path fill="none" stroke="#63b8ff" d="M599.13,-309.7C573.04,-312.81 541.49,-316.57 518.6,-319.3"/>
<polygon fill="#63b8ff" stroke="#63b8ff" points="599.68,-313.16 609.2,-308.5 598.86,-306.21 599.68,-313.16"/>
</a>
</g>
</g>
<!-- Node6 -->
<g id="Node000006" class="node">
<title>Node6</title>
<g id="a_Node000006"><a xlink:href="pybind__wrapper_8cpp.html#a172daba0778fe2bd38d723d5f52a23d5" target="_top" xlink:title=" ">
<polygon fill="white" stroke="#666666" points="113,-162.5 0,-162.5 0,-143.5 113,-143.5 113,-162.5"/>
<text text-anchor="middle" x="56.5" y="-150.5" font-family="Helvetica,sans-Serif" font-size="10.00">PYBIND11_MODULE</text>
</a>
</g>
</g>
<!-- Node5&#45;&gt;Node6 -->
<g id="edge5_Node000005_Node000006" class="edge">
<title>Node5&#45;&gt;Node6</title>
<g id="a_edge5_Node000005_Node000006"><a xlink:title=" ">
<path fill="none" stroke="#63b8ff" d="M167.33,-324.11C161.24,-317.74 154.53,-310.28 149,-303 111.18,-253.2 75.26,-186.97 62.44,-162.56"/>
<polygon fill="#63b8ff" stroke="#63b8ff" points="165.07,-326.81 174.58,-331.49 170.06,-321.9 165.07,-326.81"/>
</a>
</g>
</g>
<!-- Node8 -->
<g id="Node000008" class="node">
<title>Node8</title>
<g id="a_Node000008"><a xlink:href="classXCS.html#ac12768292958a714a726b1c029e9616a" target="_top" xlink:title="Creates/updates an action set for a given (state, action, reward).">
<polygon fill="white" stroke="#666666" points="211.5,-293.5 159.5,-293.5 159.5,-274.5 211.5,-274.5 211.5,-293.5"/>
<text text-anchor="middle" x="185.5" y="-281.5" font-family="Helvetica,sans-Serif" font-size="10.00">XCS::fit</text>
</a>
</g>
</g>
<!-- Node7&#45;&gt;Node8 -->
<g id="edge7_Node000007_Node000008" class="edge">
<title>Node7&#45;&gt;Node8</title>
<g id="a_edge7_Node000007_Node000008"><a xlink:title=" ">
<path fill="none" stroke="#63b8ff" d="M448.35,-284.88C386.55,-284.67 264.26,-284.26 211.59,-284.08"/>
<polygon fill="#63b8ff" stroke="#63b8ff" points="448.43,-288.38 458.44,-284.91 448.45,-281.38 448.43,-288.38"/>
</a>
</g>
</g>
<!-- Node8&#45;&gt;Node6 -->
<g id="edge8_Node000008_Node000006" class="edge">
<title>Node8&#45;&gt;Node6</title>
<g id="a_edge8_Node000008_Node000006"><a xlink:title=" ">
<path fill="none" stroke="#63b8ff" d="M153.19,-269.1C151.73,-268.11 150.33,-267.08 149,-266 109.93,-234.42 76.31,-183.66 63.28,-162.62"/>
<polygon fill="#63b8ff" stroke="#63b8ff" points="151.47,-272.16 161.84,-274.32 155.08,-266.16 151.47,-272.16"/>
</a>
</g>
</g>
<!-- Node10 -->
<g id="Node000010" class="node">
<title>Node10</title>
<g id="a_Node000010"><a xlink:href="xcs__rl_8c.html#adb4c284d19eeaed2b4a629f9b939ed20" target="_top" xlink:title="Executes a reinforcement learning experiment.">
<polygon fill="white" stroke="#666666" points="352.5,-332.5 288.5,-332.5 288.5,-313.5 352.5,-313.5 352.5,-332.5"/>
<text text-anchor="middle" x="320.5" y="-320.5" font-family="Helvetica,sans-Serif" font-size="10.00">xcs_rl_exp</text>
</a>
</g>
</g>
<!-- Node9&#45;&gt;Node10 -->
<g id="edge10_Node000009_Node000010" class="edge">
<title>Node9&#45;&gt;Node10</title>
<g id="a_edge10_Node000009_Node000010"><a xlink:title=" ">
<path fill="none" stroke="#63b8ff" d="M444.22,-323C415.78,-323 378.57,-323 352.62,-323"/>
<polygon fill="#63b8ff" stroke="#63b8ff" points="444.27,-326.5 454.27,-323 444.27,-319.5 444.27,-326.5"/>
</a>
</g>
</g>
<!-- Node11 -->
<g id="Node000011" class="node">
<title>Node11</title>
<g id="a_Node000011"><a xlink:href="main_8c.html#a3c04138a5bfe5d72780bb7e82a18e627" target="_top" xlink:title=" ">
<polygon fill="white" stroke="#666666" points="204.5,-256.5 166.5,-256.5 166.5,-237.5 204.5,-237.5 204.5,-256.5"/>
<text text-anchor="middle" x="185.5" y="-244.5" font-family="Helvetica,sans-Serif" font-size="10.00">main</text>
</a>
</g>
</g>
<!-- Node10&#45;&gt;Node11 -->
<g id="edge11_Node000010_Node000011" class="edge">
<title>Node10&#45;&gt;Node11</title>
<g id="a_edge11_Node000010_Node000011"><a xlink:title=" ">
<path fill="none" stroke="#63b8ff" d="M294.76,-308.19C275.14,-296.53 246.96,-279.97 222,-266 216.39,-262.86 210.22,-259.52 204.63,-256.54"/>
<polygon fill="#63b8ff" stroke="#63b8ff" points="293.01,-311.22 303.39,-313.33 296.59,-305.21 293.01,-311.22"/>
</a>
</g>
</g>
<!-- Node13 -->
<g id="Node000013" class="node">
<title>Node13</title>
<g id="a_Node000013"><a xlink:href="xcs__supervised_8c.html#a4b67d2351436bfb520f5707260420f8c" target="_top" xlink:title="Executes MAX_TRIALS number of XCSF learning iterations using the training data and test iterations us...">
<polygon fill="white" stroke="#666666" points="535.5,-218.5 437.5,-218.5 437.5,-199.5 535.5,-199.5 535.5,-218.5"/>
<text text-anchor="middle" x="486.5" y="-206.5" font-family="Helvetica,sans-Serif" font-size="10.00">xcs_supervised_fit</text>
</a>
</g>
</g>
<!-- Node12&#45;&gt;Node13 -->
<g id="edge13_Node000012_Node000013" class="edge">
<title>Node12&#45;&gt;Node13</title>
<g id="a_edge13_Node000012_Node000013"><a xlink:title=" ">
<path fill="none" stroke="#63b8ff" d="M616.47,-166.59C598.49,-174.31 575.19,-183.83 554,-191 545.05,-194.03 535.29,-196.9 526.07,-199.43"/>
<polygon fill="#63b8ff" stroke="#63b8ff" points="618.08,-169.71 625.86,-162.51 615.29,-163.28 618.08,-169.71"/>
</a>
</g>
</g>
<!-- Node15 -->
<g id="Node000015" class="node">
<title>Node15</title>
<g id="a_Node000015"><a xlink:href="xcs__supervised_8c.html#ae4791c1daf0baaa6615f70332657aadb" target="_top" xlink:title="Calculates the XCSF predictions for the provided input.">
<polygon fill="white" stroke="#666666" points="546,-105.5 427,-105.5 427,-86.5 546,-86.5 546,-105.5"/>
<text text-anchor="middle" x="486.5" y="-93.5" font-family="Helvetica,sans-Serif" font-size="10.00">xcs_supervised_predict</text>
</a>
</g>
</g>
<!-- Node12&#45;&gt;Node15 -->
<g id="edge16_Node000012_Node000015" class="edge">
<title>Node12&#45;&gt;Node15</title>
<g id="a_edge16_Node000012_Node000015"><a xlink:title=" ">
<path fill="none" stroke="#63b8ff" d="M610.82,-140.07C581.48,-129.58 540.77,-115.04 514.28,-105.57"/>
<polygon fill="#63b8ff" stroke="#63b8ff" points="609.71,-143.39 620.3,-143.46 612.06,-136.8 609.71,-143.39"/>
</a>
</g>
</g>
<!-- Node17 -->
<g id="Node000017" class="node">
<title>Node17</title>
<g id="a_Node000017"><a xlink:href="xcs__supervised_8c.html#a535e3dbbf0f80e64a4e9b1c700e51f40" target="_top" xlink:title="Calculates the XCSF error for the input data.">
<polygon fill="white" stroke="#666666" points="543.5,-181.5 429.5,-181.5 429.5,-162.5 543.5,-162.5 543.5,-181.5"/>
<text text-anchor="middle" x="486.5" y="-169.5" font-family="Helvetica,sans-Serif" font-size="10.00">xcs_supervised_score</text>
</a>
</g>
</g>
<!-- Node12&#45;&gt;Node17 -->
<g id="edge19_Node000012_Node000017" class="edge">
<title>Node12&#45;&gt;Node17</title>
<g id="a_edge19_Node000012_Node000017"><a xlink:title=" ">
<path fill="none" stroke="#63b8ff" d="M584.62,-160.43C571.12,-162.04 556.93,-163.73 543.69,-165.31"/>
<polygon fill="#63b8ff" stroke="#63b8ff" points="585.26,-163.88 594.77,-159.22 584.43,-156.93 585.26,-163.88"/>
</a>
</g>
</g>
<!-- Node19 -->
<g id="Node000019" class="node">
<title>Node19</title>
<g id="a_Node000019"><a xlink:href="xcs__supervised_8c.html#a9ab2bb39625aea84c716901a95a4326e" target="_top" xlink:title="Calculates the XCSF error for a subsample of the input data.">
<polygon fill="white" stroke="#666666" points="383,-142.5 258,-142.5 258,-123.5 383,-123.5 383,-142.5"/>
<text text-anchor="middle" x="320.5" y="-130.5" font-family="Helvetica,sans-Serif" font-size="10.00">xcs_supervised_score_n</text>
</a>
</g>
</g>
<!-- Node12&#45;&gt;Node19 -->
<g id="edge25_Node000012_Node000019" class="edge">
<title>Node12&#45;&gt;Node19</title>
<g id="a_edge25_Node000012_Node000019"><a xlink:title=" ">
<path fill="none" stroke="#63b8ff" d="M584.58,-149.16C526.61,-145.6 440.81,-140.33 383.11,-136.79"/>
<polygon fill="#63b8ff" stroke="#63b8ff" points="584.51,-152.67 594.7,-149.79 584.94,-145.68 584.51,-152.67"/>
</a>
</g>
</g>
<!-- Node13&#45;&gt;Node11 -->
<g id="edge15_Node000013_Node000011" class="edge">
<title>Node13&#45;&gt;Node11</title>
<g id="a_edge15_Node000013_Node000011"><a xlink:title=" ">
<path fill="none" stroke="#63b8ff" d="M428.87,-220.41C413.99,-223.15 397.93,-225.9 383,-228 317.67,-237.2 239.48,-243.31 204.71,-245.77"/>
<polygon fill="#63b8ff" stroke="#63b8ff" points="429.77,-223.8 438.95,-218.51 428.48,-216.92 429.77,-223.8"/>
</a>
</g>
</g>
<!-- Node14 -->
<g id="Node000014" class="node">
<title>Node14</title>
<g id="a_Node000014"><a xlink:href="classXCS.html#ae71d09f1e1346353163fc9d8ffb430af" target="_top" xlink:title="Executes MAX_TRIALS number of XCSF learning iterations using the provided training data.">
<polygon fill="white" stroke="#666666" points="346.5,-218.5 294.5,-218.5 294.5,-199.5 346.5,-199.5 346.5,-218.5"/>
<text text-anchor="middle" x="320.5" y="-206.5" font-family="Helvetica,sans-Serif" font-size="10.00">XCS::fit</text>
</a>
</g>
</g>
<!-- Node13&#45;&gt;Node14 -->
<g id="edge14_Node000013_Node000014" class="edge">
<title>Node13&#45;&gt;Node14</title>
<g id="a_edge14_Node000013_Node000014"><a xlink:title=" ">
<path fill="none" stroke="#63b8ff" d="M426.85,-209C399.34,-209 368.01,-209 346.71,-209"/>
<polygon fill="#63b8ff" stroke="#63b8ff" points="427.18,-212.5 437.18,-209 427.18,-205.5 427.18,-212.5"/>
</a>
</g>
</g>
<!-- Node16 -->
<g id="Node000016" class="node">
<title>Node16</title>
<g id="a_Node000016"><a xlink:href="classXCS.html#a562cb81d9627e7dbcfdb0dc05ec2e3f0" target="_top" xlink:title="Returns the XCSF prediction array for the provided input.">
<polygon fill="white" stroke="#666666" points="357,-105.5 284,-105.5 284,-86.5 357,-86.5 357,-105.5"/>
<text text-anchor="middle" x="320.5" y="-93.5" font-family="Helvetica,sans-Serif" font-size="10.00">XCS::predict</text>
</a>
</g>
</g>
<!-- Node15&#45;&gt;Node16 -->
<g id="edge17_Node000015_Node000016" class="edge">
<title>Node15&#45;&gt;Node16</title>
<g id="a_edge17_Node000015_Node000016"><a xlink:title=" ">
<path fill="none" stroke="#63b8ff" d="M416.57,-96C396.24,-96 374.8,-96 357.44,-96"/>
<polygon fill="#63b8ff" stroke="#63b8ff" points="416.76,-99.5 426.76,-96 416.76,-92.5 416.76,-99.5"/>
</a>
</g>
</g>
<!-- Node16&#45;&gt;Node6 -->
<g id="edge18_Node000016_Node000006" class="edge">
<title>Node16&#45;&gt;Node6</title>
<g id="a_edge18_Node000016_Node000006"><a xlink:title=" ">
<path fill="none" stroke="#63b8ff" d="M273.98,-105.9C225.47,-116.46 149.19,-133.05 101.33,-143.46"/>
<polygon fill="#63b8ff" stroke="#63b8ff" points="274.87,-109.29 283.89,-103.75 273.38,-102.45 274.87,-109.29"/>
</a>
</g>
</g>
<!-- Node17&#45;&gt;Node14 -->
<g id="edge20_Node000017_Node000014" class="edge">
<title>Node17&#45;&gt;Node14</title>
<g id="a_edge20_Node000017_Node000014"><a xlink:title=" ">
<path fill="none" stroke="#63b8ff" d="M433.3,-183.78C404.37,-190.3 369.71,-198.12 346.73,-203.31"/>
<polygon fill="#63b8ff" stroke="#63b8ff" points="434.28,-187.14 443.27,-181.53 432.74,-180.32 434.28,-187.14"/>
</a>
</g>
</g>
<!-- Node18 -->
<g id="Node000018" class="node">
<title>Node18</title>
<g id="a_Node000018"><a xlink:href="classXCS.html#a2aeb9df5550b79ea97a725e83ef64005" target="_top" xlink:title="Returns the error using N random samples from the provided data.">
<polygon fill="white" stroke="#666666" points="219.5,-162.5 151.5,-162.5 151.5,-143.5 219.5,-143.5 219.5,-162.5"/>
<text text-anchor="middle" x="185.5" y="-150.5" font-family="Helvetica,sans-Serif" font-size="10.00">XCS::score</text>
</a>
</g>
</g>
<!-- Node17&#45;&gt;Node18 -->
<g id="edge21_Node000017_Node000018" class="edge">
<title>Node17&#45;&gt;Node18</title>
<g id="a_edge21_Node000017_Node000018"><a xlink:title=" ">
<path fill="none" stroke="#63b8ff" d="M419.21,-167.79C357.4,-163.86 267.76,-158.16 219.77,-155.11"/>
<polygon fill="#63b8ff" stroke="#63b8ff" points="419.06,-171.28 429.26,-168.43 419.5,-164.3 419.06,-171.28"/>
</a>
</g>
</g>
<!-- Node17&#45;&gt;Node19 -->
<g id="edge23_Node000017_Node000019" class="edge">
<title>Node17&#45;&gt;Node19</title>
<g id="a_edge23_Node000017_Node000019"><a xlink:title=" ">
<path fill="none" stroke="#63b8ff" d="M435.5,-160.11C411.76,-154.47 383.79,-147.81 361.49,-142.51"/>
<polygon fill="#63b8ff" stroke="#63b8ff" points="434.84,-163.55 445.38,-162.46 436.46,-156.74 434.84,-163.55"/>
</a>
</g>
</g>
<!-- Node18&#45;&gt;Node6 -->
<g id="edge22_Node000018_Node000006" class="edge">
<title>Node18&#45;&gt;Node6</title>
<g id="a_edge22_Node000018_Node000006"><a xlink:title=" ">
<path fill="none" stroke="#63b8ff" d="M141.29,-153C132.35,-153 122.81,-153 113.49,-153"/>
<polygon fill="#63b8ff" stroke="#63b8ff" points="141.46,-156.5 151.46,-153 141.46,-149.5 141.46,-156.5"/>
</a>
</g>
</g>
<!-- Node19&#45;&gt;Node18 -->
<g id="edge24_Node000019_Node000018" class="edge">
<title>Node19&#45;&gt;Node18</title>
<g id="a_edge24_Node000019_Node000018"><a xlink:title=" ">
<path fill="none" stroke="#63b8ff" d="M247.48,-143.83C237.72,-145.3 228.12,-146.74 219.53,-148.03"/>
<polygon fill="#63b8ff" stroke="#63b8ff" points="248.3,-147.25 257.67,-142.3 247.26,-140.32 248.3,-147.25"/>
</a>
</g>
</g>
<!-- Node21 -->
<g id="Node000021" class="node">
<title>Node21</title>
<g id="a_Node000021"><a xlink:href="xcsf_8c.html#a10d0342ac640d2cd32e9cb95d0cd3bbe" target="_top" xlink:title="Stores the current population.">
<polygon fill="white" stroke="#666666" points="828,-67.5 742,-67.5 742,-48.5 828,-48.5 828,-67.5"/>
<text text-anchor="middle" x="785" y="-55.5" font-family="Helvetica,sans-Serif" font-size="10.00">xcsf_store_pset</text>
</a>
</g>
</g>
<!-- Node20&#45;&gt;Node21 -->
<g id="edge27_Node000020_Node000021" class="edge">
<title>Node20&#45;&gt;Node21</title>
<g id="a_edge27_Node000020_Node000021"><a xlink:title=" ">
<path fill="none" stroke="#63b8ff" d="M853.93,-69.63C845.46,-68.18 836.59,-66.66 828.15,-65.22"/>
<polygon fill="#63b8ff" stroke="#63b8ff" points="853.55,-73.11 864,-71.35 854.73,-66.21 853.55,-73.11"/>
</a>
</g>
</g>
<!-- Node22 -->
<g id="Node000022" class="node">
<title>Node22</title>
<g id="a_Node000022"><a xlink:href="classEarlyStoppingCallback.html#af05216c46317631492921061caaa7b2b" target="_top" xlink:title="Stores best XCSF population in memory.">
<polygon fill="white" stroke="#666666" points="706,-30 590,-30 590,0 706,0 706,-30"/>
<text text-anchor="start" x="598" y="-18" font-family="Helvetica,sans-Serif" font-size="10.00">EarlyStoppingCallback</text>
<text text-anchor="middle" x="648" y="-7" font-family="Helvetica,sans-Serif" font-size="10.00">::store</text>
</a>
</g>
</g>
<!-- Node21&#45;&gt;Node22 -->
<g id="edge28_Node000021_Node000022" class="edge">
<title>Node21&#45;&gt;Node22</title>
<g id="a_edge28_Node000021_Node000022"><a xlink:title=" ">
<path fill="none" stroke="#63b8ff" d="M744.46,-45.41C729.32,-40.58 711.89,-35.03 696.11,-30.01"/>
<polygon fill="#63b8ff" stroke="#63b8ff" points="743.45,-48.76 754.04,-48.46 745.57,-42.09 743.45,-48.76"/>
</a>
</g>
</g>
<!-- Node24 -->
<g id="Node000024" class="node">
<title>Node24</title>
<g id="a_Node000024"><a xlink:href="classXCS.html#a0d5d38e87da92827cee73290b030ff9f" target="_top" xlink:title="Stores the current population in memory for later retrieval.">
<polygon fill="white" stroke="#666666" points="218,-72.5 153,-72.5 153,-53.5 218,-53.5 218,-72.5"/>
<text text-anchor="middle" x="185.5" y="-60.5" font-family="Helvetica,sans-Serif" font-size="10.00">XCS::store</text>
</a>
</g>
</g>
<!-- Node21&#45;&gt;Node24 -->
<g id="edge30_Node000021_Node000024" class="edge">
<title>Node21&#45;&gt;Node24</title>
<g id="a_edge30_Node000021_Node000024"><a xlink:title=" ">
<path fill="none" stroke="#63b8ff" d="M731.9,-58.44C611.3,-59.45 315.85,-61.92 218.32,-62.73"/>
<polygon fill="#63b8ff" stroke="#63b8ff" points="732.01,-61.94 741.98,-58.35 731.96,-54.94 732.01,-61.94"/>
</a>
</g>
</g>
<!-- Node23 -->
<g id="Node000023" class="node">
<title>Node23</title>
<g id="a_Node000023"><a xlink:href="classEarlyStoppingCallback.html#abd3058b7119551231838e98d71d4de0c" target="_top" xlink:title="Checks whether early stopping criteria has been met.">
<polygon fill="white" stroke="#666666" points="554,-24.5 419,-24.5 419,-5.5 554,-5.5 554,-24.5"/>
<text text-anchor="middle" x="486.5" y="-12.5" font-family="Helvetica,sans-Serif" font-size="10.00">EarlyStoppingCallback::run</text>
</a>
</g>
</g>
<!-- Node22&#45;&gt;Node23 -->
<g id="edge29_Node000022_Node000023" class="edge">
<title>Node22&#45;&gt;Node23</title>
<g id="a_edge29_Node000022_Node000023"><a xlink:title=" ">
<path fill="none" stroke="#63b8ff" d="M579.64,-15C571.16,-15 562.48,-15 554.01,-15"/>
<polygon fill="#63b8ff" stroke="#63b8ff" points="579.87,-18.5 589.87,-15 579.87,-11.5 579.87,-18.5"/>
</a>
</g>
</g>
<!-- Node24&#45;&gt;Node6 -->
<g id="edge31_Node000024_Node000006" class="edge">
<title>Node24&#45;&gt;Node6</title>
<g id="a_edge31_Node000024_Node000006"><a xlink:title=" ">
<path fill="none" stroke="#63b8ff" d="M162.69,-78.45C136.36,-97.11 92.89,-127.92 70.99,-143.44"/>
<polygon fill="#63b8ff" stroke="#63b8ff" points="164.77,-81.27 170.91,-72.63 160.73,-75.56 164.77,-81.27"/>
</a>
</g>
</g>
</g>
</svg>
