<?xml version="1.0" encoding="UTF-8" standalone="no"?>
<!DOCTYPE svg PUBLIC "-//W3C//DTD SVG 1.1//EN"
 "http://www.w3.org/Graphics/SVG/1.1/DTD/svg11.dtd">
<!-- Generated by graphviz version 2.43.0 (0)
 -->
<!-- Title: pred_param_set_eta Pages: 1 -->
<svg width="992pt" height="216pt"
 viewBox="0.00 0.00 992.00 216.00" xmlns="http://www.w3.org/2000/svg" xmlns:xlink="http://www.w3.org/1999/xlink">
<g id="graph0" class="graph" transform="scale(1 1) rotate(0) translate(4 212)">
<title>pred_param_set_eta</title>
<!-- Node1 -->
<g id="node1" class="node">
<title>Node1</title>
<g id="a_node1"><a xlink:title=" ">
<polygon fill="#bfbfbf" stroke="black" points="879,-114.5 879,-133.5 984,-133.5 984,-114.5 879,-114.5"/>
<text text-anchor="middle" x="931.5" y="-121.5" font-family="Helvetica,sans-Serif" font-size="10.00">pred_param_set_eta</text>
</a>
</g>
</g>
<!-- Node2 -->
<g id="node2" class="node">
<title>Node2</title>
<g id="a_node2"><a xlink:href="pred__nlms_8c.html#ad710d595ff04564a4925d0d83129853d" target="_top" xlink:title="Sets the NLMS parameters from a cJSON object.">
<polygon fill="none" stroke="black" points="726,-139 726,-169 843,-169 843,-139 726,-139"/>
<text text-anchor="start" x="734" y="-157" font-family="Helvetica,sans-Serif" font-size="10.00">pred_nlms_param_json</text>
<text text-anchor="middle" x="784.5" y="-146" font-family="Helvetica,sans-Serif" font-size="10.00">_import</text>
</a>
</g>
</g>
<!-- Node1&#45;&gt;Node2 -->
<g id="edge1" class="edge">
<title>Node1&#45;&gt;Node2</title>
<path fill="none" stroke="midnightblue" d="M874.19,-135.65C863.97,-137.77 853.29,-139.97 843.04,-142.1"/>
<polygon fill="midnightblue" stroke="midnightblue" points="875.14,-139.03 884.22,-133.57 873.72,-132.17 875.14,-139.03"/>
</g>
<!-- Node11 -->
<g id="node11" class="node">
<title>Node11</title>
<g id="a_node11"><a xlink:href="prediction_8c.html#af2e3b26751cb8f9af4c608e534ee6894" target="_top" xlink:title="Initialises default prediction parameters.">
<polygon fill="none" stroke="black" points="731,-92.5 731,-111.5 838,-111.5 838,-92.5 731,-92.5"/>
<text text-anchor="middle" x="784.5" y="-99.5" font-family="Helvetica,sans-Serif" font-size="10.00">pred_param_defaults</text>
</a>
</g>
</g>
<!-- Node1&#45;&gt;Node11 -->
<g id="edge10" class="edge">
<title>Node1&#45;&gt;Node11</title>
<path fill="none" stroke="midnightblue" d="M868.92,-114.66C858.74,-113.11 848.27,-111.52 838.33,-110.02"/>
<polygon fill="midnightblue" stroke="midnightblue" points="868.56,-118.14 878.97,-116.18 869.61,-111.22 868.56,-118.14"/>
</g>
<!-- Node3 -->
<g id="node3" class="node">
<title>Node3</title>
<g id="a_node3"><a xlink:href="prediction_8c.html#a7f976ef5c24c68e48493bdec31567021" target="_top" xlink:title="Sets the prediction parameters from a cJSON object.">
<polygon fill="none" stroke="black" points="567,-148.5 567,-167.5 690,-167.5 690,-148.5 567,-148.5"/>
<text text-anchor="middle" x="628.5" y="-155.5" font-family="Helvetica,sans-Serif" font-size="10.00">pred_param_json_import</text>
</a>
</g>
</g>
<!-- Node2&#45;&gt;Node3 -->
<g id="edge2" class="edge">
<title>Node2&#45;&gt;Node3</title>
<path fill="none" stroke="midnightblue" d="M715.52,-155.77C707.08,-155.98 698.5,-156.21 690.18,-156.42"/>
<polygon fill="midnightblue" stroke="midnightblue" points="715.81,-159.26 725.72,-155.5 715.63,-152.26 715.81,-159.26"/>
</g>
<!-- Node4 -->
<g id="node4" class="node">
<title>Node4</title>
<g id="a_node4"><a xlink:href="param_8c.html#ab62861b770fc9aea05efcc26279ee9e5" target="_top" xlink:title="Sets the prediction parameters from a json formatted string.">
<polygon fill="none" stroke="black" points="385,-152.5 385,-171.5 531,-171.5 531,-152.5 385,-152.5"/>
<text text-anchor="middle" x="458" y="-159.5" font-family="Helvetica,sans-Serif" font-size="10.00">param_json_import_prediction</text>
</a>
</g>
</g>
<!-- Node3&#45;&gt;Node4 -->
<g id="edge3" class="edge">
<title>Node3&#45;&gt;Node4</title>
<path fill="none" stroke="midnightblue" d="M556.56,-159.68C548.18,-159.88 539.62,-160.09 531.22,-160.29"/>
<polygon fill="midnightblue" stroke="midnightblue" points="556.75,-163.18 566.67,-159.44 556.59,-156.18 556.75,-163.18"/>
</g>
<!-- Node5 -->
<g id="node5" class="node">
<title>Node5</title>
<g id="a_node5"><a xlink:href="param_8c.html#a130260988988535419aee8abe51986c1" target="_top" xlink:title="Sets the parameters from a json formatted string.">
<polygon fill="none" stroke="black" points="250,-152.5 250,-171.5 349,-171.5 349,-152.5 250,-152.5"/>
<text text-anchor="middle" x="299.5" y="-159.5" font-family="Helvetica,sans-Serif" font-size="10.00">param_json_import</text>
</a>
</g>
</g>
<!-- Node4&#45;&gt;Node5 -->
<g id="edge4" class="edge">
<title>Node4&#45;&gt;Node5</title>
<path fill="none" stroke="midnightblue" d="M374.55,-162C365.9,-162 357.33,-162 349.24,-162"/>
<polygon fill="midnightblue" stroke="midnightblue" points="374.71,-165.5 384.71,-162 374.71,-158.5 374.71,-165.5"/>
</g>
<!-- Node6 -->
<g id="node6" class="node">
<title>Node6</title>
<g id="a_node6"><a xlink:href="config_8c.html#a045a64a30d99a4bef2ebfd9b54aa9698" target="_top" xlink:title="Reads the specified configuration file.">
<polygon fill="none" stroke="black" points="133,-131.5 133,-150.5 200,-150.5 200,-131.5 133,-131.5"/>
<text text-anchor="middle" x="166.5" y="-138.5" font-family="Helvetica,sans-Serif" font-size="10.00">config_read</text>
</a>
</g>
</g>
<!-- Node5&#45;&gt;Node6 -->
<g id="edge5" class="edge">
<title>Node5&#45;&gt;Node6</title>
<path fill="none" stroke="midnightblue" d="M239.46,-152.54C225.9,-150.36 211.97,-148.13 200.02,-146.21"/>
<polygon fill="midnightblue" stroke="midnightblue" points="239.29,-156.05 249.72,-154.18 240.4,-149.14 239.29,-156.05"/>
</g>
<!-- Node8 -->
<g id="node8" class="node">
<title>Node8</title>
<g id="a_node8"><a xlink:href="classXCS.html#ad8780630d80d4bf5b76d9bf2f6c91f25" target="_top" xlink:title="Sets parameter values.">
<polygon fill="none" stroke="black" points="119,-169.5 119,-188.5 214,-188.5 214,-169.5 119,-169.5"/>
<text text-anchor="middle" x="166.5" y="-176.5" font-family="Helvetica,sans-Serif" font-size="10.00">XCS::set_params</text>
</a>
</g>
</g>
<!-- Node5&#45;&gt;Node8 -->
<g id="edge7" class="edge">
<title>Node5&#45;&gt;Node8</title>
<path fill="none" stroke="midnightblue" d="M239.76,-169.62C231.18,-170.74 222.44,-171.87 214.15,-172.95"/>
<polygon fill="midnightblue" stroke="midnightblue" points="240.25,-173.09 249.72,-168.33 239.35,-166.15 240.25,-173.09"/>
</g>
<!-- Node7 -->
<g id="node7" class="node">
<title>Node7</title>
<g id="a_node7"><a xlink:href="main_8c.html#a3c04138a5bfe5d72780bb7e82a18e627" target="_top" xlink:title=" ">
<polygon fill="none" stroke="black" points="22.5,-93.5 22.5,-112.5 60.5,-112.5 60.5,-93.5 22.5,-93.5"/>
<text text-anchor="middle" x="41.5" y="-100.5" font-family="Helvetica,sans-Serif" font-size="10.00">main</text>
</a>
</g>
</g>
<!-- Node6&#45;&gt;Node7 -->
<g id="edge6" class="edge">
<title>Node6&#45;&gt;Node7</title>
<path fill="none" stroke="midnightblue" d="M124.79,-128.42C103.05,-121.71 77.37,-113.77 60.55,-108.58"/>
<polygon fill="midnightblue" stroke="midnightblue" points="123.87,-131.8 134.46,-131.41 125.94,-125.12 123.87,-131.8"/>
</g>
<!-- Node9 -->
<g id="node9" class="node">
<title>Node9</title>
<g id="a_node9"><a xlink:href="classXCS.html#a0c600c37d5e5160d553b52b6d5c179b4" target="_top" xlink:title="Sets XCSF input and output dimensions.">
<polygon fill="none" stroke="black" points="0,-150.5 0,-169.5 83,-169.5 83,-150.5 0,-150.5"/>
<text text-anchor="middle" x="41.5" y="-157.5" font-family="Helvetica,sans-Serif" font-size="10.00">XCS::set_dims</text>
</a>
</g>
</g>
<!-- Node8&#45;&gt;Node9 -->
<g id="edge8" class="edge">
<title>Node8&#45;&gt;Node9</title>
<path fill="none" stroke="midnightblue" d="M108.87,-170.25C100.15,-168.9 91.3,-167.54 83.02,-166.26"/>
<polygon fill="midnightblue" stroke="midnightblue" points="108.58,-173.75 119,-171.82 109.65,-166.83 108.58,-173.75"/>
</g>
<!-- Node10 -->
<g id="node10" class="node">
<title>Node10</title>
<g id="a_node10"><a xlink:href="classXCS.html#a608a50f998819369d28ef9966d6812ca" target="_top" xlink:title="Constructor.">
<polygon fill="none" stroke="black" points="9,-188.5 9,-207.5 74,-207.5 74,-188.5 9,-188.5"/>
<text text-anchor="middle" x="41.5" y="-195.5" font-family="Helvetica,sans-Serif" font-size="10.00">XCS::XCS</text>
</a>
</g>
</g>
<!-- Node8&#45;&gt;Node10 -->
<g id="edge9" class="edge">
<title>Node8&#45;&gt;Node10</title>
<path fill="none" stroke="midnightblue" d="M109.04,-187.72C97.06,-189.57 84.82,-191.46 74.16,-193.11"/>
<polygon fill="midnightblue" stroke="midnightblue" points="109.65,-191.17 119,-186.18 108.58,-184.25 109.65,-191.17"/>
</g>
<!-- Node12 -->
<g id="node12" class="node">
<title>Node12</title>
<g id="a_node12"><a xlink:href="param_8c.html#ac8218a170803be0bcd974764e7494b0e" target="_top" xlink:title="Initialises default XCSF parameters.">
<polygon fill="none" stroke="black" points="597.5,-76.5 597.5,-95.5 659.5,-95.5 659.5,-76.5 597.5,-76.5"/>
<text text-anchor="middle" x="628.5" y="-83.5" font-family="Helvetica,sans-Serif" font-size="10.00">param_init</text>
</a>
</g>
</g>
<!-- Node11&#45;&gt;Node12 -->
<g id="edge11" class="edge">
<title>Node11&#45;&gt;Node12</title>
<path fill="none" stroke="midnightblue" d="M720.76,-95.48C699.73,-93.3 677.24,-90.96 659.85,-89.15"/>
<polygon fill="midnightblue" stroke="midnightblue" points="720.62,-98.99 730.93,-96.54 721.35,-92.02 720.62,-98.99"/>
</g>
<!-- Node13 -->
<g id="node13" class="node">
<title>Node13</title>
<g id="a_node13"><a xlink:href="env__csv_8c.html#ab26a39a388f0ac83b9ac14726ad14b16" target="_top" xlink:title="Initialises a CSV input environment from a specified filename.">
<polygon fill="none" stroke="black" points="422.5,-76.5 422.5,-95.5 493.5,-95.5 493.5,-76.5 422.5,-76.5"/>
<text text-anchor="middle" x="458" y="-83.5" font-family="Helvetica,sans-Serif" font-size="10.00">env_csv_init</text>
</a>
</g>
</g>
<!-- Node12&#45;&gt;Node13 -->
<g id="edge12" class="edge">
<title>Node12&#45;&gt;Node13</title>
<path fill="none" stroke="midnightblue" d="M587.31,-86C558.72,-86 520.73,-86 493.51,-86"/>
<polygon fill="midnightblue" stroke="midnightblue" points="587.38,-89.5 597.38,-86 587.38,-82.5 587.38,-89.5"/>
</g>
<!-- Node15 -->
<g id="node15" class="node">
<title>Node15</title>
<g id="a_node15"><a xlink:href="env__maze_8c.html#acad3cc6e9fe2b7e07e878f1f517ad3a6" target="_top" xlink:title="Initialises a maze environment from a specified file.">
<polygon fill="none" stroke="black" points="418,-38.5 418,-57.5 498,-57.5 498,-38.5 418,-38.5"/>
<text text-anchor="middle" x="458" y="-45.5" font-family="Helvetica,sans-Serif" font-size="10.00">env_maze_init</text>
</a>
</g>
</g>
<!-- Node12&#45;&gt;Node15 -->
<g id="edge15" class="edge">
<title>Node12&#45;&gt;Node15</title>
<path fill="none" stroke="midnightblue" d="M587.46,-76.97C560.42,-70.87 524.9,-62.86 498.07,-56.81"/>
<polygon fill="midnightblue" stroke="midnightblue" points="586.85,-80.42 597.38,-79.21 588.39,-73.59 586.85,-80.42"/>
</g>
<!-- Node16 -->
<g id="node16" class="node">
<title>Node16</title>
<g id="a_node16"><a xlink:href="env__mux_8c.html#aff3b81b4913d273ecfd62d7585480b15" target="_top" xlink:title="Initialises a real multiplexer environment of specified length.">
<polygon fill="none" stroke="black" points="421,-0.5 421,-19.5 495,-19.5 495,-0.5 421,-0.5"/>
<text text-anchor="middle" x="458" y="-7.5" font-family="Helvetica,sans-Serif" font-size="10.00">env_mux_init</text>
</a>
</g>
</g>
<!-- Node12&#45;&gt;Node16 -->
<g id="edge17" class="edge">
<title>Node12&#45;&gt;Node16</title>
<path fill="none" stroke="midnightblue" d="M605.57,-70.66C586.58,-57.98 558,-40.28 531,-29 519.67,-24.27 506.83,-20.43 495.17,-17.47"/>
<polygon fill="midnightblue" stroke="midnightblue" points="603.83,-73.71 614.07,-76.43 607.76,-67.92 603.83,-73.71"/>
</g>
<!-- Node17 -->
<g id="node17" class="node">
<title>Node17</title>
<g id="a_node17"><a xlink:href="classXCS.html#a2e542f3f17c9c76d07045adf1f5c16f9" target="_top" xlink:title="Resets basic constructor variables.">
<polygon fill="none" stroke="black" points="425.5,-114.5 425.5,-133.5 490.5,-133.5 490.5,-114.5 425.5,-114.5"/>
<text text-anchor="middle" x="458" y="-121.5" font-family="Helvetica,sans-Serif" font-size="10.00">XCS::reset</text>
</a>
</g>
</g>
<!-- Node12&#45;&gt;Node17 -->
<g id="edge19" class="edge">
<title>Node12&#45;&gt;Node17</title>
<path fill="none" stroke="midnightblue" d="M587.35,-95.05C557.72,-101.74 517.96,-110.7 490.58,-116.88"/>
<polygon fill="midnightblue" stroke="midnightblue" points="588.39,-98.41 597.38,-92.79 586.85,-91.58 588.39,-98.41"/>
</g>
<!-- Node14 -->
<g id="node14" class="node">
<title>Node14</title>
<g id="a_node14"><a xlink:href="env_8c.html#a9213fcf5fc422d6a77bce853b1d78dc9" target="_top" xlink:title="Initialises a built&#45;in problem environment.">
<polygon fill="none" stroke="black" points="274.5,-43.5 274.5,-62.5 324.5,-62.5 324.5,-43.5 274.5,-43.5"/>
<text text-anchor="middle" x="299.5" y="-50.5" font-family="Helvetica,sans-Serif" font-size="10.00">env_init</text>
</a>
</g>
</g>
<!-- Node13&#45;&gt;Node14 -->
<g id="edge13" class="edge">
<title>Node13&#45;&gt;Node14</title>
<path fill="none" stroke="midnightblue" d="M412.18,-76.55C383.8,-70.57 348.21,-63.06 324.93,-58.15"/>
<polygon fill="midnightblue" stroke="midnightblue" points="411.76,-80.04 422.27,-78.68 413.2,-73.19 411.76,-80.04"/>
</g>
<!-- Node14&#45;&gt;Node7 -->
<g id="edge14" class="edge">
<title>Node14&#45;&gt;Node7</title>
<path fill="none" stroke="midnightblue" d="M264.26,-58.16C228.03,-63.79 169.28,-73.43 119,-84 98.91,-88.22 76.1,-94.02 60.65,-98.1"/>
<polygon fill="midnightblue" stroke="midnightblue" points="264.95,-61.59 274.3,-56.61 263.88,-54.67 264.95,-61.59"/>
</g>
<!-- Node15&#45;&gt;Node14 -->
<g id="edge16" class="edge">
<title>Node15&#45;&gt;Node14</title>
<path fill="none" stroke="midnightblue" d="M407.6,-49.58C379.88,-50.46 346.54,-51.53 324.5,-52.23"/>
<polygon fill="midnightblue" stroke="midnightblue" points="408.03,-53.07 417.91,-49.25 407.81,-46.07 408.03,-53.07"/>
</g>
<!-- Node16&#45;&gt;Node14 -->
<g id="edge18" class="edge">
<title>Node16&#45;&gt;Node14</title>
<path fill="none" stroke="midnightblue" d="M410.81,-22.05C402.23,-24.33 393.33,-26.72 385,-29 364.56,-34.6 341.4,-41.19 324.51,-46.05"/>
<polygon fill="midnightblue" stroke="midnightblue" points="411.93,-25.38 420.71,-19.44 410.14,-18.61 411.93,-25.38"/>
</g>
<!-- Node18 -->
<g id="node18" class="node">
<title>Node18</title>
<g id="a_node18"><a xlink:href="classXCS.html#a8a53a8df81152fbf73e6abcc6a6e56b4" target="_top" xlink:title="Default Constructor.">
<polygon fill="none" stroke="black" points="267,-95.5 267,-114.5 332,-114.5 332,-95.5 267,-95.5"/>
<text text-anchor="middle" x="299.5" y="-102.5" font-family="Helvetica,sans-Serif" font-size="10.00">XCS::XCS</text>
</a>
</g>
</g>
<!-- Node17&#45;&gt;Node18 -->
<g id="edge20" class="edge">
<title>Node17&#45;&gt;Node18</title>
<path fill="none" stroke="midnightblue" d="M415.34,-118.94C389.22,-115.77 356.08,-111.75 332.12,-108.84"/>
<polygon fill="midnightblue" stroke="midnightblue" points="414.98,-122.42 425.33,-120.16 415.82,-115.48 414.98,-122.42"/>
</g>
<!-- Node19 -->
<g id="node19" class="node">
<title>Node19</title>
<g id="a_node19"><a xlink:href="classXCS.html#a71b21201e1a2aef16702a2c308eb6683" target="_top" xlink:title="Implements pickle file reading.">
<polygon fill="none" stroke="black" points="121.5,-93.5 121.5,-112.5 211.5,-112.5 211.5,-93.5 121.5,-93.5"/>
<text text-anchor="middle" x="166.5" y="-100.5" font-family="Helvetica,sans-Serif" font-size="10.00">XCS::deserialize</text>
</a>
</g>
</g>
<!-- Node18&#45;&gt;Node19 -->
<g id="edge21" class="edge">
<title>Node18&#45;&gt;Node19</title>
<path fill="none" stroke="midnightblue" d="M256.71,-104.36C242.38,-104.14 226.31,-103.9 211.79,-103.68"/>
<polygon fill="midnightblue" stroke="midnightblue" points="256.74,-107.86 266.79,-104.52 256.84,-100.86 256.74,-107.86"/>
</g>
</g>
</svg>
