<?xml version="1.0" encoding="UTF-8" standalone="no"?>
<!DOCTYPE svg PUBLIC "-//W3C//DTD SVG 1.1//EN"
 "http://www.w3.org/Graphics/SVG/1.1/DTD/svg11.dtd">
<!-- Generated by graphviz version 2.43.0 (0)
 -->
<!-- Title: pred_rls_update Pages: 1 -->
<svg width="292pt" height="156pt"
 viewBox="0.00 0.00 292.00 156.00" xmlns="http://www.w3.org/2000/svg" xmlns:xlink="http://www.w3.org/1999/xlink">
<g id="graph0" class="graph" transform="scale(1 1) rotate(0) translate(4 152)">
<title>pred_rls_update</title>
<!-- Node1 -->
<g id="Node000001" class="node">
<title>Node1</title>
<g id="a_Node000001"><a xlink:title="Updates an RLS prediction for a given input and truth sample.">
<polygon fill="#999999" stroke="#666666" points="86,-92 0,-92 0,-73 86,-73 86,-92"/>
<text text-anchor="middle" x="43" y="-80" font-family="Helvetica,sans-Serif" font-size="10.00">pred_rls_update</text>
</a>
</g>
</g>
<!-- Node2 -->
<g id="Node000002" class="node">
<title>Node2</title>
<g id="a_Node000002"><a xlink:href="blas_8c.html#ad4fa7c98f973bedeaf96fa3757229876" target="_top" xlink:title="Multiplies vector X by the scalar ALPHA and adds it to the vector Y.">
<polygon fill="white" stroke="#666666" points="186,-148 125,-148 125,-129 186,-129 186,-148"/>
<text text-anchor="middle" x="155.5" y="-136" font-family="Helvetica,sans-Serif" font-size="10.00">blas_axpy</text>
</a>
</g>
</g>
<!-- Node1&#45;&gt;Node2 -->
<g id="edge1_Node000001_Node000002" class="edge">
<title>Node1&#45;&gt;Node2</title>
<g id="a_edge1_Node000001_Node000002"><a xlink:title=" ">
<path fill="none" stroke="#63b8ff" d="M63.25,-92.25C80.68,-101.09 106.57,-114.21 126.33,-124.22"/>
<polygon fill="#63b8ff" stroke="#63b8ff" points="124.97,-127.46 135.47,-128.86 128.14,-121.21 124.97,-127.46"/>
</a>
</g>
</g>
<!-- Node3 -->
<g id="Node000003" class="node">
<title>Node3</title>
<g id="a_Node000003"><a xlink:href="blas_8c.html#a91a7826d9b40de8174cccb1e0ca53795" target="_top" xlink:title="Computes the dot product of two vectors.">
<polygon fill="white" stroke="#666666" points="182,-111 129,-111 129,-92 182,-92 182,-111"/>
<text text-anchor="middle" x="155.5" y="-99" font-family="Helvetica,sans-Serif" font-size="10.00">blas_dot</text>
</a>
</g>
</g>
<!-- Node1&#45;&gt;Node3 -->
<g id="edge2_Node000001_Node000003" class="edge">
<title>Node1&#45;&gt;Node3</title>
<g id="a_edge2_Node000001_Node000003"><a xlink:title=" ">
<path fill="none" stroke="#63b8ff" d="M86.09,-89.74C96.89,-91.59 108.39,-93.57 118.83,-95.37"/>
<polygon fill="#63b8ff" stroke="#63b8ff" points="118.39,-98.84 128.84,-97.09 119.58,-91.94 118.39,-98.84"/>
</a>
</g>
</g>
<!-- Node4 -->
<g id="Node000004" class="node">
<title>Node4</title>
<g id="a_Node000004"><a xlink:href="blas_8c.html#af641b4337bf32be77f094e40817a55b7" target="_top" xlink:title="Performs the matrix&#45;matrix multiplication: .">
<polygon fill="white" stroke="#666666" points="189,-74 122,-74 122,-55 189,-55 189,-74"/>
<text text-anchor="middle" x="155.5" y="-62" font-family="Helvetica,sans-Serif" font-size="10.00">blas_gemm</text>
</a>
</g>
</g>
<!-- Node1&#45;&gt;Node4 -->
<g id="edge3_Node000001_Node000004" class="edge">
<title>Node1&#45;&gt;Node4</title>
<g id="a_edge3_Node000001_Node000004"><a xlink:title=" ">
<path fill="none" stroke="#63b8ff" d="M86.09,-75.64C94.5,-74.27 103.35,-72.83 111.78,-71.46"/>
<polygon fill="#63b8ff" stroke="#63b8ff" points="112.5,-74.89 121.81,-69.83 111.37,-67.98 112.5,-74.89"/>
</a>
</g>
</g>
<!-- Node9 -->
<g id="Node000009" class="node">
<title>Node9</title>
<g id="a_Node000009"><a xlink:href="blas_8c.html#a59634a37fd370ffc05eb458503c5ab53" target="_top" xlink:title="Scales vector X by the scalar ALPHA and overwrites it with the result.">
<polygon fill="white" stroke="#666666" points="184.5,-37 126.5,-37 126.5,-18 184.5,-18 184.5,-37"/>
<text text-anchor="middle" x="155.5" y="-25" font-family="Helvetica,sans-Serif" font-size="10.00">blas_scal</text>
</a>
</g>
</g>
<!-- Node1&#45;&gt;Node9 -->
<g id="edge8_Node000001_Node000009" class="edge">
<title>Node1&#45;&gt;Node9</title>
<g id="a_edge8_Node000001_Node000009"><a xlink:title=" ">
<path fill="none" stroke="#63b8ff" d="M63.25,-72.92C80.57,-64.3 106.26,-51.51 125.97,-41.7"/>
<polygon fill="#63b8ff" stroke="#63b8ff" points="127.71,-44.74 135.1,-37.16 124.59,-38.48 127.71,-44.74"/>
</a>
</g>
</g>
<!-- Node5 -->
<g id="Node000005" class="node">
<title>Node5</title>
<g id="a_Node000005"><a xlink:href="blas_8c.html#a2a960e3645ec841778e7b85e7bb96e3d" target="_top" xlink:title=" ">
<polygon fill="white" stroke="#666666" points="284,-130 225,-130 225,-111 284,-111 284,-130"/>
<text text-anchor="middle" x="254.5" y="-118" font-family="Helvetica,sans-Serif" font-size="10.00">gemm_nn</text>
</a>
</g>
</g>
<!-- Node4&#45;&gt;Node5 -->
<g id="edge4_Node000004_Node000005" class="edge">
<title>Node4&#45;&gt;Node5</title>
<g id="a_edge4_Node000004_Node000005"><a xlink:title=" ">
<path fill="none" stroke="#63b8ff" d="M173.4,-74.25C188.42,-82.93 210.6,-95.74 227.82,-105.68"/>
<polygon fill="#63b8ff" stroke="#63b8ff" points="226.39,-108.89 236.8,-110.86 229.89,-102.83 226.39,-108.89"/>
</a>
</g>
</g>
<!-- Node6 -->
<g id="Node000006" class="node">
<title>Node6</title>
<g id="a_Node000006"><a xlink:href="blas_8c.html#aa57c04fbd7b97c802c920578b88b658e" target="_top" xlink:title=" ">
<polygon fill="white" stroke="#666666" points="283,-93 226,-93 226,-74 283,-74 283,-93"/>
<text text-anchor="middle" x="254.5" y="-81" font-family="Helvetica,sans-Serif" font-size="10.00">gemm_nt</text>
</a>
</g>
</g>
<!-- Node4&#45;&gt;Node6 -->
<g id="edge5_Node000004_Node000006" class="edge">
<title>Node4&#45;&gt;Node6</title>
<g id="a_edge5_Node000004_Node000006"><a xlink:title=" ">
<path fill="none" stroke="#63b8ff" d="M189.07,-70.88C197.61,-72.55 206.9,-74.37 215.69,-76.09"/>
<polygon fill="#63b8ff" stroke="#63b8ff" points="215.23,-79.57 225.72,-78.06 216.58,-72.7 215.23,-79.57"/>
</a>
</g>
</g>
<!-- Node7 -->
<g id="Node000007" class="node">
<title>Node7</title>
<g id="a_Node000007"><a xlink:href="blas_8c.html#a515bbd20d69faf17bfdbc9387a83779a" target="_top" xlink:title=" ">
<polygon fill="white" stroke="#666666" points="283,-56 226,-56 226,-37 283,-37 283,-56"/>
<text text-anchor="middle" x="254.5" y="-44" font-family="Helvetica,sans-Serif" font-size="10.00">gemm_tn</text>
</a>
</g>
</g>
<!-- Node4&#45;&gt;Node7 -->
<g id="edge6_Node000004_Node000007" class="edge">
<title>Node4&#45;&gt;Node7</title>
<g id="a_edge6_Node000004_Node000007"><a xlink:title=" ">
<path fill="none" stroke="#63b8ff" d="M189.07,-58.46C197.61,-56.87 206.9,-55.15 215.69,-53.52"/>
<polygon fill="#63b8ff" stroke="#63b8ff" points="216.52,-56.92 225.72,-51.66 215.25,-50.04 216.52,-56.92"/>
</a>
</g>
</g>
<!-- Node8 -->
<g id="Node000008" class="node">
<title>Node8</title>
<g id="a_Node000008"><a xlink:href="blas_8c.html#abd0602933738dc1c44f69f27786bc603" target="_top" xlink:title=" ">
<polygon fill="white" stroke="#666666" points="282,-19 227,-19 227,0 282,0 282,-19"/>
<text text-anchor="middle" x="254.5" y="-7" font-family="Helvetica,sans-Serif" font-size="10.00">gemm_tt</text>
</a>
</g>
</g>
<!-- Node4&#45;&gt;Node8 -->
<g id="edge7_Node000004_Node000008" class="edge">
<title>Node4&#45;&gt;Node8</title>
<g id="a_edge7_Node000004_Node000008"><a xlink:title=" ">
<path fill="none" stroke="#63b8ff" d="M174.07,-54.83C178.91,-52.15 184.17,-49.22 189,-46.5 201.87,-39.25 216.12,-31.09 227.94,-24.28"/>
<polygon fill="#63b8ff" stroke="#63b8ff" points="229.92,-27.18 236.83,-19.15 226.42,-21.11 229.92,-27.18"/>
</a>
</g>
</g>
</g>
</svg>
