<?xml version="1.0" encoding="UTF-8" standalone="no"?>
<!DOCTYPE svg PUBLIC "-//W3C//DTD SVG 1.1//EN"
 "http://www.w3.org/Graphics/SVG/1.1/DTD/svg11.dtd">
<!-- Generated by graphviz version 2.43.0 (0)
 -->
<!-- Title: pybind_wrapper.cpp Pages: 1 -->
<svg width="1329pt" height="252pt"
 viewBox="0.00 0.00 1329.00 252.00" xmlns="http://www.w3.org/2000/svg" xmlns:xlink="http://www.w3.org/1999/xlink">
<g id="graph0" class="graph" transform="scale(1 1) rotate(0) translate(4 248)">
<title>pybind_wrapper.cpp</title>
<!-- Node1 -->
<g id="node1" class="node">
<title>Node1</title>
<g id="a_node1"><a xlink:title="Python library wrapper functions.">
<polygon fill="#bfbfbf" stroke="black" points="656,-224.5 656,-243.5 759,-243.5 759,-224.5 656,-224.5"/>
<text text-anchor="middle" x="707.5" y="-231.5" font-family="Helvetica,sans-Serif" font-size="10.00">pybind_wrapper.cpp</text>
</a>
</g>
</g>
<!-- Node2 -->
<g id="node2" class="node">
<title>Node2</title>
<g id="a_node2"><a xlink:title=" ">
<polygon fill="none" stroke="#bfbfbf" points="0,-168.5 0,-187.5 95,-187.5 95,-168.5 0,-168.5"/>
<text text-anchor="middle" x="47.5" y="-175.5" font-family="Helvetica,sans-Serif" font-size="10.00">pybind11/numpy.h</text>
</a>
</g>
</g>
<!-- Node1&#45;&gt;Node2 -->
<g id="edge1" class="edge">
<title>Node1&#45;&gt;Node2</title>
<path fill="none" stroke="midnightblue" d="M655.74,-230.57C552.91,-225.44 315.42,-212.03 105.04,-187.96"/>
<polygon fill="midnightblue" stroke="midnightblue" points="105.38,-184.48 95.05,-186.81 104.58,-191.43 105.38,-184.48"/>
</g>
<!-- Node3 -->
<g id="node3" class="node">
<title>Node3</title>
<g id="a_node3"><a xlink:title=" ">
<polygon fill="none" stroke="#bfbfbf" points="113.5,-168.5 113.5,-187.5 219.5,-187.5 219.5,-168.5 113.5,-168.5"/>
<text text-anchor="middle" x="166.5" y="-175.5" font-family="Helvetica,sans-Serif" font-size="10.00">pybind11/pybind11.h</text>
</a>
</g>
</g>
<!-- Node1&#45;&gt;Node3 -->
<g id="edge2" class="edge">
<title>Node1&#45;&gt;Node3</title>
<path fill="none" stroke="midnightblue" d="M655.67,-228.99C569.49,-222.14 391.1,-207.16 229.69,-188.09"/>
<polygon fill="midnightblue" stroke="midnightblue" points="229.92,-184.59 219.58,-186.88 229.09,-191.54 229.92,-184.59"/>
</g>
<!-- Node4 -->
<g id="node4" class="node">
<title>Node4</title>
<g id="a_node4"><a xlink:title=" ">
<polygon fill="none" stroke="#bfbfbf" points="238,-168.5 238,-187.5 279,-187.5 279,-168.5 238,-168.5"/>
<text text-anchor="middle" x="258.5" y="-175.5" font-family="Helvetica,sans-Serif" font-size="10.00">string</text>
</a>
</g>
</g>
<!-- Node1&#45;&gt;Node4 -->
<g id="edge3" class="edge">
<title>Node1&#45;&gt;Node4</title>
<path fill="none" stroke="midnightblue" d="M655.75,-230.52C578.03,-226.12 426.51,-214.93 288.91,-187.69"/>
<polygon fill="midnightblue" stroke="midnightblue" points="289.52,-184.25 279.03,-185.7 288.14,-191.11 289.52,-184.25"/>
</g>
<!-- Node5 -->
<g id="node5" class="node">
<title>Node5</title>
<g id="a_node5"><a xlink:title=" ">
<polygon fill="none" stroke="#bfbfbf" points="297.5,-168.5 297.5,-187.5 341.5,-187.5 341.5,-168.5 297.5,-168.5"/>
<text text-anchor="middle" x="319.5" y="-175.5" font-family="Helvetica,sans-Serif" font-size="10.00">vector</text>
</a>
</g>
</g>
<!-- Node1&#45;&gt;Node5 -->
<g id="edge4" class="edge">
<title>Node1&#45;&gt;Node5</title>
<path fill="none" stroke="midnightblue" d="M655.95,-229.06C588.14,-223.32 465.23,-210.96 351.65,-187.95"/>
<polygon fill="midnightblue" stroke="midnightblue" points="352.25,-184.5 341.75,-185.91 350.83,-191.36 352.25,-184.5"/>
</g>
<!-- Node6 -->
<g id="node6" class="node">
<title>Node6</title>
<g id="a_node6"><a xlink:href="action_8h.html" target="_top" xlink:title="Interface for classifier actions.">
<polygon fill="none" stroke="black" points="945,-112.5 945,-131.5 996,-131.5 996,-112.5 945,-112.5"/>
<text text-anchor="middle" x="970.5" y="-119.5" font-family="Helvetica,sans-Serif" font-size="10.00">action.h</text>
</a>
</g>
</g>
<!-- Node1&#45;&gt;Node6 -->
<g id="edge5" class="edge">
<title>Node1&#45;&gt;Node6</title>
<path fill="none" stroke="midnightblue" d="M740.8,-224.47C770.2,-216.49 813.95,-203.48 850.5,-188 885.75,-173.07 924.3,-151.1 947.94,-136.92"/>
<polygon fill="midnightblue" stroke="midnightblue" points="949.79,-139.89 956.53,-131.72 946.16,-133.9 949.79,-139.89"/>
</g>
<!-- Node18 -->
<g id="node18" class="node">
<title>Node18</title>
<g id="a_node18"><a xlink:href="clset_8h.html" target="_top" xlink:title="Functions operating on sets of classifiers.">
<polygon fill="none" stroke="black" points="461.5,-112.5 461.5,-131.5 507.5,-131.5 507.5,-112.5 461.5,-112.5"/>
<text text-anchor="middle" x="484.5" y="-119.5" font-family="Helvetica,sans-Serif" font-size="10.00">clset.h</text>
</a>
</g>
</g>
<!-- Node1&#45;&gt;Node18 -->
<g id="edge17" class="edge">
<title>Node1&#45;&gt;Node18</title>
<path fill="none" stroke="midnightblue" d="M668.6,-224.44C639.66,-217.14 599.75,-205.11 567.5,-188 542.17,-174.56 516.75,-153.22 500.84,-138.69"/>
<polygon fill="midnightblue" stroke="midnightblue" points="503.14,-136.05 493.44,-131.79 498.37,-141.17 503.14,-136.05"/>
</g>
<!-- Node19 -->
<g id="node19" class="node">
<title>Node19</title>
<g id="a_node19"><a xlink:href="clset__neural_8h.html" target="_top" xlink:title="Functions operating on sets of neural classifiers.">
<polygon fill="none" stroke="black" points="526,-112.5 526,-131.5 603,-131.5 603,-112.5 526,-112.5"/>
<text text-anchor="middle" x="564.5" y="-119.5" font-family="Helvetica,sans-Serif" font-size="10.00">clset_neural.h</text>
</a>
</g>
</g>
<!-- Node1&#45;&gt;Node19 -->
<g id="edge19" class="edge">
<title>Node1&#45;&gt;Node19</title>
<path fill="none" stroke="midnightblue" d="M655.93,-225.44C630.96,-219.27 602.38,-208.13 583.5,-188 571.82,-175.55 567.28,-156.32 565.53,-142"/>
<polygon fill="midnightblue" stroke="midnightblue" points="569,-141.45 564.65,-131.79 562.03,-142.05 569,-141.45"/>
</g>
<!-- Node20 -->
<g id="node20" class="node">
<title>Node20</title>
<g id="a_node20"><a xlink:href="condition_8h.html" target="_top" xlink:title="Interface for classifier conditions.">
<polygon fill="none" stroke="black" points="697.5,-112.5 697.5,-131.5 761.5,-131.5 761.5,-112.5 697.5,-112.5"/>
<text text-anchor="middle" x="729.5" y="-119.5" font-family="Helvetica,sans-Serif" font-size="10.00">condition.h</text>
</a>
</g>
</g>
<!-- Node1&#45;&gt;Node20 -->
<g id="edge21" class="edge">
<title>Node1&#45;&gt;Node20</title>
<path fill="none" stroke="midnightblue" d="M725,-224.46C738.29,-216.92 755.58,-204.53 763.5,-188 771.61,-171.07 759.11,-152.09 747.04,-139.03"/>
<polygon fill="midnightblue" stroke="midnightblue" points="749.31,-136.35 739.77,-131.73 744.35,-141.29 749.31,-136.35"/>
</g>
<!-- Node21 -->
<g id="node21" class="node">
<title>Node21</title>
<g id="a_node21"><a xlink:href="dgp_8h.html" target="_top" xlink:title="An implementation of dynamical GP graphs with fuzzy activations.">
<polygon fill="none" stroke="black" points="780,-112.5 780,-131.5 821,-131.5 821,-112.5 780,-112.5"/>
<text text-anchor="middle" x="800.5" y="-119.5" font-family="Helvetica,sans-Serif" font-size="10.00">dgp.h</text>
</a>
</g>
</g>
<!-- Node1&#45;&gt;Node21 -->
<g id="edge23" class="edge">
<title>Node1&#45;&gt;Node21</title>
<path fill="none" stroke="midnightblue" d="M728.27,-224.49C744.09,-217.03 765.33,-204.75 778.5,-188 789.07,-174.55 794.71,-155.73 797.62,-141.81"/>
<polygon fill="midnightblue" stroke="midnightblue" points="801.08,-142.34 799.41,-131.88 794.19,-141.1 801.08,-142.34"/>
</g>
<!-- Node22 -->
<g id="node22" class="node">
<title>Node22</title>
<g id="a_node22"><a xlink:href="ea_8h.html" target="_top" xlink:title="Evolutionary algorithm functions.">
<polygon fill="none" stroke="black" points="839,-112.5 839,-131.5 874,-131.5 874,-112.5 839,-112.5"/>
<text text-anchor="middle" x="856.5" y="-119.5" font-family="Helvetica,sans-Serif" font-size="10.00">ea.h</text>
</a>
</g>
</g>
<!-- Node1&#45;&gt;Node22 -->
<g id="edge25" class="edge">
<title>Node1&#45;&gt;Node22</title>
<path fill="none" stroke="midnightblue" d="M730.27,-224.39C749.31,-216.56 776.62,-203.83 797.5,-188 815.83,-174.1 833.06,-154 844.11,-139.84"/>
<polygon fill="midnightblue" stroke="midnightblue" points="847.17,-141.59 850.43,-131.51 841.59,-137.36 847.17,-141.59"/>
</g>
<!-- Node23 -->
<g id="node23" class="node">
<title>Node23</title>
<g id="a_node23"><a xlink:href="gp_8h.html" target="_top" xlink:title="An implementation of GP trees based upon TinyGP.">
<polygon fill="none" stroke="black" points="892,-112.5 892,-131.5 927,-131.5 927,-112.5 892,-112.5"/>
<text text-anchor="middle" x="909.5" y="-119.5" font-family="Helvetica,sans-Serif" font-size="10.00">gp.h</text>
</a>
</g>
</g>
<!-- Node1&#45;&gt;Node23 -->
<g id="edge27" class="edge">
<title>Node1&#45;&gt;Node23</title>
<path fill="none" stroke="midnightblue" d="M735.12,-224.36C758.79,-216.43 793.4,-203.57 821.5,-188 847.53,-173.57 874.66,-152.46 891.8,-138.24"/>
<polygon fill="midnightblue" stroke="midnightblue" points="894.39,-140.63 899.79,-131.51 889.88,-135.28 894.39,-140.63"/>
</g>
<!-- Node24 -->
<g id="node24" class="node">
<title>Node24</title>
<g id="a_node24"><a xlink:href="neural__activations_8h.html" target="_top" xlink:title="Neural network activation functions.">
<polygon fill="none" stroke="black" points="1215.5,-112.5 1215.5,-131.5 1319.5,-131.5 1319.5,-112.5 1215.5,-112.5"/>
<text text-anchor="middle" x="1267.5" y="-119.5" font-family="Helvetica,sans-Serif" font-size="10.00">neural_activations.h</text>
</a>
</g>
</g>
<!-- Node1&#45;&gt;Node24 -->
<g id="edge29" class="edge">
<title>Node1&#45;&gt;Node24</title>
<path fill="none" stroke="midnightblue" d="M759.04,-231.24C863.71,-227.15 1097.6,-215.19 1172.5,-188 1202.85,-176.98 1232.73,-153.98 1250.64,-138.51"/>
<polygon fill="midnightblue" stroke="midnightblue" points="1253.27,-140.86 1258.43,-131.61 1248.62,-135.63 1253.27,-140.86"/>
</g>
<!-- Node25 -->
<g id="node25" class="node">
<title>Node25</title>
<g id="a_node25"><a xlink:href="neural__layer_8h.html" target="_top" xlink:title="Interface for neural network layers.">
<polygon fill="none" stroke="black" points="1053,-112.5 1053,-131.5 1130,-131.5 1130,-112.5 1053,-112.5"/>
<text text-anchor="middle" x="1091.5" y="-119.5" font-family="Helvetica,sans-Serif" font-size="10.00">neural_layer.h</text>
</a>
</g>
</g>
<!-- Node1&#45;&gt;Node25 -->
<g id="edge31" class="edge">
<title>Node1&#45;&gt;Node25</title>
<path fill="none" stroke="midnightblue" d="M759.04,-230.89C840.73,-226.76 995.52,-215.48 1042.5,-188 1061.11,-177.11 1074.95,-156.12 1083.08,-140.92"/>
<polygon fill="midnightblue" stroke="midnightblue" points="1086.23,-142.45 1087.6,-131.95 1079.98,-139.3 1086.23,-142.45"/>
</g>
<!-- Node28 -->
<g id="node28" class="node">
<title>Node28</title>
<g id="a_node28"><a xlink:href="pa_8h.html" target="_top" xlink:title="Prediction array functions.">
<polygon fill="none" stroke="black" points="998,-168.5 998,-187.5 1033,-187.5 1033,-168.5 998,-168.5"/>
<text text-anchor="middle" x="1015.5" y="-175.5" font-family="Helvetica,sans-Serif" font-size="10.00">pa.h</text>
</a>
</g>
</g>
<!-- Node1&#45;&gt;Node28 -->
<g id="edge39" class="edge">
<title>Node1&#45;&gt;Node28</title>
<path fill="none" stroke="midnightblue" d="M759.11,-224.95C812.79,-216.42 899.21,-202.24 973.5,-188 978.16,-187.11 983.09,-186.1 987.88,-185.1"/>
<polygon fill="midnightblue" stroke="midnightblue" points="988.92,-188.45 997.96,-182.94 987.45,-181.61 988.92,-188.45"/>
</g>
<!-- Node29 -->
<g id="node29" class="node">
<title>Node29</title>
<g id="a_node29"><a xlink:href="param_8h.html" target="_top" xlink:title="Functions for setting and printing parameters.">
<polygon fill="none" stroke="black" points="359.5,-168.5 359.5,-187.5 411.5,-187.5 411.5,-168.5 359.5,-168.5"/>
<text text-anchor="middle" x="385.5" y="-175.5" font-family="Helvetica,sans-Serif" font-size="10.00">param.h</text>
</a>
</g>
</g>
<!-- Node1&#45;&gt;Node29 -->
<g id="edge41" class="edge">
<title>Node1&#45;&gt;Node29</title>
<path fill="none" stroke="midnightblue" d="M655.85,-226.28C600.46,-218.76 509.75,-205.54 421.68,-187.86"/>
<polygon fill="midnightblue" stroke="midnightblue" points="422.28,-184.42 411.78,-185.86 420.89,-191.28 422.28,-184.42"/>
</g>
<!-- Node31 -->
<g id="node31" class="node">
<title>Node31</title>
<g id="a_node31"><a xlink:href="prediction_8h.html" target="_top" xlink:title="Interface for classifier predictions.">
<polygon fill="none" stroke="black" points="430,-168.5 430,-187.5 497,-187.5 497,-168.5 430,-168.5"/>
<text text-anchor="middle" x="463.5" y="-175.5" font-family="Helvetica,sans-Serif" font-size="10.00">prediction.h</text>
</a>
</g>
</g>
<!-- Node1&#45;&gt;Node31 -->
<g id="edge45" class="edge">
<title>Node1&#45;&gt;Node31</title>
<path fill="none" stroke="midnightblue" d="M668.84,-224.44C624.86,-214.71 553.22,-198.86 507.24,-188.68"/>
<polygon fill="midnightblue" stroke="midnightblue" points="507.79,-185.22 497.27,-186.47 506.27,-192.05 507.79,-185.22"/>
</g>
<!-- Node32 -->
<g id="node32" class="node">
<title>Node32</title>
<g id="a_node32"><a xlink:href="utils_8h.html" target="_top" xlink:title="Utility functions for random number handling, etc.">
<polygon fill="none" stroke="black" points="1137,-56.5 1137,-75.5 1180,-75.5 1180,-56.5 1137,-56.5"/>
<text text-anchor="middle" x="1158.5" y="-63.5" font-family="Helvetica,sans-Serif" font-size="10.00">utils.h</text>
</a>
</g>
</g>
<!-- Node1&#45;&gt;Node32 -->
<g id="edge47" class="edge">
<title>Node1&#45;&gt;Node32</title>
<path fill="none" stroke="midnightblue" d="M759.15,-229.86C844.76,-224.11 1012.02,-210.36 1066.5,-188 1104.33,-172.47 1116.4,-165.74 1139.5,-132 1148.94,-118.21 1153.76,-99.68 1156.17,-85.94"/>
<polygon fill="midnightblue" stroke="midnightblue" points="1159.68,-86.13 1157.69,-75.73 1152.76,-85.11 1159.68,-86.13"/>
</g>
<!-- Node35 -->
<g id="node35" class="node">
<title>Node35</title>
<g id="a_node35"><a xlink:href="xcs__rl_8h.html" target="_top" xlink:title="Reinforcement learning functions.">
<polygon fill="none" stroke="black" points="592,-168.5 592,-187.5 643,-187.5 643,-168.5 592,-168.5"/>
<text text-anchor="middle" x="617.5" y="-175.5" font-family="Helvetica,sans-Serif" font-size="10.00">xcs_rl.h</text>
</a>
</g>
</g>
<!-- Node1&#45;&gt;Node35 -->
<g id="edge53" class="edge">
<title>Node1&#45;&gt;Node35</title>
<path fill="none" stroke="midnightblue" d="M693.04,-224.32C679,-215.9 657.45,-202.97 640.96,-193.07"/>
<polygon fill="midnightblue" stroke="midnightblue" points="642.3,-189.8 631.92,-187.65 638.7,-195.8 642.3,-189.8"/>
</g>
<!-- Node36 -->
<g id="node36" class="node">
<title>Node36</title>
<g id="a_node36"><a xlink:href="xcs__supervised_8h.html" target="_top" xlink:title="Supervised regression learning functions.">
<polygon fill="none" stroke="black" points="661,-168.5 661,-187.5 754,-187.5 754,-168.5 661,-168.5"/>
<text text-anchor="middle" x="707.5" y="-175.5" font-family="Helvetica,sans-Serif" font-size="10.00">xcs_supervised.h</text>
</a>
</g>
</g>
<!-- Node1&#45;&gt;Node36 -->
<g id="edge55" class="edge">
<title>Node1&#45;&gt;Node36</title>
<path fill="none" stroke="midnightblue" d="M707.5,-224.08C707.5,-217.01 707.5,-206.86 707.5,-197.99"/>
<polygon fill="midnightblue" stroke="midnightblue" points="711,-197.75 707.5,-187.75 704,-197.75 711,-197.75"/>
</g>
<!-- Node7 -->
<g id="node7" class="node">
<title>Node7</title>
<g id="a_node7"><a xlink:href="xcsf_8h.html" target="_top" xlink:title="XCSF data structures.">
<polygon fill="none" stroke="black" points="677.5,-56.5 677.5,-75.5 721.5,-75.5 721.5,-56.5 677.5,-56.5"/>
<text text-anchor="middle" x="699.5" y="-63.5" font-family="Helvetica,sans-Serif" font-size="10.00">xcsf.h</text>
</a>
</g>
</g>
<!-- Node6&#45;&gt;Node7 -->
<g id="edge6" class="edge">
<title>Node6&#45;&gt;Node7</title>
<path fill="none" stroke="midnightblue" d="M944.93,-114.02C942.09,-113.31 939.24,-112.62 936.5,-112 863.75,-95.49 777.5,-80.17 731.75,-72.37"/>
<polygon fill="midnightblue" stroke="midnightblue" points="732.27,-68.91 721.83,-70.69 731.1,-75.81 732.27,-68.91"/>
</g>
<!-- Node8 -->
<g id="node8" class="node">
<title>Node8</title>
<g id="a_node8"><a xlink:title=" ">
<polygon fill="none" stroke="#bfbfbf" points="400,-0.5 400,-19.5 447,-19.5 447,-0.5 400,-0.5"/>
<text text-anchor="middle" x="423.5" y="-7.5" font-family="Helvetica,sans-Serif" font-size="10.00">errno.h</text>
</a>
</g>
</g>
<!-- Node7&#45;&gt;Node8 -->
<g id="edge7" class="edge">
<title>Node7&#45;&gt;Node8</title>
<path fill="none" stroke="midnightblue" d="M677.26,-61.52C635.9,-54.91 544.17,-39.61 457.01,-19.95"/>
<polygon fill="midnightblue" stroke="midnightblue" points="457.76,-16.54 447.23,-17.73 456.21,-23.36 457.76,-16.54"/>
</g>
<!-- Node9 -->
<g id="node9" class="node">
<title>Node9</title>
<g id="a_node9"><a xlink:title=" ">
<polygon fill="none" stroke="#bfbfbf" points="465.5,-0.5 465.5,-19.5 509.5,-19.5 509.5,-0.5 465.5,-0.5"/>
<text text-anchor="middle" x="487.5" y="-7.5" font-family="Helvetica,sans-Serif" font-size="10.00">float.h</text>
</a>
</g>
</g>
<!-- Node7&#45;&gt;Node9 -->
<g id="edge8" class="edge">
<title>Node7&#45;&gt;Node9</title>
<path fill="none" stroke="midnightblue" d="M677.28,-59.67C643.24,-51.44 576.16,-35.05 519.5,-20 519.4,-19.97 519.3,-19.95 519.2,-19.92"/>
<polygon fill="midnightblue" stroke="midnightblue" points="520.08,-16.53 509.51,-17.28 518.24,-23.29 520.08,-16.53"/>
</g>
<!-- Node10 -->
<g id="node10" class="node">
<title>Node10</title>
<g id="a_node10"><a xlink:title=" ">
<polygon fill="none" stroke="#bfbfbf" points="528,-0.5 528,-19.5 587,-19.5 587,-0.5 528,-0.5"/>
<text text-anchor="middle" x="557.5" y="-7.5" font-family="Helvetica,sans-Serif" font-size="10.00">inttypes.h</text>
</a>
</g>
</g>
<!-- Node7&#45;&gt;Node10 -->
<g id="edge9" class="edge">
<title>Node7&#45;&gt;Node10</title>
<path fill="none" stroke="midnightblue" d="M677.31,-56.56C653.8,-47.62 616.43,-33.41 589.68,-23.24"/>
<polygon fill="midnightblue" stroke="midnightblue" points="590.59,-19.84 580,-19.56 588.1,-26.38 590.59,-19.84"/>
</g>
<!-- Node11 -->
<g id="node11" class="node">
<title>Node11</title>
<g id="a_node11"><a xlink:title=" ">
<polygon fill="none" stroke="#bfbfbf" points="605.5,-0.5 605.5,-19.5 653.5,-19.5 653.5,-0.5 605.5,-0.5"/>
<text text-anchor="middle" x="629.5" y="-7.5" font-family="Helvetica,sans-Serif" font-size="10.00">limits.h</text>
</a>
</g>
</g>
<!-- Node7&#45;&gt;Node11 -->
<g id="edge10" class="edge">
<title>Node7&#45;&gt;Node11</title>
<path fill="none" stroke="midnightblue" d="M688.25,-56.32C677.7,-48.18 661.7,-35.84 649.06,-26.09"/>
<polygon fill="midnightblue" stroke="midnightblue" points="651.01,-23.17 640.95,-19.83 646.73,-28.71 651.01,-23.17"/>
</g>
<!-- Node12 -->
<g id="node12" class="node">
<title>Node12</title>
<g id="a_node12"><a xlink:title=" ">
<polygon fill="none" stroke="#bfbfbf" points="1274,-0.5 1274,-19.5 1321,-19.5 1321,-0.5 1274,-0.5"/>
<text text-anchor="middle" x="1297.5" y="-7.5" font-family="Helvetica,sans-Serif" font-size="10.00">math.h</text>
</a>
</g>
</g>
<!-- Node7&#45;&gt;Node12 -->
<g id="edge11" class="edge">
<title>Node7&#45;&gt;Node12</title>
<path fill="none" stroke="midnightblue" d="M721.6,-63.5C815.15,-57.11 1177.35,-32.04 1263.74,-19.81"/>
<polygon fill="midnightblue" stroke="midnightblue" points="1264.52,-23.23 1273.85,-18.2 1263.43,-16.31 1264.52,-23.23"/>
</g>
<!-- Node13 -->
<g id="node13" class="node">
<title>Node13</title>
<g id="a_node13"><a xlink:title=" ">
<polygon fill="none" stroke="#bfbfbf" points="671.5,-0.5 671.5,-19.5 727.5,-19.5 727.5,-0.5 671.5,-0.5"/>
<text text-anchor="middle" x="699.5" y="-7.5" font-family="Helvetica,sans-Serif" font-size="10.00">stdbool.h</text>
</a>
</g>
</g>
<!-- Node7&#45;&gt;Node13 -->
<g id="edge12" class="edge">
<title>Node7&#45;&gt;Node13</title>
<path fill="none" stroke="midnightblue" d="M699.5,-56.08C699.5,-49.01 699.5,-38.86 699.5,-29.99"/>
<polygon fill="midnightblue" stroke="midnightblue" points="703,-29.75 699.5,-19.75 696,-29.75 703,-29.75"/>
</g>
<!-- Node14 -->
<g id="node14" class="node">
<title>Node14</title>
<g id="a_node14"><a xlink:title=" ">
<polygon fill="none" stroke="#bfbfbf" points="746,-0.5 746,-19.5 795,-19.5 795,-0.5 746,-0.5"/>
<text text-anchor="middle" x="770.5" y="-7.5" font-family="Helvetica,sans-Serif" font-size="10.00">stdint.h</text>
</a>
</g>
</g>
<!-- Node7&#45;&gt;Node14 -->
<g id="edge13" class="edge">
<title>Node7&#45;&gt;Node14</title>
<path fill="none" stroke="midnightblue" d="M710.91,-56.32C721.61,-48.18 737.84,-35.84 750.66,-26.09"/>
<polygon fill="midnightblue" stroke="midnightblue" points="753.04,-28.67 758.89,-19.83 748.81,-23.1 753.04,-28.67"/>
</g>
<!-- Node15 -->
<g id="node15" class="node">
<title>Node15</title>
<g id="a_node15"><a xlink:title=" ">
<polygon fill="none" stroke="#bfbfbf" points="880.5,-0.5 880.5,-19.5 926.5,-19.5 926.5,-0.5 880.5,-0.5"/>
<text text-anchor="middle" x="903.5" y="-7.5" font-family="Helvetica,sans-Serif" font-size="10.00">stdio.h</text>
</a>
</g>
</g>
<!-- Node7&#45;&gt;Node15 -->
<g id="edge14" class="edge">
<title>Node7&#45;&gt;Node15</title>
<path fill="none" stroke="midnightblue" d="M721.53,-59.37C752.55,-51.42 811.12,-36.3 870.52,-20.23"/>
<polygon fill="midnightblue" stroke="midnightblue" points="871.71,-23.54 880.44,-17.54 869.87,-16.78 871.71,-23.54"/>
</g>
<!-- Node16 -->
<g id="node16" class="node">
<title>Node16</title>
<g id="a_node16"><a xlink:title=" ">
<polygon fill="none" stroke="#bfbfbf" points="944.5,-0.5 944.5,-19.5 992.5,-19.5 992.5,-0.5 944.5,-0.5"/>
<text text-anchor="middle" x="968.5" y="-7.5" font-family="Helvetica,sans-Serif" font-size="10.00">stdlib.h</text>
</a>
</g>
</g>
<!-- Node7&#45;&gt;Node16 -->
<g id="edge15" class="edge">
<title>Node7&#45;&gt;Node16</title>
<path fill="none" stroke="midnightblue" d="M721.75,-61.35C762.14,-54.6 850.41,-39.28 934.45,-20.1"/>
<polygon fill="midnightblue" stroke="midnightblue" points="935.45,-23.46 944.4,-17.8 933.87,-16.64 935.45,-23.46"/>
</g>
<!-- Node17 -->
<g id="node17" class="node">
<title>Node17</title>
<g id="a_node17"><a xlink:title=" ">
<polygon fill="none" stroke="#bfbfbf" points="813,-0.5 813,-19.5 862,-19.5 862,-0.5 813,-0.5"/>
<text text-anchor="middle" x="837.5" y="-7.5" font-family="Helvetica,sans-Serif" font-size="10.00">string.h</text>
</a>
</g>
</g>
<!-- Node7&#45;&gt;Node17 -->
<g id="edge16" class="edge">
<title>Node7&#45;&gt;Node17</title>
<path fill="none" stroke="midnightblue" d="M721.37,-56.44C744.28,-47.48 780.48,-33.31 806.37,-23.18"/>
<polygon fill="midnightblue" stroke="midnightblue" points="807.7,-26.42 815.74,-19.52 805.15,-19.9 807.7,-26.42"/>
</g>
<!-- Node18&#45;&gt;Node7 -->
<g id="edge18" class="edge">
<title>Node18&#45;&gt;Node7</title>
<path fill="none" stroke="midnightblue" d="M507.56,-114.64C510.89,-113.74 514.28,-112.84 517.5,-112 569.83,-98.4 630.87,-83.5 667.29,-74.72"/>
<polygon fill="midnightblue" stroke="midnightblue" points="668.42,-78.05 677.32,-72.3 666.78,-71.24 668.42,-78.05"/>
</g>
<!-- Node19&#45;&gt;Node7 -->
<g id="edge20" class="edge">
<title>Node19&#45;&gt;Node7</title>
<path fill="none" stroke="midnightblue" d="M585.89,-112.44C608.21,-103.52 643.4,-89.44 668.71,-79.32"/>
<polygon fill="midnightblue" stroke="midnightblue" points="670.22,-82.48 678.21,-75.52 667.62,-75.98 670.22,-82.48"/>
</g>
<!-- Node20&#45;&gt;Node7 -->
<g id="edge22" class="edge">
<title>Node20&#45;&gt;Node7</title>
<path fill="none" stroke="midnightblue" d="M724.55,-112.08C720.4,-104.61 714.35,-93.72 709.23,-84.52"/>
<polygon fill="midnightblue" stroke="midnightblue" points="712.28,-82.79 704.36,-75.75 706.16,-86.19 712.28,-82.79"/>
</g>
<!-- Node21&#45;&gt;Node7 -->
<g id="edge24" class="edge">
<title>Node21&#45;&gt;Node7</title>
<path fill="none" stroke="midnightblue" d="M784.27,-112.32C768.15,-103.7 743.2,-90.36 724.54,-80.39"/>
<polygon fill="midnightblue" stroke="midnightblue" points="726.16,-77.28 715.69,-75.65 722.86,-83.46 726.16,-77.28"/>
</g>
<!-- Node22&#45;&gt;Node7 -->
<g id="edge26" class="edge">
<title>Node22&#45;&gt;Node7</title>
<path fill="none" stroke="midnightblue" d="M838.88,-114.89C836.08,-113.93 833.21,-112.93 830.5,-112 796.63,-100.32 757.82,-87 731.29,-77.9"/>
<polygon fill="midnightblue" stroke="midnightblue" points="732.35,-74.56 721.76,-74.63 730.08,-81.18 732.35,-74.56"/>
</g>
<!-- Node23&#45;&gt;Node7 -->
<g id="edge28" class="edge">
<title>Node23&#45;&gt;Node7</title>
<path fill="none" stroke="midnightblue" d="M891.95,-114.68C889.14,-113.73 886.25,-112.81 883.5,-112 830.96,-96.52 768.9,-82.13 731.95,-73.97"/>
<polygon fill="midnightblue" stroke="midnightblue" points="732.29,-70.46 721.77,-71.74 730.79,-77.3 732.29,-70.46"/>
</g>
<!-- Node24&#45;&gt;Node12 -->
<g id="edge30" class="edge">
<title>Node24&#45;&gt;Node12</title>
<path fill="none" stroke="midnightblue" d="M1269.85,-112.37C1274.72,-94.54 1285.96,-53.3 1292.52,-29.27"/>
<polygon fill="midnightblue" stroke="midnightblue" points="1295.9,-30.16 1295.16,-19.59 1289.15,-28.32 1295.9,-30.16"/>
</g>
<!-- Node26 -->
<g id="node26" class="node">
<title>Node26</title>
<g id="a_node26"><a xlink:href="neural_8h.html" target="_top" xlink:title="An implementation of a multi&#45;layer perceptron neural network.">
<polygon fill="none" stroke="black" points="845,-56.5 845,-75.5 896,-75.5 896,-56.5 845,-56.5"/>
<text text-anchor="middle" x="870.5" y="-63.5" font-family="Helvetica,sans-Serif" font-size="10.00">neural.h</text>
</a>
</g>
</g>
<!-- Node25&#45;&gt;Node26 -->
<g id="edge32" class="edge">
<title>Node25&#45;&gt;Node26</title>
<path fill="none" stroke="midnightblue" d="M1056.48,-112.44C1015.3,-102.38 947.34,-85.77 905.97,-75.67"/>
<polygon fill="midnightblue" stroke="midnightblue" points="906.6,-72.22 896.05,-73.24 904.94,-79.02 906.6,-72.22"/>
</g>
<!-- Node27 -->
<g id="node27" class="node">
<title>Node27</title>
<g id="a_node27"><a xlink:href="neural__layer__args_8h.html" target="_top" xlink:title="Functions operating on neural network arguments/constants.">
<polygon fill="none" stroke="black" points="1018,-56.5 1018,-75.5 1119,-75.5 1119,-56.5 1018,-56.5"/>
<text text-anchor="middle" x="1068.5" y="-63.5" font-family="Helvetica,sans-Serif" font-size="10.00">neural_layer_args.h</text>
</a>
</g>
</g>
<!-- Node25&#45;&gt;Node27 -->
<g id="edge38" class="edge">
<title>Node25&#45;&gt;Node27</title>
<path fill="none" stroke="midnightblue" d="M1087.7,-112.08C1084.59,-104.77 1080.08,-94.18 1076.21,-85.1"/>
<polygon fill="midnightblue" stroke="midnightblue" points="1079.37,-83.58 1072.23,-75.75 1072.93,-86.32 1079.37,-83.58"/>
</g>
<!-- Node26&#45;&gt;Node13 -->
<g id="edge33" class="edge">
<title>Node26&#45;&gt;Node13</title>
<path fill="none" stroke="midnightblue" d="M844.9,-56.92C816.11,-47.82 769.1,-32.98 736.36,-22.64"/>
<polygon fill="midnightblue" stroke="midnightblue" points="737.28,-19.26 726.69,-19.59 735.17,-25.94 737.28,-19.26"/>
</g>
<!-- Node26&#45;&gt;Node14 -->
<g id="edge34" class="edge">
<title>Node26&#45;&gt;Node14</title>
<path fill="none" stroke="midnightblue" d="M854.43,-56.32C838.54,-47.74 813.99,-34.49 795.54,-24.52"/>
<polygon fill="midnightblue" stroke="midnightblue" points="796.99,-21.33 786.53,-19.65 793.66,-27.49 796.99,-21.33"/>
</g>
<!-- Node26&#45;&gt;Node15 -->
<g id="edge35" class="edge">
<title>Node26&#45;&gt;Node15</title>
<path fill="none" stroke="midnightblue" d="M875.95,-56.08C880.51,-48.61 887.17,-37.72 892.79,-28.52"/>
<polygon fill="midnightblue" stroke="midnightblue" points="895.92,-30.11 898.15,-19.75 889.95,-26.46 895.92,-30.11"/>
</g>
<!-- Node26&#45;&gt;Node16 -->
<g id="edge36" class="edge">
<title>Node26&#45;&gt;Node16</title>
<path fill="none" stroke="midnightblue" d="M886.25,-56.32C901.82,-47.74 925.88,-34.49 943.96,-24.52"/>
<polygon fill="midnightblue" stroke="midnightblue" points="945.72,-27.55 952.79,-19.65 942.35,-21.42 945.72,-27.55"/>
</g>
<!-- Node26&#45;&gt;Node17 -->
<g id="edge37" class="edge">
<title>Node26&#45;&gt;Node17</title>
<path fill="none" stroke="midnightblue" d="M865.05,-56.08C860.49,-48.61 853.83,-37.72 848.21,-28.52"/>
<polygon fill="midnightblue" stroke="midnightblue" points="851.05,-26.46 842.85,-19.75 845.08,-30.11 851.05,-26.46"/>
</g>
<!-- Node28&#45;&gt;Node7 -->
<g id="edge40" class="edge">
<title>Node28&#45;&gt;Node7</title>
<path fill="none" stroke="midnightblue" d="M1017.05,-168.44C1019.02,-154.5 1020.57,-126.97 1005.5,-112 986.26,-92.88 806.75,-75.91 731.96,-69.61"/>
<polygon fill="midnightblue" stroke="midnightblue" points="731.98,-66.09 721.72,-68.75 731.4,-73.07 731.98,-66.09"/>
</g>
<!-- Node29&#45;&gt;Node7 -->
<g id="edge44" class="edge">
<title>Node29&#45;&gt;Node7</title>
<path fill="none" stroke="midnightblue" d="M375.24,-168.16C360.94,-154.8 338.39,-129.2 353.5,-112 374.08,-88.56 585.53,-73.71 667.38,-68.8"/>
<polygon fill="midnightblue" stroke="midnightblue" points="667.59,-72.29 677.37,-68.21 667.18,-65.3 667.59,-72.29"/>
</g>
<!-- Node30 -->
<g id="node30" class="node">
<title>Node30</title>
<g id="a_node30"><a xlink:href="loss_8h.html" target="_top" xlink:title="Loss functions for calculating prediction error.">
<polygon fill="none" stroke="black" points="362,-112.5 362,-131.5 405,-131.5 405,-112.5 362,-112.5"/>
<text text-anchor="middle" x="383.5" y="-119.5" font-family="Helvetica,sans-Serif" font-size="10.00">loss.h</text>
</a>
</g>
</g>
<!-- Node29&#45;&gt;Node30 -->
<g id="edge42" class="edge">
<title>Node29&#45;&gt;Node30</title>
<path fill="none" stroke="midnightblue" d="M385.17,-168.08C384.91,-161.01 384.53,-150.86 384.2,-141.99"/>
<polygon fill="midnightblue" stroke="midnightblue" points="387.69,-141.61 383.82,-131.75 380.7,-141.87 387.69,-141.61"/>
</g>
<!-- Node30&#45;&gt;Node7 -->
<g id="edge43" class="edge">
<title>Node30&#45;&gt;Node7</title>
<path fill="none" stroke="midnightblue" d="M405.13,-115.27C409.85,-114.11 414.83,-112.96 419.5,-112 508.62,-93.73 614.96,-78.39 667.23,-71.27"/>
<polygon fill="midnightblue" stroke="midnightblue" points="667.8,-74.73 677.24,-69.92 666.86,-67.79 667.8,-74.73"/>
</g>
<!-- Node31&#45;&gt;Node7 -->
<g id="edge46" class="edge">
<title>Node31&#45;&gt;Node7</title>
<path fill="none" stroke="midnightblue" d="M458.18,-168.3C450.59,-154.68 439.01,-128.17 452.5,-112 479.5,-79.64 606.66,-70.49 667.25,-67.95"/>
<polygon fill="midnightblue" stroke="midnightblue" points="667.55,-71.44 677.4,-67.56 667.28,-64.45 667.55,-71.44"/>
</g>
<!-- Node32&#45;&gt;Node12 -->
<g id="edge50" class="edge">
<title>Node32&#45;&gt;Node12</title>
<path fill="none" stroke="midnightblue" d="M1180.22,-56.56C1203.24,-47.62 1239.81,-33.41 1266,-23.24"/>
<polygon fill="midnightblue" stroke="midnightblue" points="1267.42,-26.44 1275.48,-19.56 1264.89,-19.92 1267.42,-26.44"/>
</g>
<!-- Node32&#45;&gt;Node15 -->
<g id="edge51" class="edge">
<title>Node32&#45;&gt;Node15</title>
<path fill="none" stroke="midnightblue" d="M1136.95,-58.23C1134.12,-57.43 1131.25,-56.67 1128.5,-56 1046.77,-36.18 1022.23,-39.55 936.42,-20.03"/>
<polygon fill="midnightblue" stroke="midnightblue" points="937.04,-16.58 926.51,-17.74 935.46,-23.4 937.04,-16.58"/>
</g>
<!-- Node32&#45;&gt;Node16 -->
<g id="edge52" class="edge">
<title>Node32&#45;&gt;Node16</title>
<path fill="none" stroke="midnightblue" d="M1136.88,-58.47C1134.07,-57.63 1131.22,-56.79 1128.5,-56 1085.12,-43.39 1034.96,-29.38 1002.53,-20.39"/>
<polygon fill="midnightblue" stroke="midnightblue" points="1003.23,-16.95 992.66,-17.66 1001.37,-23.7 1003.23,-16.95"/>
</g>
<!-- Node33 -->
<g id="node33" class="node">
<title>Node33</title>
<g id="a_node33"><a xlink:title=" ">
<polygon fill="none" stroke="#bfbfbf" points="1010.5,-0.5 1010.5,-19.5 1124.5,-19.5 1124.5,-0.5 1010.5,-0.5"/>
<text text-anchor="middle" x="1067.5" y="-7.5" font-family="Helvetica,sans-Serif" font-size="10.00">../lib/cJSON/cJSON.h</text>
</a>
</g>
</g>
<!-- Node32&#45;&gt;Node33 -->
<g id="edge48" class="edge">
<title>Node32&#45;&gt;Node33</title>
<path fill="none" stroke="midnightblue" d="M1143.88,-56.32C1129.55,-47.82 1107.49,-34.73 1090.75,-24.8"/>
<polygon fill="midnightblue" stroke="midnightblue" points="1092.47,-21.75 1082.08,-19.65 1088.9,-27.77 1092.47,-21.75"/>
</g>
<!-- Node34 -->
<g id="node34" class="node">
<title>Node34</title>
<g id="a_node34"><a xlink:title=" ">
<polygon fill="none" stroke="#bfbfbf" points="1143,-0.5 1143,-19.5 1256,-19.5 1256,-0.5 1143,-0.5"/>
<text text-anchor="middle" x="1199.5" y="-7.5" font-family="Helvetica,sans-Serif" font-size="10.00">../lib/dSFMT/dSFMT.h</text>
</a>
</g>
</g>
<!-- Node32&#45;&gt;Node34 -->
<g id="edge49" class="edge">
<title>Node32&#45;&gt;Node34</title>
<path fill="none" stroke="midnightblue" d="M1165.27,-56.08C1171.06,-48.46 1179.56,-37.26 1186.64,-27.94"/>
<polygon fill="midnightblue" stroke="midnightblue" points="1189.6,-29.83 1192.86,-19.75 1184.02,-25.6 1189.6,-29.83"/>
</g>
<!-- Node35&#45;&gt;Node7 -->
<g id="edge54" class="edge">
<title>Node35&#45;&gt;Node7</title>
<path fill="none" stroke="midnightblue" d="M623.93,-168.37C637.53,-150.14 669.36,-107.43 687.07,-83.68"/>
<polygon fill="midnightblue" stroke="midnightblue" points="689.92,-85.7 693.1,-75.59 684.31,-81.52 689.92,-85.7"/>
</g>
<!-- Node36&#45;&gt;Node7 -->
<g id="edge56" class="edge">
<title>Node36&#45;&gt;Node7</title>
<path fill="none" stroke="midnightblue" d="M702.62,-168.37C697.94,-159.55 691.19,-145.3 688.5,-132 685.34,-116.4 688.86,-98.57 692.73,-85.53"/>
<polygon fill="midnightblue" stroke="midnightblue" points="696.11,-86.46 695.93,-75.86 689.47,-84.26 696.11,-86.46"/>
</g>
</g>
</svg>
