<?xml version="1.0" encoding="UTF-8" standalone="no"?>
<!DOCTYPE svg PUBLIC "-//W3C//DTD SVG 1.1//EN"
 "http://www.w3.org/Graphics/SVG/1.1/DTD/svg11.dtd">
<!-- Generated by graphviz version 2.43.0 (0)
 -->
<!-- Title: rule_dgp_act_compute Pages: 1 -->
<svg width="232pt" height="66pt"
 viewBox="0.00 0.00 232.00 66.00" xmlns="http://www.w3.org/2000/svg" xmlns:xlink="http://www.w3.org/1999/xlink">
<g id="graph0" class="graph" transform="scale(1 1) rotate(0) translate(4 62)">
<title>rule_dgp_act_compute</title>
<!-- Node1 -->
<g id="node1" class="node">
<title>Node1</title>
<g id="a_node1"><a xlink:title=" ">
<polygon fill="#bfbfbf" stroke="black" points="0,-19.5 0,-38.5 115,-38.5 115,-19.5 0,-19.5"/>
<text text-anchor="middle" x="57.5" y="-26.5" font-family="Helvetica,sans-Serif" font-size="10.00">rule_dgp_act_compute</text>
</a>
</g>
</g>
<!-- Node2 -->
<g id="node2" class="node">
<title>Node2</title>
<g id="a_node2"><a xlink:href="dgp_8c.html#a0f6be29465b8687eb5364d3378755914" target="_top" xlink:title="Returns the current state of a specified node in the graph.">
<polygon fill="none" stroke="black" points="151,-38.5 151,-57.5 224,-57.5 224,-38.5 151,-38.5"/>
<text text-anchor="middle" x="187.5" y="-45.5" font-family="Helvetica,sans-Serif" font-size="10.00">graph_output</text>
</a>
</g>
</g>
<!-- Node1&#45;&gt;Node2 -->
<g id="edge1" class="edge">
<title>Node1&#45;&gt;Node2</title>
<path fill="none" stroke="midnightblue" d="M115.02,-37.39C123.68,-38.68 132.53,-39.99 140.92,-41.23"/>
<polygon fill="midnightblue" stroke="midnightblue" points="140.48,-44.71 150.88,-42.71 141.5,-37.78 140.48,-44.71"/>
</g>
<!-- Node3 -->
<g id="node3" class="node">
<title>Node3</title>
<g id="a_node3"><a xlink:href="utils_8h.html#a6bdbacb8609e7daaffa9f38008f4b4a1" target="_top" xlink:title="Returns an integer clamped within the specified range.">
<polygon fill="none" stroke="black" points="165,-0.5 165,-19.5 210,-19.5 210,-0.5 165,-0.5"/>
<text text-anchor="middle" x="187.5" y="-7.5" font-family="Helvetica,sans-Serif" font-size="10.00">iclamp</text>
</a>
</g>
</g>
<!-- Node1&#45;&gt;Node3 -->
<g id="edge2" class="edge">
<title>Node1&#45;&gt;Node3</title>
<path fill="none" stroke="midnightblue" d="M115.02,-20.61C128.69,-18.58 142.83,-16.48 154.88,-14.69"/>
<polygon fill="midnightblue" stroke="midnightblue" points="155.5,-18.14 164.88,-13.21 154.47,-11.22 155.5,-18.14"/>
</g>
</g>
</svg>
