<?xml version="1.0" encoding="UTF-8" standalone="no"?>
<!DOCTYPE svg PUBLIC "-//W3C//DTD SVG 1.1//EN"
 "http://www.w3.org/Graphics/SVG/1.1/DTD/svg11.dtd">
<!-- Generated by graphviz version 2.43.0 (0)
 -->
<!-- Title: rule_neural.h Pages: 1 -->
<svg width="745pt" height="252pt"
 viewBox="0.00 0.00 745.00 252.00" xmlns="http://www.w3.org/2000/svg" xmlns:xlink="http://www.w3.org/1999/xlink">
<g id="graph0" class="graph" transform="scale(1 1) rotate(0) translate(4 248)">
<title>rule_neural.h</title>
<!-- Node1 -->
<g id="node1" class="node">
<title>Node1</title>
<g id="a_node1"><a xlink:title="Neural network rule (condition + action) functions.">
<polygon fill="#bfbfbf" stroke="black" points="298,-224.5 298,-243.5 370,-243.5 370,-224.5 298,-224.5"/>
<text text-anchor="middle" x="334" y="-231.5" font-family="Helvetica,sans-Serif" font-size="10.00">rule_neural.h</text>
</a>
</g>
</g>
<!-- Node2 -->
<g id="node2" class="node">
<title>Node2</title>
<g id="a_node2"><a xlink:href="action_8h.html" target="_top" xlink:title="Interface for classifier actions.">
<polygon fill="none" stroke="black" points="335.5,-168.5 335.5,-187.5 386.5,-187.5 386.5,-168.5 335.5,-168.5"/>
<text text-anchor="middle" x="361" y="-175.5" font-family="Helvetica,sans-Serif" font-size="10.00">action.h</text>
</a>
</g>
</g>
<!-- Node1&#45;&gt;Node2 -->
<g id="edge1" class="edge">
<title>Node1&#45;&gt;Node2</title>
<path fill="none" stroke="midnightblue" d="M338.46,-224.08C342.15,-216.69 347.52,-205.95 352.09,-196.81"/>
<polygon fill="midnightblue" stroke="midnightblue" points="355.28,-198.26 356.62,-187.75 349.02,-195.13 355.28,-198.26"/>
</g>
<!-- Node3 -->
<g id="node3" class="node">
<title>Node3</title>
<g id="a_node3"><a xlink:href="xcsf_8h.html" target="_top" xlink:title="XCSF data structures.">
<polygon fill="none" stroke="black" points="351,-112.5 351,-131.5 395,-131.5 395,-112.5 351,-112.5"/>
<text text-anchor="middle" x="373" y="-119.5" font-family="Helvetica,sans-Serif" font-size="10.00">xcsf.h</text>
</a>
</g>
</g>
<!-- Node1&#45;&gt;Node3 -->
<g id="edge29" class="edge">
<title>Node1&#45;&gt;Node3</title>
<path fill="none" stroke="midnightblue" d="M330.42,-224.19C325.76,-211.32 319.08,-186.83 327,-168 332.03,-156.05 341.94,-145.69 351.29,-137.93"/>
<polygon fill="midnightblue" stroke="midnightblue" points="353.44,-140.69 359.21,-131.81 349.16,-135.15 353.44,-140.69"/>
</g>
<!-- Node17 -->
<g id="node17" class="node">
<title>Node17</title>
<g id="a_node17"><a xlink:href="condition_8h.html" target="_top" xlink:title="Interface for classifier conditions.">
<polygon fill="none" stroke="black" points="405,-168.5 405,-187.5 469,-187.5 469,-168.5 405,-168.5"/>
<text text-anchor="middle" x="437" y="-175.5" font-family="Helvetica,sans-Serif" font-size="10.00">condition.h</text>
</a>
</g>
</g>
<!-- Node1&#45;&gt;Node17 -->
<g id="edge20" class="edge">
<title>Node1&#45;&gt;Node17</title>
<path fill="none" stroke="midnightblue" d="M350.55,-224.32C366.99,-215.7 392.43,-202.36 411.47,-192.39"/>
<polygon fill="midnightblue" stroke="midnightblue" points="413.26,-195.4 420.49,-187.65 410.01,-189.2 413.26,-195.4"/>
</g>
<!-- Node18 -->
<g id="node18" class="node">
<title>Node18</title>
<g id="a_node18"><a xlink:href="neural_8h.html" target="_top" xlink:title="An implementation of a multi&#45;layer perceptron neural network.">
<polygon fill="none" stroke="black" points="162.5,-112.5 162.5,-131.5 213.5,-131.5 213.5,-112.5 162.5,-112.5"/>
<text text-anchor="middle" x="188" y="-119.5" font-family="Helvetica,sans-Serif" font-size="10.00">neural.h</text>
</a>
</g>
</g>
<!-- Node1&#45;&gt;Node18 -->
<g id="edge22" class="edge">
<title>Node1&#45;&gt;Node18</title>
<path fill="none" stroke="midnightblue" d="M322.54,-224.37C297.7,-205.65 238.64,-161.15 207.69,-137.83"/>
<polygon fill="midnightblue" stroke="midnightblue" points="209.5,-134.81 199.4,-131.59 205.28,-140.4 209.5,-134.81"/>
</g>
<!-- Node2&#45;&gt;Node3 -->
<g id="edge2" class="edge">
<title>Node2&#45;&gt;Node3</title>
<path fill="none" stroke="midnightblue" d="M362.98,-168.08C364.57,-160.93 366.86,-150.64 368.85,-141.69"/>
<polygon fill="midnightblue" stroke="midnightblue" points="372.3,-142.27 371.06,-131.75 365.47,-140.75 372.3,-142.27"/>
</g>
<!-- Node4 -->
<g id="node4" class="node">
<title>Node4</title>
<g id="a_node4"><a xlink:href="utils_8h.html" target="_top" xlink:title="Utility functions for random number handling, etc.">
<polygon fill="none" stroke="black" points="307.5,-56.5 307.5,-75.5 350.5,-75.5 350.5,-56.5 307.5,-56.5"/>
<text text-anchor="middle" x="329" y="-63.5" font-family="Helvetica,sans-Serif" font-size="10.00">utils.h</text>
</a>
</g>
</g>
<!-- Node3&#45;&gt;Node4 -->
<g id="edge3" class="edge">
<title>Node3&#45;&gt;Node4</title>
<path fill="none" stroke="midnightblue" d="M365.73,-112.08C359.46,-104.38 350.21,-93.03 342.57,-83.65"/>
<polygon fill="midnightblue" stroke="midnightblue" points="345.16,-81.29 336.13,-75.75 339.73,-85.71 345.16,-81.29"/>
</g>
<!-- Node7 -->
<g id="node7" class="node">
<title>Node7</title>
<g id="a_node7"><a xlink:title=" ">
<polygon fill="none" stroke="#bfbfbf" points="468.5,-0.5 468.5,-19.5 515.5,-19.5 515.5,-0.5 468.5,-0.5"/>
<text text-anchor="middle" x="492" y="-7.5" font-family="Helvetica,sans-Serif" font-size="10.00">math.h</text>
</a>
</g>
</g>
<!-- Node3&#45;&gt;Node7 -->
<g id="edge14" class="edge">
<title>Node3&#45;&gt;Node7</title>
<path fill="none" stroke="midnightblue" d="M382.34,-112.37C402.41,-93.81 449.9,-49.91 475.3,-26.44"/>
<polygon fill="midnightblue" stroke="midnightblue" points="477.74,-28.95 482.71,-19.59 472.99,-23.81 477.74,-28.95"/>
</g>
<!-- Node8 -->
<g id="node8" class="node">
<title>Node8</title>
<g id="a_node8"><a xlink:title=" ">
<polygon fill="none" stroke="#bfbfbf" points="66,-0.5 66,-19.5 122,-19.5 122,-0.5 66,-0.5"/>
<text text-anchor="middle" x="94" y="-7.5" font-family="Helvetica,sans-Serif" font-size="10.00">stdbool.h</text>
</a>
</g>
</g>
<!-- Node3&#45;&gt;Node8 -->
<g id="edge15" class="edge">
<title>Node3&#45;&gt;Node8</title>
<path fill="none" stroke="midnightblue" d="M359.7,-112.33C338.37,-98.74 294.84,-72.28 255,-56 232.77,-46.91 172.01,-30.77 131.82,-20.49"/>
<polygon fill="midnightblue" stroke="midnightblue" points="132.63,-17.09 122.08,-18.01 130.91,-23.87 132.63,-17.09"/>
</g>
<!-- Node9 -->
<g id="node9" class="node">
<title>Node9</title>
<g id="a_node9"><a xlink:title=" ">
<polygon fill="none" stroke="#bfbfbf" points="404,-0.5 404,-19.5 450,-19.5 450,-0.5 404,-0.5"/>
<text text-anchor="middle" x="427" y="-7.5" font-family="Helvetica,sans-Serif" font-size="10.00">stdio.h</text>
</a>
</g>
</g>
<!-- Node3&#45;&gt;Node9 -->
<g id="edge17" class="edge">
<title>Node3&#45;&gt;Node9</title>
<path fill="none" stroke="midnightblue" d="M377.24,-112.37C386.07,-94.38 406.6,-52.55 418.35,-28.63"/>
<polygon fill="midnightblue" stroke="midnightblue" points="421.52,-30.11 422.78,-19.59 415.23,-27.03 421.52,-30.11"/>
</g>
<!-- Node10 -->
<g id="node10" class="node">
<title>Node10</title>
<g id="a_node10"><a xlink:title=" ">
<polygon fill="none" stroke="#bfbfbf" points="0,-0.5 0,-19.5 48,-19.5 48,-0.5 0,-0.5"/>
<text text-anchor="middle" x="24" y="-7.5" font-family="Helvetica,sans-Serif" font-size="10.00">stdlib.h</text>
</a>
</g>
</g>
<!-- Node3&#45;&gt;Node10 -->
<g id="edge18" class="edge">
<title>Node3&#45;&gt;Node10</title>
<path fill="none" stroke="midnightblue" d="M350.79,-113.78C326.72,-105.66 287.41,-91.58 255,-76 239.2,-68.41 237.32,-62.4 221,-56 154.52,-29.91 131.45,-37.11 58.28,-20.16"/>
<polygon fill="midnightblue" stroke="midnightblue" points="58.65,-16.65 48.11,-17.73 57.02,-23.46 58.65,-16.65"/>
</g>
<!-- Node11 -->
<g id="node11" class="node">
<title>Node11</title>
<g id="a_node11"><a xlink:title=" ">
<polygon fill="none" stroke="#bfbfbf" points="483.5,-56.5 483.5,-75.5 530.5,-75.5 530.5,-56.5 483.5,-56.5"/>
<text text-anchor="middle" x="507" y="-63.5" font-family="Helvetica,sans-Serif" font-size="10.00">errno.h</text>
</a>
</g>
</g>
<!-- Node3&#45;&gt;Node11 -->
<g id="edge10" class="edge">
<title>Node3&#45;&gt;Node11</title>
<path fill="none" stroke="midnightblue" d="M394.23,-112.44C416.38,-103.52 451.32,-89.44 476.44,-79.32"/>
<polygon fill="midnightblue" stroke="midnightblue" points="477.9,-82.5 485.87,-75.52 475.28,-76.01 477.9,-82.5"/>
</g>
<!-- Node12 -->
<g id="node12" class="node">
<title>Node12</title>
<g id="a_node12"><a xlink:title=" ">
<polygon fill="none" stroke="#bfbfbf" points="549,-56.5 549,-75.5 593,-75.5 593,-56.5 549,-56.5"/>
<text text-anchor="middle" x="571" y="-63.5" font-family="Helvetica,sans-Serif" font-size="10.00">float.h</text>
</a>
</g>
</g>
<!-- Node3&#45;&gt;Node12 -->
<g id="edge11" class="edge">
<title>Node3&#45;&gt;Node12</title>
<path fill="none" stroke="midnightblue" d="M395.19,-115.17C425.46,-107.18 481.65,-92.24 539.03,-76.23"/>
<polygon fill="midnightblue" stroke="midnightblue" points="540.31,-79.51 549,-73.44 538.43,-72.77 540.31,-79.51"/>
</g>
<!-- Node13 -->
<g id="node13" class="node">
<title>Node13</title>
<g id="a_node13"><a xlink:title=" ">
<polygon fill="none" stroke="#bfbfbf" points="611.5,-56.5 611.5,-75.5 670.5,-75.5 670.5,-56.5 611.5,-56.5"/>
<text text-anchor="middle" x="641" y="-63.5" font-family="Helvetica,sans-Serif" font-size="10.00">inttypes.h</text>
</a>
</g>
</g>
<!-- Node3&#45;&gt;Node13 -->
<g id="edge12" class="edge">
<title>Node3&#45;&gt;Node13</title>
<path fill="none" stroke="midnightblue" d="M395.16,-116.9C434.49,-109.56 519.35,-93.48 601.24,-76.11"/>
<polygon fill="midnightblue" stroke="midnightblue" points="602.16,-79.49 611.21,-73.98 600.7,-72.64 602.16,-79.49"/>
</g>
<!-- Node14 -->
<g id="node14" class="node">
<title>Node14</title>
<g id="a_node14"><a xlink:title=" ">
<polygon fill="none" stroke="#bfbfbf" points="689,-56.5 689,-75.5 737,-75.5 737,-56.5 689,-56.5"/>
<text text-anchor="middle" x="713" y="-63.5" font-family="Helvetica,sans-Serif" font-size="10.00">limits.h</text>
</a>
</g>
</g>
<!-- Node3&#45;&gt;Node14 -->
<g id="edge13" class="edge">
<title>Node3&#45;&gt;Node14</title>
<path fill="none" stroke="midnightblue" d="M395.12,-118.69C444.36,-113.34 566.82,-98.96 678.82,-76.02"/>
<polygon fill="midnightblue" stroke="midnightblue" points="679.85,-79.39 688.93,-73.92 678.43,-72.53 679.85,-79.39"/>
</g>
<!-- Node15 -->
<g id="node15" class="node">
<title>Node15</title>
<g id="a_node15"><a xlink:title=" ">
<polygon fill="none" stroke="#bfbfbf" points="96.5,-56.5 96.5,-75.5 145.5,-75.5 145.5,-56.5 96.5,-56.5"/>
<text text-anchor="middle" x="121" y="-63.5" font-family="Helvetica,sans-Serif" font-size="10.00">stdint.h</text>
</a>
</g>
</g>
<!-- Node3&#45;&gt;Node15 -->
<g id="edge16" class="edge">
<title>Node3&#45;&gt;Node15</title>
<path fill="none" stroke="midnightblue" d="M350.83,-116.93C312.8,-109.84 232.49,-94.42 155.66,-76.29"/>
<polygon fill="midnightblue" stroke="midnightblue" points="156.36,-72.86 145.82,-73.95 154.74,-79.67 156.36,-72.86"/>
</g>
<!-- Node16 -->
<g id="node16" class="node">
<title>Node16</title>
<g id="a_node16"><a xlink:title=" ">
<polygon fill="none" stroke="#bfbfbf" points="163.5,-56.5 163.5,-75.5 212.5,-75.5 212.5,-56.5 163.5,-56.5"/>
<text text-anchor="middle" x="188" y="-63.5" font-family="Helvetica,sans-Serif" font-size="10.00">string.h</text>
</a>
</g>
</g>
<!-- Node3&#45;&gt;Node16 -->
<g id="edge19" class="edge">
<title>Node3&#45;&gt;Node16</title>
<path fill="none" stroke="midnightblue" d="M350.68,-114.49C318.89,-105.2 260.24,-88.09 222.73,-77.14"/>
<polygon fill="midnightblue" stroke="midnightblue" points="223.33,-73.67 212.75,-74.22 221.37,-80.39 223.33,-73.67"/>
</g>
<!-- Node5 -->
<g id="node5" class="node">
<title>Node5</title>
<g id="a_node5"><a xlink:title=" ">
<polygon fill="none" stroke="#bfbfbf" points="272,-0.5 272,-19.5 386,-19.5 386,-0.5 272,-0.5"/>
<text text-anchor="middle" x="329" y="-7.5" font-family="Helvetica,sans-Serif" font-size="10.00">../lib/cJSON/cJSON.h</text>
</a>
</g>
</g>
<!-- Node4&#45;&gt;Node5 -->
<g id="edge4" class="edge">
<title>Node4&#45;&gt;Node5</title>
<path fill="none" stroke="midnightblue" d="M329,-56.08C329,-49.01 329,-38.86 329,-29.99"/>
<polygon fill="midnightblue" stroke="midnightblue" points="332.5,-29.75 329,-19.75 325.5,-29.75 332.5,-29.75"/>
</g>
<!-- Node6 -->
<g id="node6" class="node">
<title>Node6</title>
<g id="a_node6"><a xlink:title=" ">
<polygon fill="none" stroke="#bfbfbf" points="140.5,-0.5 140.5,-19.5 253.5,-19.5 253.5,-0.5 140.5,-0.5"/>
<text text-anchor="middle" x="197" y="-7.5" font-family="Helvetica,sans-Serif" font-size="10.00">../lib/dSFMT/dSFMT.h</text>
</a>
</g>
</g>
<!-- Node4&#45;&gt;Node6 -->
<g id="edge5" class="edge">
<title>Node4&#45;&gt;Node6</title>
<path fill="none" stroke="midnightblue" d="M308.08,-56.44C286.26,-47.52 251.85,-33.44 227.11,-23.32"/>
<polygon fill="midnightblue" stroke="midnightblue" points="228.4,-20.06 217.82,-19.52 225.75,-26.54 228.4,-20.06"/>
</g>
<!-- Node4&#45;&gt;Node7 -->
<g id="edge6" class="edge">
<title>Node4&#45;&gt;Node7</title>
<path fill="none" stroke="midnightblue" d="M350.65,-57.83C378.23,-48.69 426.2,-32.8 458.52,-22.09"/>
<polygon fill="midnightblue" stroke="midnightblue" points="460.02,-25.28 468.41,-18.81 457.82,-18.64 460.02,-25.28"/>
</g>
<!-- Node4&#45;&gt;Node8 -->
<g id="edge7" class="edge">
<title>Node4&#45;&gt;Node8</title>
<path fill="none" stroke="midnightblue" d="M307.32,-59.48C302.61,-58.31 297.64,-57.1 293,-56 224.3,-39.78 204.52,-36.94 132.32,-20.27"/>
<polygon fill="midnightblue" stroke="midnightblue" points="132.8,-16.79 122.27,-17.94 131.22,-23.61 132.8,-16.79"/>
</g>
<!-- Node4&#45;&gt;Node9 -->
<g id="edge8" class="edge">
<title>Node4&#45;&gt;Node9</title>
<path fill="none" stroke="midnightblue" d="M344.75,-56.32C360.32,-47.74 384.38,-34.49 402.46,-24.52"/>
<polygon fill="midnightblue" stroke="midnightblue" points="404.22,-27.55 411.29,-19.65 400.85,-21.42 404.22,-27.55"/>
</g>
<!-- Node4&#45;&gt;Node10 -->
<g id="edge9" class="edge">
<title>Node4&#45;&gt;Node10</title>
<path fill="none" stroke="midnightblue" d="M307.35,-62.19C262.59,-56.2 156.49,-41.19 57.9,-20.01"/>
<polygon fill="midnightblue" stroke="midnightblue" points="58.6,-16.58 48.08,-17.87 57.11,-23.42 58.6,-16.58"/>
</g>
<!-- Node17&#45;&gt;Node3 -->
<g id="edge21" class="edge">
<title>Node17&#45;&gt;Node3</title>
<path fill="none" stroke="midnightblue" d="M426.72,-168.32C417.16,-160.26 402.72,-148.08 391.22,-138.37"/>
<polygon fill="midnightblue" stroke="midnightblue" points="393.37,-135.61 383.47,-131.83 388.86,-140.96 393.37,-135.61"/>
</g>
<!-- Node18&#45;&gt;Node4 -->
<g id="edge23" class="edge">
<title>Node18&#45;&gt;Node4</title>
<path fill="none" stroke="midnightblue" d="M210.34,-112.44C233.89,-103.42 271.17,-89.15 297.66,-79"/>
<polygon fill="midnightblue" stroke="midnightblue" points="299.14,-82.18 307.23,-75.34 296.64,-75.65 299.14,-82.18"/>
</g>
<!-- Node18&#45;&gt;Node8 -->
<g id="edge24" class="edge">
<title>Node18&#45;&gt;Node8</title>
<path fill="none" stroke="midnightblue" d="M162.19,-117.45C138.12,-112.62 103.52,-101.44 87,-76 78.04,-62.19 81.48,-43.17 86.14,-29.27"/>
<polygon fill="midnightblue" stroke="midnightblue" points="89.46,-30.4 89.76,-19.81 82.92,-27.9 89.46,-30.4"/>
</g>
<!-- Node18&#45;&gt;Node9 -->
<g id="edge26" class="edge">
<title>Node18&#45;&gt;Node9</title>
<path fill="none" stroke="midnightblue" d="M213.73,-118.41C248.76,-114 312.54,-102.74 360,-76 381.95,-63.63 401.96,-42.31 414.28,-27.47"/>
<polygon fill="midnightblue" stroke="midnightblue" points="417.07,-29.59 420.6,-19.6 411.61,-25.21 417.07,-29.59"/>
</g>
<!-- Node18&#45;&gt;Node10 -->
<g id="edge27" class="edge">
<title>Node18&#45;&gt;Node10</title>
<path fill="none" stroke="midnightblue" d="M162.19,-114.35C138.67,-107.42 103.79,-94.92 78,-76 60.15,-62.9 44.57,-42.65 34.8,-28.24"/>
<polygon fill="midnightblue" stroke="midnightblue" points="37.65,-26.2 29.25,-19.74 31.79,-30.03 37.65,-26.2"/>
</g>
<!-- Node18&#45;&gt;Node15 -->
<g id="edge25" class="edge">
<title>Node18&#45;&gt;Node15</title>
<path fill="none" stroke="midnightblue" d="M177.24,-112.32C167.23,-104.26 152.11,-92.08 140.07,-82.37"/>
<polygon fill="midnightblue" stroke="midnightblue" points="141.94,-79.38 131.96,-75.83 137.55,-84.83 141.94,-79.38"/>
</g>
<!-- Node18&#45;&gt;Node16 -->
<g id="edge28" class="edge">
<title>Node18&#45;&gt;Node16</title>
<path fill="none" stroke="midnightblue" d="M188,-112.08C188,-105.01 188,-94.86 188,-85.99"/>
<polygon fill="midnightblue" stroke="midnightblue" points="191.5,-85.75 188,-75.75 184.5,-85.75 191.5,-85.75"/>
</g>
</g>
</svg>
