<?xml version="1.0" encoding="UTF-8" standalone="no"?>
<!DOCTYPE svg PUBLIC "-//W3C//DTD SVG 1.1//EN"
 "http://www.w3.org/Graphics/SVG/1.1/DTD/svg11.dtd">
<!-- Generated by graphviz version 2.43.0 (0)
 -->
<!-- Title: rule_neural.h Pages: 1 -->
<svg width="745pt" height="247pt"
 viewBox="0.00 0.00 745.00 247.00" xmlns="http://www.w3.org/2000/svg" xmlns:xlink="http://www.w3.org/1999/xlink">
<g id="graph0" class="graph" transform="scale(1 1) rotate(0) translate(4 243)">
<title>rule_neural.h</title>
<!-- Node1 -->
<g id="Node000001" class="node">
<title>Node1</title>
<g id="a_Node000001"><a xlink:title="Neural network rule (condition + action) functions.">
<polygon fill="#999999" stroke="#666666" points="370,-239 298,-239 298,-220 370,-220 370,-239"/>
<text text-anchor="middle" x="334" y="-227" font-family="Helvetica,sans-Serif" font-size="10.00">rule_neural.h</text>
</a>
</g>
</g>
<!-- Node2 -->
<g id="Node000002" class="node">
<title>Node2</title>
<g id="a_Node000002"><a xlink:href="action_8h.html" target="_top" xlink:title="Interface for classifier actions.">
<polygon fill="white" stroke="#666666" points="386.5,-184 335.5,-184 335.5,-165 386.5,-165 386.5,-184"/>
<text text-anchor="middle" x="361" y="-172" font-family="Helvetica,sans-Serif" font-size="10.00">action.h</text>
</a>
</g>
</g>
<!-- Node1&#45;&gt;Node2 -->
<g id="edge1_Node000001_Node000002" class="edge">
<title>Node1&#45;&gt;Node2</title>
<g id="a_edge1_Node000001_Node000002"><a xlink:title=" ">
<path fill="none" stroke="#63b8ff" d="M338.46,-219.75C342.12,-212.57 347.41,-202.18 351.95,-193.27"/>
<polygon fill="#63b8ff" stroke="#63b8ff" points="355.2,-194.59 356.62,-184.09 348.97,-191.41 355.2,-194.59"/>
</a>
</g>
</g>
<!-- Node3 -->
<g id="Node000003" class="node">
<title>Node3</title>
<g id="a_Node000003"><a xlink:href="xcsf_8h.html" target="_top" xlink:title="XCSF data structures.">
<polygon fill="white" stroke="#666666" points="395,-129 351,-129 351,-110 395,-110 395,-129"/>
<text text-anchor="middle" x="373" y="-117" font-family="Helvetica,sans-Serif" font-size="10.00">xcsf.h</text>
</a>
</g>
</g>
<!-- Node1&#45;&gt;Node3 -->
<g id="edge29_Node000001_Node000003" class="edge">
<title>Node1&#45;&gt;Node3</title>
<g id="a_edge29_Node000001_Node000003"><a xlink:title=" ">
<path fill="none" stroke="#63b8ff" d="M330.46,-219.89C325.83,-207.31 319.21,-183.38 327,-165 331.98,-153.25 341.75,-143.09 351.01,-135.45"/>
<polygon fill="#63b8ff" stroke="#63b8ff" points="353.4,-138.03 359.22,-129.18 349.15,-132.47 353.4,-138.03"/>
</a>
</g>
</g>
<!-- Node17 -->
<g id="Node000017" class="node">
<title>Node17</title>
<g id="a_Node000017"><a xlink:href="condition_8h.html" target="_top" xlink:title="Interface for classifier conditions.">
<polygon fill="white" stroke="#666666" points="469,-184 405,-184 405,-165 469,-165 469,-184"/>
<text text-anchor="middle" x="437" y="-172" font-family="Helvetica,sans-Serif" font-size="10.00">condition.h</text>
</a>
</g>
</g>
<!-- Node1&#45;&gt;Node17 -->
<g id="edge20_Node000001_Node000017" class="edge">
<title>Node1&#45;&gt;Node17</title>
<g id="a_edge20_Node000001_Node000017"><a xlink:title=" ">
<path fill="none" stroke="#63b8ff" d="M350.55,-219.98C366.89,-211.57 392.13,-198.59 411.13,-188.81"/>
<polygon fill="#63b8ff" stroke="#63b8ff" points="412.86,-191.86 420.15,-184.17 409.66,-185.63 412.86,-191.86"/>
</a>
</g>
</g>
<!-- Node18 -->
<g id="Node000018" class="node">
<title>Node18</title>
<g id="a_Node000018"><a xlink:href="neural_8h.html" target="_top" xlink:title="An implementation of a multi&#45;layer perceptron neural network.">
<polygon fill="white" stroke="#666666" points="213.5,-129 162.5,-129 162.5,-110 213.5,-110 213.5,-129"/>
<text text-anchor="middle" x="188" y="-117" font-family="Helvetica,sans-Serif" font-size="10.00">neural.h</text>
</a>
</g>
</g>
<!-- Node1&#45;&gt;Node18 -->
<g id="edge22_Node000001_Node000018" class="edge">
<title>Node1&#45;&gt;Node18</title>
<g id="a_edge22_Node000001_Node000018"><a xlink:title=" ">
<path fill="none" stroke="#63b8ff" d="M322.3,-219.84C297.42,-201.44 239.01,-158.23 208.06,-135.34"/>
<polygon fill="#63b8ff" stroke="#63b8ff" points="209.88,-132.33 199.76,-129.2 205.71,-137.96 209.88,-132.33"/>
</a>
</g>
</g>
<!-- Node2&#45;&gt;Node3 -->
<g id="edge2_Node000002_Node000003" class="edge">
<title>Node2&#45;&gt;Node3</title>
<g id="a_edge2_Node000002_Node000003"><a xlink:title=" ">
<path fill="none" stroke="#63b8ff" d="M362.98,-164.75C364.57,-157.72 366.86,-147.62 368.85,-138.84"/>
<polygon fill="#63b8ff" stroke="#63b8ff" points="372.26,-139.62 371.06,-129.09 365.43,-138.07 372.26,-139.62"/>
</a>
</g>
</g>
<!-- Node4 -->
<g id="Node000004" class="node">
<title>Node4</title>
<g id="a_Node000004"><a xlink:href="utils_8h.html" target="_top" xlink:title="Utility functions for random number handling, etc.">
<polygon fill="white" stroke="#666666" points="350.5,-74 307.5,-74 307.5,-55 350.5,-55 350.5,-74"/>
<text text-anchor="middle" x="329" y="-62" font-family="Helvetica,sans-Serif" font-size="10.00">utils.h</text>
</a>
</g>
</g>
<!-- Node3&#45;&gt;Node4 -->
<g id="edge3_Node000003_Node000004" class="edge">
<title>Node3&#45;&gt;Node4</title>
<g id="a_edge3_Node000003_Node000004"><a xlink:title=" ">
<path fill="none" stroke="#63b8ff" d="M365.73,-109.75C359.46,-102.18 350.21,-91.05 342.57,-81.84"/>
<polygon fill="#63b8ff" stroke="#63b8ff" points="345.21,-79.55 336.13,-74.09 339.83,-84.02 345.21,-79.55"/>
</a>
</g>
</g>
<!-- Node7 -->
<g id="Node000007" class="node">
<title>Node7</title>
<g id="a_Node000007"><a xlink:title=" ">
<polygon fill="#e0e0e0" stroke="#999999" points="515.5,-19 468.5,-19 468.5,0 515.5,0 515.5,-19"/>
<text text-anchor="middle" x="492" y="-7" font-family="Helvetica,sans-Serif" font-size="10.00">math.h</text>
</a>
</g>
</g>
<!-- Node3&#45;&gt;Node7 -->
<g id="edge14_Node000003_Node000007" class="edge">
<title>Node3&#45;&gt;Node7</title>
<g id="a_edge14_Node000003_Node000007"><a xlink:title=" ">
<path fill="none" stroke="#63b8ff" d="M382.74,-109.66C402.89,-91.38 449.38,-49.18 474.74,-26.17"/>
<polygon fill="#63b8ff" stroke="#63b8ff" points="477.41,-28.47 482.46,-19.16 472.7,-23.29 477.41,-28.47"/>
</a>
</g>
</g>
<!-- Node8 -->
<g id="Node000008" class="node">
<title>Node8</title>
<g id="a_Node000008"><a xlink:title=" ">
<polygon fill="#e0e0e0" stroke="#999999" points="122,-19 66,-19 66,0 122,0 122,-19"/>
<text text-anchor="middle" x="94" y="-7" font-family="Helvetica,sans-Serif" font-size="10.00">stdbool.h</text>
</a>
</g>
</g>
<!-- Node3&#45;&gt;Node8 -->
<g id="edge15_Node000003_Node000008" class="edge">
<title>Node3&#45;&gt;Node8</title>
<g id="a_edge15_Node000003_Node000008"><a xlink:title=" ">
<path fill="none" stroke="#63b8ff" d="M359.33,-109.82C337.83,-96.49 294.51,-70.86 255,-55 232.73,-46.06 171.98,-30.09 131.8,-19.91"/>
<polygon fill="#63b8ff" stroke="#63b8ff" points="132.62,-16.5 122.07,-17.45 130.91,-23.29 132.62,-16.5"/>
</a>
</g>
</g>
<!-- Node9 -->
<g id="Node000009" class="node">
<title>Node9</title>
<g id="a_Node000009"><a xlink:title=" ">
<polygon fill="#e0e0e0" stroke="#999999" points="450,-19 404,-19 404,0 450,0 450,-19"/>
<text text-anchor="middle" x="427" y="-7" font-family="Helvetica,sans-Serif" font-size="10.00">stdio.h</text>
</a>
</g>
</g>
<!-- Node3&#45;&gt;Node9 -->
<g id="edge17_Node000003_Node000009" class="edge">
<title>Node3&#45;&gt;Node9</title>
<g id="a_edge17_Node000003_Node000009"><a xlink:title=" ">
<path fill="none" stroke="#63b8ff" d="M377.42,-109.66C386.28,-91.93 406.39,-51.73 418.09,-28.32"/>
<polygon fill="#63b8ff" stroke="#63b8ff" points="421.33,-29.67 422.67,-19.16 415.07,-26.54 421.33,-29.67"/>
</a>
</g>
</g>
<!-- Node10 -->
<g id="Node000010" class="node">
<title>Node10</title>
<g id="a_Node000010"><a xlink:title=" ">
<polygon fill="#e0e0e0" stroke="#999999" points="48,-19 0,-19 0,0 48,0 48,-19"/>
<text text-anchor="middle" x="24" y="-7" font-family="Helvetica,sans-Serif" font-size="10.00">stdlib.h</text>
</a>
</g>
</g>
<!-- Node3&#45;&gt;Node10 -->
<g id="edge18_Node000003_Node000010" class="edge">
<title>Node3&#45;&gt;Node10</title>
<g id="a_edge18_Node000003_Node000010"><a xlink:title=" ">
<path fill="none" stroke="#63b8ff" d="M350.85,-111.25C326.83,-103.14 287.56,-89.14 255,-74 239.3,-66.7 237.18,-61.14 221,-55 154.23,-29.65 131.54,-35.7 58.3,-19.19"/>
<polygon fill="#63b8ff" stroke="#63b8ff" points="58.66,-15.68 48.13,-16.82 57.07,-22.49 58.66,-15.68"/>
</a>
</g>
</g>
<!-- Node11 -->
<g id="Node000011" class="node">
<title>Node11</title>
<g id="a_Node000011"><a xlink:title=" ">
<polygon fill="#e0e0e0" stroke="#999999" points="530.5,-74 483.5,-74 483.5,-55 530.5,-55 530.5,-74"/>
<text text-anchor="middle" x="507" y="-62" font-family="Helvetica,sans-Serif" font-size="10.00">errno.h</text>
</a>
</g>
</g>
<!-- Node3&#45;&gt;Node11 -->
<g id="edge10_Node000003_Node000011" class="edge">
<title>Node3&#45;&gt;Node11</title>
<g id="a_edge10_Node000003_Node000011"><a xlink:title=" ">
<path fill="none" stroke="#63b8ff" d="M394.53,-109.98C416.47,-101.3 450.74,-87.75 475.69,-77.88"/>
<polygon fill="#63b8ff" stroke="#63b8ff" points="477.07,-81.1 485.08,-74.17 474.49,-74.59 477.07,-81.1"/>
</a>
</g>
</g>
<!-- Node12 -->
<g id="Node000012" class="node">
<title>Node12</title>
<g id="a_Node000012"><a xlink:title=" ">
<polygon fill="#e0e0e0" stroke="#999999" points="593,-74 549,-74 549,-55 593,-55 593,-74"/>
<text text-anchor="middle" x="571" y="-62" font-family="Helvetica,sans-Serif" font-size="10.00">float.h</text>
</a>
</g>
</g>
<!-- Node3&#45;&gt;Node12 -->
<g id="edge11_Node000003_Node000012" class="edge">
<title>Node3&#45;&gt;Node12</title>
<g id="a_edge11_Node000003_Node000012"><a xlink:title=" ">
<path fill="none" stroke="#63b8ff" d="M395.16,-112.65C425.41,-104.65 481.57,-89.76 539.01,-74.25"/>
<polygon fill="#63b8ff" stroke="#63b8ff" points="540.25,-77.54 548.99,-71.56 538.42,-70.79 540.25,-77.54"/>
</a>
</g>
</g>
<!-- Node13 -->
<g id="Node000013" class="node">
<title>Node13</title>
<g id="a_Node000013"><a xlink:title=" ">
<polygon fill="#e0e0e0" stroke="#999999" points="670.5,-74 611.5,-74 611.5,-55 670.5,-55 670.5,-74"/>
<text text-anchor="middle" x="641" y="-62" font-family="Helvetica,sans-Serif" font-size="10.00">inttypes.h</text>
</a>
</g>
</g>
<!-- Node3&#45;&gt;Node13 -->
<g id="edge12_Node000003_Node000013" class="edge">
<title>Node3&#45;&gt;Node13</title>
<g id="a_edge12_Node000003_Node000013"><a xlink:title=" ">
<path fill="none" stroke="#63b8ff" d="M395.14,-114.37C434.45,-107 519.27,-90.94 601.23,-74.12"/>
<polygon fill="#63b8ff" stroke="#63b8ff" points="602.12,-77.51 611.2,-72.07 600.7,-70.65 602.12,-77.51"/>
</a>
</g>
</g>
<!-- Node14 -->
<g id="Node000014" class="node">
<title>Node14</title>
<g id="a_Node000014"><a xlink:title=" ">
<polygon fill="#e0e0e0" stroke="#999999" points="737,-74 689,-74 689,-55 737,-55 737,-74"/>
<text text-anchor="middle" x="713" y="-62" font-family="Helvetica,sans-Serif" font-size="10.00">limits.h</text>
</a>
</g>
</g>
<!-- Node3&#45;&gt;Node14 -->
<g id="edge13_Node000003_Node000014" class="edge">
<title>Node3&#45;&gt;Node14</title>
<g id="a_edge13_Node000003_Node000014"><a xlink:title=" ">
<path fill="none" stroke="#63b8ff" d="M395.1,-116.13C444.29,-110.67 566.68,-96.13 678.8,-74.04"/>
<polygon fill="#63b8ff" stroke="#63b8ff" points="679.8,-77.41 688.92,-72.02 678.43,-70.55 679.8,-77.41"/>
</a>
</g>
</g>
<!-- Node15 -->
<g id="Node000015" class="node">
<title>Node15</title>
<g id="a_Node000015"><a xlink:title=" ">
<polygon fill="#e0e0e0" stroke="#999999" points="145.5,-74 96.5,-74 96.5,-55 145.5,-55 145.5,-74"/>
<text text-anchor="middle" x="121" y="-62" font-family="Helvetica,sans-Serif" font-size="10.00">stdint.h</text>
</a>
</g>
</g>
<!-- Node3&#45;&gt;Node15 -->
<g id="edge16_Node000003_Node000015" class="edge">
<title>Node3&#45;&gt;Node15</title>
<g id="a_edge16_Node000003_Node000015"><a xlink:title=" ">
<path fill="none" stroke="#63b8ff" d="M350.85,-114.39C312.85,-107.26 232.59,-91.83 155.68,-74.3"/>
<polygon fill="#63b8ff" stroke="#63b8ff" points="156.36,-70.87 145.83,-72.04 154.8,-77.69 156.36,-70.87"/>
</a>
</g>
</g>
<!-- Node16 -->
<g id="Node000016" class="node">
<title>Node16</title>
<g id="a_Node000016"><a xlink:title=" ">
<polygon fill="#e0e0e0" stroke="#999999" points="212.5,-74 163.5,-74 163.5,-55 212.5,-55 212.5,-74"/>
<text text-anchor="middle" x="188" y="-62" font-family="Helvetica,sans-Serif" font-size="10.00">string.h</text>
</a>
</g>
</g>
<!-- Node3&#45;&gt;Node16 -->
<g id="edge19_Node000003_Node000016" class="edge">
<title>Node3&#45;&gt;Node16</title>
<g id="a_edge19_Node000003_Node000016"><a xlink:title=" ">
<path fill="none" stroke="#63b8ff" d="M350.68,-112.11C318.89,-103 260.24,-86.2 222.73,-75.45"/>
<polygon fill="#63b8ff" stroke="#63b8ff" points="223.33,-71.98 212.75,-72.59 221.4,-78.71 223.33,-71.98"/>
</a>
</g>
</g>
<!-- Node5 -->
<g id="Node000005" class="node">
<title>Node5</title>
<g id="a_Node000005"><a xlink:title=" ">
<polygon fill="#e0e0e0" stroke="#999999" points="386,-19 272,-19 272,0 386,0 386,-19"/>
<text text-anchor="middle" x="329" y="-7" font-family="Helvetica,sans-Serif" font-size="10.00">../lib/cJSON/cJSON.h</text>
</a>
</g>
</g>
<!-- Node4&#45;&gt;Node5 -->
<g id="edge4_Node000004_Node000005" class="edge">
<title>Node4&#45;&gt;Node5</title>
<g id="a_edge4_Node000004_Node000005"><a xlink:title=" ">
<path fill="none" stroke="#63b8ff" d="M329,-54.75C329,-47.8 329,-37.85 329,-29.13"/>
<polygon fill="#63b8ff" stroke="#63b8ff" points="332.5,-29.09 329,-19.09 325.5,-29.09 332.5,-29.09"/>
</a>
</g>
</g>
<!-- Node6 -->
<g id="Node000006" class="node">
<title>Node6</title>
<g id="a_Node000006"><a xlink:title=" ">
<polygon fill="#e0e0e0" stroke="#999999" points="253.5,-19 140.5,-19 140.5,0 253.5,0 253.5,-19"/>
<text text-anchor="middle" x="197" y="-7" font-family="Helvetica,sans-Serif" font-size="10.00">../lib/dSFMT/dSFMT.h</text>
</a>
</g>
</g>
<!-- Node4&#45;&gt;Node6 -->
<g id="edge5_Node000004_Node000006" class="edge">
<title>Node4&#45;&gt;Node6</title>
<g id="a_edge5_Node000004_Node000006"><a xlink:title=" ">
<path fill="none" stroke="#63b8ff" d="M307.79,-54.98C286.27,-46.34 252.72,-32.87 228.17,-23.02"/>
<polygon fill="#63b8ff" stroke="#63b8ff" points="229.18,-19.65 218.59,-19.17 226.57,-26.14 229.18,-19.65"/>
</a>
</g>
</g>
<!-- Node4&#45;&gt;Node7 -->
<g id="edge6_Node000004_Node000007" class="edge">
<title>Node4&#45;&gt;Node7</title>
<g id="a_edge6_Node000004_Node000007"><a xlink:title=" ">
<path fill="none" stroke="#63b8ff" d="M350.65,-56.46C378.23,-47.49 426.2,-31.89 458.52,-21.39"/>
<polygon fill="#63b8ff" stroke="#63b8ff" points="459.99,-24.59 468.41,-18.17 457.82,-17.93 459.99,-24.59"/>
</a>
</g>
</g>
<!-- Node4&#45;&gt;Node8 -->
<g id="edge7_Node000004_Node000008" class="edge">
<title>Node4&#45;&gt;Node8</title>
<g id="a_edge7_Node000004_Node000008"><a xlink:title=" ">
<path fill="none" stroke="#63b8ff" d="M307.31,-58.33C302.59,-57.22 297.63,-56.06 293,-55 224.2,-39.23 204.6,-35.56 132.34,-19.29"/>
<polygon fill="#63b8ff" stroke="#63b8ff" points="132.8,-15.81 122.28,-17.02 131.26,-22.63 132.8,-15.81"/>
</a>
</g>
</g>
<!-- Node4&#45;&gt;Node9 -->
<g id="edge8_Node000004_Node000009" class="edge">
<title>Node4&#45;&gt;Node9</title>
<g id="a_edge8_Node000004_Node000009"><a xlink:title=" ">
<path fill="none" stroke="#63b8ff" d="M344.75,-54.98C360.23,-46.61 384.09,-33.7 402.14,-23.95"/>
<polygon fill="#63b8ff" stroke="#63b8ff" points="403.84,-27.01 410.97,-19.17 400.51,-20.85 403.84,-27.01"/>
</a>
</g>
</g>
<!-- Node4&#45;&gt;Node10 -->
<g id="edge9_Node000004_Node000010" class="edge">
<title>Node4&#45;&gt;Node10</title>
<g id="a_edge9_Node000004_Node000010"><a xlink:title=" ">
<path fill="none" stroke="#63b8ff" d="M307.37,-60.64C262.65,-54.57 156.61,-39.45 57.92,-19.03"/>
<polygon fill="#63b8ff" stroke="#63b8ff" points="58.6,-15.59 48.09,-16.97 57.16,-22.45 58.6,-15.59"/>
</a>
</g>
</g>
<!-- Node17&#45;&gt;Node3 -->
<g id="edge21_Node000017_Node000003" class="edge">
<title>Node17&#45;&gt;Node3</title>
<g id="a_edge21_Node000017_Node000003"><a xlink:title=" ">
<path fill="none" stroke="#63b8ff" d="M426.72,-164.98C417.16,-157.07 402.72,-145.11 391.22,-135.58"/>
<polygon fill="#63b8ff" stroke="#63b8ff" points="393.4,-132.85 383.47,-129.17 388.94,-138.24 393.4,-132.85"/>
</a>
</g>
</g>
<!-- Node18&#45;&gt;Node4 -->
<g id="edge23_Node000018_Node000004" class="edge">
<title>Node18&#45;&gt;Node4</title>
<g id="a_edge23_Node000018_Node000004"><a xlink:title=" ">
<path fill="none" stroke="#63b8ff" d="M210.65,-109.98C234.26,-101.11 271.42,-87.14 297.8,-77.23"/>
<polygon fill="#63b8ff" stroke="#63b8ff" points="299.2,-80.44 307.33,-73.65 296.74,-73.89 299.2,-80.44"/>
</a>
</g>
</g>
<!-- Node18&#45;&gt;Node8 -->
<g id="edge24_Node000018_Node000008" class="edge">
<title>Node18&#45;&gt;Node8</title>
<g id="a_edge24_Node000018_Node000008"><a xlink:title=" ">
<path fill="none" stroke="#63b8ff" d="M162.2,-115.08C138.13,-110.37 103.54,-99.36 87,-74 78.3,-60.66 81.56,-42.3 86.11,-28.76"/>
<polygon fill="#63b8ff" stroke="#63b8ff" points="89.49,-29.7 89.82,-19.11 82.96,-27.19 89.49,-29.7"/>
</a>
</g>
</g>
<!-- Node18&#45;&gt;Node9 -->
<g id="edge26_Node000018_Node000009" class="edge">
<title>Node18&#45;&gt;Node9</title>
<g id="a_edge26_Node000018_Node000009"><a xlink:title=" ">
<path fill="none" stroke="#63b8ff" d="M213.68,-115.92C248.66,-111.54 312.38,-100.38 360,-74 381.56,-62.06 401.4,-41.54 413.8,-27.07"/>
<polygon fill="#63b8ff" stroke="#63b8ff" points="416.51,-29.28 420.2,-19.35 411.12,-24.81 416.51,-29.28"/>
</a>
</g>
</g>
<!-- Node18&#45;&gt;Node10 -->
<g id="edge27_Node000018_Node000010" class="edge">
<title>Node18&#45;&gt;Node10</title>
<g id="a_edge27_Node000018_Node000010"><a xlink:title=" ">
<path fill="none" stroke="#63b8ff" d="M162.23,-111.91C138.75,-105.06 103.89,-92.69 78,-74 60.29,-61.22 44.69,-41.43 34.87,-27.35"/>
<polygon fill="#63b8ff" stroke="#63b8ff" points="37.77,-25.39 29.29,-19.05 31.96,-29.3 37.77,-25.39"/>
</a>
</g>
</g>
<!-- Node18&#45;&gt;Node15 -->
<g id="edge25_Node000018_Node000015" class="edge">
<title>Node18&#45;&gt;Node15</title>
<g id="a_edge25_Node000018_Node000015"><a xlink:title=" ">
<path fill="none" stroke="#63b8ff" d="M177.24,-109.98C167.23,-102.07 152.11,-90.11 140.07,-80.58"/>
<polygon fill="#63b8ff" stroke="#63b8ff" points="141.97,-77.63 131.96,-74.17 137.63,-83.12 141.97,-77.63"/>
</a>
</g>
</g>
<!-- Node18&#45;&gt;Node16 -->
<g id="edge28_Node000018_Node000016" class="edge">
<title>Node18&#45;&gt;Node16</title>
<g id="a_edge28_Node000018_Node000016"><a xlink:title=" ">
<path fill="none" stroke="#63b8ff" d="M188,-109.75C188,-102.8 188,-92.85 188,-84.13"/>
<polygon fill="#63b8ff" stroke="#63b8ff" points="191.5,-84.09 188,-74.09 184.5,-84.09 191.5,-84.09"/>
</a>
</g>
</g>
</g>
</svg>
