<?xml version="1.0" encoding="UTF-8" standalone="no"?>
<!DOCTYPE svg PUBLIC "-//W3C//DTD SVG 1.1//EN"
 "http://www.w3.org/Graphics/SVG/1.1/DTD/svg11.dtd">
<!-- Generated by graphviz version 2.43.0 (0)
 -->
<!-- Title: rule_neural.h Pages: 1 -->
<svg width="162pt" height="84pt"
 viewBox="0.00 0.00 162.00 84.00" xmlns="http://www.w3.org/2000/svg" xmlns:xlink="http://www.w3.org/1999/xlink">
<g id="graph0" class="graph" transform="scale(1 1) rotate(0) translate(4 80)">
<title>rule_neural.h</title>
<!-- Node1 -->
<g id="node1" class="node">
<title>Node1</title>
<g id="a_node1"><a xlink:title="Neural network rule (condition + action) functions.">
<polygon fill="#bfbfbf" stroke="black" points="39,-56.5 39,-75.5 111,-75.5 111,-56.5 39,-56.5"/>
<text text-anchor="middle" x="75" y="-63.5" font-family="Helvetica,sans-Serif" font-size="10.00">rule_neural.h</text>
</a>
</g>
</g>
<!-- Node2 -->
<g id="node2" class="node">
<title>Node2</title>
<g id="a_node2"><a xlink:href="condition_8c.html" target="_top" xlink:title="Interface for classifier conditions.">
<polygon fill="none" stroke="black" points="0,-0.5 0,-19.5 64,-19.5 64,-0.5 0,-0.5"/>
<text text-anchor="middle" x="32" y="-7.5" font-family="Helvetica,sans-Serif" font-size="10.00">condition.c</text>
</a>
</g>
</g>
<!-- Node1&#45;&gt;Node2 -->
<g id="edge1" class="edge">
<title>Node1&#45;&gt;Node2</title>
<path fill="none" stroke="midnightblue" d="M61.58,-48.14C54.09,-38.74 45.06,-27.4 38.97,-19.75"/>
<polygon fill="midnightblue" stroke="midnightblue" points="58.93,-50.44 67.9,-56.08 64.41,-46.08 58.93,-50.44"/>
</g>
<!-- Node3 -->
<g id="node3" class="node">
<title>Node3</title>
<g id="a_node3"><a xlink:href="rule__neural_8c.html" target="_top" xlink:title="Neural network rule (condition + action) functions.">
<polygon fill="none" stroke="black" points="82,-0.5 82,-19.5 154,-19.5 154,-0.5 82,-0.5"/>
<text text-anchor="middle" x="118" y="-7.5" font-family="Helvetica,sans-Serif" font-size="10.00">rule_neural.c</text>
</a>
</g>
</g>
<!-- Node1&#45;&gt;Node3 -->
<g id="edge2" class="edge">
<title>Node1&#45;&gt;Node3</title>
<path fill="none" stroke="midnightblue" d="M88.42,-48.14C95.91,-38.74 104.94,-27.4 111.03,-19.75"/>
<polygon fill="midnightblue" stroke="midnightblue" points="85.59,-46.08 82.1,-56.08 91.07,-50.44 85.59,-46.08"/>
</g>
</g>
</svg>
