<?xml version="1.0" encoding="UTF-8" standalone="no"?>
<!DOCTYPE svg PUBLIC "-//W3C//DTD SVG 1.1//EN"
 "http://www.w3.org/Graphics/SVG/1.1/DTD/svg11.dtd">
<!-- Generated by graphviz version 2.43.0 (0)
 -->
<!-- Title: rule_dgp_act_cover Pages: 1 -->
<svg width="732pt" height="215pt"
 viewBox="0.00 0.00 732.00 214.84" xmlns="http://www.w3.org/2000/svg" xmlns:xlink="http://www.w3.org/1999/xlink">
<g id="graph0" class="graph" transform="scale(1 1) rotate(0) translate(4 210.84)">
<title>rule_dgp_act_cover</title>
<!-- Node1 -->
<g id="node1" class="node">
<title>Node1</title>
<g id="a_node1"><a xlink:title=" ">
<polygon fill="#bfbfbf" stroke="black" points="0,-95.5 0,-114.5 101,-114.5 101,-95.5 0,-95.5"/>
<text text-anchor="middle" x="50.5" y="-102.5" font-family="Helvetica,sans-Serif" font-size="10.00">rule_dgp_act_cover</text>
</a>
</g>
</g>
<!-- Node2 -->
<g id="node2" class="node">
<title>Node2</title>
<g id="a_node2"><a xlink:href="dgp_8c.html#a58fe69583d92f2c818d007d899fdbbb6" target="_top" xlink:title="Randomises a specified DGP graph.">
<polygon fill="none" stroke="black" points="162,-152.5 162,-171.5 227,-171.5 227,-152.5 162,-152.5"/>
<text text-anchor="middle" x="194.5" y="-159.5" font-family="Helvetica,sans-Serif" font-size="10.00">graph_rand</text>
</a>
</g>
</g>
<!-- Node1&#45;&gt;Node2 -->
<g id="edge1" class="edge">
<title>Node1&#45;&gt;Node2</title>
<path fill="none" stroke="midnightblue" d="M75.27,-114.54C98.51,-123.87 134.11,-138.16 160.18,-148.62"/>
<polygon fill="midnightblue" stroke="midnightblue" points="159.07,-151.95 169.65,-152.43 161.68,-145.46 159.07,-151.95"/>
</g>
<!-- Node6 -->
<g id="node6" class="node">
<title>Node6</title>
<g id="a_node6"><a xlink:href="rule__dgp_8c.html#ad20d1e81deeb95357c02154547c1669e" target="_top" xlink:title=" ">
<polygon fill="none" stroke="black" points="137,-95.5 137,-114.5 252,-114.5 252,-95.5 137,-95.5"/>
<text text-anchor="middle" x="194.5" y="-102.5" font-family="Helvetica,sans-Serif" font-size="10.00">rule_dgp_act_compute</text>
</a>
</g>
</g>
<!-- Node1&#45;&gt;Node6 -->
<g id="edge8" class="edge">
<title>Node1&#45;&gt;Node6</title>
<path fill="none" stroke="midnightblue" d="M101.16,-105C109.44,-105 118.15,-105 126.77,-105"/>
<polygon fill="midnightblue" stroke="midnightblue" points="126.82,-108.5 136.82,-105 126.82,-101.5 126.82,-108.5"/>
</g>
<!-- Node9 -->
<g id="node9" class="node">
<title>Node9</title>
<g id="a_node9"><a xlink:href="rule__dgp_8c.html#a85eb12064cc539b1ec1fea93ee5f5e3e" target="_top" xlink:title=" ">
<polygon fill="none" stroke="black" points="138.5,-57.5 138.5,-76.5 250.5,-76.5 250.5,-57.5 138.5,-57.5"/>
<text text-anchor="middle" x="194.5" y="-64.5" font-family="Helvetica,sans-Serif" font-size="10.00">rule_dgp_cond_match</text>
</a>
</g>
</g>
<!-- Node1&#45;&gt;Node9 -->
<g id="edge11" class="edge">
<title>Node1&#45;&gt;Node9</title>
<path fill="none" stroke="midnightblue" d="M87.33,-95.41C105.66,-90.51 128.18,-84.48 147.75,-79.24"/>
<polygon fill="midnightblue" stroke="midnightblue" points="148.92,-82.55 157.68,-76.59 147.11,-75.79 148.92,-82.55"/>
</g>
<!-- Node3 -->
<g id="node3" class="node">
<title>Node3</title>
<g id="a_node3"><a xlink:href="utils_8c.html#a972761ba8f47a6c3e7396a7c685158fc" target="_top" xlink:title="Returns a uniform random float [min,max].">
<polygon fill="none" stroke="black" points="570,-171.5 570,-190.5 643,-190.5 643,-171.5 570,-171.5"/>
<text text-anchor="middle" x="606.5" y="-178.5" font-family="Helvetica,sans-Serif" font-size="10.00">rand_uniform</text>
</a>
</g>
</g>
<!-- Node2&#45;&gt;Node3 -->
<g id="edge2" class="edge">
<title>Node2&#45;&gt;Node3</title>
<path fill="none" stroke="midnightblue" d="M227.38,-171.05C245.1,-175.8 267.64,-181.37 288,-185 394.96,-204.06 424.22,-213.71 532,-200 543.21,-198.57 555.16,-195.97 566.09,-193.14"/>
<polygon fill="midnightblue" stroke="midnightblue" points="567.06,-196.5 575.8,-190.5 565.23,-189.75 567.06,-196.5"/>
</g>
<!-- Node4 -->
<g id="node4" class="node">
<title>Node4</title>
<g id="a_node4"><a xlink:href="utils_8c.html#a5e6304fd9b177f36684d4bb00af49f91" target="_top" xlink:title="Returns a uniform random integer [min,max] not inclusive of max.">
<polygon fill="none" stroke="black" points="434,-171.5 434,-190.5 523,-190.5 523,-171.5 434,-171.5"/>
<text text-anchor="middle" x="478.5" y="-178.5" font-family="Helvetica,sans-Serif" font-size="10.00">rand_uniform_int</text>
</a>
</g>
</g>
<!-- Node2&#45;&gt;Node4 -->
<g id="edge3" class="edge">
<title>Node2&#45;&gt;Node4</title>
<path fill="none" stroke="midnightblue" d="M227.03,-164.12C274.62,-167.33 365.41,-173.45 423.62,-177.37"/>
<polygon fill="midnightblue" stroke="midnightblue" points="423.53,-180.87 433.74,-178.05 424,-173.89 423.53,-180.87"/>
</g>
<!-- Node5 -->
<g id="node5" class="node">
<title>Node5</title>
<g id="a_node5"><a xlink:href="dgp_8c.html#a60cad5226bcd3510b7c52b046c4cb5d6" target="_top" xlink:title="Returns a random connection.">
<polygon fill="none" stroke="black" points="288,-133.5 288,-152.5 389,-152.5 389,-133.5 288,-133.5"/>
<text text-anchor="middle" x="338.5" y="-140.5" font-family="Helvetica,sans-Serif" font-size="10.00">random_connection</text>
</a>
</g>
</g>
<!-- Node2&#45;&gt;Node5 -->
<g id="edge5" class="edge">
<title>Node2&#45;&gt;Node5</title>
<path fill="none" stroke="midnightblue" d="M227.01,-157.78C241.97,-155.78 260.36,-153.32 277.81,-150.99"/>
<polygon fill="midnightblue" stroke="midnightblue" points="278.5,-154.43 287.94,-149.63 277.57,-147.49 278.5,-154.43"/>
</g>
<!-- Node4&#45;&gt;Node3 -->
<g id="edge4" class="edge">
<title>Node4&#45;&gt;Node3</title>
<path fill="none" stroke="midnightblue" d="M523.22,-181C534.98,-181 547.74,-181 559.62,-181"/>
<polygon fill="midnightblue" stroke="midnightblue" points="559.78,-184.5 569.78,-181 559.78,-177.5 559.78,-184.5"/>
</g>
<!-- Node5&#45;&gt;Node3 -->
<g id="edge6" class="edge">
<title>Node5&#45;&gt;Node3</title>
<path fill="none" stroke="midnightblue" d="M389.24,-145.79C428.28,-148.49 483.89,-153.46 532,-162 542.22,-163.81 553.11,-166.31 563.28,-168.9"/>
<polygon fill="midnightblue" stroke="midnightblue" points="562.61,-172.34 573.17,-171.49 564.39,-165.57 562.61,-172.34"/>
</g>
<!-- Node5&#45;&gt;Node4 -->
<g id="edge7" class="edge">
<title>Node5&#45;&gt;Node4</title>
<path fill="none" stroke="midnightblue" d="M374.32,-152.59C392.14,-157.49 414.02,-163.52 433.04,-168.76"/>
<polygon fill="midnightblue" stroke="midnightblue" points="432.12,-172.13 442.69,-171.41 433.98,-165.38 432.12,-172.13"/>
</g>
<!-- Node7 -->
<g id="node7" class="node">
<title>Node7</title>
<g id="a_node7"><a xlink:href="utils_8h.html#a1c96b0520a47b6a4a106973bdbc9c871" target="_top" xlink:title="Returns an integer clamped within the specified range.">
<polygon fill="none" stroke="black" points="309,-95.5 309,-114.5 368,-114.5 368,-95.5 309,-95.5"/>
<text text-anchor="middle" x="338.5" y="-102.5" font-family="Helvetica,sans-Serif" font-size="10.00">clamp_int</text>
</a>
</g>
</g>
<!-- Node6&#45;&gt;Node7 -->
<g id="edge9" class="edge">
<title>Node6&#45;&gt;Node7</title>
<path fill="none" stroke="midnightblue" d="M252.03,-105C267.71,-105 284.38,-105 298.79,-105"/>
<polygon fill="midnightblue" stroke="midnightblue" points="298.84,-108.5 308.84,-105 298.84,-101.5 298.84,-108.5"/>
</g>
<!-- Node8 -->
<g id="node8" class="node">
<title>Node8</title>
<g id="a_node8"><a xlink:href="dgp_8c.html#aa77646399b1b3d18c38e1597008880e0" target="_top" xlink:title="Returns the current state of a specified node in the graph.">
<polygon fill="none" stroke="black" points="302,-57.5 302,-76.5 375,-76.5 375,-57.5 302,-57.5"/>
<text text-anchor="middle" x="338.5" y="-64.5" font-family="Helvetica,sans-Serif" font-size="10.00">graph_output</text>
</a>
</g>
</g>
<!-- Node6&#45;&gt;Node8 -->
<g id="edge10" class="edge">
<title>Node6&#45;&gt;Node8</title>
<path fill="none" stroke="midnightblue" d="M231.33,-95.41C249.66,-90.51 272.18,-84.48 291.75,-79.24"/>
<polygon fill="midnightblue" stroke="midnightblue" points="292.92,-82.55 301.68,-76.59 291.11,-75.79 292.92,-82.55"/>
</g>
<!-- Node9&#45;&gt;Node8 -->
<g id="edge12" class="edge">
<title>Node9&#45;&gt;Node8</title>
<path fill="none" stroke="midnightblue" d="M250.81,-67C264.33,-67 278.64,-67 291.66,-67"/>
<polygon fill="midnightblue" stroke="midnightblue" points="291.79,-70.5 301.79,-67 291.79,-63.5 291.79,-70.5"/>
</g>
<!-- Node10 -->
<g id="node10" class="node">
<title>Node10</title>
<g id="a_node10"><a xlink:href="dgp_8c.html#a91b113eb2798ad1b958d47184ebbf1fb" target="_top" xlink:title="Updates a DGP graph T cycles.">
<polygon fill="none" stroke="black" points="301,-19.5 301,-38.5 376,-38.5 376,-19.5 301,-19.5"/>
<text text-anchor="middle" x="338.5" y="-26.5" font-family="Helvetica,sans-Serif" font-size="10.00">graph_update</text>
</a>
</g>
</g>
<!-- Node9&#45;&gt;Node10 -->
<g id="edge13" class="edge">
<title>Node9&#45;&gt;Node10</title>
<path fill="none" stroke="midnightblue" d="M231.33,-57.41C249.66,-52.51 272.18,-46.48 291.75,-41.24"/>
<polygon fill="midnightblue" stroke="midnightblue" points="292.92,-44.55 301.68,-38.59 291.11,-37.79 292.92,-44.55"/>
</g>
<!-- Node11 -->
<g id="node11" class="node">
<title>Node11</title>
<g id="a_node11"><a xlink:href="dgp_8c.html#aee734e2659ea39d69c4fdd8f567ef63c" target="_top" xlink:title="Resets the states to their initial state.">
<polygon fill="none" stroke="black" points="444.5,-38.5 444.5,-57.5 512.5,-57.5 512.5,-38.5 444.5,-38.5"/>
<text text-anchor="middle" x="478.5" y="-45.5" font-family="Helvetica,sans-Serif" font-size="10.00">graph_reset</text>
</a>
</g>
</g>
<!-- Node10&#45;&gt;Node11 -->
<g id="edge14" class="edge">
<title>Node10&#45;&gt;Node11</title>
<path fill="none" stroke="midnightblue" d="M376.12,-34.04C394.04,-36.51 415.73,-39.5 434.44,-42.07"/>
<polygon fill="midnightblue" stroke="midnightblue" points="434.1,-45.56 444.49,-43.45 435.06,-38.62 434.1,-45.56"/>
</g>
<!-- Node12 -->
<g id="node12" class="node">
<title>Node12</title>
<g id="a_node12"><a xlink:href="dgp_8c.html#a3086c105976334ceda0e9b8e97964220" target="_top" xlink:title="Performs a synchronous update.">
<polygon fill="none" stroke="black" points="425,-0.5 425,-19.5 532,-19.5 532,-0.5 425,-0.5"/>
<text text-anchor="middle" x="478.5" y="-7.5" font-family="Helvetica,sans-Serif" font-size="10.00">synchronous_update</text>
</a>
</g>
</g>
<!-- Node10&#45;&gt;Node12 -->
<g id="edge15" class="edge">
<title>Node10&#45;&gt;Node12</title>
<path fill="none" stroke="midnightblue" d="M376.12,-23.96C388.02,-22.32 401.58,-20.45 414.83,-18.63"/>
<polygon fill="midnightblue" stroke="midnightblue" points="415.43,-22.08 424.86,-17.25 414.48,-15.14 415.43,-22.08"/>
</g>
<!-- Node13 -->
<g id="node13" class="node">
<title>Node13</title>
<g id="a_node13"><a xlink:href="dgp_8c.html#ace96d089b13bac9a14edeb6406b6d8cb" target="_top" xlink:title="Returns the result from applying a specified activation function.">
<polygon fill="none" stroke="black" points="568,-0.5 568,-19.5 645,-19.5 645,-0.5 568,-0.5"/>
<text text-anchor="middle" x="606.5" y="-7.5" font-family="Helvetica,sans-Serif" font-size="10.00">node_activate</text>
</a>
</g>
</g>
<!-- Node12&#45;&gt;Node13 -->
<g id="edge16" class="edge">
<title>Node12&#45;&gt;Node13</title>
<path fill="none" stroke="midnightblue" d="M532.21,-10C540.74,-10 549.53,-10 557.93,-10"/>
<polygon fill="midnightblue" stroke="midnightblue" points="557.95,-13.5 567.95,-10 557.95,-6.5 557.95,-13.5"/>
</g>
<!-- Node14 -->
<g id="node14" class="node">
<title>Node14</title>
<g id="a_node14"><a xlink:href="utils_8h.html#a234dd9ca33bcf1fba3e675bc900abc88" target="_top" xlink:title="Returns a float clamped within the specified range.">
<polygon fill="none" stroke="black" points="681,-0.5 681,-19.5 724,-19.5 724,-0.5 681,-0.5"/>
<text text-anchor="middle" x="702.5" y="-7.5" font-family="Helvetica,sans-Serif" font-size="10.00">clamp</text>
</a>
</g>
</g>
<!-- Node13&#45;&gt;Node14 -->
<g id="edge17" class="edge">
<title>Node13&#45;&gt;Node14</title>
<path fill="none" stroke="midnightblue" d="M645.19,-10C653.64,-10 662.52,-10 670.65,-10"/>
<polygon fill="midnightblue" stroke="midnightblue" points="670.83,-13.5 680.83,-10 670.83,-6.5 670.83,-13.5"/>
</g>
</g>
</svg>
