<?xml version="1.0" encoding="UTF-8" standalone="no"?>
<!DOCTYPE svg PUBLIC "-//W3C//DTD SVG 1.1//EN"
 "http://www.w3.org/Graphics/SVG/1.1/DTD/svg11.dtd">
<!-- Generated by graphviz version 2.43.0 (0)
 -->
<!-- Title: rule_neural_cond_free Pages: 1 -->
<svg width="316pt" height="28pt"
 viewBox="0.00 0.00 316.00 28.00" xmlns="http://www.w3.org/2000/svg" xmlns:xlink="http://www.w3.org/1999/xlink">
<g id="graph0" class="graph" transform="scale(1 1) rotate(0) translate(4 24)">
<title>rule_neural_cond_free</title>
<!-- Node1 -->
<g id="node1" class="node">
<title>Node1</title>
<g id="a_node1"><a xlink:title=" ">
<polygon fill="#bfbfbf" stroke="black" points="0,-0.5 0,-19.5 112,-19.5 112,-0.5 0,-0.5"/>
<text text-anchor="middle" x="56" y="-7.5" font-family="Helvetica,sans-Serif" font-size="10.00">rule_neural_cond_free</text>
</a>
</g>
</g>
<!-- Node2 -->
<g id="node2" class="node">
<title>Node2</title>
<g id="a_node2"><a xlink:href="neural_8c.html#a9c3e1da0425d0fc17daa12c21e4799ca" target="_top" xlink:title="Frees a neural network.">
<polygon fill="none" stroke="black" points="148,-0.5 148,-19.5 213,-19.5 213,-0.5 148,-0.5"/>
<text text-anchor="middle" x="180.5" y="-7.5" font-family="Helvetica,sans-Serif" font-size="10.00">neural_free</text>
</a>
</g>
</g>
<!-- Node1&#45;&gt;Node2 -->
<g id="edge1" class="edge">
<title>Node1&#45;&gt;Node2</title>
<path fill="none" stroke="midnightblue" d="M112.16,-10C120.73,-10 129.47,-10 137.68,-10"/>
<polygon fill="midnightblue" stroke="midnightblue" points="137.75,-13.5 147.75,-10 137.75,-6.5 137.75,-13.5"/>
</g>
<!-- Node3 -->
<g id="node3" class="node">
<title>Node3</title>
<g id="a_node3"><a xlink:href="neural__layer_8h.html#a5ea2541eb1936ed851001c4a8b99b08f" target="_top" xlink:title="Frees the memory used by the layer.">
<polygon fill="none" stroke="black" points="249,-0.5 249,-19.5 308,-19.5 308,-0.5 249,-0.5"/>
<text text-anchor="middle" x="278.5" y="-7.5" font-family="Helvetica,sans-Serif" font-size="10.00">layer_free</text>
</a>
</g>
</g>
<!-- Node2&#45;&gt;Node3 -->
<g id="edge2" class="edge">
<title>Node2&#45;&gt;Node3</title>
<path fill="none" stroke="midnightblue" d="M213.2,-10C221.35,-10 230.22,-10 238.69,-10"/>
<polygon fill="midnightblue" stroke="midnightblue" points="238.75,-13.5 248.75,-10 238.75,-6.5 238.75,-13.5"/>
</g>
</g>
</svg>
