<?xml version="1.0" encoding="UTF-8" standalone="no"?>
<!DOCTYPE svg PUBLIC "-//W3C//DTD SVG 1.1//EN"
 "http://www.w3.org/Graphics/SVG/1.1/DTD/svg11.dtd">
<!-- Generated by graphviz version 2.43.0 (0)
 -->
<!-- Title: rule_neural.c Pages: 1 -->
<svg width="1023pt" height="302pt"
 viewBox="0.00 0.00 1022.50 302.00" xmlns="http://www.w3.org/2000/svg" xmlns:xlink="http://www.w3.org/1999/xlink">
<g id="graph0" class="graph" transform="scale(1 1) rotate(0) translate(4 298)">
<title>rule_neural.c</title>
<!-- Node1 -->
<g id="Node000001" class="node">
<title>Node1</title>
<g id="a_Node000001"><a xlink:title="Neural network rule (condition + action) functions.">
<polygon fill="#999999" stroke="#666666" points="400,-294 328,-294 328,-275 400,-275 400,-294"/>
<text text-anchor="middle" x="364" y="-282" font-family="Helvetica,sans-Serif" font-size="10.00">rule_neural.c</text>
</a>
</g>
</g>
<!-- Node2 -->
<g id="Node000002" class="node">
<title>Node2</title>
<g id="a_Node000002"><a xlink:href="rule__neural_8h.html" target="_top" xlink:title="Neural network rule (condition + action) functions.">
<polygon fill="white" stroke="#666666" points="771,-239 699,-239 699,-220 771,-220 771,-239"/>
<text text-anchor="middle" x="735" y="-227" font-family="Helvetica,sans-Serif" font-size="10.00">rule_neural.h</text>
</a>
</g>
</g>
<!-- Node1&#45;&gt;Node2 -->
<g id="edge1_Node000001_Node000002" class="edge">
<title>Node1&#45;&gt;Node2</title>
<g id="a_edge1_Node000001_Node000002"><a xlink:title=" ">
<path fill="none" stroke="#63b8ff" d="M400.27,-279.16C458.79,-272.03 577.89,-256.97 688.67,-239.15"/>
<polygon fill="#63b8ff" stroke="#63b8ff" points="689.37,-242.58 698.68,-237.53 688.25,-235.67 689.37,-242.58"/>
</a>
</g>
</g>
<!-- Node5 -->
<g id="Node000005" class="node">
<title>Node5</title>
<g id="a_Node000005"><a xlink:href="utils_8h.html" target="_top" xlink:title="Utility functions for random number handling, etc.">
<polygon fill="white" stroke="#666666" points="341.5,-74 298.5,-74 298.5,-55 341.5,-55 341.5,-74"/>
<text text-anchor="middle" x="320" y="-62" font-family="Helvetica,sans-Serif" font-size="10.00">utils.h</text>
</a>
</g>
</g>
<!-- Node1&#45;&gt;Node5 -->
<g id="edge44_Node000001_Node000005" class="edge">
<title>Node1&#45;&gt;Node5</title>
<g id="a_edge44_Node000001_Node000005"><a xlink:title=" ">
<path fill="none" stroke="#63b8ff" d="M327.69,-281.29C272.82,-277.1 172.86,-265.9 151,-239 98.39,-174.26 228.81,-105.67 290.18,-78.07"/>
<polygon fill="#63b8ff" stroke="#63b8ff" points="291.66,-81.24 299.4,-74 288.84,-74.84 291.66,-81.24"/>
</a>
</g>
</g>
<!-- Node20 -->
<g id="Node000020" class="node">
<title>Node20</title>
<g id="a_Node000020"><a xlink:href="neural__activations_8h.html" target="_top" xlink:title="Neural network activation functions.">
<polygon fill="white" stroke="#666666" points="104,-184 0,-184 0,-165 104,-165 104,-184"/>
<text text-anchor="middle" x="52" y="-172" font-family="Helvetica,sans-Serif" font-size="10.00">neural_activations.h</text>
</a>
</g>
</g>
<!-- Node1&#45;&gt;Node20 -->
<g id="edge31_Node000001_Node000020" class="edge">
<title>Node1&#45;&gt;Node20</title>
<g id="a_edge31_Node000001_Node000020"><a xlink:title=" ">
<path fill="none" stroke="#63b8ff" d="M327.72,-283.39C277.82,-281.85 186.4,-273.96 118,-239 96.19,-227.85 76.73,-207.13 64.69,-192.39"/>
<polygon fill="#63b8ff" stroke="#63b8ff" points="67.13,-189.83 58.2,-184.13 61.62,-194.15 67.13,-189.83"/>
</a>
</g>
</g>
<!-- Node21 -->
<g id="Node000021" class="node">
<title>Node21</title>
<g id="a_Node000021"><a xlink:href="neural__layer__connected_8h.html" target="_top" xlink:title="An implementation of a fully&#45;connected layer of perceptrons.">
<polygon fill="white" stroke="#666666" points="428,-239 300,-239 300,-220 428,-220 428,-239"/>
<text text-anchor="middle" x="364" y="-227" font-family="Helvetica,sans-Serif" font-size="10.00">neural_layer_connected.h</text>
</a>
</g>
</g>
<!-- Node1&#45;&gt;Node21 -->
<g id="edge33_Node000001_Node000021" class="edge">
<title>Node1&#45;&gt;Node21</title>
<g id="a_edge33_Node000001_Node000021"><a xlink:title=" ">
<path fill="none" stroke="#63b8ff" d="M364,-274.75C364,-267.8 364,-257.85 364,-249.13"/>
<polygon fill="#63b8ff" stroke="#63b8ff" points="367.5,-249.09 364,-239.09 360.5,-249.09 367.5,-249.09"/>
</a>
</g>
</g>
<!-- Node24 -->
<g id="Node000024" class="node">
<title>Node24</title>
<g id="a_Node000024"><a xlink:href="neural__layer__dropout_8h.html" target="_top" xlink:title="An implementation of a dropout layer.">
<polygon fill="white" stroke="#666666" points="561.5,-239 446.5,-239 446.5,-220 561.5,-220 561.5,-239"/>
<text text-anchor="middle" x="504" y="-227" font-family="Helvetica,sans-Serif" font-size="10.00">neural_layer_dropout.h</text>
</a>
</g>
</g>
<!-- Node1&#45;&gt;Node24 -->
<g id="edge38_Node000001_Node000024" class="edge">
<title>Node1&#45;&gt;Node24</title>
<g id="a_edge38_Node000001_Node000024"><a xlink:title=" ">
<path fill="none" stroke="#63b8ff" d="M386.49,-274.98C409.52,-266.27 445.54,-252.63 471.63,-242.75"/>
<polygon fill="#63b8ff" stroke="#63b8ff" points="472.98,-245.98 481.1,-239.17 470.51,-239.44 472.98,-245.98"/>
</a>
</g>
</g>
<!-- Node25 -->
<g id="Node000025" class="node">
<title>Node25</title>
<g id="a_Node000025"><a xlink:href="neural__layer__lstm_8h.html" target="_top" xlink:title="An implementation of a long short&#45;term memory layer.">
<polygon fill="white" stroke="#666666" points="680.5,-239 579.5,-239 579.5,-220 680.5,-220 680.5,-239"/>
<text text-anchor="middle" x="630" y="-227" font-family="Helvetica,sans-Serif" font-size="10.00">neural_layer_lstm.h</text>
</a>
</g>
</g>
<!-- Node1&#45;&gt;Node25 -->
<g id="edge40_Node000001_Node000025" class="edge">
<title>Node1&#45;&gt;Node25</title>
<g id="a_edge40_Node000001_Node000025"><a xlink:title=" ">
<path fill="none" stroke="#63b8ff" d="M400.15,-276.3C445.83,-267.2 524.79,-251.46 577.22,-241.02"/>
<polygon fill="#63b8ff" stroke="#63b8ff" points="578.21,-244.39 587.33,-239 576.84,-237.52 578.21,-244.39"/>
</a>
</g>
</g>
<!-- Node26 -->
<g id="Node000026" class="node">
<title>Node26</title>
<g id="a_Node000026"><a xlink:href="neural__layer__recurrent_8h.html" target="_top" xlink:title="An implementation of a recurrent layer of perceptrons.">
<polygon fill="white" stroke="#666666" points="281.5,-239 160.5,-239 160.5,-220 281.5,-220 281.5,-239"/>
<text text-anchor="middle" x="221" y="-227" font-family="Helvetica,sans-Serif" font-size="10.00">neural_layer_recurrent.h</text>
</a>
</g>
</g>
<!-- Node1&#45;&gt;Node26 -->
<g id="edge42_Node000001_Node000026" class="edge">
<title>Node1&#45;&gt;Node26</title>
<g id="a_edge42_Node000001_Node000026"><a xlink:title=" ">
<path fill="none" stroke="#63b8ff" d="M341.02,-274.98C317.5,-266.27 280.71,-252.63 254.06,-242.75"/>
<polygon fill="#63b8ff" stroke="#63b8ff" points="254.99,-239.36 244.39,-239.17 252.55,-245.93 254.99,-239.36"/>
</a>
</g>
</g>
<!-- Node3 -->
<g id="Node000003" class="node">
<title>Node3</title>
<g id="a_Node000003"><a xlink:href="action_8h.html" target="_top" xlink:title="Interface for classifier actions.">
<polygon fill="white" stroke="#666666" points="812.5,-184 761.5,-184 761.5,-165 812.5,-165 812.5,-184"/>
<text text-anchor="middle" x="787" y="-172" font-family="Helvetica,sans-Serif" font-size="10.00">action.h</text>
</a>
</g>
</g>
<!-- Node2&#45;&gt;Node3 -->
<g id="edge2_Node000002_Node000003" class="edge">
<title>Node2&#45;&gt;Node3</title>
<g id="a_edge2_Node000002_Node000003"><a xlink:title=" ">
<path fill="none" stroke="#63b8ff" d="M743.59,-219.75C751.16,-212.03 762.38,-200.6 771.51,-191.28"/>
<polygon fill="#63b8ff" stroke="#63b8ff" points="774.07,-193.68 778.57,-184.09 769.07,-188.78 774.07,-193.68"/>
</a>
</g>
</g>
<!-- Node4 -->
<g id="Node000004" class="node">
<title>Node4</title>
<g id="a_Node000004"><a xlink:href="xcsf_8h.html" target="_top" xlink:title="XCSF data structures.">
<polygon fill="white" stroke="#666666" points="752,-129 708,-129 708,-110 752,-110 752,-129"/>
<text text-anchor="middle" x="730" y="-117" font-family="Helvetica,sans-Serif" font-size="10.00">xcsf.h</text>
</a>
</g>
</g>
<!-- Node2&#45;&gt;Node4 -->
<g id="edge30_Node000002_Node000004" class="edge">
<title>Node2&#45;&gt;Node4</title>
<g id="a_edge30_Node000002_Node000004"><a xlink:title=" ">
<path fill="none" stroke="#63b8ff" d="M734.59,-219.66C733.78,-202.17 731.96,-162.8 730.87,-139.27"/>
<polygon fill="#63b8ff" stroke="#63b8ff" points="734.36,-138.99 730.4,-129.16 727.37,-139.31 734.36,-138.99"/>
</a>
</g>
</g>
<!-- Node18 -->
<g id="Node000018" class="node">
<title>Node18</title>
<g id="a_Node000018"><a xlink:href="condition_8h.html" target="_top" xlink:title="Interface for classifier conditions.">
<polygon fill="white" stroke="#666666" points="705,-184 641,-184 641,-165 705,-165 705,-184"/>
<text text-anchor="middle" x="673" y="-172" font-family="Helvetica,sans-Serif" font-size="10.00">condition.h</text>
</a>
</g>
</g>
<!-- Node2&#45;&gt;Node18 -->
<g id="edge21_Node000002_Node000018" class="edge">
<title>Node2&#45;&gt;Node18</title>
<g id="a_edge21_Node000002_Node000018"><a xlink:title=" ">
<path fill="none" stroke="#63b8ff" d="M725.04,-219.98C715.87,-212.15 702.06,-200.34 690.97,-190.86"/>
<polygon fill="#63b8ff" stroke="#63b8ff" points="693.02,-188.01 683.14,-184.17 688.47,-193.33 693.02,-188.01"/>
</a>
</g>
</g>
<!-- Node19 -->
<g id="Node000019" class="node">
<title>Node19</title>
<g id="a_Node000019"><a xlink:href="neural_8h.html" target="_top" xlink:title="An implementation of a multi&#45;layer perceptron neural network.">
<polygon fill="white" stroke="#666666" points="463.5,-129 412.5,-129 412.5,-110 463.5,-110 463.5,-129"/>
<text text-anchor="middle" x="438" y="-117" font-family="Helvetica,sans-Serif" font-size="10.00">neural.h</text>
</a>
</g>
</g>
<!-- Node2&#45;&gt;Node19 -->
<g id="edge23_Node000002_Node000019" class="edge">
<title>Node2&#45;&gt;Node19</title>
<g id="a_edge23_Node000002_Node000019"><a xlink:title=" ">
<path fill="none" stroke="#63b8ff" d="M711.45,-219.94C658.81,-200.79 531.53,-154.51 471.02,-132.51"/>
<polygon fill="#63b8ff" stroke="#63b8ff" points="472.15,-129.19 461.56,-129.07 469.76,-135.77 472.15,-129.19"/>
</a>
</g>
</g>
<!-- Node3&#45;&gt;Node4 -->
<g id="edge3_Node000003_Node000004" class="edge">
<title>Node3&#45;&gt;Node4</title>
<g id="a_edge3_Node000003_Node000004"><a xlink:title=" ">
<path fill="none" stroke="#63b8ff" d="M777.84,-164.98C769.5,-157.23 756.97,-145.58 746.82,-136.14"/>
<polygon fill="#63b8ff" stroke="#63b8ff" points="749.03,-133.42 739.32,-129.17 744.26,-138.54 749.03,-133.42"/>
</a>
</g>
</g>
<!-- Node4&#45;&gt;Node5 -->
<g id="edge4_Node000004_Node000005" class="edge">
<title>Node4&#45;&gt;Node5</title>
<g id="a_edge4_Node000004_Node000005"><a xlink:title=" ">
<path fill="none" stroke="#63b8ff" d="M707.96,-115.65C639.67,-106.82 431.43,-79.9 351.61,-69.59"/>
<polygon fill="#63b8ff" stroke="#63b8ff" points="352.02,-66.11 341.65,-68.3 351.12,-73.05 352.02,-66.11"/>
</a>
</g>
</g>
<!-- Node8 -->
<g id="Node000008" class="node">
<title>Node8</title>
<g id="a_Node000008"><a xlink:title=" ">
<polygon fill="#e0e0e0" stroke="#999999" points="110.5,-19 63.5,-19 63.5,0 110.5,0 110.5,-19"/>
<text text-anchor="middle" x="87" y="-7" font-family="Helvetica,sans-Serif" font-size="10.00">math.h</text>
</a>
</g>
</g>
<!-- Node4&#45;&gt;Node8 -->
<g id="edge15_Node000004_Node000008" class="edge">
<title>Node4&#45;&gt;Node8</title>
<g id="a_edge15_Node000004_Node000008"><a xlink:title=" ">
<path fill="none" stroke="#63b8ff" d="M724.53,-110C714.77,-95.67 692.82,-67.1 666,-55 557.97,-6.28 255.93,-36.61 120.89,-18.67"/>
<polygon fill="#63b8ff" stroke="#63b8ff" points="121.08,-15.16 110.68,-17.16 120.06,-22.08 121.08,-15.16"/>
</a>
</g>
</g>
<!-- Node9 -->
<g id="Node000009" class="node">
<title>Node9</title>
<g id="a_Node000009"><a xlink:title=" ">
<polygon fill="#e0e0e0" stroke="#999999" points="449,-19 393,-19 393,0 449,0 449,-19"/>
<text text-anchor="middle" x="421" y="-7" font-family="Helvetica,sans-Serif" font-size="10.00">stdbool.h</text>
</a>
</g>
</g>
<!-- Node4&#45;&gt;Node9 -->
<g id="edge16_Node000004_Node000009" class="edge">
<title>Node4&#45;&gt;Node9</title>
<g id="a_edge16_Node000004_Node000009"><a xlink:title=" ">
<path fill="none" stroke="#63b8ff" d="M728.44,-109.88C725.43,-95.9 717.4,-68.49 699,-55 614.21,7.14 567.21,-36.41 459.19,-18.97"/>
<polygon fill="#63b8ff" stroke="#63b8ff" points="459.69,-15.51 449.23,-17.22 458.48,-22.4 459.69,-15.51"/>
</a>
</g>
</g>
<!-- Node10 -->
<g id="Node000010" class="node">
<title>Node10</title>
<g id="a_Node000010"><a xlink:title=" ">
<polygon fill="#e0e0e0" stroke="#999999" points="513,-19 467,-19 467,0 513,0 513,-19"/>
<text text-anchor="middle" x="490" y="-7" font-family="Helvetica,sans-Serif" font-size="10.00">stdio.h</text>
</a>
</g>
</g>
<!-- Node4&#45;&gt;Node10 -->
<g id="edge18_Node000004_Node000010" class="edge">
<title>Node4&#45;&gt;Node10</title>
<g id="a_edge18_Node000004_Node000010"><a xlink:title=" ">
<path fill="none" stroke="#63b8ff" d="M734.48,-109.95C740.8,-96.57 750.19,-70.58 737,-55 707.41,-20.05 583.95,-28.15 522.94,-18.71"/>
<polygon fill="#63b8ff" stroke="#63b8ff" points="523.48,-15.25 513.01,-16.89 522.21,-22.14 523.48,-15.25"/>
</a>
</g>
</g>
<!-- Node11 -->
<g id="Node000011" class="node">
<title>Node11</title>
<g id="a_Node000011"><a xlink:title=" ">
<polygon fill="#e0e0e0" stroke="#999999" points="579,-19 531,-19 531,0 579,0 579,-19"/>
<text text-anchor="middle" x="555" y="-7" font-family="Helvetica,sans-Serif" font-size="10.00">stdlib.h</text>
</a>
</g>
</g>
<!-- Node4&#45;&gt;Node11 -->
<g id="edge19_Node000004_Node000011" class="edge">
<title>Node4&#45;&gt;Node11</title>
<g id="a_edge19_Node000004_Node000011"><a xlink:title=" ">
<path fill="none" stroke="#63b8ff" d="M743.92,-109.8C762.21,-97.31 790.31,-73.72 775,-55 751.94,-26.81 645.23,-16.06 589.35,-12.31"/>
<polygon fill="#63b8ff" stroke="#63b8ff" points="589.41,-8.81 579.21,-11.67 588.97,-15.8 589.41,-8.81"/>
</a>
</g>
</g>
<!-- Node12 -->
<g id="Node000012" class="node">
<title>Node12</title>
<g id="a_Node000012"><a xlink:title=" ">
<polygon fill="#e0e0e0" stroke="#999999" points="874.5,-74 827.5,-74 827.5,-55 874.5,-55 874.5,-74"/>
<text text-anchor="middle" x="851" y="-62" font-family="Helvetica,sans-Serif" font-size="10.00">errno.h</text>
</a>
</g>
</g>
<!-- Node4&#45;&gt;Node12 -->
<g id="edge11_Node000004_Node000012" class="edge">
<title>Node4&#45;&gt;Node12</title>
<g id="a_edge11_Node000004_Node000012"><a xlink:title=" ">
<path fill="none" stroke="#63b8ff" d="M749.44,-109.98C768.99,-101.42 799.38,-88.11 821.82,-78.28"/>
<polygon fill="#63b8ff" stroke="#63b8ff" points="823.45,-81.39 831.21,-74.17 820.64,-74.98 823.45,-81.39"/>
</a>
</g>
</g>
<!-- Node13 -->
<g id="Node000013" class="node">
<title>Node13</title>
<g id="a_Node000013"><a xlink:title=" ">
<polygon fill="#e0e0e0" stroke="#999999" points="937,-74 893,-74 893,-55 937,-55 937,-74"/>
<text text-anchor="middle" x="915" y="-62" font-family="Helvetica,sans-Serif" font-size="10.00">float.h</text>
</a>
</g>
</g>
<!-- Node4&#45;&gt;Node13 -->
<g id="edge12_Node000004_Node000013" class="edge">
<title>Node4&#45;&gt;Node13</title>
<g id="a_edge12_Node000004_Node000013"><a xlink:title=" ">
<path fill="none" stroke="#63b8ff" d="M752.32,-112.11C784.91,-102.77 845.69,-85.36 883.03,-74.66"/>
<polygon fill="#63b8ff" stroke="#63b8ff" points="884.24,-77.95 892.89,-71.83 882.32,-71.22 884.24,-77.95"/>
</a>
</g>
</g>
<!-- Node14 -->
<g id="Node000014" class="node">
<title>Node14</title>
<g id="a_Node000014"><a xlink:title=" ">
<polygon fill="#e0e0e0" stroke="#999999" points="1014.5,-74 955.5,-74 955.5,-55 1014.5,-55 1014.5,-74"/>
<text text-anchor="middle" x="985" y="-62" font-family="Helvetica,sans-Serif" font-size="10.00">inttypes.h</text>
</a>
</g>
</g>
<!-- Node4&#45;&gt;Node14 -->
<g id="edge13_Node000004_Node000014" class="edge">
<title>Node4&#45;&gt;Node14</title>
<g id="a_edge13_Node000004_Node000014"><a xlink:title=" ">
<path fill="none" stroke="#63b8ff" d="M752.09,-114.03C789.61,-106.43 868.39,-90.39 945.34,-74.12"/>
<polygon fill="#63b8ff" stroke="#63b8ff" points="946.14,-77.53 955.2,-72.03 944.69,-70.68 946.14,-77.53"/>
</a>
</g>
</g>
<!-- Node15 -->
<g id="Node000015" class="node">
<title>Node15</title>
<g id="a_Node000015"><a xlink:title=" ">
<polygon fill="#e0e0e0" stroke="#999999" points="657,-74 609,-74 609,-55 657,-55 657,-74"/>
<text text-anchor="middle" x="633" y="-62" font-family="Helvetica,sans-Serif" font-size="10.00">limits.h</text>
</a>
</g>
</g>
<!-- Node4&#45;&gt;Node15 -->
<g id="edge14_Node000004_Node000015" class="edge">
<title>Node4&#45;&gt;Node15</title>
<g id="a_edge14_Node000004_Node000015"><a xlink:title=" ">
<path fill="none" stroke="#63b8ff" d="M714.42,-109.98C699.23,-101.69 675.9,-88.94 658.1,-79.22"/>
<polygon fill="#63b8ff" stroke="#63b8ff" points="659.32,-75.89 648.87,-74.17 655.97,-82.04 659.32,-75.89"/>
</a>
</g>
</g>
<!-- Node16 -->
<g id="Node000016" class="node">
<title>Node16</title>
<g id="a_Node000016"><a xlink:title=" ">
<polygon fill="#e0e0e0" stroke="#999999" points="523.5,-74 474.5,-74 474.5,-55 523.5,-55 523.5,-74"/>
<text text-anchor="middle" x="499" y="-62" font-family="Helvetica,sans-Serif" font-size="10.00">stdint.h</text>
</a>
</g>
</g>
<!-- Node4&#45;&gt;Node16 -->
<g id="edge17_Node000004_Node000016" class="edge">
<title>Node4&#45;&gt;Node16</title>
<g id="a_edge17_Node000004_Node000016"><a xlink:title=" ">
<path fill="none" stroke="#63b8ff" d="M707.97,-113.78C673.08,-106.26 602.71,-90.89 533.97,-74.42"/>
<polygon fill="#63b8ff" stroke="#63b8ff" points="534.39,-70.92 523.85,-71.99 532.75,-77.73 534.39,-70.92"/>
</a>
</g>
</g>
<!-- Node17 -->
<g id="Node000017" class="node">
<title>Node17</title>
<g id="a_Node000017"><a xlink:title=" ">
<polygon fill="#e0e0e0" stroke="#999999" points="590.5,-74 541.5,-74 541.5,-55 590.5,-55 590.5,-74"/>
<text text-anchor="middle" x="566" y="-62" font-family="Helvetica,sans-Serif" font-size="10.00">string.h</text>
</a>
</g>
</g>
<!-- Node4&#45;&gt;Node17 -->
<g id="edge20_Node000004_Node000017" class="edge">
<title>Node4&#45;&gt;Node17</title>
<g id="a_edge20_Node000004_Node000017"><a xlink:title=" ">
<path fill="none" stroke="#63b8ff" d="M707.88,-111.35C680.23,-102.42 632.6,-87.02 600.22,-76.56"/>
<polygon fill="#63b8ff" stroke="#63b8ff" points="601.3,-73.23 590.71,-73.48 599.15,-79.89 601.3,-73.23"/>
</a>
</g>
</g>
<!-- Node6 -->
<g id="Node000006" class="node">
<title>Node6</title>
<g id="a_Node000006"><a xlink:title=" ">
<polygon fill="#e0e0e0" stroke="#999999" points="243,-19 129,-19 129,0 243,0 243,-19"/>
<text text-anchor="middle" x="186" y="-7" font-family="Helvetica,sans-Serif" font-size="10.00">../lib/cJSON/cJSON.h</text>
</a>
</g>
</g>
<!-- Node5&#45;&gt;Node6 -->
<g id="edge5_Node000005_Node000006" class="edge">
<title>Node5&#45;&gt;Node6</title>
<g id="a_edge5_Node000005_Node000006"><a xlink:title=" ">
<path fill="none" stroke="#63b8ff" d="M298.47,-54.98C276.53,-46.3 242.26,-32.75 217.31,-22.88"/>
<polygon fill="#63b8ff" stroke="#63b8ff" points="218.51,-19.59 207.92,-19.17 215.93,-26.1 218.51,-19.59"/>
</a>
</g>
</g>
<!-- Node7 -->
<g id="Node000007" class="node">
<title>Node7</title>
<g id="a_Node000007"><a xlink:title=" ">
<polygon fill="#e0e0e0" stroke="#999999" points="374.5,-19 261.5,-19 261.5,0 374.5,0 374.5,-19"/>
<text text-anchor="middle" x="318" y="-7" font-family="Helvetica,sans-Serif" font-size="10.00">../lib/dSFMT/dSFMT.h</text>
</a>
</g>
</g>
<!-- Node5&#45;&gt;Node7 -->
<g id="edge6_Node000005_Node000007" class="edge">
<title>Node5&#45;&gt;Node7</title>
<g id="a_edge6_Node000005_Node000007"><a xlink:title=" ">
<path fill="none" stroke="#63b8ff" d="M319.67,-54.75C319.41,-47.8 319.03,-37.85 318.7,-29.13"/>
<polygon fill="#63b8ff" stroke="#63b8ff" points="322.2,-28.95 318.32,-19.09 315.2,-29.21 322.2,-28.95"/>
</a>
</g>
</g>
<!-- Node5&#45;&gt;Node8 -->
<g id="edge7_Node000005_Node000008" class="edge">
<title>Node5&#45;&gt;Node8</title>
<g id="a_edge7_Node000005_Node000008"><a xlink:title=" ">
<path fill="none" stroke="#63b8ff" d="M298.34,-58.93C263.24,-51.46 191.51,-35.99 120.74,-19.11"/>
<polygon fill="#63b8ff" stroke="#63b8ff" points="121.31,-15.65 110.77,-16.72 119.68,-22.46 121.31,-15.65"/>
</a>
</g>
</g>
<!-- Node5&#45;&gt;Node9 -->
<g id="edge8_Node000005_Node000009" class="edge">
<title>Node5&#45;&gt;Node9</title>
<g id="a_edge8_Node000005_Node000009"><a xlink:title=" ">
<path fill="none" stroke="#63b8ff" d="M336.23,-54.98C352.18,-46.61 376.78,-33.7 395.38,-23.95"/>
<polygon fill="#63b8ff" stroke="#63b8ff" points="397.25,-26.92 404.48,-19.17 394,-20.72 397.25,-26.92"/>
</a>
</g>
</g>
<!-- Node5&#45;&gt;Node10 -->
<g id="edge9_Node000005_Node000010" class="edge">
<title>Node5&#45;&gt;Node10</title>
<g id="a_edge9_Node000005_Node000010"><a xlink:title=" ">
<path fill="none" stroke="#63b8ff" d="M341.53,-56.79C370.6,-47.73 422.67,-31.49 456.78,-20.86"/>
<polygon fill="#63b8ff" stroke="#63b8ff" points="458.24,-24.07 466.74,-17.75 456.15,-17.39 458.24,-24.07"/>
</a>
</g>
</g>
<!-- Node5&#45;&gt;Node11 -->
<g id="edge10_Node000005_Node000011" class="edge">
<title>Node5&#45;&gt;Node11</title>
<g id="a_edge10_Node000005_Node000011"><a xlink:title=" ">
<path fill="none" stroke="#63b8ff" d="M341.58,-59.01C376.93,-51.59 449.59,-36.12 520.83,-19.21"/>
<polygon fill="#63b8ff" stroke="#63b8ff" points="521.96,-22.54 530.87,-16.82 520.33,-15.73 521.96,-22.54"/>
</a>
</g>
</g>
<!-- Node18&#45;&gt;Node4 -->
<g id="edge22_Node000018_Node000004" class="edge">
<title>Node18&#45;&gt;Node4</title>
<g id="a_edge22_Node000018_Node000004"><a xlink:title=" ">
<path fill="none" stroke="#63b8ff" d="M682.16,-164.98C690.5,-157.23 703.03,-145.58 713.18,-136.14"/>
<polygon fill="#63b8ff" stroke="#63b8ff" points="715.74,-138.54 720.68,-129.17 710.97,-133.42 715.74,-138.54"/>
</a>
</g>
</g>
<!-- Node19&#45;&gt;Node5 -->
<g id="edge24_Node000019_Node000005" class="edge">
<title>Node19&#45;&gt;Node5</title>
<g id="a_edge24_Node000019_Node000005"><a xlink:title=" ">
<path fill="none" stroke="#63b8ff" d="M419.04,-109.98C399.97,-101.42 370.34,-88.11 348.45,-78.28"/>
<polygon fill="#63b8ff" stroke="#63b8ff" points="349.86,-75.07 339.3,-74.17 346.99,-81.46 349.86,-75.07"/>
</a>
</g>
</g>
<!-- Node19&#45;&gt;Node9 -->
<g id="edge25_Node000019_Node000009" class="edge">
<title>Node19&#45;&gt;Node9</title>
<g id="a_edge25_Node000019_Node000009"><a xlink:title=" ">
<path fill="none" stroke="#63b8ff" d="M425.22,-110C414.61,-102.1 400.28,-89.27 394,-74 387.42,-57.97 396.89,-39.79 406.38,-27"/>
<polygon fill="#63b8ff" stroke="#63b8ff" points="409.19,-29.08 412.75,-19.1 403.75,-24.68 409.19,-29.08"/>
</a>
</g>
</g>
<!-- Node19&#45;&gt;Node10 -->
<g id="edge27_Node000019_Node000010" class="edge">
<title>Node19&#45;&gt;Node10</title>
<g id="a_edge27_Node000019_Node000010"><a xlink:title=" ">
<path fill="none" stroke="#63b8ff" d="M434.4,-109.76C429.73,-97.01 423.18,-72.88 432,-55 438.49,-41.85 450.93,-31.5 462.64,-24.11"/>
<polygon fill="#63b8ff" stroke="#63b8ff" points="464.46,-27.1 471.33,-19.03 460.93,-21.05 464.46,-27.1"/>
</a>
</g>
</g>
<!-- Node19&#45;&gt;Node11 -->
<g id="edge28_Node000019_Node000011" class="edge">
<title>Node19&#45;&gt;Node11</title>
<g id="a_edge28_Node000019_Node000011"><a xlink:title=" ">
<path fill="none" stroke="#63b8ff" d="M439.71,-109.62C442.7,-96.26 450.03,-70.85 465,-55 480.22,-38.89 502.52,-27.8 521.12,-20.73"/>
<polygon fill="#63b8ff" stroke="#63b8ff" points="522.48,-23.95 530.72,-17.29 520.13,-17.36 522.48,-23.95"/>
</a>
</g>
</g>
<!-- Node19&#45;&gt;Node16 -->
<g id="edge26_Node000019_Node000016" class="edge">
<title>Node19&#45;&gt;Node16</title>
<g id="a_edge26_Node000019_Node000016"><a xlink:title=" ">
<path fill="none" stroke="#63b8ff" d="M447.8,-109.98C456.82,-102.15 470.41,-90.34 481.32,-80.86"/>
<polygon fill="#63b8ff" stroke="#63b8ff" points="483.77,-83.37 489.02,-74.17 479.18,-78.09 483.77,-83.37"/>
</a>
</g>
</g>
<!-- Node19&#45;&gt;Node17 -->
<g id="edge29_Node000019_Node000017" class="edge">
<title>Node19&#45;&gt;Node17</title>
<g id="a_edge29_Node000019_Node000017"><a xlink:title=" ">
<path fill="none" stroke="#63b8ff" d="M458.57,-109.98C479.43,-101.34 511.97,-87.87 535.77,-78.02"/>
<polygon fill="#63b8ff" stroke="#63b8ff" points="537.16,-81.23 545.06,-74.17 534.48,-74.76 537.16,-81.23"/>
</a>
</g>
</g>
<!-- Node20&#45;&gt;Node8 -->
<g id="edge32_Node000020_Node000008" class="edge">
<title>Node20&#45;&gt;Node8</title>
<g id="a_edge32_Node000020_Node000008"><a xlink:title=" ">
<path fill="none" stroke="#63b8ff" d="M53.88,-164.74C59.37,-139.2 75.42,-64.43 82.98,-29.23"/>
<polygon fill="#63b8ff" stroke="#63b8ff" points="86.43,-29.82 85.11,-19.31 79.59,-28.35 86.43,-29.82"/>
</a>
</g>
</g>
<!-- Node22 -->
<g id="Node000022" class="node">
<title>Node22</title>
<g id="a_Node000022"><a xlink:href="neural__layer_8h.html" target="_top" xlink:title="Interface for neural network layers.">
<polygon fill="white" stroke="#666666" points="439.5,-184 362.5,-184 362.5,-165 439.5,-165 439.5,-184"/>
<text text-anchor="middle" x="401" y="-172" font-family="Helvetica,sans-Serif" font-size="10.00">neural_layer.h</text>
</a>
</g>
</g>
<!-- Node21&#45;&gt;Node22 -->
<g id="edge34_Node000021_Node000022" class="edge">
<title>Node21&#45;&gt;Node22</title>
<g id="a_edge34_Node000021_Node000022"><a xlink:title=" ">
<path fill="none" stroke="#63b8ff" d="M370.11,-219.75C375.28,-212.34 382.85,-201.5 389.19,-192.41"/>
<polygon fill="#63b8ff" stroke="#63b8ff" points="392.15,-194.29 395,-184.09 386.41,-190.29 392.15,-194.29"/>
</a>
</g>
</g>
<!-- Node22&#45;&gt;Node19 -->
<g id="edge35_Node000022_Node000019" class="edge">
<title>Node22&#45;&gt;Node19</title>
<g id="a_edge35_Node000022_Node000019"><a xlink:title=" ">
<path fill="none" stroke="#63b8ff" d="M407.11,-164.75C412.28,-157.34 419.85,-146.5 426.19,-137.41"/>
<polygon fill="#63b8ff" stroke="#63b8ff" points="429.15,-139.29 432,-129.09 423.41,-135.29 429.15,-139.29"/>
</a>
</g>
</g>
<!-- Node23 -->
<g id="Node000023" class="node">
<title>Node23</title>
<g id="a_Node000023"><a xlink:href="neural__layer__args_8h.html" target="_top" xlink:title="Functions operating on neural network arguments/constants.">
<polygon fill="white" stroke="#666666" points="378.5,-129 277.5,-129 277.5,-110 378.5,-110 378.5,-129"/>
<text text-anchor="middle" x="328" y="-117" font-family="Helvetica,sans-Serif" font-size="10.00">neural_layer_args.h</text>
</a>
</g>
</g>
<!-- Node22&#45;&gt;Node23 -->
<g id="edge36_Node000022_Node000023" class="edge">
<title>Node22&#45;&gt;Node23</title>
<g id="a_edge36_Node000022_Node000023"><a xlink:title=" ">
<path fill="none" stroke="#63b8ff" d="M389.27,-164.98C378.27,-157 361.58,-144.88 348.4,-135.31"/>
<polygon fill="#63b8ff" stroke="#63b8ff" points="350.09,-132.21 339.94,-129.17 345.98,-137.88 350.09,-132.21"/>
</a>
</g>
</g>
<!-- Node23&#45;&gt;Node5 -->
<g id="edge37_Node000023_Node000005" class="edge">
<title>Node23&#45;&gt;Node5</title>
<g id="a_edge37_Node000023_Node000005"><a xlink:title=" ">
<path fill="none" stroke="#63b8ff" d="M326.68,-109.75C325.63,-102.8 324.13,-92.85 322.81,-84.13"/>
<polygon fill="#63b8ff" stroke="#63b8ff" points="326.25,-83.45 321.3,-74.09 319.33,-84.5 326.25,-83.45"/>
</a>
</g>
</g>
<!-- Node24&#45;&gt;Node22 -->
<g id="edge39_Node000024_Node000022" class="edge">
<title>Node24&#45;&gt;Node22</title>
<g id="a_edge39_Node000024_Node000022"><a xlink:title=" ">
<path fill="none" stroke="#63b8ff" d="M487.45,-219.98C471.11,-211.57 445.87,-198.59 426.87,-188.81"/>
<polygon fill="#63b8ff" stroke="#63b8ff" points="428.34,-185.63 417.85,-184.17 425.14,-191.86 428.34,-185.63"/>
</a>
</g>
</g>
<!-- Node25&#45;&gt;Node22 -->
<g id="edge41_Node000025_Node000022" class="edge">
<title>Node25&#45;&gt;Node22</title>
<g id="a_edge41_Node000025_Node000022"><a xlink:title=" ">
<path fill="none" stroke="#63b8ff" d="M593.21,-219.98C553.76,-210.86 491.02,-196.33 448.02,-186.38"/>
<polygon fill="#63b8ff" stroke="#63b8ff" points="448.61,-182.93 438.08,-184.08 447.03,-189.75 448.61,-182.93"/>
</a>
</g>
</g>
<!-- Node26&#45;&gt;Node22 -->
<g id="edge43_Node000026_Node000022" class="edge">
<title>Node26&#45;&gt;Node22</title>
<g id="a_edge43_Node000026_Node000022"><a xlink:title=" ">
<path fill="none" stroke="#63b8ff" d="M249.92,-219.98C280.27,-211.05 328.17,-196.94 361.88,-187.02"/>
<polygon fill="#63b8ff" stroke="#63b8ff" points="363.25,-190.26 371.85,-184.08 361.27,-183.55 363.25,-190.26"/>
</a>
</g>
</g>
</g>
</svg>
