<?xml version="1.0" encoding="UTF-8" standalone="no"?>
<!DOCTYPE svg PUBLIC "-//W3C//DTD SVG 1.1//EN"
 "http://www.w3.org/Graphics/SVG/1.1/DTD/svg11.dtd">
<!-- Generated by graphviz version 2.43.0 (0)
 -->
<!-- Title: rule_dgp_cond_print Pages: 1 -->
<svg width="499pt" height="39pt"
 viewBox="0.00 0.00 499.00 39.00" xmlns="http://www.w3.org/2000/svg" xmlns:xlink="http://www.w3.org/1999/xlink">
<g id="graph0" class="graph" transform="scale(1 1) rotate(0) translate(4 35)">
<title>rule_dgp_cond_print</title>
<!-- Node1 -->
<g id="node1" class="node">
<title>Node1</title>
<g id="a_node1"><a xlink:title=" ">
<polygon fill="#bfbfbf" stroke="black" points="0,-6 0,-25 104,-25 104,-6 0,-6"/>
<text text-anchor="middle" x="52" y="-13" font-family="Helvetica,sans-Serif" font-size="10.00">rule_dgp_cond_print</text>
</a>
</g>
</g>
<!-- Node2 -->
<g id="node2" class="node">
<title>Node2</title>
<g id="a_node2"><a xlink:href="rule__dgp_8c.html#a9cca032fdd71deb251dd7261a7edbde5" target="_top" xlink:title=" ">
<polygon fill="none" stroke="black" points="140,-0.5 140,-30.5 243,-30.5 243,-0.5 140,-0.5"/>
<text text-anchor="start" x="148" y="-18.5" font-family="Helvetica,sans-Serif" font-size="10.00">rule_dgp_cond_json</text>
<text text-anchor="middle" x="191.5" y="-7.5" font-family="Helvetica,sans-Serif" font-size="10.00">_export</text>
</a>
</g>
</g>
<!-- Node1&#45;&gt;Node2 -->
<g id="edge1" class="edge">
<title>Node1&#45;&gt;Node2</title>
<path fill="none" stroke="midnightblue" d="M104.2,-15.5C112.45,-15.5 121.06,-15.5 129.52,-15.5"/>
<polygon fill="midnightblue" stroke="midnightblue" points="129.72,-19 139.72,-15.5 129.72,-12 129.72,-19"/>
</g>
<!-- Node3 -->
<g id="node3" class="node">
<title>Node3</title>
<g id="a_node3"><a xlink:href="dgp_8c.html#a8077f8c0f7927dd2e91abbf7aafd6349" target="_top" xlink:title="Returns a json formatted string representation of a DGP graph.">
<polygon fill="none" stroke="black" points="279,-6 279,-25 375,-25 375,-6 279,-6"/>
<text text-anchor="middle" x="327" y="-13" font-family="Helvetica,sans-Serif" font-size="10.00">graph_json_export</text>
</a>
</g>
</g>
<!-- Node2&#45;&gt;Node3 -->
<g id="edge2" class="edge">
<title>Node2&#45;&gt;Node3</title>
<path fill="none" stroke="midnightblue" d="M243.35,-15.5C251.63,-15.5 260.25,-15.5 268.67,-15.5"/>
<polygon fill="midnightblue" stroke="midnightblue" points="268.8,-19 278.8,-15.5 268.8,-12 268.8,-19"/>
</g>
<!-- Node4 -->
<g id="node4" class="node">
<title>Node4</title>
<g id="a_node4"><a xlink:href="dgp_8c.html#adacd704e517eabb4de2b9c586169ad45" target="_top" xlink:title="Returns the name of a specified node function.">
<polygon fill="none" stroke="black" points="411,-6 411,-25 491,-25 491,-6 411,-6"/>
<text text-anchor="middle" x="451" y="-13" font-family="Helvetica,sans-Serif" font-size="10.00">function_string</text>
</a>
</g>
</g>
<!-- Node3&#45;&gt;Node4 -->
<g id="edge3" class="edge">
<title>Node3&#45;&gt;Node4</title>
<path fill="none" stroke="midnightblue" d="M375.17,-15.5C383.56,-15.5 392.32,-15.5 400.76,-15.5"/>
<polygon fill="midnightblue" stroke="midnightblue" points="400.86,-19 410.86,-15.5 400.86,-12 400.86,-19"/>
</g>
</g>
</svg>
