<?xml version="1.0" encoding="UTF-8" standalone="no"?>
<!DOCTYPE svg PUBLIC "-//W3C//DTD SVG 1.1//EN"
 "http://www.w3.org/Graphics/SVG/1.1/DTD/svg11.dtd">
<!-- Generated by graphviz version 2.43.0 (0)
 -->
<!-- Title: rule_neural_cond_copy Pages: 1 -->
<svg width="442pt" height="104pt"
 viewBox="0.00 0.00 442.00 104.00" xmlns="http://www.w3.org/2000/svg" xmlns:xlink="http://www.w3.org/1999/xlink">
<g id="graph0" class="graph" transform="scale(1 1) rotate(0) translate(4 100)">
<title>rule_neural_cond_copy</title>
<!-- Node1 -->
<g id="node1" class="node">
<title>Node1</title>
<g id="a_node1"><a xlink:title=" ">
<polygon fill="#bfbfbf" stroke="black" points="0,-38.5 0,-57.5 116,-57.5 116,-38.5 0,-38.5"/>
<text text-anchor="middle" x="58" y="-45.5" font-family="Helvetica,sans-Serif" font-size="10.00">rule_neural_cond_copy</text>
</a>
</g>
</g>
<!-- Node2 -->
<g id="node2" class="node">
<title>Node2</title>
<g id="a_node2"><a xlink:href="neural_8c.html#acc35a399d5b8b9dd9a2d9500138966f3" target="_top" xlink:title="Copies a neural network.">
<polygon fill="none" stroke="black" points="152,-38.5 152,-57.5 221,-57.5 221,-38.5 152,-38.5"/>
<text text-anchor="middle" x="186.5" y="-45.5" font-family="Helvetica,sans-Serif" font-size="10.00">neural_copy</text>
</a>
</g>
</g>
<!-- Node1&#45;&gt;Node2 -->
<g id="edge1" class="edge">
<title>Node1&#45;&gt;Node2</title>
<path fill="none" stroke="midnightblue" d="M116.33,-48C124.88,-48 133.57,-48 141.78,-48"/>
<polygon fill="midnightblue" stroke="midnightblue" points="141.87,-51.5 151.87,-48 141.87,-44.5 141.87,-51.5"/>
</g>
<!-- Node3 -->
<g id="node3" class="node">
<title>Node3</title>
<g id="a_node3"><a xlink:href="neural__layer_8h.html#a392e18d96d59f5739ebeec3b05d5b4ad" target="_top" xlink:title="Creates and returns a copy of a specified layer.">
<polygon fill="none" stroke="black" points="259.5,-76.5 259.5,-95.5 323.5,-95.5 323.5,-76.5 259.5,-76.5"/>
<text text-anchor="middle" x="291.5" y="-83.5" font-family="Helvetica,sans-Serif" font-size="10.00">layer_copy</text>
</a>
</g>
</g>
<!-- Node2&#45;&gt;Node3 -->
<g id="edge2" class="edge">
<title>Node2&#45;&gt;Node3</title>
<path fill="none" stroke="midnightblue" d="M213.49,-57.59C226.06,-62.22 241.33,-67.86 254.95,-72.89"/>
<polygon fill="midnightblue" stroke="midnightblue" points="253.92,-76.24 264.52,-76.41 256.35,-69.67 253.92,-76.24"/>
</g>
<!-- Node4 -->
<g id="node4" class="node">
<title>Node4</title>
<g id="a_node4"><a xlink:href="neural_8c.html#ad70aee7c40f698d4be45e3d419051c2f" target="_top" xlink:title="Initialises an empty neural network.">
<polygon fill="none" stroke="black" points="261,-38.5 261,-57.5 322,-57.5 322,-38.5 261,-38.5"/>
<text text-anchor="middle" x="291.5" y="-45.5" font-family="Helvetica,sans-Serif" font-size="10.00">neural_init</text>
</a>
</g>
</g>
<!-- Node2&#45;&gt;Node4 -->
<g id="edge3" class="edge">
<title>Node2&#45;&gt;Node4</title>
<path fill="none" stroke="midnightblue" d="M221.23,-48C230.62,-48 240.91,-48 250.62,-48"/>
<polygon fill="midnightblue" stroke="midnightblue" points="250.86,-51.5 260.86,-48 250.86,-44.5 250.86,-51.5"/>
</g>
<!-- Node5 -->
<g id="node5" class="node">
<title>Node5</title>
<g id="a_node5"><a xlink:href="neural_8c.html#a1c1c06446fc719b8293aade2ded8433c" target="_top" xlink:title="Inserts a layer at the head of a neural network.">
<polygon fill="none" stroke="black" points="257,-0.5 257,-19.5 326,-19.5 326,-0.5 257,-0.5"/>
<text text-anchor="middle" x="291.5" y="-7.5" font-family="Helvetica,sans-Serif" font-size="10.00">neural_push</text>
</a>
</g>
</g>
<!-- Node2&#45;&gt;Node5 -->
<g id="edge4" class="edge">
<title>Node2&#45;&gt;Node5</title>
<path fill="none" stroke="midnightblue" d="M213.49,-38.41C226.06,-33.78 241.33,-28.14 254.95,-23.11"/>
<polygon fill="midnightblue" stroke="midnightblue" points="256.35,-26.33 264.52,-19.59 253.92,-19.76 256.35,-26.33"/>
</g>
<!-- Node6 -->
<g id="node6" class="node">
<title>Node6</title>
<g id="a_node6"><a xlink:href="neural_8c.html#afab574137fbf9da9a286d020917c8295" target="_top" xlink:title="Inserts a layer into a neural network.">
<polygon fill="none" stroke="black" points="362,-0.5 362,-19.5 434,-19.5 434,-0.5 362,-0.5"/>
<text text-anchor="middle" x="398" y="-7.5" font-family="Helvetica,sans-Serif" font-size="10.00">neural_insert</text>
</a>
</g>
</g>
<!-- Node5&#45;&gt;Node6 -->
<g id="edge5" class="edge">
<title>Node5&#45;&gt;Node6</title>
<path fill="none" stroke="midnightblue" d="M326.14,-10C334.28,-10 343.12,-10 351.71,-10"/>
<polygon fill="midnightblue" stroke="midnightblue" points="351.99,-13.5 361.99,-10 351.98,-6.5 351.99,-13.5"/>
</g>
</g>
</svg>
