<?xml version="1.0" encoding="UTF-8" standalone="no"?>
<!DOCTYPE svg PUBLIC "-//W3C//DTD SVG 1.1//EN"
 "http://www.w3.org/Graphics/SVG/1.1/DTD/svg11.dtd">
<!-- Generated by graphviz version 2.43.0 (0)
 -->
<!-- Title: rule_dgp.c Pages: 1 -->
<svg width="857pt" height="308pt"
 viewBox="0.00 0.00 856.87 308.00" xmlns="http://www.w3.org/2000/svg" xmlns:xlink="http://www.w3.org/1999/xlink">
<g id="graph0" class="graph" transform="scale(1 1) rotate(0) translate(4 304)">
<title>rule_dgp.c</title>
<!-- Node1 -->
<g id="node1" class="node">
<title>Node1</title>
<g id="a_node1"><a xlink:title="Dynamical GP graph rule (condition + action) functions.">
<polygon fill="#bfbfbf" stroke="black" points="431.87,-280.5 431.87,-299.5 493.87,-299.5 493.87,-280.5 431.87,-280.5"/>
<text text-anchor="middle" x="462.87" y="-287.5" font-family="Helvetica,sans-Serif" font-size="10.00">rule_dgp.c</text>
</a>
</g>
</g>
<!-- Node2 -->
<g id="node2" class="node">
<title>Node2</title>
<g id="a_node2"><a xlink:href="rule__dgp_8h.html" target="_top" xlink:title="Dynamical GP graph rule (condition + action) functions.">
<polygon fill="none" stroke="black" points="388.87,-224.5 388.87,-243.5 450.87,-243.5 450.87,-224.5 388.87,-224.5"/>
<text text-anchor="middle" x="419.87" y="-231.5" font-family="Helvetica,sans-Serif" font-size="10.00">rule_dgp.h</text>
</a>
</g>
</g>
<!-- Node1&#45;&gt;Node2 -->
<g id="edge1" class="edge">
<title>Node1&#45;&gt;Node2</title>
<path fill="none" stroke="midnightblue" d="M455.77,-280.08C449.63,-272.38 440.6,-261.03 433.13,-251.65"/>
<polygon fill="midnightblue" stroke="midnightblue" points="435.8,-249.39 426.83,-243.75 430.33,-253.75 435.8,-249.39"/>
</g>
<!-- Node5 -->
<g id="node5" class="node">
<title>Node5</title>
<g id="a_node5"><a xlink:href="utils_8h.html" target="_top" xlink:title="Utility functions for random number handling, etc.">
<polygon fill="none" stroke="black" points="576.37,-56.5 576.37,-75.5 619.37,-75.5 619.37,-56.5 576.37,-56.5"/>
<text text-anchor="middle" x="597.87" y="-63.5" font-family="Helvetica,sans-Serif" font-size="10.00">utils.h</text>
</a>
</g>
</g>
<!-- Node1&#45;&gt;Node5 -->
<g id="edge25" class="edge">
<title>Node1&#45;&gt;Node5</title>
<path fill="none" stroke="midnightblue" d="M468.16,-280.3C488.23,-247.29 559.92,-129.4 587.21,-84.52"/>
<polygon fill="midnightblue" stroke="midnightblue" points="590.26,-86.25 592.46,-75.88 584.28,-82.61 590.26,-86.25"/>
</g>
<!-- Node3 -->
<g id="node3" class="node">
<title>Node3</title>
<g id="a_node3"><a xlink:href="action_8h.html" target="_top" xlink:title="Interface for classifier actions.">
<polygon fill="none" stroke="black" points="247.37,-168.5 247.37,-187.5 298.37,-187.5 298.37,-168.5 247.37,-168.5"/>
<text text-anchor="middle" x="272.87" y="-175.5" font-family="Helvetica,sans-Serif" font-size="10.00">action.h</text>
</a>
</g>
</g>
<!-- Node2&#45;&gt;Node3 -->
<g id="edge2" class="edge">
<title>Node2&#45;&gt;Node3</title>
<path fill="none" stroke="midnightblue" d="M396.57,-224.44C372.06,-215.44 333.27,-201.19 305.67,-191.05"/>
<polygon fill="midnightblue" stroke="midnightblue" points="306.64,-187.68 296.05,-187.52 304.23,-194.25 306.64,-187.68"/>
</g>
<!-- Node4 -->
<g id="node4" class="node">
<title>Node4</title>
<g id="a_node4"><a xlink:href="xcsf_8h.html" target="_top" xlink:title="XCSF data structures.">
<polygon fill="none" stroke="black" points="326.87,-112.5 326.87,-131.5 370.87,-131.5 370.87,-112.5 326.87,-112.5"/>
<text text-anchor="middle" x="348.87" y="-119.5" font-family="Helvetica,sans-Serif" font-size="10.00">xcsf.h</text>
</a>
</g>
</g>
<!-- Node2&#45;&gt;Node4 -->
<g id="edge24" class="edge">
<title>Node2&#45;&gt;Node4</title>
<path fill="none" stroke="midnightblue" d="M429.45,-224.18C442.27,-211.28 462.05,-186.76 449.87,-168 434.75,-144.72 404.49,-133.38 381.01,-127.92"/>
<polygon fill="midnightblue" stroke="midnightblue" points="381.61,-124.47 371.1,-125.86 380.18,-131.32 381.61,-124.47"/>
</g>
<!-- Node18 -->
<g id="node18" class="node">
<title>Node18</title>
<g id="a_node18"><a xlink:href="condition_8h.html" target="_top" xlink:title="Interface for classifier conditions.">
<polygon fill="none" stroke="black" points="316.87,-168.5 316.87,-187.5 380.87,-187.5 380.87,-168.5 316.87,-168.5"/>
<text text-anchor="middle" x="348.87" y="-175.5" font-family="Helvetica,sans-Serif" font-size="10.00">condition.h</text>
</a>
</g>
</g>
<!-- Node2&#45;&gt;Node18 -->
<g id="edge20" class="edge">
<title>Node2&#45;&gt;Node18</title>
<path fill="none" stroke="midnightblue" d="M408.46,-224.32C397.76,-216.18 381.53,-203.84 368.7,-194.09"/>
<polygon fill="midnightblue" stroke="midnightblue" points="370.56,-191.1 360.48,-187.83 366.32,-196.67 370.56,-191.1"/>
</g>
<!-- Node19 -->
<g id="node19" class="node">
<title>Node19</title>
<g id="a_node19"><a xlink:href="dgp_8h.html" target="_top" xlink:title="An implementation of dynamical GP graphs with fuzzy activations.">
<polygon fill="none" stroke="black" points="399.37,-168.5 399.37,-187.5 440.37,-187.5 440.37,-168.5 399.37,-168.5"/>
<text text-anchor="middle" x="419.87" y="-175.5" font-family="Helvetica,sans-Serif" font-size="10.00">dgp.h</text>
</a>
</g>
</g>
<!-- Node2&#45;&gt;Node19 -->
<g id="edge22" class="edge">
<title>Node2&#45;&gt;Node19</title>
<path fill="none" stroke="midnightblue" d="M419.87,-224.08C419.87,-217.01 419.87,-206.86 419.87,-197.99"/>
<polygon fill="midnightblue" stroke="midnightblue" points="423.37,-197.75 419.87,-187.75 416.37,-197.75 423.37,-197.75"/>
</g>
<!-- Node3&#45;&gt;Node4 -->
<g id="edge3" class="edge">
<title>Node3&#45;&gt;Node4</title>
<path fill="none" stroke="midnightblue" d="M285.08,-168.32C296.64,-160.11 314.24,-147.6 328.03,-137.81"/>
<polygon fill="midnightblue" stroke="midnightblue" points="330.31,-140.48 336.43,-131.83 326.25,-134.77 330.31,-140.48"/>
</g>
<!-- Node4&#45;&gt;Node5 -->
<g id="edge4" class="edge">
<title>Node4&#45;&gt;Node5</title>
<path fill="none" stroke="midnightblue" d="M371,-116.6C409.77,-108.84 492.44,-92.01 561.87,-76 563.32,-75.67 564.8,-75.32 566.3,-74.96"/>
<polygon fill="midnightblue" stroke="midnightblue" points="567.31,-78.32 576.19,-72.55 565.65,-71.52 567.31,-78.32"/>
</g>
<!-- Node8 -->
<g id="node8" class="node">
<title>Node8</title>
<g id="a_node8"><a xlink:title=" ">
<polygon fill="none" stroke="#bfbfbf" points="194.37,-0.5 194.37,-19.5 241.37,-19.5 241.37,-0.5 194.37,-0.5"/>
<text text-anchor="middle" x="217.87" y="-7.5" font-family="Helvetica,sans-Serif" font-size="10.00">math.h</text>
</a>
</g>
</g>
<!-- Node4&#45;&gt;Node8 -->
<g id="edge14" class="edge">
<title>Node4&#45;&gt;Node8</title>
<path fill="none" stroke="midnightblue" d="M326.68,-119.72C254.67,-115.36 30.84,-99.95 9.87,-76 -39.69,-19.43 113.14,-11.52 183.93,-10.81"/>
<polygon fill="midnightblue" stroke="midnightblue" points="184.16,-14.31 194.14,-10.75 184.12,-7.31 184.16,-14.31"/>
</g>
<!-- Node9 -->
<g id="node9" class="node">
<title>Node9</title>
<g id="a_node9"><a xlink:title=" ">
<polygon fill="none" stroke="#bfbfbf" points="472.87,-0.5 472.87,-19.5 518.87,-19.5 518.87,-0.5 472.87,-0.5"/>
<text text-anchor="middle" x="495.87" y="-7.5" font-family="Helvetica,sans-Serif" font-size="10.00">stdio.h</text>
</a>
</g>
</g>
<!-- Node4&#45;&gt;Node9 -->
<g id="edge17" class="edge">
<title>Node4&#45;&gt;Node9</title>
<path fill="none" stroke="midnightblue" d="M371.07,-121.11C403.17,-119.95 461.87,-112.58 490.87,-76 501.07,-63.12 501.31,-43.95 499.6,-29.76"/>
<polygon fill="midnightblue" stroke="midnightblue" points="503.02,-28.97 497.97,-19.66 496.11,-30.09 503.02,-28.97"/>
</g>
<!-- Node10 -->
<g id="node10" class="node">
<title>Node10</title>
<g id="a_node10"><a xlink:title=" ">
<polygon fill="none" stroke="#bfbfbf" points="536.87,-0.5 536.87,-19.5 584.87,-19.5 584.87,-0.5 536.87,-0.5"/>
<text text-anchor="middle" x="560.87" y="-7.5" font-family="Helvetica,sans-Serif" font-size="10.00">stdlib.h</text>
</a>
</g>
</g>
<!-- Node4&#45;&gt;Node10 -->
<g id="edge18" class="edge">
<title>Node4&#45;&gt;Node10</title>
<path fill="none" stroke="midnightblue" d="M371.08,-119.07C403.71,-115.34 465.45,-104.77 508.87,-76 527.25,-63.82 542.19,-43.07 551.26,-28.29"/>
<polygon fill="midnightblue" stroke="midnightblue" points="554.32,-29.99 556.35,-19.59 548.28,-26.45 554.32,-29.99"/>
</g>
<!-- Node11 -->
<g id="node11" class="node">
<title>Node11</title>
<g id="a_node11"><a xlink:title=" ">
<polygon fill="none" stroke="#bfbfbf" points="19.37,-56.5 19.37,-75.5 66.37,-75.5 66.37,-56.5 19.37,-56.5"/>
<text text-anchor="middle" x="42.87" y="-63.5" font-family="Helvetica,sans-Serif" font-size="10.00">errno.h</text>
</a>
</g>
</g>
<!-- Node4&#45;&gt;Node11 -->
<g id="edge10" class="edge">
<title>Node4&#45;&gt;Node11</title>
<path fill="none" stroke="midnightblue" d="M326.78,-118.15C281.65,-112.15 175.46,-97.18 76.45,-75.93"/>
<polygon fill="midnightblue" stroke="midnightblue" points="77.1,-72.49 66.59,-73.78 75.62,-79.33 77.1,-72.49"/>
</g>
<!-- Node12 -->
<g id="node12" class="node">
<title>Node12</title>
<g id="a_node12"><a xlink:title=" ">
<polygon fill="none" stroke="#bfbfbf" points="84.87,-56.5 84.87,-75.5 128.87,-75.5 128.87,-56.5 84.87,-56.5"/>
<text text-anchor="middle" x="106.87" y="-63.5" font-family="Helvetica,sans-Serif" font-size="10.00">float.h</text>
</a>
</g>
</g>
<!-- Node4&#45;&gt;Node12 -->
<g id="edge11" class="edge">
<title>Node4&#45;&gt;Node12</title>
<path fill="none" stroke="midnightblue" d="M326.57,-116.8C289.6,-109.71 213.11,-94.55 139.11,-76.18"/>
<polygon fill="midnightblue" stroke="midnightblue" points="139.72,-72.72 129.16,-73.68 138.01,-79.51 139.72,-72.72"/>
</g>
<!-- Node13 -->
<g id="node13" class="node">
<title>Node13</title>
<g id="a_node13"><a xlink:title=" ">
<polygon fill="none" stroke="#bfbfbf" points="147.37,-56.5 147.37,-75.5 206.37,-75.5 206.37,-56.5 147.37,-56.5"/>
<text text-anchor="middle" x="176.87" y="-63.5" font-family="Helvetica,sans-Serif" font-size="10.00">inttypes.h</text>
</a>
</g>
</g>
<!-- Node4&#45;&gt;Node13 -->
<g id="edge12" class="edge">
<title>Node4&#45;&gt;Node13</title>
<path fill="none" stroke="midnightblue" d="M326.73,-114.05C298.16,-105.08 248.04,-89.35 213.69,-78.56"/>
<polygon fill="midnightblue" stroke="midnightblue" points="214.6,-75.18 204.01,-75.52 212.5,-81.86 214.6,-75.18"/>
</g>
<!-- Node14 -->
<g id="node14" class="node">
<title>Node14</title>
<g id="a_node14"><a xlink:title=" ">
<polygon fill="none" stroke="#bfbfbf" points="224.87,-56.5 224.87,-75.5 272.87,-75.5 272.87,-56.5 224.87,-56.5"/>
<text text-anchor="middle" x="248.87" y="-63.5" font-family="Helvetica,sans-Serif" font-size="10.00">limits.h</text>
</a>
</g>
</g>
<!-- Node4&#45;&gt;Node14 -->
<g id="edge13" class="edge">
<title>Node4&#45;&gt;Node14</title>
<path fill="none" stroke="midnightblue" d="M332.8,-112.32C316.91,-103.74 292.36,-90.49 273.91,-80.52"/>
<polygon fill="midnightblue" stroke="midnightblue" points="275.35,-77.33 264.89,-75.65 272.03,-83.49 275.35,-77.33"/>
</g>
<!-- Node15 -->
<g id="node15" class="node">
<title>Node15</title>
<g id="a_node15"><a xlink:title=" ">
<polygon fill="none" stroke="#bfbfbf" points="290.87,-56.5 290.87,-75.5 346.87,-75.5 346.87,-56.5 290.87,-56.5"/>
<text text-anchor="middle" x="318.87" y="-63.5" font-family="Helvetica,sans-Serif" font-size="10.00">stdbool.h</text>
</a>
</g>
</g>
<!-- Node4&#45;&gt;Node15 -->
<g id="edge15" class="edge">
<title>Node4&#45;&gt;Node15</title>
<path fill="none" stroke="midnightblue" d="M343.91,-112.08C339.76,-104.61 333.71,-93.72 328.6,-84.52"/>
<polygon fill="midnightblue" stroke="midnightblue" points="331.64,-82.79 323.73,-75.75 325.52,-86.19 331.64,-82.79"/>
</g>
<!-- Node16 -->
<g id="node16" class="node">
<title>Node16</title>
<g id="a_node16"><a xlink:title=" ">
<polygon fill="none" stroke="#bfbfbf" points="365.37,-56.5 365.37,-75.5 414.37,-75.5 414.37,-56.5 365.37,-56.5"/>
<text text-anchor="middle" x="389.87" y="-63.5" font-family="Helvetica,sans-Serif" font-size="10.00">stdint.h</text>
</a>
</g>
</g>
<!-- Node4&#45;&gt;Node16 -->
<g id="edge16" class="edge">
<title>Node4&#45;&gt;Node16</title>
<path fill="none" stroke="midnightblue" d="M355.64,-112.08C361.43,-104.46 369.92,-93.26 377,-83.94"/>
<polygon fill="midnightblue" stroke="midnightblue" points="379.96,-85.83 383.22,-75.75 374.39,-81.6 379.96,-85.83"/>
</g>
<!-- Node17 -->
<g id="node17" class="node">
<title>Node17</title>
<g id="a_node17"><a xlink:title=" ">
<polygon fill="none" stroke="#bfbfbf" points="432.37,-56.5 432.37,-75.5 481.37,-75.5 481.37,-56.5 432.37,-56.5"/>
<text text-anchor="middle" x="456.87" y="-63.5" font-family="Helvetica,sans-Serif" font-size="10.00">string.h</text>
</a>
</g>
</g>
<!-- Node4&#45;&gt;Node17 -->
<g id="edge19" class="edge">
<title>Node4&#45;&gt;Node17</title>
<path fill="none" stroke="midnightblue" d="M366.22,-112.32C383.54,-103.66 410.38,-90.24 430.37,-80.25"/>
<polygon fill="midnightblue" stroke="midnightblue" points="432.18,-83.26 439.56,-75.65 429.05,-77 432.18,-83.26"/>
</g>
<!-- Node6 -->
<g id="node6" class="node">
<title>Node6</title>
<g id="a_node6"><a xlink:title=" ">
<polygon fill="none" stroke="#bfbfbf" points="734.87,-0.5 734.87,-19.5 848.87,-19.5 848.87,-0.5 734.87,-0.5"/>
<text text-anchor="middle" x="791.87" y="-7.5" font-family="Helvetica,sans-Serif" font-size="10.00">../lib/cJSON/cJSON.h</text>
</a>
</g>
</g>
<!-- Node5&#45;&gt;Node6 -->
<g id="edge5" class="edge">
<title>Node5&#45;&gt;Node6</title>
<path fill="none" stroke="midnightblue" d="M619.37,-59.01C651.11,-50.18 711.07,-33.49 751.26,-22.3"/>
<polygon fill="midnightblue" stroke="midnightblue" points="752.32,-25.64 761.02,-19.59 750.44,-18.9 752.32,-25.64"/>
</g>
<!-- Node7 -->
<g id="node7" class="node">
<title>Node7</title>
<g id="a_node7"><a xlink:title=" ">
<polygon fill="none" stroke="#bfbfbf" points="603.37,-0.5 603.37,-19.5 716.37,-19.5 716.37,-0.5 603.37,-0.5"/>
<text text-anchor="middle" x="659.87" y="-7.5" font-family="Helvetica,sans-Serif" font-size="10.00">../lib/dSFMT/dSFMT.h</text>
</a>
</g>
</g>
<!-- Node5&#45;&gt;Node7 -->
<g id="edge6" class="edge">
<title>Node5&#45;&gt;Node7</title>
<path fill="none" stroke="midnightblue" d="M607.83,-56.32C616.99,-48.34 630.8,-36.31 641.89,-26.65"/>
<polygon fill="midnightblue" stroke="midnightblue" points="644.48,-29.04 649.72,-19.83 639.88,-23.76 644.48,-29.04"/>
</g>
<!-- Node5&#45;&gt;Node8 -->
<g id="edge7" class="edge">
<title>Node5&#45;&gt;Node8</title>
<path fill="none" stroke="midnightblue" d="M576.35,-61.94C513.22,-52.97 328.15,-26.67 251.61,-15.79"/>
<polygon fill="midnightblue" stroke="midnightblue" points="251.94,-12.31 241.55,-14.37 250.96,-19.24 251.94,-12.31"/>
</g>
<!-- Node5&#45;&gt;Node9 -->
<g id="edge8" class="edge">
<title>Node5&#45;&gt;Node9</title>
<path fill="none" stroke="midnightblue" d="M581.48,-56.32C565.19,-47.7 540,-34.36 521.15,-24.39"/>
<polygon fill="midnightblue" stroke="midnightblue" points="522.69,-21.24 512.21,-19.65 519.41,-27.43 522.69,-21.24"/>
</g>
<!-- Node5&#45;&gt;Node10 -->
<g id="edge9" class="edge">
<title>Node5&#45;&gt;Node10</title>
<path fill="none" stroke="midnightblue" d="M591.76,-56.08C586.58,-48.53 579.02,-37.49 572.67,-28.23"/>
<polygon fill="midnightblue" stroke="midnightblue" points="575.4,-26.02 566.86,-19.75 569.63,-29.98 575.4,-26.02"/>
</g>
<!-- Node18&#45;&gt;Node4 -->
<g id="edge21" class="edge">
<title>Node18&#45;&gt;Node4</title>
<path fill="none" stroke="midnightblue" d="M348.87,-168.08C348.87,-161.01 348.87,-150.86 348.87,-141.99"/>
<polygon fill="midnightblue" stroke="midnightblue" points="352.37,-141.75 348.87,-131.75 345.37,-141.75 352.37,-141.75"/>
</g>
<!-- Node19&#45;&gt;Node4 -->
<g id="edge23" class="edge">
<title>Node19&#45;&gt;Node4</title>
<path fill="none" stroke="midnightblue" d="M408.46,-168.32C397.76,-160.18 381.53,-147.84 368.7,-138.09"/>
<polygon fill="midnightblue" stroke="midnightblue" points="370.56,-135.1 360.48,-131.83 366.32,-140.67 370.56,-135.1"/>
</g>
</g>
</svg>
