<?xml version="1.0" encoding="UTF-8" standalone="no"?>
<!DOCTYPE svg PUBLIC "-//W3C//DTD SVG 1.1//EN"
 "http://www.w3.org/Graphics/SVG/1.1/DTD/svg11.dtd">
<!-- Generated by graphviz version 2.43.0 (0)
 -->
<!-- Title: sam.h Pages: 1 -->
<svg width="1384pt" height="84pt"
 viewBox="0.00 0.00 1384.00 84.00" xmlns="http://www.w3.org/2000/svg" xmlns:xlink="http://www.w3.org/1999/xlink">
<g id="graph0" class="graph" transform="scale(1 1) rotate(0) translate(4 80)">
<title>sam.h</title>
<!-- Node1 -->
<g id="node1" class="node">
<title>Node1</title>
<g id="a_node1"><a xlink:title="Self&#45;adaptive mutation functions.">
<polygon fill="#bfbfbf" stroke="black" points="595,-56.5 595,-75.5 639,-75.5 639,-56.5 595,-56.5"/>
<text text-anchor="middle" x="617" y="-63.5" font-family="Helvetica,sans-Serif" font-size="10.00">sam.h</text>
</a>
</g>
</g>
<!-- Node2 -->
<g id="node2" class="node">
<title>Node2</title>
<g id="a_node2"><a xlink:href="act__integer_8c.html" target="_top" xlink:title="integer action functions.">
<polygon fill="none" stroke="black" points="0,-0.5 0,-19.5 72,-19.5 72,-0.5 0,-0.5"/>
<text text-anchor="middle" x="36" y="-7.5" font-family="Helvetica,sans-Serif" font-size="10.00">act_integer.c</text>
</a>
</g>
</g>
<!-- Node1&#45;&gt;Node2 -->
<g id="edge1" class="edge">
<title>Node1&#45;&gt;Node2</title>
<path fill="none" stroke="midnightblue" d="M584.83,-63.58C501.34,-59.6 271,-46.89 81,-20 78.16,-19.6 75.23,-19.13 72.29,-18.63"/>
<polygon fill="midnightblue" stroke="midnightblue" points="584.79,-67.08 594.95,-64.05 585.12,-60.09 584.79,-67.08"/>
</g>
<!-- Node3 -->
<g id="node3" class="node">
<title>Node3</title>
<g id="a_node3"><a xlink:href="cond__dgp_8c.html" target="_top" xlink:title="Dynamical GP graph condition functions.">
<polygon fill="none" stroke="black" points="90.5,-0.5 90.5,-19.5 157.5,-19.5 157.5,-0.5 90.5,-0.5"/>
<text text-anchor="middle" x="124" y="-7.5" font-family="Helvetica,sans-Serif" font-size="10.00">cond_dgp.c</text>
</a>
</g>
</g>
<!-- Node1&#45;&gt;Node3 -->
<g id="edge2" class="edge">
<title>Node1&#45;&gt;Node3</title>
<path fill="none" stroke="midnightblue" d="M584.8,-62.96C510.74,-58.02 322.69,-44.01 167,-20 163.98,-19.54 160.86,-19 157.74,-18.42"/>
<polygon fill="midnightblue" stroke="midnightblue" points="584.68,-66.46 594.89,-63.63 585.14,-59.48 584.68,-66.46"/>
</g>
<!-- Node4 -->
<g id="node4" class="node">
<title>Node4</title>
<g id="a_node4"><a xlink:href="cond__ellipsoid_8c.html" target="_top" xlink:title="Hyperellipsoid condition functions.">
<polygon fill="none" stroke="black" points="176,-0.5 176,-19.5 262,-19.5 262,-0.5 176,-0.5"/>
<text text-anchor="middle" x="219" y="-7.5" font-family="Helvetica,sans-Serif" font-size="10.00">cond_ellipsoid.c</text>
</a>
</g>
</g>
<!-- Node1&#45;&gt;Node4 -->
<g id="edge3" class="edge">
<title>Node1&#45;&gt;Node4</title>
<path fill="none" stroke="midnightblue" d="M584.47,-61.23C523.08,-54.02 385.98,-37.42 271,-20 268.1,-19.56 265.11,-19.09 262.11,-18.6"/>
<polygon fill="midnightblue" stroke="midnightblue" points="584.35,-64.74 594.69,-62.43 585.17,-57.79 584.35,-64.74"/>
</g>
<!-- Node5 -->
<g id="node5" class="node">
<title>Node5</title>
<g id="a_node5"><a xlink:href="cond__gp_8c.html" target="_top" xlink:title="Tree GP condition functions.">
<polygon fill="none" stroke="black" points="280,-0.5 280,-19.5 342,-19.5 342,-0.5 280,-0.5"/>
<text text-anchor="middle" x="311" y="-7.5" font-family="Helvetica,sans-Serif" font-size="10.00">cond_gp.c</text>
</a>
</g>
</g>
<!-- Node1&#45;&gt;Node5 -->
<g id="edge4" class="edge">
<title>Node1&#45;&gt;Node5</title>
<path fill="none" stroke="midnightblue" d="M584.95,-60.15C534.87,-52.44 435.09,-36.56 351,-20 348.21,-19.45 345.31,-18.85 342.41,-18.23"/>
<polygon fill="midnightblue" stroke="midnightblue" points="584.44,-63.61 594.86,-61.67 585.5,-56.69 584.44,-63.61"/>
</g>
<!-- Node6 -->
<g id="node6" class="node">
<title>Node6</title>
<g id="a_node6"><a xlink:href="cond__rectangle_8c.html" target="_top" xlink:title="Hyperrectangle condition functions.">
<polygon fill="none" stroke="black" points="360.5,-0.5 360.5,-19.5 451.5,-19.5 451.5,-0.5 360.5,-0.5"/>
<text text-anchor="middle" x="406" y="-7.5" font-family="Helvetica,sans-Serif" font-size="10.00">cond_rectangle.c</text>
</a>
</g>
</g>
<!-- Node1&#45;&gt;Node6 -->
<g id="edge5" class="edge">
<title>Node1&#45;&gt;Node6</title>
<path fill="none" stroke="midnightblue" d="M584.95,-56.8C545.59,-46.73 479.16,-29.72 439.25,-19.51"/>
<polygon fill="midnightblue" stroke="midnightblue" points="584.26,-60.23 594.82,-59.32 586,-53.45 584.26,-60.23"/>
</g>
<!-- Node7 -->
<g id="node7" class="node">
<title>Node7</title>
<g id="a_node7"><a xlink:href="cond__ternary_8c.html" target="_top" xlink:title="Ternary condition functions.">
<polygon fill="none" stroke="black" points="470,-0.5 470,-19.5 550,-19.5 550,-0.5 470,-0.5"/>
<text text-anchor="middle" x="510" y="-7.5" font-family="Helvetica,sans-Serif" font-size="10.00">cond_ternary.c</text>
</a>
</g>
</g>
<!-- Node1&#45;&gt;Node7 -->
<g id="edge6" class="edge">
<title>Node1&#45;&gt;Node7</title>
<path fill="none" stroke="midnightblue" d="M590.7,-51.73C570.89,-41.73 544.29,-28.31 527.15,-19.65"/>
<polygon fill="midnightblue" stroke="midnightblue" points="589.3,-54.94 599.81,-56.32 592.46,-48.69 589.3,-54.94"/>
</g>
<!-- Node8 -->
<g id="node8" class="node">
<title>Node8</title>
<g id="a_node8"><a xlink:href="dgp_8c.html" target="_top" xlink:title="An implementation of dynamical GP graphs with fuzzy activations.">
<polygon fill="none" stroke="black" points="568.5,-0.5 568.5,-19.5 609.5,-19.5 609.5,-0.5 568.5,-0.5"/>
<text text-anchor="middle" x="589" y="-7.5" font-family="Helvetica,sans-Serif" font-size="10.00">dgp.c</text>
</a>
</g>
</g>
<!-- Node1&#45;&gt;Node8 -->
<g id="edge7" class="edge">
<title>Node1&#45;&gt;Node8</title>
<path fill="none" stroke="midnightblue" d="M607.66,-46.98C602.91,-37.82 597.34,-27.09 593.54,-19.75"/>
<polygon fill="midnightblue" stroke="midnightblue" points="604.67,-48.82 612.38,-56.08 610.88,-45.59 604.67,-48.82"/>
</g>
<!-- Node9 -->
<g id="node9" class="node">
<title>Node9</title>
<g id="a_node9"><a xlink:href="gp_8c.html" target="_top" xlink:title="An implementation of GP trees based upon TinyGP.">
<polygon fill="none" stroke="black" points="627.5,-0.5 627.5,-19.5 662.5,-19.5 662.5,-0.5 627.5,-0.5"/>
<text text-anchor="middle" x="645" y="-7.5" font-family="Helvetica,sans-Serif" font-size="10.00">gp.c</text>
</a>
</g>
</g>
<!-- Node1&#45;&gt;Node9 -->
<g id="edge8" class="edge">
<title>Node1&#45;&gt;Node9</title>
<path fill="none" stroke="midnightblue" d="M626.34,-46.98C631.09,-37.82 636.66,-27.09 640.46,-19.75"/>
<polygon fill="midnightblue" stroke="midnightblue" points="623.12,-45.59 621.62,-56.08 629.33,-48.82 623.12,-45.59"/>
</g>
<!-- Node10 -->
<g id="node10" class="node">
<title>Node10</title>
<g id="a_node10"><a xlink:href="neural__layer__connected_8c.html" target="_top" xlink:title="An implementation of a fully&#45;connected layer of perceptrons.">
<polygon fill="none" stroke="black" points="681,-0.5 681,-19.5 809,-19.5 809,-0.5 681,-0.5"/>
<text text-anchor="middle" x="745" y="-7.5" font-family="Helvetica,sans-Serif" font-size="10.00">neural_layer_connected.c</text>
</a>
</g>
</g>
<!-- Node1&#45;&gt;Node10 -->
<g id="edge9" class="edge">
<title>Node1&#45;&gt;Node10</title>
<path fill="none" stroke="midnightblue" d="M646.62,-52.5C670.62,-42.38 703.78,-28.39 724.81,-19.52"/>
<polygon fill="midnightblue" stroke="midnightblue" points="645.14,-49.33 637.28,-56.44 647.86,-55.78 645.14,-49.33"/>
</g>
<!-- Node11 -->
<g id="node11" class="node">
<title>Node11</title>
<g id="a_node11"><a xlink:href="neural__layer__convolutional_8c.html" target="_top" xlink:title="An implementation of a 2D convolutional layer.">
<polygon fill="none" stroke="black" points="827,-0.5 827,-19.5 967,-19.5 967,-0.5 827,-0.5"/>
<text text-anchor="middle" x="897" y="-7.5" font-family="Helvetica,sans-Serif" font-size="10.00">neural_layer_convolutional.c</text>
</a>
</g>
</g>
<!-- Node1&#45;&gt;Node11 -->
<g id="edge10" class="edge">
<title>Node1&#45;&gt;Node11</title>
<path fill="none" stroke="midnightblue" d="M649.41,-58.75C699.58,-49.07 796.14,-30.45 852.71,-19.54"/>
<polygon fill="midnightblue" stroke="midnightblue" points="648.6,-55.34 639.44,-60.67 649.92,-62.22 648.6,-55.34"/>
</g>
<!-- Node12 -->
<g id="node12" class="node">
<title>Node12</title>
<g id="a_node12"><a xlink:href="neural__layer__lstm_8c.html" target="_top" xlink:title="An implementation of a long short&#45;term memory layer.">
<polygon fill="none" stroke="black" points="985.5,-0.5 985.5,-19.5 1086.5,-19.5 1086.5,-0.5 985.5,-0.5"/>
<text text-anchor="middle" x="1036" y="-7.5" font-family="Helvetica,sans-Serif" font-size="10.00">neural_layer_lstm.c</text>
</a>
</g>
</g>
<!-- Node1&#45;&gt;Node12 -->
<g id="edge11" class="edge">
<title>Node1&#45;&gt;Node12</title>
<path fill="none" stroke="midnightblue" d="M649.39,-61.21C712.37,-53.77 855.7,-36.56 976,-20 979.03,-19.58 982.14,-19.15 985.27,-18.7"/>
<polygon fill="midnightblue" stroke="midnightblue" points="648.81,-57.75 639.29,-62.4 649.63,-64.7 648.81,-57.75"/>
</g>
<!-- Node13 -->
<g id="node13" class="node">
<title>Node13</title>
<g id="a_node13"><a xlink:href="neural__layer__recurrent_8c.html" target="_top" xlink:title="An implementation of a recurrent layer of perceptrons.">
<polygon fill="none" stroke="black" points="1104.5,-0.5 1104.5,-19.5 1225.5,-19.5 1225.5,-0.5 1104.5,-0.5"/>
<text text-anchor="middle" x="1165" y="-7.5" font-family="Helvetica,sans-Serif" font-size="10.00">neural_layer_recurrent.c</text>
</a>
</g>
</g>
<!-- Node1&#45;&gt;Node13 -->
<g id="edge12" class="edge">
<title>Node1&#45;&gt;Node13</title>
<path fill="none" stroke="midnightblue" d="M649.57,-62.35C727.03,-55.95 928.33,-38.8 1096,-20 1098.76,-19.69 1101.58,-19.36 1104.43,-19.03"/>
<polygon fill="midnightblue" stroke="midnightblue" points="649.15,-58.87 639.47,-63.18 649.73,-65.85 649.15,-58.87"/>
</g>
<!-- Node14 -->
<g id="node14" class="node">
<title>Node14</title>
<g id="a_node14"><a xlink:href="pred__nlms_8c.html" target="_top" xlink:title="Normalised least mean squares prediction functions.">
<polygon fill="none" stroke="black" points="1244,-0.5 1244,-19.5 1314,-19.5 1314,-0.5 1244,-0.5"/>
<text text-anchor="middle" x="1279" y="-7.5" font-family="Helvetica,sans-Serif" font-size="10.00">pred_nlms.c</text>
</a>
</g>
</g>
<!-- Node1&#45;&gt;Node14 -->
<g id="edge13" class="edge">
<title>Node1&#45;&gt;Node14</title>
<path fill="none" stroke="midnightblue" d="M649.04,-64.13C740.75,-61.31 1012.05,-50.79 1235,-20 1237.78,-19.62 1240.65,-19.16 1243.53,-18.67"/>
<polygon fill="midnightblue" stroke="midnightblue" points="648.89,-60.63 639,-64.42 649.1,-67.62 648.89,-60.63"/>
</g>
<!-- Node15 -->
<g id="node15" class="node">
<title>Node15</title>
<g id="a_node15"><a xlink:href="sam_8c.html" target="_top" xlink:title="Self&#45;adaptive mutation functions.">
<polygon fill="none" stroke="black" points="1332,-0.5 1332,-19.5 1376,-19.5 1376,-0.5 1332,-0.5"/>
<text text-anchor="middle" x="1354" y="-7.5" font-family="Helvetica,sans-Serif" font-size="10.00">sam.c</text>
</a>
</g>
</g>
<!-- Node1&#45;&gt;Node15 -->
<g id="edge14" class="edge">
<title>Node1&#45;&gt;Node15</title>
<path fill="none" stroke="midnightblue" d="M649.29,-65.44C749.87,-66.28 1066.2,-64.9 1323,-20 1325.87,-19.5 1328.85,-18.83 1331.79,-18.08"/>
<polygon fill="midnightblue" stroke="midnightblue" points="649.2,-61.94 639.17,-65.34 649.13,-68.94 649.2,-61.94"/>
</g>
</g>
</svg>
