<?xml version="1.0" encoding="UTF-8" standalone="no"?>
<!DOCTYPE svg PUBLIC "-//W3C//DTD SVG 1.1//EN"
 "http://www.w3.org/Graphics/SVG/1.1/DTD/svg11.dtd">
<!-- Generated by graphviz version 2.43.0 (0)
 -->
<!-- Title: sam_print Pages: 1 -->
<svg width="234pt" height="176pt"
 viewBox="0.00 0.00 234.00 176.00" xmlns="http://www.w3.org/2000/svg" xmlns:xlink="http://www.w3.org/1999/xlink">
<g id="graph0" class="graph" transform="scale(1 1) rotate(0) translate(4 172)">
<title>sam_print</title>
<!-- Node1 -->
<g id="node1" class="node">
<title>Node1</title>
<g id="a_node1"><a xlink:title="Prints mutation rates.">
<polygon fill="#bfbfbf" stroke="black" points="167,-72 167,-91 226,-91 226,-72 167,-72"/>
<text text-anchor="middle" x="196.5" y="-79" font-family="Helvetica,sans-Serif" font-size="10.00">sam_print</text>
</a>
</g>
</g>
<!-- Node2 -->
<g id="node2" class="node">
<title>Node2</title>
<g id="a_node2"><a xlink:href="neural__layer__connected_8h.html#a24820ae41bc4e935996edadba071f3f3" target="_top" xlink:title="Prints a connected layer.">
<polygon fill="none" stroke="black" points="6,-137.5 6,-167.5 125,-167.5 125,-137.5 6,-137.5"/>
<text text-anchor="start" x="14" y="-155.5" font-family="Helvetica,sans-Serif" font-size="10.00">neural_layer_connected</text>
<text text-anchor="middle" x="65.5" y="-144.5" font-family="Helvetica,sans-Serif" font-size="10.00">_print</text>
</a>
</g>
</g>
<!-- Node1&#45;&gt;Node2 -->
<g id="edge1" class="edge">
<title>Node1&#45;&gt;Node2</title>
<path fill="none" stroke="midnightblue" d="M176.45,-97.53C164.07,-107.39 147.26,-119.76 131,-128.5 125,-131.72 118.48,-134.7 111.96,-137.38"/>
<polygon fill="midnightblue" stroke="midnightblue" points="178.7,-100.21 184.25,-91.18 174.29,-94.78 178.7,-100.21"/>
</g>
<!-- Node3 -->
<g id="node3" class="node">
<title>Node3</title>
<g id="a_node3"><a xlink:href="neural__layer__convolutional_8h.html#a8f3884461f9f8e028e4bab4b0e7e84c7" target="_top" xlink:title="Prints a convolutional layer.">
<polygon fill="none" stroke="black" points="0,-88.5 0,-118.5 131,-118.5 131,-88.5 0,-88.5"/>
<text text-anchor="start" x="8" y="-106.5" font-family="Helvetica,sans-Serif" font-size="10.00">neural_layer_convolutional</text>
<text text-anchor="middle" x="65.5" y="-95.5" font-family="Helvetica,sans-Serif" font-size="10.00">_print</text>
</a>
</g>
</g>
<!-- Node1&#45;&gt;Node3 -->
<g id="edge2" class="edge">
<title>Node1&#45;&gt;Node3</title>
<path fill="none" stroke="midnightblue" d="M156.96,-88.07C148.82,-89.46 140.02,-90.96 131.22,-92.46"/>
<polygon fill="midnightblue" stroke="midnightblue" points="157.6,-91.51 166.87,-86.38 156.42,-84.61 157.6,-91.51"/>
</g>
<!-- Node4 -->
<g id="node4" class="node">
<title>Node4</title>
<g id="a_node4"><a xlink:href="neural__layer__lstm_8h.html#a95c799424033bc661eb8b9a5c432140b" target="_top" xlink:title="Prints an LSTM layer.">
<polygon fill="none" stroke="black" points="7,-50 7,-69 124,-69 124,-50 7,-50"/>
<text text-anchor="middle" x="65.5" y="-57" font-family="Helvetica,sans-Serif" font-size="10.00">neural_layer_lstm_print</text>
</a>
</g>
</g>
<!-- Node1&#45;&gt;Node4 -->
<g id="edge3" class="edge">
<title>Node1&#45;&gt;Node4</title>
<path fill="none" stroke="midnightblue" d="M156.86,-74.91C146,-73.06 133.96,-71 122.3,-69.02"/>
<polygon fill="midnightblue" stroke="midnightblue" points="156.42,-78.39 166.87,-76.62 157.6,-71.49 156.42,-78.39"/>
</g>
<!-- Node5 -->
<g id="node5" class="node">
<title>Node5</title>
<g id="a_node5"><a xlink:href="neural__layer__recurrent_8h.html#afef72d2b81445a07dc2b038190a2e742" target="_top" xlink:title="Prints a recurrent layer.">
<polygon fill="none" stroke="black" points="9,-0.5 9,-30.5 122,-30.5 122,-0.5 9,-0.5"/>
<text text-anchor="start" x="17" y="-18.5" font-family="Helvetica,sans-Serif" font-size="10.00">neural_layer_recurrent</text>
<text text-anchor="middle" x="65.5" y="-7.5" font-family="Helvetica,sans-Serif" font-size="10.00">_print</text>
</a>
</g>
</g>
<!-- Node1&#45;&gt;Node5 -->
<g id="edge4" class="edge">
<title>Node1&#45;&gt;Node5</title>
<path fill="none" stroke="midnightblue" d="M173.54,-66.02C161.35,-57.82 145.72,-47.94 131,-40.5 124.03,-36.98 116.45,-33.63 109,-30.6"/>
<polygon fill="midnightblue" stroke="midnightblue" points="171.89,-69.13 182.12,-71.89 175.85,-63.36 171.89,-69.13"/>
</g>
</g>
</svg>
