<?xml version="1.0" encoding="UTF-8" standalone="no"?>
<!DOCTYPE svg PUBLIC "-//W3C//DTD SVG 1.1//EN"
 "http://www.w3.org/Graphics/SVG/1.1/DTD/svg11.dtd">
<!-- Generated by graphviz version 2.43.0 (0)
 -->
<!-- Title: SET Pages: 1 -->
<svg width="206pt" height="229pt"
 viewBox="0.00 0.00 205.50 229.00" xmlns="http://www.w3.org/2000/svg" xmlns:xlink="http://www.w3.org/1999/xlink">
<g id="graph0" class="graph" transform="scale(1 1) rotate(0) translate(4 225)">
<title>SET</title>
<!-- Node1 -->
<g id="node1" class="node">
<title>Node1</title>
<g id="a_node1"><a xlink:title="Classifier set.">
<polygon fill="#bfbfbf" stroke="black" points="76.5,-0.5 76.5,-19.5 112.5,-19.5 112.5,-0.5 76.5,-0.5"/>
<text text-anchor="middle" x="94.5" y="-7.5" font-family="Helvetica,sans-Serif" font-size="10.00">SET</text>
</a>
</g>
</g>
<!-- Node2 -->
<g id="node2" class="node">
<title>Node2</title>
<g id="a_node2"><a xlink:href="structCLIST.html" target="_top" xlink:title="Classifier linked list.">
<polygon fill="none" stroke="black" points="72,-67.5 72,-86.5 117,-86.5 117,-67.5 72,-67.5"/>
<text text-anchor="middle" x="94.5" y="-74.5" font-family="Helvetica,sans-Serif" font-size="10.00">CLIST</text>
</a>
</g>
</g>
<!-- Node2&#45;&gt;Node1 -->
<g id="edge1" class="edge">
<title>Node2&#45;&gt;Node1</title>
<path fill="none" stroke="#9a32cd" stroke-dasharray="5,2" d="M94.5,-57.04C94.5,-44.67 94.5,-29.12 94.5,-19.63"/>
<polygon fill="#9a32cd" stroke="#9a32cd" points="91,-57.23 94.5,-67.23 98,-57.23 91,-57.23"/>
<text text-anchor="middle" x="102.5" y="-41" font-family="Helvetica,sans-Serif" font-size="10.00"> list</text>
</g>
<!-- Node2&#45;&gt;Node2 -->
<g id="edge6" class="edge">
<title>Node2&#45;&gt;Node2</title>
<path fill="none" stroke="#9a32cd" stroke-dasharray="5,2" d="M127.5,-82.33C132,-81.44 135,-79.67 135,-77 135,-72.62 126.93,-70.64 117.4,-71.05"/>
<polygon fill="#9a32cd" stroke="#9a32cd" points="127.17,-78.85 117.4,-82.95 127.59,-85.83 127.17,-78.85"/>
<text text-anchor="middle" x="146" y="-74.5" font-family="Helvetica,sans-Serif" font-size="10.00"> next</text>
</g>
<!-- Node3 -->
<g id="node3" class="node">
<title>Node3</title>
<g id="a_node3"><a xlink:href="structCL.html" target="_top" xlink:title="Classifier data structure.">
<polygon fill="none" stroke="black" points="80,-134.5 80,-153.5 109,-153.5 109,-134.5 80,-134.5"/>
<text text-anchor="middle" x="94.5" y="-141.5" font-family="Helvetica,sans-Serif" font-size="10.00">CL</text>
</a>
</g>
</g>
<!-- Node3&#45;&gt;Node2 -->
<g id="edge2" class="edge">
<title>Node3&#45;&gt;Node2</title>
<path fill="none" stroke="#9a32cd" stroke-dasharray="5,2" d="M94.5,-124.04C94.5,-111.67 94.5,-96.12 94.5,-86.63"/>
<polygon fill="#9a32cd" stroke="#9a32cd" points="91,-124.23 94.5,-134.23 98,-124.23 91,-124.23"/>
<text text-anchor="middle" x="100" y="-108" font-family="Helvetica,sans-Serif" font-size="10.00"> cl</text>
</g>
<!-- Node4 -->
<g id="node4" class="node">
<title>Node4</title>
<g id="a_node4"><a xlink:href="structActVtbl.html" target="_top" xlink:title="Action interface data structure.">
<polygon fill="none" stroke="black" points="0,-201.5 0,-220.5 49,-220.5 49,-201.5 0,-201.5"/>
<text text-anchor="middle" x="24.5" y="-208.5" font-family="Helvetica,sans-Serif" font-size="10.00">ActVtbl</text>
</a>
</g>
</g>
<!-- Node4&#45;&gt;Node3 -->
<g id="edge3" class="edge">
<title>Node4&#45;&gt;Node3</title>
<path fill="none" stroke="#9a32cd" stroke-dasharray="5,2" d="M34.69,-192.72C39.28,-185.79 45.11,-178.04 51.5,-172 59.96,-164.01 71.13,-157.08 79.96,-152.24"/>
<polygon fill="#9a32cd" stroke="#9a32cd" points="31.58,-191.08 29.25,-201.42 37.52,-194.79 31.58,-191.08"/>
<text text-anchor="middle" x="71" y="-175" font-family="Helvetica,sans-Serif" font-size="10.00"> act_vptr</text>
</g>
<!-- Node5 -->
<g id="node5" class="node">
<title>Node5</title>
<g id="a_node5"><a xlink:href="structPredVtbl.html" target="_top" xlink:title="Prediction interface data structure.">
<polygon fill="none" stroke="black" points="67.5,-201.5 67.5,-220.5 121.5,-220.5 121.5,-201.5 67.5,-201.5"/>
<text text-anchor="middle" x="94.5" y="-208.5" font-family="Helvetica,sans-Serif" font-size="10.00">PredVtbl</text>
</a>
</g>
</g>
<!-- Node5&#45;&gt;Node3 -->
<g id="edge4" class="edge">
<title>Node5&#45;&gt;Node3</title>
<path fill="none" stroke="#9a32cd" stroke-dasharray="5,2" d="M94.5,-191.04C94.5,-178.67 94.5,-163.12 94.5,-153.63"/>
<polygon fill="#9a32cd" stroke="#9a32cd" points="91,-191.23 94.5,-201.23 98,-191.23 91,-191.23"/>
<text text-anchor="middle" x="116.5" y="-175" font-family="Helvetica,sans-Serif" font-size="10.00"> pred_vptr</text>
</g>
<!-- Node6 -->
<g id="node6" class="node">
<title>Node6</title>
<g id="a_node6"><a xlink:href="structCondVtbl.html" target="_top" xlink:title="Condition interface data structure.">
<polygon fill="none" stroke="black" points="140,-201.5 140,-220.5 197,-220.5 197,-201.5 140,-201.5"/>
<text text-anchor="middle" x="168.5" y="-208.5" font-family="Helvetica,sans-Serif" font-size="10.00">CondVtbl</text>
</a>
</g>
</g>
<!-- Node6&#45;&gt;Node3 -->
<g id="edge5" class="edge">
<title>Node6&#45;&gt;Node3</title>
<path fill="none" stroke="#9a32cd" stroke-dasharray="5,2" d="M158.94,-192.55C154.55,-185.59 148.9,-177.86 142.5,-172 132.63,-162.96 119.2,-155.73 109.05,-151.04"/>
<polygon fill="#9a32cd" stroke="#9a32cd" points="156,-194.46 164.08,-201.31 162.03,-190.91 156,-194.46"/>
<text text-anchor="middle" x="174.5" y="-175" font-family="Helvetica,sans-Serif" font-size="10.00"> cond_vptr</text>
</g>
</g>
</svg>
