<?xml version="1.0" encoding="UTF-8" standalone="no"?>
<!DOCTYPE svg PUBLIC "-//W3C//DTD SVG 1.1//EN"
 "http://www.w3.org/Graphics/SVG/1.1/DTD/svg11.dtd">
<!-- Generated by graphviz version 2.43.0 (0)
 -->
<!-- Title: ArgsAct Pages: 1 -->
<svg width="109pt" height="93pt"
 viewBox="0.00 0.00 109.00 93.00" xmlns="http://www.w3.org/2000/svg" xmlns:xlink="http://www.w3.org/1999/xlink">
<g id="graph0" class="graph" transform="scale(1 1) rotate(0) translate(4 89)">
<title>ArgsAct</title>
<!-- Node1 -->
<g id="Node000001" class="node">
<title>Node1</title>
<g id="a_Node000001"><a xlink:title="Parameters for initialising and operating actions.">
<polygon fill="#999999" stroke="#666666" points="56.5,-19 4.5,-19 4.5,0 56.5,0 56.5,-19"/>
<text text-anchor="middle" x="30.5" y="-7" font-family="Helvetica,sans-Serif" font-size="10.00">ArgsAct</text>
</a>
</g>
</g>
<!-- Node2 -->
<g id="Node000002" class="node">
<title>Node2</title>
<g id="a_Node000002"><a xlink:href="structArgsLayer.html" target="_top" xlink:title="Parameters for initialising a neural network layer.">
<polygon fill="white" stroke="#666666" points="61,-85 0,-85 0,-66 61,-66 61,-85"/>
<text text-anchor="middle" x="30.5" y="-73" font-family="Helvetica,sans-Serif" font-size="10.00">ArgsLayer</text>
</a>
</g>
</g>
<!-- Node2&#45;&gt;Node1 -->
<g id="edge1_Node000001_Node000002" class="edge">
<title>Node2&#45;&gt;Node1</title>
<g id="a_edge1_Node000001_Node000002"><a xlink:title=" ">
<path fill="none" stroke="#9a32cd" stroke-dasharray="5,2" d="M30.5,-55.58C30.5,-43.63 30.5,-28.72 30.5,-19.41"/>
<polygon fill="#9a32cd" stroke="#9a32cd" points="27,-55.87 30.5,-65.87 34,-55.87 27,-55.87"/>
</a>
</g>
<text text-anchor="middle" x="43" y="-40" font-family="Helvetica,sans-Serif" font-size="10.00" fill="grey"> largs</text>
</g>
<!-- Node2&#45;&gt;Node2 -->
<g id="edge2_Node000002_Node000002" class="edge">
<title>Node2&#45;&gt;Node2</title>
<g id="a_edge2_Node000002_Node000002"><a xlink:title=" ">
<path fill="none" stroke="#9a32cd" stroke-dasharray="5,2" d="M71.58,-80.54C76.09,-79.58 79,-77.9 79,-75.5 79,-71.56 71.17,-69.56 61.28,-69.5"/>
<polygon fill="#9a32cd" stroke="#9a32cd" points="70.92,-77.09 61.28,-81.5 71.57,-84.06 70.92,-77.09"/>
</a>
</g>
<text text-anchor="middle" x="90" y="-73" font-family="Helvetica,sans-Serif" font-size="10.00" fill="grey"> next</text>
</g>
</g>
</svg>
