<?xml version="1.0" encoding="UTF-8" standalone="no"?>
<!DOCTYPE svg PUBLIC "-//W3C//DTD SVG 1.1//EN"
 "http://www.w3.org/Graphics/SVG/1.1/DTD/svg11.dtd">
<!-- Generated by graphviz version 2.43.0 (0)
 -->
<!-- Title: Llist Pages: 1 -->
<svg width="197pt" height="198pt"
 viewBox="0.00 0.00 196.50 198.00" xmlns="http://www.w3.org/2000/svg" xmlns:xlink="http://www.w3.org/1999/xlink">
<g id="graph0" class="graph" transform="scale(1 1) rotate(0) translate(4 194)">
<title>Llist</title>
<!-- Node1 -->
<g id="Node000001" class="node">
<title>Node1</title>
<g id="a_Node000001"><a xlink:title="Forward declaration of layer structure.">
<polygon fill="#999999" stroke="#666666" points="35,-20.5 0,-20.5 0,-1.5 35,-1.5 35,-20.5"/>
<text text-anchor="middle" x="17.5" y="-8.5" font-family="Helvetica,sans-Serif" font-size="10.00">Llist</text>
</a>
</g>
</g>
<!-- Node1&#45;&gt;Node1 -->
<g id="edge5_Node000001_Node000001" class="edge">
<title>Node1&#45;&gt;Node1</title>
<g id="a_edge5_Node000001_Node000001"><a xlink:title=" ">
<path fill="none" stroke="#9a32cd" stroke-dasharray="5,2" d="M45.21,-16.92C49.82,-16.09 53,-14.12 53,-11 53,-5.89 44.44,-3.85 35.03,-4.89"/>
<polygon fill="#9a32cd" stroke="#9a32cd" points="44.97,-13.42 35.03,-17.11 45.1,-20.42 44.97,-13.42"/>
</a>
</g>
<text text-anchor="middle" x="64" y="-14" font-family="Helvetica,sans-Serif" font-size="10.00" fill="grey"> next</text>
<text text-anchor="middle" x="64" y="-3" font-family="Helvetica,sans-Serif" font-size="10.00" fill="grey">prev</text>
</g>
<!-- Node2 -->
<g id="Node000002" class="node">
<title>Node2</title>
<g id="a_Node000002"><a xlink:href="structLayer.html" target="_top" xlink:title="Neural network layer data structure.">
<polygon fill="white" stroke="#666666" points="86,-139 45,-139 45,-120 86,-120 86,-139"/>
<text text-anchor="middle" x="65.5" y="-127" font-family="Helvetica,sans-Serif" font-size="10.00">Layer</text>
</a>
</g>
</g>
<!-- Node2&#45;&gt;Node1 -->
<g id="edge1_Node000001_Node000002" class="edge">
<title>Node2&#45;&gt;Node1</title>
<g id="a_edge1_Node000001_Node000002"><a xlink:title=" ">
<path fill="none" stroke="#9a32cd" stroke-dasharray="5,2" d="M51.58,-111.51C40.28,-96.58 25.18,-73.76 18.5,-51 15.53,-40.86 15.8,-28.6 16.48,-20.56"/>
<polygon fill="#9a32cd" stroke="#9a32cd" points="49.08,-114 58.01,-119.71 54.59,-109.68 49.08,-114"/>
</a>
</g>
<text text-anchor="middle" x="31" y="-43" font-family="Helvetica,sans-Serif" font-size="10.00" fill="grey"> layer</text>
</g>
<!-- Node2&#45;&gt;Node2 -->
<g id="edge4_Node000002_Node000002" class="edge">
<title>Node2&#45;&gt;Node2</title>
<g id="a_edge4_Node000002_Node000002"><a xlink:title=" ">
<path fill="none" stroke="#9a32cd" stroke-dasharray="5,2" d="M82.82,-144.11C93.66,-147.7 104,-142.83 104,-129.5 104,-112.44 87.06,-109.24 73.82,-119.9"/>
<polygon fill="#9a32cd" stroke="#9a32cd" points="84.26,-140.9 73.82,-139.1 80.86,-147.02 84.26,-140.9"/>
</a>
</g>
<text text-anchor="middle" x="131" y="-182" font-family="Helvetica,sans-Serif" font-size="10.00" fill="grey"> input_layer</text>
<text text-anchor="middle" x="131" y="-171" font-family="Helvetica,sans-Serif" font-size="10.00" fill="grey">output_layer</text>
<text text-anchor="middle" x="131" y="-160" font-family="Helvetica,sans-Serif" font-size="10.00" fill="grey">self_layer</text>
<text text-anchor="middle" x="131" y="-149" font-family="Helvetica,sans-Serif" font-size="10.00" fill="grey">uf</text>
<text text-anchor="middle" x="131" y="-138" font-family="Helvetica,sans-Serif" font-size="10.00" fill="grey">ug</text>
<text text-anchor="middle" x="131" y="-127" font-family="Helvetica,sans-Serif" font-size="10.00" fill="grey">ui</text>
<text text-anchor="middle" x="131" y="-116" font-family="Helvetica,sans-Serif" font-size="10.00" fill="grey">uo</text>
<text text-anchor="middle" x="131" y="-105" font-family="Helvetica,sans-Serif" font-size="10.00" fill="grey">wf</text>
<text text-anchor="middle" x="131" y="-94" font-family="Helvetica,sans-Serif" font-size="10.00" fill="grey">wg</text>
<text text-anchor="middle" x="131" y="-83" font-family="Helvetica,sans-Serif" font-size="10.00" fill="grey">wi</text>
<text text-anchor="middle" x="131" y="-72" font-family="Helvetica,sans-Serif" font-size="10.00" fill="grey">...</text>
</g>
<!-- Node3 -->
<g id="Node000003" class="node">
<title>Node3</title>
<g id="a_Node000003"><a xlink:href="structLayerVtbl.html" target="_top" xlink:title="Neural network layer interface data structure.">
<polygon fill="white" stroke="#666666" points="171.5,-20.5 113.5,-20.5 113.5,-1.5 171.5,-1.5 171.5,-20.5"/>
<text text-anchor="middle" x="142.5" y="-8.5" font-family="Helvetica,sans-Serif" font-size="10.00">LayerVtbl</text>
</a>
</g>
</g>
<!-- Node2&#45;&gt;Node3 -->
<g id="edge3_Node000003_Node000002" class="edge">
<title>Node2&#45;&gt;Node3</title>
<g id="a_edge3_Node000003_Node000002"><a xlink:title=" ">
<path fill="none" stroke="#9a32cd" stroke-dasharray="5,2" d="M58.94,-110.31C53.23,-91.01 47.93,-60.53 62.5,-40 73.99,-23.8 95.61,-16.9 113.48,-13.99"/>
<polygon fill="#9a32cd" stroke="#9a32cd" points="55.67,-111.58 62.12,-119.98 62.32,-109.39 55.67,-111.58"/>
</a>
</g>
<text text-anchor="middle" x="99.5" y="-43" font-family="Helvetica,sans-Serif" font-size="10.00" fill="grey"> layer_impl_copy</text>
</g>
<!-- Node3&#45;&gt;Node2 -->
<g id="edge2_Node000002_Node000003" class="edge">
<title>Node3&#45;&gt;Node2</title>
<g id="a_edge2_Node000002_Node000003"><a xlink:title=" ">
<path fill="none" stroke="#9a32cd" stroke-dasharray="5,2" d="M144.19,-30.88C144.1,-37.48 143.2,-44.79 140.5,-51 127.21,-81.56 96.14,-107.09 78.44,-119.81"/>
<polygon fill="#9a32cd" stroke="#9a32cd" points="147.68,-30.6 143.75,-20.76 140.69,-30.9 147.68,-30.6"/>
</a>
</g>
<text text-anchor="middle" x="165.5" y="-43" font-family="Helvetica,sans-Serif" font-size="10.00" fill="grey"> layer_vptr</text>
</g>
</g>
</svg>
