<?xml version="1.0" encoding="UTF-8" standalone="no"?>
<!DOCTYPE svg PUBLIC "-//W3C//DTD SVG 1.1//EN"
 "http://www.w3.org/Graphics/SVG/1.1/DTD/svg11.dtd">
<!-- Generated by graphviz version 2.43.0 (0)
 -->
<!-- Title: NET Pages: 1 -->
<svg width="202pt" height="276pt"
 viewBox="0.00 0.00 201.50 276.00" xmlns="http://www.w3.org/2000/svg" xmlns:xlink="http://www.w3.org/1999/xlink">
<g id="graph0" class="graph" transform="scale(1 1) rotate(0) translate(4 272)">
<title>NET</title>
<!-- Node1 -->
<g id="node1" class="node">
<title>Node1</title>
<g id="a_node1"><a xlink:title="Neural network data structure.">
<polygon fill="#bfbfbf" stroke="black" points="3,-0.5 3,-19.5 40,-19.5 40,-0.5 3,-0.5"/>
<text text-anchor="middle" x="21.5" y="-7.5" font-family="Helvetica,sans-Serif" font-size="10.00">NET</text>
</a>
</g>
</g>
<!-- Node2 -->
<g id="node2" class="node">
<title>Node2</title>
<g id="a_node2"><a xlink:href="structLLIST.html" target="_top" xlink:title="Double linked list of layers data structure.">
<polygon fill="none" stroke="black" points="0,-79.5 0,-98.5 43,-98.5 43,-79.5 0,-79.5"/>
<text text-anchor="middle" x="21.5" y="-86.5" font-family="Helvetica,sans-Serif" font-size="10.00">LLIST</text>
</a>
</g>
</g>
<!-- Node2&#45;&gt;Node1 -->
<g id="edge1" class="edge">
<title>Node2&#45;&gt;Node1</title>
<path fill="none" stroke="#9a32cd" stroke-dasharray="5,2" d="M21.5,-69.31C21.5,-53.59 21.5,-31.81 21.5,-19.81"/>
<polygon fill="#9a32cd" stroke="#9a32cd" points="18,-69.47 21.5,-79.47 25,-69.47 18,-69.47"/>
<text text-anchor="middle" x="34" y="-52" font-family="Helvetica,sans-Serif" font-size="10.00"> head</text>
<text text-anchor="middle" x="34" y="-41" font-family="Helvetica,sans-Serif" font-size="10.00">tail</text>
</g>
<!-- Node2&#45;&gt;Node2 -->
<g id="edge2" class="edge">
<title>Node2&#45;&gt;Node2</title>
<path fill="none" stroke="#9a32cd" stroke-dasharray="5,2" d="M53.31,-94.74C57.91,-93.83 61,-91.91 61,-89 61,-84.22 52.67,-82.13 43.03,-82.72"/>
<polygon fill="#9a32cd" stroke="#9a32cd" points="52.84,-91.26 43.03,-95.28 53.2,-98.25 52.84,-91.26"/>
<text text-anchor="middle" x="72" y="-92" font-family="Helvetica,sans-Serif" font-size="10.00"> prev</text>
<text text-anchor="middle" x="72" y="-81" font-family="Helvetica,sans-Serif" font-size="10.00">next</text>
</g>
<!-- Node3 -->
<g id="node3" class="node">
<title>Node3</title>
<g id="a_node3"><a xlink:href="structLAYER.html" target="_top" xlink:title="Neural network layer data structure.">
<polygon fill="none" stroke="black" points="45.5,-198 45.5,-217 93.5,-217 93.5,-198 45.5,-198"/>
<text text-anchor="middle" x="69.5" y="-205" font-family="Helvetica,sans-Serif" font-size="10.00">LAYER</text>
</a>
</g>
</g>
<!-- Node3&#45;&gt;Node2 -->
<g id="edge3" class="edge">
<title>Node3&#45;&gt;Node2</title>
<path fill="none" stroke="#9a32cd" stroke-dasharray="5,2" d="M55.58,-189.51C44.28,-174.58 29.18,-151.76 22.5,-129 19.53,-118.86 19.8,-106.6 20.48,-98.56"/>
<polygon fill="#9a32cd" stroke="#9a32cd" points="53.08,-192 62.01,-197.71 58.59,-187.68 53.08,-192"/>
<text text-anchor="middle" x="35" y="-121" font-family="Helvetica,sans-Serif" font-size="10.00"> layer</text>
</g>
<!-- Node3&#45;&gt;Node3 -->
<g id="edge6" class="edge">
<title>Node3&#45;&gt;Node3</title>
<path fill="none" stroke="#9a32cd" stroke-dasharray="5,2" d="M87.69,-221.88C99.76,-225.89 111.5,-221.1 111.5,-207.5 111.5,-190.44 93.02,-187.24 78.57,-197.9"/>
<polygon fill="#9a32cd" stroke="#9a32cd" points="89.06,-218.65 78.57,-217.1 85.8,-224.84 89.06,-218.65"/>
<text text-anchor="middle" x="135.5" y="-260" font-family="Helvetica,sans-Serif" font-size="10.00"> wf</text>
<text text-anchor="middle" x="135.5" y="-249" font-family="Helvetica,sans-Serif" font-size="10.00">wg</text>
<text text-anchor="middle" x="135.5" y="-238" font-family="Helvetica,sans-Serif" font-size="10.00">self_layer</text>
<text text-anchor="middle" x="135.5" y="-227" font-family="Helvetica,sans-Serif" font-size="10.00">uf</text>
<text text-anchor="middle" x="135.5" y="-216" font-family="Helvetica,sans-Serif" font-size="10.00">wi</text>
<text text-anchor="middle" x="135.5" y="-205" font-family="Helvetica,sans-Serif" font-size="10.00">ug</text>
<text text-anchor="middle" x="135.5" y="-194" font-family="Helvetica,sans-Serif" font-size="10.00">ui</text>
<text text-anchor="middle" x="135.5" y="-183" font-family="Helvetica,sans-Serif" font-size="10.00">input_layer</text>
<text text-anchor="middle" x="135.5" y="-172" font-family="Helvetica,sans-Serif" font-size="10.00">wo</text>
<text text-anchor="middle" x="135.5" y="-161" font-family="Helvetica,sans-Serif" font-size="10.00">uo</text>
<text text-anchor="middle" x="135.5" y="-150" font-family="Helvetica,sans-Serif" font-size="10.00">...</text>
</g>
<!-- Node4 -->
<g id="node4" class="node">
<title>Node4</title>
<g id="a_node4"><a xlink:href="structLayerVtbl.html" target="_top" xlink:title="Neural network layer interface data structure.">
<polygon fill="none" stroke="black" points="119.5,-79.5 119.5,-98.5 177.5,-98.5 177.5,-79.5 119.5,-79.5"/>
<text text-anchor="middle" x="148.5" y="-86.5" font-family="Helvetica,sans-Serif" font-size="10.00">LayerVtbl</text>
</a>
</g>
</g>
<!-- Node3&#45;&gt;Node4 -->
<g id="edge5" class="edge">
<title>Node3&#45;&gt;Node4</title>
<path fill="none" stroke="#9a32cd" stroke-dasharray="5,2" d="M62.91,-188.29C57.17,-168.97 51.85,-138.48 66.5,-118 72.84,-109.13 98.31,-101.32 119.2,-96.22"/>
<polygon fill="#9a32cd" stroke="#9a32cd" points="59.65,-189.57 66.1,-197.97 66.29,-187.38 59.65,-189.57"/>
<text text-anchor="middle" x="103.5" y="-121" font-family="Helvetica,sans-Serif" font-size="10.00"> layer_impl_copy</text>
</g>
<!-- Node4&#45;&gt;Node3 -->
<g id="edge4" class="edge">
<title>Node4&#45;&gt;Node3</title>
<path fill="none" stroke="#9a32cd" stroke-dasharray="5,2" d="M149.05,-108.93C148.61,-115.54 147.37,-122.83 144.5,-129 130.36,-159.39 99.32,-185.17 81.94,-197.93"/>
<polygon fill="#9a32cd" stroke="#9a32cd" points="152.55,-108.85 149.2,-98.8 145.56,-108.75 152.55,-108.85"/>
<text text-anchor="middle" x="170.5" y="-121" font-family="Helvetica,sans-Serif" font-size="10.00"> layer_vptr</text>
</g>
</g>
</svg>
