<?xml version="1.0" encoding="UTF-8" standalone="no"?>
<!DOCTYPE svg PUBLIC "-//W3C//DTD SVG 1.1//EN"
 "http://www.w3.org/Graphics/SVG/1.1/DTD/svg11.dtd">
<!-- Generated by graphviz version 2.43.0 (0)
 -->
<!-- Title: LayerVtbl Pages: 1 -->
<svg width="139pt" height="195pt"
 viewBox="0.00 0.00 138.89 195.00" xmlns="http://www.w3.org/2000/svg" xmlns:xlink="http://www.w3.org/1999/xlink">
<g id="graph0" class="graph" transform="scale(1 1) rotate(0) translate(4 191)">
<title>LayerVtbl</title>
<!-- Node1 -->
<g id="Node000001" class="node">
<title>Node1</title>
<g id="a_Node000001"><a xlink:title="Neural network layer interface data structure.">
<polygon fill="#999999" stroke="#666666" points="67.39,-187 9.39,-187 9.39,-168 67.39,-168 67.39,-187"/>
<text text-anchor="middle" x="38.39" y="-175" font-family="Helvetica,sans-Serif" font-size="10.00">LayerVtbl</text>
</a>
</g>
</g>
<!-- Node2 -->
<g id="Node000002" class="node">
<title>Node2</title>
<g id="a_Node000002"><a xlink:href="structLayer.html" target="_top" xlink:title="Neural network layer data structure.">
<polygon fill="white" stroke="#666666" points="58.89,-70 17.89,-70 17.89,-51 58.89,-51 58.89,-70"/>
<text text-anchor="middle" x="38.39" y="-58" font-family="Helvetica,sans-Serif" font-size="10.00">Layer</text>
</a>
</g>
</g>
<!-- Node1&#45;&gt;Node2 -->
<g id="edge2_Node000002_Node000001" class="edge">
<title>Node1&#45;&gt;Node2</title>
<g id="a_edge2_Node000002_Node000001"><a xlink:title=" ">
<path fill="none" stroke="#9a32cd" stroke-dasharray="5,2" d="M11.09,-161.75C7.18,-158.42 3.7,-154.51 1.39,-150 -0.85,-145.65 0.31,-143.77 1.39,-139 7.45,-112.24 23.91,-83.91 32.69,-70.09"/>
<polygon fill="#9a32cd" stroke="#9a32cd" points="9.33,-164.8 19.5,-167.78 13.41,-159.11 9.33,-164.8"/>
</a>
</g>
<text text-anchor="middle" x="24.39" y="-142" font-family="Helvetica,sans-Serif" font-size="10.00" fill="grey"> layer_vptr</text>
</g>
<!-- Node2&#45;&gt;Node1 -->
<g id="edge1_Node000001_Node000002" class="edge">
<title>Node2&#45;&gt;Node1</title>
<g id="a_edge1_Node000001_Node000002"><a xlink:title=" ">
<path fill="none" stroke="#9a32cd" stroke-dasharray="5,2" d="M44.98,-79.66C50.61,-97.66 56.97,-125.96 51.39,-150 49.95,-156.19 46.86,-162.6 44.05,-167.57"/>
<polygon fill="#9a32cd" stroke="#9a32cd" points="48.28,-78.49 41.77,-70.13 41.65,-80.73 48.28,-78.49"/>
</a>
</g>
<text text-anchor="middle" x="89.39" y="-142" font-family="Helvetica,sans-Serif" font-size="10.00" fill="grey"> layer_impl_copy</text>
</g>
<!-- Node2&#45;&gt;Node2 -->
<g id="edge3_Node000002_Node000002" class="edge">
<title>Node2&#45;&gt;Node2</title>
<g id="a_edge3_Node000002_Node000002"><a xlink:title=" ">
<path fill="none" stroke="#9a32cd" stroke-dasharray="5,2" d="M55.71,-75.11C66.55,-78.7 76.89,-73.83 76.89,-60.5 76.89,-43.44 59.94,-40.24 46.71,-50.9"/>
<polygon fill="#9a32cd" stroke="#9a32cd" points="57.15,-71.9 46.71,-70.1 53.74,-78.02 57.15,-71.9"/>
</a>
</g>
<text text-anchor="middle" x="103.89" y="-113" font-family="Helvetica,sans-Serif" font-size="10.00" fill="grey"> input_layer</text>
<text text-anchor="middle" x="103.89" y="-102" font-family="Helvetica,sans-Serif" font-size="10.00" fill="grey">output_layer</text>
<text text-anchor="middle" x="103.89" y="-91" font-family="Helvetica,sans-Serif" font-size="10.00" fill="grey">self_layer</text>
<text text-anchor="middle" x="103.89" y="-80" font-family="Helvetica,sans-Serif" font-size="10.00" fill="grey">uf</text>
<text text-anchor="middle" x="103.89" y="-69" font-family="Helvetica,sans-Serif" font-size="10.00" fill="grey">ug</text>
<text text-anchor="middle" x="103.89" y="-58" font-family="Helvetica,sans-Serif" font-size="10.00" fill="grey">ui</text>
<text text-anchor="middle" x="103.89" y="-47" font-family="Helvetica,sans-Serif" font-size="10.00" fill="grey">uo</text>
<text text-anchor="middle" x="103.89" y="-36" font-family="Helvetica,sans-Serif" font-size="10.00" fill="grey">wf</text>
<text text-anchor="middle" x="103.89" y="-25" font-family="Helvetica,sans-Serif" font-size="10.00" fill="grey">wg</text>
<text text-anchor="middle" x="103.89" y="-14" font-family="Helvetica,sans-Serif" font-size="10.00" fill="grey">wi</text>
<text text-anchor="middle" x="103.89" y="-3" font-family="Helvetica,sans-Serif" font-size="10.00" fill="grey">...</text>
</g>
</g>
</svg>
