<?xml version="1.0" encoding="UTF-8" standalone="no"?>
<!DOCTYPE svg PUBLIC "-//W3C//DTD SVG 1.1//EN"
 "http://www.w3.org/Graphics/SVG/1.1/DTD/svg11.dtd">
<!-- Generated by graphviz version 2.43.0 (0)
 -->
<!-- Title: Net Pages: 1 -->
<svg width="197pt" height="275pt"
 viewBox="0.00 0.00 196.50 275.00" xmlns="http://www.w3.org/2000/svg" xmlns:xlink="http://www.w3.org/1999/xlink">
<g id="graph0" class="graph" transform="scale(1 1) rotate(0) translate(4 271)">
<title>Net</title>
<!-- Node1 -->
<g id="Node000001" class="node">
<title>Node1</title>
<g id="a_Node000001"><a xlink:title="Neural network data structure.">
<polygon fill="#999999" stroke="#666666" points="33.5,-19 1.5,-19 1.5,0 33.5,0 33.5,-19"/>
<text text-anchor="middle" x="17.5" y="-7" font-family="Helvetica,sans-Serif" font-size="10.00">Net</text>
</a>
</g>
</g>
<!-- Node2 -->
<g id="Node000002" class="node">
<title>Node2</title>
<g id="a_Node000002"><a xlink:href="structLlist.html" target="_top" xlink:title="Forward declaration of layer structure.">
<polygon fill="white" stroke="#666666" points="35,-97.5 0,-97.5 0,-78.5 35,-78.5 35,-97.5"/>
<text text-anchor="middle" x="17.5" y="-85.5" font-family="Helvetica,sans-Serif" font-size="10.00">Llist</text>
</a>
</g>
</g>
<!-- Node2&#45;&gt;Node1 -->
<g id="edge1_Node000001_Node000002" class="edge">
<title>Node2&#45;&gt;Node1</title>
<g id="a_edge1_Node000001_Node000002"><a xlink:title=" ">
<path fill="none" stroke="#9a32cd" stroke-dasharray="5,2" d="M17.5,-68.1C17.5,-52.47 17.5,-30.99 17.5,-19.17"/>
<polygon fill="#9a32cd" stroke="#9a32cd" points="14,-68.22 17.5,-78.22 21,-68.22 14,-68.22"/>
</a>
</g>
<text text-anchor="middle" x="30" y="-51" font-family="Helvetica,sans-Serif" font-size="10.00" fill="grey"> head</text>
<text text-anchor="middle" x="30" y="-40" font-family="Helvetica,sans-Serif" font-size="10.00" fill="grey">tail</text>
</g>
<!-- Node2&#45;&gt;Node2 -->
<g id="edge6_Node000002_Node000002" class="edge">
<title>Node2&#45;&gt;Node2</title>
<g id="a_edge6_Node000002_Node000002"><a xlink:title=" ">
<path fill="none" stroke="#9a32cd" stroke-dasharray="5,2" d="M45.21,-93.92C49.82,-93.09 53,-91.12 53,-88 53,-82.89 44.44,-80.85 35.03,-81.89"/>
<polygon fill="#9a32cd" stroke="#9a32cd" points="44.97,-90.42 35.03,-94.11 45.1,-97.42 44.97,-90.42"/>
</a>
</g>
<text text-anchor="middle" x="64" y="-91" font-family="Helvetica,sans-Serif" font-size="10.00" fill="grey"> next</text>
<text text-anchor="middle" x="64" y="-80" font-family="Helvetica,sans-Serif" font-size="10.00" fill="grey">prev</text>
</g>
<!-- Node3 -->
<g id="Node000003" class="node">
<title>Node3</title>
<g id="a_Node000003"><a xlink:href="structLayer.html" target="_top" xlink:title="Neural network layer data structure.">
<polygon fill="white" stroke="#666666" points="86,-216 45,-216 45,-197 86,-197 86,-216"/>
<text text-anchor="middle" x="65.5" y="-204" font-family="Helvetica,sans-Serif" font-size="10.00">Layer</text>
</a>
</g>
</g>
<!-- Node3&#45;&gt;Node2 -->
<g id="edge2_Node000002_Node000003" class="edge">
<title>Node3&#45;&gt;Node2</title>
<g id="a_edge2_Node000002_Node000003"><a xlink:title=" ">
<path fill="none" stroke="#9a32cd" stroke-dasharray="5,2" d="M51.58,-188.51C40.28,-173.58 25.18,-150.76 18.5,-128 15.53,-117.86 15.8,-105.6 16.48,-97.56"/>
<polygon fill="#9a32cd" stroke="#9a32cd" points="49.08,-191 58.01,-196.71 54.59,-186.68 49.08,-191"/>
</a>
</g>
<text text-anchor="middle" x="31" y="-120" font-family="Helvetica,sans-Serif" font-size="10.00" fill="grey"> layer</text>
</g>
<!-- Node3&#45;&gt;Node3 -->
<g id="edge5_Node000003_Node000003" class="edge">
<title>Node3&#45;&gt;Node3</title>
<g id="a_edge5_Node000003_Node000003"><a xlink:title=" ">
<path fill="none" stroke="#9a32cd" stroke-dasharray="5,2" d="M82.82,-221.11C93.66,-224.7 104,-219.83 104,-206.5 104,-189.44 87.06,-186.24 73.82,-196.9"/>
<polygon fill="#9a32cd" stroke="#9a32cd" points="84.26,-217.9 73.82,-216.1 80.86,-224.02 84.26,-217.9"/>
</a>
</g>
<text text-anchor="middle" x="131" y="-259" font-family="Helvetica,sans-Serif" font-size="10.00" fill="grey"> input_layer</text>
<text text-anchor="middle" x="131" y="-248" font-family="Helvetica,sans-Serif" font-size="10.00" fill="grey">output_layer</text>
<text text-anchor="middle" x="131" y="-237" font-family="Helvetica,sans-Serif" font-size="10.00" fill="grey">self_layer</text>
<text text-anchor="middle" x="131" y="-226" font-family="Helvetica,sans-Serif" font-size="10.00" fill="grey">uf</text>
<text text-anchor="middle" x="131" y="-215" font-family="Helvetica,sans-Serif" font-size="10.00" fill="grey">ug</text>
<text text-anchor="middle" x="131" y="-204" font-family="Helvetica,sans-Serif" font-size="10.00" fill="grey">ui</text>
<text text-anchor="middle" x="131" y="-193" font-family="Helvetica,sans-Serif" font-size="10.00" fill="grey">uo</text>
<text text-anchor="middle" x="131" y="-182" font-family="Helvetica,sans-Serif" font-size="10.00" fill="grey">wf</text>
<text text-anchor="middle" x="131" y="-171" font-family="Helvetica,sans-Serif" font-size="10.00" fill="grey">wg</text>
<text text-anchor="middle" x="131" y="-160" font-family="Helvetica,sans-Serif" font-size="10.00" fill="grey">wi</text>
<text text-anchor="middle" x="131" y="-149" font-family="Helvetica,sans-Serif" font-size="10.00" fill="grey">...</text>
</g>
<!-- Node4 -->
<g id="Node000004" class="node">
<title>Node4</title>
<g id="a_Node000004"><a xlink:href="structLayerVtbl.html" target="_top" xlink:title="Neural network layer interface data structure.">
<polygon fill="white" stroke="#666666" points="171.5,-97.5 113.5,-97.5 113.5,-78.5 171.5,-78.5 171.5,-97.5"/>
<text text-anchor="middle" x="142.5" y="-85.5" font-family="Helvetica,sans-Serif" font-size="10.00">LayerVtbl</text>
</a>
</g>
</g>
<!-- Node3&#45;&gt;Node4 -->
<g id="edge4_Node000004_Node000003" class="edge">
<title>Node3&#45;&gt;Node4</title>
<g id="a_edge4_Node000004_Node000003"><a xlink:title=" ">
<path fill="none" stroke="#9a32cd" stroke-dasharray="5,2" d="M58.94,-187.31C53.23,-168.01 47.93,-137.53 62.5,-117 73.99,-100.8 95.61,-93.9 113.48,-90.99"/>
<polygon fill="#9a32cd" stroke="#9a32cd" points="55.67,-188.58 62.12,-196.98 62.32,-186.39 55.67,-188.58"/>
</a>
</g>
<text text-anchor="middle" x="99.5" y="-120" font-family="Helvetica,sans-Serif" font-size="10.00" fill="grey"> layer_impl_copy</text>
</g>
<!-- Node4&#45;&gt;Node3 -->
<g id="edge3_Node000003_Node000004" class="edge">
<title>Node4&#45;&gt;Node3</title>
<g id="a_edge3_Node000003_Node000004"><a xlink:title=" ">
<path fill="none" stroke="#9a32cd" stroke-dasharray="5,2" d="M144.19,-107.88C144.1,-114.48 143.2,-121.79 140.5,-128 127.21,-158.56 96.14,-184.09 78.44,-196.81"/>
<polygon fill="#9a32cd" stroke="#9a32cd" points="147.68,-107.6 143.75,-97.76 140.69,-107.9 147.68,-107.6"/>
</a>
</g>
<text text-anchor="middle" x="165.5" y="-120" font-family="Helvetica,sans-Serif" font-size="10.00" fill="grey"> layer_vptr</text>
</g>
</g>
</svg>
