<?xml version="1.0" encoding="UTF-8" standalone="no"?>
<!DOCTYPE svg PUBLIC "-//W3C//DTD SVG 1.1//EN"
 "http://www.w3.org/Graphics/SVG/1.1/DTD/svg11.dtd">
<!-- Generated by graphviz version 2.43.0 (0)
 -->
<!-- Title: ActArgs Pages: 1 -->
<svg width="109pt" height="95pt"
 viewBox="0.00 0.00 109.00 95.00" xmlns="http://www.w3.org/2000/svg" xmlns:xlink="http://www.w3.org/1999/xlink">
<g id="graph0" class="graph" transform="scale(1 1) rotate(0) translate(4 91)">
<title>ActArgs</title>
<!-- Node1 -->
<g id="node1" class="node">
<title>Node1</title>
<g id="a_node1"><a xlink:title="Parameters for initialising and operating actions.">
<polygon fill="#bfbfbf" stroke="black" points="4.5,-0.5 4.5,-19.5 56.5,-19.5 56.5,-0.5 4.5,-0.5"/>
<text text-anchor="middle" x="30.5" y="-7.5" font-family="Helvetica,sans-Serif" font-size="10.00">ActArgs</text>
</a>
</g>
</g>
<!-- Node2 -->
<g id="node2" class="node">
<title>Node2</title>
<g id="a_node2"><a xlink:href="structLayerArgs.html" target="_top" xlink:title="Parameters for initialising a neural network layer.">
<polygon fill="none" stroke="black" points="0,-67.5 0,-86.5 61,-86.5 61,-67.5 0,-67.5"/>
<text text-anchor="middle" x="30.5" y="-74.5" font-family="Helvetica,sans-Serif" font-size="10.00">LayerArgs</text>
</a>
</g>
</g>
<!-- Node2&#45;&gt;Node1 -->
<g id="edge1" class="edge">
<title>Node2&#45;&gt;Node1</title>
<path fill="none" stroke="#9a32cd" stroke-dasharray="5,2" d="M30.5,-57.04C30.5,-44.67 30.5,-29.12 30.5,-19.63"/>
<polygon fill="#9a32cd" stroke="#9a32cd" points="27,-57.23 30.5,-67.23 34,-57.23 27,-57.23"/>
<text text-anchor="middle" x="43" y="-41" font-family="Helvetica,sans-Serif" font-size="10.00"> largs</text>
</g>
<!-- Node2&#45;&gt;Node2 -->
<g id="edge2" class="edge">
<title>Node2&#45;&gt;Node2</title>
<path fill="none" stroke="#9a32cd" stroke-dasharray="5,2" d="M71.58,-82.04C76.09,-81.08 79,-79.4 79,-77 79,-73.06 71.17,-71.06 61.28,-71"/>
<polygon fill="#9a32cd" stroke="#9a32cd" points="70.92,-78.59 61.28,-83 71.57,-85.56 70.92,-78.59"/>
<text text-anchor="middle" x="90" y="-74.5" font-family="Helvetica,sans-Serif" font-size="10.00"> next</text>
</g>
</g>
</svg>
