<?xml version="1.0" encoding="UTF-8" standalone="no"?>
<!DOCTYPE svg PUBLIC "-//W3C//DTD SVG 1.1//EN"
 "http://www.w3.org/Graphics/SVG/1.1/DTD/svg11.dtd">
<!-- Generated by graphviz version 2.43.0 (0)
 -->
<!-- Title: PredNeural Pages: 1 -->
<svg width="212pt" height="343pt"
 viewBox="0.00 0.00 211.50 343.00" xmlns="http://www.w3.org/2000/svg" xmlns:xlink="http://www.w3.org/1999/xlink">
<g id="graph0" class="graph" transform="scale(1 1) rotate(0) translate(4 339)">
<title>PredNeural</title>
<!-- Node1 -->
<g id="node1" class="node">
<title>Node1</title>
<g id="a_node1"><a xlink:title="Multi&#45;layer perceptron neural network prediction data structure.">
<polygon fill="#bfbfbf" stroke="black" points="0,-0.5 0,-19.5 65,-19.5 65,-0.5 0,-0.5"/>
<text text-anchor="middle" x="32.5" y="-7.5" font-family="Helvetica,sans-Serif" font-size="10.00">PredNeural</text>
</a>
</g>
</g>
<!-- Node2 -->
<g id="node2" class="node">
<title>Node2</title>
<g id="a_node2"><a xlink:href="structNet.html" target="_top" xlink:title="Neural network data structure.">
<polygon fill="none" stroke="black" points="16.5,-67.5 16.5,-86.5 48.5,-86.5 48.5,-67.5 16.5,-67.5"/>
<text text-anchor="middle" x="32.5" y="-74.5" font-family="Helvetica,sans-Serif" font-size="10.00">Net</text>
</a>
</g>
</g>
<!-- Node2&#45;&gt;Node1 -->
<g id="edge1" class="edge">
<title>Node2&#45;&gt;Node1</title>
<path fill="none" stroke="#9a32cd" stroke-dasharray="5,2" d="M32.5,-57.04C32.5,-44.67 32.5,-29.12 32.5,-19.63"/>
<polygon fill="#9a32cd" stroke="#9a32cd" points="29,-57.23 32.5,-67.23 36,-57.23 29,-57.23"/>
<text text-anchor="middle" x="41" y="-41" font-family="Helvetica,sans-Serif" font-size="10.00"> net</text>
</g>
<!-- Node3 -->
<g id="node3" class="node">
<title>Node3</title>
<g id="a_node3"><a xlink:href="structLlist.html" target="_top" xlink:title="Forward declaration of layer structure.">
<polygon fill="none" stroke="black" points="15,-146.5 15,-165.5 50,-165.5 50,-146.5 15,-146.5"/>
<text text-anchor="middle" x="32.5" y="-153.5" font-family="Helvetica,sans-Serif" font-size="10.00">Llist</text>
</a>
</g>
</g>
<!-- Node3&#45;&gt;Node2 -->
<g id="edge2" class="edge">
<title>Node3&#45;&gt;Node2</title>
<path fill="none" stroke="#9a32cd" stroke-dasharray="5,2" d="M32.5,-136.31C32.5,-120.59 32.5,-98.81 32.5,-86.81"/>
<polygon fill="#9a32cd" stroke="#9a32cd" points="29,-136.47 32.5,-146.47 36,-136.47 29,-136.47"/>
<text text-anchor="middle" x="45" y="-119" font-family="Helvetica,sans-Serif" font-size="10.00"> head</text>
<text text-anchor="middle" x="45" y="-108" font-family="Helvetica,sans-Serif" font-size="10.00">tail</text>
</g>
<!-- Node3&#45;&gt;Node3 -->
<g id="edge3" class="edge">
<title>Node3&#45;&gt;Node3</title>
<path fill="none" stroke="#9a32cd" stroke-dasharray="5,2" d="M60.21,-161.92C64.82,-161.09 68,-159.12 68,-156 68,-150.89 59.44,-148.85 50.03,-149.89"/>
<polygon fill="#9a32cd" stroke="#9a32cd" points="59.97,-158.42 50.03,-162.11 60.1,-165.42 59.97,-158.42"/>
<text text-anchor="middle" x="79" y="-159" font-family="Helvetica,sans-Serif" font-size="10.00"> prev</text>
<text text-anchor="middle" x="79" y="-148" font-family="Helvetica,sans-Serif" font-size="10.00">next</text>
</g>
<!-- Node4 -->
<g id="node4" class="node">
<title>Node4</title>
<g id="a_node4"><a xlink:href="structLayer.html" target="_top" xlink:title="Neural network layer data structure.">
<polygon fill="none" stroke="black" points="60,-265 60,-284 101,-284 101,-265 60,-265"/>
<text text-anchor="middle" x="80.5" y="-272" font-family="Helvetica,sans-Serif" font-size="10.00">Layer</text>
</a>
</g>
</g>
<!-- Node4&#45;&gt;Node3 -->
<g id="edge4" class="edge">
<title>Node4&#45;&gt;Node3</title>
<path fill="none" stroke="#9a32cd" stroke-dasharray="5,2" d="M66.58,-256.51C55.28,-241.58 40.18,-218.76 33.5,-196 30.53,-185.86 30.8,-173.6 31.48,-165.56"/>
<polygon fill="#9a32cd" stroke="#9a32cd" points="64.08,-259 73.01,-264.71 69.59,-254.68 64.08,-259"/>
<text text-anchor="middle" x="46" y="-188" font-family="Helvetica,sans-Serif" font-size="10.00"> layer</text>
</g>
<!-- Node4&#45;&gt;Node4 -->
<g id="edge7" class="edge">
<title>Node4&#45;&gt;Node4</title>
<path fill="none" stroke="#9a32cd" stroke-dasharray="5,2" d="M97.82,-289.11C108.66,-292.7 119,-287.83 119,-274.5 119,-257.44 102.06,-254.24 88.82,-264.9"/>
<polygon fill="#9a32cd" stroke="#9a32cd" points="99.26,-285.9 88.82,-284.1 95.86,-292.02 99.26,-285.9"/>
<text text-anchor="middle" x="143" y="-327" font-family="Helvetica,sans-Serif" font-size="10.00"> wf</text>
<text text-anchor="middle" x="143" y="-316" font-family="Helvetica,sans-Serif" font-size="10.00">wg</text>
<text text-anchor="middle" x="143" y="-305" font-family="Helvetica,sans-Serif" font-size="10.00">self_layer</text>
<text text-anchor="middle" x="143" y="-294" font-family="Helvetica,sans-Serif" font-size="10.00">uf</text>
<text text-anchor="middle" x="143" y="-283" font-family="Helvetica,sans-Serif" font-size="10.00">wi</text>
<text text-anchor="middle" x="143" y="-272" font-family="Helvetica,sans-Serif" font-size="10.00">ug</text>
<text text-anchor="middle" x="143" y="-261" font-family="Helvetica,sans-Serif" font-size="10.00">ui</text>
<text text-anchor="middle" x="143" y="-250" font-family="Helvetica,sans-Serif" font-size="10.00">input_layer</text>
<text text-anchor="middle" x="143" y="-239" font-family="Helvetica,sans-Serif" font-size="10.00">wo</text>
<text text-anchor="middle" x="143" y="-228" font-family="Helvetica,sans-Serif" font-size="10.00">uo</text>
<text text-anchor="middle" x="143" y="-217" font-family="Helvetica,sans-Serif" font-size="10.00">...</text>
</g>
<!-- Node5 -->
<g id="node5" class="node">
<title>Node5</title>
<g id="a_node5"><a xlink:href="structLayerVtbl.html" target="_top" xlink:title="Neural network layer interface data structure.">
<polygon fill="none" stroke="black" points="128.5,-146.5 128.5,-165.5 186.5,-165.5 186.5,-146.5 128.5,-146.5"/>
<text text-anchor="middle" x="157.5" y="-153.5" font-family="Helvetica,sans-Serif" font-size="10.00">LayerVtbl</text>
</a>
</g>
</g>
<!-- Node4&#45;&gt;Node5 -->
<g id="edge6" class="edge">
<title>Node4&#45;&gt;Node5</title>
<path fill="none" stroke="#9a32cd" stroke-dasharray="5,2" d="M73.94,-255.31C68.23,-236.01 62.93,-205.53 77.5,-185 88.99,-168.8 110.61,-161.9 128.48,-158.99"/>
<polygon fill="#9a32cd" stroke="#9a32cd" points="70.67,-256.58 77.12,-264.98 77.32,-254.39 70.67,-256.58"/>
<text text-anchor="middle" x="114.5" y="-188" font-family="Helvetica,sans-Serif" font-size="10.00"> layer_impl_copy</text>
</g>
<!-- Node5&#45;&gt;Node4 -->
<g id="edge5" class="edge">
<title>Node5&#45;&gt;Node4</title>
<path fill="none" stroke="#9a32cd" stroke-dasharray="5,2" d="M159.19,-175.88C159.1,-182.48 158.2,-189.79 155.5,-196 142.21,-226.56 111.14,-252.09 93.44,-264.81"/>
<polygon fill="#9a32cd" stroke="#9a32cd" points="162.68,-175.6 158.75,-165.76 155.69,-175.9 162.68,-175.6"/>
<text text-anchor="middle" x="180.5" y="-188" font-family="Helvetica,sans-Serif" font-size="10.00"> layer_vptr</text>
</g>
</g>
</svg>
