<?xml version="1.0" encoding="UTF-8" standalone="no"?>
<!DOCTYPE svg PUBLIC "-//W3C//DTD SVG 1.1//EN"
 "http://www.w3.org/Graphics/SVG/1.1/DTD/svg11.dtd">
<!-- Generated by graphviz version 2.43.0 (0)
 -->
<!-- Title: catch_error Pages: 1 -->
<svg width="668pt" height="187pt"
 viewBox="0.00 0.00 668.00 187.00" xmlns="http://www.w3.org/2000/svg" xmlns:xlink="http://www.w3.org/1999/xlink">
<g id="graph0" class="graph" transform="scale(1 1) rotate(0) translate(4 183)">
<title>catch_error</title>
<!-- Node1 -->
<g id="Node000001" class="node">
<title>Node1</title>
<g id="a_Node000001"><a xlink:title="Catches parameter value errors.">
<polygon fill="#999999" stroke="#666666" points="660,-93 595,-93 595,-74 660,-74 660,-93"/>
<text text-anchor="middle" x="627.5" y="-81" font-family="Helvetica,sans-Serif" font-size="10.00">catch_error</text>
</a>
</g>
</g>
<!-- Node2 -->
<g id="Node000002" class="node">
<title>Node2</title>
<g id="a_Node000002"><a xlink:href="ea_8c.html#ae78d49893c85cfe792ceafc58e590965" target="_top" xlink:title="Sets the EA parameters from a cJSON object.">
<polygon fill="white" stroke="#666666" points="544.5,-179 429.5,-179 429.5,-160 544.5,-160 544.5,-179"/>
<text text-anchor="middle" x="487" y="-167" font-family="Helvetica,sans-Serif" font-size="10.00">ea_param_json_import</text>
</a>
</g>
</g>
<!-- Node1&#45;&gt;Node2 -->
<g id="edge1_Node000001_Node000002" class="edge">
<title>Node1&#45;&gt;Node2</title>
<g id="a_edge1_Node000001_Node000002"><a xlink:title=" ">
<path fill="none" stroke="#63b8ff" d="M612.94,-101.45C600.51,-116.68 580.78,-137.98 559,-150.5 552.25,-154.38 544.69,-157.49 537.08,-159.97"/>
<polygon fill="#63b8ff" stroke="#63b8ff" points="615.92,-103.32 619.37,-93.31 610.43,-98.99 615.92,-103.32"/>
</a>
</g>
</g>
<!-- Node9 -->
<g id="Node000009" class="node">
<title>Node9</title>
<g id="a_Node000009"><a xlink:href="param_8c.html#a97aa83082509d7fe3de540e1f6137318" target="_top" xlink:title="Sets the general classifier parameters from a cJSON object.">
<polygon fill="white" stroke="#666666" points="543,-141.5 431,-141.5 431,-111.5 543,-111.5 543,-141.5"/>
<text text-anchor="start" x="439" y="-129.5" font-family="Helvetica,sans-Serif" font-size="10.00">param_json_import_cl</text>
<text text-anchor="middle" x="487" y="-118.5" font-family="Helvetica,sans-Serif" font-size="10.00">_general</text>
</a>
</g>
</g>
<!-- Node1&#45;&gt;Node9 -->
<g id="edge8_Node000001_Node000009" class="edge">
<title>Node1&#45;&gt;Node9</title>
<g id="a_edge8_Node000001_Node000009"><a xlink:title=" ">
<path fill="none" stroke="#63b8ff" d="M585.93,-96.09C570.4,-100.92 552.52,-106.47 536.33,-111.49"/>
<polygon fill="#63b8ff" stroke="#63b8ff" points="587.25,-99.35 595.76,-93.04 585.17,-92.67 587.25,-99.35"/>
</a>
</g>
</g>
<!-- Node10 -->
<g id="Node000010" class="node">
<title>Node10</title>
<g id="a_Node000010"><a xlink:href="param_8c.html#ad7d3421611d8020079446a6a190df8f8" target="_top" xlink:title="Sets the general parameters from a cJSON object.">
<polygon fill="white" stroke="#666666" points="555,-93 419,-93 419,-74 555,-74 555,-93"/>
<text text-anchor="middle" x="487" y="-81" font-family="Helvetica,sans-Serif" font-size="10.00">param_json_import_general</text>
</a>
</g>
</g>
<!-- Node1&#45;&gt;Node10 -->
<g id="edge10_Node000001_Node000010" class="edge">
<title>Node1&#45;&gt;Node10</title>
<g id="a_edge10_Node000001_Node000010"><a xlink:title=" ">
<path fill="none" stroke="#63b8ff" d="M584.61,-83.5C575.31,-83.5 565.23,-83.5 555.21,-83.5"/>
<polygon fill="#63b8ff" stroke="#63b8ff" points="584.73,-87 594.73,-83.5 584.73,-80 584.73,-87"/>
</a>
</g>
</g>
<!-- Node11 -->
<g id="Node000011" class="node">
<title>Node11</title>
<g id="a_Node000011"><a xlink:href="param_8c.html#a7d152ab74c6a8c9096303ae3331eb015" target="_top" xlink:title="Sets the multi&#45;step parameters from a cJSON object.">
<polygon fill="white" stroke="#666666" points="549.5,-56 424.5,-56 424.5,-37 549.5,-37 549.5,-56"/>
<text text-anchor="middle" x="487" y="-44" font-family="Helvetica,sans-Serif" font-size="10.00">param_json_import_multi</text>
</a>
</g>
</g>
<!-- Node1&#45;&gt;Node11 -->
<g id="edge12_Node000001_Node000011" class="edge">
<title>Node1&#45;&gt;Node11</title>
<g id="a_edge12_Node000001_Node000011"><a xlink:title=" ">
<path fill="none" stroke="#63b8ff" d="M584.94,-72.4C565.54,-67.22 542.67,-61.11 524.02,-56.12"/>
<polygon fill="#63b8ff" stroke="#63b8ff" points="584.16,-75.81 594.73,-75.01 585.97,-69.05 584.16,-75.81"/>
</a>
</g>
</g>
<!-- Node12 -->
<g id="Node000012" class="node">
<title>Node12</title>
<g id="a_Node000012"><a xlink:href="param_8c.html#ac51f8770dba4b66f28d6d4eaa631123e" target="_top" xlink:title="Sets the subsumption parameters from a cJSON object.">
<polygon fill="white" stroke="#666666" points="559,-19 415,-19 415,0 559,0 559,-19"/>
<text text-anchor="middle" x="487" y="-7" font-family="Helvetica,sans-Serif" font-size="10.00">param_json_import_subsump</text>
</a>
</g>
</g>
<!-- Node1&#45;&gt;Node12 -->
<g id="edge14_Node000001_Node000012" class="edge">
<title>Node1&#45;&gt;Node12</title>
<g id="a_edge14_Node000001_Node000012"><a xlink:title=" ">
<path fill="none" stroke="#63b8ff" d="M610.29,-66.45C597.48,-53.94 578.56,-37.44 559,-27.5 552.31,-24.1 544.94,-21.31 537.54,-19.03"/>
<polygon fill="#63b8ff" stroke="#63b8ff" points="607.9,-69.01 617.43,-73.64 612.87,-64.08 607.9,-69.01"/>
</a>
</g>
</g>
<!-- Node3 -->
<g id="Node000003" class="node">
<title>Node3</title>
<g id="a_Node000003"><a xlink:href="param_8c.html#a130260988988535419aee8abe51986c1" target="_top" xlink:title="Sets the parameters from a json formatted string.">
<polygon fill="white" stroke="#666666" points="379,-93 280,-93 280,-74 379,-74 379,-93"/>
<text text-anchor="middle" x="329.5" y="-81" font-family="Helvetica,sans-Serif" font-size="10.00">param_json_import</text>
</a>
</g>
</g>
<!-- Node2&#45;&gt;Node3 -->
<g id="edge2_Node000002_Node000003" class="edge">
<title>Node2&#45;&gt;Node3</title>
<g id="a_edge2_Node000002_Node000003"><a xlink:title=" ">
<path fill="none" stroke="#63b8ff" d="M429.48,-156.67C424.48,-154.86 419.58,-152.81 415,-150.5 384.56,-135.19 354.69,-107.79 339.97,-93.22"/>
<polygon fill="#63b8ff" stroke="#63b8ff" points="428.56,-160.06 439.16,-159.89 430.77,-153.41 428.56,-160.06"/>
</a>
</g>
</g>
<!-- Node4 -->
<g id="Node000004" class="node">
<title>Node4</title>
<g id="a_Node000004"><a xlink:href="config_8c.html#a045a64a30d99a4bef2ebfd9b54aa9698" target="_top" xlink:title="Reads the specified configuration file.">
<polygon fill="white" stroke="#666666" points="230,-112 163,-112 163,-93 230,-93 230,-112"/>
<text text-anchor="middle" x="196.5" y="-100" font-family="Helvetica,sans-Serif" font-size="10.00">config_read</text>
</a>
</g>
</g>
<!-- Node3&#45;&gt;Node4 -->
<g id="edge3_Node000003_Node000004" class="edge">
<title>Node3&#45;&gt;Node4</title>
<g id="a_edge3_Node000003_Node000004"><a xlink:title=" ">
<path fill="none" stroke="#63b8ff" d="M269.46,-92.06C255.9,-94.03 241.97,-96.05 230.02,-97.78"/>
<polygon fill="#63b8ff" stroke="#63b8ff" points="270.33,-95.47 279.72,-90.57 269.32,-88.55 270.33,-95.47"/>
</a>
</g>
</g>
<!-- Node6 -->
<g id="Node000006" class="node">
<title>Node6</title>
<g id="a_Node000006"><a xlink:href="classXCS.html#a0d9522bfc97392a8b6ee11774ae29f8a" target="_top" xlink:title="Sets parameter values.">
<polygon fill="white" stroke="#666666" points="244,-75 149,-75 149,-56 244,-56 244,-75"/>
<text text-anchor="middle" x="196.5" y="-63" font-family="Helvetica,sans-Serif" font-size="10.00">XCS::set_params</text>
</a>
</g>
</g>
<!-- Node3&#45;&gt;Node6 -->
<g id="edge5_Node000003_Node000006" class="edge">
<title>Node3&#45;&gt;Node6</title>
<g id="a_edge5_Node000003_Node000006"><a xlink:title=" ">
<path fill="none" stroke="#63b8ff" d="M269.76,-75.43C261.18,-74.25 252.44,-73.05 244.15,-71.91"/>
<polygon fill="#63b8ff" stroke="#63b8ff" points="269.34,-78.9 279.72,-76.8 270.29,-71.97 269.34,-78.9"/>
</a>
</g>
</g>
<!-- Node5 -->
<g id="Node000005" class="node">
<title>Node5</title>
<g id="a_Node000005"><a xlink:href="main_8c.html#a3c04138a5bfe5d72780bb7e82a18e627" target="_top" xlink:title=" ">
<polygon fill="white" stroke="#666666" points="75.5,-112 37.5,-112 37.5,-93 75.5,-93 75.5,-112"/>
<text text-anchor="middle" x="56.5" y="-100" font-family="Helvetica,sans-Serif" font-size="10.00">main</text>
</a>
</g>
</g>
<!-- Node4&#45;&gt;Node5 -->
<g id="edge4_Node000004_Node000005" class="edge">
<title>Node4&#45;&gt;Node5</title>
<g id="a_edge4_Node000004_Node000005"><a xlink:title=" ">
<path fill="none" stroke="#63b8ff" d="M152.48,-102.5C126.61,-102.5 95.04,-102.5 75.6,-102.5"/>
<polygon fill="#63b8ff" stroke="#63b8ff" points="152.8,-106 162.8,-102.5 152.8,-99 152.8,-106"/>
</a>
</g>
</g>
<!-- Node7 -->
<g id="Node000007" class="node">
<title>Node7</title>
<g id="a_Node000007"><a xlink:href="pybind__wrapper_8cpp.html#a172daba0778fe2bd38d723d5f52a23d5" target="_top" xlink:title=" ">
<polygon fill="white" stroke="#666666" points="113,-75 0,-75 0,-56 113,-56 113,-75"/>
<text text-anchor="middle" x="56.5" y="-63" font-family="Helvetica,sans-Serif" font-size="10.00">PYBIND11_MODULE</text>
</a>
</g>
</g>
<!-- Node6&#45;&gt;Node7 -->
<g id="edge6_Node000006_Node000007" class="edge">
<title>Node6&#45;&gt;Node7</title>
<g id="a_edge6_Node000006_Node000007"><a xlink:title=" ">
<path fill="none" stroke="#63b8ff" d="M138.69,-65.5C130.28,-65.5 121.63,-65.5 113.24,-65.5"/>
<polygon fill="#63b8ff" stroke="#63b8ff" points="138.78,-69 148.78,-65.5 138.78,-62 138.78,-69"/>
</a>
</g>
</g>
<!-- Node8 -->
<g id="Node000008" class="node">
<title>Node8</title>
<g id="a_Node000008"><a xlink:href="classXCS.html#a608a50f998819369d28ef9966d6812ca" target="_top" xlink:title="Constructor.">
<polygon fill="white" stroke="#666666" points="89,-38 24,-38 24,-19 89,-19 89,-38"/>
<text text-anchor="middle" x="56.5" y="-26" font-family="Helvetica,sans-Serif" font-size="10.00">XCS::XCS</text>
</a>
</g>
</g>
<!-- Node6&#45;&gt;Node8 -->
<g id="edge7_Node000006_Node000008" class="edge">
<title>Node6&#45;&gt;Node8</title>
<g id="a_edge7_Node000006_Node000008"><a xlink:title=" ">
<path fill="none" stroke="#63b8ff" d="M150.14,-53.34C130.18,-47.99 107.22,-41.83 89.15,-36.99"/>
<polygon fill="#63b8ff" stroke="#63b8ff" points="149.4,-56.76 159.96,-55.97 151.21,-50 149.4,-56.76"/>
</a>
</g>
</g>
<!-- Node9&#45;&gt;Node3 -->
<g id="edge9_Node000009_Node000003" class="edge">
<title>Node9&#45;&gt;Node3</title>
<g id="a_edge9_Node000009_Node000003"><a xlink:title=" ">
<path fill="none" stroke="#63b8ff" d="M421.89,-108.77C402.47,-103.4 381.88,-97.71 365.17,-93.09"/>
<polygon fill="#63b8ff" stroke="#63b8ff" points="421.04,-112.17 431.61,-111.46 422.91,-105.42 421.04,-112.17"/>
</a>
</g>
</g>
<!-- Node10&#45;&gt;Node3 -->
<g id="edge11_Node000010_Node000003" class="edge">
<title>Node10&#45;&gt;Node3</title>
<g id="a_edge11_Node000010_Node000003"><a xlink:title=" ">
<path fill="none" stroke="#63b8ff" d="M408.67,-83.5C398.62,-83.5 388.56,-83.5 379.16,-83.5"/>
<polygon fill="#63b8ff" stroke="#63b8ff" points="408.7,-87 418.7,-83.5 408.7,-80 408.7,-87"/>
</a>
</g>
</g>
<!-- Node11&#45;&gt;Node3 -->
<g id="edge13_Node000011_Node000003" class="edge">
<title>Node11&#45;&gt;Node3</title>
<g id="a_edge13_Node000011_Node000003"><a xlink:title=" ">
<path fill="none" stroke="#63b8ff" d="M436.17,-58.36C415.01,-63.39 390.66,-69.18 370.68,-73.94"/>
<polygon fill="#63b8ff" stroke="#63b8ff" points="437.04,-61.75 445.95,-56.03 435.42,-54.94 437.04,-61.75"/>
</a>
</g>
</g>
<!-- Node12&#45;&gt;Node3 -->
<g id="edge15_Node000012_Node000003" class="edge">
<title>Node12&#45;&gt;Node3</title>
<g id="a_edge15_Node000012_Node000003"><a xlink:title=" ">
<path fill="none" stroke="#63b8ff" d="M429.45,-21.97C424.49,-23.62 419.61,-25.46 415,-27.5 386.84,-39.97 357.69,-61.56 342.07,-73.97"/>
<polygon fill="#63b8ff" stroke="#63b8ff" points="430.5,-25.31 439.03,-19.02 428.44,-18.62 430.5,-25.31"/>
</a>
</g>
</g>
</g>
</svg>
