<?xml version="1.0" encoding="UTF-8" standalone="no"?>
<!DOCTYPE svg PUBLIC "-//W3C//DTD SVG 1.1//EN"
 "http://www.w3.org/Graphics/SVG/1.1/DTD/svg11.dtd">
<!-- Generated by graphviz version 2.43.0 (0)
 -->
<!-- Title: float_to_binary Pages: 1 -->
<svg width="229pt" height="66pt"
 viewBox="0.00 0.00 229.00 66.00" xmlns="http://www.w3.org/2000/svg" xmlns:xlink="http://www.w3.org/1999/xlink">
<g id="graph0" class="graph" transform="scale(1 1) rotate(0) translate(4 62)">
<title>float_to_binary</title>
<!-- Node1 -->
<g id="node1" class="node">
<title>Node1</title>
<g id="a_node1"><a xlink:title="Generates a binary string from a float.">
<polygon fill="#bfbfbf" stroke="black" points="141,-19.5 141,-38.5 221,-38.5 221,-19.5 141,-19.5"/>
<text text-anchor="middle" x="181" y="-26.5" font-family="Helvetica,sans-Serif" font-size="10.00">float_to_binary</text>
</a>
</g>
</g>
<!-- Node2 -->
<g id="node2" class="node">
<title>Node2</title>
<g id="a_node2"><a xlink:href="cond__ternary_8h.html#a76ab7500198ab706583a378230920e08" target="_top" xlink:title="Generates a ternary condition that matches the current input.">
<polygon fill="none" stroke="black" points="1.5,-38.5 1.5,-57.5 103.5,-57.5 103.5,-38.5 1.5,-38.5"/>
<text text-anchor="middle" x="52.5" y="-45.5" font-family="Helvetica,sans-Serif" font-size="10.00">cond_ternary_cover</text>
</a>
</g>
</g>
<!-- Node1&#45;&gt;Node2 -->
<g id="edge1" class="edge">
<title>Node1&#45;&gt;Node2</title>
<path fill="none" stroke="midnightblue" d="M130.49,-36.44C121.64,-37.77 112.41,-39.15 103.54,-40.48"/>
<polygon fill="midnightblue" stroke="midnightblue" points="131.3,-39.85 140.67,-34.91 130.26,-32.93 131.3,-39.85"/>
</g>
<!-- Node3 -->
<g id="node3" class="node">
<title>Node3</title>
<g id="a_node3"><a xlink:href="cond__ternary_8h.html#a38a12a34e9676ae5326bc200d69f9822" target="_top" xlink:title="Calculates whether a ternary condition matches an input.">
<polygon fill="none" stroke="black" points="0,-0.5 0,-19.5 105,-19.5 105,-0.5 0,-0.5"/>
<text text-anchor="middle" x="52.5" y="-7.5" font-family="Helvetica,sans-Serif" font-size="10.00">cond_ternary_match</text>
</a>
</g>
</g>
<!-- Node1&#45;&gt;Node3 -->
<g id="edge2" class="edge">
<title>Node1&#45;&gt;Node3</title>
<path fill="none" stroke="midnightblue" d="M130.73,-21.6C122.41,-20.35 113.75,-19.05 105.37,-17.79"/>
<polygon fill="midnightblue" stroke="midnightblue" points="130.26,-25.07 140.67,-23.09 131.3,-18.15 130.26,-25.07"/>
</g>
</g>
</svg>
