<?xml version="1.0" encoding="UTF-8" standalone="no"?>
<!DOCTYPE svg PUBLIC "-//W3C//DTD SVG 1.1//EN"
 "http://www.w3.org/Graphics/SVG/1.1/DTD/svg11.dtd">
<!-- Generated by graphviz version 2.43.0 (0)
 -->
<!-- Title: catch_error Pages: 1 -->
<svg width="638pt" height="192pt"
 viewBox="0.00 0.00 638.00 192.00" xmlns="http://www.w3.org/2000/svg" xmlns:xlink="http://www.w3.org/1999/xlink">
<g id="graph0" class="graph" transform="scale(1 1) rotate(0) translate(4 188)">
<title>catch_error</title>
<!-- Node1 -->
<g id="node1" class="node">
<title>Node1</title>
<g id="a_node1"><a xlink:title="Catches parameter value errors.">
<polygon fill="#bfbfbf" stroke="black" points="565,-76.5 565,-95.5 630,-95.5 630,-76.5 565,-76.5"/>
<text text-anchor="middle" x="597.5" y="-83.5" font-family="Helvetica,sans-Serif" font-size="10.00">catch_error</text>
</a>
</g>
</g>
<!-- Node2 -->
<g id="node2" class="node">
<title>Node2</title>
<g id="a_node2"><a xlink:href="ea_8c.html#ae78d49893c85cfe792ceafc58e590965" target="_top" xlink:title="Sets the EA parameters from a cJSON object.">
<polygon fill="none" stroke="black" points="399.5,-164.5 399.5,-183.5 514.5,-183.5 514.5,-164.5 399.5,-164.5"/>
<text text-anchor="middle" x="457" y="-171.5" font-family="Helvetica,sans-Serif" font-size="10.00">ea_param_json_import</text>
</a>
</g>
</g>
<!-- Node1&#45;&gt;Node2 -->
<g id="edge1" class="edge">
<title>Node1&#45;&gt;Node2</title>
<path fill="none" stroke="midnightblue" d="M583.46,-103.99C571.13,-119.71 551.25,-141.99 529,-155 522.39,-158.86 514.98,-161.96 507.5,-164.44"/>
<polygon fill="midnightblue" stroke="midnightblue" points="586.55,-105.7 589.8,-95.61 580.97,-101.47 586.55,-105.7"/>
</g>
<!-- Node9 -->
<g id="node9" class="node">
<title>Node9</title>
<g id="a_node9"><a xlink:href="param_8c.html#a97aa83082509d7fe3de540e1f6137318" target="_top" xlink:title="Sets the general classifier parameters from a cJSON object.">
<polygon fill="none" stroke="black" points="401,-115 401,-145 513,-145 513,-115 401,-115"/>
<text text-anchor="start" x="409" y="-133" font-family="Helvetica,sans-Serif" font-size="10.00">param_json_import_cl</text>
<text text-anchor="middle" x="457" y="-122" font-family="Helvetica,sans-Serif" font-size="10.00">_general</text>
</a>
</g>
</g>
<!-- Node1&#45;&gt;Node9 -->
<g id="edge8" class="edge">
<title>Node1&#45;&gt;Node9</title>
<path fill="none" stroke="midnightblue" d="M556.84,-98.6C540.81,-103.69 522.17,-109.62 505.42,-114.93"/>
<polygon fill="midnightblue" stroke="midnightblue" points="557.98,-101.91 566.45,-95.55 555.86,-95.24 557.98,-101.91"/>
</g>
<!-- Node10 -->
<g id="node10" class="node">
<title>Node10</title>
<g id="a_node10"><a xlink:href="param_8c.html#ad7d3421611d8020079446a6a190df8f8" target="_top" xlink:title="Sets the general parameters from a cJSON object.">
<polygon fill="none" stroke="black" points="389,-76.5 389,-95.5 525,-95.5 525,-76.5 389,-76.5"/>
<text text-anchor="middle" x="457" y="-83.5" font-family="Helvetica,sans-Serif" font-size="10.00">param_json_import_general</text>
</a>
</g>
</g>
<!-- Node1&#45;&gt;Node10 -->
<g id="edge10" class="edge">
<title>Node1&#45;&gt;Node10</title>
<path fill="none" stroke="midnightblue" d="M554.61,-86C545.31,-86 535.23,-86 525.21,-86"/>
<polygon fill="midnightblue" stroke="midnightblue" points="554.73,-89.5 564.73,-86 554.73,-82.5 554.73,-89.5"/>
</g>
<!-- Node11 -->
<g id="node11" class="node">
<title>Node11</title>
<g id="a_node11"><a xlink:href="param_8c.html#a7d152ab74c6a8c9096303ae3331eb015" target="_top" xlink:title="Sets the multi&#45;step parameters from a cJSON object.">
<polygon fill="none" stroke="black" points="394.5,-38.5 394.5,-57.5 519.5,-57.5 519.5,-38.5 394.5,-38.5"/>
<text text-anchor="middle" x="457" y="-45.5" font-family="Helvetica,sans-Serif" font-size="10.00">param_json_import_multi</text>
</a>
</g>
</g>
<!-- Node1&#45;&gt;Node11 -->
<g id="edge12" class="edge">
<title>Node1&#45;&gt;Node11</title>
<path fill="none" stroke="midnightblue" d="M555.07,-74.25C546.46,-71.83 537.44,-69.32 529,-67 517.68,-63.89 505.33,-60.56 494.14,-57.58"/>
<polygon fill="midnightblue" stroke="midnightblue" points="554.36,-77.68 564.93,-77.02 556.25,-70.94 554.36,-77.68"/>
</g>
<!-- Node12 -->
<g id="node12" class="node">
<title>Node12</title>
<g id="a_node12"><a xlink:href="param_8c.html#ac51f8770dba4b66f28d6d4eaa631123e" target="_top" xlink:title="Sets the subsumption parameters from a cJSON object.">
<polygon fill="none" stroke="black" points="385,-0.5 385,-19.5 529,-19.5 529,-0.5 385,-0.5"/>
<text text-anchor="middle" x="457" y="-7.5" font-family="Helvetica,sans-Serif" font-size="10.00">param_json_import_subsump</text>
</a>
</g>
</g>
<!-- Node1&#45;&gt;Node12 -->
<g id="edge14" class="edge">
<title>Node1&#45;&gt;Node12</title>
<path fill="none" stroke="midnightblue" d="M580.75,-69.15C567.95,-56.39 548.81,-39.35 529,-29 521.65,-25.16 513.45,-22.04 505.32,-19.53"/>
<polygon fill="midnightblue" stroke="midnightblue" points="578.37,-71.72 587.85,-76.44 583.38,-66.84 578.37,-71.72"/>
</g>
<!-- Node3 -->
<g id="node3" class="node">
<title>Node3</title>
<g id="a_node3"><a xlink:href="param_8c.html#a130260988988535419aee8abe51986c1" target="_top" xlink:title="Sets the parameters from a json formatted string.">
<polygon fill="none" stroke="black" points="250,-76.5 250,-95.5 349,-95.5 349,-76.5 250,-76.5"/>
<text text-anchor="middle" x="299.5" y="-83.5" font-family="Helvetica,sans-Serif" font-size="10.00">param_json_import</text>
</a>
</g>
</g>
<!-- Node2&#45;&gt;Node3 -->
<g id="edge2" class="edge">
<title>Node2&#45;&gt;Node3</title>
<path fill="none" stroke="midnightblue" d="M399.44,-161.24C394.45,-159.41 389.57,-157.34 385,-155 353.98,-139.12 323.9,-110.42 309.43,-95.54"/>
<polygon fill="midnightblue" stroke="midnightblue" points="398.52,-164.63 409.11,-164.48 400.74,-157.99 398.52,-164.63"/>
</g>
<!-- Node4 -->
<g id="node4" class="node">
<title>Node4</title>
<g id="a_node4"><a xlink:href="config_8c.html#a045a64a30d99a4bef2ebfd9b54aa9698" target="_top" xlink:title="Reads the specified configuration file.">
<polygon fill="none" stroke="black" points="133,-95.5 133,-114.5 200,-114.5 200,-95.5 133,-95.5"/>
<text text-anchor="middle" x="166.5" y="-102.5" font-family="Helvetica,sans-Serif" font-size="10.00">config_read</text>
</a>
</g>
</g>
<!-- Node3&#45;&gt;Node4 -->
<g id="edge3" class="edge">
<title>Node3&#45;&gt;Node4</title>
<path fill="none" stroke="midnightblue" d="M239.46,-94.56C225.9,-96.53 211.97,-98.55 200.02,-100.28"/>
<polygon fill="midnightblue" stroke="midnightblue" points="240.33,-97.97 249.72,-93.07 239.32,-91.05 240.33,-97.97"/>
</g>
<!-- Node6 -->
<g id="node6" class="node">
<title>Node6</title>
<g id="a_node6"><a xlink:href="classXCS.html#ad8780630d80d4bf5b76d9bf2f6c91f25" target="_top" xlink:title="Sets parameter values.">
<polygon fill="none" stroke="black" points="119,-57.5 119,-76.5 214,-76.5 214,-57.5 119,-57.5"/>
<text text-anchor="middle" x="166.5" y="-64.5" font-family="Helvetica,sans-Serif" font-size="10.00">XCS::set_params</text>
</a>
</g>
</g>
<!-- Node3&#45;&gt;Node6 -->
<g id="edge5" class="edge">
<title>Node3&#45;&gt;Node6</title>
<path fill="none" stroke="midnightblue" d="M239.76,-77.48C231.18,-76.24 222.44,-74.97 214.15,-73.77"/>
<polygon fill="midnightblue" stroke="midnightblue" points="239.32,-80.95 249.72,-78.93 240.33,-74.03 239.32,-80.95"/>
</g>
<!-- Node5 -->
<g id="node5" class="node">
<title>Node5</title>
<g id="a_node5"><a xlink:href="main_8c.html#a3c04138a5bfe5d72780bb7e82a18e627" target="_top" xlink:title=" ">
<polygon fill="none" stroke="black" points="22.5,-95.5 22.5,-114.5 60.5,-114.5 60.5,-95.5 22.5,-95.5"/>
<text text-anchor="middle" x="41.5" y="-102.5" font-family="Helvetica,sans-Serif" font-size="10.00">main</text>
</a>
</g>
</g>
<!-- Node4&#45;&gt;Node5 -->
<g id="edge4" class="edge">
<title>Node4&#45;&gt;Node5</title>
<path fill="none" stroke="midnightblue" d="M122.77,-105C101.57,-105 77.07,-105 60.78,-105"/>
<polygon fill="midnightblue" stroke="midnightblue" points="122.86,-108.5 132.86,-105 122.86,-101.5 122.86,-108.5"/>
</g>
<!-- Node7 -->
<g id="node7" class="node">
<title>Node7</title>
<g id="a_node7"><a xlink:href="classXCS.html#a0c600c37d5e5160d553b52b6d5c179b4" target="_top" xlink:title="Sets XCSF input and output dimensions.">
<polygon fill="none" stroke="black" points="0,-57.5 0,-76.5 83,-76.5 83,-57.5 0,-57.5"/>
<text text-anchor="middle" x="41.5" y="-64.5" font-family="Helvetica,sans-Serif" font-size="10.00">XCS::set_dims</text>
</a>
</g>
</g>
<!-- Node6&#45;&gt;Node7 -->
<g id="edge6" class="edge">
<title>Node6&#45;&gt;Node7</title>
<path fill="none" stroke="midnightblue" d="M108.87,-67C100.15,-67 91.3,-67 83.02,-67"/>
<polygon fill="midnightblue" stroke="midnightblue" points="109,-70.5 119,-67 109,-63.5 109,-70.5"/>
</g>
<!-- Node8 -->
<g id="node8" class="node">
<title>Node8</title>
<g id="a_node8"><a xlink:href="classXCS.html#a608a50f998819369d28ef9966d6812ca" target="_top" xlink:title="Constructor.">
<polygon fill="none" stroke="black" points="9,-19.5 9,-38.5 74,-38.5 74,-19.5 9,-19.5"/>
<text text-anchor="middle" x="41.5" y="-26.5" font-family="Helvetica,sans-Serif" font-size="10.00">XCS::XCS</text>
</a>
</g>
</g>
<!-- Node6&#45;&gt;Node8 -->
<g id="edge7" class="edge">
<title>Node6&#45;&gt;Node8</title>
<path fill="none" stroke="midnightblue" d="M124.46,-54.32C107.84,-49.19 88.97,-43.36 73.53,-38.59"/>
<polygon fill="midnightblue" stroke="midnightblue" points="123.87,-57.8 134.46,-57.41 125.94,-51.12 123.87,-57.8"/>
</g>
<!-- Node9&#45;&gt;Node3 -->
<g id="edge9" class="edge">
<title>Node9&#45;&gt;Node3</title>
<path fill="none" stroke="midnightblue" d="M393.18,-112.23C373.07,-106.53 351.57,-100.45 334.35,-95.58"/>
<polygon fill="midnightblue" stroke="midnightblue" points="392.35,-115.63 402.92,-114.98 394.25,-108.89 392.35,-115.63"/>
</g>
<!-- Node10&#45;&gt;Node3 -->
<g id="edge11" class="edge">
<title>Node10&#45;&gt;Node3</title>
<path fill="none" stroke="midnightblue" d="M378.67,-86C368.62,-86 358.56,-86 349.16,-86"/>
<polygon fill="midnightblue" stroke="midnightblue" points="378.7,-89.5 388.7,-86 378.7,-82.5 378.7,-89.5"/>
</g>
<!-- Node11&#45;&gt;Node3 -->
<g id="edge13" class="edge">
<title>Node11&#45;&gt;Node3</title>
<path fill="none" stroke="midnightblue" d="M407.03,-59.97C385.23,-65.29 359.93,-71.48 339.46,-76.48"/>
<polygon fill="midnightblue" stroke="midnightblue" points="407.88,-63.36 416.76,-57.59 406.22,-56.56 407.88,-63.36"/>
</g>
<!-- Node12&#45;&gt;Node3 -->
<g id="edge15" class="edge">
<title>Node12&#45;&gt;Node3</title>
<path fill="none" stroke="midnightblue" d="M401.64,-22.53C395.93,-24.44 390.28,-26.59 385,-29 356.82,-41.84 327.68,-63.76 312.06,-76.35"/>
<polygon fill="midnightblue" stroke="midnightblue" points="402.76,-25.85 411.27,-19.54 400.68,-19.17 402.76,-25.85"/>
</g>
</g>
</svg>
