<?xml version="1.0" encoding="UTF-8" standalone="no"?>
<!DOCTYPE svg PUBLIC "-//W3C//DTD SVG 1.1//EN"
 "http://www.w3.org/Graphics/SVG/1.1/DTD/svg11.dtd">
<!-- Generated by graphviz version 2.43.0 (0)
 -->
<!-- Title: argmax Pages: 1 -->
<svg width="967pt" height="335pt"
 viewBox="0.00 0.00 967.00 335.00" xmlns="http://www.w3.org/2000/svg" xmlns:xlink="http://www.w3.org/1999/xlink">
<g id="graph0" class="graph" transform="scale(1 1) rotate(0) translate(4 331)">
<title>argmax</title>
<!-- Node1 -->
<g id="node1" class="node">
<title>Node1</title>
<g id="a_node1"><a xlink:title="Returns the index of the largest element in vector X.">
<polygon fill="#bfbfbf" stroke="black" points="910,-142.5 910,-161.5 959,-161.5 959,-142.5 910,-142.5"/>
<text text-anchor="middle" x="934.5" y="-149.5" font-family="Helvetica,sans-Serif" font-size="10.00">argmax</text>
</a>
</g>
</g>
<!-- Node2 -->
<g id="node2" class="node">
<title>Node2</title>
<g id="a_node2"><a xlink:href="act__neural_8c.html#aa4616932ee69561f2324af10da2865de" target="_top" xlink:title="Computes the current neural network action using the input.">
<polygon fill="none" stroke="black" points="770,-180.5 770,-199.5 874,-199.5 874,-180.5 770,-180.5"/>
<text text-anchor="middle" x="822" y="-187.5" font-family="Helvetica,sans-Serif" font-size="10.00">act_neural_compute</text>
</a>
</g>
</g>
<!-- Node1&#45;&gt;Node2 -->
<g id="edge1" class="edge">
<title>Node1&#45;&gt;Node2</title>
<path fill="none" stroke="midnightblue" d="M899.97,-163.53C884.3,-168.92 865.86,-175.26 850.96,-180.38"/>
<polygon fill="midnightblue" stroke="midnightblue" points="901.48,-166.71 909.79,-160.15 899.2,-160.09 901.48,-166.71"/>
</g>
<!-- Node4 -->
<g id="node4" class="node">
<title>Node4</title>
<g id="a_node4"><a xlink:href="loss_8c.html#a38e786a5c46be2519aae23287c92cc23" target="_top" xlink:title="One&#45;hot classification error.">
<polygon fill="none" stroke="black" points="787.5,-142.5 787.5,-161.5 856.5,-161.5 856.5,-142.5 787.5,-142.5"/>
<text text-anchor="middle" x="822" y="-149.5" font-family="Helvetica,sans-Serif" font-size="10.00">loss_onehot</text>
</a>
</g>
</g>
<!-- Node1&#45;&gt;Node4 -->
<g id="edge3" class="edge">
<title>Node1&#45;&gt;Node4</title>
<path fill="none" stroke="midnightblue" d="M899.42,-152C885.85,-152 870.27,-152 856.73,-152"/>
<polygon fill="midnightblue" stroke="midnightblue" points="899.8,-155.5 909.79,-152 899.79,-148.5 899.8,-155.5"/>
</g>
<!-- Node24 -->
<g id="node24" class="node">
<title>Node24</title>
<g id="a_node24"><a xlink:href="pa_8c.html#a02c46d587d23074fddbf23c118ecbd0c" target="_top" xlink:title="Returns the highest value in the prediction array.">
<polygon fill="none" stroke="black" points="787.5,-101.5 787.5,-120.5 856.5,-120.5 856.5,-101.5 787.5,-101.5"/>
<text text-anchor="middle" x="822" y="-108.5" font-family="Helvetica,sans-Serif" font-size="10.00">pa_best_val</text>
</a>
</g>
</g>
<!-- Node1&#45;&gt;Node24 -->
<g id="edge27" class="edge">
<title>Node1&#45;&gt;Node24</title>
<path fill="none" stroke="midnightblue" d="M900.05,-139.59C883.67,-133.51 864.23,-126.3 848.98,-120.64"/>
<polygon fill="midnightblue" stroke="midnightblue" points="899.2,-143.01 909.79,-143.2 901.64,-136.44 899.2,-143.01"/>
</g>
<!-- Node3 -->
<g id="node3" class="node">
<title>Node3</title>
<g id="a_node3"><a xlink:href="act__neural_8c.html#aa8b1494c14b289da3f86f4e8a2db5de7" target="_top" xlink:title="Generates a neural network that covers the specified input:action.">
<polygon fill="none" stroke="black" points="643,-180.5 643,-199.5 734,-199.5 734,-180.5 643,-180.5"/>
<text text-anchor="middle" x="688.5" y="-187.5" font-family="Helvetica,sans-Serif" font-size="10.00">act_neural_cover</text>
</a>
</g>
</g>
<!-- Node2&#45;&gt;Node3 -->
<g id="edge2" class="edge">
<title>Node2&#45;&gt;Node3</title>
<path fill="none" stroke="midnightblue" d="M759.53,-190C751.05,-190 742.48,-190 734.38,-190"/>
<polygon fill="midnightblue" stroke="midnightblue" points="759.78,-193.5 769.78,-190 759.78,-186.5 759.78,-193.5"/>
</g>
<!-- Node5 -->
<g id="node5" class="node">
<title>Node5</title>
<g id="a_node5"><a xlink:href="loss_8c.html#a440b847b0f4edd503b919d3bebecd66c" target="_top" xlink:title="Sets the XCSF error function to the implemented function.">
<polygon fill="none" stroke="black" points="650,-142.5 650,-161.5 727,-161.5 727,-142.5 650,-142.5"/>
<text text-anchor="middle" x="688.5" y="-149.5" font-family="Helvetica,sans-Serif" font-size="10.00">loss_set_func</text>
</a>
</g>
</g>
<!-- Node4&#45;&gt;Node5 -->
<g id="edge4" class="edge">
<title>Node4&#45;&gt;Node5</title>
<path fill="none" stroke="midnightblue" d="M777.16,-152C760.96,-152 742.75,-152 727.14,-152"/>
<polygon fill="midnightblue" stroke="midnightblue" points="777.48,-155.5 787.48,-152 777.48,-148.5 777.48,-155.5"/>
</g>
<!-- Node6 -->
<g id="node6" class="node">
<title>Node6</title>
<g id="a_node6"><a xlink:href="param_8c.html#ae7f8932981ba2f49027da90acfd121b1" target="_top" xlink:title="Reads the XCSF data structure from a file.">
<polygon fill="none" stroke="black" points="518.5,-235.5 518.5,-254.5 585.5,-254.5 585.5,-235.5 518.5,-235.5"/>
<text text-anchor="middle" x="552" y="-242.5" font-family="Helvetica,sans-Serif" font-size="10.00">param_load</text>
</a>
</g>
</g>
<!-- Node5&#45;&gt;Node6 -->
<g id="edge5" class="edge">
<title>Node5&#45;&gt;Node6</title>
<path fill="none" stroke="midnightblue" d="M652.35,-165.88C649.12,-167.49 645.96,-169.2 643,-171 611.19,-190.32 578.61,-220.1 562.8,-235.32"/>
<polygon fill="midnightblue" stroke="midnightblue" points="653.87,-169.03 661.47,-161.65 650.92,-162.68 653.87,-169.03"/>
</g>
<!-- Node10 -->
<g id="node10" class="node">
<title>Node10</title>
<g id="a_node10"><a xlink:href="param_8c.html#a802ad715416c4b9ac967c43f51399d75" target="_top" xlink:title=" ">
<polygon fill="none" stroke="black" points="497,-164.5 497,-183.5 607,-183.5 607,-164.5 497,-164.5"/>
<text text-anchor="middle" x="552" y="-171.5" font-family="Helvetica,sans-Serif" font-size="10.00">param_set_loss_func</text>
</a>
</g>
</g>
<!-- Node5&#45;&gt;Node10 -->
<g id="edge9" class="edge">
<title>Node5&#45;&gt;Node10</title>
<path fill="none" stroke="midnightblue" d="M639.79,-159.8C629.2,-161.54 617.92,-163.38 607.1,-165.15"/>
<polygon fill="midnightblue" stroke="midnightblue" points="640.37,-163.26 649.68,-158.19 639.24,-156.35 640.37,-163.26"/>
</g>
<!-- Node19 -->
<g id="node19" class="node">
<title>Node19</title>
<g id="a_node19"><a xlink:href="param_8c.html#a7a98b432d0cdc32b5f333d918b243b13" target="_top" xlink:title=" ">
<polygon fill="none" stroke="black" points="497,-115 497,-145 607,-145 607,-115 497,-115"/>
<text text-anchor="start" x="505" y="-133" font-family="Helvetica,sans-Serif" font-size="10.00">param_set_loss_func</text>
<text text-anchor="middle" x="552" y="-122" font-family="Helvetica,sans-Serif" font-size="10.00">_string</text>
</a>
</g>
</g>
<!-- Node5&#45;&gt;Node19 -->
<g id="edge21" class="edge">
<title>Node5&#45;&gt;Node19</title>
<path fill="none" stroke="midnightblue" d="M639.79,-144.2C629.2,-142.46 617.92,-140.62 607.1,-138.85"/>
<polygon fill="midnightblue" stroke="midnightblue" points="639.24,-147.65 649.68,-145.81 640.37,-140.74 639.24,-147.65"/>
</g>
<!-- Node7 -->
<g id="node7" class="node">
<title>Node7</title>
<g id="a_node7"><a xlink:href="xcsf_8c.html#ada5fb9a2a1e9225aad40a36614fc0de7" target="_top" xlink:title="Reads the state of XCSF from a file.">
<polygon fill="none" stroke="black" points="363.5,-269.5 363.5,-288.5 422.5,-288.5 422.5,-269.5 363.5,-269.5"/>
<text text-anchor="middle" x="393" y="-276.5" font-family="Helvetica,sans-Serif" font-size="10.00">xcsf_load</text>
</a>
</g>
</g>
<!-- Node6&#45;&gt;Node7 -->
<g id="edge6" class="edge">
<title>Node6&#45;&gt;Node7</title>
<path fill="none" stroke="midnightblue" d="M508.42,-254.22C481.15,-260.13 446.52,-267.63 422.54,-272.82"/>
<polygon fill="midnightblue" stroke="midnightblue" points="509.44,-257.58 518.47,-252.04 507.96,-250.74 509.44,-257.58"/>
</g>
<!-- Node8 -->
<g id="node8" class="node">
<title>Node8</title>
<g id="a_node8"><a xlink:href="classXCS.html#a1a7ff32cb3485c0de9dd988f6f3e3470" target="_top" xlink:title="Reads the entire current state of XCSF from a file.">
<polygon fill="none" stroke="black" points="202,-307.5 202,-326.5 264,-326.5 264,-307.5 202,-307.5"/>
<text text-anchor="middle" x="233" y="-314.5" font-family="Helvetica,sans-Serif" font-size="10.00">XCS::load</text>
</a>
</g>
</g>
<!-- Node7&#45;&gt;Node8 -->
<g id="edge7" class="edge">
<title>Node7&#45;&gt;Node8</title>
<path fill="none" stroke="midnightblue" d="M353.32,-288.3C325.79,-294.92 289.35,-303.69 264.01,-309.78"/>
<polygon fill="midnightblue" stroke="midnightblue" points="354.48,-291.62 363.39,-285.88 352.85,-284.82 354.48,-291.62"/>
</g>
<!-- Node9 -->
<g id="node9" class="node">
<title>Node9</title>
<g id="a_node9"><a xlink:href="main_8c.html#a3c04138a5bfe5d72780bb7e82a18e627" target="_top" xlink:title=" ">
<polygon fill="none" stroke="black" points="0,-136.5 0,-155.5 38,-155.5 38,-136.5 0,-136.5"/>
<text text-anchor="middle" x="19" y="-143.5" font-family="Helvetica,sans-Serif" font-size="10.00">main</text>
</a>
</g>
</g>
<!-- Node7&#45;&gt;Node9 -->
<g id="edge8" class="edge">
<title>Node7&#45;&gt;Node9</title>
<path fill="none" stroke="midnightblue" d="M353.25,-280.35C309.48,-280.79 236.59,-278.22 177,-260 126.97,-244.7 115.37,-235.03 74,-203 55.46,-188.64 37.46,-167.85 27.64,-155.75"/>
<polygon fill="midnightblue" stroke="midnightblue" points="353.52,-283.85 363.46,-280.19 353.4,-276.85 353.52,-283.85"/>
</g>
<!-- Node11 -->
<g id="node11" class="node">
<title>Node11</title>
<g id="a_node11"><a xlink:href="param_8c.html#ac8218a170803be0bcd974764e7494b0e" target="_top" xlink:title="Initialises default XCSF parameters.">
<polygon fill="none" stroke="black" points="362,-192.5 362,-211.5 424,-211.5 424,-192.5 362,-192.5"/>
<text text-anchor="middle" x="393" y="-199.5" font-family="Helvetica,sans-Serif" font-size="10.00">param_init</text>
</a>
</g>
</g>
<!-- Node10&#45;&gt;Node11 -->
<g id="edge10" class="edge">
<title>Node10&#45;&gt;Node11</title>
<path fill="none" stroke="midnightblue" d="M487.47,-185.33C465.55,-189.24 442,-193.44 424.03,-196.64"/>
<polygon fill="midnightblue" stroke="midnightblue" points="488.18,-188.76 497.41,-183.56 486.95,-181.87 488.18,-188.76"/>
</g>
<!-- Node17 -->
<g id="node17" class="node">
<title>Node17</title>
<g id="a_node17"><a xlink:href="xcsf_8c.html#ad77461184a11780681798ac593b090ab" target="_top" xlink:title="Switches from autoencoding to classification.">
<polygon fill="none" stroke="black" points="338.5,-154.5 338.5,-173.5 447.5,-173.5 447.5,-154.5 338.5,-154.5"/>
<text text-anchor="middle" x="393" y="-161.5" font-family="Helvetica,sans-Serif" font-size="10.00">xcsf_ae_to_classifier</text>
</a>
</g>
</g>
<!-- Node10&#45;&gt;Node17 -->
<g id="edge19" class="edge">
<title>Node10&#45;&gt;Node17</title>
<path fill="none" stroke="midnightblue" d="M486.69,-169.9C473.7,-169.08 460.17,-168.21 447.6,-167.41"/>
<polygon fill="midnightblue" stroke="midnightblue" points="486.77,-173.42 496.97,-170.56 487.21,-166.43 486.77,-173.42"/>
</g>
<!-- Node12 -->
<g id="node12" class="node">
<title>Node12</title>
<g id="a_node12"><a xlink:href="env__csv_8c.html#ab26a39a388f0ac83b9ac14726ad14b16" target="_top" xlink:title="Initialises a CSV input environment from a specified filename.">
<polygon fill="none" stroke="black" points="197.5,-231.5 197.5,-250.5 268.5,-250.5 268.5,-231.5 197.5,-231.5"/>
<text text-anchor="middle" x="233" y="-238.5" font-family="Helvetica,sans-Serif" font-size="10.00">env_csv_init</text>
</a>
</g>
</g>
<!-- Node11&#45;&gt;Node12 -->
<g id="edge11" class="edge">
<title>Node11&#45;&gt;Node12</title>
<path fill="none" stroke="midnightblue" d="M352.1,-211.85C326.38,-218.2 293.27,-226.37 268.65,-232.45"/>
<polygon fill="midnightblue" stroke="midnightblue" points="353.04,-215.22 361.91,-209.43 351.36,-208.43 353.04,-215.22"/>
</g>
<!-- Node14 -->
<g id="node14" class="node">
<title>Node14</title>
<g id="a_node14"><a xlink:href="env__maze_8c.html#acad3cc6e9fe2b7e07e878f1f517ad3a6" target="_top" xlink:title="Initialises a maze environment from a specified file.">
<polygon fill="none" stroke="black" points="193,-193.5 193,-212.5 273,-212.5 273,-193.5 193,-193.5"/>
<text text-anchor="middle" x="233" y="-200.5" font-family="Helvetica,sans-Serif" font-size="10.00">env_maze_init</text>
</a>
</g>
</g>
<!-- Node11&#45;&gt;Node14 -->
<g id="edge14" class="edge">
<title>Node11&#45;&gt;Node14</title>
<path fill="none" stroke="midnightblue" d="M351.68,-202.26C327.59,-202.41 297.14,-202.6 273.25,-202.75"/>
<polygon fill="midnightblue" stroke="midnightblue" points="351.93,-205.75 361.91,-202.19 351.89,-198.75 351.93,-205.75"/>
</g>
<!-- Node15 -->
<g id="node15" class="node">
<title>Node15</title>
<g id="a_node15"><a xlink:href="env__mux_8c.html#aff3b81b4913d273ecfd62d7585480b15" target="_top" xlink:title="Initialises a real multiplexer environment of specified length.">
<polygon fill="none" stroke="black" points="196,-155.5 196,-174.5 270,-174.5 270,-155.5 196,-155.5"/>
<text text-anchor="middle" x="233" y="-162.5" font-family="Helvetica,sans-Serif" font-size="10.00">env_mux_init</text>
</a>
</g>
</g>
<!-- Node11&#45;&gt;Node15 -->
<g id="edge16" class="edge">
<title>Node11&#45;&gt;Node15</title>
<path fill="none" stroke="midnightblue" d="M351.93,-192.62C326.73,-186.71 294.48,-179.16 270.07,-173.45"/>
<polygon fill="midnightblue" stroke="midnightblue" points="351.37,-196.08 361.91,-194.95 352.97,-189.27 351.37,-196.08"/>
</g>
<!-- Node16 -->
<g id="node16" class="node">
<title>Node16</title>
<g id="a_node16"><a xlink:href="classXCS.html#af1010afd63843f86ad1dd81fade9bd72" target="_top" xlink:title="Constructor.">
<polygon fill="none" stroke="black" points="200.5,-117.5 200.5,-136.5 265.5,-136.5 265.5,-117.5 200.5,-117.5"/>
<text text-anchor="middle" x="233" y="-124.5" font-family="Helvetica,sans-Serif" font-size="10.00">XCS::XCS</text>
</a>
</g>
</g>
<!-- Node11&#45;&gt;Node16 -->
<g id="edge18" class="edge">
<title>Node11&#45;&gt;Node16</title>
<path fill="none" stroke="midnightblue" d="M352.08,-194.36C342.8,-191.6 333.24,-187.91 325,-183 305.29,-171.25 308.37,-158.3 289,-146 281.92,-141.5 273.65,-137.93 265.71,-135.14"/>
<polygon fill="midnightblue" stroke="midnightblue" points="351.39,-197.8 361.96,-197 353.2,-191.04 351.39,-197.8"/>
</g>
<!-- Node13 -->
<g id="node13" class="node">
<title>Node13</title>
<g id="a_node13"><a xlink:href="env_8c.html#a9213fcf5fc422d6a77bce853b1d78dc9" target="_top" xlink:title="Initialises a built&#45;in problem environment.">
<polygon fill="none" stroke="black" points="82.5,-174.5 82.5,-193.5 132.5,-193.5 132.5,-174.5 82.5,-174.5"/>
<text text-anchor="middle" x="107.5" y="-181.5" font-family="Helvetica,sans-Serif" font-size="10.00">env_init</text>
</a>
</g>
</g>
<!-- Node12&#45;&gt;Node13 -->
<g id="edge12" class="edge">
<title>Node12&#45;&gt;Node13</title>
<path fill="none" stroke="midnightblue" d="M191.79,-228.02C186.76,-226.13 181.72,-224.11 177,-222 158.12,-213.58 137.51,-201.76 123.88,-193.55"/>
<polygon fill="midnightblue" stroke="midnightblue" points="190.78,-231.38 201.37,-231.48 193.15,-224.79 190.78,-231.38"/>
</g>
<!-- Node13&#45;&gt;Node9 -->
<g id="edge13" class="edge">
<title>Node13&#45;&gt;Node9</title>
<path fill="none" stroke="midnightblue" d="M75.44,-170.36C62.89,-164.84 48.84,-158.67 38.03,-153.92"/>
<polygon fill="midnightblue" stroke="midnightblue" points="74.11,-173.59 84.67,-174.41 76.92,-167.18 74.11,-173.59"/>
</g>
<!-- Node14&#45;&gt;Node13 -->
<g id="edge15" class="edge">
<title>Node14&#45;&gt;Node13</title>
<path fill="none" stroke="midnightblue" d="M182.94,-195.45C165.63,-192.79 146.93,-189.91 132.61,-187.71"/>
<polygon fill="midnightblue" stroke="midnightblue" points="182.51,-198.93 192.92,-196.99 183.57,-192.01 182.51,-198.93"/>
</g>
<!-- Node15&#45;&gt;Node13 -->
<g id="edge17" class="edge">
<title>Node15&#45;&gt;Node13</title>
<path fill="none" stroke="midnightblue" d="M185.86,-172.1C167.79,-174.88 147.8,-177.95 132.67,-180.28"/>
<polygon fill="midnightblue" stroke="midnightblue" points="186.6,-175.53 195.95,-170.55 185.53,-168.61 186.6,-175.53"/>
</g>
<!-- Node18 -->
<g id="node18" class="node">
<title>Node18</title>
<g id="a_node18"><a xlink:href="classXCS.html#ad73009d926d395ee03bf7586f194fcbe" target="_top" xlink:title="Switches from autoencoding to classification.">
<polygon fill="none" stroke="black" points="177,-79.5 177,-98.5 289,-98.5 289,-79.5 177,-79.5"/>
<text text-anchor="middle" x="233" y="-86.5" font-family="Helvetica,sans-Serif" font-size="10.00">XCS::ae_to_classifier</text>
</a>
</g>
</g>
<!-- Node17&#45;&gt;Node18 -->
<g id="edge20" class="edge">
<title>Node17&#45;&gt;Node18</title>
<path fill="none" stroke="midnightblue" d="M336.5,-150.8C332.5,-149.08 328.62,-147.16 325,-145 305.29,-133.25 308.37,-120.3 289,-108 283.03,-104.21 276.21,-101.07 269.46,-98.51"/>
<polygon fill="midnightblue" stroke="midnightblue" points="335.39,-154.12 345.98,-154.42 337.89,-147.58 335.39,-154.12"/>
</g>
<!-- Node20 -->
<g id="node20" class="node">
<title>Node20</title>
<g id="a_node20"><a xlink:href="param_8c.html#ad7d3421611d8020079446a6a190df8f8" target="_top" xlink:title="Sets the general parameters from a cJSON object.">
<polygon fill="none" stroke="black" points="325,-116.5 325,-135.5 461,-135.5 461,-116.5 325,-116.5"/>
<text text-anchor="middle" x="393" y="-123.5" font-family="Helvetica,sans-Serif" font-size="10.00">param_json_import_general</text>
</a>
</g>
</g>
<!-- Node19&#45;&gt;Node20 -->
<g id="edge22" class="edge">
<title>Node19&#45;&gt;Node20</title>
<path fill="none" stroke="midnightblue" d="M486.8,-128.36C478.35,-128.15 469.67,-127.93 461.17,-127.71"/>
<polygon fill="midnightblue" stroke="midnightblue" points="486.88,-131.87 496.97,-128.62 487.06,-124.87 486.88,-131.87"/>
</g>
<!-- Node23 -->
<g id="node23" class="node">
<title>Node23</title>
<g id="a_node23"><a xlink:href="classXCS.html#a049260ddd3681d8f475d4102d3a93cb4" target="_top" xlink:title=" ">
<polygon fill="none" stroke="black" points="341,-78.5 341,-97.5 445,-97.5 445,-78.5 341,-78.5"/>
<text text-anchor="middle" x="393" y="-85.5" font-family="Helvetica,sans-Serif" font-size="10.00">XCS::set_loss_func</text>
</a>
</g>
</g>
<!-- Node19&#45;&gt;Node23 -->
<g id="edge26" class="edge">
<title>Node19&#45;&gt;Node23</title>
<path fill="none" stroke="midnightblue" d="M487.2,-112.93C467.66,-107.7 446.86,-102.14 429.87,-97.6"/>
<polygon fill="midnightblue" stroke="midnightblue" points="486.4,-116.34 496.97,-115.55 488.21,-109.58 486.4,-116.34"/>
</g>
<!-- Node21 -->
<g id="node21" class="node">
<title>Node21</title>
<g id="a_node21"><a xlink:href="param_8c.html#a130260988988535419aee8abe51986c1" target="_top" xlink:title="Sets the parameters from a json formatted string.">
<polygon fill="none" stroke="black" points="183.5,-41.5 183.5,-60.5 282.5,-60.5 282.5,-41.5 183.5,-41.5"/>
<text text-anchor="middle" x="233" y="-48.5" font-family="Helvetica,sans-Serif" font-size="10.00">param_json_import</text>
</a>
</g>
</g>
<!-- Node20&#45;&gt;Node21 -->
<g id="edge23" class="edge">
<title>Node20&#45;&gt;Node21</title>
<path fill="none" stroke="midnightblue" d="M336.5,-112.8C332.5,-111.08 328.62,-109.16 325,-107 305.29,-95.25 308.37,-82.3 289,-70 283.03,-66.21 276.21,-63.07 269.46,-60.51"/>
<polygon fill="midnightblue" stroke="midnightblue" points="335.39,-116.12 345.98,-116.42 337.89,-109.58 335.39,-116.12"/>
</g>
<!-- Node22 -->
<g id="node22" class="node">
<title>Node22</title>
<g id="a_node22"><a xlink:href="config_8c.html#a045a64a30d99a4bef2ebfd9b54aa9698" target="_top" xlink:title="Reads the specified configuration file.">
<polygon fill="none" stroke="black" points="74,-117.5 74,-136.5 141,-136.5 141,-117.5 74,-117.5"/>
<text text-anchor="middle" x="107.5" y="-124.5" font-family="Helvetica,sans-Serif" font-size="10.00">config_read</text>
</a>
</g>
</g>
<!-- Node21&#45;&gt;Node22 -->
<g id="edge24" class="edge">
<title>Node21&#45;&gt;Node22</title>
<path fill="none" stroke="midnightblue" d="M188.6,-64.31C184.59,-66.04 180.66,-67.93 177,-70 153.55,-83.22 130.33,-104.8 117.86,-117.27"/>
<polygon fill="midnightblue" stroke="midnightblue" points="189.99,-67.52 198,-60.59 187.42,-61.01 189.99,-67.52"/>
</g>
<!-- Node22&#45;&gt;Node9 -->
<g id="edge25" class="edge">
<title>Node22&#45;&gt;Node9</title>
<path fill="none" stroke="midnightblue" d="M64.02,-136.33C54.92,-138.33 45.78,-140.34 38.2,-142"/>
<polygon fill="midnightblue" stroke="midnightblue" points="64.78,-139.75 73.8,-134.18 63.28,-132.91 64.78,-139.75"/>
</g>
<!-- Node25 -->
<g id="node25" class="node">
<title>Node25</title>
<g id="a_node25"><a xlink:href="xcs__rl_8c.html#a5e5ba8c28646690f0b1c51aae7f6aa78" target="_top" xlink:title="Provides reinforcement to the sets.">
<polygon fill="none" stroke="black" points="650,-57.5 650,-76.5 727,-76.5 727,-57.5 650,-57.5"/>
<text text-anchor="middle" x="688.5" y="-64.5" font-family="Helvetica,sans-Serif" font-size="10.00">xcs_rl_update</text>
</a>
</g>
</g>
<!-- Node24&#45;&gt;Node25 -->
<g id="edge28" class="edge">
<title>Node24&#45;&gt;Node25</title>
<path fill="none" stroke="midnightblue" d="M782.71,-98.19C762.03,-91.27 736.92,-82.87 717.98,-76.53"/>
<polygon fill="midnightblue" stroke="midnightblue" points="781.87,-101.6 792.47,-101.45 784.09,-94.96 781.87,-101.6"/>
</g>
<!-- Node26 -->
<g id="node26" class="node">
<title>Node26</title>
<g id="a_node26"><a xlink:href="classXCS.html#af8970ba52403714439fda0d4383a390b" target="_top" xlink:title="Creates the action set using the previously selected action, updates the classifiers,...">
<polygon fill="none" stroke="black" points="515.5,-76.5 515.5,-95.5 588.5,-95.5 588.5,-76.5 515.5,-76.5"/>
<text text-anchor="middle" x="552" y="-83.5" font-family="Helvetica,sans-Serif" font-size="10.00">XCS::update</text>
</a>
</g>
</g>
<!-- Node25&#45;&gt;Node26 -->
<g id="edge29" class="edge">
<title>Node25&#45;&gt;Node26</title>
<path fill="none" stroke="midnightblue" d="M639.51,-73.78C622.76,-76.15 604.27,-78.76 588.69,-80.96"/>
<polygon fill="midnightblue" stroke="midnightblue" points="640.26,-77.21 649.68,-72.34 639.29,-70.28 640.26,-77.21"/>
</g>
<!-- Node27 -->
<g id="node27" class="node">
<title>Node27</title>
<g id="a_node27"><a xlink:href="xcs__rl_8c.html#a391abf9bd2540ff284f822b30899c438" target="_top" xlink:title="Creates and updates an action set for a given (state, action, reward).">
<polygon fill="none" stroke="black" points="524,-38.5 524,-57.5 580,-57.5 580,-38.5 524,-38.5"/>
<text text-anchor="middle" x="552" y="-45.5" font-family="Helvetica,sans-Serif" font-size="10.00">xcs_rl_fit</text>
</a>
</g>
</g>
<!-- Node25&#45;&gt;Node27 -->
<g id="edge30" class="edge">
<title>Node25&#45;&gt;Node27</title>
<path fill="none" stroke="midnightblue" d="M639.54,-60.23C619.66,-57.42 597.31,-54.26 580.31,-51.86"/>
<polygon fill="midnightblue" stroke="midnightblue" points="639.29,-63.72 649.68,-61.66 640.26,-56.79 639.29,-63.72"/>
</g>
<!-- Node29 -->
<g id="node29" class="node">
<title>Node29</title>
<g id="a_node29"><a xlink:href="xcs__rl_8c.html#a8171cd945b56ed0a4563f9dcd89438e3" target="_top" xlink:title="Executes a reinforcement learning trial using a built&#45;in environment.">
<polygon fill="none" stroke="black" points="520,-0.5 520,-19.5 584,-19.5 584,-0.5 520,-0.5"/>
<text text-anchor="middle" x="552" y="-7.5" font-family="Helvetica,sans-Serif" font-size="10.00">xcs_rl_trial</text>
</a>
</g>
</g>
<!-- Node25&#45;&gt;Node29 -->
<g id="edge32" class="edge">
<title>Node25&#45;&gt;Node29</title>
<path fill="none" stroke="midnightblue" d="M659.58,-52.96C644.24,-45.46 624.76,-36.29 607,-29 598.91,-25.68 590,-22.39 581.79,-19.52"/>
<polygon fill="midnightblue" stroke="midnightblue" points="658.04,-56.1 668.55,-57.38 661.13,-49.82 658.04,-56.1"/>
</g>
<!-- Node28 -->
<g id="node28" class="node">
<title>Node28</title>
<g id="a_node28"><a xlink:href="classXCS.html#ac12768292958a714a726b1c029e9616a" target="_top" xlink:title="Creates/updates an action set for a given (state, action, reward).">
<polygon fill="none" stroke="black" points="367,-38.5 367,-57.5 419,-57.5 419,-38.5 367,-38.5"/>
<text text-anchor="middle" x="393" y="-45.5" font-family="Helvetica,sans-Serif" font-size="10.00">XCS::fit</text>
</a>
</g>
</g>
<!-- Node27&#45;&gt;Node28 -->
<g id="edge31" class="edge">
<title>Node27&#45;&gt;Node28</title>
<path fill="none" stroke="midnightblue" d="M513.43,-48C484.28,-48 444.67,-48 419.22,-48"/>
<polygon fill="midnightblue" stroke="midnightblue" points="513.65,-51.5 523.65,-48 513.65,-44.5 513.65,-51.5"/>
</g>
<!-- Node30 -->
<g id="node30" class="node">
<title>Node30</title>
<g id="a_node30"><a xlink:href="xcs__rl_8c.html#adb4c284d19eeaed2b4a629f9b939ed20" target="_top" xlink:title="Executes a reinforcement learning experiment.">
<polygon fill="none" stroke="black" points="75.5,-41.5 75.5,-60.5 139.5,-60.5 139.5,-41.5 75.5,-41.5"/>
<text text-anchor="middle" x="107.5" y="-48.5" font-family="Helvetica,sans-Serif" font-size="10.00">xcs_rl_exp</text>
</a>
</g>
</g>
<!-- Node29&#45;&gt;Node30 -->
<g id="edge33" class="edge">
<title>Node29&#45;&gt;Node30</title>
<path fill="none" stroke="midnightblue" d="M509.65,-9.59C440.36,-9.53 296.62,-12.12 177,-32 163.85,-34.18 149.61,-37.91 137.53,-41.48"/>
<polygon fill="midnightblue" stroke="midnightblue" points="509.71,-13.09 519.72,-9.62 509.73,-6.09 509.71,-13.09"/>
</g>
<!-- Node30&#45;&gt;Node9 -->
<g id="edge34" class="edge">
<title>Node30&#45;&gt;Node9</title>
<path fill="none" stroke="midnightblue" d="M90.75,-68.3C72.56,-88.28 43.28,-120.43 28.75,-136.39"/>
<polygon fill="midnightblue" stroke="midnightblue" points="93.42,-70.56 97.57,-60.81 88.25,-65.85 93.42,-70.56"/>
</g>
</g>
</svg>
