<?xml version="1.0" encoding="UTF-8" standalone="no"?>
<!DOCTYPE svg PUBLIC "-//W3C//DTD SVG 1.1//EN"
 "http://www.w3.org/Graphics/SVG/1.1/DTD/svg11.dtd">
<!-- Generated by graphviz version 2.43.0 (0)
 -->
<!-- Title: max_index Pages: 1 -->
<svg width="1243pt" height="514pt"
 viewBox="0.00 0.00 1243.00 514.00" xmlns="http://www.w3.org/2000/svg" xmlns:xlink="http://www.w3.org/1999/xlink">
<g id="graph0" class="graph" transform="scale(1 1) rotate(0) translate(4 510)">
<title>max_index</title>
<!-- Node1 -->
<g id="node1" class="node">
<title>Node1</title>
<g id="a_node1"><a xlink:title="Returns the index of the largest element in vector X.">
<polygon fill="#bfbfbf" stroke="black" points="1171,-95.5 1171,-114.5 1235,-114.5 1235,-95.5 1171,-95.5"/>
<text text-anchor="middle" x="1203" y="-102.5" font-family="Helvetica,sans-Serif" font-size="10.00">max_index</text>
</a>
</g>
</g>
<!-- Node2 -->
<g id="node2" class="node">
<title>Node2</title>
<g id="a_node2"><a xlink:href="act__neural_8h.html#aa4616932ee69561f2324af10da2865de" target="_top" xlink:title="Computes the current neural network action using the input.">
<polygon fill="none" stroke="black" points="1031,-202.5 1031,-221.5 1135,-221.5 1135,-202.5 1031,-202.5"/>
<text text-anchor="middle" x="1083" y="-209.5" font-family="Helvetica,sans-Serif" font-size="10.00">act_neural_compute</text>
</a>
</g>
</g>
<!-- Node1&#45;&gt;Node2 -->
<g id="edge1" class="edge">
<title>Node1&#45;&gt;Node2</title>
<path fill="none" stroke="midnightblue" d="M1190.54,-123.2C1178.48,-141.22 1158.06,-168.71 1135,-187 1127.2,-193.19 1117.61,-198.39 1108.87,-202.41"/>
<polygon fill="midnightblue" stroke="midnightblue" points="1193.53,-125.02 1196.06,-114.74 1187.67,-121.2 1193.53,-125.02"/>
</g>
<!-- Node4 -->
<g id="node4" class="node">
<title>Node4</title>
<g id="a_node4"><a xlink:href="loss_8h.html#a38e786a5c46be2519aae23287c92cc23" target="_top" xlink:title="One&#45;hot classification error.">
<polygon fill="none" stroke="black" points="1048.5,-158.5 1048.5,-177.5 1117.5,-177.5 1117.5,-158.5 1048.5,-158.5"/>
<text text-anchor="middle" x="1083" y="-165.5" font-family="Helvetica,sans-Serif" font-size="10.00">loss_onehot</text>
</a>
</g>
</g>
<!-- Node1&#45;&gt;Node4 -->
<g id="edge3" class="edge">
<title>Node1&#45;&gt;Node4</title>
<path fill="none" stroke="midnightblue" d="M1176.73,-119.81C1164.26,-126.99 1148.95,-135.64 1135,-143 1125.06,-148.25 1113.86,-153.78 1104.49,-158.3"/>
<polygon fill="midnightblue" stroke="midnightblue" points="1178.74,-122.69 1185.63,-114.65 1175.23,-116.63 1178.74,-122.69"/>
</g>
<!-- Node27 -->
<g id="node27" class="node">
<title>Node27</title>
<g id="a_node27"><a xlink:href="neural__layer__maxpool_8c.html#a03e721637071990d769895cac88b29a8" target="_top" xlink:title="Returns the index of the maximum input value corresponding to a specified output height,...">
<polygon fill="none" stroke="black" points="1053.5,-0.5 1053.5,-19.5 1112.5,-19.5 1112.5,-0.5 1053.5,-0.5"/>
<text text-anchor="middle" x="1083" y="-7.5" font-family="Helvetica,sans-Serif" font-size="10.00">max_pool</text>
</a>
</g>
</g>
<!-- Node1&#45;&gt;Node27 -->
<g id="edge32" class="edge">
<title>Node1&#45;&gt;Node27</title>
<path fill="none" stroke="midnightblue" d="M1188.17,-86.9C1175.61,-71.35 1155.88,-49.13 1135,-34 1127.16,-28.32 1117.75,-23.44 1109.17,-19.59"/>
<polygon fill="midnightblue" stroke="midnightblue" points="1185.76,-89.49 1194.7,-95.17 1191.26,-85.15 1185.76,-89.49"/>
</g>
<!-- Node28 -->
<g id="node28" class="node">
<title>Node28</title>
<g id="a_node28"><a xlink:href="neural__layer__maxpool_8h.html#ab6439ffb382e4898aa9885d5a98bd642" target="_top" xlink:title="Forward propagates a maxpooling layer.">
<polygon fill="none" stroke="black" points="884,-11 884,-41 995,-41 995,-11 884,-11"/>
<text text-anchor="start" x="892" y="-29" font-family="Helvetica,sans-Serif" font-size="10.00">neural_layer_maxpool</text>
<text text-anchor="middle" x="939.5" y="-18" font-family="Helvetica,sans-Serif" font-size="10.00">_forward</text>
</a>
</g>
</g>
<!-- Node1&#45;&gt;Node28 -->
<g id="edge34" class="edge">
<title>Node1&#45;&gt;Node28</title>
<path fill="none" stroke="midnightblue" d="M1179.52,-89.93C1166.9,-82.08 1150.6,-72.9 1135,-67 1089.33,-49.71 1034.73,-39.01 995.01,-32.89"/>
<polygon fill="midnightblue" stroke="midnightblue" points="1177.68,-92.91 1187.99,-95.35 1181.46,-87.01 1177.68,-92.91"/>
</g>
<!-- Node29 -->
<g id="node29" class="node">
<title>Node29</title>
<g id="a_node29"><a xlink:href="pa_8h.html#adf55daf0e18f0cb5e48f8b65464bab9c" target="_top" xlink:title="Returns the best action in the prediction array.">
<polygon fill="none" stroke="black" points="1041.5,-76.5 1041.5,-95.5 1124.5,-95.5 1124.5,-76.5 1041.5,-76.5"/>
<text text-anchor="middle" x="1083" y="-83.5" font-family="Helvetica,sans-Serif" font-size="10.00">pa_best_action</text>
</a>
</g>
</g>
<!-- Node1&#45;&gt;Node29 -->
<g id="edge35" class="edge">
<title>Node1&#45;&gt;Node29</title>
<path fill="none" stroke="midnightblue" d="M1160.96,-98.39C1149.17,-96.49 1136.33,-94.43 1124.57,-92.53"/>
<polygon fill="midnightblue" stroke="midnightblue" points="1160.57,-101.87 1171,-100.01 1161.68,-94.96 1160.57,-101.87"/>
</g>
<!-- Node34 -->
<g id="node34" class="node">
<title>Node34</title>
<g id="a_node34"><a xlink:href="pa_8h.html#a02c46d587d23074fddbf23c118ecbd0c" target="_top" xlink:title="Returns the highest value in the prediction array.">
<polygon fill="none" stroke="black" points="1048.5,-114.5 1048.5,-133.5 1117.5,-133.5 1117.5,-114.5 1048.5,-114.5"/>
<text text-anchor="middle" x="1083" y="-121.5" font-family="Helvetica,sans-Serif" font-size="10.00">pa_best_val</text>
</a>
</g>
</g>
<!-- Node1&#45;&gt;Node34 -->
<g id="edge42" class="edge">
<title>Node1&#45;&gt;Node34</title>
<path fill="none" stroke="midnightblue" d="M1161.02,-111.6C1146.87,-113.88 1131.19,-116.4 1117.7,-118.57"/>
<polygon fill="midnightblue" stroke="midnightblue" points="1161.68,-115.04 1171,-109.99 1160.57,-108.13 1161.68,-115.04"/>
</g>
<!-- Node3 -->
<g id="node3" class="node">
<title>Node3</title>
<g id="a_node3"><a xlink:href="act__neural_8h.html#aa8b1494c14b289da3f86f4e8a2db5de7" target="_top" xlink:title="Generates a neural network that covers the specified input:action.">
<polygon fill="none" stroke="black" points="894,-202.5 894,-221.5 985,-221.5 985,-202.5 894,-202.5"/>
<text text-anchor="middle" x="939.5" y="-209.5" font-family="Helvetica,sans-Serif" font-size="10.00">act_neural_cover</text>
</a>
</g>
</g>
<!-- Node2&#45;&gt;Node3 -->
<g id="edge2" class="edge">
<title>Node2&#45;&gt;Node3</title>
<path fill="none" stroke="midnightblue" d="M1020.64,-212C1008.8,-212 996.61,-212 985.42,-212"/>
<polygon fill="midnightblue" stroke="midnightblue" points="1020.92,-215.5 1030.92,-212 1020.92,-208.5 1020.92,-215.5"/>
</g>
<!-- Node5 -->
<g id="node5" class="node">
<title>Node5</title>
<g id="a_node5"><a xlink:href="loss_8h.html#a440b847b0f4edd503b919d3bebecd66c" target="_top" xlink:title="Sets the XCSF error function to the implemented function.">
<polygon fill="none" stroke="black" points="901,-164.5 901,-183.5 978,-183.5 978,-164.5 901,-164.5"/>
<text text-anchor="middle" x="939.5" y="-171.5" font-family="Helvetica,sans-Serif" font-size="10.00">loss_set_func</text>
</a>
</g>
</g>
<!-- Node4&#45;&gt;Node5 -->
<g id="edge4" class="edge">
<title>Node4&#45;&gt;Node5</title>
<path fill="none" stroke="midnightblue" d="M1038.4,-169.85C1019.08,-170.67 996.58,-171.62 978.03,-172.41"/>
<polygon fill="midnightblue" stroke="midnightblue" points="1038.62,-173.34 1048.47,-169.42 1038.33,-166.35 1038.62,-173.34"/>
</g>
<!-- Node6 -->
<g id="node6" class="node">
<title>Node6</title>
<g id="a_node6"><a xlink:href="param_8h.html#ae7f8932981ba2f49027da90acfd121b1" target="_top" xlink:title="Reads the XCSF data structure from a file.">
<polygon fill="none" stroke="black" points="759.5,-164.5 759.5,-183.5 826.5,-183.5 826.5,-164.5 759.5,-164.5"/>
<text text-anchor="middle" x="793" y="-171.5" font-family="Helvetica,sans-Serif" font-size="10.00">param_load</text>
</a>
</g>
</g>
<!-- Node5&#45;&gt;Node6 -->
<g id="edge5" class="edge">
<title>Node5&#45;&gt;Node6</title>
<path fill="none" stroke="midnightblue" d="M890.63,-174C869.76,-174 845.81,-174 826.97,-174"/>
<polygon fill="midnightblue" stroke="midnightblue" points="890.91,-177.5 900.91,-174 890.91,-170.5 890.91,-177.5"/>
</g>
<!-- Node11 -->
<g id="node11" class="node">
<title>Node11</title>
<g id="a_node11"><a xlink:href="param_8h.html#a802ad715416c4b9ac967c43f51399d75" target="_top" xlink:title=" ">
<polygon fill="none" stroke="black" points="738,-202.5 738,-221.5 848,-221.5 848,-202.5 738,-202.5"/>
<text text-anchor="middle" x="793" y="-209.5" font-family="Helvetica,sans-Serif" font-size="10.00">param_set_loss_func</text>
</a>
</g>
</g>
<!-- Node5&#45;&gt;Node11 -->
<g id="edge10" class="edge">
<title>Node5&#45;&gt;Node11</title>
<path fill="none" stroke="midnightblue" d="M892.17,-186.18C872.11,-191.46 848.97,-197.54 830.2,-202.48"/>
<polygon fill="midnightblue" stroke="midnightblue" points="893.26,-189.52 902.04,-183.59 891.48,-182.75 893.26,-189.52"/>
</g>
<!-- Node20 -->
<g id="node20" class="node">
<title>Node20</title>
<g id="a_node20"><a xlink:href="param_8h.html#a7a98b432d0cdc32b5f333d918b243b13" target="_top" xlink:title=" ">
<polygon fill="none" stroke="black" points="738,-253 738,-283 848,-283 848,-253 738,-253"/>
<text text-anchor="start" x="746" y="-271" font-family="Helvetica,sans-Serif" font-size="10.00">param_set_loss_func</text>
<text text-anchor="middle" x="793" y="-260" font-family="Helvetica,sans-Serif" font-size="10.00">_string</text>
</a>
</g>
</g>
<!-- Node5&#45;&gt;Node20 -->
<g id="edge23" class="edge">
<title>Node5&#45;&gt;Node20</title>
<path fill="none" stroke="midnightblue" d="M893.83,-187.55C890.4,-189.19 887.08,-191.01 884,-193 864.46,-205.63 865.69,-215.9 848,-231 838.84,-238.82 828,-246.51 818.46,-252.83"/>
<polygon fill="midnightblue" stroke="midnightblue" points="895.23,-190.76 903.04,-183.59 892.47,-184.32 895.23,-190.76"/>
</g>
<!-- Node7 -->
<g id="node7" class="node">
<title>Node7</title>
<g id="a_node7"><a xlink:href="xcsf_8h.html#ada5fb9a2a1e9225aad40a36614fc0de7" target="_top" xlink:title="Reads the state of XCSF from a file.">
<polygon fill="none" stroke="black" points="618,-220.5 618,-239.5 677,-239.5 677,-220.5 618,-220.5"/>
<text text-anchor="middle" x="647.5" y="-227.5" font-family="Helvetica,sans-Serif" font-size="10.00">xcsf_load</text>
</a>
</g>
</g>
<!-- Node6&#45;&gt;Node7 -->
<g id="edge6" class="edge">
<title>Node6&#45;&gt;Node7</title>
<path fill="none" stroke="midnightblue" d="M752.96,-187.08C747.89,-188.97 742.8,-190.97 738,-193 721.53,-199.98 718.46,-203.99 702,-211 694.02,-214.4 685.2,-217.7 677.07,-220.58"/>
<polygon fill="midnightblue" stroke="midnightblue" points="754.38,-190.29 762.6,-183.59 752,-183.7 754.38,-190.29"/>
</g>
<!-- Node8 -->
<g id="node8" class="node">
<title>Node8</title>
<g id="a_node8"><a xlink:href="classXCS.html#a1a7ff32cb3485c0de9dd988f6f3e3470" target="_top" xlink:title="Reads the entire current state of XCSF from a file.">
<polygon fill="none" stroke="black" points="470,-220.5 470,-239.5 532,-239.5 532,-220.5 470,-220.5"/>
<text text-anchor="middle" x="501" y="-227.5" font-family="Helvetica,sans-Serif" font-size="10.00">XCS::load</text>
</a>
</g>
</g>
<!-- Node7&#45;&gt;Node8 -->
<g id="edge7" class="edge">
<title>Node7&#45;&gt;Node8</title>
<path fill="none" stroke="midnightblue" d="M607.88,-230C584.16,-230 554.22,-230 532.23,-230"/>
<polygon fill="midnightblue" stroke="midnightblue" points="607.95,-233.5 617.95,-230 607.95,-226.5 607.95,-233.5"/>
</g>
<!-- Node10 -->
<g id="node10" class="node">
<title>Node10</title>
<g id="a_node10"><a xlink:href="main_8c.html#a3c04138a5bfe5d72780bb7e82a18e627" target="_top" xlink:title=" ">
<polygon fill="none" stroke="black" points="0,-315.5 0,-334.5 38,-334.5 38,-315.5 0,-315.5"/>
<text text-anchor="middle" x="19" y="-322.5" font-family="Helvetica,sans-Serif" font-size="10.00">main</text>
</a>
</g>
</g>
<!-- Node7&#45;&gt;Node10 -->
<g id="edge9" class="edge">
<title>Node7&#45;&gt;Node10</title>
<path fill="none" stroke="midnightblue" d="M607.81,-242.63C540.29,-264.24 403.36,-306 353.5,-306 353.5,-306 353.5,-306 217.5,-306 151.19,-306 72.93,-316.74 38.19,-322.07"/>
<polygon fill="midnightblue" stroke="midnightblue" points="609.2,-245.86 617.64,-239.47 607.05,-239.2 609.2,-245.86"/>
</g>
<!-- Node9 -->
<g id="node9" class="node">
<title>Node9</title>
<g id="a_node9"><a xlink:href="pybind__wrapper_8cpp.html#a269acb618355873dacf057083f07eb58" target="_top" xlink:title=" ">
<polygon fill="none" stroke="black" points="296,-163.5 296,-182.5 409,-182.5 409,-163.5 296,-163.5"/>
<text text-anchor="middle" x="352.5" y="-170.5" font-family="Helvetica,sans-Serif" font-size="10.00">pybind11_init_wrapper</text>
</a>
</g>
</g>
<!-- Node8&#45;&gt;Node9 -->
<g id="edge8" class="edge">
<title>Node8&#45;&gt;Node9</title>
<path fill="none" stroke="midnightblue" d="M461.5,-217.04C455.95,-215.07 450.31,-213.02 445,-211 421.04,-201.9 393.98,-190.52 375.54,-182.6"/>
<polygon fill="midnightblue" stroke="midnightblue" points="460.74,-220.48 471.33,-220.47 463.05,-213.87 460.74,-220.48"/>
</g>
<!-- Node12 -->
<g id="node12" class="node">
<title>Node12</title>
<g id="a_node12"><a xlink:href="param_8h.html#ac8218a170803be0bcd974764e7494b0e" target="_top" xlink:title="Initialises default XCSF parameters.">
<polygon fill="none" stroke="black" points="616.5,-372.5 616.5,-391.5 678.5,-391.5 678.5,-372.5 616.5,-372.5"/>
<text text-anchor="middle" x="647.5" y="-379.5" font-family="Helvetica,sans-Serif" font-size="10.00">param_init</text>
</a>
</g>
</g>
<!-- Node11&#45;&gt;Node12 -->
<g id="edge11" class="edge">
<title>Node11&#45;&gt;Node12</title>
<path fill="none" stroke="midnightblue" d="M762.14,-226.41C753.77,-231.29 745.04,-237.24 738,-244 716.37,-264.77 670,-344.33 654.04,-372.25"/>
<polygon fill="midnightblue" stroke="midnightblue" points="763.9,-229.44 770.98,-221.55 760.53,-223.3 763.9,-229.44"/>
</g>
<!-- Node18 -->
<g id="node18" class="node">
<title>Node18</title>
<g id="a_node18"><a xlink:href="xcsf_8h.html#ad77461184a11780681798ac593b090ab" target="_top" xlink:title="Switches from autoencoding to classification.">
<polygon fill="none" stroke="black" points="593,-182.5 593,-201.5 702,-201.5 702,-182.5 593,-182.5"/>
<text text-anchor="middle" x="647.5" y="-189.5" font-family="Helvetica,sans-Serif" font-size="10.00">xcsf_ae_to_classifier</text>
</a>
</g>
</g>
<!-- Node11&#45;&gt;Node18 -->
<g id="edge20" class="edge">
<title>Node11&#45;&gt;Node18</title>
<path fill="none" stroke="midnightblue" d="M727.57,-203.02C719.14,-201.85 710.58,-200.65 702.35,-199.51"/>
<polygon fill="midnightblue" stroke="midnightblue" points="727.36,-206.52 737.75,-204.44 728.33,-199.59 727.36,-206.52"/>
</g>
<!-- Node13 -->
<g id="node13" class="node">
<title>Node13</title>
<g id="a_node13"><a xlink:href="env__csv_8h.html#ab26a39a388f0ac83b9ac14726ad14b16" target="_top" xlink:title="Initialises a CSV input environment from a specified filename.">
<polygon fill="none" stroke="black" points="465.5,-372.5 465.5,-391.5 536.5,-391.5 536.5,-372.5 465.5,-372.5"/>
<text text-anchor="middle" x="501" y="-379.5" font-family="Helvetica,sans-Serif" font-size="10.00">env_csv_init</text>
</a>
</g>
</g>
<!-- Node12&#45;&gt;Node13 -->
<g id="edge12" class="edge">
<title>Node12&#45;&gt;Node13</title>
<path fill="none" stroke="midnightblue" d="M605.92,-382C584.07,-382 557.41,-382 536.56,-382"/>
<polygon fill="midnightblue" stroke="midnightblue" points="606.21,-385.5 616.21,-382 606.21,-378.5 606.21,-385.5"/>
</g>
<!-- Node15 -->
<g id="node15" class="node">
<title>Node15</title>
<g id="a_node15"><a xlink:href="env__maze_8h.html#acad3cc6e9fe2b7e07e878f1f517ad3a6" target="_top" xlink:title="Initialises a maze environment from a specified file.">
<polygon fill="none" stroke="black" points="461,-334.5 461,-353.5 541,-353.5 541,-334.5 461,-334.5"/>
<text text-anchor="middle" x="501" y="-341.5" font-family="Helvetica,sans-Serif" font-size="10.00">env_maze_init</text>
</a>
</g>
</g>
<!-- Node12&#45;&gt;Node15 -->
<g id="edge15" class="edge">
<title>Node12&#45;&gt;Node15</title>
<path fill="none" stroke="midnightblue" d="M606.44,-371.46C585.04,-365.84 558.9,-358.96 538.13,-353.5"/>
<polygon fill="midnightblue" stroke="midnightblue" points="605.65,-374.88 616.21,-374.03 607.43,-368.11 605.65,-374.88"/>
</g>
<!-- Node16 -->
<g id="node16" class="node">
<title>Node16</title>
<g id="a_node16"><a xlink:href="env__mux_8h.html#acc5dab817235c6910ba43b9dc4158ccd" target="_top" xlink:title="Initialises a real multiplexer environment of specified length.">
<polygon fill="none" stroke="black" points="464,-448.5 464,-467.5 538,-467.5 538,-448.5 464,-448.5"/>
<text text-anchor="middle" x="501" y="-455.5" font-family="Helvetica,sans-Serif" font-size="10.00">env_mux_init</text>
</a>
</g>
</g>
<!-- Node12&#45;&gt;Node16 -->
<g id="edge17" class="edge">
<title>Node12&#45;&gt;Node16</title>
<path fill="none" stroke="midnightblue" d="M625.32,-397.5C607.69,-409.91 581.58,-427.13 557,-439 549.63,-442.56 541.42,-445.77 533.64,-448.49"/>
<polygon fill="midnightblue" stroke="midnightblue" points="627.61,-400.17 633.72,-391.51 623.55,-394.47 627.61,-400.17"/>
</g>
<!-- Node17 -->
<g id="node17" class="node">
<title>Node17</title>
<g id="a_node17"><a xlink:href="classXCS.html#af1010afd63843f86ad1dd81fade9bd72" target="_top" xlink:title="Constructor.">
<polygon fill="none" stroke="black" points="468.5,-410.5 468.5,-429.5 533.5,-429.5 533.5,-410.5 468.5,-410.5"/>
<text text-anchor="middle" x="501" y="-417.5" font-family="Helvetica,sans-Serif" font-size="10.00">XCS::XCS</text>
</a>
</g>
</g>
<!-- Node12&#45;&gt;Node17 -->
<g id="edge19" class="edge">
<title>Node12&#45;&gt;Node17</title>
<path fill="none" stroke="midnightblue" d="M606.39,-392.55C583.38,-398.6 554.9,-406.09 533.5,-411.72"/>
<polygon fill="midnightblue" stroke="midnightblue" points="607.43,-395.89 616.21,-389.97 605.65,-389.12 607.43,-395.89"/>
</g>
<!-- Node14 -->
<g id="node14" class="node">
<title>Node14</title>
<g id="a_node14"><a xlink:href="env_8h.html#a9213fcf5fc422d6a77bce853b1d78dc9" target="_top" xlink:title="Initialises a built&#45;in problem environment.">
<polygon fill="none" stroke="black" points="327.5,-362.5 327.5,-381.5 377.5,-381.5 377.5,-362.5 327.5,-362.5"/>
<text text-anchor="middle" x="352.5" y="-369.5" font-family="Helvetica,sans-Serif" font-size="10.00">env_init</text>
</a>
</g>
</g>
<!-- Node13&#45;&gt;Node14 -->
<g id="edge13" class="edge">
<title>Node13&#45;&gt;Node14</title>
<path fill="none" stroke="midnightblue" d="M455.12,-378.94C429.7,-377.2 398.88,-375.1 377.89,-373.67"/>
<polygon fill="midnightblue" stroke="midnightblue" points="455.07,-382.44 465.28,-379.63 455.54,-375.46 455.07,-382.44"/>
</g>
<!-- Node14&#45;&gt;Node10 -->
<g id="edge14" class="edge">
<title>Node14&#45;&gt;Node10</title>
<path fill="none" stroke="midnightblue" d="M317.38,-367.16C247.74,-357.29 91.34,-335.11 38.13,-327.57"/>
<polygon fill="midnightblue" stroke="midnightblue" points="317,-370.64 327.39,-368.58 317.98,-363.71 317,-370.64"/>
</g>
<!-- Node15&#45;&gt;Node14 -->
<g id="edge16" class="edge">
<title>Node15&#45;&gt;Node14</title>
<path fill="none" stroke="midnightblue" d="M450.83,-353.4C426.22,-358.1 397.53,-363.59 377.7,-367.37"/>
<polygon fill="midnightblue" stroke="midnightblue" points="451.58,-356.82 460.74,-351.5 450.26,-349.94 451.58,-356.82"/>
</g>
<!-- Node16&#45;&gt;Node14 -->
<g id="edge18" class="edge">
<title>Node16&#45;&gt;Node14</title>
<path fill="none" stroke="midnightblue" d="M457.57,-444.79C453.25,-443.02 448.98,-441.09 445,-439 413.43,-422.47 380.76,-395.82 364.33,-381.63"/>
<polygon fill="midnightblue" stroke="midnightblue" points="456.45,-448.11 467.04,-448.41 458.95,-441.58 456.45,-448.11"/>
</g>
<!-- Node19 -->
<g id="node19" class="node">
<title>Node19</title>
<g id="a_node19"><a xlink:href="classXCS.html#ad73009d926d395ee03bf7586f194fcbe" target="_top" xlink:title="Switches from autoencoding to classification.">
<polygon fill="none" stroke="black" points="445,-182.5 445,-201.5 557,-201.5 557,-182.5 445,-182.5"/>
<text text-anchor="middle" x="501" y="-189.5" font-family="Helvetica,sans-Serif" font-size="10.00">XCS::ae_to_classifier</text>
</a>
</g>
</g>
<!-- Node18&#45;&gt;Node19 -->
<g id="edge21" class="edge">
<title>Node18&#45;&gt;Node19</title>
<path fill="none" stroke="midnightblue" d="M582.54,-192C574.12,-192 565.55,-192 557.3,-192"/>
<polygon fill="midnightblue" stroke="midnightblue" points="582.69,-195.5 592.69,-192 582.69,-188.5 582.69,-195.5"/>
</g>
<!-- Node19&#45;&gt;Node9 -->
<g id="edge22" class="edge">
<title>Node19&#45;&gt;Node9</title>
<path fill="none" stroke="midnightblue" d="M434.51,-183.51C426.15,-182.42 417.64,-181.32 409.45,-180.26"/>
<polygon fill="midnightblue" stroke="midnightblue" points="434.25,-187 444.61,-184.82 435.15,-180.06 434.25,-187"/>
</g>
<!-- Node21 -->
<g id="node21" class="node">
<title>Node21</title>
<g id="a_node21"><a xlink:href="config_8c.html#a75d4810fb584c4e983fb8b972f1b1654" target="_top" xlink:title="Sets general XCSF parameters.">
<polygon fill="none" stroke="black" points="607.5,-448.5 607.5,-467.5 687.5,-467.5 687.5,-448.5 607.5,-448.5"/>
<text text-anchor="middle" x="647.5" y="-455.5" font-family="Helvetica,sans-Serif" font-size="10.00">config_general</text>
</a>
</g>
</g>
<!-- Node20&#45;&gt;Node21 -->
<g id="edge24" class="edge">
<title>Node20&#45;&gt;Node21</title>
<path fill="none" stroke="midnightblue" d="M777.28,-292.16C760.3,-319.45 730.96,-364.77 702,-401 687.93,-418.6 669.61,-437.34 658.47,-448.34"/>
<polygon fill="midnightblue" stroke="midnightblue" points="780.47,-293.65 782.76,-283.31 774.52,-289.97 780.47,-293.65"/>
</g>
<!-- Node26 -->
<g id="node26" class="node">
<title>Node26</title>
<g id="a_node26"><a xlink:href="classXCS.html#a049260ddd3681d8f475d4102d3a93cb4" target="_top" xlink:title=" ">
<polygon fill="none" stroke="black" points="595.5,-258.5 595.5,-277.5 699.5,-277.5 699.5,-258.5 595.5,-258.5"/>
<text text-anchor="middle" x="647.5" y="-265.5" font-family="Helvetica,sans-Serif" font-size="10.00">XCS::set_loss_func</text>
</a>
</g>
</g>
<!-- Node20&#45;&gt;Node26 -->
<g id="edge30" class="edge">
<title>Node20&#45;&gt;Node26</title>
<path fill="none" stroke="midnightblue" d="M727.63,-268C718.21,-268 708.62,-268 699.51,-268"/>
<polygon fill="midnightblue" stroke="midnightblue" points="727.75,-271.5 737.75,-268 727.75,-264.5 727.75,-271.5"/>
</g>
<!-- Node22 -->
<g id="node22" class="node">
<title>Node22</title>
<g id="a_node22"><a xlink:href="config_8c.html#a0f0fcad0b6090da01e5bd58b77d98787" target="_top" xlink:title="Sets specified parameter.">
<polygon fill="none" stroke="black" points="453,-486.5 453,-505.5 549,-505.5 549,-486.5 453,-486.5"/>
<text text-anchor="middle" x="501" y="-493.5" font-family="Helvetica,sans-Serif" font-size="10.00">config_add_param</text>
</a>
</g>
</g>
<!-- Node21&#45;&gt;Node22 -->
<g id="edge25" class="edge">
<title>Node21&#45;&gt;Node22</title>
<path fill="none" stroke="midnightblue" d="M600.17,-470.18C580.11,-475.46 556.97,-481.54 538.2,-486.48"/>
<polygon fill="midnightblue" stroke="midnightblue" points="601.26,-473.52 610.04,-467.59 599.48,-466.75 601.26,-473.52"/>
</g>
<!-- Node23 -->
<g id="node23" class="node">
<title>Node23</title>
<g id="a_node23"><a xlink:href="config_8c.html#a5b96815b9ebb26a8fc7bcc30a75ab36d" target="_top" xlink:title="Adds a parameter to the list.">
<polygon fill="none" stroke="black" points="306.5,-467.5 306.5,-486.5 398.5,-486.5 398.5,-467.5 306.5,-467.5"/>
<text text-anchor="middle" x="352.5" y="-474.5" font-family="Helvetica,sans-Serif" font-size="10.00">config_newnvpair</text>
</a>
</g>
</g>
<!-- Node22&#45;&gt;Node23 -->
<g id="edge26" class="edge">
<title>Node22&#45;&gt;Node23</title>
<path fill="none" stroke="midnightblue" d="M442.85,-488.59C428.16,-486.68 412.56,-484.66 398.58,-482.85"/>
<polygon fill="midnightblue" stroke="midnightblue" points="442.47,-492.07 452.84,-489.88 443.37,-485.13 442.47,-492.07"/>
</g>
<!-- Node24 -->
<g id="node24" class="node">
<title>Node24</title>
<g id="a_node24"><a xlink:href="config_8c.html#a01c178cc1587140f60ecf27291a2032a" target="_top" xlink:title="Parses a line of the config file and adds to the list.">
<polygon fill="none" stroke="black" points="177,-410.5 177,-429.5 260,-429.5 260,-410.5 177,-410.5"/>
<text text-anchor="middle" x="218.5" y="-417.5" font-family="Helvetica,sans-Serif" font-size="10.00">config_process</text>
</a>
</g>
</g>
<!-- Node23&#45;&gt;Node24 -->
<g id="edge27" class="edge">
<title>Node23&#45;&gt;Node24</title>
<path fill="none" stroke="midnightblue" d="M319.96,-463.38C295.81,-452.95 263.11,-438.83 241.67,-429.57"/>
<polygon fill="midnightblue" stroke="midnightblue" points="318.84,-466.71 329.41,-467.46 321.61,-460.28 318.84,-466.71"/>
</g>
<!-- Node25 -->
<g id="node25" class="node">
<title>Node25</title>
<g id="a_node25"><a xlink:href="config_8h.html#a045a64a30d99a4bef2ebfd9b54aa9698" target="_top" xlink:title="Reads the specified configuration file.">
<polygon fill="none" stroke="black" points="74,-401.5 74,-420.5 141,-420.5 141,-401.5 74,-401.5"/>
<text text-anchor="middle" x="107.5" y="-408.5" font-family="Helvetica,sans-Serif" font-size="10.00">config_read</text>
</a>
</g>
</g>
<!-- Node24&#45;&gt;Node25 -->
<g id="edge28" class="edge">
<title>Node24&#45;&gt;Node25</title>
<path fill="none" stroke="midnightblue" d="M166.84,-415.82C158.16,-415.1 149.35,-414.37 141.3,-413.71"/>
<polygon fill="midnightblue" stroke="midnightblue" points="166.66,-419.31 176.91,-416.65 167.23,-412.34 166.66,-419.31"/>
</g>
<!-- Node25&#45;&gt;Node10 -->
<g id="edge29" class="edge">
<title>Node25&#45;&gt;Node10</title>
<path fill="none" stroke="midnightblue" d="M89.45,-394.05C71.56,-376.26 44.08,-348.94 29.63,-334.57"/>
<polygon fill="midnightblue" stroke="midnightblue" points="87.35,-396.9 96.91,-401.47 92.29,-391.94 87.35,-396.9"/>
</g>
<!-- Node26&#45;&gt;Node9 -->
<g id="edge31" class="edge">
<title>Node26&#45;&gt;Node9</title>
<path fill="none" stroke="midnightblue" d="M585.09,-271.47C543.96,-271.6 489.43,-267.45 445,-249 408.76,-233.95 375.91,-199.38 361.38,-182.55"/>
<polygon fill="midnightblue" stroke="midnightblue" points="585.28,-274.97 595.24,-271.35 585.2,-267.97 585.28,-274.97"/>
</g>
<!-- Node27&#45;&gt;Node28 -->
<g id="edge33" class="edge">
<title>Node27&#45;&gt;Node28</title>
<path fill="none" stroke="midnightblue" d="M1043.06,-14.4C1028.26,-16.08 1011.12,-18.01 995.14,-19.82"/>
<polygon fill="midnightblue" stroke="midnightblue" points="1043.82,-17.84 1053.37,-13.24 1043.04,-10.88 1043.82,-17.84"/>
</g>
<!-- Node30 -->
<g id="node30" class="node">
<title>Node30</title>
<g id="a_node30"><a xlink:href="xcs__rl_8h.html#a6501735ba3cba5c77c1b8ad0aad0b26a" target="_top" xlink:title="Selects an action to perform in a reinforcement learning problem.">
<polygon fill="none" stroke="black" points="751,-68.5 751,-87.5 835,-87.5 835,-68.5 751,-68.5"/>
<text text-anchor="middle" x="793" y="-75.5" font-family="Helvetica,sans-Serif" font-size="10.00">xcs_rl_decision</text>
</a>
</g>
</g>
<!-- Node29&#45;&gt;Node30 -->
<g id="edge36" class="edge">
<title>Node29&#45;&gt;Node30</title>
<path fill="none" stroke="midnightblue" d="M1031.34,-84.59C975.61,-83.04 887.11,-80.59 835.38,-79.15"/>
<polygon fill="midnightblue" stroke="midnightblue" points="1031.25,-88.09 1041.35,-84.87 1031.45,-81.09 1031.25,-88.09"/>
</g>
<!-- Node31 -->
<g id="node31" class="node">
<title>Node31</title>
<g id="a_node31"><a xlink:href="classXCS.html#ac6003941812bd2c70ea443dd63bd59d0" target="_top" xlink:title="Selects an action to perform in a reinforcement learning problem.">
<polygon fill="none" stroke="black" points="607.5,-30.5 607.5,-49.5 687.5,-49.5 687.5,-30.5 607.5,-30.5"/>
<text text-anchor="middle" x="647.5" y="-37.5" font-family="Helvetica,sans-Serif" font-size="10.00">XCS::decision</text>
</a>
</g>
</g>
<!-- Node30&#45;&gt;Node31 -->
<g id="edge37" class="edge">
<title>Node30&#45;&gt;Node31</title>
<path fill="none" stroke="midnightblue" d="M746.03,-65.83C726.18,-60.57 703.31,-54.51 684.7,-49.59"/>
<polygon fill="midnightblue" stroke="midnightblue" points="745.23,-69.23 755.79,-68.41 747.02,-62.47 745.23,-69.23"/>
</g>
<!-- Node32 -->
<g id="node32" class="node">
<title>Node32</title>
<g id="a_node32"><a xlink:href="xcs__rl_8c.html#a8171cd945b56ed0a4563f9dcd89438e3" target="_top" xlink:title="Executes a reinforcement learning trial using a built&#45;in environment.">
<polygon fill="none" stroke="black" points="615.5,-68.5 615.5,-87.5 679.5,-87.5 679.5,-68.5 615.5,-68.5"/>
<text text-anchor="middle" x="647.5" y="-75.5" font-family="Helvetica,sans-Serif" font-size="10.00">xcs_rl_trial</text>
</a>
</g>
</g>
<!-- Node30&#45;&gt;Node32 -->
<g id="edge39" class="edge">
<title>Node30&#45;&gt;Node32</title>
<path fill="none" stroke="midnightblue" d="M740.76,-78C720.31,-78 697.44,-78 679.59,-78"/>
<polygon fill="midnightblue" stroke="midnightblue" points="740.88,-81.5 750.88,-78 740.88,-74.5 740.88,-81.5"/>
</g>
<!-- Node31&#45;&gt;Node9 -->
<g id="edge38" class="edge">
<title>Node31&#45;&gt;Node9</title>
<path fill="none" stroke="midnightblue" d="M597.17,-47.99C554.99,-56.19 493.6,-71.43 445,-97 410.83,-114.98 377.76,-147.25 362.41,-163.33"/>
<polygon fill="midnightblue" stroke="midnightblue" points="598.01,-51.39 607.19,-46.11 596.72,-44.52 598.01,-51.39"/>
</g>
<!-- Node33 -->
<g id="node33" class="node">
<title>Node33</title>
<g id="a_node33"><a xlink:href="xcs__rl_8h.html#adb4c284d19eeaed2b4a629f9b939ed20" target="_top" xlink:title="Executes a reinforcement learning experiment.">
<polygon fill="none" stroke="black" points="186.5,-87.5 186.5,-106.5 250.5,-106.5 250.5,-87.5 186.5,-87.5"/>
<text text-anchor="middle" x="218.5" y="-94.5" font-family="Helvetica,sans-Serif" font-size="10.00">xcs_rl_exp</text>
</a>
</g>
</g>
<!-- Node32&#45;&gt;Node33 -->
<g id="edge40" class="edge">
<title>Node32&#45;&gt;Node33</title>
<path fill="none" stroke="midnightblue" d="M605.38,-79.83C520.3,-83.62 326.53,-92.24 250.72,-95.61"/>
<polygon fill="midnightblue" stroke="midnightblue" points="605.61,-83.32 615.45,-79.38 605.3,-76.33 605.61,-83.32"/>
</g>
<!-- Node33&#45;&gt;Node10 -->
<g id="edge41" class="edge">
<title>Node33&#45;&gt;Node10</title>
<path fill="none" stroke="midnightblue" d="M202.54,-114.27C163.32,-159.54 58.51,-280.55 28.27,-315.45"/>
<polygon fill="midnightblue" stroke="midnightblue" points="205.36,-116.36 209.27,-106.51 200.07,-111.77 205.36,-116.36"/>
</g>
<!-- Node35 -->
<g id="node35" class="node">
<title>Node35</title>
<g id="a_node35"><a xlink:href="xcs__rl_8h.html#ac0d410321cd5627345e1b53856f7244c" target="_top" xlink:title="Provides reinforcement to the sets.">
<polygon fill="none" stroke="black" points="754.5,-108.5 754.5,-127.5 831.5,-127.5 831.5,-108.5 754.5,-108.5"/>
<text text-anchor="middle" x="793" y="-115.5" font-family="Helvetica,sans-Serif" font-size="10.00">xcs_rl_update</text>
</a>
</g>
</g>
<!-- Node34&#45;&gt;Node35 -->
<g id="edge43" class="edge">
<title>Node34&#45;&gt;Node35</title>
<path fill="none" stroke="midnightblue" d="M1038.39,-123.09C982.16,-121.92 885.27,-119.9 831.94,-118.79"/>
<polygon fill="midnightblue" stroke="midnightblue" points="1038.33,-126.59 1048.4,-123.3 1038.47,-119.59 1038.33,-126.59"/>
</g>
<!-- Node35&#45;&gt;Node32 -->
<g id="edge49" class="edge">
<title>Node35&#45;&gt;Node32</title>
<path fill="none" stroke="midnightblue" d="M747.82,-105.68C725.75,-99.53 699.59,-92.24 679.66,-86.68"/>
<polygon fill="midnightblue" stroke="midnightblue" points="747.06,-109.11 757.63,-108.42 748.94,-102.36 747.06,-109.11"/>
</g>
<!-- Node36 -->
<g id="node36" class="node">
<title>Node36</title>
<g id="a_node36"><a xlink:href="classXCS.html#af8970ba52403714439fda0d4383a390b" target="_top" xlink:title="Creates the action set using the previously selected action, updates the classifiers,...">
<polygon fill="none" stroke="black" points="611,-144.5 611,-163.5 684,-163.5 684,-144.5 611,-144.5"/>
<text text-anchor="middle" x="647.5" y="-151.5" font-family="Helvetica,sans-Serif" font-size="10.00">XCS::update</text>
</a>
</g>
</g>
<!-- Node35&#45;&gt;Node36 -->
<g id="edge44" class="edge">
<title>Node35&#45;&gt;Node36</title>
<path fill="none" stroke="midnightblue" d="M744.36,-129.95C724.83,-134.85 702.6,-140.43 684.47,-144.98"/>
<polygon fill="midnightblue" stroke="midnightblue" points="745.45,-133.29 754.3,-127.46 743.75,-126.5 745.45,-133.29"/>
</g>
<!-- Node37 -->
<g id="node37" class="node">
<title>Node37</title>
<g id="a_node37"><a xlink:href="xcs__rl_8h.html#a391abf9bd2540ff284f822b30899c438" target="_top" xlink:title="Creates and updates an action set for a given (state, action, reward).">
<polygon fill="none" stroke="black" points="619.5,-106.5 619.5,-125.5 675.5,-125.5 675.5,-106.5 619.5,-106.5"/>
<text text-anchor="middle" x="647.5" y="-113.5" font-family="Helvetica,sans-Serif" font-size="10.00">xcs_rl_fit</text>
</a>
</g>
</g>
<!-- Node35&#45;&gt;Node37 -->
<g id="edge46" class="edge">
<title>Node35&#45;&gt;Node37</title>
<path fill="none" stroke="midnightblue" d="M744.1,-117.33C721.28,-117.01 694.82,-116.65 675.53,-116.38"/>
<polygon fill="midnightblue" stroke="midnightblue" points="744.25,-120.83 754.3,-117.47 744.35,-113.84 744.25,-120.83"/>
</g>
<!-- Node36&#45;&gt;Node9 -->
<g id="edge45" class="edge">
<title>Node36&#45;&gt;Node9</title>
<path fill="none" stroke="midnightblue" d="M600.65,-156.97C548.87,-160.33 464.63,-165.79 409.13,-169.39"/>
<polygon fill="midnightblue" stroke="midnightblue" points="601.11,-160.45 610.87,-156.31 600.66,-153.47 601.11,-160.45"/>
</g>
<!-- Node38 -->
<g id="node38" class="node">
<title>Node38</title>
<g id="a_node38"><a xlink:href="classXCS.html#ac12768292958a714a726b1c029e9616a" target="_top" xlink:title="Creates/updates an action set for a given (state, action, reward).">
<polygon fill="none" stroke="black" points="475,-106.5 475,-125.5 527,-125.5 527,-106.5 475,-106.5"/>
<text text-anchor="middle" x="501" y="-113.5" font-family="Helvetica,sans-Serif" font-size="10.00">XCS::fit</text>
</a>
</g>
</g>
<!-- Node37&#45;&gt;Node38 -->
<g id="edge47" class="edge">
<title>Node37&#45;&gt;Node38</title>
<path fill="none" stroke="midnightblue" d="M609.16,-116C583.37,-116 549.77,-116 527.12,-116"/>
<polygon fill="midnightblue" stroke="midnightblue" points="609.32,-119.5 619.32,-116 609.32,-112.5 609.32,-119.5"/>
</g>
<!-- Node38&#45;&gt;Node9 -->
<g id="edge48" class="edge">
<title>Node38&#45;&gt;Node9</title>
<path fill="none" stroke="midnightblue" d="M466.07,-129.2C439.17,-139.67 402.21,-154.05 378.1,-163.43"/>
<polygon fill="midnightblue" stroke="midnightblue" points="467.43,-132.43 475.48,-125.54 464.89,-125.9 467.43,-132.43"/>
</g>
</g>
</svg>
