<?xml version="1.0" encoding="UTF-8" standalone="no"?>
<!DOCTYPE svg PUBLIC "-//W3C//DTD SVG 1.1//EN"
 "http://www.w3.org/Graphics/SVG/1.1/DTD/svg11.dtd">
<!-- Generated by graphviz version 2.43.0 (0)
 -->
<!-- Title: clamp Pages: 1 -->
<svg width="843pt" height="908pt"
 viewBox="0.00 0.00 843.00 908.00" xmlns="http://www.w3.org/2000/svg" xmlns:xlink="http://www.w3.org/1999/xlink">
<g id="graph0" class="graph" transform="scale(1 1) rotate(0) translate(4 904)">
<title>clamp</title>
<!-- Node1 -->
<g id="node1" class="node">
<title>Node1</title>
<g id="a_node1"><a xlink:title="Returns a float clamped within the specified range.">
<polygon fill="#bfbfbf" stroke="black" points="792,-571.5 792,-590.5 835,-590.5 835,-571.5 792,-571.5"/>
<text text-anchor="middle" x="813.5" y="-578.5" font-family="Helvetica,sans-Serif" font-size="10.00">clamp</text>
</a>
</g>
</g>
<!-- Node2 -->
<g id="node2" class="node">
<title>Node2</title>
<g id="a_node2"><a xlink:href="cond__ellipsoid_8c.html#ac6e825c20a547534a5c804e2a8259dab" target="_top" xlink:title="Mutates a hyperellipsoid condition with the self&#45;adaptive rate.">
<polygon fill="none" stroke="black" points="462.5,-666.5 462.5,-685.5 575.5,-685.5 575.5,-666.5 462.5,-666.5"/>
<text text-anchor="middle" x="519" y="-673.5" font-family="Helvetica,sans-Serif" font-size="10.00">cond_ellipsoid_mutate</text>
</a>
</g>
</g>
<!-- Node1&#45;&gt;Node2 -->
<g id="edge1" class="edge">
<title>Node1&#45;&gt;Node2</title>
<path fill="none" stroke="midnightblue" d="M792.3,-596.64C781.93,-604.03 768.81,-612.43 756,-618 697,-643.67 624.55,-659.34 575.6,-667.81"/>
<polygon fill="midnightblue" stroke="midnightblue" points="794.65,-599.26 800.62,-590.51 790.5,-593.62 794.65,-599.26"/>
</g>
<!-- Node3 -->
<g id="node3" class="node">
<title>Node3</title>
<g id="a_node3"><a xlink:href="cond__rectangle_8c.html#a969ef2bdf8fefbcac47746548863073b" target="_top" xlink:title="Mutates a hyperrectangle condition with the self&#45;adaptive rate.">
<polygon fill="none" stroke="black" points="460,-628.5 460,-647.5 578,-647.5 578,-628.5 460,-628.5"/>
<text text-anchor="middle" x="519" y="-635.5" font-family="Helvetica,sans-Serif" font-size="10.00">cond_rectangle_mutate</text>
</a>
</g>
</g>
<!-- Node1&#45;&gt;Node3 -->
<g id="edge2" class="edge">
<title>Node1&#45;&gt;Node3</title>
<path fill="none" stroke="midnightblue" d="M781.93,-586.96C731.28,-596.83 629.53,-616.66 568.83,-628.48"/>
<polygon fill="midnightblue" stroke="midnightblue" points="782.79,-590.36 791.93,-585.01 781.45,-583.49 782.79,-590.36"/>
</g>
<!-- Node4 -->
<g id="node4" class="node">
<title>Node4</title>
<g id="a_node4"><a xlink:href="neural__layer_8c.html#ae0694e66ecd389f10d1d3857b699a561" target="_top" xlink:title="Mutates the gradient descent rate of a neural layer.">
<polygon fill="none" stroke="black" points="644.5,-721.5 644.5,-740.5 736.5,-740.5 736.5,-721.5 644.5,-721.5"/>
<text text-anchor="middle" x="690.5" y="-728.5" font-family="Helvetica,sans-Serif" font-size="10.00">layer_mutate_eta</text>
</a>
</g>
</g>
<!-- Node1&#45;&gt;Node4 -->
<g id="edge3" class="edge">
<title>Node1&#45;&gt;Node4</title>
<path fill="none" stroke="midnightblue" d="M809.25,-600.71C803.53,-629.12 789,-681.42 756,-711 750.5,-715.93 743.8,-719.64 736.83,-722.44"/>
<polygon fill="midnightblue" stroke="midnightblue" points="812.71,-601.23 811.08,-590.76 805.83,-599.96 812.71,-601.23"/>
</g>
<!-- Node9 -->
<g id="node9" class="node">
<title>Node9</title>
<g id="a_node9"><a xlink:href="neural__layer_8c.html#a35e1133cd8863d674d0506d963a93f08" target="_top" xlink:title="Returns the number of neurons to add or remove from a layer.">
<polygon fill="none" stroke="black" points="634,-798.5 634,-817.5 747,-817.5 747,-798.5 634,-798.5"/>
<text text-anchor="middle" x="690.5" y="-805.5" font-family="Helvetica,sans-Serif" font-size="10.00">layer_mutate_neurons</text>
</a>
</g>
</g>
<!-- Node1&#45;&gt;Node9 -->
<g id="edge8" class="edge">
<title>Node1&#45;&gt;Node9</title>
<path fill="none" stroke="midnightblue" d="M813.1,-600.96C813.2,-642 807.44,-736.45 756,-789 752.24,-792.84 747.75,-795.91 742.92,-798.37"/>
<polygon fill="midnightblue" stroke="midnightblue" points="816.6,-600.82 812.95,-590.87 809.6,-600.92 816.6,-600.82"/>
</g>
<!-- Node11 -->
<g id="node11" class="node">
<title>Node11</title>
<g id="a_node11"><a xlink:href="neural__layer_8c.html#af6edb9466e46b6cd7bc1e8556e86d8ed" target="_top" xlink:title="Mutates a layer&#39;s weights and biases by adding random numbers from a Gaussian normal distribution wit...">
<polygon fill="none" stroke="black" points="634.5,-760.5 634.5,-779.5 746.5,-779.5 746.5,-760.5 634.5,-760.5"/>
<text text-anchor="middle" x="690.5" y="-767.5" font-family="Helvetica,sans-Serif" font-size="10.00">layer_mutate_weights</text>
</a>
</g>
</g>
<!-- Node1&#45;&gt;Node11 -->
<g id="edge12" class="edge">
<title>Node1&#45;&gt;Node11</title>
<path fill="none" stroke="midnightblue" d="M811.53,-600.95C808.74,-636.04 797.92,-708.99 756,-750 751.56,-754.35 746.19,-757.75 740.47,-760.41"/>
<polygon fill="midnightblue" stroke="midnightblue" points="815.05,-600.8 812.2,-590.6 808.06,-600.35 815.05,-600.8"/>
</g>
<!-- Node13 -->
<g id="node13" class="node">
<title>Node13</title>
<g id="a_node13"><a xlink:href="neural__layer_8c.html#a80e54e8cdbe0776d6cc739f1a50ffd26" target="_top" xlink:title="Clamps a layer&#39;s weights and biases in range [WEIGHT_MIN, WEIGHT_MAX].">
<polygon fill="none" stroke="black" points="639,-306.5 639,-325.5 742,-325.5 742,-306.5 639,-306.5"/>
<text text-anchor="middle" x="690.5" y="-313.5" font-family="Helvetica,sans-Serif" font-size="10.00">layer_weight_clamp</text>
</a>
</g>
</g>
<!-- Node1&#45;&gt;Node13 -->
<g id="edge17" class="edge">
<title>Node1&#45;&gt;Node13</title>
<path fill="none" stroke="midnightblue" d="M806.51,-561.63C797.15,-532.17 777.84,-474.61 756,-428 737.53,-388.58 710.01,-344.59 697.77,-325.59"/>
<polygon fill="midnightblue" stroke="midnightblue" points="803.26,-562.97 809.6,-571.46 809.94,-560.87 803.26,-562.97"/>
</g>
<!-- Node16 -->
<g id="node16" class="node">
<title>Node16</title>
<g id="a_node16"><a xlink:href="neural__activations_8c.html#acef0d15cd01c7dcc5a4d6d8bdc1d8bad" target="_top" xlink:title="Applies an activation function to a vector of neuron states.">
<polygon fill="none" stroke="black" points="635.5,-175.5 635.5,-194.5 745.5,-194.5 745.5,-175.5 635.5,-175.5"/>
<text text-anchor="middle" x="690.5" y="-182.5" font-family="Helvetica,sans-Serif" font-size="10.00">neural_activate_array</text>
</a>
</g>
</g>
<!-- Node1&#45;&gt;Node16 -->
<g id="edge20" class="edge">
<title>Node1&#45;&gt;Node16</title>
<path fill="none" stroke="midnightblue" d="M810.81,-561.33C806.29,-514.31 791.78,-392.21 756,-297 740.77,-256.46 711.84,-213.39 698.53,-194.65"/>
<polygon fill="midnightblue" stroke="midnightblue" points="807.33,-561.74 811.73,-571.38 814.3,-561.1 807.33,-561.74"/>
</g>
<!-- Node21 -->
<g id="node21" class="node">
<title>Node21</title>
<g id="a_node21"><a xlink:href="neural__layer__convolutional_8c.html#ad54f1b4b3e465667caa810288f0d1ced" target="_top" xlink:title="Returns the number of kernel filters to add or remove from a layer.">
<polygon fill="none" stroke="black" points="625,-671 625,-701 756,-701 756,-671 625,-671"/>
<text text-anchor="start" x="633" y="-689" font-family="Helvetica,sans-Serif" font-size="10.00">neural_layer_convolutional</text>
<text text-anchor="middle" x="690.5" y="-678" font-family="Helvetica,sans-Serif" font-size="10.00">_mutate_filter</text>
</a>
</g>
</g>
<!-- Node1&#45;&gt;Node21 -->
<g id="edge25" class="edge">
<title>Node1&#45;&gt;Node21</title>
<path fill="none" stroke="midnightblue" d="M801.07,-599.79C790.79,-615.52 774.48,-637.77 756,-653 747.55,-659.96 737.4,-666 727.67,-670.94"/>
<polygon fill="midnightblue" stroke="midnightblue" points="804.27,-601.28 806.66,-590.96 798.35,-597.54 804.27,-601.28"/>
</g>
<!-- Node22 -->
<g id="node22" class="node">
<title>Node22</title>
<g id="a_node22"><a xlink:href="dgp_8c.html#ace96d089b13bac9a14edeb6406b6d8cb" target="_top" xlink:title="Returns the result from applying a specified activation function.">
<polygon fill="none" stroke="black" points="652,-112.5 652,-131.5 729,-131.5 729,-112.5 652,-112.5"/>
<text text-anchor="middle" x="690.5" y="-119.5" font-family="Helvetica,sans-Serif" font-size="10.00">node_activate</text>
</a>
</g>
</g>
<!-- Node1&#45;&gt;Node22 -->
<g id="edge27" class="edge">
<title>Node1&#45;&gt;Node22</title>
<path fill="none" stroke="midnightblue" d="M811.9,-561.06C809.38,-487.7 797.74,-233.51 756,-166 746.31,-150.32 728.71,-138.88 714.34,-131.6"/>
<polygon fill="midnightblue" stroke="midnightblue" points="808.41,-561.35 812.23,-571.23 815.4,-561.12 808.41,-561.35"/>
</g>
<!-- Node29 -->
<g id="node29" class="node">
<title>Node29</title>
<g id="a_node29"><a xlink:href="pred__nlms_8c.html#abfd2e8695677f15466100c5d3ce15cda" target="_top" xlink:title="Mutates the gradient descent rate used to update an NLMS prediction.">
<polygon fill="none" stroke="black" points="470.5,-350.5 470.5,-369.5 567.5,-369.5 567.5,-350.5 470.5,-350.5"/>
<text text-anchor="middle" x="519" y="-357.5" font-family="Helvetica,sans-Serif" font-size="10.00">pred_nlms_mutate</text>
</a>
</g>
</g>
<!-- Node1&#45;&gt;Node29 -->
<g id="edge34" class="edge">
<title>Node1&#45;&gt;Node29</title>
<path fill="none" stroke="midnightblue" d="M798.13,-563.56C765.23,-524.75 680.17,-430.67 589,-380 581.37,-375.76 572.75,-372.34 564.26,-369.61"/>
<polygon fill="midnightblue" stroke="midnightblue" points="795.58,-565.96 804.68,-571.38 800.94,-561.47 795.58,-565.96"/>
</g>
<!-- Node30 -->
<g id="node30" class="node">
<title>Node30</title>
<g id="a_node30"><a xlink:href="sam_8c.html#a8dfbd425ab3513d47726620e94fc861c" target="_top" xlink:title="Self&#45;adapts mutation rates.">
<polygon fill="none" stroke="black" points="658,-552.5 658,-571.5 723,-571.5 723,-552.5 658,-552.5"/>
<text text-anchor="middle" x="690.5" y="-559.5" font-family="Helvetica,sans-Serif" font-size="10.00">sam_adapt</text>
</a>
</g>
</g>
<!-- Node1&#45;&gt;Node30 -->
<g id="edge35" class="edge">
<title>Node1&#45;&gt;Node30</title>
<path fill="none" stroke="midnightblue" d="M781.99,-576.21C763.99,-573.38 741.25,-569.81 723.06,-566.96"/>
<polygon fill="midnightblue" stroke="midnightblue" points="781.55,-579.68 791.97,-577.78 782.64,-572.77 781.55,-579.68"/>
</g>
<!-- Node39 -->
<g id="node39" class="node">
<title>Node39</title>
<g id="a_node39"><a xlink:href="gp_8c.html#a88f58058fc80e2e8c8735ed7843705b2" target="_top" xlink:title="Evaluates a GP tree.">
<polygon fill="none" stroke="black" points="662.5,-25.5 662.5,-44.5 718.5,-44.5 718.5,-25.5 662.5,-25.5"/>
<text text-anchor="middle" x="690.5" y="-32.5" font-family="Helvetica,sans-Serif" font-size="10.00">tree_eval</text>
</a>
</g>
</g>
<!-- Node1&#45;&gt;Node39 -->
<g id="edge50" class="edge">
<title>Node1&#45;&gt;Node39</title>
<path fill="none" stroke="midnightblue" d="M811.82,-561.46C808.84,-482.43 795.21,-186.66 756,-103 744.33,-78.1 719.96,-56.44 704.74,-44.6"/>
<polygon fill="midnightblue" stroke="midnightblue" points="808.33,-561.63 812.19,-571.5 815.32,-561.38 808.33,-561.63"/>
</g>
<!-- Node5 -->
<g id="node5" class="node">
<title>Node5</title>
<g id="a_node5"><a xlink:href="neural__layer__lstm_8c.html#a46d6667381b42e2d14554674328c8cde" target="_top" xlink:title="Mutates the gradient descent rate used to update an LSTM layer.">
<polygon fill="none" stroke="black" points="486.5,-754.5 486.5,-773.5 551.5,-773.5 551.5,-754.5 486.5,-754.5"/>
<text text-anchor="middle" x="519" y="-761.5" font-family="Helvetica,sans-Serif" font-size="10.00">mutate_eta</text>
</a>
</g>
</g>
<!-- Node4&#45;&gt;Node5 -->
<g id="edge4" class="edge">
<title>Node4&#45;&gt;Node5</title>
<path fill="none" stroke="midnightblue" d="M634.23,-741.76C606.84,-747.09 574.77,-753.34 551.59,-757.85"/>
<polygon fill="midnightblue" stroke="midnightblue" points="634.93,-745.19 644.08,-739.84 633.59,-738.32 634.93,-745.19"/>
</g>
<!-- Node7 -->
<g id="node7" class="node">
<title>Node7</title>
<g id="a_node7"><a xlink:href="neural__layer__connected_8c.html#abfd38ab832a6f70d7b61065fe3dc25c3" target="_top" xlink:title="Mutates a connected layer.">
<polygon fill="none" stroke="black" points="459.5,-793 459.5,-823 578.5,-823 578.5,-793 459.5,-793"/>
<text text-anchor="start" x="467.5" y="-811" font-family="Helvetica,sans-Serif" font-size="10.00">neural_layer_connected</text>
<text text-anchor="middle" x="519" y="-800" font-family="Helvetica,sans-Serif" font-size="10.00">_mutate</text>
</a>
</g>
</g>
<!-- Node4&#45;&gt;Node7 -->
<g id="edge6" class="edge">
<title>Node4&#45;&gt;Node7</title>
<path fill="none" stroke="midnightblue" d="M639.47,-744.15C634.45,-746.16 629.54,-748.44 625,-751 606.36,-761.52 607.39,-772.05 589,-783 582.76,-786.72 575.88,-790.02 568.95,-792.9"/>
<polygon fill="midnightblue" stroke="midnightblue" points="640.98,-747.32 649.17,-740.6 638.58,-740.75 640.98,-747.32"/>
</g>
<!-- Node8 -->
<g id="node8" class="node">
<title>Node8</title>
<g id="a_node8"><a xlink:href="neural__layer__convolutional_8c.html#a9e4f5fb82855910a5a4fecad093033db" target="_top" xlink:title="Mutates a convolutional layer.">
<polygon fill="none" stroke="black" points="453.5,-705 453.5,-735 584.5,-735 584.5,-705 453.5,-705"/>
<text text-anchor="start" x="461.5" y="-723" font-family="Helvetica,sans-Serif" font-size="10.00">neural_layer_convolutional</text>
<text text-anchor="middle" x="519" y="-712" font-family="Helvetica,sans-Serif" font-size="10.00">_mutate</text>
</a>
</g>
</g>
<!-- Node4&#45;&gt;Node8 -->
<g id="edge7" class="edge">
<title>Node4&#45;&gt;Node8</title>
<path fill="none" stroke="midnightblue" d="M633.97,-727.4C618.21,-726.37 600.92,-725.25 584.67,-724.2"/>
<polygon fill="midnightblue" stroke="midnightblue" points="633.87,-730.9 644.08,-728.05 634.32,-723.91 633.87,-730.9"/>
</g>
<!-- Node6 -->
<g id="node6" class="node">
<title>Node6</title>
<g id="a_node6"><a xlink:href="neural__layer__lstm_8c.html#a4324dc3fbf9a44f60c956a467a5ff73b" target="_top" xlink:title="Mutates an LSTM layer.">
<polygon fill="none" stroke="black" points="285,-798.5 285,-817.5 413,-817.5 413,-798.5 285,-798.5"/>
<text text-anchor="middle" x="349" y="-805.5" font-family="Helvetica,sans-Serif" font-size="10.00">neural_layer_lstm_mutate</text>
</a>
</g>
</g>
<!-- Node5&#45;&gt;Node6 -->
<g id="edge5" class="edge">
<title>Node5&#45;&gt;Node6</title>
<path fill="none" stroke="midnightblue" d="M476.63,-774.83C448.99,-782.07 412.98,-791.51 386.42,-798.46"/>
<polygon fill="midnightblue" stroke="midnightblue" points="477.61,-778.2 486.4,-772.28 475.84,-771.42 477.61,-778.2"/>
</g>
<!-- Node9&#45;&gt;Node7 -->
<g id="edge11" class="edge">
<title>Node9&#45;&gt;Node7</title>
<path fill="none" stroke="midnightblue" d="M623.82,-808C608.9,-808 593.14,-808 578.54,-808"/>
<polygon fill="midnightblue" stroke="midnightblue" points="624,-811.5 634,-808 624,-804.5 624,-811.5"/>
</g>
<!-- Node10 -->
<g id="node10" class="node">
<title>Node10</title>
<g id="a_node10"><a xlink:href="neural__layer__lstm_8c.html#a804cc1f15baeb4bb507dc449b8e3dcfd" target="_top" xlink:title="Mutates the number of neurons in an LSTM layer.">
<polygon fill="none" stroke="black" points="476,-880.5 476,-899.5 562,-899.5 562,-880.5 476,-880.5"/>
<text text-anchor="middle" x="519" y="-887.5" font-family="Helvetica,sans-Serif" font-size="10.00">mutate_neurons</text>
</a>
</g>
</g>
<!-- Node9&#45;&gt;Node10 -->
<g id="edge9" class="edge">
<title>Node9&#45;&gt;Node10</title>
<path fill="none" stroke="midnightblue" d="M668.64,-823.62C648.99,-837.71 618.26,-858.13 589,-871 580.58,-874.7 571.27,-877.85 562.27,-880.46"/>
<polygon fill="midnightblue" stroke="midnightblue" points="670.83,-826.36 676.85,-817.64 666.71,-820.7 670.83,-826.36"/>
</g>
<!-- Node10&#45;&gt;Node6 -->
<g id="edge10" class="edge">
<title>Node10&#45;&gt;Node6</title>
<path fill="none" stroke="midnightblue" d="M465.95,-877.47C460.14,-875.55 454.38,-873.39 449,-871 415.67,-856.21 380.55,-831.3 362.44,-817.65"/>
<polygon fill="midnightblue" stroke="midnightblue" points="465.12,-880.88 475.71,-880.5 467.19,-874.19 465.12,-880.88"/>
</g>
<!-- Node11&#45;&gt;Node7 -->
<g id="edge15" class="edge">
<title>Node11&#45;&gt;Node7</title>
<path fill="none" stroke="midnightblue" d="M636.78,-781.82C618.38,-785.94 597.62,-790.6 578.76,-794.83"/>
<polygon fill="midnightblue" stroke="midnightblue" points="637.74,-785.19 646.73,-779.59 636.2,-778.36 637.74,-785.19"/>
</g>
<!-- Node11&#45;&gt;Node8 -->
<g id="edge16" class="edge">
<title>Node11&#45;&gt;Node8</title>
<path fill="none" stroke="midnightblue" d="M647.38,-757.58C624.3,-750.77 595.52,-742.28 571.16,-735.09"/>
<polygon fill="midnightblue" stroke="midnightblue" points="646.64,-761.01 657.22,-760.48 648.62,-754.29 646.64,-761.01"/>
</g>
<!-- Node12 -->
<g id="node12" class="node">
<title>Node12</title>
<g id="a_node12"><a xlink:href="neural__layer__lstm_8c.html#aa6189d30b38ebf21205ba9643c788776" target="_top" xlink:title="Mutates the magnitude of weights and biases in an LSTM layer.">
<polygon fill="none" stroke="black" points="476,-842.5 476,-861.5 562,-861.5 562,-842.5 476,-842.5"/>
<text text-anchor="middle" x="519" y="-849.5" font-family="Helvetica,sans-Serif" font-size="10.00">mutate_weights</text>
</a>
</g>
</g>
<!-- Node11&#45;&gt;Node12 -->
<g id="edge13" class="edge">
<title>Node11&#45;&gt;Node12</title>
<path fill="none" stroke="midnightblue" d="M634.88,-783.46C631.43,-785.1 628.1,-786.94 625,-789 603.95,-802.97 610.18,-819.22 589,-833 580.98,-838.22 571.54,-842.02 562.27,-844.78"/>
<polygon fill="midnightblue" stroke="midnightblue" points="636.36,-786.64 644.23,-779.55 633.66,-780.18 636.36,-786.64"/>
</g>
<!-- Node12&#45;&gt;Node6 -->
<g id="edge14" class="edge">
<title>Node12&#45;&gt;Node6</title>
<path fill="none" stroke="midnightblue" d="M471.59,-839.85C444.71,-832.8 411.35,-824.07 386.38,-817.53"/>
<polygon fill="midnightblue" stroke="midnightblue" points="470.99,-843.3 481.55,-842.45 472.76,-836.53 470.99,-843.3"/>
</g>
<!-- Node14 -->
<g id="node14" class="node">
<title>Node14</title>
<g id="a_node14"><a xlink:href="neural__layer__connected_8c.html#afb4c050b212b3a0dd87d66d86b57adb7" target="_top" xlink:title="Updates the weights and biases of a connected layer.">
<polygon fill="none" stroke="black" points="459.5,-301 459.5,-331 578.5,-331 578.5,-301 459.5,-301"/>
<text text-anchor="start" x="467.5" y="-319" font-family="Helvetica,sans-Serif" font-size="10.00">neural_layer_connected</text>
<text text-anchor="middle" x="519" y="-308" font-family="Helvetica,sans-Serif" font-size="10.00">_update</text>
</a>
</g>
</g>
<!-- Node13&#45;&gt;Node14 -->
<g id="edge18" class="edge">
<title>Node13&#45;&gt;Node14</title>
<path fill="none" stroke="midnightblue" d="M628.21,-316C612.03,-316 594.6,-316 578.56,-316"/>
<polygon fill="midnightblue" stroke="midnightblue" points="628.64,-319.5 638.64,-316 628.64,-312.5 628.64,-319.5"/>
</g>
<!-- Node15 -->
<g id="node15" class="node">
<title>Node15</title>
<g id="a_node15"><a xlink:href="neural__layer__convolutional_8c.html#a3e2922534009f8942017c7621f3b42e8" target="_top" xlink:title="Updates the weights and biases of a convolutional layer.">
<polygon fill="none" stroke="black" points="453.5,-252 453.5,-282 584.5,-282 584.5,-252 453.5,-252"/>
<text text-anchor="start" x="461.5" y="-270" font-family="Helvetica,sans-Serif" font-size="10.00">neural_layer_convolutional</text>
<text text-anchor="middle" x="519" y="-259" font-family="Helvetica,sans-Serif" font-size="10.00">_update</text>
</a>
</g>
</g>
<!-- Node13&#45;&gt;Node15 -->
<g id="edge19" class="edge">
<title>Node13&#45;&gt;Node15</title>
<path fill="none" stroke="midnightblue" d="M646.72,-303.63C624.03,-297.07 595.96,-288.96 572.02,-282.04"/>
<polygon fill="midnightblue" stroke="midnightblue" points="645.84,-307.02 656.42,-306.44 647.78,-300.3 645.84,-307.02"/>
</g>
<!-- Node17 -->
<g id="node17" class="node">
<title>Node17</title>
<g id="a_node17"><a xlink:href="neural__layer__connected_8c.html#ae984294bf3121be074bf77081b0ccdf2" target="_top" xlink:title="Forward propagates a connected layer.">
<polygon fill="none" stroke="black" points="459.5,-126 459.5,-156 578.5,-156 578.5,-126 459.5,-126"/>
<text text-anchor="start" x="467.5" y="-144" font-family="Helvetica,sans-Serif" font-size="10.00">neural_layer_connected</text>
<text text-anchor="middle" x="519" y="-133" font-family="Helvetica,sans-Serif" font-size="10.00">_forward</text>
</a>
</g>
</g>
<!-- Node16&#45;&gt;Node17 -->
<g id="edge21" class="edge">
<title>Node16&#45;&gt;Node17</title>
<path fill="none" stroke="midnightblue" d="M642.9,-172.9C622.85,-167.7 599.2,-161.56 578.04,-156.07"/>
<polygon fill="midnightblue" stroke="midnightblue" points="642.16,-176.33 652.72,-175.45 643.92,-169.55 642.16,-176.33"/>
</g>
<!-- Node18 -->
<g id="node18" class="node">
<title>Node18</title>
<g id="a_node18"><a xlink:href="neural__layer__convolutional_8c.html#a474f61e40569851884c0108ce2e40a1d" target="_top" xlink:title="Forward propagates a convolutional layer.">
<polygon fill="none" stroke="black" points="453.5,-77 453.5,-107 584.5,-107 584.5,-77 453.5,-77"/>
<text text-anchor="start" x="461.5" y="-95" font-family="Helvetica,sans-Serif" font-size="10.00">neural_layer_convolutional</text>
<text text-anchor="middle" x="519" y="-84" font-family="Helvetica,sans-Serif" font-size="10.00">_forward</text>
</a>
</g>
</g>
<!-- Node16&#45;&gt;Node18 -->
<g id="edge22" class="edge">
<title>Node16&#45;&gt;Node18</title>
<path fill="none" stroke="midnightblue" d="M667.15,-169.78C638.17,-150.06 591.07,-118.06 589,-117 581.96,-113.41 574.28,-110.1 566.69,-107.13"/>
<polygon fill="midnightblue" stroke="midnightblue" points="665.25,-172.72 675.49,-175.46 669.19,-166.94 665.25,-172.72"/>
</g>
<!-- Node19 -->
<g id="node19" class="node">
<title>Node19</title>
<g id="a_node19"><a xlink:href="neural__layer__lstm_8c.html#a00f097f7f5277fa3396e1feefc231e91" target="_top" xlink:title="Backward propagates an LSTM layer.">
<polygon fill="none" stroke="black" points="449,-213.5 449,-232.5 589,-232.5 589,-213.5 449,-213.5"/>
<text text-anchor="middle" x="519" y="-220.5" font-family="Helvetica,sans-Serif" font-size="10.00">neural_layer_lstm_backward</text>
</a>
</g>
</g>
<!-- Node16&#45;&gt;Node19 -->
<g id="edge23" class="edge">
<title>Node16&#45;&gt;Node19</title>
<path fill="none" stroke="midnightblue" d="M636.76,-196.82C612.86,-202.18 584.98,-208.43 562.46,-213.48"/>
<polygon fill="midnightblue" stroke="midnightblue" points="637.74,-200.19 646.73,-194.59 636.2,-193.36 637.74,-200.19"/>
</g>
<!-- Node20 -->
<g id="node20" class="node">
<title>Node20</title>
<g id="a_node20"><a xlink:href="neural__layer__lstm_8c.html#af2c3a4a9e6dd75cd00083c38733bddb0" target="_top" xlink:title="Forward propagates an LSTM layer.">
<polygon fill="none" stroke="black" points="453.5,-175.5 453.5,-194.5 584.5,-194.5 584.5,-175.5 453.5,-175.5"/>
<text text-anchor="middle" x="519" y="-182.5" font-family="Helvetica,sans-Serif" font-size="10.00">neural_layer_lstm_forward</text>
</a>
</g>
</g>
<!-- Node16&#45;&gt;Node20 -->
<g id="edge24" class="edge">
<title>Node16&#45;&gt;Node20</title>
<path fill="none" stroke="midnightblue" d="M625.35,-185C612,-185 597.91,-185 584.54,-185"/>
<polygon fill="midnightblue" stroke="midnightblue" points="625.4,-188.5 635.4,-185 625.4,-181.5 625.4,-188.5"/>
</g>
<!-- Node21&#45;&gt;Node8 -->
<g id="edge26" class="edge">
<title>Node21&#45;&gt;Node8</title>
<path fill="none" stroke="midnightblue" d="M614.93,-700.96C604.85,-702.98 594.56,-705.04 584.67,-707.03"/>
<polygon fill="midnightblue" stroke="midnightblue" points="615.82,-704.35 624.94,-698.95 614.44,-697.49 615.82,-704.35"/>
</g>
<!-- Node23 -->
<g id="node23" class="node">
<title>Node23</title>
<g id="a_node23"><a xlink:href="dgp_8c.html#a3086c105976334ceda0e9b8e97964220" target="_top" xlink:title="Performs a synchronous update.">
<polygon fill="none" stroke="black" points="465.5,-38.5 465.5,-57.5 572.5,-57.5 572.5,-38.5 465.5,-38.5"/>
<text text-anchor="middle" x="519" y="-45.5" font-family="Helvetica,sans-Serif" font-size="10.00">synchronous_update</text>
</a>
</g>
</g>
<!-- Node22&#45;&gt;Node23 -->
<g id="edge28" class="edge">
<title>Node22&#45;&gt;Node23</title>
<path fill="none" stroke="midnightblue" d="M665.27,-107.1C645.34,-95.31 616.07,-79.05 589,-68 579.3,-64.04 568.54,-60.53 558.45,-57.59"/>
<polygon fill="midnightblue" stroke="midnightblue" points="663.61,-110.19 673.99,-112.33 667.21,-104.19 663.61,-110.19"/>
</g>
<!-- Node24 -->
<g id="node24" class="node">
<title>Node24</title>
<g id="a_node24"><a xlink:href="dgp_8c.html#a91b113eb2798ad1b958d47184ebbf1fb" target="_top" xlink:title="Updates a DGP graph T cycles.">
<polygon fill="none" stroke="black" points="311.5,-38.5 311.5,-57.5 386.5,-57.5 386.5,-38.5 311.5,-38.5"/>
<text text-anchor="middle" x="349" y="-45.5" font-family="Helvetica,sans-Serif" font-size="10.00">graph_update</text>
</a>
</g>
</g>
<!-- Node23&#45;&gt;Node24 -->
<g id="edge29" class="edge">
<title>Node23&#45;&gt;Node24</title>
<path fill="none" stroke="midnightblue" d="M455.21,-48C432.06,-48 406.62,-48 386.55,-48"/>
<polygon fill="midnightblue" stroke="midnightblue" points="455.3,-51.5 465.3,-48 455.3,-44.5 455.3,-51.5"/>
</g>
<!-- Node25 -->
<g id="node25" class="node">
<title>Node25</title>
<g id="a_node25"><a xlink:href="cond__dgp_8c.html#a8bb6fc747fba92c9a717c1b26f5ffca7" target="_top" xlink:title="Calculates whether a dynamical GP graph condition matches an input.">
<polygon fill="none" stroke="black" points="147.5,-57.5 147.5,-76.5 238.5,-76.5 238.5,-57.5 147.5,-57.5"/>
<text text-anchor="middle" x="193" y="-64.5" font-family="Helvetica,sans-Serif" font-size="10.00">cond_dgp_match</text>
</a>
</g>
</g>
<!-- Node24&#45;&gt;Node25 -->
<g id="edge30" class="edge">
<title>Node24&#45;&gt;Node25</title>
<path fill="none" stroke="midnightblue" d="M301.05,-53.79C281.18,-56.24 258.14,-59.09 238.54,-61.5"/>
<polygon fill="midnightblue" stroke="midnightblue" points="301.62,-57.25 311.11,-52.55 300.76,-50.3 301.62,-57.25"/>
</g>
<!-- Node27 -->
<g id="node27" class="node">
<title>Node27</title>
<g id="a_node27"><a xlink:href="rule__dgp_8c.html#a85eb12064cc539b1ec1fea93ee5f5e3e" target="_top" xlink:title=" ">
<polygon fill="none" stroke="black" points="137,-19.5 137,-38.5 249,-38.5 249,-19.5 137,-19.5"/>
<text text-anchor="middle" x="193" y="-26.5" font-family="Helvetica,sans-Serif" font-size="10.00">rule_dgp_cond_match</text>
</a>
</g>
</g>
<!-- Node24&#45;&gt;Node27 -->
<g id="edge32" class="edge">
<title>Node24&#45;&gt;Node27</title>
<path fill="none" stroke="midnightblue" d="M300.76,-42.17C284.48,-40.16 266.11,-37.9 249.26,-35.82"/>
<polygon fill="midnightblue" stroke="midnightblue" points="300.76,-45.7 311.11,-43.45 301.62,-38.75 300.76,-45.7"/>
</g>
<!-- Node26 -->
<g id="node26" class="node">
<title>Node26</title>
<g id="a_node26"><a xlink:href="cond__dgp_8c.html#a585a3476b4473b1b19159a7d55daa6ae" target="_top" xlink:title="Generates a dynamical GP graph that matches the current input.">
<polygon fill="none" stroke="black" points="6.5,-57.5 6.5,-76.5 94.5,-76.5 94.5,-57.5 6.5,-57.5"/>
<text text-anchor="middle" x="50.5" y="-64.5" font-family="Helvetica,sans-Serif" font-size="10.00">cond_dgp_cover</text>
</a>
</g>
</g>
<!-- Node25&#45;&gt;Node26 -->
<g id="edge31" class="edge">
<title>Node25&#45;&gt;Node26</title>
<path fill="none" stroke="midnightblue" d="M137.15,-67C123.15,-67 108.3,-67 94.96,-67"/>
<polygon fill="midnightblue" stroke="midnightblue" points="137.16,-70.5 147.16,-67 137.16,-63.5 137.16,-70.5"/>
</g>
<!-- Node28 -->
<g id="node28" class="node">
<title>Node28</title>
<g id="a_node28"><a xlink:href="rule__dgp_8c.html#ac1f0b0c11b92852e82b00ad7b4bb169f" target="_top" xlink:title=" ">
<polygon fill="none" stroke="black" points="0,-19.5 0,-38.5 101,-38.5 101,-19.5 0,-19.5"/>
<text text-anchor="middle" x="50.5" y="-26.5" font-family="Helvetica,sans-Serif" font-size="10.00">rule_dgp_act_cover</text>
</a>
</g>
</g>
<!-- Node27&#45;&gt;Node28 -->
<g id="edge33" class="edge">
<title>Node27&#45;&gt;Node28</title>
<path fill="none" stroke="midnightblue" d="M126.63,-29C118.16,-29 109.6,-29 101.44,-29"/>
<polygon fill="midnightblue" stroke="midnightblue" points="126.87,-32.5 136.87,-29 126.87,-25.5 126.87,-32.5"/>
</g>
<!-- Node30&#45;&gt;Node2 -->
<g id="edge37" class="edge">
<title>Node30&#45;&gt;Node2</title>
<path fill="none" stroke="midnightblue" d="M672.01,-578.95C644.53,-605.52 593.86,-654.27 589,-657 582.18,-660.84 574.54,-663.94 566.89,-666.44"/>
<polygon fill="midnightblue" stroke="midnightblue" points="674.65,-581.26 679.41,-571.79 669.79,-576.23 674.65,-581.26"/>
</g>
<!-- Node30&#45;&gt;Node3 -->
<g id="edge38" class="edge">
<title>Node30&#45;&gt;Node3</title>
<path fill="none" stroke="midnightblue" d="M648.53,-575.1C640.53,-578.25 632.34,-581.9 625,-586 607.3,-595.87 606.81,-604.32 589,-614 578.3,-619.81 565.92,-624.64 554.63,-628.41"/>
<polygon fill="midnightblue" stroke="midnightblue" points="649.99,-578.29 658.13,-571.51 647.54,-571.73 649.99,-578.29"/>
</g>
<!-- Node30&#45;&gt;Node6 -->
<g id="edge45" class="edge">
<title>Node30&#45;&gt;Node6</title>
<path fill="none" stroke="midnightblue" d="M647.98,-569.89C583.42,-582.45 464.68,-606.82 449,-619 386.4,-667.63 359.28,-767.03 352.07,-798.33"/>
<polygon fill="midnightblue" stroke="midnightblue" points="648.7,-573.32 657.86,-567.98 647.37,-566.44 648.7,-573.32"/>
</g>
<!-- Node30&#45;&gt;Node7 -->
<g id="edge43" class="edge">
<title>Node30&#45;&gt;Node7</title>
<path fill="none" stroke="midnightblue" d="M675.76,-579.83C661.41,-599.17 639.08,-631.38 625,-662 601.56,-712.98 627.5,-742.18 589,-783 585.33,-786.89 581,-790.18 576.34,-792.96"/>
<polygon fill="midnightblue" stroke="midnightblue" points="678.69,-581.77 681.91,-571.67 673.1,-577.55 678.69,-581.77"/>
</g>
<!-- Node30&#45;&gt;Node8 -->
<g id="edge44" class="edge">
<title>Node30&#45;&gt;Node8</title>
<path fill="none" stroke="midnightblue" d="M680.14,-580.43C664.8,-608.88 631.71,-663.49 589,-695 583.87,-698.78 578.12,-702.04 572.17,-704.84"/>
<polygon fill="midnightblue" stroke="midnightblue" points="683.25,-582.02 684.81,-571.54 677.06,-578.76 683.25,-582.02"/>
</g>
<!-- Node30&#45;&gt;Node29 -->
<g id="edge47" class="edge">
<title>Node30&#45;&gt;Node29</title>
<path fill="none" stroke="midnightblue" d="M677.6,-543.77C664.19,-522.91 642.02,-487.57 625,-456 607.26,-423.1 617.46,-404.23 589,-380 582.83,-374.74 575.34,-370.87 567.61,-368.01"/>
<polygon fill="midnightblue" stroke="midnightblue" points="674.73,-545.77 683.1,-552.26 680.61,-541.97 674.73,-545.77"/>
</g>
<!-- Node31 -->
<g id="node31" class="node">
<title>Node31</title>
<g id="a_node31"><a xlink:href="act__integer_8c.html#a9257ecae089153571be215040e75fb7f" target="_top" xlink:title="Mutates an integer action.">
<polygon fill="none" stroke="black" points="469,-552.5 469,-571.5 569,-571.5 569,-552.5 469,-552.5"/>
<text text-anchor="middle" x="519" y="-559.5" font-family="Helvetica,sans-Serif" font-size="10.00">act_integer_mutate</text>
</a>
</g>
</g>
<!-- Node30&#45;&gt;Node31 -->
<g id="edge36" class="edge">
<title>Node30&#45;&gt;Node31</title>
<path fill="none" stroke="midnightblue" d="M647.51,-562C623.75,-562 593.91,-562 569.08,-562"/>
<polygon fill="midnightblue" stroke="midnightblue" points="647.62,-565.5 657.62,-562 647.62,-558.5 647.62,-565.5"/>
</g>
<!-- Node32 -->
<g id="node32" class="node">
<title>Node32</title>
<g id="a_node32"><a xlink:href="cond__ternary_8c.html#a76eeeef8b9d7a232d1f5bf2ff917547a" target="_top" xlink:title="Mutates a ternary condition.">
<polygon fill="none" stroke="black" points="465,-476.5 465,-495.5 573,-495.5 573,-476.5 465,-476.5"/>
<text text-anchor="middle" x="519" y="-483.5" font-family="Helvetica,sans-Serif" font-size="10.00">cond_ternary_mutate</text>
</a>
</g>
</g>
<!-- Node30&#45;&gt;Node32 -->
<g id="edge39" class="edge">
<title>Node30&#45;&gt;Node32</title>
<path fill="none" stroke="midnightblue" d="M666.46,-546.75C646.61,-534.15 616.84,-516.52 589,-505 580.16,-501.34 570.39,-498.17 561.06,-495.51"/>
<polygon fill="midnightblue" stroke="midnightblue" points="664.8,-549.84 675.1,-552.31 668.59,-543.95 664.8,-549.84"/>
</g>
<!-- Node33 -->
<g id="node33" class="node">
<title>Node33</title>
<g id="a_node33"><a xlink:href="dgp_8c.html#af71be7faf77196a067d8e69ac1493ee2" target="_top" xlink:title="Mutates a specified DGP graph.">
<polygon fill="none" stroke="black" points="481,-514.5 481,-533.5 557,-533.5 557,-514.5 481,-514.5"/>
<text text-anchor="middle" x="519" y="-521.5" font-family="Helvetica,sans-Serif" font-size="10.00">graph_mutate</text>
</a>
</g>
</g>
<!-- Node30&#45;&gt;Node33 -->
<g id="edge40" class="edge">
<title>Node30&#45;&gt;Node33</title>
<path fill="none" stroke="midnightblue" d="M647.8,-552.65C620.01,-546.42 583.82,-538.31 557.05,-532.31"/>
<polygon fill="midnightblue" stroke="midnightblue" points="647.09,-556.08 657.62,-554.85 648.63,-549.25 647.09,-556.08"/>
</g>
<!-- Node36 -->
<g id="node36" class="node">
<title>Node36</title>
<g id="a_node36"><a xlink:href="neural__layer__recurrent_8c.html#a5f6793ef0a2d69438a499632e360f9e6" target="_top" xlink:title="Mutates a recurrent layer.">
<polygon fill="none" stroke="black" points="462.5,-389 462.5,-419 575.5,-419 575.5,-389 462.5,-389"/>
<text text-anchor="start" x="470.5" y="-407" font-family="Helvetica,sans-Serif" font-size="10.00">neural_layer_recurrent</text>
<text text-anchor="middle" x="519" y="-396" font-family="Helvetica,sans-Serif" font-size="10.00">_mutate</text>
</a>
</g>
</g>
<!-- Node30&#45;&gt;Node36 -->
<g id="edge46" class="edge">
<title>Node30&#45;&gt;Node36</title>
<path fill="none" stroke="midnightblue" d="M680.14,-543.57C664.8,-515.12 631.71,-460.51 589,-429 583.87,-425.22 578.12,-421.96 572.17,-419.16"/>
<polygon fill="midnightblue" stroke="midnightblue" points="677.06,-545.24 684.81,-552.46 683.25,-541.98 677.06,-545.24"/>
</g>
<!-- Node37 -->
<g id="node37" class="node">
<title>Node37</title>
<g id="a_node37"><a xlink:href="gp_8c.html#ac3437c50150dcb9aa715b664d7cf54ac" target="_top" xlink:title="Performs point mutation on a GP tree.">
<polygon fill="none" stroke="black" points="485,-438.5 485,-457.5 553,-457.5 553,-438.5 485,-438.5"/>
<text text-anchor="middle" x="519" y="-445.5" font-family="Helvetica,sans-Serif" font-size="10.00">tree_mutate</text>
</a>
</g>
</g>
<!-- Node30&#45;&gt;Node37 -->
<g id="edge48" class="edge">
<title>Node30&#45;&gt;Node37</title>
<path fill="none" stroke="midnightblue" d="M675.57,-544.34C657.74,-522.93 624.85,-487.2 589,-467 578.07,-460.84 565.02,-456.58 553.23,-453.69"/>
<polygon fill="midnightblue" stroke="midnightblue" points="673.02,-546.76 682.05,-552.3 678.45,-542.34 673.02,-546.76"/>
</g>
<!-- Node34 -->
<g id="node34" class="node">
<title>Node34</title>
<g id="a_node34"><a xlink:href="cond__dgp_8c.html#a8c6aa1ea69d87295dec888622f6d4577" target="_top" xlink:title="Mutates a dynamical GP graph condition with the self&#45;adaptive rates.">
<polygon fill="none" stroke="black" points="302,-533.5 302,-552.5 396,-552.5 396,-533.5 302,-533.5"/>
<text text-anchor="middle" x="349" y="-540.5" font-family="Helvetica,sans-Serif" font-size="10.00">cond_dgp_mutate</text>
</a>
</g>
</g>
<!-- Node33&#45;&gt;Node34 -->
<g id="edge41" class="edge">
<title>Node33&#45;&gt;Node34</title>
<path fill="none" stroke="midnightblue" d="M470.7,-529.35C447.37,-531.99 419.35,-535.16 396.18,-537.78"/>
<polygon fill="midnightblue" stroke="midnightblue" points="471.17,-532.82 480.72,-528.22 470.39,-525.86 471.17,-532.82"/>
</g>
<!-- Node35 -->
<g id="node35" class="node">
<title>Node35</title>
<g id="a_node35"><a xlink:href="rule__dgp_8c.html#a399e362d298b510125264e2fdfaaf6b6" target="_top" xlink:title=" ">
<polygon fill="none" stroke="black" points="291.5,-495.5 291.5,-514.5 406.5,-514.5 406.5,-495.5 291.5,-495.5"/>
<text text-anchor="middle" x="349" y="-502.5" font-family="Helvetica,sans-Serif" font-size="10.00">rule_dgp_cond_mutate</text>
</a>
</g>
</g>
<!-- Node33&#45;&gt;Node35 -->
<g id="edge42" class="edge">
<title>Node33&#45;&gt;Node35</title>
<path fill="none" stroke="midnightblue" d="M470.66,-518.65C450.77,-516.4 427.46,-513.76 406.67,-511.41"/>
<polygon fill="midnightblue" stroke="midnightblue" points="470.39,-522.14 480.72,-519.78 471.17,-515.18 470.39,-522.14"/>
</g>
<!-- Node38 -->
<g id="node38" class="node">
<title>Node38</title>
<g id="a_node38"><a xlink:href="cond__gp_8c.html#a6fb9386b300b406ecfb08f8a9a97c077" target="_top" xlink:title="Mutates a tree&#45;GP condition with the self&#45;adaptive rate.">
<polygon fill="none" stroke="black" points="304.5,-438.5 304.5,-457.5 393.5,-457.5 393.5,-438.5 304.5,-438.5"/>
<text text-anchor="middle" x="349" y="-445.5" font-family="Helvetica,sans-Serif" font-size="10.00">cond_gp_mutate</text>
</a>
</g>
</g>
<!-- Node37&#45;&gt;Node38 -->
<g id="edge49" class="edge">
<title>Node37&#45;&gt;Node38</title>
<path fill="none" stroke="midnightblue" d="M474.56,-448C449.68,-448 418.55,-448 393.63,-448"/>
<polygon fill="midnightblue" stroke="midnightblue" points="474.81,-451.5 484.81,-448 474.81,-444.5 474.81,-451.5"/>
</g>
<!-- Node40 -->
<g id="node40" class="node">
<title>Node40</title>
<g id="a_node40"><a xlink:href="cond__gp_8c.html#a9f417a6e9cdf49ef3ed1ad19be29b63d" target="_top" xlink:title="Calculates whether a GP tree condition matches an input.">
<polygon fill="none" stroke="black" points="476,-0.5 476,-19.5 562,-19.5 562,-0.5 476,-0.5"/>
<text text-anchor="middle" x="519" y="-7.5" font-family="Helvetica,sans-Serif" font-size="10.00">cond_gp_match</text>
</a>
</g>
</g>
<!-- Node39&#45;&gt;Node40 -->
<g id="edge51" class="edge">
<title>Node39&#45;&gt;Node40</title>
<path fill="none" stroke="midnightblue" d="M652.19,-29.5C625.56,-25.57 589.71,-20.28 562.06,-16.2"/>
<polygon fill="midnightblue" stroke="midnightblue" points="651.86,-32.99 662.27,-30.98 652.88,-26.06 651.86,-32.99"/>
</g>
<!-- Node41 -->
<g id="node41" class="node">
<title>Node41</title>
<g id="a_node41"><a xlink:href="cond__gp_8c.html#a1e740f931fc856fd7310874c7bf88195" target="_top" xlink:title="Generates a GP tree that matches the current input.">
<polygon fill="none" stroke="black" points="307.5,-0.5 307.5,-19.5 390.5,-19.5 390.5,-0.5 307.5,-0.5"/>
<text text-anchor="middle" x="349" y="-7.5" font-family="Helvetica,sans-Serif" font-size="10.00">cond_gp_cover</text>
</a>
</g>
</g>
<!-- Node40&#45;&gt;Node41 -->
<g id="edge52" class="edge">
<title>Node40&#45;&gt;Node41</title>
<path fill="none" stroke="midnightblue" d="M465.53,-10C441.37,-10 413.15,-10 390.64,-10"/>
<polygon fill="midnightblue" stroke="midnightblue" points="465.61,-13.5 475.61,-10 465.61,-6.5 465.61,-13.5"/>
</g>
</g>
</svg>
