<?xml version="1.0" encoding="UTF-8" standalone="no"?>
<!DOCTYPE svg PUBLIC "-//W3C//DTD SVG 1.1//EN"
 "http://www.w3.org/Graphics/SVG/1.1/DTD/svg11.dtd">
<!-- Generated by graphviz version 2.43.0 (0)
 -->
<!-- Title: clamp_int Pages: 1 -->
<svg width="376pt" height="66pt"
 viewBox="0.00 0.00 376.00 66.00" xmlns="http://www.w3.org/2000/svg" xmlns:xlink="http://www.w3.org/1999/xlink">
<g id="graph0" class="graph" transform="scale(1 1) rotate(0) translate(4 62)">
<title>clamp_int</title>
<!-- Node1 -->
<g id="node1" class="node">
<title>Node1</title>
<g id="a_node1"><a xlink:title="Returns an integer clamped within the specified range.">
<polygon fill="#bfbfbf" stroke="black" points="309,-19.5 309,-38.5 368,-38.5 368,-19.5 309,-19.5"/>
<text text-anchor="middle" x="338.5" y="-26.5" font-family="Helvetica,sans-Serif" font-size="10.00">clamp_int</text>
</a>
</g>
</g>
<!-- Node2 -->
<g id="node2" class="node">
<title>Node2</title>
<g id="a_node2"><a xlink:href="rule__dgp_8c.html#ad20d1e81deeb95357c02154547c1669e" target="_top" xlink:title=" ">
<polygon fill="none" stroke="black" points="153,-38.5 153,-57.5 268,-57.5 268,-38.5 153,-38.5"/>
<text text-anchor="middle" x="210.5" y="-45.5" font-family="Helvetica,sans-Serif" font-size="10.00">rule_dgp_act_compute</text>
</a>
</g>
</g>
<!-- Node1&#45;&gt;Node2 -->
<g id="edge1" class="edge">
<title>Node1&#45;&gt;Node2</title>
<path fill="none" stroke="midnightblue" d="M298.78,-34.84C289.07,-36.3 278.45,-37.9 268.06,-39.47"/>
<polygon fill="midnightblue" stroke="midnightblue" points="299.54,-38.26 308.91,-33.31 298.5,-31.34 299.54,-38.26"/>
</g>
<!-- Node4 -->
<g id="node4" class="node">
<title>Node4</title>
<g id="a_node4"><a xlink:href="rule__neural_8c.html#ad1efaff17fedd6badb97970589715d8f" target="_top" xlink:title=" ">
<polygon fill="none" stroke="black" points="148,-0.5 148,-19.5 273,-19.5 273,-0.5 148,-0.5"/>
<text text-anchor="middle" x="210.5" y="-7.5" font-family="Helvetica,sans-Serif" font-size="10.00">rule_neural_act_compute</text>
</a>
</g>
</g>
<!-- Node1&#45;&gt;Node4 -->
<g id="edge3" class="edge">
<title>Node1&#45;&gt;Node4</title>
<path fill="none" stroke="midnightblue" d="M298.95,-23.19C290.78,-21.95 281.95,-20.62 273.16,-19.3"/>
<polygon fill="midnightblue" stroke="midnightblue" points="298.5,-26.66 308.91,-24.69 299.54,-19.74 298.5,-26.66"/>
</g>
<!-- Node3 -->
<g id="node3" class="node">
<title>Node3</title>
<g id="a_node3"><a xlink:href="rule__dgp_8c.html#ac1f0b0c11b92852e82b00ad7b4bb169f" target="_top" xlink:title=" ">
<polygon fill="none" stroke="black" points="5.5,-38.5 5.5,-57.5 106.5,-57.5 106.5,-38.5 5.5,-38.5"/>
<text text-anchor="middle" x="56" y="-45.5" font-family="Helvetica,sans-Serif" font-size="10.00">rule_dgp_act_cover</text>
</a>
</g>
</g>
<!-- Node2&#45;&gt;Node3 -->
<g id="edge2" class="edge">
<title>Node2&#45;&gt;Node3</title>
<path fill="none" stroke="midnightblue" d="M142.69,-48C130.64,-48 118.27,-48 106.81,-48"/>
<polygon fill="midnightblue" stroke="midnightblue" points="142.71,-51.5 152.71,-48 142.71,-44.5 142.71,-51.5"/>
</g>
<!-- Node5 -->
<g id="node5" class="node">
<title>Node5</title>
<g id="a_node5"><a xlink:href="rule__neural_8c.html#aea01f5493b0dbc37383421cae4f873ca" target="_top" xlink:title=" ">
<polygon fill="none" stroke="black" points="0,-0.5 0,-19.5 112,-19.5 112,-0.5 0,-0.5"/>
<text text-anchor="middle" x="56" y="-7.5" font-family="Helvetica,sans-Serif" font-size="10.00">rule_neural_act_cover</text>
</a>
</g>
</g>
<!-- Node4&#45;&gt;Node5 -->
<g id="edge4" class="edge">
<title>Node4&#45;&gt;Node5</title>
<path fill="none" stroke="midnightblue" d="M137.64,-10C129.17,-10 120.62,-10 112.42,-10"/>
<polygon fill="midnightblue" stroke="midnightblue" points="137.91,-13.5 147.91,-10 137.91,-6.5 137.91,-13.5"/>
</g>
</g>
</svg>
