<?xml version="1.0" encoding="UTF-8" standalone="no"?>
<!DOCTYPE svg PUBLIC "-//W3C//DTD SVG 1.1//EN"
 "http://www.w3.org/Graphics/SVG/1.1/DTD/svg11.dtd">
<!-- Generated by graphviz version 2.43.0 (0)
 -->
<!-- Title: xcs_supervised_score Pages: 1 -->
<svg width="387pt" height="47pt"
 viewBox="0.00 0.00 387.00 47.00" xmlns="http://www.w3.org/2000/svg" xmlns:xlink="http://www.w3.org/1999/xlink">
<g id="graph0" class="graph" transform="scale(1 1) rotate(0) translate(4 43)">
<title>xcs_supervised_score</title>
<!-- Node1 -->
<g id="node1" class="node">
<title>Node1</title>
<g id="a_node1"><a xlink:title="Calculates the XCSF error for the input data.">
<polygon fill="#bfbfbf" stroke="black" points="265,-19.5 265,-38.5 379,-38.5 379,-19.5 265,-19.5"/>
<text text-anchor="middle" x="322" y="-26.5" font-family="Helvetica,sans-Serif" font-size="10.00">xcs_supervised_score</text>
</a>
</g>
</g>
<!-- Node2 -->
<g id="node2" class="node">
<title>Node2</title>
<g id="a_node2"><a xlink:href="classXCS.html#a4bb9f3f8613abf7ba95837a03bbb931d" target="_top" xlink:title="Returns the error using N random samples from the provided data.">
<polygon fill="none" stroke="black" points="0,-19.5 0,-38.5 68,-38.5 68,-19.5 0,-19.5"/>
<text text-anchor="middle" x="34" y="-26.5" font-family="Helvetica,sans-Serif" font-size="10.00">XCS::score</text>
</a>
</g>
</g>
<!-- Node1&#45;&gt;Node2 -->
<g id="edge1" class="edge">
<title>Node1&#45;&gt;Node2</title>
<path fill="none" stroke="midnightblue" d="M254.6,-29C196.23,-29 113.71,-29 68.26,-29"/>
<polygon fill="midnightblue" stroke="midnightblue" points="254.84,-32.5 264.84,-29 254.84,-25.5 254.84,-32.5"/>
</g>
<!-- Node3 -->
<g id="node3" class="node">
<title>Node3</title>
<g id="a_node3"><a xlink:href="xcs__supervised_8h.html#a56ec80025279785376a569ec0130c29f" target="_top" xlink:title="Calculates the XCSF error for a subsample of the input data.">
<polygon fill="none" stroke="black" points="104,-0.5 104,-19.5 229,-19.5 229,-0.5 104,-0.5"/>
<text text-anchor="middle" x="166.5" y="-7.5" font-family="Helvetica,sans-Serif" font-size="10.00">xcs_supervised_score_n</text>
</a>
</g>
</g>
<!-- Node1&#45;&gt;Node3 -->
<g id="edge2" class="edge">
<title>Node1&#45;&gt;Node3</title>
<path fill="none" stroke="midnightblue" d="M254.56,-20.78C246.14,-19.73 237.55,-18.67 229.21,-17.64"/>
<polygon fill="midnightblue" stroke="midnightblue" points="254.36,-24.28 264.71,-22.03 255.22,-17.33 254.36,-24.28"/>
</g>
<!-- Node3&#45;&gt;Node2 -->
<g id="edge3" class="edge">
<title>Node3&#45;&gt;Node2</title>
<path fill="none" stroke="midnightblue" d="M93.64,-20.46C84.76,-21.75 76.06,-23.02 68.18,-24.17"/>
<polygon fill="midnightblue" stroke="midnightblue" points="94.3,-23.9 103.69,-19 93.29,-16.98 94.3,-23.9"/>
</g>
</g>
</svg>
