<?xml version="1.0" encoding="UTF-8" standalone="no"?>
<!DOCTYPE svg PUBLIC "-//W3C//DTD SVG 1.1//EN"
 "http://www.w3.org/Graphics/SVG/1.1/DTD/svg11.dtd">
<!-- Generated by graphviz version 2.43.0 (0)
 -->
<!-- Title: xcs_rl_end_step Pages: 1 -->
<svg width="191pt" height="66pt"
 viewBox="0.00 0.00 191.00 66.00" xmlns="http://www.w3.org/2000/svg" xmlns:xlink="http://www.w3.org/1999/xlink">
<g id="graph0" class="graph" transform="scale(1 1) rotate(0) translate(4 62)">
<title>xcs_rl_end_step</title>
<!-- Node1 -->
<g id="node1" class="node">
<title>Node1</title>
<g id="a_node1"><a xlink:title="Ends a step in a reinforcement learning trial.">
<polygon fill="#bfbfbf" stroke="black" points="0,-19.5 0,-38.5 88,-38.5 88,-19.5 0,-19.5"/>
<text text-anchor="middle" x="44" y="-26.5" font-family="Helvetica,sans-Serif" font-size="10.00">xcs_rl_end_step</text>
</a>
</g>
</g>
<!-- Node2 -->
<g id="node2" class="node">
<title>Node2</title>
<g id="a_node2"><a xlink:href="clset_8c.html#ae5d75dfda0a2d2bb81386ccf08a1b5de" target="_top" xlink:title="Frees the set, but not the classifiers.">
<polygon fill="none" stroke="black" points="124,-38.5 124,-57.5 183,-57.5 183,-38.5 124,-38.5"/>
<text text-anchor="middle" x="153.5" y="-45.5" font-family="Helvetica,sans-Serif" font-size="10.00">clset_free</text>
</a>
</g>
</g>
<!-- Node1&#45;&gt;Node2 -->
<g id="edge1" class="edge">
<title>Node1&#45;&gt;Node2</title>
<path fill="none" stroke="midnightblue" d="M88.1,-36.62C96.66,-38.13 105.59,-39.71 113.98,-41.19"/>
<polygon fill="midnightblue" stroke="midnightblue" points="113.43,-44.65 123.88,-42.94 114.65,-37.76 113.43,-44.65"/>
</g>
<!-- Node3 -->
<g id="node3" class="node">
<title>Node3</title>
<g id="a_node3"><a xlink:href="pa_8c.html#a8fad4c2dc045d99e9715f7a0cbb2a5e6" target="_top" xlink:title="Returns the value of a specified action in the prediction array.">
<polygon fill="none" stroke="black" points="131,-0.5 131,-19.5 176,-19.5 176,-0.5 131,-0.5"/>
<text text-anchor="middle" x="153.5" y="-7.5" font-family="Helvetica,sans-Serif" font-size="10.00">pa_val</text>
</a>
</g>
</g>
<!-- Node1&#45;&gt;Node3 -->
<g id="edge2" class="edge">
<title>Node1&#45;&gt;Node3</title>
<path fill="none" stroke="midnightblue" d="M88.1,-21.38C99.03,-19.45 110.57,-17.41 120.81,-15.6"/>
<polygon fill="midnightblue" stroke="midnightblue" points="121.7,-19 130.94,-13.81 120.48,-12.11 121.7,-19"/>
</g>
</g>
</svg>
