<?xml version="1.0" encoding="UTF-8" standalone="no"?>
<!DOCTYPE svg PUBLIC "-//W3C//DTD SVG 1.1//EN"
 "http://www.w3.org/Graphics/SVG/1.1/DTD/svg11.dtd">
<!-- Generated by graphviz version 2.43.0 (0)
 -->
<!-- Title: xcs_supervised_trial Pages: 1 -->
<svg width="688pt" height="159pt"
 viewBox="0.00 0.00 688.00 159.00" xmlns="http://www.w3.org/2000/svg" xmlns:xlink="http://www.w3.org/1999/xlink">
<g id="graph0" class="graph" transform="scale(1 1) rotate(0) translate(4 155)">
<title>xcs_supervised_trial</title>
<!-- Node1 -->
<g id="Node000001" class="node">
<title>Node1</title>
<g id="a_Node000001"><a xlink:title="Executes a single XCSF trial.">
<polygon fill="#999999" stroke="#666666" points="680,-76 574,-76 574,-57 680,-57 680,-76"/>
<text text-anchor="middle" x="627" y="-64" font-family="Helvetica,sans-Serif" font-size="10.00">xcs_supervised_trial</text>
</a>
</g>
</g>
<!-- Node2 -->
<g id="Node000002" class="node">
<title>Node2</title>
<g id="a_Node000002"><a xlink:href="xcs__supervised_8c.html#a4b67d2351436bfb520f5707260420f8c" target="_top" xlink:title="Executes MAX_TRIALS number of XCSF learning iterations using the training data and test iterations us...">
<polygon fill="white" stroke="#666666" points="527.5,-95 429.5,-95 429.5,-76 527.5,-76 527.5,-95"/>
<text text-anchor="middle" x="478.5" y="-83" font-family="Helvetica,sans-Serif" font-size="10.00">xcs_supervised_fit</text>
</a>
</g>
</g>
<!-- Node1&#45;&gt;Node2 -->
<g id="edge1_Node000001_Node000002" class="edge">
<title>Node1&#45;&gt;Node2</title>
<g id="a_edge1_Node000001_Node000002"><a xlink:title=" ">
<path fill="none" stroke="#63b8ff" d="M563.96,-74.55C551.93,-76.11 539.48,-77.72 527.97,-79.21"/>
<polygon fill="#63b8ff" stroke="#63b8ff" points="564.47,-78.01 573.94,-73.25 563.57,-71.07 564.47,-78.01"/>
</a>
</g>
</g>
<!-- Node5 -->
<g id="Node000005" class="node">
<title>Node5</title>
<g id="a_Node000005"><a xlink:href="xcs__supervised_8c.html#ae4791c1daf0baaa6615f70332657aadb" target="_top" xlink:title="Calculates the XCSF predictions for the provided input.">
<polygon fill="white" stroke="#666666" points="538,-151 419,-151 419,-132 538,-132 538,-151"/>
<text text-anchor="middle" x="478.5" y="-139" font-family="Helvetica,sans-Serif" font-size="10.00">xcs_supervised_predict</text>
</a>
</g>
</g>
<!-- Node1&#45;&gt;Node5 -->
<g id="edge4_Node000001_Node000005" class="edge">
<title>Node1&#45;&gt;Node5</title>
<g id="a_edge4_Node000001_Node000005"><a xlink:title=" ">
<path fill="none" stroke="#63b8ff" d="M597.87,-80.9C568.58,-95.9 523.52,-118.97 498.28,-131.89"/>
<polygon fill="#63b8ff" stroke="#63b8ff" points="599.84,-83.82 607.15,-76.15 596.65,-77.59 599.84,-83.82"/>
</a>
</g>
</g>
<!-- Node8 -->
<g id="Node000008" class="node">
<title>Node8</title>
<g id="a_Node000008"><a xlink:href="xcs__supervised_8c.html#a535e3dbbf0f80e64a4e9b1c700e51f40" target="_top" xlink:title="Calculates the XCSF error for the input data.">
<polygon fill="white" stroke="#666666" points="535.5,-57 421.5,-57 421.5,-38 535.5,-38 535.5,-57"/>
<text text-anchor="middle" x="478.5" y="-45" font-family="Helvetica,sans-Serif" font-size="10.00">xcs_supervised_score</text>
</a>
</g>
</g>
<!-- Node1&#45;&gt;Node8 -->
<g id="edge7_Node000001_Node000008" class="edge">
<title>Node1&#45;&gt;Node8</title>
<g id="a_edge7_Node000001_Node000008"><a xlink:title=" ">
<path fill="none" stroke="#63b8ff" d="M563.88,-58.44C554.5,-57.23 544.87,-55.98 535.62,-54.78"/>
<polygon fill="#63b8ff" stroke="#63b8ff" points="563.57,-61.93 573.94,-59.75 564.47,-54.99 563.57,-61.93"/>
</a>
</g>
</g>
<!-- Node10 -->
<g id="Node000010" class="node">
<title>Node10</title>
<g id="a_Node000010"><a xlink:href="xcs__supervised_8c.html#a9ab2bb39625aea84c716901a95a4326e" target="_top" xlink:title="Calculates the XCSF error for a subsample of the input data.">
<polygon fill="white" stroke="#666666" points="383,-19 258,-19 258,0 383,0 383,-19"/>
<text text-anchor="middle" x="320.5" y="-7" font-family="Helvetica,sans-Serif" font-size="10.00">xcs_supervised_score_n</text>
</a>
</g>
</g>
<!-- Node1&#45;&gt;Node10 -->
<g id="edge13_Node000001_Node000010" class="edge">
<title>Node1&#45;&gt;Node10</title>
<g id="a_edge13_Node000001_Node000010"><a xlink:title=" ">
<path fill="none" stroke="#63b8ff" d="M599.08,-52.19C582.05,-43.83 559.31,-33.89 538,-28.5 486.79,-15.55 426.84,-11.09 383.03,-9.69"/>
<polygon fill="#63b8ff" stroke="#63b8ff" points="597.89,-55.51 608.39,-56.89 601.04,-49.26 597.89,-55.51"/>
</a>
</g>
</g>
<!-- Node3 -->
<g id="Node000003" class="node">
<title>Node3</title>
<g id="a_Node000003"><a xlink:href="classXCS.html#ae71d09f1e1346353163fc9d8ffb430af" target="_top" xlink:title="Executes MAX_TRIALS number of XCSF learning iterations using the provided training data.">
<polygon fill="white" stroke="#666666" points="346.5,-95 294.5,-95 294.5,-76 346.5,-76 346.5,-95"/>
<text text-anchor="middle" x="320.5" y="-83" font-family="Helvetica,sans-Serif" font-size="10.00">XCS::fit</text>
</a>
</g>
</g>
<!-- Node2&#45;&gt;Node3 -->
<g id="edge2_Node000002_Node000003" class="edge">
<title>Node2&#45;&gt;Node3</title>
<g id="a_edge2_Node000002_Node000003"><a xlink:title=" ">
<path fill="none" stroke="#63b8ff" d="M419.24,-85.5C394.15,-85.5 366.13,-85.5 346.55,-85.5"/>
<polygon fill="#63b8ff" stroke="#63b8ff" points="419.42,-89 429.42,-85.5 419.42,-82 419.42,-89"/>
</a>
</g>
</g>
<!-- Node4 -->
<g id="Node000004" class="node">
<title>Node4</title>
<g id="a_Node000004"><a xlink:href="main_8c.html#a3c04138a5bfe5d72780bb7e82a18e627" target="_top" xlink:title=" ">
<polygon fill="white" stroke="#666666" points="339.5,-132 301.5,-132 301.5,-113 339.5,-113 339.5,-132"/>
<text text-anchor="middle" x="320.5" y="-120" font-family="Helvetica,sans-Serif" font-size="10.00">main</text>
</a>
</g>
</g>
<!-- Node2&#45;&gt;Node4 -->
<g id="edge3_Node000002_Node000004" class="edge">
<title>Node2&#45;&gt;Node4</title>
<g id="a_edge3_Node000002_Node000004"><a xlink:title=" ">
<path fill="none" stroke="#63b8ff" d="M427.45,-97.37C397.52,-104.47 361.27,-113.07 339.87,-118.14"/>
<polygon fill="#63b8ff" stroke="#63b8ff" points="428.4,-100.74 437.33,-95.03 426.79,-93.93 428.4,-100.74"/>
</a>
</g>
</g>
<!-- Node6 -->
<g id="Node000006" class="node">
<title>Node6</title>
<g id="a_Node000006"><a xlink:href="classXCS.html#a562cb81d9627e7dbcfdb0dc05ec2e3f0" target="_top" xlink:title="Returns the XCSF prediction array for the provided input.">
<polygon fill="white" stroke="#666666" points="222,-132 149,-132 149,-113 222,-113 222,-132"/>
<text text-anchor="middle" x="185.5" y="-120" font-family="Helvetica,sans-Serif" font-size="10.00">XCS::predict</text>
</a>
</g>
</g>
<!-- Node5&#45;&gt;Node6 -->
<g id="edge5_Node000005_Node000006" class="edge">
<title>Node5&#45;&gt;Node6</title>
<g id="a_edge5_Node000005_Node000006"><a xlink:title=" ">
<path fill="none" stroke="#63b8ff" d="M408.38,-146.07C365.01,-147.81 308.02,-148.03 258,-141.5 243.74,-139.64 228.27,-135.77 215.38,-132"/>
<polygon fill="#63b8ff" stroke="#63b8ff" points="408.7,-149.56 418.54,-145.62 408.39,-142.57 408.7,-149.56"/>
</a>
</g>
</g>
<!-- Node7 -->
<g id="Node000007" class="node">
<title>Node7</title>
<g id="a_Node000007"><a xlink:href="pybind__wrapper_8cpp.html#a172daba0778fe2bd38d723d5f52a23d5" target="_top" xlink:title=" ">
<polygon fill="white" stroke="#666666" points="113,-75 0,-75 0,-56 113,-56 113,-75"/>
<text text-anchor="middle" x="56.5" y="-63" font-family="Helvetica,sans-Serif" font-size="10.00">PYBIND11_MODULE</text>
</a>
</g>
</g>
<!-- Node6&#45;&gt;Node7 -->
<g id="edge6_Node000006_Node000007" class="edge">
<title>Node6&#45;&gt;Node7</title>
<g id="a_edge6_Node000006_Node000007"><a xlink:title=" ">
<path fill="none" stroke="#63b8ff" d="M153.85,-108.74C130.64,-98.33 99.36,-84.29 78.83,-75.07"/>
<polygon fill="#63b8ff" stroke="#63b8ff" points="152.69,-112.06 163.24,-112.96 155.55,-105.67 152.69,-112.06"/>
</a>
</g>
</g>
<!-- Node8&#45;&gt;Node3 -->
<g id="edge8_Node000008_Node000003" class="edge">
<title>Node8&#45;&gt;Node3</title>
<g id="a_edge8_Node000008_Node000003"><a xlink:title=" ">
<path fill="none" stroke="#63b8ff" d="M428.41,-59.46C401.27,-66.07 368.69,-74.01 346.68,-79.37"/>
<polygon fill="#63b8ff" stroke="#63b8ff" points="429.25,-62.86 438.13,-57.09 427.59,-56.06 429.25,-62.86"/>
</a>
</g>
</g>
<!-- Node9 -->
<g id="Node000009" class="node">
<title>Node9</title>
<g id="a_Node000009"><a xlink:href="classXCS.html#a2aeb9df5550b79ea97a725e83ef64005" target="_top" xlink:title="Returns the error using N random samples from the provided data.">
<polygon fill="white" stroke="#666666" points="219.5,-57 151.5,-57 151.5,-38 219.5,-38 219.5,-57"/>
<text text-anchor="middle" x="185.5" y="-45" font-family="Helvetica,sans-Serif" font-size="10.00">XCS::score</text>
</a>
</g>
</g>
<!-- Node8&#45;&gt;Node9 -->
<g id="edge9_Node000008_Node000009" class="edge">
<title>Node8&#45;&gt;Node9</title>
<g id="a_edge9_Node000008_Node000009"><a xlink:title=" ">
<path fill="none" stroke="#63b8ff" d="M411.3,-47.5C351.6,-47.5 266.25,-47.5 219.78,-47.5"/>
<polygon fill="#63b8ff" stroke="#63b8ff" points="411.39,-51 421.39,-47.5 411.39,-44 411.39,-51"/>
</a>
</g>
</g>
<!-- Node8&#45;&gt;Node10 -->
<g id="edge11_Node000008_Node000010" class="edge">
<title>Node8&#45;&gt;Node10</title>
<g id="a_edge11_Node000008_Node000010"><a xlink:title=" ">
<path fill="none" stroke="#63b8ff" d="M428.37,-35.53C406.51,-30.21 381.12,-24.02 360.58,-19.02"/>
<polygon fill="#63b8ff" stroke="#63b8ff" points="427.59,-38.94 438.13,-37.91 429.25,-32.14 427.59,-38.94"/>
</a>
</g>
</g>
<!-- Node9&#45;&gt;Node7 -->
<g id="edge10_Node000009_Node000007" class="edge">
<title>Node9&#45;&gt;Node7</title>
<g id="a_edge10_Node000009_Node000007"><a xlink:title=" ">
<path fill="none" stroke="#63b8ff" d="M141.29,-53.62C132.35,-54.89 122.81,-56.24 113.49,-57.56"/>
<polygon fill="#63b8ff" stroke="#63b8ff" points="142.05,-57.05 151.46,-52.18 141.07,-50.12 142.05,-57.05"/>
</a>
</g>
</g>
<!-- Node10&#45;&gt;Node9 -->
<g id="edge12_Node000010_Node000009" class="edge">
<title>Node10&#45;&gt;Node9</title>
<g id="a_edge12_Node000010_Node000009"><a xlink:title=" ">
<path fill="none" stroke="#63b8ff" d="M276.31,-21.84C257.89,-27.1 236.74,-33.15 219.59,-38.05"/>
<polygon fill="#63b8ff" stroke="#63b8ff" points="277.28,-25.2 285.94,-19.09 275.36,-18.47 277.28,-25.2"/>
</a>
</g>
</g>
</g>
</svg>
