<?xml version="1.0" encoding="UTF-8" standalone="no"?>
<!DOCTYPE svg PUBLIC "-//W3C//DTD SVG 1.1//EN"
 "http://www.w3.org/Graphics/SVG/1.1/DTD/svg11.dtd">
<!-- Generated by graphviz version 2.43.0 (0)
 -->
<!-- Title: xcs_supervised.c Pages: 1 -->
<svg width="857pt" height="308pt"
 viewBox="0.00 0.00 856.80 308.00" xmlns="http://www.w3.org/2000/svg" xmlns:xlink="http://www.w3.org/1999/xlink">
<g id="graph0" class="graph" transform="scale(1 1) rotate(0) translate(4 304)">
<title>xcs_supervised.c</title>
<!-- Node1 -->
<g id="node1" class="node">
<title>Node1</title>
<g id="a_node1"><a xlink:title="Supervised regression learning functions.">
<polygon fill="#bfbfbf" stroke="black" points="325.3,-280.5 325.3,-299.5 418.3,-299.5 418.3,-280.5 325.3,-280.5"/>
<text text-anchor="middle" x="371.8" y="-287.5" font-family="Helvetica,sans-Serif" font-size="10.00">xcs_supervised.c</text>
</a>
</g>
</g>
<!-- Node2 -->
<g id="node2" class="node">
<title>Node2</title>
<g id="a_node2"><a xlink:href="xcs__supervised_8h.html" target="_top" xlink:title="Supervised regression learning functions.">
<polygon fill="none" stroke="black" points="401.3,-168.5 401.3,-187.5 494.3,-187.5 494.3,-168.5 401.3,-168.5"/>
<text text-anchor="middle" x="447.8" y="-175.5" font-family="Helvetica,sans-Serif" font-size="10.00">xcs_supervised.h</text>
</a>
</g>
</g>
<!-- Node1&#45;&gt;Node2 -->
<g id="edge1" class="edge">
<title>Node1&#45;&gt;Node2</title>
<path fill="none" stroke="midnightblue" d="M387.92,-280.41C401.07,-272.6 419.15,-259.88 429.8,-244 439.07,-230.17 443.59,-211.65 445.79,-197.92"/>
<polygon fill="midnightblue" stroke="midnightblue" points="449.29,-198.09 447.13,-187.72 442.35,-197.17 449.29,-198.09"/>
</g>
<!-- Node4 -->
<g id="node4" class="node">
<title>Node4</title>
<g id="a_node4"><a xlink:href="utils_8h.html" target="_top" xlink:title="Utility functions for random number handling, etc.">
<polygon fill="none" stroke="black" points="576.3,-56.5 576.3,-75.5 619.3,-75.5 619.3,-56.5 576.3,-56.5"/>
<text text-anchor="middle" x="597.8" y="-63.5" font-family="Helvetica,sans-Serif" font-size="10.00">utils.h</text>
</a>
</g>
</g>
<!-- Node1&#45;&gt;Node4 -->
<g id="edge32" class="edge">
<title>Node1&#45;&gt;Node4</title>
<path fill="none" stroke="midnightblue" d="M409.42,-280.41C454.53,-268.04 528.92,-240.66 567.8,-188 590.54,-157.2 596.18,-111.18 597.49,-85.69"/>
<polygon fill="midnightblue" stroke="midnightblue" points="600.99,-85.67 597.83,-75.55 594,-85.43 600.99,-85.67"/>
</g>
<!-- Node17 -->
<g id="node17" class="node">
<title>Node17</title>
<g id="a_node17"><a xlink:href="clset_8h.html" target="_top" xlink:title="Functions operating on sets of classifiers.">
<polygon fill="none" stroke="black" points="512.8,-168.5 512.8,-187.5 558.8,-187.5 558.8,-168.5 512.8,-168.5"/>
<text text-anchor="middle" x="535.8" y="-175.5" font-family="Helvetica,sans-Serif" font-size="10.00">clset.h</text>
</a>
</g>
</g>
<!-- Node1&#45;&gt;Node17 -->
<g id="edge19" class="edge">
<title>Node1&#45;&gt;Node17</title>
<path fill="none" stroke="midnightblue" d="M387.22,-280.48C402.77,-271.74 427.35,-257.56 447.8,-244 472.2,-227.82 499.12,-207.56 516.68,-194"/>
<polygon fill="midnightblue" stroke="midnightblue" points="519.2,-196.48 524.94,-187.58 514.9,-190.95 519.2,-196.48"/>
</g>
<!-- Node18 -->
<g id="node18" class="node">
<title>Node18</title>
<g id="a_node18"><a xlink:href="ea_8h.html" target="_top" xlink:title="Evolutionary algorithm functions.">
<polygon fill="none" stroke="black" points="172.3,-168.5 172.3,-187.5 207.3,-187.5 207.3,-168.5 172.3,-168.5"/>
<text text-anchor="middle" x="189.8" y="-175.5" font-family="Helvetica,sans-Serif" font-size="10.00">ea.h</text>
</a>
</g>
</g>
<!-- Node1&#45;&gt;Node18 -->
<g id="edge21" class="edge">
<title>Node1&#45;&gt;Node18</title>
<path fill="none" stroke="midnightblue" d="M325.24,-281.23C297.25,-274.8 262.08,-263.46 235.8,-244 219.19,-231.7 206.29,-211.6 198.43,-197"/>
<polygon fill="midnightblue" stroke="midnightblue" points="201.47,-195.26 193.82,-187.94 195.24,-198.44 201.47,-195.26"/>
</g>
<!-- Node19 -->
<g id="node19" class="node">
<title>Node19</title>
<g id="a_node19"><a xlink:href="loss_8h.html" target="_top" xlink:title="Loss functions for calculating prediction error.">
<polygon fill="none" stroke="black" points="225.3,-168.5 225.3,-187.5 268.3,-187.5 268.3,-168.5 225.3,-168.5"/>
<text text-anchor="middle" x="246.8" y="-175.5" font-family="Helvetica,sans-Serif" font-size="10.00">loss.h</text>
</a>
</g>
</g>
<!-- Node1&#45;&gt;Node19 -->
<g id="edge23" class="edge">
<title>Node1&#45;&gt;Node19</title>
<path fill="none" stroke="midnightblue" d="M325.17,-285.2C297.49,-280.26 264.44,-269.1 246.8,-244 237.38,-230.6 238.64,-211.49 241.5,-197.46"/>
<polygon fill="midnightblue" stroke="midnightblue" points="244.96,-198.05 243.97,-187.5 238.17,-196.37 244.96,-198.05"/>
</g>
<!-- Node20 -->
<g id="node20" class="node">
<title>Node20</title>
<g id="a_node20"><a xlink:href="pa_8h.html" target="_top" xlink:title="Prediction array functions.">
<polygon fill="none" stroke="black" points="326.3,-224.5 326.3,-243.5 361.3,-243.5 361.3,-224.5 326.3,-224.5"/>
<text text-anchor="middle" x="343.8" y="-231.5" font-family="Helvetica,sans-Serif" font-size="10.00">pa.h</text>
</a>
</g>
</g>
<!-- Node1&#45;&gt;Node20 -->
<g id="edge25" class="edge">
<title>Node1&#45;&gt;Node20</title>
<path fill="none" stroke="midnightblue" d="M367.17,-280.08C363.34,-272.69 357.77,-261.95 353.03,-252.81"/>
<polygon fill="midnightblue" stroke="midnightblue" points="356.05,-251.02 348.34,-243.75 349.83,-254.24 356.05,-251.02"/>
</g>
<!-- Node21 -->
<g id="node21" class="node">
<title>Node21</title>
<g id="a_node21"><a xlink:href="param_8h.html" target="_top" xlink:title="Functions for setting and printing parameters.">
<polygon fill="none" stroke="black" points="255.8,-224.5 255.8,-243.5 307.8,-243.5 307.8,-224.5 255.8,-224.5"/>
<text text-anchor="middle" x="281.8" y="-231.5" font-family="Helvetica,sans-Serif" font-size="10.00">param.h</text>
</a>
</g>
</g>
<!-- Node1&#45;&gt;Node21 -->
<g id="edge27" class="edge">
<title>Node1&#45;&gt;Node21</title>
<path fill="none" stroke="midnightblue" d="M357.34,-280.32C343.3,-271.9 321.75,-258.97 305.26,-249.07"/>
<polygon fill="midnightblue" stroke="midnightblue" points="306.6,-245.8 296.22,-243.65 303,-251.8 306.6,-245.8"/>
</g>
<!-- Node22 -->
<g id="node22" class="node">
<title>Node22</title>
<g id="a_node22"><a xlink:href="perf_8h.html" target="_top" xlink:title="System performance printing.">
<polygon fill="none" stroke="black" points="379.3,-224.5 379.3,-243.5 420.3,-243.5 420.3,-224.5 379.3,-224.5"/>
<text text-anchor="middle" x="399.8" y="-231.5" font-family="Helvetica,sans-Serif" font-size="10.00">perf.h</text>
</a>
</g>
</g>
<!-- Node1&#45;&gt;Node22 -->
<g id="edge30" class="edge">
<title>Node1&#45;&gt;Node22</title>
<path fill="none" stroke="midnightblue" d="M376.42,-280.08C380.25,-272.69 385.82,-261.95 390.56,-252.81"/>
<polygon fill="midnightblue" stroke="midnightblue" points="393.76,-254.24 395.26,-243.75 387.55,-251.02 393.76,-254.24"/>
</g>
<!-- Node3 -->
<g id="node3" class="node">
<title>Node3</title>
<g id="a_node3"><a xlink:href="xcsf_8h.html" target="_top" xlink:title="XCSF data structures.">
<polygon fill="none" stroke="black" points="309.8,-112.5 309.8,-131.5 353.8,-131.5 353.8,-112.5 309.8,-112.5"/>
<text text-anchor="middle" x="331.8" y="-119.5" font-family="Helvetica,sans-Serif" font-size="10.00">xcsf.h</text>
</a>
</g>
</g>
<!-- Node2&#45;&gt;Node3 -->
<g id="edge2" class="edge">
<title>Node2&#45;&gt;Node3</title>
<path fill="none" stroke="midnightblue" d="M429.42,-168.44C410.58,-159.68 381.07,-145.94 359.42,-135.86"/>
<polygon fill="midnightblue" stroke="midnightblue" points="360.64,-132.56 350.09,-131.52 357.68,-138.91 360.64,-132.56"/>
</g>
<!-- Node3&#45;&gt;Node4 -->
<g id="edge3" class="edge">
<title>Node3&#45;&gt;Node4</title>
<path fill="none" stroke="midnightblue" d="M354.08,-117.04C395.25,-109.63 485.94,-92.89 561.8,-76 563.25,-75.68 564.74,-75.34 566.24,-74.99"/>
<polygon fill="midnightblue" stroke="midnightblue" points="567.24,-78.35 576.14,-72.61 565.6,-71.54 567.24,-78.35"/>
</g>
<!-- Node7 -->
<g id="node7" class="node">
<title>Node7</title>
<g id="a_node7"><a xlink:title=" ">
<polygon fill="none" stroke="#bfbfbf" points="194.3,-0.5 194.3,-19.5 241.3,-19.5 241.3,-0.5 194.3,-0.5"/>
<text text-anchor="middle" x="217.8" y="-7.5" font-family="Helvetica,sans-Serif" font-size="10.00">math.h</text>
</a>
</g>
</g>
<!-- Node3&#45;&gt;Node7 -->
<g id="edge13" class="edge">
<title>Node3&#45;&gt;Node7</title>
<path fill="none" stroke="midnightblue" d="M309.54,-121.48C243.2,-122.37 48.98,-121.03 9.8,-76 -39.57,-19.26 113.16,-11.44 183.89,-10.79"/>
<polygon fill="midnightblue" stroke="midnightblue" points="184.11,-14.29 194.09,-10.74 184.07,-7.29 184.11,-14.29"/>
</g>
<!-- Node8 -->
<g id="node8" class="node">
<title>Node8</title>
<g id="a_node8"><a xlink:title=" ">
<polygon fill="none" stroke="#bfbfbf" points="472.8,-0.5 472.8,-19.5 518.8,-19.5 518.8,-0.5 472.8,-0.5"/>
<text text-anchor="middle" x="495.8" y="-7.5" font-family="Helvetica,sans-Serif" font-size="10.00">stdio.h</text>
</a>
</g>
</g>
<!-- Node3&#45;&gt;Node8 -->
<g id="edge16" class="edge">
<title>Node3&#45;&gt;Node8</title>
<path fill="none" stroke="midnightblue" d="M353.99,-117.87C393.48,-111.82 473.45,-97.2 490.8,-76 501.21,-63.28 501.42,-44.08 499.65,-29.85"/>
<polygon fill="midnightblue" stroke="midnightblue" points="503.06,-29 497.96,-19.71 496.15,-30.15 503.06,-29"/>
</g>
<!-- Node9 -->
<g id="node9" class="node">
<title>Node9</title>
<g id="a_node9"><a xlink:title=" ">
<polygon fill="none" stroke="#bfbfbf" points="536.8,-0.5 536.8,-19.5 584.8,-19.5 584.8,-0.5 536.8,-0.5"/>
<text text-anchor="middle" x="560.8" y="-7.5" font-family="Helvetica,sans-Serif" font-size="10.00">stdlib.h</text>
</a>
</g>
</g>
<!-- Node3&#45;&gt;Node9 -->
<g id="edge17" class="edge">
<title>Node3&#45;&gt;Node9</title>
<path fill="none" stroke="midnightblue" d="M354,-119.85C389.4,-117.08 459.63,-107.69 508.8,-76 527.33,-64.05 542.25,-43.26 551.27,-28.41"/>
<polygon fill="midnightblue" stroke="midnightblue" points="554.35,-30.06 556.33,-19.66 548.29,-26.56 554.35,-30.06"/>
</g>
<!-- Node10 -->
<g id="node10" class="node">
<title>Node10</title>
<g id="a_node10"><a xlink:title=" ">
<polygon fill="none" stroke="#bfbfbf" points="19.3,-56.5 19.3,-75.5 66.3,-75.5 66.3,-56.5 19.3,-56.5"/>
<text text-anchor="middle" x="42.8" y="-63.5" font-family="Helvetica,sans-Serif" font-size="10.00">errno.h</text>
</a>
</g>
</g>
<!-- Node3&#45;&gt;Node10 -->
<g id="edge9" class="edge">
<title>Node3&#45;&gt;Node10</title>
<path fill="none" stroke="midnightblue" d="M309.75,-117.83C266.78,-111.49 168.68,-96.3 76.31,-75.93"/>
<polygon fill="midnightblue" stroke="midnightblue" points="77.05,-72.51 66.53,-73.75 75.52,-79.35 77.05,-72.51"/>
</g>
<!-- Node11 -->
<g id="node11" class="node">
<title>Node11</title>
<g id="a_node11"><a xlink:title=" ">
<polygon fill="none" stroke="#bfbfbf" points="84.8,-56.5 84.8,-75.5 128.8,-75.5 128.8,-56.5 84.8,-56.5"/>
<text text-anchor="middle" x="106.8" y="-63.5" font-family="Helvetica,sans-Serif" font-size="10.00">float.h</text>
</a>
</g>
</g>
<!-- Node3&#45;&gt;Node11 -->
<g id="edge10" class="edge">
<title>Node3&#45;&gt;Node11</title>
<path fill="none" stroke="midnightblue" d="M309.59,-116.26C275.14,-108.82 206.52,-93.66 139.05,-76.22"/>
<polygon fill="midnightblue" stroke="midnightblue" points="139.67,-72.77 129.11,-73.64 137.9,-79.54 139.67,-72.77"/>
</g>
<!-- Node12 -->
<g id="node12" class="node">
<title>Node12</title>
<g id="a_node12"><a xlink:title=" ">
<polygon fill="none" stroke="#bfbfbf" points="147.3,-56.5 147.3,-75.5 206.3,-75.5 206.3,-56.5 147.3,-56.5"/>
<text text-anchor="middle" x="176.8" y="-63.5" font-family="Helvetica,sans-Serif" font-size="10.00">inttypes.h</text>
</a>
</g>
</g>
<!-- Node3&#45;&gt;Node12 -->
<g id="edge11" class="edge">
<title>Node3&#45;&gt;Node12</title>
<path fill="none" stroke="midnightblue" d="M309.59,-113.26C283.79,-104.28 240.95,-89.35 210.92,-78.89"/>
<polygon fill="midnightblue" stroke="midnightblue" points="211.86,-75.51 201.27,-75.52 209.56,-82.12 211.86,-75.51"/>
</g>
<!-- Node13 -->
<g id="node13" class="node">
<title>Node13</title>
<g id="a_node13"><a xlink:title=" ">
<polygon fill="none" stroke="#bfbfbf" points="224.8,-56.5 224.8,-75.5 272.8,-75.5 272.8,-56.5 224.8,-56.5"/>
<text text-anchor="middle" x="248.8" y="-63.5" font-family="Helvetica,sans-Serif" font-size="10.00">limits.h</text>
</a>
</g>
</g>
<!-- Node3&#45;&gt;Node13 -->
<g id="edge12" class="edge">
<title>Node3&#45;&gt;Node13</title>
<path fill="none" stroke="midnightblue" d="M318.46,-112.32C305.64,-103.98 286.01,-91.21 270.86,-81.35"/>
<polygon fill="midnightblue" stroke="midnightblue" points="272.39,-78.17 262.1,-75.65 268.57,-84.04 272.39,-78.17"/>
</g>
<!-- Node14 -->
<g id="node14" class="node">
<title>Node14</title>
<g id="a_node14"><a xlink:title=" ">
<polygon fill="none" stroke="#bfbfbf" points="290.8,-56.5 290.8,-75.5 346.8,-75.5 346.8,-56.5 290.8,-56.5"/>
<text text-anchor="middle" x="318.8" y="-63.5" font-family="Helvetica,sans-Serif" font-size="10.00">stdbool.h</text>
</a>
</g>
</g>
<!-- Node3&#45;&gt;Node14 -->
<g id="edge14" class="edge">
<title>Node3&#45;&gt;Node14</title>
<path fill="none" stroke="midnightblue" d="M329.65,-112.08C327.93,-104.93 325.45,-94.64 323.3,-85.69"/>
<polygon fill="midnightblue" stroke="midnightblue" points="326.65,-84.65 320.91,-75.75 319.84,-86.29 326.65,-84.65"/>
</g>
<!-- Node15 -->
<g id="node15" class="node">
<title>Node15</title>
<g id="a_node15"><a xlink:title=" ">
<polygon fill="none" stroke="#bfbfbf" points="365.3,-56.5 365.3,-75.5 414.3,-75.5 414.3,-56.5 365.3,-56.5"/>
<text text-anchor="middle" x="389.8" y="-63.5" font-family="Helvetica,sans-Serif" font-size="10.00">stdint.h</text>
</a>
</g>
</g>
<!-- Node3&#45;&gt;Node15 -->
<g id="edge15" class="edge">
<title>Node3&#45;&gt;Node15</title>
<path fill="none" stroke="midnightblue" d="M341.12,-112.32C349.69,-104.34 362.61,-92.31 372.99,-82.65"/>
<polygon fill="midnightblue" stroke="midnightblue" points="375.38,-85.21 380.31,-75.83 370.61,-80.09 375.38,-85.21"/>
</g>
<!-- Node16 -->
<g id="node16" class="node">
<title>Node16</title>
<g id="a_node16"><a xlink:title=" ">
<polygon fill="none" stroke="#bfbfbf" points="432.3,-56.5 432.3,-75.5 481.3,-75.5 481.3,-56.5 432.3,-56.5"/>
<text text-anchor="middle" x="456.8" y="-63.5" font-family="Helvetica,sans-Serif" font-size="10.00">string.h</text>
</a>
</g>
</g>
<!-- Node3&#45;&gt;Node16 -->
<g id="edge18" class="edge">
<title>Node3&#45;&gt;Node16</title>
<path fill="none" stroke="midnightblue" d="M351.61,-112.44C372.09,-103.6 404.28,-89.69 427.66,-79.59"/>
<polygon fill="midnightblue" stroke="midnightblue" points="429.29,-82.7 437.08,-75.52 426.52,-76.27 429.29,-82.7"/>
</g>
<!-- Node5 -->
<g id="node5" class="node">
<title>Node5</title>
<g id="a_node5"><a xlink:title=" ">
<polygon fill="none" stroke="#bfbfbf" points="734.8,-0.5 734.8,-19.5 848.8,-19.5 848.8,-0.5 734.8,-0.5"/>
<text text-anchor="middle" x="791.8" y="-7.5" font-family="Helvetica,sans-Serif" font-size="10.00">../lib/cJSON/cJSON.h</text>
</a>
</g>
</g>
<!-- Node4&#45;&gt;Node5 -->
<g id="edge4" class="edge">
<title>Node4&#45;&gt;Node5</title>
<path fill="none" stroke="midnightblue" d="M619.3,-59.01C651.04,-50.18 711.01,-33.49 751.19,-22.3"/>
<polygon fill="midnightblue" stroke="midnightblue" points="752.25,-25.64 760.95,-19.59 750.38,-18.9 752.25,-25.64"/>
</g>
<!-- Node6 -->
<g id="node6" class="node">
<title>Node6</title>
<g id="a_node6"><a xlink:title=" ">
<polygon fill="none" stroke="#bfbfbf" points="603.3,-0.5 603.3,-19.5 716.3,-19.5 716.3,-0.5 603.3,-0.5"/>
<text text-anchor="middle" x="659.8" y="-7.5" font-family="Helvetica,sans-Serif" font-size="10.00">../lib/dSFMT/dSFMT.h</text>
</a>
</g>
</g>
<!-- Node4&#45;&gt;Node6 -->
<g id="edge5" class="edge">
<title>Node4&#45;&gt;Node6</title>
<path fill="none" stroke="midnightblue" d="M607.76,-56.32C616.92,-48.34 630.74,-36.31 641.83,-26.65"/>
<polygon fill="midnightblue" stroke="midnightblue" points="644.41,-29.04 649.66,-19.83 639.82,-23.76 644.41,-29.04"/>
</g>
<!-- Node4&#45;&gt;Node7 -->
<g id="edge6" class="edge">
<title>Node4&#45;&gt;Node7</title>
<path fill="none" stroke="midnightblue" d="M576.28,-61.94C513.15,-52.97 328.09,-26.67 251.54,-15.79"/>
<polygon fill="midnightblue" stroke="midnightblue" points="251.87,-12.31 241.48,-14.37 250.89,-19.24 251.87,-12.31"/>
</g>
<!-- Node4&#45;&gt;Node8 -->
<g id="edge7" class="edge">
<title>Node4&#45;&gt;Node8</title>
<path fill="none" stroke="midnightblue" d="M581.41,-56.32C565.13,-47.7 539.93,-34.36 521.08,-24.39"/>
<polygon fill="midnightblue" stroke="midnightblue" points="522.62,-21.24 512.15,-19.65 519.35,-27.43 522.62,-21.24"/>
</g>
<!-- Node4&#45;&gt;Node9 -->
<g id="edge8" class="edge">
<title>Node4&#45;&gt;Node9</title>
<path fill="none" stroke="midnightblue" d="M591.69,-56.08C586.52,-48.53 578.95,-37.49 572.6,-28.23"/>
<polygon fill="midnightblue" stroke="midnightblue" points="575.33,-26.02 566.79,-19.75 569.56,-29.98 575.33,-26.02"/>
</g>
<!-- Node17&#45;&gt;Node3 -->
<g id="edge20" class="edge">
<title>Node17&#45;&gt;Node3</title>
<path fill="none" stroke="midnightblue" d="M512.74,-170.46C509.73,-169.62 506.69,-168.79 503.8,-168 455.07,-154.77 398.39,-140.08 363.81,-131.19"/>
<polygon fill="midnightblue" stroke="midnightblue" points="364.38,-127.72 353.83,-128.63 362.64,-134.5 364.38,-127.72"/>
</g>
<!-- Node18&#45;&gt;Node3 -->
<g id="edge22" class="edge">
<title>Node18&#45;&gt;Node3</title>
<path fill="none" stroke="midnightblue" d="M207.5,-170.27C230.64,-161.47 271.59,-145.9 300.14,-135.04"/>
<polygon fill="midnightblue" stroke="midnightblue" points="301.57,-138.24 309.67,-131.41 299.08,-131.7 301.57,-138.24"/>
</g>
<!-- Node19&#45;&gt;Node3 -->
<g id="edge24" class="edge">
<title>Node19&#45;&gt;Node3</title>
<path fill="none" stroke="midnightblue" d="M260.46,-168.32C273.71,-159.9 294.07,-146.97 309.64,-137.07"/>
<polygon fill="midnightblue" stroke="midnightblue" points="311.61,-139.97 318.18,-131.65 307.86,-134.06 311.61,-139.97"/>
</g>
<!-- Node20&#45;&gt;Node3 -->
<g id="edge26" class="edge">
<title>Node20&#45;&gt;Node3</title>
<path fill="none" stroke="midnightblue" d="M342.86,-224.37C340.92,-206.62 336.45,-165.67 333.83,-141.6"/>
<polygon fill="midnightblue" stroke="midnightblue" points="337.3,-141.15 332.74,-131.59 330.34,-141.91 337.3,-141.15"/>
</g>
<!-- Node21&#45;&gt;Node3 -->
<g id="edge29" class="edge">
<title>Node21&#45;&gt;Node3</title>
<path fill="none" stroke="midnightblue" d="M285.72,-224.37C293.86,-206.46 312.74,-164.92 323.64,-140.95"/>
<polygon fill="midnightblue" stroke="midnightblue" points="326.94,-142.14 327.89,-131.59 320.57,-139.25 326.94,-142.14"/>
</g>
<!-- Node21&#45;&gt;Node19 -->
<g id="edge28" class="edge">
<title>Node21&#45;&gt;Node19</title>
<path fill="none" stroke="midnightblue" d="M276.02,-224.08C271.13,-216.53 263.97,-205.49 257.97,-196.23"/>
<polygon fill="midnightblue" stroke="midnightblue" points="260.85,-194.24 252.47,-187.75 254.97,-198.05 260.85,-194.24"/>
</g>
<!-- Node22&#45;&gt;Node3 -->
<g id="edge31" class="edge">
<title>Node22&#45;&gt;Node3</title>
<path fill="none" stroke="midnightblue" d="M394.46,-224.37C383.29,-206.3 357.25,-164.18 342.5,-140.31"/>
<polygon fill="midnightblue" stroke="midnightblue" points="345.34,-138.26 337.11,-131.59 339.39,-141.94 345.34,-138.26"/>
</g>
</g>
</svg>
