<?xml version="1.0" encoding="UTF-8" standalone="no"?>
<!DOCTYPE svg PUBLIC "-//W3C//DTD SVG 1.1//EN"
 "http://www.w3.org/Graphics/SVG/1.1/DTD/svg11.dtd">
<!-- Generated by graphviz version 2.43.0 (0)
 -->
<!-- Title: xcs_rl.c Pages: 1 -->
<svg width="797pt" height="252pt"
 viewBox="0.00 0.00 797.00 252.00" xmlns="http://www.w3.org/2000/svg" xmlns:xlink="http://www.w3.org/1999/xlink">
<g id="graph0" class="graph" transform="scale(1 1) rotate(0) translate(4 248)">
<title>xcs_rl.c</title>
<!-- Node1 -->
<g id="node1" class="node">
<title>Node1</title>
<g id="a_node1"><a xlink:title="Reinforcement learning functions.">
<polygon fill="#bfbfbf" stroke="black" points="367,-224.5 367,-243.5 418,-243.5 418,-224.5 367,-224.5"/>
<text text-anchor="middle" x="392.5" y="-231.5" font-family="Helvetica,sans-Serif" font-size="10.00">xcs_rl.c</text>
</a>
</g>
</g>
<!-- Node2 -->
<g id="node2" class="node">
<title>Node2</title>
<g id="a_node2"><a xlink:href="xcs__rl_8h.html" target="_top" xlink:title="Reinforcement learning functions.">
<polygon fill="none" stroke="black" points="391,-112.5 391,-131.5 442,-131.5 442,-112.5 391,-112.5"/>
<text text-anchor="middle" x="416.5" y="-119.5" font-family="Helvetica,sans-Serif" font-size="10.00">xcs_rl.h</text>
</a>
</g>
</g>
<!-- Node1&#45;&gt;Node2 -->
<g id="edge1" class="edge">
<title>Node1&#45;&gt;Node2</title>
<path fill="none" stroke="midnightblue" d="M394.38,-224.37C398.26,-206.62 407.19,-165.67 412.44,-141.6"/>
<polygon fill="midnightblue" stroke="midnightblue" points="415.91,-142.11 414.63,-131.59 409.07,-140.62 415.91,-142.11"/>
</g>
<!-- Node14 -->
<g id="node14" class="node">
<title>Node14</title>
<g id="a_node14"><a xlink:href="clset_8h.html" target="_top" xlink:title="Functions operating on sets of classifiers.">
<polygon fill="none" stroke="black" points="460.5,-112.5 460.5,-131.5 506.5,-131.5 506.5,-112.5 460.5,-112.5"/>
<text text-anchor="middle" x="483.5" y="-119.5" font-family="Helvetica,sans-Serif" font-size="10.00">clset.h</text>
</a>
</g>
</g>
<!-- Node1&#45;&gt;Node14 -->
<g id="edge13" class="edge">
<title>Node1&#45;&gt;Node14</title>
<path fill="none" stroke="midnightblue" d="M399.64,-224.37C414.79,-206.05 450.37,-163.05 469.96,-139.36"/>
<polygon fill="midnightblue" stroke="midnightblue" points="472.72,-141.53 476.39,-131.59 467.32,-137.07 472.72,-141.53"/>
</g>
<!-- Node15 -->
<g id="node15" class="node">
<title>Node15</title>
<g id="a_node15"><a xlink:href="ea_8h.html" target="_top" xlink:title="Evolutionary algorithm functions.">
<polygon fill="none" stroke="black" points="525,-112.5 525,-131.5 560,-131.5 560,-112.5 525,-112.5"/>
<text text-anchor="middle" x="542.5" y="-119.5" font-family="Helvetica,sans-Serif" font-size="10.00">ea.h</text>
</a>
</g>
</g>
<!-- Node1&#45;&gt;Node15 -->
<g id="edge15" class="edge">
<title>Node1&#45;&gt;Node15</title>
<path fill="none" stroke="midnightblue" d="M404.27,-224.37C429.9,-205.57 491,-160.77 522.68,-137.53"/>
<polygon fill="midnightblue" stroke="midnightblue" points="524.79,-140.33 530.78,-131.59 520.65,-134.68 524.79,-140.33"/>
</g>
<!-- Node16 -->
<g id="node16" class="node">
<title>Node16</title>
<g id="a_node16"><a xlink:href="env_8h.html" target="_top" xlink:title="Built&#45;in problem environment interface.">
<polygon fill="none" stroke="black" points="167,-168.5 167,-187.5 206,-187.5 206,-168.5 167,-168.5"/>
<text text-anchor="middle" x="186.5" y="-175.5" font-family="Helvetica,sans-Serif" font-size="10.00">env.h</text>
</a>
</g>
</g>
<!-- Node1&#45;&gt;Node16 -->
<g id="edge17" class="edge">
<title>Node1&#45;&gt;Node16</title>
<path fill="none" stroke="midnightblue" d="M366.89,-226.93C334.19,-219.09 275.65,-204.73 216.07,-188.05"/>
<polygon fill="midnightblue" stroke="midnightblue" points="216.69,-184.58 206.11,-185.24 214.79,-191.32 216.69,-184.58"/>
</g>
<!-- Node17 -->
<g id="node17" class="node">
<title>Node17</title>
<g id="a_node17"><a xlink:href="pa_8h.html" target="_top" xlink:title="Prediction array functions.">
<polygon fill="none" stroke="black" points="224,-168.5 224,-187.5 259,-187.5 259,-168.5 224,-168.5"/>
<text text-anchor="middle" x="241.5" y="-175.5" font-family="Helvetica,sans-Serif" font-size="10.00">pa.h</text>
</a>
</g>
</g>
<!-- Node1&#45;&gt;Node17 -->
<g id="edge19" class="edge">
<title>Node1&#45;&gt;Node17</title>
<path fill="none" stroke="midnightblue" d="M368.57,-224.44C341.47,-214.75 297.37,-198.98 268.9,-188.8"/>
<polygon fill="midnightblue" stroke="midnightblue" points="269.78,-185.39 259.18,-185.32 267.42,-191.99 269.78,-185.39"/>
</g>
<!-- Node18 -->
<g id="node18" class="node">
<title>Node18</title>
<g id="a_node18"><a xlink:href="param_8h.html" target="_top" xlink:title="Functions for setting and printing parameters.">
<polygon fill="none" stroke="black" points="277.5,-168.5 277.5,-187.5 329.5,-187.5 329.5,-168.5 277.5,-168.5"/>
<text text-anchor="middle" x="303.5" y="-175.5" font-family="Helvetica,sans-Serif" font-size="10.00">param.h</text>
</a>
</g>
</g>
<!-- Node1&#45;&gt;Node18 -->
<g id="edge21" class="edge">
<title>Node1&#45;&gt;Node18</title>
<path fill="none" stroke="midnightblue" d="M378.2,-224.32C364.32,-215.9 343.01,-202.97 326.7,-193.07"/>
<polygon fill="midnightblue" stroke="midnightblue" points="328.13,-189.85 317.76,-187.65 324.5,-195.83 328.13,-189.85"/>
</g>
<!-- Node20 -->
<g id="node20" class="node">
<title>Node20</title>
<g id="a_node20"><a xlink:href="perf_8h.html" target="_top" xlink:title="System performance printing.">
<polygon fill="none" stroke="black" points="348,-168.5 348,-187.5 389,-187.5 389,-168.5 348,-168.5"/>
<text text-anchor="middle" x="368.5" y="-175.5" font-family="Helvetica,sans-Serif" font-size="10.00">perf.h</text>
</a>
</g>
</g>
<!-- Node1&#45;&gt;Node20 -->
<g id="edge25" class="edge">
<title>Node1&#45;&gt;Node20</title>
<path fill="none" stroke="midnightblue" d="M388.54,-224.08C385.29,-216.77 380.58,-206.18 376.55,-197.1"/>
<polygon fill="midnightblue" stroke="midnightblue" points="379.65,-195.47 372.39,-187.75 373.25,-198.31 379.65,-195.47"/>
</g>
<!-- Node21 -->
<g id="node21" class="node">
<title>Node21</title>
<g id="a_node21"><a xlink:href="utils_8h.html" target="_top" xlink:title="Utility functions for random number handling, etc.">
<polygon fill="none" stroke="black" points="567,-56.5 567,-75.5 610,-75.5 610,-56.5 567,-56.5"/>
<text text-anchor="middle" x="588.5" y="-63.5" font-family="Helvetica,sans-Serif" font-size="10.00">utils.h</text>
</a>
</g>
</g>
<!-- Node1&#45;&gt;Node21 -->
<g id="edge27" class="edge">
<title>Node1&#45;&gt;Node21</title>
<path fill="none" stroke="midnightblue" d="M418.3,-225.57C457.28,-212.97 530.72,-183.63 569.5,-132 579.54,-118.63 584.29,-100.06 586.53,-86.19"/>
<polygon fill="midnightblue" stroke="midnightblue" points="590.05,-86.23 587.88,-75.87 583.11,-85.33 590.05,-86.23"/>
</g>
<!-- Node3 -->
<g id="node3" class="node">
<title>Node3</title>
<g id="a_node3"><a xlink:href="xcsf_8h.html" target="_top" xlink:title="XCSF data structures.">
<polygon fill="none" stroke="black" points="321.5,-56.5 321.5,-75.5 365.5,-75.5 365.5,-56.5 321.5,-56.5"/>
<text text-anchor="middle" x="343.5" y="-63.5" font-family="Helvetica,sans-Serif" font-size="10.00">xcsf.h</text>
</a>
</g>
</g>
<!-- Node2&#45;&gt;Node3 -->
<g id="edge2" class="edge">
<title>Node2&#45;&gt;Node3</title>
<path fill="none" stroke="midnightblue" d="M404.77,-112.32C393.66,-104.11 376.76,-91.6 363.52,-81.81"/>
<polygon fill="midnightblue" stroke="midnightblue" points="365.56,-78.97 355.44,-75.83 361.4,-84.59 365.56,-78.97"/>
</g>
<!-- Node4 -->
<g id="node4" class="node">
<title>Node4</title>
<g id="a_node4"><a xlink:title=" ">
<polygon fill="none" stroke="#bfbfbf" points="134,-0.5 134,-19.5 181,-19.5 181,-0.5 134,-0.5"/>
<text text-anchor="middle" x="157.5" y="-7.5" font-family="Helvetica,sans-Serif" font-size="10.00">errno.h</text>
</a>
</g>
</g>
<!-- Node3&#45;&gt;Node4 -->
<g id="edge3" class="edge">
<title>Node3&#45;&gt;Node4</title>
<path fill="none" stroke="midnightblue" d="M321.43,-58.59C289.24,-49.25 229.13,-31.79 191.32,-20.82"/>
<polygon fill="midnightblue" stroke="midnightblue" points="191.88,-17.34 181.3,-17.91 189.92,-24.06 191.88,-17.34"/>
</g>
<!-- Node5 -->
<g id="node5" class="node">
<title>Node5</title>
<g id="a_node5"><a xlink:title=" ">
<polygon fill="none" stroke="#bfbfbf" points="199.5,-0.5 199.5,-19.5 243.5,-19.5 243.5,-0.5 199.5,-0.5"/>
<text text-anchor="middle" x="221.5" y="-7.5" font-family="Helvetica,sans-Serif" font-size="10.00">float.h</text>
</a>
</g>
</g>
<!-- Node3&#45;&gt;Node5 -->
<g id="edge4" class="edge">
<title>Node3&#45;&gt;Node5</title>
<path fill="none" stroke="midnightblue" d="M324.17,-56.44C304.18,-47.6 272.76,-33.69 249.94,-23.59"/>
<polygon fill="midnightblue" stroke="midnightblue" points="251.3,-20.36 240.74,-19.52 248.47,-26.76 251.3,-20.36"/>
</g>
<!-- Node6 -->
<g id="node6" class="node">
<title>Node6</title>
<g id="a_node6"><a xlink:title=" ">
<polygon fill="none" stroke="#bfbfbf" points="262,-0.5 262,-19.5 321,-19.5 321,-0.5 262,-0.5"/>
<text text-anchor="middle" x="291.5" y="-7.5" font-family="Helvetica,sans-Serif" font-size="10.00">inttypes.h</text>
</a>
</g>
</g>
<!-- Node3&#45;&gt;Node6 -->
<g id="edge5" class="edge">
<title>Node3&#45;&gt;Node6</title>
<path fill="none" stroke="midnightblue" d="M334.91,-56.08C327.34,-48.22 316.12,-36.57 306.99,-27.08"/>
<polygon fill="midnightblue" stroke="midnightblue" points="309.38,-24.53 299.93,-19.75 304.34,-29.38 309.38,-24.53"/>
</g>
<!-- Node7 -->
<g id="node7" class="node">
<title>Node7</title>
<g id="a_node7"><a xlink:title=" ">
<polygon fill="none" stroke="#bfbfbf" points="339.5,-0.5 339.5,-19.5 387.5,-19.5 387.5,-0.5 339.5,-0.5"/>
<text text-anchor="middle" x="363.5" y="-7.5" font-family="Helvetica,sans-Serif" font-size="10.00">limits.h</text>
</a>
</g>
</g>
<!-- Node3&#45;&gt;Node7 -->
<g id="edge6" class="edge">
<title>Node3&#45;&gt;Node7</title>
<path fill="none" stroke="midnightblue" d="M346.8,-56.08C349.48,-48.85 353.35,-38.41 356.69,-29.4"/>
<polygon fill="midnightblue" stroke="midnightblue" points="360.07,-30.34 360.26,-19.75 353.5,-27.91 360.07,-30.34"/>
</g>
<!-- Node8 -->
<g id="node8" class="node">
<title>Node8</title>
<g id="a_node8"><a xlink:title=" ">
<polygon fill="none" stroke="#bfbfbf" points="480,-0.5 480,-19.5 527,-19.5 527,-0.5 480,-0.5"/>
<text text-anchor="middle" x="503.5" y="-7.5" font-family="Helvetica,sans-Serif" font-size="10.00">math.h</text>
</a>
</g>
</g>
<!-- Node3&#45;&gt;Node8 -->
<g id="edge7" class="edge">
<title>Node3&#45;&gt;Node8</title>
<path fill="none" stroke="midnightblue" d="M365.75,-57.49C392.87,-48.34 438.94,-32.79 470.27,-22.22"/>
<polygon fill="midnightblue" stroke="midnightblue" points="471.53,-25.49 479.88,-18.97 469.29,-18.85 471.53,-25.49"/>
</g>
<!-- Node9 -->
<g id="node9" class="node">
<title>Node9</title>
<g id="a_node9"><a xlink:title=" ">
<polygon fill="none" stroke="#bfbfbf" points="405.5,-0.5 405.5,-19.5 461.5,-19.5 461.5,-0.5 405.5,-0.5"/>
<text text-anchor="middle" x="433.5" y="-7.5" font-family="Helvetica,sans-Serif" font-size="10.00">stdbool.h</text>
</a>
</g>
</g>
<!-- Node3&#45;&gt;Node9 -->
<g id="edge8" class="edge">
<title>Node3&#45;&gt;Node9</title>
<path fill="none" stroke="midnightblue" d="M357.96,-56.32C372,-47.9 393.55,-34.97 410.04,-25.07"/>
<polygon fill="midnightblue" stroke="midnightblue" points="412.3,-27.8 419.08,-19.65 408.7,-21.8 412.3,-27.8"/>
</g>
<!-- Node10 -->
<g id="node10" class="node">
<title>Node10</title>
<g id="a_node10"><a xlink:title=" ">
<polygon fill="none" stroke="#bfbfbf" points="0,-0.5 0,-19.5 49,-19.5 49,-0.5 0,-0.5"/>
<text text-anchor="middle" x="24.5" y="-7.5" font-family="Helvetica,sans-Serif" font-size="10.00">stdint.h</text>
</a>
</g>
</g>
<!-- Node3&#45;&gt;Node10 -->
<g id="edge9" class="edge">
<title>Node3&#45;&gt;Node10</title>
<path fill="none" stroke="midnightblue" d="M321.46,-62.37C274.78,-56.63 162.38,-41.87 59.24,-20.2"/>
<polygon fill="midnightblue" stroke="midnightblue" points="59.8,-16.74 49.29,-18.08 58.35,-23.58 59.8,-16.74"/>
</g>
<!-- Node11 -->
<g id="node11" class="node">
<title>Node11</title>
<g id="a_node11"><a xlink:title=" ">
<polygon fill="none" stroke="#bfbfbf" points="545.5,-0.5 545.5,-19.5 591.5,-19.5 591.5,-0.5 545.5,-0.5"/>
<text text-anchor="middle" x="568.5" y="-7.5" font-family="Helvetica,sans-Serif" font-size="10.00">stdio.h</text>
</a>
</g>
</g>
<!-- Node3&#45;&gt;Node11 -->
<g id="edge10" class="edge">
<title>Node3&#45;&gt;Node11</title>
<path fill="none" stroke="midnightblue" d="M365.58,-60.19C399.83,-52.66 468.06,-37.37 535.52,-20.17"/>
<polygon fill="midnightblue" stroke="midnightblue" points="536.65,-23.49 545.46,-17.61 534.91,-16.71 536.65,-23.49"/>
</g>
<!-- Node12 -->
<g id="node12" class="node">
<title>Node12</title>
<g id="a_node12"><a xlink:title=" ">
<polygon fill="none" stroke="#bfbfbf" points="609.5,-0.5 609.5,-19.5 657.5,-19.5 657.5,-0.5 609.5,-0.5"/>
<text text-anchor="middle" x="633.5" y="-7.5" font-family="Helvetica,sans-Serif" font-size="10.00">stdlib.h</text>
</a>
</g>
</g>
<!-- Node3&#45;&gt;Node12 -->
<g id="edge11" class="edge">
<title>Node3&#45;&gt;Node12</title>
<path fill="none" stroke="midnightblue" d="M365.64,-61.83C408.78,-55.51 507.26,-40.34 599.63,-20.02"/>
<polygon fill="midnightblue" stroke="midnightblue" points="600.41,-23.44 609.41,-17.85 598.89,-16.6 600.41,-23.44"/>
</g>
<!-- Node13 -->
<g id="node13" class="node">
<title>Node13</title>
<g id="a_node13"><a xlink:title=" ">
<polygon fill="none" stroke="#bfbfbf" points="67,-0.5 67,-19.5 116,-19.5 116,-0.5 67,-0.5"/>
<text text-anchor="middle" x="91.5" y="-7.5" font-family="Helvetica,sans-Serif" font-size="10.00">string.h</text>
</a>
</g>
</g>
<!-- Node3&#45;&gt;Node13 -->
<g id="edge12" class="edge">
<title>Node3&#45;&gt;Node13</title>
<path fill="none" stroke="midnightblue" d="M321.33,-60.93C283.3,-53.84 202.99,-38.42 126.16,-20.29"/>
<polygon fill="midnightblue" stroke="midnightblue" points="126.86,-16.86 116.32,-17.95 125.24,-23.67 126.86,-16.86"/>
</g>
<!-- Node14&#45;&gt;Node3 -->
<g id="edge14" class="edge">
<title>Node14&#45;&gt;Node3</title>
<path fill="none" stroke="midnightblue" d="M461.32,-112.44C438.07,-103.48 401.35,-89.31 375.08,-79.18"/>
<polygon fill="midnightblue" stroke="midnightblue" points="376.17,-75.85 365.58,-75.52 373.65,-82.38 376.17,-75.85"/>
</g>
<!-- Node15&#45;&gt;Node3 -->
<g id="edge16" class="edge">
<title>Node15&#45;&gt;Node3</title>
<path fill="none" stroke="midnightblue" d="M524.83,-114.93C521.73,-113.91 518.53,-112.9 515.5,-112 467.1,-97.62 410.33,-83.24 375.64,-74.74"/>
<polygon fill="midnightblue" stroke="midnightblue" points="376.17,-71.26 365.62,-72.29 374.51,-78.06 376.17,-71.26"/>
</g>
<!-- Node16&#45;&gt;Node3 -->
<g id="edge18" class="edge">
<title>Node16&#45;&gt;Node3</title>
<path fill="none" stroke="midnightblue" d="M190.64,-168.22C197.52,-154.47 212.56,-127.8 232.5,-112 255.78,-93.55 287.65,-81.68 311.26,-74.79"/>
<polygon fill="midnightblue" stroke="midnightblue" points="312.45,-78.09 321.15,-72.05 310.58,-71.35 312.45,-78.09"/>
</g>
<!-- Node17&#45;&gt;Node3 -->
<g id="edge20" class="edge">
<title>Node17&#45;&gt;Node3</title>
<path fill="none" stroke="midnightblue" d="M239.22,-168.11C236.32,-154.7 232.97,-129.03 244.5,-112 259.64,-89.63 288.79,-78.21 311.55,-72.49"/>
<polygon fill="midnightblue" stroke="midnightblue" points="312.5,-75.86 321.49,-70.24 310.96,-69.03 312.5,-75.86"/>
</g>
<!-- Node18&#45;&gt;Node3 -->
<g id="edge24" class="edge">
<title>Node18&#45;&gt;Node3</title>
<path fill="none" stroke="midnightblue" d="M306.64,-168.37C313.12,-150.54 328.12,-109.3 336.86,-85.27"/>
<polygon fill="midnightblue" stroke="midnightblue" points="340.25,-86.19 340.38,-75.59 333.67,-83.79 340.25,-86.19"/>
</g>
<!-- Node19 -->
<g id="node19" class="node">
<title>Node19</title>
<g id="a_node19"><a xlink:href="loss_8h.html" target="_top" xlink:title="Loss functions for calculating prediction error.">
<polygon fill="none" stroke="black" points="253,-112.5 253,-131.5 296,-131.5 296,-112.5 253,-112.5"/>
<text text-anchor="middle" x="274.5" y="-119.5" font-family="Helvetica,sans-Serif" font-size="10.00">loss.h</text>
</a>
</g>
</g>
<!-- Node18&#45;&gt;Node19 -->
<g id="edge22" class="edge">
<title>Node18&#45;&gt;Node19</title>
<path fill="none" stroke="midnightblue" d="M298.71,-168.08C294.74,-160.69 288.97,-149.95 284.07,-140.81"/>
<polygon fill="midnightblue" stroke="midnightblue" points="287.01,-138.91 279.2,-131.75 280.85,-142.22 287.01,-138.91"/>
</g>
<!-- Node19&#45;&gt;Node3 -->
<g id="edge23" class="edge">
<title>Node19&#45;&gt;Node3</title>
<path fill="none" stroke="midnightblue" d="M285.59,-112.32C295.99,-104.18 311.76,-91.84 324.22,-82.09"/>
<polygon fill="midnightblue" stroke="midnightblue" points="326.49,-84.75 332.21,-75.83 322.18,-79.24 326.49,-84.75"/>
</g>
<!-- Node20&#45;&gt;Node3 -->
<g id="edge26" class="edge">
<title>Node20&#45;&gt;Node3</title>
<path fill="none" stroke="midnightblue" d="M366.54,-168.37C362.5,-150.62 353.2,-109.67 347.73,-85.6"/>
<polygon fill="midnightblue" stroke="midnightblue" points="351.08,-84.57 345.45,-75.59 344.26,-86.12 351.08,-84.57"/>
</g>
<!-- Node21&#45;&gt;Node8 -->
<g id="edge29" class="edge">
<title>Node21&#45;&gt;Node8</title>
<path fill="none" stroke="midnightblue" d="M574.84,-56.32C561.58,-47.9 541.23,-34.97 525.65,-25.07"/>
<polygon fill="midnightblue" stroke="midnightblue" points="527.44,-22.06 517.12,-19.65 523.69,-27.97 527.44,-22.06"/>
</g>
<!-- Node21&#45;&gt;Node11 -->
<g id="edge30" class="edge">
<title>Node21&#45;&gt;Node11</title>
<path fill="none" stroke="midnightblue" d="M585.2,-56.08C582.52,-48.85 578.65,-38.41 575.31,-29.4"/>
<polygon fill="midnightblue" stroke="midnightblue" points="578.5,-27.91 571.74,-19.75 571.93,-30.34 578.5,-27.91"/>
</g>
<!-- Node21&#45;&gt;Node12 -->
<g id="edge31" class="edge">
<title>Node21&#45;&gt;Node12</title>
<path fill="none" stroke="midnightblue" d="M595.93,-56.08C602.35,-48.38 611.81,-37.03 619.62,-27.65"/>
<polygon fill="midnightblue" stroke="midnightblue" points="622.49,-29.67 626.21,-19.75 617.12,-25.19 622.49,-29.67"/>
</g>
<!-- Node22 -->
<g id="node22" class="node">
<title>Node22</title>
<g id="a_node22"><a xlink:title=" ">
<polygon fill="none" stroke="#bfbfbf" points="676,-0.5 676,-19.5 789,-19.5 789,-0.5 676,-0.5"/>
<text text-anchor="middle" x="732.5" y="-7.5" font-family="Helvetica,sans-Serif" font-size="10.00">../lib/dSFMT/dSFMT.h</text>
</a>
</g>
</g>
<!-- Node21&#45;&gt;Node22 -->
<g id="edge28" class="edge">
<title>Node21&#45;&gt;Node22</title>
<path fill="none" stroke="midnightblue" d="M610.06,-56.92C633.82,-48.01 672.3,-33.57 699.78,-23.27"/>
<polygon fill="midnightblue" stroke="midnightblue" points="701.23,-26.47 709.36,-19.68 698.77,-19.91 701.23,-26.47"/>
</g>
</g>
</svg>
