<?xml version="1.0" encoding="UTF-8" standalone="no"?>
<!DOCTYPE svg PUBLIC "-//W3C//DTD SVG 1.1//EN"
 "http://www.w3.org/Graphics/SVG/1.1/DTD/svg11.dtd">
<!-- Generated by graphviz version 2.43.0 (0)
 -->
<!-- Title: xcsf_init Pages: 1 -->
<svg width="1262pt" height="699pt"
 viewBox="0.00 0.00 1262.00 699.00" xmlns="http://www.w3.org/2000/svg" xmlns:xlink="http://www.w3.org/1999/xlink">
<g id="graph0" class="graph" transform="scale(1 1) rotate(0) translate(4 695)">
<title>xcsf_init</title>
<!-- Node1 -->
<g id="node1" class="node">
<title>Node1</title>
<g id="a_node1"><a xlink:title="Initialises XCSF with an empty population.">
<polygon fill="#bfbfbf" stroke="black" points="0,-449.5 0,-468.5 53,-468.5 53,-449.5 0,-449.5"/>
<text text-anchor="middle" x="26.5" y="-456.5" font-family="Helvetica,sans-Serif" font-size="10.00">xcsf_init</text>
</a>
</g>
</g>
<!-- Node2 -->
<g id="node2" class="node">
<title>Node2</title>
<g id="a_node2"><a xlink:href="clset_8c.html#a9af546abf9de1bc840d605e949d3ef47" target="_top" xlink:title="Initialises a new set.">
<polygon fill="none" stroke="black" points="643.5,-613.5 643.5,-632.5 699.5,-632.5 699.5,-613.5 643.5,-613.5"/>
<text text-anchor="middle" x="671.5" y="-620.5" font-family="Helvetica,sans-Serif" font-size="10.00">clset_init</text>
</a>
</g>
</g>
<!-- Node1&#45;&gt;Node2 -->
<g id="edge1" class="edge">
<title>Node1&#45;&gt;Node2</title>
<path fill="none" stroke="midnightblue" d="M35.4,-468.69C62.34,-500.55 154.41,-600 254,-600 254,-600 254,-600 387,-600 475.42,-600 578.85,-611.25 633.03,-618.02"/>
<polygon fill="midnightblue" stroke="midnightblue" points="632.83,-621.52 643.19,-619.3 633.71,-614.57 632.83,-621.52"/>
</g>
<!-- Node3 -->
<g id="node3" class="node">
<title>Node3</title>
<g id="a_node3"><a xlink:href="clset_8c.html#a0dc2a4754c73df72a73b31c09cd50003" target="_top" xlink:title="Initialises a new population of random classifiers.">
<polygon fill="none" stroke="black" points="89,-449.5 89,-468.5 169,-468.5 169,-449.5 89,-449.5"/>
<text text-anchor="middle" x="129" y="-456.5" font-family="Helvetica,sans-Serif" font-size="10.00">clset_pset_init</text>
</a>
</g>
</g>
<!-- Node1&#45;&gt;Node3 -->
<g id="edge2" class="edge">
<title>Node1&#45;&gt;Node3</title>
<path fill="none" stroke="midnightblue" d="M53.12,-459C60.9,-459 69.71,-459 78.5,-459"/>
<polygon fill="midnightblue" stroke="midnightblue" points="78.74,-462.5 88.74,-459 78.74,-455.5 78.74,-462.5"/>
</g>
<!-- Node45 -->
<g id="node45" class="node">
<title>Node45</title>
<g id="a_node45"><a xlink:href="pa_8c.html#ae7c4749400527115da6903f9337ac58b" target="_top" xlink:title="Initialises the prediction array.">
<polygon fill="none" stroke="black" points="106.5,-411.5 106.5,-430.5 151.5,-430.5 151.5,-411.5 106.5,-411.5"/>
<text text-anchor="middle" x="129" y="-418.5" font-family="Helvetica,sans-Serif" font-size="10.00">pa_init</text>
</a>
</g>
</g>
<!-- Node1&#45;&gt;Node45 -->
<g id="edge49" class="edge">
<title>Node1&#45;&gt;Node45</title>
<path fill="none" stroke="midnightblue" d="M52.86,-449.41C66.28,-444.34 82.86,-438.07 97.04,-432.71"/>
<polygon fill="midnightblue" stroke="midnightblue" points="98.28,-435.98 106.39,-429.17 95.8,-429.43 98.28,-435.98"/>
</g>
<!-- Node4 -->
<g id="node4" class="node">
<title>Node4</title>
<g id="a_node4"><a xlink:href="cl_8c.html#a188fac458e06c9a27e0e4069f7ddb68a" target="_top" xlink:title="Initialises a new classifier &#45; but not condition, action, prediction.">
<polygon fill="none" stroke="black" points="800,-123.5 800,-142.5 842,-142.5 842,-123.5 800,-123.5"/>
<text text-anchor="middle" x="821" y="-130.5" font-family="Helvetica,sans-Serif" font-size="10.00">cl_init</text>
</a>
</g>
</g>
<!-- Node3&#45;&gt;Node4 -->
<g id="edge3" class="edge">
<title>Node3&#45;&gt;Node4</title>
<path fill="none" stroke="midnightblue" d="M157.87,-449.35C162.08,-446.86 166.01,-443.78 169,-440 214.69,-382.1 164.46,-339.61 205,-278 259.24,-195.56 286.32,-148 385,-148 385,-148 385,-148 527.5,-148 623.35,-148 736.65,-139.87 789.72,-135.58"/>
<polygon fill="midnightblue" stroke="midnightblue" points="790.12,-139.06 799.81,-134.75 789.55,-132.08 790.12,-139.06"/>
</g>
<!-- Node5 -->
<g id="node5" class="node">
<title>Node5</title>
<g id="a_node5"><a xlink:href="cl_8c.html#a47e450b7a0f97f3662080f311b6bad0d" target="_top" xlink:title="Initialises random actions, conditions and predictions.">
<polygon fill="none" stroke="black" points="797,-161.5 797,-180.5 845,-180.5 845,-161.5 797,-161.5"/>
<text text-anchor="middle" x="821" y="-168.5" font-family="Helvetica,sans-Serif" font-size="10.00">cl_rand</text>
</a>
</g>
</g>
<!-- Node3&#45;&gt;Node5 -->
<g id="edge4" class="edge">
<title>Node3&#45;&gt;Node5</title>
<path fill="none" stroke="midnightblue" d="M152,-449.5C157.69,-446.71 163.71,-443.47 169,-440 274.67,-370.65 258.6,-255 385,-255 385,-255 385,-255 527.5,-255 627.76,-255 740.11,-208.84 791.53,-184.96"/>
<polygon fill="midnightblue" stroke="midnightblue" points="793.14,-188.07 800.69,-180.64 790.15,-181.74 793.14,-188.07"/>
</g>
<!-- Node12 -->
<g id="node12" class="node">
<title>Node12</title>
<g id="a_node12"><a xlink:href="clset_8c.html#a64d33e6235c57f30a4a3ec82f18e57d6" target="_top" xlink:title="Adds a classifier to the set.">
<polygon fill="none" stroke="black" points="954,-481.5 954,-500.5 1013,-500.5 1013,-481.5 954,-481.5"/>
<text text-anchor="middle" x="983.5" y="-488.5" font-family="Helvetica,sans-Serif" font-size="10.00">clset_add</text>
</a>
</g>
</g>
<!-- Node3&#45;&gt;Node12 -->
<g id="edge11" class="edge">
<title>Node3&#45;&gt;Node12</title>
<path fill="none" stroke="midnightblue" d="M169.32,-459C219.4,-459 308.63,-459 385,-459 385,-459 385,-459 672.5,-459 770.75,-459 885.6,-475.1 944.06,-484.46"/>
<polygon fill="midnightblue" stroke="midnightblue" points="943.53,-487.92 953.97,-486.07 944.66,-481.01 943.53,-487.92"/>
</g>
<!-- Node13 -->
<g id="node13" class="node">
<title>Node13</title>
<g id="a_node13"><a xlink:href="clset_8c.html#ab1609ae417c14c50f3322c3ed818db6b" target="_top" xlink:title=" ">
<polygon fill="none" stroke="black" points="205,-488.5 205,-507.5 305,-507.5 305,-488.5 205,-488.5"/>
<text text-anchor="middle" x="255" y="-495.5" font-family="Helvetica,sans-Serif" font-size="10.00">clset_load_pop_file</text>
</a>
</g>
</g>
<!-- Node3&#45;&gt;Node13 -->
<g id="edge12" class="edge">
<title>Node3&#45;&gt;Node13</title>
<path fill="none" stroke="midnightblue" d="M160.33,-468.54C176.4,-473.59 196.34,-479.86 213.68,-485.32"/>
<polygon fill="midnightblue" stroke="midnightblue" points="212.96,-488.76 223.55,-488.42 215.06,-482.08 212.96,-488.76"/>
</g>
<!-- Node6 -->
<g id="node6" class="node">
<title>Node6</title>
<g id="a_node6"><a xlink:href="action_8h.html#a124e361f0b13d0c29206bd9c05bd9fd4" target="_top" xlink:title="Initialises a classifier&#39;s action.">
<polygon fill="none" stroke="black" points="959.5,-190.5 959.5,-209.5 1007.5,-209.5 1007.5,-190.5 959.5,-190.5"/>
<text text-anchor="middle" x="983.5" y="-197.5" font-family="Helvetica,sans-Serif" font-size="10.00">act_init</text>
</a>
</g>
</g>
<!-- Node5&#45;&gt;Node6 -->
<g id="edge5" class="edge">
<title>Node5&#45;&gt;Node6</title>
<path fill="none" stroke="midnightblue" d="M845.34,-175.22C872.76,-180.17 918.43,-188.42 949.48,-194.03"/>
<polygon fill="midnightblue" stroke="midnightblue" points="948.93,-197.49 959.39,-195.83 950.18,-190.6 948.93,-197.49"/>
</g>
<!-- Node7 -->
<g id="node7" class="node">
<title>Node7</title>
<g id="a_node7"><a xlink:href="action_8c.html#a57d1606f2517912f1f56018f095761e9" target="_top" xlink:title="Sets a classifier&#39;s action functions to the implementations.">
<polygon fill="none" stroke="black" points="952.5,-152.5 952.5,-171.5 1014.5,-171.5 1014.5,-152.5 952.5,-152.5"/>
<text text-anchor="middle" x="983.5" y="-159.5" font-family="Helvetica,sans-Serif" font-size="10.00">action_set</text>
</a>
</g>
</g>
<!-- Node5&#45;&gt;Node7 -->
<g id="edge6" class="edge">
<title>Node5&#45;&gt;Node7</title>
<path fill="none" stroke="midnightblue" d="M845.34,-169.69C870.61,-168.27 911.41,-165.99 941.95,-164.27"/>
<polygon fill="midnightblue" stroke="midnightblue" points="942.49,-167.75 952.28,-163.69 942.1,-160.76 942.49,-167.75"/>
</g>
<!-- Node8 -->
<g id="node8" class="node">
<title>Node8</title>
<g id="a_node8"><a xlink:href="condition_8h.html#ad8a71ebe28cc52430a49610bfe5f7836" target="_top" xlink:title="Initialises a classifier&#39;s condition.">
<polygon fill="none" stroke="black" points="955.5,-114.5 955.5,-133.5 1011.5,-133.5 1011.5,-114.5 955.5,-114.5"/>
<text text-anchor="middle" x="983.5" y="-121.5" font-family="Helvetica,sans-Serif" font-size="10.00">cond_init</text>
</a>
</g>
</g>
<!-- Node5&#45;&gt;Node8 -->
<g id="edge7" class="edge">
<title>Node5&#45;&gt;Node8</title>
<path fill="none" stroke="midnightblue" d="M845.34,-164.17C871.58,-156.48 914.56,-143.89 945.42,-134.86"/>
<polygon fill="midnightblue" stroke="midnightblue" points="946.76,-138.11 955.38,-131.94 944.79,-131.39 946.76,-138.11"/>
</g>
<!-- Node9 -->
<g id="node9" class="node">
<title>Node9</title>
<g id="a_node9"><a xlink:href="condition_8c.html#a16981837f523cea3a917404e441981b3" target="_top" xlink:title="Sets a classifier&#39;s condition functions to the implementations.">
<polygon fill="none" stroke="black" points="946.5,-76.5 946.5,-95.5 1020.5,-95.5 1020.5,-76.5 946.5,-76.5"/>
<text text-anchor="middle" x="983.5" y="-83.5" font-family="Helvetica,sans-Serif" font-size="10.00">condition_set</text>
</a>
</g>
</g>
<!-- Node5&#45;&gt;Node9 -->
<g id="edge8" class="edge">
<title>Node5&#45;&gt;Node9</title>
<path fill="none" stroke="midnightblue" d="M845.08,-167.61C857.71,-164.92 873.16,-160.19 885,-152 906.64,-137.03 899.41,-120.04 921,-105 925.82,-101.64 931.25,-98.87 936.83,-96.57"/>
<polygon fill="midnightblue" stroke="midnightblue" points="938.1,-99.84 946.31,-93.14 935.71,-93.25 938.1,-99.84"/>
</g>
<!-- Node10 -->
<g id="node10" class="node">
<title>Node10</title>
<g id="a_node10"><a xlink:href="prediction_8h.html#ac18761d16e606f80e814a15d1770d367" target="_top" xlink:title="Initialises a classifier&#39;s prediction.">
<polygon fill="none" stroke="black" points="957,-38.5 957,-57.5 1010,-57.5 1010,-38.5 957,-38.5"/>
<text text-anchor="middle" x="983.5" y="-45.5" font-family="Helvetica,sans-Serif" font-size="10.00">pred_init</text>
</a>
</g>
</g>
<!-- Node5&#45;&gt;Node10 -->
<g id="edge9" class="edge">
<title>Node5&#45;&gt;Node10</title>
<path fill="none" stroke="midnightblue" d="M845.03,-168.88C858.12,-166.59 874.03,-161.84 885,-152 915.53,-124.59 890.56,-94.51 921,-67 928.25,-60.45 937.71,-56.16 947.04,-53.35"/>
<polygon fill="midnightblue" stroke="midnightblue" points="948.15,-56.68 956.99,-50.84 946.44,-49.89 948.15,-56.68"/>
</g>
<!-- Node11 -->
<g id="node11" class="node">
<title>Node11</title>
<g id="a_node11"><a xlink:href="prediction_8c.html#a81ad118db1c9b692c45880e6f3a33ec4" target="_top" xlink:title="Sets a classifier&#39;s prediction functions to the implementations.">
<polygon fill="none" stroke="black" points="945,-0.5 945,-19.5 1022,-19.5 1022,-0.5 945,-0.5"/>
<text text-anchor="middle" x="983.5" y="-7.5" font-family="Helvetica,sans-Serif" font-size="10.00">prediction_set</text>
</a>
</g>
</g>
<!-- Node5&#45;&gt;Node11 -->
<g id="edge10" class="edge">
<title>Node5&#45;&gt;Node11</title>
<path fill="none" stroke="midnightblue" d="M845.16,-169.39C858.46,-167.28 874.54,-162.54 885,-152 925.11,-111.56 881.02,-69.58 921,-29 925.02,-24.92 929.89,-21.71 935.12,-19.19"/>
<polygon fill="midnightblue" stroke="midnightblue" points="936.79,-22.29 944.8,-15.35 934.21,-15.79 936.79,-22.29"/>
</g>
<!-- Node14 -->
<g id="node14" class="node">
<title>Node14</title>
<g id="a_node14"><a xlink:href="clset_8c.html#a9092b6e9d9b731be1bd9a4303992fd43" target="_top" xlink:title="Creates classifiers from JSON and inserts into the population.">
<polygon fill="none" stroke="black" points="341,-491.5 341,-510.5 431,-510.5 431,-491.5 341,-491.5"/>
<text text-anchor="middle" x="386" y="-498.5" font-family="Helvetica,sans-Serif" font-size="10.00">clset_json_insert</text>
</a>
</g>
</g>
<!-- Node13&#45;&gt;Node14 -->
<g id="edge13" class="edge">
<title>Node13&#45;&gt;Node14</title>
<path fill="none" stroke="midnightblue" d="M305.14,-499.14C313.44,-499.34 322.1,-499.54 330.53,-499.73"/>
<polygon fill="midnightblue" stroke="midnightblue" points="330.57,-503.24 340.65,-499.97 330.74,-496.24 330.57,-503.24"/>
</g>
<!-- Node15 -->
<g id="node15" class="node">
<title>Node15</title>
<g id="a_node15"><a xlink:href="clset_8c.html#af6dd68a382ba6513d94925542da41f38" target="_top" xlink:title="Creates a classifier from cJSON and inserts in the population set.">
<polygon fill="none" stroke="black" points="475,-530.5 475,-549.5 578,-549.5 578,-530.5 475,-530.5"/>
<text text-anchor="middle" x="526.5" y="-537.5" font-family="Helvetica,sans-Serif" font-size="10.00">clset_json_insert_cl</text>
</a>
</g>
</g>
<!-- Node14&#45;&gt;Node15 -->
<g id="edge14" class="edge">
<title>Node14&#45;&gt;Node15</title>
<path fill="none" stroke="midnightblue" d="M420.88,-510.54C439.24,-515.71 462.14,-522.16 481.82,-527.7"/>
<polygon fill="midnightblue" stroke="midnightblue" points="480.91,-531.08 491.49,-530.42 482.81,-524.34 480.91,-531.08"/>
</g>
<!-- Node44 -->
<g id="node44" class="node">
<title>Node44</title>
<g id="a_node44"><a xlink:href="utils_8c.html#ab88f9e76233791f1e21ef22ba3a958b0" target="_top" xlink:title="Checks whether JSON parsed correctly.">
<polygon fill="none" stroke="black" points="467,-491.5 467,-510.5 586,-510.5 586,-491.5 467,-491.5"/>
<text text-anchor="middle" x="526.5" y="-498.5" font-family="Helvetica,sans-Serif" font-size="10.00">utils_json_parse_check</text>
</a>
</g>
</g>
<!-- Node14&#45;&gt;Node44 -->
<g id="edge48" class="edge">
<title>Node14&#45;&gt;Node44</title>
<path fill="none" stroke="midnightblue" d="M431.2,-501C439.34,-501 448.01,-501 456.67,-501"/>
<polygon fill="midnightblue" stroke="midnightblue" points="456.8,-504.5 466.8,-501 456.8,-497.5 456.8,-504.5"/>
</g>
<!-- Node15&#45;&gt;Node2 -->
<g id="edge30" class="edge">
<title>Node15&#45;&gt;Node2</title>
<path fill="none" stroke="midnightblue" d="M539.78,-549.63C557.29,-563.05 590.79,-587.58 622,-604 625.78,-605.99 629.82,-607.89 633.89,-609.67"/>
<polygon fill="midnightblue" stroke="midnightblue" points="632.76,-612.99 643.34,-613.58 635.44,-606.53 632.76,-612.99"/>
</g>
<!-- Node15&#45;&gt;Node12 -->
<g id="edge29" class="edge">
<title>Node15&#45;&gt;Node12</title>
<path fill="none" stroke="midnightblue" d="M559.13,-530.45C577.35,-525.34 600.77,-519.4 622,-516 737.89,-497.42 876.93,-492.64 943.39,-491.42"/>
<polygon fill="midnightblue" stroke="midnightblue" points="943.85,-494.91 953.79,-491.25 943.74,-487.91 943.85,-494.91"/>
</g>
<!-- Node16 -->
<g id="node16" class="node">
<title>Node16</title>
<g id="a_node16"><a xlink:href="cl_8c.html#ada9e7ce4c9c81af8ea0d1fd0dda59e3c" target="_top" xlink:title="Creates a classifier from a cJSON object.">
<polygon fill="none" stroke="black" points="631.5,-318.5 631.5,-337.5 711.5,-337.5 711.5,-318.5 631.5,-318.5"/>
<text text-anchor="middle" x="671.5" y="-325.5" font-family="Helvetica,sans-Serif" font-size="10.00">cl_json_import</text>
</a>
</g>
</g>
<!-- Node15&#45;&gt;Node16 -->
<g id="edge15" class="edge">
<title>Node15&#45;&gt;Node16</title>
<path fill="none" stroke="midnightblue" d="M569.52,-530.44C575.52,-527.77 581.26,-524.36 586,-520 638.25,-472.02 659.91,-385.91 667.28,-347.46"/>
<polygon fill="midnightblue" stroke="midnightblue" points="670.73,-348.01 669.06,-337.55 663.84,-346.77 670.73,-348.01"/>
</g>
<!-- Node28 -->
<g id="node28" class="node">
<title>Node28</title>
<g id="a_node28"><a xlink:href="clset_8c.html#a236baf24659360891f944761f88a30f4" target="_top" xlink:title="Frees the set and the classifiers.">
<polygon fill="none" stroke="black" points="644,-575.5 644,-594.5 699,-594.5 699,-575.5 644,-575.5"/>
<text text-anchor="middle" x="671.5" y="-582.5" font-family="Helvetica,sans-Serif" font-size="10.00">clset_kill</text>
</a>
</g>
</g>
<!-- Node15&#45;&gt;Node28 -->
<g id="edge31" class="edge">
<title>Node15&#45;&gt;Node28</title>
<path fill="none" stroke="midnightblue" d="M557.83,-549.54C580.07,-556.54 610.36,-566.08 633.94,-573.5"/>
<polygon fill="midnightblue" stroke="midnightblue" points="633,-576.87 643.59,-576.53 635.1,-570.19 633,-576.87"/>
</g>
<!-- Node33 -->
<g id="node33" class="node">
<title>Node33</title>
<g id="a_node33"><a xlink:href="clset_8c.html#a5e05b1d84c921f8f83e90d636b2f59fd" target="_top" xlink:title="Enforces the maximum population size limit.">
<polygon fill="none" stroke="black" points="622,-526 622,-556 721,-556 721,-526 622,-526"/>
<text text-anchor="start" x="630" y="-544" font-family="Helvetica,sans-Serif" font-size="10.00">clset_pset_enforce</text>
<text text-anchor="middle" x="671.5" y="-533" font-family="Helvetica,sans-Serif" font-size="10.00">_limit</text>
</a>
</g>
</g>
<!-- Node15&#45;&gt;Node33 -->
<g id="edge36" class="edge">
<title>Node15&#45;&gt;Node33</title>
<path fill="none" stroke="midnightblue" d="M578.32,-540.36C589.14,-540.43 600.65,-540.51 611.73,-540.59"/>
<polygon fill="midnightblue" stroke="midnightblue" points="611.74,-544.09 621.76,-540.66 611.79,-537.09 611.74,-544.09"/>
</g>
<!-- Node16&#45;&gt;Node4 -->
<g id="edge19" class="edge">
<title>Node16&#45;&gt;Node4</title>
<path fill="none" stroke="midnightblue" d="M674.29,-318.33C680.29,-288.76 702.42,-198.73 757,-152 766.17,-144.15 778.5,-139.54 789.82,-136.84"/>
<polygon fill="midnightblue" stroke="midnightblue" points="790.69,-140.24 799.82,-134.85 789.33,-133.37 790.69,-140.24"/>
</g>
<!-- Node16&#45;&gt;Node5 -->
<g id="edge22" class="edge">
<title>Node16&#45;&gt;Node5</title>
<path fill="none" stroke="midnightblue" d="M681.73,-318.18C706.15,-292.19 772.71,-221.34 803.71,-188.34"/>
<polygon fill="midnightblue" stroke="midnightblue" points="806.48,-190.5 810.78,-180.82 801.38,-185.71 806.48,-190.5"/>
</g>
<!-- Node17 -->
<g id="node17" class="node">
<title>Node17</title>
<g id="a_node17"><a xlink:href="action_8h.html#a8ddc4aefec0235d2af07465f6d48e2ce" target="_top" xlink:title="Creates an action from a cJSON object.">
<polygon fill="none" stroke="black" points="778,-297.5 778,-316.5 864,-316.5 864,-297.5 778,-297.5"/>
<text text-anchor="middle" x="821" y="-304.5" font-family="Helvetica,sans-Serif" font-size="10.00">act_json_import</text>
</a>
</g>
</g>
<!-- Node16&#45;&gt;Node17 -->
<g id="edge16" class="edge">
<title>Node16&#45;&gt;Node17</title>
<path fill="none" stroke="midnightblue" d="M711.64,-322.43C728.85,-319.98 749.31,-317.06 767.8,-314.43"/>
<polygon fill="midnightblue" stroke="midnightblue" points="768.42,-317.88 777.83,-313 767.44,-310.95 768.42,-317.88"/>
</g>
<!-- Node20 -->
<g id="node20" class="node">
<title>Node20</title>
<g id="a_node20"><a xlink:href="cl_8c.html#abc78504adf8a6060fcc3ec25efecaee5" target="_top" xlink:title="Sets a classifier&#39;s current properties from a cJSON object.">
<polygon fill="none" stroke="black" points="763.5,-411.5 763.5,-430.5 878.5,-430.5 878.5,-411.5 763.5,-411.5"/>
<text text-anchor="middle" x="821" y="-418.5" font-family="Helvetica,sans-Serif" font-size="10.00">cl_json_import_current</text>
</a>
</g>
</g>
<!-- Node16&#45;&gt;Node20 -->
<g id="edge20" class="edge">
<title>Node16&#45;&gt;Node20</title>
<path fill="none" stroke="midnightblue" d="M680.88,-337.63C695.04,-353.32 725.28,-384.42 757,-402 760.93,-404.18 765.14,-406.13 769.44,-407.89"/>
<polygon fill="midnightblue" stroke="midnightblue" points="768.37,-411.22 778.97,-411.4 770.8,-404.66 768.37,-411.22"/>
</g>
<!-- Node21 -->
<g id="node21" class="node">
<title>Node21</title>
<g id="a_node21"><a xlink:href="cl_8c.html#ae1015eda0df557040383c6678e3f0840" target="_top" xlink:title="Sets a classifier&#39;s properties from a cJSON object.">
<polygon fill="none" stroke="black" points="757,-373.5 757,-392.5 885,-392.5 885,-373.5 757,-373.5"/>
<text text-anchor="middle" x="821" y="-380.5" font-family="Helvetica,sans-Serif" font-size="10.00">cl_json_import_properties</text>
</a>
</g>
</g>
<!-- Node16&#45;&gt;Node21 -->
<g id="edge21" class="edge">
<title>Node16&#45;&gt;Node21</title>
<path fill="none" stroke="midnightblue" d="M693.08,-337.52C710.04,-345.18 734.81,-355.96 757,-364 763.06,-366.2 769.51,-368.35 775.89,-370.37"/>
<polygon fill="midnightblue" stroke="midnightblue" points="775.18,-373.82 785.77,-373.42 777.25,-367.13 775.18,-373.82"/>
</g>
<!-- Node22 -->
<g id="node22" class="node">
<title>Node22</title>
<g id="a_node22"><a xlink:href="condition_8h.html#a8ccc134194a65daacdb42e62a8df050e" target="_top" xlink:title="Creates a condition from a cJSON object.">
<polygon fill="none" stroke="black" points="774.5,-259.5 774.5,-278.5 867.5,-278.5 867.5,-259.5 774.5,-259.5"/>
<text text-anchor="middle" x="821" y="-266.5" font-family="Helvetica,sans-Serif" font-size="10.00">cond_json_import</text>
</a>
</g>
</g>
<!-- Node16&#45;&gt;Node22 -->
<g id="edge23" class="edge">
<title>Node16&#45;&gt;Node22</title>
<path fill="none" stroke="midnightblue" d="M690.62,-318.46C707.5,-309.8 733.52,-297.04 757,-288 762.88,-285.74 769.14,-283.57 775.36,-281.56"/>
<polygon fill="midnightblue" stroke="midnightblue" points="776.53,-284.86 785.03,-278.54 774.44,-278.18 776.53,-284.86"/>
</g>
<!-- Node25 -->
<g id="node25" class="node">
<title>Node25</title>
<g id="a_node25"><a xlink:href="prediction_8h.html#a2e189fd3243b2e77d73b7fac5b52a9eb" target="_top" xlink:title="Creates a prediction from a cJSON object.">
<polygon fill="none" stroke="black" points="775.5,-335.5 775.5,-354.5 866.5,-354.5 866.5,-335.5 775.5,-335.5"/>
<text text-anchor="middle" x="821" y="-342.5" font-family="Helvetica,sans-Serif" font-size="10.00">pred_json_import</text>
</a>
</g>
</g>
<!-- Node16&#45;&gt;Node25 -->
<g id="edge26" class="edge">
<title>Node16&#45;&gt;Node25</title>
<path fill="none" stroke="midnightblue" d="M711.64,-332.51C728.05,-334.4 747.41,-336.63 765.2,-338.68"/>
<polygon fill="midnightblue" stroke="midnightblue" points="765.12,-342.2 775.46,-339.87 765.93,-335.24 765.12,-342.2"/>
</g>
<!-- Node18 -->
<g id="node18" class="node">
<title>Node18</title>
<g id="a_node18"><a xlink:href="action_8h.html#a38d3209ab8ce0417631ce2359f6590a7" target="_top" xlink:title="Returns the integer representation of an action type given a name.">
<polygon fill="none" stroke="black" points="934.5,-342.5 934.5,-361.5 1032.5,-361.5 1032.5,-342.5 934.5,-342.5"/>
<text text-anchor="middle" x="983.5" y="-349.5" font-family="Helvetica,sans-Serif" font-size="10.00">action_type_as_int</text>
</a>
</g>
</g>
<!-- Node17&#45;&gt;Node18 -->
<g id="edge17" class="edge">
<title>Node17&#45;&gt;Node18</title>
<path fill="none" stroke="midnightblue" d="M856.04,-316.54C880.19,-323.31 912.81,-332.46 938.88,-339.77"/>
<polygon fill="midnightblue" stroke="midnightblue" points="937.94,-343.14 948.51,-342.47 939.83,-336.4 937.94,-343.14"/>
</g>
<!-- Node19 -->
<g id="node19" class="node">
<title>Node19</title>
<g id="a_node19"><a xlink:href="action_8h.html#a92f612de02989e82ef6c52bc7384f24f" target="_top" xlink:title="Returns a string representation of an action type from an integer.">
<polygon fill="none" stroke="black" points="927.5,-304.5 927.5,-323.5 1039.5,-323.5 1039.5,-304.5 927.5,-304.5"/>
<text text-anchor="middle" x="983.5" y="-311.5" font-family="Helvetica,sans-Serif" font-size="10.00">action_type_as_string</text>
</a>
</g>
</g>
<!-- Node17&#45;&gt;Node19 -->
<g id="edge18" class="edge">
<title>Node17&#45;&gt;Node19</title>
<path fill="none" stroke="midnightblue" d="M864.17,-308.84C880.39,-309.55 899.32,-310.37 917.22,-311.15"/>
<polygon fill="midnightblue" stroke="midnightblue" points="917.18,-314.65 927.32,-311.59 917.48,-307.66 917.18,-314.65"/>
</g>
<!-- Node23 -->
<g id="node23" class="node">
<title>Node23</title>
<g id="a_node23"><a xlink:href="condition_8h.html#a654e570bc807e2c15a6d963b31d3caf2" target="_top" xlink:title="Returns the integer representation of a condition type given a name.">
<polygon fill="none" stroke="black" points="928,-266.5 928,-285.5 1039,-285.5 1039,-266.5 928,-266.5"/>
<text text-anchor="middle" x="983.5" y="-273.5" font-family="Helvetica,sans-Serif" font-size="10.00">condition_type_as_int</text>
</a>
</g>
</g>
<!-- Node22&#45;&gt;Node23 -->
<g id="edge24" class="edge">
<title>Node22&#45;&gt;Node23</title>
<path fill="none" stroke="midnightblue" d="M867.56,-270.99C883.14,-271.67 900.88,-272.44 917.69,-273.17"/>
<polygon fill="midnightblue" stroke="midnightblue" points="917.85,-276.68 928,-273.62 918.16,-269.69 917.85,-276.68"/>
</g>
<!-- Node24 -->
<g id="node24" class="node">
<title>Node24</title>
<g id="a_node24"><a xlink:href="condition_8h.html#af5a052e347755190271b32d8b09ec026" target="_top" xlink:title="Returns a string representation of a condition type from an integer.">
<polygon fill="none" stroke="black" points="921,-228.5 921,-247.5 1046,-247.5 1046,-228.5 921,-228.5"/>
<text text-anchor="middle" x="983.5" y="-235.5" font-family="Helvetica,sans-Serif" font-size="10.00">condition_type_as_string</text>
</a>
</g>
</g>
<!-- Node22&#45;&gt;Node24 -->
<g id="edge25" class="edge">
<title>Node22&#45;&gt;Node24</title>
<path fill="none" stroke="midnightblue" d="M867.56,-260.2C884.84,-256.86 904.78,-253.01 923.15,-249.46"/>
<polygon fill="midnightblue" stroke="midnightblue" points="924.01,-252.86 933.17,-247.53 922.69,-245.99 924.01,-252.86"/>
</g>
<!-- Node26 -->
<g id="node26" class="node">
<title>Node26</title>
<g id="a_node26"><a xlink:href="prediction_8h.html#a5f5a019c886d5bdf8bf9a3876a5a95bd" target="_top" xlink:title="Returns the integer representation of a prediction type given a name.">
<polygon fill="none" stroke="black" points="926.5,-430.5 926.5,-449.5 1040.5,-449.5 1040.5,-430.5 926.5,-430.5"/>
<text text-anchor="middle" x="983.5" y="-437.5" font-family="Helvetica,sans-Serif" font-size="10.00">prediction_type_as_int</text>
</a>
</g>
</g>
<!-- Node25&#45;&gt;Node26 -->
<g id="edge27" class="edge">
<title>Node25&#45;&gt;Node26</title>
<path fill="none" stroke="midnightblue" d="M866.62,-354.1C873.16,-356.64 879.53,-359.87 885,-364 908.62,-381.82 897.57,-401.93 921,-420 923.98,-422.29 927.22,-424.33 930.62,-426.14"/>
<polygon fill="midnightblue" stroke="midnightblue" points="929.34,-429.4 939.89,-430.4 932.27,-423.04 929.34,-429.4"/>
</g>
<!-- Node27 -->
<g id="node27" class="node">
<title>Node27</title>
<g id="a_node27"><a xlink:href="prediction_8h.html#a085a8402296bdeab95f54299040e6e0e" target="_top" xlink:title="Returns a string representation of a prediction type from the integer.">
<polygon fill="none" stroke="black" points="934.5,-381 934.5,-411 1032.5,-411 1032.5,-381 934.5,-381"/>
<text text-anchor="start" x="942.5" y="-399" font-family="Helvetica,sans-Serif" font-size="10.00">prediction_type_as</text>
<text text-anchor="middle" x="983.5" y="-388" font-family="Helvetica,sans-Serif" font-size="10.00">_string</text>
</a>
</g>
</g>
<!-- Node25&#45;&gt;Node27 -->
<g id="edge28" class="edge">
<title>Node25&#45;&gt;Node27</title>
<path fill="none" stroke="midnightblue" d="M854.1,-354.52C864.02,-357.5 874.97,-360.84 885,-364 898.81,-368.35 913.68,-373.16 927.54,-377.7"/>
<polygon fill="midnightblue" stroke="midnightblue" points="926.84,-381.16 937.43,-380.96 929.02,-374.51 926.84,-381.16"/>
</g>
<!-- Node29 -->
<g id="node29" class="node">
<title>Node29</title>
<g id="a_node29"><a xlink:href="cl_8c.html#ac45092c0e43651e8eeaa739766e3f069" target="_top" xlink:title="Frees the memory used by a classifier.">
<polygon fill="none" stroke="black" points="798,-614.5 798,-633.5 844,-633.5 844,-614.5 798,-614.5"/>
<text text-anchor="middle" x="821" y="-621.5" font-family="Helvetica,sans-Serif" font-size="10.00">cl_free</text>
</a>
</g>
</g>
<!-- Node28&#45;&gt;Node29 -->
<g id="edge32" class="edge">
<title>Node28&#45;&gt;Node29</title>
<path fill="none" stroke="midnightblue" d="M699.21,-592.06C724.13,-598.65 761.34,-608.49 787.87,-615.51"/>
<polygon fill="midnightblue" stroke="midnightblue" points="787.26,-618.96 797.82,-618.14 789.05,-612.2 787.26,-618.96"/>
</g>
<!-- Node30 -->
<g id="node30" class="node">
<title>Node30</title>
<g id="a_node30"><a xlink:href="action_8h.html#a81912970283c86f80c5b7a38f1865ebd" target="_top" xlink:title="Frees the memory used by the classifier action.">
<polygon fill="none" stroke="black" points="957.5,-671.5 957.5,-690.5 1009.5,-690.5 1009.5,-671.5 957.5,-671.5"/>
<text text-anchor="middle" x="983.5" y="-678.5" font-family="Helvetica,sans-Serif" font-size="10.00">act_free</text>
</a>
</g>
</g>
<!-- Node29&#45;&gt;Node30 -->
<g id="edge33" class="edge">
<title>Node29&#45;&gt;Node30</title>
<path fill="none" stroke="midnightblue" d="M844.25,-633.03C864.22,-641.02 894.38,-652.79 921,-662 929.5,-664.94 938.74,-667.91 947.41,-670.6"/>
<polygon fill="midnightblue" stroke="midnightblue" points="946.66,-674.03 957.24,-673.61 948.7,-667.34 946.66,-674.03"/>
</g>
<!-- Node31 -->
<g id="node31" class="node">
<title>Node31</title>
<g id="a_node31"><a xlink:href="condition_8h.html#a2f342b5e29e020e139112cf99887b4c5" target="_top" xlink:title="Frees the memory used by the classifier condition.">
<polygon fill="none" stroke="black" points="954,-633.5 954,-652.5 1013,-652.5 1013,-633.5 954,-633.5"/>
<text text-anchor="middle" x="983.5" y="-640.5" font-family="Helvetica,sans-Serif" font-size="10.00">cond_free</text>
</a>
</g>
</g>
<!-- Node29&#45;&gt;Node31 -->
<g id="edge34" class="edge">
<title>Node29&#45;&gt;Node31</title>
<path fill="none" stroke="midnightblue" d="M844.32,-626.64C870.01,-629.68 912.67,-634.73 943.8,-638.42"/>
<polygon fill="midnightblue" stroke="midnightblue" points="943.53,-641.91 953.88,-639.61 944.36,-634.96 943.53,-641.91"/>
</g>
<!-- Node32 -->
<g id="node32" class="node">
<title>Node32</title>
<g id="a_node32"><a xlink:href="prediction_8h.html#af19eafd52548ede9b90594c8b8949098" target="_top" xlink:title="Frees the memory used by the classifier prediction.">
<polygon fill="none" stroke="black" points="955,-595.5 955,-614.5 1012,-614.5 1012,-595.5 955,-595.5"/>
<text text-anchor="middle" x="983.5" y="-602.5" font-family="Helvetica,sans-Serif" font-size="10.00">pred_free</text>
</a>
</g>
</g>
<!-- Node29&#45;&gt;Node32 -->
<g id="edge35" class="edge">
<title>Node29&#45;&gt;Node32</title>
<path fill="none" stroke="midnightblue" d="M844.32,-621.36C870.24,-618.29 913.44,-613.18 944.64,-609.48"/>
<polygon fill="midnightblue" stroke="midnightblue" points="945.2,-612.94 954.72,-608.29 944.38,-605.99 945.2,-612.94"/>
</g>
<!-- Node34 -->
<g id="node34" class="node">
<title>Node34</title>
<g id="a_node34"><a xlink:href="clset_8c.html#a106a72afb7785af1d1b639736a6340be" target="_top" xlink:title="Deletes a single classifier from the population set.">
<polygon fill="none" stroke="black" points="781,-525.5 781,-544.5 861,-544.5 861,-525.5 781,-525.5"/>
<text text-anchor="middle" x="821" y="-532.5" font-family="Helvetica,sans-Serif" font-size="10.00">clset_pset_del</text>
</a>
</g>
</g>
<!-- Node33&#45;&gt;Node34 -->
<g id="edge37" class="edge">
<title>Node33&#45;&gt;Node34</title>
<path fill="none" stroke="midnightblue" d="M721.21,-539.02C737.04,-538.37 754.62,-537.66 770.51,-537.01"/>
<polygon fill="midnightblue" stroke="midnightblue" points="770.82,-540.5 780.67,-536.6 770.53,-533.51 770.82,-540.5"/>
</g>
<!-- Node34&#45;&gt;Node12 -->
<g id="edge38" class="edge">
<title>Node34&#45;&gt;Node12</title>
<path fill="none" stroke="midnightblue" d="M856.83,-525.45C882.58,-518.39 917.63,-508.78 944.18,-501.51"/>
<polygon fill="midnightblue" stroke="midnightblue" points="945.18,-504.86 953.9,-498.84 943.33,-498.11 945.18,-504.86"/>
</g>
<!-- Node35 -->
<g id="node35" class="node">
<title>Node35</title>
<g id="a_node35"><a xlink:href="clset_8c.html#a7e9703db2e290a5b852b1112f52f4803" target="_top" xlink:title="Finds a rule in the population that never matches an input.">
<polygon fill="none" stroke="black" points="922,-519.5 922,-538.5 1045,-538.5 1045,-519.5 922,-519.5"/>
<text text-anchor="middle" x="983.5" y="-526.5" font-family="Helvetica,sans-Serif" font-size="10.00">clset_pset_never_match</text>
</a>
</g>
</g>
<!-- Node34&#45;&gt;Node35 -->
<g id="edge39" class="edge">
<title>Node34&#45;&gt;Node35</title>
<path fill="none" stroke="midnightblue" d="M861.26,-533.53C876.47,-532.96 894.36,-532.3 911.66,-531.65"/>
<polygon fill="midnightblue" stroke="midnightblue" points="911.88,-535.14 921.75,-531.27 911.62,-528.15 911.88,-535.14"/>
</g>
<!-- Node36 -->
<g id="node36" class="node">
<title>Node36</title>
<g id="a_node36"><a xlink:href="clset_8c.html#a7ddb1248094ce9b41cf314b833798b29" target="_top" xlink:title="Selects a classifier from the population for deletion via roulette.">
<polygon fill="none" stroke="black" points="934,-557.5 934,-576.5 1033,-576.5 1033,-557.5 934,-557.5"/>
<text text-anchor="middle" x="983.5" y="-564.5" font-family="Helvetica,sans-Serif" font-size="10.00">clset_pset_roulette</text>
</a>
</g>
</g>
<!-- Node34&#45;&gt;Node36 -->
<g id="edge40" class="edge">
<title>Node34&#45;&gt;Node36</title>
<path fill="none" stroke="midnightblue" d="M861.26,-542.83C880.41,-546.65 903.81,-551.31 924.93,-555.52"/>
<polygon fill="midnightblue" stroke="midnightblue" points="924.28,-558.96 934.77,-557.48 925.65,-552.1 924.28,-558.96"/>
</g>
<!-- Node37 -->
<g id="node37" class="node">
<title>Node37</title>
<g id="a_node37"><a xlink:href="cl_8c.html#a281f748c300892281088a51455c6657b" target="_top" xlink:title="Returns the size of a classifier&#39;s condition.">
<polygon fill="none" stroke="black" points="1082.5,-633.5 1082.5,-652.5 1156.5,-652.5 1156.5,-633.5 1082.5,-633.5"/>
<text text-anchor="middle" x="1119.5" y="-640.5" font-family="Helvetica,sans-Serif" font-size="10.00">cl_cond_size</text>
</a>
</g>
</g>
<!-- Node36&#45;&gt;Node37 -->
<g id="edge41" class="edge">
<title>Node36&#45;&gt;Node37</title>
<path fill="none" stroke="midnightblue" d="M1025.82,-576.54C1032.83,-579.05 1039.83,-582.17 1046,-586 1065.76,-598.28 1063.43,-609.99 1082,-624 1084.05,-625.54 1086.24,-627.03 1088.49,-628.44"/>
<polygon fill="midnightblue" stroke="midnightblue" points="1086.9,-631.56 1097.32,-633.49 1090.37,-625.48 1086.9,-631.56"/>
</g>
<!-- Node39 -->
<g id="node39" class="node">
<title>Node39</title>
<g id="a_node39"><a xlink:href="cl_8c.html#ae083f9dc65912cf983795d134006e236" target="_top" xlink:title="Returns the deletion vote of a classifier.">
<polygon fill="none" stroke="black" points="1086.5,-595.5 1086.5,-614.5 1152.5,-614.5 1152.5,-595.5 1086.5,-595.5"/>
<text text-anchor="middle" x="1119.5" y="-602.5" font-family="Helvetica,sans-Serif" font-size="10.00">cl_del_vote</text>
</a>
</g>
</g>
<!-- Node36&#45;&gt;Node39 -->
<g id="edge43" class="edge">
<title>Node36&#45;&gt;Node39</title>
<path fill="none" stroke="midnightblue" d="M1018.31,-576.59C1035.93,-581.58 1057.63,-587.74 1076.33,-593.04"/>
<polygon fill="midnightblue" stroke="midnightblue" points="1075.51,-596.45 1086.08,-595.81 1077.42,-589.71 1075.51,-596.45"/>
</g>
<!-- Node40 -->
<g id="node40" class="node">
<title>Node40</title>
<g id="a_node40"><a xlink:href="cl_8c.html#a038173dbbcd18ef6820dfb07e7ea0d39" target="_top" xlink:title="Returns the size of a classifier&#39;s prediction.">
<polygon fill="none" stroke="black" points="1084,-557.5 1084,-576.5 1155,-576.5 1155,-557.5 1084,-557.5"/>
<text text-anchor="middle" x="1119.5" y="-564.5" font-family="Helvetica,sans-Serif" font-size="10.00">cl_pred_size</text>
</a>
</g>
</g>
<!-- Node36&#45;&gt;Node40 -->
<g id="edge44" class="edge">
<title>Node36&#45;&gt;Node40</title>
<path fill="none" stroke="midnightblue" d="M1033.26,-567C1046.48,-567 1060.74,-567 1073.73,-567"/>
<polygon fill="midnightblue" stroke="midnightblue" points="1073.84,-570.5 1083.84,-567 1073.84,-563.5 1073.84,-570.5"/>
</g>
<!-- Node42 -->
<g id="node42" class="node">
<title>Node42</title>
<g id="a_node42"><a xlink:href="clset_8c.html#a27da8860873485883cc85edfac13da87" target="_top" xlink:title="Calculates the total fitness of classifiers in the set.">
<polygon fill="none" stroke="black" points="1082,-519.5 1082,-538.5 1157,-538.5 1157,-519.5 1082,-519.5"/>
<text text-anchor="middle" x="1119.5" y="-526.5" font-family="Helvetica,sans-Serif" font-size="10.00">clset_total_fit</text>
</a>
</g>
</g>
<!-- Node36&#45;&gt;Node42 -->
<g id="edge46" class="edge">
<title>Node36&#45;&gt;Node42</title>
<path fill="none" stroke="midnightblue" d="M1018.31,-557.41C1035.53,-552.53 1056.66,-546.54 1075.07,-541.32"/>
<polygon fill="midnightblue" stroke="midnightblue" points="1076.03,-544.68 1084.7,-538.59 1074.12,-537.95 1076.03,-544.68"/>
</g>
<!-- Node43 -->
<g id="node43" class="node">
<title>Node43</title>
<g id="a_node43"><a xlink:href="utils_8c.html#a972761ba8f47a6c3e7396a7c685158fc" target="_top" xlink:title="Returns a uniform random float [min,max].">
<polygon fill="none" stroke="black" points="1083,-481.5 1083,-500.5 1156,-500.5 1156,-481.5 1083,-481.5"/>
<text text-anchor="middle" x="1119.5" y="-488.5" font-family="Helvetica,sans-Serif" font-size="10.00">rand_uniform</text>
</a>
</g>
</g>
<!-- Node36&#45;&gt;Node43 -->
<g id="edge47" class="edge">
<title>Node36&#45;&gt;Node43</title>
<path fill="none" stroke="midnightblue" d="M1025.82,-557.46C1032.83,-554.95 1039.83,-551.83 1046,-548 1065.76,-535.72 1063.43,-524.01 1082,-510 1084.05,-508.46 1086.24,-506.97 1088.49,-505.56"/>
<polygon fill="midnightblue" stroke="midnightblue" points="1090.37,-508.52 1097.32,-500.51 1086.9,-502.44 1090.37,-508.52"/>
</g>
<!-- Node38 -->
<g id="node38" class="node">
<title>Node38</title>
<g id="a_node38"><a xlink:href="condition_8h.html#ab5392bcc5c6bee45ac2612c7c560be5c" target="_top" xlink:title="Returns the size of the classifier condition.">
<polygon fill="none" stroke="black" points="1193,-633.5 1193,-652.5 1254,-652.5 1254,-633.5 1193,-633.5"/>
<text text-anchor="middle" x="1223.5" y="-640.5" font-family="Helvetica,sans-Serif" font-size="10.00">cond_size</text>
</a>
</g>
</g>
<!-- Node37&#45;&gt;Node38 -->
<g id="edge42" class="edge">
<title>Node37&#45;&gt;Node38</title>
<path fill="none" stroke="midnightblue" d="M1156.75,-643C1165.13,-643 1174.1,-643 1182.63,-643"/>
<polygon fill="midnightblue" stroke="midnightblue" points="1182.76,-646.5 1192.76,-643 1182.76,-639.5 1182.76,-646.5"/>
</g>
<!-- Node41 -->
<g id="node41" class="node">
<title>Node41</title>
<g id="a_node41"><a xlink:href="prediction_8h.html#a0ac1eb269367fc7adb967e3cb4b2db50" target="_top" xlink:title="Returns the size of the classifier prediction.">
<polygon fill="none" stroke="black" points="1194,-557.5 1194,-576.5 1253,-576.5 1253,-557.5 1194,-557.5"/>
<text text-anchor="middle" x="1223.5" y="-564.5" font-family="Helvetica,sans-Serif" font-size="10.00">pred_size</text>
</a>
</g>
</g>
<!-- Node40&#45;&gt;Node41 -->
<g id="edge45" class="edge">
<title>Node40&#45;&gt;Node41</title>
<path fill="none" stroke="midnightblue" d="M1155.03,-567C1164.19,-567 1174.13,-567 1183.51,-567"/>
<polygon fill="midnightblue" stroke="midnightblue" points="1183.77,-570.5 1193.77,-567 1183.77,-563.5 1183.77,-570.5"/>
</g>
</g>
</svg>
