<?xml version="1.0" encoding="UTF-8" standalone="no"?>
<!DOCTYPE svg PUBLIC "-//W3C//DTD SVG 1.1//EN"
 "http://www.w3.org/Graphics/SVG/1.1/DTD/svg11.dtd">
<!-- Generated by graphviz version 2.43.0 (0)
 -->
<!-- Title: xcsf.c Pages: 1 -->
<svg width="862pt" height="308pt"
 viewBox="0.00 0.00 861.50 308.00" xmlns="http://www.w3.org/2000/svg" xmlns:xlink="http://www.w3.org/1999/xlink">
<g id="graph0" class="graph" transform="scale(1 1) rotate(0) translate(4 304)">
<title>xcsf.c</title>
<!-- Node1 -->
<g id="node1" class="node">
<title>Node1</title>
<g id="a_node1"><a xlink:title="System&#45;level functions for initialising, saving, loading, etc.">
<polygon fill="#bfbfbf" stroke="black" points="231.5,-280.5 231.5,-299.5 275.5,-299.5 275.5,-280.5 231.5,-280.5"/>
<text text-anchor="middle" x="253.5" y="-287.5" font-family="Helvetica,sans-Serif" font-size="10.00">xcsf.c</text>
</a>
</g>
</g>
<!-- Node2 -->
<g id="node2" class="node">
<title>Node2</title>
<g id="a_node2"><a xlink:href="cl_8h.html" target="_top" xlink:title="Functions operating on classifiers.">
<polygon fill="none" stroke="black" points="183.5,-168.5 183.5,-187.5 215.5,-187.5 215.5,-168.5 183.5,-168.5"/>
<text text-anchor="middle" x="199.5" y="-175.5" font-family="Helvetica,sans-Serif" font-size="10.00">cl.h</text>
</a>
</g>
</g>
<!-- Node1&#45;&gt;Node2 -->
<g id="edge1" class="edge">
<title>Node1&#45;&gt;Node2</title>
<path fill="none" stroke="midnightblue" d="M249.26,-280.37C240.43,-262.38 219.9,-220.55 208.15,-196.63"/>
<polygon fill="midnightblue" stroke="midnightblue" points="211.27,-195.03 203.72,-187.59 204.98,-198.11 211.27,-195.03"/>
</g>
<!-- Node17 -->
<g id="node17" class="node">
<title>Node17</title>
<g id="a_node17"><a xlink:href="clset_8h.html" target="_top" xlink:title="Functions operating on sets of classifiers.">
<polygon fill="none" stroke="black" points="141.5,-224.5 141.5,-243.5 187.5,-243.5 187.5,-224.5 141.5,-224.5"/>
<text text-anchor="middle" x="164.5" y="-231.5" font-family="Helvetica,sans-Serif" font-size="10.00">clset.h</text>
</a>
</g>
</g>
<!-- Node1&#45;&gt;Node17 -->
<g id="edge19" class="edge">
<title>Node1&#45;&gt;Node17</title>
<path fill="none" stroke="midnightblue" d="M239.2,-280.32C225.32,-271.9 204.01,-258.97 187.7,-249.07"/>
<polygon fill="midnightblue" stroke="midnightblue" points="189.13,-245.85 178.76,-243.65 185.5,-251.83 189.13,-245.85"/>
</g>
<!-- Node18 -->
<g id="node18" class="node">
<title>Node18</title>
<g id="a_node18"><a xlink:href="cond__neural_8h.html" target="_top" xlink:title="Multi&#45;layer perceptron neural network condition functions.">
<polygon fill="none" stroke="black" points="582,-224.5 582,-243.5 659,-243.5 659,-224.5 582,-224.5"/>
<text text-anchor="middle" x="620.5" y="-231.5" font-family="Helvetica,sans-Serif" font-size="10.00">cond_neural.h</text>
</a>
</g>
</g>
<!-- Node1&#45;&gt;Node18 -->
<g id="edge21" class="edge">
<title>Node1&#45;&gt;Node18</title>
<path fill="none" stroke="midnightblue" d="M275.63,-285.74C333.62,-277.21 491.06,-254.05 571.6,-242.19"/>
<polygon fill="midnightblue" stroke="midnightblue" points="572.59,-245.59 581.97,-240.67 571.57,-238.66 572.59,-245.59"/>
</g>
<!-- Node24 -->
<g id="node24" class="node">
<title>Node24</title>
<g id="a_node24"><a xlink:href="loss_8h.html" target="_top" xlink:title="Loss functions for calculating prediction error.">
<polygon fill="none" stroke="black" points="234,-168.5 234,-187.5 277,-187.5 277,-168.5 234,-168.5"/>
<text text-anchor="middle" x="255.5" y="-175.5" font-family="Helvetica,sans-Serif" font-size="10.00">loss.h</text>
</a>
</g>
</g>
<!-- Node1&#45;&gt;Node24 -->
<g id="edge37" class="edge">
<title>Node1&#45;&gt;Node24</title>
<path fill="none" stroke="midnightblue" d="M253.66,-280.37C253.98,-262.62 254.72,-221.67 255.16,-197.6"/>
<polygon fill="midnightblue" stroke="midnightblue" points="258.66,-197.65 255.34,-187.59 251.66,-197.53 258.66,-197.65"/>
</g>
<!-- Node25 -->
<g id="node25" class="node">
<title>Node25</title>
<g id="a_node25"><a xlink:href="pa_8h.html" target="_top" xlink:title="Prediction array functions.">
<polygon fill="none" stroke="black" points="88,-224.5 88,-243.5 123,-243.5 123,-224.5 88,-224.5"/>
<text text-anchor="middle" x="105.5" y="-231.5" font-family="Helvetica,sans-Serif" font-size="10.00">pa.h</text>
</a>
</g>
</g>
<!-- Node1&#45;&gt;Node25 -->
<g id="edge39" class="edge">
<title>Node1&#45;&gt;Node25</title>
<path fill="none" stroke="midnightblue" d="M231.34,-280.92C205.06,-271.32 161.23,-255.34 132.86,-244.98"/>
<polygon fill="midnightblue" stroke="midnightblue" points="133.76,-241.58 123.16,-241.44 131.36,-248.16 133.76,-241.58"/>
</g>
<!-- Node26 -->
<g id="node26" class="node">
<title>Node26</title>
<g id="a_node26"><a xlink:href="param_8h.html" target="_top" xlink:title="Functions for setting and printing parameters.">
<polygon fill="none" stroke="black" points="281.5,-224.5 281.5,-243.5 333.5,-243.5 333.5,-224.5 281.5,-224.5"/>
<text text-anchor="middle" x="307.5" y="-231.5" font-family="Helvetica,sans-Serif" font-size="10.00">param.h</text>
</a>
</g>
</g>
<!-- Node1&#45;&gt;Node26 -->
<g id="edge41" class="edge">
<title>Node1&#45;&gt;Node26</title>
<path fill="none" stroke="midnightblue" d="M262.42,-280.08C270.28,-272.22 281.93,-260.57 291.42,-251.08"/>
<polygon fill="midnightblue" stroke="midnightblue" points="294.15,-253.3 298.75,-243.75 289.2,-248.35 294.15,-253.3"/>
</g>
<!-- Node27 -->
<g id="node27" class="node">
<title>Node27</title>
<g id="a_node27"><a xlink:href="pred__neural_8h.html" target="_top" xlink:title="Multi&#45;layer perceptron neural network prediction functions.">
<polygon fill="none" stroke="black" points="399,-224.5 399,-243.5 474,-243.5 474,-224.5 399,-224.5"/>
<text text-anchor="middle" x="436.5" y="-231.5" font-family="Helvetica,sans-Serif" font-size="10.00">pred_neural.h</text>
</a>
</g>
</g>
<!-- Node1&#45;&gt;Node27 -->
<g id="edge44" class="edge">
<title>Node1&#45;&gt;Node27</title>
<path fill="none" stroke="midnightblue" d="M275.57,-282.49C305.73,-273.59 360.28,-257.49 397.43,-246.53"/>
<polygon fill="midnightblue" stroke="midnightblue" points="398.81,-249.77 407.41,-243.58 396.83,-243.06 398.81,-249.77"/>
</g>
<!-- Node3 -->
<g id="node3" class="node">
<title>Node3</title>
<g id="a_node3"><a xlink:href="xcsf_8h.html" target="_top" xlink:title="XCSF data structures.">
<polygon fill="none" stroke="black" points="290.5,-112.5 290.5,-131.5 334.5,-131.5 334.5,-112.5 290.5,-112.5"/>
<text text-anchor="middle" x="312.5" y="-119.5" font-family="Helvetica,sans-Serif" font-size="10.00">xcsf.h</text>
</a>
</g>
</g>
<!-- Node2&#45;&gt;Node3 -->
<g id="edge2" class="edge">
<title>Node2&#45;&gt;Node3</title>
<path fill="none" stroke="midnightblue" d="M215.69,-169.26C233.87,-160.58 263.67,-146.33 285.41,-135.94"/>
<polygon fill="midnightblue" stroke="midnightblue" points="286.96,-139.08 294.47,-131.62 283.94,-132.77 286.96,-139.08"/>
</g>
<!-- Node4 -->
<g id="node4" class="node">
<title>Node4</title>
<g id="a_node4"><a xlink:href="utils_8h.html" target="_top" xlink:title="Utility functions for random number handling, etc.">
<polygon fill="none" stroke="black" points="633,-56.5 633,-75.5 676,-75.5 676,-56.5 633,-56.5"/>
<text text-anchor="middle" x="654.5" y="-63.5" font-family="Helvetica,sans-Serif" font-size="10.00">utils.h</text>
</a>
</g>
</g>
<!-- Node3&#45;&gt;Node4 -->
<g id="edge3" class="edge">
<title>Node3&#45;&gt;Node4</title>
<path fill="none" stroke="midnightblue" d="M334.68,-117.5C393.55,-108.2 553.94,-82.88 622.61,-72.03"/>
<polygon fill="midnightblue" stroke="midnightblue" points="623.48,-75.44 632.82,-70.42 622.39,-68.53 623.48,-75.44"/>
</g>
<!-- Node7 -->
<g id="node7" class="node">
<title>Node7</title>
<g id="a_node7"><a xlink:title=" ">
<polygon fill="none" stroke="#bfbfbf" points="778,-0.5 778,-19.5 825,-19.5 825,-0.5 778,-0.5"/>
<text text-anchor="middle" x="801.5" y="-7.5" font-family="Helvetica,sans-Serif" font-size="10.00">math.h</text>
</a>
</g>
</g>
<!-- Node3&#45;&gt;Node7 -->
<g id="edge13" class="edge">
<title>Node3&#45;&gt;Node7</title>
<path fill="none" stroke="midnightblue" d="M334.95,-119.44C405.1,-114.39 619.46,-97.55 685.5,-76 721.57,-64.23 759.14,-40.78 781.41,-25.5"/>
<polygon fill="midnightblue" stroke="midnightblue" points="783.52,-28.3 789.71,-19.7 779.5,-22.56 783.52,-28.3"/>
</g>
<!-- Node8 -->
<g id="node8" class="node">
<title>Node8</title>
<g id="a_node8"><a xlink:title=" ">
<polygon fill="none" stroke="#bfbfbf" points="383.5,-0.5 383.5,-19.5 429.5,-19.5 429.5,-0.5 383.5,-0.5"/>
<text text-anchor="middle" x="406.5" y="-7.5" font-family="Helvetica,sans-Serif" font-size="10.00">stdio.h</text>
</a>
</g>
</g>
<!-- Node3&#45;&gt;Node8 -->
<g id="edge16" class="edge">
<title>Node3&#45;&gt;Node8</title>
<path fill="none" stroke="midnightblue" d="M308.26,-112.19C302.54,-98.87 294.25,-73.33 305.5,-56 320.43,-33 350.15,-21.66 373.5,-16.12"/>
<polygon fill="midnightblue" stroke="midnightblue" points="374.33,-19.52 383.38,-14.03 372.88,-12.68 374.33,-19.52"/>
</g>
<!-- Node9 -->
<g id="node9" class="node">
<title>Node9</title>
<g id="a_node9"><a xlink:title=" ">
<polygon fill="none" stroke="#bfbfbf" points="447.5,-0.5 447.5,-19.5 495.5,-19.5 495.5,-0.5 447.5,-0.5"/>
<text text-anchor="middle" x="471.5" y="-7.5" font-family="Helvetica,sans-Serif" font-size="10.00">stdlib.h</text>
</a>
</g>
</g>
<!-- Node3&#45;&gt;Node9 -->
<g id="edge17" class="edge">
<title>Node3&#45;&gt;Node9</title>
<path fill="none" stroke="midnightblue" d="M313.66,-112.12C315.94,-98.23 322.26,-71.38 338.5,-56 345.92,-48.97 400.71,-31.83 437.61,-20.85"/>
<polygon fill="midnightblue" stroke="midnightblue" points="438.9,-24.12 447.49,-17.93 436.91,-17.41 438.9,-24.12"/>
</g>
<!-- Node10 -->
<g id="node10" class="node">
<title>Node10</title>
<g id="a_node10"><a xlink:title=" ">
<polygon fill="none" stroke="#bfbfbf" points="0,-56.5 0,-75.5 47,-75.5 47,-56.5 0,-56.5"/>
<text text-anchor="middle" x="23.5" y="-63.5" font-family="Helvetica,sans-Serif" font-size="10.00">errno.h</text>
</a>
</g>
</g>
<!-- Node3&#45;&gt;Node10 -->
<g id="edge9" class="edge">
<title>Node3&#45;&gt;Node10</title>
<path fill="none" stroke="midnightblue" d="M290.45,-117.83C247.48,-111.49 149.38,-96.3 57.01,-75.93"/>
<polygon fill="midnightblue" stroke="midnightblue" points="57.75,-72.51 47.23,-73.75 56.23,-79.35 57.75,-72.51"/>
</g>
<!-- Node11 -->
<g id="node11" class="node">
<title>Node11</title>
<g id="a_node11"><a xlink:title=" ">
<polygon fill="none" stroke="#bfbfbf" points="65.5,-56.5 65.5,-75.5 109.5,-75.5 109.5,-56.5 65.5,-56.5"/>
<text text-anchor="middle" x="87.5" y="-63.5" font-family="Helvetica,sans-Serif" font-size="10.00">float.h</text>
</a>
</g>
</g>
<!-- Node3&#45;&gt;Node11 -->
<g id="edge10" class="edge">
<title>Node3&#45;&gt;Node11</title>
<path fill="none" stroke="midnightblue" d="M290.29,-116.26C255.84,-108.82 187.22,-93.66 119.75,-76.22"/>
<polygon fill="midnightblue" stroke="midnightblue" points="120.37,-72.77 109.81,-73.64 118.61,-79.54 120.37,-72.77"/>
</g>
<!-- Node12 -->
<g id="node12" class="node">
<title>Node12</title>
<g id="a_node12"><a xlink:title=" ">
<polygon fill="none" stroke="#bfbfbf" points="128,-56.5 128,-75.5 187,-75.5 187,-56.5 128,-56.5"/>
<text text-anchor="middle" x="157.5" y="-63.5" font-family="Helvetica,sans-Serif" font-size="10.00">inttypes.h</text>
</a>
</g>
</g>
<!-- Node3&#45;&gt;Node12 -->
<g id="edge11" class="edge">
<title>Node3&#45;&gt;Node12</title>
<path fill="none" stroke="midnightblue" d="M290.29,-113.26C264.5,-104.28 221.65,-89.35 191.62,-78.89"/>
<polygon fill="midnightblue" stroke="midnightblue" points="192.56,-75.51 181.97,-75.52 190.26,-82.12 192.56,-75.51"/>
</g>
<!-- Node13 -->
<g id="node13" class="node">
<title>Node13</title>
<g id="a_node13"><a xlink:title=" ">
<polygon fill="none" stroke="#bfbfbf" points="205.5,-56.5 205.5,-75.5 253.5,-75.5 253.5,-56.5 205.5,-56.5"/>
<text text-anchor="middle" x="229.5" y="-63.5" font-family="Helvetica,sans-Serif" font-size="10.00">limits.h</text>
</a>
</g>
</g>
<!-- Node3&#45;&gt;Node13 -->
<g id="edge12" class="edge">
<title>Node3&#45;&gt;Node13</title>
<path fill="none" stroke="midnightblue" d="M299.16,-112.32C286.34,-103.98 266.72,-91.21 251.56,-81.35"/>
<polygon fill="midnightblue" stroke="midnightblue" points="253.09,-78.17 242.8,-75.65 249.28,-84.04 253.09,-78.17"/>
</g>
<!-- Node14 -->
<g id="node14" class="node">
<title>Node14</title>
<g id="a_node14"><a xlink:title=" ">
<polygon fill="none" stroke="#bfbfbf" points="347.5,-56.5 347.5,-75.5 403.5,-75.5 403.5,-56.5 347.5,-56.5"/>
<text text-anchor="middle" x="375.5" y="-63.5" font-family="Helvetica,sans-Serif" font-size="10.00">stdbool.h</text>
</a>
</g>
</g>
<!-- Node3&#45;&gt;Node14 -->
<g id="edge14" class="edge">
<title>Node3&#45;&gt;Node14</title>
<path fill="none" stroke="midnightblue" d="M322.62,-112.32C332.03,-104.26 346.24,-92.08 357.57,-82.37"/>
<polygon fill="midnightblue" stroke="midnightblue" points="359.88,-85 365.19,-75.83 355.32,-79.68 359.88,-85"/>
</g>
<!-- Node15 -->
<g id="node15" class="node">
<title>Node15</title>
<g id="a_node15"><a xlink:title=" ">
<polygon fill="none" stroke="#bfbfbf" points="422,-56.5 422,-75.5 471,-75.5 471,-56.5 422,-56.5"/>
<text text-anchor="middle" x="446.5" y="-63.5" font-family="Helvetica,sans-Serif" font-size="10.00">stdint.h</text>
</a>
</g>
</g>
<!-- Node3&#45;&gt;Node15 -->
<g id="edge15" class="edge">
<title>Node3&#45;&gt;Node15</title>
<path fill="none" stroke="midnightblue" d="M333.73,-112.44C355.88,-103.52 390.82,-89.44 415.94,-79.32"/>
<polygon fill="midnightblue" stroke="midnightblue" points="417.4,-82.5 425.37,-75.52 414.78,-76.01 417.4,-82.5"/>
</g>
<!-- Node16 -->
<g id="node16" class="node">
<title>Node16</title>
<g id="a_node16"><a xlink:title=" ">
<polygon fill="none" stroke="#bfbfbf" points="489,-56.5 489,-75.5 538,-75.5 538,-56.5 489,-56.5"/>
<text text-anchor="middle" x="513.5" y="-63.5" font-family="Helvetica,sans-Serif" font-size="10.00">string.h</text>
</a>
</g>
</g>
<!-- Node3&#45;&gt;Node16 -->
<g id="edge18" class="edge">
<title>Node3&#45;&gt;Node16</title>
<path fill="none" stroke="midnightblue" d="M334.52,-115.13C364.88,-107.04 421.53,-91.92 479.02,-76.39"/>
<polygon fill="midnightblue" stroke="midnightblue" points="480.25,-79.68 489,-73.7 478.43,-72.93 480.25,-79.68"/>
</g>
<!-- Node5 -->
<g id="node5" class="node">
<title>Node5</title>
<g id="a_node5"><a xlink:title=" ">
<polygon fill="none" stroke="#bfbfbf" points="645.5,-0.5 645.5,-19.5 759.5,-19.5 759.5,-0.5 645.5,-0.5"/>
<text text-anchor="middle" x="702.5" y="-7.5" font-family="Helvetica,sans-Serif" font-size="10.00">../lib/cJSON/cJSON.h</text>
</a>
</g>
</g>
<!-- Node4&#45;&gt;Node5 -->
<g id="edge4" class="edge">
<title>Node4&#45;&gt;Node5</title>
<path fill="none" stroke="midnightblue" d="M662.43,-56.08C669.35,-48.3 679.57,-36.8 687.95,-27.37"/>
<polygon fill="midnightblue" stroke="midnightblue" points="690.69,-29.55 694.72,-19.75 685.46,-24.9 690.69,-29.55"/>
</g>
<!-- Node6 -->
<g id="node6" class="node">
<title>Node6</title>
<g id="a_node6"><a xlink:title=" ">
<polygon fill="none" stroke="#bfbfbf" points="514,-0.5 514,-19.5 627,-19.5 627,-0.5 514,-0.5"/>
<text text-anchor="middle" x="570.5" y="-7.5" font-family="Helvetica,sans-Serif" font-size="10.00">../lib/dSFMT/dSFMT.h</text>
</a>
</g>
</g>
<!-- Node4&#45;&gt;Node6 -->
<g id="edge5" class="edge">
<title>Node4&#45;&gt;Node6</title>
<path fill="none" stroke="midnightblue" d="M641,-56.32C627.9,-47.9 607.79,-34.97 592.39,-25.07"/>
<polygon fill="midnightblue" stroke="midnightblue" points="594.27,-22.12 583.96,-19.65 590.48,-28.01 594.27,-22.12"/>
</g>
<!-- Node4&#45;&gt;Node7 -->
<g id="edge6" class="edge">
<title>Node4&#45;&gt;Node7</title>
<path fill="none" stroke="midnightblue" d="M676.19,-57.03C700.62,-48.06 740.6,-33.37 768.82,-23.01"/>
<polygon fill="midnightblue" stroke="midnightblue" points="770.08,-26.27 778.26,-19.54 767.67,-19.7 770.08,-26.27"/>
</g>
<!-- Node4&#45;&gt;Node8 -->
<g id="edge7" class="edge">
<title>Node4&#45;&gt;Node8</title>
<path fill="none" stroke="midnightblue" d="M632.93,-61.02C595.53,-54 516.07,-38.62 439.35,-20.07"/>
<polygon fill="midnightblue" stroke="midnightblue" points="440.07,-16.65 429.52,-17.68 438.41,-23.45 440.07,-16.65"/>
</g>
<!-- Node4&#45;&gt;Node9 -->
<g id="edge8" class="edge">
<title>Node4&#45;&gt;Node9</title>
<path fill="none" stroke="midnightblue" d="M632.79,-58.59C601.29,-49.3 542.62,-31.99 505.39,-21"/>
<polygon fill="midnightblue" stroke="midnightblue" points="506.08,-17.56 495.5,-18.08 504.1,-24.27 506.08,-17.56"/>
</g>
<!-- Node17&#45;&gt;Node3 -->
<g id="edge20" class="edge">
<title>Node17&#45;&gt;Node3</title>
<path fill="none" stroke="midnightblue" d="M163.2,-224.27C161.68,-210.59 160.9,-184.01 174.5,-168 200.74,-137.11 248.47,-127.27 280.34,-124.23"/>
<polygon fill="midnightblue" stroke="midnightblue" points="280.78,-127.7 290.48,-123.43 280.24,-120.72 280.78,-127.7"/>
</g>
<!-- Node18&#45;&gt;Node3 -->
<g id="edge36" class="edge">
<title>Node18&#45;&gt;Node3</title>
<path fill="none" stroke="midnightblue" d="M616.15,-224.15C608.6,-209.81 591.62,-181.71 568.5,-168 531.06,-145.81 404.67,-131.51 344.65,-125.81"/>
<polygon fill="midnightblue" stroke="midnightblue" points="344.87,-122.31 334.59,-124.87 344.23,-129.28 344.87,-122.31"/>
</g>
<!-- Node19 -->
<g id="node19" class="node">
<title>Node19</title>
<g id="a_node19"><a xlink:href="condition_8h.html" target="_top" xlink:title="Interface for classifier conditions.">
<polygon fill="none" stroke="black" points="495.5,-168.5 495.5,-187.5 559.5,-187.5 559.5,-168.5 495.5,-168.5"/>
<text text-anchor="middle" x="527.5" y="-175.5" font-family="Helvetica,sans-Serif" font-size="10.00">condition.h</text>
</a>
</g>
</g>
<!-- Node18&#45;&gt;Node19 -->
<g id="edge22" class="edge">
<title>Node18&#45;&gt;Node19</title>
<path fill="none" stroke="midnightblue" d="M605.56,-224.32C590.91,-215.82 568.37,-202.73 551.26,-192.8"/>
<polygon fill="midnightblue" stroke="midnightblue" points="552.81,-189.65 542.4,-187.65 549.3,-195.7 552.81,-189.65"/>
</g>
<!-- Node20 -->
<g id="node20" class="node">
<title>Node20</title>
<g id="a_node20"><a xlink:href="neural_8h.html" target="_top" xlink:title="An implementation of a multi&#45;layer perceptron neural network.">
<polygon fill="none" stroke="black" points="511,-112.5 511,-131.5 562,-131.5 562,-112.5 511,-112.5"/>
<text text-anchor="middle" x="536.5" y="-119.5" font-family="Helvetica,sans-Serif" font-size="10.00">neural.h</text>
</a>
</g>
</g>
<!-- Node18&#45;&gt;Node20 -->
<g id="edge24" class="edge">
<title>Node18&#45;&gt;Node20</title>
<path fill="none" stroke="midnightblue" d="M647.86,-224.42C678.45,-213.39 721.37,-192.67 702.5,-168 694.49,-157.53 618.5,-140.08 572.16,-130.27"/>
<polygon fill="midnightblue" stroke="midnightblue" points="572.7,-126.81 562.19,-128.18 571.26,-133.66 572.7,-126.81"/>
</g>
<!-- Node21 -->
<g id="node21" class="node">
<title>Node21</title>
<g id="a_node21"><a xlink:href="neural__activations_8h.html" target="_top" xlink:title="Neural network activation functions.">
<polygon fill="none" stroke="black" points="749.5,-168.5 749.5,-187.5 853.5,-187.5 853.5,-168.5 749.5,-168.5"/>
<text text-anchor="middle" x="801.5" y="-175.5" font-family="Helvetica,sans-Serif" font-size="10.00">neural_activations.h</text>
</a>
</g>
</g>
<!-- Node18&#45;&gt;Node21 -->
<g id="edge30" class="edge">
<title>Node18&#45;&gt;Node21</title>
<path fill="none" stroke="midnightblue" d="M649.18,-224.44C680.03,-215.24 729.23,-200.56 763.33,-190.39"/>
<polygon fill="midnightblue" stroke="midnightblue" points="764.37,-193.73 772.95,-187.52 762.37,-187.02 764.37,-193.73"/>
</g>
<!-- Node22 -->
<g id="node22" class="node">
<title>Node22</title>
<g id="a_node22"><a xlink:href="neural__layer_8h.html" target="_top" xlink:title="Interface for neural network layers.">
<polygon fill="none" stroke="black" points="616,-168.5 616,-187.5 693,-187.5 693,-168.5 616,-168.5"/>
<text text-anchor="middle" x="654.5" y="-175.5" font-family="Helvetica,sans-Serif" font-size="10.00">neural_layer.h</text>
</a>
</g>
</g>
<!-- Node18&#45;&gt;Node22 -->
<g id="edge32" class="edge">
<title>Node18&#45;&gt;Node22</title>
<path fill="none" stroke="midnightblue" d="M626.11,-224.08C630.87,-216.53 637.82,-205.49 643.65,-196.23"/>
<polygon fill="midnightblue" stroke="midnightblue" points="646.62,-198.08 648.99,-187.75 640.7,-194.35 646.62,-198.08"/>
</g>
<!-- Node19&#45;&gt;Node3 -->
<g id="edge23" class="edge">
<title>Node19&#45;&gt;Node3</title>
<path fill="none" stroke="midnightblue" d="M495.31,-168.92C454.69,-158.71 385.22,-141.26 344.62,-131.07"/>
<polygon fill="midnightblue" stroke="midnightblue" points="345.27,-127.62 334.72,-128.58 343.56,-134.41 345.27,-127.62"/>
</g>
<!-- Node20&#45;&gt;Node8 -->
<g id="edge27" class="edge">
<title>Node20&#45;&gt;Node8</title>
<path fill="none" stroke="midnightblue" d="M541.81,-112.06C549.04,-98.58 559.79,-72.82 547.5,-56 544.2,-51.48 480.08,-32.27 439.45,-20.46"/>
<polygon fill="midnightblue" stroke="midnightblue" points="440.26,-17.05 429.68,-17.63 438.31,-23.77 440.26,-17.05"/>
</g>
<!-- Node20&#45;&gt;Node9 -->
<g id="edge28" class="edge">
<title>Node20&#45;&gt;Node9</title>
<path fill="none" stroke="midnightblue" d="M549.73,-112.4C567.15,-99.97 594.06,-76.27 580.5,-56 571.72,-42.87 533.92,-29.22 505.28,-20.45"/>
<polygon fill="midnightblue" stroke="midnightblue" points="506.17,-17.06 495.59,-17.56 504.17,-23.77 506.17,-17.06"/>
</g>
<!-- Node20&#45;&gt;Node14 -->
<g id="edge25" class="edge">
<title>Node20&#45;&gt;Node14</title>
<path fill="none" stroke="midnightblue" d="M510.99,-112.44C483.9,-103.36 440.91,-88.94 410.63,-78.78"/>
<polygon fill="midnightblue" stroke="midnightblue" points="411.49,-75.38 400.89,-75.52 409.26,-82.01 411.49,-75.38"/>
</g>
<!-- Node20&#45;&gt;Node15 -->
<g id="edge26" class="edge">
<title>Node20&#45;&gt;Node15</title>
<path fill="none" stroke="midnightblue" d="M522.04,-112.32C508,-103.9 486.45,-90.97 469.96,-81.07"/>
<polygon fill="midnightblue" stroke="midnightblue" points="471.3,-77.8 460.92,-75.65 467.7,-83.8 471.3,-77.8"/>
</g>
<!-- Node20&#45;&gt;Node16 -->
<g id="edge29" class="edge">
<title>Node20&#45;&gt;Node16</title>
<path fill="none" stroke="midnightblue" d="M532.7,-112.08C529.59,-104.77 525.08,-94.18 521.21,-85.1"/>
<polygon fill="midnightblue" stroke="midnightblue" points="524.37,-83.58 517.23,-75.75 517.93,-86.32 524.37,-83.58"/>
</g>
<!-- Node21&#45;&gt;Node7 -->
<g id="edge31" class="edge">
<title>Node21&#45;&gt;Node7</title>
<path fill="none" stroke="midnightblue" d="M801.5,-168.08C801.5,-141.95 801.5,-65.21 801.5,-29.58"/>
<polygon fill="midnightblue" stroke="midnightblue" points="805,-29.57 801.5,-19.57 798,-29.57 805,-29.57"/>
</g>
<!-- Node22&#45;&gt;Node20 -->
<g id="edge33" class="edge">
<title>Node22&#45;&gt;Node20</title>
<path fill="none" stroke="midnightblue" d="M635.8,-168.44C616.56,-159.64 586.35,-145.81 564.3,-135.72"/>
<polygon fill="midnightblue" stroke="midnightblue" points="565.66,-132.5 555.11,-131.52 562.75,-138.86 565.66,-132.5"/>
</g>
<!-- Node23 -->
<g id="node23" class="node">
<title>Node23</title>
<g id="a_node23"><a xlink:href="neural__layer__args_8h.html" target="_top" xlink:title="Functions operating on neural network arguments/constants.">
<polygon fill="none" stroke="black" points="604,-112.5 604,-131.5 705,-131.5 705,-112.5 604,-112.5"/>
<text text-anchor="middle" x="654.5" y="-119.5" font-family="Helvetica,sans-Serif" font-size="10.00">neural_layer_args.h</text>
</a>
</g>
</g>
<!-- Node22&#45;&gt;Node23 -->
<g id="edge34" class="edge">
<title>Node22&#45;&gt;Node23</title>
<path fill="none" stroke="midnightblue" d="M654.5,-168.08C654.5,-161.01 654.5,-150.86 654.5,-141.99"/>
<polygon fill="midnightblue" stroke="midnightblue" points="658,-141.75 654.5,-131.75 651,-141.75 658,-141.75"/>
</g>
<!-- Node23&#45;&gt;Node4 -->
<g id="edge35" class="edge">
<title>Node23&#45;&gt;Node4</title>
<path fill="none" stroke="midnightblue" d="M654.5,-112.08C654.5,-105.01 654.5,-94.86 654.5,-85.99"/>
<polygon fill="midnightblue" stroke="midnightblue" points="658,-85.75 654.5,-75.75 651,-85.75 658,-85.75"/>
</g>
<!-- Node24&#45;&gt;Node3 -->
<g id="edge38" class="edge">
<title>Node24&#45;&gt;Node3</title>
<path fill="none" stroke="midnightblue" d="M264.66,-168.32C273,-160.42 285.53,-148.55 295.68,-138.94"/>
<polygon fill="midnightblue" stroke="midnightblue" points="298.32,-141.25 303.18,-131.83 293.51,-136.17 298.32,-141.25"/>
</g>
<!-- Node25&#45;&gt;Node3 -->
<g id="edge40" class="edge">
<title>Node25&#45;&gt;Node3</title>
<path fill="none" stroke="midnightblue" d="M110.55,-224.46C119.22,-210.55 138.24,-183.06 161.5,-168 198.22,-144.22 247.99,-132.59 280.17,-127.21"/>
<polygon fill="midnightblue" stroke="midnightblue" points="281.03,-130.62 290.37,-125.62 279.95,-123.7 281.03,-130.62"/>
</g>
<!-- Node26&#45;&gt;Node3 -->
<g id="edge43" class="edge">
<title>Node26&#45;&gt;Node3</title>
<path fill="none" stroke="midnightblue" d="M307.89,-224.37C308.7,-206.62 310.56,-165.67 311.65,-141.6"/>
<polygon fill="midnightblue" stroke="midnightblue" points="315.15,-141.74 312.11,-131.59 308.16,-141.42 315.15,-141.74"/>
</g>
<!-- Node26&#45;&gt;Node24 -->
<g id="edge42" class="edge">
<title>Node26&#45;&gt;Node24</title>
<path fill="none" stroke="midnightblue" d="M298.91,-224.08C291.34,-216.22 280.12,-204.57 270.99,-195.08"/>
<polygon fill="midnightblue" stroke="midnightblue" points="273.38,-192.53 263.93,-187.75 268.34,-197.38 273.38,-192.53"/>
</g>
<!-- Node27&#45;&gt;Node3 -->
<g id="edge50" class="edge">
<title>Node27&#45;&gt;Node3</title>
<path fill="none" stroke="midnightblue" d="M418.81,-224.38C403.25,-216.28 380.49,-203.17 363.5,-188 347.68,-173.87 333.12,-154.38 323.64,-140.43"/>
<polygon fill="midnightblue" stroke="midnightblue" points="326.37,-138.21 317.94,-131.79 320.53,-142.07 326.37,-138.21"/>
</g>
<!-- Node27&#45;&gt;Node20 -->
<g id="edge45" class="edge">
<title>Node27&#45;&gt;Node20</title>
<path fill="none" stroke="midnightblue" d="M442.5,-224.19C451.44,-211.3 469.09,-186.81 486.5,-168 496.19,-157.53 508.03,-146.8 517.75,-138.45"/>
<polygon fill="midnightblue" stroke="midnightblue" points="520.26,-140.91 525.64,-131.78 515.74,-135.56 520.26,-140.91"/>
</g>
<!-- Node27&#45;&gt;Node21 -->
<g id="edge46" class="edge">
<title>Node27&#45;&gt;Node21</title>
<path fill="none" stroke="midnightblue" d="M474.19,-227.42C536.94,-218.14 663.45,-199.42 739.5,-188.17"/>
<polygon fill="midnightblue" stroke="midnightblue" points="740.04,-191.63 749.42,-186.7 739.02,-184.71 740.04,-191.63"/>
</g>
<!-- Node27&#45;&gt;Node22 -->
<g id="edge47" class="edge">
<title>Node27&#45;&gt;Node22</title>
<path fill="none" stroke="midnightblue" d="M471.04,-224.44C508.75,-215.1 569.24,-200.12 610.36,-189.93"/>
<polygon fill="midnightblue" stroke="midnightblue" points="611.25,-193.32 620.12,-187.52 609.57,-186.52 611.25,-193.32"/>
</g>
<!-- Node28 -->
<g id="node28" class="node">
<title>Node28</title>
<g id="a_node28"><a xlink:href="prediction_8h.html" target="_top" xlink:title="Interface for classifier predictions.">
<polygon fill="none" stroke="black" points="372,-168.5 372,-187.5 439,-187.5 439,-168.5 372,-168.5"/>
<text text-anchor="middle" x="405.5" y="-175.5" font-family="Helvetica,sans-Serif" font-size="10.00">prediction.h</text>
</a>
</g>
</g>
<!-- Node27&#45;&gt;Node28 -->
<g id="edge48" class="edge">
<title>Node27&#45;&gt;Node28</title>
<path fill="none" stroke="midnightblue" d="M431.38,-224.08C427.09,-216.61 420.84,-205.72 415.56,-196.52"/>
<polygon fill="midnightblue" stroke="midnightblue" points="418.54,-194.68 410.52,-187.75 412.47,-198.17 418.54,-194.68"/>
</g>
<!-- Node28&#45;&gt;Node3 -->
<g id="edge49" class="edge">
<title>Node28&#45;&gt;Node3</title>
<path fill="none" stroke="midnightblue" d="M390.56,-168.32C375.91,-159.82 353.37,-146.73 336.26,-136.8"/>
<polygon fill="midnightblue" stroke="midnightblue" points="337.81,-133.65 327.4,-131.65 334.3,-139.7 337.81,-133.65"/>
</g>
</g>
</svg>
