<?xml version="1.0" encoding="UTF-8" standalone="no"?>
<!DOCTYPE svg PUBLIC "-//W3C//DTD SVG 1.1//EN"
 "http://www.w3.org/Graphics/SVG/1.1/DTD/svg11.dtd">
<!-- Generated by graphviz version 2.43.0 (0)
 -->
<!-- Title: xcsf_load Pages: 1 -->
<svg width="696pt" height="607pt"
 viewBox="0.00 0.00 696.00 607.00" xmlns="http://www.w3.org/2000/svg" xmlns:xlink="http://www.w3.org/1999/xlink">
<g id="graph0" class="graph" transform="scale(1 1) rotate(0) translate(4 603)">
<title>xcsf_load</title>
<!-- Node1 -->
<g id="node1" class="node">
<title>Node1</title>
<g id="a_node1"><a xlink:title="Reads the state of XCSF from a file.">
<polygon fill="#bfbfbf" stroke="black" points="0,-389.5 0,-408.5 59,-408.5 59,-389.5 0,-389.5"/>
<text text-anchor="middle" x="29.5" y="-396.5" font-family="Helvetica,sans-Serif" font-size="10.00">xcsf_load</text>
</a>
</g>
</g>
<!-- Node2 -->
<g id="node2" class="node">
<title>Node2</title>
<g id="a_node2"><a xlink:href="clset_8c.html#a9af546abf9de1bc840d605e949d3ef47" target="_top" xlink:title="Initialises a new set.">
<polygon fill="none" stroke="black" points="252,-408.5 252,-427.5 308,-427.5 308,-408.5 252,-408.5"/>
<text text-anchor="middle" x="280" y="-415.5" font-family="Helvetica,sans-Serif" font-size="10.00">clset_init</text>
</a>
</g>
</g>
<!-- Node1&#45;&gt;Node2 -->
<g id="edge1" class="edge">
<title>Node1&#45;&gt;Node2</title>
<path fill="none" stroke="midnightblue" d="M59.01,-401.18C104.11,-404.63 191.94,-411.34 241.9,-415.16"/>
<polygon fill="midnightblue" stroke="midnightblue" points="241.72,-418.66 251.96,-415.93 242.26,-411.68 241.72,-418.66"/>
</g>
<!-- Node3 -->
<g id="node3" class="node">
<title>Node3</title>
<g id="a_node3"><a xlink:href="clset_8c.html#a236baf24659360891f944761f88a30f4" target="_top" xlink:title="Frees the set and the classifiers.">
<polygon fill="none" stroke="black" points="110,-484.5 110,-503.5 165,-503.5 165,-484.5 110,-484.5"/>
<text text-anchor="middle" x="137.5" y="-491.5" font-family="Helvetica,sans-Serif" font-size="10.00">clset_kill</text>
</a>
</g>
</g>
<!-- Node1&#45;&gt;Node3 -->
<g id="edge2" class="edge">
<title>Node1&#45;&gt;Node3</title>
<path fill="none" stroke="midnightblue" d="M41.44,-408.81C59.55,-425.03 95.93,-457.64 118.06,-477.47"/>
<polygon fill="midnightblue" stroke="midnightblue" points="115.99,-480.32 125.77,-484.39 120.66,-475.11 115.99,-480.32"/>
</g>
<!-- Node8 -->
<g id="node8" class="node">
<title>Node8</title>
<g id="a_node8"><a xlink:href="clset_8c.html#af87479ea90c3c508352c4a89dae9fd08" target="_top" xlink:title="Reads the population set from a file.">
<polygon fill="none" stroke="black" points="95,-370.5 95,-389.5 180,-389.5 180,-370.5 95,-370.5"/>
<text text-anchor="middle" x="137.5" y="-377.5" font-family="Helvetica,sans-Serif" font-size="10.00">clset_pset_load</text>
</a>
</g>
</g>
<!-- Node1&#45;&gt;Node8 -->
<g id="edge7" class="edge">
<title>Node1&#45;&gt;Node8</title>
<path fill="none" stroke="midnightblue" d="M59.19,-393.86C67.11,-392.44 75.97,-390.85 84.78,-389.27"/>
<polygon fill="midnightblue" stroke="midnightblue" points="85.43,-392.71 94.65,-387.5 84.19,-385.82 85.43,-392.71"/>
</g>
<!-- Node17 -->
<g id="node17" class="node">
<title>Node17</title>
<g id="a_node17"><a xlink:href="param_8c.html#ae7f8932981ba2f49027da90acfd121b1" target="_top" xlink:title="Reads the XCSF data structure from a file.">
<polygon fill="none" stroke="black" points="104,-152.5 104,-171.5 171,-171.5 171,-152.5 104,-152.5"/>
<text text-anchor="middle" x="137.5" y="-159.5" font-family="Helvetica,sans-Serif" font-size="10.00">param_load</text>
</a>
</g>
</g>
<!-- Node1&#45;&gt;Node17 -->
<g id="edge17" class="edge">
<title>Node1&#45;&gt;Node17</title>
<path fill="none" stroke="midnightblue" d="M34.79,-389.42C50.7,-353.84 106.57,-228.92 128.02,-180.95"/>
<polygon fill="midnightblue" stroke="midnightblue" points="131.27,-182.26 132.16,-171.7 124.88,-179.4 131.27,-182.26"/>
</g>
<!-- Node4 -->
<g id="node4" class="node">
<title>Node4</title>
<g id="a_node4"><a xlink:href="cl_8c.html#ac45092c0e43651e8eeaa739766e3f069" target="_top" xlink:title="Frees the memory used by a classifier.">
<polygon fill="none" stroke="black" points="257,-522.5 257,-541.5 303,-541.5 303,-522.5 257,-522.5"/>
<text text-anchor="middle" x="280" y="-529.5" font-family="Helvetica,sans-Serif" font-size="10.00">cl_free</text>
</a>
</g>
</g>
<!-- Node3&#45;&gt;Node4 -->
<g id="edge3" class="edge">
<title>Node3&#45;&gt;Node4</title>
<path fill="none" stroke="midnightblue" d="M165.26,-501.24C188.53,-507.53 222.29,-516.66 246.99,-523.34"/>
<polygon fill="midnightblue" stroke="midnightblue" points="246.39,-526.81 256.96,-526.04 248.22,-520.05 246.39,-526.81"/>
</g>
<!-- Node5 -->
<g id="node5" class="node">
<title>Node5</title>
<g id="a_node5"><a xlink:href="action_8h.html#a81912970283c86f80c5b7a38f1865ebd" target="_top" xlink:title="Frees the memory used by the classifier action.">
<polygon fill="none" stroke="black" points="398,-579.5 398,-598.5 450,-598.5 450,-579.5 398,-579.5"/>
<text text-anchor="middle" x="424" y="-586.5" font-family="Helvetica,sans-Serif" font-size="10.00">act_free</text>
</a>
</g>
</g>
<!-- Node4&#45;&gt;Node5 -->
<g id="edge4" class="edge">
<title>Node4&#45;&gt;Node5</title>
<path fill="none" stroke="midnightblue" d="M303.19,-540.91C326.39,-550.22 363.08,-564.95 389.74,-575.65"/>
<polygon fill="midnightblue" stroke="midnightblue" points="388.49,-578.92 399.07,-579.4 391.1,-572.42 388.49,-578.92"/>
</g>
<!-- Node6 -->
<g id="node6" class="node">
<title>Node6</title>
<g id="a_node6"><a xlink:href="condition_8h.html#a2f342b5e29e020e139112cf99887b4c5" target="_top" xlink:title="Frees the memory used by the classifier condition.">
<polygon fill="none" stroke="black" points="394.5,-541.5 394.5,-560.5 453.5,-560.5 453.5,-541.5 394.5,-541.5"/>
<text text-anchor="middle" x="424" y="-548.5" font-family="Helvetica,sans-Serif" font-size="10.00">cond_free</text>
</a>
</g>
</g>
<!-- Node4&#45;&gt;Node6 -->
<g id="edge5" class="edge">
<title>Node4&#45;&gt;Node6</title>
<path fill="none" stroke="midnightblue" d="M303.19,-534.97C324.88,-537.87 358.35,-542.35 384.41,-545.84"/>
<polygon fill="midnightblue" stroke="midnightblue" points="383.97,-549.31 394.35,-547.17 384.9,-542.37 383.97,-549.31"/>
</g>
<!-- Node7 -->
<g id="node7" class="node">
<title>Node7</title>
<g id="a_node7"><a xlink:href="prediction_8h.html#af19eafd52548ede9b90594c8b8949098" target="_top" xlink:title="Frees the memory used by the classifier prediction.">
<polygon fill="none" stroke="black" points="395.5,-503.5 395.5,-522.5 452.5,-522.5 452.5,-503.5 395.5,-503.5"/>
<text text-anchor="middle" x="424" y="-510.5" font-family="Helvetica,sans-Serif" font-size="10.00">pred_free</text>
</a>
</g>
</g>
<!-- Node4&#45;&gt;Node7 -->
<g id="edge6" class="edge">
<title>Node4&#45;&gt;Node7</title>
<path fill="none" stroke="midnightblue" d="M303.19,-529.03C325.15,-526.09 359.2,-521.54 385.4,-518.03"/>
<polygon fill="midnightblue" stroke="midnightblue" points="385.92,-521.49 395.37,-516.7 384.99,-514.55 385.92,-521.49"/>
</g>
<!-- Node8&#45;&gt;Node2 -->
<g id="edge16" class="edge">
<title>Node8&#45;&gt;Node2</title>
<path fill="none" stroke="midnightblue" d="M173.95,-389.59C194.77,-395.22 221.05,-402.33 242.11,-408.02"/>
<polygon fill="midnightblue" stroke="midnightblue" points="241.42,-411.46 251.98,-410.69 243.24,-404.7 241.42,-411.46"/>
</g>
<!-- Node9 -->
<g id="node9" class="node">
<title>Node9</title>
<g id="a_node9"><a xlink:href="cl_8c.html#aa1ac32b2cecb1ff414f4f8c405e9cc9d" target="_top" xlink:title="Reads a classifier from a file.">
<polygon fill="none" stroke="black" points="256.5,-370.5 256.5,-389.5 303.5,-389.5 303.5,-370.5 256.5,-370.5"/>
<text text-anchor="middle" x="280" y="-377.5" font-family="Helvetica,sans-Serif" font-size="10.00">cl_load</text>
</a>
</g>
</g>
<!-- Node8&#45;&gt;Node9 -->
<g id="edge8" class="edge">
<title>Node8&#45;&gt;Node9</title>
<path fill="none" stroke="midnightblue" d="M180.27,-380C201.39,-380 226.64,-380 246.32,-380"/>
<polygon fill="midnightblue" stroke="midnightblue" points="246.34,-383.5 256.34,-380 246.34,-376.5 246.34,-383.5"/>
</g>
<!-- Node16 -->
<g id="node16" class="node">
<title>Node16</title>
<g id="a_node16"><a xlink:href="clset_8c.html#a64d33e6235c57f30a4a3ec82f18e57d6" target="_top" xlink:title="Adds a classifier to the set.">
<polygon fill="none" stroke="black" points="250.5,-332.5 250.5,-351.5 309.5,-351.5 309.5,-332.5 250.5,-332.5"/>
<text text-anchor="middle" x="280" y="-339.5" font-family="Helvetica,sans-Serif" font-size="10.00">clset_add</text>
</a>
</g>
</g>
<!-- Node8&#45;&gt;Node16 -->
<g id="edge15" class="edge">
<title>Node8&#45;&gt;Node16</title>
<path fill="none" stroke="midnightblue" d="M173.95,-370.41C194.21,-364.93 219.64,-358.05 240.4,-352.44"/>
<polygon fill="midnightblue" stroke="midnightblue" points="241.44,-355.79 250.18,-349.8 239.61,-349.03 241.44,-355.79"/>
</g>
<!-- Node10 -->
<g id="node10" class="node">
<title>Node10</title>
<g id="a_node10"><a xlink:href="action_8h.html#a52378844456bccd5792fd83a66c3e024" target="_top" xlink:title="Reads the action from a file.">
<polygon fill="none" stroke="black" points="397.5,-465.5 397.5,-484.5 450.5,-484.5 450.5,-465.5 397.5,-465.5"/>
<text text-anchor="middle" x="424" y="-472.5" font-family="Helvetica,sans-Serif" font-size="10.00">act_load</text>
</a>
</g>
</g>
<!-- Node9&#45;&gt;Node10 -->
<g id="edge9" class="edge">
<title>Node9&#45;&gt;Node10</title>
<path fill="none" stroke="midnightblue" d="M303.77,-382.86C316.61,-385.4 332.36,-390.15 344,-399 367.85,-417.14 357.31,-436.43 380,-456 382.53,-458.19 385.36,-460.16 388.32,-461.93"/>
<polygon fill="midnightblue" stroke="midnightblue" points="386.94,-465.16 397.43,-466.66 390.17,-458.95 386.94,-465.16"/>
</g>
<!-- Node11 -->
<g id="node11" class="node">
<title>Node11</title>
<g id="a_node11"><a xlink:href="action_8c.html#a57d1606f2517912f1f56018f095761e9" target="_top" xlink:title="Sets a classifier&#39;s action functions to the implementations.">
<polygon fill="none" stroke="black" points="393,-427.5 393,-446.5 455,-446.5 455,-427.5 393,-427.5"/>
<text text-anchor="middle" x="424" y="-434.5" font-family="Helvetica,sans-Serif" font-size="10.00">action_set</text>
</a>
</g>
</g>
<!-- Node9&#45;&gt;Node11 -->
<g id="edge10" class="edge">
<title>Node9&#45;&gt;Node11</title>
<path fill="none" stroke="midnightblue" d="M303.52,-385.66C315.7,-389 330.89,-393.62 344,-399 360.74,-405.87 363.72,-410.12 380,-418 383.62,-419.75 387.43,-421.53 391.23,-423.26"/>
<polygon fill="midnightblue" stroke="midnightblue" points="389.99,-426.54 400.55,-427.43 392.85,-420.15 389.99,-426.54"/>
</g>
<!-- Node12 -->
<g id="node12" class="node">
<title>Node12</title>
<g id="a_node12"><a xlink:href="condition_8h.html#aecb888a4d67bac7930149265d00f2c60" target="_top" xlink:title="Reads the condition from a file.">
<polygon fill="none" stroke="black" points="393.5,-389.5 393.5,-408.5 454.5,-408.5 454.5,-389.5 393.5,-389.5"/>
<text text-anchor="middle" x="424" y="-396.5" font-family="Helvetica,sans-Serif" font-size="10.00">cond_load</text>
</a>
</g>
</g>
<!-- Node9&#45;&gt;Node12 -->
<g id="edge11" class="edge">
<title>Node9&#45;&gt;Node12</title>
<path fill="none" stroke="midnightblue" d="M303.5,-383.01C324.88,-385.87 357.49,-390.23 383.25,-393.68"/>
<polygon fill="midnightblue" stroke="midnightblue" points="383.08,-397.19 393.45,-395.05 384.01,-390.25 383.08,-397.19"/>
</g>
<!-- Node13 -->
<g id="node13" class="node">
<title>Node13</title>
<g id="a_node13"><a xlink:href="condition_8c.html#a16981837f523cea3a917404e441981b3" target="_top" xlink:title="Sets a classifier&#39;s condition functions to the implementations.">
<polygon fill="none" stroke="black" points="387,-351.5 387,-370.5 461,-370.5 461,-351.5 387,-351.5"/>
<text text-anchor="middle" x="424" y="-358.5" font-family="Helvetica,sans-Serif" font-size="10.00">condition_set</text>
</a>
</g>
</g>
<!-- Node9&#45;&gt;Node13 -->
<g id="edge12" class="edge">
<title>Node9&#45;&gt;Node13</title>
<path fill="none" stroke="midnightblue" d="M303.5,-376.99C323.07,-374.37 352.06,-370.49 376.58,-367.21"/>
<polygon fill="midnightblue" stroke="midnightblue" points="377.33,-370.64 386.78,-365.85 376.4,-363.7 377.33,-370.64"/>
</g>
<!-- Node14 -->
<g id="node14" class="node">
<title>Node14</title>
<g id="a_node14"><a xlink:href="prediction_8h.html#acb4453c3ff11e3b628432cdc2fa5e73b" target="_top" xlink:title="Reads the prediction from a file.">
<polygon fill="none" stroke="black" points="394.5,-313.5 394.5,-332.5 453.5,-332.5 453.5,-313.5 394.5,-313.5"/>
<text text-anchor="middle" x="424" y="-320.5" font-family="Helvetica,sans-Serif" font-size="10.00">pred_load</text>
</a>
</g>
</g>
<!-- Node9&#45;&gt;Node14 -->
<g id="edge13" class="edge">
<title>Node9&#45;&gt;Node14</title>
<path fill="none" stroke="midnightblue" d="M303.52,-374.34C315.7,-371 330.89,-366.38 344,-361 360.74,-354.13 363.72,-349.88 380,-342 383.62,-340.25 387.43,-338.47 391.23,-336.74"/>
<polygon fill="midnightblue" stroke="midnightblue" points="392.85,-339.85 400.55,-332.57 389.99,-333.46 392.85,-339.85"/>
</g>
<!-- Node15 -->
<g id="node15" class="node">
<title>Node15</title>
<g id="a_node15"><a xlink:href="prediction_8c.html#a81ad118db1c9b692c45880e6f3a33ec4" target="_top" xlink:title="Sets a classifier&#39;s prediction functions to the implementations.">
<polygon fill="none" stroke="black" points="385.5,-275.5 385.5,-294.5 462.5,-294.5 462.5,-275.5 385.5,-275.5"/>
<text text-anchor="middle" x="424" y="-282.5" font-family="Helvetica,sans-Serif" font-size="10.00">prediction_set</text>
</a>
</g>
</g>
<!-- Node9&#45;&gt;Node15 -->
<g id="edge14" class="edge">
<title>Node9&#45;&gt;Node15</title>
<path fill="none" stroke="midnightblue" d="M303.77,-377.14C316.61,-374.6 332.36,-369.85 344,-361 367.85,-342.86 357.31,-323.57 380,-304 381.76,-302.48 383.66,-301.07 385.64,-299.76"/>
<polygon fill="midnightblue" stroke="midnightblue" points="387.76,-302.58 394.74,-294.61 384.31,-296.49 387.76,-302.58"/>
</g>
<!-- Node18 -->
<g id="node18" class="node">
<title>Node18</title>
<g id="a_node18"><a xlink:href="action_8c.html#a08b64f3c3cc1e112d0859880ea767c53" target="_top" xlink:title="Loads action parameters.">
<polygon fill="none" stroke="black" points="231,-114.5 231,-133.5 329,-133.5 329,-114.5 231,-114.5"/>
<text text-anchor="middle" x="280" y="-121.5" font-family="Helvetica,sans-Serif" font-size="10.00">action_param_load</text>
</a>
</g>
</g>
<!-- Node17&#45;&gt;Node18 -->
<g id="edge18" class="edge">
<title>Node17&#45;&gt;Node18</title>
<path fill="none" stroke="midnightblue" d="M171.09,-153.19C189.76,-148.14 213.47,-141.72 233.9,-136.2"/>
<polygon fill="midnightblue" stroke="midnightblue" points="234.9,-139.55 243.64,-133.56 233.07,-132.8 234.9,-139.55"/>
</g>
<!-- Node19 -->
<g id="node19" class="node">
<title>Node19</title>
<g id="a_node19"><a xlink:href="condition_8c.html#a529394a6a6f7f5a7aa596e14b2eb1ec2" target="_top" xlink:title="Loads condition parameters.">
<polygon fill="none" stroke="black" points="233.5,-76.5 233.5,-95.5 326.5,-95.5 326.5,-76.5 233.5,-76.5"/>
<text text-anchor="middle" x="280" y="-83.5" font-family="Helvetica,sans-Serif" font-size="10.00">cond_param_load</text>
</a>
</g>
</g>
<!-- Node17&#45;&gt;Node19 -->
<g id="edge19" class="edge">
<title>Node17&#45;&gt;Node19</title>
<path fill="none" stroke="midnightblue" d="M149.26,-152.2C163.54,-139.66 190,-117.99 216,-105 220.55,-102.73 225.41,-100.67 230.36,-98.82"/>
<polygon fill="midnightblue" stroke="midnightblue" points="231.58,-102.11 239.88,-95.53 229.29,-95.49 231.58,-102.11"/>
</g>
<!-- Node22 -->
<g id="node22" class="node">
<title>Node22</title>
<g id="a_node22"><a xlink:href="ea_8c.html#a98847959ab2371b435176a89306207c5" target="_top" xlink:title="Loads evolutionary algorithm parameters.">
<polygon fill="none" stroke="black" points="238.5,-38.5 238.5,-57.5 321.5,-57.5 321.5,-38.5 238.5,-38.5"/>
<text text-anchor="middle" x="280" y="-45.5" font-family="Helvetica,sans-Serif" font-size="10.00">ea_param_load</text>
</a>
</g>
</g>
<!-- Node17&#45;&gt;Node22 -->
<g id="edge22" class="edge">
<title>Node17&#45;&gt;Node22</title>
<path fill="none" stroke="midnightblue" d="M143.73,-152.32C154.59,-133.12 181.5,-90.08 216,-67 220,-64.32 224.4,-62.01 228.94,-60.02"/>
<polygon fill="midnightblue" stroke="midnightblue" points="230.34,-63.23 238.41,-56.36 227.82,-56.7 230.34,-63.23"/>
</g>
<!-- Node23 -->
<g id="node23" class="node">
<title>Node23</title>
<g id="a_node23"><a xlink:href="param_8c.html#a2a2271a513e5d53bc17162032835ef30" target="_top" xlink:title="Loads XCSF general classifier parameters.">
<polygon fill="none" stroke="black" points="222,-0.5 222,-19.5 338,-19.5 338,-0.5 222,-0.5"/>
<text text-anchor="middle" x="280" y="-7.5" font-family="Helvetica,sans-Serif" font-size="10.00">param_load_cl_general</text>
</a>
</g>
</g>
<!-- Node17&#45;&gt;Node23 -->
<g id="edge23" class="edge">
<title>Node17&#45;&gt;Node23</title>
<path fill="none" stroke="midnightblue" d="M141.38,-152.31C149.17,-127.81 172.99,-62.94 216,-29 218.31,-27.18 220.8,-25.53 223.4,-24.03"/>
<polygon fill="midnightblue" stroke="midnightblue" points="225.14,-27.08 232.6,-19.55 222.07,-20.79 225.14,-27.08"/>
</g>
<!-- Node24 -->
<g id="node24" class="node">
<title>Node24</title>
<g id="a_node24"><a xlink:href="param_8c.html#ab61b9fbc450124b34f61b80093cffb1a" target="_top" xlink:title="Loads XCSF general parameters.">
<polygon fill="none" stroke="black" points="228,-266.5 228,-285.5 332,-285.5 332,-266.5 228,-266.5"/>
<text text-anchor="middle" x="280" y="-273.5" font-family="Helvetica,sans-Serif" font-size="10.00">param_load_general</text>
</a>
</g>
</g>
<!-- Node17&#45;&gt;Node24 -->
<g id="edge24" class="edge">
<title>Node17&#45;&gt;Node24</title>
<path fill="none" stroke="midnightblue" d="M143.73,-171.68C154.59,-190.88 181.5,-233.92 216,-257 219.08,-259.06 222.38,-260.9 225.81,-262.55"/>
<polygon fill="midnightblue" stroke="midnightblue" points="224.53,-265.81 235.11,-266.47 227.25,-259.36 224.53,-265.81"/>
</g>
<!-- Node34 -->
<g id="node34" class="node">
<title>Node34</title>
<g id="a_node34"><a xlink:href="param_8c.html#a96825d72a88e4af58b039b61467ed136" target="_top" xlink:title="Saves multistep parameters.">
<polygon fill="none" stroke="black" points="224,-228.5 224,-247.5 336,-247.5 336,-228.5 224,-228.5"/>
<text text-anchor="middle" x="280" y="-235.5" font-family="Helvetica,sans-Serif" font-size="10.00">param_load_multistep</text>
</a>
</g>
</g>
<!-- Node17&#45;&gt;Node34 -->
<g id="edge35" class="edge">
<title>Node17&#45;&gt;Node34</title>
<path fill="none" stroke="midnightblue" d="M149.26,-171.8C163.54,-184.34 190,-206.01 216,-219 220.55,-221.27 225.41,-223.33 230.36,-225.18"/>
<polygon fill="midnightblue" stroke="midnightblue" points="229.29,-228.51 239.88,-228.47 231.58,-221.89 229.29,-228.51"/>
</g>
<!-- Node35 -->
<g id="node35" class="node">
<title>Node35</title>
<g id="a_node35"><a xlink:href="param_8c.html#ad59e9ab3a114a751a6ff96b2a0bbbb72" target="_top" xlink:title="Loads subsumption parameters.">
<polygon fill="none" stroke="black" points="216,-190.5 216,-209.5 344,-209.5 344,-190.5 216,-190.5"/>
<text text-anchor="middle" x="280" y="-197.5" font-family="Helvetica,sans-Serif" font-size="10.00">param_load_subsumption</text>
</a>
</g>
</g>
<!-- Node17&#45;&gt;Node35 -->
<g id="edge36" class="edge">
<title>Node17&#45;&gt;Node35</title>
<path fill="none" stroke="midnightblue" d="M171.09,-170.81C189.76,-175.86 213.47,-182.28 233.9,-187.8"/>
<polygon fill="midnightblue" stroke="midnightblue" points="233.07,-191.2 243.64,-190.44 234.9,-184.45 233.07,-191.2"/>
</g>
<!-- Node36 -->
<g id="node36" class="node">
<title>Node36</title>
<g id="a_node36"><a xlink:href="prediction_8c.html#a022e1e3dabeddd6cc051aa63a9af5924" target="_top" xlink:title="Loads prediction parameters.">
<polygon fill="none" stroke="black" points="234.5,-152.5 234.5,-171.5 325.5,-171.5 325.5,-152.5 234.5,-152.5"/>
<text text-anchor="middle" x="280" y="-159.5" font-family="Helvetica,sans-Serif" font-size="10.00">pred_param_load</text>
</a>
</g>
</g>
<!-- Node17&#45;&gt;Node36 -->
<g id="edge37" class="edge">
<title>Node17&#45;&gt;Node36</title>
<path fill="none" stroke="midnightblue" d="M171.09,-162C186.88,-162 206.28,-162 224.26,-162"/>
<polygon fill="midnightblue" stroke="midnightblue" points="224.35,-165.5 234.35,-162 224.35,-158.5 224.35,-165.5"/>
</g>
<!-- Node20 -->
<g id="node20" class="node">
<title>Node20</title>
<g id="a_node20"><a xlink:href="dgp_8c.html#a4e160f3ae49e0876bd5d9d03cff31a79" target="_top" xlink:title="Loads DGP parameters.">
<polygon fill="none" stroke="black" points="380,-57.5 380,-76.5 468,-76.5 468,-57.5 380,-57.5"/>
<text text-anchor="middle" x="424" y="-64.5" font-family="Helvetica,sans-Serif" font-size="10.00">graph_args_load</text>
</a>
</g>
</g>
<!-- Node19&#45;&gt;Node20 -->
<g id="edge20" class="edge">
<title>Node19&#45;&gt;Node20</title>
<path fill="none" stroke="midnightblue" d="M326.71,-79.88C340.41,-78.05 355.56,-76.02 369.7,-74.13"/>
<polygon fill="midnightblue" stroke="midnightblue" points="370.34,-77.58 379.79,-72.78 369.41,-70.64 370.34,-77.58"/>
</g>
<!-- Node21 -->
<g id="node21" class="node">
<title>Node21</title>
<g id="a_node21"><a xlink:href="gp_8c.html#ace6f12ff809357296578e8aa1d1b0b47" target="_top" xlink:title="Loads Tree GP parameters.">
<polygon fill="none" stroke="black" points="384,-95.5 384,-114.5 464,-114.5 464,-95.5 384,-95.5"/>
<text text-anchor="middle" x="424" y="-102.5" font-family="Helvetica,sans-Serif" font-size="10.00">tree_args_load</text>
</a>
</g>
</g>
<!-- Node19&#45;&gt;Node21 -->
<g id="edge21" class="edge">
<title>Node19&#45;&gt;Node21</title>
<path fill="none" stroke="midnightblue" d="M326.71,-92.12C341.6,-94.11 358.19,-96.33 373.35,-98.36"/>
<polygon fill="midnightblue" stroke="midnightblue" points="373.21,-101.87 383.58,-99.73 374.14,-94.93 373.21,-101.87"/>
</g>
<!-- Node25 -->
<g id="node25" class="node">
<title>Node25</title>
<g id="a_node25"><a xlink:href="loss_8c.html#a440b847b0f4edd503b919d3bebecd66c" target="_top" xlink:title="Sets the XCSF error function to the implemented function.">
<polygon fill="none" stroke="black" points="385.5,-237.5 385.5,-256.5 462.5,-256.5 462.5,-237.5 385.5,-237.5"/>
<text text-anchor="middle" x="424" y="-244.5" font-family="Helvetica,sans-Serif" font-size="10.00">loss_set_func</text>
</a>
</g>
</g>
<!-- Node24&#45;&gt;Node25 -->
<g id="edge25" class="edge">
<title>Node24&#45;&gt;Node25</title>
<path fill="none" stroke="midnightblue" d="M327.89,-266.42C342.99,-263.34 359.73,-259.92 374.91,-256.82"/>
<polygon fill="midnightblue" stroke="midnightblue" points="376.04,-260.16 385.13,-254.73 374.64,-253.3 376.04,-260.16"/>
</g>
<!-- Node26 -->
<g id="node26" class="node">
<title>Node26</title>
<g id="a_node26"><a xlink:href="loss_8c.html#a2687b111bc407194c64e07e2b933bb3c" target="_top" xlink:title="Binary logistic log loss for binary&#45;class classification.">
<polygon fill="none" stroke="black" points="504,-351.5 504,-370.5 588,-370.5 588,-351.5 504,-351.5"/>
<text text-anchor="middle" x="546" y="-358.5" font-family="Helvetica,sans-Serif" font-size="10.00">loss_binary_log</text>
</a>
</g>
</g>
<!-- Node25&#45;&gt;Node26 -->
<g id="edge26" class="edge">
<title>Node25&#45;&gt;Node26</title>
<path fill="none" stroke="midnightblue" d="M454.52,-256.65C459.41,-259.16 464.14,-262.24 468,-266 494.77,-292.08 477.46,-315.68 504,-342 505.42,-343.41 506.96,-344.73 508.59,-345.95"/>
<polygon fill="midnightblue" stroke="midnightblue" points="506.94,-349.05 517.27,-351.39 510.65,-343.11 506.94,-349.05"/>
</g>
<!-- Node27 -->
<g id="node27" class="node">
<title>Node27</title>
<g id="a_node27"><a xlink:href="loss_8c.html#adf5bc1e947369774d48b0355dbdbcc30" target="_top" xlink:title="Huber loss function.">
<polygon fill="none" stroke="black" points="514,-313.5 514,-332.5 578,-332.5 578,-313.5 514,-313.5"/>
<text text-anchor="middle" x="546" y="-320.5" font-family="Helvetica,sans-Serif" font-size="10.00">loss_huber</text>
</a>
</g>
</g>
<!-- Node25&#45;&gt;Node27 -->
<g id="edge27" class="edge">
<title>Node25&#45;&gt;Node27</title>
<path fill="none" stroke="midnightblue" d="M451.36,-256.67C457.08,-259.3 462.93,-262.43 468,-266 487.01,-279.41 485.11,-290.42 504,-304 506.33,-305.67 508.83,-307.26 511.4,-308.74"/>
<polygon fill="midnightblue" stroke="midnightblue" points="509.82,-311.86 520.31,-313.4 513.07,-305.66 509.82,-311.86"/>
</g>
<!-- Node28 -->
<g id="node28" class="node">
<title>Node28</title>
<g id="a_node28"><a xlink:href="loss_8c.html#a5b0fc07896aaa302b61213c450874d49" target="_top" xlink:title="Logistic log loss for multi&#45;class classification.">
<polygon fill="none" stroke="black" points="519.5,-275.5 519.5,-294.5 572.5,-294.5 572.5,-275.5 519.5,-275.5"/>
<text text-anchor="middle" x="546" y="-282.5" font-family="Helvetica,sans-Serif" font-size="10.00">loss_log</text>
</a>
</g>
</g>
<!-- Node25&#45;&gt;Node28 -->
<g id="edge28" class="edge">
<title>Node25&#45;&gt;Node28</title>
<path fill="none" stroke="midnightblue" d="M455.28,-256.59C471.76,-261.81 492.25,-268.3 509.49,-273.75"/>
<polygon fill="midnightblue" stroke="midnightblue" points="508.61,-277.15 519.2,-276.83 510.72,-270.47 508.61,-277.15"/>
</g>
<!-- Node29 -->
<g id="node29" class="node">
<title>Node29</title>
<g id="a_node29"><a xlink:href="loss_8c.html#a7f1e236d219a5f551408639674b4a24a" target="_top" xlink:title="Mean absolute error loss function.">
<polygon fill="none" stroke="black" points="516.5,-237.5 516.5,-256.5 575.5,-256.5 575.5,-237.5 516.5,-237.5"/>
<text text-anchor="middle" x="546" y="-244.5" font-family="Helvetica,sans-Serif" font-size="10.00">loss_mae</text>
</a>
</g>
</g>
<!-- Node25&#45;&gt;Node29 -->
<g id="edge29" class="edge">
<title>Node25&#45;&gt;Node29</title>
<path fill="none" stroke="midnightblue" d="M462.64,-247C476.44,-247 492.09,-247 506.01,-247"/>
<polygon fill="midnightblue" stroke="midnightblue" points="506.25,-250.5 516.25,-247 506.25,-243.5 506.25,-250.5"/>
</g>
<!-- Node30 -->
<g id="node30" class="node">
<title>Node30</title>
<g id="a_node30"><a xlink:href="loss_8c.html#aaeed4518371c4e75de20532e3a6aa601" target="_top" xlink:title="Mean squared error loss function.">
<polygon fill="none" stroke="black" points="626.5,-180.5 626.5,-199.5 685.5,-199.5 685.5,-180.5 626.5,-180.5"/>
<text text-anchor="middle" x="656" y="-187.5" font-family="Helvetica,sans-Serif" font-size="10.00">loss_mse</text>
</a>
</g>
</g>
<!-- Node25&#45;&gt;Node30 -->
<g id="edge30" class="edge">
<title>Node25&#45;&gt;Node30</title>
<path fill="none" stroke="midnightblue" d="M434.09,-237.39C447.74,-223.74 475.03,-199.36 504,-190 540.76,-178.12 585.22,-179.92 616.35,-183.58"/>
<polygon fill="midnightblue" stroke="midnightblue" points="616,-187.07 626.36,-184.88 616.89,-180.12 616,-187.07"/>
</g>
<!-- Node31 -->
<g id="node31" class="node">
<title>Node31</title>
<g id="a_node31"><a xlink:href="loss_8c.html#a38e786a5c46be2519aae23287c92cc23" target="_top" xlink:title="One&#45;hot classification error.">
<polygon fill="none" stroke="black" points="511.5,-123.5 511.5,-142.5 580.5,-142.5 580.5,-123.5 511.5,-123.5"/>
<text text-anchor="middle" x="546" y="-130.5" font-family="Helvetica,sans-Serif" font-size="10.00">loss_onehot</text>
</a>
</g>
</g>
<!-- Node25&#45;&gt;Node31 -->
<g id="edge31" class="edge">
<title>Node25&#45;&gt;Node31</title>
<path fill="none" stroke="midnightblue" d="M431.77,-237.43C444.47,-219.93 473.37,-182.28 504,-157 508.03,-153.67 512.58,-150.52 517.14,-147.66"/>
<polygon fill="midnightblue" stroke="midnightblue" points="518.96,-150.65 525.8,-142.56 515.41,-144.62 518.96,-150.65"/>
</g>
<!-- Node33 -->
<g id="node33" class="node">
<title>Node33</title>
<g id="a_node33"><a xlink:href="loss_8c.html#a3278a1ba45bd0ccbf39e25bde1562f8f" target="_top" xlink:title="Root mean squared error loss function.">
<polygon fill="none" stroke="black" points="515,-199.5 515,-218.5 577,-218.5 577,-199.5 515,-199.5"/>
<text text-anchor="middle" x="546" y="-206.5" font-family="Helvetica,sans-Serif" font-size="10.00">loss_rmse</text>
</a>
</g>
</g>
<!-- Node25&#45;&gt;Node33 -->
<g id="edge33" class="edge">
<title>Node25&#45;&gt;Node33</title>
<path fill="none" stroke="midnightblue" d="M455.28,-237.41C470.35,-232.64 488.75,-226.81 504.97,-221.68"/>
<polygon fill="midnightblue" stroke="midnightblue" points="506.25,-224.94 514.73,-218.59 504.14,-218.27 506.25,-224.94"/>
</g>
<!-- Node32 -->
<g id="node32" class="node">
<title>Node32</title>
<g id="a_node32"><a xlink:href="utils_8h.html#adc87687be632aa642e838b81a7404db1" target="_top" xlink:title="Returns the index of the largest element in vector X.">
<polygon fill="none" stroke="black" points="624,-123.5 624,-142.5 688,-142.5 688,-123.5 624,-123.5"/>
<text text-anchor="middle" x="656" y="-130.5" font-family="Helvetica,sans-Serif" font-size="10.00">max_index</text>
</a>
</g>
</g>
<!-- Node31&#45;&gt;Node32 -->
<g id="edge32" class="edge">
<title>Node31&#45;&gt;Node32</title>
<path fill="none" stroke="midnightblue" d="M580.58,-133C591,-133 602.6,-133 613.49,-133"/>
<polygon fill="midnightblue" stroke="midnightblue" points="613.65,-136.5 623.65,-133 613.65,-129.5 613.65,-136.5"/>
</g>
<!-- Node33&#45;&gt;Node30 -->
<g id="edge34" class="edge">
<title>Node33&#45;&gt;Node30</title>
<path fill="none" stroke="midnightblue" d="M577.08,-203.71C589.2,-201.58 603.33,-199.09 616.2,-196.83"/>
<polygon fill="midnightblue" stroke="midnightblue" points="616.95,-200.25 626.19,-195.07 615.74,-193.35 616.95,-200.25"/>
</g>
</g>
</svg>
