<?xml version="1.0" encoding="UTF-8" standalone="no"?>
<!DOCTYPE svg PUBLIC "-//W3C//DTD SVG 1.1//EN"
 "http://www.w3.org/Graphics/SVG/1.1/DTD/svg11.dtd">
<!-- Generated by graphviz version 2.43.0 (0)
 -->
<!-- Title: xcsf_store_pop Pages: 1 -->
<svg width="390pt" height="218pt"
 viewBox="0.00 0.00 390.00 218.00" xmlns="http://www.w3.org/2000/svg" xmlns:xlink="http://www.w3.org/1999/xlink">
<g id="graph0" class="graph" transform="scale(1 1) rotate(0) translate(4 214)">
<title>xcsf_store_pop</title>
<!-- Node1 -->
<g id="node1" class="node">
<title>Node1</title>
<g id="a_node1"><a xlink:title="Stores the current population.">
<polygon fill="#bfbfbf" stroke="black" points="0,-76.5 0,-95.5 83,-95.5 83,-76.5 0,-76.5"/>
<text text-anchor="middle" x="41.5" y="-83.5" font-family="Helvetica,sans-Serif" font-size="10.00">xcsf_store_pop</text>
</a>
</g>
</g>
<!-- Node2 -->
<g id="node2" class="node">
<title>Node2</title>
<g id="a_node2"><a xlink:href="cl_8c.html#ace59c7737bd658771350b51ad87569f0" target="_top" xlink:title="Initialises and creates a copy of one classifier from another.">
<polygon fill="none" stroke="black" points="119,-133.5 119,-152.5 187,-152.5 187,-133.5 119,-133.5"/>
<text text-anchor="middle" x="153" y="-140.5" font-family="Helvetica,sans-Serif" font-size="10.00">cl_init_copy</text>
</a>
</g>
</g>
<!-- Node1&#45;&gt;Node2 -->
<g id="edge1" class="edge">
<title>Node1&#45;&gt;Node2</title>
<path fill="none" stroke="midnightblue" d="M61.08,-95.67C78.56,-104.77 104.96,-118.52 124.82,-128.85"/>
<polygon fill="midnightblue" stroke="midnightblue" points="123.21,-131.96 133.7,-133.47 126.45,-125.75 123.21,-131.96"/>
</g>
<!-- Node6 -->
<g id="node6" class="node">
<title>Node6</title>
<g id="a_node6"><a xlink:href="clset_8c.html#a9e4b52faf4a3db0ea3493a0dd05526f0" target="_top" xlink:title="Adds a classifier to the set.">
<polygon fill="none" stroke="black" points="123.5,-76.5 123.5,-95.5 182.5,-95.5 182.5,-76.5 123.5,-76.5"/>
<text text-anchor="middle" x="153" y="-83.5" font-family="Helvetica,sans-Serif" font-size="10.00">clset_add</text>
</a>
</g>
</g>
<!-- Node1&#45;&gt;Node6 -->
<g id="edge5" class="edge">
<title>Node1&#45;&gt;Node6</title>
<path fill="none" stroke="midnightblue" d="M83.27,-86C93.1,-86 103.56,-86 113.29,-86"/>
<polygon fill="midnightblue" stroke="midnightblue" points="113.49,-89.5 123.49,-86 113.49,-82.5 113.49,-89.5"/>
</g>
<!-- Node8 -->
<g id="node8" class="node">
<title>Node8</title>
<g id="a_node8"><a xlink:href="clset_8c.html#a581d8fbf17d04beeb835377bd5f4784e" target="_top" xlink:title="Frees the set and the classifiers.">
<polygon fill="none" stroke="black" points="125.5,-38.5 125.5,-57.5 180.5,-57.5 180.5,-38.5 125.5,-38.5"/>
<text text-anchor="middle" x="153" y="-45.5" font-family="Helvetica,sans-Serif" font-size="10.00">clset_kill</text>
</a>
</g>
</g>
<!-- Node1&#45;&gt;Node8 -->
<g id="edge7" class="edge">
<title>Node1&#45;&gt;Node8</title>
<path fill="none" stroke="midnightblue" d="M70.13,-76.41C83.82,-71.66 100.54,-65.86 115.3,-60.74"/>
<polygon fill="midnightblue" stroke="midnightblue" points="116.83,-63.91 125.13,-57.32 114.54,-57.3 116.83,-63.91"/>
</g>
<!-- Node3 -->
<g id="node3" class="node">
<title>Node3</title>
<g id="a_node3"><a xlink:href="action_8h.html#a1c0796d1ae95f63a55f4a754d78f2b24" target="_top" xlink:title="Copies the action from one classifier to another.">
<polygon fill="none" stroke="black" points="227,-190.5 227,-209.5 283,-209.5 283,-190.5 227,-190.5"/>
<text text-anchor="middle" x="255" y="-197.5" font-family="Helvetica,sans-Serif" font-size="10.00">act_copy</text>
</a>
</g>
</g>
<!-- Node2&#45;&gt;Node3 -->
<g id="edge2" class="edge">
<title>Node2&#45;&gt;Node3</title>
<path fill="none" stroke="midnightblue" d="M170.96,-152.67C186.72,-161.65 210.39,-175.14 228.44,-185.43"/>
<polygon fill="midnightblue" stroke="midnightblue" points="226.87,-188.56 237.29,-190.47 230.33,-182.48 226.87,-188.56"/>
</g>
<!-- Node4 -->
<g id="node4" class="node">
<title>Node4</title>
<g id="a_node4"><a xlink:href="condition_8h.html#a6bbae6b382739d717f6e867da3950dea" target="_top" xlink:title="Copies the condition from one classifier to another.">
<polygon fill="none" stroke="black" points="223,-152.5 223,-171.5 287,-171.5 287,-152.5 223,-152.5"/>
<text text-anchor="middle" x="255" y="-159.5" font-family="Helvetica,sans-Serif" font-size="10.00">cond_copy</text>
</a>
</g>
</g>
<!-- Node2&#45;&gt;Node4 -->
<g id="edge3" class="edge">
<title>Node2&#45;&gt;Node4</title>
<path fill="none" stroke="midnightblue" d="M187.02,-149.27C195.28,-150.84 204.24,-152.55 212.84,-154.18"/>
<polygon fill="midnightblue" stroke="midnightblue" points="212.23,-157.63 222.71,-156.05 213.54,-150.75 212.23,-157.63"/>
</g>
<!-- Node5 -->
<g id="node5" class="node">
<title>Node5</title>
<g id="a_node5"><a xlink:href="prediction_8h.html#a7d5881fdd2d34b615e23013269e3ab04" target="_top" xlink:title="Copies the prediction from one classifier to another.">
<polygon fill="none" stroke="black" points="224,-114.5 224,-133.5 286,-133.5 286,-114.5 224,-114.5"/>
<text text-anchor="middle" x="255" y="-121.5" font-family="Helvetica,sans-Serif" font-size="10.00">pred_copy</text>
</a>
</g>
</g>
<!-- Node2&#45;&gt;Node5 -->
<g id="edge4" class="edge">
<title>Node2&#45;&gt;Node5</title>
<path fill="none" stroke="midnightblue" d="M187.02,-136.73C195.53,-135.11 204.77,-133.35 213.61,-131.67"/>
<polygon fill="midnightblue" stroke="midnightblue" points="214.55,-135.06 223.72,-129.75 213.24,-128.18 214.55,-135.06"/>
</g>
<!-- Node7 -->
<g id="node7" class="node">
<title>Node7</title>
<g id="a_node7"><a xlink:href="CMakeLists_8txt.html#abb28d976c965ac9bcae2ee68ad8e0f0a" target="_top" xlink:title=" ">
<polygon fill="none" stroke="black" points="240,-76.5 240,-95.5 270,-95.5 270,-76.5 240,-76.5"/>
<text text-anchor="middle" x="255" y="-83.5" font-family="Helvetica,sans-Serif" font-size="10.00">set</text>
</a>
</g>
</g>
<!-- Node6&#45;&gt;Node7 -->
<g id="edge6" class="edge">
<title>Node6&#45;&gt;Node7</title>
<path fill="none" stroke="midnightblue" d="M182.66,-86C197.41,-86 215.22,-86 229.35,-86"/>
<polygon fill="midnightblue" stroke="midnightblue" points="229.77,-89.5 239.77,-86 229.77,-82.5 229.77,-89.5"/>
</g>
<!-- Node8&#45;&gt;Node7 -->
<g id="edge12" class="edge">
<title>Node8&#45;&gt;Node7</title>
<path fill="none" stroke="midnightblue" d="M179.23,-57.59C194.99,-63.58 215.14,-71.23 230.55,-77.09"/>
<polygon fill="midnightblue" stroke="midnightblue" points="229.31,-80.36 239.9,-80.64 231.79,-73.82 229.31,-80.36"/>
</g>
<!-- Node9 -->
<g id="node9" class="node">
<title>Node9</title>
<g id="a_node9"><a xlink:href="cl_8c.html#a2189299bc53d8016b5e05653c9a2a39d" target="_top" xlink:title="Frees the memory used by a classifier.">
<polygon fill="none" stroke="black" points="232,-38.5 232,-57.5 278,-57.5 278,-38.5 232,-38.5"/>
<text text-anchor="middle" x="255" y="-45.5" font-family="Helvetica,sans-Serif" font-size="10.00">cl_free</text>
</a>
</g>
</g>
<!-- Node8&#45;&gt;Node9 -->
<g id="edge8" class="edge">
<title>Node8&#45;&gt;Node9</title>
<path fill="none" stroke="midnightblue" d="M180.54,-48C193.14,-48 208.31,-48 221.59,-48"/>
<polygon fill="midnightblue" stroke="midnightblue" points="221.74,-51.5 231.74,-48 221.74,-44.5 221.74,-51.5"/>
</g>
<!-- Node10 -->
<g id="node10" class="node">
<title>Node10</title>
<g id="a_node10"><a xlink:href="action_8h.html#a5a5a0750972ad7cd0b1eecef427964a4" target="_top" xlink:title="Frees the memory used by the classifier action.">
<polygon fill="none" stroke="black" points="326.5,-76.5 326.5,-95.5 378.5,-95.5 378.5,-76.5 326.5,-76.5"/>
<text text-anchor="middle" x="352.5" y="-83.5" font-family="Helvetica,sans-Serif" font-size="10.00">act_free</text>
</a>
</g>
</g>
<!-- Node9&#45;&gt;Node10 -->
<g id="edge9" class="edge">
<title>Node9&#45;&gt;Node10</title>
<path fill="none" stroke="midnightblue" d="M278.15,-56.81C290.03,-61.54 304.92,-67.46 318.17,-72.74"/>
<polygon fill="midnightblue" stroke="midnightblue" points="316.88,-75.99 327.46,-76.44 319.47,-69.49 316.88,-75.99"/>
</g>
<!-- Node11 -->
<g id="node11" class="node">
<title>Node11</title>
<g id="a_node11"><a xlink:href="condition_8h.html#a33fca7a6e9953aa7f89c3d1528a19e28" target="_top" xlink:title="Frees the memory used by the classifier condition.">
<polygon fill="none" stroke="black" points="323,-38.5 323,-57.5 382,-57.5 382,-38.5 323,-38.5"/>
<text text-anchor="middle" x="352.5" y="-45.5" font-family="Helvetica,sans-Serif" font-size="10.00">cond_free</text>
</a>
</g>
</g>
<!-- Node9&#45;&gt;Node11 -->
<g id="edge10" class="edge">
<title>Node9&#45;&gt;Node11</title>
<path fill="none" stroke="midnightblue" d="M278.15,-48C288.46,-48 301.04,-48 312.84,-48"/>
<polygon fill="midnightblue" stroke="midnightblue" points="312.94,-51.5 322.94,-48 312.94,-44.5 312.94,-51.5"/>
</g>
<!-- Node12 -->
<g id="node12" class="node">
<title>Node12</title>
<g id="a_node12"><a xlink:href="prediction_8h.html#a2211a31c93cf238c207666675d08fa5e" target="_top" xlink:title="Frees the memory used by the classifier prediction.">
<polygon fill="none" stroke="black" points="324,-0.5 324,-19.5 381,-19.5 381,-0.5 324,-0.5"/>
<text text-anchor="middle" x="352.5" y="-7.5" font-family="Helvetica,sans-Serif" font-size="10.00">pred_free</text>
</a>
</g>
</g>
<!-- Node9&#45;&gt;Node12 -->
<g id="edge11" class="edge">
<title>Node9&#45;&gt;Node12</title>
<path fill="none" stroke="midnightblue" d="M278.15,-39.19C290.03,-34.46 304.92,-28.54 318.17,-23.26"/>
<polygon fill="midnightblue" stroke="midnightblue" points="319.47,-26.51 327.46,-19.56 316.88,-20.01 319.47,-26.51"/>
</g>
</g>
</svg>
