<?xml version="1.0" encoding="UTF-8" standalone="no"?>
<!DOCTYPE svg PUBLIC "-//W3C//DTD SVG 1.1//EN"
 "http://www.w3.org/Graphics/SVG/1.1/DTD/svg11.dtd">
<!-- Generated by graphviz version 2.43.0 (0)
 -->
<!-- Title: xcsf_print_pop Pages: 1 -->
<svg width="368pt" height="142pt"
 viewBox="0.00 0.00 368.00 142.00" xmlns="http://www.w3.org/2000/svg" xmlns:xlink="http://www.w3.org/1999/xlink">
<g id="graph0" class="graph" transform="scale(1 1) rotate(0) translate(4 138)">
<title>xcsf_print_pop</title>
<!-- Node1 -->
<g id="node1" class="node">
<title>Node1</title>
<g id="a_node1"><a xlink:title="Prints the current XCSF population.">
<polygon fill="#bfbfbf" stroke="black" points="0,-57.5 0,-76.5 80,-76.5 80,-57.5 0,-57.5"/>
<text text-anchor="middle" x="40" y="-64.5" font-family="Helvetica,sans-Serif" font-size="10.00">xcsf_print_pop</text>
</a>
</g>
</g>
<!-- Node2 -->
<g id="node2" class="node">
<title>Node2</title>
<g id="a_node2"><a xlink:href="clset_8c.html#a58a5237e8441e4900c0decb003da659c" target="_top" xlink:title="Prints the classifiers in the set.">
<polygon fill="none" stroke="black" points="116,-57.5 116,-76.5 178,-76.5 178,-57.5 116,-57.5"/>
<text text-anchor="middle" x="147" y="-64.5" font-family="Helvetica,sans-Serif" font-size="10.00">clset_print</text>
</a>
</g>
</g>
<!-- Node1&#45;&gt;Node2 -->
<g id="edge1" class="edge">
<title>Node1&#45;&gt;Node2</title>
<path fill="none" stroke="midnightblue" d="M80.1,-67C88.38,-67 97.14,-67 105.47,-67"/>
<polygon fill="midnightblue" stroke="midnightblue" points="105.73,-70.5 115.73,-67 105.73,-63.5 105.73,-70.5"/>
</g>
<!-- Node3 -->
<g id="node3" class="node">
<title>Node3</title>
<g id="a_node3"><a xlink:href="cl_8c.html#a8e9482a760bb27f44fe1a045b8a869e5" target="_top" xlink:title="Prints a classifier.">
<polygon fill="none" stroke="black" points="214,-57.5 214,-76.5 262,-76.5 262,-57.5 214,-57.5"/>
<text text-anchor="middle" x="238" y="-64.5" font-family="Helvetica,sans-Serif" font-size="10.00">cl_print</text>
</a>
</g>
</g>
<!-- Node2&#45;&gt;Node3 -->
<g id="edge2" class="edge">
<title>Node2&#45;&gt;Node3</title>
<path fill="none" stroke="midnightblue" d="M178.13,-67C186.36,-67 195.32,-67 203.71,-67"/>
<polygon fill="midnightblue" stroke="midnightblue" points="203.94,-70.5 213.94,-67 203.94,-63.5 203.94,-70.5"/>
</g>
<!-- Node4 -->
<g id="node4" class="node">
<title>Node4</title>
<g id="a_node4"><a xlink:href="action_8h.html#a6c954556c09b79fe6cd741a50ac8538f" target="_top" xlink:title="Prints the classifier action.">
<polygon fill="none" stroke="black" points="302,-114.5 302,-133.5 356,-133.5 356,-114.5 302,-114.5"/>
<text text-anchor="middle" x="329" y="-121.5" font-family="Helvetica,sans-Serif" font-size="10.00">act_print</text>
</a>
</g>
</g>
<!-- Node3&#45;&gt;Node4 -->
<g id="edge3" class="edge">
<title>Node3&#45;&gt;Node4</title>
<path fill="none" stroke="midnightblue" d="M254.01,-76.72C265.93,-84.41 283.01,-95.43 298,-105 299.94,-106.24 301.96,-107.52 303.98,-108.81"/>
<polygon fill="midnightblue" stroke="midnightblue" points="302.4,-111.96 312.72,-114.36 306.15,-106.04 302.4,-111.96"/>
</g>
<!-- Node5 -->
<g id="node5" class="node">
<title>Node5</title>
<g id="a_node5"><a xlink:href="cl_8c.html#a1358864e37832999f9688487ab8f8870" target="_top" xlink:title="Returns the fraction of observed inputs matched by a classifier.">
<polygon fill="none" stroke="black" points="302,-76.5 302,-95.5 356,-95.5 356,-76.5 302,-76.5"/>
<text text-anchor="middle" x="329" y="-83.5" font-family="Helvetica,sans-Serif" font-size="10.00">cl_mfrac</text>
</a>
</g>
</g>
<!-- Node3&#45;&gt;Node5 -->
<g id="edge4" class="edge">
<title>Node3&#45;&gt;Node5</title>
<path fill="none" stroke="midnightblue" d="M262.38,-71.99C271.4,-73.92 281.93,-76.17 291.88,-78.29"/>
<polygon fill="midnightblue" stroke="midnightblue" points="291.44,-81.77 301.95,-80.44 292.9,-74.93 291.44,-81.77"/>
</g>
<!-- Node6 -->
<g id="node6" class="node">
<title>Node6</title>
<g id="a_node6"><a xlink:href="condition_8h.html#a20491b078e8cccf911e34338edcc69ba" target="_top" xlink:title="Prints the classifier condition.">
<polygon fill="none" stroke="black" points="298,-38.5 298,-57.5 360,-57.5 360,-38.5 298,-38.5"/>
<text text-anchor="middle" x="329" y="-45.5" font-family="Helvetica,sans-Serif" font-size="10.00">cond_print</text>
</a>
</g>
</g>
<!-- Node3&#45;&gt;Node6 -->
<g id="edge5" class="edge">
<title>Node3&#45;&gt;Node6</title>
<path fill="none" stroke="midnightblue" d="M262.38,-62.01C270.16,-60.35 279.05,-58.45 287.73,-56.6"/>
<polygon fill="midnightblue" stroke="midnightblue" points="288.68,-59.97 297.73,-54.46 287.22,-53.13 288.68,-59.97"/>
</g>
<!-- Node7 -->
<g id="node7" class="node">
<title>Node7</title>
<g id="a_node7"><a xlink:href="prediction_8h.html#ac6e6364fe3504c597e286a5d2bd34d2c" target="_top" xlink:title="Prints the classifier prediction.">
<polygon fill="none" stroke="black" points="299.5,-0.5 299.5,-19.5 358.5,-19.5 358.5,-0.5 299.5,-0.5"/>
<text text-anchor="middle" x="329" y="-7.5" font-family="Helvetica,sans-Serif" font-size="10.00">pred_print</text>
</a>
</g>
</g>
<!-- Node3&#45;&gt;Node7 -->
<g id="edge6" class="edge">
<title>Node3&#45;&gt;Node7</title>
<path fill="none" stroke="midnightblue" d="M254.01,-57.28C265.93,-49.59 283.01,-38.57 298,-29 299.94,-27.76 301.96,-26.48 303.98,-25.19"/>
<polygon fill="midnightblue" stroke="midnightblue" points="306.15,-27.96 312.72,-19.64 302.4,-22.04 306.15,-27.96"/>
</g>
</g>
</svg>
