<?xml version="1.0" encoding="UTF-8" standalone="no"?>
<!DOCTYPE svg PUBLIC "-//W3C//DTD SVG 1.1//EN"
 "http://www.w3.org/Graphics/SVG/1.1/DTD/svg11.dtd">
<!-- Generated by graphviz version 2.43.0 (0)
 -->
<!-- Title: xcsf.c Pages: 1 -->
<svg width="878pt" height="302pt"
 viewBox="0.00 0.00 877.67 302.00" xmlns="http://www.w3.org/2000/svg" xmlns:xlink="http://www.w3.org/1999/xlink">
<g id="graph0" class="graph" transform="scale(1 1) rotate(0) translate(4 298)">
<title>xcsf.c</title>
<!-- Node1 -->
<g id="Node000001" class="node">
<title>Node1</title>
<g id="a_Node000001"><a xlink:title="System&#45;level functions for initialising, saving, loading, etc.">
<polygon fill="#999999" stroke="#666666" points="662.5,-294 618.5,-294 618.5,-275 662.5,-275 662.5,-294"/>
<text text-anchor="middle" x="640.5" y="-282" font-family="Helvetica,sans-Serif" font-size="10.00">xcsf.c</text>
</a>
</g>
</g>
<!-- Node2 -->
<g id="Node000002" class="node">
<title>Node2</title>
<g id="a_Node000002"><a xlink:href="cl_8h.html" target="_top" xlink:title="Functions operating on classifiers.">
<polygon fill="white" stroke="#666666" points="665.5,-184 633.5,-184 633.5,-165 665.5,-165 665.5,-184"/>
<text text-anchor="middle" x="649.5" y="-172" font-family="Helvetica,sans-Serif" font-size="10.00">cl.h</text>
</a>
</g>
</g>
<!-- Node1&#45;&gt;Node2 -->
<g id="edge1_Node000001_Node000002" class="edge">
<title>Node1&#45;&gt;Node2</title>
<g id="a_edge1_Node000001_Node000002"><a xlink:title=" ">
<path fill="none" stroke="#63b8ff" d="M641.24,-274.66C642.69,-257.17 645.97,-217.8 647.94,-194.27"/>
<polygon fill="#63b8ff" stroke="#63b8ff" points="651.44,-194.41 648.78,-184.16 644.46,-193.83 651.44,-194.41"/>
</a>
</g>
</g>
<!-- Node17 -->
<g id="Node000017" class="node">
<title>Node17</title>
<g id="a_Node000017"><a xlink:href="clset_8h.html" target="_top" xlink:title="Functions operating on sets of classifiers.">
<polygon fill="white" stroke="#666666" points="714.5,-239 668.5,-239 668.5,-220 714.5,-220 714.5,-239"/>
<text text-anchor="middle" x="691.5" y="-227" font-family="Helvetica,sans-Serif" font-size="10.00">clset.h</text>
</a>
</g>
</g>
<!-- Node1&#45;&gt;Node17 -->
<g id="edge20_Node000001_Node000017" class="edge">
<title>Node1&#45;&gt;Node17</title>
<g id="a_edge20_Node000001_Node000017"><a xlink:title=" ">
<path fill="none" stroke="#63b8ff" d="M648.92,-274.75C656.27,-267.11 667.13,-255.82 676.04,-246.56"/>
<polygon fill="#63b8ff" stroke="#63b8ff" points="678.82,-248.72 683.24,-239.09 673.78,-243.87 678.82,-248.72"/>
</a>
</g>
</g>
<!-- Node18 -->
<g id="Node000018" class="node">
<title>Node18</title>
<g id="a_Node000018"><a xlink:href="cond__neural_8h.html" target="_top" xlink:title="Multi&#45;layer perceptron neural network condition functions.">
<polygon fill="white" stroke="#666666" points="343,-239 266,-239 266,-220 343,-220 343,-239"/>
<text text-anchor="middle" x="304.5" y="-227" font-family="Helvetica,sans-Serif" font-size="10.00">cond_neural.h</text>
</a>
</g>
</g>
<!-- Node1&#45;&gt;Node18 -->
<g id="edge22_Node000001_Node000018" class="edge">
<title>Node1&#45;&gt;Node18</title>
<g id="a_edge22_Node000001_Node000018"><a xlink:title=" ">
<path fill="none" stroke="#63b8ff" d="M618.45,-280.02C564.91,-271.58 426.98,-249.82 353.04,-238.16"/>
<polygon fill="#63b8ff" stroke="#63b8ff" points="353.47,-234.68 343.04,-236.58 352.38,-241.6 353.47,-234.68"/>
</a>
</g>
</g>
<!-- Node24 -->
<g id="Node000024" class="node">
<title>Node24</title>
<g id="a_Node000024"><a xlink:href="loss_8h.html" target="_top" xlink:title="Loss functions for calculating prediction error.">
<polygon fill="white" stroke="#666666" points="765,-184 722,-184 722,-165 765,-165 765,-184"/>
<text text-anchor="middle" x="743.5" y="-172" font-family="Helvetica,sans-Serif" font-size="10.00">loss.h</text>
</a>
</g>
</g>
<!-- Node1&#45;&gt;Node24 -->
<g id="edge39_Node000001_Node000024" class="edge">
<title>Node1&#45;&gt;Node24</title>
<g id="a_edge39_Node000001_Node000024"><a xlink:title=" ">
<path fill="none" stroke="#63b8ff" d="M662.61,-276.91C681.36,-270.24 707.64,-258.14 723.5,-239 733.98,-226.34 738.99,-208.16 741.37,-194.49"/>
<polygon fill="#63b8ff" stroke="#63b8ff" points="744.88,-194.68 742.82,-184.29 737.95,-193.7 744.88,-194.68"/>
</a>
</g>
</g>
<!-- Node25 -->
<g id="Node000025" class="node">
<title>Node25</title>
<g id="a_Node000025"><a xlink:href="pa_8h.html" target="_top" xlink:title="Prediction array functions.">
<polygon fill="white" stroke="#666666" points="612,-239 577,-239 577,-220 612,-220 612,-239"/>
<text text-anchor="middle" x="594.5" y="-227" font-family="Helvetica,sans-Serif" font-size="10.00">pa.h</text>
</a>
</g>
</g>
<!-- Node1&#45;&gt;Node25 -->
<g id="edge41_Node000001_Node000025" class="edge">
<title>Node1&#45;&gt;Node25</title>
<g id="a_edge41_Node000001_Node000025"><a xlink:title=" ">
<path fill="none" stroke="#63b8ff" d="M632.9,-274.75C626.34,-267.18 616.68,-256.05 608.69,-246.84"/>
<polygon fill="#63b8ff" stroke="#63b8ff" points="611.15,-244.35 601.95,-239.09 605.87,-248.94 611.15,-244.35"/>
</a>
</g>
</g>
<!-- Node26 -->
<g id="Node000026" class="node">
<title>Node26</title>
<g id="a_Node000026"><a xlink:href="param_8h.html" target="_top" xlink:title="Functions for setting and printing parameters.">
<polygon fill="white" stroke="#666666" points="822.5,-239 770.5,-239 770.5,-220 822.5,-220 822.5,-239"/>
<text text-anchor="middle" x="796.5" y="-227" font-family="Helvetica,sans-Serif" font-size="10.00">param.h</text>
</a>
</g>
</g>
<!-- Node1&#45;&gt;Node26 -->
<g id="edge43_Node000001_Node000026" class="edge">
<title>Node1&#45;&gt;Node26</title>
<g id="a_edge43_Node000001_Node000026"><a xlink:title=" ">
<path fill="none" stroke="#63b8ff" d="M662.52,-276.02C688.25,-267.28 731.16,-252.7 761.48,-242.4"/>
<polygon fill="#63b8ff" stroke="#63b8ff" points="762.89,-245.62 771.23,-239.08 760.64,-238.99 762.89,-245.62"/>
</a>
</g>
</g>
<!-- Node27 -->
<g id="Node000027" class="node">
<title>Node27</title>
<g id="a_Node000027"><a xlink:href="pred__neural_8h.html" target="_top" xlink:title="Multi&#45;layer perceptron neural network prediction functions.">
<polygon fill="white" stroke="#666666" points="490,-239 415,-239 415,-220 490,-220 490,-239"/>
<text text-anchor="middle" x="452.5" y="-227" font-family="Helvetica,sans-Serif" font-size="10.00">pred_neural.h</text>
</a>
</g>
</g>
<!-- Node1&#45;&gt;Node27 -->
<g id="edge46_Node000001_Node000027" class="edge">
<title>Node1&#45;&gt;Node27</title>
<g id="a_edge46_Node000001_Node000027"><a xlink:title=" ">
<path fill="none" stroke="#63b8ff" d="M618.2,-277.21C587.3,-268.5 530.97,-252.62 492.66,-241.82"/>
<polygon fill="#63b8ff" stroke="#63b8ff" points="493.42,-238.4 482.85,-239.05 491.52,-245.14 493.42,-238.4"/>
</a>
</g>
</g>
<!-- Node3 -->
<g id="Node000003" class="node">
<title>Node3</title>
<g id="a_Node000003"><a xlink:href="xcsf_8h.html" target="_top" xlink:title="XCSF data structures.">
<polygon fill="white" stroke="#666666" points="623.5,-129 579.5,-129 579.5,-110 623.5,-110 623.5,-129"/>
<text text-anchor="middle" x="601.5" y="-117" font-family="Helvetica,sans-Serif" font-size="10.00">xcsf.h</text>
</a>
</g>
</g>
<!-- Node2&#45;&gt;Node3 -->
<g id="edge2_Node000002_Node000003" class="edge">
<title>Node2&#45;&gt;Node3</title>
<g id="a_edge2_Node000002_Node000003"><a xlink:title=" ">
<path fill="none" stroke="#63b8ff" d="M641.57,-164.75C634.65,-157.11 624.43,-145.82 616.05,-136.56"/>
<polygon fill="#63b8ff" stroke="#63b8ff" points="618.59,-134.15 609.28,-129.09 613.4,-138.85 618.59,-134.15"/>
</a>
</g>
</g>
<!-- Node4 -->
<g id="Node000004" class="node">
<title>Node4</title>
<g id="a_Node000004"><a xlink:href="utils_8h.html" target="_top" xlink:title="Utility functions for random number handling, etc.">
<polygon fill="white" stroke="#666666" points="264,-74 221,-74 221,-55 264,-55 264,-74"/>
<text text-anchor="middle" x="242.5" y="-62" font-family="Helvetica,sans-Serif" font-size="10.00">utils.h</text>
</a>
</g>
</g>
<!-- Node3&#45;&gt;Node4 -->
<g id="edge3_Node000003_Node000004" class="edge">
<title>Node3&#45;&gt;Node4</title>
<g id="a_edge3_Node000003_Node000004"><a xlink:title=" ">
<path fill="none" stroke="#63b8ff" d="M579.31,-115.22C517.95,-106.17 345.79,-80.75 274.27,-70.19"/>
<polygon fill="#63b8ff" stroke="#63b8ff" points="274.49,-66.68 264.08,-68.69 273.46,-73.61 274.49,-66.68"/>
</a>
</g>
</g>
<!-- Node7 -->
<g id="Node000007" class="node">
<title>Node7</title>
<g id="a_Node000007"><a xlink:title=" ">
<polygon fill="#e0e0e0" stroke="#999999" points="47,-19 0,-19 0,0 47,0 47,-19"/>
<text text-anchor="middle" x="23.5" y="-7" font-family="Helvetica,sans-Serif" font-size="10.00">math.h</text>
</a>
</g>
</g>
<!-- Node3&#45;&gt;Node7 -->
<g id="edge14_Node000003_Node000007" class="edge">
<title>Node3&#45;&gt;Node7</title>
<g id="a_edge14_Node000003_Node000007"><a xlink:title=" ">
<path fill="none" stroke="#63b8ff" d="M579.24,-117.61C519.2,-114.86 349.18,-104.74 211.5,-74 154.34,-61.24 90.18,-37.42 53.53,-22.86"/>
<polygon fill="#63b8ff" stroke="#63b8ff" points="54.54,-19.49 43.95,-19.01 51.93,-25.99 54.54,-19.49"/>
</a>
</g>
</g>
<!-- Node8 -->
<g id="Node000008" class="node">
<title>Node8</title>
<g id="a_Node000008"><a xlink:title=" ">
<polygon fill="#e0e0e0" stroke="#999999" points="384.5,-19 328.5,-19 328.5,0 384.5,0 384.5,-19"/>
<text text-anchor="middle" x="356.5" y="-7" font-family="Helvetica,sans-Serif" font-size="10.00">stdbool.h</text>
</a>
</g>
</g>
<!-- Node3&#45;&gt;Node8 -->
<g id="edge15_Node000003_Node000008" class="edge">
<title>Node3&#45;&gt;Node8</title>
<g id="a_edge15_Node000003_Node000008"><a xlink:title=" ">
<path fill="none" stroke="#63b8ff" d="M592.99,-109.74C579.21,-96.07 550.63,-69.69 521.5,-55 510.11,-49.25 439.55,-31.14 394.46,-19.87"/>
<polygon fill="#63b8ff" stroke="#63b8ff" points="395.26,-16.47 384.71,-17.44 393.57,-23.26 395.26,-16.47"/>
</a>
</g>
</g>
<!-- Node9 -->
<g id="Node000009" class="node">
<title>Node9</title>
<g id="a_Node000009"><a xlink:title=" ">
<polygon fill="#e0e0e0" stroke="#999999" points="448.5,-19 402.5,-19 402.5,0 448.5,0 448.5,-19"/>
<text text-anchor="middle" x="425.5" y="-7" font-family="Helvetica,sans-Serif" font-size="10.00">stdio.h</text>
</a>
</g>
</g>
<!-- Node3&#45;&gt;Node9 -->
<g id="edge17_Node000003_Node000009" class="edge">
<title>Node3&#45;&gt;Node9</title>
<g id="a_edge17_Node000003_Node000009"><a xlink:title=" ">
<path fill="none" stroke="#63b8ff" d="M623.71,-117.68C676.32,-115.22 806.11,-105.96 832.5,-74 837.88,-67.49 838.18,-61.25 832.5,-55 778.18,4.78 556.29,-31.06 458.95,-18.72"/>
<polygon fill="#63b8ff" stroke="#63b8ff" points="459.23,-15.22 448.82,-17.17 458.18,-22.14 459.23,-15.22"/>
</a>
</g>
</g>
<!-- Node10 -->
<g id="Node000010" class="node">
<title>Node10</title>
<g id="a_Node000010"><a xlink:title=" ">
<polygon fill="#e0e0e0" stroke="#999999" points="514.5,-19 466.5,-19 466.5,0 514.5,0 514.5,-19"/>
<text text-anchor="middle" x="490.5" y="-7" font-family="Helvetica,sans-Serif" font-size="10.00">stdlib.h</text>
</a>
</g>
</g>
<!-- Node3&#45;&gt;Node10 -->
<g id="edge18_Node000003_Node000010" class="edge">
<title>Node3&#45;&gt;Node10</title>
<g id="a_edge18_Node000003_Node000010"><a xlink:title=" ">
<path fill="none" stroke="#63b8ff" d="M623.82,-118.26C681.74,-117.13 834.51,-110.65 865.5,-74 870.95,-67.55 871.11,-61.31 865.5,-55 843.04,-29.71 613.12,-16.28 524.8,-12.02"/>
<polygon fill="#63b8ff" stroke="#63b8ff" points="524.9,-8.52 514.75,-11.54 524.57,-15.51 524.9,-8.52"/>
</a>
</g>
</g>
<!-- Node11 -->
<g id="Node000011" class="node">
<title>Node11</title>
<g id="a_Node000011"><a xlink:title=" ">
<polygon fill="#e0e0e0" stroke="#999999" points="617,-74 570,-74 570,-55 617,-55 617,-74"/>
<text text-anchor="middle" x="593.5" y="-62" font-family="Helvetica,sans-Serif" font-size="10.00">errno.h</text>
</a>
</g>
</g>
<!-- Node3&#45;&gt;Node11 -->
<g id="edge10_Node000003_Node000011" class="edge">
<title>Node3&#45;&gt;Node11</title>
<g id="a_edge10_Node000003_Node000011"><a xlink:title=" ">
<path fill="none" stroke="#63b8ff" d="M600.18,-109.75C599.13,-102.8 597.63,-92.85 596.31,-84.13"/>
<polygon fill="#63b8ff" stroke="#63b8ff" points="599.75,-83.45 594.8,-74.09 592.83,-84.5 599.75,-83.45"/>
</a>
</g>
</g>
<!-- Node12 -->
<g id="Node000012" class="node">
<title>Node12</title>
<g id="a_Node000012"><a xlink:title=" ">
<polygon fill="#e0e0e0" stroke="#999999" points="679.5,-74 635.5,-74 635.5,-55 679.5,-55 679.5,-74"/>
<text text-anchor="middle" x="657.5" y="-62" font-family="Helvetica,sans-Serif" font-size="10.00">float.h</text>
</a>
</g>
</g>
<!-- Node3&#45;&gt;Node12 -->
<g id="edge11_Node000003_Node000012" class="edge">
<title>Node3&#45;&gt;Node12</title>
<g id="a_edge11_Node000003_Node000012"><a xlink:title=" ">
<path fill="none" stroke="#63b8ff" d="M610.5,-109.98C618.69,-102.23 631.01,-90.58 640.97,-81.14"/>
<polygon fill="#63b8ff" stroke="#63b8ff" points="643.48,-83.59 648.34,-74.17 638.67,-78.5 643.48,-83.59"/>
</a>
</g>
</g>
<!-- Node13 -->
<g id="Node000013" class="node">
<title>Node13</title>
<g id="a_Node000013"><a xlink:title=" ">
<polygon fill="#e0e0e0" stroke="#999999" points="757,-74 698,-74 698,-55 757,-55 757,-74"/>
<text text-anchor="middle" x="727.5" y="-62" font-family="Helvetica,sans-Serif" font-size="10.00">inttypes.h</text>
</a>
</g>
</g>
<!-- Node3&#45;&gt;Node13 -->
<g id="edge12_Node000003_Node000013" class="edge">
<title>Node3&#45;&gt;Node13</title>
<g id="a_edge12_Node000003_Node000013"><a xlink:title=" ">
<path fill="none" stroke="#63b8ff" d="M621.74,-109.98C642.2,-101.38 674.03,-87.99 697.43,-78.15"/>
<polygon fill="#63b8ff" stroke="#63b8ff" points="699.03,-81.27 706.89,-74.17 696.31,-74.82 699.03,-81.27"/>
</a>
</g>
</g>
<!-- Node14 -->
<g id="Node000014" class="node">
<title>Node14</title>
<g id="a_Node000014"><a xlink:title=" ">
<polygon fill="#e0e0e0" stroke="#999999" points="823.5,-74 775.5,-74 775.5,-55 823.5,-55 823.5,-74"/>
<text text-anchor="middle" x="799.5" y="-62" font-family="Helvetica,sans-Serif" font-size="10.00">limits.h</text>
</a>
</g>
</g>
<!-- Node3&#45;&gt;Node14 -->
<g id="edge13_Node000003_Node000014" class="edge">
<title>Node3&#45;&gt;Node14</title>
<g id="a_edge13_Node000003_Node000014"><a xlink:title=" ">
<path fill="none" stroke="#63b8ff" d="M623.83,-112.52C658.42,-103.26 725.19,-85.39 765.71,-74.55"/>
<polygon fill="#63b8ff" stroke="#63b8ff" points="766.65,-77.92 775.41,-71.95 764.84,-71.15 766.65,-77.92"/>
</a>
</g>
</g>
<!-- Node15 -->
<g id="Node000015" class="node">
<title>Node15</title>
<g id="a_Node000015"><a xlink:title=" ">
<polygon fill="#e0e0e0" stroke="#999999" points="446,-74 397,-74 397,-55 446,-55 446,-74"/>
<text text-anchor="middle" x="421.5" y="-62" font-family="Helvetica,sans-Serif" font-size="10.00">stdint.h</text>
</a>
</g>
</g>
<!-- Node3&#45;&gt;Node15 -->
<g id="edge16_Node000003_Node000015" class="edge">
<title>Node3&#45;&gt;Node15</title>
<g id="a_edge16_Node000003_Node000015"><a xlink:title=" ">
<path fill="none" stroke="#63b8ff" d="M579.43,-112C548.54,-102.91 492.12,-86.29 455.75,-75.58"/>
<polygon fill="#63b8ff" stroke="#63b8ff" points="456.64,-72.2 446.06,-72.73 454.66,-78.91 456.64,-72.2"/>
</a>
</g>
</g>
<!-- Node16 -->
<g id="Node000016" class="node">
<title>Node16</title>
<g id="a_Node000016"><a xlink:title=" ">
<polygon fill="#e0e0e0" stroke="#999999" points="513,-74 464,-74 464,-55 513,-55 513,-74"/>
<text text-anchor="middle" x="488.5" y="-62" font-family="Helvetica,sans-Serif" font-size="10.00">string.h</text>
</a>
</g>
</g>
<!-- Node3&#45;&gt;Node16 -->
<g id="edge19_Node000003_Node000016" class="edge">
<title>Node3&#45;&gt;Node16</title>
<g id="a_edge19_Node000003_Node000016"><a xlink:title=" ">
<path fill="none" stroke="#63b8ff" d="M583.34,-109.98C565.25,-101.5 537.22,-88.35 516.31,-78.54"/>
<polygon fill="#63b8ff" stroke="#63b8ff" points="517.53,-75.25 506.99,-74.17 514.55,-81.59 517.53,-75.25"/>
</a>
</g>
</g>
<!-- Node5 -->
<g id="Node000005" class="node">
<title>Node5</title>
<g id="a_Node000005"><a xlink:title=" ">
<polygon fill="#e0e0e0" stroke="#999999" points="310.5,-19 196.5,-19 196.5,0 310.5,0 310.5,-19"/>
<text text-anchor="middle" x="253.5" y="-7" font-family="Helvetica,sans-Serif" font-size="10.00">../lib/cJSON/cJSON.h</text>
</a>
</g>
</g>
<!-- Node4&#45;&gt;Node5 -->
<g id="edge4_Node000004_Node000005" class="edge">
<title>Node4&#45;&gt;Node5</title>
<g id="a_edge4_Node000004_Node000005"><a xlink:title=" ">
<path fill="none" stroke="#63b8ff" d="M244.32,-54.75C245.76,-47.8 247.82,-37.85 249.63,-29.13"/>
<polygon fill="#63b8ff" stroke="#63b8ff" points="253.11,-29.59 251.72,-19.09 246.26,-28.17 253.11,-29.59"/>
</a>
</g>
</g>
<!-- Node6 -->
<g id="Node000006" class="node">
<title>Node6</title>
<g id="a_Node000006"><a xlink:title=" ">
<polygon fill="#e0e0e0" stroke="#999999" points="178,-19 65,-19 65,0 178,0 178,-19"/>
<text text-anchor="middle" x="121.5" y="-7" font-family="Helvetica,sans-Serif" font-size="10.00">../lib/dSFMT/dSFMT.h</text>
</a>
</g>
</g>
<!-- Node4&#45;&gt;Node6 -->
<g id="edge5_Node000004_Node000006" class="edge">
<title>Node4&#45;&gt;Node6</title>
<g id="a_edge5_Node000004_Node000006"><a xlink:title=" ">
<path fill="none" stroke="#63b8ff" d="M223.06,-54.98C203.51,-46.42 173.12,-33.11 150.68,-23.28"/>
<polygon fill="#63b8ff" stroke="#63b8ff" points="151.86,-19.98 141.29,-19.17 149.05,-26.39 151.86,-19.98"/>
</a>
</g>
</g>
<!-- Node4&#45;&gt;Node7 -->
<g id="edge6_Node000004_Node000007" class="edge">
<title>Node4&#45;&gt;Node7</title>
<g id="a_edge6_Node000004_Node000007"><a xlink:title=" ">
<path fill="none" stroke="#63b8ff" d="M220.86,-58.54C187.69,-50.9 122.03,-35.62 57.22,-19.39"/>
<polygon fill="#63b8ff" stroke="#63b8ff" points="57.8,-15.93 47.25,-16.88 56.09,-22.71 57.8,-15.93"/>
</a>
</g>
</g>
<!-- Node4&#45;&gt;Node8 -->
<g id="edge7_Node000004_Node000008" class="edge">
<title>Node4&#45;&gt;Node8</title>
<g id="a_edge7_Node000004_Node000008"><a xlink:title=" ">
<path fill="none" stroke="#63b8ff" d="M260.82,-54.98C279.16,-46.46 307.61,-33.23 328.73,-23.41"/>
<polygon fill="#63b8ff" stroke="#63b8ff" points="330.26,-26.56 337.85,-19.17 327.31,-20.21 330.26,-26.56"/>
</a>
</g>
</g>
<!-- Node4&#45;&gt;Node9 -->
<g id="edge8_Node000004_Node000009" class="edge">
<title>Node4&#45;&gt;Node9</title>
<g id="a_edge8_Node000004_Node000009"><a xlink:title=" ">
<path fill="none" stroke="#63b8ff" d="M264.21,-57.21C295.97,-48.01 355.35,-30.82 392.53,-20.05"/>
<polygon fill="#63b8ff" stroke="#63b8ff" points="393.75,-23.34 402.38,-17.2 391.8,-16.62 393.75,-23.34"/>
</a>
</g>
</g>
<!-- Node4&#45;&gt;Node10 -->
<g id="edge9_Node000004_Node000010" class="edge">
<title>Node4&#45;&gt;Node10</title>
<g id="a_edge9_Node000004_Node000010"><a xlink:title=" ">
<path fill="none" stroke="#63b8ff" d="M264.24,-59.36C301.54,-52.18 380.32,-36.67 456.61,-19.12"/>
<polygon fill="#63b8ff" stroke="#63b8ff" points="457.43,-22.52 466.38,-16.85 455.85,-15.7 457.43,-22.52"/>
</a>
</g>
</g>
<!-- Node17&#45;&gt;Node3 -->
<g id="edge21_Node000017_Node000003" class="edge">
<title>Node17&#45;&gt;Node3</title>
<g id="a_edge21_Node000017_Node000003"><a xlink:title=" ">
<path fill="none" stroke="#63b8ff" d="M691.18,-219.82C690.29,-206.71 686.95,-181.63 674.5,-165 663.99,-150.96 647.64,-140.41 633.07,-133.1"/>
<polygon fill="#63b8ff" stroke="#63b8ff" points="634.38,-129.85 623.84,-128.77 631.41,-136.19 634.38,-129.85"/>
</a>
</g>
</g>
<!-- Node18&#45;&gt;Node3 -->
<g id="edge38_Node000018_Node000003" class="edge">
<title>Node18&#45;&gt;Node3</title>
<g id="a_edge38_Node000018_Node000003"><a xlink:title=" ">
<path fill="none" stroke="#63b8ff" d="M311.97,-219.96C324.61,-206.09 351.67,-178.83 380.5,-165 442.93,-135.05 524.61,-125.24 569.13,-122.04"/>
<polygon fill="#63b8ff" stroke="#63b8ff" points="569.6,-125.52 579.35,-121.38 569.14,-118.53 569.6,-125.52"/>
</a>
</g>
</g>
<!-- Node19 -->
<g id="Node000019" class="node">
<title>Node19</title>
<g id="a_Node000019"><a xlink:href="condition_8h.html" target="_top" xlink:title="Interface for classifier conditions.">
<polygon fill="white" stroke="#666666" points="453.5,-184 389.5,-184 389.5,-165 453.5,-165 453.5,-184"/>
<text text-anchor="middle" x="421.5" y="-172" font-family="Helvetica,sans-Serif" font-size="10.00">condition.h</text>
</a>
</g>
</g>
<!-- Node18&#45;&gt;Node19 -->
<g id="edge23_Node000018_Node000019" class="edge">
<title>Node18&#45;&gt;Node19</title>
<g id="a_edge23_Node000018_Node000019"><a xlink:title=" ">
<path fill="none" stroke="#63b8ff" d="M323.3,-219.98C342.12,-211.46 371.32,-198.23 393,-188.41"/>
<polygon fill="#63b8ff" stroke="#63b8ff" points="394.7,-191.48 402.36,-184.17 391.81,-185.11 394.7,-191.48"/>
</a>
</g>
</g>
<!-- Node20 -->
<g id="Node000020" class="node">
<title>Node20</title>
<g id="a_Node000020"><a xlink:href="neural_8h.html" target="_top" xlink:title="An implementation of a multi&#45;layer perceptron neural network.">
<polygon fill="white" stroke="#666666" points="356,-129 305,-129 305,-110 356,-110 356,-129"/>
<text text-anchor="middle" x="330.5" y="-117" font-family="Helvetica,sans-Serif" font-size="10.00">neural.h</text>
</a>
</g>
</g>
<!-- Node18&#45;&gt;Node20 -->
<g id="edge25_Node000018_Node000020" class="edge">
<title>Node18&#45;&gt;Node20</title>
<g id="a_edge25_Node000018_Node000020"><a xlink:title=" ">
<path fill="none" stroke="#63b8ff" d="M304.2,-219.71C304,-207.29 304.44,-184.02 309.5,-165 311.97,-155.71 316.32,-145.99 320.43,-138.02"/>
<polygon fill="#63b8ff" stroke="#63b8ff" points="323.63,-139.46 325.34,-129.01 317.48,-136.11 323.63,-139.46"/>
</a>
</g>
</g>
<!-- Node21 -->
<g id="Node000021" class="node">
<title>Node21</title>
<g id="a_Node000021"><a xlink:href="neural__activations_8h.html" target="_top" xlink:title="Neural network activation functions.">
<polygon fill="white" stroke="#666666" points="161.5,-184 57.5,-184 57.5,-165 161.5,-165 161.5,-184"/>
<text text-anchor="middle" x="109.5" y="-172" font-family="Helvetica,sans-Serif" font-size="10.00">neural_activations.h</text>
</a>
</g>
</g>
<!-- Node18&#45;&gt;Node21 -->
<g id="edge32_Node000018_Node000021" class="edge">
<title>Node18&#45;&gt;Node21</title>
<g id="a_edge32_Node000018_Node000021"><a xlink:title=" ">
<path fill="none" stroke="#63b8ff" d="M273.17,-219.98C240.01,-210.97 187.5,-196.7 150.94,-186.76"/>
<polygon fill="#63b8ff" stroke="#63b8ff" points="151.64,-183.33 141.08,-184.08 149.81,-190.08 151.64,-183.33"/>
</a>
</g>
</g>
<!-- Node22 -->
<g id="Node000022" class="node">
<title>Node22</title>
<g id="a_Node000022"><a xlink:href="neural__layer_8h.html" target="_top" xlink:title="Interface for neural network layers.">
<polygon fill="white" stroke="#666666" points="257,-184 180,-184 180,-165 257,-165 257,-184"/>
<text text-anchor="middle" x="218.5" y="-172" font-family="Helvetica,sans-Serif" font-size="10.00">neural_layer.h</text>
</a>
</g>
</g>
<!-- Node18&#45;&gt;Node22 -->
<g id="edge34_Node000018_Node000022" class="edge">
<title>Node18&#45;&gt;Node22</title>
<g id="a_edge34_Node000018_Node000022"><a xlink:title=" ">
<path fill="none" stroke="#63b8ff" d="M290.68,-219.98C277.35,-211.77 256.92,-199.18 241.19,-189.49"/>
<polygon fill="#63b8ff" stroke="#63b8ff" points="242.92,-186.44 232.57,-184.17 239.25,-192.4 242.92,-186.44"/>
</a>
</g>
</g>
<!-- Node19&#45;&gt;Node3 -->
<g id="edge24_Node000019_Node000003" class="edge">
<title>Node19&#45;&gt;Node3</title>
<g id="a_edge24_Node000019_Node000003"><a xlink:title=" ">
<path fill="none" stroke="#63b8ff" d="M450.42,-164.98C483.02,-155.39 535.87,-139.82 569.64,-129.88"/>
<polygon fill="#63b8ff" stroke="#63b8ff" points="570.86,-133.17 579.46,-126.99 568.88,-126.46 570.86,-133.17"/>
</a>
</g>
</g>
<!-- Node20&#45;&gt;Node4 -->
<g id="edge26_Node000020_Node000004" class="edge">
<title>Node20&#45;&gt;Node4</title>
<g id="a_edge26_Node000020_Node000004"><a xlink:title=" ">
<path fill="none" stroke="#63b8ff" d="M316.36,-109.98C302.71,-101.77 281.81,-89.18 265.72,-79.49"/>
<polygon fill="#63b8ff" stroke="#63b8ff" points="267.27,-76.33 256.9,-74.17 263.66,-82.33 267.27,-76.33"/>
</a>
</g>
</g>
<!-- Node20&#45;&gt;Node8 -->
<g id="edge27_Node000020_Node000008" class="edge">
<title>Node20&#45;&gt;Node8</title>
<g id="a_edge27_Node000020_Node000008"><a xlink:title=" ">
<path fill="none" stroke="#63b8ff" d="M325.39,-109.63C318.89,-97.13 309.31,-73.76 316.5,-55 320.74,-43.94 329.14,-33.91 337.14,-26.18"/>
<polygon fill="#63b8ff" stroke="#63b8ff" points="339.75,-28.55 344.86,-19.27 335.08,-23.33 339.75,-28.55"/>
</a>
</g>
</g>
<!-- Node20&#45;&gt;Node9 -->
<g id="edge29_Node000020_Node000009" class="edge">
<title>Node20&#45;&gt;Node9</title>
<g id="a_edge29_Node000020_Node000009"><a xlink:title=" ">
<path fill="none" stroke="#63b8ff" d="M331.95,-109.81C334.51,-96.69 340.91,-71.6 354.5,-55 365.36,-41.74 381.26,-31.26 395.26,-23.81"/>
<polygon fill="#63b8ff" stroke="#63b8ff" points="397.2,-26.75 404.57,-19.14 394.06,-20.5 397.2,-26.75"/>
</a>
</g>
</g>
<!-- Node20&#45;&gt;Node10 -->
<g id="edge30_Node000020_Node000010" class="edge">
<title>Node20&#45;&gt;Node10</title>
<g id="a_edge30_Node000020_Node000010"><a xlink:title=" ">
<path fill="none" stroke="#63b8ff" d="M336.55,-109.6C346.04,-96.2 365.61,-70.74 387.5,-55 408.66,-39.78 435.84,-28.31 456.97,-20.83"/>
<polygon fill="#63b8ff" stroke="#63b8ff" points="458.16,-24.12 466.5,-17.58 455.9,-17.5 458.16,-24.12"/>
</a>
</g>
</g>
<!-- Node20&#45;&gt;Node15 -->
<g id="edge28_Node000020_Node000015" class="edge">
<title>Node20&#45;&gt;Node15</title>
<g id="a_edge28_Node000020_Node000015"><a xlink:title=" ">
<path fill="none" stroke="#63b8ff" d="M345.12,-109.98C359.36,-101.69 381.25,-88.94 397.95,-79.22"/>
<polygon fill="#63b8ff" stroke="#63b8ff" points="399.73,-82.23 406.61,-74.17 396.21,-76.18 399.73,-82.23"/>
</a>
</g>
</g>
<!-- Node20&#45;&gt;Node16 -->
<g id="edge31_Node000020_Node000016" class="edge">
<title>Node20&#45;&gt;Node16</title>
<g id="a_edge31_Node000020_Node000016"><a xlink:title=" ">
<path fill="none" stroke="#63b8ff" d="M355.89,-109.98C382.61,-101.02 424.84,-86.86 454.44,-76.92"/>
<polygon fill="#63b8ff" stroke="#63b8ff" points="455.59,-80.23 463.96,-73.73 453.36,-73.59 455.59,-80.23"/>
</a>
</g>
</g>
<!-- Node21&#45;&gt;Node7 -->
<g id="edge33_Node000021_Node000007" class="edge">
<title>Node21&#45;&gt;Node7</title>
<g id="a_edge33_Node000021_Node000007"><a xlink:title=" ">
<path fill="none" stroke="#63b8ff" d="M104.88,-164.74C91.29,-138.98 51.27,-63.13 32.91,-28.33"/>
<polygon fill="#63b8ff" stroke="#63b8ff" points="35.91,-26.52 28.15,-19.31 29.72,-29.78 35.91,-26.52"/>
</a>
</g>
</g>
<!-- Node22&#45;&gt;Node20 -->
<g id="edge35_Node000022_Node000020" class="edge">
<title>Node22&#45;&gt;Node20</title>
<g id="a_edge35_Node000022_Node000020"><a xlink:title=" ">
<path fill="none" stroke="#63b8ff" d="M236.49,-164.98C254.43,-156.5 282.22,-143.35 302.93,-133.54"/>
<polygon fill="#63b8ff" stroke="#63b8ff" points="304.64,-136.61 312.18,-129.17 301.64,-130.28 304.64,-136.61"/>
</a>
</g>
</g>
<!-- Node23 -->
<g id="Node000023" class="node">
<title>Node23</title>
<g id="a_Node000023"><a xlink:href="neural__layer__args_8h.html" target="_top" xlink:title="Functions operating on neural network arguments/constants.">
<polygon fill="white" stroke="#666666" points="273,-129 172,-129 172,-110 273,-110 273,-129"/>
<text text-anchor="middle" x="222.5" y="-117" font-family="Helvetica,sans-Serif" font-size="10.00">neural_layer_args.h</text>
</a>
</g>
</g>
<!-- Node22&#45;&gt;Node23 -->
<g id="edge36_Node000022_Node000023" class="edge">
<title>Node22&#45;&gt;Node23</title>
<g id="a_edge36_Node000022_Node000023"><a xlink:title=" ">
<path fill="none" stroke="#63b8ff" d="M219.16,-164.75C219.68,-157.8 220.44,-147.85 221.09,-139.13"/>
<polygon fill="#63b8ff" stroke="#63b8ff" points="224.59,-139.32 221.85,-129.09 217.61,-138.8 224.59,-139.32"/>
</a>
</g>
</g>
<!-- Node23&#45;&gt;Node4 -->
<g id="edge37_Node000023_Node000004" class="edge">
<title>Node23&#45;&gt;Node4</title>
<g id="a_edge37_Node000023_Node000004"><a xlink:title=" ">
<path fill="none" stroke="#63b8ff" d="M225.8,-109.75C228.48,-102.65 232.35,-92.4 235.69,-83.56"/>
<polygon fill="#63b8ff" stroke="#63b8ff" points="239,-84.68 239.26,-74.09 232.45,-82.21 239,-84.68"/>
</a>
</g>
</g>
<!-- Node24&#45;&gt;Node3 -->
<g id="edge40_Node000024_Node000003" class="edge">
<title>Node24&#45;&gt;Node3</title>
<g id="a_edge40_Node000024_Node000003"><a xlink:title=" ">
<path fill="none" stroke="#63b8ff" d="M721.93,-165.45C698.3,-156.63 660.16,-142.4 633.14,-132.31"/>
<polygon fill="#63b8ff" stroke="#63b8ff" points="634.33,-129.02 623.74,-128.8 631.88,-135.58 634.33,-129.02"/>
</a>
</g>
</g>
<!-- Node25&#45;&gt;Node3 -->
<g id="edge42_Node000025_Node000003" class="edge">
<title>Node25&#45;&gt;Node3</title>
<g id="a_edge42_Node000025_Node000003"><a xlink:title=" ">
<path fill="none" stroke="#63b8ff" d="M595.07,-219.66C596.21,-202.17 598.76,-162.8 600.28,-139.27"/>
<polygon fill="#63b8ff" stroke="#63b8ff" points="603.78,-139.36 600.94,-129.16 596.8,-138.91 603.78,-139.36"/>
</a>
</g>
</g>
<!-- Node26&#45;&gt;Node3 -->
<g id="edge45_Node000026_Node000003" class="edge">
<title>Node26&#45;&gt;Node3</title>
<g id="a_edge45_Node000026_Node000003"><a xlink:title=" ">
<path fill="none" stroke="#63b8ff" d="M796,-219.71C794.75,-205.99 790.29,-179.55 774.5,-165 735.72,-129.27 672.15,-121.37 633.82,-120.1"/>
<polygon fill="#63b8ff" stroke="#63b8ff" points="633.78,-116.6 623.72,-119.89 633.64,-123.59 633.78,-116.6"/>
</a>
</g>
</g>
<!-- Node26&#45;&gt;Node24 -->
<g id="edge44_Node000026_Node000024" class="edge">
<title>Node26&#45;&gt;Node24</title>
<g id="a_edge44_Node000026_Node000024"><a xlink:title=" ">
<path fill="none" stroke="#63b8ff" d="M787.75,-219.75C780.03,-212.03 768.6,-200.6 759.28,-191.28"/>
<polygon fill="#63b8ff" stroke="#63b8ff" points="761.64,-188.69 752.09,-184.09 756.69,-193.64 761.64,-188.69"/>
</a>
</g>
</g>
<!-- Node27&#45;&gt;Node3 -->
<g id="edge52_Node000027_Node000003" class="edge">
<title>Node27&#45;&gt;Node3</title>
<g id="a_edge52_Node000027_Node000003"><a xlink:title=" ">
<path fill="none" stroke="#63b8ff" d="M478.34,-219.85C498.44,-212.34 526.36,-200.14 547.5,-184 564.67,-170.89 580.18,-151.47 590.13,-137.57"/>
<polygon fill="#63b8ff" stroke="#63b8ff" points="593,-139.56 595.82,-129.34 587.25,-135.57 593,-139.56"/>
</a>
</g>
</g>
<!-- Node27&#45;&gt;Node20 -->
<g id="edge47_Node000027_Node000020" class="edge">
<title>Node27&#45;&gt;Node20</title>
<g id="a_edge47_Node000027_Node000020"><a xlink:title=" ">
<path fill="none" stroke="#63b8ff" d="M435.06,-219.96C419.72,-211.94 397.27,-198.97 380.5,-184 365.02,-170.18 350.74,-151.14 341.44,-137.52"/>
<polygon fill="#63b8ff" stroke="#63b8ff" points="344.29,-135.48 335.84,-129.09 338.46,-139.35 344.29,-135.48"/>
</a>
</g>
</g>
<!-- Node27&#45;&gt;Node21 -->
<g id="edge48_Node000027_Node000021" class="edge">
<title>Node27&#45;&gt;Node21</title>
<g id="a_edge48_Node000027_Node000021"><a xlink:title=" ">
<path fill="none" stroke="#63b8ff" d="M414.81,-222.68C356.26,-213.63 242.82,-196.1 171.91,-185.14"/>
<polygon fill="#63b8ff" stroke="#63b8ff" points="172.19,-181.65 161.77,-183.58 171.12,-188.56 172.19,-181.65"/>
</a>
</g>
</g>
<!-- Node27&#45;&gt;Node22 -->
<g id="edge49_Node000027_Node000022" class="edge">
<title>Node27&#45;&gt;Node22</title>
<g id="a_edge49_Node000027_Node000022"><a xlink:title=" ">
<path fill="none" stroke="#63b8ff" d="M414.9,-219.98C374.51,-210.84 310.22,-196.27 266.27,-186.32"/>
<polygon fill="#63b8ff" stroke="#63b8ff" points="266.92,-182.88 256.39,-184.08 265.37,-189.7 266.92,-182.88"/>
</a>
</g>
</g>
<!-- Node28 -->
<g id="Node000028" class="node">
<title>Node28</title>
<g id="a_Node000028"><a xlink:href="prediction_8h.html" target="_top" xlink:title="Interface for classifier predictions.">
<polygon fill="white" stroke="#666666" points="539,-184 472,-184 472,-165 539,-165 539,-184"/>
<text text-anchor="middle" x="505.5" y="-172" font-family="Helvetica,sans-Serif" font-size="10.00">prediction.h</text>
</a>
</g>
</g>
<!-- Node27&#45;&gt;Node28 -->
<g id="edge50_Node000027_Node000028" class="edge">
<title>Node27&#45;&gt;Node28</title>
<g id="a_edge50_Node000027_Node000028"><a xlink:title=" ">
<path fill="none" stroke="#63b8ff" d="M461.25,-219.75C468.97,-212.03 480.4,-200.6 489.72,-191.28"/>
<polygon fill="#63b8ff" stroke="#63b8ff" points="492.31,-193.64 496.91,-184.09 487.36,-188.69 492.31,-193.64"/>
</a>
</g>
</g>
<!-- Node28&#45;&gt;Node3 -->
<g id="edge51_Node000028_Node000003" class="edge">
<title>Node28&#45;&gt;Node3</title>
<g id="a_edge51_Node000028_Node000003"><a xlink:title=" ">
<path fill="none" stroke="#63b8ff" d="M520.92,-164.98C535.95,-156.69 559.04,-143.94 576.66,-134.22"/>
<polygon fill="#63b8ff" stroke="#63b8ff" points="578.73,-137.07 585.8,-129.17 575.35,-130.94 578.73,-137.07"/>
</a>
</g>
</g>
</g>
</svg>
