<?xml version="1.0" encoding="UTF-8" standalone="no"?>
<!DOCTYPE svg PUBLIC "-//W3C//DTD SVG 1.1//EN"
 "http://www.w3.org/Graphics/SVG/1.1/DTD/svg11.dtd">
<!-- Generated by graphviz version 2.43.0 (0)
 -->
<!-- Title: xcsf_store_pset Pages: 1 -->
<svg width="393pt" height="180pt"
 viewBox="0.00 0.00 393.00 180.00" xmlns="http://www.w3.org/2000/svg" xmlns:xlink="http://www.w3.org/1999/xlink">
<g id="graph0" class="graph" transform="scale(1 1) rotate(0) translate(4 176)">
<title>xcsf_store_pset</title>
<!-- Node1 -->
<g id="node1" class="node">
<title>Node1</title>
<g id="a_node1"><a xlink:title="Stores the current population.">
<polygon fill="#bfbfbf" stroke="black" points="0,-76.5 0,-95.5 86,-95.5 86,-76.5 0,-76.5"/>
<text text-anchor="middle" x="43" y="-83.5" font-family="Helvetica,sans-Serif" font-size="10.00">xcsf_store_pset</text>
</a>
</g>
</g>
<!-- Node2 -->
<g id="node2" class="node">
<title>Node2</title>
<g id="a_node2"><a xlink:href="cl_8c.html#a70aceb2c4039333d36ee71f954fb9d79" target="_top" xlink:title="Initialises and creates a copy of one classifier from another.">
<polygon fill="none" stroke="black" points="122,-114.5 122,-133.5 190,-133.5 190,-114.5 122,-114.5"/>
<text text-anchor="middle" x="156" y="-121.5" font-family="Helvetica,sans-Serif" font-size="10.00">cl_init_copy</text>
</a>
</g>
</g>
<!-- Node1&#45;&gt;Node2 -->
<g id="edge1" class="edge">
<title>Node1&#45;&gt;Node2</title>
<path fill="none" stroke="midnightblue" d="M72.01,-95.59C85.68,-100.27 102.33,-105.97 117.12,-111.03"/>
<polygon fill="midnightblue" stroke="midnightblue" points="116.4,-114.49 127,-114.41 118.67,-107.86 116.4,-114.49"/>
</g>
<!-- Node6 -->
<g id="node6" class="node">
<title>Node6</title>
<g id="a_node6"><a xlink:href="clset_8c.html#a64d33e6235c57f30a4a3ec82f18e57d6" target="_top" xlink:title="Adds a classifier to the set.">
<polygon fill="none" stroke="black" points="126.5,-76.5 126.5,-95.5 185.5,-95.5 185.5,-76.5 126.5,-76.5"/>
<text text-anchor="middle" x="156" y="-83.5" font-family="Helvetica,sans-Serif" font-size="10.00">clset_add</text>
</a>
</g>
</g>
<!-- Node1&#45;&gt;Node6 -->
<g id="edge5" class="edge">
<title>Node1&#45;&gt;Node6</title>
<path fill="none" stroke="midnightblue" d="M86.28,-86C96.09,-86 106.48,-86 116.14,-86"/>
<polygon fill="midnightblue" stroke="midnightblue" points="116.26,-89.5 126.26,-86 116.26,-82.5 116.26,-89.5"/>
</g>
<!-- Node7 -->
<g id="node7" class="node">
<title>Node7</title>
<g id="a_node7"><a xlink:href="clset_8c.html#a236baf24659360891f944761f88a30f4" target="_top" xlink:title="Frees the set and the classifiers.">
<polygon fill="none" stroke="black" points="128.5,-38.5 128.5,-57.5 183.5,-57.5 183.5,-38.5 128.5,-38.5"/>
<text text-anchor="middle" x="156" y="-45.5" font-family="Helvetica,sans-Serif" font-size="10.00">clset_kill</text>
</a>
</g>
</g>
<!-- Node1&#45;&gt;Node7 -->
<g id="edge6" class="edge">
<title>Node1&#45;&gt;Node7</title>
<path fill="none" stroke="midnightblue" d="M72.01,-76.41C86.13,-71.58 103.42,-65.66 118.56,-60.47"/>
<polygon fill="midnightblue" stroke="midnightblue" points="119.82,-63.74 128.15,-57.19 117.55,-57.12 119.82,-63.74"/>
</g>
<!-- Node3 -->
<g id="node3" class="node">
<title>Node3</title>
<g id="a_node3"><a xlink:href="action_8h.html#a319e5909d871e8146c4cbc66626ca5f3" target="_top" xlink:title="Copies the action from one classifier to another.">
<polygon fill="none" stroke="black" points="230,-152.5 230,-171.5 286,-171.5 286,-152.5 230,-152.5"/>
<text text-anchor="middle" x="258" y="-159.5" font-family="Helvetica,sans-Serif" font-size="10.00">act_copy</text>
</a>
</g>
</g>
<!-- Node2&#45;&gt;Node3 -->
<g id="edge2" class="edge">
<title>Node2&#45;&gt;Node3</title>
<path fill="none" stroke="midnightblue" d="M182.23,-133.59C194.31,-138.18 208.97,-143.75 222.1,-148.74"/>
<polygon fill="midnightblue" stroke="midnightblue" points="221.18,-152.13 231.77,-152.41 223.67,-145.59 221.18,-152.13"/>
</g>
<!-- Node4 -->
<g id="node4" class="node">
<title>Node4</title>
<g id="a_node4"><a xlink:href="condition_8h.html#aab327f8188ff446498294b76164f2d25" target="_top" xlink:title="Copies the condition from one classifier to another.">
<polygon fill="none" stroke="black" points="226,-114.5 226,-133.5 290,-133.5 290,-114.5 226,-114.5"/>
<text text-anchor="middle" x="258" y="-121.5" font-family="Helvetica,sans-Serif" font-size="10.00">cond_copy</text>
</a>
</g>
</g>
<!-- Node2&#45;&gt;Node4 -->
<g id="edge3" class="edge">
<title>Node2&#45;&gt;Node4</title>
<path fill="none" stroke="midnightblue" d="M190.02,-124C198.19,-124 207.05,-124 215.56,-124"/>
<polygon fill="midnightblue" stroke="midnightblue" points="215.71,-127.5 225.71,-124 215.71,-120.5 215.71,-127.5"/>
</g>
<!-- Node5 -->
<g id="node5" class="node">
<title>Node5</title>
<g id="a_node5"><a xlink:href="prediction_8h.html#a8657fd08bb09fdf57a6d91db71f1b447" target="_top" xlink:title="Copies the prediction from one classifier to another.">
<polygon fill="none" stroke="black" points="227,-76.5 227,-95.5 289,-95.5 289,-76.5 227,-76.5"/>
<text text-anchor="middle" x="258" y="-83.5" font-family="Helvetica,sans-Serif" font-size="10.00">pred_copy</text>
</a>
</g>
</g>
<!-- Node2&#45;&gt;Node5 -->
<g id="edge4" class="edge">
<title>Node2&#45;&gt;Node5</title>
<path fill="none" stroke="midnightblue" d="M182.23,-114.41C194.31,-109.82 208.97,-104.25 222.1,-99.26"/>
<polygon fill="midnightblue" stroke="midnightblue" points="223.67,-102.41 231.77,-95.59 221.18,-95.87 223.67,-102.41"/>
</g>
<!-- Node8 -->
<g id="node8" class="node">
<title>Node8</title>
<g id="a_node8"><a xlink:href="cl_8c.html#ac45092c0e43651e8eeaa739766e3f069" target="_top" xlink:title="Frees the memory used by a classifier.">
<polygon fill="none" stroke="black" points="235,-38.5 235,-57.5 281,-57.5 281,-38.5 235,-38.5"/>
<text text-anchor="middle" x="258" y="-45.5" font-family="Helvetica,sans-Serif" font-size="10.00">cl_free</text>
</a>
</g>
</g>
<!-- Node7&#45;&gt;Node8 -->
<g id="edge7" class="edge">
<title>Node7&#45;&gt;Node8</title>
<path fill="none" stroke="midnightblue" d="M183.54,-48C196.14,-48 211.31,-48 224.59,-48"/>
<polygon fill="midnightblue" stroke="midnightblue" points="224.74,-51.5 234.74,-48 224.74,-44.5 224.74,-51.5"/>
</g>
<!-- Node9 -->
<g id="node9" class="node">
<title>Node9</title>
<g id="a_node9"><a xlink:href="action_8h.html#a81912970283c86f80c5b7a38f1865ebd" target="_top" xlink:title="Frees the memory used by the classifier action.">
<polygon fill="none" stroke="black" points="329.5,-76.5 329.5,-95.5 381.5,-95.5 381.5,-76.5 329.5,-76.5"/>
<text text-anchor="middle" x="355.5" y="-83.5" font-family="Helvetica,sans-Serif" font-size="10.00">act_free</text>
</a>
</g>
</g>
<!-- Node8&#45;&gt;Node9 -->
<g id="edge8" class="edge">
<title>Node8&#45;&gt;Node9</title>
<path fill="none" stroke="midnightblue" d="M281.15,-56.81C293.03,-61.54 307.92,-67.46 321.17,-72.74"/>
<polygon fill="midnightblue" stroke="midnightblue" points="319.88,-75.99 330.46,-76.44 322.47,-69.49 319.88,-75.99"/>
</g>
<!-- Node10 -->
<g id="node10" class="node">
<title>Node10</title>
<g id="a_node10"><a xlink:href="condition_8h.html#a2f342b5e29e020e139112cf99887b4c5" target="_top" xlink:title="Frees the memory used by the classifier condition.">
<polygon fill="none" stroke="black" points="326,-38.5 326,-57.5 385,-57.5 385,-38.5 326,-38.5"/>
<text text-anchor="middle" x="355.5" y="-45.5" font-family="Helvetica,sans-Serif" font-size="10.00">cond_free</text>
</a>
</g>
</g>
<!-- Node8&#45;&gt;Node10 -->
<g id="edge9" class="edge">
<title>Node8&#45;&gt;Node10</title>
<path fill="none" stroke="midnightblue" d="M281.15,-48C291.46,-48 304.04,-48 315.84,-48"/>
<polygon fill="midnightblue" stroke="midnightblue" points="315.94,-51.5 325.94,-48 315.94,-44.5 315.94,-51.5"/>
</g>
<!-- Node11 -->
<g id="node11" class="node">
<title>Node11</title>
<g id="a_node11"><a xlink:href="prediction_8h.html#af19eafd52548ede9b90594c8b8949098" target="_top" xlink:title="Frees the memory used by the classifier prediction.">
<polygon fill="none" stroke="black" points="327,-0.5 327,-19.5 384,-19.5 384,-0.5 327,-0.5"/>
<text text-anchor="middle" x="355.5" y="-7.5" font-family="Helvetica,sans-Serif" font-size="10.00">pred_free</text>
</a>
</g>
</g>
<!-- Node8&#45;&gt;Node11 -->
<g id="edge10" class="edge">
<title>Node8&#45;&gt;Node11</title>
<path fill="none" stroke="midnightblue" d="M281.15,-39.19C293.03,-34.46 307.92,-28.54 321.17,-23.26"/>
<polygon fill="midnightblue" stroke="midnightblue" points="322.47,-26.51 330.46,-19.56 319.88,-20.01 322.47,-26.51"/>
</g>
</g>
</svg>
